<?xml version="1.0" encoding="UTF-8" standalone="no"?>
<!DOCTYPE svg PUBLIC "-//W3C//DTD SVG 1.1//EN"
 "http://www.w3.org/Graphics/SVG/1.1/DTD/svg11.dtd">
<!-- Generated by graphviz version 2.47.3 (20210619.1520)
 -->
<!-- Title: istream::peek Pages: 1 -->
<svg width="212pt" height="70pt"
 viewBox="0.00 0.00 212.00 70.00" xmlns="http://www.w3.org/2000/svg" xmlns:xlink="http://www.w3.org/1999/xlink">
<g id="graph0" class="graph" transform="scale(1 1) rotate(0) translate(4 66)">
<title>istream::peek</title>
<polygon fill="white" stroke="transparent" points="-4,4 -4,-66 208,-66 208,4 -4,4"/>
<!-- Node1 -->
<g id="node1" class="node">
<title>Node1</title>
<g id="a_node1"><a xlink:title=" ">
<polygon fill="#bfbfbf" stroke="black" points="0,-20.5 0,-41.5 88,-41.5 88,-20.5 0,-20.5"/>
<text text-anchor="middle" x="44" y="-27.9" font-family="Helvetica,sans-Serif" font-size="12.00">istream::peek</text>
</a>
</g>
</g>
<!-- Node2 -->
<g id="node2" class="node">
<title>Node2</title>
<g id="a_node2"><a xlink:href="../../df/d02/classios.html#a78be4e3069a644ff36d83a70b080c321" target="_top" xlink:title=" ">
<polygon fill="white" stroke="black" points="134.5,-40.5 134.5,-61.5 193.5,-61.5 193.5,-40.5 134.5,-40.5"/>
<text text-anchor="middle" x="164" y="-47.9" font-family="Helvetica,sans-Serif" font-size="12.00">ios::bad</text>
</a>
</g>
</g>
<!-- Node1&#45;&gt;Node2 -->
<g id="edge1" class="edge">
<title>Node1&#45;&gt;Node2</title>
<path fill="none" stroke="midnightblue" d="M88.27,-38.33C100.05,-40.33 112.74,-42.48 124.26,-44.43"/>
<polygon fill="midnightblue" stroke="midnightblue" points="124,-47.94 134.44,-46.16 125.17,-41.04 124,-47.94"/>
</g>
<!-- Node3 -->
<g id="node3" class="node">
<title>Node3</title>
<g id="a_node3"><a xlink:href="../../df/d02/classios.html#aee5d194656bdfb0c8621b23ea2f51afb" target="_top" xlink:title=" ">
<polygon fill="white" stroke="black" points="124,-0.5 124,-21.5 204,-21.5 204,-0.5 124,-0.5"/>
<text text-anchor="middle" x="164" y="-7.9" font-family="Helvetica,sans-Serif" font-size="12.00">ios::setstate</text>
</a>
</g>
</g>
<!-- Node1&#45;&gt;Node3 -->
<g id="edge2" class="edge">
<title>Node1&#45;&gt;Node3</title>
<path fill="none" stroke="midnightblue" d="M88.27,-23.67C96.5,-22.27 105.17,-20.8 113.57,-19.38"/>
<polygon fill="midnightblue" stroke="midnightblue" points="114.37,-22.79 123.65,-17.67 113.2,-15.89 114.37,-22.79"/>
</g>
</g>
</svg>
