<?xml version="1.0" encoding="UTF-8" standalone="no"?>
<!DOCTYPE svg PUBLIC "-//W3C//DTD SVG 1.1//EN"
 "http://www.w3.org/Graphics/SVG/1.1/DTD/svg11.dtd">
<!-- Generated by graphviz version 2.47.3 (20210619.1520)
 -->
<!-- Title: StdioStream::fwrite Pages: 1 -->
<svg width="438pt" height="30pt"
 viewBox="0.00 0.00 438.00 30.00" xmlns="http://www.w3.org/2000/svg" xmlns:xlink="http://www.w3.org/1999/xlink">
<g id="graph0" class="graph" transform="scale(1 1) rotate(0) translate(4 26)">
<title>StdioStream::fwrite</title>
<polygon fill="white" stroke="transparent" points="-4,4 -4,-26 434,-26 434,4 -4,4"/>
<!-- Node1 -->
<g id="node1" class="node">
<title>Node1</title>
<g id="a_node1"><a xlink:title=" ">
<polygon fill="#bfbfbf" stroke="black" points="0,-0.5 0,-21.5 116,-21.5 116,-0.5 0,-0.5"/>
<text text-anchor="middle" x="58" y="-7.9" font-family="Helvetica,sans-Serif" font-size="12.00">StdioStream::fwrite</text>
</a>
</g>
</g>
<!-- Node2 -->
<g id="node2" class="node">
<title>Node2</title>
<g id="a_node2"><a xlink:href="../../d2/de6/class_stdio_stream.html#ac1976bebf66840cc4c16f287d6f9ee79" target="_top" xlink:title=" ">
<polygon fill="white" stroke="black" points="152,-0.5 152,-21.5 265,-21.5 265,-0.5 152,-0.5"/>
<text text-anchor="middle" x="208.5" y="-7.9" font-family="Helvetica,sans-Serif" font-size="12.00">StdioStream::write</text>
</a>
</g>
</g>
<!-- Node1&#45;&gt;Node2 -->
<g id="edge1" class="edge">
<title>Node1&#45;&gt;Node2</title>
<path fill="none" stroke="midnightblue" d="M116.41,-11C124.65,-11 133.18,-11 141.57,-11"/>
<polygon fill="midnightblue" stroke="midnightblue" points="141.7,-14.5 151.7,-11 141.7,-7.5 141.7,-14.5"/>
</g>
<!-- Node3 -->
<g id="node3" class="node">
<title>Node3</title>
<g id="a_node3"><a xlink:href="../../d2/de6/class_stdio_stream.html#a525cecc51f31e964f7ef43b6cf6d8b38" target="_top" xlink:title=" ">
<polygon fill="white" stroke="black" points="301,-0.5 301,-21.5 430,-21.5 430,-0.5 301,-0.5"/>
<text text-anchor="middle" x="365.5" y="-7.9" font-family="Helvetica,sans-Serif" font-size="12.00">StdioStream::flushBuf</text>
</a>
</g>
</g>
<!-- Node2&#45;&gt;Node3 -->
<g id="edge2" class="edge">
<title>Node2&#45;&gt;Node3</title>
<path fill="none" stroke="midnightblue" d="M265.02,-11C273.39,-11 282.13,-11 290.8,-11"/>
<polygon fill="midnightblue" stroke="midnightblue" points="290.93,-14.5 300.93,-11 290.93,-7.5 290.93,-14.5"/>
</g>
</g>
</svg>
