<?xml version="1.0" encoding="UTF-8" standalone="no"?>
<!DOCTYPE svg PUBLIC "-//W3C//DTD SVG 1.1//EN"
 "http://www.w3.org/Graphics/SVG/1.1/DTD/svg11.dtd">
<!-- Generated by graphviz version 2.47.3 (20210619.1520)
 -->
<!-- Title: erisAudioSynthToneSweep Pages: 1 -->
<svg width="352pt" height="238pt"
 viewBox="0.00 0.00 351.50 238.00" xmlns="http://www.w3.org/2000/svg" xmlns:xlink="http://www.w3.org/1999/xlink">
<g id="graph0" class="graph" transform="scale(1 1) rotate(0) translate(4 234)">
<title>erisAudioSynthToneSweep</title>
<!-- Node1 -->
<g id="node1" class="node">
<title>Node1</title>
<g id="a_node1"><a xlink:title=" ">
<polygon fill="#bfbfbf" stroke="black" points="40,-0.5 40,-96.5 269,-96.5 269,-0.5 40,-0.5"/>
<text text-anchor="middle" x="154.5" y="-79.7" font-family="Helvetica,sans-Serif" font-size="16.00">erisAudioSynthToneSweep</text>
<polyline fill="none" stroke="black" points="40,-70.5 269,-70.5 "/>
<text text-anchor="middle" x="154.5" y="-53.7" font-family="Helvetica,sans-Serif" font-size="16.00"> </text>
<polyline fill="none" stroke="black" points="40,-44.5 269,-44.5 "/>
<text text-anchor="start" x="48" y="-27.7" font-family="Helvetica,sans-Serif" font-size="16.00">+ erisAudioSynthToneSweep()</text>
<text text-anchor="start" x="48" y="-9.7" font-family="Helvetica,sans-Serif" font-size="16.00">+ void update()</text>
</a>
</g>
</g>
<!-- Node2 -->
<g id="node2" class="node">
<title>Node2</title>
<g id="a_node2"><a xlink:href="../../db/dd9/class_audio_synth_tone_sweep.html" target="_top" xlink:title=" ">
<polygon fill="none" stroke="black" points="0,-151.5 0,-229.5 179,-229.5 179,-151.5 0,-151.5"/>
<text text-anchor="middle" x="89.5" y="-212.7" font-family="Helvetica,sans-Serif" font-size="16.00">AudioSynthToneSweep</text>
<polyline fill="none" stroke="black" points="0,-203.5 179,-203.5 "/>
<text text-anchor="middle" x="89.5" y="-186.7" font-family="Helvetica,sans-Serif" font-size="16.00"> </text>
<polyline fill="none" stroke="black" points="0,-177.5 179,-177.5 "/>
<text text-anchor="middle" x="89.5" y="-160.7" font-family="Helvetica,sans-Serif" font-size="16.00"> </text>
</a>
</g>
</g>
<!-- Node2&#45;&gt;Node1 -->
<g id="edge1" class="edge">
<title>Node2&#45;&gt;Node1</title>
<path fill="none" stroke="midnightblue" d="M111.6,-141.9C118.38,-127.31 125.82,-111.27 132.58,-96.7"/>
<polygon fill="none" stroke="midnightblue" points="108.3,-140.7 107.26,-151.24 114.65,-143.65 108.3,-140.7"/>
</g>
<!-- Node3 -->
<g id="node3" class="node">
<title>Node3</title>
<g id="a_node3"><a xlink:title=" ">
<polygon fill="none" stroke="#bfbfbf" points="197,-151.5 197,-229.5 244,-229.5 244,-151.5 197,-151.5"/>
<text text-anchor="middle" x="220.5" y="-212.7" font-family="Helvetica,sans-Serif" font-size="16.00">char</text>
<polyline fill="none" stroke="#bfbfbf" points="197,-203.5 244,-203.5 "/>
<text text-anchor="middle" x="220.5" y="-186.7" font-family="Helvetica,sans-Serif" font-size="16.00"> </text>
<polyline fill="none" stroke="#bfbfbf" points="197,-177.5 244,-177.5 "/>
<text text-anchor="middle" x="220.5" y="-160.7" font-family="Helvetica,sans-Serif" font-size="16.00"> </text>
</a>
</g>
</g>
<!-- Node3&#45;&gt;Node1 -->
<g id="edge2" class="edge">
<title>Node3&#45;&gt;Node1</title>
<path fill="none" stroke="#404040" d="M202.47,-151.24C196.14,-137.83 188.88,-122.43 181.96,-107.75"/>
<polygon fill="none" stroke="#404040" points="181.87,-107.56 175.69,-103.84 176.75,-96.7 182.93,-100.42 181.87,-107.56"/>
<text text-anchor="middle" x="268" y="-120.2" font-family="Helvetica,sans-Serif" font-size="16.00"> +short_name_lookup</text>
</g>
</g>
</svg>
