<?xml version="1.0" encoding="UTF-8" standalone="no"?>
<!DOCTYPE svg PUBLIC "-//W3C//DTD SVG 1.1//EN"
 "http://www.w3.org/Graphics/SVG/1.1/DTD/svg11.dtd">
<!-- Generated by graphviz version 2.47.3 (20210619.1520)
 -->
<!-- Title: AppCQT::init Pages: 1 -->
<svg width="1820pt" height="248pt"
 viewBox="0.00 0.00 1820.00 248.00" xmlns="http://www.w3.org/2000/svg" xmlns:xlink="http://www.w3.org/1999/xlink">
<g id="graph0" class="graph" transform="scale(1 1) rotate(0) translate(4 244)">
<title>AppCQT::init</title>
<!-- Node1 -->
<g id="node1" class="node">
<title>Node1</title>
<g id="a_node1"><a xlink:title=" ">
<polygon fill="#bfbfbf" stroke="black" points="0,-117.5 0,-145.5 120,-145.5 120,-117.5 0,-117.5"/>
<text text-anchor="middle" x="60" y="-127.1" font-family="Helvetica,sans-Serif" font-size="18.00">AppCQT::init</text>
</a>
</g>
</g>
<!-- Node2 -->
<g id="node2" class="node">
<title>Node2</title>
<g id="a_node2"><a xlink:href="../../d8/dd0/class_audio_synth_waveform2k_a0b398b106366c493c211f6d32d08d67f.html#a0b398b106366c493c211f6d32d08d67f" target="_top" xlink:title=" ">
<polygon fill="none" stroke="black" points="217.5,-211.5 217.5,-239.5 482.5,-239.5 482.5,-211.5 217.5,-211.5"/>
<text text-anchor="middle" x="350" y="-221.1" font-family="Helvetica,sans-Serif" font-size="18.00">AudioSynthWaveform2k::begin</text>
</a>
</g>
</g>
<!-- Node1&#45;&gt;Node2 -->
<g id="edge1" class="edge">
<title>Node1&#45;&gt;Node2</title>
<path fill="none" stroke="midnightblue" d="M74.96,-145.76C92.27,-162.46 123.5,-189.51 156,-202.5 172.26,-209 189.86,-213.81 207.58,-217.34"/>
<polygon fill="midnightblue" stroke="midnightblue" points="206.96,-220.79 217.44,-219.18 208.25,-213.91 206.96,-220.79"/>
</g>
<!-- Node3 -->
<g id="node3" class="node">
<title>Node3</title>
<g id="a_node3"><a xlink:href="../../dc/d43/class_svc_data_dictionary_a3b09dc582adbb4d5c6f99f6e983a81f1.html#a3b09dc582adbb4d5c6f99f6e983a81f1" target="_top" xlink:title="create a record with ownership">
<polygon fill="none" stroke="black" points="238.5,-164.5 238.5,-192.5 461.5,-192.5 461.5,-164.5 238.5,-164.5"/>
<text text-anchor="middle" x="350" y="-174.1" font-family="Helvetica,sans-Serif" font-size="18.00">SvcDataDictionary::create</text>
</a>
</g>
</g>
<!-- Node1&#45;&gt;Node3 -->
<g id="edge2" class="edge">
<title>Node1&#45;&gt;Node3</title>
<path fill="none" stroke="midnightblue" d="M111.52,-145.55C125.81,-149.17 141.45,-152.81 156,-155.5 179.23,-159.8 204.18,-163.47 228.18,-166.53"/>
<polygon fill="midnightblue" stroke="midnightblue" points="228.05,-170.04 238.4,-167.8 228.91,-163.09 228.05,-170.04"/>
</g>
<!-- Node6 -->
<g id="node6" class="node">
<title>Node6</title>
<g id="a_node6"><a xlink:href="../../d0/d55/classeris_audio_analyze_f_f_t1024_a755081ed295a0ae6385db5dad48c6de1.html#a755081ed295a0ae6385db5dad48c6de1" target="_top" xlink:title=" ">
<polygon fill="none" stroke="black" points="187.5,-117.5 187.5,-145.5 512.5,-145.5 512.5,-117.5 187.5,-117.5"/>
<text text-anchor="middle" x="350" y="-127.1" font-family="Helvetica,sans-Serif" font-size="18.00">erisAudioAnalyzeFFT1024::enableFFT</text>
</a>
</g>
</g>
<!-- Node1&#45;&gt;Node6 -->
<g id="edge5" class="edge">
<title>Node1&#45;&gt;Node6</title>
<path fill="none" stroke="midnightblue" d="M120.32,-131.5C137.45,-131.5 157.05,-131.5 177.41,-131.5"/>
<polygon fill="midnightblue" stroke="midnightblue" points="177.46,-135 187.46,-131.5 177.46,-128 177.46,-135"/>
</g>
<!-- Node8 -->
<g id="node8" class="node">
<title>Node8</title>
<g id="a_node8"><a xlink:href="../../d8/d1c/class_audio_director_a578f1deac0695f2db3ba245aaedc62df.html#a578f1deac0695f2db3ba245aaedc62df" target="_top" xlink:title=" ">
<polygon fill="none" stroke="black" points="169,-23.5 169,-51.5 531,-51.5 531,-23.5 169,-23.5"/>
<text text-anchor="middle" x="350" y="-33.1" font-family="Helvetica,sans-Serif" font-size="18.00">AudioDirector::getAudioStreamObjByName</text>
</a>
</g>
</g>
<!-- Node1&#45;&gt;Node8 -->
<g id="edge7" class="edge">
<title>Node1&#45;&gt;Node8</title>
<path fill="none" stroke="midnightblue" d="M75.01,-117.48C92.37,-101.03 123.65,-74.4 156,-61.5 162.68,-58.83 169.59,-56.45 176.64,-54.31"/>
<polygon fill="midnightblue" stroke="midnightblue" points="177.68,-57.65 186.34,-51.55 175.76,-50.92 177.68,-57.65"/>
</g>
<!-- Node13 -->
<g id="node13" class="node">
<title>Node13</title>
<g id="a_node13"><a xlink:href="../../d0/d55/classeris_audio_analyze_f_f_t1024_a5fad2b0d286d2ba6e7236b403dab81d6.html#a5fad2b0d286d2ba6e7236b403dab81d6" target="_top" xlink:title=" ">
<polygon fill="none" stroke="black" points="156,-70.5 156,-98.5 544,-98.5 544,-70.5 156,-70.5"/>
<text text-anchor="middle" x="350" y="-80.1" font-family="Helvetica,sans-Serif" font-size="18.00">erisAudioAnalyzeFFT1024::toggleActiveRange</text>
</a>
</g>
</g>
<!-- Node1&#45;&gt;Node13 -->
<g id="edge13" class="edge">
<title>Node1&#45;&gt;Node13</title>
<path fill="none" stroke="midnightblue" d="M114.53,-117.41C128,-114.18 142.48,-110.97 156,-108.5 173.31,-105.34 191.56,-102.47 209.66,-99.91"/>
<polygon fill="midnightblue" stroke="midnightblue" points="210.27,-103.36 219.7,-98.51 209.31,-96.42 210.27,-103.36"/>
</g>
<!-- Node4 -->
<g id="node4" class="node">
<title>Node4</title>
<g id="a_node4"><a xlink:href="../../dc/d43/class_svc_data_dictionary_a7c7bd48b97fbcf18ef64337e12022619.html#a7c7bd48b97fbcf18ef64337e12022619" target="_top" xlink:title=" ">
<polygon fill="none" stroke="black" points="687.5,-205.5 687.5,-233.5 929.5,-233.5 929.5,-205.5 687.5,-205.5"/>
<text text-anchor="middle" x="808.5" y="-215.1" font-family="Helvetica,sans-Serif" font-size="18.00">SvcDataDictionary::copyKey</text>
</a>
</g>
</g>
<!-- Node3&#45;&gt;Node4 -->
<g id="edge3" class="edge">
<title>Node3&#45;&gt;Node4</title>
<path fill="none" stroke="midnightblue" d="M461.51,-188.42C526.39,-194.25 608.75,-201.65 676.83,-207.76"/>
<polygon fill="midnightblue" stroke="midnightblue" points="676.93,-211.29 687.2,-208.7 677.55,-204.31 676.93,-211.29"/>
</g>
<!-- Node5 -->
<g id="node5" class="node">
<title>Node5</title>
<g id="a_node5"><a xlink:href="../../dc/d43/class_svc_data_dictionary_ac4b80e87e8e9cf82926af2105b4e424a.html#ac4b80e87e8e9cf82926af2105b4e424a" target="_top" xlink:title="hashing function used to accelerate searches">
<polygon fill="none" stroke="black" points="702,-158.5 702,-186.5 915,-186.5 915,-158.5 702,-158.5"/>
<text text-anchor="middle" x="808.5" y="-168.1" font-family="Helvetica,sans-Serif" font-size="18.00">SvcDataDictionary::hash</text>
</a>
</g>
</g>
<!-- Node3&#45;&gt;Node5 -->
<g id="edge4" class="edge">
<title>Node3&#45;&gt;Node5</title>
<path fill="none" stroke="midnightblue" d="M461.51,-177.05C531.17,-176.13 620.99,-174.95 691.65,-174.02"/>
<polygon fill="midnightblue" stroke="midnightblue" points="691.98,-177.52 701.94,-173.89 691.89,-170.52 691.98,-177.52"/>
</g>
<!-- Node7 -->
<g id="node7" class="node">
<title>Node7</title>
<g id="a_node7"><a xlink:href="../../d0/d55/classeris_audio_analyze_f_f_t1024_a83218493f4f01007407be9394c5c9e4b.html#a83218493f4f01007407be9394c5c9e4b" target="_top" xlink:title=" ">
<polygon fill="none" stroke="black" points="670,-105.5 670,-133.5 947,-133.5 947,-105.5 670,-105.5"/>
<text text-anchor="middle" x="808.5" y="-115.1" font-family="Helvetica,sans-Serif" font-size="18.00">erisAudioAnalyzeFFT1024::reset</text>
</a>
</g>
</g>
<!-- Node6&#45;&gt;Node7 -->
<g id="edge6" class="edge">
<title>Node6&#45;&gt;Node7</title>
<path fill="none" stroke="midnightblue" d="M512.59,-127.25C560.5,-125.99 612.7,-124.62 659.69,-123.39"/>
<polygon fill="midnightblue" stroke="midnightblue" points="660.04,-126.88 669.95,-123.12 659.86,-119.88 660.04,-126.88"/>
</g>
<!-- Node9 -->
<g id="node9" class="node">
<title>Node9</title>
<g id="a_node9"><a xlink:href="../../d2/da8/class_svc_serial_command_interface_a0793f597a16bd5e1b99084354ac0415e.html#a0793f597a16bd5e1b99084354ac0415e" target="_top" xlink:title="request to start a lz4 compressed message &#160;starts the message and returns true if available returns f...">
<polygon fill="none" stroke="black" points="580,-46.5 580,-74.5 1037,-74.5 1037,-46.5 580,-46.5"/>
<text text-anchor="middle" x="808.5" y="-56.1" font-family="Helvetica,sans-Serif" font-size="18.00">SvcSerialCommandInterface::requestStartLZ4Message</text>
</a>
</g>
</g>
<!-- Node8&#45;&gt;Node9 -->
<g id="edge8" class="edge">
<title>Node8&#45;&gt;Node9</title>
<path fill="none" stroke="midnightblue" d="M531.09,-46.57C543.69,-47.21 556.48,-47.85 569.32,-48.5"/>
<polygon fill="midnightblue" stroke="midnightblue" points="569.46,-52.01 579.63,-49.02 569.81,-45.02 569.46,-52.01"/>
</g>
<!-- Node12 -->
<g id="node12" class="node">
<title>Node12</title>
<g id="a_node12"><a xlink:href="../../d2/da8/class_svc_serial_command_interface_ac5de4f7e73f6375361f79492955c101e.html#ac5de4f7e73f6375361f79492955c101e" target="_top" xlink:title="Calling this function signals the end of a compressed message. &#160;The txBuffer contents are lz4 compres...">
<polygon fill="none" stroke="black" points="1073,-0.5 1073,-28.5 1471,-28.5 1471,-0.5 1073,-0.5"/>
<text text-anchor="middle" x="1272" y="-10.1" font-family="Helvetica,sans-Serif" font-size="18.00">SvcSerialCommandInterface::sendLZ4Message</text>
</a>
</g>
</g>
<!-- Node8&#45;&gt;Node12 -->
<g id="edge11" class="edge">
<title>Node8&#45;&gt;Node12</title>
<path fill="none" stroke="midnightblue" d="M531.12,-33C683.65,-29.18 902.43,-23.71 1062.52,-19.71"/>
<polygon fill="midnightblue" stroke="midnightblue" points="1063.07,-23.2 1072.98,-19.45 1062.9,-16.2 1063.07,-23.2"/>
</g>
<!-- Node10 -->
<g id="node10" class="node">
<title>Node10</title>
<g id="a_node10"><a xlink:href="../../d2/da8/class_svc_serial_command_interface_a42055ffe62395b2d4ee7ca7ef44f1a50.html#a42055ffe62395b2d4ee7ca7ef44f1a50" target="_top" xlink:title=" ">
<polygon fill="none" stroke="black" points="1075.5,-47.5 1075.5,-75.5 1468.5,-75.5 1468.5,-47.5 1075.5,-47.5"/>
<text text-anchor="middle" x="1272" y="-57.1" font-family="Helvetica,sans-Serif" font-size="18.00">SvcSerialCommandInterface::startLZ4Message</text>
</a>
</g>
</g>
<!-- Node9&#45;&gt;Node10 -->
<g id="edge9" class="edge">
<title>Node9&#45;&gt;Node10</title>
<path fill="none" stroke="midnightblue" d="M1037.21,-60.99C1046.56,-61.01 1055.91,-61.03 1065.21,-61.05"/>
<polygon fill="midnightblue" stroke="midnightblue" points="1065.27,-64.55 1075.28,-61.08 1065.28,-57.55 1065.27,-64.55"/>
</g>
<!-- Node11 -->
<g id="node11" class="node">
<title>Node11</title>
<g id="a_node11"><a xlink:href="../../d2/da8/class_svc_serial_command_interface_a809cc3d22320bdd8c54044e278e188f0.html#a809cc3d22320bdd8c54044e278e188f0" target="_top" xlink:title="zero out the transmit buffer and reset the write index">
<polygon fill="none" stroke="black" points="1507,-23.5 1507,-51.5 1812,-51.5 1812,-23.5 1507,-23.5"/>
<text text-anchor="middle" x="1659.5" y="-33.1" font-family="Helvetica,sans-Serif" font-size="18.00">SvcSerialCommandInterface::empty</text>
</a>
</g>
</g>
<!-- Node10&#45;&gt;Node11 -->
<g id="edge10" class="edge">
<title>Node10&#45;&gt;Node11</title>
<path fill="none" stroke="midnightblue" d="M1468.57,-49.32C1478.02,-48.74 1487.45,-48.15 1496.79,-47.57"/>
<polygon fill="midnightblue" stroke="midnightblue" points="1497.11,-51.05 1506.87,-46.94 1496.68,-44.07 1497.11,-51.05"/>
</g>
<!-- Node12&#45;&gt;Node11 -->
<g id="edge12" class="edge">
<title>Node12&#45;&gt;Node11</title>
<path fill="none" stroke="midnightblue" d="M1471.11,-26.32C1479.65,-26.83 1488.17,-27.34 1496.61,-27.84"/>
<polygon fill="midnightblue" stroke="midnightblue" points="1496.67,-31.35 1506.86,-28.45 1497.08,-24.36 1496.67,-31.35"/>
</g>
<!-- Node13&#45;&gt;Node7 -->
<g id="edge14" class="edge">
<title>Node13&#45;&gt;Node7</title>
<path fill="none" stroke="midnightblue" d="M533.72,-98.51C575.59,-101.72 619.59,-105.09 659.78,-108.17"/>
<polygon fill="midnightblue" stroke="midnightblue" points="659.67,-111.68 669.91,-108.95 660.2,-104.7 659.67,-111.68"/>
</g>
</g>
</svg>
