<?xml version="1.0" encoding="UTF-8" standalone="no"?>
<!DOCTYPE svg PUBLIC "-//W3C//DTD SVG 1.1//EN"
 "http://www.w3.org/Graphics/SVG/1.1/DTD/svg11.dtd">
<!-- Generated by graphviz version 2.47.3 (20210619.1520)
 -->
<!-- Title: AppCQT::MessageHandler Pages: 1 -->
<!--zoomable 278 -->
<svg id="main" version="1.1" xmlns="http://www.w3.org/2000/svg" xmlns:xlink="http://www.w3.org/1999/xlink" xml:space="preserve" onload="init(evt)">
<style type="text/css"><![CDATA[
.edge:hover path { stroke: red; }
.edge:hover polygon { stroke: red; fill: red; }
]]></style>
<script type="text/javascript"><![CDATA[
var edges = document.getElementsByTagName('g');
if (edges && edges.length) {
  for (var i=0;i<edges.length;i++) {
    if (edges[i].id.substr(0,4)=='edge') {
      edges[i].setAttribute('class','edge');
    }
  }
}
]]></script>
        <defs>
                <circle id="rim" cx="0" cy="0" r="7"/>
                <circle id="rim2" cx="0" cy="0" r="3.5"/>
                <g id="zoomPlus">
                        <use xlink:href="#rim" fill="#404040">
                                <set attributeName="fill" to="#808080" begin="zoomplus.mouseover" end="zoomplus.mouseout"/>
                        </use>
                        <path d="M-4,0h8M0,-4v8" fill="none" stroke="white" stroke-width="1.5" pointer-events="none"/>
                </g>
                <g id="zoomMin">
                        <use xlink:href="#rim" fill="#404040">
                                <set attributeName="fill" to="#808080" begin="zoomminus.mouseover" end="zoomminus.mouseout"/>
                        </use>
                        <path d="M-4,0h8" fill="none" stroke="white" stroke-width="1.5" pointer-events="none"/>
                </g>
                <g id="dirArrow">
                        <path fill="none" stroke="white" stroke-width="1.5" d="M0,-3.0v7 M-2.5,-0.5L0,-3.0L2.5,-0.5"/>
                </g>
               <g id="resetDef">
                       <use xlink:href="#rim2" fill="#404040">
                               <set attributeName="fill" to="#808080" begin="reset.mouseover" end="reset.mouseout"/>
                       </use>
               </g>
        </defs>

<script type="text/javascript">
var viewWidth = 1274;
var viewHeight = 278;
var sectionId = 'dynsection-0';
</script>
<script xlink:href="../../svgpan.js"/>
<svg id="graph" class="graph">
<g id="viewport">
<title>AppCQT::MessageHandler</title>
<!-- Node1 -->
<g id="node1" class="node">
<title>Node1</title>
<g id="a_node1"><a xlink:title=" ">
<polygon fill="#bfbfbf" stroke="black" points="0,-130.5 0,-156.5 202,-156.5 202,-130.5 0,-130.5"/>
<text text-anchor="middle" x="101" y="-139.7" font-family="Helvetica,sans-Serif" font-size="16.00">AppCQT::MessageHandler</text>
</a>
</g>
</g>
<!-- Node2 -->
<g id="node2" class="node">
<title>Node2</title>
<g id="a_node2"><a xlink:href="../../d2/da8/class_svc_serial_command_interface_af0793e6bc9aee7207b4d7f59932e6508.html#af0793e6bc9aee7207b4d7f59932e6508" target="_top" xlink:title="Calling this function signals the end of a compressed message. The current txBuffer is lz4 compressed...">
<polygon fill="none" stroke="black" points="241,-243.5 241,-269.5 584,-269.5 584,-243.5 241,-243.5"/>
<text text-anchor="middle" x="412.5" y="-252.7" font-family="Helvetica,sans-Serif" font-size="16.00">SvcSerialCommandInterface::endLZ4Message</text>
</a>
</g>
</g>
<!-- Node1&#45;&gt;Node2 -->
<g id="edge1" class="edge">
<title>Node1&#45;&gt;Node2</title>
<path fill="none" stroke="midnightblue" d="M116.6,-156.7C140.2,-177.19 189.04,-216.19 238,-234.5 244.31,-236.86 250.82,-238.97 257.46,-240.87"/>
<polygon fill="midnightblue" stroke="midnightblue" points="256.7,-244.29 267.27,-243.49 258.51,-237.53 256.7,-244.29"/>
</g>
<!-- Node5 -->
<g id="node5" class="node">
<title>Node5</title>
<g id="a_node5"><a xlink:href="../../db/d69/class_app_base_class_aa989ddf4bdc4cbd9a61791ca45082177.html#aa989ddf4bdc4cbd9a61791ca45082177" target="_top" xlink:title=" ">
<polygon fill="none" stroke="black" points="322,-198.5 322,-224.5 503,-224.5 503,-198.5 322,-198.5"/>
<text text-anchor="middle" x="412.5" y="-207.7" font-family="Helvetica,sans-Serif" font-size="16.00">AppBaseClass::isName</text>
</a>
</g>
</g>
<!-- Node1&#45;&gt;Node5 -->
<g id="edge4" class="edge">
<title>Node1&#45;&gt;Node5</title>
<path fill="none" stroke="midnightblue" d="M134.45,-156.53C161.67,-166.96 201.81,-181.17 238,-189.5 261.67,-194.94 287.48,-199.14 311.79,-202.32"/>
<polygon fill="midnightblue" stroke="midnightblue" points="311.38,-205.8 321.74,-203.58 312.26,-198.85 311.38,-205.8"/>
</g>
<!-- Node6 -->
<g id="node6" class="node">
<title>Node6</title>
<g id="a_node6"><a xlink:href="../../d4/dde/class_app_c_q_t_a3c3eec3552e1f40ba9ff5a73f93f6842.html#a3c3eec3552e1f40ba9ff5a73f93f6842" target="_top" xlink:title=" ">
<polygon fill="none" stroke="black" points="340,-108.5 340,-134.5 485,-134.5 485,-108.5 340,-108.5"/>
<text text-anchor="middle" x="412.5" y="-117.7" font-family="Helvetica,sans-Serif" font-size="16.00">AppCQT::onFocus</text>
</a>
</g>
</g>
<!-- Node1&#45;&gt;Node6 -->
<g id="edge5" class="edge">
<title>Node1&#45;&gt;Node6</title>
<path fill="none" stroke="midnightblue" d="M202.06,-136.39C243.24,-133.46 290.35,-130.11 329.44,-127.33"/>
<polygon fill="midnightblue" stroke="midnightblue" points="330,-130.8 339.72,-126.6 329.5,-123.82 330,-130.8"/>
</g>
<!-- Node9 -->
<g id="node9" class="node">
<title>Node9</title>
<g id="a_node9"><a xlink:href="../../d4/dde/class_app_c_q_t_acf9fa18df2c07e18c4c0fa4418ac2e6e.html#acf9fa18df2c07e18c4c0fa4418ac2e6e" target="_top" xlink:title=" ">
<polygon fill="none" stroke="black" points="324.5,-63.5 324.5,-89.5 500.5,-89.5 500.5,-63.5 324.5,-63.5"/>
<text text-anchor="middle" x="412.5" y="-72.7" font-family="Helvetica,sans-Serif" font-size="16.00">AppCQT::onFocusLost</text>
</a>
</g>
</g>
<!-- Node1&#45;&gt;Node9 -->
<g id="edge8" class="edge">
<title>Node1&#45;&gt;Node9</title>
<path fill="none" stroke="midnightblue" d="M136.46,-130.43C163.66,-120.59 202.78,-107.46 238,-99.5 262.49,-93.96 289.24,-89.61 314.24,-86.24"/>
<polygon fill="midnightblue" stroke="midnightblue" points="315,-89.67 324.47,-84.91 314.1,-82.73 315,-89.67"/>
</g>
<!-- Node10 -->
<g id="node10" class="node">
<title>Node10</title>
<g id="a_node10"><a xlink:href="../../d0/d55/classeris_audio_analyze_f_f_t1024_a8e1d12d061b83e2f737aec1a763b7286.html#a8e1d12d061b83e2f737aec1a763b7286" target="_top" xlink:title=" ">
<polygon fill="none" stroke="black" points="278,-0.5 278,-44.5 547,-44.5 547,-0.5 278,-0.5"/>
<text text-anchor="start" x="286" y="-27.7" font-family="Helvetica,sans-Serif" font-size="16.00">erisAudioAnalyzeFFT1024::sort_fftrr</text>
<text text-anchor="middle" x="412.5" y="-9.7" font-family="Helvetica,sans-Serif" font-size="16.00">_by_cqt_bin</text>
</a>
</g>
</g>
<!-- Node1&#45;&gt;Node10 -->
<g id="edge10" class="edge">
<title>Node1&#45;&gt;Node10</title>
<path fill="none" stroke="midnightblue" d="M117.13,-130.42C141.07,-110.47 189.9,-72.75 238,-53.5 247.58,-49.67 257.65,-46.3 267.91,-43.36"/>
<polygon fill="midnightblue" stroke="midnightblue" points="269.07,-46.67 277.79,-40.66 267.22,-39.91 269.07,-46.67"/>
</g>
<!-- Node12 -->
<g id="node12" class="node">
<title>Node12</title>
<g id="a_node12"><a xlink:href="../../d2/da8/class_svc_serial_command_interface_a42055ffe62395b2d4ee7ca7ef44f1a50.html#a42055ffe62395b2d4ee7ca7ef44f1a50" target="_top" xlink:title=" ">
<polygon fill="none" stroke="black" points="238,-153.5 238,-179.5 587,-179.5 587,-153.5 238,-153.5"/>
<text text-anchor="middle" x="412.5" y="-162.7" font-family="Helvetica,sans-Serif" font-size="16.00">SvcSerialCommandInterface::startLZ4Message</text>
</a>
</g>
</g>
<!-- Node1&#45;&gt;Node12 -->
<g id="edge12" class="edge">
<title>Node1&#45;&gt;Node12</title>
<path fill="none" stroke="midnightblue" d="M202.06,-150.94C210.37,-151.55 218.93,-152.19 227.61,-152.83"/>
<polygon fill="midnightblue" stroke="midnightblue" points="227.63,-156.35 237.86,-153.6 228.14,-149.36 227.63,-156.35"/>
</g>
<!-- Node3 -->
<g id="node3" class="node">
<title>Node3</title>
<g id="a_node3"><a xlink:href="../../d2/da8/class_svc_serial_command_interface_a809cc3d22320bdd8c54044e278e188f0.html#a809cc3d22320bdd8c54044e278e188f0" target="_top" xlink:title=" ">
<polygon fill="none" stroke="black" points="670.5,-176.5 670.5,-202.5 937.5,-202.5 937.5,-176.5 670.5,-176.5"/>
<text text-anchor="middle" x="804" y="-185.7" font-family="Helvetica,sans-Serif" font-size="16.00">SvcSerialCommandInterface::empty</text>
</a>
</g>
</g>
<!-- Node2&#45;&gt;Node3 -->
<g id="edge2" class="edge">
<title>Node2&#45;&gt;Node3</title>
<path fill="none" stroke="midnightblue" d="M526.62,-243.47C546.77,-240.78 567.53,-237.76 587,-234.5 637.37,-226.07 693.85,-214.22 736.42,-204.79"/>
<polygon fill="midnightblue" stroke="midnightblue" points="737.38,-208.17 746.38,-202.58 735.86,-201.33 737.38,-208.17"/>
</g>
<!-- Node4 -->
<g id="node4" class="node">
<title>Node4</title>
<g id="a_node4"><a xlink:href="../../d2/da8/class_svc_serial_command_interface_a72fa7592492598637d233d9abe27f8f0.html#a72fa7592492598637d233d9abe27f8f0" target="_top" xlink:title="returns true if the available serial buffer falls below SERIAL_THROTTLE_BUFFER_REMAINING_THRESHOLD if...">
<polygon fill="none" stroke="black" points="667.5,-243.5 667.5,-269.5 940.5,-269.5 940.5,-243.5 667.5,-243.5"/>
<text text-anchor="middle" x="804" y="-252.7" font-family="Helvetica,sans-Serif" font-size="16.00">SvcSerialCommandInterface::throttle</text>
</a>
</g>
</g>
<!-- Node2&#45;&gt;Node4 -->
<g id="edge3" class="edge">
<title>Node2&#45;&gt;Node4</title>
<path fill="none" stroke="midnightblue" d="M584.06,-256.5C608.49,-256.5 633.44,-256.5 657.33,-256.5"/>
<polygon fill="midnightblue" stroke="midnightblue" points="657.5,-260 667.5,-256.5 657.5,-253 657.5,-260"/>
</g>
<!-- Node7 -->
<g id="node7" class="node">
<title>Node7</title>
<g id="a_node7"><a xlink:href="../../d0/d55/classeris_audio_analyze_f_f_t1024_a755081ed295a0ae6385db5dad48c6de1.html#a755081ed295a0ae6385db5dad48c6de1" target="_top" xlink:title=" ">
<polygon fill="none" stroke="black" points="662,-86.5 662,-112.5 946,-112.5 946,-86.5 662,-86.5"/>
<text text-anchor="middle" x="804" y="-95.7" font-family="Helvetica,sans-Serif" font-size="16.00">erisAudioAnalyzeFFT1024::enableFFT</text>
</a>
</g>
</g>
<!-- Node6&#45;&gt;Node7 -->
<g id="edge6" class="edge">
<title>Node6&#45;&gt;Node7</title>
<path fill="none" stroke="midnightblue" d="M485.39,-117.44C531.95,-114.81 594.33,-111.29 651.48,-108.06"/>
<polygon fill="midnightblue" stroke="midnightblue" points="651.93,-111.54 661.71,-107.48 651.53,-104.55 651.93,-111.54"/>
</g>
<!-- Node8 -->
<g id="node8" class="node">
<title>Node8</title>
<g id="a_node8"><a xlink:href="../../d0/d55/classeris_audio_analyze_f_f_t1024_a83218493f4f01007407be9394c5c9e4b.html#a83218493f4f01007407be9394c5c9e4b" target="_top" xlink:title=" ">
<polygon fill="none" stroke="black" points="1021,-86.5 1021,-112.5 1266,-112.5 1266,-86.5 1021,-86.5"/>
<text text-anchor="middle" x="1143.5" y="-95.7" font-family="Helvetica,sans-Serif" font-size="16.00">erisAudioAnalyzeFFT1024::reset</text>
</a>
</g>
</g>
<!-- Node7&#45;&gt;Node8 -->
<g id="edge7" class="edge">
<title>Node7&#45;&gt;Node8</title>
<path fill="none" stroke="midnightblue" d="M946.17,-99.5C967.62,-99.5 989.67,-99.5 1010.89,-99.5"/>
<polygon fill="midnightblue" stroke="midnightblue" points="1010.91,-103 1020.91,-99.5 1010.91,-96 1010.91,-103"/>
</g>
<!-- Node9&#45;&gt;Node7 -->
<g id="edge9" class="edge">
<title>Node9&#45;&gt;Node7</title>
<path fill="none" stroke="midnightblue" d="M500.91,-81.66C545.38,-84.29 600.72,-87.56 651.83,-90.57"/>
<polygon fill="midnightblue" stroke="midnightblue" points="651.8,-94.08 661.99,-91.17 652.21,-87.09 651.8,-94.08"/>
</g>
<!-- Node11 -->
<g id="node11" class="node">
<title>Node11</title>
<g id="a_node11"><a xlink:href="../../d0/d55/classeris_audio_analyze_f_f_t1024_a92d555b890dd4e94c237d95810a45f8c.html#a92d555b890dd4e94c237d95810a45f8c" target="_top" xlink:title=" ">
<polygon fill="none" stroke="black" points="623,-9.5 623,-35.5 985,-35.5 985,-9.5 623,-9.5"/>
<text text-anchor="middle" x="804" y="-18.7" font-family="Helvetica,sans-Serif" font-size="16.00">erisAudioAnalyzeFFT1024::compare_fftrr_cqt_bin</text>
</a>
</g>
</g>
<!-- Node10&#45;&gt;Node11 -->
<g id="edge11" class="edge">
<title>Node10&#45;&gt;Node11</title>
<path fill="none" stroke="midnightblue" d="M547.27,-22.5C568.37,-22.5 590.52,-22.5 612.6,-22.5"/>
<polygon fill="midnightblue" stroke="midnightblue" points="612.74,-26 622.74,-22.5 612.74,-19 612.74,-26"/>
</g>
<!-- Node12&#45;&gt;Node3 -->
<g id="edge13" class="edge">
<title>Node12&#45;&gt;Node3</title>
<path fill="none" stroke="midnightblue" d="M587.18,-176.76C611.58,-178.2 636.44,-179.66 660.18,-181.07"/>
<polygon fill="midnightblue" stroke="midnightblue" points="660.09,-184.57 670.28,-181.66 660.51,-177.58 660.09,-184.57"/>
</g>
</g>
</svg>
        <g id="navigator" transform="translate(0 0)" fill="#404254">
                <rect fill="#f2f5e9" fill-opacity="0.5" stroke="#606060" stroke-width=".5" x="0" y="0" width="60" height="60"/>
                <use id="zoomplus" xlink:href="#zoomPlus" x="17" y="9" onmousedown="handleZoom(evt,'in')"/>
                <use id="zoomminus" xlink:href="#zoomMin" x="42" y="9" onmousedown="handleZoom(evt,'out')"/>
                <use id="reset" xlink:href="#resetDef" x="30" y="36" onmousedown="handleReset()"/>
                <g id="arrowUp" xlink:href="#dirArrow" transform="translate(30 24)" onmousedown="handlePan(0,-1)">
                  <use xlink:href="#rim" fill="#404040">
                        <set attributeName="fill" to="#808080" begin="arrowUp.mouseover" end="arrowUp.mouseout"/>
                  </use>
                  <path fill="none" stroke="white" stroke-width="1.5" d="M0,-3.0v7 M-2.5,-0.5L0,-3.0L2.5,-0.5"/>
                </g>
                <g id="arrowRight" xlink:href="#dirArrow" transform="rotate(90) translate(36 -43)" onmousedown="handlePan(1,0)">
                  <use xlink:href="#rim" fill="#404040">
                        <set attributeName="fill" to="#808080" begin="arrowRight.mouseover" end="arrowRight.mouseout"/>
                  </use>
                  <path fill="none" stroke="white" stroke-width="1.5" d="M0,-3.0v7 M-2.5,-0.5L0,-3.0L2.5,-0.5"/>
                </g>
                <g id="arrowDown" xlink:href="#dirArrow" transform="rotate(180) translate(-30 -48)" onmousedown="handlePan(0,1)">
                  <use xlink:href="#rim" fill="#404040">
                        <set attributeName="fill" to="#808080" begin="arrowDown.mouseover" end="arrowDown.mouseout"/>
                  </use>
                  <path fill="none" stroke="white" stroke-width="1.5" d="M0,-3.0v7 M-2.5,-0.5L0,-3.0L2.5,-0.5"/>
                </g>
                <g id="arrowLeft" xlink:href="#dirArrow" transform="rotate(270) translate(-36 17)" onmousedown="handlePan(-1,0)">
                  <use xlink:href="#rim" fill="#404040">
                        <set attributeName="fill" to="#808080" begin="arrowLeft.mouseover" end="arrowLeft.mouseout"/>
                  </use>
                  <path fill="none" stroke="white" stroke-width="1.5" d="M0,-3.0v7 M-2.5,-0.5L0,-3.0L2.5,-0.5"/>
                </g>
        </g>
        <svg viewBox="0 0 15 15" width="100%" height="30px" preserveAspectRatio="xMaxYMin meet">
         <g id="arrow_out" transform="scale(0.3 0.3)">
          <a xlink:href="class_app_c_q_t_af9d5de8b802d76e6180e57ff7b68cf95_af9d5de8b802d76e6180e57ff7b68cf95_cgraph_org.svg" target="_base">
           <rect id="button" ry="5" rx="5" y="6" x="6" height="38" width="38"
                fill="#f2f5e9" fill-opacity="0.5" stroke="#606060" stroke-width="1.0"/>
           <path id="arrow"
             d="M 11.500037,31.436501 C 11.940474,20.09759 22.043105,11.32322 32.158766,21.979434 L 37.068811,17.246167 C 37.068811,17.246167 37.088388,32 37.088388,32 L 22.160133,31.978069 C 22.160133,31.978069 26.997745,27.140456 26.997745,27.140456 C 18.528582,18.264221 13.291696,25.230495 11.500037,31.436501 z"
             style="fill:#404040;"/>
          </a>
         </g>
        </svg>
</svg>
