<?xml version="1.0" encoding="UTF-8" standalone="no"?>
<!DOCTYPE svg PUBLIC "-//W3C//DTD SVG 1.1//EN"
 "http://www.w3.org/Graphics/SVG/1.1/DTD/svg11.dtd">
<!-- Generated by graphviz version 2.47.3 (20210619.1520)
 -->
<!-- Title: AppCQT::onFocus Pages: 1 -->
<svg width="601pt" height="30pt"
 viewBox="0.00 0.00 601.00 30.00" xmlns="http://www.w3.org/2000/svg" xmlns:xlink="http://www.w3.org/1999/xlink">
<g id="graph0" class="graph" transform="scale(1 1) rotate(0) translate(4 26)">
<title>AppCQT::onFocus</title>
<!-- Node1 -->
<g id="node1" class="node">
<title>Node1</title>
<g id="a_node1"><a xlink:title=" ">
<polygon fill="#bfbfbf" stroke="black" points="0,-0.5 0,-21.5 114,-21.5 114,-0.5 0,-0.5"/>
<text text-anchor="middle" x="57" y="-7.9" font-family="Helvetica,sans-Serif" font-size="12.00">AppCQT::onFocus</text>
</a>
</g>
</g>
<!-- Node2 -->
<g id="node2" class="node">
<title>Node2</title>
<g id="a_node2"><a xlink:href="../../d0/d55/classeris_audio_analyze_f_f_t1024_a755081ed295a0ae6385db5dad48c6de1.html#a755081ed295a0ae6385db5dad48c6de1" target="_top" xlink:title=" ">
<polygon fill="none" stroke="black" points="150,-0.5 150,-21.5 369,-21.5 369,-0.5 150,-0.5"/>
<text text-anchor="middle" x="259.5" y="-7.9" font-family="Helvetica,sans-Serif" font-size="12.00">erisAudioAnalyzeFFT1024::enableFFT</text>
</a>
</g>
</g>
<!-- Node1&#45;&gt;Node2 -->
<g id="edge1" class="edge">
<title>Node1&#45;&gt;Node2</title>
<path fill="none" stroke="midnightblue" d="M114.12,-11C122.28,-11 130.93,-11 139.79,-11"/>
<polygon fill="midnightblue" stroke="midnightblue" points="139.85,-14.5 149.85,-11 139.85,-7.5 139.85,-14.5"/>
</g>
<!-- Node3 -->
<g id="node3" class="node">
<title>Node3</title>
<g id="a_node3"><a xlink:href="../../d0/d55/classeris_audio_analyze_f_f_t1024_a83218493f4f01007407be9394c5c9e4b.html#a83218493f4f01007407be9394c5c9e4b" target="_top" xlink:title=" ">
<polygon fill="none" stroke="black" points="405,-0.5 405,-21.5 593,-21.5 593,-0.5 405,-0.5"/>
<text text-anchor="middle" x="499" y="-7.9" font-family="Helvetica,sans-Serif" font-size="12.00">erisAudioAnalyzeFFT1024::reset</text>
</a>
</g>
</g>
<!-- Node2&#45;&gt;Node3 -->
<g id="edge2" class="edge">
<title>Node2&#45;&gt;Node3</title>
<path fill="none" stroke="midnightblue" d="M369.17,-11C377.59,-11 386.09,-11 394.47,-11"/>
<polygon fill="midnightblue" stroke="midnightblue" points="394.64,-14.5 404.64,-11 394.64,-7.5 394.64,-14.5"/>
</g>
</g>
</svg>
