<?xml version="1.0" encoding="UTF-8" standalone="no"?>
<!DOCTYPE svg PUBLIC "-//W3C//DTD SVG 1.1//EN"
 "http://www.w3.org/Graphics/SVG/1.1/DTD/svg11.dtd">
<!-- Generated by graphviz version 2.47.3 (20210619.1520)
 -->
<!-- Title: AppCQT::update Pages: 1 -->
<svg width="1528pt" height="521pt"
 viewBox="0.00 0.00 1528.00 521.00" xmlns="http://www.w3.org/2000/svg" xmlns:xlink="http://www.w3.org/1999/xlink">
<g id="graph0" class="graph" transform="scale(1 1) rotate(0) translate(4 517)">
<title>AppCQT::update</title>
<!-- Node1 -->
<g id="node1" class="node">
<title>Node1</title>
<g id="a_node1"><a xlink:title="update loop">
<polygon fill="#bfbfbf" stroke="black" points="0,-368.5 0,-396.5 153,-396.5 153,-368.5 0,-368.5"/>
<text text-anchor="middle" x="76.5" y="-378.1" font-family="Helvetica,sans-Serif" font-size="18.00">AppCQT::update</text>
</a>
</g>
</g>
<!-- Node2 -->
<g id="node2" class="node">
<title>Node2</title>
<g id="a_node2"><a xlink:href="../../d0/d55/classeris_audio_analyze_f_f_t1024_adaa8219e3ba39881ca0e59eaa85e96f8.html#adaa8219e3ba39881ca0e59eaa85e96f8" target="_top" xlink:title=" ">
<polygon fill="none" stroke="black" points="189,-439.5 189,-467.5 488,-467.5 488,-439.5 189,-439.5"/>
<text text-anchor="middle" x="338.5" y="-449.1" font-family="Helvetica,sans-Serif" font-size="18.00">erisAudioAnalyzeFFT1024::analyze</text>
</a>
</g>
</g>
<!-- Node1&#45;&gt;Node2 -->
<g id="edge1" class="edge">
<title>Node1&#45;&gt;Node2</title>
<path fill="none" stroke="midnightblue" d="M104.74,-396.54C126.88,-407.38 159.23,-421.94 189,-430.5 197.93,-433.07 207.25,-435.37 216.68,-437.42"/>
<polygon fill="midnightblue" stroke="midnightblue" points="216.03,-440.86 226.54,-439.48 217.46,-434.01 216.03,-440.86"/>
</g>
<!-- Node5 -->
<g id="node5" class="node">
<title>Node5</title>
<g id="a_node5"><a xlink:href="../../d0/d55/classeris_audio_analyze_f_f_t1024_aedd9781ee771b0a277277871ec5a0c36.html#aedd9781ee771b0a277277871ec5a0c36" target="_top" xlink:title=" ">
<polygon fill="none" stroke="black" points="189.5,-392.5 189.5,-420.5 487.5,-420.5 487.5,-392.5 189.5,-392.5"/>
<text text-anchor="middle" x="338.5" y="-402.1" font-family="Helvetica,sans-Serif" font-size="18.00">erisAudioAnalyzeFFT1024::capture</text>
</a>
</g>
</g>
<!-- Node1&#45;&gt;Node5 -->
<g id="edge4" class="edge">
<title>Node1&#45;&gt;Node5</title>
<path fill="none" stroke="midnightblue" d="M153.05,-389.47C161.44,-390.25 170.2,-391.06 179.14,-391.88"/>
<polygon fill="midnightblue" stroke="midnightblue" points="179.03,-395.39 189.31,-392.82 179.68,-388.42 179.03,-395.39"/>
</g>
<!-- Node6 -->
<g id="node6" class="node">
<title>Node6</title>
<g id="a_node6"><a xlink:href="../../dc/d43/class_svc_data_dictionary_aab72733da062e89f277308ca64daf300.html#aab72733da062e89f277308ca64daf300" target="_top" xlink:title="increments the value of a global record &#160;creates a new record if one does not exist and &#160;initializes ...">
<polygon fill="none" stroke="black" points="212,-345.5 212,-373.5 465,-373.5 465,-345.5 212,-345.5"/>
<text text-anchor="middle" x="338.5" y="-355.1" font-family="Helvetica,sans-Serif" font-size="18.00">SvcDataDictionary::increment</text>
</a>
</g>
</g>
<!-- Node1&#45;&gt;Node6 -->
<g id="edge5" class="edge">
<title>Node1&#45;&gt;Node6</title>
<path fill="none" stroke="midnightblue" d="M153.05,-375.82C168.32,-374.47 184.82,-373.01 201.45,-371.54"/>
<polygon fill="midnightblue" stroke="midnightblue" points="202.16,-374.99 211.81,-370.62 201.54,-368.01 202.16,-374.99"/>
</g>
<!-- Node11 -->
<g id="node11" class="node">
<title>Node11</title>
<g id="a_node11"><a xlink:href="../../d4/dde/class_app_c_q_t_afd743331cda9f9a2493a0c76f4d235d2.html#afd743331cda9f9a2493a0c76f4d235d2" target="_top" xlink:title=" ">
<polygon fill="none" stroke="black" points="203.5,-185.5 203.5,-213.5 473.5,-213.5 473.5,-185.5 203.5,-185.5"/>
<text text-anchor="middle" x="338.5" y="-195.1" font-family="Helvetica,sans-Serif" font-size="18.00">AppCQT::updateOscillatorBank</text>
</a>
</g>
</g>
<!-- Node1&#45;&gt;Node11 -->
<g id="edge11" class="edge">
<title>Node1&#45;&gt;Node11</title>
<path fill="none" stroke="midnightblue" d="M97.47,-368.44C143.31,-336.18 256.22,-256.71 309.19,-219.42"/>
<polygon fill="midnightblue" stroke="midnightblue" points="311.3,-222.22 317.46,-213.6 307.27,-216.5 311.3,-222.22"/>
</g>
<!-- Node3 -->
<g id="node3" class="node">
<title>Node3</title>
<g id="a_node3"><a xlink:href="../../d7/d78/eris__analyze__fft1024_8cpp_a2531887360a2419a3ec3ac88dbd74fd1.html#a2531887360a2419a3ec3ac88dbd74fd1" target="_top" xlink:title=" ">
<polygon fill="none" stroke="black" points="581,-484.5 581,-512.5 853,-512.5 853,-484.5 581,-484.5"/>
<text text-anchor="middle" x="717" y="-494.1" font-family="Helvetica,sans-Serif" font-size="18.00">apply_window_to_fft_buffer_f32</text>
</a>
</g>
</g>
<!-- Node2&#45;&gt;Node3 -->
<g id="edge2" class="edge">
<title>Node2&#45;&gt;Node3</title>
<path fill="none" stroke="midnightblue" d="M456.82,-467.52C498.68,-472.53 546.01,-478.18 588.67,-483.28"/>
<polygon fill="midnightblue" stroke="midnightblue" points="588.49,-486.78 598.84,-484.5 589.32,-479.83 588.49,-486.78"/>
</g>
<!-- Node4 -->
<g id="node4" class="node">
<title>Node4</title>
<g id="a_node4"><a xlink:href="../../d7/d78/eris__analyze__fft1024_8cpp_a2cefdbd0c6b27b7e8dbcf4d513d7c1fd.html#a2cefdbd0c6b27b7e8dbcf4d513d7c1fd" target="_top" xlink:title=" ">
<polygon fill="none" stroke="black" points="637,-437.5 637,-465.5 797,-465.5 797,-437.5 637,-437.5"/>
<text text-anchor="middle" x="717" y="-447.1" font-family="Helvetica,sans-Serif" font-size="18.00">normalized_atan2</text>
</a>
</g>
</g>
<!-- Node2&#45;&gt;Node4 -->
<g id="edge3" class="edge">
<title>Node2&#45;&gt;Node4</title>
<path fill="none" stroke="midnightblue" d="M488.03,-452.71C534.96,-452.46 585.34,-452.19 626.77,-451.97"/>
<polygon fill="midnightblue" stroke="midnightblue" points="626.85,-455.47 636.83,-451.92 626.81,-448.47 626.85,-455.47"/>
</g>
<!-- Node7 -->
<g id="node7" class="node">
<title>Node7</title>
<g id="a_node7"><a xlink:href="../../dc/d43/class_svc_data_dictionary_a3b09dc582adbb4d5c6f99f6e983a81f1.html#a3b09dc582adbb4d5c6f99f6e983a81f1" target="_top" xlink:title="create a record with ownership">
<polygon fill="none" stroke="black" points="605.5,-388.5 605.5,-416.5 828.5,-416.5 828.5,-388.5 605.5,-388.5"/>
<text text-anchor="middle" x="717" y="-398.1" font-family="Helvetica,sans-Serif" font-size="18.00">SvcDataDictionary::create</text>
</a>
</g>
</g>
<!-- Node6&#45;&gt;Node7 -->
<g id="edge6" class="edge">
<title>Node6&#45;&gt;Node7</title>
<path fill="none" stroke="midnightblue" d="M462.26,-373.52C504.97,-378.4 552.82,-383.86 595.36,-388.72"/>
<polygon fill="midnightblue" stroke="midnightblue" points="595.15,-392.22 605.49,-389.88 595.95,-385.27 595.15,-392.22"/>
</g>
<!-- Node10 -->
<g id="node10" class="node">
<title>Node10</title>
<g id="a_node10"><a xlink:href="../../dc/d43/class_svc_data_dictionary_ac4b80e87e8e9cf82926af2105b4e424a.html#ac4b80e87e8e9cf82926af2105b4e424a" target="_top" xlink:title="hashing function used to accelerate searches">
<polygon fill="none" stroke="black" points="1046,-343.5 1046,-371.5 1259,-371.5 1259,-343.5 1046,-343.5"/>
<text text-anchor="middle" x="1152.5" y="-353.1" font-family="Helvetica,sans-Serif" font-size="18.00">SvcDataDictionary::hash</text>
</a>
</g>
</g>
<!-- Node6&#45;&gt;Node10 -->
<g id="edge10" class="edge">
<title>Node6&#45;&gt;Node10</title>
<path fill="none" stroke="midnightblue" d="M465.04,-359.19C620.83,-358.81 884.36,-358.16 1035.56,-357.79"/>
<polygon fill="midnightblue" stroke="midnightblue" points="1035.81,-361.29 1045.8,-357.76 1035.79,-354.29 1035.81,-361.29"/>
</g>
<!-- Node8 -->
<g id="node8" class="node">
<title>Node8</title>
<g id="a_node8"><a xlink:href="../../dc/d43/class_svc_data_dictionary_a7c7bd48b97fbcf18ef64337e12022619.html#a7c7bd48b97fbcf18ef64337e12022619" target="_top" xlink:title=" ">
<polygon fill="none" stroke="black" points="1031.5,-390.5 1031.5,-418.5 1273.5,-418.5 1273.5,-390.5 1031.5,-390.5"/>
<text text-anchor="middle" x="1152.5" y="-400.1" font-family="Helvetica,sans-Serif" font-size="18.00">SvcDataDictionary::copyKey</text>
</a>
</g>
</g>
<!-- Node7&#45;&gt;Node8 -->
<g id="edge7" class="edge">
<title>Node7&#45;&gt;Node8</title>
<path fill="none" stroke="midnightblue" d="M828.51,-403.01C887.2,-403.28 959.7,-403.62 1021.14,-403.9"/>
<polygon fill="midnightblue" stroke="midnightblue" points="1021.27,-407.4 1031.29,-403.95 1021.3,-400.4 1021.27,-407.4"/>
</g>
<!-- Node7&#45;&gt;Node10 -->
<g id="edge9" class="edge">
<title>Node7&#45;&gt;Node10</title>
<path fill="none" stroke="midnightblue" d="M828.51,-391.03C891.85,-384.45 971.27,-376.21 1035.5,-369.54"/>
<polygon fill="midnightblue" stroke="midnightblue" points="1036.09,-373 1045.67,-368.49 1035.37,-366.04 1036.09,-373"/>
</g>
<!-- Node9 -->
<g id="node9" class="node">
<title>Node9</title>
<g id="a_node9"><a xlink:href="../../df/d51/_eris_utils_8h_acf90b2b3b47174f2ad15f9397a36dca1.html#acf90b2b3b47174f2ad15f9397a36dca1" target="_top" xlink:title="a safer strncpy">
<polygon fill="none" stroke="black" points="1395,-390.5 1395,-418.5 1520,-418.5 1520,-390.5 1395,-390.5"/>
<text text-anchor="middle" x="1457.5" y="-400.1" font-family="Helvetica,sans-Serif" font-size="18.00">safer_strncpy</text>
</a>
</g>
</g>
<!-- Node8&#45;&gt;Node9 -->
<g id="edge8" class="edge">
<title>Node8&#45;&gt;Node9</title>
<path fill="none" stroke="midnightblue" d="M1273.69,-404.5C1311.27,-404.5 1351.54,-404.5 1384.7,-404.5"/>
<polygon fill="midnightblue" stroke="midnightblue" points="1384.75,-408 1394.75,-404.5 1384.75,-401 1384.75,-408"/>
</g>
<!-- Node12 -->
<g id="node12" class="node">
<title>Node12</title>
<g id="a_node12"><a xlink:href="../../d3/d94/class_audio_synth_waveformhd_a93b8d1a4e663d80c2d6021470568563e.html#a93b8d1a4e663d80c2d6021470568563e" target="_top" xlink:title=" ">
<polygon fill="none" stroke="black" points="566,-302.5 566,-330.5 868,-330.5 868,-302.5 566,-302.5"/>
<text text-anchor="middle" x="717" y="-312.1" font-family="Helvetica,sans-Serif" font-size="18.00">AudioSynthWaveformhd::amplitude</text>
</a>
</g>
</g>
<!-- Node11&#45;&gt;Node12 -->
<g id="edge12" class="edge">
<title>Node11&#45;&gt;Node12</title>
<path fill="none" stroke="midnightblue" d="M360.87,-213.58C394.19,-234.77 461.23,-274.41 524,-293.5 534.27,-296.62 544.96,-299.32 555.82,-301.66"/>
<polygon fill="midnightblue" stroke="midnightblue" points="555.33,-305.13 565.83,-303.7 556.73,-298.27 555.33,-305.13"/>
</g>
<!-- Node13 -->
<g id="node13" class="node">
<title>Node13</title>
<g id="a_node13"><a xlink:href="../../d3/d94/class_audio_synth_waveformhd_a56d0257e167e91bd8b1e96f12b4c372d.html#a56d0257e167e91bd8b1e96f12b4c372d" target="_top" xlink:title=" ">
<polygon fill="none" stroke="black" points="566,-255.5 566,-283.5 868,-283.5 868,-255.5 566,-255.5"/>
<text text-anchor="middle" x="717" y="-265.1" font-family="Helvetica,sans-Serif" font-size="18.00">AudioSynthWaveformhd::frequency</text>
</a>
</g>
</g>
<!-- Node11&#45;&gt;Node13 -->
<g id="edge13" class="edge">
<title>Node11&#45;&gt;Node13</title>
<path fill="none" stroke="midnightblue" d="M387.67,-213.61C424.68,-224 477.21,-237.78 524,-246.5 538.89,-249.28 554.5,-251.79 570.1,-254.04"/>
<polygon fill="midnightblue" stroke="midnightblue" points="569.96,-257.56 580.35,-255.49 570.94,-250.63 569.96,-257.56"/>
</g>
<!-- Node14 -->
<g id="node14" class="node">
<title>Node14</title>
<g id="a_node14"><a xlink:href="../../d3/d94/class_audio_synth_waveformhd_aac457cd8c21fd438f43acd4d7ee0d277.html#aac457cd8c21fd438f43acd4d7ee0d277" target="_top" xlink:title=" ">
<polygon fill="none" stroke="black" points="581,-208.5 581,-236.5 853,-236.5 853,-208.5 581,-208.5"/>
<text text-anchor="middle" x="717" y="-218.1" font-family="Helvetica,sans-Serif" font-size="18.00">AudioSynthWaveformhd::phase</text>
</a>
</g>
</g>
<!-- Node11&#45;&gt;Node14 -->
<g id="edge14" class="edge">
<title>Node11&#45;&gt;Node14</title>
<path fill="none" stroke="midnightblue" d="M473.57,-207.69C505.02,-209.61 538.68,-211.67 570.61,-213.62"/>
<polygon fill="midnightblue" stroke="midnightblue" points="570.71,-217.13 580.91,-214.25 571.14,-210.14 570.71,-217.13"/>
</g>
<!-- Node15 -->
<g id="node15" class="node">
<title>Node15</title>
<g id="a_node15"><a xlink:href="../../dc/d43/class_svc_data_dictionary_a0ab98c4005b11600d7a11630e109ec04.html#a0ab98c4005b11600d7a11630e109ec04" target="_top" xlink:title="returns the int32_t value of the record">
<polygon fill="none" stroke="black" points="612.5,-161.5 612.5,-189.5 821.5,-189.5 821.5,-161.5 612.5,-161.5"/>
<text text-anchor="middle" x="717" y="-171.1" font-family="Helvetica,sans-Serif" font-size="18.00">SvcDataDictionary::read</text>
</a>
</g>
</g>
<!-- Node11&#45;&gt;Node15 -->
<g id="edge15" class="edge">
<title>Node11&#45;&gt;Node15</title>
<path fill="none" stroke="midnightblue" d="M473.57,-190.95C515.63,-188.27 561.65,-185.34 602.18,-182.76"/>
<polygon fill="midnightblue" stroke="midnightblue" points="602.6,-186.24 612.36,-182.11 602.16,-179.25 602.6,-186.24"/>
</g>
<!-- Node16 -->
<g id="node16" class="node">
<title>Node16</title>
<g id="a_node16"><a xlink:href="../../d0/d55/classeris_audio_analyze_f_f_t1024_aa8d3a4a1acf9560568d517d843382f79.html#aa8d3a4a1acf9560568d517d843382f79" target="_top" xlink:title=" ">
<polygon fill="none" stroke="black" points="580.5,-114.5 580.5,-142.5 853.5,-142.5 853.5,-114.5 580.5,-114.5"/>
<text text-anchor="middle" x="717" y="-124.1" font-family="Helvetica,sans-Serif" font-size="18.00">erisAudioAnalyzeFFT1024::read</text>
</a>
</g>
</g>
<!-- Node11&#45;&gt;Node16 -->
<g id="edge17" class="edge">
<title>Node11&#45;&gt;Node16</title>
<path fill="none" stroke="midnightblue" d="M387.69,-185.46C424.7,-175.11 477.23,-161.34 524,-152.5 540.69,-149.34 558.28,-146.5 575.77,-143.96"/>
<polygon fill="midnightblue" stroke="midnightblue" points="576.63,-147.37 586.04,-142.51 575.65,-140.44 576.63,-147.37"/>
</g>
<!-- Node17 -->
<g id="node17" class="node">
<title>Node17</title>
<g id="a_node17"><a xlink:href="../../d0/d55/classeris_audio_analyze_f_f_t1024_a8e1d12d061b83e2f737aec1a763b7286.html#a8e1d12d061b83e2f737aec1a763b7286" target="_top" xlink:title=" ">
<polygon fill="none" stroke="black" points="564.5,-47.5 564.5,-95.5 869.5,-95.5 869.5,-47.5 564.5,-47.5"/>
<text text-anchor="start" x="572.5" y="-77.1" font-family="Helvetica,sans-Serif" font-size="18.00">erisAudioAnalyzeFFT1024::sort_fftrr</text>
<text text-anchor="middle" x="717" y="-57.1" font-family="Helvetica,sans-Serif" font-size="18.00">_by_cqt_bin</text>
</a>
</g>
</g>
<!-- Node11&#45;&gt;Node17 -->
<g id="edge18" class="edge">
<title>Node11&#45;&gt;Node17</title>
<path fill="none" stroke="midnightblue" d="M361.84,-185.34C395.62,-164.6 462.3,-126.17 524,-105.5 533.79,-102.22 543.97,-99.24 554.32,-96.53"/>
<polygon fill="midnightblue" stroke="midnightblue" points="555.44,-99.86 564.28,-94.02 553.72,-93.07 555.44,-99.86"/>
</g>
<!-- Node19 -->
<g id="node19" class="node">
<title>Node19</title>
<g id="a_node19"><a xlink:href="../../d0/d55/classeris_audio_analyze_f_f_t1024_a98144c6da12b21f11c34396c285f2f16.html#a98144c6da12b21f11c34396c285f2f16" target="_top" xlink:title=" ">
<polygon fill="none" stroke="black" points="524,-0.5 524,-28.5 910,-28.5 910,-0.5 524,-0.5"/>
<text text-anchor="middle" x="717" y="-10.1" font-family="Helvetica,sans-Serif" font-size="18.00">erisAudioAnalyzeFFT1024::sort_fftrr_by_value</text>
</a>
</g>
</g>
<!-- Node11&#45;&gt;Node19 -->
<g id="edge20" class="edge">
<title>Node11&#45;&gt;Node19</title>
<path fill="none" stroke="midnightblue" d="M350.56,-185.12C376.64,-152.38 445.76,-72.43 524,-37.5 528.67,-35.42 533.46,-33.5 538.35,-31.73"/>
<polygon fill="midnightblue" stroke="midnightblue" points="539.5,-35.04 547.86,-28.53 537.26,-28.41 539.5,-35.04"/>
</g>
<!-- Node15&#45;&gt;Node10 -->
<g id="edge16" class="edge">
<title>Node15&#45;&gt;Node10</title>
<path fill="none" stroke="midnightblue" d="M821.68,-179.78C850.89,-183.29 882.25,-189.31 910,-199.5 998.22,-231.89 1086.82,-301.64 1127.87,-336.61"/>
<polygon fill="midnightblue" stroke="midnightblue" points="1125.8,-339.45 1135.67,-343.32 1130.37,-334.15 1125.8,-339.45"/>
</g>
<!-- Node18 -->
<g id="node18" class="node">
<title>Node18</title>
<g id="a_node18"><a xlink:href="../../d0/d55/classeris_audio_analyze_f_f_t1024_a92d555b890dd4e94c237d95810a45f8c.html#a92d555b890dd4e94c237d95810a45f8c" target="_top" xlink:title=" ">
<polygon fill="none" stroke="black" points="946,-57.5 946,-85.5 1359,-85.5 1359,-57.5 946,-57.5"/>
<text text-anchor="middle" x="1152.5" y="-67.1" font-family="Helvetica,sans-Serif" font-size="18.00">erisAudioAnalyzeFFT1024::compare_fftrr_cqt_bin</text>
</a>
</g>
</g>
<!-- Node17&#45;&gt;Node18 -->
<g id="edge19" class="edge">
<title>Node17&#45;&gt;Node18</title>
<path fill="none" stroke="midnightblue" d="M869.62,-71.5C891,-71.5 913.32,-71.5 935.62,-71.5"/>
<polygon fill="midnightblue" stroke="midnightblue" points="935.87,-75 945.87,-71.5 935.87,-68 935.87,-75"/>
</g>
<!-- Node20 -->
<g id="node20" class="node">
<title>Node20</title>
<g id="a_node20"><a xlink:href="../../d0/d55/classeris_audio_analyze_f_f_t1024_a4ca1ddc8fdf44fa1957bf72059cfcbc0.html#a4ca1ddc8fdf44fa1957bf72059cfcbc0" target="_top" xlink:title=" ">
<polygon fill="none" stroke="black" points="954,-0.5 954,-28.5 1351,-28.5 1351,-0.5 954,-0.5"/>
<text text-anchor="middle" x="1152.5" y="-10.1" font-family="Helvetica,sans-Serif" font-size="18.00">erisAudioAnalyzeFFT1024::compare_fftrr_value</text>
</a>
</g>
</g>
<!-- Node19&#45;&gt;Node20 -->
<g id="edge21" class="edge">
<title>Node19&#45;&gt;Node20</title>
<path fill="none" stroke="midnightblue" d="M910.03,-14.5C921.13,-14.5 932.31,-14.5 943.47,-14.5"/>
<polygon fill="midnightblue" stroke="midnightblue" points="943.7,-18 953.7,-14.5 943.7,-11 943.7,-18"/>
</g>
</g>
</svg>
