<?xml version="1.0" encoding="UTF-8" standalone="no"?>
<!DOCTYPE svg PUBLIC "-//W3C//DTD SVG 1.1//EN"
 "http://www.w3.org/Graphics/SVG/1.1/DTD/svg11.dtd">
<!-- Generated by graphviz version 2.47.3 (20210619.1520)
 -->
<!-- Title: ExFatVolume.h Pages: 1 -->
<!--zoomable 668 -->
<svg id="main" version="1.1" xmlns="http://www.w3.org/2000/svg" xmlns:xlink="http://www.w3.org/1999/xlink" xml:space="preserve" onload="init(evt)">
<style type="text/css"><![CDATA[
.edge:hover path { stroke: red; }
.edge:hover polygon { stroke: red; fill: red; }
]]></style>
<script type="text/javascript"><![CDATA[
var edges = document.getElementsByTagName('g');
if (edges && edges.length) {
  for (var i=0;i<edges.length;i++) {
    if (edges[i].id.substr(0,4)=='edge') {
      edges[i].setAttribute('class','edge');
    }
  }
}
]]></script>
        <defs>
                <circle id="rim" cx="0" cy="0" r="7"/>
                <circle id="rim2" cx="0" cy="0" r="3.5"/>
                <g id="zoomPlus">
                        <use xlink:href="#rim" fill="#404040">
                                <set attributeName="fill" to="#808080" begin="zoomplus.mouseover" end="zoomplus.mouseout"/>
                        </use>
                        <path d="M-4,0h8M0,-4v8" fill="none" stroke="white" stroke-width="1.5" pointer-events="none"/>
                </g>
                <g id="zoomMin">
                        <use xlink:href="#rim" fill="#404040">
                                <set attributeName="fill" to="#808080" begin="zoomminus.mouseover" end="zoomminus.mouseout"/>
                        </use>
                        <path d="M-4,0h8" fill="none" stroke="white" stroke-width="1.5" pointer-events="none"/>
                </g>
                <g id="dirArrow">
                        <path fill="none" stroke="white" stroke-width="1.5" d="M0,-3.0v7 M-2.5,-0.5L0,-3.0L2.5,-0.5"/>
                </g>
               <g id="resetDef">
                       <use xlink:href="#rim2" fill="#404040">
                               <set attributeName="fill" to="#808080" begin="reset.mouseover" end="reset.mouseout"/>
                       </use>
               </g>
        </defs>

<script type="text/javascript">
var viewWidth = 1185;
var viewHeight = 668;
var sectionId = 'dynsection-0';
</script>
<script xlink:href="../../svgpan.js"/>
<svg id="graph" class="graph">
<g id="viewport">
<title>ExFatVolume.h</title>
<polygon fill="white" stroke="transparent" points="-4,4 -4,-664 1181,-664 1181,4 -4,4"/>
<!-- Node1 -->
<g id="node1" class="node">
<title>Node1</title>
<g id="a_node1"><a xlink:title=" ">
<polygon fill="#bfbfbf" stroke="black" points="741.5,-638.5 741.5,-659.5 837.5,-659.5 837.5,-638.5 741.5,-638.5"/>
<text text-anchor="middle" x="789.5" y="-645.9" font-family="Helvetica,sans-Serif" font-size="12.00">ExFatVolume.h</text>
</a>
</g>
</g>
<!-- Node2 -->
<g id="node2" class="node">
<title>Node2</title>
<g id="a_node2"><a xlink:href="../../dd/ddc/_ex_fat_file_8h.html" target="_top" xlink:title="ExFatFile class.">
<polygon fill="white" stroke="black" points="751.5,-580.5 751.5,-601.5 827.5,-601.5 827.5,-580.5 751.5,-580.5"/>
<text text-anchor="middle" x="789.5" y="-587.9" font-family="Helvetica,sans-Serif" font-size="12.00">ExFatFile.h</text>
</a>
</g>
</g>
<!-- Node1&#45;&gt;Node2 -->
<g id="edge1" class="edge">
<title>Node1&#45;&gt;Node2</title>
<path fill="none" stroke="midnightblue" d="M789.5,-638.25C789.5,-630.94 789.5,-620.69 789.5,-611.7"/>
<polygon fill="midnightblue" stroke="midnightblue" points="793,-611.64 789.5,-601.64 786,-611.64 793,-611.64"/>
</g>
<!-- Node3 -->
<g id="node3" class="node">
<title>Node3</title>
<g id="a_node3"><a xlink:title=" ">
<polygon fill="white" stroke="#bfbfbf" points="0,-522.5 0,-543.5 53,-543.5 53,-522.5 0,-522.5"/>
<text text-anchor="middle" x="26.5" y="-529.9" font-family="Helvetica,sans-Serif" font-size="12.00">limits.h</text>
</a>
</g>
</g>
<!-- Node2&#45;&gt;Node3 -->
<g id="edge2" class="edge">
<title>Node2&#45;&gt;Node3</title>
<path fill="none" stroke="midnightblue" d="M751.28,-589.92C643.25,-589.19 326.69,-583.55 67.5,-544 66.05,-543.78 64.58,-543.53 63.1,-543.26"/>
<polygon fill="midnightblue" stroke="midnightblue" points="63.77,-539.83 53.27,-541.24 62.36,-546.69 63.77,-539.83"/>
</g>
<!-- Node4 -->
<g id="node4" class="node">
<title>Node4</title>
<g id="a_node4"><a xlink:title=" ">
<polygon fill="white" stroke="#bfbfbf" points="122.5,-0.5 122.5,-21.5 176.5,-21.5 176.5,-0.5 122.5,-0.5"/>
<text text-anchor="middle" x="149.5" y="-7.9" font-family="Helvetica,sans-Serif" font-size="12.00">string.h</text>
</a>
</g>
</g>
<!-- Node2&#45;&gt;Node4 -->
<g id="edge3" class="edge">
<title>Node2&#45;&gt;Node4</title>
<path fill="none" stroke="midnightblue" d="M751.43,-587.93C604.38,-579.45 81.5,-544.47 81.5,-476 81.5,-476 81.5,-476 81.5,-126 81.5,-86.77 111.57,-49.3 131.72,-28.6"/>
<polygon fill="midnightblue" stroke="midnightblue" points="134.23,-31.04 138.88,-21.52 129.31,-26.06 134.23,-31.04"/>
</g>
<!-- Node5 -->
<g id="node5" class="node">
<title>Node5</title>
<g id="a_node5"><a xlink:href="../../df/d9b/_fs_date_time_8h.html" target="_top" xlink:title=" ">
<polygon fill="white" stroke="black" points="147.5,-174.5 147.5,-195.5 295.5,-195.5 295.5,-174.5 147.5,-174.5"/>
<text text-anchor="middle" x="221.5" y="-181.9" font-family="Helvetica,sans-Serif" font-size="12.00">../common/FsDateTime.h</text>
</a>
</g>
</g>
<!-- Node2&#45;&gt;Node5 -->
<g id="edge4" class="edge">
<title>Node2&#45;&gt;Node5</title>
<path fill="none" stroke="midnightblue" d="M751.05,-586.79C618.63,-575.24 189.5,-533.39 189.5,-476 189.5,-476 189.5,-476 189.5,-300 189.5,-265.4 203.34,-227.01 212.81,-204.77"/>
<polygon fill="midnightblue" stroke="midnightblue" points="216.07,-206.07 216.92,-195.51 209.67,-203.23 216.07,-206.07"/>
</g>
<!-- Node13 -->
<g id="node13" class="node">
<title>Node13</title>
<g id="a_node13"><a xlink:href="../../dc/dbc/_fs_api_constants_8h.html" target="_top" xlink:title=" ">
<polygon fill="white" stroke="black" points="930,-348.5 930,-369.5 1097,-369.5 1097,-348.5 930,-348.5"/>
<text text-anchor="middle" x="1013.5" y="-355.9" font-family="Helvetica,sans-Serif" font-size="12.00">../common/FsApiConstants.h</text>
</a>
</g>
</g>
<!-- Node2&#45;&gt;Node13 -->
<g id="edge17" class="edge">
<title>Node2&#45;&gt;Node13</title>
<path fill="none" stroke="midnightblue" d="M827.65,-583.6C854.76,-577.39 890.63,-565.62 915.5,-544 968.22,-498.16 997.15,-416.83 1008.2,-379.6"/>
<polygon fill="midnightblue" stroke="midnightblue" points="1011.69,-380.12 1011.06,-369.55 1004.96,-378.21 1011.69,-380.12"/>
</g>
<!-- Node14 -->
<g id="node14" class="node">
<title>Node14</title>
<g id="a_node14"><a xlink:href="../../d8/d63/_fmt_number_8h.html" target="_top" xlink:title=" ">
<polygon fill="white" stroke="black" points="594.5,-58.5 594.5,-79.5 738.5,-79.5 738.5,-58.5 594.5,-58.5"/>
<text text-anchor="middle" x="666.5" y="-65.9" font-family="Helvetica,sans-Serif" font-size="12.00">../common/FmtNumber.h</text>
</a>
</g>
</g>
<!-- Node2&#45;&gt;Node14 -->
<g id="edge19" class="edge">
<title>Node2&#45;&gt;Node14</title>
<path fill="none" stroke="midnightblue" d="M801.39,-580.4C822.31,-562.34 863.5,-521.07 863.5,-476 863.5,-476 863.5,-476 863.5,-300 863.5,-196.62 747.28,-116.36 693.38,-84.7"/>
<polygon fill="midnightblue" stroke="midnightblue" points="695.09,-81.65 684.68,-79.69 691.6,-87.71 695.09,-81.65"/>
</g>
<!-- Node16 -->
<g id="node16" class="node">
<title>Node16</title>
<g id="a_node16"><a xlink:href="../../d6/d3f/_fs_name_8h.html" target="_top" xlink:title="FsName class.">
<polygon fill="white" stroke="black" points="783.5,-116.5 783.5,-137.5 911.5,-137.5 911.5,-116.5 783.5,-116.5"/>
<text text-anchor="middle" x="847.5" y="-123.9" font-family="Helvetica,sans-Serif" font-size="12.00">../common/FsName.h</text>
</a>
</g>
</g>
<!-- Node2&#45;&gt;Node16 -->
<g id="edge23" class="edge">
<title>Node2&#45;&gt;Node16</title>
<path fill="none" stroke="midnightblue" d="M820.52,-580.35C839.32,-573.06 862.48,-561.32 877.5,-544 898.49,-519.78 901.5,-508.05 901.5,-476 901.5,-476 901.5,-476 901.5,-242 901.5,-205.02 878,-167.22 862.01,-145.77"/>
<polygon fill="midnightblue" stroke="midnightblue" points="864.59,-143.4 855.7,-137.63 859.06,-147.68 864.59,-143.4"/>
</g>
<!-- Node17 -->
<g id="node17" class="node">
<title>Node17</title>
<g id="a_node17"><a xlink:href="../../d7/dc8/_ex_fat_partition_8h.html" target="_top" xlink:title="ExFatPartition include file.">
<polygon fill="white" stroke="black" points="646.5,-522.5 646.5,-543.5 746.5,-543.5 746.5,-522.5 646.5,-522.5"/>
<text text-anchor="middle" x="696.5" y="-529.9" font-family="Helvetica,sans-Serif" font-size="12.00">ExFatPartition.h</text>
</a>
</g>
</g>
<!-- Node2&#45;&gt;Node17 -->
<g id="edge26" class="edge">
<title>Node2&#45;&gt;Node17</title>
<path fill="none" stroke="midnightblue" d="M773.3,-580.25C758.9,-571.57 737.63,-558.76 721.12,-548.82"/>
<polygon fill="midnightblue" stroke="midnightblue" points="722.89,-545.8 712.51,-543.64 719.28,-551.8 722.89,-545.8"/>
</g>
<!-- Node32 -->
<g id="node28" class="node">
<title>Node32</title>
<g id="a_node28"><a xlink:href="../../dd/dc9/_arduino_files_8h.html" target="_top" xlink:title=" ">
<polygon fill="white" stroke="black" points="1028,-406.5 1028,-427.5 1177,-427.5 1177,-406.5 1028,-406.5"/>
<text text-anchor="middle" x="1102.5" y="-413.9" font-family="Helvetica,sans-Serif" font-size="12.00">../common/ArduinoFiles.h</text>
</a>
</g>
</g>
<!-- Node2&#45;&gt;Node32 -->
<g id="edge51" class="edge">
<title>Node2&#45;&gt;Node32</title>
<path fill="none" stroke="midnightblue" d="M827.6,-588.17C870.03,-584.63 939.37,-574.28 990.5,-544 1036.46,-516.79 1073.81,-464.35 1091.47,-436.47"/>
<polygon fill="midnightblue" stroke="midnightblue" points="1094.6,-438.07 1096.87,-427.72 1088.64,-434.39 1094.6,-438.07"/>
</g>
<!-- Node6 -->
<g id="node6" class="node">
<title>Node6</title>
<g id="a_node6"><a xlink:title=" ">
<polygon fill="white" stroke="#bfbfbf" points="521,-0.5 521,-21.5 574,-21.5 574,-0.5 521,-0.5"/>
<text text-anchor="middle" x="547.5" y="-7.9" font-family="Helvetica,sans-Serif" font-size="12.00">stdint.h</text>
</a>
</g>
</g>
<!-- Node5&#45;&gt;Node6 -->
<g id="edge5" class="edge">
<title>Node5&#45;&gt;Node6</title>
<path fill="none" stroke="midnightblue" d="M253.94,-174.38C303.29,-158.92 399.11,-125.6 471.5,-80 494.25,-65.67 516.76,-44.41 531.3,-29.49"/>
<polygon fill="midnightblue" stroke="midnightblue" points="534.14,-31.58 538.51,-21.93 529.08,-26.75 534.14,-31.58"/>
</g>
<!-- Node7 -->
<g id="node7" class="node">
<title>Node7</title>
<g id="a_node7"><a xlink:href="../../de/d2c/_compile_date_time_8h.html" target="_top" xlink:title=" ">
<polygon fill="white" stroke="black" points="160.5,-116.5 160.5,-137.5 282.5,-137.5 282.5,-116.5 160.5,-116.5"/>
<text text-anchor="middle" x="221.5" y="-123.9" font-family="Helvetica,sans-Serif" font-size="12.00">CompileDateTime.h</text>
</a>
</g>
</g>
<!-- Node5&#45;&gt;Node7 -->
<g id="edge6" class="edge">
<title>Node5&#45;&gt;Node7</title>
<path fill="none" stroke="midnightblue" d="M221.5,-174.25C221.5,-166.94 221.5,-156.69 221.5,-147.7"/>
<polygon fill="midnightblue" stroke="midnightblue" points="225,-147.64 221.5,-137.64 218,-147.64 225,-147.64"/>
</g>
<!-- Node8 -->
<g id="node8" class="node">
<title>Node8</title>
<g id="a_node8"><a xlink:href="../../d9/da3/_sys_call_8h.html" target="_top" xlink:title="SysCall class.">
<polygon fill="white" stroke="black" points="473,-116.5 473,-137.5 538,-137.5 538,-116.5 473,-116.5"/>
<text text-anchor="middle" x="505.5" y="-123.9" font-family="Helvetica,sans-Serif" font-size="12.00">SysCall.h</text>
</a>
</g>
</g>
<!-- Node5&#45;&gt;Node8 -->
<g id="edge7" class="edge">
<title>Node5&#45;&gt;Node8</title>
<path fill="none" stroke="midnightblue" d="M271.95,-174.48C319.96,-165.36 394.22,-151.08 458.5,-138 459.96,-137.7 461.44,-137.4 462.93,-137.09"/>
<polygon fill="midnightblue" stroke="midnightblue" points="463.82,-140.48 472.9,-135.02 462.4,-133.63 463.82,-140.48"/>
</g>
<!-- Node8&#45;&gt;Node6 -->
<g id="edge8" class="edge">
<title>Node8&#45;&gt;Node6</title>
<path fill="none" stroke="midnightblue" d="M509.08,-116.28C515.99,-97.52 531.29,-56 540.36,-31.38"/>
<polygon fill="midnightblue" stroke="midnightblue" points="543.76,-32.29 543.93,-21.69 537.19,-29.87 543.76,-32.29"/>
</g>
<!-- Node9 -->
<g id="node9" class="node">
<title>Node9</title>
<g id="a_node9"><a xlink:title=" ">
<polygon fill="white" stroke="#bfbfbf" points="243.5,-0.5 243.5,-21.5 301.5,-21.5 301.5,-0.5 243.5,-0.5"/>
<text text-anchor="middle" x="272.5" y="-7.9" font-family="Helvetica,sans-Serif" font-size="12.00">stddef.h</text>
</a>
</g>
</g>
<!-- Node8&#45;&gt;Node9 -->
<g id="edge9" class="edge">
<title>Node8&#45;&gt;Node9</title>
<path fill="none" stroke="midnightblue" d="M472.77,-125.73C405.46,-124.42 255.19,-117.27 223.5,-80 208.95,-62.89 229.76,-41.69 248.58,-27.55"/>
<polygon fill="midnightblue" stroke="midnightblue" points="250.83,-30.25 256.95,-21.6 246.78,-24.54 250.83,-30.25"/>
</g>
<!-- Node10 -->
<g id="node10" class="node">
<title>Node10</title>
<g id="a_node10"><a xlink:href="../../de/d9b/_sd_fat_config_8h.html" target="_top" xlink:title="configuration definitions">
<polygon fill="white" stroke="black" points="884.5,-58.5 884.5,-79.5 976.5,-79.5 976.5,-58.5 884.5,-58.5"/>
<text text-anchor="middle" x="930.5" y="-65.9" font-family="Helvetica,sans-Serif" font-size="12.00">SdFatConfig.h</text>
</a>
</g>
</g>
<!-- Node8&#45;&gt;Node10 -->
<g id="edge10" class="edge">
<title>Node8&#45;&gt;Node10</title>
<path fill="none" stroke="midnightblue" d="M538.14,-121.7C610.29,-112.19 784.05,-89.3 874.17,-77.42"/>
<polygon fill="midnightblue" stroke="midnightblue" points="874.75,-80.88 884.2,-76.1 873.83,-73.94 874.75,-80.88"/>
</g>
<!-- Node12 -->
<g id="node12" class="node">
<title>Node12</title>
<g id="a_node12"><a xlink:href="../../d1/d27/_print_basic_8h.html" target="_top" xlink:title="Stream/Print like replacement for non&#45;Arduino systems.">
<polygon fill="white" stroke="black" points="232.5,-58.5 232.5,-79.5 312.5,-79.5 312.5,-58.5 232.5,-58.5"/>
<text text-anchor="middle" x="272.5" y="-65.9" font-family="Helvetica,sans-Serif" font-size="12.00">PrintBasic.h</text>
</a>
</g>
</g>
<!-- Node8&#45;&gt;Node12 -->
<g id="edge13" class="edge">
<title>Node8&#45;&gt;Node12</title>
<path fill="none" stroke="midnightblue" d="M472.61,-118.1C433.43,-108.68 367.57,-92.85 322.17,-81.94"/>
<polygon fill="midnightblue" stroke="midnightblue" points="322.78,-78.49 312.24,-79.55 321.14,-85.29 322.78,-78.49"/>
</g>
<!-- Node10&#45;&gt;Node6 -->
<g id="edge11" class="edge">
<title>Node10&#45;&gt;Node6</title>
<path fill="none" stroke="midnightblue" d="M884.3,-61.25C807.47,-50.01 654.93,-27.71 584.6,-17.43"/>
<polygon fill="midnightblue" stroke="midnightblue" points="584.84,-13.92 574.44,-15.94 583.83,-20.85 584.84,-13.92"/>
</g>
<!-- Node11 -->
<g id="node11" class="node">
<title>Node11</title>
<g id="a_node11"><a xlink:title=" ">
<polygon fill="white" stroke="#bfbfbf" points="897.5,-0.5 897.5,-21.5 963.5,-21.5 963.5,-0.5 897.5,-0.5"/>
<text text-anchor="middle" x="930.5" y="-7.9" font-family="Helvetica,sans-Serif" font-size="12.00">Arduino.h</text>
</a>
</g>
</g>
<!-- Node10&#45;&gt;Node11 -->
<g id="edge12" class="edge">
<title>Node10&#45;&gt;Node11</title>
<path fill="none" stroke="midnightblue" d="M930.5,-58.25C930.5,-50.94 930.5,-40.69 930.5,-31.7"/>
<polygon fill="midnightblue" stroke="midnightblue" points="934,-31.64 930.5,-21.64 927,-31.64 934,-31.64"/>
</g>
<!-- Node12&#45;&gt;Node4 -->
<g id="edge16" class="edge">
<title>Node12&#45;&gt;Node4</title>
<path fill="none" stroke="midnightblue" d="M251.36,-58.37C231.61,-49.38 201.93,-35.87 179.69,-25.75"/>
<polygon fill="midnightblue" stroke="midnightblue" points="180.92,-22.46 170.37,-21.5 178.02,-28.83 180.92,-22.46"/>
</g>
<!-- Node12&#45;&gt;Node6 -->
<g id="edge14" class="edge">
<title>Node12&#45;&gt;Node6</title>
<path fill="none" stroke="midnightblue" d="M312.61,-59.81C315.62,-59.2 318.61,-58.59 321.5,-58 388.29,-44.39 466.19,-28.54 510.89,-19.45"/>
<polygon fill="midnightblue" stroke="midnightblue" points="511.61,-22.87 520.71,-17.45 510.21,-16.01 511.61,-22.87"/>
</g>
<!-- Node12&#45;&gt;Node9 -->
<g id="edge15" class="edge">
<title>Node12&#45;&gt;Node9</title>
<path fill="none" stroke="midnightblue" d="M272.5,-58.25C272.5,-50.94 272.5,-40.69 272.5,-31.7"/>
<polygon fill="midnightblue" stroke="midnightblue" points="276,-31.64 272.5,-21.64 269,-31.64 276,-31.64"/>
</g>
<!-- Node13&#45;&gt;Node10 -->
<g id="edge18" class="edge">
<title>Node13&#45;&gt;Node10</title>
<path fill="none" stroke="midnightblue" d="M1010.92,-348.32C1005.94,-328.76 995.5,-283.07 995.5,-244 995.5,-244 995.5,-244 995.5,-184 995.5,-145.38 967,-107.93 947.75,-87.02"/>
<polygon fill="midnightblue" stroke="midnightblue" points="950.1,-84.42 940.66,-79.61 945.04,-89.26 950.1,-84.42"/>
</g>
<!-- Node14&#45;&gt;Node6 -->
<g id="edge21" class="edge">
<title>Node14&#45;&gt;Node6</title>
<path fill="none" stroke="midnightblue" d="M646.04,-58.37C627.03,-49.42 598.48,-35.99 577,-25.88"/>
<polygon fill="midnightblue" stroke="midnightblue" points="578.23,-22.59 567.69,-21.5 575.25,-28.93 578.23,-22.59"/>
</g>
<!-- Node14&#45;&gt;Node9 -->
<g id="edge22" class="edge">
<title>Node14&#45;&gt;Node9</title>
<path fill="none" stroke="midnightblue" d="M599.22,-58.44C516.6,-46.69 379.19,-27.16 311.98,-17.61"/>
<polygon fill="midnightblue" stroke="midnightblue" points="312.2,-14.11 301.81,-16.17 311.22,-21.04 312.2,-14.11"/>
</g>
<!-- Node15 -->
<g id="node15" class="node">
<title>Node15</title>
<g id="a_node15"><a xlink:title=" ">
<polygon fill="white" stroke="#bfbfbf" points="641,-0.5 641,-21.5 692,-21.5 692,-0.5 641,-0.5"/>
<text text-anchor="middle" x="666.5" y="-7.9" font-family="Helvetica,sans-Serif" font-size="12.00">math.h</text>
</a>
</g>
</g>
<!-- Node14&#45;&gt;Node15 -->
<g id="edge20" class="edge">
<title>Node14&#45;&gt;Node15</title>
<path fill="none" stroke="midnightblue" d="M666.5,-58.25C666.5,-50.94 666.5,-40.69 666.5,-31.7"/>
<polygon fill="midnightblue" stroke="midnightblue" points="670,-31.64 666.5,-21.64 663,-31.64 670,-31.64"/>
</g>
<!-- Node16&#45;&gt;Node6 -->
<g id="edge25" class="edge">
<title>Node16&#45;&gt;Node6</title>
<path fill="none" stroke="midnightblue" d="M836.33,-116.32C818.68,-101.51 782.71,-73.37 747.5,-58 693.28,-34.33 625.26,-22.01 584.14,-16.28"/>
<polygon fill="midnightblue" stroke="midnightblue" points="584.42,-12.79 574.05,-14.93 583.49,-19.72 584.42,-12.79"/>
</g>
<!-- Node16&#45;&gt;Node10 -->
<g id="edge24" class="edge">
<title>Node16&#45;&gt;Node10</title>
<path fill="none" stroke="midnightblue" d="M861.96,-116.25C874.57,-107.73 893.09,-95.24 907.7,-85.38"/>
<polygon fill="midnightblue" stroke="midnightblue" points="909.88,-88.14 916.21,-79.64 905.96,-82.33 909.88,-88.14"/>
</g>
<!-- Node17&#45;&gt;Node8 -->
<g id="edge27" class="edge">
<title>Node17&#45;&gt;Node8</title>
<path fill="none" stroke="midnightblue" d="M693.78,-522.33C688.52,-502.79 677.5,-457.13 677.5,-418 677.5,-418 677.5,-418 677.5,-358 677.5,-270.97 672.74,-234.84 610.5,-174 593.3,-157.19 568.94,-146 548.01,-138.87"/>
<polygon fill="midnightblue" stroke="midnightblue" points="548.96,-135.5 538.37,-135.78 546.82,-142.16 548.96,-135.5"/>
</g>
<!-- Node18 -->
<g id="node18" class="node">
<title>Node18</title>
<g id="a_node18"><a xlink:href="../../d7/df6/_block_device_8h.html" target="_top" xlink:title=" ">
<polygon fill="white" stroke="black" points="477,-406.5 477,-427.5 626,-427.5 626,-406.5 477,-406.5"/>
<text text-anchor="middle" x="551.5" y="-413.9" font-family="Helvetica,sans-Serif" font-size="12.00">../common/BlockDevice.h</text>
</a>
</g>
</g>
<!-- Node17&#45;&gt;Node18 -->
<g id="edge28" class="edge">
<title>Node17&#45;&gt;Node18</title>
<path fill="none" stroke="midnightblue" d="M686.57,-522.28C672.43,-508.63 645.42,-483.3 620.5,-464 606.26,-452.97 589.45,-441.73 575.99,-433.13"/>
<polygon fill="midnightblue" stroke="midnightblue" points="577.61,-430.01 567.28,-427.62 573.87,-435.92 577.61,-430.01"/>
</g>
<!-- Node29 -->
<g id="node25" class="node">
<title>Node29</title>
<g id="a_node25"><a xlink:href="../../d1/d0d/_fs_cache_8h.html" target="_top" xlink:title="Common cache code for exFAT and FAT.">
<polygon fill="white" stroke="black" points="480,-464.5 480,-485.5 611,-485.5 611,-464.5 480,-464.5"/>
<text text-anchor="middle" x="545.5" y="-471.9" font-family="Helvetica,sans-Serif" font-size="12.00">../common/FsCache.h</text>
</a>
</g>
</g>
<!-- Node17&#45;&gt;Node29 -->
<g id="edge43" class="edge">
<title>Node17&#45;&gt;Node29</title>
<path fill="none" stroke="midnightblue" d="M670.54,-522.37C645.76,-513.18 608.23,-499.26 580.75,-489.07"/>
<polygon fill="midnightblue" stroke="midnightblue" points="581.71,-485.7 571.12,-485.5 579.28,-492.26 581.71,-485.7"/>
</g>
<!-- Node30 -->
<g id="node26" class="node">
<title>Node30</title>
<g id="a_node26"><a xlink:href="../../d1/db3/_fs_structs_8h.html" target="_top" xlink:title=" ">
<polygon fill="white" stroke="black" points="330.5,-58.5 330.5,-79.5 462.5,-79.5 462.5,-58.5 330.5,-58.5"/>
<text text-anchor="middle" x="396.5" y="-65.9" font-family="Helvetica,sans-Serif" font-size="12.00">../common/FsStructs.h</text>
</a>
</g>
</g>
<!-- Node17&#45;&gt;Node30 -->
<g id="edge46" class="edge">
<title>Node17&#45;&gt;Node30</title>
<path fill="none" stroke="midnightblue" d="M698.15,-522.34C704.28,-483.64 723.08,-336.83 675.5,-232 643.77,-162.09 616.9,-148.83 547.5,-116 516.12,-101.15 478.82,-89.74 449.14,-81.99"/>
<polygon fill="midnightblue" stroke="midnightblue" points="449.95,-78.58 439.39,-79.51 448.22,-85.37 449.95,-78.58"/>
</g>
<!-- Node31 -->
<g id="node27" class="node">
<title>Node31</title>
<g id="a_node27"><a xlink:href="../../da/df6/_ex_fat_config_8h.html" target="_top" xlink:title=" ">
<polygon fill="white" stroke="black" points="744,-464.5 744,-485.5 835,-485.5 835,-464.5 744,-464.5"/>
<text text-anchor="middle" x="789.5" y="-471.9" font-family="Helvetica,sans-Serif" font-size="12.00">ExFatConfig.h</text>
</a>
</g>
</g>
<!-- Node17&#45;&gt;Node31 -->
<g id="edge49" class="edge">
<title>Node17&#45;&gt;Node31</title>
<path fill="none" stroke="midnightblue" d="M712.7,-522.25C727.1,-513.57 748.37,-500.76 764.88,-490.82"/>
<polygon fill="midnightblue" stroke="midnightblue" points="766.72,-493.8 773.49,-485.64 763.11,-487.8 766.72,-493.8"/>
</g>
<!-- Node19 -->
<g id="node19" class="node">
<title>Node19</title>
<g id="a_node19"><a xlink:href="../../db/d31/_sd_card_8h.html" target="_top" xlink:title=" ">
<polygon fill="white" stroke="black" points="496,-348.5 496,-369.5 607,-369.5 607,-348.5 496,-348.5"/>
<text text-anchor="middle" x="551.5" y="-355.9" font-family="Helvetica,sans-Serif" font-size="12.00">SdCard/SdCard.h</text>
</a>
</g>
</g>
<!-- Node18&#45;&gt;Node19 -->
<g id="edge29" class="edge">
<title>Node18&#45;&gt;Node19</title>
<path fill="none" stroke="midnightblue" d="M551.5,-406.25C551.5,-398.94 551.5,-388.69 551.5,-379.7"/>
<polygon fill="midnightblue" stroke="midnightblue" points="555,-379.64 551.5,-369.64 548,-379.64 555,-379.64"/>
</g>
<!-- Node20 -->
<g id="node20" class="node">
<title>Node20</title>
<g id="a_node20"><a xlink:href="../../d5/d3e/_sdio_card_8h.html" target="_top" xlink:title=" ">
<polygon fill="white" stroke="black" points="519,-290.5 519,-311.5 596,-311.5 596,-290.5 519,-290.5"/>
<text text-anchor="middle" x="557.5" y="-297.9" font-family="Helvetica,sans-Serif" font-size="12.00">SdioCard.h</text>
</a>
</g>
</g>
<!-- Node19&#45;&gt;Node20 -->
<g id="edge30" class="edge">
<title>Node19&#45;&gt;Node20</title>
<path fill="none" stroke="midnightblue" d="M552.55,-348.25C553.33,-340.94 554.43,-330.69 555.39,-321.7"/>
<polygon fill="midnightblue" stroke="midnightblue" points="558.88,-321.96 556.47,-311.64 551.92,-321.21 558.88,-321.96"/>
</g>
<!-- Node24 -->
<g id="node23" class="node">
<title>Node24</title>
<g id="a_node23"><a xlink:href="../../d8/daa/_sd_spi_card_8h.html" target="_top" xlink:title="SdSpiCard class for V2 SD/SDHC cards.">
<polygon fill="white" stroke="black" points="372,-290.5 372,-311.5 457,-311.5 457,-290.5 372,-290.5"/>
<text text-anchor="middle" x="414.5" y="-297.9" font-family="Helvetica,sans-Serif" font-size="12.00">SdSpiCard.h</text>
</a>
</g>
</g>
<!-- Node19&#45;&gt;Node24 -->
<g id="edge36" class="edge">
<title>Node19&#45;&gt;Node24</title>
<path fill="none" stroke="midnightblue" d="M527.95,-348.37C505.66,-339.26 472.01,-325.51 447.14,-315.34"/>
<polygon fill="midnightblue" stroke="midnightblue" points="448.32,-312.05 437.74,-311.5 445.68,-318.52 448.32,-312.05"/>
</g>
<!-- Node20&#45;&gt;Node8 -->
<g id="edge31" class="edge">
<title>Node20&#45;&gt;Node8</title>
<path fill="none" stroke="midnightblue" d="M580.61,-290.49C595.53,-282.99 613.73,-270.94 622.5,-254 626.99,-245.32 625.12,-241.42 622.5,-232 614.43,-203 609.12,-194.95 587.5,-174 573.71,-160.64 555.29,-149.85 539.4,-142.09"/>
<polygon fill="midnightblue" stroke="midnightblue" points="540.44,-138.71 529.9,-137.65 537.47,-145.05 540.44,-138.71"/>
</g>
<!-- Node21 -->
<g id="node21" class="node">
<title>Node21</title>
<g id="a_node21"><a xlink:href="../../da/d60/_sd_card_interface_8h.html" target="_top" xlink:title=" ">
<polygon fill="white" stroke="red" points="502,-232.5 502,-253.5 613,-253.5 613,-232.5 502,-232.5"/>
<text text-anchor="middle" x="557.5" y="-239.9" font-family="Helvetica,sans-Serif" font-size="12.00">SdCardInterface.h</text>
</a>
</g>
</g>
<!-- Node20&#45;&gt;Node21 -->
<g id="edge32" class="edge">
<title>Node20&#45;&gt;Node21</title>
<path fill="none" stroke="midnightblue" d="M557.5,-290.25C557.5,-282.94 557.5,-272.69 557.5,-263.7"/>
<polygon fill="midnightblue" stroke="midnightblue" points="561,-263.64 557.5,-253.64 554,-263.64 561,-263.64"/>
</g>
<!-- Node23 -->
<g id="node22" class="node">
<title>Node23</title>
<g id="a_node22"><a xlink:href="../../d2/db6/_sd_card_info_8h.html" target="_top" xlink:title=" ">
<polygon fill="white" stroke="black" points="493,-174.5 493,-195.5 578,-195.5 578,-174.5 493,-174.5"/>
<text text-anchor="middle" x="535.5" y="-181.9" font-family="Helvetica,sans-Serif" font-size="12.00">SdCardInfo.h</text>
</a>
</g>
</g>
<!-- Node21&#45;&gt;Node23 -->
<g id="edge33" class="edge">
<title>Node21&#45;&gt;Node23</title>
<path fill="none" stroke="midnightblue" d="M553.67,-232.25C550.73,-224.78 546.6,-214.24 543.01,-205.11"/>
<polygon fill="midnightblue" stroke="midnightblue" points="546.2,-203.67 539.29,-195.64 539.69,-206.23 546.2,-203.67"/>
</g>
<!-- Node23&#45;&gt;Node6 -->
<g id="edge34" class="edge">
<title>Node23&#45;&gt;Node6</title>
<path fill="none" stroke="midnightblue" d="M538.81,-174.27C541.76,-165.06 545.86,-150.77 547.5,-138 552.28,-100.73 550.65,-56.74 549.05,-31.83"/>
<polygon fill="midnightblue" stroke="midnightblue" points="552.52,-31.26 548.32,-21.54 545.54,-31.76 552.52,-31.26"/>
</g>
<!-- Node23&#45;&gt;Node8 -->
<g id="edge35" class="edge">
<title>Node23&#45;&gt;Node8</title>
<path fill="none" stroke="midnightblue" d="M530.27,-174.25C526.19,-166.62 520.39,-155.79 515.43,-146.53"/>
<polygon fill="midnightblue" stroke="midnightblue" points="518.47,-144.8 510.67,-137.64 512.3,-148.11 518.47,-144.8"/>
</g>
<!-- Node24&#45;&gt;Node8 -->
<g id="edge38" class="edge">
<title>Node24&#45;&gt;Node8</title>
<path fill="none" stroke="midnightblue" d="M371.67,-294.37C325.48,-286.34 261.44,-268.34 284.5,-232 295.35,-214.91 412.97,-165.45 472.05,-141.42"/>
<polygon fill="midnightblue" stroke="midnightblue" points="473.73,-144.52 481.68,-137.52 471.1,-138.03 473.73,-144.52"/>
</g>
<!-- Node24&#45;&gt;Node9 -->
<g id="edge37" class="edge">
<title>Node24&#45;&gt;Node9</title>
<path fill="none" stroke="midnightblue" d="M371.92,-292.73C290.22,-277.56 119.5,-239.47 119.5,-186 119.5,-186 119.5,-186 119.5,-126 119.5,-69.06 188.48,-37.19 233.8,-22.39"/>
<polygon fill="midnightblue" stroke="midnightblue" points="234.86,-25.73 243.36,-19.41 232.77,-19.05 234.86,-25.73"/>
</g>
<!-- Node24&#45;&gt;Node21 -->
<g id="edge40" class="edge">
<title>Node24&#45;&gt;Node21</title>
<path fill="none" stroke="midnightblue" d="M439.08,-290.37C462.45,-281.22 497.79,-267.38 523.78,-257.21"/>
<polygon fill="midnightblue" stroke="midnightblue" points="525.2,-260.41 533.24,-253.5 522.65,-253.89 525.2,-260.41"/>
</g>
<!-- Node24&#45;&gt;Node23 -->
<g id="edge39" class="edge">
<title>Node24&#45;&gt;Node23</title>
<path fill="none" stroke="midnightblue" d="M424.82,-290.28C445.44,-270.85 491.99,-226.99 517.67,-202.8"/>
<polygon fill="midnightblue" stroke="midnightblue" points="520.33,-205.1 525.21,-195.69 515.53,-200 520.33,-205.1"/>
</g>
<!-- Node25 -->
<g id="node24" class="node">
<title>Node25</title>
<g id="a_node24"><a xlink:href="../../d1/d6a/_sd_spi_driver_8h.html" target="_top" xlink:title="SpiDriver classes.">
<polygon fill="white" stroke="red" points="293.5,-232.5 293.5,-253.5 445.5,-253.5 445.5,-232.5 293.5,-232.5"/>
<text text-anchor="middle" x="369.5" y="-239.9" font-family="Helvetica,sans-Serif" font-size="12.00">../SpiDriver/SdSpiDriver.h</text>
</a>
</g>
</g>
<!-- Node24&#45;&gt;Node25 -->
<g id="edge41" class="edge">
<title>Node24&#45;&gt;Node25</title>
<path fill="none" stroke="midnightblue" d="M406.66,-290.25C400.34,-282.38 391.28,-271.1 383.69,-261.65"/>
<polygon fill="midnightblue" stroke="midnightblue" points="386.24,-259.25 377.25,-253.64 380.78,-263.63 386.24,-259.25"/>
</g>
<!-- Node25&#45;&gt;Node8 -->
<g id="edge42" class="edge">
<title>Node25&#45;&gt;Node8</title>
<path fill="none" stroke="midnightblue" d="M381.1,-232.28C404.48,-212.68 457.51,-168.23 486.2,-144.18"/>
<polygon fill="midnightblue" stroke="midnightblue" points="488.52,-146.8 493.93,-137.69 484.02,-141.44 488.52,-146.8"/>
</g>
<!-- Node29&#45;&gt;Node8 -->
<g id="edge44" class="edge">
<title>Node29&#45;&gt;Node8</title>
<path fill="none" stroke="midnightblue" d="M481.91,-464.44C389.11,-448.67 227.5,-413.52 227.5,-360 227.5,-360 227.5,-360 227.5,-300 227.5,-262.09 309.13,-191.98 342.5,-174 380.62,-153.46 428.82,-141.33 462.89,-134.73"/>
<polygon fill="midnightblue" stroke="midnightblue" points="463.79,-138.12 472.99,-132.85 462.51,-131.24 463.79,-138.12"/>
</g>
<!-- Node29&#45;&gt;Node18 -->
<g id="edge45" class="edge">
<title>Node29&#45;&gt;Node18</title>
<path fill="none" stroke="midnightblue" d="M546.55,-464.25C547.33,-456.94 548.43,-446.69 549.39,-437.7"/>
<polygon fill="midnightblue" stroke="midnightblue" points="552.88,-437.96 550.47,-427.64 545.92,-437.21 552.88,-437.96"/>
</g>
<!-- Node30&#45;&gt;Node6 -->
<g id="edge48" class="edge">
<title>Node30&#45;&gt;Node6</title>
<path fill="none" stroke="midnightblue" d="M422.46,-58.37C447.24,-49.18 484.77,-35.26 512.25,-25.07"/>
<polygon fill="midnightblue" stroke="midnightblue" points="513.72,-28.26 521.88,-21.5 511.29,-21.7 513.72,-28.26"/>
</g>
<!-- Node30&#45;&gt;Node9 -->
<g id="edge47" class="edge">
<title>Node30&#45;&gt;Node9</title>
<path fill="none" stroke="midnightblue" d="M375.18,-58.37C355.28,-49.38 325.36,-35.87 302.94,-25.75"/>
<polygon fill="midnightblue" stroke="midnightblue" points="304.09,-22.43 293.54,-21.5 301.21,-28.81 304.09,-22.43"/>
</g>
<!-- Node31&#45;&gt;Node10 -->
<g id="edge50" class="edge">
<title>Node31&#45;&gt;Node10</title>
<path fill="none" stroke="midnightblue" d="M794.81,-464.26C804.83,-444.97 825.5,-400.26 825.5,-360 825.5,-360 825.5,-360 825.5,-300 825.5,-216.53 892.81,-216.74 920.5,-138 926.01,-122.35 928.48,-103.63 929.59,-89.8"/>
<polygon fill="midnightblue" stroke="midnightblue" points="933.11,-89.71 930.24,-79.51 926.12,-89.27 933.11,-89.71"/>
</g>
<!-- Node32&#45;&gt;Node10 -->
<g id="edge52" class="edge">
<title>Node32&#45;&gt;Node10</title>
<path fill="none" stroke="midnightblue" d="M1105.8,-406.37C1112.16,-386.91 1125.5,-341.37 1125.5,-302 1125.5,-302 1125.5,-302 1125.5,-184 1125.5,-119.26 1044.41,-90.61 986.81,-78.43"/>
<polygon fill="midnightblue" stroke="midnightblue" points="987.2,-74.94 976.71,-76.41 985.83,-81.8 987.2,-74.94"/>
</g>
</g>
</svg>
        <g id="navigator" transform="translate(0 0)" fill="#404254">
                <rect fill="#f2f5e9" fill-opacity="0.5" stroke="#606060" stroke-width=".5" x="0" y="0" width="60" height="60"/>
                <use id="zoomplus" xlink:href="#zoomPlus" x="17" y="9" onmousedown="handleZoom(evt,'in')"/>
                <use id="zoomminus" xlink:href="#zoomMin" x="42" y="9" onmousedown="handleZoom(evt,'out')"/>
                <use id="reset" xlink:href="#resetDef" x="30" y="36" onmousedown="handleReset()"/>
                <g id="arrowUp" xlink:href="#dirArrow" transform="translate(30 24)" onmousedown="handlePan(0,-1)">
                  <use xlink:href="#rim" fill="#404040">
                        <set attributeName="fill" to="#808080" begin="arrowUp.mouseover" end="arrowUp.mouseout"/>
                  </use>
                  <path fill="none" stroke="white" stroke-width="1.5" d="M0,-3.0v7 M-2.5,-0.5L0,-3.0L2.5,-0.5"/>
                </g>
                <g id="arrowRight" xlink:href="#dirArrow" transform="rotate(90) translate(36 -43)" onmousedown="handlePan(1,0)">
                  <use xlink:href="#rim" fill="#404040">
                        <set attributeName="fill" to="#808080" begin="arrowRight.mouseover" end="arrowRight.mouseout"/>
                  </use>
                  <path fill="none" stroke="white" stroke-width="1.5" d="M0,-3.0v7 M-2.5,-0.5L0,-3.0L2.5,-0.5"/>
                </g>
                <g id="arrowDown" xlink:href="#dirArrow" transform="rotate(180) translate(-30 -48)" onmousedown="handlePan(0,1)">
                  <use xlink:href="#rim" fill="#404040">
                        <set attributeName="fill" to="#808080" begin="arrowDown.mouseover" end="arrowDown.mouseout"/>
                  </use>
                  <path fill="none" stroke="white" stroke-width="1.5" d="M0,-3.0v7 M-2.5,-0.5L0,-3.0L2.5,-0.5"/>
                </g>
                <g id="arrowLeft" xlink:href="#dirArrow" transform="rotate(270) translate(-36 17)" onmousedown="handlePan(-1,0)">
                  <use xlink:href="#rim" fill="#404040">
                        <set attributeName="fill" to="#808080" begin="arrowLeft.mouseover" end="arrowLeft.mouseout"/>
                  </use>
                  <path fill="none" stroke="white" stroke-width="1.5" d="M0,-3.0v7 M-2.5,-0.5L0,-3.0L2.5,-0.5"/>
                </g>
        </g>
        <svg viewBox="0 0 15 15" width="100%" height="30px" preserveAspectRatio="xMaxYMin meet">
         <g id="arrow_out" transform="scale(0.3 0.3)">
          <a xlink:href="_ex_fat_volume_8h__incl_org.svg" target="_base">
           <rect id="button" ry="5" rx="5" y="6" x="6" height="38" width="38"
                fill="#f2f5e9" fill-opacity="0.5" stroke="#606060" stroke-width="1.0"/>
           <path id="arrow"
             d="M 11.500037,31.436501 C 11.940474,20.09759 22.043105,11.32322 32.158766,21.979434 L 37.068811,17.246167 C 37.068811,17.246167 37.088388,32 37.088388,32 L 22.160133,31.978069 C 22.160133,31.978069 26.997745,27.140456 26.997745,27.140456 C 18.528582,18.264221 13.291696,25.230495 11.500037,31.436501 z"
             style="fill:#404040;"/>
          </a>
         </g>
        </svg>
</svg>
