<?xml version="1.0" encoding="UTF-8" standalone="no"?>
<!DOCTYPE svg PUBLIC "-//W3C//DTD SVG 1.1//EN"
 "http://www.w3.org/Graphics/SVG/1.1/DTD/svg11.dtd">
<!-- Generated by graphviz version 2.47.3 (20210619.1520)
 -->
<!-- Title: validateInt Pages: 1 -->
<svg width="210pt" height="70pt"
 viewBox="0.00 0.00 210.00 70.00" xmlns="http://www.w3.org/2000/svg" xmlns:xlink="http://www.w3.org/1999/xlink">
<g id="graph0" class="graph" transform="scale(1 1) rotate(0) translate(4 66)">
<title>validateInt</title>
<polygon fill="white" stroke="transparent" points="-4,4 -4,-66 206,-66 206,4 -4,4"/>
<!-- Node1 -->
<g id="node1" class="node">
<title>Node1</title>
<g id="a_node1"><a xlink:title=" ">
<polygon fill="#bfbfbf" stroke="black" points="0,-20.5 0,-41.5 68,-41.5 68,-20.5 0,-20.5"/>
<text text-anchor="middle" x="34" y="-27.9" font-family="Helvetica,sans-Serif" font-size="12.00">validateInt</text>
</a>
</g>
</g>
<!-- Node2 -->
<g id="node2" class="node">
<title>Node2</title>
<g id="a_node2"><a xlink:href="../../d9/def/wren__primitive_8c.html#a9701be129239386f23ba6c2e5520ec56" target="_top" xlink:title=" ">
<polygon fill="white" stroke="black" points="104,-40.5 104,-61.5 202,-61.5 202,-40.5 104,-40.5"/>
<text text-anchor="middle" x="153" y="-47.9" font-family="Helvetica,sans-Serif" font-size="12.00">validateIntValue</text>
</a>
</g>
</g>
<!-- Node1&#45;&gt;Node2 -->
<g id="edge1" class="edge">
<title>Node1&#45;&gt;Node2</title>
<path fill="none" stroke="midnightblue" d="M68.21,-36.68C76.26,-38.05 85.11,-39.57 93.93,-41.07"/>
<polygon fill="midnightblue" stroke="midnightblue" points="93.41,-44.53 103.85,-42.77 94.59,-37.63 93.41,-44.53"/>
</g>
<!-- Node3 -->
<g id="node3" class="node">
<title>Node3</title>
<g id="a_node3"><a xlink:href="../../d9/def/wren__primitive_8c.html#a974add9543a61f5a9b7a75acfcdd1115" target="_top" xlink:title=" ">
<polygon fill="white" stroke="black" points="112.5,-0.5 112.5,-21.5 193.5,-21.5 193.5,-0.5 112.5,-0.5"/>
<text text-anchor="middle" x="153" y="-7.9" font-family="Helvetica,sans-Serif" font-size="12.00">validateNum</text>
</a>
</g>
</g>
<!-- Node1&#45;&gt;Node3 -->
<g id="edge2" class="edge">
<title>Node1&#45;&gt;Node3</title>
<path fill="none" stroke="midnightblue" d="M68.21,-25.32C78.87,-23.5 90.92,-21.44 102.49,-19.46"/>
<polygon fill="midnightblue" stroke="midnightblue" points="103.21,-22.89 112.48,-17.76 102.03,-15.99 103.21,-22.89"/>
</g>
</g>
</svg>
