<?xml version="1.0" encoding="UTF-8" standalone="no"?>
<!DOCTYPE svg PUBLIC "-//W3C//DTD SVG 1.1//EN"
 "http://www.w3.org/Graphics/SVG/1.1/DTD/svg11.dtd">
<!-- Generated by graphviz version 2.47.3 (20210619.1520)
 -->
<!-- Title: FatPartition::cacheAddress Pages: 1 -->
<!--zoomable 446 -->
<svg id="main" version="1.1" xmlns="http://www.w3.org/2000/svg" xmlns:xlink="http://www.w3.org/1999/xlink" xml:space="preserve" onload="init(evt)">
<style type="text/css"><![CDATA[
.edge:hover path { stroke: red; }
.edge:hover polygon { stroke: red; fill: red; }
]]></style>
<script type="text/javascript"><![CDATA[
var edges = document.getElementsByTagName('g');
if (edges && edges.length) {
  for (var i=0;i<edges.length;i++) {
    if (edges[i].id.substr(0,4)=='edge') {
      edges[i].setAttribute('class','edge');
    }
  }
}
]]></script>
        <defs>
                <circle id="rim" cx="0" cy="0" r="7"/>
                <circle id="rim2" cx="0" cy="0" r="3.5"/>
                <g id="zoomPlus">
                        <use xlink:href="#rim" fill="#404040">
                                <set attributeName="fill" to="#808080" begin="zoomplus.mouseover" end="zoomplus.mouseout"/>
                        </use>
                        <path d="M-4,0h8M0,-4v8" fill="none" stroke="white" stroke-width="1.5" pointer-events="none"/>
                </g>
                <g id="zoomMin">
                        <use xlink:href="#rim" fill="#404040">
                                <set attributeName="fill" to="#808080" begin="zoomminus.mouseover" end="zoomminus.mouseout"/>
                        </use>
                        <path d="M-4,0h8" fill="none" stroke="white" stroke-width="1.5" pointer-events="none"/>
                </g>
                <g id="dirArrow">
                        <path fill="none" stroke="white" stroke-width="1.5" d="M0,-3.0v7 M-2.5,-0.5L0,-3.0L2.5,-0.5"/>
                </g>
               <g id="resetDef">
                       <use xlink:href="#rim2" fill="#404040">
                               <set attributeName="fill" to="#808080" begin="reset.mouseover" end="reset.mouseout"/>
                       </use>
               </g>
        </defs>

<script type="text/javascript">
var viewWidth = 1122;
var viewHeight = 446;
var sectionId = 'dynsection-11';
</script>
<script xlink:href="../../svgpan.js"/>
<svg id="graph" class="graph">
<g id="viewport">
<title>FatPartition::cacheAddress</title>
<polygon fill="white" stroke="transparent" points="-4,4 -4,-442 1118,-442 1118,4 -4,4"/>
<!-- Node1 -->
<g id="node1" class="node">
<title>Node1</title>
<g id="a_node1"><a xlink:title=" ">
<polygon fill="#bfbfbf" stroke="black" points="955,-258.5 955,-279.5 1114,-279.5 1114,-258.5 955,-258.5"/>
<text text-anchor="middle" x="1034.5" y="-265.9" font-family="Helvetica,sans-Serif" font-size="12.00">FatPartition::cacheAddress</text>
</a>
</g>
</g>
<!-- Node2 -->
<g id="node2" class="node">
<title>Node2</title>
<g id="a_node2"><a xlink:href="../../d3/d51/class_fat_file.html#ad39f3c4d83135ad181c58306b23df0aa" target="_top" xlink:title=" ">
<polygon fill="white" stroke="black" points="766,-298.5 766,-319.5 919,-319.5 919,-298.5 766,-298.5"/>
<text text-anchor="middle" x="842.5" y="-305.9" font-family="Helvetica,sans-Serif" font-size="12.00">FatFile::openCachedEntry</text>
</a>
</g>
</g>
<!-- Node1&#45;&gt;Node2 -->
<g id="edge1" class="edge">
<title>Node1&#45;&gt;Node2</title>
<path fill="none" stroke="midnightblue" d="M973.55,-281.62C947.76,-287.05 917.97,-293.32 893.42,-298.49"/>
<polygon fill="midnightblue" stroke="midnightblue" points="974.52,-284.99 983.58,-279.51 973.07,-278.14 974.52,-284.99"/>
</g>
<!-- Node11 -->
<g id="node11" class="node">
<title>Node11</title>
<g id="a_node11"><a xlink:href="../../d3/d51/class_fat_file.html#a07d137a7ff48af119d039d1e7ab8337a" target="_top" xlink:title=" ">
<polygon fill="white" stroke="black" points="775.5,-238.5 775.5,-259.5 909.5,-259.5 909.5,-238.5 775.5,-238.5"/>
<text text-anchor="middle" x="842.5" y="-245.9" font-family="Helvetica,sans-Serif" font-size="12.00">FatFile::readDirCache</text>
</a>
</g>
</g>
<!-- Node1&#45;&gt;Node11 -->
<g id="edge11" class="edge">
<title>Node1&#45;&gt;Node11</title>
<path fill="none" stroke="midnightblue" d="M944.58,-259.64C932.84,-258.4 920.97,-257.15 909.7,-255.97"/>
<polygon fill="midnightblue" stroke="midnightblue" points="944.54,-263.15 954.85,-260.72 945.27,-256.19 944.54,-263.15"/>
</g>
<!-- Node3 -->
<g id="node3" class="node">
<title>Node3</title>
<g id="a_node3"><a xlink:href="../../d3/d51/class_fat_file.html#aefd095e898758e6008f33cca17e92b72" target="_top" xlink:title=" ">
<polygon fill="white" stroke="black" points="632.5,-338.5 632.5,-359.5 718.5,-359.5 718.5,-338.5 632.5,-338.5"/>
<text text-anchor="middle" x="675.5" y="-345.9" font-family="Helvetica,sans-Serif" font-size="12.00">FatFile::open</text>
</a>
</g>
</g>
<!-- Node2&#45;&gt;Node3 -->
<g id="edge2" class="edge">
<title>Node2&#45;&gt;Node3</title>
<path fill="none" stroke="midnightblue" d="M788.38,-321.88C765.84,-327.34 739.92,-333.63 718.71,-338.77"/>
<polygon fill="midnightblue" stroke="midnightblue" points="789.25,-325.27 798.15,-319.51 787.61,-318.46 789.25,-325.27"/>
</g>
<!-- Node4 -->
<g id="node4" class="node">
<title>Node4</title>
<g id="a_node4"><a xlink:href="../../d3/d51/class_fat_file.html#acda9b1bf547d43e183e657bee053a48d" target="_top" xlink:title=" ">
<polygon fill="white" stroke="black" points="621,-298.5 621,-319.5 730,-319.5 730,-298.5 621,-298.5"/>
<text text-anchor="middle" x="675.5" y="-305.9" font-family="Helvetica,sans-Serif" font-size="12.00">FatFile::openNext</text>
</a>
</g>
</g>
<!-- Node2&#45;&gt;Node4 -->
<g id="edge3" class="edge">
<title>Node2&#45;&gt;Node4</title>
<path fill="none" stroke="midnightblue" d="M755.59,-309C746.92,-309 738.31,-309 730.12,-309"/>
<polygon fill="midnightblue" stroke="midnightblue" points="755.76,-312.5 765.76,-309 755.76,-305.5 755.76,-312.5"/>
</g>
<!-- Node5 -->
<g id="node5" class="node">
<title>Node5</title>
<g id="a_node5"><a xlink:href="../../d3/d51/class_fat_file.html#a60ab9d16bcc778150a364c26de467de1" target="_top" xlink:title=" ">
<polygon fill="white" stroke="black" points="155.5,-317.5 155.5,-338.5 223.5,-338.5 223.5,-317.5 155.5,-317.5"/>
<text text-anchor="middle" x="189.5" y="-324.9" font-family="Helvetica,sans-Serif" font-size="12.00">FatFile::ls</text>
</a>
</g>
</g>
<!-- Node4&#45;&gt;Node5 -->
<g id="edge4" class="edge">
<title>Node4&#45;&gt;Node5</title>
<path fill="none" stroke="midnightblue" d="M629.59,-323.9C626.6,-325.46 623.7,-327.16 621,-329 601.23,-342.46 606.85,-359.27 585,-369 465.64,-422.16 419.22,-394.15 291,-369 261.41,-363.2 229.55,-348.63 209.82,-338.52"/>
<polygon fill="midnightblue" stroke="midnightblue" points="631.19,-327.01 638.77,-319.61 628.23,-320.67 631.19,-327.01"/>
</g>
<!-- Node7 -->
<g id="node7" class="node">
<title>Node7</title>
<g id="a_node7"><a xlink:href="../../d3/d51/class_fat_file.html#ab44920bb9cd5414b8e69c9dc4343394a" target="_top" xlink:title=" ">
<polygon fill="white" stroke="black" points="475.5,-298.5 475.5,-319.5 561.5,-319.5 561.5,-298.5 475.5,-298.5"/>
<text text-anchor="middle" x="518.5" y="-305.9" font-family="Helvetica,sans-Serif" font-size="12.00">FatFile::open</text>
</a>
</g>
</g>
<!-- Node4&#45;&gt;Node7 -->
<g id="edge7" class="edge">
<title>Node4&#45;&gt;Node7</title>
<path fill="none" stroke="midnightblue" d="M610.64,-309C594.23,-309 576.97,-309 561.95,-309"/>
<polygon fill="midnightblue" stroke="midnightblue" points="610.72,-312.5 620.72,-309 610.72,-305.5 610.72,-312.5"/>
</g>
<!-- Node8 -->
<g id="node8" class="node">
<title>Node8</title>
<g id="a_node8"><a xlink:href="../../d7/d76/class_fs_base_file.html#acb9b1075f4db76fa7e0521c9aff9c3df" target="_top" xlink:title=" ">
<polygon fill="white" stroke="black" points="452,-338.5 452,-359.5 585,-359.5 585,-338.5 452,-338.5"/>
<text text-anchor="middle" x="518.5" y="-345.9" font-family="Helvetica,sans-Serif" font-size="12.00">FsBaseFile::openNext</text>
</a>
</g>
</g>
<!-- Node4&#45;&gt;Node8 -->
<g id="edge8" class="edge">
<title>Node4&#45;&gt;Node8</title>
<path fill="none" stroke="midnightblue" d="M623.91,-322.06C603.27,-327.38 579.72,-333.46 560.22,-338.49"/>
<polygon fill="midnightblue" stroke="midnightblue" points="624.97,-325.4 633.78,-319.51 623.22,-318.62 624.97,-325.4"/>
</g>
<!-- Node10 -->
<g id="node10" class="node">
<title>Node10</title>
<g id="a_node10"><a xlink:href="../../df/dfc/class_file32.html#adc01f4a1ebc44ef36f3ffb8295c8d779" target="_top" xlink:title=" ">
<polygon fill="white" stroke="black" points="456,-416.5 456,-437.5 581,-437.5 581,-416.5 456,-416.5"/>
<text text-anchor="middle" x="518.5" y="-423.9" font-family="Helvetica,sans-Serif" font-size="12.00">File32::openNextFile</text>
</a>
</g>
</g>
<!-- Node4&#45;&gt;Node10 -->
<g id="edge10" class="edge">
<title>Node4&#45;&gt;Node10</title>
<path fill="none" stroke="midnightblue" d="M626.46,-324.72C624.54,-326.03 622.7,-327.46 621,-329 594.17,-353.26 611.75,-377.64 585,-402 578.25,-408.15 569.83,-412.84 561.31,-416.4"/>
<polygon fill="midnightblue" stroke="midnightblue" points="628.45,-327.61 635.38,-319.59 624.96,-321.54 628.45,-327.61"/>
</g>
<!-- Node5&#45;&gt;Node5 -->
<g id="edge6" class="edge">
<title>Node5&#45;&gt;Node5</title>
<path fill="none" stroke="midnightblue" d="M216.18,-348.06C214.43,-353.16 205.54,-357 189.5,-357 164.47,-357 156.84,-347.65 166.62,-338.71"/>
<polygon fill="midnightblue" stroke="midnightblue" points="219.39,-346.65 212.38,-338.71 212.9,-349.29 219.39,-346.65"/>
</g>
<!-- Node6 -->
<g id="node6" class="node">
<title>Node6</title>
<g id="a_node6"><a xlink:href="../../d9/d27/class_fat_volume.html#ae40964f357cfff4208812344a0e6f26f" target="_top" xlink:title=" ">
<polygon fill="white" stroke="black" points="0,-317.5 0,-338.5 88,-338.5 88,-317.5 0,-317.5"/>
<text text-anchor="middle" x="44" y="-324.9" font-family="Helvetica,sans-Serif" font-size="12.00">FatVolume::ls</text>
</a>
</g>
</g>
<!-- Node5&#45;&gt;Node6 -->
<g id="edge5" class="edge">
<title>Node5&#45;&gt;Node6</title>
<path fill="none" stroke="midnightblue" d="M144.98,-328C126.98,-328 106.15,-328 88.18,-328"/>
<polygon fill="midnightblue" stroke="midnightblue" points="145.22,-331.5 155.22,-328 145.22,-324.5 145.22,-331.5"/>
</g>
<!-- Node9 -->
<g id="node9" class="node">
<title>Node9</title>
<g id="a_node9"><a xlink:href="../../d4/da1/class_fs_file.html#ab2f85961e3831d0d654da862becb7433" target="_top" xlink:title=" ">
<polygon fill="white" stroke="black" points="291,-338.5 291,-359.5 416,-359.5 416,-338.5 291,-338.5"/>
<text text-anchor="middle" x="353.5" y="-345.9" font-family="Helvetica,sans-Serif" font-size="12.00">FsFile::openNextFile</text>
</a>
</g>
</g>
<!-- Node8&#45;&gt;Node9 -->
<g id="edge9" class="edge">
<title>Node8&#45;&gt;Node9</title>
<path fill="none" stroke="midnightblue" d="M441.39,-349C432.91,-349 424.36,-349 416.09,-349"/>
<polygon fill="midnightblue" stroke="midnightblue" points="441.67,-352.5 451.67,-349 441.67,-345.5 441.67,-352.5"/>
</g>
<!-- Node11&#45;&gt;Node3 -->
<g id="edge24" class="edge">
<title>Node11&#45;&gt;Node3</title>
<path fill="none" stroke="midnightblue" d="M807.36,-263.91C793.83,-270.61 778.54,-279.21 766,-289 747.14,-303.71 749.77,-315.54 730,-329 724.59,-332.68 718.41,-335.8 712.23,-338.39"/>
<polygon fill="midnightblue" stroke="midnightblue" points="808.88,-267.06 816.38,-259.58 805.85,-260.75 808.88,-267.06"/>
</g>
<!-- Node11&#45;&gt;Node4 -->
<g id="edge25" class="edge">
<title>Node11&#45;&gt;Node4</title>
<path fill="none" stroke="midnightblue" d="M802.74,-263.09C773.01,-273.91 732.61,-288.59 705.6,-298.42"/>
<polygon fill="midnightblue" stroke="midnightblue" points="804.18,-266.3 812.38,-259.59 801.79,-259.72 804.18,-266.3"/>
</g>
<!-- Node12 -->
<g id="node12" class="node">
<title>Node12</title>
<g id="a_node12"><a xlink:href="../../d3/d51/class_fat_file.html#a1edf82f8818d33a8f29cf623e80f3aee" target="_top" xlink:title=" ">
<polygon fill="white" stroke="black" points="622,-228.5 622,-249.5 729,-249.5 729,-228.5 622,-228.5"/>
<text text-anchor="middle" x="675.5" y="-235.9" font-family="Helvetica,sans-Serif" font-size="12.00">FatFile::cacheDir</text>
</a>
</g>
</g>
<!-- Node11&#45;&gt;Node12 -->
<g id="edge12" class="edge">
<title>Node11&#45;&gt;Node12</title>
<path fill="none" stroke="midnightblue" d="M765.19,-244.38C753.03,-243.64 740.68,-242.89 729.23,-242.2"/>
<polygon fill="midnightblue" stroke="midnightblue" points="765.15,-247.88 775.34,-244.99 765.57,-240.89 765.15,-247.88"/>
</g>
<!-- Node20 -->
<g id="node20" class="node">
<title>Node20</title>
<g id="a_node20"><a xlink:href="../../d3/d51/class_fat_file.html#a9515bac181d33e7f0125e88fa2ccd283" target="_top" xlink:title=" ">
<polygon fill="white" stroke="black" points="632.5,-60.5 632.5,-81.5 718.5,-81.5 718.5,-60.5 632.5,-60.5"/>
<text text-anchor="middle" x="675.5" y="-67.9" font-family="Helvetica,sans-Serif" font-size="12.00">FatFile::rmdir</text>
</a>
</g>
</g>
<!-- Node11&#45;&gt;Node20 -->
<g id="edge26" class="edge">
<title>Node11&#45;&gt;Node20</title>
<path fill="none" stroke="midnightblue" d="M824.69,-230.86C790.52,-194.01 713.89,-111.34 686.48,-81.77"/>
<polygon fill="midnightblue" stroke="midnightblue" points="822.31,-233.44 831.67,-238.4 827.44,-228.69 822.31,-233.44"/>
</g>
<!-- Node23 -->
<g id="node23" class="node">
<title>Node23</title>
<g id="a_node23"><a xlink:href="../../d3/d51/class_fat_file.html#ac780a80526f86d3def701ecdc99d8bfe" target="_top" xlink:title=" ">
<polygon fill="white" stroke="black" points="465.5,-80.5 465.5,-101.5 571.5,-101.5 571.5,-80.5 465.5,-80.5"/>
<text text-anchor="middle" x="518.5" y="-87.9" font-family="Helvetica,sans-Serif" font-size="12.00">FatFile::rmRfStar</text>
</a>
</g>
</g>
<!-- Node11&#45;&gt;Node23 -->
<g id="edge31" class="edge">
<title>Node11&#45;&gt;Node23</title>
<path fill="none" stroke="midnightblue" d="M810.57,-233.82C745.67,-201.98 596.72,-128.89 541.03,-101.57"/>
<polygon fill="midnightblue" stroke="midnightblue" points="809.35,-237.12 819.87,-238.39 812.44,-230.84 809.35,-237.12"/>
</g>
<!-- Node12&#45;&gt;Node7 -->
<g id="edge18" class="edge">
<title>Node12&#45;&gt;Node7</title>
<path fill="none" stroke="midnightblue" d="M649.37,-254.95C631.82,-265.6 607.59,-279.37 585,-289 576.69,-292.54 567.54,-295.75 558.78,-298.5"/>
<polygon fill="midnightblue" stroke="midnightblue" points="651.21,-257.92 657.89,-249.7 647.54,-251.96 651.21,-257.92"/>
</g>
<!-- Node13 -->
<g id="node13" class="node">
<title>Node13</title>
<g id="a_node13"><a xlink:href="../../d3/d51/class_fat_file.html#abf906ba7948cf1331d80e530bacea489" target="_top" xlink:title=" ">
<polygon fill="white" stroke="black" points="461.5,-138.5 461.5,-159.5 575.5,-159.5 575.5,-138.5 461.5,-138.5"/>
<text text-anchor="middle" x="518.5" y="-145.9" font-family="Helvetica,sans-Serif" font-size="12.00">FatFile::getName7</text>
</a>
</g>
</g>
<!-- Node12&#45;&gt;Node13 -->
<g id="edge13" class="edge">
<title>Node12&#45;&gt;Node13</title>
<path fill="none" stroke="midnightblue" d="M656.26,-221.41C639.1,-205.71 612.07,-183.09 585,-169 577.93,-165.32 570.08,-162.2 562.34,-159.59"/>
<polygon fill="midnightblue" stroke="midnightblue" points="654.15,-224.23 663.85,-228.49 658.92,-219.11 654.15,-224.23"/>
</g>
<!-- Node16 -->
<g id="node16" class="node">
<title>Node16</title>
<g id="a_node16"><a xlink:href="../../d3/d51/class_fat_file.html#a2369692e7bc19a68ac106fd7499a2910" target="_top" xlink:title=" ">
<polygon fill="white" stroke="black" points="461.5,-178.5 461.5,-199.5 575.5,-199.5 575.5,-178.5 461.5,-178.5"/>
<text text-anchor="middle" x="518.5" y="-185.9" font-family="Helvetica,sans-Serif" font-size="12.00">FatFile::getName8</text>
</a>
</g>
</g>
<!-- Node12&#45;&gt;Node16 -->
<g id="edge16" class="edge">
<title>Node12&#45;&gt;Node16</title>
<path fill="none" stroke="midnightblue" d="M633.83,-225.11C618.55,-219.96 601,-214.12 585,-209 575.15,-205.85 564.43,-202.53 554.57,-199.52"/>
<polygon fill="midnightblue" stroke="midnightblue" points="632.91,-228.49 643.5,-228.38 635.15,-221.86 632.91,-228.49"/>
</g>
<!-- Node17 -->
<g id="node17" class="node">
<title>Node17</title>
<g id="a_node17"><a xlink:href="../../d3/d51/class_fat_file.html#a35dedc90d44758d10d967785dc14da2b" target="_top" xlink:title=" ">
<polygon fill="white" stroke="black" points="458.5,-258.5 458.5,-279.5 578.5,-279.5 578.5,-258.5 458.5,-258.5"/>
<text text-anchor="middle" x="518.5" y="-265.9" font-family="Helvetica,sans-Serif" font-size="12.00">FatFile::printName7</text>
</a>
</g>
</g>
<!-- Node12&#45;&gt;Node17 -->
<g id="edge19" class="edge">
<title>Node12&#45;&gt;Node17</title>
<path fill="none" stroke="midnightblue" d="M611.66,-251.16C599.09,-253.59 586,-256.13 573.75,-258.5"/>
<polygon fill="midnightblue" stroke="midnightblue" points="612.44,-254.58 621.59,-249.24 611.11,-247.7 612.44,-254.58"/>
</g>
<!-- Node19 -->
<g id="node19" class="node">
<title>Node19</title>
<g id="a_node19"><a xlink:href="../../d3/d51/class_fat_file.html#a508c86ed62a34a920574dd270dc64322" target="_top" xlink:title=" ">
<polygon fill="white" stroke="black" points="458.5,-218.5 458.5,-239.5 578.5,-239.5 578.5,-218.5 458.5,-218.5"/>
<text text-anchor="middle" x="518.5" y="-225.9" font-family="Helvetica,sans-Serif" font-size="12.00">FatFile::printName8</text>
</a>
</g>
</g>
<!-- Node12&#45;&gt;Node19 -->
<g id="edge22" class="edge">
<title>Node12&#45;&gt;Node19</title>
<path fill="none" stroke="midnightblue" d="M611.35,-234.93C600.51,-234.23 589.28,-233.5 578.55,-232.81"/>
<polygon fill="midnightblue" stroke="midnightblue" points="611.39,-238.44 621.59,-235.59 611.84,-231.45 611.39,-238.44"/>
</g>
<!-- Node14 -->
<g id="node14" class="node">
<title>Node14</title>
<g id="a_node14"><a xlink:href="../../d3/d51/class_fat_file.html#a0313d518970d1438d5cad721720cc109" target="_top" xlink:title=" ">
<polygon fill="white" stroke="black" points="300,-158.5 300,-179.5 407,-179.5 407,-158.5 300,-158.5"/>
<text text-anchor="middle" x="353.5" y="-165.9" font-family="Helvetica,sans-Serif" font-size="12.00">FatFile::getName</text>
</a>
</g>
</g>
<!-- Node13&#45;&gt;Node14 -->
<g id="edge14" class="edge">
<title>Node13&#45;&gt;Node14</title>
<path fill="none" stroke="midnightblue" d="M451.35,-157.12C436.63,-158.92 421.22,-160.81 407.13,-162.54"/>
<polygon fill="midnightblue" stroke="midnightblue" points="451.91,-160.57 461.4,-155.88 451.05,-153.63 451.91,-160.57"/>
</g>
<!-- Node15 -->
<g id="node15" class="node">
<title>Node15</title>
<g id="a_node15"><a xlink:href="../../d7/d76/class_fs_base_file.html#ad2099dbe6bb8f61e1bf933d8e97b2d86" target="_top" xlink:title=" ">
<polygon fill="white" stroke="black" points="124,-158.5 124,-179.5 255,-179.5 255,-158.5 124,-158.5"/>
<text text-anchor="middle" x="189.5" y="-165.9" font-family="Helvetica,sans-Serif" font-size="12.00">FsBaseFile::getName</text>
</a>
</g>
</g>
<!-- Node14&#45;&gt;Node15 -->
<g id="edge15" class="edge">
<title>Node14&#45;&gt;Node15</title>
<path fill="none" stroke="midnightblue" d="M289.64,-169C278.28,-169 266.41,-169 255.01,-169"/>
<polygon fill="midnightblue" stroke="midnightblue" points="289.9,-172.5 299.9,-169 289.9,-165.5 289.9,-172.5"/>
</g>
<!-- Node16&#45;&gt;Node14 -->
<g id="edge17" class="edge">
<title>Node16&#45;&gt;Node14</title>
<path fill="none" stroke="midnightblue" d="M451.35,-180.88C436.63,-179.08 421.22,-177.19 407.13,-175.46"/>
<polygon fill="midnightblue" stroke="midnightblue" points="451.05,-184.37 461.4,-182.12 451.91,-177.43 451.05,-184.37"/>
</g>
<!-- Node18 -->
<g id="node18" class="node">
<title>Node18</title>
<g id="a_node18"><a xlink:href="../../d3/d51/class_fat_file.html#afe18a787fb8640e2d2483370c770f82f" target="_top" xlink:title=" ">
<polygon fill="white" stroke="black" points="297,-258.5 297,-279.5 410,-279.5 410,-258.5 297,-258.5"/>
<text text-anchor="middle" x="353.5" y="-265.9" font-family="Helvetica,sans-Serif" font-size="12.00">FatFile::printName</text>
</a>
</g>
</g>
<!-- Node17&#45;&gt;Node18 -->
<g id="edge20" class="edge">
<title>Node17&#45;&gt;Node18</title>
<path fill="none" stroke="midnightblue" d="M448.15,-269C435.49,-269 422.43,-269 410.24,-269"/>
<polygon fill="midnightblue" stroke="midnightblue" points="448.19,-272.5 458.19,-269 448.19,-265.5 448.19,-272.5"/>
</g>
<!-- Node18&#45;&gt;Node5 -->
<g id="edge21" class="edge">
<title>Node18&#45;&gt;Node5</title>
<path fill="none" stroke="midnightblue" d="M314.12,-282.98C285.11,-293.54 245.9,-307.82 219.48,-317.44"/>
<polygon fill="midnightblue" stroke="midnightblue" points="315.34,-286.26 323.54,-279.55 312.94,-279.68 315.34,-286.26"/>
</g>
<!-- Node19&#45;&gt;Node18 -->
<g id="edge23" class="edge">
<title>Node19&#45;&gt;Node18</title>
<path fill="none" stroke="midnightblue" d="M464.89,-241.91C443.04,-247.27 418.02,-253.41 397.32,-258.49"/>
<polygon fill="midnightblue" stroke="midnightblue" points="465.8,-245.29 474.67,-239.51 464.13,-238.49 465.8,-245.29"/>
</g>
<!-- Node21 -->
<g id="node21" class="node">
<title>Node21</title>
<g id="a_node21"><a xlink:href="../../d7/d76/class_fs_base_file.html#ac47870fd89b0849cda33f2780918a286" target="_top" xlink:title=" ">
<polygon fill="white" stroke="black" points="463.5,-40.5 463.5,-61.5 573.5,-61.5 573.5,-40.5 463.5,-40.5"/>
<text text-anchor="middle" x="518.5" y="-47.9" font-family="Helvetica,sans-Serif" font-size="12.00">FsBaseFile::rmdir</text>
</a>
</g>
</g>
<!-- Node20&#45;&gt;Node21 -->
<g id="edge27" class="edge">
<title>Node20&#45;&gt;Node21</title>
<path fill="none" stroke="midnightblue" d="M622.15,-64.25C606.57,-62.23 589.46,-60.03 573.75,-58"/>
<polygon fill="midnightblue" stroke="midnightblue" points="621.78,-67.73 632.15,-65.53 622.68,-60.78 621.78,-67.73"/>
</g>
<!-- Node22 -->
<g id="node22" class="node">
<title>Node22</title>
<g id="a_node22"><a xlink:href="../../d9/d27/class_fat_volume.html#af1181990bcece7dbb7d19293dd4fe11a" target="_top" xlink:title=" ">
<polygon fill="white" stroke="black" points="465,-0.5 465,-21.5 572,-21.5 572,-0.5 465,-0.5"/>
<text text-anchor="middle" x="518.5" y="-7.9" font-family="Helvetica,sans-Serif" font-size="12.00">FatVolume::rmdir</text>
</a>
</g>
</g>
<!-- Node20&#45;&gt;Node22 -->
<g id="edge28" class="edge">
<title>Node20&#45;&gt;Node22</title>
<path fill="none" stroke="midnightblue" d="M643.3,-55.91C626.28,-47.97 604.72,-38.38 585,-31 575.98,-27.62 566.11,-24.38 556.83,-21.53"/>
<polygon fill="midnightblue" stroke="midnightblue" points="642.21,-59.27 652.75,-60.37 645.2,-52.94 642.21,-59.27"/>
</g>
<!-- Node20&#45;&gt;Node23 -->
<g id="edge29" class="edge">
<title>Node20&#45;&gt;Node23</title>
<path fill="none" stroke="midnightblue" d="M621.8,-77.8C605.64,-79.88 587.88,-82.18 571.76,-84.26"/>
<polygon fill="midnightblue" stroke="midnightblue" points="622.68,-81.22 632.15,-76.47 621.78,-74.27 622.68,-81.22"/>
</g>
<!-- Node23&#45;&gt;Node23 -->
<g id="edge30" class="edge">
<title>Node23&#45;&gt;Node23</title>
<path fill="none" stroke="midnightblue" d="M547.4,-111.06C545.51,-116.16 535.87,-120 518.5,-120 491.38,-120 483.12,-110.65 493.71,-101.71"/>
<polygon fill="midnightblue" stroke="midnightblue" points="550.52,-109.45 543.29,-101.71 544.11,-112.27 550.52,-109.45"/>
</g>
</g>
</svg>
        <g id="navigator" transform="translate(0 0)" fill="#404254">
                <rect fill="#f2f5e9" fill-opacity="0.5" stroke="#606060" stroke-width=".5" x="0" y="0" width="60" height="60"/>
                <use id="zoomplus" xlink:href="#zoomPlus" x="17" y="9" onmousedown="handleZoom(evt,'in')"/>
                <use id="zoomminus" xlink:href="#zoomMin" x="42" y="9" onmousedown="handleZoom(evt,'out')"/>
                <use id="reset" xlink:href="#resetDef" x="30" y="36" onmousedown="handleReset()"/>
                <g id="arrowUp" xlink:href="#dirArrow" transform="translate(30 24)" onmousedown="handlePan(0,-1)">
                  <use xlink:href="#rim" fill="#404040">
                        <set attributeName="fill" to="#808080" begin="arrowUp.mouseover" end="arrowUp.mouseout"/>
                  </use>
                  <path fill="none" stroke="white" stroke-width="1.5" d="M0,-3.0v7 M-2.5,-0.5L0,-3.0L2.5,-0.5"/>
                </g>
                <g id="arrowRight" xlink:href="#dirArrow" transform="rotate(90) translate(36 -43)" onmousedown="handlePan(1,0)">
                  <use xlink:href="#rim" fill="#404040">
                        <set attributeName="fill" to="#808080" begin="arrowRight.mouseover" end="arrowRight.mouseout"/>
                  </use>
                  <path fill="none" stroke="white" stroke-width="1.5" d="M0,-3.0v7 M-2.5,-0.5L0,-3.0L2.5,-0.5"/>
                </g>
                <g id="arrowDown" xlink:href="#dirArrow" transform="rotate(180) translate(-30 -48)" onmousedown="handlePan(0,1)">
                  <use xlink:href="#rim" fill="#404040">
                        <set attributeName="fill" to="#808080" begin="arrowDown.mouseover" end="arrowDown.mouseout"/>
                  </use>
                  <path fill="none" stroke="white" stroke-width="1.5" d="M0,-3.0v7 M-2.5,-0.5L0,-3.0L2.5,-0.5"/>
                </g>
                <g id="arrowLeft" xlink:href="#dirArrow" transform="rotate(270) translate(-36 17)" onmousedown="handlePan(-1,0)">
                  <use xlink:href="#rim" fill="#404040">
                        <set attributeName="fill" to="#808080" begin="arrowLeft.mouseover" end="arrowLeft.mouseout"/>
                  </use>
                  <path fill="none" stroke="white" stroke-width="1.5" d="M0,-3.0v7 M-2.5,-0.5L0,-3.0L2.5,-0.5"/>
                </g>
        </g>
        <svg viewBox="0 0 15 15" width="100%" height="30px" preserveAspectRatio="xMaxYMin meet">
         <g id="arrow_out" transform="scale(0.3 0.3)">
          <a xlink:href="class_fat_partition_a83dc0faf3047682f877cd5f71694b93e_icgraph_org.svg" target="_base">
           <rect id="button" ry="5" rx="5" y="6" x="6" height="38" width="38"
                fill="#f2f5e9" fill-opacity="0.5" stroke="#606060" stroke-width="1.0"/>
           <path id="arrow"
             d="M 11.500037,31.436501 C 11.940474,20.09759 22.043105,11.32322 32.158766,21.979434 L 37.068811,17.246167 C 37.068811,17.246167 37.088388,32 37.088388,32 L 22.160133,31.978069 C 22.160133,31.978069 26.997745,27.140456 26.997745,27.140456 C 18.528582,18.264221 13.291696,25.230495 11.500037,31.436501 z"
             style="fill:#404040;"/>
          </a>
         </g>
        </svg>
</svg>
