<?xml version="1.0" encoding="UTF-8" standalone="no"?>
<!DOCTYPE svg PUBLIC "-//W3C//DTD SVG 1.1//EN"
 "http://www.w3.org/Graphics/SVG/1.1/DTD/svg11.dtd">
<!-- Generated by graphviz version 2.47.3 (20210619.1520)
 -->
<!-- Title: FatPartition::fatPutEOC Pages: 1 -->
<svg width="696pt" height="190pt"
 viewBox="0.00 0.00 696.00 190.00" xmlns="http://www.w3.org/2000/svg" xmlns:xlink="http://www.w3.org/1999/xlink">
<g id="graph0" class="graph" transform="scale(1 1) rotate(0) translate(4 186)">
<title>FatPartition::fatPutEOC</title>
<polygon fill="white" stroke="transparent" points="-4,4 -4,-186 692,-186 692,4 -4,4"/>
<!-- Node1 -->
<g id="node1" class="node">
<title>Node1</title>
<g id="a_node1"><a xlink:title=" ">
<polygon fill="#bfbfbf" stroke="black" points="548,-80.5 548,-101.5 688,-101.5 688,-80.5 548,-80.5"/>
<text text-anchor="middle" x="618" y="-87.9" font-family="Helvetica,sans-Serif" font-size="12.00">FatPartition::fatPutEOC</text>
</a>
</g>
</g>
<!-- Node2 -->
<g id="node2" class="node">
<title>Node2</title>
<g id="a_node2"><a xlink:href="../../d0/d12/class_fat_partition.html#af76de477e5ac4ceea117eac8eb9115f6" target="_top" xlink:title=" ">
<polygon fill="white" stroke="black" points="348,-120.5 348,-141.5 509,-141.5 509,-120.5 348,-120.5"/>
<text text-anchor="middle" x="428.5" y="-127.9" font-family="Helvetica,sans-Serif" font-size="12.00">FatPartition::allocateCluster</text>
</a>
</g>
</g>
<!-- Node1&#45;&gt;Node2 -->
<g id="edge1" class="edge">
<title>Node1&#45;&gt;Node2</title>
<path fill="none" stroke="midnightblue" d="M557.83,-103.62C532.39,-109.05 502.99,-115.32 478.76,-120.49"/>
<polygon fill="midnightblue" stroke="midnightblue" points="558.69,-107.02 567.74,-101.51 557.23,-100.17 558.69,-107.02"/>
</g>
<!-- Node8 -->
<g id="node6" class="node">
<title>Node8</title>
<g id="a_node6"><a xlink:href="../../d0/d12/class_fat_partition.html#a17a3e6c53d5db64be9913912d3bb13a3" target="_top" xlink:title=" ">
<polygon fill="white" stroke="black" points="345,-80.5 345,-101.5 512,-101.5 512,-80.5 345,-80.5"/>
<text text-anchor="middle" x="428.5" y="-87.9" font-family="Helvetica,sans-Serif" font-size="12.00">FatPartition::allocContiguous</text>
</a>
</g>
</g>
<!-- Node1&#45;&gt;Node8 -->
<g id="edge5" class="edge">
<title>Node1&#45;&gt;Node8</title>
<path fill="none" stroke="midnightblue" d="M537.72,-91C529.23,-91 520.57,-91 512.04,-91"/>
<polygon fill="midnightblue" stroke="midnightblue" points="537.98,-94.5 547.98,-91 537.98,-87.5 537.98,-94.5"/>
</g>
<!-- Node11 -->
<g id="node9" class="node">
<title>Node11</title>
<g id="a_node9"><a xlink:href="../../d3/d51/class_fat_file.html#a7dda881dac19ea2aa9b2e85a229a98d7" target="_top" xlink:title=" ">
<polygon fill="white" stroke="black" points="378,-40.5 378,-61.5 479,-61.5 479,-40.5 378,-40.5"/>
<text text-anchor="middle" x="428.5" y="-47.9" font-family="Helvetica,sans-Serif" font-size="12.00">FatFile::truncate</text>
</a>
</g>
</g>
<!-- Node1&#45;&gt;Node11 -->
<g id="edge8" class="edge">
<title>Node1&#45;&gt;Node11</title>
<path fill="none" stroke="midnightblue" d="M557.83,-78.38C532.39,-72.95 502.99,-66.68 478.76,-61.51"/>
<polygon fill="midnightblue" stroke="midnightblue" points="557.23,-81.83 567.74,-80.49 558.69,-74.98 557.23,-81.83"/>
</g>
<!-- Node3 -->
<g id="node3" class="node">
<title>Node3</title>
<g id="a_node3"><a xlink:href="../../d3/d51/class_fat_file.html#afcf966473411ee32621742f1820abce1" target="_top" xlink:title=" ">
<polygon fill="white" stroke="black" points="190.5,-120.5 190.5,-141.5 306.5,-141.5 306.5,-120.5 190.5,-120.5"/>
<text text-anchor="middle" x="248.5" y="-127.9" font-family="Helvetica,sans-Serif" font-size="12.00">FatFile::addCluster</text>
</a>
</g>
</g>
<!-- Node2&#45;&gt;Node3 -->
<g id="edge2" class="edge">
<title>Node2&#45;&gt;Node3</title>
<path fill="none" stroke="midnightblue" d="M337.75,-131C327.17,-131 316.61,-131 306.67,-131"/>
<polygon fill="midnightblue" stroke="midnightblue" points="337.87,-134.5 347.87,-131 337.87,-127.5 337.87,-134.5"/>
</g>
<!-- Node4 -->
<g id="node4" class="node">
<title>Node4</title>
<g id="a_node4"><a xlink:href="../../d3/d51/class_fat_file.html#aa65510f81a364343bb7b21f86b5a35b5" target="_top" xlink:title=" ">
<polygon fill="white" stroke="red" points="10,-160.5 10,-181.5 142,-181.5 142,-160.5 10,-160.5"/>
<text text-anchor="middle" x="76" y="-167.9" font-family="Helvetica,sans-Serif" font-size="12.00">FatFile::addDirCluster</text>
</a>
</g>
</g>
<!-- Node3&#45;&gt;Node4 -->
<g id="edge3" class="edge">
<title>Node3&#45;&gt;Node4</title>
<path fill="none" stroke="midnightblue" d="M192.78,-143.84C169.85,-149.22 143.54,-155.39 121.79,-160.49"/>
<polygon fill="midnightblue" stroke="midnightblue" points="193.77,-147.2 202.7,-141.51 192.17,-140.39 193.77,-147.2"/>
</g>
<!-- Node7 -->
<g id="node5" class="node">
<title>Node7</title>
<g id="a_node5"><a xlink:href="../../d3/d51/class_fat_file.html#a5d84d871ac904a22aa48308713d14682" target="_top" xlink:title=" ">
<polygon fill="white" stroke="black" points="34,-120.5 34,-141.5 118,-141.5 118,-120.5 34,-120.5"/>
<text text-anchor="middle" x="76" y="-127.9" font-family="Helvetica,sans-Serif" font-size="12.00">FatFile::write</text>
</a>
</g>
</g>
<!-- Node3&#45;&gt;Node7 -->
<g id="edge4" class="edge">
<title>Node3&#45;&gt;Node7</title>
<path fill="none" stroke="midnightblue" d="M180.13,-131C159.2,-131 136.78,-131 118.2,-131"/>
<polygon fill="midnightblue" stroke="midnightblue" points="180.25,-134.5 190.25,-131 180.25,-127.5 180.25,-134.5"/>
</g>
<!-- Node9 -->
<g id="node7" class="node">
<title>Node9</title>
<g id="a_node7"><a xlink:href="../../d3/d51/class_fat_file.html#aeeb13b9de68bf9097c863c41d655ee83" target="_top" xlink:title=" ">
<polygon fill="white" stroke="black" points="189,-80.5 189,-101.5 308,-101.5 308,-80.5 189,-80.5"/>
<text text-anchor="middle" x="248.5" y="-87.9" font-family="Helvetica,sans-Serif" font-size="12.00">FatFile::preAllocate</text>
</a>
</g>
</g>
<!-- Node8&#45;&gt;Node9 -->
<g id="edge6" class="edge">
<title>Node8&#45;&gt;Node9</title>
<path fill="none" stroke="midnightblue" d="M334.61,-91C325.62,-91 316.69,-91 308.18,-91"/>
<polygon fill="midnightblue" stroke="midnightblue" points="334.75,-94.5 344.75,-91 334.75,-87.5 334.75,-94.5"/>
</g>
<!-- Node10 -->
<g id="node8" class="node">
<title>Node10</title>
<g id="a_node8"><a xlink:href="../../d3/d51/class_fat_file.html#a0853fbd44aee2798d14d8e3aed78f8bf" target="_top" xlink:title=" ">
<polygon fill="white" stroke="black" points="0,-80.5 0,-101.5 152,-101.5 152,-80.5 0,-80.5"/>
<text text-anchor="middle" x="76" y="-87.9" font-family="Helvetica,sans-Serif" font-size="12.00">FatFile::createContiguous</text>
</a>
</g>
</g>
<!-- Node9&#45;&gt;Node10 -->
<g id="edge7" class="edge">
<title>Node9&#45;&gt;Node10</title>
<path fill="none" stroke="midnightblue" d="M178.67,-91C169.91,-91 160.9,-91 152.05,-91"/>
<polygon fill="midnightblue" stroke="midnightblue" points="178.82,-94.5 188.82,-91 178.82,-87.5 178.82,-94.5"/>
</g>
<!-- Node12 -->
<g id="node10" class="node">
<title>Node12</title>
<g id="a_node10"><a xlink:href="../../d9/d27/class_fat_volume.html#a86a08bf789e33567418465b9b12751e2" target="_top" xlink:title=" ">
<polygon fill="white" stroke="black" points="188,-40.5 188,-61.5 309,-61.5 309,-40.5 188,-40.5"/>
<text text-anchor="middle" x="248.5" y="-47.9" font-family="Helvetica,sans-Serif" font-size="12.00">FatVolume::truncate</text>
</a>
</g>
</g>
<!-- Node11&#45;&gt;Node12 -->
<g id="edge9" class="edge">
<title>Node11&#45;&gt;Node12</title>
<path fill="none" stroke="midnightblue" d="M367.68,-51C348.86,-51 328.07,-51 309.25,-51"/>
<polygon fill="midnightblue" stroke="midnightblue" points="367.92,-54.5 377.92,-51 367.92,-47.5 367.92,-54.5"/>
</g>
<!-- Node13 -->
<g id="node11" class="node">
<title>Node13</title>
<g id="a_node11"><a xlink:href="../../d3/d51/class_fat_file.html#aa6e663098a578635d37d92e82d18d616" target="_top" xlink:title=" ">
<polygon fill="white" stroke="black" points="198,-0.5 198,-21.5 299,-21.5 299,-0.5 198,-0.5"/>
<text text-anchor="middle" x="248.5" y="-7.9" font-family="Helvetica,sans-Serif" font-size="12.00">FatFile::truncate</text>
</a>
</g>
</g>
<!-- Node11&#45;&gt;Node13 -->
<g id="edge10" class="edge">
<title>Node11&#45;&gt;Node13</title>
<path fill="none" stroke="midnightblue" d="M370.69,-38.23C346.68,-32.84 319.07,-26.63 296.26,-21.51"/>
<polygon fill="midnightblue" stroke="midnightblue" points="370.21,-41.71 380.73,-40.49 371.74,-34.88 370.21,-41.71"/>
</g>
</g>
</svg>
