<?xml version="1.0" encoding="UTF-8" standalone="no"?>
<!DOCTYPE svg PUBLIC "-//W3C//DTD SVG 1.1//EN"
 "http://www.w3.org/Graphics/SVG/1.1/DTD/svg11.dtd">
<!-- Generated by graphviz version 2.47.3 (20210619.1520)
 -->
<!-- Title: FatPartition::updateFreeClusterCount Pages: 1 -->
<svg width="874pt" height="506pt"
 viewBox="0.00 0.00 874.00 506.00" xmlns="http://www.w3.org/2000/svg" xmlns:xlink="http://www.w3.org/1999/xlink">
<g id="graph0" class="graph" transform="scale(1 1) rotate(0) translate(4 502)">
<title>FatPartition::updateFreeClusterCount</title>
<polygon fill="white" stroke="transparent" points="-4,4 -4,-502 870,-502 870,4 -4,4"/>
<!-- Node1 -->
<g id="node1" class="node">
<title>Node1</title>
<g id="a_node1"><a xlink:title=" ">
<polygon fill="#bfbfbf" stroke="black" points="722,-390 722,-424 866,-424 866,-390 722,-390"/>
<text text-anchor="start" x="730" y="-410.4" font-family="Helvetica,sans-Serif" font-size="12.00">FatPartition::updateFree</text>
<text text-anchor="middle" x="794" y="-397.4" font-family="Helvetica,sans-Serif" font-size="12.00">ClusterCount</text>
</a>
</g>
</g>
<!-- Node2 -->
<g id="node2" class="node">
<title>Node2</title>
<g id="a_node2"><a xlink:href="../../d0/d12/class_fat_partition.html#af76de477e5ac4ceea117eac8eb9115f6" target="_top" xlink:title=" ">
<polygon fill="white" stroke="black" points="522,-436.5 522,-457.5 683,-457.5 683,-436.5 522,-436.5"/>
<text text-anchor="middle" x="602.5" y="-443.9" font-family="Helvetica,sans-Serif" font-size="12.00">FatPartition::allocateCluster</text>
</a>
</g>
</g>
<!-- Node1&#45;&gt;Node2 -->
<g id="edge1" class="edge">
<title>Node1&#45;&gt;Node2</title>
<path fill="none" stroke="midnightblue" d="M711.91,-424.12C692.04,-428.31 671.34,-432.68 653.43,-436.46"/>
<polygon fill="midnightblue" stroke="midnightblue" points="712.84,-427.5 721.9,-422.01 711.39,-420.65 712.84,-427.5"/>
</g>
<!-- Node8 -->
<g id="node7" class="node">
<title>Node8</title>
<g id="a_node7"><a xlink:href="../../d0/d12/class_fat_partition.html#a17a3e6c53d5db64be9913912d3bb13a3" target="_top" xlink:title=" ">
<polygon fill="white" stroke="black" points="519,-396.5 519,-417.5 686,-417.5 686,-396.5 519,-396.5"/>
<text text-anchor="middle" x="602.5" y="-403.9" font-family="Helvetica,sans-Serif" font-size="12.00">FatPartition::allocContiguous</text>
</a>
</g>
</g>
<!-- Node1&#45;&gt;Node8 -->
<g id="edge6" class="edge">
<title>Node1&#45;&gt;Node8</title>
<path fill="none" stroke="midnightblue" d="M711.68,-407C703.23,-407 694.63,-407 686.16,-407"/>
<polygon fill="midnightblue" stroke="midnightblue" points="711.9,-410.5 721.9,-407 711.9,-403.5 711.9,-410.5"/>
</g>
<!-- Node11 -->
<g id="node10" class="node">
<title>Node11</title>
<g id="a_node10"><a xlink:href="../../d0/d12/class_fat_partition.html#a5a28c1b85462f00bef1640c445764492" target="_top" xlink:title=" ">
<polygon fill="white" stroke="black" points="535.5,-178.5 535.5,-199.5 669.5,-199.5 669.5,-178.5 535.5,-178.5"/>
<text text-anchor="middle" x="602.5" y="-185.9" font-family="Helvetica,sans-Serif" font-size="12.00">FatPartition::freeChain</text>
</a>
</g>
</g>
<!-- Node1&#45;&gt;Node11 -->
<g id="edge9" class="edge">
<title>Node1&#45;&gt;Node11</title>
<path fill="none" stroke="midnightblue" d="M771.49,-382.25C730.38,-334.96 642.16,-233.48 613.04,-199.98"/>
<polygon fill="midnightblue" stroke="midnightblue" points="768.93,-384.64 778.13,-389.89 774.21,-380.05 768.93,-384.64"/>
</g>
<!-- Node3 -->
<g id="node3" class="node">
<title>Node3</title>
<g id="a_node3"><a xlink:href="../../d3/d51/class_fat_file.html#afcf966473411ee32621742f1820abce1" target="_top" xlink:title=" ">
<polygon fill="white" stroke="black" points="348.5,-436.5 348.5,-457.5 464.5,-457.5 464.5,-436.5 348.5,-436.5"/>
<text text-anchor="middle" x="406.5" y="-443.9" font-family="Helvetica,sans-Serif" font-size="12.00">FatFile::addCluster</text>
</a>
</g>
</g>
<!-- Node2&#45;&gt;Node3 -->
<g id="edge2" class="edge">
<title>Node2&#45;&gt;Node3</title>
<path fill="none" stroke="midnightblue" d="M511.37,-447C495.49,-447 479.37,-447 464.71,-447"/>
<polygon fill="midnightblue" stroke="midnightblue" points="511.75,-450.5 521.75,-447 511.75,-443.5 511.75,-450.5"/>
</g>
<!-- Node4 -->
<g id="node4" class="node">
<title>Node4</title>
<g id="a_node4"><a xlink:href="../../d3/d51/class_fat_file.html#aa65510f81a364343bb7b21f86b5a35b5" target="_top" xlink:title=" ">
<polygon fill="white" stroke="red" points="152,-476.5 152,-497.5 284,-497.5 284,-476.5 152,-476.5"/>
<text text-anchor="middle" x="218" y="-483.9" font-family="Helvetica,sans-Serif" font-size="12.00">FatFile::addDirCluster</text>
</a>
</g>
</g>
<!-- Node3&#45;&gt;Node4 -->
<g id="edge3" class="edge">
<title>Node3&#45;&gt;Node4</title>
<path fill="none" stroke="midnightblue" d="M346.65,-459.62C321.34,-465.05 292.1,-471.32 268,-476.49"/>
<polygon fill="midnightblue" stroke="midnightblue" points="347.46,-463.03 356.5,-457.51 345.99,-456.18 347.46,-463.03"/>
</g>
<!-- Node7 -->
<g id="node6" class="node">
<title>Node7</title>
<g id="a_node6"><a xlink:href="../../d3/d51/class_fat_file.html#a5d84d871ac904a22aa48308713d14682" target="_top" xlink:title=" ">
<polygon fill="white" stroke="black" points="176,-436.5 176,-457.5 260,-457.5 260,-436.5 176,-436.5"/>
<text text-anchor="middle" x="218" y="-443.9" font-family="Helvetica,sans-Serif" font-size="12.00">FatFile::write</text>
</a>
</g>
</g>
<!-- Node3&#45;&gt;Node7 -->
<g id="edge5" class="edge">
<title>Node3&#45;&gt;Node7</title>
<path fill="none" stroke="midnightblue" d="M338.07,-447C311.99,-447 282.98,-447 260.13,-447"/>
<polygon fill="midnightblue" stroke="midnightblue" points="338.28,-450.5 348.28,-447 338.28,-443.5 338.28,-450.5"/>
</g>
<!-- Node6 -->
<g id="node5" class="node">
<title>Node6</title>
<g id="a_node5"><a xlink:href="../../d3/d51/class_fat_file.html#aefd095e898758e6008f33cca17e92b72" target="_top" xlink:title=" ">
<polygon fill="white" stroke="black" points="10,-416.5 10,-437.5 96,-437.5 96,-416.5 10,-416.5"/>
<text text-anchor="middle" x="53" y="-423.9" font-family="Helvetica,sans-Serif" font-size="12.00">FatFile::open</text>
</a>
</g>
</g>
<!-- Node4&#45;&gt;Node6 -->
<g id="edge4" class="edge">
<title>Node4&#45;&gt;Node6</title>
<path fill="none" stroke="midnightblue" d="M162.97,-473.75C155.86,-471.67 148.72,-469.4 142,-467 118.3,-458.52 92.16,-446.24 74.58,-437.53"/>
<polygon fill="midnightblue" stroke="midnightblue" points="162.03,-477.12 172.6,-476.47 163.93,-470.38 162.03,-477.12"/>
</g>
<!-- Node9 -->
<g id="node8" class="node">
<title>Node9</title>
<g id="a_node8"><a xlink:href="../../d3/d51/class_fat_file.html#aeeb13b9de68bf9097c863c41d655ee83" target="_top" xlink:title=" ">
<polygon fill="white" stroke="black" points="347,-396.5 347,-417.5 466,-417.5 466,-396.5 347,-396.5"/>
<text text-anchor="middle" x="406.5" y="-403.9" font-family="Helvetica,sans-Serif" font-size="12.00">FatFile::preAllocate</text>
</a>
</g>
</g>
<!-- Node8&#45;&gt;Node9 -->
<g id="edge7" class="edge">
<title>Node8&#45;&gt;Node9</title>
<path fill="none" stroke="midnightblue" d="M508.91,-407C494.37,-407 479.7,-407 466.2,-407"/>
<polygon fill="midnightblue" stroke="midnightblue" points="508.95,-410.5 518.95,-407 508.95,-403.5 508.95,-410.5"/>
</g>
<!-- Node10 -->
<g id="node9" class="node">
<title>Node10</title>
<g id="a_node9"><a xlink:href="../../d3/d51/class_fat_file.html#a0853fbd44aee2798d14d8e3aed78f8bf" target="_top" xlink:title=" ">
<polygon fill="white" stroke="black" points="142,-396.5 142,-417.5 294,-417.5 294,-396.5 142,-396.5"/>
<text text-anchor="middle" x="218" y="-403.9" font-family="Helvetica,sans-Serif" font-size="12.00">FatFile::createContiguous</text>
</a>
</g>
</g>
<!-- Node9&#45;&gt;Node10 -->
<g id="edge8" class="edge">
<title>Node9&#45;&gt;Node10</title>
<path fill="none" stroke="midnightblue" d="M336.41,-407C322.67,-407 308.17,-407 294.24,-407"/>
<polygon fill="midnightblue" stroke="midnightblue" points="336.75,-410.5 346.75,-407 336.75,-403.5 336.75,-410.5"/>
</g>
<!-- Node12 -->
<g id="node11" class="node">
<title>Node12</title>
<g id="a_node11"><a xlink:href="../../d3/d51/class_fat_file.html#ad39f3c4d83135ad181c58306b23df0aa" target="_top" xlink:title=" ">
<polygon fill="white" stroke="black" points="330,-318.5 330,-339.5 483,-339.5 483,-318.5 330,-318.5"/>
<text text-anchor="middle" x="406.5" y="-325.9" font-family="Helvetica,sans-Serif" font-size="12.00">FatFile::openCachedEntry</text>
</a>
</g>
</g>
<!-- Node11&#45;&gt;Node12 -->
<g id="edge10" class="edge">
<title>Node11&#45;&gt;Node12</title>
<path fill="none" stroke="midnightblue" d="M578.79,-205.39C538.57,-234.41 455.91,-294.06 422.25,-318.36"/>
<polygon fill="midnightblue" stroke="midnightblue" points="580.86,-208.21 586.92,-199.52 576.76,-202.54 580.86,-208.21"/>
</g>
<!-- Node20 -->
<g id="node13" class="node">
<title>Node20</title>
<g id="a_node13"><a xlink:href="../../d3/d51/class_fat_file.html#ac837a537fbcca14c7aa390c5fc9f4e7c" target="_top" xlink:title=" ">
<polygon fill="white" stroke="black" points="357.5,-178.5 357.5,-199.5 455.5,-199.5 455.5,-178.5 357.5,-178.5"/>
<text text-anchor="middle" x="406.5" y="-185.9" font-family="Helvetica,sans-Serif" font-size="12.00">FatFile::remove</text>
</a>
</g>
</g>
<!-- Node11&#45;&gt;Node20 -->
<g id="edge13" class="edge">
<title>Node11&#45;&gt;Node20</title>
<path fill="none" stroke="midnightblue" d="M525.03,-189C501.65,-189 476.61,-189 455.67,-189"/>
<polygon fill="midnightblue" stroke="midnightblue" points="525.28,-192.5 535.28,-189 525.28,-185.5 525.28,-192.5"/>
</g>
<!-- Node24 -->
<g id="node17" class="node">
<title>Node24</title>
<g id="a_node17"><a xlink:href="../../d3/d51/class_fat_file.html#a4b42f2454ff462555c07ea094a92a1e0" target="_top" xlink:title=" ">
<polygon fill="white" stroke="black" points="168.5,-80.5 168.5,-101.5 267.5,-101.5 267.5,-80.5 168.5,-80.5"/>
<text text-anchor="middle" x="218" y="-87.9" font-family="Helvetica,sans-Serif" font-size="12.00">FatFile::rename</text>
</a>
</g>
</g>
<!-- Node11&#45;&gt;Node24 -->
<g id="edge22" class="edge">
<title>Node11&#45;&gt;Node24</title>
<path fill="none" stroke="midnightblue" d="M550.29,-175.88C473.6,-156.23 330.44,-119.55 260.12,-101.54"/>
<polygon fill="midnightblue" stroke="midnightblue" points="549.65,-179.33 560.2,-178.42 551.38,-172.55 549.65,-179.33"/>
</g>
<!-- Node29 -->
<g id="node20" class="node">
<title>Node29</title>
<g id="a_node20"><a xlink:href="../../d3/d51/class_fat_file.html#a7dda881dac19ea2aa9b2e85a229a98d7" target="_top" xlink:title=" ">
<polygon fill="white" stroke="black" points="356,-40.5 356,-61.5 457,-61.5 457,-40.5 356,-40.5"/>
<text text-anchor="middle" x="406.5" y="-47.9" font-family="Helvetica,sans-Serif" font-size="12.00">FatFile::truncate</text>
</a>
</g>
</g>
<!-- Node11&#45;&gt;Node29 -->
<g id="edge23" class="edge">
<title>Node11&#45;&gt;Node29</title>
<path fill="none" stroke="midnightblue" d="M581.36,-171.9C558.25,-152.59 518.91,-120.65 483,-96 464.51,-83.31 442.36,-70.35 426.85,-61.62"/>
<polygon fill="midnightblue" stroke="midnightblue" points="579.2,-174.65 589.1,-178.4 583.7,-169.29 579.2,-174.65"/>
</g>
<!-- Node12&#45;&gt;Node6 -->
<g id="edge11" class="edge">
<title>Node12&#45;&gt;Node6</title>
<path fill="none" stroke="midnightblue" d="M341.51,-341.48C275.86,-354.57 178.35,-374.89 142,-387 117.96,-395.01 91.66,-407.49 74.13,-416.38"/>
<polygon fill="midnightblue" stroke="midnightblue" points="342.23,-344.9 351.35,-339.52 340.86,-338.04 342.23,-344.9"/>
</g>
<!-- Node13 -->
<g id="node12" class="node">
<title>Node13</title>
<g id="a_node12"><a xlink:href="../../d3/d51/class_fat_file.html#acda9b1bf547d43e183e657bee053a48d" target="_top" xlink:title=" ">
<polygon fill="white" stroke="red" points="163.5,-318.5 163.5,-339.5 272.5,-339.5 272.5,-318.5 163.5,-318.5"/>
<text text-anchor="middle" x="218" y="-325.9" font-family="Helvetica,sans-Serif" font-size="12.00">FatFile::openNext</text>
</a>
</g>
</g>
<!-- Node12&#45;&gt;Node13 -->
<g id="edge12" class="edge">
<title>Node12&#45;&gt;Node13</title>
<path fill="none" stroke="midnightblue" d="M319.49,-329C303.54,-329 287.3,-329 272.66,-329"/>
<polygon fill="midnightblue" stroke="midnightblue" points="319.91,-332.5 329.91,-329 319.91,-325.5 319.91,-332.5"/>
</g>
<!-- Node21 -->
<g id="node14" class="node">
<title>Node21</title>
<g id="a_node14"><a xlink:href="../../d7/d76/class_fs_base_file.html#a8d21f9df86e846e34c3bb11cf7db21bc" target="_top" xlink:title=" ">
<polygon fill="white" stroke="black" points="157,-278.5 157,-299.5 279,-299.5 279,-278.5 157,-278.5"/>
<text text-anchor="middle" x="218" y="-285.9" font-family="Helvetica,sans-Serif" font-size="12.00">FsBaseFile::remove</text>
</a>
</g>
</g>
<!-- Node20&#45;&gt;Node21 -->
<g id="edge14" class="edge">
<title>Node20&#45;&gt;Node21</title>
<path fill="none" stroke="midnightblue" d="M386.07,-206.33C364.85,-224.4 329.18,-252.37 294,-269 286.08,-272.74 277.35,-275.87 268.72,-278.46"/>
<polygon fill="midnightblue" stroke="midnightblue" points="388.45,-208.89 393.72,-199.7 383.87,-203.6 388.45,-208.89"/>
</g>
<!-- Node22 -->
<g id="node15" class="node">
<title>Node22</title>
<g id="a_node15"><a xlink:href="../../d3/d51/class_fat_file.html#a75d3276f0b02b03e863afafe5731fedb" target="_top" xlink:title=" ">
<polygon fill="white" stroke="black" points="169,-238.5 169,-259.5 267,-259.5 267,-238.5 169,-238.5"/>
<text text-anchor="middle" x="218" y="-245.9" font-family="Helvetica,sans-Serif" font-size="12.00">FatFile::remove</text>
</a>
</g>
</g>
<!-- Node20&#45;&gt;Node22 -->
<g id="edge15" class="edge">
<title>Node20&#45;&gt;Node22</title>
<path fill="none" stroke="midnightblue" d="M368.77,-203.05C347.15,-211.1 319.2,-221.14 294,-229 283.45,-232.29 271.97,-235.53 261.23,-238.4"/>
<polygon fill="midnightblue" stroke="midnightblue" points="370.09,-206.3 378.22,-199.51 367.63,-199.74 370.09,-206.3"/>
</g>
<!-- Node23 -->
<g id="node16" class="node">
<title>Node23</title>
<g id="a_node16"><a xlink:href="../../d9/d27/class_fat_volume.html#abb11d05ef407775bcdb9b14a6c608433" target="_top" xlink:title=" ">
<polygon fill="white" stroke="black" points="158.5,-198.5 158.5,-219.5 277.5,-219.5 277.5,-198.5 158.5,-198.5"/>
<text text-anchor="middle" x="218" y="-205.9" font-family="Helvetica,sans-Serif" font-size="12.00">FatVolume::remove</text>
</a>
</g>
</g>
<!-- Node20&#45;&gt;Node23 -->
<g id="edge16" class="edge">
<title>Node20&#45;&gt;Node23</title>
<path fill="none" stroke="midnightblue" d="M347.49,-195.22C325.23,-197.61 299.83,-200.33 277.52,-202.72"/>
<polygon fill="midnightblue" stroke="midnightblue" points="347.9,-198.7 357.47,-194.15 347.16,-191.74 347.9,-198.7"/>
</g>
<!-- Node20&#45;&gt;Node24 -->
<g id="edge17" class="edge">
<title>Node20&#45;&gt;Node24</title>
<path fill="none" stroke="midnightblue" d="M383.54,-172.16C361.76,-156.06 326.95,-131.95 294,-116 282.39,-110.38 269.19,-105.52 257.14,-101.61"/>
<polygon fill="midnightblue" stroke="midnightblue" points="381.66,-175.13 391.77,-178.32 385.86,-169.52 381.66,-175.13"/>
</g>
<!-- Node25 -->
<g id="node18" class="node">
<title>Node25</title>
<g id="a_node18"><a xlink:href="../../d3/d51/class_fat_file.html#a9515bac181d33e7f0125e88fa2ccd283" target="_top" xlink:title=" ">
<polygon fill="white" stroke="red" points="175,-158.5 175,-179.5 261,-179.5 261,-158.5 175,-158.5"/>
<text text-anchor="middle" x="218" y="-165.9" font-family="Helvetica,sans-Serif" font-size="12.00">FatFile::rmdir</text>
</a>
</g>
</g>
<!-- Node20&#45;&gt;Node25 -->
<g id="edge18" class="edge">
<title>Node20&#45;&gt;Node25</title>
<path fill="none" stroke="midnightblue" d="M347.43,-182.77C319.5,-179.78 286.64,-176.25 261.15,-173.52"/>
<polygon fill="midnightblue" stroke="midnightblue" points="347.16,-186.26 357.47,-183.85 347.9,-179.3 347.16,-186.26"/>
</g>
<!-- Node28 -->
<g id="node19" class="node">
<title>Node28</title>
<g id="a_node19"><a xlink:href="../../d3/d51/class_fat_file.html#ac780a80526f86d3def701ecdc99d8bfe" target="_top" xlink:title=" ">
<polygon fill="white" stroke="black" points="0,-139.5 0,-160.5 106,-160.5 106,-139.5 0,-139.5"/>
<text text-anchor="middle" x="53" y="-146.9" font-family="Helvetica,sans-Serif" font-size="12.00">FatFile::rmRfStar</text>
</a>
</g>
</g>
<!-- Node20&#45;&gt;Node28 -->
<g id="edge21" class="edge">
<title>Node20&#45;&gt;Node28</title>
<path fill="none" stroke="midnightblue" d="M373.62,-174.24C351.75,-164.95 321.76,-153.83 294,-149 230.17,-137.9 155.33,-140.65 106.41,-144.52"/>
<polygon fill="midnightblue" stroke="midnightblue" points="372.5,-177.57 383.06,-178.35 375.29,-171.15 372.5,-177.57"/>
</g>
<!-- Node25&#45;&gt;Node28 -->
<g id="edge19" class="edge">
<title>Node25&#45;&gt;Node28</title>
<path fill="none" stroke="midnightblue" d="M164.48,-162.88C145.79,-160.7 124.75,-158.25 106.09,-156.07"/>
<polygon fill="midnightblue" stroke="midnightblue" points="164.26,-166.38 174.6,-164.06 165.07,-159.42 164.26,-166.38"/>
</g>
<!-- Node28&#45;&gt;Node28 -->
<g id="edge20" class="edge">
<title>Node28&#45;&gt;Node28</title>
<path fill="none" stroke="midnightblue" d="M83.52,-169.68C81.88,-174.97 71.71,-179 53,-179 24.49,-179 15.81,-169.65 26.94,-160.71"/>
<polygon fill="midnightblue" stroke="midnightblue" points="86.64,-168.11 79.06,-160.71 80.37,-171.22 86.64,-168.11"/>
</g>
<!-- Node30 -->
<g id="node21" class="node">
<title>Node30</title>
<g id="a_node21"><a xlink:href="../../d9/d27/class_fat_volume.html#a86a08bf789e33567418465b9b12751e2" target="_top" xlink:title=" ">
<polygon fill="white" stroke="black" points="157.5,-40.5 157.5,-61.5 278.5,-61.5 278.5,-40.5 157.5,-40.5"/>
<text text-anchor="middle" x="218" y="-47.9" font-family="Helvetica,sans-Serif" font-size="12.00">FatVolume::truncate</text>
</a>
</g>
</g>
<!-- Node29&#45;&gt;Node30 -->
<g id="edge24" class="edge">
<title>Node29&#45;&gt;Node30</title>
<path fill="none" stroke="midnightblue" d="M345.29,-51C323.98,-51 300.02,-51 278.74,-51"/>
<polygon fill="midnightblue" stroke="midnightblue" points="345.52,-54.5 355.52,-51 345.52,-47.5 345.52,-54.5"/>
</g>
<!-- Node31 -->
<g id="node22" class="node">
<title>Node31</title>
<g id="a_node22"><a xlink:href="../../d3/d51/class_fat_file.html#aa6e663098a578635d37d92e82d18d616" target="_top" xlink:title=" ">
<polygon fill="white" stroke="black" points="167.5,-0.5 167.5,-21.5 268.5,-21.5 268.5,-0.5 167.5,-0.5"/>
<text text-anchor="middle" x="218" y="-7.9" font-family="Helvetica,sans-Serif" font-size="12.00">FatFile::truncate</text>
</a>
</g>
</g>
<!-- Node29&#45;&gt;Node31 -->
<g id="edge25" class="edge">
<title>Node29&#45;&gt;Node31</title>
<path fill="none" stroke="midnightblue" d="M346.65,-38.38C321.34,-32.95 292.1,-26.68 268,-21.51"/>
<polygon fill="midnightblue" stroke="midnightblue" points="345.99,-41.82 356.5,-40.49 347.46,-34.97 345.99,-41.82"/>
</g>
</g>
</svg>
