<?xml version="1.0" encoding="UTF-8" standalone="no"?>
<!DOCTYPE svg PUBLIC "-//W3C//DTD SVG 1.1//EN"
 "http://www.w3.org/Graphics/SVG/1.1/DTD/svg11.dtd">
<!-- Generated by graphviz version 2.47.3 (20210619.1520)
 -->
<!-- Title: MinimumSerial.h Pages: 1 -->
<svg width="299pt" height="204pt"
 viewBox="0.00 0.00 299.00 204.00" xmlns="http://www.w3.org/2000/svg" xmlns:xlink="http://www.w3.org/1999/xlink">
<g id="graph0" class="graph" transform="scale(1 1) rotate(0) translate(4 200)">
<title>MinimumSerial.h</title>
<polygon fill="white" stroke="transparent" points="-4,4 -4,-200 295,-200 295,4 -4,4"/>
<!-- Node1 -->
<g id="node1" class="node">
<title>Node1</title>
<g id="a_node1"><a xlink:title="Minimal AVR Serial driver.">
<polygon fill="#bfbfbf" stroke="black" points="102,-174.5 102,-195.5 206,-195.5 206,-174.5 102,-174.5"/>
<text text-anchor="middle" x="154" y="-181.9" font-family="Helvetica,sans-Serif" font-size="12.00">MinimumSerial.h</text>
</a>
</g>
</g>
<!-- Node2 -->
<g id="node2" class="node">
<title>Node2</title>
<g id="a_node2"><a xlink:href="../../d9/da3/_sys_call_8h.html" target="_top" xlink:title="SysCall class.">
<polygon fill="white" stroke="black" points="97.5,-116.5 97.5,-137.5 210.5,-137.5 210.5,-116.5 97.5,-116.5"/>
<text text-anchor="middle" x="154" y="-123.9" font-family="Helvetica,sans-Serif" font-size="12.00">common/SysCall.h</text>
</a>
</g>
</g>
<!-- Node1&#45;&gt;Node2 -->
<g id="edge1" class="edge">
<title>Node1&#45;&gt;Node2</title>
<path fill="none" stroke="midnightblue" d="M154,-174.25C154,-166.94 154,-156.69 154,-147.7"/>
<polygon fill="midnightblue" stroke="midnightblue" points="157.5,-147.64 154,-137.64 150.5,-147.64 157.5,-147.64"/>
</g>
<!-- Node3 -->
<g id="node3" class="node">
<title>Node3</title>
<g id="a_node3"><a xlink:title=" ">
<polygon fill="white" stroke="#bfbfbf" points="89.5,-0.5 89.5,-21.5 142.5,-21.5 142.5,-0.5 89.5,-0.5"/>
<text text-anchor="middle" x="116" y="-7.9" font-family="Helvetica,sans-Serif" font-size="12.00">stdint.h</text>
</a>
</g>
</g>
<!-- Node2&#45;&gt;Node3 -->
<g id="edge2" class="edge">
<title>Node2&#45;&gt;Node3</title>
<path fill="none" stroke="midnightblue" d="M150.76,-116.28C144.51,-97.52 130.67,-56 122.46,-31.38"/>
<polygon fill="midnightblue" stroke="midnightblue" points="125.71,-30.07 119.23,-21.69 119.07,-32.29 125.71,-30.07"/>
</g>
<!-- Node4 -->
<g id="node4" class="node">
<title>Node4</title>
<g id="a_node4"><a xlink:title=" ">
<polygon fill="white" stroke="#bfbfbf" points="233,-0.5 233,-21.5 291,-21.5 291,-0.5 233,-0.5"/>
<text text-anchor="middle" x="262" y="-7.9" font-family="Helvetica,sans-Serif" font-size="12.00">stddef.h</text>
</a>
</g>
</g>
<!-- Node2&#45;&gt;Node4 -->
<g id="edge3" class="edge">
<title>Node2&#45;&gt;Node4</title>
<path fill="none" stroke="midnightblue" d="M182,-116.37C199.91,-108.93 222.42,-97.01 237,-80 248.74,-66.3 255.17,-46.6 258.56,-31.93"/>
<polygon fill="midnightblue" stroke="midnightblue" points="262.04,-32.37 260.59,-21.88 255.18,-30.98 262.04,-32.37"/>
</g>
<!-- Node5 -->
<g id="node5" class="node">
<title>Node5</title>
<g id="a_node5"><a xlink:href="../../de/d9b/_sd_fat_config_8h.html" target="_top" xlink:title="configuration definitions">
<polygon fill="white" stroke="black" points="0,-58.5 0,-79.5 92,-79.5 92,-58.5 0,-58.5"/>
<text text-anchor="middle" x="46" y="-65.9" font-family="Helvetica,sans-Serif" font-size="12.00">SdFatConfig.h</text>
</a>
</g>
</g>
<!-- Node2&#45;&gt;Node5 -->
<g id="edge4" class="edge">
<title>Node2&#45;&gt;Node5</title>
<path fill="none" stroke="midnightblue" d="M135.19,-116.25C118.15,-107.41 92.84,-94.29 73.53,-84.28"/>
<polygon fill="midnightblue" stroke="midnightblue" points="75.09,-81.14 64.6,-79.64 71.86,-87.35 75.09,-81.14"/>
</g>
<!-- Node7 -->
<g id="node7" class="node">
<title>Node7</title>
<g id="a_node7"><a xlink:href="../../d1/d27/_print_basic_8h.html" target="_top" xlink:title="Stream/Print like replacement for non&#45;Arduino systems.">
<polygon fill="white" stroke="black" points="148,-58.5 148,-79.5 228,-79.5 228,-58.5 148,-58.5"/>
<text text-anchor="middle" x="188" y="-65.9" font-family="Helvetica,sans-Serif" font-size="12.00">PrintBasic.h</text>
</a>
</g>
</g>
<!-- Node2&#45;&gt;Node7 -->
<g id="edge7" class="edge">
<title>Node2&#45;&gt;Node7</title>
<path fill="none" stroke="midnightblue" d="M159.92,-116.25C164.6,-108.54 171.27,-97.56 176.93,-88.23"/>
<polygon fill="midnightblue" stroke="midnightblue" points="179.95,-90.01 182.15,-79.64 173.96,-86.37 179.95,-90.01"/>
</g>
<!-- Node5&#45;&gt;Node3 -->
<g id="edge5" class="edge">
<title>Node5&#45;&gt;Node3</title>
<path fill="none" stroke="midnightblue" d="M58.19,-58.25C68.63,-49.89 83.87,-37.71 96.07,-27.94"/>
<polygon fill="midnightblue" stroke="midnightblue" points="98.32,-30.62 103.95,-21.64 93.95,-25.16 98.32,-30.62"/>
</g>
<!-- Node6 -->
<g id="node6" class="node">
<title>Node6</title>
<g id="a_node6"><a xlink:title=" ">
<polygon fill="white" stroke="#bfbfbf" points="5,-0.5 5,-21.5 71,-21.5 71,-0.5 5,-0.5"/>
<text text-anchor="middle" x="38" y="-7.9" font-family="Helvetica,sans-Serif" font-size="12.00">Arduino.h</text>
</a>
</g>
</g>
<!-- Node5&#45;&gt;Node6 -->
<g id="edge6" class="edge">
<title>Node5&#45;&gt;Node6</title>
<path fill="none" stroke="midnightblue" d="M44.61,-58.25C43.56,-50.94 42.1,-40.69 40.81,-31.7"/>
<polygon fill="midnightblue" stroke="midnightblue" points="44.26,-31.05 39.38,-21.64 37.33,-32.04 44.26,-31.05"/>
</g>
<!-- Node7&#45;&gt;Node3 -->
<g id="edge8" class="edge">
<title>Node7&#45;&gt;Node3</title>
<path fill="none" stroke="midnightblue" d="M175.46,-58.25C164.72,-49.89 149.05,-37.71 136.5,-27.94"/>
<polygon fill="midnightblue" stroke="midnightblue" points="138.44,-25.02 128.4,-21.64 134.14,-30.54 138.44,-25.02"/>
</g>
<!-- Node7&#45;&gt;Node4 -->
<g id="edge9" class="edge">
<title>Node7&#45;&gt;Node4</title>
<path fill="none" stroke="midnightblue" d="M200.89,-58.25C211.93,-49.89 228.03,-37.71 240.94,-27.94"/>
<polygon fill="midnightblue" stroke="midnightblue" points="243.4,-30.47 249.26,-21.64 239.17,-24.89 243.4,-30.47"/>
</g>
<!-- Node8 -->
<g id="node8" class="node">
<title>Node8</title>
<g id="a_node8"><a xlink:title=" ">
<polygon fill="white" stroke="#bfbfbf" points="161,-0.5 161,-21.5 215,-21.5 215,-0.5 161,-0.5"/>
<text text-anchor="middle" x="188" y="-7.9" font-family="Helvetica,sans-Serif" font-size="12.00">string.h</text>
</a>
</g>
</g>
<!-- Node7&#45;&gt;Node8 -->
<g id="edge10" class="edge">
<title>Node7&#45;&gt;Node8</title>
<path fill="none" stroke="midnightblue" d="M188,-58.25C188,-50.94 188,-40.69 188,-31.7"/>
<polygon fill="midnightblue" stroke="midnightblue" points="191.5,-31.64 188,-21.64 184.5,-31.64 191.5,-31.64"/>
</g>
</g>
</svg>
