<?xml version="1.0" encoding="UTF-8" standalone="no"?>
<!DOCTYPE svg PUBLIC "-//W3C//DTD SVG 1.1//EN"
 "http://www.w3.org/Graphics/SVG/1.1/DTD/svg11.dtd">
<!-- Generated by graphviz version 2.47.3 (20210619.1520)
 -->
<!-- Title: AudioConnection::rewire Pages: 1 -->
<!--zoomable 164 -->
<svg id="main" version="1.1" xmlns="http://www.w3.org/2000/svg" xmlns:xlink="http://www.w3.org/1999/xlink" xml:space="preserve" onload="init(evt)">
<style type="text/css"><![CDATA[
.edge:hover path { stroke: red; }
.edge:hover polygon { stroke: red; fill: red; }
]]></style>
<script type="text/javascript"><![CDATA[
var edges = document.getElementsByTagName('g');
if (edges && edges.length) {
  for (var i=0;i<edges.length;i++) {
    if (edges[i].id.substr(0,4)=='edge') {
      edges[i].setAttribute('class','edge');
    }
  }
}
]]></script>
        <defs>
                <circle id="rim" cx="0" cy="0" r="7"/>
                <circle id="rim2" cx="0" cy="0" r="3.5"/>
                <g id="zoomPlus">
                        <use xlink:href="#rim" fill="#404040">
                                <set attributeName="fill" to="#808080" begin="zoomplus.mouseover" end="zoomplus.mouseout"/>
                        </use>
                        <path d="M-4,0h8M0,-4v8" fill="none" stroke="white" stroke-width="1.5" pointer-events="none"/>
                </g>
                <g id="zoomMin">
                        <use xlink:href="#rim" fill="#404040">
                                <set attributeName="fill" to="#808080" begin="zoomminus.mouseover" end="zoomminus.mouseout"/>
                        </use>
                        <path d="M-4,0h8" fill="none" stroke="white" stroke-width="1.5" pointer-events="none"/>
                </g>
                <g id="dirArrow">
                        <path fill="none" stroke="white" stroke-width="1.5" d="M0,-3.0v7 M-2.5,-0.5L0,-3.0L2.5,-0.5"/>
                </g>
               <g id="resetDef">
                       <use xlink:href="#rim2" fill="#404040">
                               <set attributeName="fill" to="#808080" begin="reset.mouseover" end="reset.mouseout"/>
                       </use>
               </g>
        </defs>

<script type="text/javascript">
var viewWidth = 777;
var viewHeight = 164;
var sectionId = 'dynsection-6';
</script>
<script xlink:href="../../svgpan.js"/>
<svg id="graph" class="graph">
<g id="viewport">
<title>AudioConnection::rewire</title>
<polygon fill="white" stroke="transparent" points="-4,4 -4,-159.5 773,-159.5 773,4 -4,4"/>
<!-- Node1 -->
<g id="node1" class="node">
<title>Node1</title>
<g id="a_node1"><a xlink:title=" ">
<polygon fill="#bfbfbf" stroke="black" points="624,-74 624,-95 769,-95 769,-74 624,-74"/>
<text text-anchor="middle" x="696.5" y="-81.4" font-family="Helvetica,sans-Serif" font-size="12.00">AudioConnection::rewire</text>
</a>
</g>
</g>
<!-- Node2 -->
<g id="node2" class="node">
<title>Node2</title>
<g id="a_node2"><a xlink:href="../../d8/d1c/class_audio_director.html#ab4957e373e5d9078454d07da471f1d94" target="_top" xlink:title=" ">
<polygon fill="white" stroke="black" points="452,-74 452,-95 588,-95 588,-74 452,-74"/>
<text text-anchor="middle" x="520" y="-81.4" font-family="Helvetica,sans-Serif" font-size="12.00">AudioDirector::connect</text>
</a>
</g>
</g>
<!-- Node1&#45;&gt;Node2 -->
<g id="edge1" class="edge">
<title>Node1&#45;&gt;Node2</title>
<path fill="none" stroke="midnightblue" d="M613.5,-84.5C605.04,-84.5 596.52,-84.5 588.24,-84.5"/>
<polygon fill="midnightblue" stroke="midnightblue" points="613.77,-88 623.77,-84.5 613.77,-81 613.77,-88"/>
</g>
<!-- Node3 -->
<g id="node3" class="node">
<title>Node3</title>
<g id="a_node3"><a xlink:href="../../d8/d1c/class_audio_director.html#aac97077a6f47bf2728b8eb8720d9ad49" target="_top" xlink:title=" ">
<polygon fill="white" stroke="black" points="233,-134 233,-155 369,-155 369,-134 233,-134"/>
<text text-anchor="middle" x="301" y="-141.4" font-family="Helvetica,sans-Serif" font-size="12.00">AudioDirector::connect</text>
</a>
</g>
</g>
<!-- Node2&#45;&gt;Node3 -->
<g id="edge2" class="edge">
<title>Node2&#45;&gt;Node3</title>
<path fill="none" stroke="midnightblue" d="M486.45,-99.04C466.46,-107.49 440.14,-117.77 416,-124.5 401,-128.68 384.63,-132.17 369.1,-134.99"/>
<polygon fill="midnightblue" stroke="midnightblue" points="487.91,-102.22 495.72,-95.06 485.15,-95.79 487.91,-102.22"/>
</g>
<!-- Node4 -->
<g id="node4" class="node">
<title>Node4</title>
<g id="a_node4"><a xlink:href="../../dd/da5/class_my_app_example.html#acbf88d789ce51f4ca12d3e0300327408" target="_top" xlink:title=" ">
<polygon fill="white" stroke="black" points="186,-94 186,-115 416,-115 416,-94 186,-94"/>
<text text-anchor="middle" x="301" y="-101.4" font-family="Helvetica,sans-Serif" font-size="12.00">MyAppExample::makeAudioConnections</text>
</a>
</g>
</g>
<!-- Node2&#45;&gt;Node4 -->
<g id="edge3" class="edge">
<title>Node2&#45;&gt;Node4</title>
<path fill="none" stroke="midnightblue" d="M441.73,-91.62C433.33,-92.4 424.65,-93.2 415.93,-94"/>
<polygon fill="midnightblue" stroke="midnightblue" points="442.19,-95.09 451.83,-90.69 441.55,-88.12 442.19,-95.09"/>
</g>
<!-- Node6 -->
<g id="node6" class="node">
<title>Node6</title>
<g id="a_node6"><a xlink:href="../../dd/da5/class_my_app_example.html#a7a77ffb8a5fb02933673fba14c58e8c0" target="_top" xlink:title=" ">
<polygon fill="white" stroke="black" points="204,-54 204,-75 398,-75 398,-54 204,-54"/>
<text text-anchor="middle" x="301" y="-61.4" font-family="Helvetica,sans-Serif" font-size="12.00">MyAppExample::MessageHandler</text>
</a>
</g>
</g>
<!-- Node2&#45;&gt;Node6 -->
<g id="edge5" class="edge">
<title>Node2&#45;&gt;Node6</title>
<path fill="none" stroke="midnightblue" d="M441.74,-77.38C427.69,-76.08 412.87,-74.72 398.34,-73.38"/>
<polygon fill="midnightblue" stroke="midnightblue" points="441.55,-80.88 451.83,-78.31 442.19,-73.91 441.55,-80.88"/>
</g>
<!-- Node7 -->
<g id="node7" class="node">
<title>Node7</title>
<g id="a_node7"><a xlink:href="../../d9/dad/class_app_serial_command_interface.html#a78cb6587862058ba6a6b4bfd9b9ecee1" target="_top" xlink:title=" ">
<polygon fill="white" stroke="black" points="217,-0.5 217,-34.5 385,-34.5 385,-0.5 217,-0.5"/>
<text text-anchor="start" x="225" y="-20.9" font-family="Helvetica,sans-Serif" font-size="12.00">AppSerialCommandInterface</text>
<text text-anchor="middle" x="301" y="-7.9" font-family="Helvetica,sans-Serif" font-size="12.00">::updateRT</text>
</a>
</g>
</g>
<!-- Node2&#45;&gt;Node7 -->
<g id="edge6" class="edge">
<title>Node2&#45;&gt;Node7</title>
<path fill="none" stroke="midnightblue" d="M485.11,-69.98C465.22,-61.8 439.46,-51.79 416,-44.5 404.54,-40.94 392.31,-37.58 380.27,-34.53"/>
<polygon fill="midnightblue" stroke="midnightblue" points="483.79,-73.22 494.36,-73.83 486.47,-66.76 483.79,-73.22"/>
</g>
<!-- Node5 -->
<g id="node5" class="node">
<title>Node5</title>
<g id="a_node5"><a xlink:href="../../dd/da5/class_my_app_example.html#a3970e5306df931a55e34a4ae513d6f50" target="_top" xlink:title=" ">
<polygon fill="white" stroke="black" points="0,-94 0,-115 150,-115 150,-94 0,-94"/>
<text text-anchor="middle" x="75" y="-101.4" font-family="Helvetica,sans-Serif" font-size="12.00">MyAppExample::onFocus</text>
</a>
</g>
</g>
<!-- Node4&#45;&gt;Node5 -->
<g id="edge4" class="edge">
<title>Node4&#45;&gt;Node5</title>
<path fill="none" stroke="midnightblue" d="M175.53,-104.5C166.9,-104.5 158.36,-104.5 150.13,-104.5"/>
<polygon fill="midnightblue" stroke="midnightblue" points="175.7,-108 185.7,-104.5 175.7,-101 175.7,-108"/>
</g>
</g>
</svg>
        <g id="navigator" transform="translate(0 0)" fill="#404254">
                <rect fill="#f2f5e9" fill-opacity="0.5" stroke="#606060" stroke-width=".5" x="0" y="0" width="60" height="60"/>
                <use id="zoomplus" xlink:href="#zoomPlus" x="17" y="9" onmousedown="handleZoom(evt,'in')"/>
                <use id="zoomminus" xlink:href="#zoomMin" x="42" y="9" onmousedown="handleZoom(evt,'out')"/>
                <use id="reset" xlink:href="#resetDef" x="30" y="36" onmousedown="handleReset()"/>
                <g id="arrowUp" xlink:href="#dirArrow" transform="translate(30 24)" onmousedown="handlePan(0,-1)">
                  <use xlink:href="#rim" fill="#404040">
                        <set attributeName="fill" to="#808080" begin="arrowUp.mouseover" end="arrowUp.mouseout"/>
                  </use>
                  <path fill="none" stroke="white" stroke-width="1.5" d="M0,-3.0v7 M-2.5,-0.5L0,-3.0L2.5,-0.5"/>
                </g>
                <g id="arrowRight" xlink:href="#dirArrow" transform="rotate(90) translate(36 -43)" onmousedown="handlePan(1,0)">
                  <use xlink:href="#rim" fill="#404040">
                        <set attributeName="fill" to="#808080" begin="arrowRight.mouseover" end="arrowRight.mouseout"/>
                  </use>
                  <path fill="none" stroke="white" stroke-width="1.5" d="M0,-3.0v7 M-2.5,-0.5L0,-3.0L2.5,-0.5"/>
                </g>
                <g id="arrowDown" xlink:href="#dirArrow" transform="rotate(180) translate(-30 -48)" onmousedown="handlePan(0,1)">
                  <use xlink:href="#rim" fill="#404040">
                        <set attributeName="fill" to="#808080" begin="arrowDown.mouseover" end="arrowDown.mouseout"/>
                  </use>
                  <path fill="none" stroke="white" stroke-width="1.5" d="M0,-3.0v7 M-2.5,-0.5L0,-3.0L2.5,-0.5"/>
                </g>
                <g id="arrowLeft" xlink:href="#dirArrow" transform="rotate(270) translate(-36 17)" onmousedown="handlePan(-1,0)">
                  <use xlink:href="#rim" fill="#404040">
                        <set attributeName="fill" to="#808080" begin="arrowLeft.mouseover" end="arrowLeft.mouseout"/>
                  </use>
                  <path fill="none" stroke="white" stroke-width="1.5" d="M0,-3.0v7 M-2.5,-0.5L0,-3.0L2.5,-0.5"/>
                </g>
        </g>
        <svg viewBox="0 0 15 15" width="100%" height="30px" preserveAspectRatio="xMaxYMin meet">
         <g id="arrow_out" transform="scale(0.3 0.3)">
          <a xlink:href="class_audio_connection_a4208c4c7f60da78ae1daede7a6bfeb3f_icgraph_org.svg" target="_base">
           <rect id="button" ry="5" rx="5" y="6" x="6" height="38" width="38"
                fill="#f2f5e9" fill-opacity="0.5" stroke="#606060" stroke-width="1.0"/>
           <path id="arrow"
             d="M 11.500037,31.436501 C 11.940474,20.09759 22.043105,11.32322 32.158766,21.979434 L 37.068811,17.246167 C 37.068811,17.246167 37.088388,32 37.088388,32 L 22.160133,31.978069 C 22.160133,31.978069 26.997745,27.140456 26.997745,27.140456 C 18.528582,18.264221 13.291696,25.230495 11.500037,31.436501 z"
             style="fill:#404040;"/>
          </a>
         </g>
        </svg>
</svg>
