<?xml version="1.0" encoding="UTF-8" standalone="no"?>
<!DOCTYPE svg PUBLIC "-//W3C//DTD SVG 1.1//EN"
 "http://www.w3.org/Graphics/SVG/1.1/DTD/svg11.dtd">
<!-- Generated by graphviz version 2.47.3 (20210619.1520)
 -->
<!-- Title: FsName Pages: 1 -->
<svg width="258pt" height="276pt"
 viewBox="0.00 0.00 257.50 276.00" xmlns="http://www.w3.org/2000/svg" xmlns:xlink="http://www.w3.org/1999/xlink">
<g id="graph0" class="graph" transform="scale(1 1) rotate(0) translate(4 272)">
<title>FsName</title>
<polygon fill="white" stroke="transparent" points="-4,4 -4,-272 253.5,-272 253.5,4 -4,4"/>
<!-- Node1 -->
<g id="node1" class="node">
<title>Node1</title>
<g id="a_node1"><a xlink:title="Handle UTF&#45;8 file names.">
<polygon fill="#bfbfbf" stroke="black" points="71,-139.5 71,-267.5 190,-267.5 190,-139.5 71,-139.5"/>
<text text-anchor="middle" x="130.5" y="-253.9" font-family="Helvetica,sans-Serif" font-size="12.00">FsName</text>
<polyline fill="none" stroke="black" points="71,-246.5 190,-246.5 "/>
<text text-anchor="start" x="79" y="-232.9" font-family="Helvetica,sans-Serif" font-size="12.00">+ const char * begin</text>
<text text-anchor="start" x="79" y="-219.9" font-family="Helvetica,sans-Serif" font-size="12.00">+ const char * end</text>
<text text-anchor="start" x="79" y="-206.9" font-family="Helvetica,sans-Serif" font-size="12.00">+ const char * next</text>
<polyline fill="none" stroke="black" points="71,-199.5 190,-199.5 "/>
<text text-anchor="start" x="79" y="-185.9" font-family="Helvetica,sans-Serif" font-size="12.00">+ bool atEnd()</text>
<text text-anchor="start" x="79" y="-172.9" font-family="Helvetica,sans-Serif" font-size="12.00">+ uint16_t get16()</text>
<text text-anchor="start" x="79" y="-159.9" font-family="Helvetica,sans-Serif" font-size="12.00">+ char getch()</text>
<text text-anchor="start" x="79" y="-146.9" font-family="Helvetica,sans-Serif" font-size="12.00">+ void reset()</text>
</a>
</g>
</g>
<!-- Node2 -->
<g id="node2" class="node">
<title>Node2</title>
<g id="a_node2"><a xlink:href="../../da/dd3/class_ex_name__t.html" target="_top" xlink:title="Internal type for file name &#45; do not use in user apps.">
<polygon fill="white" stroke="black" points="0,-13.5 0,-89.5 127,-89.5 127,-13.5 0,-13.5"/>
<text text-anchor="middle" x="63.5" y="-75.9" font-family="Helvetica,sans-Serif" font-size="12.00">ExName_t</text>
<polyline fill="none" stroke="black" points="0,-68.5 127,-68.5 "/>
<text text-anchor="start" x="8" y="-54.9" font-family="Helvetica,sans-Serif" font-size="12.00">+ uint16_t nameHash</text>
<text text-anchor="start" x="8" y="-41.9" font-family="Helvetica,sans-Serif" font-size="12.00">+ size_t nameLength</text>
<polyline fill="none" stroke="black" points="0,-34.5 127,-34.5 "/>
<text text-anchor="middle" x="63.5" y="-20.9" font-family="Helvetica,sans-Serif" font-size="12.00"> </text>
</a>
</g>
</g>
<!-- Node1&#45;&gt;Node2 -->
<g id="edge1" class="edge">
<title>Node1&#45;&gt;Node2</title>
<path fill="none" stroke="midnightblue" d="M98.17,-130.11C91.88,-116.04 85.54,-101.84 80.03,-89.51"/>
<polygon fill="none" stroke="midnightblue" points="95.01,-131.62 102.28,-139.32 101.4,-128.76 95.01,-131.62"/>
</g>
<!-- Node3 -->
<g id="node3" class="node">
<title>Node3</title>
<g id="a_node3"><a xlink:href="../../d2/dbe/class_fat_lfn__t.html" target="_top" xlink:title="Internal type for Long File Name &#45; do not use in user apps.">
<polygon fill="white" stroke="black" points="145.5,-0.5 145.5,-102.5 249.5,-102.5 249.5,-0.5 145.5,-0.5"/>
<text text-anchor="middle" x="197.5" y="-88.9" font-family="Helvetica,sans-Serif" font-size="12.00">FatLfn_t</text>
<polyline fill="none" stroke="black" points="145.5,-81.5 249.5,-81.5 "/>
<text text-anchor="start" x="153.5" y="-67.9" font-family="Helvetica,sans-Serif" font-size="12.00">+ uint8_t flags</text>
<text text-anchor="start" x="153.5" y="-54.9" font-family="Helvetica,sans-Serif" font-size="12.00">+ size_t len</text>
<text text-anchor="start" x="153.5" y="-41.9" font-family="Helvetica,sans-Serif" font-size="12.00">+ uint8_t seqPos</text>
<text text-anchor="start" x="153.5" y="-28.9" font-family="Helvetica,sans-Serif" font-size="12.00">+ uint8_t sfn</text>
<polyline fill="none" stroke="black" points="145.5,-21.5 249.5,-21.5 "/>
<text text-anchor="middle" x="197.5" y="-7.9" font-family="Helvetica,sans-Serif" font-size="12.00"> </text>
</a>
</g>
</g>
<!-- Node1&#45;&gt;Node3 -->
<g id="edge2" class="edge">
<title>Node1&#45;&gt;Node3</title>
<path fill="none" stroke="midnightblue" d="M162.82,-130.13C166.94,-120.91 171.09,-111.63 175.01,-102.86"/>
<polygon fill="none" stroke="midnightblue" points="159.6,-128.76 158.72,-139.32 165.99,-131.62 159.6,-128.76"/>
</g>
</g>
</svg>
