<?xml version="1.0" encoding="UTF-8" standalone="no"?>
<!DOCTYPE svg PUBLIC "-//W3C//DTD SVG 1.1//EN"
 "http://www.w3.org/Graphics/SVG/1.1/DTD/svg11.dtd">
<!-- Generated by graphviz version 2.47.3 (20210619.1520)
 -->
<!-- Title: erisAudioSynthWaveformPWM Pages: 1 -->
<svg width="378pt" height="238pt"
 viewBox="0.00 0.00 377.50 238.00" xmlns="http://www.w3.org/2000/svg" xmlns:xlink="http://www.w3.org/1999/xlink">
<g id="graph0" class="graph" transform="scale(1 1) rotate(0) translate(4 234)">
<title>erisAudioSynthWaveformPWM</title>
<!-- Node1 -->
<g id="node1" class="node">
<title>Node1</title>
<g id="a_node1"><a xlink:title=" ">
<polygon fill="#bfbfbf" stroke="black" points="47,-0.5 47,-96.5 304,-96.5 304,-0.5 47,-0.5"/>
<text text-anchor="middle" x="175.5" y="-79.7" font-family="Helvetica,sans-Serif" font-size="16.00">erisAudioSynthWaveformPWM</text>
<polyline fill="none" stroke="black" points="47,-70.5 304,-70.5 "/>
<text text-anchor="middle" x="175.5" y="-53.7" font-family="Helvetica,sans-Serif" font-size="16.00"> </text>
<polyline fill="none" stroke="black" points="47,-44.5 304,-44.5 "/>
<text text-anchor="start" x="55" y="-27.7" font-family="Helvetica,sans-Serif" font-size="16.00">+ erisAudioSynthWaveformPWM()</text>
<text text-anchor="start" x="55" y="-9.7" font-family="Helvetica,sans-Serif" font-size="16.00">+ void update()</text>
</a>
</g>
</g>
<!-- Node2 -->
<g id="node2" class="node">
<title>Node2</title>
<g id="a_node2"><a xlink:href="../../dd/d15/class_audio_synth_waveform_p_w_m.html" target="_top" xlink:title=" ">
<polygon fill="none" stroke="black" points="0,-151.5 0,-229.5 207,-229.5 207,-151.5 0,-151.5"/>
<text text-anchor="middle" x="103.5" y="-212.7" font-family="Helvetica,sans-Serif" font-size="16.00">AudioSynthWaveformPWM</text>
<polyline fill="none" stroke="black" points="0,-203.5 207,-203.5 "/>
<text text-anchor="middle" x="103.5" y="-186.7" font-family="Helvetica,sans-Serif" font-size="16.00"> </text>
<polyline fill="none" stroke="black" points="0,-177.5 207,-177.5 "/>
<text text-anchor="middle" x="103.5" y="-160.7" font-family="Helvetica,sans-Serif" font-size="16.00"> </text>
</a>
</g>
</g>
<!-- Node2&#45;&gt;Node1 -->
<g id="edge1" class="edge">
<title>Node2&#45;&gt;Node1</title>
<path fill="none" stroke="midnightblue" d="M127.77,-142.31C135.33,-127.61 143.66,-111.4 151.22,-96.7"/>
<polygon fill="none" stroke="midnightblue" points="124.64,-140.75 123.17,-151.24 130.86,-143.95 124.64,-140.75"/>
</g>
<!-- Node3 -->
<g id="node3" class="node">
<title>Node3</title>
<g id="a_node3"><a xlink:title=" ">
<polygon fill="none" stroke="#bfbfbf" points="225,-151.5 225,-229.5 272,-229.5 272,-151.5 225,-151.5"/>
<text text-anchor="middle" x="248.5" y="-212.7" font-family="Helvetica,sans-Serif" font-size="16.00">char</text>
<polyline fill="none" stroke="#bfbfbf" points="225,-203.5 272,-203.5 "/>
<text text-anchor="middle" x="248.5" y="-186.7" font-family="Helvetica,sans-Serif" font-size="16.00"> </text>
<polyline fill="none" stroke="#bfbfbf" points="225,-177.5 272,-177.5 "/>
<text text-anchor="middle" x="248.5" y="-160.7" font-family="Helvetica,sans-Serif" font-size="16.00"> </text>
</a>
</g>
</g>
<!-- Node3&#45;&gt;Node1 -->
<g id="edge2" class="edge">
<title>Node3&#45;&gt;Node1</title>
<path fill="none" stroke="#404040" d="M228.55,-151.24C221.56,-137.83 213.53,-122.43 205.87,-107.75"/>
<polygon fill="none" stroke="#404040" points="205.66,-107.34 199.34,-103.87 200.11,-96.7 206.43,-100.17 205.66,-107.34"/>
<text text-anchor="middle" x="294" y="-120.2" font-family="Helvetica,sans-Serif" font-size="16.00"> +short_name_lookup</text>
</g>
</g>
</svg>
