<?xml version="1.0" encoding="UTF-8" standalone="no"?>
<!DOCTYPE svg PUBLIC "-//W3C//DTD SVG 1.1//EN"
 "http://www.w3.org/Graphics/SVG/1.1/DTD/svg11.dtd">
<!-- Generated by graphviz version 2.47.3 (20210619.1520)
 -->
<!-- Title: ERISCore/include/AppBaseClass.h Pages: 1 -->
<svg width="2416pt" height="413pt"
 viewBox="0.00 0.00 2416.00 413.00" xmlns="http://www.w3.org/2000/svg" xmlns:xlink="http://www.w3.org/1999/xlink">
<g id="graph0" class="graph" transform="scale(1 1) rotate(0) translate(4 409)">
<title>ERISCore/include/AppBaseClass.h</title>
<!-- Node1 -->
<g id="node1" class="node">
<title>Node1</title>
<g id="a_node1"><a xlink:title=" ">
<polygon fill="#bfbfbf" stroke="black" points="904.5,-378.5 904.5,-404.5 1165.5,-404.5 1165.5,-378.5 904.5,-378.5"/>
<text text-anchor="middle" x="1035" y="-387.7" font-family="Helvetica,sans-Serif" font-size="16.00">ERISCore/include/AppBaseClass.h</text>
</a>
</g>
</g>
<!-- Node2 -->
<g id="node2" class="node">
<title>Node2</title>
<g id="a_node2"><a xlink:href="../../d4/db1/_app_base_class_8cpp.html" target="_top" xlink:title=" ">
<polygon fill="none" stroke="black" points="28.5,-126.5 28.5,-152.5 279.5,-152.5 279.5,-126.5 28.5,-126.5"/>
<text text-anchor="middle" x="154" y="-135.7" font-family="Helvetica,sans-Serif" font-size="16.00">ERISCore/src/AppBaseClass.cpp</text>
</a>
</g>
</g>
<!-- Node1&#45;&gt;Node2 -->
<g id="edge1" class="edge">
<title>Node1&#45;&gt;Node2</title>
<path fill="none" stroke="midnightblue" d="M927.62,-376.99C872.06,-368.92 803.39,-357.24 743,-342 523.46,-286.62 268.78,-186.93 183.51,-152.55"/>
<polygon fill="midnightblue" stroke="midnightblue" points="927.44,-380.5 937.84,-378.46 928.43,-373.57 927.44,-380.5"/>
</g>
<!-- Node3 -->
<g id="node3" class="node">
<title>Node3</title>
<g id="a_node3"><a xlink:href="../../db/db5/svc_serial_command_interface_8h.html" target="_top" xlink:title=" ">
<polygon fill="none" stroke="black" points="752,-315.5 752,-341.5 1108,-341.5 1108,-315.5 752,-315.5"/>
<text text-anchor="middle" x="930" y="-324.7" font-family="Helvetica,sans-Serif" font-size="16.00">ERISCore/include/svcSerialCommandInterface.h</text>
</a>
</g>
</g>
<!-- Node1&#45;&gt;Node3 -->
<g id="edge2" class="edge">
<title>Node1&#45;&gt;Node3</title>
<path fill="none" stroke="midnightblue" d="M1005.56,-373.4C988.09,-363.25 966.37,-350.63 950.7,-341.53"/>
<polygon fill="midnightblue" stroke="midnightblue" points="1003.85,-376.45 1014.26,-378.45 1007.37,-370.4 1003.85,-376.45"/>
</g>
<!-- Node9 -->
<g id="node9" class="node">
<title>Node9</title>
<g id="a_node9"><a xlink:href="../../df/d72/_app_manager_8h.html" target="_top" xlink:title=" ">
<polygon fill="none" stroke="black" points="1172,-189.5 1172,-215.5 1418,-215.5 1418,-189.5 1172,-189.5"/>
<text text-anchor="middle" x="1295" y="-198.7" font-family="Helvetica,sans-Serif" font-size="16.00">ERISCore/include/AppManager.h</text>
</a>
</g>
</g>
<!-- Node1&#45;&gt;Node9 -->
<g id="edge35" class="edge">
<title>Node1&#45;&gt;Node9</title>
<path fill="none" stroke="midnightblue" d="M1073.64,-373.8C1088.63,-365.86 1105.04,-355.19 1117,-342 1146.65,-309.3 1126.35,-281.71 1159,-252 1178.65,-234.12 1205.35,-222.73 1229.88,-215.52"/>
<polygon fill="midnightblue" stroke="midnightblue" points="1071.89,-370.77 1064.54,-378.39 1075.05,-377.02 1071.89,-370.77"/>
</g>
<!-- Node4 -->
<g id="node4" class="node">
<title>Node4</title>
<g id="a_node4"><a xlink:href="../../dc/d40/_app_manager_8cpp.html" target="_top" xlink:title=" ">
<polygon fill="none" stroke="black" points="298,-126.5 298,-152.5 534,-152.5 534,-126.5 298,-126.5"/>
<text text-anchor="middle" x="416" y="-135.7" font-family="Helvetica,sans-Serif" font-size="16.00">ERISCore/src/AppManager.cpp</text>
</a>
</g>
</g>
<!-- Node3&#45;&gt;Node4 -->
<g id="edge3" class="edge">
<title>Node3&#45;&gt;Node4</title>
<path fill="none" stroke="midnightblue" d="M869.61,-312.91C835.14,-304.09 791.29,-292.06 753,-279 634.76,-238.67 498.38,-178.14 442.23,-152.57"/>
<polygon fill="midnightblue" stroke="midnightblue" points="868.98,-316.36 879.53,-315.42 870.7,-309.57 868.98,-316.36"/>
</g>
<!-- Node5 -->
<g id="node5" class="node">
<title>Node5</title>
<g id="a_node5"><a xlink:href="../../d6/dd8/_eris_core_8cpp.html" target="_top" xlink:title=" ">
<polygon fill="none" stroke="black" points="1631,-0.5 1631,-26.5 1841,-26.5 1841,-0.5 1631,-0.5"/>
<text text-anchor="middle" x="1736" y="-9.7" font-family="Helvetica,sans-Serif" font-size="16.00">ERISCore/src/ErisCore.cpp</text>
</a>
</g>
</g>
<!-- Node3&#45;&gt;Node5 -->
<g id="edge4" class="edge">
<title>Node3&#45;&gt;Node5</title>
<path fill="none" stroke="midnightblue" d="M741.4,-320.97C469.59,-308.99 0,-277.58 0,-203.5 0,-203.5 0,-203.5 0,-138.5 0,-56.28 1255.27,-24.23 1630.99,-16.48"/>
<polygon fill="midnightblue" stroke="midnightblue" points="741.64,-324.48 751.79,-321.42 741.95,-317.49 741.64,-324.48"/>
</g>
<!-- Node6 -->
<g id="node6" class="node">
<title>Node6</title>
<g id="a_node6"><a xlink:href="../../dd/dbe/svc_serial_command_interface_8cpp.html" target="_top" xlink:title=" ">
<polygon fill="none" stroke="black" points="552.5,-126.5 552.5,-152.5 897.5,-152.5 897.5,-126.5 552.5,-126.5"/>
<text text-anchor="middle" x="725" y="-135.7" font-family="Helvetica,sans-Serif" font-size="16.00">ERISCore/src/svcSerialCommandInterface.cpp</text>
</a>
</g>
</g>
<!-- Node3&#45;&gt;Node6 -->
<g id="edge5" class="edge">
<title>Node3&#45;&gt;Node6</title>
<path fill="none" stroke="midnightblue" d="M836.91,-312.51C815.16,-305.33 793.55,-294.71 777,-279 739.93,-243.81 729.07,-179.64 726.07,-152.81"/>
<polygon fill="midnightblue" stroke="midnightblue" points="835.97,-315.88 846.56,-315.48 838.03,-309.19 835.97,-315.88"/>
</g>
<!-- Node7 -->
<g id="node7" class="node">
<title>Node7</title>
<g id="a_node7"><a xlink:href="../../dd/df4/svc_data_dictionary_8h.html" target="_top" xlink:title="Data Dictionary service provides an interface to a data dictionary service the service shall provide ...">
<polygon fill="none" stroke="black" points="786,-252.5 786,-278.5 1074,-278.5 1074,-252.5 786,-252.5"/>
<text text-anchor="middle" x="930" y="-261.7" font-family="Helvetica,sans-Serif" font-size="16.00">ERISCore/include/svcDataDictionary.h</text>
</a>
</g>
</g>
<!-- Node3&#45;&gt;Node7 -->
<g id="edge6" class="edge">
<title>Node3&#45;&gt;Node7</title>
<path fill="none" stroke="midnightblue" d="M930,-305.19C930,-296.18 930,-286.12 930,-278.53"/>
<polygon fill="midnightblue" stroke="midnightblue" points="926.5,-305.45 930,-315.45 933.5,-305.45 926.5,-305.45"/>
</g>
<!-- Node19 -->
<g id="node19" class="node">
<title>Node19</title>
<g id="a_node19"><a xlink:href="../../db/dc8/_audio_director_8h.html" target="_top" xlink:title=" ">
<polygon fill="none" stroke="black" points="1168,-252.5 1168,-278.5 1422,-278.5 1422,-252.5 1168,-252.5"/>
<text text-anchor="middle" x="1295" y="-261.7" font-family="Helvetica,sans-Serif" font-size="16.00">ERISCore/include/AudioDirector.h</text>
</a>
</g>
</g>
<!-- Node3&#45;&gt;Node19 -->
<g id="edge31" class="edge">
<title>Node3&#45;&gt;Node19</title>
<path fill="none" stroke="midnightblue" d="M1012.08,-313.78C1075.47,-303.19 1162.34,-288.67 1223.04,-278.53"/>
<polygon fill="midnightblue" stroke="midnightblue" points="1011.4,-310.35 1002.11,-315.45 1012.55,-317.25 1011.4,-310.35"/>
</g>
<!-- Node8 -->
<g id="node8" class="node">
<title>Node8</title>
<g id="a_node8"><a xlink:href="../../d4/d7f/svc_data_dictionary_8cpp.html" target="_top" xlink:title="Data Dictionary service provides an interface to a data dictionary service the service shall provide ...">
<polygon fill="none" stroke="black" points="791,-189.5 791,-215.5 1069,-215.5 1069,-189.5 791,-189.5"/>
<text text-anchor="middle" x="930" y="-198.7" font-family="Helvetica,sans-Serif" font-size="16.00">ERISCore/src/svcDataDictionary.cpp</text>
</a>
</g>
</g>
<!-- Node7&#45;&gt;Node8 -->
<g id="edge7" class="edge">
<title>Node7&#45;&gt;Node8</title>
<path fill="none" stroke="midnightblue" d="M930,-242.19C930,-233.18 930,-223.12 930,-215.53"/>
<polygon fill="midnightblue" stroke="midnightblue" points="926.5,-242.45 930,-252.45 933.5,-242.45 926.5,-242.45"/>
</g>
<!-- Node7&#45;&gt;Node9 -->
<g id="edge8" class="edge">
<title>Node7&#45;&gt;Node9</title>
<path fill="none" stroke="midnightblue" d="M1012.08,-250.78C1075.47,-240.19 1162.34,-225.67 1223.04,-215.53"/>
<polygon fill="midnightblue" stroke="midnightblue" points="1011.4,-247.35 1002.11,-252.45 1012.55,-254.25 1011.4,-247.35"/>
</g>
<!-- Node9&#45;&gt;Node2 -->
<g id="edge9" class="edge">
<title>Node9&#45;&gt;Node2</title>
<path fill="none" stroke="midnightblue" d="M1161.8,-193.58C1134.1,-192 1105.1,-190.4 1078,-189 727.44,-170.91 639.2,-177.19 289,-153 285.95,-152.79 282.86,-152.57 279.74,-152.34"/>
<polygon fill="midnightblue" stroke="midnightblue" points="1161.75,-197.08 1171.93,-194.15 1162.15,-190.09 1161.75,-197.08"/>
</g>
<!-- Node9&#45;&gt;Node3 -->
<g id="edge13" class="edge">
<title>Node9&#45;&gt;Node3</title>
<path fill="none" stroke="midnightblue" d="M1228.36,-218.02C1196.62,-226.08 1158.57,-237.45 1126,-252 1105.4,-261.2 1103.48,-269.51 1083,-279 1049.37,-294.58 1009.39,-307.06 978.73,-315.46"/>
<polygon fill="midnightblue" stroke="midnightblue" points="1229.56,-221.32 1238.42,-215.51 1227.88,-214.53 1229.56,-221.32"/>
</g>
<!-- Node9&#45;&gt;Node4 -->
<g id="edge11" class="edge">
<title>Node9&#45;&gt;Node4</title>
<path fill="none" stroke="midnightblue" d="M1161.59,-193.44C978.63,-182.29 659.3,-162.47 543,-153 540.13,-152.77 537.22,-152.52 534.29,-152.27"/>
<polygon fill="midnightblue" stroke="midnightblue" points="1161.63,-196.95 1171.82,-194.06 1162.05,-189.96 1161.63,-196.95"/>
</g>
<!-- Node9&#45;&gt;Node6 -->
<g id="edge12" class="edge">
<title>Node9&#45;&gt;Node6</title>
<path fill="none" stroke="midnightblue" d="M1172.63,-188.4C1073.23,-177.77 934.16,-162.88 837.52,-152.54"/>
<polygon fill="midnightblue" stroke="midnightblue" points="1172.41,-191.9 1182.73,-189.48 1173.16,-184.94 1172.41,-191.9"/>
</g>
<!-- Node10 -->
<g id="node10" class="node">
<title>Node10</title>
<g id="a_node10"><a xlink:href="../../d7/d7e/_app_wren_8cpp.html" target="_top" xlink:title=" ">
<polygon fill="none" stroke="black" points="2196,-63.5 2196,-89.5 2408,-89.5 2408,-63.5 2196,-63.5"/>
<text text-anchor="middle" x="2302" y="-72.7" font-family="Helvetica,sans-Serif" font-size="16.00">ERISCore/src/AppWren.cpp</text>
</a>
</g>
</g>
<!-- Node9&#45;&gt;Node10 -->
<g id="edge10" class="edge">
<title>Node9&#45;&gt;Node10</title>
<path fill="none" stroke="midnightblue" d="M1428.38,-189.23C1535.97,-185.51 2247.6,-181.81 2283,-153 2301.76,-137.73 2303.58,-106.9 2302.97,-89.74"/>
<polygon fill="midnightblue" stroke="midnightblue" points="1428,-185.74 1418.17,-189.7 1428.32,-192.74 1428,-185.74"/>
</g>
<!-- Node11 -->
<g id="node11" class="node">
<title>Node11</title>
<g id="a_node11"><a xlink:href="../../d4/d50/control_slider_8h.html" target="_top" xlink:title=" ">
<polygon fill="none" stroke="black" points="1184.5,-126.5 1184.5,-152.5 1429.5,-152.5 1429.5,-126.5 1184.5,-126.5"/>
<text text-anchor="middle" x="1307" y="-135.7" font-family="Helvetica,sans-Serif" font-size="16.00">ERISCore/include/controlSlider.h</text>
</a>
</g>
</g>
<!-- Node9&#45;&gt;Node11 -->
<g id="edge14" class="edge">
<title>Node9&#45;&gt;Node11</title>
<path fill="none" stroke="midnightblue" d="M1299.33,-179.49C1301.12,-170.4 1303.12,-160.21 1304.63,-152.53"/>
<polygon fill="midnightblue" stroke="midnightblue" points="1295.87,-178.96 1297.37,-189.45 1302.74,-180.31 1295.87,-178.96"/>
</g>
<!-- Node12 -->
<g id="node12" class="node">
<title>Node12</title>
<g id="a_node12"><a xlink:href="../../d9/db6/_app_audio_to_polyphonic_8h.html" target="_top" xlink:title="Application Example.">
<polygon fill="none" stroke="black" points="1276,-63.5 1276,-89.5 1594,-89.5 1594,-63.5 1276,-63.5"/>
<text text-anchor="middle" x="1435" y="-72.7" font-family="Helvetica,sans-Serif" font-size="16.00">ERISCore/include/AppAudioToPolyphonic.h</text>
</a>
</g>
</g>
<!-- Node9&#45;&gt;Node12 -->
<g id="edge30" class="edge">
<title>Node9&#45;&gt;Node12</title>
<path fill="none" stroke="midnightblue" d="M1395.19,-185.79C1412.37,-178.55 1428.16,-168.09 1439,-153 1452.48,-134.24 1445.53,-105.59 1439.88,-89.51"/>
<polygon fill="midnightblue" stroke="midnightblue" points="1393.62,-182.64 1385.53,-189.48 1396.12,-189.18 1393.62,-182.64"/>
</g>
<!-- Node13 -->
<g id="node13" class="node">
<title>Node13</title>
<g id="a_node13"><a xlink:href="../../d8/d1f/app_scope_8h.html" target="_top" xlink:title=" ">
<polygon fill="none" stroke="black" points="1486.5,-126.5 1486.5,-152.5 1715.5,-152.5 1715.5,-126.5 1486.5,-126.5"/>
<text text-anchor="middle" x="1601" y="-135.7" font-family="Helvetica,sans-Serif" font-size="16.00">ERISCore/include/appScope.h</text>
</a>
</g>
</g>
<!-- Node9&#45;&gt;Node13 -->
<g id="edge17" class="edge">
<title>Node9&#45;&gt;Node13</title>
<path fill="none" stroke="midnightblue" d="M1365.46,-187.45C1418.45,-176.89 1490.31,-162.57 1540.67,-152.53"/>
<polygon fill="midnightblue" stroke="midnightblue" points="1364.58,-184.06 1355.46,-189.45 1365.95,-190.93 1364.58,-184.06"/>
</g>
<!-- Node14 -->
<g id="node14" class="node">
<title>Node14</title>
<g id="a_node14"><a xlink:href="../../d3/d0e/app_template_8h.html" target="_top" xlink:title=" ">
<polygon fill="none" stroke="black" points="1612,-63.5 1612,-89.5 1860,-89.5 1860,-63.5 1612,-63.5"/>
<text text-anchor="middle" x="1736" y="-72.7" font-family="Helvetica,sans-Serif" font-size="16.00">ERISCore/include/appTemplate.h</text>
</a>
</g>
</g>
<!-- Node9&#45;&gt;Node14 -->
<g id="edge19" class="edge">
<title>Node9&#45;&gt;Node14</title>
<path fill="none" stroke="midnightblue" d="M1428.42,-189.21C1521.7,-185.12 1920.28,-194.43 1959,-153 1967.19,-144.23 1966.53,-135.34 1959,-126 1944.86,-108.45 1899.26,-96.93 1852.95,-89.53"/>
<polygon fill="midnightblue" stroke="midnightblue" points="1427.95,-185.73 1418.17,-189.81 1428.36,-192.72 1427.95,-185.73"/>
</g>
<!-- Node15 -->
<g id="node15" class="node">
<title>Node15</title>
<g id="a_node15"><a xlink:href="../../d4/d75/app_c_q_t_8h.html" target="_top" xlink:title=" ">
<polygon fill="none" stroke="black" points="1734,-126.5 1734,-152.5 1950,-152.5 1950,-126.5 1734,-126.5"/>
<text text-anchor="middle" x="1842" y="-135.7" font-family="Helvetica,sans-Serif" font-size="16.00">ERISCore/include/appCQT.h</text>
</a>
</g>
</g>
<!-- Node9&#45;&gt;Node15 -->
<g id="edge21" class="edge">
<title>Node9&#45;&gt;Node15</title>
<path fill="none" stroke="midnightblue" d="M1412.72,-188.37C1508.09,-177.74 1641.37,-162.87 1734.02,-152.54"/>
<polygon fill="midnightblue" stroke="midnightblue" points="1412.29,-184.9 1402.74,-189.48 1413.07,-191.85 1412.29,-184.9"/>
</g>
<!-- Node16 -->
<g id="node16" class="node">
<title>Node16</title>
<g id="a_node16"><a xlink:href="../../dc/ddf/control_button_8h.html" target="_top" xlink:title=" ">
<polygon fill="none" stroke="black" points="915.5,-126.5 915.5,-152.5 1166.5,-152.5 1166.5,-126.5 915.5,-126.5"/>
<text text-anchor="middle" x="1041" y="-135.7" font-family="Helvetica,sans-Serif" font-size="16.00">ERISCore/include/controlButton.h</text>
</a>
</g>
</g>
<!-- Node9&#45;&gt;Node16 -->
<g id="edge23" class="edge">
<title>Node9&#45;&gt;Node16</title>
<path fill="none" stroke="midnightblue" d="M1234.86,-187.06C1191.04,-176.53 1132.36,-162.44 1091.08,-152.53"/>
<polygon fill="midnightblue" stroke="midnightblue" points="1234.28,-190.52 1244.82,-189.45 1235.91,-183.71 1234.28,-190.52"/>
</g>
<!-- Node17 -->
<g id="node17" class="node">
<title>Node17</title>
<g id="a_node17"><a xlink:href="../../dd/d93/app_reprogram_8h.html" target="_top" xlink:title=" ">
<polygon fill="none" stroke="black" points="1878.5,-63.5 1878.5,-89.5 2139.5,-89.5 2139.5,-63.5 1878.5,-63.5"/>
<text text-anchor="middle" x="2009" y="-72.7" font-family="Helvetica,sans-Serif" font-size="16.00">ERISCore/include/appReprogram.h</text>
</a>
</g>
</g>
<!-- Node9&#45;&gt;Node17 -->
<g id="edge25" class="edge">
<title>Node9&#45;&gt;Node17</title>
<path fill="none" stroke="midnightblue" d="M1428.36,-189.16C1523.03,-184.37 1926.96,-186.34 1975,-153 1996.26,-138.25 2004.43,-106.91 2007.41,-89.61"/>
<polygon fill="midnightblue" stroke="midnightblue" points="1427.94,-185.68 1418.17,-189.8 1428.37,-192.67 1427.94,-185.68"/>
</g>
<!-- Node18 -->
<g id="node18" class="node">
<title>Node18</title>
<g id="a_node18"><a xlink:href="../../d5/d58/_app_wren_8h.html" target="_top" xlink:title=" ">
<polygon fill="none" stroke="black" points="2050.5,-126.5 2050.5,-152.5 2273.5,-152.5 2273.5,-126.5 2050.5,-126.5"/>
<text text-anchor="middle" x="2162" y="-135.7" font-family="Helvetica,sans-Serif" font-size="16.00">ERISCore/include/AppWren.h</text>
</a>
</g>
</g>
<!-- Node9&#45;&gt;Node18 -->
<g id="edge27" class="edge">
<title>Node9&#45;&gt;Node18</title>
<path fill="none" stroke="midnightblue" d="M1428.23,-189.01C1696.92,-168.58 1766.02,-173.39 2030,-153 2036.66,-152.49 2043.5,-151.93 2050.4,-151.34"/>
<polygon fill="midnightblue" stroke="midnightblue" points="1427.88,-185.52 1418.17,-189.78 1428.41,-192.5 1427.88,-185.52"/>
</g>
<!-- Node11&#45;&gt;Node12 -->
<g id="edge15" class="edge">
<title>Node11&#45;&gt;Node12</title>
<path fill="none" stroke="midnightblue" d="M1341.43,-122.09C1362.97,-111.83 1390.23,-98.84 1409.76,-89.53"/>
<polygon fill="midnightblue" stroke="midnightblue" points="1339.81,-118.99 1332.29,-126.45 1342.82,-125.31 1339.81,-118.99"/>
</g>
<!-- Node12&#45;&gt;Node5 -->
<g id="edge16" class="edge">
<title>Node12&#45;&gt;Node5</title>
<path fill="none" stroke="midnightblue" d="M1504.31,-61.45C1556.44,-50.89 1627.12,-36.57 1676.66,-26.53"/>
<polygon fill="midnightblue" stroke="midnightblue" points="1503.57,-58.03 1494.47,-63.45 1504.96,-64.89 1503.57,-58.03"/>
</g>
<!-- Node13&#45;&gt;Node12 -->
<g id="edge18" class="edge">
<title>Node13&#45;&gt;Node12</title>
<path fill="none" stroke="midnightblue" d="M1558.59,-122.91C1530.33,-112.53 1493.74,-99.09 1467.73,-89.53"/>
<polygon fill="midnightblue" stroke="midnightblue" points="1557.61,-126.28 1568.2,-126.45 1560.02,-119.71 1557.61,-126.28"/>
</g>
<!-- Node14&#45;&gt;Node5 -->
<g id="edge20" class="edge">
<title>Node14&#45;&gt;Node5</title>
<path fill="none" stroke="midnightblue" d="M1736,-53.19C1736,-44.18 1736,-34.12 1736,-26.53"/>
<polygon fill="midnightblue" stroke="midnightblue" points="1732.5,-53.45 1736,-63.45 1739.5,-53.45 1732.5,-53.45"/>
</g>
<!-- Node15&#45;&gt;Node12 -->
<g id="edge22" class="edge">
<title>Node15&#45;&gt;Node12</title>
<path fill="none" stroke="midnightblue" d="M1751.35,-124.91C1680.59,-114.31 1583.2,-99.71 1515.24,-89.53"/>
<polygon fill="midnightblue" stroke="midnightblue" points="1751.18,-128.43 1761.59,-126.45 1752.22,-121.5 1751.18,-128.43"/>
</g>
<!-- Node16&#45;&gt;Node12 -->
<g id="edge24" class="edge">
<title>Node16&#45;&gt;Node12</title>
<path fill="none" stroke="midnightblue" d="M1128.76,-124.91C1197.26,-114.31 1291.53,-99.71 1357.32,-89.53"/>
<polygon fill="midnightblue" stroke="midnightblue" points="1128.19,-121.46 1118.84,-126.45 1129.26,-128.38 1128.19,-121.46"/>
</g>
<!-- Node17&#45;&gt;Node5 -->
<g id="edge26" class="edge">
<title>Node17&#45;&gt;Node5</title>
<path fill="none" stroke="midnightblue" d="M1945.25,-61.26C1898.06,-50.71 1834.47,-36.5 1789.82,-26.53"/>
<polygon fill="midnightblue" stroke="midnightblue" points="1944.54,-64.68 1955.06,-63.45 1946.07,-57.85 1944.54,-64.68"/>
</g>
<!-- Node18&#45;&gt;Node5 -->
<g id="edge29" class="edge">
<title>Node18&#45;&gt;Node5</title>
<path fill="none" stroke="midnightblue" d="M2164.67,-116.06C2165.34,-99.04 2163.1,-76.36 2149,-63 2126.99,-42.14 1956.01,-27.77 1841.05,-20.36"/>
<polygon fill="midnightblue" stroke="midnightblue" points="2161.16,-116.05 2163.9,-126.28 2168.14,-116.57 2161.16,-116.05"/>
</g>
<!-- Node18&#45;&gt;Node10 -->
<g id="edge28" class="edge">
<title>Node18&#45;&gt;Node10</title>
<path fill="none" stroke="midnightblue" d="M2199.03,-122.37C2222.68,-112.06 2252.84,-98.92 2274.4,-89.53"/>
<polygon fill="midnightblue" stroke="midnightblue" points="2197.43,-119.25 2189.66,-126.45 2200.23,-125.66 2197.43,-119.25"/>
</g>
<!-- Node19&#45;&gt;Node1 -->
<g id="edge34" class="edge">
<title>Node19&#45;&gt;Node1</title>
<path fill="none" stroke="midnightblue" d="M1264.9,-283.8C1236.67,-299.75 1193.06,-323.64 1154,-342 1125.13,-355.57 1091.38,-369.11 1067.21,-378.42"/>
<polygon fill="midnightblue" stroke="midnightblue" points="1266.89,-286.7 1273.86,-278.72 1263.43,-280.61 1266.89,-286.7"/>
</g>
<!-- Node19&#45;&gt;Node9 -->
<g id="edge33" class="edge">
<title>Node19&#45;&gt;Node9</title>
<path fill="none" stroke="midnightblue" d="M1295,-242.19C1295,-233.18 1295,-223.12 1295,-215.53"/>
<polygon fill="midnightblue" stroke="midnightblue" points="1291.5,-242.45 1295,-252.45 1298.5,-242.45 1291.5,-242.45"/>
</g>
<!-- Node20 -->
<g id="node20" class="node">
<title>Node20</title>
<g id="a_node20"><a xlink:href="../../d1/d2c/_audio_director_8cpp.html" target="_top" xlink:title=" ">
<polygon fill="none" stroke="black" points="1436.5,-189.5 1436.5,-215.5 1679.5,-215.5 1679.5,-189.5 1436.5,-189.5"/>
<text text-anchor="middle" x="1558" y="-198.7" font-family="Helvetica,sans-Serif" font-size="16.00">ERISCore/src/AudioDirector.cpp</text>
</a>
</g>
</g>
<!-- Node19&#45;&gt;Node20 -->
<g id="edge32" class="edge">
<title>Node19&#45;&gt;Node20</title>
<path fill="none" stroke="midnightblue" d="M1356.98,-250.12C1402.39,-239.59 1463.31,-225.46 1506.15,-215.53"/>
<polygon fill="midnightblue" stroke="midnightblue" points="1355.91,-246.78 1346.96,-252.45 1357.49,-253.6 1355.91,-246.78"/>
</g>
</g>
</svg>
