<?xml version="1.0" encoding="UTF-8" standalone="no"?>
<!DOCTYPE svg PUBLIC "-//W3C//DTD SVG 1.1//EN"
 "http://www.w3.org/Graphics/SVG/1.1/DTD/svg11.dtd">
<!-- Generated by graphviz version 2.47.3 (20210619.1520)
 -->
<!-- Title: RingBuf::minSize Pages: 1 -->
<!--zoomable 170 -->
<svg id="main" version="1.1" xmlns="http://www.w3.org/2000/svg" xmlns:xlink="http://www.w3.org/1999/xlink" xml:space="preserve" onload="init(evt)">
<style type="text/css"><![CDATA[
.edge:hover path { stroke: red; }
.edge:hover polygon { stroke: red; fill: red; }
]]></style>
<script type="text/javascript"><![CDATA[
var edges = document.getElementsByTagName('g');
if (edges && edges.length) {
  for (var i=0;i<edges.length;i++) {
    if (edges[i].id.substr(0,4)=='edge') {
      edges[i].setAttribute('class','edge');
    }
  }
}
]]></script>
        <defs>
                <circle id="rim" cx="0" cy="0" r="7"/>
                <circle id="rim2" cx="0" cy="0" r="3.5"/>
                <g id="zoomPlus">
                        <use xlink:href="#rim" fill="#404040">
                                <set attributeName="fill" to="#808080" begin="zoomplus.mouseover" end="zoomplus.mouseout"/>
                        </use>
                        <path d="M-4,0h8M0,-4v8" fill="none" stroke="white" stroke-width="1.5" pointer-events="none"/>
                </g>
                <g id="zoomMin">
                        <use xlink:href="#rim" fill="#404040">
                                <set attributeName="fill" to="#808080" begin="zoomminus.mouseover" end="zoomminus.mouseout"/>
                        </use>
                        <path d="M-4,0h8" fill="none" stroke="white" stroke-width="1.5" pointer-events="none"/>
                </g>
                <g id="dirArrow">
                        <path fill="none" stroke="white" stroke-width="1.5" d="M0,-3.0v7 M-2.5,-0.5L0,-3.0L2.5,-0.5"/>
                </g>
               <g id="resetDef">
                       <use xlink:href="#rim2" fill="#404040">
                               <set attributeName="fill" to="#808080" begin="reset.mouseover" end="reset.mouseout"/>
                       </use>
               </g>
        </defs>

<script type="text/javascript">
var viewWidth = 550;
var viewHeight = 170;
var sectionId = 'dynsection-8';
</script>
<script xlink:href="../../svgpan.js"/>
<svg id="graph" class="graph">
<g id="viewport">
<title>RingBuf::minSize</title>
<polygon fill="white" stroke="transparent" points="-4,4 -4,-166 546,-166 546,4 -4,4"/>
<!-- Node1 -->
<g id="node1" class="node">
<title>Node1</title>
<g id="a_node1"><a xlink:title=" ">
<polygon fill="#bfbfbf" stroke="black" points="436,-60.5 436,-81.5 542,-81.5 542,-60.5 436,-60.5"/>
<text text-anchor="middle" x="489" y="-67.9" font-family="Helvetica,sans-Serif" font-size="12.00">RingBuf::minSize</text>
</a>
</g>
</g>
<!-- Node2 -->
<g id="node2" class="node">
<title>Node2</title>
<g id="a_node2"><a xlink:href="../../dc/d6f/class_ring_buf.html#a07398e3e35c726583550c15c8485d643" target="_top" xlink:title=" ">
<polygon fill="white" stroke="black" points="279,-120.5 279,-141.5 395,-141.5 395,-120.5 279,-120.5"/>
<text text-anchor="middle" x="337" y="-127.9" font-family="Helvetica,sans-Serif" font-size="12.00">RingBuf::memcpyIn</text>
</a>
</g>
</g>
<!-- Node1&#45;&gt;Node2 -->
<g id="edge1" class="edge">
<title>Node1&#45;&gt;Node2</title>
<path fill="none" stroke="midnightblue" d="M457.3,-86C440.56,-93.91 419.36,-103.5 400,-111 391.35,-114.35 381.88,-117.6 373,-120.48"/>
<polygon fill="midnightblue" stroke="midnightblue" points="459.08,-89.03 466.6,-81.56 456.06,-82.71 459.08,-89.03"/>
</g>
<!-- Node7 -->
<g id="node6" class="node">
<title>Node7</title>
<g id="a_node6"><a xlink:href="../../dc/d6f/class_ring_buf.html#ab37dd9f3cec4713e561f6f9057a73770" target="_top" xlink:title=" ">
<polygon fill="white" stroke="black" points="274,-80.5 274,-101.5 400,-101.5 400,-80.5 274,-80.5"/>
<text text-anchor="middle" x="337" y="-87.9" font-family="Helvetica,sans-Serif" font-size="12.00">RingBuf::memcpyOut</text>
</a>
</g>
</g>
<!-- Node1&#45;&gt;Node7 -->
<g id="edge5" class="edge">
<title>Node1&#45;&gt;Node7</title>
<path fill="none" stroke="midnightblue" d="M426.01,-79.26C417.43,-80.41 408.6,-81.59 400.01,-82.73"/>
<polygon fill="midnightblue" stroke="midnightblue" points="426.51,-82.73 435.96,-77.94 425.58,-75.79 426.51,-82.73"/>
</g>
<!-- Node8 -->
<g id="node7" class="node">
<title>Node8</title>
<g id="a_node7"><a xlink:href="../../dc/d6f/class_ring_buf.html#a60f4cd44371930a700dbb82aba025557" target="_top" xlink:title=" ">
<polygon fill="white" stroke="black" points="289,-40.5 289,-61.5 385,-61.5 385,-40.5 289,-40.5"/>
<text text-anchor="middle" x="337" y="-47.9" font-family="Helvetica,sans-Serif" font-size="12.00">RingBuf::readIn</text>
</a>
</g>
</g>
<!-- Node1&#45;&gt;Node8 -->
<g id="edge6" class="edge">
<title>Node1&#45;&gt;Node8</title>
<path fill="none" stroke="midnightblue" d="M425.78,-62.7C412.3,-60.91 398.24,-59.03 385.43,-57.32"/>
<polygon fill="midnightblue" stroke="midnightblue" points="425.58,-66.21 435.96,-64.06 426.51,-59.27 425.58,-66.21"/>
</g>
<!-- Node9 -->
<g id="node8" class="node">
<title>Node9</title>
<g id="a_node8"><a xlink:href="../../dc/d6f/class_ring_buf.html#a3ab8d4f4b7bc833018fe4db182660051" target="_top" xlink:title=" ">
<polygon fill="white" stroke="black" points="283.5,-0.5 283.5,-21.5 390.5,-21.5 390.5,-0.5 283.5,-0.5"/>
<text text-anchor="middle" x="337" y="-7.9" font-family="Helvetica,sans-Serif" font-size="12.00">RingBuf::writeOut</text>
</a>
</g>
</g>
<!-- Node1&#45;&gt;Node9 -->
<g id="edge7" class="edge">
<title>Node1&#45;&gt;Node9</title>
<path fill="none" stroke="midnightblue" d="M457.3,-56C440.56,-48.09 419.36,-38.5 400,-31 391.35,-27.65 381.88,-24.4 373,-21.52"/>
<polygon fill="midnightblue" stroke="midnightblue" points="456.06,-59.29 466.6,-60.44 459.08,-52.97 456.06,-59.29"/>
</g>
<!-- Node3 -->
<g id="node3" class="node">
<title>Node3</title>
<g id="a_node3"><a xlink:href="../../dc/d6f/class_ring_buf.html#a631795a0a58d0ae556bb45d985e36efa" target="_top" xlink:title=" ">
<polygon fill="white" stroke="black" points="149,-120.5 149,-141.5 238,-141.5 238,-120.5 149,-120.5"/>
<text text-anchor="middle" x="193.5" y="-127.9" font-family="Helvetica,sans-Serif" font-size="12.00">RingBuf::write</text>
</a>
</g>
</g>
<!-- Node2&#45;&gt;Node3 -->
<g id="edge2" class="edge">
<title>Node2&#45;&gt;Node3</title>
<path fill="none" stroke="midnightblue" d="M268.63,-131C258.35,-131 247.97,-131 238.36,-131"/>
<polygon fill="midnightblue" stroke="midnightblue" points="268.85,-134.5 278.85,-131 268.85,-127.5 268.85,-134.5"/>
</g>
<!-- Node4 -->
<g id="node4" class="node">
<title>Node4</title>
<g id="a_node4"><a xlink:href="../../dc/d6f/class_ring_buf.html#a9d8e7b608007ec4c83a829039595b64c" target="_top" xlink:title=" ">
<polygon fill="white" stroke="red" points="0,-140.5 0,-161.5 113,-161.5 113,-140.5 0,-140.5"/>
<text text-anchor="middle" x="56.5" y="-147.9" font-family="Helvetica,sans-Serif" font-size="12.00">RingBuf::printField</text>
</a>
</g>
</g>
<!-- Node3&#45;&gt;Node4 -->
<g id="edge3" class="edge">
<title>Node3&#45;&gt;Node4</title>
<path fill="none" stroke="midnightblue" d="M138.71,-138.97C130.39,-140.2 121.79,-141.48 113.43,-142.71"/>
<polygon fill="midnightblue" stroke="midnightblue" points="139.29,-142.42 148.67,-137.49 138.26,-135.5 139.29,-142.42"/>
</g>
<!-- Node6 -->
<g id="node5" class="node">
<title>Node6</title>
<g id="a_node5"><a xlink:href="../../dc/d6f/class_ring_buf.html#af0f1eb780920d4c32c500ad0f6a6ed05" target="_top" xlink:title=" ">
<polygon fill="white" stroke="black" points="12,-100.5 12,-121.5 101,-121.5 101,-100.5 12,-100.5"/>
<text text-anchor="middle" x="56.5" y="-107.9" font-family="Helvetica,sans-Serif" font-size="12.00">RingBuf::write</text>
</a>
</g>
</g>
<!-- Node3&#45;&gt;Node6 -->
<g id="edge4" class="edge">
<title>Node3&#45;&gt;Node6</title>
<path fill="none" stroke="midnightblue" d="M138.44,-122.99C126.04,-121.15 113.01,-119.22 101.11,-117.46"/>
<polygon fill="midnightblue" stroke="midnightblue" points="138.26,-126.5 148.67,-124.51 139.29,-119.58 138.26,-126.5"/>
</g>
<!-- Node10 -->
<g id="node9" class="node">
<title>Node10</title>
<g id="a_node9"><a xlink:href="../../dc/d6f/class_ring_buf.html#ac5b3197c6fe27f0336373098ade09d5e" target="_top" xlink:title=" ">
<polygon fill="white" stroke="black" points="150,-0.5 150,-21.5 237,-21.5 237,-0.5 150,-0.5"/>
<text text-anchor="middle" x="193.5" y="-7.9" font-family="Helvetica,sans-Serif" font-size="12.00">RingBuf::sync</text>
</a>
</g>
</g>
<!-- Node9&#45;&gt;Node10 -->
<g id="edge8" class="edge">
<title>Node9&#45;&gt;Node10</title>
<path fill="none" stroke="midnightblue" d="M273.17,-11C260.96,-11 248.44,-11 237.08,-11"/>
<polygon fill="midnightblue" stroke="midnightblue" points="273.31,-14.5 283.31,-11 273.31,-7.5 273.31,-14.5"/>
</g>
</g>
</svg>
        <g id="navigator" transform="translate(0 0)" fill="#404254">
                <rect fill="#f2f5e9" fill-opacity="0.5" stroke="#606060" stroke-width=".5" x="0" y="0" width="60" height="60"/>
                <use id="zoomplus" xlink:href="#zoomPlus" x="17" y="9" onmousedown="handleZoom(evt,'in')"/>
                <use id="zoomminus" xlink:href="#zoomMin" x="42" y="9" onmousedown="handleZoom(evt,'out')"/>
                <use id="reset" xlink:href="#resetDef" x="30" y="36" onmousedown="handleReset()"/>
                <g id="arrowUp" xlink:href="#dirArrow" transform="translate(30 24)" onmousedown="handlePan(0,-1)">
                  <use xlink:href="#rim" fill="#404040">
                        <set attributeName="fill" to="#808080" begin="arrowUp.mouseover" end="arrowUp.mouseout"/>
                  </use>
                  <path fill="none" stroke="white" stroke-width="1.5" d="M0,-3.0v7 M-2.5,-0.5L0,-3.0L2.5,-0.5"/>
                </g>
                <g id="arrowRight" xlink:href="#dirArrow" transform="rotate(90) translate(36 -43)" onmousedown="handlePan(1,0)">
                  <use xlink:href="#rim" fill="#404040">
                        <set attributeName="fill" to="#808080" begin="arrowRight.mouseover" end="arrowRight.mouseout"/>
                  </use>
                  <path fill="none" stroke="white" stroke-width="1.5" d="M0,-3.0v7 M-2.5,-0.5L0,-3.0L2.5,-0.5"/>
                </g>
                <g id="arrowDown" xlink:href="#dirArrow" transform="rotate(180) translate(-30 -48)" onmousedown="handlePan(0,1)">
                  <use xlink:href="#rim" fill="#404040">
                        <set attributeName="fill" to="#808080" begin="arrowDown.mouseover" end="arrowDown.mouseout"/>
                  </use>
                  <path fill="none" stroke="white" stroke-width="1.5" d="M0,-3.0v7 M-2.5,-0.5L0,-3.0L2.5,-0.5"/>
                </g>
                <g id="arrowLeft" xlink:href="#dirArrow" transform="rotate(270) translate(-36 17)" onmousedown="handlePan(-1,0)">
                  <use xlink:href="#rim" fill="#404040">
                        <set attributeName="fill" to="#808080" begin="arrowLeft.mouseover" end="arrowLeft.mouseout"/>
                  </use>
                  <path fill="none" stroke="white" stroke-width="1.5" d="M0,-3.0v7 M-2.5,-0.5L0,-3.0L2.5,-0.5"/>
                </g>
        </g>
        <svg viewBox="0 0 15 15" width="100%" height="30px" preserveAspectRatio="xMaxYMin meet">
         <g id="arrow_out" transform="scale(0.3 0.3)">
          <a xlink:href="class_ring_buf_a65239300614a9f6eedde389de2801e99_icgraph_org.svg" target="_base">
           <rect id="button" ry="5" rx="5" y="6" x="6" height="38" width="38"
                fill="#f2f5e9" fill-opacity="0.5" stroke="#606060" stroke-width="1.0"/>
           <path id="arrow"
             d="M 11.500037,31.436501 C 11.940474,20.09759 22.043105,11.32322 32.158766,21.979434 L 37.068811,17.246167 C 37.068811,17.246167 37.088388,32 37.088388,32 L 22.160133,31.978069 C 22.160133,31.978069 26.997745,27.140456 26.997745,27.140456 C 18.528582,18.264221 13.291696,25.230495 11.500037,31.436501 z"
             style="fill:#404040;"/>
          </a>
         </g>
        </svg>
</svg>
