<?xml version="1.0" encoding="UTF-8" standalone="no"?>
<!DOCTYPE svg PUBLIC "-//W3C//DTD SVG 1.1//EN"
 "http://www.w3.org/Graphics/SVG/1.1/DTD/svg11.dtd">
<!-- Generated by graphviz version 2.47.3 (20210619.1520)
 -->
<!-- Title: RingBuf::printField Pages: 1 -->
<!--zoomable 150 -->
<svg id="main" version="1.1" xmlns="http://www.w3.org/2000/svg" xmlns:xlink="http://www.w3.org/1999/xlink" xml:space="preserve" onload="init(evt)">
<style type="text/css"><![CDATA[
.edge:hover path { stroke: red; }
.edge:hover polygon { stroke: red; fill: red; }
]]></style>
<script type="text/javascript"><![CDATA[
var edges = document.getElementsByTagName('g');
if (edges && edges.length) {
  for (var i=0;i<edges.length;i++) {
    if (edges[i].id.substr(0,4)=='edge') {
      edges[i].setAttribute('class','edge');
    }
  }
}
]]></script>
        <defs>
                <circle id="rim" cx="0" cy="0" r="7"/>
                <circle id="rim2" cx="0" cy="0" r="3.5"/>
                <g id="zoomPlus">
                        <use xlink:href="#rim" fill="#404040">
                                <set attributeName="fill" to="#808080" begin="zoomplus.mouseover" end="zoomplus.mouseout"/>
                        </use>
                        <path d="M-4,0h8M0,-4v8" fill="none" stroke="white" stroke-width="1.5" pointer-events="none"/>
                </g>
                <g id="zoomMin">
                        <use xlink:href="#rim" fill="#404040">
                                <set attributeName="fill" to="#808080" begin="zoomminus.mouseover" end="zoomminus.mouseout"/>
                        </use>
                        <path d="M-4,0h8" fill="none" stroke="white" stroke-width="1.5" pointer-events="none"/>
                </g>
                <g id="dirArrow">
                        <path fill="none" stroke="white" stroke-width="1.5" d="M0,-3.0v7 M-2.5,-0.5L0,-3.0L2.5,-0.5"/>
                </g>
               <g id="resetDef">
                       <use xlink:href="#rim2" fill="#404040">
                               <set attributeName="fill" to="#808080" begin="reset.mouseover" end="reset.mouseout"/>
                       </use>
               </g>
        </defs>

<script type="text/javascript">
var viewWidth = 691;
var viewHeight = 150;
var sectionId = 'dynsection-11';
</script>
<script xlink:href="../../svgpan.js"/>
<svg id="graph" class="graph">
<g id="viewport">
<title>RingBuf::printField</title>
<polygon fill="white" stroke="transparent" points="-4,4 -4,-146 687,-146 687,4 -4,4"/>
<!-- Node1 -->
<g id="node1" class="node">
<title>Node1</title>
<g id="a_node1"><a xlink:title=" ">
<polygon fill="#bfbfbf" stroke="black" points="0,-100.5 0,-121.5 113,-121.5 113,-100.5 0,-100.5"/>
<text text-anchor="middle" x="56.5" y="-107.9" font-family="Helvetica,sans-Serif" font-size="12.00">RingBuf::printField</text>
</a>
</g>
</g>
<!-- Node2 -->
<g id="node2" class="node">
<title>Node2</title>
<g id="a_node2"><a xlink:href="../../dc/d6f/class_ring_buf.html#a9d8e7b608007ec4c83a829039595b64c" target="_top" xlink:title=" ">
<polygon fill="white" stroke="black" points="149,-100.5 149,-121.5 262,-121.5 262,-100.5 149,-100.5"/>
<text text-anchor="middle" x="205.5" y="-107.9" font-family="Helvetica,sans-Serif" font-size="12.00">RingBuf::printField</text>
</a>
</g>
</g>
<!-- Node1&#45;&gt;Node2 -->
<g id="edge1" class="edge">
<title>Node1&#45;&gt;Node2</title>
<path fill="none" stroke="midnightblue" d="M113.07,-111C121.49,-111 130.24,-111 138.84,-111"/>
<polygon fill="midnightblue" stroke="midnightblue" points="138.85,-114.5 148.85,-111 138.85,-107.5 138.85,-114.5"/>
</g>
<!-- Node3 -->
<g id="node3" class="node">
<title>Node3</title>
<g id="a_node3"><a xlink:href="../../d8/d73/_fmt_number_8cpp.html#a29e6f245d52c13dc1b1d0ed44eac22b0" target="_top" xlink:title=" ">
<polygon fill="white" stroke="black" points="307.5,-120.5 307.5,-141.5 377.5,-141.5 377.5,-120.5 307.5,-120.5"/>
<text text-anchor="middle" x="342.5" y="-127.9" font-family="Helvetica,sans-Serif" font-size="12.00">fmtDouble</text>
</a>
</g>
</g>
<!-- Node2&#45;&gt;Node3 -->
<g id="edge2" class="edge">
<title>Node2&#45;&gt;Node3</title>
<path fill="none" stroke="midnightblue" d="M262.19,-119.25C273.87,-120.98 286.03,-122.78 297.23,-124.44"/>
<polygon fill="midnightblue" stroke="midnightblue" points="296.79,-127.91 307.19,-125.92 297.81,-120.99 296.79,-127.91"/>
</g>
<!-- Node5 -->
<g id="node5" class="node">
<title>Node5</title>
<g id="a_node5"><a xlink:href="../../dc/d6f/class_ring_buf.html#a631795a0a58d0ae556bb45d985e36efa" target="_top" xlink:title=" ">
<polygon fill="white" stroke="black" points="298,-80.5 298,-101.5 387,-101.5 387,-80.5 298,-80.5"/>
<text text-anchor="middle" x="342.5" y="-87.9" font-family="Helvetica,sans-Serif" font-size="12.00">RingBuf::write</text>
</a>
</g>
</g>
<!-- Node2&#45;&gt;Node5 -->
<g id="edge4" class="edge">
<title>Node2&#45;&gt;Node5</title>
<path fill="none" stroke="midnightblue" d="M262.19,-102.75C270.66,-101.5 279.38,-100.2 287.81,-98.95"/>
<polygon fill="midnightblue" stroke="midnightblue" points="288.52,-102.39 297.9,-97.46 287.49,-95.46 288.52,-102.39"/>
</g>
<!-- Node4 -->
<g id="node4" class="node">
<title>Node4</title>
<g id="a_node4"><a xlink:href="../../d8/d73/_fmt_number_8cpp.html#aa87498a09d9a7d0480d5144c240e38f7" target="_top" xlink:title=" ">
<polygon fill="white" stroke="black" points="444,-120.5 444,-141.5 518,-141.5 518,-120.5 444,-120.5"/>
<text text-anchor="middle" x="481" y="-127.9" font-family="Helvetica,sans-Serif" font-size="12.00">fmtBase10</text>
</a>
</g>
</g>
<!-- Node3&#45;&gt;Node4 -->
<g id="edge3" class="edge">
<title>Node3&#45;&gt;Node4</title>
<path fill="none" stroke="midnightblue" d="M377.59,-131C394.57,-131 415.35,-131 433.74,-131"/>
<polygon fill="midnightblue" stroke="midnightblue" points="433.96,-134.5 443.96,-131 433.96,-127.5 433.96,-134.5"/>
</g>
<!-- Node6 -->
<g id="node6" class="node">
<title>Node6</title>
<g id="a_node6"><a xlink:href="../../dc/d6f/class_ring_buf.html#a51ad572d21641613eb0204d7b0e5321c" target="_top" xlink:title=" ">
<polygon fill="white" stroke="black" points="423,-80.5 423,-101.5 539,-101.5 539,-80.5 423,-80.5"/>
<text text-anchor="middle" x="481" y="-87.9" font-family="Helvetica,sans-Serif" font-size="12.00">RingBuf::bytesFree</text>
</a>
</g>
</g>
<!-- Node5&#45;&gt;Node6 -->
<g id="edge5" class="edge">
<title>Node5&#45;&gt;Node6</title>
<path fill="none" stroke="midnightblue" d="M387.06,-91C395.25,-91 403.99,-91 412.7,-91"/>
<polygon fill="midnightblue" stroke="midnightblue" points="412.89,-94.5 422.89,-91 412.89,-87.5 412.89,-94.5"/>
</g>
<!-- Node7 -->
<g id="node7" class="node">
<title>Node7</title>
<g id="a_node7"><a xlink:href="../../dc/d6f/class_ring_buf.html#a07398e3e35c726583550c15c8485d643" target="_top" xlink:title=" ">
<polygon fill="white" stroke="black" points="423,-40.5 423,-61.5 539,-61.5 539,-40.5 423,-40.5"/>
<text text-anchor="middle" x="481" y="-47.9" font-family="Helvetica,sans-Serif" font-size="12.00">RingBuf::memcpyIn</text>
</a>
</g>
</g>
<!-- Node5&#45;&gt;Node7 -->
<g id="edge6" class="edge">
<title>Node5&#45;&gt;Node7</title>
<path fill="none" stroke="midnightblue" d="M379.36,-80.49C396.16,-75.57 416.36,-69.65 434.24,-64.41"/>
<polygon fill="midnightblue" stroke="midnightblue" points="435.29,-67.75 443.9,-61.58 433.32,-61.03 435.29,-67.75"/>
</g>
<!-- Node8 -->
<g id="node8" class="node">
<title>Node8</title>
<g id="a_node8"><a xlink:href="../../dc/d6f/class_ring_buf.html#a4bd4aae54989ff8569275ce793bc57a5" target="_top" xlink:title=" ">
<polygon fill="white" stroke="black" points="575,-80.5 575,-101.5 683,-101.5 683,-80.5 575,-80.5"/>
<text text-anchor="middle" x="629" y="-87.9" font-family="Helvetica,sans-Serif" font-size="12.00">RingBuf::advance</text>
</a>
</g>
</g>
<!-- Node7&#45;&gt;Node8 -->
<g id="edge7" class="edge">
<title>Node7&#45;&gt;Node8</title>
<path fill="none" stroke="midnightblue" d="M520.36,-61.51C538.56,-66.5 560.51,-72.51 579.82,-77.8"/>
<polygon fill="midnightblue" stroke="midnightblue" points="579.07,-81.22 589.64,-80.49 580.92,-74.47 579.07,-81.22"/>
</g>
<!-- Node9 -->
<g id="node9" class="node">
<title>Node9</title>
<g id="a_node9"><a xlink:href="../../d9/d2a/_ring_buf_8h.html#a8112ba67de4780dcde4812be345dd6bb" target="_top" xlink:title=" ">
<polygon fill="white" stroke="black" points="590,-40.5 590,-61.5 668,-61.5 668,-40.5 590,-40.5"/>
<text text-anchor="middle" x="629" y="-47.9" font-family="Helvetica,sans-Serif" font-size="12.00">memcpyBuf</text>
</a>
</g>
</g>
<!-- Node7&#45;&gt;Node9 -->
<g id="edge8" class="edge">
<title>Node7&#45;&gt;Node9</title>
<path fill="none" stroke="midnightblue" d="M539.28,-51C552.65,-51 566.75,-51 579.68,-51"/>
<polygon fill="midnightblue" stroke="midnightblue" points="579.76,-54.5 589.76,-51 579.76,-47.5 579.76,-54.5"/>
</g>
<!-- Node10 -->
<g id="node10" class="node">
<title>Node10</title>
<g id="a_node10"><a xlink:href="../../dc/d6f/class_ring_buf.html#a65239300614a9f6eedde389de2801e99" target="_top" xlink:title=" ">
<polygon fill="white" stroke="black" points="576,-0.5 576,-21.5 682,-21.5 682,-0.5 576,-0.5"/>
<text text-anchor="middle" x="629" y="-7.9" font-family="Helvetica,sans-Serif" font-size="12.00">RingBuf::minSize</text>
</a>
</g>
</g>
<!-- Node7&#45;&gt;Node10 -->
<g id="edge9" class="edge">
<title>Node7&#45;&gt;Node10</title>
<path fill="none" stroke="midnightblue" d="M520.36,-40.49C538.56,-35.5 560.51,-29.49 579.82,-24.2"/>
<polygon fill="midnightblue" stroke="midnightblue" points="580.92,-27.53 589.64,-21.51 579.07,-20.78 580.92,-27.53"/>
</g>
</g>
</svg>
        <g id="navigator" transform="translate(0 0)" fill="#404254">
                <rect fill="#f2f5e9" fill-opacity="0.5" stroke="#606060" stroke-width=".5" x="0" y="0" width="60" height="60"/>
                <use id="zoomplus" xlink:href="#zoomPlus" x="17" y="9" onmousedown="handleZoom(evt,'in')"/>
                <use id="zoomminus" xlink:href="#zoomMin" x="42" y="9" onmousedown="handleZoom(evt,'out')"/>
                <use id="reset" xlink:href="#resetDef" x="30" y="36" onmousedown="handleReset()"/>
                <g id="arrowUp" xlink:href="#dirArrow" transform="translate(30 24)" onmousedown="handlePan(0,-1)">
                  <use xlink:href="#rim" fill="#404040">
                        <set attributeName="fill" to="#808080" begin="arrowUp.mouseover" end="arrowUp.mouseout"/>
                  </use>
                  <path fill="none" stroke="white" stroke-width="1.5" d="M0,-3.0v7 M-2.5,-0.5L0,-3.0L2.5,-0.5"/>
                </g>
                <g id="arrowRight" xlink:href="#dirArrow" transform="rotate(90) translate(36 -43)" onmousedown="handlePan(1,0)">
                  <use xlink:href="#rim" fill="#404040">
                        <set attributeName="fill" to="#808080" begin="arrowRight.mouseover" end="arrowRight.mouseout"/>
                  </use>
                  <path fill="none" stroke="white" stroke-width="1.5" d="M0,-3.0v7 M-2.5,-0.5L0,-3.0L2.5,-0.5"/>
                </g>
                <g id="arrowDown" xlink:href="#dirArrow" transform="rotate(180) translate(-30 -48)" onmousedown="handlePan(0,1)">
                  <use xlink:href="#rim" fill="#404040">
                        <set attributeName="fill" to="#808080" begin="arrowDown.mouseover" end="arrowDown.mouseout"/>
                  </use>
                  <path fill="none" stroke="white" stroke-width="1.5" d="M0,-3.0v7 M-2.5,-0.5L0,-3.0L2.5,-0.5"/>
                </g>
                <g id="arrowLeft" xlink:href="#dirArrow" transform="rotate(270) translate(-36 17)" onmousedown="handlePan(-1,0)">
                  <use xlink:href="#rim" fill="#404040">
                        <set attributeName="fill" to="#808080" begin="arrowLeft.mouseover" end="arrowLeft.mouseout"/>
                  </use>
                  <path fill="none" stroke="white" stroke-width="1.5" d="M0,-3.0v7 M-2.5,-0.5L0,-3.0L2.5,-0.5"/>
                </g>
        </g>
        <svg viewBox="0 0 15 15" width="100%" height="30px" preserveAspectRatio="xMaxYMin meet">
         <g id="arrow_out" transform="scale(0.3 0.3)">
          <a xlink:href="class_ring_buf_a87b5e4498705642d88412f11bf1ef5dd_cgraph_org.svg" target="_base">
           <rect id="button" ry="5" rx="5" y="6" x="6" height="38" width="38"
                fill="#f2f5e9" fill-opacity="0.5" stroke="#606060" stroke-width="1.0"/>
           <path id="arrow"
             d="M 11.500037,31.436501 C 11.940474,20.09759 22.043105,11.32322 32.158766,21.979434 L 37.068811,17.246167 C 37.068811,17.246167 37.088388,32 37.088388,32 L 22.160133,31.978069 C 22.160133,31.978069 26.997745,27.140456 26.997745,27.140456 C 18.528582,18.264221 13.291696,25.230495 11.500037,31.436501 z"
             style="fill:#404040;"/>
          </a>
         </g>
        </svg>
</svg>
