<?xml version="1.0" encoding="UTF-8" standalone="no"?>
<!DOCTYPE svg PUBLIC "-//W3C//DTD SVG 1.1//EN"
 "http://www.w3.org/Graphics/SVG/1.1/DTD/svg11.dtd">
<!-- Generated by graphviz version 2.47.3 (20210619.1520)
 -->
<!-- Title: FsBaseFile::exists Pages: 1 -->
<svg width="735pt" height="266pt"
 viewBox="0.00 0.00 735.00 266.00" xmlns="http://www.w3.org/2000/svg" xmlns:xlink="http://www.w3.org/1999/xlink">
<g id="graph0" class="graph" transform="scale(1 1) rotate(0) translate(4 262)">
<title>FsBaseFile::exists</title>
<polygon fill="white" stroke="transparent" points="-4,4 -4,-262 731,-262 731,4 -4,4"/>
<!-- Node1 -->
<g id="node1" class="node">
<title>Node1</title>
<g id="a_node1"><a xlink:title=" ">
<polygon fill="#bfbfbf" stroke="black" points="0,-69.5 0,-90.5 113,-90.5 113,-69.5 0,-69.5"/>
<text text-anchor="middle" x="56.5" y="-76.9" font-family="Helvetica,sans-Serif" font-size="12.00">FsBaseFile::exists</text>
</a>
</g>
</g>
<!-- Node2 -->
<g id="node2" class="node">
<title>Node2</title>
<g id="a_node2"><a xlink:href="../../d5/d14/class_ex_fat_file.html#a32df2d7ac56a76a647cedf4192ac9abe" target="_top" xlink:title=" ">
<polygon fill="white" stroke="black" points="149,-109.5 149,-130.5 252,-130.5 252,-109.5 149,-109.5"/>
<text text-anchor="middle" x="200.5" y="-116.9" font-family="Helvetica,sans-Serif" font-size="12.00">ExFatFile::exists</text>
</a>
</g>
</g>
<!-- Node1&#45;&gt;Node2 -->
<g id="edge1" class="edge">
<title>Node1&#45;&gt;Node2</title>
<path fill="none" stroke="midnightblue" d="M94.81,-90.51C112.36,-95.45 133.49,-101.41 152.16,-106.66"/>
<polygon fill="midnightblue" stroke="midnightblue" points="151.37,-110.08 161.95,-109.42 153.27,-103.34 151.37,-110.08"/>
</g>
<!-- Node99 -->
<g id="node10" class="node">
<title>Node99</title>
<g id="a_node10"><a xlink:href="../../d3/d51/class_fat_file.html#a50242f98dea0d4488ce4039a279f2a57" target="_top" xlink:title=" ">
<polygon fill="white" stroke="black" points="156,-49.5 156,-70.5 245,-70.5 245,-49.5 156,-49.5"/>
<text text-anchor="middle" x="200.5" y="-56.9" font-family="Helvetica,sans-Serif" font-size="12.00">FatFile::exists</text>
</a>
</g>
</g>
<!-- Node1&#45;&gt;Node99 -->
<g id="edge12" class="edge">
<title>Node1&#45;&gt;Node99</title>
<path fill="none" stroke="midnightblue" d="M113.21,-72.15C123.93,-70.64 135.14,-69.07 145.79,-67.57"/>
<polygon fill="midnightblue" stroke="midnightblue" points="146.38,-71.02 155.8,-66.16 145.41,-64.08 146.38,-71.02"/>
</g>
<!-- Node3 -->
<g id="node3" class="node">
<title>Node3</title>
<g id="a_node3"><a xlink:href="../../d5/d14/class_ex_fat_file.html#a354ba015486119b46be89b10ef200d27" target="_top" xlink:title=" ">
<polygon fill="white" stroke="black" points="288,-119.5 288,-140.5 387,-140.5 387,-119.5 288,-119.5"/>
<text text-anchor="middle" x="337.5" y="-126.9" font-family="Helvetica,sans-Serif" font-size="12.00">ExFatFile::open</text>
</a>
</g>
</g>
<!-- Node2&#45;&gt;Node3 -->
<g id="edge2" class="edge">
<title>Node2&#45;&gt;Node3</title>
<path fill="none" stroke="midnightblue" d="M252.15,-123.75C260.45,-124.37 269.11,-125.01 277.59,-125.64"/>
<polygon fill="midnightblue" stroke="midnightblue" points="277.57,-129.14 287.8,-126.39 278.09,-122.16 277.57,-129.14"/>
</g>
<!-- Node4 -->
<g id="node4" class="node">
<title>Node4</title>
<g id="a_node4"><a xlink:href="../../d5/d14/class_ex_fat_file.html#a7ba9e04099bdf8fd34220ebfdde72867" target="_top" xlink:title=" ">
<polygon fill="white" stroke="red" points="451.5,-236.5 451.5,-257.5 552.5,-257.5 552.5,-236.5 451.5,-236.5"/>
<text text-anchor="middle" x="502" y="-243.9" font-family="Helvetica,sans-Serif" font-size="12.00">ExFatFile::close</text>
</a>
</g>
</g>
<!-- Node3&#45;&gt;Node4 -->
<g id="edge3" class="edge">
<title>Node3&#45;&gt;Node4</title>
<path fill="none" stroke="midnightblue" d="M345.53,-140.76C358.56,-159.87 388.29,-199.8 423,-222 429.81,-226.36 437.45,-230.01 445.21,-233.06"/>
<polygon fill="midnightblue" stroke="midnightblue" points="444.09,-236.38 454.68,-236.49 446.47,-229.8 444.09,-236.38"/>
</g>
<!-- Node52 -->
<g id="node5" class="node">
<title>Node52</title>
<g id="a_node5"><a xlink:href="../../d5/d14/class_ex_fat_file.html#ad0a3687bd95bed5b216651335e66b500" target="_top" xlink:title=" ">
<polygon fill="white" stroke="black" points="623,-178.5 623,-199.5 721,-199.5 721,-178.5 623,-178.5"/>
<text text-anchor="middle" x="672" y="-185.9" font-family="Helvetica,sans-Serif" font-size="12.00">ExFatFile::isDir</text>
</a>
</g>
</g>
<!-- Node3&#45;&gt;Node52 -->
<g id="edge4" class="edge">
<title>Node3&#45;&gt;Node52</title>
<path fill="none" stroke="midnightblue" d="M349.3,-140.92C364.29,-155.21 392.96,-179.55 423,-189 485.44,-208.64 561.18,-204.95 612.4,-198.72"/>
<polygon fill="midnightblue" stroke="midnightblue" points="613.16,-202.15 622.63,-197.4 612.26,-195.21 613.16,-202.15"/>
</g>
<!-- Node32 -->
<g id="node6" class="node">
<title>Node32</title>
<g id="a_node6"><a xlink:href="../../d5/d14/class_ex_fat_file.html#a804c34bbe3ebefe2b6c1d77ff8d49a35" target="_top" xlink:title=" ">
<polygon fill="white" stroke="black" points="617,-119.5 617,-140.5 727,-140.5 727,-119.5 617,-119.5"/>
<text text-anchor="middle" x="672" y="-126.9" font-family="Helvetica,sans-Serif" font-size="12.00">ExFatFile::isOpen</text>
</a>
</g>
</g>
<!-- Node3&#45;&gt;Node32 -->
<g id="edge5" class="edge">
<title>Node3&#45;&gt;Node32</title>
<path fill="none" stroke="midnightblue" d="M387.2,-130C445.33,-130 542.72,-130 606.91,-130"/>
<polygon fill="midnightblue" stroke="midnightblue" points="606.92,-133.5 616.92,-130 606.92,-126.5 606.92,-133.5"/>
</g>
<!-- Node53 -->
<g id="node7" class="node">
<title>Node53</title>
<g id="a_node7"><a xlink:href="../../d5/d14/class_ex_fat_file.html#a531de6eac70b708a3fefd96e25506016" target="_top" xlink:title=" ">
<polygon fill="white" stroke="red" points="434,-158.5 434,-179.5 570,-179.5 570,-158.5 434,-158.5"/>
<text text-anchor="middle" x="502" y="-165.9" font-family="Helvetica,sans-Serif" font-size="12.00">ExFatFile::openPrivate</text>
</a>
</g>
</g>
<!-- Node3&#45;&gt;Node53 -->
<g id="edge6" class="edge">
<title>Node3&#45;&gt;Node53</title>
<path fill="none" stroke="midnightblue" d="M382.47,-140.55C402.44,-145.34 426.23,-151.06 447.24,-156.1"/>
<polygon fill="midnightblue" stroke="midnightblue" points="446.45,-159.51 456.99,-158.44 448.08,-152.7 446.45,-159.51"/>
</g>
<!-- Node93 -->
<g id="node8" class="node">
<title>Node93</title>
<g id="a_node8"><a xlink:href="../../d5/d14/class_ex_fat_file.html#af664c1da1bfa0bb5f6eb933bc25f757e" target="_top" xlink:title=" ">
<polygon fill="white" stroke="black" points="440,-80.5 440,-101.5 564,-101.5 564,-80.5 440,-80.5"/>
<text text-anchor="middle" x="502" y="-87.9" font-family="Helvetica,sans-Serif" font-size="12.00">ExFatFile::openRoot</text>
</a>
</g>
</g>
<!-- Node3&#45;&gt;Node93 -->
<g id="edge9" class="edge">
<title>Node3&#45;&gt;Node93</title>
<path fill="none" stroke="midnightblue" d="M382.47,-119.45C402.44,-114.66 426.23,-108.94 447.24,-103.9"/>
<polygon fill="midnightblue" stroke="midnightblue" points="448.08,-107.3 456.99,-101.56 446.45,-100.49 448.08,-107.3"/>
</g>
<!-- Node94 -->
<g id="node9" class="node">
<title>Node94</title>
<g id="a_node9"><a xlink:href="../../d5/d14/class_ex_fat_file.html#a2f4dcc1eba01055754bae58b5348d8cc" target="_top" xlink:title=" ">
<polygon fill="white" stroke="red" points="423,-40.5 423,-61.5 581,-61.5 581,-40.5 423,-40.5"/>
<text text-anchor="middle" x="502" y="-47.9" font-family="Helvetica,sans-Serif" font-size="12.00">ExFatFile::parsePathName</text>
</a>
</g>
</g>
<!-- Node3&#45;&gt;Node94 -->
<g id="edge11" class="edge">
<title>Node3&#45;&gt;Node94</title>
<path fill="none" stroke="midnightblue" d="M350.52,-119.49C366.17,-106.32 394.87,-83.91 423,-71 428.08,-68.67 433.48,-66.58 438.97,-64.71"/>
<polygon fill="midnightblue" stroke="midnightblue" points="440.42,-67.92 448.91,-61.58 438.32,-61.24 440.42,-67.92"/>
</g>
<!-- Node53&#45;&gt;Node52 -->
<g id="edge7" class="edge">
<title>Node53&#45;&gt;Node52</title>
<path fill="none" stroke="midnightblue" d="M570.36,-177.02C584.33,-178.68 598.94,-180.42 612.55,-182.04"/>
<polygon fill="midnightblue" stroke="midnightblue" points="612.4,-185.55 622.75,-183.26 613.23,-178.6 612.4,-185.55"/>
</g>
<!-- Node53&#45;&gt;Node32 -->
<g id="edge8" class="edge">
<title>Node53&#45;&gt;Node32</title>
<path fill="none" stroke="midnightblue" d="M548.46,-158.45C569.19,-153.63 593.92,-147.89 615.72,-142.83"/>
<polygon fill="midnightblue" stroke="midnightblue" points="616.55,-146.23 625.5,-140.56 614.97,-139.41 616.55,-146.23"/>
</g>
<!-- Node93&#45;&gt;Node32 -->
<g id="edge10" class="edge">
<title>Node93&#45;&gt;Node32</title>
<path fill="none" stroke="midnightblue" d="M548.46,-101.55C569.19,-106.37 593.92,-112.11 615.72,-117.17"/>
<polygon fill="midnightblue" stroke="midnightblue" points="614.97,-120.59 625.5,-119.44 616.55,-113.77 614.97,-120.59"/>
</g>
<!-- Node100 -->
<g id="node11" class="node">
<title>Node100</title>
<g id="a_node11"><a xlink:href="../../d3/d51/class_fat_file.html#af49a42dc64cd954debb271eae5639059" target="_top" xlink:title=" ">
<polygon fill="white" stroke="black" points="294.5,-10.5 294.5,-31.5 380.5,-31.5 380.5,-10.5 294.5,-10.5"/>
<text text-anchor="middle" x="337.5" y="-17.9" font-family="Helvetica,sans-Serif" font-size="12.00">FatFile::open</text>
</a>
</g>
</g>
<!-- Node99&#45;&gt;Node100 -->
<g id="edge13" class="edge">
<title>Node99&#45;&gt;Node100</title>
<path fill="none" stroke="midnightblue" d="M238.03,-49.45C254.09,-44.81 273.13,-39.31 290.17,-34.38"/>
<polygon fill="midnightblue" stroke="midnightblue" points="291.3,-37.7 299.94,-31.56 289.36,-30.98 291.3,-37.7"/>
</g>
<!-- Node101 -->
<g id="node12" class="node">
<title>Node101</title>
<g id="a_node12"><a xlink:href="../../d9/d27/class_fat_volume.html#a938d6b38399098c3b93a2f24c783ef68" target="_top" xlink:title=" ">
<polygon fill="white" stroke="black" points="452,-0.5 452,-21.5 552,-21.5 552,-0.5 452,-0.5"/>
<text text-anchor="middle" x="502" y="-7.9" font-family="Helvetica,sans-Serif" font-size="12.00">FatVolume::vwd</text>
</a>
</g>
</g>
<!-- Node100&#45;&gt;Node101 -->
<g id="edge14" class="edge">
<title>Node100&#45;&gt;Node101</title>
<path fill="none" stroke="midnightblue" d="M380.77,-18.4C399.35,-17.26 421.5,-15.89 441.7,-14.65"/>
<polygon fill="midnightblue" stroke="midnightblue" points="441.97,-18.14 451.74,-14.03 441.54,-11.15 441.97,-18.14"/>
</g>
</g>
</svg>
