<?xml version="1.0" encoding="UTF-8" standalone="no"?>
<!DOCTYPE svg PUBLIC "-//W3C//DTD SVG 1.1//EN"
 "http://www.w3.org/Graphics/SVG/1.1/DTD/svg11.dtd">
<!-- Generated by graphviz version 2.47.3 (20210619.1520)
 -->
<!-- Title: FsBaseFile::openRoot Pages: 1 -->
<!--zoomable 543 -->
<svg id="main" version="1.1" xmlns="http://www.w3.org/2000/svg" xmlns:xlink="http://www.w3.org/1999/xlink" xml:space="preserve" onload="init(evt)">
<style type="text/css"><![CDATA[
.edge:hover path { stroke: red; }
.edge:hover polygon { stroke: red; fill: red; }
]]></style>
<script type="text/javascript"><![CDATA[
var edges = document.getElementsByTagName('g');
if (edges && edges.length) {
  for (var i=0;i<edges.length;i++) {
    if (edges[i].id.substr(0,4)=='edge') {
      edges[i].setAttribute('class','edge');
    }
  }
}
]]></script>
        <defs>
                <circle id="rim" cx="0" cy="0" r="7"/>
                <circle id="rim2" cx="0" cy="0" r="3.5"/>
                <g id="zoomPlus">
                        <use xlink:href="#rim" fill="#404040">
                                <set attributeName="fill" to="#808080" begin="zoomplus.mouseover" end="zoomplus.mouseout"/>
                        </use>
                        <path d="M-4,0h8M0,-4v8" fill="none" stroke="white" stroke-width="1.5" pointer-events="none"/>
                </g>
                <g id="zoomMin">
                        <use xlink:href="#rim" fill="#404040">
                                <set attributeName="fill" to="#808080" begin="zoomminus.mouseover" end="zoomminus.mouseout"/>
                        </use>
                        <path d="M-4,0h8" fill="none" stroke="white" stroke-width="1.5" pointer-events="none"/>
                </g>
                <g id="dirArrow">
                        <path fill="none" stroke="white" stroke-width="1.5" d="M0,-3.0v7 M-2.5,-0.5L0,-3.0L2.5,-0.5"/>
                </g>
               <g id="resetDef">
                       <use xlink:href="#rim2" fill="#404040">
                               <set attributeName="fill" to="#808080" begin="reset.mouseover" end="reset.mouseout"/>
                       </use>
               </g>
        </defs>

<script type="text/javascript">
var viewWidth = 1839;
var viewHeight = 543;
var sectionId = 'dynsection-46';
</script>
<script xlink:href="../../svgpan.js"/>
<svg id="graph" class="graph">
<g id="viewport">
<title>FsBaseFile::openRoot</title>
<polygon fill="white" stroke="transparent" points="-4,4 -4,-538.57 1835,-538.57 1835,4 -4,4"/>
<!-- Node1 -->
<g id="node1" class="node">
<title>Node1</title>
<g id="a_node1"><a xlink:title=" ">
<polygon fill="#bfbfbf" stroke="black" points="0,-109.5 0,-130.5 134,-130.5 134,-109.5 0,-109.5"/>
<text text-anchor="middle" x="67" y="-116.9" font-family="Helvetica,sans-Serif" font-size="12.00">FsBaseFile::openRoot</text>
</a>
</g>
</g>
<!-- Node2 -->
<g id="node2" class="node">
<title>Node2</title>
<g id="a_node2"><a xlink:href="../../d7/d76/class_fs_base_file.html#aa669c695a839e68e417fb15eebe3de13" target="_top" xlink:title=" ">
<polygon fill="white" stroke="black" points="170,-148.5 170,-169.5 281,-169.5 281,-148.5 170,-148.5"/>
<text text-anchor="middle" x="225.5" y="-155.9" font-family="Helvetica,sans-Serif" font-size="12.00">FsBaseFile::close</text>
</a>
</g>
</g>
<!-- Node1&#45;&gt;Node2 -->
<g id="edge1" class="edge">
<title>Node1&#45;&gt;Node2</title>
<path fill="none" stroke="midnightblue" d="M110.35,-130.55C129.4,-135.3 152.08,-140.95 172.18,-145.96"/>
<polygon fill="midnightblue" stroke="midnightblue" points="171.57,-149.42 182.11,-148.44 173.26,-142.62 171.57,-149.42"/>
</g>
<!-- Node58 -->
<g id="node33" class="node">
<title>Node58</title>
<g id="a_node33"><a xlink:href="../../d5/d14/class_ex_fat_file.html#af664c1da1bfa0bb5f6eb933bc25f757e" target="_top" xlink:title=" ">
<polygon fill="white" stroke="black" points="317,-109.5 317,-130.5 441,-130.5 441,-109.5 317,-109.5"/>
<text text-anchor="middle" x="379" y="-116.9" font-family="Helvetica,sans-Serif" font-size="12.00">ExFatFile::openRoot</text>
</a>
</g>
</g>
<!-- Node1&#45;&gt;Node58 -->
<g id="edge40" class="edge">
<title>Node1&#45;&gt;Node58</title>
<path fill="none" stroke="midnightblue" d="M134.12,-120C184.88,-120 254.86,-120 306.83,-120"/>
<polygon fill="midnightblue" stroke="midnightblue" points="306.98,-123.5 316.98,-120 306.98,-116.5 306.98,-123.5"/>
</g>
<!-- Node59 -->
<g id="node34" class="node">
<title>Node59</title>
<g id="a_node34"><a xlink:href="../../d3/d51/class_fat_file.html#a7e0c0548fed3a69e7284b91b694439d4" target="_top" xlink:title=" ">
<polygon fill="white" stroke="black" points="170.5,-50.5 170.5,-71.5 280.5,-71.5 280.5,-50.5 170.5,-50.5"/>
<text text-anchor="middle" x="225.5" y="-57.9" font-family="Helvetica,sans-Serif" font-size="12.00">FatFile::openRoot</text>
</a>
</g>
</g>
<!-- Node1&#45;&gt;Node59 -->
<g id="edge42" class="edge">
<title>Node1&#45;&gt;Node59</title>
<path fill="none" stroke="midnightblue" d="M95.98,-109.45C121.38,-99.88 159.04,-85.68 187.04,-75.12"/>
<polygon fill="midnightblue" stroke="midnightblue" points="188.38,-78.36 196.5,-71.56 185.91,-71.81 188.38,-78.36"/>
</g>
<!-- Node3 -->
<g id="node3" class="node">
<title>Node3</title>
<g id="a_node3"><a xlink:href="../../d5/d14/class_ex_fat_file.html#a7ba9e04099bdf8fd34220ebfdde72867" target="_top" xlink:title=" ">
<polygon fill="white" stroke="black" points="328.5,-200.5 328.5,-221.5 429.5,-221.5 429.5,-200.5 328.5,-200.5"/>
<text text-anchor="middle" x="379" y="-207.9" font-family="Helvetica,sans-Serif" font-size="12.00">ExFatFile::close</text>
</a>
</g>
</g>
<!-- Node2&#45;&gt;Node3 -->
<g id="edge2" class="edge">
<title>Node2&#45;&gt;Node3</title>
<path fill="none" stroke="midnightblue" d="M257.16,-169.52C280.36,-177.49 312.44,-188.5 337.72,-197.17"/>
<polygon fill="midnightblue" stroke="midnightblue" points="336.79,-200.56 347.39,-200.49 339.07,-193.94 336.79,-200.56"/>
</g>
<!-- Node51 -->
<g id="node26" class="node">
<title>Node51</title>
<g id="a_node26"><a xlink:href="../../d3/d51/class_fat_file.html#afd16af325e0642e4bff6430b7d8bb18b" target="_top" xlink:title=" ">
<polygon fill="white" stroke="black" points="481.5,-148.5 481.5,-169.5 568.5,-169.5 568.5,-148.5 481.5,-148.5"/>
<text text-anchor="middle" x="525" y="-155.9" font-family="Helvetica,sans-Serif" font-size="12.00">FatFile::close</text>
</a>
</g>
</g>
<!-- Node2&#45;&gt;Node51 -->
<g id="edge29" class="edge">
<title>Node2&#45;&gt;Node51</title>
<path fill="none" stroke="midnightblue" d="M281.07,-159C335.16,-159 417.5,-159 471.03,-159"/>
<polygon fill="midnightblue" stroke="midnightblue" points="471.34,-162.5 481.34,-159 471.34,-155.5 471.34,-162.5"/>
</g>
<!-- Node4 -->
<g id="node4" class="node">
<title>Node4</title>
<g id="a_node4"><a xlink:href="../../d5/d14/class_ex_fat_file.html#a2cb3638069afd2d01b79e5dff1a66f55" target="_top" xlink:title=" ">
<polygon fill="white" stroke="black" points="477,-213.5 477,-234.5 573,-234.5 573,-213.5 477,-213.5"/>
<text text-anchor="middle" x="525" y="-220.9" font-family="Helvetica,sans-Serif" font-size="12.00">ExFatFile::sync</text>
</a>
</g>
</g>
<!-- Node3&#45;&gt;Node4 -->
<g id="edge3" class="edge">
<title>Node3&#45;&gt;Node4</title>
<path fill="none" stroke="midnightblue" d="M429.56,-215.47C441.51,-216.55 454.37,-217.71 466.64,-218.82"/>
<polygon fill="midnightblue" stroke="midnightblue" points="466.51,-222.32 476.78,-219.74 467.14,-215.35 466.51,-222.32"/>
</g>
<!-- Node5 -->
<g id="node5" class="node">
<title>Node5</title>
<g id="a_node5"><a xlink:href="../../d4/de9/class_ex_fat_partition.html#aee39febe9dcca2566535c7ef540c4928" target="_top" xlink:title=" ">
<polygon fill="white" stroke="black" points="757.5,-490.5 757.5,-511.5 911.5,-511.5 911.5,-490.5 757.5,-490.5"/>
<text text-anchor="middle" x="834.5" y="-497.9" font-family="Helvetica,sans-Serif" font-size="12.00">ExFatPartition::cacheSync</text>
</a>
</g>
</g>
<!-- Node4&#45;&gt;Node5 -->
<g id="edge4" class="edge">
<title>Node4&#45;&gt;Node5</title>
<path fill="none" stroke="midnightblue" d="M532.13,-234.68C555.53,-274.46 643.72,-415.05 757,-481 760.67,-483.14 764.57,-485.05 768.59,-486.76"/>
<polygon fill="midnightblue" stroke="midnightblue" points="767.55,-490.11 778.14,-490.4 770.04,-483.57 767.55,-490.11"/>
</g>
<!-- Node31 -->
<g id="node11" class="node">
<title>Node31</title>
<g id="a_node11"><a xlink:href="../../d5/d14/class_ex_fat_file.html#a804c34bbe3ebefe2b6c1d77ff8d49a35" target="_top" xlink:title=" ">
<polygon fill="white" stroke="black" points="610,-186.5 610,-207.5 720,-207.5 720,-186.5 610,-186.5"/>
<text text-anchor="middle" x="665" y="-193.9" font-family="Helvetica,sans-Serif" font-size="12.00">ExFatFile::isOpen</text>
</a>
</g>
</g>
<!-- Node4&#45;&gt;Node31 -->
<g id="edge10" class="edge">
<title>Node4&#45;&gt;Node31</title>
<path fill="none" stroke="midnightblue" d="M573.11,-214.78C581.73,-213.1 590.86,-211.31 599.88,-209.54"/>
<polygon fill="midnightblue" stroke="midnightblue" points="600.84,-212.92 609.98,-207.57 599.5,-206.05 600.84,-212.92"/>
</g>
<!-- Node32 -->
<g id="node12" class="node">
<title>Node32</title>
<g id="a_node12"><a xlink:href="../../d5/d14/class_ex_fat_file.html#a9a3f0b900a29d08ffa3d73383107605a" target="_top" xlink:title=" ">
<polygon fill="white" stroke="black" points="609,-298.5 609,-319.5 721,-319.5 721,-298.5 609,-298.5"/>
<text text-anchor="middle" x="665" y="-305.9" font-family="Helvetica,sans-Serif" font-size="12.00">ExFatFile::syncDir</text>
</a>
</g>
</g>
<!-- Node4&#45;&gt;Node32 -->
<g id="edge11" class="edge">
<title>Node4&#45;&gt;Node32</title>
<path fill="none" stroke="midnightblue" d="M543.2,-234.59C566.96,-249.23 610.03,-275.76 637.8,-292.86"/>
<polygon fill="midnightblue" stroke="midnightblue" points="636.23,-296.01 646.58,-298.27 639.91,-290.05 636.23,-296.01"/>
</g>
<!-- Node6 -->
<g id="node6" class="node">
<title>Node6</title>
<g id="a_node6"><a xlink:href="../../d3/d77/class_fs_cache.html#a5a2c8fb432d7b7590ebb43200ca21893" target="_top" xlink:title=" ">
<polygon fill="white" stroke="black" points="1537,-248.5 1537,-269.5 1631,-269.5 1631,-248.5 1537,-248.5"/>
<text text-anchor="middle" x="1584" y="-255.9" font-family="Helvetica,sans-Serif" font-size="12.00">FsCache::sync</text>
</a>
</g>
</g>
<!-- Node5&#45;&gt;Node6 -->
<g id="edge5" class="edge">
<title>Node5&#45;&gt;Node6</title>
<path fill="none" stroke="midnightblue" d="M882.13,-511.51C971.71,-529.4 1172.48,-558.33 1325,-498 1441.55,-451.9 1537.07,-326.07 1570.35,-278.01"/>
<polygon fill="midnightblue" stroke="midnightblue" points="1573.26,-279.96 1576,-269.72 1567.47,-276.01 1573.26,-279.96"/>
</g>
<!-- Node30 -->
<g id="node9" class="node">
<title>Node30</title>
<g id="a_node9"><a xlink:href="../../d4/de9/class_ex_fat_partition.html#a29829c123c7f9be897913fb5eebec9c6" target="_top" xlink:title=" ">
<polygon fill="white" stroke="black" points="948,-467.5 948,-488.5 1105,-488.5 1105,-467.5 948,-467.5"/>
<text text-anchor="middle" x="1026.5" y="-474.9" font-family="Helvetica,sans-Serif" font-size="12.00">ExFatPartition::syncDevice</text>
</a>
</g>
</g>
<!-- Node5&#45;&gt;Node30 -->
<g id="edge8" class="edge">
<title>Node5&#45;&gt;Node30</title>
<path fill="none" stroke="midnightblue" d="M911.69,-491.78C920.22,-490.74 928.96,-489.69 937.63,-488.64"/>
<polygon fill="midnightblue" stroke="midnightblue" points="938.24,-492.09 947.75,-487.41 937.4,-485.14 938.24,-492.09"/>
</g>
<!-- Node7 -->
<g id="node7" class="node">
<title>Node7</title>
<g id="a_node7"><a xlink:href="../../d3/d77/class_fs_cache.html#a5b90e145400de8687d9f34536b134130" target="_top" xlink:title=" ">
<polygon fill="white" stroke="black" points="1697.5,-287.5 1697.5,-308.5 1800.5,-308.5 1800.5,-287.5 1697.5,-287.5"/>
<text text-anchor="middle" x="1749" y="-294.9" font-family="Helvetica,sans-Serif" font-size="12.00">FsCache::sector</text>
</a>
</g>
</g>
<!-- Node6&#45;&gt;Node7 -->
<g id="edge6" class="edge">
<title>Node6&#45;&gt;Node7</title>
<path fill="none" stroke="midnightblue" d="M1629.11,-269.55C1649.13,-274.34 1673,-280.06 1694.08,-285.1"/>
<polygon fill="midnightblue" stroke="midnightblue" points="1693.31,-288.51 1703.85,-287.44 1694.94,-281.71 1693.31,-288.51"/>
</g>
<!-- Node8 -->
<g id="node8" class="node">
<title>Node8</title>
<g id="a_node8"><a xlink:href="../../d5/d4b/class_shared_spi_card.html#adf2ce56ca0a56fe841fbdf75f7f3faee" target="_top" xlink:title=" ">
<polygon fill="white" stroke="red" points="1667,-247.5 1667,-268.5 1831,-268.5 1831,-247.5 1667,-247.5"/>
<text text-anchor="middle" x="1749" y="-254.9" font-family="Helvetica,sans-Serif" font-size="12.00">SharedSpiCard::writeSector</text>
</a>
</g>
</g>
<!-- Node6&#45;&gt;Node8 -->
<g id="edge7" class="edge">
<title>Node6&#45;&gt;Node8</title>
<path fill="none" stroke="midnightblue" d="M1631.27,-258.72C1639.26,-258.67 1647.8,-258.61 1656.49,-258.56"/>
<polygon fill="midnightblue" stroke="midnightblue" points="1656.77,-262.06 1666.75,-258.5 1656.72,-255.06 1656.77,-262.06"/>
</g>
<!-- Node19 -->
<g id="node10" class="node">
<title>Node19</title>
<g id="a_node10"><a xlink:href="../../d5/d4b/class_shared_spi_card.html#a2f181b3d6f27413a0f5ee883dfd94d87" target="_top" xlink:title=" ">
<polygon fill="white" stroke="red" points="1150.5,-467.5 1150.5,-488.5 1315.5,-488.5 1315.5,-467.5 1150.5,-467.5"/>
<text text-anchor="middle" x="1233" y="-474.9" font-family="Helvetica,sans-Serif" font-size="12.00">SharedSpiCard::syncDevice</text>
</a>
</g>
</g>
<!-- Node30&#45;&gt;Node19 -->
<g id="edge9" class="edge">
<title>Node30&#45;&gt;Node19</title>
<path fill="none" stroke="midnightblue" d="M1105.1,-478C1116.55,-478 1128.44,-478 1140.14,-478"/>
<polygon fill="midnightblue" stroke="midnightblue" points="1140.36,-481.5 1150.36,-478 1140.36,-474.5 1140.36,-481.5"/>
</g>
<!-- Node32&#45;&gt;Node5 -->
<g id="edge12" class="edge">
<title>Node32&#45;&gt;Node5</title>
<path fill="none" stroke="midnightblue" d="M671.45,-319.87C689.98,-356.78 749.85,-475.34 757,-481 759.27,-482.8 761.68,-484.44 764.21,-485.93"/>
<polygon fill="midnightblue" stroke="midnightblue" points="762.63,-489.05 773.13,-490.45 765.79,-482.81 762.63,-489.05"/>
</g>
<!-- Node33 -->
<g id="node13" class="node">
<title>Node33</title>
<g id="a_node13"><a xlink:href="../../d4/de9/class_ex_fat_partition.html#adb86b17a83782e598fad9a0e80d61ea5" target="_top" xlink:title=" ">
<polygon fill="white" stroke="black" points="757,-437 757,-471 912,-471 912,-437 757,-437"/>
<text text-anchor="start" x="765" y="-457.4" font-family="Helvetica,sans-Serif" font-size="12.00">ExFatPartition::dataCache</text>
<text text-anchor="middle" x="834.5" y="-444.4" font-family="Helvetica,sans-Serif" font-size="12.00">Dirty</text>
</a>
</g>
</g>
<!-- Node32&#45;&gt;Node33 -->
<g id="edge13" class="edge">
<title>Node32&#45;&gt;Node33</title>
<path fill="none" stroke="midnightblue" d="M672.15,-319.82C685.16,-341.86 717.53,-392.34 757,-422 762.06,-425.8 767.64,-429.24 773.41,-432.33"/>
<polygon fill="midnightblue" stroke="midnightblue" points="772.07,-435.58 782.59,-436.9 775.19,-429.31 772.07,-435.58"/>
</g>
<!-- Node35 -->
<g id="node15" class="node">
<title>Node35</title>
<g id="a_node15"><a xlink:href="../../d4/de9/class_ex_fat_partition.html#a854529565ac49818bce4c3b2ceefedee" target="_top" xlink:title=" ">
<polygon fill="white" stroke="black" points="954,-381.5 954,-402.5 1099,-402.5 1099,-381.5 954,-381.5"/>
<text text-anchor="middle" x="1026.5" y="-388.9" font-family="Helvetica,sans-Serif" font-size="12.00">ExFatPartition::dirCache</text>
</a>
</g>
</g>
<!-- Node32&#45;&gt;Node35 -->
<g id="edge15" class="edge">
<title>Node32&#45;&gt;Node35</title>
<path fill="none" stroke="midnightblue" d="M673.81,-319.65C687.97,-337.94 719.88,-374.77 757,-389 822.05,-413.94 902.66,-410.79 958.48,-403.84"/>
<polygon fill="midnightblue" stroke="midnightblue" points="959.16,-407.28 968.61,-402.5 958.24,-400.34 959.16,-407.28"/>
</g>
<!-- Node41 -->
<g id="node19" class="node">
<title>Node41</title>
<g id="a_node19"><a xlink:href="../../d5/d14/class_ex_fat_file.html#aacf9671d6788b7fff5ef2edd95b52008" target="_top" xlink:title=" ">
<polygon fill="white" stroke="black" points="774,-358.5 774,-379.5 895,-379.5 895,-358.5 774,-358.5"/>
<text text-anchor="middle" x="834.5" y="-365.9" font-family="Helvetica,sans-Serif" font-size="12.00">ExFatFile::dirCache</text>
</a>
</g>
</g>
<!-- Node32&#45;&gt;Node41 -->
<g id="edge21" class="edge">
<title>Node32&#45;&gt;Node41</title>
<path fill="none" stroke="midnightblue" d="M687.31,-319.52C705.51,-328.22 732.55,-340.49 757,-349 763.86,-351.39 771.16,-353.64 778.42,-355.72"/>
<polygon fill="midnightblue" stroke="midnightblue" points="777.67,-359.15 788.24,-358.44 779.53,-352.4 777.67,-359.15"/>
</g>
<!-- Node46 -->
<g id="node21" class="node">
<title>Node46</title>
<g id="a_node21"><a xlink:href="../../db/d4e/_ex_fat_file_write_8cpp.html#ad3d375d301d34bd68a264f5ca8d1e4c4" target="_top" xlink:title=" ">
<polygon fill="white" stroke="black" points="776,-318.5 776,-339.5 893,-339.5 893,-318.5 776,-318.5"/>
<text text-anchor="middle" x="834.5" y="-325.9" font-family="Helvetica,sans-Serif" font-size="12.00">exFatDirChecksum</text>
</a>
</g>
</g>
<!-- Node32&#45;&gt;Node46 -->
<g id="edge24" class="edge">
<title>Node32&#45;&gt;Node46</title>
<path fill="none" stroke="midnightblue" d="M721.31,-315.6C735.56,-317.31 751.05,-319.15 765.84,-320.92"/>
<polygon fill="midnightblue" stroke="midnightblue" points="765.61,-324.42 775.95,-322.13 766.44,-317.47 765.61,-324.42"/>
</g>
<!-- Node47 -->
<g id="node22" class="node">
<title>Node47</title>
<g id="a_node22"><a xlink:href="../../d5/d14/class_ex_fat_file.html#a7a167102bd47b7cf91167b69f8cc57d1" target="_top" xlink:title=" ">
<polygon fill="white" stroke="black" points="764,-278.5 764,-299.5 905,-299.5 905,-278.5 764,-278.5"/>
<text text-anchor="middle" x="834.5" y="-285.9" font-family="Helvetica,sans-Serif" font-size="12.00">ExFatFile::isContiguous</text>
</a>
</g>
</g>
<!-- Node32&#45;&gt;Node47 -->
<g id="edge25" class="edge">
<title>Node32&#45;&gt;Node47</title>
<path fill="none" stroke="midnightblue" d="M721.31,-302.4C731.74,-301.15 742.84,-299.82 753.85,-298.51"/>
<polygon fill="midnightblue" stroke="midnightblue" points="754.4,-301.97 763.91,-297.31 753.57,-295.02 754.4,-301.97"/>
</g>
<!-- Node48 -->
<g id="node23" class="node">
<title>Node48</title>
<g id="a_node23"><a xlink:href="../../d1/db3/_fs_structs_8h.html#a2a47595a3bb5c1f0f67d4f3dddac0a0e" target="_top" xlink:title=" ">
<polygon fill="white" stroke="black" points="805,-198.5 805,-219.5 864,-219.5 864,-198.5 805,-198.5"/>
<text text-anchor="middle" x="834.5" y="-205.9" font-family="Helvetica,sans-Serif" font-size="12.00">setLe16</text>
</a>
</g>
</g>
<!-- Node32&#45;&gt;Node48 -->
<g id="edge26" class="edge">
<title>Node32&#45;&gt;Node48</title>
<path fill="none" stroke="midnightblue" d="M674.94,-298.44C690.07,-281.27 722.45,-247.36 757,-229 768.67,-222.8 782.38,-218.43 794.95,-215.4"/>
<polygon fill="midnightblue" stroke="midnightblue" points="795.71,-218.82 804.72,-213.24 794.2,-211.98 795.71,-218.82"/>
</g>
<!-- Node49 -->
<g id="node24" class="node">
<title>Node49</title>
<g id="a_node24"><a xlink:href="../../d1/db3/_fs_structs_8h.html#a294114e9924b0436c1d110e692bef464" target="_top" xlink:title=" ">
<polygon fill="white" stroke="black" points="805,-158.5 805,-179.5 864,-179.5 864,-158.5 805,-158.5"/>
<text text-anchor="middle" x="834.5" y="-165.9" font-family="Helvetica,sans-Serif" font-size="12.00">setLe32</text>
</a>
</g>
</g>
<!-- Node32&#45;&gt;Node49 -->
<g id="edge27" class="edge">
<title>Node32&#45;&gt;Node49</title>
<path fill="none" stroke="midnightblue" d="M670.92,-298.45C682.43,-274.95 713.51,-218.04 757,-189 768.17,-181.54 781.98,-176.86 794.77,-173.93"/>
<polygon fill="midnightblue" stroke="midnightblue" points="795.63,-177.32 804.75,-171.93 794.26,-170.46 795.63,-177.32"/>
</g>
<!-- Node50 -->
<g id="node25" class="node">
<title>Node50</title>
<g id="a_node25"><a xlink:href="../../d1/db3/_fs_structs_8h.html#a3b3f9b76206e0f840e2620a4a6589d88" target="_top" xlink:title=" ">
<polygon fill="white" stroke="black" points="805,-238.5 805,-259.5 864,-259.5 864,-238.5 805,-238.5"/>
<text text-anchor="middle" x="834.5" y="-245.9" font-family="Helvetica,sans-Serif" font-size="12.00">setLe64</text>
</a>
</g>
</g>
<!-- Node32&#45;&gt;Node50 -->
<g id="edge28" class="edge">
<title>Node32&#45;&gt;Node50</title>
<path fill="none" stroke="midnightblue" d="M687.31,-298.48C705.51,-289.78 732.55,-277.51 757,-269 769.15,-264.77 782.67,-260.96 794.91,-257.82"/>
<polygon fill="midnightblue" stroke="midnightblue" points="795.98,-261.16 804.84,-255.35 794.29,-254.37 795.98,-261.16"/>
</g>
<!-- Node34 -->
<g id="node14" class="node">
<title>Node34</title>
<g id="a_node14"><a xlink:href="../../d3/d77/class_fs_cache.html#af50f564561a2db190280769d4641147b" target="_top" xlink:title=" ">
<polygon fill="white" stroke="black" points="980.5,-427.5 980.5,-448.5 1072.5,-448.5 1072.5,-427.5 980.5,-427.5"/>
<text text-anchor="middle" x="1026.5" y="-434.9" font-family="Helvetica,sans-Serif" font-size="12.00">FsCache::dirty</text>
</a>
</g>
</g>
<!-- Node33&#45;&gt;Node34 -->
<g id="edge14" class="edge">
<title>Node33&#45;&gt;Node34</title>
<path fill="none" stroke="midnightblue" d="M912.23,-447.54C931.69,-445.9 952.22,-444.17 970.37,-442.64"/>
<polygon fill="midnightblue" stroke="midnightblue" points="970.8,-446.12 980.47,-441.79 970.22,-439.14 970.8,-446.12"/>
</g>
<!-- Node36 -->
<g id="node16" class="node">
<title>Node36</title>
<g id="a_node16"><a xlink:href="../../d4/de9/class_ex_fat_partition.html#a80c3935eee856eaa3938e80a32139722" target="_top" xlink:title=" ">
<polygon fill="white" stroke="black" points="1155.5,-375 1155.5,-409 1310.5,-409 1310.5,-375 1155.5,-375"/>
<text text-anchor="start" x="1163.5" y="-395.4" font-family="Helvetica,sans-Serif" font-size="12.00">ExFatPartition::clusterStart</text>
<text text-anchor="middle" x="1233" y="-382.4" font-family="Helvetica,sans-Serif" font-size="12.00">Sector</text>
</a>
</g>
</g>
<!-- Node35&#45;&gt;Node36 -->
<g id="edge16" class="edge">
<title>Node35&#45;&gt;Node36</title>
<path fill="none" stroke="midnightblue" d="M1099.02,-392C1113.95,-392 1129.84,-392 1145.25,-392"/>
<polygon fill="midnightblue" stroke="midnightblue" points="1145.3,-395.5 1155.3,-392 1145.3,-388.5 1145.3,-395.5"/>
</g>
<!-- Node37 -->
<g id="node17" class="node">
<title>Node37</title>
<g id="a_node17"><a xlink:href="../../d4/de9/class_ex_fat_partition.html#a119f5be5695880d2a16f1c0b3c3ff369" target="_top" xlink:title=" ">
<polygon fill="white" stroke="black" points="1155.5,-285 1155.5,-319 1310.5,-319 1310.5,-285 1155.5,-285"/>
<text text-anchor="start" x="1163.5" y="-305.4" font-family="Helvetica,sans-Serif" font-size="12.00">ExFatPartition::dataCache</text>
<text text-anchor="middle" x="1233" y="-292.4" font-family="Helvetica,sans-Serif" font-size="12.00">Prepare</text>
</a>
</g>
</g>
<!-- Node35&#45;&gt;Node37 -->
<g id="edge17" class="edge">
<title>Node35&#45;&gt;Node37</title>
<path fill="none" stroke="midnightblue" d="M1076.06,-381.47C1085.79,-378.8 1095.83,-375.64 1105,-372 1137.51,-359.09 1172.14,-339.57 1197.01,-324.42"/>
<polygon fill="midnightblue" stroke="midnightblue" points="1199.04,-327.29 1205.71,-319.06 1195.36,-321.33 1199.04,-327.29"/>
</g>
<!-- Node38 -->
<g id="node18" class="node">
<title>Node38</title>
<g id="a_node18"><a xlink:href="../../d3/d77/class_fs_cache.html#a8c11f064a2ce0a380f522392f09d63cb" target="_top" xlink:title=" ">
<polygon fill="white" stroke="red" points="1375,-268.5 1375,-289.5 1487,-289.5 1487,-268.5 1375,-268.5"/>
<text text-anchor="middle" x="1431" y="-275.9" font-family="Helvetica,sans-Serif" font-size="12.00">FsCache::prepare</text>
</a>
</g>
</g>
<!-- Node37&#45;&gt;Node38 -->
<g id="edge18" class="edge">
<title>Node37&#45;&gt;Node38</title>
<path fill="none" stroke="midnightblue" d="M1310.62,-293.01C1328.57,-290.9 1347.53,-288.68 1364.92,-286.64"/>
<polygon fill="midnightblue" stroke="midnightblue" points="1365.44,-290.1 1374.96,-285.46 1364.62,-283.15 1365.44,-290.1"/>
</g>
<!-- Node38&#45;&gt;Node6 -->
<g id="edge20" class="edge">
<title>Node38&#45;&gt;Node6</title>
<path fill="none" stroke="midnightblue" d="M1487.37,-271.67C1500.12,-269.98 1513.7,-268.18 1526.5,-266.48"/>
<polygon fill="midnightblue" stroke="midnightblue" points="1527.11,-269.93 1536.57,-265.15 1526.19,-262.99 1527.11,-269.93"/>
</g>
<!-- Node38&#45;&gt;Node7 -->
<g id="edge19" class="edge">
<title>Node38&#45;&gt;Node7</title>
<path fill="none" stroke="midnightblue" d="M1487.04,-282.31C1543.01,-285.67 1629.5,-290.87 1687.39,-294.36"/>
<polygon fill="midnightblue" stroke="midnightblue" points="1687.31,-297.86 1697.5,-294.96 1687.73,-290.87 1687.31,-297.86"/>
</g>
<!-- Node41&#45;&gt;Node35 -->
<g id="edge22" class="edge">
<title>Node41&#45;&gt;Node35</title>
<path fill="none" stroke="midnightblue" d="M895.1,-376.21C910.51,-378.08 927.37,-380.12 943.7,-382.1"/>
<polygon fill="midnightblue" stroke="midnightblue" points="943.43,-385.59 953.78,-383.32 944.28,-378.64 943.43,-385.59"/>
</g>
<!-- Node42 -->
<g id="node20" class="node">
<title>Node42</title>
<g id="a_node20"><a xlink:href="../../d4/de9/class_ex_fat_partition.html#aeaceb6c3560f8d372b71b99e3b544610" target="_top" xlink:title=" ">
<polygon fill="white" stroke="red" points="957.5,-341.5 957.5,-362.5 1095.5,-362.5 1095.5,-341.5 957.5,-341.5"/>
<text text-anchor="middle" x="1026.5" y="-348.9" font-family="Helvetica,sans-Serif" font-size="12.00">ExFatPartition::dirSeek</text>
</a>
</g>
</g>
<!-- Node41&#45;&gt;Node42 -->
<g id="edge23" class="edge">
<title>Node41&#45;&gt;Node42</title>
<path fill="none" stroke="midnightblue" d="M895.1,-363.67C911.65,-362.19 929.89,-360.56 947.33,-358.99"/>
<polygon fill="midnightblue" stroke="midnightblue" points="947.85,-362.46 957.5,-358.08 947.23,-355.49 947.85,-362.46"/>
</g>
<!-- Node52 -->
<g id="node27" class="node">
<title>Node52</title>
<g id="a_node27"><a xlink:href="../../d3/d51/class_fat_file.html#a67f3dc4896c542d695e11aac927f585e" target="_top" xlink:title=" ">
<polygon fill="white" stroke="black" points="623.5,-118.5 623.5,-139.5 706.5,-139.5 706.5,-118.5 623.5,-118.5"/>
<text text-anchor="middle" x="665" y="-125.9" font-family="Helvetica,sans-Serif" font-size="12.00">FatFile::sync</text>
</a>
</g>
</g>
<!-- Node51&#45;&gt;Node52 -->
<g id="edge30" class="edge">
<title>Node51&#45;&gt;Node52</title>
<path fill="none" stroke="midnightblue" d="M568.53,-149.75C582.69,-146.68 598.59,-143.22 613.31,-140.02"/>
<polygon fill="midnightblue" stroke="midnightblue" points="614.24,-143.4 623.26,-137.86 612.75,-136.56 614.24,-143.4"/>
</g>
<!-- Node52&#45;&gt;Node48 -->
<g id="edge38" class="edge">
<title>Node52&#45;&gt;Node48</title>
<path fill="none" stroke="midnightblue" d="M679.06,-139.63C696.05,-152.96 727.1,-175.67 757,-189 768.85,-194.28 782.38,-198.39 794.74,-201.47"/>
<polygon fill="midnightblue" stroke="midnightblue" points="794.24,-204.95 804.77,-203.82 795.83,-198.14 794.24,-204.95"/>
</g>
<!-- Node52&#45;&gt;Node49 -->
<g id="edge39" class="edge">
<title>Node52&#45;&gt;Node49</title>
<path fill="none" stroke="midnightblue" d="M706.55,-138.68C733.39,-145.09 768.38,-153.45 794.82,-159.76"/>
<polygon fill="midnightblue" stroke="midnightblue" points="794.33,-163.24 804.87,-162.16 795.95,-156.44 794.33,-163.24"/>
</g>
<!-- Node53 -->
<g id="node28" class="node">
<title>Node53</title>
<g id="a_node28"><a xlink:href="../../d3/d51/class_fat_file.html#a1de799df045e4f60e9ebbcd6d341f9a8" target="_top" xlink:title=" ">
<polygon fill="white" stroke="black" points="768,-118.5 768,-139.5 901,-139.5 901,-118.5 768,-118.5"/>
<text text-anchor="middle" x="834.5" y="-125.9" font-family="Helvetica,sans-Serif" font-size="12.00">FatFile::cacheDirEntry</text>
</a>
</g>
</g>
<!-- Node52&#45;&gt;Node53 -->
<g id="edge31" class="edge">
<title>Node52&#45;&gt;Node53</title>
<path fill="none" stroke="midnightblue" d="M706.55,-129C721.92,-129 739.98,-129 757.57,-129"/>
<polygon fill="midnightblue" stroke="midnightblue" points="757.85,-132.5 767.85,-129 757.85,-125.5 757.85,-132.5"/>
</g>
<!-- Node55 -->
<g id="node30" class="node">
<title>Node55</title>
<g id="a_node30"><a xlink:href="../../d0/d12/class_fat_partition.html#a38b128efffc3ea109f514b84582d406f" target="_top" xlink:title=" ">
<polygon fill="white" stroke="black" points="1361,-162.5 1361,-183.5 1501,-183.5 1501,-162.5 1361,-162.5"/>
<text text-anchor="middle" x="1431" y="-169.9" font-family="Helvetica,sans-Serif" font-size="12.00">FatPartition::cacheSync</text>
</a>
</g>
</g>
<!-- Node52&#45;&gt;Node55 -->
<g id="edge34" class="edge">
<title>Node52&#45;&gt;Node55</title>
<path fill="none" stroke="midnightblue" d="M705.11,-118.46C721.07,-114.67 739.79,-110.87 757,-109 825.49,-101.56 843.24,-104.77 912,-109 1070.7,-118.77 1255.22,-145.21 1355.59,-160.89"/>
<polygon fill="midnightblue" stroke="midnightblue" points="1355.21,-164.37 1365.63,-162.46 1356.3,-157.45 1355.21,-164.37"/>
</g>
<!-- Node56 -->
<g id="node31" class="node">
<title>Node56</title>
<g id="a_node31"><a xlink:href="../../d3/d51/class_fat_file.html#acc5a87da1a5c8cb9758bfeaa7ae47b57" target="_top" xlink:title=" ">
<polygon fill="white" stroke="black" points="790.5,-40.5 790.5,-61.5 878.5,-61.5 878.5,-40.5 790.5,-40.5"/>
<text text-anchor="middle" x="834.5" y="-47.9" font-family="Helvetica,sans-Serif" font-size="12.00">FatFile::isFile</text>
</a>
</g>
</g>
<!-- Node52&#45;&gt;Node56 -->
<g id="edge36" class="edge">
<title>Node52&#45;&gt;Node56</title>
<path fill="none" stroke="midnightblue" d="M681.89,-118.35C699.63,-106.79 729.48,-88.35 757,-76 766.27,-71.84 776.46,-68.03 786.28,-64.7"/>
<polygon fill="midnightblue" stroke="midnightblue" points="787.52,-67.97 795.94,-61.53 785.34,-61.32 787.52,-67.97"/>
</g>
<!-- Node57 -->
<g id="node32" class="node">
<title>Node57</title>
<g id="a_node32"><a xlink:href="../../d3/d51/class_fat_file.html#a8b8a2850c086d3ce79bee64a23fbf7a6" target="_top" xlink:title=" ">
<polygon fill="white" stroke="black" points="786,-0.5 786,-21.5 883,-21.5 883,-0.5 786,-0.5"/>
<text text-anchor="middle" x="834.5" y="-7.9" font-family="Helvetica,sans-Serif" font-size="12.00">FatFile::isOpen</text>
</a>
</g>
</g>
<!-- Node52&#45;&gt;Node57 -->
<g id="edge37" class="edge">
<title>Node52&#45;&gt;Node57</title>
<path fill="none" stroke="midnightblue" d="M677.74,-118.18C689.13,-107.52 706.74,-90.61 721,-75 738.04,-56.34 735.73,-44.64 757,-31 762.82,-27.26 769.32,-24.23 775.99,-21.75"/>
<polygon fill="midnightblue" stroke="midnightblue" points="777.44,-24.96 785.85,-18.52 775.25,-18.31 777.44,-24.96"/>
</g>
<!-- Node54 -->
<g id="node29" class="node">
<title>Node54</title>
<g id="a_node29"><a xlink:href="../../d0/d12/class_fat_partition.html#a4ecb12682599d63c7e765d31ca8e1de6" target="_top" xlink:title=" ">
<polygon fill="white" stroke="black" points="1141,-171.5 1141,-192.5 1325,-192.5 1325,-171.5 1141,-171.5"/>
<text text-anchor="middle" x="1233" y="-178.9" font-family="Helvetica,sans-Serif" font-size="12.00">FatPartition::dataCachePrepare</text>
</a>
</g>
</g>
<!-- Node53&#45;&gt;Node54 -->
<g id="edge32" class="edge">
<title>Node53&#45;&gt;Node54</title>
<path fill="none" stroke="midnightblue" d="M901.42,-137.81C967.56,-146.65 1069.88,-160.33 1143.16,-170.12"/>
<polygon fill="midnightblue" stroke="midnightblue" points="1142.92,-173.62 1153.3,-171.48 1143.85,-166.69 1142.92,-173.62"/>
</g>
<!-- Node54&#45;&gt;Node38 -->
<g id="edge33" class="edge">
<title>Node54&#45;&gt;Node38</title>
<path fill="none" stroke="midnightblue" d="M1255.35,-192.57C1290.25,-209.84 1359.65,-244.18 1399.65,-263.98"/>
<polygon fill="midnightblue" stroke="midnightblue" points="1398.16,-267.15 1408.68,-268.45 1401.27,-260.88 1398.16,-267.15"/>
</g>
<!-- Node55&#45;&gt;Node6 -->
<g id="edge35" class="edge">
<title>Node55&#45;&gt;Node6</title>
<path fill="none" stroke="midnightblue" d="M1450.52,-183.55C1476.78,-198.5 1525.04,-225.99 1555.5,-243.34"/>
<polygon fill="midnightblue" stroke="midnightblue" points="1553.91,-246.46 1564.33,-248.37 1557.38,-240.38 1553.91,-246.46"/>
</g>
<!-- Node58&#45;&gt;Node31 -->
<g id="edge41" class="edge">
<title>Node58&#45;&gt;Node31</title>
<path fill="none" stroke="midnightblue" d="M441.1,-118.8C479.86,-119.78 530.52,-124.32 573,-139 599.63,-148.2 626.38,-166.61 643.91,-180.23"/>
<polygon fill="midnightblue" stroke="midnightblue" points="641.74,-182.97 651.74,-186.47 646.1,-177.5 641.74,-182.97"/>
</g>
<!-- Node59&#45;&gt;Node57 -->
<g id="edge44" class="edge">
<title>Node59&#45;&gt;Node57</title>
<path fill="none" stroke="midnightblue" d="M280.63,-56.54C394.59,-47.15 658.33,-25.43 775.54,-15.77"/>
<polygon fill="midnightblue" stroke="midnightblue" points="776.07,-19.24 785.75,-14.93 775.5,-12.27 776.07,-19.24"/>
</g>
<!-- Node60 -->
<g id="node35" class="node">
<title>Node60</title>
<g id="a_node35"><a xlink:href="../../d0/d12/class_fat_partition.html#ad45c276232d7093b82f1075e8c488bac" target="_top" xlink:title=" ">
<polygon fill="white" stroke="black" points="318,-11.5 318,-32.5 440,-32.5 440,-11.5 318,-11.5"/>
<text text-anchor="middle" x="379" y="-18.9" font-family="Helvetica,sans-Serif" font-size="12.00">FatPartition::fatType</text>
</a>
</g>
</g>
<!-- Node59&#45;&gt;Node60 -->
<g id="edge43" class="edge">
<title>Node59&#45;&gt;Node60</title>
<path fill="none" stroke="midnightblue" d="M267.5,-50.45C285.86,-45.72 307.69,-40.1 327.08,-35.11"/>
<polygon fill="midnightblue" stroke="midnightblue" points="328.16,-38.44 336.97,-32.56 326.41,-31.67 328.16,-38.44"/>
</g>
</g>
</svg>
        <g id="navigator" transform="translate(0 0)" fill="#404254">
                <rect fill="#f2f5e9" fill-opacity="0.5" stroke="#606060" stroke-width=".5" x="0" y="0" width="60" height="60"/>
                <use id="zoomplus" xlink:href="#zoomPlus" x="17" y="9" onmousedown="handleZoom(evt,'in')"/>
                <use id="zoomminus" xlink:href="#zoomMin" x="42" y="9" onmousedown="handleZoom(evt,'out')"/>
                <use id="reset" xlink:href="#resetDef" x="30" y="36" onmousedown="handleReset()"/>
                <g id="arrowUp" xlink:href="#dirArrow" transform="translate(30 24)" onmousedown="handlePan(0,-1)">
                  <use xlink:href="#rim" fill="#404040">
                        <set attributeName="fill" to="#808080" begin="arrowUp.mouseover" end="arrowUp.mouseout"/>
                  </use>
                  <path fill="none" stroke="white" stroke-width="1.5" d="M0,-3.0v7 M-2.5,-0.5L0,-3.0L2.5,-0.5"/>
                </g>
                <g id="arrowRight" xlink:href="#dirArrow" transform="rotate(90) translate(36 -43)" onmousedown="handlePan(1,0)">
                  <use xlink:href="#rim" fill="#404040">
                        <set attributeName="fill" to="#808080" begin="arrowRight.mouseover" end="arrowRight.mouseout"/>
                  </use>
                  <path fill="none" stroke="white" stroke-width="1.5" d="M0,-3.0v7 M-2.5,-0.5L0,-3.0L2.5,-0.5"/>
                </g>
                <g id="arrowDown" xlink:href="#dirArrow" transform="rotate(180) translate(-30 -48)" onmousedown="handlePan(0,1)">
                  <use xlink:href="#rim" fill="#404040">
                        <set attributeName="fill" to="#808080" begin="arrowDown.mouseover" end="arrowDown.mouseout"/>
                  </use>
                  <path fill="none" stroke="white" stroke-width="1.5" d="M0,-3.0v7 M-2.5,-0.5L0,-3.0L2.5,-0.5"/>
                </g>
                <g id="arrowLeft" xlink:href="#dirArrow" transform="rotate(270) translate(-36 17)" onmousedown="handlePan(-1,0)">
                  <use xlink:href="#rim" fill="#404040">
                        <set attributeName="fill" to="#808080" begin="arrowLeft.mouseover" end="arrowLeft.mouseout"/>
                  </use>
                  <path fill="none" stroke="white" stroke-width="1.5" d="M0,-3.0v7 M-2.5,-0.5L0,-3.0L2.5,-0.5"/>
                </g>
        </g>
        <svg viewBox="0 0 15 15" width="100%" height="30px" preserveAspectRatio="xMaxYMin meet">
         <g id="arrow_out" transform="scale(0.3 0.3)">
          <a xlink:href="class_fs_base_file_a0b4574665073272dd811224df9f0e23c_cgraph_org.svg" target="_base">
           <rect id="button" ry="5" rx="5" y="6" x="6" height="38" width="38"
                fill="#f2f5e9" fill-opacity="0.5" stroke="#606060" stroke-width="1.0"/>
           <path id="arrow"
             d="M 11.500037,31.436501 C 11.940474,20.09759 22.043105,11.32322 32.158766,21.979434 L 37.068811,17.246167 C 37.068811,17.246167 37.088388,32 37.088388,32 L 22.160133,31.978069 C 22.160133,31.978069 26.997745,27.140456 26.997745,27.140456 C 18.528582,18.264221 13.291696,25.230495 11.500037,31.436501 z"
             style="fill:#404040;"/>
          </a>
         </g>
        </svg>
</svg>
