<?xml version="1.0" encoding="UTF-8" standalone="no"?>
<!DOCTYPE svg PUBLIC "-//W3C//DTD SVG 1.1//EN"
 "http://www.w3.org/Graphics/SVG/1.1/DTD/svg11.dtd">
<!-- Generated by graphviz version 2.47.3 (20210619.1520)
 -->
<!-- Title: FsBaseFile::dirIndex Pages: 1 -->
<svg width="281pt" height="70pt"
 viewBox="0.00 0.00 281.00 70.00" xmlns="http://www.w3.org/2000/svg" xmlns:xlink="http://www.w3.org/1999/xlink">
<g id="graph0" class="graph" transform="scale(1 1) rotate(0) translate(4 66)">
<title>FsBaseFile::dirIndex</title>
<polygon fill="white" stroke="transparent" points="-4,4 -4,-66 277,-66 277,4 -4,4"/>
<!-- Node1 -->
<g id="node1" class="node">
<title>Node1</title>
<g id="a_node1"><a xlink:title=" ">
<polygon fill="#bfbfbf" stroke="black" points="0,-20.5 0,-41.5 124,-41.5 124,-20.5 0,-20.5"/>
<text text-anchor="middle" x="62" y="-27.9" font-family="Helvetica,sans-Serif" font-size="12.00">FsBaseFile::dirIndex</text>
</a>
</g>
</g>
<!-- Node2 -->
<g id="node2" class="node">
<title>Node2</title>
<g id="a_node2"><a xlink:href="../../d5/d14/class_ex_fat_file.html#aea5b18625a06892a03a8d17c66b71717" target="_top" xlink:title=" ">
<polygon fill="white" stroke="black" points="160,-40.5 160,-61.5 273,-61.5 273,-40.5 160,-40.5"/>
<text text-anchor="middle" x="216.5" y="-47.9" font-family="Helvetica,sans-Serif" font-size="12.00">ExFatFile::dirIndex</text>
</a>
</g>
</g>
<!-- Node1&#45;&gt;Node2 -->
<g id="edge1" class="edge">
<title>Node1&#45;&gt;Node2</title>
<path fill="none" stroke="midnightblue" d="M124.15,-39.02C132.51,-40.12 141.13,-41.25 149.58,-42.35"/>
<polygon fill="midnightblue" stroke="midnightblue" points="149.4,-45.86 159.77,-43.69 150.31,-38.92 149.4,-45.86"/>
</g>
<!-- Node3 -->
<g id="node3" class="node">
<title>Node3</title>
<g id="a_node3"><a xlink:href="../../d3/d51/class_fat_file.html#a7f0d6488685dc3be61720caca49fa116" target="_top" xlink:title=" ">
<polygon fill="white" stroke="black" points="166.5,-0.5 166.5,-21.5 266.5,-21.5 266.5,-0.5 166.5,-0.5"/>
<text text-anchor="middle" x="216.5" y="-7.9" font-family="Helvetica,sans-Serif" font-size="12.00">FatFile::dirIndex</text>
</a>
</g>
</g>
<!-- Node1&#45;&gt;Node3 -->
<g id="edge2" class="edge">
<title>Node1&#45;&gt;Node3</title>
<path fill="none" stroke="midnightblue" d="M124.15,-22.98C134.59,-21.61 145.42,-20.19 155.83,-18.83"/>
<polygon fill="midnightblue" stroke="midnightblue" points="156.59,-22.26 166.05,-17.48 155.68,-15.31 156.59,-22.26"/>
</g>
</g>
</svg>
