<?xml version="1.0" encoding="UTF-8" standalone="no"?>
<!DOCTYPE svg PUBLIC "-//W3C//DTD SVG 1.1//EN"
 "http://www.w3.org/Graphics/SVG/1.1/DTD/svg11.dtd">
<!-- Generated by graphviz version 2.47.3 (20210619.1520)
 -->
<!-- Title: ERISCore/lib/SdFat&#45;master/src/common/FsDateTime.h Pages: 1 -->
<svg width="3328pt" height="521pt"
 viewBox="0.00 0.00 3327.50 521.00" xmlns="http://www.w3.org/2000/svg" xmlns:xlink="http://www.w3.org/1999/xlink">
<g id="graph0" class="graph" transform="scale(1 1) rotate(0) translate(4 517)">
<title>ERISCore/lib/SdFat&#45;master/src/common/FsDateTime.h</title>
<polygon fill="white" stroke="transparent" points="-4,4 -4,-517 3323.5,-517 3323.5,4 -4,4"/>
<!-- Node1 -->
<g id="node1" class="node">
<title>Node1</title>
<g id="a_node1"><a xlink:title=" ">
<polygon fill="#bfbfbf" stroke="black" points="817.5,-478.5 817.5,-512.5 1017.5,-512.5 1017.5,-478.5 817.5,-478.5"/>
<text text-anchor="start" x="825.5" y="-498.9" font-family="Helvetica,sans-Serif" font-size="12.00">ERISCore/lib/SdFat</text>
<text text-anchor="middle" x="917.5" y="-485.9" font-family="Helvetica,sans-Serif" font-size="12.00">&#45;master/src/common/FsDateTime.h</text>
</a>
</g>
</g>
<!-- Node2 -->
<g id="node2" class="node">
<title>Node2</title>
<g id="a_node2"><a xlink:href="../../d5/dce/_fs_date_time_8cpp.html" target="_top" xlink:title=" ">
<polygon fill="white" stroke="black" points="622.5,-401 622.5,-435 836.5,-435 836.5,-401 622.5,-401"/>
<text text-anchor="start" x="630.5" y="-421.4" font-family="Helvetica,sans-Serif" font-size="12.00">ERISCore/lib/SdFat</text>
<text text-anchor="middle" x="729.5" y="-408.4" font-family="Helvetica,sans-Serif" font-size="12.00">&#45;master/src/common/FsDateTime.cpp</text>
</a>
</g>
</g>
<!-- Node1&#45;&gt;Node2 -->
<g id="edge1" class="edge">
<title>Node1&#45;&gt;Node2</title>
<path fill="none" stroke="midnightblue" d="M867.98,-474.61C837.29,-462.29 798.39,-446.67 769.64,-435.12"/>
<polygon fill="midnightblue" stroke="midnightblue" points="867.05,-478.01 877.63,-478.49 869.65,-471.51 867.05,-478.01"/>
</g>
<!-- Node3 -->
<g id="node3" class="node">
<title>Node3</title>
<g id="a_node3"><a xlink:href="../../dd/ddc/_ex_fat_file_8h.html" target="_top" xlink:title="ExFatFile class.">
<polygon fill="white" stroke="black" points="855,-394.5 855,-441.5 980,-441.5 980,-394.5 855,-394.5"/>
<text text-anchor="start" x="863" y="-427.9" font-family="Helvetica,sans-Serif" font-size="12.00">ERISCore/lib/SdFat</text>
<text text-anchor="start" x="863" y="-414.9" font-family="Helvetica,sans-Serif" font-size="12.00">&#45;master/src/ExFatLib</text>
<text text-anchor="middle" x="917.5" y="-401.9" font-family="Helvetica,sans-Serif" font-size="12.00">/ExFatFile.h</text>
</a>
</g>
</g>
<!-- Node1&#45;&gt;Node3 -->
<g id="edge2" class="edge">
<title>Node1&#45;&gt;Node3</title>
<path fill="none" stroke="midnightblue" d="M917.5,-468.43C917.5,-459.69 917.5,-450.03 917.5,-441.58"/>
<polygon fill="midnightblue" stroke="midnightblue" points="914,-468.49 917.5,-478.49 921,-468.49 914,-468.49"/>
</g>
<!-- Node49 -->
<g id="node21" class="node">
<title>Node49</title>
<g id="a_node21"><a xlink:href="../../d6/d7b/_fat_file_8h.html" target="_top" xlink:title="FatFile class.">
<polygon fill="white" stroke="black" points="1277,-401 1277,-435 1438,-435 1438,-401 1277,-401"/>
<text text-anchor="start" x="1285" y="-421.4" font-family="Helvetica,sans-Serif" font-size="12.00">ERISCore/lib/SdFat</text>
<text text-anchor="middle" x="1357.5" y="-408.4" font-family="Helvetica,sans-Serif" font-size="12.00">&#45;master/src/FatLib/FatFile.h</text>
</a>
</g>
</g>
<!-- Node1&#45;&gt;Node49 -->
<g id="edge23" class="edge">
<title>Node1&#45;&gt;Node49</title>
<path fill="none" stroke="midnightblue" d="M1020.69,-476.79C1098.89,-463.37 1204.84,-445.2 1276.88,-432.83"/>
<polygon fill="midnightblue" stroke="midnightblue" points="1020.08,-473.35 1010.81,-478.49 1021.26,-480.25 1020.08,-473.35"/>
</g>
<!-- Node4 -->
<g id="node4" class="node">
<title>Node4</title>
<g id="a_node4"><a xlink:href="../../d6/d68/_ex_fat_volume_8h.html" target="_top" xlink:title=" ">
<polygon fill="white" stroke="black" points="715,-310.5 715,-357.5 840,-357.5 840,-310.5 715,-310.5"/>
<text text-anchor="start" x="723" y="-343.9" font-family="Helvetica,sans-Serif" font-size="12.00">ERISCore/lib/SdFat</text>
<text text-anchor="start" x="723" y="-330.9" font-family="Helvetica,sans-Serif" font-size="12.00">&#45;master/src/ExFatLib</text>
<text text-anchor="middle" x="777.5" y="-317.9" font-family="Helvetica,sans-Serif" font-size="12.00">/ExFatVolume.h</text>
</a>
</g>
</g>
<!-- Node3&#45;&gt;Node4 -->
<g id="edge3" class="edge">
<title>Node3&#45;&gt;Node4</title>
<path fill="none" stroke="midnightblue" d="M869.91,-389.12C852.34,-378.83 832.66,-367.31 816,-357.55"/>
<polygon fill="midnightblue" stroke="midnightblue" points="868.48,-392.34 878.87,-394.38 872.01,-386.3 868.48,-392.34"/>
</g>
<!-- Node5 -->
<g id="node5" class="node">
<title>Node5</title>
<g id="a_node5"><a xlink:href="../../d8/d23/_ex_fat_lib_8h.html" target="_top" xlink:title=" ">
<polygon fill="white" stroke="black" points="715,-226.5 715,-273.5 840,-273.5 840,-226.5 715,-226.5"/>
<text text-anchor="start" x="723" y="-259.9" font-family="Helvetica,sans-Serif" font-size="12.00">ERISCore/lib/SdFat</text>
<text text-anchor="start" x="723" y="-246.9" font-family="Helvetica,sans-Serif" font-size="12.00">&#45;master/src/ExFatLib</text>
<text text-anchor="middle" x="777.5" y="-233.9" font-family="Helvetica,sans-Serif" font-size="12.00">/ExFatLib.h</text>
</a>
</g>
</g>
<!-- Node4&#45;&gt;Node5 -->
<g id="edge4" class="edge">
<title>Node4&#45;&gt;Node5</title>
<path fill="none" stroke="midnightblue" d="M777.5,-300.11C777.5,-291.26 777.5,-281.88 777.5,-273.72"/>
<polygon fill="midnightblue" stroke="midnightblue" points="774,-300.16 777.5,-310.16 781,-300.16 774,-300.16"/>
</g>
<!-- Node10 -->
<g id="node10" class="node">
<title>Node10</title>
<g id="a_node10"><a xlink:href="../../da/dc3/_ex_fat_dbg_8cpp.html" target="_top" xlink:title=" ">
<polygon fill="white" stroke="black" points="0,-142.5 0,-189.5 125,-189.5 125,-142.5 0,-142.5"/>
<text text-anchor="start" x="8" y="-175.9" font-family="Helvetica,sans-Serif" font-size="12.00">ERISCore/lib/SdFat</text>
<text text-anchor="start" x="8" y="-162.9" font-family="Helvetica,sans-Serif" font-size="12.00">&#45;master/src/ExFatLib</text>
<text text-anchor="middle" x="62.5" y="-149.9" font-family="Helvetica,sans-Serif" font-size="12.00">/ExFatDbg.cpp</text>
</a>
</g>
</g>
<!-- Node4&#45;&gt;Node10 -->
<g id="edge22" class="edge">
<title>Node4&#45;&gt;Node10</title>
<path fill="none" stroke="midnightblue" d="M704.69,-319.17C584.78,-295.88 338.59,-245.85 133.5,-190 130.75,-189.25 127.95,-188.46 125.12,-187.64"/>
<polygon fill="midnightblue" stroke="midnightblue" points="704.37,-322.68 714.85,-321.14 705.7,-315.8 704.37,-322.68"/>
</g>
<!-- Node6 -->
<g id="node6" class="node">
<title>Node6</title>
<g id="a_node6"><a xlink:href="../../dc/d94/_ex_fat_volume_8cpp.html" target="_top" xlink:title=" ">
<polygon fill="white" stroke="black" points="858,-142.5 858,-189.5 983,-189.5 983,-142.5 858,-142.5"/>
<text text-anchor="start" x="866" y="-175.9" font-family="Helvetica,sans-Serif" font-size="12.00">ERISCore/lib/SdFat</text>
<text text-anchor="start" x="866" y="-162.9" font-family="Helvetica,sans-Serif" font-size="12.00">&#45;master/src/ExFatLib</text>
<text text-anchor="middle" x="920.5" y="-149.9" font-family="Helvetica,sans-Serif" font-size="12.00">/ExFatVolume.cpp</text>
</a>
</g>
</g>
<!-- Node5&#45;&gt;Node6 -->
<g id="edge5" class="edge">
<title>Node5&#45;&gt;Node6</title>
<path fill="none" stroke="midnightblue" d="M826.11,-221.12C844.06,-210.83 864.15,-199.31 881.17,-189.55"/>
<polygon fill="midnightblue" stroke="midnightblue" points="823.89,-218.37 816.95,-226.38 827.37,-224.44 823.89,-218.37"/>
</g>
<!-- Node7 -->
<g id="node7" class="node">
<title>Node7</title>
<g id="a_node7"><a xlink:href="../../d2/df9/_ex_fat_partition_8cpp.html" target="_top" xlink:title=" ">
<polygon fill="white" stroke="black" points="1001,-142.5 1001,-189.5 1126,-189.5 1126,-142.5 1001,-142.5"/>
<text text-anchor="start" x="1009" y="-175.9" font-family="Helvetica,sans-Serif" font-size="12.00">ERISCore/lib/SdFat</text>
<text text-anchor="start" x="1009" y="-162.9" font-family="Helvetica,sans-Serif" font-size="12.00">&#45;master/src/ExFatLib</text>
<text text-anchor="middle" x="1063.5" y="-149.9" font-family="Helvetica,sans-Serif" font-size="12.00">/ExFatPartition.cpp</text>
</a>
</g>
</g>
<!-- Node5&#45;&gt;Node7 -->
<g id="edge6" class="edge">
<title>Node5&#45;&gt;Node7</title>
<path fill="none" stroke="midnightblue" d="M850.18,-229.74C891.69,-218.54 944.65,-203.94 991.5,-190 994.52,-189.1 997.6,-188.17 1000.72,-187.22"/>
<polygon fill="midnightblue" stroke="midnightblue" points="849.18,-226.39 840.43,-232.36 850.99,-233.15 849.18,-226.39"/>
</g>
<!-- Node8 -->
<g id="node8" class="node">
<title>Node8</title>
<g id="a_node8"><a xlink:href="../../d8/d04/_ex_fat_name_8cpp.html" target="_top" xlink:title=" ">
<polygon fill="white" stroke="black" points="143,-142.5 143,-189.5 268,-189.5 268,-142.5 143,-142.5"/>
<text text-anchor="start" x="151" y="-175.9" font-family="Helvetica,sans-Serif" font-size="12.00">ERISCore/lib/SdFat</text>
<text text-anchor="start" x="151" y="-162.9" font-family="Helvetica,sans-Serif" font-size="12.00">&#45;master/src/ExFatLib</text>
<text text-anchor="middle" x="205.5" y="-149.9" font-family="Helvetica,sans-Serif" font-size="12.00">/ExFatName.cpp</text>
</a>
</g>
</g>
<!-- Node5&#45;&gt;Node8 -->
<g id="edge7" class="edge">
<title>Node5&#45;&gt;Node8</title>
<path fill="none" stroke="midnightblue" d="M704.64,-244.91C606.47,-238.38 426.69,-222.84 276.5,-190 273.72,-189.39 270.88,-188.72 268.04,-187.99"/>
<polygon fill="midnightblue" stroke="midnightblue" points="704.55,-248.41 714.76,-245.57 705,-241.43 704.55,-248.41"/>
</g>
<!-- Node9 -->
<g id="node9" class="node">
<title>Node9</title>
<g id="a_node9"><a xlink:href="../../d4/d74/_ex_fat_file_8cpp.html" target="_top" xlink:title=" ">
<polygon fill="white" stroke="black" points="286,-142.5 286,-189.5 411,-189.5 411,-142.5 286,-142.5"/>
<text text-anchor="start" x="294" y="-175.9" font-family="Helvetica,sans-Serif" font-size="12.00">ERISCore/lib/SdFat</text>
<text text-anchor="start" x="294" y="-162.9" font-family="Helvetica,sans-Serif" font-size="12.00">&#45;master/src/ExFatLib</text>
<text text-anchor="middle" x="348.5" y="-149.9" font-family="Helvetica,sans-Serif" font-size="12.00">/ExFatFile.cpp</text>
</a>
</g>
</g>
<!-- Node5&#45;&gt;Node9 -->
<g id="edge8" class="edge">
<title>Node5&#45;&gt;Node9</title>
<path fill="none" stroke="midnightblue" d="M704.86,-240.28C632.07,-230.78 517.13,-213.72 419.5,-190 416.73,-189.33 413.91,-188.6 411.07,-187.83"/>
<polygon fill="midnightblue" stroke="midnightblue" points="704.48,-243.76 714.84,-241.57 705.37,-236.82 704.48,-243.76"/>
</g>
<!-- Node5&#45;&gt;Node10 -->
<g id="edge9" class="edge">
<title>Node5&#45;&gt;Node10</title>
<path fill="none" stroke="midnightblue" d="M704.74,-244.38C560.08,-234.85 241.04,-212.06 133.5,-190 130.71,-189.43 127.87,-188.78 125.02,-188.08"/>
<polygon fill="midnightblue" stroke="midnightblue" points="704.64,-247.88 714.84,-245.04 705.09,-240.89 704.64,-247.88"/>
</g>
<!-- Node11 -->
<g id="node11" class="node">
<title>Node11</title>
<g id="a_node11"><a xlink:href="../../d6/dac/_ex_fat_formatter_8cpp.html" target="_top" xlink:title=" ">
<polygon fill="white" stroke="black" points="429,-142.5 429,-189.5 554,-189.5 554,-142.5 429,-142.5"/>
<text text-anchor="start" x="437" y="-175.9" font-family="Helvetica,sans-Serif" font-size="12.00">ERISCore/lib/SdFat</text>
<text text-anchor="start" x="437" y="-162.9" font-family="Helvetica,sans-Serif" font-size="12.00">&#45;master/src/ExFatLib</text>
<text text-anchor="middle" x="491.5" y="-149.9" font-family="Helvetica,sans-Serif" font-size="12.00">/ExFatFormatter.cpp</text>
</a>
</g>
</g>
<!-- Node5&#45;&gt;Node11 -->
<g id="edge10" class="edge">
<title>Node5&#45;&gt;Node11</title>
<path fill="none" stroke="midnightblue" d="M704.91,-229.96C663.13,-218.78 609.71,-204.12 562.5,-190 559.77,-189.18 556.98,-188.34 554.17,-187.47"/>
<polygon fill="midnightblue" stroke="midnightblue" points="704.16,-233.38 714.72,-232.58 705.96,-226.62 704.16,-233.38"/>
</g>
<!-- Node12 -->
<g id="node12" class="node">
<title>Node12</title>
<g id="a_node12"><a xlink:href="../../db/d4e/_ex_fat_file_write_8cpp.html" target="_top" xlink:title=" ">
<polygon fill="white" stroke="black" points="572,-142.5 572,-189.5 697,-189.5 697,-142.5 572,-142.5"/>
<text text-anchor="start" x="580" y="-175.9" font-family="Helvetica,sans-Serif" font-size="12.00">ERISCore/lib/SdFat</text>
<text text-anchor="start" x="580" y="-162.9" font-family="Helvetica,sans-Serif" font-size="12.00">&#45;master/src/ExFatLib</text>
<text text-anchor="middle" x="634.5" y="-149.9" font-family="Helvetica,sans-Serif" font-size="12.00">/ExFatFileWrite.cpp</text>
</a>
</g>
</g>
<!-- Node5&#45;&gt;Node12 -->
<g id="edge11" class="edge">
<title>Node5&#45;&gt;Node12</title>
<path fill="none" stroke="midnightblue" d="M728.89,-221.12C710.94,-210.83 690.85,-199.31 673.83,-189.55"/>
<polygon fill="midnightblue" stroke="midnightblue" points="727.63,-224.44 738.05,-226.38 731.11,-218.37 727.63,-224.44"/>
</g>
<!-- Node13 -->
<g id="node13" class="node">
<title>Node13</title>
<g id="a_node13"><a xlink:href="../../d3/d2b/_ex_fat_file_print_8cpp.html" target="_top" xlink:title=" ">
<polygon fill="white" stroke="black" points="715,-142.5 715,-189.5 840,-189.5 840,-142.5 715,-142.5"/>
<text text-anchor="start" x="723" y="-175.9" font-family="Helvetica,sans-Serif" font-size="12.00">ERISCore/lib/SdFat</text>
<text text-anchor="start" x="723" y="-162.9" font-family="Helvetica,sans-Serif" font-size="12.00">&#45;master/src/ExFatLib</text>
<text text-anchor="middle" x="777.5" y="-149.9" font-family="Helvetica,sans-Serif" font-size="12.00">/ExFatFilePrint.cpp</text>
</a>
</g>
</g>
<!-- Node5&#45;&gt;Node13 -->
<g id="edge12" class="edge">
<title>Node5&#45;&gt;Node13</title>
<path fill="none" stroke="midnightblue" d="M777.5,-216.11C777.5,-207.26 777.5,-197.88 777.5,-189.72"/>
<polygon fill="midnightblue" stroke="midnightblue" points="774,-216.16 777.5,-226.16 781,-216.16 774,-216.16"/>
</g>
<!-- Node14 -->
<g id="node14" class="node">
<title>Node14</title>
<g id="a_node14"><a xlink:href="../../d3/ddb/_fs_file_8h.html" target="_top" xlink:title="FsBaseFile include file.">
<polygon fill="white" stroke="black" points="1144,-149 1144,-183 1297,-183 1297,-149 1144,-149"/>
<text text-anchor="start" x="1152" y="-169.4" font-family="Helvetica,sans-Serif" font-size="12.00">ERISCore/lib/SdFat</text>
<text text-anchor="middle" x="1220.5" y="-156.4" font-family="Helvetica,sans-Serif" font-size="12.00">&#45;master/src/FsLib/FsFile.h</text>
</a>
</g>
</g>
<!-- Node5&#45;&gt;Node14 -->
<g id="edge13" class="edge">
<title>Node5&#45;&gt;Node14</title>
<path fill="none" stroke="midnightblue" d="M850.02,-239.13C922.42,-228.79 1036.71,-211.11 1134.5,-190 1144.02,-187.95 1154.06,-185.51 1163.79,-183"/>
<polygon fill="midnightblue" stroke="midnightblue" points="849.49,-235.67 840.08,-240.54 850.48,-242.6 849.49,-235.67"/>
</g>
<!-- Node31 -->
<g id="node19" class="node">
<title>Node31</title>
<g id="a_node19"><a xlink:href="../../d5/ddc/_sd_fat_8h.html" target="_top" xlink:title="main SdFs include file.">
<polygon fill="white" stroke="red" points="1404.5,-0.5 1404.5,-34.5 1524.5,-34.5 1524.5,-0.5 1404.5,-0.5"/>
<text text-anchor="start" x="1412.5" y="-20.9" font-family="Helvetica,sans-Serif" font-size="12.00">ERISCore/lib/SdFat</text>
<text text-anchor="middle" x="1464.5" y="-7.9" font-family="Helvetica,sans-Serif" font-size="12.00">&#45;master/src/SdFat.h</text>
</a>
</g>
</g>
<!-- Node5&#45;&gt;Node31 -->
<g id="edge21" class="edge">
<title>Node5&#45;&gt;Node31</title>
<path fill="none" stroke="midnightblue" d="M850.5,-247.6C976.54,-244.08 1228.83,-231.87 1305.5,-190 1329.62,-176.82 1326.24,-162.54 1344.5,-142 1379.85,-102.23 1424.06,-58.06 1447.71,-34.83"/>
<polygon fill="midnightblue" stroke="midnightblue" points="850.08,-244.11 840.17,-247.88 850.26,-251.11 850.08,-244.11"/>
</g>
<!-- Node48 -->
<g id="node20" class="node">
<title>Node48</title>
<g id="a_node20"><a xlink:href="../../db/d47/_fs_volume_8h.html" target="_top" xlink:title="FsVolume include file.">
<polygon fill="white" stroke="black" points="1354,-149 1354,-183 1527,-183 1527,-149 1354,-149"/>
<text text-anchor="start" x="1362" y="-169.4" font-family="Helvetica,sans-Serif" font-size="12.00">ERISCore/lib/SdFat</text>
<text text-anchor="middle" x="1440.5" y="-156.4" font-family="Helvetica,sans-Serif" font-size="12.00">&#45;master/src/FsLib/FsVolume.h</text>
</a>
</g>
</g>
<!-- Node5&#45;&gt;Node48 -->
<g id="edge19" class="edge">
<title>Node5&#45;&gt;Node48</title>
<path fill="none" stroke="midnightblue" d="M850.29,-244.15C957.79,-236.35 1165.11,-218.91 1339.5,-190 1351.12,-188.07 1363.41,-185.63 1375.26,-183.05"/>
<polygon fill="midnightblue" stroke="midnightblue" points="849.92,-240.66 840.2,-244.87 850.43,-247.65 849.92,-240.66"/>
</g>
<!-- Node15 -->
<g id="node15" class="node">
<title>Node15</title>
<g id="a_node15"><a xlink:href="../../d3/d27/_fs_lib_8h.html" target="_top" xlink:title="FsLib include file.">
<polygon fill="white" stroke="black" points="1146.5,-71.5 1146.5,-105.5 1296.5,-105.5 1296.5,-71.5 1146.5,-71.5"/>
<text text-anchor="start" x="1154.5" y="-91.9" font-family="Helvetica,sans-Serif" font-size="12.00">ERISCore/lib/SdFat</text>
<text text-anchor="middle" x="1221.5" y="-78.9" font-family="Helvetica,sans-Serif" font-size="12.00">&#45;master/src/FsLib/FsLib.h</text>
</a>
</g>
</g>
<!-- Node14&#45;&gt;Node15 -->
<g id="edge14" class="edge">
<title>Node14&#45;&gt;Node15</title>
<path fill="none" stroke="midnightblue" d="M1220.85,-138.66C1220.99,-127.71 1221.16,-115.34 1221.28,-105.75"/>
<polygon fill="midnightblue" stroke="midnightblue" points="1217.34,-138.94 1220.71,-148.99 1224.34,-139.04 1217.34,-138.94"/>
</g>
<!-- Node16 -->
<g id="node16" class="node">
<title>Node16</title>
<g id="a_node16"><a xlink:href="../../d8/dea/_fs_volume_8cpp.html" target="_top" xlink:title=" ">
<polygon fill="white" stroke="black" points="844,-0.5 844,-34.5 1031,-34.5 1031,-0.5 844,-0.5"/>
<text text-anchor="start" x="852" y="-20.9" font-family="Helvetica,sans-Serif" font-size="12.00">ERISCore/lib/SdFat</text>
<text text-anchor="middle" x="937.5" y="-7.9" font-family="Helvetica,sans-Serif" font-size="12.00">&#45;master/src/FsLib/FsVolume.cpp</text>
</a>
</g>
</g>
<!-- Node15&#45;&gt;Node16 -->
<g id="edge15" class="edge">
<title>Node15&#45;&gt;Node16</title>
<path fill="none" stroke="midnightblue" d="M1145.78,-69.1C1101.46,-58.33 1046.03,-44.87 1003.5,-34.54"/>
<polygon fill="midnightblue" stroke="midnightblue" points="1145.09,-72.54 1155.63,-71.5 1146.74,-65.73 1145.09,-72.54"/>
</g>
<!-- Node17 -->
<g id="node17" class="node">
<title>Node17</title>
<g id="a_node17"><a xlink:href="../../d5/d63/_fs_file_8cpp.html" target="_top" xlink:title=" ">
<polygon fill="white" stroke="black" points="1049,-0.5 1049,-34.5 1216,-34.5 1216,-0.5 1049,-0.5"/>
<text text-anchor="start" x="1057" y="-20.9" font-family="Helvetica,sans-Serif" font-size="12.00">ERISCore/lib/SdFat</text>
<text text-anchor="middle" x="1132.5" y="-7.9" font-family="Helvetica,sans-Serif" font-size="12.00">&#45;master/src/FsLib/FsFile.cpp</text>
</a>
</g>
</g>
<!-- Node15&#45;&gt;Node17 -->
<g id="edge16" class="edge">
<title>Node15&#45;&gt;Node17</title>
<path fill="none" stroke="midnightblue" d="M1192.77,-65.22C1179.93,-55.27 1165.08,-43.76 1153.34,-34.66"/>
<polygon fill="midnightblue" stroke="midnightblue" points="1190.81,-68.14 1200.86,-71.5 1195.1,-62.6 1190.81,-68.14"/>
</g>
<!-- Node18 -->
<g id="node18" class="node">
<title>Node18</title>
<g id="a_node18"><a xlink:href="../../df/dd5/ios_8h.html" target="_top" xlink:title="ios_base and ios classes">
<polygon fill="white" stroke="red" points="1234.5,-0.5 1234.5,-34.5 1386.5,-34.5 1386.5,-0.5 1234.5,-0.5"/>
<text text-anchor="start" x="1242.5" y="-20.9" font-family="Helvetica,sans-Serif" font-size="12.00">ERISCore/lib/SdFat</text>
<text text-anchor="middle" x="1310.5" y="-7.9" font-family="Helvetica,sans-Serif" font-size="12.00">&#45;master/src/iostream/ios.h</text>
</a>
</g>
</g>
<!-- Node15&#45;&gt;Node18 -->
<g id="edge17" class="edge">
<title>Node15&#45;&gt;Node18</title>
<path fill="none" stroke="midnightblue" d="M1250.23,-65.22C1263.07,-55.27 1277.92,-43.76 1289.66,-34.66"/>
<polygon fill="midnightblue" stroke="midnightblue" points="1247.9,-62.6 1242.14,-71.5 1252.19,-68.14 1247.9,-62.6"/>
</g>
<!-- Node15&#45;&gt;Node31 -->
<g id="edge18" class="edge">
<title>Node15&#45;&gt;Node31</title>
<path fill="none" stroke="midnightblue" d="M1287.73,-68.69C1325.41,-58 1372.09,-44.74 1408.03,-34.54"/>
<polygon fill="midnightblue" stroke="midnightblue" points="1286.52,-65.4 1277.86,-71.5 1288.44,-72.13 1286.52,-65.4"/>
</g>
<!-- Node48&#45;&gt;Node15 -->
<g id="edge20" class="edge">
<title>Node48&#45;&gt;Node15</title>
<path fill="none" stroke="midnightblue" d="M1384.2,-145.59C1348.25,-133.2 1302.18,-117.32 1268.25,-105.62"/>
<polygon fill="midnightblue" stroke="midnightblue" points="1383.46,-149.04 1394.06,-148.99 1385.74,-142.42 1383.46,-149.04"/>
</g>
<!-- Node50 -->
<g id="node22" class="node">
<title>Node50</title>
<g id="a_node22"><a xlink:href="../../da/d0b/_fat_volume_8h.html" target="_top" xlink:title="FatVolume class.">
<polygon fill="white" stroke="black" points="1407,-317 1407,-351 1588,-351 1588,-317 1407,-317"/>
<text text-anchor="start" x="1415" y="-337.4" font-family="Helvetica,sans-Serif" font-size="12.00">ERISCore/lib/SdFat</text>
<text text-anchor="middle" x="1497.5" y="-324.4" font-family="Helvetica,sans-Serif" font-size="12.00">&#45;master/src/FatLib/FatVolume.h</text>
</a>
</g>
</g>
<!-- Node49&#45;&gt;Node50 -->
<g id="edge24" class="edge">
<title>Node49&#45;&gt;Node50</title>
<path fill="none" stroke="midnightblue" d="M1393.56,-395.88C1417.3,-381.97 1447.92,-364.04 1469.76,-351.24"/>
<polygon fill="midnightblue" stroke="midnightblue" points="1391.69,-392.92 1384.83,-400.99 1395.22,-398.96 1391.69,-392.92"/>
</g>
<!-- Node51 -->
<g id="node23" class="node">
<title>Node51</title>
<g id="a_node23"><a xlink:href="../../de/dfa/_fat_lib_8h.html" target="_top" xlink:title=" ">
<polygon fill="white" stroke="black" points="1967.5,-233 1967.5,-267 2125.5,-267 2125.5,-233 1967.5,-233"/>
<text text-anchor="start" x="1975.5" y="-253.4" font-family="Helvetica,sans-Serif" font-size="12.00">ERISCore/lib/SdFat</text>
<text text-anchor="middle" x="2046.5" y="-240.4" font-family="Helvetica,sans-Serif" font-size="12.00">&#45;master/src/FatLib/FatLib.h</text>
</a>
</g>
</g>
<!-- Node50&#45;&gt;Node51 -->
<g id="edge25" class="edge">
<title>Node50&#45;&gt;Node51</title>
<path fill="none" stroke="midnightblue" d="M1598.26,-317.95C1704.58,-302.07 1869.94,-277.37 1967.3,-262.83"/>
<polygon fill="midnightblue" stroke="midnightblue" points="1597.53,-314.52 1588.16,-319.46 1598.56,-321.44 1597.53,-314.52"/>
</g>
<!-- Node51&#45;&gt;Node14 -->
<g id="edge35" class="edge">
<title>Node51&#45;&gt;Node14</title>
<path fill="none" stroke="midnightblue" d="M1957.07,-244.34C1823.38,-236.73 1563.64,-219.46 1344.5,-190 1329.09,-187.93 1312.69,-185.24 1297.04,-182.43"/>
<polygon fill="midnightblue" stroke="midnightblue" points="1957.08,-247.85 1967.26,-244.92 1957.48,-240.86 1957.08,-247.85"/>
</g>
<!-- Node51&#45;&gt;Node31 -->
<g id="edge37" class="edge">
<title>Node51&#45;&gt;Node31</title>
<path fill="none" stroke="midnightblue" d="M1957.24,-246.75C1838.5,-242.27 1636.36,-228.99 1574.5,-190 1559.13,-180.31 1497.55,-75.67 1473.86,-34.76"/>
<polygon fill="midnightblue" stroke="midnightblue" points="1957.28,-250.26 1967.4,-247.12 1957.54,-243.26 1957.28,-250.26"/>
</g>
<!-- Node51&#45;&gt;Node48 -->
<g id="edge36" class="edge">
<title>Node51&#45;&gt;Node48</title>
<path fill="none" stroke="midnightblue" d="M1957.21,-241.5C1855.97,-232.31 1686.16,-214.85 1541.5,-190 1529.98,-188.02 1517.8,-185.56 1506.03,-183"/>
<polygon fill="midnightblue" stroke="midnightblue" points="1957.12,-245 1967.4,-242.41 1957.75,-238.03 1957.12,-245"/>
</g>
<!-- Node52 -->
<g id="node24" class="node">
<title>Node52</title>
<g id="a_node24"><a xlink:href="../../db/d91/_fat_file_print_8cpp.html" target="_top" xlink:title=" ">
<polygon fill="white" stroke="black" points="1583.5,-142.5 1583.5,-189.5 1735.5,-189.5 1735.5,-142.5 1583.5,-142.5"/>
<text text-anchor="start" x="1591.5" y="-175.9" font-family="Helvetica,sans-Serif" font-size="12.00">ERISCore/lib/SdFat</text>
<text text-anchor="start" x="1591.5" y="-162.9" font-family="Helvetica,sans-Serif" font-size="12.00">&#45;master/src/FatLib/FatFile</text>
<text text-anchor="middle" x="1659.5" y="-149.9" font-family="Helvetica,sans-Serif" font-size="12.00">Print.cpp</text>
</a>
</g>
</g>
<!-- Node51&#45;&gt;Node52 -->
<g id="edge26" class="edge">
<title>Node51&#45;&gt;Node52</title>
<path fill="none" stroke="midnightblue" d="M1957.45,-233.33C1897.12,-222.29 1815.72,-206.57 1744.5,-190 1741.67,-189.34 1738.79,-188.65 1735.89,-187.95"/>
<polygon fill="midnightblue" stroke="midnightblue" points="1956.86,-236.78 1967.32,-235.13 1958.11,-229.89 1956.86,-236.78"/>
</g>
<!-- Node53 -->
<g id="node25" class="node">
<title>Node53</title>
<g id="a_node25"><a xlink:href="../../dc/d9e/_fat_name_8cpp.html" target="_top" xlink:title=" ">
<polygon fill="white" stroke="black" points="1753.5,-149 1753.5,-183 1939.5,-183 1939.5,-149 1753.5,-149"/>
<text text-anchor="start" x="1761.5" y="-169.4" font-family="Helvetica,sans-Serif" font-size="12.00">ERISCore/lib/SdFat</text>
<text text-anchor="middle" x="1846.5" y="-156.4" font-family="Helvetica,sans-Serif" font-size="12.00">&#45;master/src/FatLib/FatName.cpp</text>
</a>
</g>
</g>
<!-- Node51&#45;&gt;Node53 -->
<g id="edge27" class="edge">
<title>Node51&#45;&gt;Node53</title>
<path fill="none" stroke="midnightblue" d="M1998.07,-229.14C1963.63,-215.02 1917.96,-196.3 1885.78,-183.1"/>
<polygon fill="midnightblue" stroke="midnightblue" points="1996.88,-232.44 2007.46,-232.99 1999.54,-225.96 1996.88,-232.44"/>
</g>
<!-- Node54 -->
<g id="node26" class="node">
<title>Node54</title>
<g id="a_node26"><a xlink:href="../../d5/d96/_fat_dbg_8cpp.html" target="_top" xlink:title=" ">
<polygon fill="white" stroke="black" points="1958,-149 1958,-183 2135,-183 2135,-149 1958,-149"/>
<text text-anchor="start" x="1966" y="-169.4" font-family="Helvetica,sans-Serif" font-size="12.00">ERISCore/lib/SdFat</text>
<text text-anchor="middle" x="2046.5" y="-156.4" font-family="Helvetica,sans-Serif" font-size="12.00">&#45;master/src/FatLib/FatDbg.cpp</text>
</a>
</g>
</g>
<!-- Node51&#45;&gt;Node54 -->
<g id="edge28" class="edge">
<title>Node51&#45;&gt;Node54</title>
<path fill="none" stroke="midnightblue" d="M2046.5,-222.57C2046.5,-209.6 2046.5,-194.39 2046.5,-183.17"/>
<polygon fill="midnightblue" stroke="midnightblue" points="2043,-222.8 2046.5,-232.8 2050,-222.8 2043,-222.8"/>
</g>
<!-- Node55 -->
<g id="node27" class="node">
<title>Node55</title>
<g id="a_node27"><a xlink:href="../../dc/dd7/_fat_file_s_f_n_8cpp.html" target="_top" xlink:title=" ">
<polygon fill="white" stroke="black" points="2153.5,-142.5 2153.5,-189.5 2305.5,-189.5 2305.5,-142.5 2153.5,-142.5"/>
<text text-anchor="start" x="2161.5" y="-175.9" font-family="Helvetica,sans-Serif" font-size="12.00">ERISCore/lib/SdFat</text>
<text text-anchor="start" x="2161.5" y="-162.9" font-family="Helvetica,sans-Serif" font-size="12.00">&#45;master/src/FatLib/FatFile</text>
<text text-anchor="middle" x="2229.5" y="-149.9" font-family="Helvetica,sans-Serif" font-size="12.00">SFN.cpp</text>
</a>
</g>
</g>
<!-- Node51&#45;&gt;Node55 -->
<g id="edge29" class="edge">
<title>Node51&#45;&gt;Node55</title>
<path fill="none" stroke="midnightblue" d="M2091.63,-228.78C2118.11,-216.91 2151.63,-201.89 2178.99,-189.63"/>
<polygon fill="midnightblue" stroke="midnightblue" points="2089.91,-225.71 2082.22,-232.99 2092.78,-232.1 2089.91,-225.71"/>
</g>
<!-- Node56 -->
<g id="node28" class="node">
<title>Node56</title>
<g id="a_node28"><a xlink:href="../../d6/d63/_fat_file_l_f_n_8cpp.html" target="_top" xlink:title=" ">
<polygon fill="white" stroke="black" points="2323.5,-142.5 2323.5,-189.5 2475.5,-189.5 2475.5,-142.5 2323.5,-142.5"/>
<text text-anchor="start" x="2331.5" y="-175.9" font-family="Helvetica,sans-Serif" font-size="12.00">ERISCore/lib/SdFat</text>
<text text-anchor="start" x="2331.5" y="-162.9" font-family="Helvetica,sans-Serif" font-size="12.00">&#45;master/src/FatLib/FatFile</text>
<text text-anchor="middle" x="2399.5" y="-149.9" font-family="Helvetica,sans-Serif" font-size="12.00">LFN.cpp</text>
</a>
</g>
</g>
<!-- Node51&#45;&gt;Node56 -->
<g id="edge30" class="edge">
<title>Node51&#45;&gt;Node56</title>
<path fill="none" stroke="midnightblue" d="M2133.79,-230.88C2186.3,-219.71 2254.4,-204.74 2314.5,-190 2317.32,-189.31 2320.19,-188.59 2323.09,-187.86"/>
<polygon fill="midnightblue" stroke="midnightblue" points="2132.89,-227.49 2123.84,-232.99 2134.35,-234.34 2132.89,-227.49"/>
</g>
<!-- Node57 -->
<g id="node29" class="node">
<title>Node57</title>
<g id="a_node29"><a xlink:href="../../db/dc9/_fat_formatter_8cpp.html" target="_top" xlink:title=" ">
<polygon fill="white" stroke="black" points="2493.5,-149 2493.5,-183 2699.5,-183 2699.5,-149 2493.5,-149"/>
<text text-anchor="start" x="2501.5" y="-169.4" font-family="Helvetica,sans-Serif" font-size="12.00">ERISCore/lib/SdFat</text>
<text text-anchor="middle" x="2596.5" y="-156.4" font-family="Helvetica,sans-Serif" font-size="12.00">&#45;master/src/FatLib/FatFormatter.cpp</text>
</a>
</g>
</g>
<!-- Node51&#45;&gt;Node57 -->
<g id="edge31" class="edge">
<title>Node51&#45;&gt;Node57</title>
<path fill="none" stroke="midnightblue" d="M2135.9,-238.78C2224.61,-228.21 2364.32,-210.41 2484.5,-190 2496.63,-187.94 2509.46,-185.53 2521.93,-183.06"/>
<polygon fill="midnightblue" stroke="midnightblue" points="2135.39,-235.32 2125.87,-239.97 2136.22,-242.27 2135.39,-235.32"/>
</g>
<!-- Node58 -->
<g id="node30" class="node">
<title>Node58</title>
<g id="a_node30"><a xlink:href="../../d5/d8b/_fat_partition_8cpp.html" target="_top" xlink:title=" ">
<polygon fill="white" stroke="black" points="2717.5,-149 2717.5,-183 2915.5,-183 2915.5,-149 2717.5,-149"/>
<text text-anchor="start" x="2725.5" y="-169.4" font-family="Helvetica,sans-Serif" font-size="12.00">ERISCore/lib/SdFat</text>
<text text-anchor="middle" x="2816.5" y="-156.4" font-family="Helvetica,sans-Serif" font-size="12.00">&#45;master/src/FatLib/FatPartition.cpp</text>
</a>
</g>
</g>
<!-- Node51&#45;&gt;Node58 -->
<g id="edge32" class="edge">
<title>Node51&#45;&gt;Node58</title>
<path fill="none" stroke="midnightblue" d="M2135.69,-244.48C2263.22,-237.25 2504.78,-220.66 2708.5,-190 2721.11,-188.1 2734.45,-185.64 2747.3,-183.03"/>
<polygon fill="midnightblue" stroke="midnightblue" points="2135.38,-241 2125.59,-245.05 2135.77,-247.98 2135.38,-241"/>
</g>
<!-- Node59 -->
<g id="node31" class="node">
<title>Node59</title>
<g id="a_node31"><a xlink:href="../../dd/df4/_fat_volume_8cpp.html" target="_top" xlink:title=" ">
<polygon fill="white" stroke="black" points="2933.5,-149 2933.5,-183 3127.5,-183 3127.5,-149 2933.5,-149"/>
<text text-anchor="start" x="2941.5" y="-169.4" font-family="Helvetica,sans-Serif" font-size="12.00">ERISCore/lib/SdFat</text>
<text text-anchor="middle" x="3030.5" y="-156.4" font-family="Helvetica,sans-Serif" font-size="12.00">&#45;master/src/FatLib/FatVolume.cpp</text>
</a>
</g>
</g>
<!-- Node51&#45;&gt;Node59 -->
<g id="edge33" class="edge">
<title>Node51&#45;&gt;Node59</title>
<path fill="none" stroke="midnightblue" d="M2135.82,-247.32C2295.04,-243.35 2638.08,-230.47 2924.5,-190 2937.27,-188.2 2950.8,-185.71 2963.76,-183.04"/>
<polygon fill="midnightblue" stroke="midnightblue" points="2135.52,-243.82 2125.6,-247.56 2135.69,-250.82 2135.52,-243.82"/>
</g>
<!-- Node60 -->
<g id="node32" class="node">
<title>Node60</title>
<g id="a_node32"><a xlink:href="../../d2/dcc/_fat_file_8cpp.html" target="_top" xlink:title=" ">
<polygon fill="white" stroke="black" points="3145.5,-149 3145.5,-183 3319.5,-183 3319.5,-149 3145.5,-149"/>
<text text-anchor="start" x="3153.5" y="-169.4" font-family="Helvetica,sans-Serif" font-size="12.00">ERISCore/lib/SdFat</text>
<text text-anchor="middle" x="3232.5" y="-156.4" font-family="Helvetica,sans-Serif" font-size="12.00">&#45;master/src/FatLib/FatFile.cpp</text>
</a>
</g>
</g>
<!-- Node51&#45;&gt;Node60 -->
<g id="edge34" class="edge">
<title>Node51&#45;&gt;Node60</title>
<path fill="none" stroke="midnightblue" d="M2135.68,-249.62C2322.4,-249.72 2767.75,-243.7 3136.5,-190 3148.37,-188.27 3160.93,-185.77 3172.91,-183.04"/>
<polygon fill="midnightblue" stroke="midnightblue" points="2135.64,-246.12 2125.64,-249.61 2135.63,-253.12 2135.64,-246.12"/>
</g>
</g>
</svg>
