<?xml version="1.0" encoding="UTF-8" standalone="no"?>
<!DOCTYPE svg PUBLIC "-//W3C//DTD SVG 1.1//EN"
 "http://www.w3.org/Graphics/SVG/1.1/DTD/svg11.dtd">
<!-- Generated by graphviz version 2.47.3 (20210619.1520)
 -->
<!-- Title: ERISCore/lib/SdFat&#45;master/src/iostream/StdioStream.h Pages: 1 -->
<svg width="270pt" height="140pt"
 viewBox="0.00 0.00 270.00 140.00" xmlns="http://www.w3.org/2000/svg" xmlns:xlink="http://www.w3.org/1999/xlink">
<g id="graph0" class="graph" transform="scale(1 1) rotate(0) translate(4 136)">
<title>ERISCore/lib/SdFat&#45;master/src/iostream/StdioStream.h</title>
<polygon fill="white" stroke="transparent" points="-4,4 -4,-136 266,-136 266,4 -4,4"/>
<!-- Node1 -->
<g id="node1" class="node">
<title>Node1</title>
<g id="a_node1"><a xlink:title="StdioStream class.">
<polygon fill="#bfbfbf" stroke="black" points="70,-84.5 70,-131.5 194,-131.5 194,-84.5 70,-84.5"/>
<text text-anchor="start" x="78" y="-117.9" font-family="Helvetica,sans-Serif" font-size="12.00">ERISCore/lib/SdFat</text>
<text text-anchor="start" x="78" y="-104.9" font-family="Helvetica,sans-Serif" font-size="12.00">&#45;master/src/iostream</text>
<text text-anchor="middle" x="132" y="-91.9" font-family="Helvetica,sans-Serif" font-size="12.00">/StdioStream.h</text>
</a>
</g>
</g>
<!-- Node2 -->
<g id="node2" class="node">
<title>Node2</title>
<g id="a_node2"><a xlink:href="../../d5/d98/_stdio_stream_8cpp.html" target="_top" xlink:title=" ">
<polygon fill="white" stroke="black" points="0,-0.5 0,-47.5 124,-47.5 124,-0.5 0,-0.5"/>
<text text-anchor="start" x="8" y="-33.9" font-family="Helvetica,sans-Serif" font-size="12.00">ERISCore/lib/SdFat</text>
<text text-anchor="start" x="8" y="-20.9" font-family="Helvetica,sans-Serif" font-size="12.00">&#45;master/src/iostream</text>
<text text-anchor="middle" x="62" y="-7.9" font-family="Helvetica,sans-Serif" font-size="12.00">/StdioStream.cpp</text>
</a>
</g>
</g>
<!-- Node1&#45;&gt;Node2 -->
<g id="edge1" class="edge">
<title>Node1&#45;&gt;Node2</title>
<path fill="none" stroke="midnightblue" d="M105.89,-76.41C97.77,-66.9 88.97,-56.59 81.39,-47.72"/>
<polygon fill="midnightblue" stroke="midnightblue" points="103.35,-78.83 112.5,-84.16 108.67,-74.28 103.35,-78.83"/>
</g>
<!-- Node3 -->
<g id="node3" class="node">
<title>Node3</title>
<g id="a_node3"><a xlink:href="../../d8/d12/sdios_8h.html" target="_top" xlink:title="C++ IO Streams features.">
<polygon fill="white" stroke="black" points="142,-7 142,-41 262,-41 262,-7 142,-7"/>
<text text-anchor="start" x="150" y="-27.4" font-family="Helvetica,sans-Serif" font-size="12.00">ERISCore/lib/SdFat</text>
<text text-anchor="middle" x="202" y="-14.4" font-family="Helvetica,sans-Serif" font-size="12.00">&#45;master/src/sdios.h</text>
</a>
</g>
</g>
<!-- Node1&#45;&gt;Node3 -->
<g id="edge2" class="edge">
<title>Node1&#45;&gt;Node3</title>
<path fill="none" stroke="midnightblue" d="M158.02,-76.52C168.24,-64.55 179.55,-51.29 188.15,-41.23"/>
<polygon fill="midnightblue" stroke="midnightblue" points="155.33,-74.28 151.5,-84.16 160.65,-78.83 155.33,-74.28"/>
</g>
</g>
</svg>
