<?xml version="1.0" encoding="UTF-8" standalone="no"?>
<!DOCTYPE svg PUBLIC "-//W3C//DTD SVG 1.1//EN"
 "http://www.w3.org/Graphics/SVG/1.1/DTD/svg11.dtd">
<!-- Generated by graphviz version 2.47.3 (20210619.1520)
 -->
<!-- Title: cpplint._NamespaceInfo Pages: 1 -->
<svg width="197pt" height="519pt"
 viewBox="0.00 0.00 197.00 519.00" xmlns="http://www.w3.org/2000/svg" xmlns:xlink="http://www.w3.org/1999/xlink">
<g id="graph0" class="graph" transform="scale(1 1) rotate(0) translate(4 515)">
<title>cpplint._NamespaceInfo</title>
<polygon fill="white" stroke="transparent" points="-4,4 -4,-515 193,-515 193,4 -4,4"/>
<!-- Node1 -->
<g id="node1" class="node">
<title>Node1</title>
<g id="a_node1"><a xlink:title=" ">
<polygon fill="#bfbfbf" stroke="black" points="0,-0.5 0,-128.5 189,-128.5 189,-0.5 0,-0.5"/>
<text text-anchor="middle" x="94.5" y="-114.9" font-family="Helvetica,sans-Serif" font-size="12.00">cpplint._NamespaceInfo</text>
<polyline fill="none" stroke="black" points="0,-107.5 189,-107.5 "/>
<text text-anchor="start" x="8" y="-93.9" font-family="Helvetica,sans-Serif" font-size="12.00">+ check_namespace_indentation</text>
<text text-anchor="start" x="8" y="-80.9" font-family="Helvetica,sans-Serif" font-size="12.00">+ name</text>
<polyline fill="none" stroke="black" points="0,-73.5 189,-73.5 "/>
<text text-anchor="start" x="8" y="-59.9" font-family="Helvetica,sans-Serif" font-size="12.00">+ def __init__(self,</text>
<text text-anchor="start" x="8" y="-46.9" font-family="Helvetica,sans-Serif" font-size="12.00"> name, linenum)</text>
<text text-anchor="start" x="8" y="-33.9" font-family="Helvetica,sans-Serif" font-size="12.00">+ def CheckEnd(self,</text>
<text text-anchor="start" x="8" y="-20.9" font-family="Helvetica,sans-Serif" font-size="12.00"> filename, clean_lines,</text>
<text text-anchor="start" x="8" y="-7.9" font-family="Helvetica,sans-Serif" font-size="12.00"> linenum, error)</text>
</a>
</g>
</g>
<!-- Node2 -->
<g id="node2" class="node">
<title>Node2</title>
<g id="a_node2"><a xlink:href="../../d4/dac/classcpplint_1_1___block_info.html" target="_top" xlink:title=" ">
<polygon fill="white" stroke="black" points="0,-165.5 0,-410.5 189,-410.5 189,-165.5 0,-165.5"/>
<text text-anchor="middle" x="94.5" y="-396.9" font-family="Helvetica,sans-Serif" font-size="12.00">cpplint._BlockInfo</text>
<polyline fill="none" stroke="black" points="0,-389.5 189,-389.5 "/>
<text text-anchor="start" x="8" y="-375.9" font-family="Helvetica,sans-Serif" font-size="12.00">+ check_namespace_indentation</text>
<text text-anchor="start" x="8" y="-362.9" font-family="Helvetica,sans-Serif" font-size="12.00">+ inline_asm</text>
<text text-anchor="start" x="8" y="-349.9" font-family="Helvetica,sans-Serif" font-size="12.00">+ open_parentheses</text>
<text text-anchor="start" x="8" y="-336.9" font-family="Helvetica,sans-Serif" font-size="12.00">+ seen_open_brace</text>
<text text-anchor="start" x="8" y="-323.9" font-family="Helvetica,sans-Serif" font-size="12.00">+ starting_linenum</text>
<text text-anchor="start" x="8" y="-310.9" font-family="Helvetica,sans-Serif" font-size="12.00">&#45; __class__</text>
<polyline fill="none" stroke="black" points="0,-303.5 189,-303.5 "/>
<text text-anchor="start" x="8" y="-289.9" font-family="Helvetica,sans-Serif" font-size="12.00">+ def __init__(self,</text>
<text text-anchor="start" x="8" y="-276.9" font-family="Helvetica,sans-Serif" font-size="12.00"> linenum, seen_open</text>
<text text-anchor="start" x="8" y="-263.9" font-family="Helvetica,sans-Serif" font-size="12.00">_brace)</text>
<text text-anchor="start" x="8" y="-250.9" font-family="Helvetica,sans-Serif" font-size="12.00">+ def CheckBegin(self,</text>
<text text-anchor="start" x="8" y="-237.9" font-family="Helvetica,sans-Serif" font-size="12.00"> filename, clean_lines,</text>
<text text-anchor="start" x="8" y="-224.9" font-family="Helvetica,sans-Serif" font-size="12.00"> linenum, error)</text>
<text text-anchor="start" x="8" y="-211.9" font-family="Helvetica,sans-Serif" font-size="12.00">+ def CheckEnd(self,</text>
<text text-anchor="start" x="8" y="-198.9" font-family="Helvetica,sans-Serif" font-size="12.00"> filename, clean_lines,</text>
<text text-anchor="start" x="8" y="-185.9" font-family="Helvetica,sans-Serif" font-size="12.00"> linenum, error)</text>
<text text-anchor="start" x="8" y="-172.9" font-family="Helvetica,sans-Serif" font-size="12.00">+ def IsBlockInfo(self)</text>
</a>
</g>
</g>
<!-- Node2&#45;&gt;Node1 -->
<g id="edge1" class="edge">
<title>Node2&#45;&gt;Node1</title>
<path fill="none" stroke="midnightblue" d="M94.5,-154.98C94.5,-145.96 94.5,-137.14 94.5,-128.77"/>
<polygon fill="none" stroke="midnightblue" points="91,-155.23 94.5,-165.23 98,-155.23 91,-155.23"/>
</g>
<!-- Node3 -->
<g id="node3" class="node">
<title>Node3</title>
<g id="a_node3"><a xlink:title=" ">
<polygon fill="white" stroke="#bfbfbf" points="70.5,-447.5 70.5,-510.5 118.5,-510.5 118.5,-447.5 70.5,-447.5"/>
<text text-anchor="middle" x="94.5" y="-496.9" font-family="Helvetica,sans-Serif" font-size="12.00">object</text>
<polyline fill="none" stroke="#bfbfbf" points="70.5,-489.5 118.5,-489.5 "/>
<text text-anchor="middle" x="94.5" y="-475.9" font-family="Helvetica,sans-Serif" font-size="12.00"> </text>
<polyline fill="none" stroke="#bfbfbf" points="70.5,-468.5 118.5,-468.5 "/>
<text text-anchor="middle" x="94.5" y="-454.9" font-family="Helvetica,sans-Serif" font-size="12.00"> </text>
</a>
</g>
</g>
<!-- Node3&#45;&gt;Node2 -->
<g id="edge2" class="edge">
<title>Node3&#45;&gt;Node2</title>
<path fill="none" stroke="midnightblue" d="M94.5,-437.04C94.5,-428.93 94.5,-420.03 94.5,-410.75"/>
<polygon fill="none" stroke="midnightblue" points="91,-437.21 94.5,-447.21 98,-437.21 91,-437.21"/>
</g>
</g>
</svg>
