<?xml version="1.0" encoding="UTF-8" standalone="no"?>
<!DOCTYPE svg PUBLIC "-//W3C//DTD SVG 1.1//EN"
 "http://www.w3.org/Graphics/SVG/1.1/DTD/svg11.dtd">
<!-- Generated by graphviz version 2.47.3 (20210619.1520)
 -->
<!-- Title: D:/brian/Dev/Eris/ERISCore/src/AppManager.cpp Pages: 1 -->
<!--zoomable 391 -->
<svg id="main" version="1.1" xmlns="http://www.w3.org/2000/svg" xmlns:xlink="http://www.w3.org/1999/xlink" xml:space="preserve" onload="init(evt)">
<style type="text/css"><![CDATA[
.edge:hover path { stroke: red; }
.edge:hover polygon { stroke: red; fill: red; }
]]></style>
<script type="text/javascript"><![CDATA[
var edges = document.getElementsByTagName('g');
if (edges && edges.length) {
  for (var i=0;i<edges.length;i++) {
    if (edges[i].id.substr(0,4)=='edge') {
      edges[i].setAttribute('class','edge');
    }
  }
}
]]></script>
        <defs>
                <circle id="rim" cx="0" cy="0" r="7"/>
                <circle id="rim2" cx="0" cy="0" r="3.5"/>
                <g id="zoomPlus">
                        <use xlink:href="#rim" fill="#404040">
                                <set attributeName="fill" to="#808080" begin="zoomplus.mouseover" end="zoomplus.mouseout"/>
                        </use>
                        <path d="M-4,0h8M0,-4v8" fill="none" stroke="white" stroke-width="1.5" pointer-events="none"/>
                </g>
                <g id="zoomMin">
                        <use xlink:href="#rim" fill="#404040">
                                <set attributeName="fill" to="#808080" begin="zoomminus.mouseover" end="zoomminus.mouseout"/>
                        </use>
                        <path d="M-4,0h8" fill="none" stroke="white" stroke-width="1.5" pointer-events="none"/>
                </g>
                <g id="dirArrow">
                        <path fill="none" stroke="white" stroke-width="1.5" d="M0,-3.0v7 M-2.5,-0.5L0,-3.0L2.5,-0.5"/>
                </g>
               <g id="resetDef">
                       <use xlink:href="#rim2" fill="#404040">
                               <set attributeName="fill" to="#808080" begin="reset.mouseover" end="reset.mouseout"/>
                       </use>
               </g>
        </defs>

<script type="text/javascript">
var viewWidth = 1326;
var viewHeight = 391;
var sectionId = 'dynsection-0';
</script>
<script xlink:href="../../svgpan.js"/>
<svg id="graph" class="graph">
<g id="viewport">
<title>D:/brian/Dev/Eris/ERISCore/src/AppManager.cpp</title>
<polygon fill="white" stroke="transparent" points="-4,4 -4,-387 1321.5,-387 1321.5,4 -4,4"/>
<!-- Node1 -->
<g id="node1" class="node">
<title>Node1</title>
<g id="a_node1"><a xlink:title=" ">
<polygon fill="#bfbfbf" stroke="black" points="499.5,-348.5 499.5,-382.5 661.5,-382.5 661.5,-348.5 499.5,-348.5"/>
<text text-anchor="start" x="507.5" y="-368.9" font-family="Helvetica,sans-Serif" font-size="12.00">D:/brian/Dev/Eris/ERISCore</text>
<text text-anchor="middle" x="580.5" y="-355.9" font-family="Helvetica,sans-Serif" font-size="12.00">/src/AppManager.cpp</text>
</a>
</g>
</g>
<!-- Node2 -->
<g id="node2" class="node">
<title>Node2</title>
<g id="a_node2"><a xlink:title=" ">
<polygon fill="white" stroke="#bfbfbf" points="634.5,-0.5 634.5,-21.5 700.5,-21.5 700.5,-0.5 634.5,-0.5"/>
<text text-anchor="middle" x="667.5" y="-7.9" font-family="Helvetica,sans-Serif" font-size="12.00">Arduino.h</text>
</a>
</g>
</g>
<!-- Node1&#45;&gt;Node2 -->
<g id="edge1" class="edge">
<title>Node1&#45;&gt;Node2</title>
<path fill="none" stroke="midnightblue" d="M661.83,-359.63C853.5,-347.06 1317.5,-309.84 1317.5,-244 1317.5,-244 1317.5,-244 1317.5,-126 1317.5,-44.62 1226.58,-77.19 1147.5,-58 989.74,-19.72 795.57,-13.04 710.67,-12.05"/>
<polygon fill="midnightblue" stroke="midnightblue" points="710.66,-8.55 700.63,-11.95 710.59,-15.55 710.66,-8.55"/>
</g>
<!-- Node3 -->
<g id="node3" class="node">
<title>Node3</title>
<g id="a_node3"><a xlink:href="../../de/d10/_h_s_i_8h.html" target="_top" xlink:title=" ">
<polygon fill="white" stroke="black" points="416.5,-174.5 416.5,-195.5 460.5,-195.5 460.5,-174.5 416.5,-174.5"/>
<text text-anchor="middle" x="438.5" y="-181.9" font-family="Helvetica,sans-Serif" font-size="12.00">HSI.h</text>
</a>
</g>
</g>
<!-- Node1&#45;&gt;Node3 -->
<g id="edge2" class="edge">
<title>Node1&#45;&gt;Node3</title>
<path fill="none" stroke="midnightblue" d="M557.67,-348.21C531.61,-328.56 489.28,-293.22 463.5,-254 453.7,-239.09 447.09,-219.83 443.13,-205.61"/>
<polygon fill="midnightblue" stroke="midnightblue" points="446.51,-204.69 440.62,-195.88 439.73,-206.44 446.51,-204.69"/>
</g>
<!-- Node4 -->
<g id="node4" class="node">
<title>Node4</title>
<g id="a_node4"><a xlink:href="../../d1/d4e/touch_8h.html" target="_top" xlink:title=" ">
<polygon fill="white" stroke="black" points="235,-232.5 235,-253.5 288,-253.5 288,-232.5 235,-232.5"/>
<text text-anchor="middle" x="261.5" y="-239.9" font-family="Helvetica,sans-Serif" font-size="12.00">touch.h</text>
</a>
</g>
</g>
<!-- Node1&#45;&gt;Node4 -->
<g id="edge3" class="edge">
<title>Node1&#45;&gt;Node4</title>
<path fill="none" stroke="midnightblue" d="M502.81,-348.5C465.96,-339.73 421.73,-327.47 383.5,-312 347.38,-297.39 308.55,-274.33 284.63,-259.19"/>
<polygon fill="midnightblue" stroke="midnightblue" points="286.24,-256.06 275.93,-253.61 282.46,-261.96 286.24,-256.06"/>
</g>
<!-- Node6 -->
<g id="node6" class="node">
<title>Node6</title>
<g id="a_node6"><a xlink:href="../../d3/ddb/_analog_inputs_8h.html" target="_top" xlink:title=" ">
<polygon fill="white" stroke="black" points="306.5,-232.5 306.5,-253.5 398.5,-253.5 398.5,-232.5 306.5,-232.5"/>
<text text-anchor="middle" x="352.5" y="-239.9" font-family="Helvetica,sans-Serif" font-size="12.00">AnalogInputs.h</text>
</a>
</g>
</g>
<!-- Node1&#45;&gt;Node6 -->
<g id="edge5" class="edge">
<title>Node1&#45;&gt;Node6</title>
<path fill="none" stroke="midnightblue" d="M499.22,-348.66C470.32,-340.62 438.52,-328.88 412.5,-312 392.59,-299.09 375.33,-277.81 364.5,-262.49"/>
<polygon fill="midnightblue" stroke="midnightblue" points="367.14,-260.15 358.62,-253.85 361.35,-264.09 367.14,-260.15"/>
</g>
<!-- Node15 -->
<g id="node11" class="node">
<title>Node15</title>
<g id="a_node11"><a xlink:href="../../d2/dda/_i_l_i9341__t3___e_r_i_s_8h.html" target="_top" xlink:title=" ">
<polygon fill="white" stroke="black" points="858.5,-174.5 858.5,-195.5 972.5,-195.5 972.5,-174.5 858.5,-174.5"/>
<text text-anchor="middle" x="915.5" y="-181.9" font-family="Helvetica,sans-Serif" font-size="12.00">ILI9341_t3_ERIS.h</text>
</a>
</g>
</g>
<!-- Node1&#45;&gt;Node15 -->
<g id="edge13" class="edge">
<title>Node1&#45;&gt;Node15</title>
<path fill="none" stroke="midnightblue" d="M621.59,-348.38C670.35,-328.63 753.47,-292.95 820.5,-254 847.75,-238.17 876.92,-216.5 895.64,-201.92"/>
<polygon fill="midnightblue" stroke="midnightblue" points="898.01,-204.51 903.7,-195.57 893.68,-199.01 898.01,-204.51"/>
</g>
<!-- Node20 -->
<g id="node16" class="node">
<title>Node20</title>
<g id="a_node16"><a xlink:title=" ">
<polygon fill="white" stroke="#bfbfbf" points="990.5,-174.5 990.5,-195.5 1130.5,-195.5 1130.5,-174.5 990.5,-174.5"/>
<text text-anchor="middle" x="1060.5" y="-181.9" font-family="Helvetica,sans-Serif" font-size="12.00">ili9341_t3n_font_Arial.h</text>
</a>
</g>
</g>
<!-- Node1&#45;&gt;Node20 -->
<g id="edge18" class="edge">
<title>Node1&#45;&gt;Node20</title>
<path fill="none" stroke="midnightblue" d="M633.99,-348.41C666.2,-338.46 707.92,-325.13 744.5,-312 849.64,-274.26 971.92,-223.51 1028.61,-199.57"/>
<polygon fill="midnightblue" stroke="midnightblue" points="1030.25,-202.68 1038.1,-195.56 1027.53,-196.23 1030.25,-202.68"/>
</g>
<!-- Node21 -->
<g id="node17" class="node">
<title>Node21</title>
<g id="a_node17"><a xlink:href="../../df/d72/_app_manager_8h.html" target="_top" xlink:title=" ">
<polygon fill="white" stroke="black" points="533.5,-290.5 533.5,-311.5 627.5,-311.5 627.5,-290.5 533.5,-290.5"/>
<text text-anchor="middle" x="580.5" y="-297.9" font-family="Helvetica,sans-Serif" font-size="12.00">AppManager.h</text>
</a>
</g>
</g>
<!-- Node1&#45;&gt;Node21 -->
<g id="edge19" class="edge">
<title>Node1&#45;&gt;Node21</title>
<path fill="none" stroke="midnightblue" d="M580.5,-348.4C580.5,-340.36 580.5,-330.54 580.5,-322.01"/>
<polygon fill="midnightblue" stroke="midnightblue" points="584,-321.8 580.5,-311.8 577,-321.8 584,-321.8"/>
</g>
<!-- Node5 -->
<g id="node5" class="node">
<title>Node5</title>
<g id="a_node5"><a xlink:title=" ">
<polygon fill="white" stroke="#bfbfbf" points="0,-174.5 0,-195.5 149,-195.5 149,-174.5 0,-174.5"/>
<text text-anchor="middle" x="74.5" y="-181.9" font-family="Helvetica,sans-Serif" font-size="12.00">XPT2046_Touchscreen.h</text>
</a>
</g>
</g>
<!-- Node4&#45;&gt;Node5 -->
<g id="edge4" class="edge">
<title>Node4&#45;&gt;Node5</title>
<path fill="none" stroke="midnightblue" d="M234.71,-233.98C203.69,-224.69 152.24,-209.28 116.03,-198.44"/>
<polygon fill="midnightblue" stroke="midnightblue" points="116.83,-195.02 106.25,-195.51 114.82,-201.73 116.83,-195.02"/>
</g>
<!-- Node6&#45;&gt;Node2 -->
<g id="edge6" class="edge">
<title>Node6&#45;&gt;Node2</title>
<path fill="none" stroke="midnightblue" d="M333.09,-232.43C279.56,-204.84 137.55,-122.99 196.5,-58 224.94,-26.64 512.87,-15.96 624.03,-12.99"/>
<polygon fill="midnightblue" stroke="midnightblue" points="624.32,-16.48 634.23,-12.72 624.14,-9.48 624.32,-16.48"/>
</g>
<!-- Node6&#45;&gt;Node3 -->
<g id="edge12" class="edge">
<title>Node6&#45;&gt;Node3</title>
<path fill="none" stroke="midnightblue" d="M367.48,-232.25C380.68,-223.65 400.11,-211 415.31,-201.1"/>
<polygon fill="midnightblue" stroke="midnightblue" points="417.22,-204.03 423.69,-195.64 413.4,-198.17 417.22,-204.03"/>
</g>
<!-- Node7 -->
<g id="node7" class="node">
<title>Node7</title>
<g id="a_node7"><a xlink:href="../../d2/ded/eris_audio_8h.html" target="_top" xlink:title=" ">
<polygon fill="white" stroke="black" points="340.5,-116.5 340.5,-137.5 416.5,-137.5 416.5,-116.5 340.5,-116.5"/>
<text text-anchor="middle" x="378.5" y="-123.9" font-family="Helvetica,sans-Serif" font-size="12.00">erisAudio.h</text>
</a>
</g>
</g>
<!-- Node6&#45;&gt;Node7 -->
<g id="edge7" class="edge">
<title>Node6&#45;&gt;Node7</title>
<path fill="none" stroke="midnightblue" d="M354.72,-232.28C358.98,-213.6 368.38,-172.37 374,-147.72"/>
<polygon fill="midnightblue" stroke="midnightblue" points="377.48,-148.22 376.29,-137.69 370.65,-146.67 377.48,-148.22"/>
</g>
<!-- Node8 -->
<g id="node8" class="node">
<title>Node8</title>
<g id="a_node8"><a xlink:href="../../de/db5/eris__synth__waveform_8h.html" target="_top" xlink:title=" ">
<polygon fill="white" stroke="red" points="206,-58.5 206,-79.5 341,-79.5 341,-58.5 206,-58.5"/>
<text text-anchor="middle" x="273.5" y="-65.9" font-family="Helvetica,sans-Serif" font-size="12.00">eris_synth_waveform.h</text>
</a>
</g>
</g>
<!-- Node7&#45;&gt;Node8 -->
<g id="edge8" class="edge">
<title>Node7&#45;&gt;Node8</title>
<path fill="none" stroke="midnightblue" d="M360.21,-116.25C343.72,-107.45 319.26,-94.41 300.52,-84.41"/>
<polygon fill="midnightblue" stroke="midnightblue" points="302.05,-81.26 291.58,-79.64 298.76,-87.44 302.05,-81.26"/>
</g>
<!-- Node13 -->
<g id="node9" class="node">
<title>Node13</title>
<g id="a_node9"><a xlink:title=" ">
<polygon fill="white" stroke="#bfbfbf" points="415.5,-58.5 415.5,-79.5 471.5,-79.5 471.5,-58.5 415.5,-58.5"/>
<text text-anchor="middle" x="443.5" y="-65.9" font-family="Helvetica,sans-Serif" font-size="12.00">Audio.h</text>
</a>
</g>
</g>
<!-- Node7&#45;&gt;Node13 -->
<g id="edge10" class="edge">
<title>Node7&#45;&gt;Node13</title>
<path fill="none" stroke="midnightblue" d="M389.82,-116.25C399.42,-107.97 413.39,-95.94 424.67,-86.22"/>
<polygon fill="midnightblue" stroke="midnightblue" points="427.02,-88.82 432.31,-79.64 422.45,-83.52 427.02,-88.82"/>
</g>
<!-- Node14 -->
<g id="node10" class="node">
<title>Node14</title>
<g id="a_node10"><a xlink:title=" ">
<polygon fill="white" stroke="#bfbfbf" points="359.5,-58.5 359.5,-79.5 397.5,-79.5 397.5,-58.5 359.5,-58.5"/>
<text text-anchor="middle" x="378.5" y="-65.9" font-family="Helvetica,sans-Serif" font-size="12.00">new</text>
</a>
</g>
</g>
<!-- Node7&#45;&gt;Node14 -->
<g id="edge11" class="edge">
<title>Node7&#45;&gt;Node14</title>
<path fill="none" stroke="midnightblue" d="M378.5,-116.25C378.5,-108.94 378.5,-98.69 378.5,-89.7"/>
<polygon fill="midnightblue" stroke="midnightblue" points="382,-89.64 378.5,-79.64 375,-89.64 382,-89.64"/>
</g>
<!-- Node8&#45;&gt;Node2 -->
<g id="edge9" class="edge">
<title>Node8&#45;&gt;Node2</title>
<path fill="none" stroke="midnightblue" d="M340.78,-58.44C421.9,-46.91 555.83,-27.87 624.29,-18.14"/>
<polygon fill="midnightblue" stroke="midnightblue" points="624.89,-21.59 634.3,-16.72 623.9,-14.66 624.89,-21.59"/>
</g>
<!-- Node16 -->
<g id="node12" class="node">
<title>Node16</title>
<g id="a_node12"><a xlink:title=" ">
<polygon fill="white" stroke="#bfbfbf" points="811.5,-116.5 811.5,-137.5 897.5,-137.5 897.5,-116.5 811.5,-116.5"/>
<text text-anchor="middle" x="854.5" y="-123.9" font-family="Helvetica,sans-Serif" font-size="12.00">ILI9341_t3n.h</text>
</a>
</g>
</g>
<!-- Node15&#45;&gt;Node16 -->
<g id="edge14" class="edge">
<title>Node15&#45;&gt;Node16</title>
<path fill="none" stroke="midnightblue" d="M904.87,-174.25C895.95,-166.05 883.01,-154.17 872.48,-144.51"/>
<polygon fill="midnightblue" stroke="midnightblue" points="874.74,-141.83 865,-137.64 870,-146.98 874.74,-141.83"/>
</g>
<!-- Node17 -->
<g id="node13" class="node">
<title>Node17</title>
<g id="a_node13"><a xlink:title=" ">
<polygon fill="white" stroke="#bfbfbf" points="916,-116.5 916,-137.5 1037,-137.5 1037,-116.5 916,-116.5"/>
<text text-anchor="middle" x="976.5" y="-123.9" font-family="Helvetica,sans-Serif" font-size="12.00">SdCard/SdioCard.h</text>
</a>
</g>
</g>
<!-- Node15&#45;&gt;Node17 -->
<g id="edge15" class="edge">
<title>Node15&#45;&gt;Node17</title>
<path fill="none" stroke="midnightblue" d="M926.13,-174.25C935.05,-166.05 947.99,-154.17 958.52,-144.51"/>
<polygon fill="midnightblue" stroke="midnightblue" points="961,-146.98 966,-137.64 956.26,-141.83 961,-146.98"/>
</g>
<!-- Node18 -->
<g id="node14" class="node">
<title>Node18</title>
<g id="a_node14"><a xlink:title=" ">
<polygon fill="white" stroke="#bfbfbf" points="1055.5,-116.5 1055.5,-137.5 1147.5,-137.5 1147.5,-116.5 1055.5,-116.5"/>
<text text-anchor="middle" x="1101.5" y="-123.9" font-family="Helvetica,sans-Serif" font-size="12.00">SdFatConfig.h</text>
</a>
</g>
</g>
<!-- Node15&#45;&gt;Node18 -->
<g id="edge16" class="edge">
<title>Node15&#45;&gt;Node18</title>
<path fill="none" stroke="midnightblue" d="M947.47,-174.37C978.67,-164.98 1026.27,-150.65 1060.29,-140.41"/>
<polygon fill="midnightblue" stroke="midnightblue" points="1061.38,-143.74 1069.94,-137.5 1059.36,-137.03 1061.38,-143.74"/>
</g>
<!-- Node19 -->
<g id="node15" class="node">
<title>Node19</title>
<g id="a_node15"><a xlink:title=" ">
<polygon fill="white" stroke="#bfbfbf" points="1166,-116.5 1166,-137.5 1251,-137.5 1251,-116.5 1166,-116.5"/>
<text text-anchor="middle" x="1208.5" y="-123.9" font-family="Helvetica,sans-Serif" font-size="12.00">SdFat&#45;beta.h</text>
</a>
</g>
</g>
<!-- Node15&#45;&gt;Node19 -->
<g id="edge17" class="edge">
<title>Node15&#45;&gt;Node19</title>
<path fill="none" stroke="midnightblue" d="M965.82,-174.42C1012.38,-165.54 1083.83,-151.92 1155.78,-138.14"/>
<polygon fill="midnightblue" stroke="midnightblue" points="1156.77,-141.51 1165.93,-136.19 1155.45,-134.63 1156.77,-141.51"/>
</g>
<!-- Node21&#45;&gt;Node2 -->
<g id="edge21" class="edge">
<title>Node21&#45;&gt;Node2</title>
<path fill="none" stroke="midnightblue" d="M560.43,-290.41C546.75,-282.68 529.68,-270.39 521.5,-254 482.6,-176.05 466.77,-128.1 518.5,-58 542.54,-25.43 589.33,-15.21 624.09,-12.35"/>
<polygon fill="midnightblue" stroke="midnightblue" points="624.7,-15.82 634.46,-11.68 624.25,-8.83 624.7,-15.82"/>
</g>
<!-- Node21&#45;&gt;Node3 -->
<g id="edge23" class="edge">
<title>Node21&#45;&gt;Node3</title>
<path fill="none" stroke="midnightblue" d="M553.55,-290.48C534.08,-282.71 507.89,-270.34 488.5,-254 471.95,-240.06 457.86,-219.58 448.9,-204.74"/>
<polygon fill="midnightblue" stroke="midnightblue" points="451.82,-202.81 443.77,-195.93 445.77,-206.33 451.82,-202.81"/>
</g>
<!-- Node21&#45;&gt;Node4 -->
<g id="edge24" class="edge">
<title>Node21&#45;&gt;Node4</title>
<path fill="none" stroke="midnightblue" d="M533.13,-293.92C478.72,-286.58 386.63,-273.06 298.09,-253.93"/>
<polygon fill="midnightblue" stroke="midnightblue" points="298.67,-250.47 288.15,-251.76 297.18,-257.31 298.67,-250.47"/>
</g>
<!-- Node21&#45;&gt;Node6 -->
<g id="edge25" class="edge">
<title>Node21&#45;&gt;Node6</title>
<path fill="none" stroke="midnightblue" d="M541.56,-290.44C502.71,-280.89 442.91,-266.21 400.99,-255.91"/>
<polygon fill="midnightblue" stroke="midnightblue" points="401.82,-252.51 391.27,-253.52 400.15,-259.31 401.82,-252.51"/>
</g>
<!-- Node21&#45;&gt;Node15 -->
<g id="edge26" class="edge">
<title>Node21&#45;&gt;Node15</title>
<path fill="none" stroke="midnightblue" d="M627.57,-292.7C669.13,-285.46 730.94,-272.72 782.5,-254 822.01,-239.65 864.81,-216.21 890.89,-200.95"/>
<polygon fill="midnightblue" stroke="midnightblue" points="892.89,-203.83 899.71,-195.72 889.32,-197.81 892.89,-203.83"/>
</g>
<!-- Node22 -->
<g id="node18" class="node">
<title>Node22</title>
<g id="a_node18"><a xlink:href="../../d8/d2c/globaldefs_8h.html" target="_top" xlink:title=" ">
<polygon fill="white" stroke="black" points="713.5,-116.5 713.5,-137.5 793.5,-137.5 793.5,-116.5 713.5,-116.5"/>
<text text-anchor="middle" x="753.5" y="-123.9" font-family="Helvetica,sans-Serif" font-size="12.00">globaldefs.h</text>
</a>
</g>
</g>
<!-- Node21&#45;&gt;Node22 -->
<g id="edge20" class="edge">
<title>Node21&#45;&gt;Node22</title>
<path fill="none" stroke="midnightblue" d="M627.61,-293.5C672.18,-286.29 734.42,-273.09 749.5,-254 773.58,-223.5 766.18,-174.71 759.39,-147.66"/>
<polygon fill="midnightblue" stroke="midnightblue" points="762.71,-146.54 756.7,-137.82 755.96,-148.39 762.71,-146.54"/>
</g>
<!-- Node23 -->
<g id="node19" class="node">
<title>Node23</title>
<g id="a_node19"><a xlink:title=" ">
<polygon fill="white" stroke="#bfbfbf" points="530.5,-232.5 530.5,-253.5 578.5,-253.5 578.5,-232.5 530.5,-232.5"/>
<text text-anchor="middle" x="554.5" y="-239.9" font-family="Helvetica,sans-Serif" font-size="12.00">vector</text>
</a>
</g>
</g>
<!-- Node21&#45;&gt;Node23 -->
<g id="edge22" class="edge">
<title>Node21&#45;&gt;Node23</title>
<path fill="none" stroke="midnightblue" d="M575.97,-290.25C572.47,-282.7 567.51,-272.02 563.24,-262.82"/>
<polygon fill="midnightblue" stroke="midnightblue" points="566.36,-261.24 558.98,-253.64 560.01,-264.19 566.36,-261.24"/>
</g>
<!-- Node24 -->
<g id="node20" class="node">
<title>Node24</title>
<g id="a_node20"><a xlink:href="../../db/dc8/_audio_director_8h.html" target="_top" xlink:title=" ">
<polygon fill="white" stroke="black" points="557.5,-174.5 557.5,-195.5 655.5,-195.5 655.5,-174.5 557.5,-174.5"/>
<text text-anchor="middle" x="606.5" y="-181.9" font-family="Helvetica,sans-Serif" font-size="12.00">AudioDirector.h</text>
</a>
</g>
</g>
<!-- Node21&#45;&gt;Node24 -->
<g id="edge27" class="edge">
<title>Node21&#45;&gt;Node24</title>
<path fill="none" stroke="midnightblue" d="M582.72,-290.28C586.98,-271.6 596.38,-230.37 602,-205.72"/>
<polygon fill="midnightblue" stroke="midnightblue" points="605.48,-206.22 604.29,-195.69 598.65,-204.67 605.48,-206.22"/>
</g>
<!-- Node30 -->
<g id="node24" class="node">
<title>Node30</title>
<g id="a_node24"><a xlink:href="../../d9/d3e/_app_base_class_8h.html" target="_top" xlink:title=" ">
<polygon fill="white" stroke="black" points="635,-232.5 635,-253.5 740,-253.5 740,-232.5 635,-232.5"/>
<text text-anchor="middle" x="687.5" y="-239.9" font-family="Helvetica,sans-Serif" font-size="12.00">AppBaseClass.h</text>
</a>
</g>
</g>
<!-- Node21&#45;&gt;Node30 -->
<g id="edge35" class="edge">
<title>Node21&#45;&gt;Node30</title>
<path fill="none" stroke="midnightblue" d="M599.14,-290.25C615.94,-281.45 640.86,-268.41 659.96,-258.41"/>
<polygon fill="midnightblue" stroke="midnightblue" points="661.84,-261.38 669.08,-253.64 658.59,-255.18 661.84,-261.38"/>
</g>
<!-- Node31 -->
<g id="node25" class="node">
<title>Node31</title>
<g id="a_node25"><a xlink:href="../../dd/df4/svc_data_dictionary_8h.html" target="_top" xlink:title="Data Dictionary service provides an interface to a data dictionary service the service shall provide ...">
<polygon fill="white" stroke="black" points="1017,-58.5 1017,-79.5 1138,-79.5 1138,-58.5 1017,-58.5"/>
<text text-anchor="middle" x="1077.5" y="-65.9" font-family="Helvetica,sans-Serif" font-size="12.00">svcDataDictionary.h</text>
</a>
</g>
</g>
<!-- Node21&#45;&gt;Node31 -->
<g id="edge42" class="edge">
<title>Node21&#45;&gt;Node31</title>
<path fill="none" stroke="midnightblue" d="M627.53,-296.95C770.1,-286.57 1191.92,-246.93 1260.5,-138 1289.24,-92.36 1211.53,-77.18 1148.61,-72.23"/>
<polygon fill="midnightblue" stroke="midnightblue" points="1148.48,-68.72 1138.26,-71.5 1147.99,-75.7 1148.48,-68.72"/>
</g>
<!-- Node24&#45;&gt;Node7 -->
<g id="edge30" class="edge">
<title>Node24&#45;&gt;Node7</title>
<path fill="none" stroke="midnightblue" d="M567.56,-174.44C528.47,-164.84 468.18,-150.03 426.23,-139.72"/>
<polygon fill="midnightblue" stroke="midnightblue" points="427.06,-136.32 416.52,-137.34 425.39,-143.12 427.06,-136.32"/>
</g>
<!-- Node24&#45;&gt;Node22 -->
<g id="edge28" class="edge">
<title>Node24&#45;&gt;Node22</title>
<path fill="none" stroke="midnightblue" d="M631.77,-174.37C655.9,-165.18 692.44,-151.26 719.19,-141.07"/>
<polygon fill="midnightblue" stroke="midnightblue" points="720.46,-144.33 728.56,-137.5 717.97,-137.79 720.46,-144.33"/>
</g>
<!-- Node11 -->
<g id="node21" class="node">
<title>Node11</title>
<g id="a_node21"><a xlink:title=" ">
<polygon fill="white" stroke="#bfbfbf" points="603.5,-116.5 603.5,-137.5 657.5,-137.5 657.5,-116.5 603.5,-116.5"/>
<text text-anchor="middle" x="630.5" y="-123.9" font-family="Helvetica,sans-Serif" font-size="12.00">string.h</text>
</a>
</g>
</g>
<!-- Node24&#45;&gt;Node11 -->
<g id="edge29" class="edge">
<title>Node24&#45;&gt;Node11</title>
<path fill="none" stroke="midnightblue" d="M610.68,-174.25C613.88,-166.78 618.4,-156.24 622.31,-147.11"/>
<polygon fill="midnightblue" stroke="midnightblue" points="625.65,-148.21 626.37,-137.64 619.21,-145.46 625.65,-148.21"/>
</g>
<!-- Node25 -->
<g id="node22" class="node">
<title>Node25</title>
<g id="a_node22"><a xlink:href="../../d4/dfc/eris__analyze__fft1024_8h.html" target="_top" xlink:title=" ">
<polygon fill="white" stroke="red" points="675.5,-58.5 675.5,-79.5 809.5,-79.5 809.5,-58.5 675.5,-58.5"/>
<text text-anchor="middle" x="742.5" y="-65.9" font-family="Helvetica,sans-Serif" font-size="12.00">eris_analyze_fft1024.h</text>
</a>
</g>
</g>
<!-- Node24&#45;&gt;Node25 -->
<g id="edge31" class="edge">
<title>Node24&#45;&gt;Node25</title>
<path fill="none" stroke="midnightblue" d="M600.57,-174.17C592.84,-159.93 581.7,-133.38 594.5,-116 605.11,-101.59 644.64,-89.74 680.18,-81.68"/>
<polygon fill="midnightblue" stroke="midnightblue" points="681.05,-85.07 690.07,-79.5 679.55,-78.23 681.05,-85.07"/>
</g>
<!-- Node29 -->
<g id="node23" class="node">
<title>Node29</title>
<g id="a_node23"><a xlink:href="../../d8/dc5/eris__analyze__scope_8h.html" target="_top" xlink:title=" ">
<polygon fill="white" stroke="red" points="527.5,-58.5 527.5,-79.5 657.5,-79.5 657.5,-58.5 527.5,-58.5"/>
<text text-anchor="middle" x="592.5" y="-65.9" font-family="Helvetica,sans-Serif" font-size="12.00">eris_analyze_scope.h</text>
</a>
</g>
</g>
<!-- Node24&#45;&gt;Node29 -->
<g id="edge33" class="edge">
<title>Node24&#45;&gt;Node29</title>
<path fill="none" stroke="midnightblue" d="M592.13,-174.19C581.43,-165.94 567.66,-153.1 561.5,-138 554.36,-120.49 565.4,-100.88 576.23,-87.23"/>
<polygon fill="midnightblue" stroke="midnightblue" points="578.94,-89.45 582.78,-79.58 573.62,-84.9 578.94,-89.45"/>
</g>
<!-- Node25&#45;&gt;Node2 -->
<g id="edge32" class="edge">
<title>Node25&#45;&gt;Node2</title>
<path fill="none" stroke="midnightblue" d="M729.44,-58.25C718.14,-49.81 701.62,-37.47 688.47,-27.66"/>
<polygon fill="midnightblue" stroke="midnightblue" points="690.52,-24.82 680.41,-21.64 686.33,-30.43 690.52,-24.82"/>
</g>
<!-- Node29&#45;&gt;Node2 -->
<g id="edge34" class="edge">
<title>Node29&#45;&gt;Node2</title>
<path fill="none" stroke="midnightblue" d="M605.56,-58.25C616.86,-49.81 633.38,-37.47 646.53,-27.66"/>
<polygon fill="midnightblue" stroke="midnightblue" points="648.67,-30.43 654.59,-21.64 644.48,-24.82 648.67,-30.43"/>
</g>
<!-- Node30&#45;&gt;Node2 -->
<g id="edge37" class="edge">
<title>Node30&#45;&gt;Node2</title>
<path fill="none" stroke="midnightblue" d="M685.67,-232.44C681.86,-209.43 675.65,-150.29 704.5,-116 741.1,-72.5 852.34,-103.68 818.5,-58 793.93,-24.83 745.99,-14.77 710.7,-12.11"/>
<polygon fill="midnightblue" stroke="midnightblue" points="710.84,-8.61 700.65,-11.52 710.43,-15.6 710.84,-8.61"/>
</g>
<!-- Node30&#45;&gt;Node3 -->
<g id="edge38" class="edge">
<title>Node30&#45;&gt;Node3</title>
<path fill="none" stroke="midnightblue" d="M644.98,-232.44C595.6,-221.33 515.25,-203.26 470.74,-193.25"/>
<polygon fill="midnightblue" stroke="midnightblue" points="471.29,-189.79 460.76,-191.01 469.75,-196.62 471.29,-189.79"/>
</g>
<!-- Node30&#45;&gt;Node15 -->
<g id="edge39" class="edge">
<title>Node30&#45;&gt;Node15</title>
<path fill="none" stroke="midnightblue" d="M726.44,-232.44C765.29,-222.89 825.09,-208.21 867.01,-197.91"/>
<polygon fill="midnightblue" stroke="midnightblue" points="867.85,-201.31 876.73,-195.52 866.18,-194.51 867.85,-201.31"/>
</g>
<!-- Node30&#45;&gt;Node20 -->
<g id="edge40" class="edge">
<title>Node30&#45;&gt;Node20</title>
<path fill="none" stroke="midnightblue" d="M740.15,-234.1C804.69,-224.41 914.43,-207.93 987.19,-197.01"/>
<polygon fill="midnightblue" stroke="midnightblue" points="987.84,-200.45 997.21,-195.5 986.8,-193.53 987.84,-200.45"/>
</g>
<!-- Node30&#45;&gt;Node22 -->
<g id="edge36" class="edge">
<title>Node30&#45;&gt;Node22</title>
<path fill="none" stroke="midnightblue" d="M693.13,-232.28C704.14,-213.27 728.68,-170.88 742.85,-146.4"/>
<polygon fill="midnightblue" stroke="midnightblue" points="745.91,-148.1 747.89,-137.69 739.85,-144.6 745.91,-148.1"/>
</g>
<!-- Node30&#45;&gt;Node24 -->
<g id="edge41" class="edge">
<title>Node30&#45;&gt;Node24</title>
<path fill="none" stroke="midnightblue" d="M673.39,-232.25C661.08,-223.73 643,-211.24 628.75,-201.38"/>
<polygon fill="midnightblue" stroke="midnightblue" points="630.66,-198.45 620.45,-195.64 626.68,-204.21 630.66,-198.45"/>
</g>
<!-- Node31&#45;&gt;Node2 -->
<g id="edge43" class="edge">
<title>Node31&#45;&gt;Node2</title>
<path fill="none" stroke="midnightblue" d="M1016.56,-59.68C932.79,-48.23 784.12,-27.93 710.82,-17.92"/>
<polygon fill="midnightblue" stroke="midnightblue" points="710.95,-14.4 700.57,-16.52 710.01,-21.34 710.95,-14.4"/>
</g>
</g>
</svg>
        <g id="navigator" transform="translate(0 0)" fill="#404254">
                <rect fill="#f2f5e9" fill-opacity="0.5" stroke="#606060" stroke-width=".5" x="0" y="0" width="60" height="60"/>
                <use id="zoomplus" xlink:href="#zoomPlus" x="17" y="9" onmousedown="handleZoom(evt,'in')"/>
                <use id="zoomminus" xlink:href="#zoomMin" x="42" y="9" onmousedown="handleZoom(evt,'out')"/>
                <use id="reset" xlink:href="#resetDef" x="30" y="36" onmousedown="handleReset()"/>
                <g id="arrowUp" xlink:href="#dirArrow" transform="translate(30 24)" onmousedown="handlePan(0,-1)">
                  <use xlink:href="#rim" fill="#404040">
                        <set attributeName="fill" to="#808080" begin="arrowUp.mouseover" end="arrowUp.mouseout"/>
                  </use>
                  <path fill="none" stroke="white" stroke-width="1.5" d="M0,-3.0v7 M-2.5,-0.5L0,-3.0L2.5,-0.5"/>
                </g>
                <g id="arrowRight" xlink:href="#dirArrow" transform="rotate(90) translate(36 -43)" onmousedown="handlePan(1,0)">
                  <use xlink:href="#rim" fill="#404040">
                        <set attributeName="fill" to="#808080" begin="arrowRight.mouseover" end="arrowRight.mouseout"/>
                  </use>
                  <path fill="none" stroke="white" stroke-width="1.5" d="M0,-3.0v7 M-2.5,-0.5L0,-3.0L2.5,-0.5"/>
                </g>
                <g id="arrowDown" xlink:href="#dirArrow" transform="rotate(180) translate(-30 -48)" onmousedown="handlePan(0,1)">
                  <use xlink:href="#rim" fill="#404040">
                        <set attributeName="fill" to="#808080" begin="arrowDown.mouseover" end="arrowDown.mouseout"/>
                  </use>
                  <path fill="none" stroke="white" stroke-width="1.5" d="M0,-3.0v7 M-2.5,-0.5L0,-3.0L2.5,-0.5"/>
                </g>
                <g id="arrowLeft" xlink:href="#dirArrow" transform="rotate(270) translate(-36 17)" onmousedown="handlePan(-1,0)">
                  <use xlink:href="#rim" fill="#404040">
                        <set attributeName="fill" to="#808080" begin="arrowLeft.mouseover" end="arrowLeft.mouseout"/>
                  </use>
                  <path fill="none" stroke="white" stroke-width="1.5" d="M0,-3.0v7 M-2.5,-0.5L0,-3.0L2.5,-0.5"/>
                </g>
        </g>
        <svg viewBox="0 0 15 15" width="100%" height="30px" preserveAspectRatio="xMaxYMin meet">
         <g id="arrow_out" transform="scale(0.3 0.3)">
          <a xlink:href="_app_manager_8cpp__incl_org.svg" target="_base">
           <rect id="button" ry="5" rx="5" y="6" x="6" height="38" width="38"
                fill="#f2f5e9" fill-opacity="0.5" stroke="#606060" stroke-width="1.0"/>
           <path id="arrow"
             d="M 11.500037,31.436501 C 11.940474,20.09759 22.043105,11.32322 32.158766,21.979434 L 37.068811,17.246167 C 37.068811,17.246167 37.088388,32 37.088388,32 L 22.160133,31.978069 C 22.160133,31.978069 26.997745,27.140456 26.997745,27.140456 C 18.528582,18.264221 13.291696,25.230495 11.500037,31.436501 z"
             style="fill:#404040;"/>
          </a>
         </g>
        </svg>
</svg>
