<?xml version="1.0" encoding="UTF-8" standalone="no"?>
<!DOCTYPE svg PUBLIC "-//W3C//DTD SVG 1.1//EN"
 "http://www.w3.org/Graphics/SVG/1.1/DTD/svg11.dtd">
<!-- Generated by graphviz version 2.47.3 (20210619.1520)
 -->
<!-- Title: AudioDirector::disconnectAll Pages: 1 -->
<svg width="855pt" height="70pt"
 viewBox="0.00 0.00 855.00 70.00" xmlns="http://www.w3.org/2000/svg" xmlns:xlink="http://www.w3.org/1999/xlink">
<g id="graph0" class="graph" transform="scale(1 1) rotate(0) translate(4 66)">
<title>AudioDirector::disconnectAll</title>
<!-- Node1 -->
<g id="node1" class="node">
<title>Node1</title>
<g id="a_node1"><a xlink:title=" ">
<polygon fill="#bfbfbf" stroke="black" points="683,-20.5 683,-41.5 847,-41.5 847,-20.5 683,-20.5"/>
<text text-anchor="middle" x="765" y="-27.9" font-family="Helvetica,sans-Serif" font-size="12.00">AudioDirector::disconnectAll</text>
</a>
</g>
</g>
<!-- Node2 -->
<g id="node2" class="node">
<title>Node2</title>
<g id="a_node2"><a xlink:href="../../d7/d7e/_app_wren_8cpp_a58685c4e3619dc6ddfdfaeb04f8c95fc.html#a58685c4e3619dc6ddfdfaeb04f8c95fc" target="_top" xlink:title="AudioDirector callback for wren.">
<polygon fill="none" stroke="black" points="409,-40.5 409,-61.5 614,-61.5 614,-40.5 409,-40.5"/>
<text text-anchor="middle" x="511.5" y="-47.9" font-family="Helvetica,sans-Serif" font-size="12.00">audioDirectorDisconnectAllCallback</text>
</a>
</g>
</g>
<!-- Node1&#45;&gt;Node2 -->
<g id="edge1" class="edge">
<title>Node1&#45;&gt;Node2</title>
<path fill="none" stroke="midnightblue" d="M672.59,-38.27C653.63,-39.78 633.55,-41.37 614.25,-42.91"/>
<polygon fill="midnightblue" stroke="midnightblue" points="673,-41.75 682.69,-37.47 672.45,-34.77 673,-41.75"/>
</g>
<!-- Node10 -->
<g id="node5" class="node">
<title>Node10</title>
<g id="a_node5"><a xlink:href="../../dc/d27/class_app_audio_to_polyphonic_a805fac8a86e2d7b45054a818f79b45ac.html#a805fac8a86e2d7b45054a818f79b45ac" target="_top" xlink:title=" ">
<polygon fill="none" stroke="black" points="376,-0.5 376,-21.5 647,-21.5 647,-0.5 376,-0.5"/>
<text text-anchor="middle" x="511.5" y="-7.9" font-family="Helvetica,sans-Serif" font-size="12.00">AppAudioToPolyphonic::makeAudioConnections</text>
</a>
</g>
</g>
<!-- Node1&#45;&gt;Node10 -->
<g id="edge4" class="edge">
<title>Node1&#45;&gt;Node10</title>
<path fill="none" stroke="midnightblue" d="M672.55,-23.73C663.47,-23.01 654.12,-22.26 644.72,-21.51"/>
<polygon fill="midnightblue" stroke="midnightblue" points="672.45,-27.23 682.69,-24.53 673,-20.25 672.45,-27.23"/>
</g>
<!-- Node3 -->
<g id="node3" class="node">
<title>Node3</title>
<g id="a_node3"><a xlink:href="../../d7/d7e/_app_wren_8cpp_afe955d602a19a51c186913d9dc8ff707.html#afe955d602a19a51c186913d9dc8ff707" target="_top" xlink:title="callback function for Wren to request an exported function bindings">
<polygon fill="none" stroke="black" points="185,-40.5 185,-61.5 304,-61.5 304,-40.5 185,-40.5"/>
<text text-anchor="middle" x="244.5" y="-47.9" font-family="Helvetica,sans-Serif" font-size="12.00">bindForeignMethod</text>
</a>
</g>
</g>
<!-- Node2&#45;&gt;Node3 -->
<g id="edge2" class="edge">
<title>Node2&#45;&gt;Node3</title>
<path fill="none" stroke="midnightblue" d="M398.79,-51C366.34,-51 332.19,-51 304.37,-51"/>
<polygon fill="midnightblue" stroke="midnightblue" points="398.8,-54.5 408.8,-51 398.8,-47.5 398.8,-54.5"/>
</g>
<!-- Node4 -->
<g id="node4" class="node">
<title>Node4</title>
<g id="a_node4"><a xlink:href="../../d0/da0/class_app_wren_a0b139e8eac17bd02ffaff68532c3e4fc.html#a0b139e8eac17bd02ffaff68532c3e4fc" target="_top" xlink:title=" ">
<polygon fill="none" stroke="red" points="0,-40.5 0,-61.5 113,-61.5 113,-40.5 0,-40.5"/>
<text text-anchor="middle" x="56.5" y="-47.9" font-family="Helvetica,sans-Serif" font-size="12.00">AppWren::startVM</text>
</a>
</g>
</g>
<!-- Node3&#45;&gt;Node4 -->
<g id="edge3" class="edge">
<title>Node3&#45;&gt;Node4</title>
<path fill="none" stroke="midnightblue" d="M174.79,-51C154.53,-51 132.61,-51 113.26,-51"/>
<polygon fill="midnightblue" stroke="midnightblue" points="174.9,-54.5 184.9,-51 174.9,-47.5 174.9,-54.5"/>
</g>
<!-- Node11 -->
<g id="node6" class="node">
<title>Node11</title>
<g id="a_node6"><a xlink:href="../../dc/d27/class_app_audio_to_polyphonic_a64eaca26636ef392e0d849bc7cfd4a01.html#a64eaca26636ef392e0d849bc7cfd4a01" target="_top" xlink:title=" ">
<polygon fill="none" stroke="black" points="149,-0.5 149,-21.5 340,-21.5 340,-0.5 149,-0.5"/>
<text text-anchor="middle" x="244.5" y="-7.9" font-family="Helvetica,sans-Serif" font-size="12.00">AppAudioToPolyphonic::onFocus</text>
</a>
</g>
</g>
<!-- Node10&#45;&gt;Node11 -->
<g id="edge5" class="edge">
<title>Node10&#45;&gt;Node11</title>
<path fill="none" stroke="midnightblue" d="M365.54,-11C356.94,-11 348.4,-11 340.09,-11"/>
<polygon fill="midnightblue" stroke="midnightblue" points="365.67,-14.5 375.67,-11 365.67,-7.5 365.67,-14.5"/>
</g>
</g>
</svg>
