<?xml version="1.0" encoding="UTF-8" standalone="no"?>
<!DOCTYPE svg PUBLIC "-//W3C//DTD SVG 1.1//EN"
 "http://www.w3.org/Graphics/SVG/1.1/DTD/svg11.dtd">
<!-- Generated by graphviz version 2.47.3 (20210619.1520)
 -->
<!-- Title: AudioDirector::connect Pages: 1 -->
<svg width="1504pt" height="283pt"
 viewBox="0.00 0.00 1504.00 283.00" xmlns="http://www.w3.org/2000/svg" xmlns:xlink="http://www.w3.org/1999/xlink">
<g id="graph0" class="graph" transform="scale(1 1) rotate(0) translate(4 279)">
<title>AudioDirector::connect</title>
<!-- Node1 -->
<g id="node1" class="node">
<title>Node1</title>
<g id="a_node1"><a xlink:title=" ">
<polygon fill="#bfbfbf" stroke="black" points="1320,-90.5 1320,-116.5 1496,-116.5 1496,-90.5 1320,-90.5"/>
<text text-anchor="middle" x="1408" y="-99.7" font-family="Helvetica,sans-Serif" font-size="16.00">AudioDirector::connect</text>
</a>
</g>
</g>
<!-- Node2 -->
<g id="node2" class="node">
<title>Node2</title>
<g id="a_node2"><a xlink:href="../../d7/d7e/_app_wren_8cpp_af75d96be639ca6825082ffa47934be07.html#af75d96be639ca6825082ffa47934be07" target="_top" xlink:title="AudioDirector callback for wren.">
<polygon fill="none" stroke="black" points="994.5,-180.5 994.5,-206.5 1223.5,-206.5 1223.5,-180.5 994.5,-180.5"/>
<text text-anchor="middle" x="1109" y="-189.7" font-family="Helvetica,sans-Serif" font-size="16.00">audioDirectorConnectCallback</text>
</a>
</g>
</g>
<!-- Node1&#45;&gt;Node2 -->
<g id="edge1" class="edge">
<title>Node1&#45;&gt;Node2</title>
<path fill="none" stroke="midnightblue" d="M1379.88,-122.47C1355.83,-138.29 1319.17,-160.02 1284,-171.5 1264.9,-177.73 1244.08,-182.22 1223.7,-185.43"/>
<polygon fill="midnightblue" stroke="midnightblue" points="1382.08,-125.2 1388.44,-116.73 1378.19,-119.39 1382.08,-125.2"/>
</g>
<!-- Node10 -->
<g id="node10" class="node">
<title>Node10</title>
<g id="a_node10"><a xlink:href="../../d8/d1c/class_audio_director_aefb9a8a75207da32e852e92fa5296c5f.html#aefb9a8a75207da32e852e92fa5296c5f" target="_top" xlink:title=" ">
<polygon fill="none" stroke="black" points="1021,-135.5 1021,-161.5 1197,-161.5 1197,-135.5 1021,-135.5"/>
<text text-anchor="middle" x="1109" y="-144.7" font-family="Helvetica,sans-Serif" font-size="16.00">AudioDirector::connect</text>
</a>
</g>
</g>
<!-- Node1&#45;&gt;Node10 -->
<g id="edge9" class="edge">
<title>Node1&#45;&gt;Node10</title>
<path fill="none" stroke="midnightblue" d="M1327.57,-118.25C1313.09,-120.79 1298.11,-123.31 1284,-125.5 1255.85,-129.88 1225.05,-134.12 1197.29,-137.75"/>
<polygon fill="midnightblue" stroke="midnightblue" points="1328.25,-121.69 1337.49,-116.5 1327.03,-114.79 1328.25,-121.69"/>
</g>
<!-- Node11 -->
<g id="node11" class="node">
<title>Node11</title>
<g id="a_node11"><a xlink:href="../../dc/d27/class_app_audio_to_polyphonic_a805fac8a86e2d7b45054a818f79b45ac.html#a805fac8a86e2d7b45054a818f79b45ac" target="_top" xlink:title=" ">
<polygon fill="none" stroke="black" points="934,-90.5 934,-116.5 1284,-116.5 1284,-90.5 934,-90.5"/>
<text text-anchor="middle" x="1109" y="-99.7" font-family="Helvetica,sans-Serif" font-size="16.00">AppAudioToPolyphonic::makeAudioConnections</text>
</a>
</g>
</g>
<!-- Node1&#45;&gt;Node11 -->
<g id="edge10" class="edge">
<title>Node1&#45;&gt;Node11</title>
<path fill="none" stroke="midnightblue" d="M1309.81,-103.5C1301.44,-103.5 1292.81,-103.5 1284.07,-103.5"/>
<polygon fill="midnightblue" stroke="midnightblue" points="1309.9,-107 1319.9,-103.5 1309.9,-100 1309.9,-107"/>
</g>
<!-- Node13 -->
<g id="node13" class="node">
<title>Node13</title>
<g id="a_node13"><a xlink:href="../../dc/d27/class_app_audio_to_polyphonic_a454a8eeb8687423a046a517abe6d9e50.html#a454a8eeb8687423a046a517abe6d9e50" target="_top" xlink:title=" ">
<polygon fill="none" stroke="black" points="957.5,-45.5 957.5,-71.5 1260.5,-71.5 1260.5,-45.5 957.5,-45.5"/>
<text text-anchor="middle" x="1109" y="-54.7" font-family="Helvetica,sans-Serif" font-size="16.00">AppAudioToPolyphonic::MessageHandler</text>
</a>
</g>
</g>
<!-- Node1&#45;&gt;Node13 -->
<g id="edge12" class="edge">
<title>Node1&#45;&gt;Node13</title>
<path fill="none" stroke="midnightblue" d="M1331.25,-88.61C1315.65,-85.75 1299.32,-82.9 1284,-80.5 1263.69,-77.32 1242,-74.29 1221.06,-71.55"/>
<polygon fill="midnightblue" stroke="midnightblue" points="1330.9,-92.1 1341.37,-90.49 1332.18,-85.22 1330.9,-92.1"/>
</g>
<!-- Node14 -->
<g id="node14" class="node">
<title>Node14</title>
<g id="a_node14"><a xlink:href="../../d2/da8/class_svc_serial_command_interface_a1f875279bdb55468447043f87f334584.html#a1f875279bdb55468447043f87f334584" target="_top" xlink:title=" ">
<polygon fill="none" stroke="black" points="962.5,-0.5 962.5,-26.5 1255.5,-26.5 1255.5,-0.5 962.5,-0.5"/>
<text text-anchor="middle" x="1109" y="-9.7" font-family="Helvetica,sans-Serif" font-size="16.00">SvcSerialCommandInterface::updateRT</text>
</a>
</g>
</g>
<!-- Node1&#45;&gt;Node14 -->
<g id="edge13" class="edge">
<title>Node1&#45;&gt;Node14</title>
<path fill="none" stroke="midnightblue" d="M1379.88,-84.53C1355.83,-68.71 1319.17,-46.98 1284,-35.5 1273.29,-32.01 1262.04,-29.06 1250.63,-26.58"/>
<polygon fill="midnightblue" stroke="midnightblue" points="1378.19,-87.61 1388.44,-90.27 1382.08,-81.8 1378.19,-87.61"/>
</g>
<!-- Node3 -->
<g id="node3" class="node">
<title>Node3</title>
<g id="a_node3"><a xlink:href="../../d7/d7e/_app_wren_8cpp_afe955d602a19a51c186913d9dc8ff707.html#afe955d602a19a51c186913d9dc8ff707" target="_top" xlink:title="callback function for Wren to request an exported function bindings">
<polygon fill="none" stroke="black" points="700,-180.5 700,-206.5 850,-206.5 850,-180.5 700,-180.5"/>
<text text-anchor="middle" x="775" y="-189.7" font-family="Helvetica,sans-Serif" font-size="16.00">bindForeignMethod</text>
</a>
</g>
</g>
<!-- Node2&#45;&gt;Node3 -->
<g id="edge2" class="edge">
<title>Node2&#45;&gt;Node3</title>
<path fill="none" stroke="midnightblue" d="M984.06,-193.5C938.98,-193.5 889.47,-193.5 850.06,-193.5"/>
<polygon fill="midnightblue" stroke="midnightblue" points="984.21,-197 994.21,-193.5 984.21,-190 984.21,-197"/>
</g>
<!-- Node4 -->
<g id="node4" class="node">
<title>Node4</title>
<g id="a_node4"><a xlink:href="../../d0/da0/class_app_wren_a0b139e8eac17bd02ffaff68532c3e4fc.html#a0b139e8eac17bd02ffaff68532c3e4fc" target="_top" xlink:title=" ">
<polygon fill="none" stroke="black" points="472,-180.5 472,-206.5 616,-206.5 616,-180.5 472,-180.5"/>
<text text-anchor="middle" x="544" y="-189.7" font-family="Helvetica,sans-Serif" font-size="16.00">AppWren::startVM</text>
</a>
</g>
</g>
<!-- Node3&#45;&gt;Node4 -->
<g id="edge3" class="edge">
<title>Node3&#45;&gt;Node4</title>
<path fill="none" stroke="midnightblue" d="M689.73,-193.5C665.52,-193.5 639.37,-193.5 616.05,-193.5"/>
<polygon fill="midnightblue" stroke="midnightblue" points="689.97,-197 699.97,-193.5 689.97,-190 689.97,-197"/>
</g>
<!-- Node5 -->
<g id="node5" class="node">
<title>Node5</title>
<g id="a_node5"><a xlink:href="../../d0/da0/class_app_wren_aedf9a5e77ba482fde47e52125e9ca292.html#aedf9a5e77ba482fde47e52125e9ca292" target="_top" xlink:title=" ">
<polygon fill="none" stroke="black" points="261,-203.5 261,-229.5 419,-229.5 419,-203.5 261,-203.5"/>
<text text-anchor="middle" x="340" y="-212.7" font-family="Helvetica,sans-Serif" font-size="16.00">AppWren::restartVM</text>
</a>
</g>
</g>
<!-- Node4&#45;&gt;Node5 -->
<g id="edge4" class="edge">
<title>Node4&#45;&gt;Node5</title>
<path fill="none" stroke="midnightblue" d="M461.67,-202.76C447.64,-204.36 433.08,-206.02 419.13,-207.6"/>
<polygon fill="midnightblue" stroke="midnightblue" points="462.24,-206.22 471.78,-201.61 461.45,-199.26 462.24,-206.22"/>
</g>
<!-- Node8 -->
<g id="node8" class="node">
<title>Node8</title>
<g id="a_node8"><a xlink:href="../../d0/da0/class_app_wren_af9fc192669efcd782a665bc5918aaaa3.html#af9fc192669efcd782a665bc5918aaaa3" target="_top" xlink:title="start, load and configure the handles of the VM">
<polygon fill="none" stroke="black" points="244,-158.5 244,-184.5 436,-184.5 436,-158.5 244,-158.5"/>
<text text-anchor="middle" x="340" y="-167.7" font-family="Helvetica,sans-Serif" font-size="16.00">AppWren::vmConstructor</text>
</a>
</g>
</g>
<!-- Node4&#45;&gt;Node8 -->
<g id="edge7" class="edge">
<title>Node4&#45;&gt;Node8</title>
<path fill="none" stroke="midnightblue" d="M461.71,-184.65C453.36,-183.74 444.83,-182.81 436.34,-181.88"/>
<polygon fill="midnightblue" stroke="midnightblue" points="461.46,-188.14 471.78,-185.74 462.22,-181.18 461.46,-188.14"/>
</g>
<!-- Node6 -->
<g id="node6" class="node">
<title>Node6</title>
<g id="a_node6"><a xlink:href="../../d0/da0/class_app_wren_a9545f907e7bca8484595d63ade9abe96.html#a9545f907e7bca8484595d63ade9abe96" target="_top" xlink:title="handles messages from other sw components">
<polygon fill="none" stroke="black" points="0,-248.5 0,-274.5 208,-274.5 208,-248.5 0,-248.5"/>
<text text-anchor="middle" x="104" y="-257.7" font-family="Helvetica,sans-Serif" font-size="16.00">AppWren::MessageHandler</text>
</a>
</g>
</g>
<!-- Node5&#45;&gt;Node6 -->
<g id="edge5" class="edge">
<title>Node5&#45;&gt;Node6</title>
<path fill="none" stroke="midnightblue" d="M261.36,-231.43C232.76,-236.93 200.61,-243.11 172.94,-248.44"/>
<polygon fill="midnightblue" stroke="midnightblue" points="262.16,-234.84 271.32,-229.52 260.84,-227.97 262.16,-234.84"/>
</g>
<!-- Node7 -->
<g id="node7" class="node">
<title>Node7</title>
<g id="a_node7"><a xlink:href="../../d0/da0/class_app_wren_a46ef63c583efb89334bc8fbf20cf7a83.html#a46ef63c583efb89334bc8fbf20cf7a83" target="_top" xlink:title=" ">
<polygon fill="none" stroke="black" points="35.5,-203.5 35.5,-229.5 172.5,-229.5 172.5,-203.5 35.5,-203.5"/>
<text text-anchor="middle" x="104" y="-212.7" font-family="Helvetica,sans-Serif" font-size="16.00">AppWren::update</text>
</a>
</g>
</g>
<!-- Node5&#45;&gt;Node7 -->
<g id="edge6" class="edge">
<title>Node5&#45;&gt;Node7</title>
<path fill="none" stroke="midnightblue" d="M250.58,-216.5C224.74,-216.5 196.92,-216.5 172.59,-216.5"/>
<polygon fill="midnightblue" stroke="midnightblue" points="250.76,-220 260.76,-216.5 250.76,-213 250.76,-220"/>
</g>
<!-- Node9 -->
<g id="node9" class="node">
<title>Node9</title>
<g id="a_node9"><a xlink:href="../../d0/da0/class_app_wren_aa63148d0906a6b5eabbba7058f568eae.html#aa63148d0906a6b5eabbba7058f568eae" target="_top" xlink:title=" ">
<polygon fill="none" stroke="black" points="26.5,-158.5 26.5,-184.5 181.5,-184.5 181.5,-158.5 26.5,-158.5"/>
<text text-anchor="middle" x="104" y="-167.7" font-family="Helvetica,sans-Serif" font-size="16.00">AppWren::AppWren</text>
</a>
</g>
</g>
<!-- Node8&#45;&gt;Node9 -->
<g id="edge8" class="edge">
<title>Node8&#45;&gt;Node9</title>
<path fill="none" stroke="midnightblue" d="M233.61,-171.5C216.17,-171.5 198.39,-171.5 181.82,-171.5"/>
<polygon fill="midnightblue" stroke="midnightblue" points="233.82,-175 243.82,-171.5 233.82,-168 233.82,-175"/>
</g>
<!-- Node12 -->
<g id="node12" class="node">
<title>Node12</title>
<g id="a_node12"><a xlink:href="../../dc/d27/class_app_audio_to_polyphonic_a64eaca26636ef392e0d849bc7cfd4a01.html#a64eaca26636ef392e0d849bc7cfd4a01" target="_top" xlink:title=" ">
<polygon fill="none" stroke="black" points="652,-90.5 652,-116.5 898,-116.5 898,-90.5 652,-90.5"/>
<text text-anchor="middle" x="775" y="-99.7" font-family="Helvetica,sans-Serif" font-size="16.00">AppAudioToPolyphonic::onFocus</text>
</a>
</g>
</g>
<!-- Node11&#45;&gt;Node12 -->
<g id="edge11" class="edge">
<title>Node11&#45;&gt;Node12</title>
<path fill="none" stroke="midnightblue" d="M923.58,-103.5C914.96,-103.5 906.4,-103.5 898,-103.5"/>
<polygon fill="midnightblue" stroke="midnightblue" points="923.74,-107 933.74,-103.5 923.74,-100 923.74,-107"/>
</g>
</g>
</svg>
