<?xml version="1.0" encoding="UTF-8" standalone="no"?>
<!DOCTYPE svg PUBLIC "-//W3C//DTD SVG 1.1//EN"
 "http://www.w3.org/Graphics/SVG/1.1/DTD/svg11.dtd">
<!-- Generated by graphviz version 2.47.3 (20210619.1520)
 -->
<!-- Title: AudioDirector::disconnect Pages: 1 -->
<svg width="628pt" height="84pt"
 viewBox="0.00 0.00 628.00 84.00" xmlns="http://www.w3.org/2000/svg" xmlns:xlink="http://www.w3.org/1999/xlink">
<g id="graph0" class="graph" transform="scale(1 1) rotate(0) translate(4 80)">
<title>AudioDirector::disconnect</title>
<!-- Node1 -->
<g id="node1" class="node">
<title>Node1</title>
<g id="a_node1"><a xlink:title=" ">
<polygon fill="#bfbfbf" stroke="black" points="0,-23.5 0,-51.5 222,-51.5 222,-23.5 0,-23.5"/>
<text text-anchor="middle" x="111" y="-33.1" font-family="Helvetica,sans-Serif" font-size="18.00">AudioDirector::disconnect</text>
</a>
</g>
</g>
<!-- Node2 -->
<g id="node2" class="node">
<title>Node2</title>
<g id="a_node2"><a xlink:href="../../d8/d1c/class_audio_director_aae48fff50fc2763f06611db46ae7c94e.html#aae48fff50fc2763f06611db46ae7c94e" target="_top" xlink:title=" ">
<polygon fill="none" stroke="black" points="328,-47.5 328,-75.5 550,-75.5 550,-47.5 328,-47.5"/>
<text text-anchor="middle" x="439" y="-57.1" font-family="Helvetica,sans-Serif" font-size="18.00">AudioDirector::disconnect</text>
</a>
</g>
</g>
<!-- Node1&#45;&gt;Node2 -->
<g id="edge1" class="edge">
<title>Node1&#45;&gt;Node2</title>
<path fill="none" stroke="midnightblue" d="M222.37,-45.63C253.04,-47.88 286.49,-50.35 317.7,-52.64"/>
<polygon fill="midnightblue" stroke="midnightblue" points="317.51,-56.14 327.74,-53.38 318.03,-49.16 317.51,-56.14"/>
</g>
<!-- Node3 -->
<g id="node3" class="node">
<title>Node3</title>
<g id="a_node3"><a xlink:href="../../d8/d1c/class_audio_director_a578f1deac0695f2db3ba245aaedc62df.html#a578f1deac0695f2db3ba245aaedc62df" target="_top" xlink:title=" ">
<polygon fill="none" stroke="black" points="258,-0.5 258,-28.5 620,-28.5 620,-0.5 258,-0.5"/>
<text text-anchor="middle" x="439" y="-10.1" font-family="Helvetica,sans-Serif" font-size="18.00">AudioDirector::getAudioStreamObjByName</text>
</a>
</g>
</g>
<!-- Node1&#45;&gt;Node3 -->
<g id="edge2" class="edge">
<title>Node1&#45;&gt;Node3</title>
<path fill="none" stroke="midnightblue" d="M222.37,-29.71C230.67,-29.13 239.17,-28.53 247.77,-27.92"/>
<polygon fill="midnightblue" stroke="midnightblue" points="248.19,-31.4 257.92,-27.21 247.7,-24.42 248.19,-31.4"/>
</g>
</g>
</svg>
