<?xml version="1.0" encoding="UTF-8" standalone="no"?>
<!DOCTYPE svg PUBLIC "-//W3C//DTD SVG 1.1//EN"
 "http://www.w3.org/Graphics/SVG/1.1/DTD/svg11.dtd">
<!-- Generated by graphviz version 2.47.3 (20210619.1520)
 -->
<!-- Title: AudioDirector::getAudioStreamObjByName Pages: 1 -->
<!--zoomable 640 -->
<svg id="main" version="1.1" xmlns="http://www.w3.org/2000/svg" xmlns:xlink="http://www.w3.org/1999/xlink" xml:space="preserve" onload="init(evt)">
<style type="text/css"><![CDATA[
.edge:hover path { stroke: red; }
.edge:hover polygon { stroke: red; fill: red; }
]]></style>
<script type="text/javascript"><![CDATA[
var edges = document.getElementsByTagName('g');
if (edges && edges.length) {
  for (var i=0;i<edges.length;i++) {
    if (edges[i].id.substr(0,4)=='edge') {
      edges[i].setAttribute('class','edge');
    }
  }
}
]]></script>
        <defs>
                <circle id="rim" cx="0" cy="0" r="7"/>
                <circle id="rim2" cx="0" cy="0" r="3.5"/>
                <g id="zoomPlus">
                        <use xlink:href="#rim" fill="#404040">
                                <set attributeName="fill" to="#808080" begin="zoomplus.mouseover" end="zoomplus.mouseout"/>
                        </use>
                        <path d="M-4,0h8M0,-4v8" fill="none" stroke="white" stroke-width="1.5" pointer-events="none"/>
                </g>
                <g id="zoomMin">
                        <use xlink:href="#rim" fill="#404040">
                                <set attributeName="fill" to="#808080" begin="zoomminus.mouseover" end="zoomminus.mouseout"/>
                        </use>
                        <path d="M-4,0h8" fill="none" stroke="white" stroke-width="1.5" pointer-events="none"/>
                </g>
                <g id="dirArrow">
                        <path fill="none" stroke="white" stroke-width="1.5" d="M0,-3.0v7 M-2.5,-0.5L0,-3.0L2.5,-0.5"/>
                </g>
               <g id="resetDef">
                       <use xlink:href="#rim2" fill="#404040">
                               <set attributeName="fill" to="#808080" begin="reset.mouseover" end="reset.mouseout"/>
                       </use>
               </g>
        </defs>

<script type="text/javascript">
var viewWidth = 1275;
var viewHeight = 640;
var sectionId = 'dynsection-0';
</script>
<script xlink:href="../../svgpan.js"/>
<svg id="graph" class="graph">
<g id="viewport">
<title>AudioDirector::getAudioStreamObjByName</title>
<!-- Node1 -->
<g id="node1" class="node">
<title>Node1</title>
<g id="a_node1"><a xlink:title=" ">
<polygon fill="#bfbfbf" stroke="black" points="905,-305.5 905,-333.5 1267,-333.5 1267,-305.5 905,-305.5"/>
<text text-anchor="middle" x="1086" y="-315.1" font-family="Helvetica,sans-Serif" font-size="18.00">AudioDirector::getAudioStreamObjByName</text>
</a>
</g>
</g>
<!-- Node2 -->
<g id="node2" class="node">
<title>Node2</title>
<g id="a_node2"><a xlink:href="../../d8/dbe/class_app_scope_a963ae83979bbfdfd46c0b1d063406361.html#a963ae83979bbfdfd46c0b1d063406361" target="_top" xlink:title=" ">
<polygon fill="none" stroke="black" points="556.5,-603.5 556.5,-631.5 750.5,-631.5 750.5,-603.5 556.5,-603.5"/>
<text text-anchor="middle" x="653.5" y="-613.1" font-family="Helvetica,sans-Serif" font-size="18.00">AppScope::AppScope</text>
</a>
</g>
</g>
<!-- Node1&#45;&gt;Node2 -->
<g id="edge1" class="edge">
<title>Node1&#45;&gt;Node2</title>
<path fill="none" stroke="midnightblue" d="M1074.69,-342.79C1049.03,-397.66 976.49,-534.95 869,-594.5 833.45,-614.19 789.51,-621.32 750.67,-623"/>
<polygon fill="midnightblue" stroke="midnightblue" points="1077.95,-344.08 1078.94,-333.53 1071.59,-341.16 1077.95,-344.08"/>
</g>
<!-- Node3 -->
<g id="node3" class="node">
<title>Node3</title>
<g id="a_node3"><a xlink:href="../../d8/d1c/class_audio_director_a79200c209e5b4ecb8318bfd5c29c21a8.html#a79200c209e5b4ecb8318bfd5c29c21a8" target="_top" xlink:title=" ">
<polygon fill="none" stroke="black" points="532,-556.5 532,-584.5 775,-584.5 775,-556.5 532,-556.5"/>
<text text-anchor="middle" x="653.5" y="-566.1" font-family="Helvetica,sans-Serif" font-size="18.00">AudioDirector::AudioDirector</text>
</a>
</g>
</g>
<!-- Node1&#45;&gt;Node3 -->
<g id="edge2" class="edge">
<title>Node1&#45;&gt;Node3</title>
<path fill="none" stroke="midnightblue" d="M1071.37,-342.41C1041.55,-390.14 965.44,-499.77 869,-547.5 840.3,-561.71 806.85,-568.99 775.01,-572.39"/>
<polygon fill="midnightblue" stroke="midnightblue" points="1074.45,-344.07 1076.7,-333.72 1068.49,-340.41 1074.45,-344.07"/>
</g>
<!-- Node4 -->
<g id="node4" class="node">
<title>Node4</title>
<g id="a_node4"><a xlink:href="../../dc/d27/class_app_audio_to_polyphonic_a3d364aed0498754d8e63c082205be0a2.html#a3d364aed0498754d8e63c082205be0a2" target="_top" xlink:title=" ">
<polygon fill="none" stroke="black" points="494.5,-509.5 494.5,-537.5 812.5,-537.5 812.5,-509.5 494.5,-509.5"/>
<text text-anchor="middle" x="653.5" y="-519.1" font-family="Helvetica,sans-Serif" font-size="18.00">AppAudioToPolyphonic::changeVoice</text>
</a>
</g>
</g>
<!-- Node1&#45;&gt;Node4 -->
<g id="edge3" class="edge">
<title>Node1&#45;&gt;Node4</title>
<path fill="none" stroke="midnightblue" d="M1066.11,-341.16C1031.38,-379.37 953.18,-458.15 869,-494.5 851.32,-502.14 832.12,-507.88 812.72,-512.17"/>
<polygon fill="midnightblue" stroke="midnightblue" points="1068.78,-343.43 1072.85,-333.65 1063.57,-338.75 1068.78,-343.43"/>
</g>
<!-- Node5 -->
<g id="node5" class="node">
<title>Node5</title>
<g id="a_node5"><a xlink:href="../../dc/d27/class_app_audio_to_polyphonic_a07757c615d81725236318fa3825d4e23.html#a07757c615d81725236318fa3825d4e23" target="_top" xlink:title="receiver method for inter&#45;app string based communication">
<polygon fill="none" stroke="black" points="25.5,-487.5 25.5,-515.5 376.5,-515.5 376.5,-487.5 25.5,-487.5"/>
<text text-anchor="middle" x="201" y="-497.1" font-family="Helvetica,sans-Serif" font-size="18.00">AppAudioToPolyphonic::messageHandler</text>
</a>
</g>
</g>
<!-- Node1&#45;&gt;Node5 -->
<g id="edge11" class="edge">
<title>Node1&#45;&gt;Node5</title>
<path fill="none" stroke="midnightblue" d="M1062.28,-340.41C1025.12,-373.13 947.6,-435.39 869,-461.5 781.06,-490.71 543.14,-499.04 376.67,-501.18"/>
<polygon fill="midnightblue" stroke="midnightblue" points="1064.87,-342.79 1070,-333.52 1060.21,-337.57 1064.87,-342.79"/>
</g>
<!-- Node6 -->
<g id="node6" class="node">
<title>Node6</title>
<g id="a_node6"><a xlink:href="../../d8/d1c/class_audio_director_aefb9a8a75207da32e852e92fa5296c5f.html#aefb9a8a75207da32e852e92fa5296c5f" target="_top" xlink:title=" ">
<polygon fill="none" stroke="black" points="554,-423.5 554,-451.5 753,-451.5 753,-423.5 554,-423.5"/>
<text text-anchor="middle" x="653.5" y="-433.1" font-family="Helvetica,sans-Serif" font-size="18.00">AudioDirector::connect</text>
</a>
</g>
</g>
<!-- Node1&#45;&gt;Node6 -->
<g id="edge5" class="edge">
<title>Node1&#45;&gt;Node6</title>
<path fill="none" stroke="midnightblue" d="M1051.13,-338.33C1009.58,-360.5 936.34,-396.54 869,-414.5 831.82,-424.41 789.93,-430.08 753.1,-433.3"/>
<polygon fill="midnightblue" stroke="midnightblue" points="1052.85,-341.38 1060,-333.56 1049.53,-335.22 1052.85,-341.38"/>
</g>
<!-- Node7 -->
<g id="node7" class="node">
<title>Node7</title>
<g id="a_node7"><a xlink:href="../../d8/d1c/class_audio_director_a8065e5cb8a84207779c7363fc5fabc1e.html#a8065e5cb8a84207779c7363fc5fabc1e" target="_top" xlink:title=" ">
<polygon fill="none" stroke="black" points="542.5,-376.5 542.5,-404.5 764.5,-404.5 764.5,-376.5 542.5,-376.5"/>
<text text-anchor="middle" x="653.5" y="-386.1" font-family="Helvetica,sans-Serif" font-size="18.00">AudioDirector::disconnect</text>
</a>
</g>
</g>
<!-- Node1&#45;&gt;Node7 -->
<g id="edge6" class="edge">
<title>Node1&#45;&gt;Node7</title>
<path fill="none" stroke="midnightblue" d="M1019.86,-335.97C977.19,-346.27 920.06,-359.12 869,-367.5 835.28,-373.04 798.34,-377.55 764.77,-381.06"/>
<polygon fill="midnightblue" stroke="midnightblue" points="1020.95,-339.31 1029.84,-333.55 1019.3,-332.51 1020.95,-339.31"/>
</g>
<!-- Node8 -->
<g id="node8" class="node">
<title>Node8</title>
<g id="a_node8"><a xlink:href="../../d4/dde/class_app_c_q_t_a5b262ebd84f1446cb830f3e1c5437791.html#a5b262ebd84f1446cb830f3e1c5437791" target="_top" xlink:title=" ">
<polygon fill="none" stroke="black" points="593.5,-329.5 593.5,-357.5 713.5,-357.5 713.5,-329.5 593.5,-329.5"/>
<text text-anchor="middle" x="653.5" y="-339.1" font-family="Helvetica,sans-Serif" font-size="18.00">AppCQT::init</text>
</a>
</g>
</g>
<!-- Node1&#45;&gt;Node8 -->
<g id="edge7" class="edge">
<title>Node1&#45;&gt;Node8</title>
<path fill="none" stroke="midnightblue" d="M894.87,-330.1C829.39,-333.75 760.77,-337.58 713.69,-340.2"/>
<polygon fill="midnightblue" stroke="midnightblue" points="895.13,-333.59 904.92,-329.54 894.74,-326.6 895.13,-333.59"/>
</g>
<!-- Node10 -->
<g id="node10" class="node">
<title>Node10</title>
<g id="a_node10"><a xlink:href="../../dc/d27/class_app_audio_to_polyphonic_aee6cbedf9885036f5fbb8d560e9a931b.html#aee6cbedf9885036f5fbb8d560e9a931b" target="_top" xlink:title=" ">
<polygon fill="none" stroke="black" points="516,-282.5 516,-310.5 791,-310.5 791,-282.5 516,-282.5"/>
<text text-anchor="middle" x="653.5" y="-292.1" font-family="Helvetica,sans-Serif" font-size="18.00">AppAudioToPolyphonic::initalize</text>
</a>
</g>
</g>
<!-- Node1&#45;&gt;Node10 -->
<g id="edge9" class="edge">
<title>Node1&#45;&gt;Node10</title>
<path fill="none" stroke="midnightblue" d="M894.64,-309.33C859.83,-307.47 824.14,-305.56 791.28,-303.81"/>
<polygon fill="midnightblue" stroke="midnightblue" points="894.75,-312.84 904.92,-309.88 895.12,-305.85 894.75,-312.84"/>
</g>
<!-- Node12 -->
<g id="node12" class="node">
<title>Node12</title>
<g id="a_node12"><a xlink:href="../../d8/de8/class_svc_eris_audio_parameter_controller_a2efbe2224702a0003965c3b61164f289.html#a2efbe2224702a0003965c3b61164f289" target="_top" xlink:title="receiver method for inter&#45;app string based communication">
<polygon fill="none" stroke="black" points="438,-235.5 438,-263.5 869,-263.5 869,-235.5 438,-235.5"/>
<text text-anchor="middle" x="653.5" y="-245.1" font-family="Helvetica,sans-Serif" font-size="18.00">SvcErisAudioParameterController::messageHandler</text>
</a>
</g>
</g>
<!-- Node1&#45;&gt;Node12 -->
<g id="edge12" class="edge">
<title>Node1&#45;&gt;Node12</title>
<path fill="none" stroke="midnightblue" d="M1018.52,-303.1C975.98,-293.08 919.5,-280.68 869,-272.5 848.2,-269.13 826.19,-266.13 804.5,-263.51"/>
<polygon fill="midnightblue" stroke="midnightblue" points="1017.93,-306.56 1028.47,-305.46 1019.55,-299.74 1017.93,-306.56"/>
</g>
<!-- Node13 -->
<g id="node13" class="node">
<title>Node13</title>
<g id="a_node13"><a xlink:href="../../dc/d27/class_app_audio_to_polyphonic_a9ce317d28f95391ac32bf335c35d04a9.html#a9ce317d28f95391ac32bf335c35d04a9" target="_top" xlink:title="Event handler for analog 1 event.">
<polygon fill="none" stroke="black" points="503,-188.5 503,-216.5 804,-216.5 804,-188.5 503,-188.5"/>
<text text-anchor="middle" x="653.5" y="-198.1" font-family="Helvetica,sans-Serif" font-size="18.00">AppAudioToPolyphonic::onAnalog1</text>
</a>
</g>
</g>
<!-- Node1&#45;&gt;Node13 -->
<g id="edge13" class="edge">
<title>Node1&#45;&gt;Node13</title>
<path fill="none" stroke="midnightblue" d="M1050.76,-300.69C1009.12,-278.76 936.08,-243.25 869,-225.5 848.27,-220.02 826.09,-215.83 804.13,-212.65"/>
<polygon fill="midnightblue" stroke="midnightblue" points="1049.18,-303.82 1059.65,-305.42 1052.47,-297.64 1049.18,-303.82"/>
</g>
<!-- Node14 -->
<g id="node14" class="node">
<title>Node14</title>
<g id="a_node14"><a xlink:href="../../dc/d27/class_app_audio_to_polyphonic_ae81754e73d2f415b3906727b6c0c3009.html#ae81754e73d2f415b3906727b6c0c3009" target="_top" xlink:title="Event handler for analog 2 event.">
<polygon fill="none" stroke="black" points="503,-141.5 503,-169.5 804,-169.5 804,-141.5 503,-141.5"/>
<text text-anchor="middle" x="653.5" y="-151.1" font-family="Helvetica,sans-Serif" font-size="18.00">AppAudioToPolyphonic::onAnalog2</text>
</a>
</g>
</g>
<!-- Node1&#45;&gt;Node14 -->
<g id="edge14" class="edge">
<title>Node1&#45;&gt;Node14</title>
<path fill="none" stroke="midnightblue" d="M1061.53,-298.68C1023.92,-266.66 946.45,-206.12 869,-178.5 848.54,-171.2 826.34,-166.03 804.24,-162.4"/>
<polygon fill="midnightblue" stroke="midnightblue" points="1059.51,-301.55 1069.37,-305.43 1064.08,-296.25 1059.51,-301.55"/>
</g>
<!-- Node15 -->
<g id="node15" class="node">
<title>Node15</title>
<g id="a_node15"><a xlink:href="../../dc/d27/class_app_audio_to_polyphonic_ab02258ccc069dbec717a098d9272c02b.html#ab02258ccc069dbec717a098d9272c02b" target="_top" xlink:title="Event handler for analog 3 event.">
<polygon fill="none" stroke="black" points="503,-94.5 503,-122.5 804,-122.5 804,-94.5 503,-94.5"/>
<text text-anchor="middle" x="653.5" y="-104.1" font-family="Helvetica,sans-Serif" font-size="18.00">AppAudioToPolyphonic::onAnalog3</text>
</a>
</g>
</g>
<!-- Node1&#45;&gt;Node15 -->
<g id="edge15" class="edge">
<title>Node1&#45;&gt;Node15</title>
<path fill="none" stroke="midnightblue" d="M1067.82,-297.49C1034.5,-256.63 956.63,-169.74 869,-131.5 848.75,-122.66 826.44,-116.67 804.09,-112.7"/>
<polygon fill="midnightblue" stroke="midnightblue" points="1065.25,-299.87 1074.24,-305.47 1070.7,-295.49 1065.25,-299.87"/>
</g>
<!-- Node16 -->
<g id="node16" class="node">
<title>Node16</title>
<g id="a_node16"><a xlink:href="../../dc/d27/class_app_audio_to_polyphonic_af41e6e84e4e9c8a19c2125f7987d8090.html#af41e6e84e4e9c8a19c2125f7987d8090" target="_top" xlink:title="Event handler for analog 4 event.">
<polygon fill="none" stroke="black" points="503,-47.5 503,-75.5 804,-75.5 804,-47.5 503,-47.5"/>
<text text-anchor="middle" x="653.5" y="-57.1" font-family="Helvetica,sans-Serif" font-size="18.00">AppAudioToPolyphonic::onAnalog4</text>
</a>
</g>
</g>
<!-- Node1&#45;&gt;Node16 -->
<g id="edge16" class="edge">
<title>Node1&#45;&gt;Node16</title>
<path fill="none" stroke="midnightblue" d="M1071.97,-296.6C1042.82,-247.79 967.1,-133.98 869,-84.5 849.02,-74.42 826.68,-67.8 804.17,-63.56"/>
<polygon fill="midnightblue" stroke="midnightblue" points="1069.09,-298.6 1077.17,-305.45 1075.13,-295.06 1069.09,-298.6"/>
</g>
<!-- Node17 -->
<g id="node17" class="node">
<title>Node17</title>
<g id="a_node17"><a xlink:href="../../dc/d27/class_app_audio_to_polyphonic_a99f6f674f3b661b3b566be3abc46545a.html#a99f6f674f3b661b3b566be3abc46545a" target="_top" xlink:title="render loop">
<polygon fill="none" stroke="black" points="520,-0.5 520,-28.5 787,-28.5 787,-0.5 520,-0.5"/>
<text text-anchor="middle" x="653.5" y="-10.1" font-family="Helvetica,sans-Serif" font-size="18.00">AppAudioToPolyphonic::render</text>
</a>
</g>
</g>
<!-- Node1&#45;&gt;Node17 -->
<g id="edge17" class="edge">
<title>Node1&#45;&gt;Node17</title>
<path fill="none" stroke="midnightblue" d="M1075.05,-296.03C1049.92,-240.04 978.07,-98.79 869,-37.5 844.35,-23.65 815.58,-15.96 787.27,-12.02"/>
<polygon fill="midnightblue" stroke="midnightblue" points="1071.96,-297.7 1079.19,-305.45 1078.37,-294.89 1071.96,-297.7"/>
</g>
<!-- Node4&#45;&gt;Node5 -->
<g id="edge4" class="edge">
<title>Node4&#45;&gt;Node5</title>
<path fill="none" stroke="midnightblue" d="M483.99,-515.27C448.95,-513.56 411.96,-511.75 376.71,-510.03"/>
<polygon fill="midnightblue" stroke="midnightblue" points="484.15,-518.78 494.3,-515.77 484.49,-511.79 484.15,-518.78"/>
</g>
<!-- Node9 -->
<g id="node9" class="node">
<title>Node9</title>
<g id="a_node9"><a xlink:href="../../d4/dde/class_app_c_q_t_a587bd3e6103103694f01f420aeb02a70.html#a587bd3e6103103694f01f420aeb02a70" target="_top" xlink:title=" ">
<polygon fill="none" stroke="black" points="117.5,-329.5 117.5,-357.5 284.5,-357.5 284.5,-329.5 117.5,-329.5"/>
<text text-anchor="middle" x="201" y="-339.1" font-family="Helvetica,sans-Serif" font-size="18.00">AppCQT::AppCQT</text>
</a>
</g>
</g>
<!-- Node8&#45;&gt;Node9 -->
<g id="edge8" class="edge">
<title>Node8&#45;&gt;Node9</title>
<path fill="none" stroke="midnightblue" d="M583.12,-343.5C502.78,-343.5 370.51,-343.5 284.84,-343.5"/>
<polygon fill="midnightblue" stroke="midnightblue" points="583.14,-347 593.14,-343.5 583.14,-340 583.14,-347"/>
</g>
<!-- Node11 -->
<g id="node11" class="node">
<title>Node11</title>
<g id="a_node11"><a xlink:href="../../dc/d27/class_app_audio_to_polyphonic_a3f4679d883227d6293effc4eed5cea06.html#a3f4679d883227d6293effc4eed5cea06" target="_top" xlink:title=" ">
<polygon fill="none" stroke="black" points="0,-282.5 0,-310.5 402,-310.5 402,-282.5 0,-282.5"/>
<text text-anchor="middle" x="201" y="-292.1" font-family="Helvetica,sans-Serif" font-size="18.00">AppAudioToPolyphonic::AppAudioToPolyphonic</text>
</a>
</g>
</g>
<!-- Node10&#45;&gt;Node11 -->
<g id="edge10" class="edge">
<title>Node10&#45;&gt;Node11</title>
<path fill="none" stroke="midnightblue" d="M505.63,-296.5C472.56,-296.5 436.92,-296.5 402.09,-296.5"/>
<polygon fill="midnightblue" stroke="midnightblue" points="505.81,-300 515.81,-296.5 505.81,-293 505.81,-300"/>
</g>
</g>
</svg>
        <g id="navigator" transform="translate(0 0)" fill="#404254">
                <rect fill="#f2f5e9" fill-opacity="0.5" stroke="#606060" stroke-width=".5" x="0" y="0" width="60" height="60"/>
                <use id="zoomplus" xlink:href="#zoomPlus" x="17" y="9" onmousedown="handleZoom(evt,'in')"/>
                <use id="zoomminus" xlink:href="#zoomMin" x="42" y="9" onmousedown="handleZoom(evt,'out')"/>
                <use id="reset" xlink:href="#resetDef" x="30" y="36" onmousedown="handleReset()"/>
                <g id="arrowUp" xlink:href="#dirArrow" transform="translate(30 24)" onmousedown="handlePan(0,-1)">
                  <use xlink:href="#rim" fill="#404040">
                        <set attributeName="fill" to="#808080" begin="arrowUp.mouseover" end="arrowUp.mouseout"/>
                  </use>
                  <path fill="none" stroke="white" stroke-width="1.5" d="M0,-3.0v7 M-2.5,-0.5L0,-3.0L2.5,-0.5"/>
                </g>
                <g id="arrowRight" xlink:href="#dirArrow" transform="rotate(90) translate(36 -43)" onmousedown="handlePan(1,0)">
                  <use xlink:href="#rim" fill="#404040">
                        <set attributeName="fill" to="#808080" begin="arrowRight.mouseover" end="arrowRight.mouseout"/>
                  </use>
                  <path fill="none" stroke="white" stroke-width="1.5" d="M0,-3.0v7 M-2.5,-0.5L0,-3.0L2.5,-0.5"/>
                </g>
                <g id="arrowDown" xlink:href="#dirArrow" transform="rotate(180) translate(-30 -48)" onmousedown="handlePan(0,1)">
                  <use xlink:href="#rim" fill="#404040">
                        <set attributeName="fill" to="#808080" begin="arrowDown.mouseover" end="arrowDown.mouseout"/>
                  </use>
                  <path fill="none" stroke="white" stroke-width="1.5" d="M0,-3.0v7 M-2.5,-0.5L0,-3.0L2.5,-0.5"/>
                </g>
                <g id="arrowLeft" xlink:href="#dirArrow" transform="rotate(270) translate(-36 17)" onmousedown="handlePan(-1,0)">
                  <use xlink:href="#rim" fill="#404040">
                        <set attributeName="fill" to="#808080" begin="arrowLeft.mouseover" end="arrowLeft.mouseout"/>
                  </use>
                  <path fill="none" stroke="white" stroke-width="1.5" d="M0,-3.0v7 M-2.5,-0.5L0,-3.0L2.5,-0.5"/>
                </g>
        </g>
        <svg viewBox="0 0 15 15" width="100%" height="30px" preserveAspectRatio="xMaxYMin meet">
         <g id="arrow_out" transform="scale(0.3 0.3)">
          <a xlink:href="class_audio_director_a578f1deac0695f2db3ba245aaedc62df_a578f1deac0695f2db3ba245aaedc62df_icgraph_org.svg" target="_base">
           <rect id="button" ry="5" rx="5" y="6" x="6" height="38" width="38"
                fill="#f2f5e9" fill-opacity="0.5" stroke="#606060" stroke-width="1.0"/>
           <path id="arrow"
             d="M 11.500037,31.436501 C 11.940474,20.09759 22.043105,11.32322 32.158766,21.979434 L 37.068811,17.246167 C 37.068811,17.246167 37.088388,32 37.088388,32 L 22.160133,31.978069 C 22.160133,31.978069 26.997745,27.140456 26.997745,27.140456 C 18.528582,18.264221 13.291696,25.230495 11.500037,31.436501 z"
             style="fill:#404040;"/>
          </a>
         </g>
        </svg>
</svg>
