<?xml version="1.0" encoding="UTF-8" standalone="no"?>
<!DOCTYPE svg PUBLIC "-//W3C//DTD SVG 1.1//EN"
 "http://www.w3.org/Graphics/SVG/1.1/DTD/svg11.dtd">
<!-- Generated by graphviz version 2.47.3 (20210619.1520)
 -->
<!-- Title: AudioDirector::connect Pages: 1 -->
<svg width="596pt" height="164pt"
 viewBox="0.00 0.00 596.00 163.50" xmlns="http://www.w3.org/2000/svg" xmlns:xlink="http://www.w3.org/1999/xlink">
<g id="graph0" class="graph" transform="scale(1 1) rotate(0) translate(4 159.5)">
<title>AudioDirector::connect</title>
<polygon fill="white" stroke="transparent" points="-4,4 -4,-159.5 592,-159.5 592,4 -4,4"/>
<!-- Node1 -->
<g id="node1" class="node">
<title>Node1</title>
<g id="a_node1"><a xlink:title=" ">
<polygon fill="#bfbfbf" stroke="black" points="452,-74 452,-95 588,-95 588,-74 452,-74"/>
<text text-anchor="middle" x="520" y="-81.4" font-family="Helvetica,sans-Serif" font-size="12.00">AudioDirector::connect</text>
</a>
</g>
</g>
<!-- Node2 -->
<g id="node2" class="node">
<title>Node2</title>
<g id="a_node2"><a xlink:href="../../d8/d1c/class_audio_director.html#aac97077a6f47bf2728b8eb8720d9ad49" target="_top" xlink:title=" ">
<polygon fill="white" stroke="black" points="233,-134 233,-155 369,-155 369,-134 233,-134"/>
<text text-anchor="middle" x="301" y="-141.4" font-family="Helvetica,sans-Serif" font-size="12.00">AudioDirector::connect</text>
</a>
</g>
</g>
<!-- Node1&#45;&gt;Node2 -->
<g id="edge1" class="edge">
<title>Node1&#45;&gt;Node2</title>
<path fill="none" stroke="midnightblue" d="M486.45,-99.04C466.46,-107.49 440.14,-117.77 416,-124.5 401,-128.68 384.63,-132.17 369.1,-134.99"/>
<polygon fill="midnightblue" stroke="midnightblue" points="487.91,-102.22 495.72,-95.06 485.15,-95.79 487.91,-102.22"/>
</g>
<!-- Node3 -->
<g id="node3" class="node">
<title>Node3</title>
<g id="a_node3"><a xlink:href="../../dd/da5/class_my_app_example.html#acbf88d789ce51f4ca12d3e0300327408" target="_top" xlink:title=" ">
<polygon fill="white" stroke="black" points="186,-94 186,-115 416,-115 416,-94 186,-94"/>
<text text-anchor="middle" x="301" y="-101.4" font-family="Helvetica,sans-Serif" font-size="12.00">MyAppExample::makeAudioConnections</text>
</a>
</g>
</g>
<!-- Node1&#45;&gt;Node3 -->
<g id="edge2" class="edge">
<title>Node1&#45;&gt;Node3</title>
<path fill="none" stroke="midnightblue" d="M441.73,-91.62C433.33,-92.4 424.65,-93.2 415.93,-94"/>
<polygon fill="midnightblue" stroke="midnightblue" points="442.19,-95.09 451.83,-90.69 441.55,-88.12 442.19,-95.09"/>
</g>
<!-- Node5 -->
<g id="node5" class="node">
<title>Node5</title>
<g id="a_node5"><a xlink:href="../../dd/da5/class_my_app_example.html#a7a77ffb8a5fb02933673fba14c58e8c0" target="_top" xlink:title=" ">
<polygon fill="white" stroke="black" points="204,-54 204,-75 398,-75 398,-54 204,-54"/>
<text text-anchor="middle" x="301" y="-61.4" font-family="Helvetica,sans-Serif" font-size="12.00">MyAppExample::MessageHandler</text>
</a>
</g>
</g>
<!-- Node1&#45;&gt;Node5 -->
<g id="edge4" class="edge">
<title>Node1&#45;&gt;Node5</title>
<path fill="none" stroke="midnightblue" d="M441.74,-77.38C427.69,-76.08 412.87,-74.72 398.34,-73.38"/>
<polygon fill="midnightblue" stroke="midnightblue" points="441.55,-80.88 451.83,-78.31 442.19,-73.91 441.55,-80.88"/>
</g>
<!-- Node6 -->
<g id="node6" class="node">
<title>Node6</title>
<g id="a_node6"><a xlink:href="../../d9/dad/class_app_serial_command_interface.html#a78cb6587862058ba6a6b4bfd9b9ecee1" target="_top" xlink:title=" ">
<polygon fill="white" stroke="black" points="217,-0.5 217,-34.5 385,-34.5 385,-0.5 217,-0.5"/>
<text text-anchor="start" x="225" y="-20.9" font-family="Helvetica,sans-Serif" font-size="12.00">AppSerialCommandInterface</text>
<text text-anchor="middle" x="301" y="-7.9" font-family="Helvetica,sans-Serif" font-size="12.00">::updateRT</text>
</a>
</g>
</g>
<!-- Node1&#45;&gt;Node6 -->
<g id="edge5" class="edge">
<title>Node1&#45;&gt;Node6</title>
<path fill="none" stroke="midnightblue" d="M485.11,-69.98C465.22,-61.8 439.46,-51.79 416,-44.5 404.54,-40.94 392.31,-37.58 380.27,-34.53"/>
<polygon fill="midnightblue" stroke="midnightblue" points="483.79,-73.22 494.36,-73.83 486.47,-66.76 483.79,-73.22"/>
</g>
<!-- Node4 -->
<g id="node4" class="node">
<title>Node4</title>
<g id="a_node4"><a xlink:href="../../dd/da5/class_my_app_example.html#a3970e5306df931a55e34a4ae513d6f50" target="_top" xlink:title=" ">
<polygon fill="white" stroke="black" points="0,-94 0,-115 150,-115 150,-94 0,-94"/>
<text text-anchor="middle" x="75" y="-101.4" font-family="Helvetica,sans-Serif" font-size="12.00">MyAppExample::onFocus</text>
</a>
</g>
</g>
<!-- Node3&#45;&gt;Node4 -->
<g id="edge3" class="edge">
<title>Node3&#45;&gt;Node4</title>
<path fill="none" stroke="midnightblue" d="M175.53,-104.5C166.9,-104.5 158.36,-104.5 150.13,-104.5"/>
<polygon fill="midnightblue" stroke="midnightblue" points="175.7,-108 185.7,-104.5 175.7,-101 175.7,-108"/>
</g>
</g>
</svg>
