<?xml version="1.0" encoding="UTF-8" standalone="no"?>
<!DOCTYPE svg PUBLIC "-//W3C//DTD SVG 1.1//EN"
 "http://www.w3.org/Graphics/SVG/1.1/DTD/svg11.dtd">
<!-- Generated by graphviz version 2.47.3 (20210619.1520)
 -->
<!-- Title: AudioDirector::printStats Pages: 1 -->
<!--zoomable 540 -->
<svg id="main" version="1.1" xmlns="http://www.w3.org/2000/svg" xmlns:xlink="http://www.w3.org/1999/xlink" xml:space="preserve" onload="init(evt)">
<style type="text/css"><![CDATA[
.edge:hover path { stroke: red; }
.edge:hover polygon { stroke: red; fill: red; }
]]></style>
<script type="text/javascript"><![CDATA[
var edges = document.getElementsByTagName('g');
if (edges && edges.length) {
  for (var i=0;i<edges.length;i++) {
    if (edges[i].id.substr(0,4)=='edge') {
      edges[i].setAttribute('class','edge');
    }
  }
}
]]></script>
        <defs>
                <circle id="rim" cx="0" cy="0" r="7"/>
                <circle id="rim2" cx="0" cy="0" r="3.5"/>
                <g id="zoomPlus">
                        <use xlink:href="#rim" fill="#404040">
                                <set attributeName="fill" to="#808080" begin="zoomplus.mouseover" end="zoomplus.mouseout"/>
                        </use>
                        <path d="M-4,0h8M0,-4v8" fill="none" stroke="white" stroke-width="1.5" pointer-events="none"/>
                </g>
                <g id="zoomMin">
                        <use xlink:href="#rim" fill="#404040">
                                <set attributeName="fill" to="#808080" begin="zoomminus.mouseover" end="zoomminus.mouseout"/>
                        </use>
                        <path d="M-4,0h8" fill="none" stroke="white" stroke-width="1.5" pointer-events="none"/>
                </g>
                <g id="dirArrow">
                        <path fill="none" stroke="white" stroke-width="1.5" d="M0,-3.0v7 M-2.5,-0.5L0,-3.0L2.5,-0.5"/>
                </g>
               <g id="resetDef">
                       <use xlink:href="#rim2" fill="#404040">
                               <set attributeName="fill" to="#808080" begin="reset.mouseover" end="reset.mouseout"/>
                       </use>
               </g>
        </defs>

<script type="text/javascript">
var viewWidth = 1585;
var viewHeight = 540;
var sectionId = 'dynsection-15';
</script>
<script xlink:href="../../svgpan.js"/>
<svg id="graph" class="graph">
<g id="viewport">
<title>AudioDirector::printStats</title>
<polygon fill="white" stroke="transparent" points="-4,4 -4,-536 1581,-536 1581,4 -4,4"/>
<!-- Node1 -->
<g id="node1" class="node">
<title>Node1</title>
<g id="a_node1"><a xlink:title=" ">
<polygon fill="#bfbfbf" stroke="black" points="0,-241.5 0,-262.5 145,-262.5 145,-241.5 0,-241.5"/>
<text text-anchor="middle" x="72.5" y="-248.9" font-family="Helvetica,sans-Serif" font-size="12.00">AudioDirector::printStats</text>
</a>
</g>
</g>
<!-- Node2 -->
<g id="node2" class="node">
<title>Node2</title>
<g id="a_node2"><a xlink:href="../../d2/da8/class_svc_serial_command_interface.html#af0793e6bc9aee7207b4d7f59932e6508" target="_top" xlink:title="Calling this function signals the end of a compressed message. The current txBuffer is lz4 compressed...">
<polygon fill="white" stroke="black" points="181,-209 181,-243 347,-243 347,-209 181,-209"/>
<text text-anchor="start" x="189" y="-229.4" font-family="Helvetica,sans-Serif" font-size="12.00">SvcSerialCommandInterface</text>
<text text-anchor="middle" x="264" y="-216.4" font-family="Helvetica,sans-Serif" font-size="12.00">::endLZ4Message</text>
</a>
</g>
</g>
<!-- Node1&#45;&gt;Node2 -->
<g id="edge1" class="edge">
<title>Node1&#45;&gt;Node2</title>
<path fill="none" stroke="midnightblue" d="M145.14,-242.17C153.5,-241.02 162.12,-239.84 170.71,-238.66"/>
<polygon fill="midnightblue" stroke="midnightblue" points="171.34,-242.11 180.77,-237.28 170.38,-235.17 171.34,-242.11"/>
</g>
<!-- Node63 -->
<g id="node27" class="node">
<title>Node63</title>
<g id="a_node27"><a xlink:href="../../d2/da8/class_svc_serial_command_interface.html#a42055ffe62395b2d4ee7ca7ef44f1a50" target="_top" xlink:title=" ">
<polygon fill="white" stroke="black" points="181,-262 181,-296 347,-296 347,-262 181,-262"/>
<text text-anchor="start" x="189" y="-282.4" font-family="Helvetica,sans-Serif" font-size="12.00">SvcSerialCommandInterface</text>
<text text-anchor="middle" x="264" y="-269.4" font-family="Helvetica,sans-Serif" font-size="12.00">::startLZ4Message</text>
</a>
</g>
</g>
<!-- Node1&#45;&gt;Node63 -->
<g id="edge32" class="edge">
<title>Node1&#45;&gt;Node63</title>
<path fill="none" stroke="midnightblue" d="M145.14,-262.21C153.5,-263.4 162.12,-264.63 170.71,-265.85"/>
<polygon fill="midnightblue" stroke="midnightblue" points="170.37,-269.34 180.77,-267.28 171.36,-262.41 170.37,-269.34"/>
</g>
<!-- Node3 -->
<g id="node3" class="node">
<title>Node3</title>
<g id="a_node3"><a xlink:href="../../d2/da8/class_svc_serial_command_interface.html#a809cc3d22320bdd8c54044e278e188f0" target="_top" xlink:title=" ">
<polygon fill="white" stroke="black" points="383,-261 383,-295 549,-295 549,-261 383,-261"/>
<text text-anchor="start" x="391" y="-281.4" font-family="Helvetica,sans-Serif" font-size="12.00">SvcSerialCommandInterface</text>
<text text-anchor="middle" x="466" y="-268.4" font-family="Helvetica,sans-Serif" font-size="12.00">::empty</text>
</a>
</g>
</g>
<!-- Node2&#45;&gt;Node3 -->
<g id="edge2" class="edge">
<title>Node2&#45;&gt;Node3</title>
<path fill="none" stroke="midnightblue" d="M330.49,-243.03C349.39,-247.94 370.18,-253.35 389.63,-258.4"/>
<polygon fill="midnightblue" stroke="midnightblue" points="388.81,-261.81 399.37,-260.94 390.57,-255.03 388.81,-261.81"/>
</g>
<!-- Node4 -->
<g id="node4" class="node">
<title>Node4</title>
<g id="a_node4"><a xlink:href="../../d4/d05/lz4_8c.html#a7466a8eca8f7b2eeec7887c9371d21e1" target="_top" xlink:title=" ">
<polygon fill="white" stroke="black" points="405.5,-217.5 405.5,-238.5 526.5,-238.5 526.5,-217.5 405.5,-217.5"/>
<text text-anchor="middle" x="466" y="-224.9" font-family="Helvetica,sans-Serif" font-size="12.00">LZ4_compress_fast</text>
</a>
</g>
</g>
<!-- Node2&#45;&gt;Node4 -->
<g id="edge3" class="edge">
<title>Node2&#45;&gt;Node4</title>
<path fill="none" stroke="midnightblue" d="M347.21,-226.82C363.21,-226.98 379.83,-227.15 395.38,-227.3"/>
<polygon fill="midnightblue" stroke="midnightblue" points="395.38,-230.8 405.42,-227.4 395.45,-223.8 395.38,-230.8"/>
</g>
<!-- Node62 -->
<g id="node26" class="node">
<title>Node62</title>
<g id="a_node26"><a xlink:href="../../d2/da8/class_svc_serial_command_interface.html#a72fa7592492598637d233d9abe27f8f0" target="_top" xlink:title="returns true if the available serial buffer falls below SERIAL_THROTTLE_BUFFER_REMAINING_THRESHOLD if...">
<polygon fill="white" stroke="black" points="383,-164 383,-198 549,-198 549,-164 383,-164"/>
<text text-anchor="start" x="391" y="-184.4" font-family="Helvetica,sans-Serif" font-size="12.00">SvcSerialCommandInterface</text>
<text text-anchor="middle" x="466" y="-171.4" font-family="Helvetica,sans-Serif" font-size="12.00">::throttle</text>
</a>
</g>
</g>
<!-- Node2&#45;&gt;Node62 -->
<g id="edge31" class="edge">
<title>Node2&#45;&gt;Node62</title>
<path fill="none" stroke="midnightblue" d="M340.61,-208.99C353.3,-206.13 366.56,-203.15 379.48,-200.24"/>
<polygon fill="midnightblue" stroke="midnightblue" points="380.29,-203.65 389.28,-198.04 378.76,-196.82 380.29,-203.65"/>
</g>
<!-- Node5 -->
<g id="node5" class="node">
<title>Node5</title>
<g id="a_node5"><a xlink:href="../../d4/d05/lz4_8c.html#a19a6258c0092d5b3255a41d7566248d7" target="_top" xlink:title=" ">
<polygon fill="white" stroke="black" points="585,-217.5 585,-238.5 755,-238.5 755,-217.5 585,-217.5"/>
<text text-anchor="middle" x="670" y="-224.9" font-family="Helvetica,sans-Serif" font-size="12.00">LZ4_compress_fast_extState</text>
</a>
</g>
</g>
<!-- Node4&#45;&gt;Node5 -->
<g id="edge4" class="edge">
<title>Node4&#45;&gt;Node5</title>
<path fill="none" stroke="midnightblue" d="M526.51,-228C541.64,-228 558.28,-228 574.68,-228"/>
<polygon fill="midnightblue" stroke="midnightblue" points="574.84,-231.5 584.84,-228 574.84,-224.5 574.84,-231.5"/>
</g>
<!-- Node6 -->
<g id="node6" class="node">
<title>Node6</title>
<g id="a_node6"><a xlink:href="../../d4/d05/lz4_8c.html#a2c16b0c1f9b51bb73e155876011fc97a" target="_top" xlink:title=" ">
<polygon fill="white" stroke="black" points="791,-257.5 791,-278.5 932,-278.5 932,-257.5 791,-257.5"/>
<text text-anchor="middle" x="861.5" y="-264.9" font-family="Helvetica,sans-Serif" font-size="12.00">LZ4_compress_generic</text>
</a>
</g>
</g>
<!-- Node5&#45;&gt;Node6 -->
<g id="edge5" class="edge">
<title>Node5&#45;&gt;Node6</title>
<path fill="none" stroke="midnightblue" d="M720.79,-238.51C745.28,-243.68 774.99,-249.95 800.71,-255.38"/>
<polygon fill="midnightblue" stroke="midnightblue" points="800.21,-258.85 810.71,-257.49 801.65,-252 800.21,-258.85"/>
</g>
<!-- Node58 -->
<g id="node22" class="node">
<title>Node58</title>
<g id="a_node22"><a xlink:href="../../d4/d05/lz4_8c.html#a2b09f5ca41ce609bb136d3637beffe04" target="_top" xlink:title=" ">
<polygon fill="white" stroke="black" points="797,-217.5 797,-238.5 926,-238.5 926,-217.5 797,-217.5"/>
<text text-anchor="middle" x="861.5" y="-224.9" font-family="Helvetica,sans-Serif" font-size="12.00">LZ4_compressBound</text>
</a>
</g>
</g>
<!-- Node5&#45;&gt;Node58 -->
<g id="edge27" class="edge">
<title>Node5&#45;&gt;Node58</title>
<path fill="none" stroke="midnightblue" d="M755.22,-228C765.67,-228 776.3,-228 786.58,-228"/>
<polygon fill="midnightblue" stroke="midnightblue" points="786.73,-231.5 796.73,-228 786.73,-224.5 786.73,-231.5"/>
</g>
<!-- Node59 -->
<g id="node23" class="node">
<title>Node59</title>
<g id="a_node23"><a xlink:href="../../d4/d05/lz4_8c.html#a43fc7d0a99a5a66f6056d73ce3e8aa5c" target="_top" xlink:title=" ">
<polygon fill="white" stroke="black" points="813,-177.5 813,-198.5 910,-198.5 910,-177.5 813,-177.5"/>
<text text-anchor="middle" x="861.5" y="-184.9" font-family="Helvetica,sans-Serif" font-size="12.00">LZ4_initStream</text>
</a>
</g>
</g>
<!-- Node5&#45;&gt;Node59 -->
<g id="edge28" class="edge">
<title>Node5&#45;&gt;Node59</title>
<path fill="none" stroke="midnightblue" d="M720.79,-217.49C745.97,-212.17 776.67,-205.69 802.88,-200.16"/>
<polygon fill="midnightblue" stroke="midnightblue" points="803.62,-203.58 812.68,-198.09 802.17,-196.74 803.62,-203.58"/>
</g>
<!-- Node7 -->
<g id="node7" class="node">
<title>Node7</title>
<g id="a_node7"><a xlink:href="../../d4/d05/lz4_8c.html#aaf9d82d99a9a4f4d33da21867c6aa751" target="_top" xlink:title=" ">
<polygon fill="white" stroke="black" points="970.5,-251 970.5,-285 1111.5,-285 1111.5,-251 970.5,-251"/>
<text text-anchor="start" x="978.5" y="-271.4" font-family="Helvetica,sans-Serif" font-size="12.00">LZ4_compress_generic</text>
<text text-anchor="middle" x="1041" y="-258.4" font-family="Helvetica,sans-Serif" font-size="12.00">_validated</text>
</a>
</g>
</g>
<!-- Node6&#45;&gt;Node7 -->
<g id="edge6" class="edge">
<title>Node6&#45;&gt;Node7</title>
<path fill="none" stroke="midnightblue" d="M932.14,-268C941.34,-268 950.83,-268 960.19,-268"/>
<polygon fill="midnightblue" stroke="midnightblue" points="960.27,-271.5 970.27,-268 960.27,-264.5 960.27,-271.5"/>
</g>
<!-- Node8 -->
<g id="node8" class="node">
<title>Node8</title>
<g id="a_node8"><a xlink:href="../../d4/d05/lz4_8c.html#aa81c43ba8b3f5f2c3728aaecd44d6a02" target="_top" xlink:title=" ">
<polygon fill="white" stroke="black" points="1166.5,-510.5 1166.5,-531.5 1262.5,-531.5 1262.5,-510.5 1166.5,-510.5"/>
<text text-anchor="middle" x="1214.5" y="-517.9" font-family="Helvetica,sans-Serif" font-size="12.00">LZ4_clearHash</text>
</a>
</g>
</g>
<!-- Node7&#45;&gt;Node8 -->
<g id="edge7" class="edge">
<title>Node7&#45;&gt;Node8</title>
<path fill="none" stroke="midnightblue" d="M1045.55,-285.15C1055.05,-326.96 1084.89,-435.13 1150,-496 1154.11,-499.84 1158.88,-503.12 1163.93,-505.91"/>
<polygon fill="midnightblue" stroke="midnightblue" points="1162.7,-509.2 1173.22,-510.42 1165.75,-502.91 1162.7,-509.2"/>
</g>
<!-- Node9 -->
<g id="node9" class="node">
<title>Node9</title>
<g id="a_node9"><a xlink:href="../../d4/d05/lz4_8c.html#a94258766267d7286a6962c805eb56fea" target="_top" xlink:title=" ">
<polygon fill="white" stroke="red" points="1352,-472.5 1352,-493.5 1423,-493.5 1423,-472.5 1352,-472.5"/>
<text text-anchor="middle" x="1387.5" y="-479.9" font-family="Helvetica,sans-Serif" font-size="12.00">LZ4_count</text>
</a>
</g>
</g>
<!-- Node7&#45;&gt;Node9 -->
<g id="edge8" class="edge">
<title>Node7&#45;&gt;Node9</title>
<path fill="none" stroke="midnightblue" d="M1046.05,-285.04C1056.15,-323.39 1086.35,-416.33 1150,-458 1207.85,-495.87 1291.22,-494.89 1341.96,-489.69"/>
<polygon fill="midnightblue" stroke="midnightblue" points="1342.42,-493.16 1351.97,-488.56 1341.64,-486.2 1342.42,-493.16"/>
</g>
<!-- Node13 -->
<g id="node10" class="node">
<title>Node13</title>
<g id="a_node10"><a xlink:href="../../d4/d05/lz4_8c.html#a91090d7f3d29948be259526ace41da4c" target="_top" xlink:title=" ">
<polygon fill="white" stroke="black" points="1496,-433.5 1496,-454.5 1577,-454.5 1577,-433.5 1496,-433.5"/>
<text text-anchor="middle" x="1536.5" y="-440.9" font-family="Helvetica,sans-Serif" font-size="12.00">LZ4_read32</text>
</a>
</g>
</g>
<!-- Node7&#45;&gt;Node13 -->
<g id="edge22" class="edge">
<title>Node7&#45;&gt;Node13</title>
<path fill="none" stroke="midnightblue" d="M1047.88,-285.14C1060.49,-318.93 1093.66,-393.58 1150,-425 1206.21,-456.35 1395.12,-451.35 1485.94,-446.9"/>
<polygon fill="midnightblue" stroke="midnightblue" points="1486.18,-450.39 1495.99,-446.39 1485.82,-443.4 1486.18,-450.39"/>
</g>
<!-- Node15 -->
<g id="node11" class="node">
<title>Node15</title>
<g id="a_node11"><a xlink:href="../../d4/d05/lz4_8c.html#a53d709e1ac9aff4321467ffe1fef571f" target="_top" xlink:title=" ">
<polygon fill="white" stroke="black" points="1150,-394.5 1150,-415.5 1279,-415.5 1279,-394.5 1150,-394.5"/>
<text text-anchor="middle" x="1214.5" y="-401.9" font-family="Helvetica,sans-Serif" font-size="12.00">LZ4_getIndexOnHash</text>
</a>
</g>
</g>
<!-- Node7&#45;&gt;Node15 -->
<g id="edge10" class="edge">
<title>Node7&#45;&gt;Node15</title>
<path fill="none" stroke="midnightblue" d="M1054.53,-285.01C1073.02,-309.08 1109.8,-353.13 1150,-380 1156.03,-384.03 1162.8,-387.56 1169.62,-390.6"/>
<polygon fill="midnightblue" stroke="midnightblue" points="1168.3,-393.84 1178.88,-394.45 1170.99,-387.38 1168.3,-393.84"/>
</g>
<!-- Node16 -->
<g id="node12" class="node">
<title>Node16</title>
<g id="a_node12"><a xlink:href="../../d4/d05/lz4_8c.html#a444f5fe30425008a14fe95fce61c7809" target="_top" xlink:title=" ">
<polygon fill="white" stroke="black" points="1163,-316.5 1163,-337.5 1266,-337.5 1266,-316.5 1163,-316.5"/>
<text text-anchor="middle" x="1214.5" y="-323.9" font-family="Helvetica,sans-Serif" font-size="12.00">LZ4_getPosition</text>
</a>
</g>
</g>
<!-- Node7&#45;&gt;Node16 -->
<g id="edge11" class="edge">
<title>Node7&#45;&gt;Node16</title>
<path fill="none" stroke="midnightblue" d="M1091.6,-285.07C1117.52,-293.98 1148.81,-304.75 1173.21,-313.14"/>
<polygon fill="midnightblue" stroke="midnightblue" points="1172.27,-316.52 1182.87,-316.46 1174.55,-309.9 1172.27,-316.52"/>
</g>
<!-- Node17 -->
<g id="node13" class="node">
<title>Node17</title>
<g id="a_node13"><a xlink:href="../../d4/d05/lz4_8c.html#abdc1313fe20c80eb1790fdf0fbdb30a0" target="_top" xlink:title=" ">
<polygon fill="white" stroke="black" points="1315,-346.5 1315,-367.5 1460,-367.5 1460,-346.5 1315,-346.5"/>
<text text-anchor="middle" x="1387.5" y="-353.9" font-family="Helvetica,sans-Serif" font-size="12.00">LZ4_getPositionOnHash</text>
</a>
</g>
</g>
<!-- Node7&#45;&gt;Node17 -->
<g id="edge15" class="edge">
<title>Node7&#45;&gt;Node17</title>
<path fill="none" stroke="midnightblue" d="M1058.45,-285.01C1078.17,-304.11 1113.17,-334.1 1150,-347 1199.41,-364.31 1258.22,-366.86 1304.83,-365.07"/>
<polygon fill="midnightblue" stroke="midnightblue" points="1305.05,-368.56 1314.88,-364.6 1304.73,-361.57 1305.05,-368.56"/>
</g>
<!-- Node18 -->
<g id="node14" class="node">
<title>Node18</title>
<g id="a_node14"><a xlink:href="../../d4/d05/lz4_8c.html#ac12a7e2c99e027f4890aa543dc3fc367" target="_top" xlink:title=" ">
<polygon fill="white" stroke="red" points="1332,-287.5 1332,-308.5 1443,-308.5 1443,-287.5 1332,-287.5"/>
<text text-anchor="middle" x="1387.5" y="-294.9" font-family="Helvetica,sans-Serif" font-size="12.00">LZ4_hashPosition</text>
</a>
</g>
</g>
<!-- Node7&#45;&gt;Node18 -->
<g id="edge16" class="edge">
<title>Node7&#45;&gt;Node18</title>
<path fill="none" stroke="midnightblue" d="M1111.71,-274.07C1173.14,-279.42 1261.92,-287.15 1321.8,-292.37"/>
<polygon fill="midnightblue" stroke="midnightblue" points="1321.62,-295.86 1331.89,-293.24 1322.23,-288.89 1321.62,-295.86"/>
</g>
<!-- Node21 -->
<g id="node15" class="node">
<title>Node21</title>
<g id="a_node15"><a xlink:href="../../d4/d05/lz4_8c.html#aa691b9fc80f3e34c2b3e776a4a488911" target="_top" xlink:title=" ">
<polygon fill="white" stroke="black" points="1150.5,-238.5 1150.5,-259.5 1278.5,-259.5 1278.5,-238.5 1150.5,-238.5"/>
<text text-anchor="middle" x="1214.5" y="-245.9" font-family="Helvetica,sans-Serif" font-size="12.00">LZ4_putIndexOnHash</text>
</a>
</g>
</g>
<!-- Node7&#45;&gt;Node21 -->
<g id="edge17" class="edge">
<title>Node7&#45;&gt;Node21</title>
<path fill="none" stroke="midnightblue" d="M1111.76,-260.27C1121.15,-259.23 1130.82,-258.16 1140.27,-257.11"/>
<polygon fill="midnightblue" stroke="midnightblue" points="1140.88,-260.57 1150.43,-255.99 1140.11,-253.61 1140.88,-260.57"/>
</g>
<!-- Node22 -->
<g id="node16" class="node">
<title>Node22</title>
<g id="a_node16"><a xlink:href="../../d4/d05/lz4_8c.html#a6efaf92ef3c802858a2246a5a588dcb9" target="_top" xlink:title=" ">
<polygon fill="white" stroke="black" points="1163.5,-198.5 1163.5,-219.5 1265.5,-219.5 1265.5,-198.5 1163.5,-198.5"/>
<text text-anchor="middle" x="1214.5" y="-205.9" font-family="Helvetica,sans-Serif" font-size="12.00">LZ4_putPosition</text>
</a>
</g>
</g>
<!-- Node7&#45;&gt;Node22 -->
<g id="edge18" class="edge">
<title>Node7&#45;&gt;Node22</title>
<path fill="none" stroke="midnightblue" d="M1087.84,-250.97C1106.99,-243.98 1129.51,-235.92 1150,-229 1156.18,-226.91 1162.72,-224.77 1169.16,-222.71"/>
<polygon fill="midnightblue" stroke="midnightblue" points="1170.67,-225.9 1179.14,-219.54 1168.55,-219.23 1170.67,-225.9"/>
</g>
<!-- Node23 -->
<g id="node17" class="node">
<title>Node23</title>
<g id="a_node17"><a xlink:href="../../d4/d05/lz4_8c.html#a0eba3b95eb6fc95a7796c30657417ac1" target="_top" xlink:title=" ">
<polygon fill="white" stroke="black" points="1315.5,-179.5 1315.5,-200.5 1459.5,-200.5 1459.5,-179.5 1315.5,-179.5"/>
<text text-anchor="middle" x="1387.5" y="-186.9" font-family="Helvetica,sans-Serif" font-size="12.00">LZ4_putPositionOnHash</text>
</a>
</g>
</g>
<!-- Node7&#45;&gt;Node23 -->
<g id="edge21" class="edge">
<title>Node7&#45;&gt;Node23</title>
<path fill="none" stroke="midnightblue" d="M1074.29,-250.99C1087.12,-243.66 1101.71,-234.57 1114,-225 1131.85,-211.09 1129.09,-197.66 1150,-189 1207.67,-165.11 1280.25,-169.95 1329.69,-177.82"/>
<polygon fill="midnightblue" stroke="midnightblue" points="1329.13,-181.27 1339.57,-179.48 1330.29,-174.37 1329.13,-181.27"/>
</g>
<!-- Node24 -->
<g id="node18" class="node">
<title>Node24</title>
<g id="a_node18"><a xlink:href="../../d4/d05/lz4_8c.html#a07728e73c2d01917fa46e28357fb6fd1" target="_top" xlink:title=" ">
<polygon fill="white" stroke="black" points="1165.5,-120.5 1165.5,-141.5 1263.5,-141.5 1263.5,-120.5 1165.5,-120.5"/>
<text text-anchor="middle" x="1214.5" y="-127.9" font-family="Helvetica,sans-Serif" font-size="12.00">LZ4_wildCopy8</text>
</a>
</g>
</g>
<!-- Node7&#45;&gt;Node24 -->
<g id="edge23" class="edge">
<title>Node7&#45;&gt;Node24</title>
<path fill="none" stroke="midnightblue" d="M1079.23,-250.94C1091.36,-244.11 1104.2,-235.38 1114,-225 1137.75,-199.85 1124.28,-179.13 1150,-156 1154.35,-152.09 1159.37,-148.76 1164.66,-145.93"/>
<polygon fill="midnightblue" stroke="midnightblue" points="1166.19,-149.08 1173.73,-141.63 1163.19,-142.75 1166.19,-149.08"/>
</g>
<!-- Node25 -->
<g id="node19" class="node">
<title>Node25</title>
<g id="a_node19"><a xlink:href="../../d4/d05/lz4_8c.html#a2e50fa2df2ee7536797308f96806df83" target="_top" xlink:title=" ">
<polygon fill="white" stroke="black" points="1173.5,-80.5 1173.5,-101.5 1255.5,-101.5 1255.5,-80.5 1173.5,-80.5"/>
<text text-anchor="middle" x="1214.5" y="-87.9" font-family="Helvetica,sans-Serif" font-size="12.00">LZ4_write32</text>
</a>
</g>
</g>
<!-- Node7&#45;&gt;Node25 -->
<g id="edge24" class="edge">
<title>Node7&#45;&gt;Node25</title>
<path fill="none" stroke="midnightblue" d="M1082.18,-250.82C1093.8,-244.2 1105.6,-235.62 1114,-225 1146.96,-183.33 1112.42,-148.56 1150,-111 1153.99,-107.02 1158.76,-103.83 1163.87,-101.27"/>
<polygon fill="midnightblue" stroke="midnightblue" points="1165.46,-104.4 1173.34,-97.32 1162.77,-97.94 1165.46,-104.4"/>
</g>
<!-- Node26 -->
<g id="node20" class="node">
<title>Node26</title>
<g id="a_node20"><a xlink:href="../../d4/d05/lz4_8c.html#a3a6a0833a6f5ee0e99c80cbae73ca3a7" target="_top" xlink:title=" ">
<polygon fill="white" stroke="red" points="1166,-40.5 1166,-61.5 1263,-61.5 1263,-40.5 1166,-40.5"/>
<text text-anchor="middle" x="1214.5" y="-47.9" font-family="Helvetica,sans-Serif" font-size="12.00">LZ4_writeLE16</text>
</a>
</g>
</g>
<!-- Node7&#45;&gt;Node26 -->
<g id="edge25" class="edge">
<title>Node7&#45;&gt;Node26</title>
<path fill="none" stroke="midnightblue" d="M1083.06,-250.98C1094.58,-244.41 1106.1,-235.82 1114,-225 1155.47,-168.25 1102.21,-122.54 1150,-71 1152.06,-68.78 1154.37,-66.8 1156.85,-65.04"/>
<polygon fill="midnightblue" stroke="midnightblue" points="1158.93,-67.88 1165.84,-59.86 1155.43,-61.81 1158.93,-67.88"/>
</g>
<!-- Node28 -->
<g id="node21" class="node">
<title>Node28</title>
<g id="a_node21"><a xlink:href="../../d4/de2/wren__compiler_8c.html#af4fe195796c3e700b61d62dafd263295" target="_top" xlink:title=" ">
<polygon fill="white" stroke="red" points="1190.5,-0.5 1190.5,-21.5 1238.5,-21.5 1238.5,-0.5 1190.5,-0.5"/>
<text text-anchor="middle" x="1214.5" y="-7.9" font-family="Helvetica,sans-Serif" font-size="12.00">match</text>
</a>
</g>
</g>
<!-- Node7&#45;&gt;Node28 -->
<g id="edge26" class="edge">
<title>Node7&#45;&gt;Node28</title>
<path fill="none" stroke="midnightblue" d="M1083.74,-250.99C1095.15,-244.45 1106.43,-235.88 1114,-225 1164.09,-153.02 1091.87,-96.66 1150,-31 1157.74,-22.25 1169.27,-17.3 1180.38,-14.5"/>
<polygon fill="midnightblue" stroke="midnightblue" points="1181.24,-17.9 1190.36,-12.49 1179.86,-11.03 1181.24,-17.9"/>
</g>
<!-- Node9&#45;&gt;Node13 -->
<g id="edge9" class="edge">
<title>Node9&#45;&gt;Node13</title>
<path fill="none" stroke="midnightblue" d="M1423.34,-473.76C1442.09,-468.78 1465.53,-462.56 1486.13,-457.1"/>
<polygon fill="midnightblue" stroke="midnightblue" points="1487.22,-460.43 1495.98,-454.48 1485.42,-453.67 1487.22,-460.43"/>
</g>
<!-- Node16&#45;&gt;Node17 -->
<g id="edge12" class="edge">
<title>Node16&#45;&gt;Node17</title>
<path fill="none" stroke="midnightblue" d="M1266.34,-335.92C1282,-338.67 1299.52,-341.74 1316.23,-344.67"/>
<polygon fill="midnightblue" stroke="midnightblue" points="1316.06,-348.2 1326.51,-346.48 1317.27,-341.3 1316.06,-348.2"/>
</g>
<!-- Node16&#45;&gt;Node18 -->
<g id="edge13" class="edge">
<title>Node16&#45;&gt;Node18</title>
<path fill="none" stroke="midnightblue" d="M1266.34,-318.38C1283.79,-315.42 1303.55,-312.07 1321.93,-308.95"/>
<polygon fill="midnightblue" stroke="midnightblue" points="1322.71,-312.37 1331.98,-307.25 1321.54,-305.47 1322.71,-312.37"/>
</g>
<!-- Node18&#45;&gt;Node13 -->
<g id="edge14" class="edge">
<title>Node18&#45;&gt;Node13</title>
<path fill="none" stroke="midnightblue" d="M1414.46,-308.63C1428.89,-315.36 1446.59,-325.05 1460,-337 1488.81,-362.67 1512.61,-401.35 1525.38,-424.49"/>
<polygon fill="midnightblue" stroke="midnightblue" points="1522.34,-426.23 1530.15,-433.37 1528.5,-422.91 1522.34,-426.23"/>
</g>
<!-- Node22&#45;&gt;Node18 -->
<g id="edge19" class="edge">
<title>Node22&#45;&gt;Node18</title>
<path fill="none" stroke="midnightblue" d="M1254.74,-219.56C1262.91,-222.26 1271.36,-225.42 1279,-229 1310.28,-243.65 1343.29,-266.01 1364.35,-281.28"/>
<polygon fill="midnightblue" stroke="midnightblue" points="1362.47,-284.24 1372.6,-287.35 1366.62,-278.6 1362.47,-284.24"/>
</g>
<!-- Node22&#45;&gt;Node23 -->
<g id="edge20" class="edge">
<title>Node22&#45;&gt;Node23</title>
<path fill="none" stroke="midnightblue" d="M1265.88,-203.4C1278.21,-202.03 1291.71,-200.53 1305.08,-199.05"/>
<polygon fill="midnightblue" stroke="midnightblue" points="1305.71,-202.5 1315.26,-197.92 1304.93,-195.54 1305.71,-202.5"/>
</g>
<!-- Node60 -->
<g id="node24" class="node">
<title>Node60</title>
<g id="a_node24"><a xlink:href="../../d4/d05/lz4_8c.html#ac33d4ec2f474813cee3ee86163eba2ef" target="_top" xlink:title=" ">
<polygon fill="white" stroke="black" points="995,-194.5 995,-215.5 1087,-215.5 1087,-194.5 995,-194.5"/>
<text text-anchor="middle" x="1041" y="-201.9" font-family="Helvetica,sans-Serif" font-size="12.00">LZ4_isAligned</text>
</a>
</g>
</g>
<!-- Node59&#45;&gt;Node60 -->
<g id="edge29" class="edge">
<title>Node59&#45;&gt;Node60</title>
<path fill="none" stroke="midnightblue" d="M910.07,-192.56C933.07,-194.76 960.81,-197.42 984.75,-199.71"/>
<polygon fill="midnightblue" stroke="midnightblue" points="984.46,-203.2 994.75,-200.67 985.13,-196.23 984.46,-203.2"/>
</g>
<!-- Node61 -->
<g id="node25" class="node">
<title>Node61</title>
<g id="a_node25"><a xlink:href="../../d4/d05/lz4_8c.html#adc972484e4b4a228506ba1a99f18661a" target="_top" xlink:title=" ">
<polygon fill="white" stroke="black" points="968,-154.5 968,-175.5 1114,-175.5 1114,-154.5 968,-154.5"/>
<text text-anchor="middle" x="1041" y="-161.9" font-family="Helvetica,sans-Serif" font-size="12.00">LZ4_stream_t_alignment</text>
</a>
</g>
</g>
<!-- Node59&#45;&gt;Node61 -->
<g id="edge30" class="edge">
<title>Node59&#45;&gt;Node61</title>
<path fill="none" stroke="midnightblue" d="M910.07,-181.84C924.78,-179.93 941.43,-177.77 957.79,-175.65"/>
<polygon fill="midnightblue" stroke="midnightblue" points="958.44,-179.1 967.91,-174.34 957.54,-172.16 958.44,-179.1"/>
</g>
<!-- Node63&#45;&gt;Node3 -->
<g id="edge33" class="edge">
<title>Node63&#45;&gt;Node3</title>
<path fill="none" stroke="midnightblue" d="M347.21,-278.59C355.56,-278.55 364.08,-278.5 372.53,-278.46"/>
<polygon fill="midnightblue" stroke="midnightblue" points="372.8,-281.96 382.78,-278.41 372.77,-274.96 372.8,-281.96"/>
</g>
</g>
</svg>
        <g id="navigator" transform="translate(0 0)" fill="#404254">
                <rect fill="#f2f5e9" fill-opacity="0.5" stroke="#606060" stroke-width=".5" x="0" y="0" width="60" height="60"/>
                <use id="zoomplus" xlink:href="#zoomPlus" x="17" y="9" onmousedown="handleZoom(evt,'in')"/>
                <use id="zoomminus" xlink:href="#zoomMin" x="42" y="9" onmousedown="handleZoom(evt,'out')"/>
                <use id="reset" xlink:href="#resetDef" x="30" y="36" onmousedown="handleReset()"/>
                <g id="arrowUp" xlink:href="#dirArrow" transform="translate(30 24)" onmousedown="handlePan(0,-1)">
                  <use xlink:href="#rim" fill="#404040">
                        <set attributeName="fill" to="#808080" begin="arrowUp.mouseover" end="arrowUp.mouseout"/>
                  </use>
                  <path fill="none" stroke="white" stroke-width="1.5" d="M0,-3.0v7 M-2.5,-0.5L0,-3.0L2.5,-0.5"/>
                </g>
                <g id="arrowRight" xlink:href="#dirArrow" transform="rotate(90) translate(36 -43)" onmousedown="handlePan(1,0)">
                  <use xlink:href="#rim" fill="#404040">
                        <set attributeName="fill" to="#808080" begin="arrowRight.mouseover" end="arrowRight.mouseout"/>
                  </use>
                  <path fill="none" stroke="white" stroke-width="1.5" d="M0,-3.0v7 M-2.5,-0.5L0,-3.0L2.5,-0.5"/>
                </g>
                <g id="arrowDown" xlink:href="#dirArrow" transform="rotate(180) translate(-30 -48)" onmousedown="handlePan(0,1)">
                  <use xlink:href="#rim" fill="#404040">
                        <set attributeName="fill" to="#808080" begin="arrowDown.mouseover" end="arrowDown.mouseout"/>
                  </use>
                  <path fill="none" stroke="white" stroke-width="1.5" d="M0,-3.0v7 M-2.5,-0.5L0,-3.0L2.5,-0.5"/>
                </g>
                <g id="arrowLeft" xlink:href="#dirArrow" transform="rotate(270) translate(-36 17)" onmousedown="handlePan(-1,0)">
                  <use xlink:href="#rim" fill="#404040">
                        <set attributeName="fill" to="#808080" begin="arrowLeft.mouseover" end="arrowLeft.mouseout"/>
                  </use>
                  <path fill="none" stroke="white" stroke-width="1.5" d="M0,-3.0v7 M-2.5,-0.5L0,-3.0L2.5,-0.5"/>
                </g>
        </g>
        <svg viewBox="0 0 15 15" width="100%" height="30px" preserveAspectRatio="xMaxYMin meet">
         <g id="arrow_out" transform="scale(0.3 0.3)">
          <a xlink:href="class_audio_director_a154eaf3ab4ea4fa754fc35e0687f4c1b_cgraph_org.svg" target="_base">
           <rect id="button" ry="5" rx="5" y="6" x="6" height="38" width="38"
                fill="#f2f5e9" fill-opacity="0.5" stroke="#606060" stroke-width="1.0"/>
           <path id="arrow"
             d="M 11.500037,31.436501 C 11.940474,20.09759 22.043105,11.32322 32.158766,21.979434 L 37.068811,17.246167 C 37.068811,17.246167 37.088388,32 37.088388,32 L 22.160133,31.978069 C 22.160133,31.978069 26.997745,27.140456 26.997745,27.140456 C 18.528582,18.264221 13.291696,25.230495 11.500037,31.436501 z"
             style="fill:#404040;"/>
          </a>
         </g>
        </svg>
</svg>
