<?xml version="1.0" encoding="UTF-8" standalone="no"?>
<!DOCTYPE svg PUBLIC "-//W3C//DTD SVG 1.1//EN"
 "http://www.w3.org/Graphics/SVG/1.1/DTD/svg11.dtd">
<!-- Generated by graphviz version 2.47.3 (20210619.1520)
 -->
<!-- Title: AudioDirector::AudioDirector Pages: 1 -->
<svg width="456pt" height="110pt"
 viewBox="0.00 0.00 456.00 110.00" xmlns="http://www.w3.org/2000/svg" xmlns:xlink="http://www.w3.org/1999/xlink">
<g id="graph0" class="graph" transform="scale(1 1) rotate(0) translate(4 106)">
<title>AudioDirector::AudioDirector</title>
<!-- Node1 -->
<g id="node1" class="node">
<title>Node1</title>
<g id="a_node1"><a xlink:title=" ">
<polygon fill="#bfbfbf" stroke="black" points="0,-40.5 0,-61.5 168,-61.5 168,-40.5 0,-40.5"/>
<text text-anchor="middle" x="84" y="-47.9" font-family="Helvetica,sans-Serif" font-size="12.00">AudioDirector::AudioDirector</text>
</a>
</g>
</g>
<!-- Node2 -->
<g id="node2" class="node">
<title>Node2</title>
<g id="a_node2"><a xlink:href="../../d8/d1c/class_audio_director_aad97af621b2072f1246526f2afb0e0ff.html#aad97af621b2072f1246526f2afb0e0ff" target="_top" xlink:title=" ">
<polygon fill="none" stroke="black" points="224.5,-80.5 224.5,-101.5 427.5,-101.5 427.5,-80.5 224.5,-80.5"/>
<text text-anchor="middle" x="326" y="-87.9" font-family="Helvetica,sans-Serif" font-size="12.00">AudioDirector::addAudioStreamObj</text>
</a>
</g>
</g>
<!-- Node1&#45;&gt;Node2 -->
<g id="edge1" class="edge">
<title>Node1&#45;&gt;Node2</title>
<path fill="none" stroke="midnightblue" d="M147.37,-61.52C165.62,-64.58 185.61,-67.93 204,-71 219.25,-73.54 235.58,-76.25 251.15,-78.83"/>
<polygon fill="midnightblue" stroke="midnightblue" points="250.82,-82.32 261.26,-80.5 251.96,-75.41 250.82,-82.32"/>
</g>
<!-- Node3 -->
<g id="node3" class="node">
<title>Node3</title>
<g id="a_node3"><a xlink:href="../../d8/d1c/class_audio_director_a1da47d92a4ceddb2844cf690e395caff.html#a1da47d92a4ceddb2844cf690e395caff" target="_top" xlink:title=" ">
<polygon fill="none" stroke="black" points="221.5,-40.5 221.5,-61.5 430.5,-61.5 430.5,-40.5 221.5,-40.5"/>
<text text-anchor="middle" x="326" y="-47.9" font-family="Helvetica,sans-Serif" font-size="12.00">AudioDirector::generateCategoryList</text>
</a>
</g>
</g>
<!-- Node1&#45;&gt;Node3 -->
<g id="edge2" class="edge">
<title>Node1&#45;&gt;Node3</title>
<path fill="none" stroke="midnightblue" d="M168.27,-51C181.99,-51 196.43,-51 210.76,-51"/>
<polygon fill="midnightblue" stroke="midnightblue" points="211.16,-54.5 221.16,-51 211.16,-47.5 211.16,-54.5"/>
</g>
<!-- Node4 -->
<g id="node4" class="node">
<title>Node4</title>
<g id="a_node4"><a xlink:href="../../d8/d1c/class_audio_director_a578f1deac0695f2db3ba245aaedc62df.html#a578f1deac0695f2db3ba245aaedc62df" target="_top" xlink:title=" ">
<polygon fill="none" stroke="black" points="204,-0.5 204,-21.5 448,-21.5 448,-0.5 204,-0.5"/>
<text text-anchor="middle" x="326" y="-7.9" font-family="Helvetica,sans-Serif" font-size="12.00">AudioDirector::getAudioStreamObjByName</text>
</a>
</g>
</g>
<!-- Node1&#45;&gt;Node4 -->
<g id="edge3" class="edge">
<title>Node1&#45;&gt;Node4</title>
<path fill="none" stroke="midnightblue" d="M147.37,-40.48C165.62,-37.42 185.61,-34.07 204,-31 219.25,-28.46 235.58,-25.75 251.15,-23.17"/>
<polygon fill="midnightblue" stroke="midnightblue" points="251.96,-26.59 261.26,-21.5 250.82,-19.68 251.96,-26.59"/>
</g>
</g>
</svg>
