<?xml version="1.0" encoding="UTF-8" standalone="no"?>
<!DOCTYPE svg PUBLIC "-//W3C//DTD SVG 1.1//EN"
 "http://www.w3.org/Graphics/SVG/1.1/DTD/svg11.dtd">
<!-- Generated by graphviz version 2.47.3 (20210619.1520)
 -->
<!-- Title: AudioDirector::AudioDirector Pages: 1 -->
<svg width="649pt" height="131pt"
 viewBox="0.00 0.00 649.00 131.00" xmlns="http://www.w3.org/2000/svg" xmlns:xlink="http://www.w3.org/1999/xlink">
<g id="graph0" class="graph" transform="scale(1 1) rotate(0) translate(4 127)">
<title>AudioDirector::AudioDirector</title>
<!-- Node1 -->
<g id="node1" class="node">
<title>Node1</title>
<g id="a_node1"><a xlink:title=" ">
<polygon fill="#bfbfbf" stroke="black" points="0,-47.5 0,-75.5 243,-75.5 243,-47.5 0,-47.5"/>
<text text-anchor="middle" x="121.5" y="-57.1" font-family="Helvetica,sans-Serif" font-size="18.00">AudioDirector::AudioDirector</text>
</a>
</g>
</g>
<!-- Node2 -->
<g id="node2" class="node">
<title>Node2</title>
<g id="a_node2"><a xlink:href="../../d8/d1c/class_audio_director_aad97af621b2072f1246526f2afb0e0ff.html#aad97af621b2072f1246526f2afb0e0ff" target="_top" xlink:title=" ">
<polygon fill="none" stroke="black" points="310.5,-94.5 310.5,-122.5 609.5,-122.5 609.5,-94.5 310.5,-94.5"/>
<text text-anchor="middle" x="460" y="-104.1" font-family="Helvetica,sans-Serif" font-size="18.00">AudioDirector::addAudioStreamObj</text>
</a>
</g>
</g>
<!-- Node1&#45;&gt;Node2 -->
<g id="edge1" class="edge">
<title>Node1&#45;&gt;Node2</title>
<path fill="none" stroke="midnightblue" d="M211.41,-75.53C233.48,-78.9 257.09,-82.42 279,-85.5 297.25,-88.06 316.55,-90.66 335.48,-93.13"/>
<polygon fill="midnightblue" stroke="midnightblue" points="335.27,-96.64 345.64,-94.45 336.17,-89.69 335.27,-96.64"/>
</g>
<!-- Node3 -->
<g id="node3" class="node">
<title>Node3</title>
<g id="a_node3"><a xlink:href="../../d8/d1c/class_audio_director_a1da47d92a4ceddb2844cf690e395caff.html#a1da47d92a4ceddb2844cf690e395caff" target="_top" xlink:title=" ">
<polygon fill="none" stroke="black" points="306.5,-47.5 306.5,-75.5 613.5,-75.5 613.5,-47.5 306.5,-47.5"/>
<text text-anchor="middle" x="460" y="-57.1" font-family="Helvetica,sans-Serif" font-size="18.00">AudioDirector::generateCategoryList</text>
</a>
</g>
</g>
<!-- Node1&#45;&gt;Node3 -->
<g id="edge2" class="edge">
<title>Node1&#45;&gt;Node3</title>
<path fill="none" stroke="midnightblue" d="M243.03,-61.5C260.22,-61.5 278.12,-61.5 295.95,-61.5"/>
<polygon fill="midnightblue" stroke="midnightblue" points="296.44,-65 306.44,-61.5 296.44,-58 296.44,-65"/>
</g>
<!-- Node4 -->
<g id="node4" class="node">
<title>Node4</title>
<g id="a_node4"><a xlink:href="../../d8/d1c/class_audio_director_a578f1deac0695f2db3ba245aaedc62df.html#a578f1deac0695f2db3ba245aaedc62df" target="_top" xlink:title=" ">
<polygon fill="none" stroke="black" points="279,-0.5 279,-28.5 641,-28.5 641,-0.5 279,-0.5"/>
<text text-anchor="middle" x="460" y="-10.1" font-family="Helvetica,sans-Serif" font-size="18.00">AudioDirector::getAudioStreamObjByName</text>
</a>
</g>
</g>
<!-- Node1&#45;&gt;Node4 -->
<g id="edge3" class="edge">
<title>Node1&#45;&gt;Node4</title>
<path fill="none" stroke="midnightblue" d="M216.4,-47.49C237.02,-44.47 258.74,-41.34 279,-38.5 299.26,-35.66 320.81,-32.72 341.7,-29.91"/>
<polygon fill="midnightblue" stroke="midnightblue" points="342.44,-33.34 351.89,-28.54 341.51,-26.4 342.44,-33.34"/>
</g>
</g>
</svg>
