<?xml version="1.0" encoding="UTF-8" standalone="no"?>
<!DOCTYPE svg PUBLIC "-//W3C//DTD SVG 1.1//EN"
 "http://www.w3.org/Graphics/SVG/1.1/DTD/svg11.dtd">
<!-- Generated by graphviz version 2.47.3 (20210619.1520)
 -->
<!-- Title: AppBaseClass::selfRegister Pages: 1 -->
<!--zoomable 366 -->
<svg id="main" version="1.1" xmlns="http://www.w3.org/2000/svg" xmlns:xlink="http://www.w3.org/1999/xlink" xml:space="preserve" onload="init(evt)">
<style type="text/css"><![CDATA[
.edge:hover path { stroke: red; }
.edge:hover polygon { stroke: red; fill: red; }
]]></style>
<script type="text/javascript"><![CDATA[
var edges = document.getElementsByTagName('g');
if (edges && edges.length) {
  for (var i=0;i<edges.length;i++) {
    if (edges[i].id.substr(0,4)=='edge') {
      edges[i].setAttribute('class','edge');
    }
  }
}
]]></script>
        <defs>
                <circle id="rim" cx="0" cy="0" r="7"/>
                <circle id="rim2" cx="0" cy="0" r="3.5"/>
                <g id="zoomPlus">
                        <use xlink:href="#rim" fill="#404040">
                                <set attributeName="fill" to="#808080" begin="zoomplus.mouseover" end="zoomplus.mouseout"/>
                        </use>
                        <path d="M-4,0h8M0,-4v8" fill="none" stroke="white" stroke-width="1.5" pointer-events="none"/>
                </g>
                <g id="zoomMin">
                        <use xlink:href="#rim" fill="#404040">
                                <set attributeName="fill" to="#808080" begin="zoomminus.mouseover" end="zoomminus.mouseout"/>
                        </use>
                        <path d="M-4,0h8" fill="none" stroke="white" stroke-width="1.5" pointer-events="none"/>
                </g>
                <g id="dirArrow">
                        <path fill="none" stroke="white" stroke-width="1.5" d="M0,-3.0v7 M-2.5,-0.5L0,-3.0L2.5,-0.5"/>
                </g>
               <g id="resetDef">
                       <use xlink:href="#rim2" fill="#404040">
                               <set attributeName="fill" to="#808080" begin="reset.mouseover" end="reset.mouseout"/>
                       </use>
               </g>
        </defs>

<script type="text/javascript">
var viewWidth = 1067;
var viewHeight = 366;
var sectionId = 'dynsection-0';
</script>
<script xlink:href="../../svgpan.js"/>
<svg id="graph" class="graph">
<g id="viewport">
<title>AppBaseClass::selfRegister</title>
<!-- Node1 -->
<g id="node1" class="node">
<title>Node1</title>
<g id="a_node1"><a xlink:title=" ">
<polygon fill="#bfbfbf" stroke="black" points="0,-211.5 0,-239.5 240,-239.5 240,-211.5 0,-211.5"/>
<text text-anchor="middle" x="120" y="-221.1" font-family="Helvetica,sans-Serif" font-size="18.00">AppBaseClass::selfRegister</text>
</a>
</g>
</g>
<!-- Node2 -->
<g id="node2" class="node">
<title>Node2</title>
<g id="a_node2"><a xlink:href="../../da/d96/class_app_manager_aa76d9691e8d029656413590fbe4dee86.html#aa76d9691e8d029656413590fbe4dee86" target="_top" xlink:title=" ">
<polygon fill="none" stroke="black" points="276,-190.5 276,-218.5 500,-218.5 500,-190.5 276,-190.5"/>
<text text-anchor="middle" x="388" y="-200.1" font-family="Helvetica,sans-Serif" font-size="18.00">AppManager::getInstance</text>
</a>
</g>
</g>
<!-- Node1&#45;&gt;Node2 -->
<g id="edge1" class="edge">
<title>Node1&#45;&gt;Node2</title>
<path fill="none" stroke="midnightblue" d="M240.38,-216.07C248.73,-215.42 257.15,-214.75 265.51,-214.09"/>
<polygon fill="midnightblue" stroke="midnightblue" points="265.97,-217.57 275.66,-213.29 265.42,-210.59 265.97,-217.57"/>
</g>
<!-- Node12 -->
<g id="node12" class="node">
<title>Node12</title>
<g id="a_node12"><a xlink:href="../../da/d96/class_app_manager_a080b2a5362ee0f49033786da9f942b17.html#a080b2a5362ee0f49033786da9f942b17" target="_top" xlink:title="provides an interface for apps to register themselves with the AppManager">
<polygon fill="none" stroke="black" points="541.5,-282.5 541.5,-310.5 763.5,-310.5 763.5,-282.5 541.5,-282.5"/>
<text text-anchor="middle" x="652.5" y="-292.1" font-family="Helvetica,sans-Serif" font-size="18.00">AppManager::registerApp</text>
</a>
</g>
</g>
<!-- Node1&#45;&gt;Node12 -->
<g id="edge11" class="edge">
<title>Node1&#45;&gt;Node12</title>
<path fill="none" stroke="midnightblue" d="M225.81,-239.53C315.4,-251.52 444.1,-268.74 536.5,-281.11"/>
<polygon fill="midnightblue" stroke="midnightblue" points="536.08,-284.58 546.46,-282.44 537.01,-277.65 536.08,-284.58"/>
</g>
<!-- Node3 -->
<g id="node3" class="node">
<title>Node3</title>
<g id="a_node3"><a xlink:href="../../da/d96/class_app_manager_a6221fc1ede71f2ac539c052bbe0c7f6a.html#a6221fc1ede71f2ac539c052bbe0c7f6a" target="_top" xlink:title="Construct a new App Manager:: App Manager object using a private constuctor (lazy singleton pattern)">
<polygon fill="none" stroke="black" points="536,-188.5 536,-216.5 769,-216.5 769,-188.5 536,-188.5"/>
<text text-anchor="middle" x="652.5" y="-198.1" font-family="Helvetica,sans-Serif" font-size="18.00">AppManager::AppManager</text>
</a>
</g>
</g>
<!-- Node2&#45;&gt;Node3 -->
<g id="edge2" class="edge">
<title>Node2&#45;&gt;Node3</title>
<path fill="none" stroke="midnightblue" d="M500.32,-203.65C508.67,-203.59 517.12,-203.52 525.55,-203.46"/>
<polygon fill="midnightblue" stroke="midnightblue" points="525.83,-206.96 535.8,-203.38 525.78,-199.96 525.83,-206.96"/>
</g>
<!-- Node4 -->
<g id="node4" class="node">
<title>Node4</title>
<g id="a_node4"><a xlink:href="../../d8/d5a/class_i_l_i9341__t3___e_r_i_s_a8c8c09d5ca51d5b4c611875df643bef6.html#a8c8c09d5ca51d5b4c611875df643bef6" target="_top" xlink:title=" ">
<polygon fill="none" stroke="black" points="829,-282.5 829,-310.5 1035,-310.5 1035,-282.5 829,-282.5"/>
<text text-anchor="middle" x="932" y="-292.1" font-family="Helvetica,sans-Serif" font-size="18.00">ILI9341_t3_ERIS::begin</text>
</a>
</g>
</g>
<!-- Node3&#45;&gt;Node4 -->
<g id="edge3" class="edge">
<title>Node3&#45;&gt;Node4</title>
<path fill="none" stroke="midnightblue" d="M678.42,-216.63C707.8,-232.71 758.52,-258.64 805,-273.5 812.6,-275.93 820.55,-278.13 828.6,-280.12"/>
<polygon fill="midnightblue" stroke="midnightblue" points="827.92,-283.55 838.45,-282.44 829.52,-276.74 827.92,-283.55"/>
</g>
<!-- Node5 -->
<g id="node5" class="node">
<title>Node5</title>
<g id="a_node5"><a xlink:href="../../d1/dff/class_touch_a057f1914b96362769a5384dbbfdb4195.html#a057f1914b96362769a5384dbbfdb4195" target="_top" xlink:title=" ">
<polygon fill="none" stroke="black" points="871,-235.5 871,-263.5 993,-263.5 993,-235.5 871,-235.5"/>
<text text-anchor="middle" x="932" y="-245.1" font-family="Helvetica,sans-Serif" font-size="18.00">Touch::begin</text>
</a>
</g>
</g>
<!-- Node3&#45;&gt;Node5 -->
<g id="edge4" class="edge">
<title>Node3&#45;&gt;Node5</title>
<path fill="none" stroke="midnightblue" d="M736.38,-216.54C775.97,-223.24 822.83,-231.18 860.65,-237.59"/>
<polygon fill="midnightblue" stroke="midnightblue" points="860.12,-241.05 870.57,-239.26 861.29,-234.14 860.12,-241.05"/>
</g>
<!-- Node6 -->
<g id="node6" class="node">
<title>Node6</title>
<g id="a_node6"><a xlink:href="../../dc/d40/_app_manager_8cpp_a5db3dd95011fd6a678ae291290091314.html#a5db3dd95011fd6a678ae291290091314" target="_top" xlink:title=" ">
<polygon fill="none" stroke="black" points="904,-329.5 904,-357.5 960,-357.5 960,-329.5 904,-329.5"/>
<text text-anchor="middle" x="932" y="-339.1" font-family="Helvetica,sans-Serif" font-size="18.00">draw</text>
</a>
</g>
</g>
<!-- Node3&#45;&gt;Node6 -->
<g id="edge5" class="edge">
<title>Node3&#45;&gt;Node6</title>
<path fill="none" stroke="midnightblue" d="M682.54,-216.52C707.17,-229.26 742.61,-249.69 769,-273.5 788.53,-291.13 782.55,-306.77 805,-320.5 831.8,-336.89 867.38,-342.19 893.9,-343.66"/>
<polygon fill="midnightblue" stroke="midnightblue" points="893.81,-347.16 903.94,-344.05 894.08,-340.16 893.81,-347.16"/>
</g>
<!-- Node7 -->
<g id="node7" class="node">
<title>Node7</title>
<g id="a_node7"><a xlink:href="../../d1/dff/class_touch_a61a5d056f07ab08cb5924fa573dc3497.html#a61a5d056f07ab08cb5924fa573dc3497" target="_top" xlink:title=" ">
<polygon fill="none" stroke="black" points="813,-188.5 813,-216.5 1051,-216.5 1051,-188.5 813,-188.5"/>
<text text-anchor="middle" x="932" y="-198.1" font-family="Helvetica,sans-Serif" font-size="18.00">Touch::setCalibrationInputs</text>
</a>
</g>
</g>
<!-- Node3&#45;&gt;Node7 -->
<g id="edge6" class="edge">
<title>Node3&#45;&gt;Node7</title>
<path fill="none" stroke="midnightblue" d="M769.18,-202.5C780.22,-202.5 791.47,-202.5 802.62,-202.5"/>
<polygon fill="midnightblue" stroke="midnightblue" points="802.83,-206 812.83,-202.5 802.83,-199 802.83,-206"/>
</g>
<!-- Node8 -->
<g id="node8" class="node">
<title>Node8</title>
<g id="a_node8"><a xlink:href="../../d4/d7c/class_animation_a997d1203ae9418f121f355a5bd0700f0.html#a997d1203ae9418f121f355a5bd0700f0" target="_top" xlink:title=" ">
<polygon fill="none" stroke="black" points="848,-141.5 848,-169.5 1016,-169.5 1016,-141.5 848,-141.5"/>
<text text-anchor="middle" x="932" y="-151.1" font-family="Helvetica,sans-Serif" font-size="18.00">Animation::setPath</text>
</a>
</g>
</g>
<!-- Node3&#45;&gt;Node8 -->
<g id="edge7" class="edge">
<title>Node3&#45;&gt;Node8</title>
<path fill="none" stroke="midnightblue" d="M736.38,-188.46C768.37,-183.04 805.11,-176.82 837.99,-171.25"/>
<polygon fill="midnightblue" stroke="midnightblue" points="838.79,-174.67 848.06,-169.55 837.62,-167.77 838.79,-174.67"/>
</g>
<!-- Node9 -->
<g id="node9" class="node">
<title>Node9</title>
<g id="a_node9"><a xlink:href="../../d8/d5a/class_i_l_i9341__t3___e_r_i_s_a33f0105b1eecc4c37195900fcf0d5fd8.html#a33f0105b1eecc4c37195900fcf0d5fd8" target="_top" xlink:title=" ">
<polygon fill="none" stroke="black" points="805,-94.5 805,-122.5 1059,-122.5 1059,-94.5 805,-94.5"/>
<text text-anchor="middle" x="932" y="-104.1" font-family="Helvetica,sans-Serif" font-size="18.00">ILI9341_t3_ERIS::setPWMPin</text>
</a>
</g>
</g>
<!-- Node3&#45;&gt;Node9 -->
<g id="edge8" class="edge">
<title>Node3&#45;&gt;Node9</title>
<path fill="none" stroke="midnightblue" d="M678.42,-188.37C707.8,-172.29 758.52,-146.36 805,-131.5 812.6,-129.07 820.55,-126.87 828.6,-124.88"/>
<polygon fill="midnightblue" stroke="midnightblue" points="829.52,-128.26 838.45,-122.56 827.92,-121.45 829.52,-128.26"/>
</g>
<!-- Node10 -->
<g id="node10" class="node">
<title>Node10</title>
<g id="a_node10"><a xlink:href="../../d4/d7c/class_animation_ab5af4d2f56dce439c18ba9c4655f98f0.html#ab5af4d2f56dce439c18ba9c4655f98f0" target="_top" xlink:title=" ">
<polygon fill="none" stroke="black" points="854.5,-47.5 854.5,-75.5 1009.5,-75.5 1009.5,-47.5 854.5,-47.5"/>
<text text-anchor="middle" x="932" y="-57.1" font-family="Helvetica,sans-Serif" font-size="18.00">Animation::setSD</text>
</a>
</g>
</g>
<!-- Node3&#45;&gt;Node10 -->
<g id="edge9" class="edge">
<title>Node3&#45;&gt;Node10</title>
<path fill="none" stroke="midnightblue" d="M666.99,-188.18C691.74,-162.85 747.19,-110.4 805,-84.5 817.33,-78.98 830.9,-74.78 844.44,-71.59"/>
<polygon fill="midnightblue" stroke="midnightblue" points="845.24,-75 854.26,-69.44 843.75,-68.16 845.24,-75"/>
</g>
<!-- Node11 -->
<g id="node11" class="node">
<title>Node11</title>
<g id="a_node11"><a xlink:href="../../d8/d5a/class_i_l_i9341__t3___e_r_i_s_a2bfdbf675a570c74b787fd222185f25f.html#a2bfdbf675a570c74b787fd222185f25f" target="_top" xlink:title=" ">
<polygon fill="none" stroke="black" points="827.5,-0.5 827.5,-28.5 1036.5,-28.5 1036.5,-0.5 827.5,-0.5"/>
<text text-anchor="middle" x="932" y="-10.1" font-family="Helvetica,sans-Serif" font-size="18.00">ILI9341_t3_ERIS::setSD</text>
</a>
</g>
</g>
<!-- Node3&#45;&gt;Node11 -->
<g id="edge10" class="edge">
<title>Node3&#45;&gt;Node11</title>
<path fill="none" stroke="midnightblue" d="M662,-188.15C682.2,-155.45 736.56,-75.27 805,-37.5 809.05,-35.26 813.28,-33.24 817.62,-31.41"/>
<polygon fill="midnightblue" stroke="midnightblue" points="819.22,-34.54 827.3,-27.69 816.71,-28.01 819.22,-34.54"/>
</g>
<!-- Node12&#45;&gt;Node6 -->
<g id="edge12" class="edge">
<title>Node12&#45;&gt;Node6</title>
<path fill="none" stroke="midnightblue" d="M736.38,-310.54C788.72,-319.4 853.79,-330.42 893.85,-337.21"/>
<polygon fill="midnightblue" stroke="midnightblue" points="893.52,-340.7 903.97,-338.92 894.69,-333.8 893.52,-340.7"/>
</g>
</g>
</svg>
        <g id="navigator" transform="translate(0 0)" fill="#404254">
                <rect fill="#f2f5e9" fill-opacity="0.5" stroke="#606060" stroke-width=".5" x="0" y="0" width="60" height="60"/>
                <use id="zoomplus" xlink:href="#zoomPlus" x="17" y="9" onmousedown="handleZoom(evt,'in')"/>
                <use id="zoomminus" xlink:href="#zoomMin" x="42" y="9" onmousedown="handleZoom(evt,'out')"/>
                <use id="reset" xlink:href="#resetDef" x="30" y="36" onmousedown="handleReset()"/>
                <g id="arrowUp" xlink:href="#dirArrow" transform="translate(30 24)" onmousedown="handlePan(0,-1)">
                  <use xlink:href="#rim" fill="#404040">
                        <set attributeName="fill" to="#808080" begin="arrowUp.mouseover" end="arrowUp.mouseout"/>
                  </use>
                  <path fill="none" stroke="white" stroke-width="1.5" d="M0,-3.0v7 M-2.5,-0.5L0,-3.0L2.5,-0.5"/>
                </g>
                <g id="arrowRight" xlink:href="#dirArrow" transform="rotate(90) translate(36 -43)" onmousedown="handlePan(1,0)">
                  <use xlink:href="#rim" fill="#404040">
                        <set attributeName="fill" to="#808080" begin="arrowRight.mouseover" end="arrowRight.mouseout"/>
                  </use>
                  <path fill="none" stroke="white" stroke-width="1.5" d="M0,-3.0v7 M-2.5,-0.5L0,-3.0L2.5,-0.5"/>
                </g>
                <g id="arrowDown" xlink:href="#dirArrow" transform="rotate(180) translate(-30 -48)" onmousedown="handlePan(0,1)">
                  <use xlink:href="#rim" fill="#404040">
                        <set attributeName="fill" to="#808080" begin="arrowDown.mouseover" end="arrowDown.mouseout"/>
                  </use>
                  <path fill="none" stroke="white" stroke-width="1.5" d="M0,-3.0v7 M-2.5,-0.5L0,-3.0L2.5,-0.5"/>
                </g>
                <g id="arrowLeft" xlink:href="#dirArrow" transform="rotate(270) translate(-36 17)" onmousedown="handlePan(-1,0)">
                  <use xlink:href="#rim" fill="#404040">
                        <set attributeName="fill" to="#808080" begin="arrowLeft.mouseover" end="arrowLeft.mouseout"/>
                  </use>
                  <path fill="none" stroke="white" stroke-width="1.5" d="M0,-3.0v7 M-2.5,-0.5L0,-3.0L2.5,-0.5"/>
                </g>
        </g>
        <svg viewBox="0 0 15 15" width="100%" height="30px" preserveAspectRatio="xMaxYMin meet">
         <g id="arrow_out" transform="scale(0.3 0.3)">
          <a xlink:href="class_app_base_class_a932d7b1d01e2809a7d844daceba8f52f_a932d7b1d01e2809a7d844daceba8f52f_cgraph_org.svg" target="_base">
           <rect id="button" ry="5" rx="5" y="6" x="6" height="38" width="38"
                fill="#f2f5e9" fill-opacity="0.5" stroke="#606060" stroke-width="1.0"/>
           <path id="arrow"
             d="M 11.500037,31.436501 C 11.940474,20.09759 22.043105,11.32322 32.158766,21.979434 L 37.068811,17.246167 C 37.068811,17.246167 37.088388,32 37.088388,32 L 22.160133,31.978069 C 22.160133,31.978069 26.997745,27.140456 26.997745,27.140456 C 18.528582,18.264221 13.291696,25.230495 11.500037,31.436501 z"
             style="fill:#404040;"/>
          </a>
         </g>
        </svg>
</svg>
