<?xml version="1.0" encoding="UTF-8" standalone="no"?>
<!DOCTYPE svg PUBLIC "-//W3C//DTD SVG 1.1//EN"
 "http://www.w3.org/Graphics/SVG/1.1/DTD/svg11.dtd">
<!-- Generated by graphviz version 2.47.3 (20210619.1520)
 -->
<!-- Title: AppBaseClass::setName Pages: 1 -->
<svg width="515pt" height="43pt"
 viewBox="0.00 0.00 515.00 43.00" xmlns="http://www.w3.org/2000/svg" xmlns:xlink="http://www.w3.org/1999/xlink">
<g id="graph0" class="graph" transform="scale(1 1) rotate(0) translate(4 39)">
<title>AppBaseClass::setName</title>
<polygon fill="white" stroke="transparent" points="-4,4 -4,-39 511,-39 511,4 -4,4"/>
<!-- Node1 -->
<g id="node1" class="node">
<title>Node1</title>
<g id="a_node1"><a xlink:title=" ">
<polygon fill="#bfbfbf" stroke="black" points="358,-7 358,-28 507,-28 507,-7 358,-7"/>
<text text-anchor="middle" x="432.5" y="-14.4" font-family="Helvetica,sans-Serif" font-size="12.00">AppBaseClass::setName</text>
</a>
</g>
</g>
<!-- Node2 -->
<g id="node2" class="node">
<title>Node2</title>
<g id="a_node2"><a xlink:href="../../dc/d27/class_app_audio_to_polyphonic.html#a06d55d9434f72fac7f7d7d4928faf5f6" target="_top" xlink:title=" ">
<polygon fill="white" stroke="black" points="182,-0.5 182,-34.5 322,-34.5 322,-0.5 182,-0.5"/>
<text text-anchor="start" x="190" y="-20.9" font-family="Helvetica,sans-Serif" font-size="12.00">AppAudioToPolyphonic</text>
<text text-anchor="middle" x="252" y="-7.9" font-family="Helvetica,sans-Serif" font-size="12.00">::initMyAppExample</text>
</a>
</g>
</g>
<!-- Node1&#45;&gt;Node2 -->
<g id="edge1" class="edge">
<title>Node1&#45;&gt;Node2</title>
<path fill="none" stroke="midnightblue" d="M347.83,-17.5C339.24,-17.5 330.57,-17.5 322.16,-17.5"/>
<polygon fill="midnightblue" stroke="midnightblue" points="347.87,-21 357.87,-17.5 347.87,-14 347.87,-21"/>
</g>
<!-- Node3 -->
<g id="node3" class="node">
<title>Node3</title>
<g id="a_node3"><a xlink:href="../../dc/d27/class_app_audio_to_polyphonic.html#a3f4679d883227d6293effc4eed5cea06" target="_top" xlink:title=" ">
<polygon fill="white" stroke="black" points="0,-0.5 0,-34.5 146,-34.5 146,-0.5 0,-0.5"/>
<text text-anchor="start" x="8" y="-20.9" font-family="Helvetica,sans-Serif" font-size="12.00">AppAudioToPolyphonic</text>
<text text-anchor="middle" x="73" y="-7.9" font-family="Helvetica,sans-Serif" font-size="12.00">::AppAudioToPolyphonic</text>
</a>
</g>
</g>
<!-- Node2&#45;&gt;Node3 -->
<g id="edge2" class="edge">
<title>Node2&#45;&gt;Node3</title>
<path fill="none" stroke="midnightblue" d="M171.53,-17.5C163.05,-17.5 154.45,-17.5 146.06,-17.5"/>
<polygon fill="midnightblue" stroke="midnightblue" points="171.81,-21 181.81,-17.5 171.81,-14 171.81,-21"/>
</g>
</g>
</svg>
