<?xml version="1.0" encoding="UTF-8" standalone="no"?>
<!DOCTYPE svg PUBLIC "-//W3C//DTD SVG 1.1//EN"
 "http://www.w3.org/Graphics/SVG/1.1/DTD/svg11.dtd">
<!-- Generated by graphviz version 2.47.3 (20210619.1520)
 -->
<!-- Title: AppBaseClass::returnFocus Pages: 1 -->
<!--zoomable 413 -->
<svg id="main" version="1.1" xmlns="http://www.w3.org/2000/svg" xmlns:xlink="http://www.w3.org/1999/xlink" xml:space="preserve" onload="init(evt)">
<style type="text/css"><![CDATA[
.edge:hover path { stroke: red; }
.edge:hover polygon { stroke: red; fill: red; }
]]></style>
<script type="text/javascript"><![CDATA[
var edges = document.getElementsByTagName('g');
if (edges && edges.length) {
  for (var i=0;i<edges.length;i++) {
    if (edges[i].id.substr(0,4)=='edge') {
      edges[i].setAttribute('class','edge');
    }
  }
}
]]></script>
        <defs>
                <circle id="rim" cx="0" cy="0" r="7"/>
                <circle id="rim2" cx="0" cy="0" r="3.5"/>
                <g id="zoomPlus">
                        <use xlink:href="#rim" fill="#404040">
                                <set attributeName="fill" to="#808080" begin="zoomplus.mouseover" end="zoomplus.mouseout"/>
                        </use>
                        <path d="M-4,0h8M0,-4v8" fill="none" stroke="white" stroke-width="1.5" pointer-events="none"/>
                </g>
                <g id="zoomMin">
                        <use xlink:href="#rim" fill="#404040">
                                <set attributeName="fill" to="#808080" begin="zoomminus.mouseover" end="zoomminus.mouseout"/>
                        </use>
                        <path d="M-4,0h8" fill="none" stroke="white" stroke-width="1.5" pointer-events="none"/>
                </g>
                <g id="dirArrow">
                        <path fill="none" stroke="white" stroke-width="1.5" d="M0,-3.0v7 M-2.5,-0.5L0,-3.0L2.5,-0.5"/>
                </g>
               <g id="resetDef">
                       <use xlink:href="#rim2" fill="#404040">
                               <set attributeName="fill" to="#808080" begin="reset.mouseover" end="reset.mouseout"/>
                       </use>
               </g>
        </defs>

<script type="text/javascript">
var viewWidth = 1413;
var viewHeight = 413;
var sectionId = 'dynsection-0';
</script>
<script xlink:href="../../svgpan.js"/>
<svg id="graph" class="graph">
<g id="viewport">
<title>AppBaseClass::returnFocus</title>
<!-- Node1 -->
<g id="node1" class="node">
<title>Node1</title>
<g id="a_node1"><a xlink:title="gives up focus">
<polygon fill="#bfbfbf" stroke="black" points="0,-176.5 0,-204.5 242,-204.5 242,-176.5 0,-176.5"/>
<text text-anchor="middle" x="121" y="-186.1" font-family="Helvetica,sans-Serif" font-size="18.00">AppBaseClass::returnFocus</text>
</a>
</g>
</g>
<!-- Node2 -->
<g id="node2" class="node">
<title>Node2</title>
<g id="a_node2"><a xlink:href="../../db/d69/class_app_base_class_a32e44666dd58b3cd733c8ac64957dce3.html#a32e44666dd58b3cd733c8ac64957dce3" target="_top" xlink:title=" ">
<polygon fill="none" stroke="black" points="278,-223.5 278,-251.5 553,-251.5 553,-223.5 278,-223.5"/>
<text text-anchor="middle" x="415.5" y="-233.1" font-family="Helvetica,sans-Serif" font-size="18.00">AppBaseClass::_updatePosition</text>
</a>
</g>
</g>
<!-- Node1&#45;&gt;Node2 -->
<g id="edge1" class="edge">
<title>Node1&#45;&gt;Node2</title>
<path fill="none" stroke="midnightblue" d="M209.36,-204.54C243.3,-209.99 282.32,-216.26 317.15,-221.86"/>
<polygon fill="midnightblue" stroke="midnightblue" points="316.91,-225.36 327.33,-223.49 318.02,-218.45 316.91,-225.36"/>
</g>
<!-- Node3 -->
<g id="node3" class="node">
<title>Node3</title>
<g id="a_node3"><a xlink:href="../../da/d96/class_app_manager_aa76d9691e8d029656413590fbe4dee86.html#aa76d9691e8d029656413590fbe4dee86" target="_top" xlink:title=" ">
<polygon fill="none" stroke="black" points="303.5,-176.5 303.5,-204.5 527.5,-204.5 527.5,-176.5 303.5,-176.5"/>
<text text-anchor="middle" x="415.5" y="-186.1" font-family="Helvetica,sans-Serif" font-size="18.00">AppManager::getInstance</text>
</a>
</g>
</g>
<!-- Node1&#45;&gt;Node3 -->
<g id="edge2" class="edge">
<title>Node1&#45;&gt;Node3</title>
<path fill="none" stroke="midnightblue" d="M242.24,-190.5C258.94,-190.5 276.11,-190.5 292.84,-190.5"/>
<polygon fill="midnightblue" stroke="midnightblue" points="293.19,-194 303.19,-190.5 293.19,-187 293.19,-194"/>
</g>
<!-- Node16 -->
<g id="node16" class="node">
<title>Node16</title>
<g id="a_node16"><a xlink:href="../../da/d96/class_app_manager_aa046bad75942b1512618728fdac559b7.html#aa046bad75942b1512618728fdac559b7" target="_top" xlink:title="provides an interface for apps to release focus">
<polygon fill="none" stroke="black" points="302,-117.5 302,-145.5 529,-145.5 529,-117.5 302,-117.5"/>
<text text-anchor="middle" x="415.5" y="-127.1" font-family="Helvetica,sans-Serif" font-size="18.00">AppManager::returnFocus</text>
</a>
</g>
</g>
<!-- Node1&#45;&gt;Node16 -->
<g id="edge15" class="edge">
<title>Node1&#45;&gt;Node16</title>
<path fill="none" stroke="midnightblue" d="M191.69,-176.44C234.81,-167.74 290.3,-156.55 335.12,-147.51"/>
<polygon fill="midnightblue" stroke="midnightblue" points="335.98,-150.91 345.09,-145.5 334.6,-144.05 335.98,-150.91"/>
</g>
<!-- Node4 -->
<g id="node4" class="node">
<title>Node4</title>
<g id="a_node4"><a xlink:href="../../da/d96/class_app_manager_a9439da981933119c49a83a507d64eb23.html#a9439da981933119c49a83a507d64eb23" target="_top" xlink:title="Construct a new App Manager:: App Manager object using a private constuctor (lazy singleton pattern)">
<polygon fill="none" stroke="black" points="596.5,-188.5 596.5,-216.5 829.5,-216.5 829.5,-188.5 596.5,-188.5"/>
<text text-anchor="middle" x="713" y="-198.1" font-family="Helvetica,sans-Serif" font-size="18.00">AppManager::AppManager</text>
</a>
</g>
</g>
<!-- Node3&#45;&gt;Node4 -->
<g id="edge3" class="edge">
<title>Node3&#45;&gt;Node4</title>
<path fill="none" stroke="midnightblue" d="M527.79,-195.02C546.88,-195.79 566.83,-196.6 586.27,-197.39"/>
<polygon fill="midnightblue" stroke="midnightblue" points="586.24,-200.9 596.37,-197.8 586.52,-193.9 586.24,-200.9"/>
</g>
<!-- Node5 -->
<g id="node5" class="node">
<title>Node5</title>
<g id="a_node5"><a xlink:href="../../d8/d5a/class_i_l_i9341__t3___e_r_i_s_a8c8c09d5ca51d5b4c611875df643bef6.html#a8c8c09d5ca51d5b4c611875df643bef6" target="_top" xlink:title=" ">
<polygon fill="none" stroke="black" points="897,-376.5 897,-404.5 1103,-404.5 1103,-376.5 897,-376.5"/>
<text text-anchor="middle" x="1000" y="-386.1" font-family="Helvetica,sans-Serif" font-size="18.00">ILI9341_t3_ERIS::begin</text>
</a>
</g>
</g>
<!-- Node4&#45;&gt;Node5 -->
<g id="edge4" class="edge">
<title>Node4&#45;&gt;Node5</title>
<path fill="none" stroke="midnightblue" d="M723.11,-216.84C744.7,-249.54 802.53,-329.71 873,-367.5 877.54,-369.93 882.29,-372.11 887.17,-374.07"/>
<polygon fill="midnightblue" stroke="midnightblue" points="886.11,-377.41 896.7,-377.56 888.52,-370.84 886.11,-377.41"/>
</g>
<!-- Node6 -->
<g id="node6" class="node">
<title>Node6</title>
<g id="a_node6"><a xlink:href="../../d1/dff/class_touch_a057f1914b96362769a5384dbbfdb4195.html#a057f1914b96362769a5384dbbfdb4195" target="_top" xlink:title=" ">
<polygon fill="none" stroke="black" points="939,-329.5 939,-357.5 1061,-357.5 1061,-329.5 939,-329.5"/>
<text text-anchor="middle" x="1000" y="-339.1" font-family="Helvetica,sans-Serif" font-size="18.00">Touch::begin</text>
</a>
</g>
</g>
<!-- Node4&#45;&gt;Node6 -->
<g id="edge5" class="edge">
<title>Node4&#45;&gt;Node6</title>
<path fill="none" stroke="midnightblue" d="M728.31,-216.8C754.52,-242.09 813.09,-294.5 873,-320.5 890.38,-328.04 910.14,-333.11 928.78,-336.52"/>
<polygon fill="midnightblue" stroke="midnightblue" points="928.26,-339.98 938.7,-338.2 929.43,-333.08 928.26,-339.98"/>
</g>
<!-- Node7 -->
<g id="node7" class="node">
<title>Node7</title>
<g id="a_node7"><a xlink:href="../../dc/d43/class_svc_data_dictionary_a3b09dc582adbb4d5c6f99f6e983a81f1.html#a3b09dc582adbb4d5c6f99f6e983a81f1" target="_top" xlink:title="create a record with ownership">
<polygon fill="none" stroke="black" points="888.5,-282.5 888.5,-310.5 1111.5,-310.5 1111.5,-282.5 888.5,-282.5"/>
<text text-anchor="middle" x="1000" y="-292.1" font-family="Helvetica,sans-Serif" font-size="18.00">SvcDataDictionary::create</text>
</a>
</g>
</g>
<!-- Node4&#45;&gt;Node7 -->
<g id="edge6" class="edge">
<title>Node4&#45;&gt;Node7</title>
<path fill="none" stroke="midnightblue" d="M740.85,-216.58C771.89,-232.31 824.9,-257.54 873,-272.5 882.07,-275.32 891.63,-277.87 901.24,-280.16"/>
<polygon fill="midnightblue" stroke="midnightblue" points="900.74,-283.63 911.27,-282.45 902.3,-276.81 900.74,-283.63"/>
</g>
<!-- Node10 -->
<g id="node10" class="node">
<title>Node10</title>
<g id="a_node10"><a xlink:href="../../dc/d40/_app_manager_8cpp_a5db3dd95011fd6a678ae291290091314.html#a5db3dd95011fd6a678ae291290091314" target="_top" xlink:title=" ">
<polygon fill="none" stroke="black" points="972,-235.5 972,-263.5 1028,-263.5 1028,-235.5 972,-235.5"/>
<text text-anchor="middle" x="1000" y="-245.1" font-family="Helvetica,sans-Serif" font-size="18.00">draw</text>
</a>
</g>
</g>
<!-- Node4&#45;&gt;Node10 -->
<g id="edge9" class="edge">
<title>Node4&#45;&gt;Node10</title>
<path fill="none" stroke="midnightblue" d="M799.12,-216.54C853.29,-225.47 920.74,-236.59 961.8,-243.37"/>
<polygon fill="midnightblue" stroke="midnightblue" points="961.46,-246.86 971.9,-245.03 962.6,-239.95 961.46,-246.86"/>
</g>
<!-- Node11 -->
<g id="node11" class="node">
<title>Node11</title>
<g id="a_node11"><a xlink:href="../../d1/dff/class_touch_a61a5d056f07ab08cb5924fa573dc3497.html#a61a5d056f07ab08cb5924fa573dc3497" target="_top" xlink:title=" ">
<polygon fill="none" stroke="black" points="881,-188.5 881,-216.5 1119,-216.5 1119,-188.5 881,-188.5"/>
<text text-anchor="middle" x="1000" y="-198.1" font-family="Helvetica,sans-Serif" font-size="18.00">Touch::setCalibrationInputs</text>
</a>
</g>
</g>
<!-- Node4&#45;&gt;Node11 -->
<g id="edge10" class="edge">
<title>Node4&#45;&gt;Node11</title>
<path fill="none" stroke="midnightblue" d="M829.51,-202.5C842.91,-202.5 856.64,-202.5 870.21,-202.5"/>
<polygon fill="midnightblue" stroke="midnightblue" points="870.54,-206 880.54,-202.5 870.54,-199 870.54,-206"/>
</g>
<!-- Node12 -->
<g id="node12" class="node">
<title>Node12</title>
<g id="a_node12"><a xlink:href="../../d4/d7c/class_animation_a997d1203ae9418f121f355a5bd0700f0.html#a997d1203ae9418f121f355a5bd0700f0" target="_top" xlink:title=" ">
<polygon fill="none" stroke="black" points="916,-141.5 916,-169.5 1084,-169.5 1084,-141.5 916,-141.5"/>
<text text-anchor="middle" x="1000" y="-151.1" font-family="Helvetica,sans-Serif" font-size="18.00">Animation::setPath</text>
</a>
</g>
</g>
<!-- Node4&#45;&gt;Node12 -->
<g id="edge11" class="edge">
<title>Node4&#45;&gt;Node12</title>
<path fill="none" stroke="midnightblue" d="M799.12,-188.46C832.71,-182.92 871.41,-176.54 905.75,-170.88"/>
<polygon fill="midnightblue" stroke="midnightblue" points="906.49,-174.3 915.79,-169.22 905.35,-167.4 906.49,-174.3"/>
</g>
<!-- Node13 -->
<g id="node13" class="node">
<title>Node13</title>
<g id="a_node13"><a xlink:href="../../d8/d5a/class_i_l_i9341__t3___e_r_i_s_a33f0105b1eecc4c37195900fcf0d5fd8.html#a33f0105b1eecc4c37195900fcf0d5fd8" target="_top" xlink:title=" ">
<polygon fill="none" stroke="black" points="873,-94.5 873,-122.5 1127,-122.5 1127,-94.5 873,-94.5"/>
<text text-anchor="middle" x="1000" y="-104.1" font-family="Helvetica,sans-Serif" font-size="18.00">ILI9341_t3_ERIS::setPWMPin</text>
</a>
</g>
</g>
<!-- Node4&#45;&gt;Node13 -->
<g id="edge12" class="edge">
<title>Node4&#45;&gt;Node13</title>
<path fill="none" stroke="midnightblue" d="M816.88,-188.45C823.93,-185.68 830.71,-182.4 837,-178.5 859.36,-164.64 850.55,-145.23 873,-131.5 875.71,-129.84 878.51,-128.3 881.38,-126.86"/>
<polygon fill="midnightblue" stroke="midnightblue" points="883.1,-129.92 890.78,-122.62 880.22,-123.54 883.1,-129.92"/>
</g>
<!-- Node14 -->
<g id="node14" class="node">
<title>Node14</title>
<g id="a_node14"><a xlink:href="../../d4/d7c/class_animation_ab5af4d2f56dce439c18ba9c4655f98f0.html#ab5af4d2f56dce439c18ba9c4655f98f0" target="_top" xlink:title=" ">
<polygon fill="none" stroke="black" points="922.5,-47.5 922.5,-75.5 1077.5,-75.5 1077.5,-47.5 922.5,-47.5"/>
<text text-anchor="middle" x="1000" y="-57.1" font-family="Helvetica,sans-Serif" font-size="18.00">Animation::setSD</text>
</a>
</g>
</g>
<!-- Node4&#45;&gt;Node14 -->
<g id="edge13" class="edge">
<title>Node4&#45;&gt;Node14</title>
<path fill="none" stroke="midnightblue" d="M822.1,-188.47C827.4,-185.65 832.42,-182.35 837,-178.5 871.25,-149.72 838.58,-113.07 873,-84.5 884.26,-75.15 898.06,-69.09 912.35,-65.24"/>
<polygon fill="midnightblue" stroke="midnightblue" points="913.35,-68.61 922.29,-62.92 911.76,-61.79 913.35,-68.61"/>
</g>
<!-- Node15 -->
<g id="node15" class="node">
<title>Node15</title>
<g id="a_node15"><a xlink:href="../../d8/d5a/class_i_l_i9341__t3___e_r_i_s_a2bfdbf675a570c74b787fd222185f25f.html#a2bfdbf675a570c74b787fd222185f25f" target="_top" xlink:title=" ">
<polygon fill="none" stroke="black" points="895.5,-0.5 895.5,-28.5 1104.5,-28.5 1104.5,-0.5 895.5,-0.5"/>
<text text-anchor="middle" x="1000" y="-10.1" font-family="Helvetica,sans-Serif" font-size="18.00">ILI9341_t3_ERIS::setSD</text>
</a>
</g>
</g>
<!-- Node4&#45;&gt;Node15 -->
<g id="edge14" class="edge">
<title>Node4&#45;&gt;Node15</title>
<path fill="none" stroke="midnightblue" d="M823.77,-188.43C828.52,-185.6 832.97,-182.31 837,-178.5 884.02,-134.09 825.71,-81.62 873,-37.5 877.12,-33.66 881.65,-30.36 886.48,-27.52"/>
<polygon fill="midnightblue" stroke="midnightblue" points="888.17,-30.58 895.46,-22.9 884.97,-24.36 888.17,-30.58"/>
</g>
<!-- Node8 -->
<g id="node8" class="node">
<title>Node8</title>
<g id="a_node8"><a xlink:href="../../dc/d43/class_svc_data_dictionary_a7c7bd48b97fbcf18ef64337e12022619.html#a7c7bd48b97fbcf18ef64337e12022619" target="_top" xlink:title=" ">
<polygon fill="none" stroke="black" points="1163,-305.5 1163,-333.5 1405,-333.5 1405,-305.5 1163,-305.5"/>
<text text-anchor="middle" x="1284" y="-315.1" font-family="Helvetica,sans-Serif" font-size="18.00">SvcDataDictionary::copyKey</text>
</a>
</g>
</g>
<!-- Node7&#45;&gt;Node8 -->
<g id="edge7" class="edge">
<title>Node7&#45;&gt;Node8</title>
<path fill="none" stroke="midnightblue" d="M1111.64,-305.52C1125.18,-306.63 1139.1,-307.76 1152.89,-308.89"/>
<polygon fill="midnightblue" stroke="midnightblue" points="1152.65,-312.38 1162.9,-309.7 1153.21,-305.4 1152.65,-312.38"/>
</g>
<!-- Node9 -->
<g id="node9" class="node">
<title>Node9</title>
<g id="a_node9"><a xlink:href="../../dc/d43/class_svc_data_dictionary_ae2f81369b9db1eb6558036740fb1986c.html#ae2f81369b9db1eb6558036740fb1986c" target="_top" xlink:title=" ">
<polygon fill="none" stroke="black" points="1177.5,-258.5 1177.5,-286.5 1390.5,-286.5 1390.5,-258.5 1177.5,-258.5"/>
<text text-anchor="middle" x="1284" y="-268.1" font-family="Helvetica,sans-Serif" font-size="18.00">SvcDataDictionary::hash</text>
</a>
</g>
</g>
<!-- Node7&#45;&gt;Node9 -->
<g id="edge8" class="edge">
<title>Node7&#45;&gt;Node9</title>
<path fill="none" stroke="midnightblue" d="M1111.64,-287.08C1129.87,-285.53 1148.81,-283.92 1167.16,-282.36"/>
<polygon fill="midnightblue" stroke="midnightblue" points="1167.62,-285.83 1177.29,-281.5 1167.02,-278.86 1167.62,-285.83"/>
</g>
<!-- Node17 -->
<g id="node17" class="node">
<title>Node17</title>
<g id="a_node17"><a xlink:href="../../da/d96/class_app_manager_a9853cc712c3a2efca6a982937cc97c44.html#a9853cc712c3a2efca6a982937cc97c44" target="_top" xlink:title="provides an interface for apps to request another app object by id">
<polygon fill="none" stroke="black" points="619,-141.5 619,-169.5 807,-169.5 807,-141.5 619,-141.5"/>
<text text-anchor="middle" x="713" y="-151.1" font-family="Helvetica,sans-Serif" font-size="18.00">AppManager::getApp</text>
</a>
</g>
</g>
<!-- Node16&#45;&gt;Node17 -->
<g id="edge16" class="edge">
<title>Node16&#45;&gt;Node17</title>
<path fill="none" stroke="midnightblue" d="M529.06,-140.64C555.26,-142.77 583.04,-145.03 608.82,-147.12"/>
<polygon fill="midnightblue" stroke="midnightblue" points="608.72,-150.62 618.97,-147.94 609.28,-143.65 608.72,-150.62"/>
</g>
<!-- Node18 -->
<g id="node18" class="node">
<title>Node18</title>
<g id="a_node18"><a xlink:href="../../db/d69/class_app_base_class_a53c663808513ec64776645ee98da4a1f.html#a53c663808513ec64776645ee98da4a1f" target="_top" xlink:title="triggered when focus is gained from the AppManager">
<polygon fill="none" stroke="black" points="605.5,-94.5 605.5,-122.5 820.5,-122.5 820.5,-94.5 605.5,-94.5"/>
<text text-anchor="middle" x="713" y="-104.1" font-family="Helvetica,sans-Serif" font-size="18.00">AppBaseClass::onFocus</text>
</a>
</g>
</g>
<!-- Node16&#45;&gt;Node18 -->
<g id="edge17" class="edge">
<title>Node16&#45;&gt;Node18</title>
<path fill="none" stroke="midnightblue" d="M529.06,-122.74C550.6,-121.06 573.2,-119.3 594.89,-117.62"/>
<polygon fill="midnightblue" stroke="midnightblue" points="595.41,-121.09 605.11,-116.82 594.87,-114.11 595.41,-121.09"/>
</g>
<!-- Node19 -->
<g id="node19" class="node">
<title>Node19</title>
<g id="a_node19"><a xlink:href="../../db/d69/class_app_base_class_a3937393335f8a7eab2ec16697925d93d.html#a3937393335f8a7eab2ec16697925d93d" target="_top" xlink:title="triggered when focus is taken from the AppManager">
<polygon fill="none" stroke="black" points="589,-47.5 589,-75.5 837,-75.5 837,-47.5 589,-47.5"/>
<text text-anchor="middle" x="713" y="-57.1" font-family="Helvetica,sans-Serif" font-size="18.00">AppBaseClass::onFocusLost</text>
</a>
</g>
</g>
<!-- Node16&#45;&gt;Node19 -->
<g id="edge18" class="edge">
<title>Node16&#45;&gt;Node19</title>
<path fill="none" stroke="midnightblue" d="M463.83,-117.49C498.34,-107.55 546.34,-94.28 589,-84.5 599.54,-82.08 610.63,-79.74 621.65,-77.53"/>
<polygon fill="midnightblue" stroke="midnightblue" points="622.61,-80.9 631.75,-75.53 621.26,-74.04 622.61,-80.9"/>
</g>
</g>
</svg>
        <g id="navigator" transform="translate(0 0)" fill="#404254">
                <rect fill="#f2f5e9" fill-opacity="0.5" stroke="#606060" stroke-width=".5" x="0" y="0" width="60" height="60"/>
                <use id="zoomplus" xlink:href="#zoomPlus" x="17" y="9" onmousedown="handleZoom(evt,'in')"/>
                <use id="zoomminus" xlink:href="#zoomMin" x="42" y="9" onmousedown="handleZoom(evt,'out')"/>
                <use id="reset" xlink:href="#resetDef" x="30" y="36" onmousedown="handleReset()"/>
                <g id="arrowUp" xlink:href="#dirArrow" transform="translate(30 24)" onmousedown="handlePan(0,-1)">
                  <use xlink:href="#rim" fill="#404040">
                        <set attributeName="fill" to="#808080" begin="arrowUp.mouseover" end="arrowUp.mouseout"/>
                  </use>
                  <path fill="none" stroke="white" stroke-width="1.5" d="M0,-3.0v7 M-2.5,-0.5L0,-3.0L2.5,-0.5"/>
                </g>
                <g id="arrowRight" xlink:href="#dirArrow" transform="rotate(90) translate(36 -43)" onmousedown="handlePan(1,0)">
                  <use xlink:href="#rim" fill="#404040">
                        <set attributeName="fill" to="#808080" begin="arrowRight.mouseover" end="arrowRight.mouseout"/>
                  </use>
                  <path fill="none" stroke="white" stroke-width="1.5" d="M0,-3.0v7 M-2.5,-0.5L0,-3.0L2.5,-0.5"/>
                </g>
                <g id="arrowDown" xlink:href="#dirArrow" transform="rotate(180) translate(-30 -48)" onmousedown="handlePan(0,1)">
                  <use xlink:href="#rim" fill="#404040">
                        <set attributeName="fill" to="#808080" begin="arrowDown.mouseover" end="arrowDown.mouseout"/>
                  </use>
                  <path fill="none" stroke="white" stroke-width="1.5" d="M0,-3.0v7 M-2.5,-0.5L0,-3.0L2.5,-0.5"/>
                </g>
                <g id="arrowLeft" xlink:href="#dirArrow" transform="rotate(270) translate(-36 17)" onmousedown="handlePan(-1,0)">
                  <use xlink:href="#rim" fill="#404040">
                        <set attributeName="fill" to="#808080" begin="arrowLeft.mouseover" end="arrowLeft.mouseout"/>
                  </use>
                  <path fill="none" stroke="white" stroke-width="1.5" d="M0,-3.0v7 M-2.5,-0.5L0,-3.0L2.5,-0.5"/>
                </g>
        </g>
        <svg viewBox="0 0 15 15" width="100%" height="30px" preserveAspectRatio="xMaxYMin meet">
         <g id="arrow_out" transform="scale(0.3 0.3)">
          <a xlink:href="class_app_base_class_a9f95ae78f35aefdb005560509aa683ad_a9f95ae78f35aefdb005560509aa683ad_cgraph_org.svg" target="_base">
           <rect id="button" ry="5" rx="5" y="6" x="6" height="38" width="38"
                fill="#f2f5e9" fill-opacity="0.5" stroke="#606060" stroke-width="1.0"/>
           <path id="arrow"
             d="M 11.500037,31.436501 C 11.940474,20.09759 22.043105,11.32322 32.158766,21.979434 L 37.068811,17.246167 C 37.068811,17.246167 37.088388,32 37.088388,32 L 22.160133,31.978069 C 22.160133,31.978069 26.997745,27.140456 26.997745,27.140456 C 18.528582,18.264221 13.291696,25.230495 11.500037,31.436501 z"
             style="fill:#404040;"/>
          </a>
         </g>
        </svg>
</svg>
