<?xml version="1.0" encoding="UTF-8" standalone="no"?>
<!DOCTYPE svg PUBLIC "-//W3C//DTD SVG 1.1//EN"
 "http://www.w3.org/Graphics/SVG/1.1/DTD/svg11.dtd">
<!-- Generated by graphviz version 2.47.3 (20210619.1520)
 -->
<!-- Title: AppBaseClass::setParent Pages: 1 -->
<!--zoomable 178 -->
<svg id="main" version="1.1" xmlns="http://www.w3.org/2000/svg" xmlns:xlink="http://www.w3.org/1999/xlink" xml:space="preserve" onload="init(evt)">
<style type="text/css"><![CDATA[
.edge:hover path { stroke: red; }
.edge:hover polygon { stroke: red; fill: red; }
]]></style>
<script type="text/javascript"><![CDATA[
var edges = document.getElementsByTagName('g');
if (edges && edges.length) {
  for (var i=0;i<edges.length;i++) {
    if (edges[i].id.substr(0,4)=='edge') {
      edges[i].setAttribute('class','edge');
    }
  }
}
]]></script>
        <defs>
                <circle id="rim" cx="0" cy="0" r="7"/>
                <circle id="rim2" cx="0" cy="0" r="3.5"/>
                <g id="zoomPlus">
                        <use xlink:href="#rim" fill="#404040">
                                <set attributeName="fill" to="#808080" begin="zoomplus.mouseover" end="zoomplus.mouseout"/>
                        </use>
                        <path d="M-4,0h8M0,-4v8" fill="none" stroke="white" stroke-width="1.5" pointer-events="none"/>
                </g>
                <g id="zoomMin">
                        <use xlink:href="#rim" fill="#404040">
                                <set attributeName="fill" to="#808080" begin="zoomminus.mouseover" end="zoomminus.mouseout"/>
                        </use>
                        <path d="M-4,0h8" fill="none" stroke="white" stroke-width="1.5" pointer-events="none"/>
                </g>
                <g id="dirArrow">
                        <path fill="none" stroke="white" stroke-width="1.5" d="M0,-3.0v7 M-2.5,-0.5L0,-3.0L2.5,-0.5"/>
                </g>
               <g id="resetDef">
                       <use xlink:href="#rim2" fill="#404040">
                               <set attributeName="fill" to="#808080" begin="reset.mouseover" end="reset.mouseout"/>
                       </use>
               </g>
        </defs>

<script type="text/javascript">
var viewWidth = 979;
var viewHeight = 178;
var sectionId = 'dynsection-0';
</script>
<script xlink:href="../../svgpan.js"/>
<svg id="graph" class="graph">
<g id="viewport">
<title>AppBaseClass::setParent</title>
<!-- Node1 -->
<g id="node1" class="node">
<title>Node1</title>
<g id="a_node1"><a xlink:title="Set the Parent object.">
<polygon fill="#bfbfbf" stroke="black" points="749,-70.5 749,-98.5 971,-98.5 971,-70.5 749,-70.5"/>
<text text-anchor="middle" x="860" y="-80.1" font-family="Helvetica,sans-Serif" font-size="18.00">AppBaseClass::setParent</text>
</a>
</g>
</g>
<!-- Node2 -->
<g id="node2" class="node">
<title>Node2</title>
<g id="a_node2"><a xlink:href="../../df/d17/class_control_button_af28f5829bfcd32a46727dd7b4eab89f0.html#af28f5829bfcd32a46727dd7b4eab89f0" target="_top" xlink:title=" ">
<polygon fill="none" stroke="black" points="450,-141.5 450,-169.5 701,-169.5 701,-141.5 450,-141.5"/>
<text text-anchor="middle" x="575.5" y="-151.1" font-family="Helvetica,sans-Serif" font-size="18.00">ControlButton::ControlButton</text>
</a>
</g>
</g>
<!-- Node1&#45;&gt;Node2 -->
<g id="edge1" class="edge">
<title>Node1&#45;&gt;Node2</title>
<path fill="none" stroke="midnightblue" d="M811.99,-101.96C783.63,-111.99 746.6,-124.2 713,-132.5 699.59,-135.82 685.31,-138.8 671.24,-141.44"/>
<polygon fill="midnightblue" stroke="midnightblue" points="813.4,-105.17 821.64,-98.51 811.05,-98.58 813.4,-105.17"/>
</g>
<!-- Node3 -->
<g id="node3" class="node">
<title>Node3</title>
<g id="a_node3"><a xlink:href="../../de/d67/class_control_slider_af82e979d08da074aa3b73ac5592bfcb0.html#af82e979d08da074aa3b73ac5592bfcb0" target="_top" xlink:title=" ">
<polygon fill="none" stroke="black" points="457,-94.5 457,-122.5 694,-122.5 694,-94.5 457,-94.5"/>
<text text-anchor="middle" x="575.5" y="-104.1" font-family="Helvetica,sans-Serif" font-size="18.00">ControlSlider::ControlSlider</text>
</a>
</g>
</g>
<!-- Node1&#45;&gt;Node3 -->
<g id="edge2" class="edge">
<title>Node1&#45;&gt;Node3</title>
<path fill="none" stroke="midnightblue" d="M738.79,-94.71C724.01,-95.97 708.91,-97.25 694.17,-98.5"/>
<polygon fill="midnightblue" stroke="midnightblue" points="739.3,-98.18 748.97,-93.85 738.71,-91.21 739.3,-98.18"/>
</g>
<!-- Node4 -->
<g id="node4" class="node">
<title>Node4</title>
<g id="a_node4"><a xlink:href="../../dc/d27/class_app_audio_to_polyphonic_aee6cbedf9885036f5fbb8d560e9a931b.html#aee6cbedf9885036f5fbb8d560e9a931b" target="_top" xlink:title=" ">
<polygon fill="none" stroke="black" points="438,-47.5 438,-75.5 713,-75.5 713,-47.5 438,-47.5"/>
<text text-anchor="middle" x="575.5" y="-57.1" font-family="Helvetica,sans-Serif" font-size="18.00">AppAudioToPolyphonic::initalize</text>
</a>
</g>
</g>
<!-- Node1&#45;&gt;Node4 -->
<g id="edge3" class="edge">
<title>Node1&#45;&gt;Node4</title>
<path fill="none" stroke="midnightblue" d="M738.97,-74.73C730.4,-74.03 721.73,-73.32 713.08,-72.62"/>
<polygon fill="midnightblue" stroke="midnightblue" points="738.72,-78.22 748.97,-75.54 739.29,-71.24 738.72,-78.22"/>
</g>
<!-- Node6 -->
<g id="node6" class="node">
<title>Node6</title>
<g id="a_node6"><a xlink:href="../../d0/da0/class_app_wren_a7f43ff2f48f72d186161822ed1917f5b.html#a7f43ff2f48f72d186161822ed1917f5b" target="_top" xlink:title="Set the Parent object.">
<polygon fill="none" stroke="black" points="485.5,-0.5 485.5,-28.5 665.5,-28.5 665.5,-0.5 485.5,-0.5"/>
<text text-anchor="middle" x="575.5" y="-10.1" font-family="Helvetica,sans-Serif" font-size="18.00">AppWren::setParent</text>
</a>
</g>
</g>
<!-- Node1&#45;&gt;Node6 -->
<g id="edge5" class="edge">
<title>Node1&#45;&gt;Node6</title>
<path fill="none" stroke="midnightblue" d="M809.84,-67.24C781.73,-57.82 745.68,-46.48 713,-38.5 697.81,-34.79 681.53,-31.41 665.7,-28.44"/>
<polygon fill="midnightblue" stroke="midnightblue" points="808.83,-70.59 819.43,-70.48 811.08,-63.96 808.83,-70.59"/>
</g>
<!-- Node5 -->
<g id="node5" class="node">
<title>Node5</title>
<g id="a_node5"><a xlink:href="../../dc/d27/class_app_audio_to_polyphonic_a3f4679d883227d6293effc4eed5cea06.html#a3f4679d883227d6293effc4eed5cea06" target="_top" xlink:title=" ">
<polygon fill="none" stroke="black" points="0,-47.5 0,-75.5 402,-75.5 402,-47.5 0,-47.5"/>
<text text-anchor="middle" x="201" y="-57.1" font-family="Helvetica,sans-Serif" font-size="18.00">AppAudioToPolyphonic::AppAudioToPolyphonic</text>
</a>
</g>
</g>
<!-- Node4&#45;&gt;Node5 -->
<g id="edge4" class="edge">
<title>Node4&#45;&gt;Node5</title>
<path fill="none" stroke="midnightblue" d="M427.67,-61.5C419.23,-61.5 410.67,-61.5 402.07,-61.5"/>
<polygon fill="midnightblue" stroke="midnightblue" points="427.91,-65 437.91,-61.5 427.91,-58 427.91,-65"/>
</g>
<!-- Node7 -->
<g id="node7" class="node">
<title>Node7</title>
<g id="a_node7"><a xlink:href="../../d6/dd8/_eris_core_8cpp_a4fc01d736fe50cf5b977f755b675f11d.html#a4fc01d736fe50cf5b977f755b675f11d" target="_top" xlink:title=" ">
<polygon fill="none" stroke="black" points="170,-0.5 170,-28.5 232,-28.5 232,-0.5 170,-0.5"/>
<text text-anchor="middle" x="201" y="-10.1" font-family="Helvetica,sans-Serif" font-size="18.00">setup</text>
</a>
</g>
</g>
<!-- Node6&#45;&gt;Node7 -->
<g id="edge6" class="edge">
<title>Node6&#45;&gt;Node7</title>
<path fill="none" stroke="midnightblue" d="M475.02,-14.5C393.79,-14.5 284.22,-14.5 232.04,-14.5"/>
<polygon fill="midnightblue" stroke="midnightblue" points="475.28,-18 485.28,-14.5 475.28,-11 475.28,-18"/>
</g>
</g>
</svg>
        <g id="navigator" transform="translate(0 0)" fill="#404254">
                <rect fill="#f2f5e9" fill-opacity="0.5" stroke="#606060" stroke-width=".5" x="0" y="0" width="60" height="60"/>
                <use id="zoomplus" xlink:href="#zoomPlus" x="17" y="9" onmousedown="handleZoom(evt,'in')"/>
                <use id="zoomminus" xlink:href="#zoomMin" x="42" y="9" onmousedown="handleZoom(evt,'out')"/>
                <use id="reset" xlink:href="#resetDef" x="30" y="36" onmousedown="handleReset()"/>
                <g id="arrowUp" xlink:href="#dirArrow" transform="translate(30 24)" onmousedown="handlePan(0,-1)">
                  <use xlink:href="#rim" fill="#404040">
                        <set attributeName="fill" to="#808080" begin="arrowUp.mouseover" end="arrowUp.mouseout"/>
                  </use>
                  <path fill="none" stroke="white" stroke-width="1.5" d="M0,-3.0v7 M-2.5,-0.5L0,-3.0L2.5,-0.5"/>
                </g>
                <g id="arrowRight" xlink:href="#dirArrow" transform="rotate(90) translate(36 -43)" onmousedown="handlePan(1,0)">
                  <use xlink:href="#rim" fill="#404040">
                        <set attributeName="fill" to="#808080" begin="arrowRight.mouseover" end="arrowRight.mouseout"/>
                  </use>
                  <path fill="none" stroke="white" stroke-width="1.5" d="M0,-3.0v7 M-2.5,-0.5L0,-3.0L2.5,-0.5"/>
                </g>
                <g id="arrowDown" xlink:href="#dirArrow" transform="rotate(180) translate(-30 -48)" onmousedown="handlePan(0,1)">
                  <use xlink:href="#rim" fill="#404040">
                        <set attributeName="fill" to="#808080" begin="arrowDown.mouseover" end="arrowDown.mouseout"/>
                  </use>
                  <path fill="none" stroke="white" stroke-width="1.5" d="M0,-3.0v7 M-2.5,-0.5L0,-3.0L2.5,-0.5"/>
                </g>
                <g id="arrowLeft" xlink:href="#dirArrow" transform="rotate(270) translate(-36 17)" onmousedown="handlePan(-1,0)">
                  <use xlink:href="#rim" fill="#404040">
                        <set attributeName="fill" to="#808080" begin="arrowLeft.mouseover" end="arrowLeft.mouseout"/>
                  </use>
                  <path fill="none" stroke="white" stroke-width="1.5" d="M0,-3.0v7 M-2.5,-0.5L0,-3.0L2.5,-0.5"/>
                </g>
        </g>
        <svg viewBox="0 0 15 15" width="100%" height="30px" preserveAspectRatio="xMaxYMin meet">
         <g id="arrow_out" transform="scale(0.3 0.3)">
          <a xlink:href="class_app_base_class_af66b6dc0a061770fcb4c8425987d9ea9_af66b6dc0a061770fcb4c8425987d9ea9_icgraph_org.svg" target="_base">
           <rect id="button" ry="5" rx="5" y="6" x="6" height="38" width="38"
                fill="#f2f5e9" fill-opacity="0.5" stroke="#606060" stroke-width="1.0"/>
           <path id="arrow"
             d="M 11.500037,31.436501 C 11.940474,20.09759 22.043105,11.32322 32.158766,21.979434 L 37.068811,17.246167 C 37.068811,17.246167 37.088388,32 37.088388,32 L 22.160133,31.978069 C 22.160133,31.978069 26.997745,27.140456 26.997745,27.140456 C 18.528582,18.264221 13.291696,25.230495 11.500037,31.436501 z"
             style="fill:#404040;"/>
          </a>
         </g>
        </svg>
</svg>
