<?xml version="1.0" encoding="UTF-8" standalone="no"?>
<!DOCTYPE svg PUBLIC "-//W3C//DTD SVG 1.1//EN"
 "http://www.w3.org/Graphics/SVG/1.1/DTD/svg11.dtd">
<!-- Generated by graphviz version 2.47.3 (20210619.1520)
 -->
<!-- Title: erisAudioEffectFade Pages: 1 -->
<svg width="352pt" height="254pt"
 viewBox="0.00 0.00 352.00 254.00" xmlns="http://www.w3.org/2000/svg" xmlns:xlink="http://www.w3.org/1999/xlink">
<g id="graph0" class="graph" transform="scale(1 1) rotate(0) translate(4 250)">
<title>erisAudioEffectFade</title>
<!-- Node1 -->
<g id="node1" class="node">
<title>Node1</title>
<g id="a_node1"><a xlink:title=" ">
<polygon fill="#bfbfbf" stroke="black" points="31,-0.5 31,-104.5 237,-104.5 237,-0.5 31,-0.5"/>
<text text-anchor="middle" x="134" y="-86.1" font-family="Helvetica,sans-Serif" font-size="18.00">erisAudioEffectFade</text>
<polyline fill="none" stroke="black" points="31,-76.5 237,-76.5 "/>
<text text-anchor="middle" x="134" y="-58.1" font-family="Helvetica,sans-Serif" font-size="18.00"> </text>
<polyline fill="none" stroke="black" points="31,-48.5 237,-48.5 "/>
<text text-anchor="start" x="39" y="-30.1" font-family="Helvetica,sans-Serif" font-size="18.00">+ erisAudioEffectFade()</text>
<text text-anchor="start" x="39" y="-10.1" font-family="Helvetica,sans-Serif" font-size="18.00">+ void update()</text>
</a>
</g>
</g>
<!-- Node2 -->
<g id="node2" class="node">
<title>Node2</title>
<g id="a_node2"><a xlink:href="../../db/dcb/class_audio_effect_fade.html" target="_top" xlink:title=" ">
<polygon fill="none" stroke="black" points="0,-161.5 0,-245.5 150,-245.5 150,-161.5 0,-161.5"/>
<text text-anchor="middle" x="75" y="-227.1" font-family="Helvetica,sans-Serif" font-size="18.00">AudioEffectFade</text>
<polyline fill="none" stroke="black" points="0,-217.5 150,-217.5 "/>
<text text-anchor="middle" x="75" y="-199.1" font-family="Helvetica,sans-Serif" font-size="18.00"> </text>
<polyline fill="none" stroke="black" points="0,-189.5 150,-189.5 "/>
<text text-anchor="middle" x="75" y="-171.1" font-family="Helvetica,sans-Serif" font-size="18.00"> </text>
</a>
</g>
</g>
<!-- Node2&#45;&gt;Node1 -->
<g id="edge1" class="edge">
<title>Node2&#45;&gt;Node1</title>
<path fill="none" stroke="midnightblue" d="M94.97,-152.08C101.03,-136.77 107.69,-119.93 113.77,-104.58"/>
<polygon fill="none" stroke="midnightblue" points="91.71,-150.8 91.28,-161.39 98.21,-153.38 91.71,-150.8"/>
</g>
<!-- Node3 -->
<g id="node3" class="node">
<title>Node3</title>
<g id="a_node3"><a xlink:title=" ">
<polygon fill="none" stroke="#bfbfbf" points="168,-161.5 168,-245.5 220,-245.5 220,-161.5 168,-161.5"/>
<text text-anchor="middle" x="194" y="-227.1" font-family="Helvetica,sans-Serif" font-size="18.00">char</text>
<polyline fill="none" stroke="#bfbfbf" points="168,-217.5 220,-217.5 "/>
<text text-anchor="middle" x="194" y="-199.1" font-family="Helvetica,sans-Serif" font-size="18.00"> </text>
<polyline fill="none" stroke="#bfbfbf" points="168,-189.5 220,-189.5 "/>
<text text-anchor="middle" x="194" y="-171.1" font-family="Helvetica,sans-Serif" font-size="18.00"> </text>
</a>
</g>
</g>
<!-- Node3&#45;&gt;Node1 -->
<g id="edge2" class="edge">
<title>Node3&#45;&gt;Node1</title>
<path fill="none" stroke="#404040" d="M177.45,-161.39C171.81,-147.39 165.37,-131.4 159.21,-116.1"/>
<polygon fill="none" stroke="#404040" points="159.05,-115.71 153.1,-111.64 154.57,-104.58 160.52,-108.65 159.05,-115.71"/>
<text text-anchor="middle" x="256.5" y="-128.6" font-family="Helvetica,sans-Serif" font-size="18.00"> +short_name_lookup</text>
</g>
</g>
</svg>
