<?xml version="1.0" encoding="UTF-8" standalone="no"?>
<!DOCTYPE svg PUBLIC "-//W3C//DTD SVG 1.1//EN"
 "http://www.w3.org/Graphics/SVG/1.1/DTD/svg11.dtd">
<!-- Generated by graphviz version 2.47.3 (20210619.1520)
 -->
<!-- Title: ERISCore/include/AppAudioToPolyphonic.h Pages: 1 -->
<svg width="2649pt" height="492pt"
 viewBox="0.00 0.00 2649.00 492.00" xmlns="http://www.w3.org/2000/svg" xmlns:xlink="http://www.w3.org/1999/xlink">
<g id="graph0" class="graph" transform="scale(1 1) rotate(0) translate(4 488)">
<title>ERISCore/include/AppAudioToPolyphonic.h</title>
<!-- Node1 -->
<g id="node1" class="node">
<title>Node1</title>
<g id="a_node1"><a xlink:title="Application Example.">
<polygon fill="#bfbfbf" stroke="black" points="1168,-455.5 1168,-483.5 1536,-483.5 1536,-455.5 1168,-455.5"/>
<text text-anchor="middle" x="1352" y="-465.1" font-family="Helvetica,sans-Serif" font-size="18.00">ERISCore/include/AppAudioToPolyphonic.h</text>
</a>
</g>
</g>
<!-- Node2 -->
<g id="node2" class="node">
<title>Node2</title>
<g id="a_node2"><a xlink:href="../../dc/dac/_audio_utilities_8h.html" target="_top" xlink:title=" ">
<polygon fill="none" stroke="black" points="1084,-325.5 1084,-353.5 1220,-353.5 1220,-325.5 1084,-325.5"/>
<text text-anchor="middle" x="1152" y="-335.1" font-family="Helvetica,sans-Serif" font-size="18.00">AudioUtilities.h</text>
</a>
</g>
</g>
<!-- Node1&#45;&gt;Node2 -->
<g id="edge1" class="edge">
<title>Node1&#45;&gt;Node2</title>
<path fill="none" stroke="midnightblue" d="M1233.56,-455.39C1210.3,-447.88 1187.91,-436.41 1171,-419 1156.9,-404.48 1152.66,-381.37 1151.64,-363.97"/>
<polygon fill="midnightblue" stroke="midnightblue" points="1155.13,-363.42 1151.37,-353.52 1148.13,-363.61 1155.13,-363.42"/>
</g>
<!-- Node3 -->
<g id="node3" class="node">
<title>Node3</title>
<g id="a_node3"><a xlink:href="../../df/d72/_app_manager_8h.html" target="_top" xlink:title=" ">
<polygon fill="none" stroke="black" points="1325.5,-325.5 1325.5,-353.5 1460.5,-353.5 1460.5,-325.5 1325.5,-325.5"/>
<text text-anchor="middle" x="1393" y="-335.1" font-family="Helvetica,sans-Serif" font-size="18.00">AppManager.h</text>
</a>
</g>
</g>
<!-- Node1&#45;&gt;Node3 -->
<g id="edge2" class="edge">
<title>Node1&#45;&gt;Node3</title>
<path fill="none" stroke="midnightblue" d="M1342.54,-455.49C1332.16,-439.5 1318.3,-411.8 1329,-390 1335.21,-377.34 1346.4,-366.99 1357.7,-359.1"/>
<polygon fill="midnightblue" stroke="midnightblue" points="1359.79,-361.91 1366.28,-353.54 1355.99,-356.04 1359.79,-361.91"/>
</g>
<!-- Node38 -->
<g id="node38" class="node">
<title>Node38</title>
<g id="a_node38"><a xlink:href="../../d7/d4f/_control_button_8h.html" target="_top" xlink:title=" ">
<polygon fill="none" stroke="black" points="1470,-390.5 1470,-418.5 1610,-418.5 1610,-390.5 1470,-390.5"/>
<text text-anchor="middle" x="1540" y="-400.1" font-family="Helvetica,sans-Serif" font-size="18.00">controlButton.h</text>
</a>
</g>
</g>
<!-- Node1&#45;&gt;Node38 -->
<g id="edge68" class="edge">
<title>Node1&#45;&gt;Node38</title>
<path fill="none" stroke="midnightblue" d="M1390.95,-455.45C1420.07,-445.69 1460.06,-432.29 1491.29,-421.82"/>
<polygon fill="midnightblue" stroke="midnightblue" points="1492.73,-425.03 1501.1,-418.54 1490.5,-418.4 1492.73,-425.03"/>
</g>
<!-- Node39 -->
<g id="node39" class="node">
<title>Node39</title>
<g id="a_node39"><a xlink:href="../../db/d4d/_control_slider_8h.html" target="_top" xlink:title=" ">
<polygon fill="none" stroke="black" points="1628,-390.5 1628,-418.5 1762,-418.5 1762,-390.5 1628,-390.5"/>
<text text-anchor="middle" x="1695" y="-400.1" font-family="Helvetica,sans-Serif" font-size="18.00">controlSlider.h</text>
</a>
</g>
</g>
<!-- Node1&#45;&gt;Node39 -->
<g id="edge72" class="edge">
<title>Node1&#45;&gt;Node39</title>
<path fill="none" stroke="midnightblue" d="M1423.07,-455.45C1479.92,-445 1559.51,-430.39 1617.9,-419.66"/>
<polygon fill="midnightblue" stroke="midnightblue" points="1618.61,-423.09 1627.81,-417.84 1617.34,-416.2 1618.61,-423.09"/>
</g>
<!-- Node40 -->
<g id="node40" class="node">
<title>Node40</title>
<g id="a_node40"><a xlink:href="../../d7/d07/_app_scope_8h.html" target="_top" xlink:title=" ">
<polygon fill="none" stroke="black" points="1338,-390.5 1338,-418.5 1452,-418.5 1452,-390.5 1338,-390.5"/>
<text text-anchor="middle" x="1395" y="-400.1" font-family="Helvetica,sans-Serif" font-size="18.00">appScope.h</text>
</a>
</g>
</g>
<!-- Node1&#45;&gt;Node40 -->
<g id="edge75" class="edge">
<title>Node1&#45;&gt;Node40</title>
<path fill="none" stroke="midnightblue" d="M1360.91,-455.45C1366.5,-447.25 1373.85,-436.49 1380.29,-427.05"/>
<polygon fill="midnightblue" stroke="midnightblue" points="1383.36,-428.77 1386.1,-418.54 1377.57,-424.82 1383.36,-428.77"/>
</g>
<!-- Node41 -->
<g id="node41" class="node">
<title>Node41</title>
<g id="a_node41"><a xlink:href="../../d8/db0/_app_c_q_t_8h.html" target="_top" xlink:title=" ">
<polygon fill="none" stroke="black" points="1180.5,-390.5 1180.5,-418.5 1281.5,-418.5 1281.5,-390.5 1180.5,-390.5"/>
<text text-anchor="middle" x="1231" y="-400.1" font-family="Helvetica,sans-Serif" font-size="18.00">appCQT.h</text>
</a>
</g>
</g>
<!-- Node1&#45;&gt;Node41 -->
<g id="edge77" class="edge">
<title>Node1&#45;&gt;Node41</title>
<path fill="none" stroke="midnightblue" d="M1326.93,-455.45C1309,-446.11 1284.67,-433.44 1264.99,-423.2"/>
<polygon fill="midnightblue" stroke="midnightblue" points="1266.53,-420.05 1256.04,-418.54 1263.29,-426.26 1266.53,-420.05"/>
</g>
<!-- Node4 -->
<g id="node4" class="node">
<title>Node4</title>
<g id="a_node4"><a xlink:title=" ">
<polygon fill="none" stroke="#bfbfbf" points="1539.5,-0.5 1539.5,-28.5 1634.5,-28.5 1634.5,-0.5 1539.5,-0.5"/>
<text text-anchor="middle" x="1587" y="-10.1" font-family="Helvetica,sans-Serif" font-size="18.00">Arduino.h</text>
</a>
</g>
</g>
<!-- Node3&#45;&gt;Node4 -->
<g id="edge3" class="edge">
<title>Node3&#45;&gt;Node4</title>
<path fill="none" stroke="midnightblue" d="M1460.79,-338.81C1653.2,-339.12 2199.85,-335.72 2372,-289 2432.43,-272.6 2464.5,-277.53 2497,-224 2563.35,-114.71 2567.51,-155.52 2302,-65 2180.95,-23.73 1793.27,-16.82 1645.22,-15.7"/>
<polygon fill="midnightblue" stroke="midnightblue" points="1645.01,-12.2 1634.98,-15.63 1644.96,-19.2 1645.01,-12.2"/>
</g>
<!-- Node5 -->
<g id="node5" class="node">
<title>Node5</title>
<g id="a_node5"><a xlink:href="../../db/d46/_eris_globals_8h.html" target="_top" xlink:title=" ">
<polygon fill="none" stroke="black" points="666.5,-65.5 666.5,-93.5 791.5,-93.5 791.5,-65.5 666.5,-65.5"/>
<text text-anchor="middle" x="729" y="-75.1" font-family="Helvetica,sans-Serif" font-size="18.00">ErisGlobals.h</text>
</a>
</g>
</g>
<!-- Node3&#45;&gt;Node5 -->
<g id="edge4" class="edge">
<title>Node3&#45;&gt;Node5</title>
<path fill="none" stroke="midnightblue" d="M1325.42,-326.34C1321.9,-325.85 1318.41,-325.4 1315,-325 1144.27,-304.88 648.84,-363.24 548,-224 506.47,-166.65 608.33,-120.15 675.54,-96.81"/>
<polygon fill="midnightblue" stroke="midnightblue" points="676.84,-100.07 685.18,-93.54 674.59,-93.44 676.84,-100.07"/>
</g>
<!-- Node6 -->
<g id="node6" class="node">
<title>Node6</title>
<g id="a_node6"><a xlink:href="../../de/d10/_h_s_i_8h.html" target="_top" xlink:title=" ">
<polygon fill="none" stroke="black" points="2209,-65.5 2209,-93.5 2271,-93.5 2271,-65.5 2209,-65.5"/>
<text text-anchor="middle" x="2240" y="-75.1" font-family="Helvetica,sans-Serif" font-size="18.00">HSI.h</text>
</a>
</g>
</g>
<!-- Node3&#45;&gt;Node6 -->
<g id="edge6" class="edge">
<title>Node3&#45;&gt;Node6</title>
<path fill="none" stroke="midnightblue" d="M1460.51,-337.11C1628.12,-332.34 2057.49,-311.66 2165,-224 2203.76,-192.4 2224.87,-135.43 2234.14,-103.6"/>
<polygon fill="midnightblue" stroke="midnightblue" points="2237.54,-104.42 2236.84,-93.84 2230.8,-102.55 2237.54,-104.42"/>
</g>
<!-- Node7 -->
<g id="node7" class="node">
<title>Node7</title>
<g id="a_node7"><a xlink:href="../../d4/dfc/_touch_8h.html" target="_top" xlink:title=" ">
<polygon fill="none" stroke="black" points="2285.5,-260.5 2285.5,-288.5 2362.5,-288.5 2362.5,-260.5 2285.5,-260.5"/>
<text text-anchor="middle" x="2324" y="-270.1" font-family="Helvetica,sans-Serif" font-size="18.00">touch.h</text>
</a>
</g>
</g>
<!-- Node3&#45;&gt;Node7 -->
<g id="edge7" class="edge">
<title>Node3&#45;&gt;Node7</title>
<path fill="none" stroke="midnightblue" d="M1460.59,-335.91C1601.34,-330.18 1936.1,-314.88 2216,-289 2235.45,-287.2 2256.8,-284.65 2275.34,-282.26"/>
<polygon fill="midnightblue" stroke="midnightblue" points="2275.87,-285.72 2285.33,-280.95 2274.96,-278.78 2275.87,-285.72"/>
</g>
<!-- Node9 -->
<g id="node9" class="node">
<title>Node9</title>
<g id="a_node9"><a xlink:href="../../d3/ddb/_analog_inputs_8h.html" target="_top" xlink:title=" ">
<polygon fill="none" stroke="black" points="1789.5,-260.5 1789.5,-288.5 1928.5,-288.5 1928.5,-260.5 1789.5,-260.5"/>
<text text-anchor="middle" x="1859" y="-270.1" font-family="Helvetica,sans-Serif" font-size="18.00">AnalogInputs.h</text>
</a>
</g>
</g>
<!-- Node3&#45;&gt;Node9 -->
<g id="edge9" class="edge">
<title>Node3&#45;&gt;Node9</title>
<path fill="none" stroke="midnightblue" d="M1460.76,-329.34C1545.22,-317.92 1689.38,-298.43 1779.13,-286.3"/>
<polygon fill="midnightblue" stroke="midnightblue" points="1779.81,-289.74 1789.25,-284.93 1778.88,-282.8 1779.81,-289.74"/>
</g>
<!-- Node24 -->
<g id="node24" class="node">
<title>Node24</title>
<g id="a_node24"><a xlink:href="../../d2/dda/_i_l_i9341__t3___e_r_i_s_8h.html" target="_top" xlink:title=" ">
<polygon fill="none" stroke="black" points="297,-65.5 297,-93.5 463,-93.5 463,-65.5 297,-65.5"/>
<text text-anchor="middle" x="380" y="-75.1" font-family="Helvetica,sans-Serif" font-size="18.00">ILI9341_t3_ERIS.h</text>
</a>
</g>
</g>
<!-- Node3&#45;&gt;Node24 -->
<g id="edge35" class="edge">
<title>Node3&#45;&gt;Node24</title>
<path fill="none" stroke="midnightblue" d="M1325.43,-326.29C1321.91,-325.81 1318.41,-325.38 1315,-325 1234.39,-316.07 660.04,-322.1 586,-289 494.49,-248.09 421.84,-146.69 393.2,-102.11"/>
<polygon fill="midnightblue" stroke="midnightblue" points="396.07,-100.09 387.77,-93.5 390.15,-103.83 396.07,-100.09"/>
</g>
<!-- Node29 -->
<g id="node29" class="node">
<title>Node29</title>
<g id="a_node29"><a xlink:href="../../db/dc8/_audio_director_8h.html" target="_top" xlink:title=" ">
<polygon fill="none" stroke="black" points="813,-260.5 813,-288.5 953,-288.5 953,-260.5 813,-260.5"/>
<text text-anchor="middle" x="883" y="-270.1" font-family="Helvetica,sans-Serif" font-size="18.00">AudioDirector.h</text>
</a>
</g>
</g>
<!-- Node3&#45;&gt;Node29 -->
<g id="edge40" class="edge">
<title>Node3&#45;&gt;Node29</title>
<path fill="none" stroke="midnightblue" d="M1325.39,-326.55C1321.88,-326.01 1318.4,-325.49 1315,-325 1192.63,-307.41 1050.03,-292.07 963.17,-283.3"/>
<polygon fill="midnightblue" stroke="midnightblue" points="963.42,-279.81 953.12,-282.29 962.72,-286.77 963.42,-279.81"/>
</g>
<!-- Node31 -->
<g id="node31" class="node">
<title>Node31</title>
<g id="a_node31"><a xlink:href="../../d9/d3e/_app_base_class_8h.html" target="_top" xlink:title=" ">
<polygon fill="none" stroke="black" points="899,-130.5 899,-158.5 1049,-158.5 1049,-130.5 899,-130.5"/>
<text text-anchor="middle" x="974" y="-140.1" font-family="Helvetica,sans-Serif" font-size="18.00">AppBaseClass.h</text>
</a>
</g>
</g>
<!-- Node3&#45;&gt;Node31 -->
<g id="edge62" class="edge">
<title>Node3&#45;&gt;Node31</title>
<path fill="none" stroke="midnightblue" d="M1352.45,-325.4C1333.22,-317.45 1311.2,-305.59 1296,-289 1265.56,-255.77 1293.05,-223.32 1258,-195 1254.06,-191.82 1141.39,-172.84 1059.17,-159.33"/>
<polygon fill="midnightblue" stroke="midnightblue" points="1059.48,-155.84 1049.05,-157.67 1058.35,-162.75 1059.48,-155.84"/>
</g>
<!-- Node37 -->
<g id="node37" class="node">
<title>Node37</title>
<g id="a_node37"><a xlink:href="../../d7/d5f/_svc_data_dictionary_8h.html" target="_top" xlink:title="Data Dictionary service provides an interface to a data dictionary service the service shall provide ...">
<polygon fill="none" stroke="black" points="1305,-260.5 1305,-288.5 1481,-288.5 1481,-260.5 1305,-260.5"/>
<text text-anchor="middle" x="1393" y="-270.1" font-family="Helvetica,sans-Serif" font-size="18.00">svcDataDictionary.h</text>
</a>
</g>
</g>
<!-- Node3&#45;&gt;Node37 -->
<g id="edge63" class="edge">
<title>Node3&#45;&gt;Node37</title>
<path fill="none" stroke="midnightblue" d="M1393,-325.45C1393,-317.76 1393,-307.81 1393,-298.82"/>
<polygon fill="midnightblue" stroke="midnightblue" points="1396.5,-298.54 1393,-288.54 1389.5,-298.54 1396.5,-298.54"/>
</g>
<!-- Node5&#45;&gt;Node4 -->
<g id="edge5" class="edge">
<title>Node5&#45;&gt;Node4</title>
<path fill="none" stroke="midnightblue" d="M791.75,-70.14C807.18,-68.27 823.67,-66.42 839,-65 1093.52,-41.42 1158.01,-46.89 1413,-29 1451.76,-26.28 1495.35,-22.9 1529.2,-20.2"/>
<polygon fill="midnightblue" stroke="midnightblue" points="1529.69,-23.67 1539.38,-19.39 1529.13,-16.69 1529.69,-23.67"/>
</g>
<!-- Node8 -->
<g id="node8" class="node">
<title>Node8</title>
<g id="a_node8"><a xlink:title=" ">
<polygon fill="none" stroke="#bfbfbf" points="2268.5,-195.5 2268.5,-223.5 2487.5,-223.5 2487.5,-195.5 2268.5,-195.5"/>
<text text-anchor="middle" x="2378" y="-205.1" font-family="Helvetica,sans-Serif" font-size="18.00">XPT2046_Touchscreen.h</text>
</a>
</g>
</g>
<!-- Node7&#45;&gt;Node8 -->
<g id="edge8" class="edge">
<title>Node7&#45;&gt;Node8</title>
<path fill="none" stroke="midnightblue" d="M2335.19,-260.45C2342.43,-252 2352.01,-240.82 2360.28,-231.18"/>
<polygon fill="midnightblue" stroke="midnightblue" points="2362.97,-233.41 2366.83,-223.54 2357.66,-228.85 2362.97,-233.41"/>
</g>
<!-- Node9&#45;&gt;Node4 -->
<g id="edge10" class="edge">
<title>Node9&#45;&gt;Node4</title>
<path fill="none" stroke="midnightblue" d="M1928.58,-267.71C2005.99,-260.31 2125.4,-245.81 2165,-224 2241.39,-181.92 2339.43,-128.83 2280,-65 2237.1,-18.92 1803.2,-15.08 1644.63,-15.23"/>
<polygon fill="midnightblue" stroke="midnightblue" points="1644.59,-11.73 1634.59,-15.24 1644.6,-18.73 1644.59,-11.73"/>
</g>
<!-- Node9&#45;&gt;Node6 -->
<g id="edge34" class="edge">
<title>Node9&#45;&gt;Node6</title>
<path fill="none" stroke="midnightblue" d="M1928.8,-268.3C2000.88,-261.71 2107.29,-248.18 2140,-224 2177.72,-196.12 2159.95,-167.6 2188,-130 2196.04,-119.23 2206.53,-108.75 2215.98,-100.23"/>
<polygon fill="midnightblue" stroke="midnightblue" points="2218.37,-102.79 2223.6,-93.57 2213.77,-97.52 2218.37,-102.79"/>
</g>
<!-- Node10 -->
<g id="node10" class="node">
<title>Node10</title>
<g id="a_node10"><a xlink:href="../../dd/da2/_eris_audio_8h.html" target="_top" xlink:title="audio block class extentions (note: autogenerated code)">
<polygon fill="none" stroke="black" points="1379.5,-195.5 1379.5,-223.5 1486.5,-223.5 1486.5,-195.5 1379.5,-195.5"/>
<text text-anchor="middle" x="1433" y="-205.1" font-family="Helvetica,sans-Serif" font-size="18.00">erisAudio.h</text>
</a>
</g>
</g>
<!-- Node9&#45;&gt;Node10 -->
<g id="edge11" class="edge">
<title>Node9&#45;&gt;Node10</title>
<path fill="none" stroke="midnightblue" d="M1789.13,-263.17C1708.03,-251.17 1575.41,-231.56 1496.93,-219.95"/>
<polygon fill="midnightblue" stroke="midnightblue" points="1497.1,-216.44 1486.7,-218.44 1496.08,-223.37 1497.1,-216.44"/>
</g>
<!-- Node11 -->
<g id="node11" class="node">
<title>Node11</title>
<g id="a_node11"><a xlink:href="../../de/db5/eris__synth__waveform_8h.html" target="_top" xlink:title=" ">
<polygon fill="none" stroke="black" points="1546.5,-130.5 1546.5,-158.5 1747.5,-158.5 1747.5,-130.5 1546.5,-130.5"/>
<text text-anchor="middle" x="1647" y="-140.1" font-family="Helvetica,sans-Serif" font-size="18.00">eris_synth_waveform.h</text>
</a>
</g>
</g>
<!-- Node10&#45;&gt;Node11 -->
<g id="edge12" class="edge">
<title>Node10&#45;&gt;Node11</title>
<path fill="none" stroke="midnightblue" d="M1477.34,-195.45C1510.91,-185.56 1557.19,-171.94 1592.93,-161.42"/>
<polygon fill="midnightblue" stroke="midnightblue" points="1594.11,-164.72 1602.72,-158.54 1592.13,-158 1594.11,-164.72"/>
</g>
<!-- Node12 -->
<g id="node12" class="node">
<title>Node12</title>
<g id="a_node12"><a xlink:href="../../df/d6c/_audio_stream_8h.html" target="_top" xlink:title=" ">
<polygon fill="none" stroke="black" points="1300,-65.5 1300,-93.5 1436,-93.5 1436,-65.5 1300,-65.5"/>
<text text-anchor="middle" x="1368" y="-75.1" font-family="Helvetica,sans-Serif" font-size="18.00">AudioStream.h</text>
</a>
</g>
</g>
<!-- Node10&#45;&gt;Node12 -->
<g id="edge29" class="edge">
<title>Node10&#45;&gt;Node12</title>
<path fill="none" stroke="midnightblue" d="M1379.39,-200.33C1334.15,-192.22 1274.48,-178.21 1260,-159 1239.89,-132.33 1276.65,-110.81 1312.62,-97.09"/>
<polygon fill="midnightblue" stroke="midnightblue" points="1314.01,-100.31 1322.21,-93.6 1311.61,-93.73 1314.01,-100.31"/>
</g>
<!-- Node16 -->
<g id="node16" class="node">
<title>Node16</title>
<g id="a_node16"><a xlink:href="../../d4/dfc/eris__analyze__fft1024_8h.html" target="_top" xlink:title=" ">
<polygon fill="none" stroke="black" points="1900.5,-130.5 1900.5,-158.5 2097.5,-158.5 2097.5,-130.5 1900.5,-130.5"/>
<text text-anchor="middle" x="1999" y="-140.1" font-family="Helvetica,sans-Serif" font-size="18.00">eris_analyze_fft1024.h</text>
</a>
</g>
</g>
<!-- Node10&#45;&gt;Node16 -->
<g id="edge18" class="edge">
<title>Node10&#45;&gt;Node16</title>
<path fill="none" stroke="midnightblue" d="M1486.5,-202.54C1578.71,-192.28 1769.27,-171.07 1890.26,-157.6"/>
<polygon fill="midnightblue" stroke="midnightblue" points="1890.74,-161.07 1900.29,-156.49 1889.97,-154.11 1890.74,-161.07"/>
</g>
<!-- Node20 -->
<g id="node20" class="node">
<title>Node20</title>
<g id="a_node20"><a xlink:href="../../d8/dc5/eris__analyze__scope_8h.html" target="_top" xlink:title=" ">
<polygon fill="none" stroke="black" points="1337.5,-130.5 1337.5,-158.5 1528.5,-158.5 1528.5,-130.5 1337.5,-130.5"/>
<text text-anchor="middle" x="1433" y="-140.1" font-family="Helvetica,sans-Serif" font-size="18.00">eris_analyze_scope.h</text>
</a>
</g>
</g>
<!-- Node10&#45;&gt;Node20 -->
<g id="edge25" class="edge">
<title>Node10&#45;&gt;Node20</title>
<path fill="none" stroke="midnightblue" d="M1433,-195.45C1433,-187.76 1433,-177.81 1433,-168.82"/>
<polygon fill="midnightblue" stroke="midnightblue" points="1436.5,-168.54 1433,-158.54 1429.5,-168.54 1436.5,-168.54"/>
</g>
<!-- Node21 -->
<g id="node21" class="node">
<title>Node21</title>
<g id="a_node21"><a xlink:title=" ">
<polygon fill="none" stroke="#bfbfbf" points="1766,-130.5 1766,-158.5 1844,-158.5 1844,-130.5 1766,-130.5"/>
<text text-anchor="middle" x="1805" y="-140.1" font-family="Helvetica,sans-Serif" font-size="18.00">Audio.h</text>
</a>
</g>
</g>
<!-- Node10&#45;&gt;Node21 -->
<g id="edge28" class="edge">
<title>Node10&#45;&gt;Node21</title>
<path fill="none" stroke="midnightblue" d="M1486.69,-202.34C1549.17,-194.73 1655.59,-180.34 1755.82,-159.09"/>
<polygon fill="midnightblue" stroke="midnightblue" points="1756.76,-162.47 1765.81,-156.95 1755.29,-155.62 1756.76,-162.47"/>
</g>
<!-- Node22 -->
<g id="node22" class="node">
<title>Node22</title>
<g id="a_node22"><a xlink:href="../../d4/dd6/eris__mixer__ext_8h.html" target="_top" xlink:title=" ">
<polygon fill="none" stroke="black" points="1067,-130.5 1067,-158.5 1213,-158.5 1213,-130.5 1067,-130.5"/>
<text text-anchor="middle" x="1140" y="-140.1" font-family="Helvetica,sans-Serif" font-size="18.00">eris_mixer_ext.h</text>
</a>
</g>
</g>
<!-- Node10&#45;&gt;Node22 -->
<g id="edge30" class="edge">
<title>Node10&#45;&gt;Node22</title>
<path fill="none" stroke="midnightblue" d="M1379.26,-196.94C1331.77,-186.73 1262.18,-171.77 1210.28,-160.61"/>
<polygon fill="midnightblue" stroke="midnightblue" points="1210.99,-157.18 1200.48,-158.5 1209.52,-164.03 1210.99,-157.18"/>
</g>
<!-- Node23 -->
<g id="node23" class="node">
<title>Node23</title>
<g id="a_node23"><a xlink:title=" ">
<polygon fill="none" stroke="#bfbfbf" points="1269,-130.5 1269,-158.5 1319,-158.5 1319,-130.5 1269,-130.5"/>
<text text-anchor="middle" x="1294" y="-140.1" font-family="Helvetica,sans-Serif" font-size="18.00">new</text>
</a>
</g>
</g>
<!-- Node10&#45;&gt;Node23 -->
<g id="edge33" class="edge">
<title>Node10&#45;&gt;Node23</title>
<path fill="none" stroke="midnightblue" d="M1404.2,-195.45C1382.11,-185.44 1351.56,-171.59 1328.23,-161.01"/>
<polygon fill="midnightblue" stroke="midnightblue" points="1329.59,-157.79 1319.04,-156.85 1326.7,-164.16 1329.59,-157.79"/>
</g>
<!-- Node11&#45;&gt;Node4 -->
<g id="edge13" class="edge">
<title>Node11&#45;&gt;Node4</title>
<path fill="none" stroke="midnightblue" d="M1573.69,-130.45C1553.61,-123.15 1534.07,-111.76 1522,-94 1507.27,-72.33 1531.33,-49.46 1554.23,-34.04"/>
<polygon fill="midnightblue" stroke="midnightblue" points="1556.34,-36.84 1562.87,-28.5 1552.56,-30.95 1556.34,-36.84"/>
</g>
<!-- Node11&#45;&gt;Node12 -->
<g id="edge14" class="edge">
<title>Node11&#45;&gt;Node12</title>
<path fill="none" stroke="midnightblue" d="M1589.19,-130.45C1544.49,-120.35 1482.5,-106.36 1435.52,-95.75"/>
<polygon fill="midnightblue" stroke="midnightblue" points="1436.26,-92.33 1425.73,-93.54 1434.72,-99.15 1436.26,-92.33"/>
</g>
<!-- Node15 -->
<g id="node15" class="node">
<title>Node15</title>
<g id="a_node15"><a xlink:title=" ">
<polygon fill="none" stroke="#bfbfbf" points="1530.5,-65.5 1530.5,-93.5 1643.5,-93.5 1643.5,-65.5 1530.5,-65.5"/>
<text text-anchor="middle" x="1587" y="-75.1" font-family="Helvetica,sans-Serif" font-size="18.00">arm_math.h</text>
</a>
</g>
</g>
<!-- Node11&#45;&gt;Node15 -->
<g id="edge17" class="edge">
<title>Node11&#45;&gt;Node15</title>
<path fill="none" stroke="midnightblue" d="M1634.57,-130.45C1626.44,-121.91 1615.66,-110.6 1606.42,-100.89"/>
<polygon fill="midnightblue" stroke="midnightblue" points="1608.85,-98.36 1599.42,-93.54 1603.78,-103.19 1608.85,-98.36"/>
</g>
<!-- Node13 -->
<g id="node13" class="node">
<title>Node13</title>
<g id="a_node13"><a xlink:title=" ">
<polygon fill="none" stroke="#bfbfbf" points="1332.5,-0.5 1332.5,-28.5 1403.5,-28.5 1403.5,-0.5 1332.5,-0.5"/>
<text text-anchor="middle" x="1368" y="-10.1" font-family="Helvetica,sans-Serif" font-size="18.00">stdio.h</text>
</a>
</g>
</g>
<!-- Node12&#45;&gt;Node13 -->
<g id="edge15" class="edge">
<title>Node12&#45;&gt;Node13</title>
<path fill="none" stroke="midnightblue" d="M1368,-65.45C1368,-57.76 1368,-47.81 1368,-38.82"/>
<polygon fill="midnightblue" stroke="midnightblue" points="1371.5,-38.54 1368,-28.54 1364.5,-38.54 1371.5,-38.54"/>
</g>
<!-- Node14 -->
<g id="node14" class="node">
<title>Node14</title>
<g id="a_node14"><a xlink:title=" ">
<polygon fill="none" stroke="#bfbfbf" points="687.5,-0.5 687.5,-28.5 764.5,-28.5 764.5,-0.5 687.5,-0.5"/>
<text text-anchor="middle" x="726" y="-10.1" font-family="Helvetica,sans-Serif" font-size="18.00">string.h</text>
</a>
</g>
</g>
<!-- Node12&#45;&gt;Node14 -->
<g id="edge16" class="edge">
<title>Node12&#45;&gt;Node14</title>
<path fill="none" stroke="midnightblue" d="M1299.9,-71.82C1169.72,-59.04 888.41,-31.44 774.93,-20.3"/>
<polygon fill="midnightblue" stroke="midnightblue" points="775.1,-16.8 764.8,-19.31 774.41,-23.77 775.1,-16.8"/>
</g>
<!-- Node16&#45;&gt;Node4 -->
<g id="edge19" class="edge">
<title>Node16&#45;&gt;Node4</title>
<path fill="none" stroke="midnightblue" d="M1902.81,-130.44C1819.83,-118.79 1710.35,-102.31 1691,-94 1671.48,-85.62 1669.94,-77.82 1653,-65 1639.86,-55.06 1625.19,-44.05 1613.03,-34.95"/>
<polygon fill="midnightblue" stroke="midnightblue" points="1614.78,-31.88 1604.68,-28.7 1610.59,-37.49 1614.78,-31.88"/>
</g>
<!-- Node16&#45;&gt;Node12 -->
<g id="edge20" class="edge">
<title>Node16&#45;&gt;Node12</title>
<path fill="none" stroke="midnightblue" d="M1900.41,-133.66C1775.07,-121.14 1561.23,-99.79 1446.4,-88.33"/>
<polygon fill="midnightblue" stroke="midnightblue" points="1446.58,-84.83 1436.28,-87.32 1445.88,-91.79 1446.58,-84.83"/>
</g>
<!-- Node16&#45;&gt;Node15 -->
<g id="edge21" class="edge">
<title>Node16&#45;&gt;Node15</title>
<path fill="none" stroke="midnightblue" d="M1901.45,-130.49C1833.16,-121.11 1739.86,-107.72 1658,-94 1656.53,-93.75 1655.04,-93.5 1653.55,-93.24"/>
<polygon fill="midnightblue" stroke="midnightblue" points="1654,-89.77 1643.54,-91.48 1652.78,-96.66 1654,-89.77"/>
</g>
<!-- Node17 -->
<g id="node17" class="node">
<title>Node17</title>
<g id="a_node17"><a xlink:title=" ">
<polygon fill="none" stroke="#bfbfbf" points="1993.5,-65.5 1993.5,-93.5 2152.5,-93.5 2152.5,-65.5 1993.5,-65.5"/>
<text text-anchor="middle" x="2073" y="-75.1" font-family="Helvetica,sans-Serif" font-size="18.00">analyze_fft1024.h</text>
</a>
</g>
</g>
<!-- Node16&#45;&gt;Node17 -->
<g id="edge22" class="edge">
<title>Node16&#45;&gt;Node17</title>
<path fill="none" stroke="midnightblue" d="M2014.33,-130.45C2024.65,-121.66 2038.44,-109.92 2050.06,-100.03"/>
<polygon fill="midnightblue" stroke="midnightblue" points="2052.34,-102.68 2057.69,-93.54 2047.8,-97.35 2052.34,-102.68"/>
</g>
<!-- Node18 -->
<g id="node18" class="node">
<title>Node18</title>
<g id="a_node18"><a xlink:title=" ">
<polygon fill="none" stroke="#bfbfbf" points="1700,-65.5 1700,-93.5 1776,-93.5 1776,-65.5 1700,-65.5"/>
<text text-anchor="middle" x="1738" y="-75.1" font-family="Helvetica,sans-Serif" font-size="18.00">stdlib.h</text>
</a>
</g>
</g>
<!-- Node16&#45;&gt;Node18 -->
<g id="edge23" class="edge">
<title>Node16&#45;&gt;Node18</title>
<path fill="none" stroke="midnightblue" d="M1939.6,-130.46C1896.78,-120.88 1837.67,-107.26 1786,-94 1785.9,-93.97 1785.8,-93.95 1785.7,-93.92"/>
<polygon fill="midnightblue" stroke="midnightblue" points="1786.77,-90.59 1776.21,-91.42 1784.98,-97.35 1786.77,-90.59"/>
</g>
<!-- Node19 -->
<g id="node19" class="node">
<title>Node19</title>
<g id="a_node19"><a xlink:href="../../da/d3d/data__windows__f32_8h.html" target="_top" xlink:title=" ">
<polygon fill="none" stroke="black" points="1794.5,-65.5 1794.5,-93.5 1975.5,-93.5 1975.5,-65.5 1794.5,-65.5"/>
<text text-anchor="middle" x="1885" y="-75.1" font-family="Helvetica,sans-Serif" font-size="18.00">data_windows_f32.h</text>
</a>
</g>
</g>
<!-- Node16&#45;&gt;Node19 -->
<g id="edge24" class="edge">
<title>Node16&#45;&gt;Node19</title>
<path fill="none" stroke="midnightblue" d="M1975.38,-130.45C1958.64,-121.2 1935.98,-108.67 1917.53,-98.48"/>
<polygon fill="midnightblue" stroke="midnightblue" points="1919.04,-95.31 1908.59,-93.54 1915.65,-101.44 1919.04,-95.31"/>
</g>
<!-- Node20&#45;&gt;Node4 -->
<g id="edge26" class="edge">
<title>Node20&#45;&gt;Node4</title>
<path fill="none" stroke="midnightblue" d="M1445.06,-130.23C1460.16,-113.97 1487.18,-85.99 1513,-65 1526.67,-53.88 1542.85,-42.85 1556.58,-34.03"/>
<polygon fill="midnightblue" stroke="midnightblue" points="1558.62,-36.88 1565.2,-28.57 1554.88,-30.96 1558.62,-36.88"/>
</g>
<!-- Node20&#45;&gt;Node12 -->
<g id="edge27" class="edge">
<title>Node20&#45;&gt;Node12</title>
<path fill="none" stroke="midnightblue" d="M1419.53,-130.45C1410.64,-121.83 1398.82,-110.37 1388.74,-100.6"/>
<polygon fill="midnightblue" stroke="midnightblue" points="1391.07,-97.98 1381.45,-93.54 1386.2,-103.01 1391.07,-97.98"/>
</g>
<!-- Node22&#45;&gt;Node4 -->
<g id="edge31" class="edge">
<title>Node22&#45;&gt;Node4</title>
<path fill="none" stroke="midnightblue" d="M1172.34,-130.32C1194.16,-121.04 1223.36,-107.83 1248,-94 1268.1,-82.72 1269.59,-73.54 1291,-65 1369.8,-33.57 1468.11,-22.1 1529.23,-17.91"/>
<polygon fill="midnightblue" stroke="midnightblue" points="1529.7,-21.38 1539.45,-17.25 1529.25,-14.4 1529.7,-21.38"/>
</g>
<!-- Node22&#45;&gt;Node12 -->
<g id="edge32" class="edge">
<title>Node22&#45;&gt;Node12</title>
<path fill="none" stroke="midnightblue" d="M1187.24,-130.45C1223.16,-120.52 1272.74,-106.82 1310.88,-96.28"/>
<polygon fill="midnightblue" stroke="midnightblue" points="1312.11,-99.57 1320.82,-93.54 1310.25,-92.83 1312.11,-99.57"/>
</g>
<!-- Node25 -->
<g id="node25" class="node">
<title>Node25</title>
<g id="a_node25"><a xlink:title=" ">
<polygon fill="none" stroke="#bfbfbf" points="152.5,-0.5 152.5,-28.5 277.5,-28.5 277.5,-0.5 152.5,-0.5"/>
<text text-anchor="middle" x="215" y="-10.1" font-family="Helvetica,sans-Serif" font-size="18.00">ILI9341_t3n.h</text>
</a>
</g>
</g>
<!-- Node24&#45;&gt;Node25 -->
<g id="edge36" class="edge">
<title>Node24&#45;&gt;Node25</title>
<path fill="none" stroke="midnightblue" d="M345.81,-65.45C320.59,-55.82 286.07,-42.64 258.82,-32.23"/>
<polygon fill="midnightblue" stroke="midnightblue" points="259.73,-28.83 249.14,-28.54 257.24,-35.37 259.73,-28.83"/>
</g>
<!-- Node26 -->
<g id="node26" class="node">
<title>Node26</title>
<g id="a_node26"><a xlink:title=" ">
<polygon fill="none" stroke="#bfbfbf" points="296,-0.5 296,-28.5 470,-28.5 470,-0.5 296,-0.5"/>
<text text-anchor="middle" x="383" y="-10.1" font-family="Helvetica,sans-Serif" font-size="18.00">SdCard/SdioCard.h</text>
</a>
</g>
</g>
<!-- Node24&#45;&gt;Node26 -->
<g id="edge37" class="edge">
<title>Node24&#45;&gt;Node26</title>
<path fill="none" stroke="midnightblue" d="M380.62,-65.45C380.99,-57.76 381.46,-47.81 381.89,-38.82"/>
<polygon fill="midnightblue" stroke="midnightblue" points="385.4,-38.69 382.38,-28.54 378.41,-38.36 385.4,-38.69"/>
</g>
<!-- Node27 -->
<g id="node27" class="node">
<title>Node27</title>
<g id="a_node27"><a xlink:title=" ">
<polygon fill="none" stroke="#bfbfbf" points="0,-0.5 0,-28.5 134,-28.5 134,-0.5 0,-0.5"/>
<text text-anchor="middle" x="67" y="-10.1" font-family="Helvetica,sans-Serif" font-size="18.00">SdFatConfig.h</text>
</a>
</g>
</g>
<!-- Node24&#45;&gt;Node27 -->
<g id="edge38" class="edge">
<title>Node24&#45;&gt;Node27</title>
<path fill="none" stroke="midnightblue" d="M315.15,-65.45C264.68,-55.29 194.58,-41.18 141.76,-30.55"/>
<polygon fill="midnightblue" stroke="midnightblue" points="142.26,-27.08 131.77,-28.54 140.88,-33.94 142.26,-27.08"/>
</g>
<!-- Node28 -->
<g id="node28" class="node">
<title>Node28</title>
<g id="a_node28"><a xlink:title=" ">
<polygon fill="none" stroke="#bfbfbf" points="488.5,-0.5 488.5,-28.5 569.5,-28.5 569.5,-0.5 488.5,-0.5"/>
<text text-anchor="middle" x="529" y="-10.1" font-family="Helvetica,sans-Serif" font-size="18.00">SdFat.h</text>
</a>
</g>
</g>
<!-- Node24&#45;&gt;Node28 -->
<g id="edge39" class="edge">
<title>Node24&#45;&gt;Node28</title>
<path fill="none" stroke="midnightblue" d="M410.87,-65.45C433.45,-55.9 464.28,-42.87 488.78,-32.51"/>
<polygon fill="midnightblue" stroke="midnightblue" points="490.32,-35.66 498.17,-28.54 487.59,-29.21 490.32,-35.66"/>
</g>
<!-- Node29&#45;&gt;Node5 -->
<g id="edge41" class="edge">
<title>Node29&#45;&gt;Node5</title>
<path fill="none" stroke="midnightblue" d="M873.81,-260.22C862.79,-244.43 843.57,-217.39 826,-195 799.64,-161.41 767.28,-123.91 747.4,-101.26"/>
<polygon fill="midnightblue" stroke="midnightblue" points="749.91,-98.82 740.68,-93.63 744.66,-103.45 749.91,-98.82"/>
</g>
<!-- Node29&#45;&gt;Node10 -->
<g id="edge43" class="edge">
<title>Node29&#45;&gt;Node10</title>
<path fill="none" stroke="midnightblue" d="M953.22,-265.46C1060.98,-253.11 1265.53,-229.68 1369.26,-217.8"/>
<polygon fill="midnightblue" stroke="midnightblue" points="1369.74,-221.27 1379.28,-216.65 1368.94,-214.31 1369.74,-221.27"/>
</g>
<!-- Node29&#45;&gt;Node14 -->
<g id="edge42" class="edge">
<title>Node29&#45;&gt;Node14</title>
<path fill="none" stroke="midnightblue" d="M812.95,-273.45C724.99,-271.72 581.52,-262.83 548,-224 487.41,-153.8 622.15,-69.68 690,-33.5"/>
<polygon fill="midnightblue" stroke="midnightblue" points="691.87,-36.46 699.1,-28.72 688.62,-30.27 691.87,-36.46"/>
</g>
<!-- Node30 -->
<g id="node30" class="node">
<title>Node30</title>
<g id="a_node30"><a xlink:href="../../de/d46/_svc_serial_command_interface_8h.html" target="_top" xlink:title=" ">
<polygon fill="none" stroke="black" points="557,-195.5 557,-223.5 817,-223.5 817,-195.5 557,-195.5"/>
<text text-anchor="middle" x="687" y="-205.1" font-family="Helvetica,sans-Serif" font-size="18.00">SvcSerialCommandInterface.h</text>
</a>
</g>
</g>
<!-- Node29&#45;&gt;Node30 -->
<g id="edge44" class="edge">
<title>Node29&#45;&gt;Node30</title>
<path fill="none" stroke="midnightblue" d="M842.39,-260.45C811.9,-250.65 769.98,-237.17 737.36,-226.69"/>
<polygon fill="midnightblue" stroke="midnightblue" points="738.15,-223.26 727.56,-223.54 736.01,-229.93 738.15,-223.26"/>
</g>
<!-- Node36 -->
<g id="node36" class="node">
<title>Node36</title>
<g id="a_node36"><a xlink:href="../../d6/d59/_svc_eris_audio_parameter_controller_8h.html" target="_top" xlink:title=" ">
<polygon fill="none" stroke="black" points="949,-195.5 949,-223.5 1249,-223.5 1249,-195.5 949,-195.5"/>
<text text-anchor="middle" x="1099" y="-205.1" font-family="Helvetica,sans-Serif" font-size="18.00">SvcErisAudioParameterController.h</text>
</a>
</g>
</g>
<!-- Node29&#45;&gt;Node36 -->
<g id="edge60" class="edge">
<title>Node29&#45;&gt;Node36</title>
<path fill="none" stroke="midnightblue" d="M927.76,-260.45C961.64,-250.56 1008.35,-236.94 1044.43,-226.42"/>
<polygon fill="midnightblue" stroke="midnightblue" points="1045.68,-229.7 1054.3,-223.54 1043.72,-222.98 1045.68,-229.7"/>
</g>
<!-- Node30&#45;&gt;Node3 -->
<g id="edge47" class="edge">
<title>Node30&#45;&gt;Node3</title>
<path fill="none" stroke="midnightblue" d="M701.15,-223.68C721.89,-242.07 762.59,-274.79 804,-289 911.67,-325.96 1201.99,-311.28 1315,-325 1315.11,-325.01 1315.21,-325.03 1315.32,-325.04"/>
<polygon fill="midnightblue" stroke="midnightblue" points="1315.05,-328.53 1325.42,-326.37 1315.96,-321.59 1315.05,-328.53"/>
</g>
<!-- Node30&#45;&gt;Node5 -->
<g id="edge45" class="edge">
<title>Node30&#45;&gt;Node5</title>
<path fill="none" stroke="midnightblue" d="M703.72,-195.3C713.73,-186.29 725.52,-173.4 731,-159 737.73,-141.3 736.57,-119.69 734.09,-103.63"/>
<polygon fill="midnightblue" stroke="midnightblue" points="737.49,-102.72 732.26,-93.51 730.6,-103.97 737.49,-102.72"/>
</g>
<!-- Node30&#45;&gt;Node14 -->
<g id="edge46" class="edge">
<title>Node30&#45;&gt;Node14</title>
<path fill="none" stroke="midnightblue" d="M670.28,-195.3C660.27,-186.29 648.48,-173.4 643,-159 638.42,-146.95 641.64,-142.82 643,-130 646.13,-100.61 640.8,-89.71 657,-65 665.26,-52.4 677.92,-41.97 690.15,-33.99"/>
<polygon fill="midnightblue" stroke="midnightblue" points="692.22,-36.83 698.92,-28.61 688.56,-30.86 692.22,-36.83"/>
</g>
<!-- Node30&#45;&gt;Node28 -->
<g id="edge58" class="edge">
<title>Node30&#45;&gt;Node28</title>
<path fill="none" stroke="midnightblue" d="M672.43,-195.15C662.15,-185.48 648.25,-171.88 637,-159 601.1,-117.88 563.8,-65.9 543.8,-37.14"/>
<polygon fill="midnightblue" stroke="midnightblue" points="546.5,-34.89 537.93,-28.66 540.74,-38.87 546.5,-34.89"/>
</g>
<!-- Node30&#45;&gt;Node31 -->
<g id="edge48" class="edge">
<title>Node30&#45;&gt;Node31</title>
<path fill="none" stroke="midnightblue" d="M746.47,-195.45C792.45,-185.35 856.21,-171.36 904.54,-160.75"/>
<polygon fill="midnightblue" stroke="midnightblue" points="905.59,-164.1 914.61,-158.54 904.09,-157.26 905.59,-164.1"/>
</g>
<!-- Node35 -->
<g id="node35" class="node">
<title>Node35</title>
<g id="a_node35"><a xlink:title=" ">
<polygon fill="none" stroke="#bfbfbf" points="652,-130.5 652,-158.5 722,-158.5 722,-130.5 652,-130.5"/>
<text text-anchor="middle" x="687" y="-140.1" font-family="Helvetica,sans-Serif" font-size="18.00">Print.h</text>
</a>
</g>
</g>
<!-- Node30&#45;&gt;Node35 -->
<g id="edge59" class="edge">
<title>Node30&#45;&gt;Node35</title>
<path fill="none" stroke="midnightblue" d="M687,-195.45C687,-187.76 687,-177.81 687,-168.82"/>
<polygon fill="midnightblue" stroke="midnightblue" points="690.5,-168.54 687,-158.54 683.5,-168.54 690.5,-168.54"/>
</g>
<!-- Node31&#45;&gt;Node4 -->
<g id="edge50" class="edge">
<title>Node31&#45;&gt;Node4</title>
<path fill="none" stroke="midnightblue" d="M1046.89,-130.48C1112.19,-118.5 1199.94,-101.49 1215,-94 1232.48,-85.3 1230.28,-73.19 1248,-65 1296.85,-42.42 1446.01,-27.03 1529.27,-19.95"/>
<polygon fill="midnightblue" stroke="midnightblue" points="1529.66,-23.43 1539.34,-19.1 1529.08,-16.45 1529.66,-23.43"/>
</g>
<!-- Node31&#45;&gt;Node5 -->
<g id="edge49" class="edge">
<title>Node31&#45;&gt;Node5</title>
<path fill="none" stroke="midnightblue" d="M923.24,-130.45C884.39,-120.46 830.69,-106.65 789.59,-96.08"/>
<polygon fill="midnightblue" stroke="midnightblue" points="790.26,-92.64 779.7,-93.54 788.51,-99.42 790.26,-92.64"/>
</g>
<!-- Node31&#45;&gt;Node6 -->
<g id="edge52" class="edge">
<title>Node31&#45;&gt;Node6</title>
<path fill="none" stroke="midnightblue" d="M1049.05,-130.96C1052.07,-130.6 1055.06,-130.28 1058,-130 1546.67,-82.96 1673.62,-143.98 2162,-94 2173.95,-92.78 2186.83,-90.82 2198.61,-88.76"/>
<polygon fill="midnightblue" stroke="midnightblue" points="2199.42,-92.17 2208.64,-86.95 2198.17,-85.29 2199.42,-92.17"/>
</g>
<!-- Node31&#45;&gt;Node24 -->
<g id="edge53" class="edge">
<title>Node31&#45;&gt;Node24</title>
<path fill="none" stroke="midnightblue" d="M898.77,-135.52C790.48,-124.04 590.79,-102.86 473.27,-90.39"/>
<polygon fill="midnightblue" stroke="midnightblue" points="473.52,-86.9 463.2,-89.32 472.78,-93.86 473.52,-86.9"/>
</g>
<!-- Node31&#45;&gt;Node29 -->
<g id="edge55" class="edge">
<title>Node31&#45;&gt;Node29</title>
<path fill="none" stroke="midnightblue" d="M964.52,-158.84C948.79,-180.95 917.18,-225.42 898.28,-252.01"/>
<polygon fill="midnightblue" stroke="midnightblue" points="895.34,-250.11 892.4,-260.28 901.04,-254.16 895.34,-250.11"/>
</g>
<!-- Node32 -->
<g id="node32" class="node">
<title>Node32</title>
<g id="a_node32"><a xlink:title=" ">
<polygon fill="none" stroke="#bfbfbf" points="1070,-65.5 1070,-93.5 1206,-93.5 1206,-65.5 1070,-65.5"/>
<text text-anchor="middle" x="1138" y="-75.1" font-family="Helvetica,sans-Serif" font-size="18.00">elapsedMillis.h</text>
</a>
</g>
</g>
<!-- Node31&#45;&gt;Node32 -->
<g id="edge51" class="edge">
<title>Node31&#45;&gt;Node32</title>
<path fill="none" stroke="midnightblue" d="M1007.98,-130.45C1033.05,-120.82 1067.36,-107.64 1094.44,-97.23"/>
<polygon fill="midnightblue" stroke="midnightblue" points="1095.98,-100.39 1104.06,-93.54 1093.47,-93.86 1095.98,-100.39"/>
</g>
<!-- Node33 -->
<g id="node33" class="node">
<title>Node33</title>
<g id="a_node33"><a xlink:title=" ">
<polygon fill="none" stroke="#bfbfbf" points="848,-65.5 848,-93.5 1052,-93.5 1052,-65.5 848,-65.5"/>
<text text-anchor="middle" x="950" y="-75.1" font-family="Helvetica,sans-Serif" font-size="18.00">ili9341_t3n_font_Arial.h</text>
</a>
</g>
</g>
<!-- Node31&#45;&gt;Node33 -->
<g id="edge54" class="edge">
<title>Node31&#45;&gt;Node33</title>
<path fill="none" stroke="midnightblue" d="M969.03,-130.45C966,-122.51 962.06,-112.15 958.54,-102.93"/>
<polygon fill="midnightblue" stroke="midnightblue" points="961.8,-101.64 954.97,-93.54 955.26,-104.13 961.8,-101.64"/>
</g>
<!-- Node34 -->
<g id="node34" class="node">
<title>Node34</title>
<g id="a_node34"><a xlink:href="../../df/d51/_eris_utils_8h.html" target="_top" xlink:title=" ">
<polygon fill="none" stroke="black" points="2543,-65.5 2543,-93.5 2641,-93.5 2641,-65.5 2543,-65.5"/>
<text text-anchor="middle" x="2592" y="-75.1" font-family="Helvetica,sans-Serif" font-size="18.00">ErisUtils.h</text>
</a>
</g>
</g>
<!-- Node31&#45;&gt;Node34 -->
<g id="edge56" class="edge">
<title>Node31&#45;&gt;Node34</title>
<path fill="none" stroke="midnightblue" d="M1049.04,-130.94C1052.06,-130.6 1055.06,-130.28 1058,-130 1598.93,-78.78 1737.01,-113.74 2280,-94 2368.02,-90.8 2469.97,-86.22 2532.73,-83.31"/>
<polygon fill="midnightblue" stroke="midnightblue" points="2533.01,-86.8 2542.83,-82.84 2532.68,-79.81 2533.01,-86.8"/>
</g>
<!-- Node34&#45;&gt;Node4 -->
<g id="edge57" class="edge">
<title>Node34&#45;&gt;Node4</title>
<path fill="none" stroke="midnightblue" d="M2542.95,-67.2C2538.25,-66.36 2533.55,-65.6 2529,-65 2196.46,-20.92 1792.99,-15.69 1645,-15.36"/>
<polygon fill="midnightblue" stroke="midnightblue" points="1644.79,-11.86 1634.79,-15.34 1644.78,-18.86 1644.79,-11.86"/>
</g>
<!-- Node36&#45;&gt;Node31 -->
<g id="edge61" class="edge">
<title>Node36&#45;&gt;Node31</title>
<path fill="none" stroke="midnightblue" d="M1073.1,-195.45C1054.5,-186.07 1029.21,-173.33 1008.84,-163.06"/>
<polygon fill="midnightblue" stroke="midnightblue" points="1010.37,-159.91 999.87,-158.54 1007.22,-166.16 1010.37,-159.91"/>
</g>
<!-- Node37&#45;&gt;Node4 -->
<g id="edge64" class="edge">
<title>Node37&#45;&gt;Node4</title>
<path fill="none" stroke="midnightblue" d="M1481.15,-267.32C1647.88,-254.36 2002.16,-220.33 2107,-159 2139.67,-139.89 2148.98,-129.53 2162,-94 2166.43,-81.9 2170.71,-74.5 2162,-65 2127.51,-27.41 1784,-18.3 1644.97,-16.15"/>
<polygon fill="midnightblue" stroke="midnightblue" points="1644.97,-12.65 1634.92,-16 1644.87,-19.65 1644.97,-12.65"/>
</g>
<!-- Node37&#45;&gt;Node14 -->
<g id="edge65" class="edge">
<title>Node37&#45;&gt;Node14</title>
<path fill="none" stroke="midnightblue" d="M1304.58,-271.37C1191.11,-267.35 1001.53,-255.94 940,-224 856.43,-180.62 870.84,-127.03 800,-65 786.93,-53.56 771.08,-42.62 757.4,-33.95"/>
<polygon fill="midnightblue" stroke="midnightblue" points="759.12,-30.9 748.78,-28.6 755.43,-36.85 759.12,-30.9"/>
</g>
<!-- Node37&#45;&gt;Node15 -->
<g id="edge66" class="edge">
<title>Node37&#45;&gt;Node15</title>
<path fill="none" stroke="midnightblue" d="M1481.01,-264.35C1601.39,-249.8 1807.7,-216.95 1853,-159 1941.27,-46.06 1999.68,-161.13 1653.57,-94.86"/>
<polygon fill="midnightblue" stroke="midnightblue" points="1654.23,-91.42 1643.74,-92.95 1652.89,-98.29 1654.23,-91.42"/>
</g>
<!-- Node37&#45;&gt;Node30 -->
<g id="edge67" class="edge">
<title>Node37&#45;&gt;Node30</title>
<path fill="none" stroke="midnightblue" d="M1304.66,-265.62C1184.79,-254.92 969.31,-235.69 827.22,-223.01"/>
<polygon fill="midnightblue" stroke="midnightblue" points="827.39,-219.51 817.12,-222.11 826.77,-226.49 827.39,-219.51"/>
</g>
<!-- Node38&#45;&gt;Node3 -->
<g id="edge69" class="edge">
<title>Node38&#45;&gt;Node3</title>
<path fill="none" stroke="midnightblue" d="M1509.54,-390.45C1487.27,-380.9 1456.86,-367.87 1432.68,-357.51"/>
<polygon fill="midnightblue" stroke="midnightblue" points="1433.99,-354.26 1423.42,-353.54 1431.23,-360.69 1433.99,-354.26"/>
</g>
<!-- Node38&#45;&gt;Node5 -->
<g id="edge70" class="edge">
<title>Node38&#45;&gt;Node5</title>
<path fill="none" stroke="midnightblue" d="M1539.33,-390.25C1537.16,-362.05 1528.07,-295.77 1490,-260 1485.12,-255.42 1264.58,-196.23 1258,-195 1096.48,-164.72 1048.14,-203.72 890,-159 841.52,-145.29 789.92,-117.49 758.57,-98.93"/>
<polygon fill="midnightblue" stroke="midnightblue" points="760.27,-95.87 749.9,-93.73 756.67,-101.87 760.27,-95.87"/>
</g>
<!-- Node38&#45;&gt;Node34 -->
<g id="edge71" class="edge">
<title>Node38&#45;&gt;Node34</title>
<path fill="none" stroke="midnightblue" d="M1610.18,-391.33C1613.16,-390.87 1616.11,-390.42 1619,-390 1722.56,-374.82 2554,-380.16 2554,-275.5 2554,-275.5 2554,-275.5 2554,-208.5 2554,-170.2 2569.83,-128.01 2581.06,-102.92"/>
<polygon fill="midnightblue" stroke="midnightblue" points="2584.36,-104.12 2585.38,-93.57 2578.01,-101.18 2584.36,-104.12"/>
</g>
<!-- Node39&#45;&gt;Node3 -->
<g id="edge73" class="edge">
<title>Node39&#45;&gt;Node3</title>
<path fill="none" stroke="midnightblue" d="M1632.43,-390.45C1583.83,-380.31 1516.38,-366.24 1465.45,-355.61"/>
<polygon fill="midnightblue" stroke="midnightblue" points="1466,-352.15 1455.49,-353.54 1464.57,-359.01 1466,-352.15"/>
</g>
<!-- Node39&#45;&gt;Node34 -->
<g id="edge74" class="edge">
<title>Node39&#45;&gt;Node34</title>
<path fill="none" stroke="midnightblue" d="M1762.32,-404.04C1956.06,-405 2505.19,-403.29 2568,-354 2596.7,-331.48 2592,-311.98 2592,-275.5 2592,-275.5 2592,-275.5 2592,-208.5 2592,-171.91 2592,-129.45 2592,-103.79"/>
<polygon fill="midnightblue" stroke="midnightblue" points="2595.5,-103.58 2592,-93.58 2588.5,-103.58 2595.5,-103.58"/>
</g>
<!-- Node40&#45;&gt;Node3 -->
<g id="edge76" class="edge">
<title>Node40&#45;&gt;Node3</title>
<path fill="none" stroke="midnightblue" d="M1394.59,-390.45C1394.34,-382.76 1394.03,-372.81 1393.74,-363.82"/>
<polygon fill="midnightblue" stroke="midnightblue" points="1397.23,-363.42 1393.41,-353.54 1390.23,-363.64 1397.23,-363.42"/>
</g>
<!-- Node41&#45;&gt;Node2 -->
<g id="edge79" class="edge">
<title>Node41&#45;&gt;Node2</title>
<path fill="none" stroke="midnightblue" d="M1214.63,-390.45C1203.61,-381.66 1188.89,-369.92 1176.49,-360.03"/>
<polygon fill="midnightblue" stroke="midnightblue" points="1178.35,-357.04 1168.35,-353.54 1173.98,-362.51 1178.35,-357.04"/>
</g>
<!-- Node41&#45;&gt;Node3 -->
<g id="edge80" class="edge">
<title>Node41&#45;&gt;Node3</title>
<path fill="none" stroke="midnightblue" d="M1264.57,-390.45C1289.33,-380.82 1323.22,-367.64 1349.97,-357.23"/>
<polygon fill="midnightblue" stroke="midnightblue" points="1351.43,-360.42 1359.48,-353.54 1348.89,-353.9 1351.43,-360.42"/>
</g>
<!-- Node42 -->
<g id="node42" class="node">
<title>Node42</title>
<g id="a_node42"><a xlink:title=" ">
<polygon fill="none" stroke="#bfbfbf" points="1238.5,-325.5 1238.5,-353.5 1305.5,-353.5 1305.5,-325.5 1238.5,-325.5"/>
<text text-anchor="middle" x="1272" y="-335.1" font-family="Helvetica,sans-Serif" font-size="18.00">float.h</text>
</a>
</g>
</g>
<!-- Node41&#45;&gt;Node42 -->
<g id="edge78" class="edge">
<title>Node41&#45;&gt;Node42</title>
<path fill="none" stroke="midnightblue" d="M1239.5,-390.45C1244.83,-382.25 1251.83,-371.49 1257.97,-362.05"/>
<polygon fill="midnightblue" stroke="midnightblue" points="1260.99,-363.83 1263.52,-353.54 1255.13,-360.01 1260.99,-363.83"/>
</g>
</g>
</svg>
