<?xml version="1.0" encoding="UTF-8" standalone="no"?>
<!DOCTYPE svg PUBLIC "-//W3C//DTD SVG 1.1//EN"
 "http://www.w3.org/Graphics/SVG/1.1/DTD/svg11.dtd">
<!-- Generated by graphviz version 2.47.3 (20210619.1520)
 -->
<!-- Title: FFTReadRangeStruct Pages: 1 -->
<svg width="220pt" height="289pt"
 viewBox="0.00 0.00 220.00 289.00" xmlns="http://www.w3.org/2000/svg" xmlns:xlink="http://www.w3.org/1999/xlink">
<g id="graph0" class="graph" transform="scale(1 1) rotate(0) translate(4 285)">
<title>FFTReadRangeStruct</title>
<!-- Node1 -->
<g id="node1" class="node">
<title>Node1</title>
<g id="a_node1"><a xlink:title=" ">
<polygon fill="#bfbfbf" stroke="black" points="0.5,-0.5 0.5,-63.5 131.5,-63.5 131.5,-0.5 0.5,-0.5"/>
<text text-anchor="middle" x="66" y="-49.9" font-family="Helvetica,sans-Serif" font-size="12.00">FFTReadRangeStruct</text>
<polyline fill="none" stroke="black" points="0.5,-42.5 131.5,-42.5 "/>
<text text-anchor="middle" x="66" y="-28.9" font-family="Helvetica,sans-Serif" font-size="12.00"> </text>
<polyline fill="none" stroke="black" points="0.5,-21.5 131.5,-21.5 "/>
<text text-anchor="middle" x="66" y="-7.9" font-family="Helvetica,sans-Serif" font-size="12.00"> </text>
</a>
</g>
</g>
<!-- Node2 -->
<g id="node2" class="node">
<title>Node2</title>
<g id="a_node2"><a xlink:title=" ">
<polygon fill="none" stroke="#bfbfbf" points="0,-217.5 0,-280.5 58,-280.5 58,-217.5 0,-217.5"/>
<text text-anchor="middle" x="29" y="-266.9" font-family="Helvetica,sans-Serif" font-size="12.00">uint16_t</text>
<polyline fill="none" stroke="#bfbfbf" points="0,-259.5 58,-259.5 "/>
<text text-anchor="middle" x="29" y="-245.9" font-family="Helvetica,sans-Serif" font-size="12.00"> </text>
<polyline fill="none" stroke="#bfbfbf" points="0,-238.5 58,-238.5 "/>
<text text-anchor="middle" x="29" y="-224.9" font-family="Helvetica,sans-Serif" font-size="12.00"> </text>
</a>
</g>
</g>
<!-- Node2&#45;&gt;Node1 -->
<g id="edge1" class="edge">
<title>Node2&#45;&gt;Node1</title>
<path fill="none" stroke="#404040" d="M23.66,-217.41C18.98,-183.39 15,-127.28 30,-82 30.9,-79.29 32,-76.61 33.27,-73.98"/>
<polygon fill="none" stroke="#404040" points="33.28,-73.96 32.77,-66.76 39.21,-63.52 39.73,-70.71 33.28,-73.96"/>
<text text-anchor="middle" x="55.5" y="-156.9" font-family="Helvetica,sans-Serif" font-size="12.00"> +cqtBin</text>
<text text-anchor="middle" x="55.5" y="-143.9" font-family="Helvetica,sans-Serif" font-size="12.00">+peakBin</text>
<text text-anchor="middle" x="55.5" y="-130.9" font-family="Helvetica,sans-Serif" font-size="12.00">+startBin</text>
<text text-anchor="middle" x="55.5" y="-117.9" font-family="Helvetica,sans-Serif" font-size="12.00">+stopBin</text>
</g>
<!-- Node3 -->
<g id="node3" class="node">
<title>Node3</title>
<g id="a_node3"><a xlink:title=" ">
<polygon fill="none" stroke="#bfbfbf" points="84,-217.5 84,-280.5 122,-280.5 122,-217.5 84,-217.5"/>
<text text-anchor="middle" x="103" y="-266.9" font-family="Helvetica,sans-Serif" font-size="12.00">float</text>
<polyline fill="none" stroke="#bfbfbf" points="84,-259.5 122,-259.5 "/>
<text text-anchor="middle" x="103" y="-245.9" font-family="Helvetica,sans-Serif" font-size="12.00"> </text>
<polyline fill="none" stroke="#bfbfbf" points="84,-238.5 122,-238.5 "/>
<text text-anchor="middle" x="103" y="-224.9" font-family="Helvetica,sans-Serif" font-size="12.00"> </text>
</a>
</g>
</g>
<!-- Node3&#45;&gt;Node1 -->
<g id="edge2" class="edge">
<title>Node3&#45;&gt;Node1</title>
<path fill="none" stroke="#404040" d="M100.48,-217.45C97.36,-183.95 91.18,-128.73 81,-82 80.53,-79.84 80.01,-77.65 79.46,-75.44"/>
<polygon fill="none" stroke="#404040" points="79.4,-75.21 73.95,-70.48 76.23,-63.64 81.67,-68.37 79.4,-75.21"/>
<text text-anchor="middle" x="155" y="-189.4" font-family="Helvetica,sans-Serif" font-size="12.00"> +avgValueFast</text>
<text text-anchor="middle" x="155" y="-176.4" font-family="Helvetica,sans-Serif" font-size="12.00">+avgValueSlow</text>
<text text-anchor="middle" x="155" y="-163.4" font-family="Helvetica,sans-Serif" font-size="12.00">+estimatedFrequency</text>
<text text-anchor="middle" x="155" y="-150.4" font-family="Helvetica,sans-Serif" font-size="12.00">+peakFrequency</text>
<text text-anchor="middle" x="155" y="-137.4" font-family="Helvetica,sans-Serif" font-size="12.00">+peakValue</text>
<text text-anchor="middle" x="155" y="-124.4" font-family="Helvetica,sans-Serif" font-size="12.00">+phase</text>
<text text-anchor="middle" x="155" y="-111.4" font-family="Helvetica,sans-Serif" font-size="12.00">+startFrequency</text>
<text text-anchor="middle" x="155" y="-98.4" font-family="Helvetica,sans-Serif" font-size="12.00">+stopFrequency</text>
<text text-anchor="middle" x="155" y="-85.4" font-family="Helvetica,sans-Serif" font-size="12.00">+transientValue</text>
</g>
</g>
</svg>
