<?xml version="1.0" encoding="UTF-8" standalone="no"?>
<!DOCTYPE svg PUBLIC "-//W3C//DTD SVG 1.1//EN"
 "http://www.w3.org/Graphics/SVG/1.1/DTD/svg11.dtd">
<!-- Generated by graphviz version 2.47.3 (20210619.1520)
 -->
<!-- Title: D:/brian/Dev/Eris/ERISCore/lib/SdFat&#45;master/src/common/FsName.h Pages: 1 -->
<svg width="556pt" height="392pt"
 viewBox="0.00 0.00 555.50 392.00" xmlns="http://www.w3.org/2000/svg" xmlns:xlink="http://www.w3.org/1999/xlink">
<g id="graph0" class="graph" transform="scale(1 1) rotate(0) translate(4 388)">
<title>D:/brian/Dev/Eris/ERISCore/lib/SdFat&#45;master/src/common/FsName.h</title>
<polygon fill="white" stroke="transparent" points="-4,4 -4,-388 551.5,-388 551.5,4 -4,4"/>
<!-- Node1 -->
<g id="node1" class="node">
<title>Node1</title>
<g id="a_node1"><a xlink:title="FsName class.">
<polygon fill="#bfbfbf" stroke="black" points="193,-336.5 193,-383.5 366,-383.5 366,-336.5 193,-336.5"/>
<text text-anchor="start" x="201" y="-369.9" font-family="Helvetica,sans-Serif" font-size="12.00">D:/brian/Dev/Eris/ERISCore</text>
<text text-anchor="start" x="201" y="-356.9" font-family="Helvetica,sans-Serif" font-size="12.00">/lib/SdFat&#45;master/src/common</text>
<text text-anchor="middle" x="279.5" y="-343.9" font-family="Helvetica,sans-Serif" font-size="12.00">/FsName.h</text>
</a>
</g>
</g>
<!-- Node2 -->
<g id="node2" class="node">
<title>Node2</title>
<g id="a_node2"><a xlink:href="../../d7/d0e/_fs_name_8cpp.html" target="_top" xlink:title=" ">
<polygon fill="white" stroke="black" points="0,-252.5 0,-299.5 173,-299.5 173,-252.5 0,-252.5"/>
<text text-anchor="start" x="8" y="-285.9" font-family="Helvetica,sans-Serif" font-size="12.00">D:/brian/Dev/Eris/ERISCore</text>
<text text-anchor="start" x="8" y="-272.9" font-family="Helvetica,sans-Serif" font-size="12.00">/lib/SdFat&#45;master/src/common</text>
<text text-anchor="middle" x="86.5" y="-259.9" font-family="Helvetica,sans-Serif" font-size="12.00">/FsName.cpp</text>
</a>
</g>
</g>
<!-- Node1&#45;&gt;Node2 -->
<g id="edge1" class="edge">
<title>Node1&#45;&gt;Node2</title>
<path fill="none" stroke="midnightblue" d="M217.12,-332.5C192.15,-321.89 163.68,-309.79 139.71,-299.61"/>
<polygon fill="midnightblue" stroke="midnightblue" points="215.93,-335.8 226.51,-336.48 218.67,-329.35 215.93,-335.8"/>
</g>
<!-- Node3 -->
<g id="node3" class="node">
<title>Node3</title>
<g id="a_node3"><a xlink:href="../../dd/ddc/_ex_fat_file_8h.html" target="_top" xlink:title="ExFatFile class.">
<polygon fill="white" stroke="black" points="191.5,-252.5 191.5,-299.5 367.5,-299.5 367.5,-252.5 191.5,-252.5"/>
<text text-anchor="start" x="199.5" y="-285.9" font-family="Helvetica,sans-Serif" font-size="12.00">D:/brian/Dev/Eris/ERISCore</text>
<text text-anchor="start" x="199.5" y="-272.9" font-family="Helvetica,sans-Serif" font-size="12.00">/lib/SdFat&#45;master/src/ExFatLib</text>
<text text-anchor="middle" x="279.5" y="-259.9" font-family="Helvetica,sans-Serif" font-size="12.00">/ExFatFile.h</text>
</a>
</g>
</g>
<!-- Node1&#45;&gt;Node3 -->
<g id="edge2" class="edge">
<title>Node1&#45;&gt;Node3</title>
<path fill="none" stroke="midnightblue" d="M279.5,-326.11C279.5,-317.26 279.5,-307.88 279.5,-299.72"/>
<polygon fill="midnightblue" stroke="midnightblue" points="276,-326.16 279.5,-336.16 283,-326.16 276,-326.16"/>
</g>
<!-- Node49 -->
<g id="node7" class="node">
<title>Node49</title>
<g id="a_node7"><a xlink:href="../../d6/d7b/_fat_file_8h.html" target="_top" xlink:title="FatFile class.">
<polygon fill="white" stroke="black" points="385.5,-252.5 385.5,-299.5 547.5,-299.5 547.5,-252.5 385.5,-252.5"/>
<text text-anchor="start" x="393.5" y="-285.9" font-family="Helvetica,sans-Serif" font-size="12.00">D:/brian/Dev/Eris/ERISCore</text>
<text text-anchor="start" x="393.5" y="-272.9" font-family="Helvetica,sans-Serif" font-size="12.00">/lib/SdFat&#45;master/src/FatLib</text>
<text text-anchor="middle" x="466.5" y="-259.9" font-family="Helvetica,sans-Serif" font-size="12.00">/FatFile.h</text>
</a>
</g>
</g>
<!-- Node1&#45;&gt;Node49 -->
<g id="edge7" class="edge">
<title>Node1&#45;&gt;Node49</title>
<path fill="none" stroke="midnightblue" d="M340.5,-332.25C364.6,-321.68 392,-309.67 415.07,-299.55"/>
<polygon fill="midnightblue" stroke="midnightblue" points="338.85,-329.15 331.09,-336.38 341.66,-335.57 338.85,-329.15"/>
</g>
<!-- Node4 -->
<g id="node4" class="node">
<title>Node4</title>
<g id="a_node4"><a xlink:href="../../d6/d68/_ex_fat_volume_8h.html" target="_top" xlink:title=" ">
<polygon fill="white" stroke="black" points="191.5,-168.5 191.5,-215.5 367.5,-215.5 367.5,-168.5 191.5,-168.5"/>
<text text-anchor="start" x="199.5" y="-201.9" font-family="Helvetica,sans-Serif" font-size="12.00">D:/brian/Dev/Eris/ERISCore</text>
<text text-anchor="start" x="199.5" y="-188.9" font-family="Helvetica,sans-Serif" font-size="12.00">/lib/SdFat&#45;master/src/ExFatLib</text>
<text text-anchor="middle" x="279.5" y="-175.9" font-family="Helvetica,sans-Serif" font-size="12.00">/ExFatVolume.h</text>
</a>
</g>
</g>
<!-- Node3&#45;&gt;Node4 -->
<g id="edge3" class="edge">
<title>Node3&#45;&gt;Node4</title>
<path fill="none" stroke="midnightblue" d="M279.5,-242.11C279.5,-233.26 279.5,-223.88 279.5,-215.72"/>
<polygon fill="midnightblue" stroke="midnightblue" points="276,-242.16 279.5,-252.16 283,-242.16 276,-242.16"/>
</g>
<!-- Node5 -->
<g id="node5" class="node">
<title>Node5</title>
<g id="a_node5"><a xlink:href="../../da/dc3/_ex_fat_dbg_8cpp.html" target="_top" xlink:title=" ">
<polygon fill="white" stroke="black" points="133.5,-0.5 133.5,-47.5 309.5,-47.5 309.5,-0.5 133.5,-0.5"/>
<text text-anchor="start" x="141.5" y="-33.9" font-family="Helvetica,sans-Serif" font-size="12.00">D:/brian/Dev/Eris/ERISCore</text>
<text text-anchor="start" x="141.5" y="-20.9" font-family="Helvetica,sans-Serif" font-size="12.00">/lib/SdFat&#45;master/src/ExFatLib</text>
<text text-anchor="middle" x="221.5" y="-7.9" font-family="Helvetica,sans-Serif" font-size="12.00">/ExFatDbg.cpp</text>
</a>
</g>
</g>
<!-- Node4&#45;&gt;Node5 -->
<g id="edge4" class="edge">
<title>Node4&#45;&gt;Node5</title>
<path fill="none" stroke="midnightblue" d="M212.74,-163.06C200.63,-154.88 189.6,-144.63 182.5,-132 167.09,-104.6 185.87,-69.96 202.31,-47.64"/>
<polygon fill="midnightblue" stroke="midnightblue" points="210.93,-166.06 221.26,-168.4 214.64,-160.13 210.93,-166.06"/>
</g>
<!-- Node6 -->
<g id="node6" class="node">
<title>Node6</title>
<g id="a_node6"><a xlink:href="../../d8/d23/_ex_fat_lib_8h.html" target="_top" xlink:title=" ">
<polygon fill="white" stroke="red" points="191.5,-84.5 191.5,-131.5 367.5,-131.5 367.5,-84.5 191.5,-84.5"/>
<text text-anchor="start" x="199.5" y="-117.9" font-family="Helvetica,sans-Serif" font-size="12.00">D:/brian/Dev/Eris/ERISCore</text>
<text text-anchor="start" x="199.5" y="-104.9" font-family="Helvetica,sans-Serif" font-size="12.00">/lib/SdFat&#45;master/src/ExFatLib</text>
<text text-anchor="middle" x="279.5" y="-91.9" font-family="Helvetica,sans-Serif" font-size="12.00">/ExFatLib.h</text>
</a>
</g>
</g>
<!-- Node4&#45;&gt;Node6 -->
<g id="edge5" class="edge">
<title>Node4&#45;&gt;Node6</title>
<path fill="none" stroke="midnightblue" d="M279.5,-158.11C279.5,-149.26 279.5,-139.88 279.5,-131.72"/>
<polygon fill="midnightblue" stroke="midnightblue" points="276,-158.16 279.5,-168.16 283,-158.16 276,-158.16"/>
</g>
<!-- Node6&#45;&gt;Node5 -->
<g id="edge6" class="edge">
<title>Node6&#45;&gt;Node5</title>
<path fill="none" stroke="midnightblue" d="M257.46,-75.84C250.85,-66.49 243.72,-56.41 237.57,-47.72"/>
<polygon fill="midnightblue" stroke="midnightblue" points="254.71,-78.02 263.34,-84.16 260.43,-73.97 254.71,-78.02"/>
</g>
<!-- Node50 -->
<g id="node8" class="node">
<title>Node50</title>
<g id="a_node8"><a xlink:href="../../da/d0b/_fat_volume_8h.html" target="_top" xlink:title="FatVolume class.">
<polygon fill="white" stroke="black" points="385.5,-168.5 385.5,-215.5 547.5,-215.5 547.5,-168.5 385.5,-168.5"/>
<text text-anchor="start" x="393.5" y="-201.9" font-family="Helvetica,sans-Serif" font-size="12.00">D:/brian/Dev/Eris/ERISCore</text>
<text text-anchor="start" x="393.5" y="-188.9" font-family="Helvetica,sans-Serif" font-size="12.00">/lib/SdFat&#45;master/src/FatLib</text>
<text text-anchor="middle" x="466.5" y="-175.9" font-family="Helvetica,sans-Serif" font-size="12.00">/FatVolume.h</text>
</a>
</g>
</g>
<!-- Node49&#45;&gt;Node50 -->
<g id="edge8" class="edge">
<title>Node49&#45;&gt;Node50</title>
<path fill="none" stroke="midnightblue" d="M466.5,-242.11C466.5,-233.26 466.5,-223.88 466.5,-215.72"/>
<polygon fill="midnightblue" stroke="midnightblue" points="463,-242.16 466.5,-252.16 470,-242.16 463,-242.16"/>
</g>
<!-- Node51 -->
<g id="node9" class="node">
<title>Node51</title>
<g id="a_node9"><a xlink:href="../../de/dfa/_fat_lib_8h.html" target="_top" xlink:title=" ">
<polygon fill="white" stroke="red" points="385.5,-84.5 385.5,-131.5 547.5,-131.5 547.5,-84.5 385.5,-84.5"/>
<text text-anchor="start" x="393.5" y="-117.9" font-family="Helvetica,sans-Serif" font-size="12.00">D:/brian/Dev/Eris/ERISCore</text>
<text text-anchor="start" x="393.5" y="-104.9" font-family="Helvetica,sans-Serif" font-size="12.00">/lib/SdFat&#45;master/src/FatLib</text>
<text text-anchor="middle" x="466.5" y="-91.9" font-family="Helvetica,sans-Serif" font-size="12.00">/FatLib.h</text>
</a>
</g>
</g>
<!-- Node50&#45;&gt;Node51 -->
<g id="edge9" class="edge">
<title>Node50&#45;&gt;Node51</title>
<path fill="none" stroke="midnightblue" d="M466.5,-158.11C466.5,-149.26 466.5,-139.88 466.5,-131.72"/>
<polygon fill="midnightblue" stroke="midnightblue" points="463,-158.16 466.5,-168.16 470,-158.16 463,-158.16"/>
</g>
</g>
</svg>
