<?xml version="1.0" encoding="UTF-8" standalone="no"?>
<!DOCTYPE svg PUBLIC "-//W3C//DTD SVG 1.1//EN"
 "http://www.w3.org/Graphics/SVG/1.1/DTD/svg11.dtd">
<!-- Generated by graphviz version 2.47.3 (20210619.1520)
 -->
<!-- Title: StdioStream.cpp Pages: 1 -->
<!--zoomable 378 -->
<svg id="main" version="1.1" xmlns="http://www.w3.org/2000/svg" xmlns:xlink="http://www.w3.org/1999/xlink" xml:space="preserve" onload="init(evt)">
<style type="text/css"><![CDATA[
.edge:hover path { stroke: red; }
.edge:hover polygon { stroke: red; fill: red; }
]]></style>
<script type="text/javascript"><![CDATA[
var edges = document.getElementsByTagName('g');
if (edges && edges.length) {
  for (var i=0;i<edges.length;i++) {
    if (edges[i].id.substr(0,4)=='edge') {
      edges[i].setAttribute('class','edge');
    }
  }
}
]]></script>
        <defs>
                <circle id="rim" cx="0" cy="0" r="7"/>
                <circle id="rim2" cx="0" cy="0" r="3.5"/>
                <g id="zoomPlus">
                        <use xlink:href="#rim" fill="#404040">
                                <set attributeName="fill" to="#808080" begin="zoomplus.mouseover" end="zoomplus.mouseout"/>
                        </use>
                        <path d="M-4,0h8M0,-4v8" fill="none" stroke="white" stroke-width="1.5" pointer-events="none"/>
                </g>
                <g id="zoomMin">
                        <use xlink:href="#rim" fill="#404040">
                                <set attributeName="fill" to="#808080" begin="zoomminus.mouseover" end="zoomminus.mouseout"/>
                        </use>
                        <path d="M-4,0h8" fill="none" stroke="white" stroke-width="1.5" pointer-events="none"/>
                </g>
                <g id="dirArrow">
                        <path fill="none" stroke="white" stroke-width="1.5" d="M0,-3.0v7 M-2.5,-0.5L0,-3.0L2.5,-0.5"/>
                </g>
               <g id="resetDef">
                       <use xlink:href="#rim2" fill="#404040">
                               <set attributeName="fill" to="#808080" begin="reset.mouseover" end="reset.mouseout"/>
                       </use>
               </g>
        </defs>

<script type="text/javascript">
var viewWidth = 663;
var viewHeight = 378;
var sectionId = 'dynsection-0';
</script>
<script xlink:href="../../svgpan.js"/>
<svg id="graph" class="graph">
<g id="viewport">
<title>StdioStream.cpp</title>
<polygon fill="white" stroke="transparent" points="-4,4 -4,-374 659,-374 659,4 -4,4"/>
<!-- Node1 -->
<g id="node1" class="node">
<title>Node1</title>
<g id="a_node1"><a xlink:title=" ">
<polygon fill="#bfbfbf" stroke="black" points="252,-348.5 252,-369.5 357,-369.5 357,-348.5 252,-348.5"/>
<text text-anchor="middle" x="304.5" y="-355.9" font-family="Helvetica,sans-Serif" font-size="12.00">StdioStream.cpp</text>
</a>
</g>
</g>
<!-- Node2 -->
<g id="node2" class="node">
<title>Node2</title>
<g id="a_node2"><a xlink:href="../../da/d2d/_stdio_stream_8h.html" target="_top" xlink:title="StdioStream class.">
<polygon fill="white" stroke="black" points="221.5,-290.5 221.5,-311.5 313.5,-311.5 313.5,-290.5 221.5,-290.5"/>
<text text-anchor="middle" x="267.5" y="-297.9" font-family="Helvetica,sans-Serif" font-size="12.00">StdioStream.h</text>
</a>
</g>
</g>
<!-- Node1&#45;&gt;Node2 -->
<g id="edge1" class="edge">
<title>Node1&#45;&gt;Node2</title>
<path fill="none" stroke="midnightblue" d="M298.06,-348.25C292.96,-340.54 285.71,-329.56 279.55,-320.23"/>
<polygon fill="midnightblue" stroke="midnightblue" points="282.3,-318.06 273.87,-311.64 276.46,-321.92 282.3,-318.06"/>
</g>
<!-- Node14 -->
<g id="node18" class="node">
<title>Node14</title>
<g id="a_node18"><a xlink:href="../../d8/d63/_fmt_number_8h.html" target="_top" xlink:title=" ">
<polygon fill="white" stroke="red" points="291.5,-58.5 291.5,-79.5 435.5,-79.5 435.5,-58.5 291.5,-58.5"/>
<text text-anchor="middle" x="363.5" y="-65.9" font-family="Helvetica,sans-Serif" font-size="12.00">../common/FmtNumber.h</text>
</a>
</g>
</g>
<!-- Node1&#45;&gt;Node14 -->
<g id="edge20" class="edge">
<title>Node1&#45;&gt;Node14</title>
<path fill="none" stroke="midnightblue" d="M313.72,-348.21C330.31,-329.52 363.5,-286.79 363.5,-244 363.5,-244 363.5,-244 363.5,-184 363.5,-150.98 363.5,-112.59 363.5,-89.85"/>
<polygon fill="midnightblue" stroke="midnightblue" points="367,-89.76 363.5,-79.76 360,-89.76 367,-89.76"/>
</g>
<!-- Node3 -->
<g id="node3" class="node">
<title>Node3</title>
<g id="a_node3"><a xlink:title=" ">
<polygon fill="white" stroke="#bfbfbf" points="154,-232.5 154,-253.5 207,-253.5 207,-232.5 154,-232.5"/>
<text text-anchor="middle" x="180.5" y="-239.9" font-family="Helvetica,sans-Serif" font-size="12.00">limits.h</text>
</a>
</g>
</g>
<!-- Node2&#45;&gt;Node3 -->
<g id="edge2" class="edge">
<title>Node2&#45;&gt;Node3</title>
<path fill="none" stroke="midnightblue" d="M252.35,-290.25C239,-281.65 219.34,-269 203.96,-259.1"/>
<polygon fill="midnightblue" stroke="midnightblue" points="205.78,-256.11 195.48,-253.64 201.99,-262 205.78,-256.11"/>
</g>
<!-- Node4 -->
<g id="node4" class="node">
<title>Node4</title>
<g id="a_node4"><a xlink:href="../../df/dd5/ios_8h.html" target="_top" xlink:title="ios_base and ios classes">
<polygon fill="white" stroke="black" points="225,-232.5 225,-253.5 266,-253.5 266,-232.5 225,-232.5"/>
<text text-anchor="middle" x="245.5" y="-239.9" font-family="Helvetica,sans-Serif" font-size="12.00">ios.h</text>
</a>
</g>
</g>
<!-- Node2&#45;&gt;Node4 -->
<g id="edge3" class="edge">
<title>Node2&#45;&gt;Node4</title>
<path fill="none" stroke="midnightblue" d="M263.67,-290.25C260.73,-282.78 256.6,-272.24 253.01,-263.11"/>
<polygon fill="midnightblue" stroke="midnightblue" points="256.2,-261.67 249.29,-253.64 249.69,-264.23 256.2,-261.67"/>
</g>
<!-- Node47 -->
<g id="node17" class="node">
<title>Node47</title>
<g id="a_node17"><a xlink:title=" ">
<polygon fill="white" stroke="#bfbfbf" points="284,-232.5 284,-253.5 335,-253.5 335,-232.5 284,-232.5"/>
<text text-anchor="middle" x="309.5" y="-239.9" font-family="Helvetica,sans-Serif" font-size="12.00">stdio.h</text>
</a>
</g>
</g>
<!-- Node2&#45;&gt;Node47 -->
<g id="edge19" class="edge">
<title>Node2&#45;&gt;Node47</title>
<path fill="none" stroke="midnightblue" d="M274.82,-290.25C280.72,-282.38 289.17,-271.1 296.26,-261.65"/>
<polygon fill="midnightblue" stroke="midnightblue" points="299.07,-263.74 302.27,-253.64 293.47,-259.54 299.07,-263.74"/>
</g>
<!-- Node5 -->
<g id="node5" class="node">
<title>Node5</title>
<g id="a_node5"><a xlink:href="../../d3/d27/_fs_lib_8h.html" target="_top" xlink:title="FsLib include file.">
<polygon fill="white" stroke="black" points="196.5,-174.5 196.5,-195.5 294.5,-195.5 294.5,-174.5 196.5,-174.5"/>
<text text-anchor="middle" x="245.5" y="-181.9" font-family="Helvetica,sans-Serif" font-size="12.00">../FsLib/FsLib.h</text>
</a>
</g>
</g>
<!-- Node4&#45;&gt;Node5 -->
<g id="edge4" class="edge">
<title>Node4&#45;&gt;Node5</title>
<path fill="none" stroke="midnightblue" d="M245.5,-232.25C245.5,-224.94 245.5,-214.69 245.5,-205.7"/>
<polygon fill="midnightblue" stroke="midnightblue" points="249,-205.64 245.5,-195.64 242,-205.64 249,-205.64"/>
</g>
<!-- Node6 -->
<g id="node6" class="node">
<title>Node6</title>
<g id="a_node6"><a xlink:href="../../db/d47/_fs_volume_8h.html" target="_top" xlink:title="FsVolume include file.">
<polygon fill="white" stroke="black" points="231,-116.5 231,-137.5 310,-137.5 310,-116.5 231,-116.5"/>
<text text-anchor="middle" x="270.5" y="-123.9" font-family="Helvetica,sans-Serif" font-size="12.00">FsVolume.h</text>
</a>
</g>
</g>
<!-- Node5&#45;&gt;Node6 -->
<g id="edge5" class="edge">
<title>Node5&#45;&gt;Node6</title>
<path fill="none" stroke="midnightblue" d="M249.85,-174.25C253.22,-166.7 257.99,-156.02 262.1,-146.82"/>
<polygon fill="midnightblue" stroke="midnightblue" points="265.31,-148.2 266.2,-137.64 258.92,-145.35 265.31,-148.2"/>
</g>
<!-- Node46 -->
<g id="node16" class="node">
<title>Node46</title>
<g id="a_node16"><a xlink:href="../../d3/ddb/_fs_file_8h.html" target="_top" xlink:title="FsBaseFile include file.">
<polygon fill="white" stroke="black" points="154,-116.5 154,-137.5 213,-137.5 213,-116.5 154,-116.5"/>
<text text-anchor="middle" x="183.5" y="-123.9" font-family="Helvetica,sans-Serif" font-size="12.00">FsFile.h</text>
</a>
</g>
</g>
<!-- Node5&#45;&gt;Node46 -->
<g id="edge15" class="edge">
<title>Node5&#45;&gt;Node46</title>
<path fill="none" stroke="midnightblue" d="M234.7,-174.25C225.63,-166.05 212.48,-154.17 201.78,-144.51"/>
<polygon fill="midnightblue" stroke="midnightblue" points="203.94,-141.75 194.18,-137.64 199.25,-146.94 203.94,-141.75"/>
</g>
<!-- Node7 -->
<g id="node7" class="node">
<title>Node7</title>
<g id="a_node7"><a xlink:href="../../d9/d36/_fs_new_8h.html" target="_top" xlink:title=" ">
<polygon fill="white" stroke="black" points="211.5,-58.5 211.5,-79.5 273.5,-79.5 273.5,-58.5 211.5,-58.5"/>
<text text-anchor="middle" x="242.5" y="-65.9" font-family="Helvetica,sans-Serif" font-size="12.00">FsNew.h</text>
</a>
</g>
</g>
<!-- Node6&#45;&gt;Node7 -->
<g id="edge6" class="edge">
<title>Node6&#45;&gt;Node7</title>
<path fill="none" stroke="midnightblue" d="M265.62,-116.25C261.85,-108.7 256.51,-98.02 251.91,-88.82"/>
<polygon fill="midnightblue" stroke="midnightblue" points="254.92,-87.02 247.32,-79.64 248.66,-90.15 254.92,-87.02"/>
</g>
<!-- Node10 -->
<g id="node10" class="node">
<title>Node10</title>
<g id="a_node10"><a xlink:href="../../de/dfa/_fat_lib_8h.html" target="_top" xlink:title=" ">
<polygon fill="white" stroke="black" points="88,-58.5 88,-79.5 193,-79.5 193,-58.5 88,-58.5"/>
<text text-anchor="middle" x="140.5" y="-65.9" font-family="Helvetica,sans-Serif" font-size="12.00">../FatLib/FatLib.h</text>
</a>
</g>
</g>
<!-- Node6&#45;&gt;Node10 -->
<g id="edge9" class="edge">
<title>Node6&#45;&gt;Node10</title>
<path fill="none" stroke="midnightblue" d="M248.15,-116.37C227.1,-107.3 195.35,-93.63 171.78,-83.48"/>
<polygon fill="midnightblue" stroke="midnightblue" points="173.13,-80.24 162.56,-79.5 170.36,-86.67 173.13,-80.24"/>
</g>
<!-- Node40 -->
<g id="node13" class="node">
<title>Node40</title>
<g id="a_node13"><a xlink:href="../../d8/d23/_ex_fat_lib_8h.html" target="_top" xlink:title=" ">
<polygon fill="white" stroke="black" points="453.5,-58.5 453.5,-79.5 585.5,-79.5 585.5,-58.5 453.5,-58.5"/>
<text text-anchor="middle" x="519.5" y="-65.9" font-family="Helvetica,sans-Serif" font-size="12.00">../ExFatLib/ExFatLib.h</text>
</a>
</g>
</g>
<!-- Node6&#45;&gt;Node40 -->
<g id="edge12" class="edge">
<title>Node6&#45;&gt;Node40</title>
<path fill="none" stroke="midnightblue" d="M310.23,-117.06C352.7,-107.51 420.23,-92.33 467.04,-81.8"/>
<polygon fill="midnightblue" stroke="midnightblue" points="468.01,-85.17 476.99,-79.56 466.47,-78.34 468.01,-85.17"/>
</g>
<!-- Node8 -->
<g id="node8" class="node">
<title>Node8</title>
<g id="a_node8"><a xlink:title=" ">
<polygon fill="white" stroke="#bfbfbf" points="327.5,-0.5 327.5,-21.5 385.5,-21.5 385.5,-0.5 327.5,-0.5"/>
<text text-anchor="middle" x="356.5" y="-7.9" font-family="Helvetica,sans-Serif" font-size="12.00">stddef.h</text>
</a>
</g>
</g>
<!-- Node7&#45;&gt;Node8 -->
<g id="edge7" class="edge">
<title>Node7&#45;&gt;Node8</title>
<path fill="none" stroke="midnightblue" d="M262.1,-58.37C280.23,-49.46 307.41,-36.11 327.96,-26.02"/>
<polygon fill="midnightblue" stroke="midnightblue" points="329.73,-29.05 337.16,-21.5 326.64,-22.77 329.73,-29.05"/>
</g>
<!-- Node9 -->
<g id="node9" class="node">
<title>Node9</title>
<g id="a_node9"><a xlink:title=" ">
<polygon fill="white" stroke="#bfbfbf" points="242,-0.5 242,-21.5 295,-21.5 295,-0.5 242,-0.5"/>
<text text-anchor="middle" x="268.5" y="-7.9" font-family="Helvetica,sans-Serif" font-size="12.00">stdint.h</text>
</a>
</g>
</g>
<!-- Node7&#45;&gt;Node9 -->
<g id="edge8" class="edge">
<title>Node7&#45;&gt;Node9</title>
<path fill="none" stroke="midnightblue" d="M247.03,-58.25C250.53,-50.7 255.49,-40.02 259.76,-30.82"/>
<polygon fill="midnightblue" stroke="midnightblue" points="262.99,-32.19 264.02,-21.64 256.64,-29.24 262.99,-32.19"/>
</g>
<!-- Node11 -->
<g id="node11" class="node">
<title>Node11</title>
<g id="a_node11"><a xlink:href="../../da/d0b/_fat_volume_8h.html" target="_top" xlink:title="FatVolume class.">
<polygon fill="white" stroke="red" points="0,-0.5 0,-21.5 83,-21.5 83,-0.5 0,-0.5"/>
<text text-anchor="middle" x="41.5" y="-7.9" font-family="Helvetica,sans-Serif" font-size="12.00">FatVolume.h</text>
</a>
</g>
</g>
<!-- Node10&#45;&gt;Node11 -->
<g id="edge10" class="edge">
<title>Node10&#45;&gt;Node11</title>
<path fill="none" stroke="midnightblue" d="M123.26,-58.25C107.92,-49.57 85.28,-36.76 67.71,-26.82"/>
<polygon fill="midnightblue" stroke="midnightblue" points="68.97,-23.52 58.55,-21.64 65.53,-29.61 68.97,-23.52"/>
</g>
<!-- Node39 -->
<g id="node12" class="node">
<title>Node39</title>
<g id="a_node12"><a xlink:href="../../d8/d20/_fat_formatter_8h.html" target="_top" xlink:title=" ">
<polygon fill="white" stroke="red" points="101.5,-0.5 101.5,-21.5 195.5,-21.5 195.5,-0.5 101.5,-0.5"/>
<text text-anchor="middle" x="148.5" y="-7.9" font-family="Helvetica,sans-Serif" font-size="12.00">FatFormatter.h</text>
</a>
</g>
</g>
<!-- Node10&#45;&gt;Node39 -->
<g id="edge11" class="edge">
<title>Node10&#45;&gt;Node39</title>
<path fill="none" stroke="midnightblue" d="M141.89,-58.25C142.94,-50.94 144.4,-40.69 145.69,-31.7"/>
<polygon fill="midnightblue" stroke="midnightblue" points="149.17,-32.04 147.12,-21.64 142.24,-31.05 149.17,-32.04"/>
</g>
<!-- Node41 -->
<g id="node14" class="node">
<title>Node41</title>
<g id="a_node14"><a xlink:href="../../d6/d68/_ex_fat_volume_8h.html" target="_top" xlink:title=" ">
<polygon fill="white" stroke="red" points="433.5,-0.5 433.5,-21.5 529.5,-21.5 529.5,-0.5 433.5,-0.5"/>
<text text-anchor="middle" x="481.5" y="-7.9" font-family="Helvetica,sans-Serif" font-size="12.00">ExFatVolume.h</text>
</a>
</g>
</g>
<!-- Node40&#45;&gt;Node41 -->
<g id="edge13" class="edge">
<title>Node40&#45;&gt;Node41</title>
<path fill="none" stroke="midnightblue" d="M512.88,-58.25C507.6,-50.46 500.05,-39.33 493.68,-29.94"/>
<polygon fill="midnightblue" stroke="midnightblue" points="496.55,-27.95 488.04,-21.64 490.76,-31.88 496.55,-27.95"/>
</g>
<!-- Node45 -->
<g id="node15" class="node">
<title>Node45</title>
<g id="a_node15"><a xlink:href="../../d8/d58/_ex_fat_formatter_8h.html" target="_top" xlink:title=" ">
<polygon fill="white" stroke="red" points="548,-0.5 548,-21.5 655,-21.5 655,-0.5 548,-0.5"/>
<text text-anchor="middle" x="601.5" y="-7.9" font-family="Helvetica,sans-Serif" font-size="12.00">ExFatFormatter.h</text>
</a>
</g>
</g>
<!-- Node40&#45;&gt;Node45 -->
<g id="edge14" class="edge">
<title>Node40&#45;&gt;Node45</title>
<path fill="none" stroke="midnightblue" d="M533.78,-58.25C546.25,-49.73 564.55,-37.24 578.98,-27.38"/>
<polygon fill="midnightblue" stroke="midnightblue" points="581.1,-30.17 587.38,-21.64 577.15,-24.39 581.1,-30.17"/>
</g>
<!-- Node46&#45;&gt;Node7 -->
<g id="edge16" class="edge">
<title>Node46&#45;&gt;Node7</title>
<path fill="none" stroke="midnightblue" d="M193.78,-116.25C202.32,-108.14 214.68,-96.41 224.81,-86.79"/>
<polygon fill="midnightblue" stroke="midnightblue" points="227.5,-89.07 232.34,-79.64 222.68,-83.99 227.5,-89.07"/>
</g>
<!-- Node46&#45;&gt;Node10 -->
<g id="edge17" class="edge">
<title>Node46&#45;&gt;Node10</title>
<path fill="none" stroke="midnightblue" d="M176.01,-116.25C169.97,-108.38 161.31,-97.1 154.06,-87.65"/>
<polygon fill="midnightblue" stroke="midnightblue" points="156.77,-85.44 147.9,-79.64 151.22,-89.71 156.77,-85.44"/>
</g>
<!-- Node46&#45;&gt;Node40 -->
<g id="edge18" class="edge">
<title>Node46&#45;&gt;Node40</title>
<path fill="none" stroke="midnightblue" d="M213.3,-117.84C216.06,-117.18 218.83,-116.56 221.5,-116 262.62,-107.44 369.26,-91.54 443.13,-80.86"/>
<polygon fill="midnightblue" stroke="midnightblue" points="443.93,-84.28 453.33,-79.39 442.93,-77.36 443.93,-84.28"/>
</g>
<!-- Node14&#45;&gt;Node8 -->
<g id="edge22" class="edge">
<title>Node14&#45;&gt;Node8</title>
<path fill="none" stroke="midnightblue" d="M362.28,-58.25C361.37,-50.94 360.09,-40.69 358.96,-31.7"/>
<polygon fill="midnightblue" stroke="midnightblue" points="362.42,-31.13 357.71,-21.64 355.47,-32 362.42,-31.13"/>
</g>
<!-- Node14&#45;&gt;Node9 -->
<g id="edge21" class="edge">
<title>Node14&#45;&gt;Node9</title>
<path fill="none" stroke="midnightblue" d="M346.95,-58.25C332.24,-49.57 310.51,-36.76 293.65,-26.82"/>
<polygon fill="midnightblue" stroke="midnightblue" points="295.25,-23.71 284.86,-21.64 291.7,-29.74 295.25,-23.71"/>
</g>
</g>
</svg>
        <g id="navigator" transform="translate(0 0)" fill="#404254">
                <rect fill="#f2f5e9" fill-opacity="0.5" stroke="#606060" stroke-width=".5" x="0" y="0" width="60" height="60"/>
                <use id="zoomplus" xlink:href="#zoomPlus" x="17" y="9" onmousedown="handleZoom(evt,'in')"/>
                <use id="zoomminus" xlink:href="#zoomMin" x="42" y="9" onmousedown="handleZoom(evt,'out')"/>
                <use id="reset" xlink:href="#resetDef" x="30" y="36" onmousedown="handleReset()"/>
                <g id="arrowUp" xlink:href="#dirArrow" transform="translate(30 24)" onmousedown="handlePan(0,-1)">
                  <use xlink:href="#rim" fill="#404040">
                        <set attributeName="fill" to="#808080" begin="arrowUp.mouseover" end="arrowUp.mouseout"/>
                  </use>
                  <path fill="none" stroke="white" stroke-width="1.5" d="M0,-3.0v7 M-2.5,-0.5L0,-3.0L2.5,-0.5"/>
                </g>
                <g id="arrowRight" xlink:href="#dirArrow" transform="rotate(90) translate(36 -43)" onmousedown="handlePan(1,0)">
                  <use xlink:href="#rim" fill="#404040">
                        <set attributeName="fill" to="#808080" begin="arrowRight.mouseover" end="arrowRight.mouseout"/>
                  </use>
                  <path fill="none" stroke="white" stroke-width="1.5" d="M0,-3.0v7 M-2.5,-0.5L0,-3.0L2.5,-0.5"/>
                </g>
                <g id="arrowDown" xlink:href="#dirArrow" transform="rotate(180) translate(-30 -48)" onmousedown="handlePan(0,1)">
                  <use xlink:href="#rim" fill="#404040">
                        <set attributeName="fill" to="#808080" begin="arrowDown.mouseover" end="arrowDown.mouseout"/>
                  </use>
                  <path fill="none" stroke="white" stroke-width="1.5" d="M0,-3.0v7 M-2.5,-0.5L0,-3.0L2.5,-0.5"/>
                </g>
                <g id="arrowLeft" xlink:href="#dirArrow" transform="rotate(270) translate(-36 17)" onmousedown="handlePan(-1,0)">
                  <use xlink:href="#rim" fill="#404040">
                        <set attributeName="fill" to="#808080" begin="arrowLeft.mouseover" end="arrowLeft.mouseout"/>
                  </use>
                  <path fill="none" stroke="white" stroke-width="1.5" d="M0,-3.0v7 M-2.5,-0.5L0,-3.0L2.5,-0.5"/>
                </g>
        </g>
        <svg viewBox="0 0 15 15" width="100%" height="30px" preserveAspectRatio="xMaxYMin meet">
         <g id="arrow_out" transform="scale(0.3 0.3)">
          <a xlink:href="_stdio_stream_8cpp__incl_org.svg" target="_base">
           <rect id="button" ry="5" rx="5" y="6" x="6" height="38" width="38"
                fill="#f2f5e9" fill-opacity="0.5" stroke="#606060" stroke-width="1.0"/>
           <path id="arrow"
             d="M 11.500037,31.436501 C 11.940474,20.09759 22.043105,11.32322 32.158766,21.979434 L 37.068811,17.246167 C 37.068811,17.246167 37.088388,32 37.088388,32 L 22.160133,31.978069 C 22.160133,31.978069 26.997745,27.140456 26.997745,27.140456 C 18.528582,18.264221 13.291696,25.230495 11.500037,31.436501 z"
             style="fill:#404040;"/>
          </a>
         </g>
        </svg>
</svg>
