<?xml version="1.0" encoding="UTF-8" standalone="no"?>
<!DOCTYPE svg PUBLIC "-//W3C//DTD SVG 1.1//EN"
 "http://www.w3.org/Graphics/SVG/1.1/DTD/svg11.dtd">
<!-- Generated by graphviz version 2.47.3 (20210619.1520)
 -->
<!-- Title: D:/brian/Dev/Eris/ERISCore/include/erisAudio.h Pages: 1 -->
<svg width="338pt" height="217pt"
 viewBox="0.00 0.00 338.00 217.00" xmlns="http://www.w3.org/2000/svg" xmlns:xlink="http://www.w3.org/1999/xlink">
<g id="graph0" class="graph" transform="scale(1 1) rotate(0) translate(4 213)">
<title>D:/brian/Dev/Eris/ERISCore/include/erisAudio.h</title>
<polygon fill="white" stroke="transparent" points="-4,4 -4,-213 334,-213 334,4 -4,4"/>
<!-- Node1 -->
<g id="node1" class="node">
<title>Node1</title>
<g id="a_node1"><a xlink:title=" ">
<polygon fill="#bfbfbf" stroke="black" points="165,-174.5 165,-208.5 327,-208.5 327,-174.5 165,-174.5"/>
<text text-anchor="start" x="173" y="-194.9" font-family="Helvetica,sans-Serif" font-size="12.00">D:/brian/Dev/Eris/ERISCore</text>
<text text-anchor="middle" x="246" y="-181.9" font-family="Helvetica,sans-Serif" font-size="12.00">/include/erisAudio.h</text>
</a>
</g>
</g>
<!-- Node2 -->
<g id="node2" class="node">
<title>Node2</title>
<g id="a_node2"><a xlink:href="../../de/db5/eris__synth__waveform_8h.html" target="_top" xlink:title=" ">
<polygon fill="white" stroke="black" points="64.5,-116.5 64.5,-137.5 199.5,-137.5 199.5,-116.5 64.5,-116.5"/>
<text text-anchor="middle" x="132" y="-123.9" font-family="Helvetica,sans-Serif" font-size="12.00">eris_synth_waveform.h</text>
</a>
</g>
</g>
<!-- Node1&#45;&gt;Node2 -->
<g id="edge1" class="edge">
<title>Node1&#45;&gt;Node2</title>
<path fill="none" stroke="midnightblue" d="M216.64,-174.4C198.72,-164.58 175.98,-152.11 158.59,-142.58"/>
<polygon fill="midnightblue" stroke="midnightblue" points="159.99,-139.36 149.54,-137.62 156.63,-145.49 159.99,-139.36"/>
</g>
<!-- Node8 -->
<g id="node8" class="node">
<title>Node8</title>
<g id="a_node8"><a xlink:title=" ">
<polygon fill="white" stroke="#bfbfbf" points="218,-116.5 218,-137.5 274,-137.5 274,-116.5 218,-116.5"/>
<text text-anchor="middle" x="246" y="-123.9" font-family="Helvetica,sans-Serif" font-size="12.00">Audio.h</text>
</a>
</g>
</g>
<!-- Node1&#45;&gt;Node8 -->
<g id="edge7" class="edge">
<title>Node1&#45;&gt;Node8</title>
<path fill="none" stroke="midnightblue" d="M246,-174.4C246,-166.36 246,-156.54 246,-148.01"/>
<polygon fill="midnightblue" stroke="midnightblue" points="249.5,-147.8 246,-137.8 242.5,-147.8 249.5,-147.8"/>
</g>
<!-- Node9 -->
<g id="node9" class="node">
<title>Node9</title>
<g id="a_node9"><a xlink:title=" ">
<polygon fill="white" stroke="#bfbfbf" points="292,-116.5 292,-137.5 330,-137.5 330,-116.5 292,-116.5"/>
<text text-anchor="middle" x="311" y="-123.9" font-family="Helvetica,sans-Serif" font-size="12.00">new</text>
</a>
</g>
</g>
<!-- Node1&#45;&gt;Node9 -->
<g id="edge8" class="edge">
<title>Node1&#45;&gt;Node9</title>
<path fill="none" stroke="midnightblue" d="M262.74,-174.4C272.14,-165.36 283.87,-154.09 293.41,-144.91"/>
<polygon fill="midnightblue" stroke="midnightblue" points="296.03,-147.25 300.81,-137.8 291.17,-142.21 296.03,-147.25"/>
</g>
<!-- Node3 -->
<g id="node3" class="node">
<title>Node3</title>
<g id="a_node3"><a xlink:title=" ">
<polygon fill="white" stroke="#bfbfbf" points="0,-58.5 0,-79.5 66,-79.5 66,-58.5 0,-58.5"/>
<text text-anchor="middle" x="33" y="-65.9" font-family="Helvetica,sans-Serif" font-size="12.00">Arduino.h</text>
</a>
</g>
</g>
<!-- Node2&#45;&gt;Node3 -->
<g id="edge2" class="edge">
<title>Node2&#45;&gt;Node3</title>
<path fill="none" stroke="midnightblue" d="M114.76,-116.25C99.42,-107.57 76.78,-94.76 59.21,-84.82"/>
<polygon fill="midnightblue" stroke="midnightblue" points="60.47,-81.52 50.05,-79.64 57.03,-87.61 60.47,-81.52"/>
</g>
<!-- Node4 -->
<g id="node4" class="node">
<title>Node4</title>
<g id="a_node4"><a xlink:href="../../df/d6c/_audio_stream_8h.html" target="_top" xlink:title=" ">
<polygon fill="white" stroke="black" points="84.5,-58.5 84.5,-79.5 179.5,-79.5 179.5,-58.5 84.5,-58.5"/>
<text text-anchor="middle" x="132" y="-65.9" font-family="Helvetica,sans-Serif" font-size="12.00">AudioStream.h</text>
</a>
</g>
</g>
<!-- Node2&#45;&gt;Node4 -->
<g id="edge3" class="edge">
<title>Node2&#45;&gt;Node4</title>
<path fill="none" stroke="midnightblue" d="M132,-116.25C132,-108.94 132,-98.69 132,-89.7"/>
<polygon fill="midnightblue" stroke="midnightblue" points="135.5,-89.64 132,-79.64 128.5,-89.64 135.5,-89.64"/>
</g>
<!-- Node7 -->
<g id="node7" class="node">
<title>Node7</title>
<g id="a_node7"><a xlink:title=" ">
<polygon fill="white" stroke="#bfbfbf" points="198,-58.5 198,-79.5 276,-79.5 276,-58.5 198,-58.5"/>
<text text-anchor="middle" x="237" y="-65.9" font-family="Helvetica,sans-Serif" font-size="12.00">arm_math.h</text>
</a>
</g>
</g>
<!-- Node2&#45;&gt;Node7 -->
<g id="edge6" class="edge">
<title>Node2&#45;&gt;Node7</title>
<path fill="none" stroke="midnightblue" d="M150.29,-116.25C166.78,-107.45 191.24,-94.41 209.98,-84.41"/>
<polygon fill="midnightblue" stroke="midnightblue" points="211.74,-87.44 218.92,-79.64 208.45,-81.26 211.74,-87.44"/>
</g>
<!-- Node5 -->
<g id="node5" class="node">
<title>Node5</title>
<g id="a_node5"><a xlink:title=" ">
<polygon fill="white" stroke="#bfbfbf" points="70.5,-0.5 70.5,-21.5 121.5,-21.5 121.5,-0.5 70.5,-0.5"/>
<text text-anchor="middle" x="96" y="-7.9" font-family="Helvetica,sans-Serif" font-size="12.00">stdio.h</text>
</a>
</g>
</g>
<!-- Node4&#45;&gt;Node5 -->
<g id="edge4" class="edge">
<title>Node4&#45;&gt;Node5</title>
<path fill="none" stroke="midnightblue" d="M125.73,-58.25C120.77,-50.54 113.72,-39.56 107.72,-30.23"/>
<polygon fill="midnightblue" stroke="midnightblue" points="110.55,-28.16 102.2,-21.64 104.66,-31.95 110.55,-28.16"/>
</g>
<!-- Node6 -->
<g id="node6" class="node">
<title>Node6</title>
<g id="a_node6"><a xlink:title=" ">
<polygon fill="white" stroke="#bfbfbf" points="140,-0.5 140,-21.5 194,-21.5 194,-0.5 140,-0.5"/>
<text text-anchor="middle" x="167" y="-7.9" font-family="Helvetica,sans-Serif" font-size="12.00">string.h</text>
</a>
</g>
</g>
<!-- Node4&#45;&gt;Node6 -->
<g id="edge5" class="edge">
<title>Node4&#45;&gt;Node6</title>
<path fill="none" stroke="midnightblue" d="M138.1,-58.25C142.91,-50.54 149.78,-39.56 155.6,-30.23"/>
<polygon fill="midnightblue" stroke="midnightblue" points="158.64,-31.98 160.97,-21.64 152.71,-28.27 158.64,-31.98"/>
</g>
</g>
</svg>
