<?xml version="1.0" encoding="UTF-8" standalone="no"?>
<!DOCTYPE svg PUBLIC "-//W3C//DTD SVG 1.1//EN"
 "http://www.w3.org/Graphics/SVG/1.1/DTD/svg11.dtd">
<!-- Generated by graphviz version 2.47.3 (20210619.1520)
 -->
<!-- Title: AppWren::MessageHandler Pages: 1 -->
<svg width="790pt" height="288pt"
 viewBox="0.00 0.00 790.00 288.00" xmlns="http://www.w3.org/2000/svg" xmlns:xlink="http://www.w3.org/1999/xlink">
<g id="graph0" class="graph" transform="scale(1 1) rotate(0) translate(4 284)">
<title>AppWren::MessageHandler</title>
<!-- Node1 -->
<g id="node1" class="node">
<title>Node1</title>
<g id="a_node1"><a xlink:title="handles messages from other sw components">
<polygon fill="#bfbfbf" stroke="black" points="0,-140.5 0,-161.5 161,-161.5 161,-140.5 0,-140.5"/>
<text text-anchor="middle" x="80.5" y="-147.9" font-family="Helvetica,sans-Serif" font-size="12.00">AppWren::MessageHandler</text>
</a>
</g>
</g>
<!-- Node2 -->
<g id="node2" class="node">
<title>Node2</title>
<g id="a_node2"><a xlink:href="../../d0/da0/class_app_wren_abfe45ee73ddb0f8d35c5e45342a5fe05.html#abfe45ee73ddb0f8d35c5e45342a5fe05" target="_top" xlink:title="Get the Focus object.">
<polygon fill="none" stroke="black" points="208,-258.5 208,-279.5 329,-279.5 329,-258.5 208,-258.5"/>
<text text-anchor="middle" x="268.5" y="-265.9" font-family="Helvetica,sans-Serif" font-size="12.00">AppWren::getFocus</text>
</a>
</g>
</g>
<!-- Node1&#45;&gt;Node2 -->
<g id="edge1" class="edge">
<title>Node1&#45;&gt;Node2</title>
<path fill="none" stroke="midnightblue" d="M90.91,-161.54C109.31,-181.54 152.22,-225.11 197,-249 201.2,-251.24 205.68,-253.25 210.26,-255.06"/>
<polygon fill="midnightblue" stroke="midnightblue" points="209.17,-258.38 219.77,-258.47 211.54,-251.8 209.17,-258.38"/>
</g>
<!-- Node5 -->
<g id="node5" class="node">
<title>Node5</title>
<g id="a_node5"><a xlink:href="../../db/d69/class_app_base_class_aa989ddf4bdc4cbd9a61791ca45082177.html#aa989ddf4bdc4cbd9a61791ca45082177" target="_top" xlink:title=" ">
<polygon fill="none" stroke="black" points="197,-218.5 197,-239.5 340,-239.5 340,-218.5 197,-218.5"/>
<text text-anchor="middle" x="268.5" y="-225.9" font-family="Helvetica,sans-Serif" font-size="12.00">AppBaseClass::isName</text>
</a>
</g>
</g>
<!-- Node1&#45;&gt;Node5 -->
<g id="edge4" class="edge">
<title>Node1&#45;&gt;Node5</title>
<path fill="none" stroke="midnightblue" d="M102.96,-161.55C125.96,-172.69 163.68,-190.48 197,-204 206.29,-207.77 216.38,-211.54 225.96,-214.96"/>
<polygon fill="midnightblue" stroke="midnightblue" points="225.09,-218.37 235.69,-218.4 227.42,-211.77 225.09,-218.37"/>
</g>
<!-- Node6 -->
<g id="node6" class="node">
<title>Node6</title>
<g id="a_node6"><a xlink:href="../../d0/da0/class_app_wren_a701371012a8d0ca93203257c69a7204a.html#a701371012a8d0ca93203257c69a7204a" target="_top" xlink:title=" ">
<polygon fill="none" stroke="black" points="388,-180.5 388,-201.5 546,-201.5 546,-180.5 388,-180.5"/>
<text text-anchor="middle" x="467" y="-187.9" font-family="Helvetica,sans-Serif" font-size="12.00">AppWren::isWrenResultOK</text>
</a>
</g>
</g>
<!-- Node1&#45;&gt;Node6 -->
<g id="edge5" class="edge">
<title>Node1&#45;&gt;Node6</title>
<path fill="none" stroke="midnightblue" d="M135.69,-161.5C154.98,-164.95 176.9,-168.52 197,-171 257.02,-178.41 324.94,-183.43 377.51,-186.59"/>
<polygon fill="midnightblue" stroke="midnightblue" points="377.63,-190.11 387.82,-187.2 378.04,-183.12 377.63,-190.11"/>
</g>
<!-- Node7 -->
<g id="node7" class="node">
<title>Node7</title>
<g id="a_node7"><a xlink:href="../../d0/da0/class_app_wren_a2aa4114b8f2506085c3a0871c598216b.html#a2aa4114b8f2506085c3a0871c598216b" target="_top" xlink:title="load a script into the running VM">
<polygon fill="none" stroke="black" points="206,-140.5 206,-161.5 331,-161.5 331,-140.5 206,-140.5"/>
<text text-anchor="middle" x="268.5" y="-147.9" font-family="Helvetica,sans-Serif" font-size="12.00">AppWren::loadScript</text>
</a>
</g>
</g>
<!-- Node1&#45;&gt;Node7 -->
<g id="edge6" class="edge">
<title>Node1&#45;&gt;Node7</title>
<path fill="none" stroke="midnightblue" d="M161.19,-151C172.66,-151 184.42,-151 195.72,-151"/>
<polygon fill="midnightblue" stroke="midnightblue" points="195.96,-154.5 205.96,-151 195.96,-147.5 195.96,-154.5"/>
</g>
<!-- Node9 -->
<g id="node9" class="node">
<title>Node9</title>
<g id="a_node9"><a xlink:href="../../d0/da0/class_app_wren_aedf9a5e77ba482fde47e52125e9ca292.html#aedf9a5e77ba482fde47e52125e9ca292" target="_top" xlink:title=" ">
<polygon fill="none" stroke="black" points="207,-100.5 207,-121.5 330,-121.5 330,-100.5 207,-100.5"/>
<text text-anchor="middle" x="268.5" y="-107.9" font-family="Helvetica,sans-Serif" font-size="12.00">AppWren::restartVM</text>
</a>
</g>
</g>
<!-- Node1&#45;&gt;Node9 -->
<g id="edge9" class="edge">
<title>Node1&#45;&gt;Node9</title>
<path fill="none" stroke="midnightblue" d="M130.37,-140.49C154.41,-135.32 183.57,-129.05 208.81,-123.62"/>
<polygon fill="midnightblue" stroke="midnightblue" points="209.59,-127.03 218.63,-121.51 208.12,-120.19 209.59,-127.03"/>
</g>
<!-- Node54 -->
<g id="node16" class="node">
<title>Node54</title>
<g id="a_node16"><a xlink:href="../../d0/da0/class_app_wren_acda2652e5756c39eda8413c87f0868d0.html#acda2652e5756c39eda8413c87f0868d0" target="_top" xlink:title=" ">
<polygon fill="none" stroke="red" points="201.5,-60.5 201.5,-81.5 335.5,-81.5 335.5,-60.5 201.5,-60.5"/>
<text text-anchor="middle" x="268.5" y="-67.9" font-family="Helvetica,sans-Serif" font-size="12.00">AppWren::returnFocus</text>
</a>
</g>
</g>
<!-- Node1&#45;&gt;Node54 -->
<g id="edge16" class="edge">
<title>Node1&#45;&gt;Node54</title>
<path fill="none" stroke="midnightblue" d="M98.98,-140.49C121.15,-127.49 160.87,-105.34 197,-91 202.82,-88.69 209.01,-86.53 215.21,-84.55"/>
<polygon fill="midnightblue" stroke="midnightblue" points="216.37,-87.85 224.91,-81.58 214.32,-81.16 216.37,-87.85"/>
</g>
<!-- Node58 -->
<g id="node17" class="node">
<title>Node58</title>
<g id="a_node17"><a xlink:href="../../d7/d7e/_app_wren_8cpp_a01f554db1c07c31f60f5167060279699.html#a01f554db1c07c31f60f5167060279699" target="_top" xlink:title=" ">
<polygon fill="none" stroke="black" points="222,-20.5 222,-41.5 315,-41.5 315,-20.5 222,-20.5"/>
<text text-anchor="middle" x="268.5" y="-27.9" font-family="Helvetica,sans-Serif" font-size="12.00">set_arm_clock</text>
</a>
</g>
</g>
<!-- Node1&#45;&gt;Node58 -->
<g id="edge17" class="edge">
<title>Node1&#45;&gt;Node58</title>
<path fill="none" stroke="midnightblue" d="M90.86,-140.23C109.18,-119.81 151.95,-75.32 197,-51 201.83,-48.39 207.03,-46.1 212.34,-44.08"/>
<polygon fill="midnightblue" stroke="midnightblue" points="213.67,-47.33 221.97,-40.75 211.37,-40.71 213.67,-47.33"/>
</g>
<!-- Node3 -->
<g id="node3" class="node">
<title>Node3</title>
<g id="a_node3"><a xlink:href="../../db/d69/class_app_base_class_afcd9194843e5eb3f6140e28cc3c9e8f9.html#afcd9194843e5eb3f6140e28cc3c9e8f9" target="_top" xlink:title=" ">
<polygon fill="none" stroke="black" points="391.5,-258.5 391.5,-279.5 542.5,-279.5 542.5,-258.5 391.5,-258.5"/>
<text text-anchor="middle" x="467" y="-265.9" font-family="Helvetica,sans-Serif" font-size="12.00">AppBaseClass::getFocus</text>
</a>
</g>
</g>
<!-- Node2&#45;&gt;Node3 -->
<g id="edge2" class="edge">
<title>Node2&#45;&gt;Node3</title>
<path fill="none" stroke="midnightblue" d="M329.26,-269C345.59,-269 363.6,-269 381.04,-269"/>
<polygon fill="midnightblue" stroke="midnightblue" points="381.23,-272.5 391.23,-269 381.23,-265.5 381.23,-272.5"/>
</g>
<!-- Node4 -->
<g id="node4" class="node">
<title>Node4</title>
<g id="a_node4"><a xlink:href="../../db/d69/class_app_base_class_a32e44666dd58b3cd733c8ac64957dce3.html#a32e44666dd58b3cd733c8ac64957dce3" target="_top" xlink:title=" ">
<polygon fill="none" stroke="black" points="594,-258.5 594,-279.5 782,-279.5 782,-258.5 594,-258.5"/>
<text text-anchor="middle" x="688" y="-265.9" font-family="Helvetica,sans-Serif" font-size="12.00">AppBaseClass::_updatePosition</text>
</a>
</g>
</g>
<!-- Node3&#45;&gt;Node4 -->
<g id="edge3" class="edge">
<title>Node3&#45;&gt;Node4</title>
<path fill="none" stroke="midnightblue" d="M542.75,-269C556.02,-269 570.04,-269 583.92,-269"/>
<polygon fill="midnightblue" stroke="midnightblue" points="583.99,-272.5 593.99,-269 583.99,-265.5 583.99,-272.5"/>
</g>
<!-- Node7&#45;&gt;Node6 -->
<g id="edge8" class="edge">
<title>Node7&#45;&gt;Node6</title>
<path fill="none" stroke="midnightblue" d="M321.13,-161.51C346.64,-166.7 377.61,-173.01 404.35,-178.45"/>
<polygon fill="midnightblue" stroke="midnightblue" points="403.88,-181.93 414.38,-180.49 405.28,-175.07 403.88,-181.93"/>
</g>
<!-- Node8 -->
<g id="node8" class="node">
<title>Node8</title>
<g id="a_node8"><a xlink:href="../../d0/da0/class_app_wren_adb53a44e9d80fddb8fd27cde67c9047a.html#adb53a44e9d80fddb8fd27cde67c9047a" target="_top" xlink:title="VM post module load support function creates/updates the Wren embedded call handles.">
<polygon fill="none" stroke="black" points="387.5,-140.5 387.5,-161.5 546.5,-161.5 546.5,-140.5 387.5,-140.5"/>
<text text-anchor="middle" x="467" y="-147.9" font-family="Helvetica,sans-Serif" font-size="12.00">AppWren::getWrenHandles</text>
</a>
</g>
</g>
<!-- Node7&#45;&gt;Node8 -->
<g id="edge7" class="edge">
<title>Node7&#45;&gt;Node8</title>
<path fill="none" stroke="midnightblue" d="M331.13,-151C345.72,-151 361.57,-151 377.1,-151"/>
<polygon fill="midnightblue" stroke="midnightblue" points="377.24,-154.5 387.24,-151 377.24,-147.5 377.24,-154.5"/>
</g>
<!-- Node10 -->
<g id="node10" class="node">
<title>Node10</title>
<g id="a_node10"><a xlink:href="../../d0/da0/class_app_wren_ab6016f4a08eee6f678b3e389f35a2fbd.html#ab6016f4a08eee6f678b3e389f35a2fbd" target="_top" xlink:title="release any/all Wren embedded call handles">
<polygon fill="none" stroke="black" points="376,-100.5 376,-121.5 558,-121.5 558,-100.5 376,-100.5"/>
<text text-anchor="middle" x="467" y="-107.9" font-family="Helvetica,sans-Serif" font-size="12.00">AppWren::releaseWrenHandles</text>
</a>
</g>
</g>
<!-- Node9&#45;&gt;Node10 -->
<g id="edge10" class="edge">
<title>Node9&#45;&gt;Node10</title>
<path fill="none" stroke="midnightblue" d="M330.06,-111C341.34,-111 353.39,-111 365.5,-111"/>
<polygon fill="midnightblue" stroke="midnightblue" points="365.66,-114.5 375.66,-111 365.66,-107.5 365.66,-114.5"/>
</g>
<!-- Node11 -->
<g id="node11" class="node">
<title>Node11</title>
<g id="a_node11"><a xlink:href="../../d0/da0/class_app_wren_a0b139e8eac17bd02ffaff68532c3e4fc.html#a0b139e8eac17bd02ffaff68532c3e4fc" target="_top" xlink:title=" ">
<polygon fill="none" stroke="black" points="410.5,-60.5 410.5,-81.5 523.5,-81.5 523.5,-60.5 410.5,-60.5"/>
<text text-anchor="middle" x="467" y="-67.9" font-family="Helvetica,sans-Serif" font-size="12.00">AppWren::startVM</text>
</a>
</g>
</g>
<!-- Node9&#45;&gt;Node11 -->
<g id="edge11" class="edge">
<title>Node9&#45;&gt;Node11</title>
<path fill="none" stroke="midnightblue" d="M321.13,-100.49C346.64,-95.3 377.61,-88.99 404.35,-83.55"/>
<polygon fill="midnightblue" stroke="midnightblue" points="405.28,-86.93 414.38,-81.51 403.88,-80.07 405.28,-86.93"/>
</g>
<!-- Node12 -->
<g id="node12" class="node">
<title>Node12</title>
<g id="a_node12"><a xlink:href="../../d7/d7e/_app_wren_8cpp_afe955d602a19a51c186913d9dc8ff707.html#afe955d602a19a51c186913d9dc8ff707" target="_top" xlink:title="callback function for Wren to request an exported function bindings">
<polygon fill="none" stroke="red" points="628.5,-120.5 628.5,-141.5 747.5,-141.5 747.5,-120.5 628.5,-120.5"/>
<text text-anchor="middle" x="688" y="-127.9" font-family="Helvetica,sans-Serif" font-size="12.00">bindForeignMethod</text>
</a>
</g>
</g>
<!-- Node11&#45;&gt;Node12 -->
<g id="edge12" class="edge">
<title>Node11&#45;&gt;Node12</title>
<path fill="none" stroke="midnightblue" d="M523.95,-80.8C535.39,-83.54 547.23,-86.91 558,-91 575.11,-97.5 576.87,-104.56 594,-111 601.78,-113.92 610.09,-116.47 618.43,-118.67"/>
<polygon fill="midnightblue" stroke="midnightblue" points="617.65,-122.09 628.2,-121.11 619.34,-115.29 617.65,-122.09"/>
</g>
<!-- Node75 -->
<g id="node13" class="node">
<title>Node75</title>
<g id="a_node13"><a xlink:href="../../d7/d7e/_app_wren_8cpp_ad2ce68e399aa9789b4f49cc5256f27c2.html#ad2ce68e399aa9789b4f49cc5256f27c2" target="_top" xlink:title="error function system callback for the Wren VM. Stdout/Stderr is SerialUSB1">
<polygon fill="none" stroke="black" points="660.5,-80.5 660.5,-101.5 715.5,-101.5 715.5,-80.5 660.5,-80.5"/>
<text text-anchor="middle" x="688" y="-87.9" font-family="Helvetica,sans-Serif" font-size="12.00">errorFn</text>
</a>
</g>
</g>
<!-- Node11&#45;&gt;Node75 -->
<g id="edge13" class="edge">
<title>Node11&#45;&gt;Node75</title>
<path fill="none" stroke="midnightblue" d="M523.55,-76.07C563.28,-79.7 615.65,-84.48 650.28,-87.65"/>
<polygon fill="midnightblue" stroke="midnightblue" points="650.15,-91.15 660.42,-88.57 650.78,-84.18 650.15,-91.15"/>
</g>
<!-- Node76 -->
<g id="node14" class="node">
<title>Node76</title>
<g id="a_node14"><a xlink:href="../../d7/d7e/_app_wren_8cpp_a8862be3048f99b67cf6ccc12d2c2ae74.html#a8862be3048f99b67cf6ccc12d2c2ae74" target="_top" xlink:title="callback for the VM to request a module be loaded from the filesystem">
<polygon fill="none" stroke="red" points="649.5,-40.5 649.5,-61.5 726.5,-61.5 726.5,-40.5 649.5,-40.5"/>
<text text-anchor="middle" x="688" y="-47.9" font-family="Helvetica,sans-Serif" font-size="12.00">loadModule</text>
</a>
</g>
</g>
<!-- Node11&#45;&gt;Node76 -->
<g id="edge14" class="edge">
<title>Node11&#45;&gt;Node76</title>
<path fill="none" stroke="midnightblue" d="M523.55,-65.93C559.26,-62.67 605.19,-58.47 639.26,-55.36"/>
<polygon fill="midnightblue" stroke="midnightblue" points="639.79,-58.83 649.43,-54.43 639.15,-51.86 639.79,-58.83"/>
</g>
<!-- Node81 -->
<g id="node15" class="node">
<title>Node81</title>
<g id="a_node15"><a xlink:href="../../d7/d7e/_app_wren_8cpp_ad0c26c660738b28a098f1400caef81e2.html#ad0c26c660738b28a098f1400caef81e2" target="_top" xlink:title="write function system callback for the Wren VM. Stdout/Stderr is SerialUSB1">
<polygon fill="none" stroke="black" points="660.5,-0.5 660.5,-21.5 715.5,-21.5 715.5,-0.5 660.5,-0.5"/>
<text text-anchor="middle" x="688" y="-7.9" font-family="Helvetica,sans-Serif" font-size="12.00">writeFn</text>
</a>
</g>
</g>
<!-- Node11&#45;&gt;Node81 -->
<g id="edge15" class="edge">
<title>Node11&#45;&gt;Node81</title>
<path fill="none" stroke="midnightblue" d="M498.31,-60.48C523.69,-51.89 560.95,-39.78 594,-31 612.37,-26.12 633.03,-21.58 650.19,-18.07"/>
<polygon fill="midnightblue" stroke="midnightblue" points="651.27,-21.43 660.38,-16.02 649.89,-14.56 651.27,-21.43"/>
</g>
</g>
</svg>
