<?xml version="1.0" encoding="UTF-8" standalone="no"?>
<!DOCTYPE svg PUBLIC "-//W3C//DTD SVG 1.1//EN"
 "http://www.w3.org/Graphics/SVG/1.1/DTD/svg11.dtd">
<!-- Generated by graphviz version 2.47.3 (20210619.1520)
 -->
<!-- Title: AppWren::getWrenHandles Pages: 1 -->
<svg width="957pt" height="131pt"
 viewBox="0.00 0.00 957.00 131.00" xmlns="http://www.w3.org/2000/svg" xmlns:xlink="http://www.w3.org/1999/xlink">
<g id="graph0" class="graph" transform="scale(1 1) rotate(0) translate(4 127)">
<title>AppWren::getWrenHandles</title>
<!-- Node1 -->
<g id="node1" class="node">
<title>Node1</title>
<g id="a_node1"><a xlink:title="VM post module load support function creates/updates the Wren embedded call handles.">
<polygon fill="#bfbfbf" stroke="black" points="710,-23.5 710,-51.5 949,-51.5 949,-23.5 710,-23.5"/>
<text text-anchor="middle" x="829.5" y="-33.1" font-family="Helvetica,sans-Serif" font-size="18.00">AppWren::getWrenHandles</text>
</a>
</g>
</g>
<!-- Node2 -->
<g id="node2" class="node">
<title>Node2</title>
<g id="a_node2"><a xlink:href="../../d0/da0/class_app_wren_a36c1693124b7ce9437288be597ecc80b.html#a36c1693124b7ce9437288be597ecc80b" target="_top" xlink:title="runs the script in the VM">
<polygon fill="none" stroke="black" points="490,-46.5 490,-74.5 674,-74.5 674,-46.5 490,-46.5"/>
<text text-anchor="middle" x="582" y="-56.1" font-family="Helvetica,sans-Serif" font-size="18.00">AppWren::loadScript</text>
</a>
</g>
</g>
<!-- Node1&#45;&gt;Node2 -->
<g id="edge1" class="edge">
<title>Node1&#45;&gt;Node2</title>
<path fill="none" stroke="midnightblue" d="M699.58,-49.58C690.97,-50.38 682.39,-51.19 674.03,-51.97"/>
<polygon fill="midnightblue" stroke="midnightblue" points="700.08,-53.05 709.71,-48.63 699.42,-46.08 700.08,-53.05"/>
</g>
<!-- Node5 -->
<g id="node5" class="node">
<title>Node5</title>
<g id="a_node5"><a xlink:href="../../d0/da0/class_app_wren_aeb6716ec79e8c30f26c0b9009e750e4c.html#aeb6716ec79e8c30f26c0b9009e750e4c" target="_top" xlink:title="start, load and configure the handles of the VM">
<polygon fill="none" stroke="black" points="224.5,-0.5 224.5,-28.5 444.5,-28.5 444.5,-0.5 224.5,-0.5"/>
<text text-anchor="middle" x="334.5" y="-10.1" font-family="Helvetica,sans-Serif" font-size="18.00">AppWren::vmConstructor</text>
</a>
</g>
</g>
<!-- Node1&#45;&gt;Node5 -->
<g id="edge6" class="edge">
<title>Node1&#45;&gt;Node5</title>
<path fill="none" stroke="midnightblue" d="M699.74,-31.49C620.52,-27.8 520.09,-23.11 444.76,-19.6"/>
<polygon fill="midnightblue" stroke="midnightblue" points="699.63,-34.99 709.79,-31.96 699.96,-28 699.63,-34.99"/>
</g>
<!-- Node3 -->
<g id="node3" class="node">
<title>Node3</title>
<g id="a_node3"><a xlink:href="../../d0/da0/class_app_wren_aaa5357f4f5b7d4ffdd9f804e95d4a8e9.html#aaa5357f4f5b7d4ffdd9f804e95d4a8e9" target="_top" xlink:title="handles messages from other sw components">
<polygon fill="none" stroke="black" points="215,-94.5 215,-122.5 454,-122.5 454,-94.5 215,-94.5"/>
<text text-anchor="middle" x="334.5" y="-104.1" font-family="Helvetica,sans-Serif" font-size="18.00">AppWren::messageHandler</text>
</a>
</g>
</g>
<!-- Node2&#45;&gt;Node3 -->
<g id="edge2" class="edge">
<title>Node2&#45;&gt;Node3</title>
<path fill="none" stroke="midnightblue" d="M499.89,-76.5C484.64,-79.5 468.84,-82.6 454,-85.5 439.09,-88.41 423.12,-91.52 407.89,-94.48"/>
<polygon fill="midnightblue" stroke="midnightblue" points="500.67,-79.91 509.81,-74.55 499.32,-73.05 500.67,-79.91"/>
</g>
<!-- Node4 -->
<g id="node4" class="node">
<title>Node4</title>
<g id="a_node4"><a xlink:href="../../d0/da0/class_app_wren_ae2320840487b326c37c2e66ad700bbbf.html#ae2320840487b326c37c2e66ad700bbbf" target="_top" xlink:title="class specific update implementation">
<polygon fill="none" stroke="black" points="257,-47.5 257,-75.5 412,-75.5 412,-47.5 257,-47.5"/>
<text text-anchor="middle" x="334.5" y="-57.1" font-family="Helvetica,sans-Serif" font-size="18.00">AppWren::render</text>
</a>
</g>
</g>
<!-- Node2&#45;&gt;Node4 -->
<g id="edge3" class="edge">
<title>Node2&#45;&gt;Node4</title>
<path fill="none" stroke="midnightblue" d="M479.67,-60.91C457.17,-61 433.67,-61.1 412.33,-61.19"/>
<polygon fill="midnightblue" stroke="midnightblue" points="479.95,-64.41 489.93,-60.87 479.92,-57.41 479.95,-64.41"/>
</g>
<!-- Node2&#45;&gt;Node5 -->
<g id="edge4" class="edge">
<title>Node2&#45;&gt;Node5</title>
<path fill="none" stroke="midnightblue" d="M495.91,-44.56C468.11,-39.35 437.45,-33.6 410.46,-28.54"/>
<polygon fill="midnightblue" stroke="midnightblue" points="495.53,-48.05 506.01,-46.45 496.82,-41.17 495.53,-48.05"/>
</g>
<!-- Node6 -->
<g id="node6" class="node">
<title>Node6</title>
<g id="a_node6"><a xlink:href="../../d0/da0/class_app_wren_aa63148d0906a6b5eabbba7058f568eae.html#aa63148d0906a6b5eabbba7058f568eae" target="_top" xlink:title=" ">
<polygon fill="none" stroke="black" points="0,-0.5 0,-28.5 179,-28.5 179,-0.5 0,-0.5"/>
<text text-anchor="middle" x="89.5" y="-10.1" font-family="Helvetica,sans-Serif" font-size="18.00">AppWren::AppWren</text>
</a>
</g>
</g>
<!-- Node5&#45;&gt;Node6 -->
<g id="edge5" class="edge">
<title>Node5&#45;&gt;Node6</title>
<path fill="none" stroke="midnightblue" d="M214.12,-14.5C202.36,-14.5 190.57,-14.5 179.19,-14.5"/>
<polygon fill="midnightblue" stroke="midnightblue" points="214.44,-18 224.44,-14.5 214.44,-11 214.44,-18"/>
</g>
</g>
</svg>
