<?xml version="1.0" encoding="UTF-8" standalone="no"?>
<!DOCTYPE svg PUBLIC "-//W3C//DTD SVG 1.1//EN"
 "http://www.w3.org/Graphics/SVG/1.1/DTD/svg11.dtd">
<!-- Generated by graphviz version 2.47.3 (20210619.1520)
 -->
<!-- Title: AppWren::getWrenHandles Pages: 1 -->
<svg width="522pt" height="70pt"
 viewBox="0.00 0.00 522.00 70.00" xmlns="http://www.w3.org/2000/svg" xmlns:xlink="http://www.w3.org/1999/xlink">
<g id="graph0" class="graph" transform="scale(1 1) rotate(0) translate(4 66)">
<title>AppWren::getWrenHandles</title>
<polygon fill="white" stroke="transparent" points="-4,4 -4,-66 518,-66 518,4 -4,4"/>
<!-- Node1 -->
<g id="node1" class="node">
<title>Node1</title>
<g id="a_node1"><a xlink:title=" ">
<polygon fill="#bfbfbf" stroke="black" points="355,-20.5 355,-41.5 514,-41.5 514,-20.5 355,-20.5"/>
<text text-anchor="middle" x="434.5" y="-27.9" font-family="Helvetica,sans-Serif" font-size="12.00">AppWren::getWrenHandles</text>
</a>
</g>
</g>
<!-- Node2 -->
<g id="node2" class="node">
<title>Node2</title>
<g id="a_node2"><a xlink:href="../../d0/da0/class_app_wren.html#a58d99c6e69c586f105f615e5d4e5d457" target="_top" xlink:title=" ">
<polygon fill="white" stroke="black" points="158,-40.5 158,-61.5 319,-61.5 319,-40.5 158,-40.5"/>
<text text-anchor="middle" x="238.5" y="-47.9" font-family="Helvetica,sans-Serif" font-size="12.00">AppWren::MessageHandler</text>
</a>
</g>
</g>
<!-- Node1&#45;&gt;Node2 -->
<g id="edge1" class="edge">
<title>Node1&#45;&gt;Node2</title>
<path fill="none" stroke="midnightblue" d="M344.87,-40.14C336.31,-41.02 327.66,-41.91 319.19,-42.78"/>
<polygon fill="midnightblue" stroke="midnightblue" points="345.28,-43.61 354.87,-39.11 344.57,-36.65 345.28,-43.61"/>
</g>
<!-- Node3 -->
<g id="node3" class="node">
<title>Node3</title>
<g id="a_node3"><a xlink:href="../../d0/da0/class_app_wren.html#ab96749e0e63c43368cc7121477d472a4" target="_top" xlink:title=" ">
<polygon fill="white" stroke="black" points="165,-0.5 165,-21.5 312,-21.5 312,-0.5 165,-0.5"/>
<text text-anchor="middle" x="238.5" y="-7.9" font-family="Helvetica,sans-Serif" font-size="12.00">AppWren::vmConstructor</text>
</a>
</g>
</g>
<!-- Node1&#45;&gt;Node3 -->
<g id="edge2" class="edge">
<title>Node1&#45;&gt;Node3</title>
<path fill="none" stroke="midnightblue" d="M344.9,-21.87C333.99,-20.74 322.93,-19.6 312.29,-18.5"/>
<polygon fill="midnightblue" stroke="midnightblue" points="344.57,-25.35 354.87,-22.89 345.28,-18.39 344.57,-25.35"/>
</g>
<!-- Node4 -->
<g id="node4" class="node">
<title>Node4</title>
<g id="a_node4"><a xlink:href="../../d0/da0/class_app_wren.html#aa63148d0906a6b5eabbba7058f568eae" target="_top" xlink:title=" ">
<polygon fill="white" stroke="black" points="0,-0.5 0,-21.5 122,-21.5 122,-0.5 0,-0.5"/>
<text text-anchor="middle" x="61" y="-7.9" font-family="Helvetica,sans-Serif" font-size="12.00">AppWren::AppWren</text>
</a>
</g>
</g>
<!-- Node3&#45;&gt;Node4 -->
<g id="edge3" class="edge">
<title>Node3&#45;&gt;Node4</title>
<path fill="none" stroke="midnightblue" d="M154.77,-11C143.74,-11 132.6,-11 122.05,-11"/>
<polygon fill="midnightblue" stroke="midnightblue" points="154.85,-14.5 164.85,-11 154.85,-7.5 154.85,-14.5"/>
</g>
</g>
</svg>
