<?xml version="1.0" encoding="UTF-8" standalone="no"?>
<!DOCTYPE svg PUBLIC "-//W3C//DTD SVG 1.1//EN"
 "http://www.w3.org/Graphics/SVG/1.1/DTD/svg11.dtd">
<!-- Generated by graphviz version 2.47.3 (20210619.1520)
 -->
<!-- Title: AppWren::onTouchRelease Pages: 1 -->
<svg width="1406pt" height="366pt"
 viewBox="0.00 0.00 1406.00 366.00" xmlns="http://www.w3.org/2000/svg" xmlns:xlink="http://www.w3.org/1999/xlink">
<g id="graph0" class="graph" transform="scale(1 1) rotate(0) translate(4 362)">
<title>AppWren::onTouchRelease</title>
<!-- Node1 -->
<g id="node1" class="node">
<title>Node1</title>
<g id="a_node1"><a xlink:title="class specific onTouchRelease implementation">
<polygon fill="#bfbfbf" stroke="black" points="0,-164.5 0,-192.5 239,-192.5 239,-164.5 0,-164.5"/>
<text text-anchor="middle" x="119.5" y="-174.1" font-family="Helvetica,sans-Serif" font-size="18.00">AppWren::onTouchRelease</text>
</a>
</g>
</g>
<!-- Node2 -->
<g id="node2" class="node">
<title>Node2</title>
<g id="a_node2"><a xlink:href="../../d0/da0/class_app_wren_a701371012a8d0ca93203257c69a7204a.html#a701371012a8d0ca93203257c69a7204a" target="_top" xlink:title=" ">
<polygon fill="none" stroke="black" points="292.5,-188.5 292.5,-216.5 529.5,-216.5 529.5,-188.5 292.5,-188.5"/>
<text text-anchor="middle" x="411" y="-198.1" font-family="Helvetica,sans-Serif" font-size="18.00">AppWren::isWrenResultOK</text>
</a>
</g>
</g>
<!-- Node1&#45;&gt;Node2 -->
<g id="edge1" class="edge">
<title>Node1&#45;&gt;Node2</title>
<path fill="none" stroke="midnightblue" d="M239.09,-188.33C253.16,-189.5 267.57,-190.69 281.77,-191.87"/>
<polygon fill="midnightblue" stroke="midnightblue" points="281.81,-195.38 292.07,-192.72 282.39,-188.41 281.81,-195.38"/>
</g>
<!-- Node15 -->
<g id="node15" class="node">
<title>Node15</title>
<g id="a_node15"><a xlink:href="../../d0/da0/class_app_wren_ab6016f4a08eee6f678b3e389f35a2fbd.html#ab6016f4a08eee6f678b3e389f35a2fbd" target="_top" xlink:title="release any/all Wren embedded call handles">
<polygon fill="none" stroke="black" points="275,-141.5 275,-169.5 547,-169.5 547,-141.5 275,-141.5"/>
<text text-anchor="middle" x="411" y="-151.1" font-family="Helvetica,sans-Serif" font-size="18.00">AppWren::releaseWrenHandles</text>
</a>
</g>
</g>
<!-- Node1&#45;&gt;Node15 -->
<g id="edge14" class="edge">
<title>Node1&#45;&gt;Node15</title>
<path fill="none" stroke="midnightblue" d="M239.09,-169.08C247.5,-168.41 256.04,-167.73 264.59,-167.05"/>
<polygon fill="midnightblue" stroke="midnightblue" points="264.92,-170.54 274.61,-166.26 264.36,-163.56 264.92,-170.54"/>
</g>
<!-- Node3 -->
<g id="node3" class="node">
<title>Node3</title>
<g id="a_node3"><a xlink:href="../../da/d96/class_app_manager_a08daaf40a3ddaa938603039eb1e67d09.html#a08daaf40a3ddaa938603039eb1e67d09" target="_top" xlink:title="Get the App pointer By Name. Returns NULL if not found.">
<polygon fill="none" stroke="black" points="583,-211.5 583,-239.5 839,-239.5 839,-211.5 583,-211.5"/>
<text text-anchor="middle" x="711" y="-221.1" font-family="Helvetica,sans-Serif" font-size="18.00">AppManager::getAppByName</text>
</a>
</g>
</g>
<!-- Node2&#45;&gt;Node3 -->
<g id="edge2" class="edge">
<title>Node2&#45;&gt;Node3</title>
<path fill="none" stroke="midnightblue" d="M529.78,-211.59C543.79,-212.67 558.18,-213.78 572.43,-214.88"/>
<polygon fill="midnightblue" stroke="midnightblue" points="572.54,-218.4 582.78,-215.68 573.08,-211.42 572.54,-218.4"/>
</g>
<!-- Node5 -->
<g id="node5" class="node">
<title>Node5</title>
<g id="a_node5"><a xlink:href="../../da/d96/class_app_manager_aa76d9691e8d029656413590fbe4dee86.html#aa76d9691e8d029656413590fbe4dee86" target="_top" xlink:title=" ">
<polygon fill="none" stroke="black" points="599,-164.5 599,-192.5 823,-192.5 823,-164.5 599,-164.5"/>
<text text-anchor="middle" x="711" y="-174.1" font-family="Helvetica,sans-Serif" font-size="18.00">AppManager::getInstance</text>
</a>
</g>
</g>
<!-- Node2&#45;&gt;Node5 -->
<g id="edge4" class="edge">
<title>Node2&#45;&gt;Node5</title>
<path fill="none" stroke="midnightblue" d="M529.78,-193.01C549.17,-191.45 569.31,-189.83 588.79,-188.26"/>
<polygon fill="midnightblue" stroke="midnightblue" points="589.22,-191.74 598.9,-187.45 588.65,-184.76 589.22,-191.74"/>
</g>
<!-- Node4 -->
<g id="node4" class="node">
<title>Node4</title>
<g id="a_node4"><a xlink:href="../../db/d69/class_app_base_class_aa989ddf4bdc4cbd9a61791ca45082177.html#aa989ddf4bdc4cbd9a61791ca45082177" target="_top" xlink:title=" ">
<polygon fill="none" stroke="black" points="889,-211.5 889,-239.5 1094,-239.5 1094,-211.5 889,-211.5"/>
<text text-anchor="middle" x="991.5" y="-221.1" font-family="Helvetica,sans-Serif" font-size="18.00">AppBaseClass::isName</text>
</a>
</g>
</g>
<!-- Node3&#45;&gt;Node4 -->
<g id="edge3" class="edge">
<title>Node3&#45;&gt;Node4</title>
<path fill="none" stroke="midnightblue" d="M839.03,-225.5C852.16,-225.5 865.43,-225.5 878.38,-225.5"/>
<polygon fill="midnightblue" stroke="midnightblue" points="878.69,-229 888.69,-225.5 878.69,-222 878.69,-229"/>
</g>
<!-- Node6 -->
<g id="node6" class="node">
<title>Node6</title>
<g id="a_node6"><a xlink:href="../../da/d96/class_app_manager_a9439da981933119c49a83a507d64eb23.html#a9439da981933119c49a83a507d64eb23" target="_top" xlink:title="Construct a new App Manager:: App Manager object using a private constuctor (lazy singleton pattern)">
<polygon fill="none" stroke="black" points="875,-164.5 875,-192.5 1108,-192.5 1108,-164.5 875,-164.5"/>
<text text-anchor="middle" x="991.5" y="-174.1" font-family="Helvetica,sans-Serif" font-size="18.00">AppManager::AppManager</text>
</a>
</g>
</g>
<!-- Node5&#45;&gt;Node6 -->
<g id="edge5" class="edge">
<title>Node5&#45;&gt;Node6</title>
<path fill="none" stroke="midnightblue" d="M823.27,-178.5C836.93,-178.5 850.96,-178.5 864.8,-178.5"/>
<polygon fill="midnightblue" stroke="midnightblue" points="864.85,-182 874.85,-178.5 864.85,-175 864.85,-182"/>
</g>
<!-- Node7 -->
<g id="node7" class="node">
<title>Node7</title>
<g id="a_node7"><a xlink:href="../../d8/d5a/class_i_l_i9341__t3___e_r_i_s_a8c8c09d5ca51d5b4c611875df643bef6.html#a8c8c09d5ca51d5b4c611875df643bef6" target="_top" xlink:title=" ">
<polygon fill="none" stroke="black" points="1168,-329.5 1168,-357.5 1374,-357.5 1374,-329.5 1168,-329.5"/>
<text text-anchor="middle" x="1271" y="-339.1" font-family="Helvetica,sans-Serif" font-size="18.00">ILI9341_t3_ERIS::begin</text>
</a>
</g>
</g>
<!-- Node6&#45;&gt;Node7 -->
<g id="edge6" class="edge">
<title>Node6&#45;&gt;Node7</title>
<path fill="none" stroke="midnightblue" d="M1094.08,-192.5C1099.07,-195.33 1103.76,-198.63 1108,-202.5 1148.5,-239.46 1103.05,-284.03 1144,-320.5 1148.52,-324.53 1153.51,-327.96 1158.8,-330.87"/>
<polygon fill="midnightblue" stroke="midnightblue" points="1157.46,-334.11 1167.99,-335.31 1160.51,-327.81 1157.46,-334.11"/>
</g>
<!-- Node8 -->
<g id="node8" class="node">
<title>Node8</title>
<g id="a_node8"><a xlink:href="../../d1/dff/class_touch_a057f1914b96362769a5384dbbfdb4195.html#a057f1914b96362769a5384dbbfdb4195" target="_top" xlink:title=" ">
<polygon fill="none" stroke="black" points="1210,-282.5 1210,-310.5 1332,-310.5 1332,-282.5 1210,-282.5"/>
<text text-anchor="middle" x="1271" y="-292.1" font-family="Helvetica,sans-Serif" font-size="18.00">Touch::begin</text>
</a>
</g>
</g>
<!-- Node6&#45;&gt;Node8 -->
<g id="edge7" class="edge">
<title>Node6&#45;&gt;Node8</title>
<path fill="none" stroke="midnightblue" d="M1091.64,-192.59C1097.44,-195.37 1102.96,-198.64 1108,-202.5 1136.1,-224 1115.64,-252.34 1144,-273.5 1159.94,-285.39 1180.11,-291.78 1199.62,-295.06"/>
<polygon fill="midnightblue" stroke="midnightblue" points="1199.34,-298.56 1209.73,-296.51 1200.33,-291.63 1199.34,-298.56"/>
</g>
<!-- Node9 -->
<g id="node9" class="node">
<title>Node9</title>
<g id="a_node9"><a xlink:href="../../dc/d40/_app_manager_8cpp_a5db3dd95011fd6a678ae291290091314.html#a5db3dd95011fd6a678ae291290091314" target="_top" xlink:title=" ">
<polygon fill="none" stroke="black" points="1243,-235.5 1243,-263.5 1299,-263.5 1299,-235.5 1243,-235.5"/>
<text text-anchor="middle" x="1271" y="-245.1" font-family="Helvetica,sans-Serif" font-size="18.00">draw</text>
</a>
</g>
</g>
<!-- Node6&#45;&gt;Node9 -->
<g id="edge8" class="edge">
<title>Node6&#45;&gt;Node9</title>
<path fill="none" stroke="midnightblue" d="M1078.46,-192.51C1088.6,-195.29 1098.65,-198.59 1108,-202.5 1125.74,-209.93 1126.17,-219.29 1144,-226.5 1172.45,-238 1206.83,-243.79 1232.49,-246.68"/>
<polygon fill="midnightblue" stroke="midnightblue" points="1232.26,-250.17 1242.56,-247.71 1232.98,-243.21 1232.26,-250.17"/>
</g>
<!-- Node10 -->
<g id="node10" class="node">
<title>Node10</title>
<g id="a_node10"><a xlink:href="../../d1/dff/class_touch_a61a5d056f07ab08cb5924fa573dc3497.html#a61a5d056f07ab08cb5924fa573dc3497" target="_top" xlink:title=" ">
<polygon fill="none" stroke="black" points="1152,-188.5 1152,-216.5 1390,-216.5 1390,-188.5 1152,-188.5"/>
<text text-anchor="middle" x="1271" y="-198.1" font-family="Helvetica,sans-Serif" font-size="18.00">Touch::setCalibrationInputs</text>
</a>
</g>
</g>
<!-- Node6&#45;&gt;Node10 -->
<g id="edge9" class="edge">
<title>Node6&#45;&gt;Node10</title>
<path fill="none" stroke="midnightblue" d="M1108.18,-188.5C1119.22,-189.46 1130.47,-190.43 1141.62,-191.4"/>
<polygon fill="midnightblue" stroke="midnightblue" points="1141.57,-194.91 1151.83,-192.28 1142.17,-187.93 1141.57,-194.91"/>
</g>
<!-- Node11 -->
<g id="node11" class="node">
<title>Node11</title>
<g id="a_node11"><a xlink:href="../../d4/d7c/class_animation_a997d1203ae9418f121f355a5bd0700f0.html#a997d1203ae9418f121f355a5bd0700f0" target="_top" xlink:title=" ">
<polygon fill="none" stroke="black" points="1187,-141.5 1187,-169.5 1355,-169.5 1355,-141.5 1187,-141.5"/>
<text text-anchor="middle" x="1271" y="-151.1" font-family="Helvetica,sans-Serif" font-size="18.00">Animation::setPath</text>
</a>
</g>
</g>
<!-- Node6&#45;&gt;Node11 -->
<g id="edge10" class="edge">
<title>Node6&#45;&gt;Node11</title>
<path fill="none" stroke="midnightblue" d="M1108.18,-168.91C1131,-167.02 1154.69,-165.06 1176.66,-163.24"/>
<polygon fill="midnightblue" stroke="midnightblue" points="1176.95,-166.72 1186.63,-162.41 1176.37,-159.75 1176.95,-166.72"/>
</g>
<!-- Node12 -->
<g id="node12" class="node">
<title>Node12</title>
<g id="a_node12"><a xlink:href="../../d8/d5a/class_i_l_i9341__t3___e_r_i_s_a33f0105b1eecc4c37195900fcf0d5fd8.html#a33f0105b1eecc4c37195900fcf0d5fd8" target="_top" xlink:title=" ">
<polygon fill="none" stroke="black" points="1144,-94.5 1144,-122.5 1398,-122.5 1398,-94.5 1144,-94.5"/>
<text text-anchor="middle" x="1271" y="-104.1" font-family="Helvetica,sans-Serif" font-size="18.00">ILI9341_t3_ERIS::setPWMPin</text>
</a>
</g>
</g>
<!-- Node6&#45;&gt;Node12 -->
<g id="edge11" class="edge">
<title>Node6&#45;&gt;Node12</title>
<path fill="none" stroke="midnightblue" d="M1034.29,-164.5C1064.53,-154.69 1106.5,-141.74 1144,-132.5 1155.4,-129.69 1167.45,-127.02 1179.4,-124.55"/>
<polygon fill="midnightblue" stroke="midnightblue" points="1180.29,-127.94 1189.4,-122.53 1178.9,-121.08 1180.29,-127.94"/>
</g>
<!-- Node13 -->
<g id="node13" class="node">
<title>Node13</title>
<g id="a_node13"><a xlink:href="../../d4/d7c/class_animation_ab5af4d2f56dce439c18ba9c4655f98f0.html#ab5af4d2f56dce439c18ba9c4655f98f0" target="_top" xlink:title=" ">
<polygon fill="none" stroke="black" points="1193.5,-47.5 1193.5,-75.5 1348.5,-75.5 1348.5,-47.5 1193.5,-47.5"/>
<text text-anchor="middle" x="1271" y="-57.1" font-family="Helvetica,sans-Serif" font-size="18.00">Animation::setSD</text>
</a>
</g>
</g>
<!-- Node6&#45;&gt;Node13 -->
<g id="edge12" class="edge">
<title>Node6&#45;&gt;Node13</title>
<path fill="none" stroke="midnightblue" d="M1010.48,-164.42C1037.74,-143.81 1091.91,-105.67 1144,-85.5 1156.53,-80.65 1170.16,-76.75 1183.67,-73.63"/>
<polygon fill="midnightblue" stroke="midnightblue" points="1184.44,-77.04 1193.46,-71.48 1182.95,-70.2 1184.44,-77.04"/>
</g>
<!-- Node14 -->
<g id="node14" class="node">
<title>Node14</title>
<g id="a_node14"><a xlink:href="../../d8/d5a/class_i_l_i9341__t3___e_r_i_s_a2bfdbf675a570c74b787fd222185f25f.html#a2bfdbf675a570c74b787fd222185f25f" target="_top" xlink:title=" ">
<polygon fill="none" stroke="black" points="1166.5,-0.5 1166.5,-28.5 1375.5,-28.5 1375.5,-0.5 1166.5,-0.5"/>
<text text-anchor="middle" x="1271" y="-10.1" font-family="Helvetica,sans-Serif" font-size="18.00">ILI9341_t3_ERIS::setSD</text>
</a>
</g>
</g>
<!-- Node6&#45;&gt;Node14 -->
<g id="edge13" class="edge">
<title>Node6&#45;&gt;Node14</title>
<path fill="none" stroke="midnightblue" d="M1003.24,-164.24C1025.81,-135.38 1081.33,-70.11 1144,-38.5 1148.85,-36.06 1153.91,-33.86 1159.11,-31.89"/>
<polygon fill="midnightblue" stroke="midnightblue" points="1160.31,-35.17 1168.6,-28.57 1158,-28.57 1160.31,-35.17"/>
</g>
</g>
</svg>
