<?xml version="1.0" encoding="UTF-8" standalone="no"?>
<!DOCTYPE svg PUBLIC "-//W3C//DTD SVG 1.1//EN"
 "http://www.w3.org/Graphics/SVG/1.1/DTD/svg11.dtd">
<!-- Generated by graphviz version 2.47.3 (20210619.1520)
 -->
<!-- Title: AppWren::shutdownVM Pages: 1 -->
<svg width="624pt" height="80pt"
 viewBox="0.00 0.00 624.00 80.00" xmlns="http://www.w3.org/2000/svg" xmlns:xlink="http://www.w3.org/1999/xlink">
<g id="graph0" class="graph" transform="scale(1 1) rotate(0) translate(4 76)">
<title>AppWren::shutdownVM</title>
<!-- Node1 -->
<g id="node1" class="node">
<title>Node1</title>
<g id="a_node1"><a xlink:title="shutdown the VM">
<polygon fill="#bfbfbf" stroke="black" points="437,-22.5 437,-48.5 616,-48.5 616,-22.5 437,-22.5"/>
<text text-anchor="middle" x="526.5" y="-31.7" font-family="Helvetica,sans-Serif" font-size="16.00">AppWren::shutdownVM</text>
</a>
</g>
</g>
<!-- Node2 -->
<g id="node2" class="node">
<title>Node2</title>
<g id="a_node2"><a xlink:href="../../d0/da0/class_app_wren_aedf9a5e77ba482fde47e52125e9ca292.html#aedf9a5e77ba482fde47e52125e9ca292" target="_top" xlink:title="shutsdown then starts the VM">
<polygon fill="none" stroke="black" points="243,-22.5 243,-48.5 401,-48.5 401,-22.5 243,-22.5"/>
<text text-anchor="middle" x="322" y="-31.7" font-family="Helvetica,sans-Serif" font-size="16.00">AppWren::restartVM</text>
</a>
</g>
</g>
<!-- Node1&#45;&gt;Node2 -->
<g id="edge1" class="edge">
<title>Node1&#45;&gt;Node2</title>
<path fill="none" stroke="midnightblue" d="M426.88,-35.5C418.25,-35.5 409.6,-35.5 401.17,-35.5"/>
<polygon fill="midnightblue" stroke="midnightblue" points="426.98,-39 436.98,-35.5 426.98,-32 426.98,-39"/>
</g>
<!-- Node3 -->
<g id="node3" class="node">
<title>Node3</title>
<g id="a_node3"><a xlink:href="../../d0/da0/class_app_wren_aaa5357f4f5b7d4ffdd9f804e95d4a8e9.html#aaa5357f4f5b7d4ffdd9f804e95d4a8e9" target="_top" xlink:title="handles messages from other sw components">
<polygon fill="none" stroke="black" points="0,-45.5 0,-71.5 207,-71.5 207,-45.5 0,-45.5"/>
<text text-anchor="middle" x="103.5" y="-54.7" font-family="Helvetica,sans-Serif" font-size="16.00">AppWren::messageHandler</text>
</a>
</g>
</g>
<!-- Node2&#45;&gt;Node3 -->
<g id="edge2" class="edge">
<title>Node2&#45;&gt;Node3</title>
<path fill="none" stroke="midnightblue" d="M232.64,-44.89C224.21,-45.78 215.6,-46.7 207.04,-47.61"/>
<polygon fill="midnightblue" stroke="midnightblue" points="233.26,-48.34 242.84,-43.8 232.52,-41.38 233.26,-48.34"/>
</g>
<!-- Node4 -->
<g id="node4" class="node">
<title>Node4</title>
<g id="a_node4"><a xlink:href="../../d0/da0/class_app_wren_a46ef63c583efb89334bc8fbf20cf7a83.html#a46ef63c583efb89334bc8fbf20cf7a83" target="_top" xlink:title="class specific update implementation">
<polygon fill="none" stroke="black" points="35,-0.5 35,-26.5 172,-26.5 172,-0.5 35,-0.5"/>
<text text-anchor="middle" x="103.5" y="-9.7" font-family="Helvetica,sans-Serif" font-size="16.00">AppWren::update</text>
</a>
</g>
</g>
<!-- Node2&#45;&gt;Node4 -->
<g id="edge3" class="edge">
<title>Node2&#45;&gt;Node4</title>
<path fill="none" stroke="midnightblue" d="M232.7,-26.53C212.5,-24.47 191.34,-22.32 172.17,-20.38"/>
<polygon fill="midnightblue" stroke="midnightblue" points="232.54,-30.03 242.84,-27.56 233.24,-23.06 232.54,-30.03"/>
</g>
</g>
</svg>
