<?xml version="1.0" encoding="UTF-8" standalone="no"?>
<!DOCTYPE svg PUBLIC "-//W3C//DTD SVG 1.1//EN"
 "http://www.w3.org/Graphics/SVG/1.1/DTD/svg11.dtd">
<!-- Generated by graphviz version 2.47.3 (20210619.1520)
 -->
<!-- Title: AppWren::getDraw Pages: 1 -->
<!--zoomable 170 -->
<svg id="main" version="1.1" xmlns="http://www.w3.org/2000/svg" xmlns:xlink="http://www.w3.org/1999/xlink" xml:space="preserve" onload="init(evt)">
<style type="text/css"><![CDATA[
.edge:hover path { stroke: red; }
.edge:hover polygon { stroke: red; fill: red; }
]]></style>
<script type="text/javascript"><![CDATA[
var edges = document.getElementsByTagName('g');
if (edges && edges.length) {
  for (var i=0;i<edges.length;i++) {
    if (edges[i].id.substr(0,4)=='edge') {
      edges[i].setAttribute('class','edge');
    }
  }
}
]]></script>
        <defs>
                <circle id="rim" cx="0" cy="0" r="7"/>
                <circle id="rim2" cx="0" cy="0" r="3.5"/>
                <g id="zoomPlus">
                        <use xlink:href="#rim" fill="#404040">
                                <set attributeName="fill" to="#808080" begin="zoomplus.mouseover" end="zoomplus.mouseout"/>
                        </use>
                        <path d="M-4,0h8M0,-4v8" fill="none" stroke="white" stroke-width="1.5" pointer-events="none"/>
                </g>
                <g id="zoomMin">
                        <use xlink:href="#rim" fill="#404040">
                                <set attributeName="fill" to="#808080" begin="zoomminus.mouseover" end="zoomminus.mouseout"/>
                        </use>
                        <path d="M-4,0h8" fill="none" stroke="white" stroke-width="1.5" pointer-events="none"/>
                </g>
                <g id="dirArrow">
                        <path fill="none" stroke="white" stroke-width="1.5" d="M0,-3.0v7 M-2.5,-0.5L0,-3.0L2.5,-0.5"/>
                </g>
               <g id="resetDef">
                       <use xlink:href="#rim2" fill="#404040">
                               <set attributeName="fill" to="#808080" begin="reset.mouseover" end="reset.mouseout"/>
                       </use>
               </g>
        </defs>

<script type="text/javascript">
var viewWidth = 1196;
var viewHeight = 170;
var sectionId = 'dynsection-1';
</script>
<script xlink:href="../../svgpan.js"/>
<svg id="graph" class="graph">
<g id="viewport">
<title>AppWren::getDraw</title>
<!-- Node1 -->
<g id="node1" class="node">
<title>Node1</title>
<g id="a_node1"><a xlink:title="provides an interface for wren c call backfunctions to get the ILI9341_t3_ERIS draw object.">
<polygon fill="#bfbfbf" stroke="black" points="1039,-67.5 1039,-93.5 1188,-93.5 1188,-67.5 1039,-67.5"/>
<text text-anchor="middle" x="1113.5" y="-76.7" font-family="Helvetica,sans-Serif" font-size="16.00">AppWren::getDraw</text>
</a>
</g>
</g>
<!-- Node2 -->
<g id="node2" class="node">
<title>Node2</title>
<g id="a_node2"><a xlink:href="../../d7/d7e/_app_wren_8cpp_ac2d17abd6b82fc40c0f2425cef003f08.html#ac2d17abd6b82fc40c0f2425cef003f08" target="_top" xlink:title="VM callback for extention method.">
<polygon fill="none" stroke="black" points="846.5,-135.5 846.5,-161.5 994.5,-161.5 994.5,-135.5 846.5,-135.5"/>
<text text-anchor="middle" x="920.5" y="-144.7" font-family="Helvetica,sans-Serif" font-size="16.00">loadImageCallback</text>
</a>
</g>
</g>
<!-- Node1&#45;&gt;Node2 -->
<g id="edge1" class="edge">
<title>Node1&#45;&gt;Node2</title>
<path fill="none" stroke="midnightblue" d="M1074.91,-97.76C1054,-106.99 1027.35,-118.14 1003,-126.5 993.71,-129.69 983.7,-132.71 973.99,-135.45"/>
<polygon fill="midnightblue" stroke="midnightblue" points="1076.38,-100.94 1084.09,-93.67 1073.53,-94.55 1076.38,-100.94"/>
</g>
<!-- Node10 -->
<g id="node10" class="node">
<title>Node10</title>
<g id="a_node10"><a xlink:href="../../d7/d7e/_app_wren_8cpp_a0631bad43a765513733dbc934ebc5620.html#a0631bad43a765513733dbc934ebc5620" target="_top" xlink:title="VM callback for extention method.">
<polygon fill="none" stroke="black" points="867.5,-90.5 867.5,-116.5 973.5,-116.5 973.5,-90.5 867.5,-90.5"/>
<text text-anchor="middle" x="920.5" y="-99.7" font-family="Helvetica,sans-Serif" font-size="16.00">printCallback</text>
</a>
</g>
</g>
<!-- Node1&#45;&gt;Node10 -->
<g id="edge9" class="edge">
<title>Node1&#45;&gt;Node10</title>
<path fill="none" stroke="midnightblue" d="M1028.89,-90.57C1010.13,-92.83 990.75,-95.16 973.71,-97.21"/>
<polygon fill="midnightblue" stroke="midnightblue" points="1029.42,-94.03 1038.93,-89.36 1028.58,-87.08 1029.42,-94.03"/>
</g>
<!-- Node11 -->
<g id="node11" class="node">
<title>Node11</title>
<g id="a_node11"><a xlink:href="../../d7/d7e/_app_wren_8cpp_ac544ec6ebbf44fc70c8321cfa9b72ff7.html#ac544ec6ebbf44fc70c8321cfa9b72ff7" target="_top" xlink:title="VM callback for extention method.">
<polygon fill="none" stroke="black" points="848,-45.5 848,-71.5 993,-71.5 993,-45.5 848,-45.5"/>
<text text-anchor="middle" x="920.5" y="-54.7" font-family="Helvetica,sans-Serif" font-size="16.00">setCursorCallback</text>
</a>
</g>
</g>
<!-- Node1&#45;&gt;Node11 -->
<g id="edge11" class="edge">
<title>Node1&#45;&gt;Node11</title>
<path fill="none" stroke="midnightblue" d="M1028.97,-70.88C1017.03,-69.5 1004.83,-68.1 993.15,-66.75"/>
<polygon fill="midnightblue" stroke="midnightblue" points="1028.59,-74.36 1038.93,-72.03 1029.39,-67.4 1028.59,-74.36"/>
</g>
<!-- Node12 -->
<g id="node12" class="node">
<title>Node12</title>
<g id="a_node12"><a xlink:href="../../d7/d7e/_app_wren_8cpp_a4759cb1820df2bb8b51e7233b65097c7.html#a4759cb1820df2bb8b51e7233b65097c7" target="_top" xlink:title="VM callback for extention method.">
<polygon fill="none" stroke="black" points="838,-0.5 838,-26.5 1003,-26.5 1003,-0.5 838,-0.5"/>
<text text-anchor="middle" x="920.5" y="-9.7" font-family="Helvetica,sans-Serif" font-size="16.00">setTextColorCallback</text>
</a>
</g>
</g>
<!-- Node1&#45;&gt;Node12 -->
<g id="edge13" class="edge">
<title>Node1&#45;&gt;Node12</title>
<path fill="none" stroke="midnightblue" d="M1073.21,-63.52C1052.52,-54.89 1026.6,-44.55 1003,-36.5 992.7,-32.99 981.55,-29.59 970.89,-26.52"/>
<polygon fill="midnightblue" stroke="midnightblue" points="1072.04,-66.83 1082.62,-67.48 1074.76,-60.38 1072.04,-66.83"/>
</g>
<!-- Node3 -->
<g id="node3" class="node">
<title>Node3</title>
<g id="a_node3"><a xlink:href="../../d7/d7e/_app_wren_8cpp_afe955d602a19a51c186913d9dc8ff707.html#afe955d602a19a51c186913d9dc8ff707" target="_top" xlink:title="callback function for Wren to request an exported function bindings">
<polygon fill="none" stroke="black" points="652,-67.5 652,-93.5 802,-93.5 802,-67.5 652,-67.5"/>
<text text-anchor="middle" x="727" y="-76.7" font-family="Helvetica,sans-Serif" font-size="16.00">bindForeignMethod</text>
</a>
</g>
</g>
<!-- Node2&#45;&gt;Node3 -->
<g id="edge2" class="edge">
<title>Node2&#45;&gt;Node3</title>
<path fill="none" stroke="midnightblue" d="M857.39,-132.66C850.81,-130.7 844.24,-128.64 838,-126.5 809.8,-116.84 778.52,-103.5 756.55,-93.67"/>
<polygon fill="midnightblue" stroke="midnightblue" points="856.44,-136.02 867.02,-135.43 858.38,-129.3 856.44,-136.02"/>
</g>
<!-- Node4 -->
<g id="node4" class="node">
<title>Node4</title>
<g id="a_node4"><a xlink:href="../../d0/da0/class_app_wren_a0b139e8eac17bd02ffaff68532c3e4fc.html#a0b139e8eac17bd02ffaff68532c3e4fc" target="_top" xlink:title="start the VM">
<polygon fill="none" stroke="black" points="472,-67.5 472,-93.5 616,-93.5 616,-67.5 472,-67.5"/>
<text text-anchor="middle" x="544" y="-76.7" font-family="Helvetica,sans-Serif" font-size="16.00">AppWren::startVM</text>
</a>
</g>
</g>
<!-- Node3&#45;&gt;Node4 -->
<g id="edge3" class="edge">
<title>Node3&#45;&gt;Node4</title>
<path fill="none" stroke="midnightblue" d="M641.82,-80.5C633.22,-80.5 624.55,-80.5 616.11,-80.5"/>
<polygon fill="midnightblue" stroke="midnightblue" points="641.86,-84 651.86,-80.5 641.86,-77 641.86,-84"/>
</g>
<!-- Node5 -->
<g id="node5" class="node">
<title>Node5</title>
<g id="a_node5"><a xlink:href="../../d0/da0/class_app_wren_aedf9a5e77ba482fde47e52125e9ca292.html#aedf9a5e77ba482fde47e52125e9ca292" target="_top" xlink:title="shutsdown then starts the VM">
<polygon fill="none" stroke="black" points="261,-90.5 261,-116.5 419,-116.5 419,-90.5 261,-90.5"/>
<text text-anchor="middle" x="340" y="-99.7" font-family="Helvetica,sans-Serif" font-size="16.00">AppWren::restartVM</text>
</a>
</g>
</g>
<!-- Node4&#45;&gt;Node5 -->
<g id="edge4" class="edge">
<title>Node4&#45;&gt;Node5</title>
<path fill="none" stroke="midnightblue" d="M461.67,-89.76C447.64,-91.36 433.08,-93.02 419.13,-94.6"/>
<polygon fill="midnightblue" stroke="midnightblue" points="462.24,-93.22 471.78,-88.61 461.45,-86.26 462.24,-93.22"/>
</g>
<!-- Node8 -->
<g id="node8" class="node">
<title>Node8</title>
<g id="a_node8"><a xlink:href="../../d0/da0/class_app_wren_af9fc192669efcd782a665bc5918aaaa3.html#af9fc192669efcd782a665bc5918aaaa3" target="_top" xlink:title="start, load and configure the handles of the VM">
<polygon fill="none" stroke="black" points="244,-45.5 244,-71.5 436,-71.5 436,-45.5 244,-45.5"/>
<text text-anchor="middle" x="340" y="-54.7" font-family="Helvetica,sans-Serif" font-size="16.00">AppWren::vmConstructor</text>
</a>
</g>
</g>
<!-- Node4&#45;&gt;Node8 -->
<g id="edge7" class="edge">
<title>Node4&#45;&gt;Node8</title>
<path fill="none" stroke="midnightblue" d="M461.71,-71.65C453.36,-70.74 444.83,-69.81 436.34,-68.88"/>
<polygon fill="midnightblue" stroke="midnightblue" points="461.46,-75.14 471.78,-72.74 462.22,-68.18 461.46,-75.14"/>
</g>
<!-- Node6 -->
<g id="node6" class="node">
<title>Node6</title>
<g id="a_node6"><a xlink:href="../../d0/da0/class_app_wren_a9545f907e7bca8484595d63ade9abe96.html#a9545f907e7bca8484595d63ade9abe96" target="_top" xlink:title="handles messages from other sw components">
<polygon fill="none" stroke="black" points="0,-135.5 0,-161.5 208,-161.5 208,-135.5 0,-135.5"/>
<text text-anchor="middle" x="104" y="-144.7" font-family="Helvetica,sans-Serif" font-size="16.00">AppWren::MessageHandler</text>
</a>
</g>
</g>
<!-- Node5&#45;&gt;Node6 -->
<g id="edge5" class="edge">
<title>Node5&#45;&gt;Node6</title>
<path fill="none" stroke="midnightblue" d="M261.36,-118.43C232.76,-123.93 200.61,-130.11 172.94,-135.44"/>
<polygon fill="midnightblue" stroke="midnightblue" points="262.16,-121.84 271.32,-116.52 260.84,-114.97 262.16,-121.84"/>
</g>
<!-- Node7 -->
<g id="node7" class="node">
<title>Node7</title>
<g id="a_node7"><a xlink:href="../../d0/da0/class_app_wren_a46ef63c583efb89334bc8fbf20cf7a83.html#a46ef63c583efb89334bc8fbf20cf7a83" target="_top" xlink:title="class specific update implementation">
<polygon fill="none" stroke="black" points="35.5,-90.5 35.5,-116.5 172.5,-116.5 172.5,-90.5 35.5,-90.5"/>
<text text-anchor="middle" x="104" y="-99.7" font-family="Helvetica,sans-Serif" font-size="16.00">AppWren::update</text>
</a>
</g>
</g>
<!-- Node5&#45;&gt;Node7 -->
<g id="edge6" class="edge">
<title>Node5&#45;&gt;Node7</title>
<path fill="none" stroke="midnightblue" d="M250.58,-103.5C224.74,-103.5 196.92,-103.5 172.59,-103.5"/>
<polygon fill="midnightblue" stroke="midnightblue" points="250.76,-107 260.76,-103.5 250.76,-100 250.76,-107"/>
</g>
<!-- Node9 -->
<g id="node9" class="node">
<title>Node9</title>
<g id="a_node9"><a xlink:href="../../d0/da0/class_app_wren_aa63148d0906a6b5eabbba7058f568eae.html#aa63148d0906a6b5eabbba7058f568eae" target="_top" xlink:title=" ">
<polygon fill="none" stroke="black" points="26.5,-45.5 26.5,-71.5 181.5,-71.5 181.5,-45.5 26.5,-45.5"/>
<text text-anchor="middle" x="104" y="-54.7" font-family="Helvetica,sans-Serif" font-size="16.00">AppWren::AppWren</text>
</a>
</g>
</g>
<!-- Node8&#45;&gt;Node9 -->
<g id="edge8" class="edge">
<title>Node8&#45;&gt;Node9</title>
<path fill="none" stroke="midnightblue" d="M233.61,-58.5C216.17,-58.5 198.39,-58.5 181.82,-58.5"/>
<polygon fill="midnightblue" stroke="midnightblue" points="233.82,-62 243.82,-58.5 233.82,-55 233.82,-62"/>
</g>
<!-- Node10&#45;&gt;Node3 -->
<g id="edge10" class="edge">
<title>Node10&#45;&gt;Node3</title>
<path fill="none" stroke="midnightblue" d="M857.32,-96.03C839.78,-93.92 820.51,-91.61 802.34,-89.43"/>
<polygon fill="midnightblue" stroke="midnightblue" points="857.08,-99.53 867.42,-97.25 857.91,-92.58 857.08,-99.53"/>
</g>
<!-- Node11&#45;&gt;Node3 -->
<g id="edge12" class="edge">
<title>Node11&#45;&gt;Node3</title>
<path fill="none" stroke="midnightblue" d="M837.63,-67.91C825.81,-69.26 813.7,-70.65 802.05,-71.99"/>
<polygon fill="midnightblue" stroke="midnightblue" points="838.38,-71.34 847.92,-66.72 837.59,-64.39 838.38,-71.34"/>
</g>
<!-- Node12&#45;&gt;Node3 -->
<g id="edge14" class="edge">
<title>Node12&#45;&gt;Node3</title>
<path fill="none" stroke="midnightblue" d="M860.27,-29.42C852.74,-31.68 845.16,-34.06 838,-36.5 810.54,-45.84 779.96,-58.24 758.03,-67.49"/>
<polygon fill="midnightblue" stroke="midnightblue" points="861.5,-32.71 870.11,-26.53 859.53,-25.99 861.5,-32.71"/>
</g>
</g>
</svg>
        <g id="navigator" transform="translate(0 0)" fill="#404254">
                <rect fill="#f2f5e9" fill-opacity="0.5" stroke="#606060" stroke-width=".5" x="0" y="0" width="60" height="60"/>
                <use id="zoomplus" xlink:href="#zoomPlus" x="17" y="9" onmousedown="handleZoom(evt,'in')"/>
                <use id="zoomminus" xlink:href="#zoomMin" x="42" y="9" onmousedown="handleZoom(evt,'out')"/>
                <use id="reset" xlink:href="#resetDef" x="30" y="36" onmousedown="handleReset()"/>
                <g id="arrowUp" xlink:href="#dirArrow" transform="translate(30 24)" onmousedown="handlePan(0,-1)">
                  <use xlink:href="#rim" fill="#404040">
                        <set attributeName="fill" to="#808080" begin="arrowUp.mouseover" end="arrowUp.mouseout"/>
                  </use>
                  <path fill="none" stroke="white" stroke-width="1.5" d="M0,-3.0v7 M-2.5,-0.5L0,-3.0L2.5,-0.5"/>
                </g>
                <g id="arrowRight" xlink:href="#dirArrow" transform="rotate(90) translate(36 -43)" onmousedown="handlePan(1,0)">
                  <use xlink:href="#rim" fill="#404040">
                        <set attributeName="fill" to="#808080" begin="arrowRight.mouseover" end="arrowRight.mouseout"/>
                  </use>
                  <path fill="none" stroke="white" stroke-width="1.5" d="M0,-3.0v7 M-2.5,-0.5L0,-3.0L2.5,-0.5"/>
                </g>
                <g id="arrowDown" xlink:href="#dirArrow" transform="rotate(180) translate(-30 -48)" onmousedown="handlePan(0,1)">
                  <use xlink:href="#rim" fill="#404040">
                        <set attributeName="fill" to="#808080" begin="arrowDown.mouseover" end="arrowDown.mouseout"/>
                  </use>
                  <path fill="none" stroke="white" stroke-width="1.5" d="M0,-3.0v7 M-2.5,-0.5L0,-3.0L2.5,-0.5"/>
                </g>
                <g id="arrowLeft" xlink:href="#dirArrow" transform="rotate(270) translate(-36 17)" onmousedown="handlePan(-1,0)">
                  <use xlink:href="#rim" fill="#404040">
                        <set attributeName="fill" to="#808080" begin="arrowLeft.mouseover" end="arrowLeft.mouseout"/>
                  </use>
                  <path fill="none" stroke="white" stroke-width="1.5" d="M0,-3.0v7 M-2.5,-0.5L0,-3.0L2.5,-0.5"/>
                </g>
        </g>
        <svg viewBox="0 0 15 15" width="100%" height="30px" preserveAspectRatio="xMaxYMin meet">
         <g id="arrow_out" transform="scale(0.3 0.3)">
          <a xlink:href="class_app_wren_ad7d27edc5e5b53b98175c5882e822854_ad7d27edc5e5b53b98175c5882e822854_icgraph_org.svg" target="_base">
           <rect id="button" ry="5" rx="5" y="6" x="6" height="38" width="38"
                fill="#f2f5e9" fill-opacity="0.5" stroke="#606060" stroke-width="1.0"/>
           <path id="arrow"
             d="M 11.500037,31.436501 C 11.940474,20.09759 22.043105,11.32322 32.158766,21.979434 L 37.068811,17.246167 C 37.068811,17.246167 37.088388,32 37.088388,32 L 22.160133,31.978069 C 22.160133,31.978069 26.997745,27.140456 26.997745,27.140456 C 18.528582,18.264221 13.291696,25.230495 11.500037,31.436501 z"
             style="fill:#404040;"/>
          </a>
         </g>
        </svg>
</svg>
