<?xml version="1.0" encoding="UTF-8" standalone="no"?>
<!DOCTYPE svg PUBLIC "-//W3C//DTD SVG 1.1//EN"
 "http://www.w3.org/Graphics/SVG/1.1/DTD/svg11.dtd">
<!-- Generated by graphviz version 2.47.3 (20210619.1520)
 -->
<!-- Title: AppWren::bltSD2Surface Pages: 1 -->
<!--zoomable 241 -->
<svg id="main" version="1.1" xmlns="http://www.w3.org/2000/svg" xmlns:xlink="http://www.w3.org/1999/xlink" xml:space="preserve" onload="init(evt)">
<style type="text/css"><![CDATA[
.edge:hover path { stroke: red; }
.edge:hover polygon { stroke: red; fill: red; }
]]></style>
<script type="text/javascript"><![CDATA[
var edges = document.getElementsByTagName('g');
if (edges && edges.length) {
  for (var i=0;i<edges.length;i++) {
    if (edges[i].id.substr(0,4)=='edge') {
      edges[i].setAttribute('class','edge');
    }
  }
}
]]></script>
        <defs>
                <circle id="rim" cx="0" cy="0" r="7"/>
                <circle id="rim2" cx="0" cy="0" r="3.5"/>
                <g id="zoomPlus">
                        <use xlink:href="#rim" fill="#404040">
                                <set attributeName="fill" to="#808080" begin="zoomplus.mouseover" end="zoomplus.mouseout"/>
                        </use>
                        <path d="M-4,0h8M0,-4v8" fill="none" stroke="white" stroke-width="1.5" pointer-events="none"/>
                </g>
                <g id="zoomMin">
                        <use xlink:href="#rim" fill="#404040">
                                <set attributeName="fill" to="#808080" begin="zoomminus.mouseover" end="zoomminus.mouseout"/>
                        </use>
                        <path d="M-4,0h8" fill="none" stroke="white" stroke-width="1.5" pointer-events="none"/>
                </g>
                <g id="dirArrow">
                        <path fill="none" stroke="white" stroke-width="1.5" d="M0,-3.0v7 M-2.5,-0.5L0,-3.0L2.5,-0.5"/>
                </g>
               <g id="resetDef">
                       <use xlink:href="#rim2" fill="#404040">
                               <set attributeName="fill" to="#808080" begin="reset.mouseover" end="reset.mouseout"/>
                       </use>
               </g>
        </defs>

<script type="text/javascript">
var viewWidth = 807;
var viewHeight = 241;
var sectionId = 'dynsection-0';
</script>
<script xlink:href="../../svgpan.js"/>
<svg id="graph" class="graph">
<g id="viewport">
<title>AppWren::bltSD2Surface</title>
<!-- Node1 -->
<g id="node1" class="node">
<title>Node1</title>
<g id="a_node1"><a xlink:title="block tramsfer from SD to surface">
<polygon fill="#bfbfbf" stroke="black" points="0,-101.5 0,-127.5 191,-127.5 191,-101.5 0,-101.5"/>
<text text-anchor="middle" x="95.5" y="-110.7" font-family="Helvetica,sans-Serif" font-size="16.00">AppWren::bltSD2Surface</text>
</a>
</g>
</g>
<!-- Node2 -->
<g id="node2" class="node">
<title>Node2</title>
<g id="a_node2"><a xlink:href="../../d8/d5a/class_i_l_i9341__t3___e_r_i_s_aafadc45c6fd67bd3811bfe9138bf0dd7.html#aafadc45c6fd67bd3811bfe9138bf0dd7" target="_top" xlink:title=" ">
<polygon fill="none" stroke="black" points="261,-206.5 261,-232.5 457,-232.5 457,-206.5 261,-206.5"/>
<text text-anchor="middle" x="359" y="-215.7" font-family="Helvetica,sans-Serif" font-size="16.00">ILI9341_t3_ERIS::bltSDB</text>
</a>
</g>
</g>
<!-- Node1&#45;&gt;Node2 -->
<g id="edge1" class="edge">
<title>Node1&#45;&gt;Node2</title>
<path fill="none" stroke="midnightblue" d="M114.55,-127.72C138.88,-144.93 184.11,-174.77 227,-191.5 239.73,-196.46 253.51,-200.62 267.2,-204.09"/>
<polygon fill="midnightblue" stroke="midnightblue" points="266.59,-207.54 277.13,-206.49 268.23,-200.74 266.59,-207.54"/>
</g>
<!-- Node3 -->
<g id="node3" class="node">
<title>Node3</title>
<g id="a_node3"><a xlink:href="../../dc/d40/_app_manager_8cpp_a5db3dd95011fd6a678ae291290091314.html#a5db3dd95011fd6a678ae291290091314" target="_top" xlink:title=" ">
<polygon fill="none" stroke="black" points="638,-170.5 638,-196.5 688,-196.5 688,-170.5 638,-170.5"/>
<text text-anchor="middle" x="663" y="-179.7" font-family="Helvetica,sans-Serif" font-size="16.00">draw</text>
</a>
</g>
</g>
<!-- Node1&#45;&gt;Node3 -->
<g id="edge2" class="edge">
<title>Node1&#45;&gt;Node3</title>
<path fill="none" stroke="midnightblue" d="M127.51,-127.58C153.55,-137.93 192.02,-151.73 227,-158.5 373.88,-186.95 553.44,-186.36 627.52,-184.62"/>
<polygon fill="midnightblue" stroke="midnightblue" points="627.76,-188.12 637.67,-184.36 627.58,-181.12 627.76,-188.12"/>
</g>
<!-- Node4 -->
<g id="node4" class="node">
<title>Node4</title>
<g id="a_node4"><a xlink:href="../../d0/da0/class_app_wren_a743e89bcfef0064cc5aaae3863ba2ac3.html#a743e89bcfef0064cc5aaae3863ba2ac3" target="_top" xlink:title="responsible for managing the surface buffer memory allocation">
<polygon fill="none" stroke="black" points="227,-122.5 227,-148.5 491,-148.5 491,-122.5 227,-122.5"/>
<text text-anchor="middle" x="359" y="-131.7" font-family="Helvetica,sans-Serif" font-size="16.00">AppWren::dynamicSurfaceManager</text>
</a>
</g>
</g>
<!-- Node1&#45;&gt;Node4 -->
<g id="edge3" class="edge">
<title>Node1&#45;&gt;Node4</title>
<path fill="none" stroke="midnightblue" d="M191.28,-122.11C199.58,-122.78 208.09,-123.46 216.66,-124.15"/>
<polygon fill="midnightblue" stroke="midnightblue" points="216.49,-127.65 226.74,-124.96 217.05,-120.67 216.49,-127.65"/>
</g>
<!-- Node6 -->
<g id="node6" class="node">
<title>Node6</title>
<g id="a_node6"><a xlink:href="../../d1/d1a/class_surface_a552bec1e25c262bbd74eafdea43dc438.html#a552bec1e25c262bbd74eafdea43dc438" target="_top" xlink:title=" ">
<polygon fill="none" stroke="black" points="590,-80.5 590,-106.5 736,-106.5 736,-80.5 590,-80.5"/>
<text text-anchor="middle" x="663" y="-89.7" font-family="Helvetica,sans-Serif" font-size="16.00">Surface::getHeight</text>
</a>
</g>
</g>
<!-- Node1&#45;&gt;Node6 -->
<g id="edge8" class="edge">
<title>Node1&#45;&gt;Node6</title>
<path fill="none" stroke="midnightblue" d="M191.15,-110.99C299.94,-106.95 476.7,-100.38 579.9,-96.55"/>
<polygon fill="midnightblue" stroke="midnightblue" points="580.1,-100.04 589.96,-96.18 579.84,-93.05 580.1,-100.04"/>
</g>
<!-- Node7 -->
<g id="node7" class="node">
<title>Node7</title>
<g id="a_node7"><a xlink:href="../../d1/d1a/class_surface_a5c2bec03132b83f9a030a64c643ca256.html#a5c2bec03132b83f9a030a64c643ca256" target="_top" xlink:title=" ">
<polygon fill="none" stroke="black" points="591.5,-35.5 591.5,-61.5 734.5,-61.5 734.5,-35.5 591.5,-35.5"/>
<text text-anchor="middle" x="663" y="-44.7" font-family="Helvetica,sans-Serif" font-size="16.00">Surface::getWidth</text>
</a>
</g>
</g>
<!-- Node1&#45;&gt;Node7 -->
<g id="edge10" class="edge">
<title>Node1&#45;&gt;Node7</title>
<path fill="none" stroke="midnightblue" d="M182.78,-101.48C197.52,-99.39 212.69,-97.31 227,-95.5 350.41,-79.85 493.94,-64.99 581.35,-56.31"/>
<polygon fill="midnightblue" stroke="midnightblue" points="581.85,-59.78 591.46,-55.31 581.16,-52.82 581.85,-59.78"/>
</g>
<!-- Node8 -->
<g id="node8" class="node">
<title>Node8</title>
<g id="a_node8"><a xlink:href="../../d1/d1a/class_surface_a5d3958cf977d83b61cf670385d2b21e9.html#a5d3958cf977d83b61cf670385d2b21e9" target="_top" xlink:title=" ">
<polygon fill="none" stroke="black" points="254.5,-0.5 254.5,-26.5 463.5,-26.5 463.5,-0.5 254.5,-0.5"/>
<text text-anchor="middle" x="359" y="-9.7" font-family="Helvetica,sans-Serif" font-size="16.00">Surface::getSurfaceBufferP</text>
</a>
</g>
</g>
<!-- Node1&#45;&gt;Node8 -->
<g id="edge9" class="edge">
<title>Node1&#45;&gt;Node8</title>
<path fill="none" stroke="midnightblue" d="M115.5,-101.45C140.15,-85.1 184.97,-57.33 227,-41.5 240.05,-36.58 254.17,-32.44 268.14,-28.96"/>
<polygon fill="midnightblue" stroke="midnightblue" points="269.36,-32.27 278.28,-26.55 267.74,-25.46 269.36,-32.27"/>
</g>
<!-- Node4&#45;&gt;Node3 -->
<g id="edge4" class="edge">
<title>Node4&#45;&gt;Node3</title>
<path fill="none" stroke="midnightblue" d="M442.12,-148.55C503.09,-158.24 583.11,-170.96 627.88,-178.08"/>
<polygon fill="midnightblue" stroke="midnightblue" points="627.51,-181.56 637.94,-179.68 628.61,-174.65 627.51,-181.56"/>
</g>
<!-- Node5 -->
<g id="node5" class="node">
<title>Node5</title>
<g id="a_node5"><a xlink:href="../../d8/d5a/class_i_l_i9341__t3___e_r_i_s_aac6bfeafd4e3753f4e8dc2af3a5d0afd.html#aac6bfeafd4e3753f4e8dc2af3a5d0afd" target="_top" xlink:title=" ">
<polygon fill="none" stroke="black" points="527,-125.5 527,-151.5 799,-151.5 799,-125.5 527,-125.5"/>
<text text-anchor="middle" x="663" y="-134.7" font-family="Helvetica,sans-Serif" font-size="16.00">ILI9341_t3_ERIS::getFrameAddress</text>
</a>
</g>
</g>
<!-- Node4&#45;&gt;Node5 -->
<g id="edge5" class="edge">
<title>Node4&#45;&gt;Node5</title>
<path fill="none" stroke="midnightblue" d="M491.14,-136.8C499.52,-136.89 507.98,-136.97 516.41,-137.05"/>
<polygon fill="midnightblue" stroke="midnightblue" points="516.65,-140.56 526.68,-137.16 516.72,-133.56 516.65,-140.56"/>
</g>
<!-- Node4&#45;&gt;Node6 -->
<g id="edge6" class="edge">
<title>Node4&#45;&gt;Node6</title>
<path fill="none" stroke="midnightblue" d="M453.49,-122.5C493.72,-116.9 540.36,-110.42 579.31,-105"/>
<polygon fill="midnightblue" stroke="midnightblue" points="580.13,-108.42 589.56,-103.57 579.17,-101.49 580.13,-108.42"/>
</g>
<!-- Node4&#45;&gt;Node7 -->
<g id="edge7" class="edge">
<title>Node4&#45;&gt;Node7</title>
<path fill="none" stroke="midnightblue" d="M388.05,-122.48C420.75,-107.81 476.73,-84.22 527,-70.5 544.4,-65.75 563.35,-61.89 581.41,-58.8"/>
<polygon fill="midnightblue" stroke="midnightblue" points="582.04,-62.24 591.33,-57.16 580.9,-55.33 582.04,-62.24"/>
</g>
</g>
</svg>
        <g id="navigator" transform="translate(0 0)" fill="#404254">
                <rect fill="#f2f5e9" fill-opacity="0.5" stroke="#606060" stroke-width=".5" x="0" y="0" width="60" height="60"/>
                <use id="zoomplus" xlink:href="#zoomPlus" x="17" y="9" onmousedown="handleZoom(evt,'in')"/>
                <use id="zoomminus" xlink:href="#zoomMin" x="42" y="9" onmousedown="handleZoom(evt,'out')"/>
                <use id="reset" xlink:href="#resetDef" x="30" y="36" onmousedown="handleReset()"/>
                <g id="arrowUp" xlink:href="#dirArrow" transform="translate(30 24)" onmousedown="handlePan(0,-1)">
                  <use xlink:href="#rim" fill="#404040">
                        <set attributeName="fill" to="#808080" begin="arrowUp.mouseover" end="arrowUp.mouseout"/>
                  </use>
                  <path fill="none" stroke="white" stroke-width="1.5" d="M0,-3.0v7 M-2.5,-0.5L0,-3.0L2.5,-0.5"/>
                </g>
                <g id="arrowRight" xlink:href="#dirArrow" transform="rotate(90) translate(36 -43)" onmousedown="handlePan(1,0)">
                  <use xlink:href="#rim" fill="#404040">
                        <set attributeName="fill" to="#808080" begin="arrowRight.mouseover" end="arrowRight.mouseout"/>
                  </use>
                  <path fill="none" stroke="white" stroke-width="1.5" d="M0,-3.0v7 M-2.5,-0.5L0,-3.0L2.5,-0.5"/>
                </g>
                <g id="arrowDown" xlink:href="#dirArrow" transform="rotate(180) translate(-30 -48)" onmousedown="handlePan(0,1)">
                  <use xlink:href="#rim" fill="#404040">
                        <set attributeName="fill" to="#808080" begin="arrowDown.mouseover" end="arrowDown.mouseout"/>
                  </use>
                  <path fill="none" stroke="white" stroke-width="1.5" d="M0,-3.0v7 M-2.5,-0.5L0,-3.0L2.5,-0.5"/>
                </g>
                <g id="arrowLeft" xlink:href="#dirArrow" transform="rotate(270) translate(-36 17)" onmousedown="handlePan(-1,0)">
                  <use xlink:href="#rim" fill="#404040">
                        <set attributeName="fill" to="#808080" begin="arrowLeft.mouseover" end="arrowLeft.mouseout"/>
                  </use>
                  <path fill="none" stroke="white" stroke-width="1.5" d="M0,-3.0v7 M-2.5,-0.5L0,-3.0L2.5,-0.5"/>
                </g>
        </g>
        <svg viewBox="0 0 15 15" width="100%" height="30px" preserveAspectRatio="xMaxYMin meet">
         <g id="arrow_out" transform="scale(0.3 0.3)">
          <a xlink:href="class_app_wren_a26f0dd0c98d9503915f3bede0ccccb71_a26f0dd0c98d9503915f3bede0ccccb71_cgraph_org.svg" target="_base">
           <rect id="button" ry="5" rx="5" y="6" x="6" height="38" width="38"
                fill="#f2f5e9" fill-opacity="0.5" stroke="#606060" stroke-width="1.0"/>
           <path id="arrow"
             d="M 11.500037,31.436501 C 11.940474,20.09759 22.043105,11.32322 32.158766,21.979434 L 37.068811,17.246167 C 37.068811,17.246167 37.088388,32 37.088388,32 L 22.160133,31.978069 C 22.160133,31.978069 26.997745,27.140456 26.997745,27.140456 C 18.528582,18.264221 13.291696,25.230495 11.500037,31.436501 z"
             style="fill:#404040;"/>
          </a>
         </g>
        </svg>
</svg>
