<?xml version="1.0" encoding="UTF-8" standalone="no"?>
<!DOCTYPE svg PUBLIC "-//W3C//DTD SVG 1.1//EN"
 "http://www.w3.org/Graphics/SVG/1.1/DTD/svg11.dtd">
<!-- Generated by graphviz version 2.47.3 (20210619.1520)
 -->
<!-- Title: AppWren::bltSurface2FrameBuffer Pages: 1 -->
<svg width="873pt" height="215pt"
 viewBox="0.00 0.00 873.00 215.00" xmlns="http://www.w3.org/2000/svg" xmlns:xlink="http://www.w3.org/1999/xlink">
<g id="graph0" class="graph" transform="scale(1 1) rotate(0) translate(4 211)">
<title>AppWren::bltSurface2FrameBuffer</title>
<!-- Node1 -->
<g id="node1" class="node">
<title>Node1</title>
<g id="a_node1"><a xlink:title=" ">
<polygon fill="#bfbfbf" stroke="black" points="0,-91.5 0,-117.5 257,-117.5 257,-91.5 0,-91.5"/>
<text text-anchor="middle" x="128.5" y="-100.7" font-family="Helvetica,sans-Serif" font-size="16.00">AppWren::bltSurface2FrameBuffer</text>
</a>
</g>
</g>
<!-- Node2 -->
<g id="node2" class="node">
<title>Node2</title>
<g id="a_node2"><a xlink:href="../../d8/d5a/class_i_l_i9341__t3___e_r_i_s_aa98b1e826474433e1f06f13823cc7a48.html#aa98b1e826474433e1f06f13823cc7a48" target="_top" xlink:title=" ">
<polygon fill="none" stroke="black" points="326.5,-134.5 326.5,-160.5 523.5,-160.5 523.5,-134.5 326.5,-134.5"/>
<text text-anchor="middle" x="425" y="-143.7" font-family="Helvetica,sans-Serif" font-size="16.00">ILI9341_t3_ERIS::bltMem</text>
</a>
</g>
</g>
<!-- Node1&#45;&gt;Node2 -->
<g id="edge1" class="edge">
<title>Node1&#45;&gt;Node2</title>
<path fill="none" stroke="midnightblue" d="M218.66,-117.52C252.17,-122.41 290.47,-128 324.84,-133.02"/>
<polygon fill="midnightblue" stroke="midnightblue" points="324.49,-136.51 334.89,-134.49 325.5,-129.58 324.49,-136.51"/>
</g>
<!-- Node4 -->
<g id="node4" class="node">
<title>Node4</title>
<g id="a_node4"><a xlink:href="../../d1/d1a/class_surface_a5d3958cf977d83b61cf670385d2b21e9.html#a5d3958cf977d83b61cf670385d2b21e9" target="_top" xlink:title=" ">
<polygon fill="none" stroke="black" points="624.5,-180.5 624.5,-206.5 833.5,-206.5 833.5,-180.5 624.5,-180.5"/>
<text text-anchor="middle" x="729" y="-189.7" font-family="Helvetica,sans-Serif" font-size="16.00">Surface::getSurfaceBufferP</text>
</a>
</g>
</g>
<!-- Node1&#45;&gt;Node4 -->
<g id="edge11" class="edge">
<title>Node1&#45;&gt;Node4</title>
<path fill="none" stroke="midnightblue" d="M154.43,-117.61C185.79,-133.38 241.75,-159.13 293,-170.5 400.17,-194.27 525.66,-198.48 614.24,-197.67"/>
<polygon fill="midnightblue" stroke="midnightblue" points="614.36,-201.17 624.32,-197.55 614.28,-194.17 614.36,-201.17"/>
</g>
<!-- Node5 -->
<g id="node5" class="node">
<title>Node5</title>
<g id="a_node5"><a xlink:href="../../d1/d1a/class_surface_a5c2bec03132b83f9a030a64c643ca256.html#a5c2bec03132b83f9a030a64c643ca256" target="_top" xlink:title=" ">
<polygon fill="none" stroke="black" points="657.5,-90.5 657.5,-116.5 800.5,-116.5 800.5,-90.5 657.5,-90.5"/>
<text text-anchor="middle" x="729" y="-99.7" font-family="Helvetica,sans-Serif" font-size="16.00">Surface::getWidth</text>
</a>
</g>
</g>
<!-- Node1&#45;&gt;Node5 -->
<g id="edge12" class="edge">
<title>Node1&#45;&gt;Node5</title>
<path fill="none" stroke="midnightblue" d="M257.16,-104.29C375.15,-104.09 546.9,-103.8 647.07,-103.64"/>
<polygon fill="midnightblue" stroke="midnightblue" points="647.13,-107.14 657.13,-103.62 647.12,-100.14 647.13,-107.14"/>
</g>
<!-- Node6 -->
<g id="node6" class="node">
<title>Node6</title>
<g id="a_node6"><a xlink:href="../../dc/d40/_app_manager_8cpp_a5db3dd95011fd6a678ae291290091314.html#a5db3dd95011fd6a678ae291290091314" target="_top" xlink:title=" ">
<polygon fill="none" stroke="black" points="704,-0.5 704,-26.5 754,-26.5 754,-0.5 704,-0.5"/>
<text text-anchor="middle" x="729" y="-9.7" font-family="Helvetica,sans-Serif" font-size="16.00">draw</text>
</a>
</g>
</g>
<!-- Node1&#45;&gt;Node6 -->
<g id="edge5" class="edge">
<title>Node1&#45;&gt;Node6</title>
<path fill="none" stroke="midnightblue" d="M155.33,-91.47C186.9,-76.24 242.4,-51.68 293,-40.5 439.12,-8.2 619.09,-9.69 693.4,-12.04"/>
<polygon fill="midnightblue" stroke="midnightblue" points="693.47,-15.55 703.58,-12.39 693.71,-8.55 693.47,-15.55"/>
</g>
<!-- Node7 -->
<g id="node7" class="node">
<title>Node7</title>
<g id="a_node7"><a xlink:href="../../d0/da0/class_app_wren_a743e89bcfef0064cc5aaae3863ba2ac3.html#a743e89bcfef0064cc5aaae3863ba2ac3" target="_top" xlink:title="responsible for managing the surface buffer memory allocation">
<polygon fill="none" stroke="black" points="293,-49.5 293,-75.5 557,-75.5 557,-49.5 293,-49.5"/>
<text text-anchor="middle" x="425" y="-58.7" font-family="Helvetica,sans-Serif" font-size="16.00">AppWren::dynamicSurfaceManager</text>
</a>
</g>
</g>
<!-- Node1&#45;&gt;Node7 -->
<g id="edge6" class="edge">
<title>Node1&#45;&gt;Node7</title>
<path fill="none" stroke="midnightblue" d="M220.66,-91.5C252.97,-86.89 289.5,-81.68 322.6,-76.96"/>
<polygon fill="midnightblue" stroke="midnightblue" points="323.35,-80.39 332.76,-75.51 322.36,-73.46 323.35,-80.39"/>
</g>
<!-- Node3 -->
<g id="node3" class="node">
<title>Node3</title>
<g id="a_node3"><a xlink:href="../../d1/d1a/class_surface_a552bec1e25c262bbd74eafdea43dc438.html#a552bec1e25c262bbd74eafdea43dc438" target="_top" xlink:title=" ">
<polygon fill="none" stroke="black" points="656,-135.5 656,-161.5 802,-161.5 802,-135.5 656,-135.5"/>
<text text-anchor="middle" x="729" y="-144.7" font-family="Helvetica,sans-Serif" font-size="16.00">Surface::getHeight</text>
</a>
</g>
</g>
<!-- Node2&#45;&gt;Node3 -->
<g id="edge2" class="edge">
<title>Node2&#45;&gt;Node3</title>
<path fill="none" stroke="midnightblue" d="M523.63,-147.82C562.86,-147.95 607.59,-148.1 645.19,-148.23"/>
<polygon fill="midnightblue" stroke="midnightblue" points="645.58,-151.73 655.59,-148.26 645.61,-144.73 645.58,-151.73"/>
</g>
<!-- Node2&#45;&gt;Node4 -->
<g id="edge3" class="edge">
<title>Node2&#45;&gt;Node4</title>
<path fill="none" stroke="midnightblue" d="M511.73,-160.56C549.35,-166.29 593.66,-173.04 632.35,-178.93"/>
<polygon fill="midnightblue" stroke="midnightblue" points="632.16,-182.44 642.58,-180.49 633.22,-175.52 632.16,-182.44"/>
</g>
<!-- Node2&#45;&gt;Node5 -->
<g id="edge4" class="edge">
<title>Node2&#45;&gt;Node5</title>
<path fill="none" stroke="midnightblue" d="M515.38,-134.48C557.07,-128.4 606.33,-121.23 646.92,-115.31"/>
<polygon fill="midnightblue" stroke="midnightblue" points="647.66,-118.74 657.05,-113.84 646.65,-111.82 647.66,-118.74"/>
</g>
<!-- Node7&#45;&gt;Node3 -->
<g id="edge9" class="edge">
<title>Node7&#45;&gt;Node3</title>
<path fill="none" stroke="midnightblue" d="M454.66,-75.56C487.46,-90 543.09,-113.02 593,-126.5 609.86,-131.05 628.18,-134.81 645.73,-137.84"/>
<polygon fill="midnightblue" stroke="midnightblue" points="645.51,-141.36 655.95,-139.55 646.67,-134.45 645.51,-141.36"/>
</g>
<!-- Node7&#45;&gt;Node5 -->
<g id="edge10" class="edge">
<title>Node7&#45;&gt;Node5</title>
<path fill="none" stroke="midnightblue" d="M521.97,-75.53C562.24,-81 608.56,-87.28 647.07,-92.51"/>
<polygon fill="midnightblue" stroke="midnightblue" points="646.82,-96.01 657.2,-93.89 647.76,-89.07 646.82,-96.01"/>
</g>
<!-- Node7&#45;&gt;Node6 -->
<g id="edge7" class="edge">
<title>Node7&#45;&gt;Node6</title>
<path fill="none" stroke="midnightblue" d="M506.14,-49.5C567.42,-39.55 648.83,-26.34 694.06,-19.01"/>
<polygon fill="midnightblue" stroke="midnightblue" points="694.63,-22.46 703.94,-17.4 693.51,-15.55 694.63,-22.46"/>
</g>
<!-- Node8 -->
<g id="node8" class="node">
<title>Node8</title>
<g id="a_node8"><a xlink:href="../../d8/d5a/class_i_l_i9341__t3___e_r_i_s_aac6bfeafd4e3753f4e8dc2af3a5d0afd.html#aac6bfeafd4e3753f4e8dc2af3a5d0afd" target="_top" xlink:title=" ">
<polygon fill="none" stroke="black" points="593,-45.5 593,-71.5 865,-71.5 865,-45.5 593,-45.5"/>
<text text-anchor="middle" x="729" y="-54.7" font-family="Helvetica,sans-Serif" font-size="16.00">ILI9341_t3_ERIS::getFrameAddress</text>
</a>
</g>
</g>
<!-- Node7&#45;&gt;Node8 -->
<g id="edge8" class="edge">
<title>Node7&#45;&gt;Node8</title>
<path fill="none" stroke="midnightblue" d="M557.14,-60.76C565.52,-60.65 573.98,-60.54 582.41,-60.43"/>
<polygon fill="midnightblue" stroke="midnightblue" points="582.73,-63.92 592.68,-60.29 582.64,-56.93 582.73,-63.92"/>
</g>
</g>
</svg>
