<?xml version="1.0" encoding="UTF-8" standalone="no"?>
<!DOCTYPE svg PUBLIC "-//W3C//DTD SVG 1.1//EN"
 "http://www.w3.org/Graphics/SVG/1.1/DTD/svg11.dtd">
<!-- Generated by graphviz version 2.47.3 (20210619.1520)
 -->
<!-- Title: AppWren::returnFocus Pages: 1 -->
<!--zoomable 125 -->
<svg id="main" version="1.1" xmlns="http://www.w3.org/2000/svg" xmlns:xlink="http://www.w3.org/1999/xlink" xml:space="preserve" onload="init(evt)">
<style type="text/css"><![CDATA[
.edge:hover path { stroke: red; }
.edge:hover polygon { stroke: red; fill: red; }
]]></style>
<script type="text/javascript"><![CDATA[
var edges = document.getElementsByTagName('g');
if (edges && edges.length) {
  for (var i=0;i<edges.length;i++) {
    if (edges[i].id.substr(0,4)=='edge') {
      edges[i].setAttribute('class','edge');
    }
  }
}
]]></script>
        <defs>
                <circle id="rim" cx="0" cy="0" r="7"/>
                <circle id="rim2" cx="0" cy="0" r="3.5"/>
                <g id="zoomPlus">
                        <use xlink:href="#rim" fill="#404040">
                                <set attributeName="fill" to="#808080" begin="zoomplus.mouseover" end="zoomplus.mouseout"/>
                        </use>
                        <path d="M-4,0h8M0,-4v8" fill="none" stroke="white" stroke-width="1.5" pointer-events="none"/>
                </g>
                <g id="zoomMin">
                        <use xlink:href="#rim" fill="#404040">
                                <set attributeName="fill" to="#808080" begin="zoomminus.mouseover" end="zoomminus.mouseout"/>
                        </use>
                        <path d="M-4,0h8" fill="none" stroke="white" stroke-width="1.5" pointer-events="none"/>
                </g>
                <g id="dirArrow">
                        <path fill="none" stroke="white" stroke-width="1.5" d="M0,-3.0v7 M-2.5,-0.5L0,-3.0L2.5,-0.5"/>
                </g>
               <g id="resetDef">
                       <use xlink:href="#rim2" fill="#404040">
                               <set attributeName="fill" to="#808080" begin="reset.mouseover" end="reset.mouseout"/>
                       </use>
               </g>
        </defs>

<script type="text/javascript">
var viewWidth = 1216;
var viewHeight = 125;
var sectionId = 'dynsection-0';
</script>
<script xlink:href="../../svgpan.js"/>
<svg id="graph" class="graph">
<g id="viewport">
<title>AppWren::returnFocus</title>
<!-- Node1 -->
<g id="node1" class="node">
<title>Node1</title>
<g id="a_node1"><a xlink:title=" ">
<polygon fill="#bfbfbf" stroke="black" points="1034,-68.5 1034,-94.5 1208,-94.5 1208,-68.5 1034,-68.5"/>
<text text-anchor="middle" x="1121" y="-77.7" font-family="Helvetica,sans-Serif" font-size="16.00">AppWren::returnFocus</text>
</a>
</g>
</g>
<!-- Node2 -->
<g id="node2" class="node">
<title>Node2</title>
<g id="a_node2"><a xlink:href="../../d0/da0/class_app_wren_a9545f907e7bca8484595d63ade9abe96.html#a9545f907e7bca8484595d63ade9abe96" target="_top" xlink:title="handles messages from other sw components">
<polygon fill="none" stroke="black" points="0,-90.5 0,-116.5 208,-116.5 208,-90.5 0,-90.5"/>
<text text-anchor="middle" x="104" y="-99.7" font-family="Helvetica,sans-Serif" font-size="16.00">AppWren::MessageHandler</text>
</a>
</g>
</g>
<!-- Node1&#45;&gt;Node2 -->
<g id="edge1" class="edge">
<title>Node1&#45;&gt;Node2</title>
<path fill="none" stroke="midnightblue" d="M1023.68,-89.54C944.38,-95.47 828.98,-102.5 728,-102.5 728,-102.5 728,-102.5 543,-102.5 428.37,-102.5 296.86,-102.85 208.1,-103.13"/>
<polygon fill="midnightblue" stroke="midnightblue" points="1023.95,-93.03 1033.66,-88.79 1023.42,-86.05 1023.95,-93.03"/>
</g>
<!-- Node3 -->
<g id="node3" class="node">
<title>Node3</title>
<g id="a_node3"><a xlink:href="../../d7/d7e/_app_wren_8cpp_a7d888714ebd3a2befec867833015d7f2.html#a7d888714ebd3a2befec867833015d7f2" target="_top" xlink:title="AppWren exported method which can be called from within a Wren VM instance.">
<polygon fill="none" stroke="black" points="838,-47.5 838,-73.5 998,-73.5 998,-47.5 838,-47.5"/>
<text text-anchor="middle" x="918" y="-56.7" font-family="Helvetica,sans-Serif" font-size="16.00">returnFocusCallback</text>
</a>
</g>
</g>
<!-- Node1&#45;&gt;Node3 -->
<g id="edge2" class="edge">
<title>Node1&#45;&gt;Node3</title>
<path fill="none" stroke="midnightblue" d="M1023.85,-71.45C1015.28,-70.56 1006.67,-69.66 998.26,-68.78"/>
<polygon fill="midnightblue" stroke="midnightblue" points="1023.57,-74.94 1033.88,-72.5 1024.3,-67.98 1023.57,-74.94"/>
</g>
<!-- Node4 -->
<g id="node4" class="node">
<title>Node4</title>
<g id="a_node4"><a xlink:href="../../d7/d7e/_app_wren_8cpp_afe955d602a19a51c186913d9dc8ff707.html#afe955d602a19a51c186913d9dc8ff707" target="_top" xlink:title="callback function for Wren to request an exported function bindings">
<polygon fill="none" stroke="black" points="652,-47.5 652,-73.5 802,-73.5 802,-47.5 652,-47.5"/>
<text text-anchor="middle" x="727" y="-56.7" font-family="Helvetica,sans-Serif" font-size="16.00">bindForeignMethod</text>
</a>
</g>
</g>
<!-- Node3&#45;&gt;Node4 -->
<g id="edge3" class="edge">
<title>Node3&#45;&gt;Node4</title>
<path fill="none" stroke="midnightblue" d="M827.89,-60.5C819.3,-60.5 810.64,-60.5 802.21,-60.5"/>
<polygon fill="midnightblue" stroke="midnightblue" points="827.94,-64 837.94,-60.5 827.94,-57 827.94,-64"/>
</g>
<!-- Node5 -->
<g id="node5" class="node">
<title>Node5</title>
<g id="a_node5"><a xlink:href="../../d0/da0/class_app_wren_a0b139e8eac17bd02ffaff68532c3e4fc.html#a0b139e8eac17bd02ffaff68532c3e4fc" target="_top" xlink:title="start the VM">
<polygon fill="none" stroke="black" points="472,-47.5 472,-73.5 616,-73.5 616,-47.5 472,-47.5"/>
<text text-anchor="middle" x="544" y="-56.7" font-family="Helvetica,sans-Serif" font-size="16.00">AppWren::startVM</text>
</a>
</g>
</g>
<!-- Node4&#45;&gt;Node5 -->
<g id="edge4" class="edge">
<title>Node4&#45;&gt;Node5</title>
<path fill="none" stroke="midnightblue" d="M641.82,-60.5C633.22,-60.5 624.55,-60.5 616.11,-60.5"/>
<polygon fill="midnightblue" stroke="midnightblue" points="641.86,-64 651.86,-60.5 641.86,-57 641.86,-64"/>
</g>
<!-- Node6 -->
<g id="node6" class="node">
<title>Node6</title>
<g id="a_node6"><a xlink:href="../../d0/da0/class_app_wren_aedf9a5e77ba482fde47e52125e9ca292.html#aedf9a5e77ba482fde47e52125e9ca292" target="_top" xlink:title="shutsdown then starts the VM">
<polygon fill="none" stroke="black" points="261,-47.5 261,-73.5 419,-73.5 419,-47.5 261,-47.5"/>
<text text-anchor="middle" x="340" y="-56.7" font-family="Helvetica,sans-Serif" font-size="16.00">AppWren::restartVM</text>
</a>
</g>
</g>
<!-- Node5&#45;&gt;Node6 -->
<g id="edge5" class="edge">
<title>Node5&#45;&gt;Node6</title>
<path fill="none" stroke="midnightblue" d="M461.67,-60.5C447.64,-60.5 433.08,-60.5 419.13,-60.5"/>
<polygon fill="midnightblue" stroke="midnightblue" points="461.78,-64 471.78,-60.5 461.78,-57 461.78,-64"/>
</g>
<!-- Node8 -->
<g id="node8" class="node">
<title>Node8</title>
<g id="a_node8"><a xlink:href="../../d0/da0/class_app_wren_af9fc192669efcd782a665bc5918aaaa3.html#af9fc192669efcd782a665bc5918aaaa3" target="_top" xlink:title="start, load and configure the handles of the VM">
<polygon fill="none" stroke="black" points="244,-1.5 244,-27.5 436,-27.5 436,-1.5 244,-1.5"/>
<text text-anchor="middle" x="340" y="-10.7" font-family="Helvetica,sans-Serif" font-size="16.00">AppWren::vmConstructor</text>
</a>
</g>
</g>
<!-- Node5&#45;&gt;Node8 -->
<g id="edge8" class="edge">
<title>Node5&#45;&gt;Node8</title>
<path fill="none" stroke="midnightblue" d="M475.82,-45.2C450.65,-39.47 422.31,-33.02 398.14,-27.51"/>
<polygon fill="midnightblue" stroke="midnightblue" points="475.13,-48.63 485.66,-47.44 476.68,-41.81 475.13,-48.63"/>
</g>
<!-- Node6&#45;&gt;Node2 -->
<g id="edge6" class="edge">
<title>Node6&#45;&gt;Node2</title>
<path fill="none" stroke="midnightblue" d="M258.07,-75.37C231.38,-80.28 201.9,-85.69 176.01,-90.45"/>
<polygon fill="midnightblue" stroke="midnightblue" points="258.95,-78.77 268.16,-73.52 257.69,-71.88 258.95,-78.77"/>
</g>
<!-- Node7 -->
<g id="node7" class="node">
<title>Node7</title>
<g id="a_node7"><a xlink:href="../../d0/da0/class_app_wren_a46ef63c583efb89334bc8fbf20cf7a83.html#a46ef63c583efb89334bc8fbf20cf7a83" target="_top" xlink:title="class specific update implementation">
<polygon fill="none" stroke="black" points="35.5,-45.5 35.5,-71.5 172.5,-71.5 172.5,-45.5 35.5,-45.5"/>
<text text-anchor="middle" x="104" y="-54.7" font-family="Helvetica,sans-Serif" font-size="16.00">AppWren::update</text>
</a>
</g>
</g>
<!-- Node6&#45;&gt;Node7 -->
<g id="edge7" class="edge">
<title>Node6&#45;&gt;Node7</title>
<path fill="none" stroke="midnightblue" d="M250.58,-59.74C224.74,-59.52 196.92,-59.29 172.59,-59.08"/>
<polygon fill="midnightblue" stroke="midnightblue" points="250.73,-63.25 260.76,-59.83 250.79,-56.25 250.73,-63.25"/>
</g>
<!-- Node9 -->
<g id="node9" class="node">
<title>Node9</title>
<g id="a_node9"><a xlink:href="../../d0/da0/class_app_wren_aa63148d0906a6b5eabbba7058f568eae.html#aa63148d0906a6b5eabbba7058f568eae" target="_top" xlink:title=" ">
<polygon fill="none" stroke="black" points="26.5,-0.5 26.5,-26.5 181.5,-26.5 181.5,-0.5 26.5,-0.5"/>
<text text-anchor="middle" x="104" y="-9.7" font-family="Helvetica,sans-Serif" font-size="16.00">AppWren::AppWren</text>
</a>
</g>
</g>
<!-- Node8&#45;&gt;Node9 -->
<g id="edge9" class="edge">
<title>Node8&#45;&gt;Node9</title>
<path fill="none" stroke="midnightblue" d="M233.61,-14.05C216.17,-13.98 198.39,-13.9 181.82,-13.83"/>
<polygon fill="midnightblue" stroke="midnightblue" points="233.81,-17.55 243.82,-14.09 233.84,-10.55 233.81,-17.55"/>
</g>
</g>
</svg>
        <g id="navigator" transform="translate(0 0)" fill="#404254">
                <rect fill="#f2f5e9" fill-opacity="0.5" stroke="#606060" stroke-width=".5" x="0" y="0" width="60" height="60"/>
                <use id="zoomplus" xlink:href="#zoomPlus" x="17" y="9" onmousedown="handleZoom(evt,'in')"/>
                <use id="zoomminus" xlink:href="#zoomMin" x="42" y="9" onmousedown="handleZoom(evt,'out')"/>
                <use id="reset" xlink:href="#resetDef" x="30" y="36" onmousedown="handleReset()"/>
                <g id="arrowUp" xlink:href="#dirArrow" transform="translate(30 24)" onmousedown="handlePan(0,-1)">
                  <use xlink:href="#rim" fill="#404040">
                        <set attributeName="fill" to="#808080" begin="arrowUp.mouseover" end="arrowUp.mouseout"/>
                  </use>
                  <path fill="none" stroke="white" stroke-width="1.5" d="M0,-3.0v7 M-2.5,-0.5L0,-3.0L2.5,-0.5"/>
                </g>
                <g id="arrowRight" xlink:href="#dirArrow" transform="rotate(90) translate(36 -43)" onmousedown="handlePan(1,0)">
                  <use xlink:href="#rim" fill="#404040">
                        <set attributeName="fill" to="#808080" begin="arrowRight.mouseover" end="arrowRight.mouseout"/>
                  </use>
                  <path fill="none" stroke="white" stroke-width="1.5" d="M0,-3.0v7 M-2.5,-0.5L0,-3.0L2.5,-0.5"/>
                </g>
                <g id="arrowDown" xlink:href="#dirArrow" transform="rotate(180) translate(-30 -48)" onmousedown="handlePan(0,1)">
                  <use xlink:href="#rim" fill="#404040">
                        <set attributeName="fill" to="#808080" begin="arrowDown.mouseover" end="arrowDown.mouseout"/>
                  </use>
                  <path fill="none" stroke="white" stroke-width="1.5" d="M0,-3.0v7 M-2.5,-0.5L0,-3.0L2.5,-0.5"/>
                </g>
                <g id="arrowLeft" xlink:href="#dirArrow" transform="rotate(270) translate(-36 17)" onmousedown="handlePan(-1,0)">
                  <use xlink:href="#rim" fill="#404040">
                        <set attributeName="fill" to="#808080" begin="arrowLeft.mouseover" end="arrowLeft.mouseout"/>
                  </use>
                  <path fill="none" stroke="white" stroke-width="1.5" d="M0,-3.0v7 M-2.5,-0.5L0,-3.0L2.5,-0.5"/>
                </g>
        </g>
        <svg viewBox="0 0 15 15" width="100%" height="30px" preserveAspectRatio="xMaxYMin meet">
         <g id="arrow_out" transform="scale(0.3 0.3)">
          <a xlink:href="class_app_wren_acda2652e5756c39eda8413c87f0868d0_acda2652e5756c39eda8413c87f0868d0_icgraph_org.svg" target="_base">
           <rect id="button" ry="5" rx="5" y="6" x="6" height="38" width="38"
                fill="#f2f5e9" fill-opacity="0.5" stroke="#606060" stroke-width="1.0"/>
           <path id="arrow"
             d="M 11.500037,31.436501 C 11.940474,20.09759 22.043105,11.32322 32.158766,21.979434 L 37.068811,17.246167 C 37.068811,17.246167 37.088388,32 37.088388,32 L 22.160133,31.978069 C 22.160133,31.978069 26.997745,27.140456 26.997745,27.140456 C 18.528582,18.264221 13.291696,25.230495 11.500037,31.436501 z"
             style="fill:#404040;"/>
          </a>
         </g>
        </svg>
</svg>
