<?xml version="1.0" encoding="UTF-8" standalone="no"?>
<!DOCTYPE svg PUBLIC "-//W3C//DTD SVG 1.1//EN"
 "http://www.w3.org/Graphics/SVG/1.1/DTD/svg11.dtd">
<!-- Generated by graphviz version 2.47.3 (20210619.1520)
 -->
<!-- Title: AppWren::setPixel Pages: 1 -->
<svg width="852pt" height="217pt"
 viewBox="0.00 0.00 852.00 217.00" xmlns="http://www.w3.org/2000/svg" xmlns:xlink="http://www.w3.org/1999/xlink">
<g id="graph0" class="graph" transform="scale(1 1) rotate(0) translate(4 213)">
<title>AppWren::setPixel</title>
<!-- Node1 -->
<g id="node1" class="node">
<title>Node1</title>
<g id="a_node1"><a xlink:title="set a pixel on the render target">
<polygon fill="#bfbfbf" stroke="black" points="0,-90.5 0,-118.5 165,-118.5 165,-90.5 0,-90.5"/>
<text text-anchor="middle" x="82.5" y="-100.1" font-family="Helvetica,sans-Serif" font-size="18.00">AppWren::setPixel</text>
</a>
</g>
</g>
<!-- Node2 -->
<g id="node2" class="node">
<title>Node2</title>
<g id="a_node2"><a xlink:href="../../de/d24/_creative_01_commons_01_attribution_014_80_01_international_01_public_01_license_8txt_a497e3d0ae5481c638bca24b31d7fd29c.html#a497e3d0ae5481c638bca24b31d7fd29c" target="_top" xlink:title=" ">
<polygon fill="none" stroke="black" points="338,-180.5 338,-208.5 367,-208.5 367,-180.5 338,-180.5"/>
<text text-anchor="middle" x="352.5" y="-190.1" font-family="Helvetica,sans-Serif" font-size="18.00">b</text>
</a>
</g>
</g>
<!-- Node1&#45;&gt;Node2 -->
<g id="edge1" class="edge">
<title>Node1&#45;&gt;Node2</title>
<path fill="none" stroke="midnightblue" d="M103.21,-118.77C125.71,-134.32 164.19,-158.69 201,-171.5 244.13,-186.51 297.6,-191.74 327.8,-193.55"/>
<polygon fill="midnightblue" stroke="midnightblue" points="327.65,-197.04 337.81,-194.07 328.01,-190.05 327.65,-197.04"/>
</g>
<!-- Node3 -->
<g id="node3" class="node">
<title>Node3</title>
<g id="a_node3"><a xlink:href="../../d8/d5a/class_i_l_i9341__t3___e_r_i_s_a7772be6101e046acc585a7c8610cabdb.html#a7772be6101e046acc585a7c8610cabdb" target="_top" xlink:title=" ">
<polygon fill="none" stroke="black" points="233.5,-133.5 233.5,-161.5 471.5,-161.5 471.5,-133.5 233.5,-133.5"/>
<text text-anchor="middle" x="352.5" y="-143.1" font-family="Helvetica,sans-Serif" font-size="18.00">ILI9341_t3_ERIS::drawPixel</text>
</a>
</g>
</g>
<!-- Node1&#45;&gt;Node3 -->
<g id="edge2" class="edge">
<title>Node1&#45;&gt;Node3</title>
<path fill="none" stroke="midnightblue" d="M165,-117.58C192.96,-122.06 224.55,-127.13 253.68,-131.8"/>
<polygon fill="midnightblue" stroke="midnightblue" points="253.44,-135.31 263.86,-133.44 254.55,-128.4 253.44,-135.31"/>
</g>
<!-- Node5 -->
<g id="node5" class="node">
<title>Node5</title>
<g id="a_node5"><a xlink:href="../../d1/d1a/class_surface_a5c2bec03132b83f9a030a64c643ca256.html#a5c2bec03132b83f9a030a64c643ca256" target="_top" xlink:title=" ">
<polygon fill="none" stroke="black" points="611,-94.5 611,-122.5 773,-122.5 773,-94.5 611,-94.5"/>
<text text-anchor="middle" x="692" y="-104.1" font-family="Helvetica,sans-Serif" font-size="18.00">Surface::getWidth</text>
</a>
</g>
</g>
<!-- Node1&#45;&gt;Node5 -->
<g id="edge10" class="edge">
<title>Node1&#45;&gt;Node5</title>
<path fill="none" stroke="midnightblue" d="M165.11,-105.04C278.47,-105.78 482.87,-107.13 600.68,-107.91"/>
<polygon fill="midnightblue" stroke="midnightblue" points="600.73,-111.41 610.76,-107.97 600.78,-104.41 600.73,-111.41"/>
</g>
<!-- Node6 -->
<g id="node6" class="node">
<title>Node6</title>
<g id="a_node6"><a xlink:href="../../d0/da0/class_app_wren_a743e89bcfef0064cc5aaae3863ba2ac3.html#a743e89bcfef0064cc5aaae3863ba2ac3" target="_top" xlink:title="responsible for managing the surface buffer memory allocation">
<polygon fill="none" stroke="black" points="201,-47.5 201,-75.5 504,-75.5 504,-47.5 201,-47.5"/>
<text text-anchor="middle" x="352.5" y="-57.1" font-family="Helvetica,sans-Serif" font-size="18.00">AppWren::dynamicSurfaceManager</text>
</a>
</g>
</g>
<!-- Node1&#45;&gt;Node6 -->
<g id="edge5" class="edge">
<title>Node1&#45;&gt;Node6</title>
<path fill="none" stroke="midnightblue" d="M165,-91.42C192.96,-86.94 224.55,-81.87 253.68,-77.2"/>
<polygon fill="midnightblue" stroke="midnightblue" points="254.55,-80.6 263.86,-75.56 253.44,-73.69 254.55,-80.6"/>
</g>
<!-- Node8 -->
<g id="node8" class="node">
<title>Node8</title>
<g id="a_node8"><a xlink:href="../../d1/d1a/class_surface_a552bec1e25c262bbd74eafdea43dc438.html#a552bec1e25c262bbd74eafdea43dc438" target="_top" xlink:title=" ">
<polygon fill="none" stroke="black" points="608.5,-0.5 608.5,-28.5 775.5,-28.5 775.5,-0.5 608.5,-0.5"/>
<text text-anchor="middle" x="692" y="-10.1" font-family="Helvetica,sans-Serif" font-size="18.00">Surface::getHeight</text>
</a>
</g>
</g>
<!-- Node1&#45;&gt;Node8 -->
<g id="edge9" class="edge">
<title>Node1&#45;&gt;Node8</title>
<path fill="none" stroke="midnightblue" d="M101.78,-90.38C123.89,-74.22 162.89,-48.57 201,-37.5 335.02,1.41 498.25,-0.07 598.37,-6.17"/>
<polygon fill="midnightblue" stroke="midnightblue" points="598.25,-9.67 608.46,-6.82 598.7,-2.69 598.25,-9.67"/>
</g>
<!-- Node4 -->
<g id="node4" class="node">
<title>Node4</title>
<g id="a_node4"><a xlink:href="../../d1/d1a/class_surface_a5d3958cf977d83b61cf670385d2b21e9.html#a5d3958cf977d83b61cf670385d2b21e9" target="_top" xlink:title=" ">
<polygon fill="none" stroke="black" points="573,-141.5 573,-169.5 811,-169.5 811,-141.5 573,-141.5"/>
<text text-anchor="middle" x="692" y="-151.1" font-family="Helvetica,sans-Serif" font-size="18.00">Surface::getSurfaceBufferP</text>
</a>
</g>
</g>
<!-- Node3&#45;&gt;Node4 -->
<g id="edge3" class="edge">
<title>Node3&#45;&gt;Node4</title>
<path fill="none" stroke="midnightblue" d="M471.54,-150.3C501,-151 532.73,-151.75 562.66,-152.46"/>
<polygon fill="midnightblue" stroke="midnightblue" points="562.66,-155.96 572.74,-152.7 562.83,-148.96 562.66,-155.96"/>
</g>
<!-- Node3&#45;&gt;Node5 -->
<g id="edge4" class="edge">
<title>Node3&#45;&gt;Node5</title>
<path fill="none" stroke="midnightblue" d="M471.54,-133.86C513.95,-128.96 561.06,-123.52 600.73,-118.93"/>
<polygon fill="midnightblue" stroke="midnightblue" points="601.38,-122.38 610.91,-117.75 600.58,-115.43 601.38,-122.38"/>
</g>
<!-- Node6&#45;&gt;Node5 -->
<g id="edge8" class="edge">
<title>Node6&#45;&gt;Node5</title>
<path fill="none" stroke="midnightblue" d="M454.3,-75.54C500.8,-82.01 555.57,-89.64 600.7,-95.92"/>
<polygon fill="midnightblue" stroke="midnightblue" points="600.38,-99.41 610.77,-97.33 601.34,-92.48 600.38,-99.41"/>
</g>
<!-- Node7 -->
<g id="node7" class="node">
<title>Node7</title>
<g id="a_node7"><a xlink:href="../../d8/d5a/class_i_l_i9341__t3___e_r_i_s_aac6bfeafd4e3753f4e8dc2af3a5d0afd.html#aac6bfeafd4e3753f4e8dc2af3a5d0afd" target="_top" xlink:title=" ">
<polygon fill="none" stroke="black" points="540,-47.5 540,-75.5 844,-75.5 844,-47.5 540,-47.5"/>
<text text-anchor="middle" x="692" y="-57.1" font-family="Helvetica,sans-Serif" font-size="18.00">ILI9341_t3_ERIS::getFrameAddress</text>
</a>
</g>
</g>
<!-- Node6&#45;&gt;Node7 -->
<g id="edge6" class="edge">
<title>Node6&#45;&gt;Node7</title>
<path fill="none" stroke="midnightblue" d="M504.48,-61.5C512.84,-61.5 521.26,-61.5 529.65,-61.5"/>
<polygon fill="midnightblue" stroke="midnightblue" points="529.88,-65 539.88,-61.5 529.88,-58 529.88,-65"/>
</g>
<!-- Node6&#45;&gt;Node8 -->
<g id="edge7" class="edge">
<title>Node6&#45;&gt;Node8</title>
<path fill="none" stroke="midnightblue" d="M454.3,-47.46C499.99,-41.1 553.65,-33.63 598.32,-27.41"/>
<polygon fill="midnightblue" stroke="midnightblue" points="598.88,-30.86 608.3,-26.02 597.91,-23.93 598.88,-30.86"/>
</g>
</g>
</svg>
