<?xml version="1.0" encoding="UTF-8" standalone="no"?>
<!DOCTYPE svg PUBLIC "-//W3C//DTD SVG 1.1//EN"
 "http://www.w3.org/Graphics/SVG/1.1/DTD/svg11.dtd">
<!-- Generated by graphviz version 2.47.3 (20210619.1520)
 -->
<!-- Title: AppWren::getFocus Pages: 1 -->
<svg width="1605pt" height="366pt"
 viewBox="0.00 0.00 1605.00 366.00" xmlns="http://www.w3.org/2000/svg" xmlns:xlink="http://www.w3.org/1999/xlink">
<g id="graph0" class="graph" transform="scale(1 1) rotate(0) translate(4 362)">
<title>AppWren::getFocus</title>
<!-- Node1 -->
<g id="node1" class="node">
<title>Node1</title>
<g id="a_node1"><a xlink:title="Get the Focus object.">
<polygon fill="#bfbfbf" stroke="black" points="0,-246.5 0,-274.5 178,-274.5 178,-246.5 0,-246.5"/>
<text text-anchor="middle" x="89" y="-256.1" font-family="Helvetica,sans-Serif" font-size="18.00">AppWren::getFocus</text>
</a>
</g>
</g>
<!-- Node2 -->
<g id="node2" class="node">
<title>Node2</title>
<g id="a_node2"><a xlink:href="../../db/d69/class_app_base_class_afcd9194843e5eb3f6140e28cc3c9e8f9.html#afcd9194843e5eb3f6140e28cc3c9e8f9" target="_top" xlink:title="Get focus from the AppManager.">
<polygon fill="none" stroke="black" points="214,-246.5 214,-274.5 434,-274.5 434,-246.5 214,-246.5"/>
<text text-anchor="middle" x="324" y="-256.1" font-family="Helvetica,sans-Serif" font-size="18.00">AppBaseClass::getFocus</text>
</a>
</g>
</g>
<!-- Node1&#45;&gt;Node2 -->
<g id="edge1" class="edge">
<title>Node1&#45;&gt;Node2</title>
<path fill="none" stroke="midnightblue" d="M178.09,-260.5C186.52,-260.5 195.16,-260.5 203.82,-260.5"/>
<polygon fill="midnightblue" stroke="midnightblue" points="203.98,-264 213.98,-260.5 203.98,-257 203.98,-264"/>
</g>
<!-- Node3 -->
<g id="node3" class="node">
<title>Node3</title>
<g id="a_node3"><a xlink:href="../../db/d69/class_app_base_class_a32e44666dd58b3cd733c8ac64957dce3.html#a32e44666dd58b3cd733c8ac64957dce3" target="_top" xlink:title=" ">
<polygon fill="none" stroke="black" points="470,-293.5 470,-321.5 745,-321.5 745,-293.5 470,-293.5"/>
<text text-anchor="middle" x="607.5" y="-303.1" font-family="Helvetica,sans-Serif" font-size="18.00">AppBaseClass::_updatePosition</text>
</a>
</g>
</g>
<!-- Node2&#45;&gt;Node3 -->
<g id="edge2" class="edge">
<title>Node2&#45;&gt;Node3</title>
<path fill="none" stroke="midnightblue" d="M409.08,-274.54C441.53,-279.96 478.8,-286.18 512.15,-291.75"/>
<polygon fill="midnightblue" stroke="midnightblue" points="511.93,-295.26 522.37,-293.45 513.08,-288.35 511.93,-295.26"/>
</g>
<!-- Node4 -->
<g id="node4" class="node">
<title>Node4</title>
<g id="a_node4"><a xlink:href="../../da/d96/class_app_manager_add0cb3ca55868f2af725a2c71ae20e3c.html#add0cb3ca55868f2af725a2c71ae20e3c" target="_top" xlink:title="provides an interface for apps to request focus">
<polygon fill="none" stroke="black" points="505,-246.5 505,-274.5 710,-274.5 710,-246.5 505,-246.5"/>
<text text-anchor="middle" x="607.5" y="-256.1" font-family="Helvetica,sans-Serif" font-size="18.00">AppManager::getFocus</text>
</a>
</g>
</g>
<!-- Node2&#45;&gt;Node4 -->
<g id="edge3" class="edge">
<title>Node2&#45;&gt;Node4</title>
<path fill="none" stroke="midnightblue" d="M434.24,-260.5C454.07,-260.5 474.78,-260.5 494.69,-260.5"/>
<polygon fill="midnightblue" stroke="midnightblue" points="494.7,-264 504.7,-260.5 494.7,-257 494.7,-264"/>
</g>
<!-- Node8 -->
<g id="node8" class="node">
<title>Node8</title>
<g id="a_node8"><a xlink:href="../../da/d96/class_app_manager_aa76d9691e8d029656413590fbe4dee86.html#aa76d9691e8d029656413590fbe4dee86" target="_top" xlink:title=" ">
<polygon fill="none" stroke="black" points="495.5,-187.5 495.5,-215.5 719.5,-215.5 719.5,-187.5 495.5,-187.5"/>
<text text-anchor="middle" x="607.5" y="-197.1" font-family="Helvetica,sans-Serif" font-size="18.00">AppManager::getInstance</text>
</a>
</g>
</g>
<!-- Node2&#45;&gt;Node8 -->
<g id="edge7" class="edge">
<title>Node2&#45;&gt;Node8</title>
<path fill="none" stroke="midnightblue" d="M392.07,-246.44C433.41,-237.78 486.55,-226.64 529.59,-217.62"/>
<polygon fill="midnightblue" stroke="midnightblue" points="530.39,-221.03 539.46,-215.55 528.95,-214.18 530.39,-221.03"/>
</g>
<!-- Node5 -->
<g id="node5" class="node">
<title>Node5</title>
<g id="a_node5"><a xlink:href="../../da/d96/class_app_manager_a9853cc712c3a2efca6a982937cc97c44.html#a9853cc712c3a2efca6a982937cc97c44" target="_top" xlink:title="provides an interface for apps to request another app object by id">
<polygon fill="none" stroke="black" points="811,-305.5 811,-333.5 999,-333.5 999,-305.5 811,-305.5"/>
<text text-anchor="middle" x="905" y="-315.1" font-family="Helvetica,sans-Serif" font-size="18.00">AppManager::getApp</text>
</a>
</g>
</g>
<!-- Node4&#45;&gt;Node5 -->
<g id="edge4" class="edge">
<title>Node4&#45;&gt;Node5</title>
<path fill="none" stroke="midnightblue" d="M699.21,-274.51C714.58,-277.44 730.3,-280.78 745,-284.5 761.35,-288.64 764.67,-292.27 781,-296.5 790.46,-298.95 800.4,-301.25 810.35,-303.38"/>
<polygon fill="midnightblue" stroke="midnightblue" points="809.79,-306.83 820.29,-305.44 811.22,-299.98 809.79,-306.83"/>
</g>
<!-- Node6 -->
<g id="node6" class="node">
<title>Node6</title>
<g id="a_node6"><a xlink:href="../../db/d69/class_app_base_class_a53c663808513ec64776645ee98da4a1f.html#a53c663808513ec64776645ee98da4a1f" target="_top" xlink:title="Event handler called when the app gains focus.">
<polygon fill="none" stroke="black" points="797.5,-258.5 797.5,-286.5 1012.5,-286.5 1012.5,-258.5 797.5,-258.5"/>
<text text-anchor="middle" x="905" y="-268.1" font-family="Helvetica,sans-Serif" font-size="18.00">AppBaseClass::onFocus</text>
</a>
</g>
</g>
<!-- Node4&#45;&gt;Node6 -->
<g id="edge5" class="edge">
<title>Node4&#45;&gt;Node6</title>
<path fill="none" stroke="midnightblue" d="M710.19,-264.63C735.03,-265.64 761.79,-266.73 787.27,-267.76"/>
<polygon fill="midnightblue" stroke="midnightblue" points="787.2,-271.26 797.34,-268.17 787.49,-264.27 787.2,-271.26"/>
</g>
<!-- Node7 -->
<g id="node7" class="node">
<title>Node7</title>
<g id="a_node7"><a xlink:href="../../db/d69/class_app_base_class_a3937393335f8a7eab2ec16697925d93d.html#a3937393335f8a7eab2ec16697925d93d" target="_top" xlink:title="Event handler called when the app loses focus.">
<polygon fill="none" stroke="black" points="781,-211.5 781,-239.5 1029,-239.5 1029,-211.5 781,-211.5"/>
<text text-anchor="middle" x="905" y="-221.1" font-family="Helvetica,sans-Serif" font-size="18.00">AppBaseClass::onFocusLost</text>
</a>
</g>
</g>
<!-- Node4&#45;&gt;Node7 -->
<g id="edge6" class="edge">
<title>Node4&#45;&gt;Node7</title>
<path fill="none" stroke="midnightblue" d="M710.19,-248.45C731.26,-245.96 753.71,-243.3 775.59,-240.71"/>
<polygon fill="midnightblue" stroke="midnightblue" points="776.07,-244.18 785.59,-239.52 775.25,-237.23 776.07,-244.18"/>
</g>
<!-- Node9 -->
<g id="node9" class="node">
<title>Node9</title>
<g id="a_node9"><a xlink:href="../../da/d96/class_app_manager_a9439da981933119c49a83a507d64eb23.html#a9439da981933119c49a83a507d64eb23" target="_top" xlink:title="Construct a new App Manager:: App Manager object using a private constructor (lazy singleton pattern)">
<polygon fill="none" stroke="black" points="788.5,-164.5 788.5,-192.5 1021.5,-192.5 1021.5,-164.5 788.5,-164.5"/>
<text text-anchor="middle" x="905" y="-174.1" font-family="Helvetica,sans-Serif" font-size="18.00">AppManager::AppManager</text>
</a>
</g>
</g>
<!-- Node8&#45;&gt;Node9 -->
<g id="edge8" class="edge">
<title>Node8&#45;&gt;Node9</title>
<path fill="none" stroke="midnightblue" d="M719.79,-192.84C738.88,-191.35 758.83,-189.8 778.27,-188.29"/>
<polygon fill="midnightblue" stroke="midnightblue" points="778.68,-191.77 788.37,-187.5 778.13,-184.79 778.68,-191.77"/>
</g>
<!-- Node10 -->
<g id="node10" class="node">
<title>Node10</title>
<g id="a_node10"><a xlink:href="../../d8/d5a/class_i_l_i9341__t3___e_r_i_s_a8c8c09d5ca51d5b4c611875df643bef6.html#a8c8c09d5ca51d5b4c611875df643bef6" target="_top" xlink:title=" ">
<polygon fill="none" stroke="black" points="1089,-329.5 1089,-357.5 1295,-357.5 1295,-329.5 1089,-329.5"/>
<text text-anchor="middle" x="1192" y="-339.1" font-family="Helvetica,sans-Serif" font-size="18.00">ILI9341_t3_ERIS::begin</text>
</a>
</g>
</g>
<!-- Node9&#45;&gt;Node10 -->
<g id="edge9" class="edge">
<title>Node9&#45;&gt;Node10</title>
<path fill="none" stroke="midnightblue" d="M1015.28,-192.64C1020.18,-195.45 1024.8,-198.71 1029,-202.5 1069.72,-239.22 1024.05,-284.03 1065,-320.5 1069.52,-324.53 1074.51,-327.96 1079.8,-330.87"/>
<polygon fill="midnightblue" stroke="midnightblue" points="1078.46,-334.11 1088.99,-335.31 1081.51,-327.81 1078.46,-334.11"/>
</g>
<!-- Node11 -->
<g id="node11" class="node">
<title>Node11</title>
<g id="a_node11"><a xlink:href="../../d1/dff/class_touch_a057f1914b96362769a5384dbbfdb4195.html#a057f1914b96362769a5384dbbfdb4195" target="_top" xlink:title=" ">
<polygon fill="none" stroke="black" points="1131,-282.5 1131,-310.5 1253,-310.5 1253,-282.5 1131,-282.5"/>
<text text-anchor="middle" x="1192" y="-292.1" font-family="Helvetica,sans-Serif" font-size="18.00">Touch::begin</text>
</a>
</g>
</g>
<!-- Node9&#45;&gt;Node11 -->
<g id="edge10" class="edge">
<title>Node9&#45;&gt;Node11</title>
<path fill="none" stroke="midnightblue" d="M1012.45,-192.53C1018.31,-195.33 1023.88,-198.63 1029,-202.5 1057.23,-223.83 1036.64,-252.34 1065,-273.5 1080.94,-285.39 1101.11,-291.78 1120.62,-295.06"/>
<polygon fill="midnightblue" stroke="midnightblue" points="1120.34,-298.56 1130.73,-296.51 1121.33,-291.63 1120.34,-298.56"/>
</g>
<!-- Node12 -->
<g id="node12" class="node">
<title>Node12</title>
<g id="a_node12"><a xlink:href="../../dc/d43/class_svc_data_dictionary_a3b09dc582adbb4d5c6f99f6e983a81f1.html#a3b09dc582adbb4d5c6f99f6e983a81f1" target="_top" xlink:title="create a record with ownership">
<polygon fill="none" stroke="black" points="1080.5,-235.5 1080.5,-263.5 1303.5,-263.5 1303.5,-235.5 1080.5,-235.5"/>
<text text-anchor="middle" x="1192" y="-245.1" font-family="Helvetica,sans-Serif" font-size="18.00">SvcDataDictionary::create</text>
</a>
</g>
</g>
<!-- Node9&#45;&gt;Node12 -->
<g id="edge11" class="edge">
<title>Node9&#45;&gt;Node12</title>
<path fill="none" stroke="midnightblue" d="M998.85,-192.5C1009.2,-195.27 1019.44,-198.57 1029,-202.5 1046.78,-209.82 1047.17,-219.29 1065,-226.5 1070.55,-228.74 1076.32,-230.77 1082.21,-232.6"/>
<polygon fill="midnightblue" stroke="midnightblue" points="1081.63,-236.07 1092.21,-235.49 1083.58,-229.35 1081.63,-236.07"/>
</g>
<!-- Node15 -->
<g id="node15" class="node">
<title>Node15</title>
<g id="a_node15"><a xlink:href="../../d1/dff/class_touch_a61a5d056f07ab08cb5924fa573dc3497.html#a61a5d056f07ab08cb5924fa573dc3497" target="_top" xlink:title=" ">
<polygon fill="none" stroke="black" points="1073,-188.5 1073,-216.5 1311,-216.5 1311,-188.5 1073,-188.5"/>
<text text-anchor="middle" x="1192" y="-198.1" font-family="Helvetica,sans-Serif" font-size="18.00">Touch::setCalibrationInputs</text>
</a>
</g>
</g>
<!-- Node9&#45;&gt;Node15 -->
<g id="edge14" class="edge">
<title>Node9&#45;&gt;Node15</title>
<path fill="none" stroke="midnightblue" d="M1021.51,-188.23C1034.91,-189.36 1048.64,-190.51 1062.21,-191.65"/>
<polygon fill="midnightblue" stroke="midnightblue" points="1062.29,-195.17 1072.54,-192.52 1062.87,-188.2 1062.29,-195.17"/>
</g>
<!-- Node16 -->
<g id="node16" class="node">
<title>Node16</title>
<g id="a_node16"><a xlink:href="../../d4/d7c/class_animation_a997d1203ae9418f121f355a5bd0700f0.html#a997d1203ae9418f121f355a5bd0700f0" target="_top" xlink:title=" ">
<polygon fill="none" stroke="black" points="1108,-141.5 1108,-169.5 1276,-169.5 1276,-141.5 1108,-141.5"/>
<text text-anchor="middle" x="1192" y="-151.1" font-family="Helvetica,sans-Serif" font-size="18.00">Animation::setPath</text>
</a>
</g>
</g>
<!-- Node9&#45;&gt;Node16 -->
<g id="edge15" class="edge">
<title>Node9&#45;&gt;Node16</title>
<path fill="none" stroke="midnightblue" d="M1021.51,-169.18C1046.76,-167.14 1073.18,-165.01 1097.44,-163.05"/>
<polygon fill="midnightblue" stroke="midnightblue" points="1098.01,-166.52 1107.7,-162.22 1097.45,-159.54 1098.01,-166.52"/>
</g>
<!-- Node17 -->
<g id="node17" class="node">
<title>Node17</title>
<g id="a_node17"><a xlink:href="../../d8/d5a/class_i_l_i9341__t3___e_r_i_s_a449053e8db3672d4902d76f093e52b14.html#a449053e8db3672d4902d76f093e52b14" target="_top" xlink:title=" ">
<polygon fill="none" stroke="black" points="1065,-94.5 1065,-122.5 1319,-122.5 1319,-94.5 1065,-94.5"/>
<text text-anchor="middle" x="1192" y="-104.1" font-family="Helvetica,sans-Serif" font-size="18.00">ILI9341_t3_ERIS::setPWMPin</text>
</a>
</g>
</g>
<!-- Node9&#45;&gt;Node17 -->
<g id="edge16" class="edge">
<title>Node9&#45;&gt;Node17</title>
<path fill="none" stroke="midnightblue" d="M950.25,-164.49C981.99,-154.74 1025.87,-141.86 1065,-132.5 1076.59,-129.73 1088.84,-127.06 1100.97,-124.59"/>
<polygon fill="midnightblue" stroke="midnightblue" points="1101.99,-127.95 1111.11,-122.55 1100.62,-121.09 1101.99,-127.95"/>
</g>
<!-- Node18 -->
<g id="node18" class="node">
<title>Node18</title>
<g id="a_node18"><a xlink:href="../../d4/d7c/class_animation_a8475c70c384b7e488cff185e7bcb5dd7.html#a8475c70c384b7e488cff185e7bcb5dd7" target="_top" xlink:title=" ">
<polygon fill="none" stroke="black" points="1114.5,-47.5 1114.5,-75.5 1269.5,-75.5 1269.5,-47.5 1114.5,-47.5"/>
<text text-anchor="middle" x="1192" y="-57.1" font-family="Helvetica,sans-Serif" font-size="18.00">Animation::setSD</text>
</a>
</g>
</g>
<!-- Node9&#45;&gt;Node18 -->
<g id="edge17" class="edge">
<title>Node9&#45;&gt;Node18</title>
<path fill="none" stroke="midnightblue" d="M924.99,-164.46C953.76,-143.9 1010.8,-105.82 1065,-85.5 1077.38,-80.86 1090.79,-77.08 1104.09,-74.01"/>
<polygon fill="midnightblue" stroke="midnightblue" points="1105.2,-77.35 1114.23,-71.8 1103.71,-70.51 1105.2,-77.35"/>
</g>
<!-- Node19 -->
<g id="node19" class="node">
<title>Node19</title>
<g id="a_node19"><a xlink:href="../../d8/d5a/class_i_l_i9341__t3___e_r_i_s_a8e35cc006a1235c71cb344af9df65e1e.html#a8e35cc006a1235c71cb344af9df65e1e" target="_top" xlink:title=" ">
<polygon fill="none" stroke="black" points="1087.5,-0.5 1087.5,-28.5 1296.5,-28.5 1296.5,-0.5 1087.5,-0.5"/>
<text text-anchor="middle" x="1192" y="-10.1" font-family="Helvetica,sans-Serif" font-size="18.00">ILI9341_t3_ERIS::setSD</text>
</a>
</g>
</g>
<!-- Node9&#45;&gt;Node19 -->
<g id="edge18" class="edge">
<title>Node9&#45;&gt;Node19</title>
<path fill="none" stroke="midnightblue" d="M917.44,-164.26C941.44,-135.42 1000.25,-70.19 1065,-38.5 1070,-36.05 1075.23,-33.86 1080.58,-31.88"/>
<polygon fill="midnightblue" stroke="midnightblue" points="1082.01,-35.09 1090.35,-28.56 1079.76,-28.46 1082.01,-35.09"/>
</g>
<!-- Node13 -->
<g id="node13" class="node">
<title>Node13</title>
<g id="a_node13"><a xlink:href="../../dc/d43/class_svc_data_dictionary_a7c7bd48b97fbcf18ef64337e12022619.html#a7c7bd48b97fbcf18ef64337e12022619" target="_top" xlink:title=" ">
<polygon fill="none" stroke="black" points="1355,-258.5 1355,-286.5 1597,-286.5 1597,-258.5 1355,-258.5"/>
<text text-anchor="middle" x="1476" y="-268.1" font-family="Helvetica,sans-Serif" font-size="18.00">SvcDataDictionary::copyKey</text>
</a>
</g>
</g>
<!-- Node12&#45;&gt;Node13 -->
<g id="edge12" class="edge">
<title>Node12&#45;&gt;Node13</title>
<path fill="none" stroke="midnightblue" d="M1303.64,-258.52C1317.18,-259.63 1331.1,-260.76 1344.89,-261.89"/>
<polygon fill="midnightblue" stroke="midnightblue" points="1344.65,-265.38 1354.9,-262.7 1345.21,-258.4 1344.65,-265.38"/>
</g>
<!-- Node14 -->
<g id="node14" class="node">
<title>Node14</title>
<g id="a_node14"><a xlink:href="../../dc/d43/class_svc_data_dictionary_ac4b80e87e8e9cf82926af2105b4e424a.html#ac4b80e87e8e9cf82926af2105b4e424a" target="_top" xlink:title="hashing function used to accelerate searches">
<polygon fill="none" stroke="black" points="1369.5,-211.5 1369.5,-239.5 1582.5,-239.5 1582.5,-211.5 1369.5,-211.5"/>
<text text-anchor="middle" x="1476" y="-221.1" font-family="Helvetica,sans-Serif" font-size="18.00">SvcDataDictionary::hash</text>
</a>
</g>
</g>
<!-- Node12&#45;&gt;Node14 -->
<g id="edge13" class="edge">
<title>Node12&#45;&gt;Node14</title>
<path fill="none" stroke="midnightblue" d="M1303.64,-240.08C1321.87,-238.53 1340.81,-236.92 1359.16,-235.36"/>
<polygon fill="midnightblue" stroke="midnightblue" points="1359.62,-238.83 1369.29,-234.5 1359.02,-231.86 1359.62,-238.83"/>
</g>
</g>
</svg>
