<?xml version="1.0" encoding="UTF-8" standalone="no"?>
<!DOCTYPE svg PUBLIC "-//W3C//DTD SVG 1.1//EN"
 "http://www.w3.org/Graphics/SVG/1.1/DTD/svg11.dtd">
<!-- Generated by graphviz version 2.47.3 (20210619.1520)
 -->
<!-- Title: AppWren::bltRAMDrive2FrameBuffer Pages: 1 -->
<svg width="999pt" height="131pt"
 viewBox="0.00 0.00 999.00 131.00" xmlns="http://www.w3.org/2000/svg" xmlns:xlink="http://www.w3.org/1999/xlink">
<g id="graph0" class="graph" transform="scale(1 1) rotate(0) translate(4 127)">
<title>AppWren::bltRAMDrive2FrameBuffer</title>
<!-- Node1 -->
<g id="node1" class="node">
<title>Node1</title>
<g id="a_node1"><a xlink:title="block tramsfer from ram drive filei to the frame buffer">
<polygon fill="#bfbfbf" stroke="black" points="0,-70.5 0,-98.5 312,-98.5 312,-70.5 0,-70.5"/>
<text text-anchor="middle" x="156" y="-80.1" font-family="Helvetica,sans-Serif" font-size="18.00">AppWren::bltRAMDrive2FrameBuffer</text>
</a>
</g>
</g>
<!-- Node2 -->
<g id="node2" class="node">
<title>Node2</title>
<g id="a_node2"><a xlink:href="../../d8/d5a/class_i_l_i9341__t3___e_r_i_s_a7ecadfd5c8126cdc71d76e3b48e035a0.html#a7ecadfd5c8126cdc71d76e3b48e035a0" target="_top" xlink:title="blt from an open TinyFS open file pointer to a destination buffer">
<polygon fill="none" stroke="black" points="369.5,-94.5 369.5,-122.5 629.5,-122.5 629.5,-94.5 369.5,-94.5"/>
<text text-anchor="middle" x="499.5" y="-104.1" font-family="Helvetica,sans-Serif" font-size="18.00">ILI9341_t3_ERIS::bltRAMFileB</text>
</a>
</g>
</g>
<!-- Node1&#45;&gt;Node2 -->
<g id="edge1" class="edge">
<title>Node1&#45;&gt;Node2</title>
<path fill="none" stroke="midnightblue" d="M312.26,-95.41C327.94,-96.51 343.8,-97.63 359.3,-98.72"/>
<polygon fill="midnightblue" stroke="midnightblue" points="359.21,-102.22 369.43,-99.43 359.7,-95.24 359.21,-102.22"/>
</g>
<!-- Node3 -->
<g id="node3" class="node">
<title>Node3</title>
<g id="a_node3"><a xlink:href="../../d0/da0/class_app_wren_a743e89bcfef0064cc5aaae3863ba2ac3.html#a743e89bcfef0064cc5aaae3863ba2ac3" target="_top" xlink:title="responsible for managing the surface buffer memory allocation">
<polygon fill="none" stroke="black" points="348,-47.5 348,-75.5 651,-75.5 651,-47.5 348,-47.5"/>
<text text-anchor="middle" x="499.5" y="-57.1" font-family="Helvetica,sans-Serif" font-size="18.00">AppWren::dynamicSurfaceManager</text>
</a>
</g>
</g>
<!-- Node1&#45;&gt;Node3 -->
<g id="edge2" class="edge">
<title>Node1&#45;&gt;Node3</title>
<path fill="none" stroke="midnightblue" d="M312.26,-74.04C320.65,-73.48 329.1,-72.91 337.51,-72.34"/>
<polygon fill="midnightblue" stroke="midnightblue" points="338.01,-75.82 347.75,-71.65 337.53,-68.83 338.01,-75.82"/>
</g>
<!-- Node4 -->
<g id="node4" class="node">
<title>Node4</title>
<g id="a_node4"><a xlink:href="../../d8/d5a/class_i_l_i9341__t3___e_r_i_s_aac6bfeafd4e3753f4e8dc2af3a5d0afd.html#aac6bfeafd4e3753f4e8dc2af3a5d0afd" target="_top" xlink:title="Get the Frame Address object.">
<polygon fill="none" stroke="black" points="687,-94.5 687,-122.5 991,-122.5 991,-94.5 687,-94.5"/>
<text text-anchor="middle" x="839" y="-104.1" font-family="Helvetica,sans-Serif" font-size="18.00">ILI9341_t3_ERIS::getFrameAddress</text>
</a>
</g>
</g>
<!-- Node3&#45;&gt;Node4 -->
<g id="edge3" class="edge">
<title>Node3&#45;&gt;Node4</title>
<path fill="none" stroke="midnightblue" d="M601.3,-75.54C641.05,-81.07 686.83,-87.45 727.48,-93.11"/>
<polygon fill="midnightblue" stroke="midnightblue" points="727.04,-96.58 737.42,-94.49 728,-89.65 727.04,-96.58"/>
</g>
<!-- Node5 -->
<g id="node5" class="node">
<title>Node5</title>
<g id="a_node5"><a xlink:href="../../d1/d1a/class_surface_a552bec1e25c262bbd74eafdea43dc438.html#a552bec1e25c262bbd74eafdea43dc438" target="_top" xlink:title=" ">
<polygon fill="none" stroke="black" points="755.5,-47.5 755.5,-75.5 922.5,-75.5 922.5,-47.5 755.5,-47.5"/>
<text text-anchor="middle" x="839" y="-57.1" font-family="Helvetica,sans-Serif" font-size="18.00">Surface::getHeight</text>
</a>
</g>
</g>
<!-- Node3&#45;&gt;Node5 -->
<g id="edge4" class="edge">
<title>Node3&#45;&gt;Node5</title>
<path fill="none" stroke="midnightblue" d="M651.48,-61.5C683.35,-61.5 716.08,-61.5 745.04,-61.5"/>
<polygon fill="midnightblue" stroke="midnightblue" points="745.12,-65 755.12,-61.5 745.12,-58 745.12,-65"/>
</g>
<!-- Node6 -->
<g id="node6" class="node">
<title>Node6</title>
<g id="a_node6"><a xlink:href="../../d1/d1a/class_surface_a5c2bec03132b83f9a030a64c643ca256.html#a5c2bec03132b83f9a030a64c643ca256" target="_top" xlink:title=" ">
<polygon fill="none" stroke="black" points="758,-0.5 758,-28.5 920,-28.5 920,-0.5 758,-0.5"/>
<text text-anchor="middle" x="839" y="-10.1" font-family="Helvetica,sans-Serif" font-size="18.00">Surface::getWidth</text>
</a>
</g>
</g>
<!-- Node3&#45;&gt;Node6 -->
<g id="edge5" class="edge">
<title>Node3&#45;&gt;Node6</title>
<path fill="none" stroke="midnightblue" d="M601.3,-47.46C647.8,-40.99 702.57,-33.36 747.7,-27.08"/>
<polygon fill="midnightblue" stroke="midnightblue" points="748.34,-30.52 757.77,-25.67 747.38,-23.59 748.34,-30.52"/>
</g>
</g>
</svg>
