<?xml version="1.0" encoding="UTF-8" standalone="no"?>
<!DOCTYPE svg PUBLIC "-//W3C//DTD SVG 1.1//EN"
 "http://www.w3.org/Graphics/SVG/1.1/DTD/svg11.dtd">
<!-- Generated by graphviz version 2.47.3 (20210619.1520)
 -->
<!-- Title: AppWren::vmConstructor Pages: 1 -->
<!--zoomable 802 -->
<svg id="main" version="1.1" xmlns="http://www.w3.org/2000/svg" xmlns:xlink="http://www.w3.org/1999/xlink" xml:space="preserve" onload="init(evt)">
<style type="text/css"><![CDATA[
.edge:hover path { stroke: red; }
.edge:hover polygon { stroke: red; fill: red; }
]]></style>
<script type="text/javascript"><![CDATA[
var edges = document.getElementsByTagName('g');
if (edges && edges.length) {
  for (var i=0;i<edges.length;i++) {
    if (edges[i].id.substr(0,4)=='edge') {
      edges[i].setAttribute('class','edge');
    }
  }
}
]]></script>
        <defs>
                <circle id="rim" cx="0" cy="0" r="7"/>
                <circle id="rim2" cx="0" cy="0" r="3.5"/>
                <g id="zoomPlus">
                        <use xlink:href="#rim" fill="#404040">
                                <set attributeName="fill" to="#808080" begin="zoomplus.mouseover" end="zoomplus.mouseout"/>
                        </use>
                        <path d="M-4,0h8M0,-4v8" fill="none" stroke="white" stroke-width="1.5" pointer-events="none"/>
                </g>
                <g id="zoomMin">
                        <use xlink:href="#rim" fill="#404040">
                                <set attributeName="fill" to="#808080" begin="zoomminus.mouseover" end="zoomminus.mouseout"/>
                        </use>
                        <path d="M-4,0h8" fill="none" stroke="white" stroke-width="1.5" pointer-events="none"/>
                </g>
                <g id="dirArrow">
                        <path fill="none" stroke="white" stroke-width="1.5" d="M0,-3.0v7 M-2.5,-0.5L0,-3.0L2.5,-0.5"/>
                </g>
               <g id="resetDef">
                       <use xlink:href="#rim2" fill="#404040">
                               <set attributeName="fill" to="#808080" begin="reset.mouseover" end="reset.mouseout"/>
                       </use>
               </g>
        </defs>

<script type="text/javascript">
var viewWidth = 1462;
var viewHeight = 802;
var sectionId = 'dynsection-44';
</script>
<script xlink:href="../../svgpan.js"/>
<svg id="graph" class="graph">
<g id="viewport">
<title>AppWren::vmConstructor</title>
<polygon fill="white" stroke="transparent" points="-4,4 -4,-798 1458,-798 1458,4 -4,4"/>
<!-- Node1 -->
<g id="node1" class="node">
<title>Node1</title>
<g id="a_node1"><a xlink:title="start, load and configure the handles of the VM">
<polygon fill="#bfbfbf" stroke="black" points="0,-458.5 0,-479.5 147,-479.5 147,-458.5 0,-458.5"/>
<text text-anchor="middle" x="73.5" y="-465.9" font-family="Helvetica,sans-Serif" font-size="12.00">AppWren::vmConstructor</text>
</a>
</g>
</g>
<!-- Node2 -->
<g id="node2" class="node">
<title>Node2</title>
<g id="a_node2"><a xlink:href="../../d0/da0/class_app_wren.html#a96b2fca22884292f1df5bfdebd8e0fac" target="_top" xlink:title=" ">
<polygon fill="white" stroke="black" points="183,-517.5 183,-538.5 342,-538.5 342,-517.5 183,-517.5"/>
<text text-anchor="middle" x="262.5" y="-524.9" font-family="Helvetica,sans-Serif" font-size="12.00">AppWren::getWrenHandles</text>
</a>
</g>
</g>
<!-- Node1&#45;&gt;Node2 -->
<g id="edge1" class="edge">
<title>Node1&#45;&gt;Node2</title>
<path fill="none" stroke="midnightblue" d="M107.93,-479.55C138.82,-489.29 184.86,-503.82 218.48,-514.43"/>
<polygon fill="midnightblue" stroke="midnightblue" points="217.45,-517.77 228.04,-517.44 219.56,-511.1 217.45,-517.77"/>
</g>
<!-- Node3 -->
<g id="node3" class="node">
<title>Node3</title>
<g id="a_node3"><a xlink:href="../../d0/da0/class_app_wren.html#a701371012a8d0ca93203257c69a7204a" target="_top" xlink:title=" ">
<polygon fill="white" stroke="black" points="378,-478.5 378,-499.5 536,-499.5 536,-478.5 378,-478.5"/>
<text text-anchor="middle" x="457" y="-485.9" font-family="Helvetica,sans-Serif" font-size="12.00">AppWren::isWrenResultOK</text>
</a>
</g>
</g>
<!-- Node1&#45;&gt;Node3 -->
<g id="edge2" class="edge">
<title>Node1&#45;&gt;Node3</title>
<path fill="none" stroke="midnightblue" d="M147.16,-472.81C209.87,-476.1 300.67,-480.86 367.6,-484.37"/>
<polygon fill="midnightblue" stroke="midnightblue" points="367.54,-487.87 377.71,-484.9 367.9,-480.88 367.54,-487.87"/>
</g>
<!-- Node4 -->
<g id="node4" class="node">
<title>Node4</title>
<g id="a_node4"><a xlink:href="../../d0/da0/class_app_wren.html#a2aa4114b8f2506085c3a0871c598216b" target="_top" xlink:title=" ">
<polygon fill="white" stroke="black" points="200,-439.5 200,-460.5 325,-460.5 325,-439.5 200,-439.5"/>
<text text-anchor="middle" x="262.5" y="-446.9" font-family="Helvetica,sans-Serif" font-size="12.00">AppWren::loadScript</text>
</a>
</g>
</g>
<!-- Node1&#45;&gt;Node4 -->
<g id="edge3" class="edge">
<title>Node1&#45;&gt;Node4</title>
<path fill="none" stroke="midnightblue" d="M147.07,-461.63C161.11,-460.2 175.82,-458.71 189.83,-457.28"/>
<polygon fill="midnightblue" stroke="midnightblue" points="190.3,-460.75 199.9,-456.26 189.6,-453.79 190.3,-460.75"/>
</g>
<!-- Node5 -->
<g id="node5" class="node">
<title>Node5</title>
<g id="a_node5"><a xlink:href="../../d0/da0/class_app_wren.html#ab7284ce099837c2594b05e01595c3c2e" target="_top" xlink:title=" ">
<polygon fill="white" stroke="black" points="206,-398.5 206,-419.5 319,-419.5 319,-398.5 206,-398.5"/>
<text text-anchor="middle" x="262.5" y="-405.9" font-family="Helvetica,sans-Serif" font-size="12.00">AppWren::startVM</text>
</a>
</g>
</g>
<!-- Node1&#45;&gt;Node5 -->
<g id="edge5" class="edge">
<title>Node1&#45;&gt;Node5</title>
<path fill="none" stroke="midnightblue" d="M101.93,-458.42C123.74,-450.18 155.11,-438.73 183,-430 191.51,-427.34 200.6,-424.71 209.47,-422.26"/>
<polygon fill="midnightblue" stroke="midnightblue" points="210.62,-425.58 219.35,-419.58 208.78,-418.82 210.62,-425.58"/>
</g>
<!-- Node4&#45;&gt;Node3 -->
<g id="edge4" class="edge">
<title>Node4&#45;&gt;Node3</title>
<path fill="none" stroke="midnightblue" d="M315.34,-460.5C339.62,-465.42 368.73,-471.32 394.16,-476.47"/>
<polygon fill="midnightblue" stroke="midnightblue" points="393.57,-479.92 404.07,-478.48 394.96,-473.06 393.57,-479.92"/>
</g>
<!-- Node6 -->
<g id="node6" class="node">
<title>Node6</title>
<g id="a_node6"><a xlink:href="../../d7/d7e/_app_wren_8cpp.html#ab80ed1f0719f8c9f67ac2cd3d8145bc5" target="_top" xlink:title="callback function for Wren to request an exported function bindings">
<polygon fill="white" stroke="black" points="397.5,-398.5 397.5,-419.5 516.5,-419.5 516.5,-398.5 397.5,-398.5"/>
<text text-anchor="middle" x="457" y="-405.9" font-family="Helvetica,sans-Serif" font-size="12.00">bindForeignMethod</text>
</a>
</g>
</g>
<!-- Node5&#45;&gt;Node6 -->
<g id="edge6" class="edge">
<title>Node5&#45;&gt;Node6</title>
<path fill="none" stroke="midnightblue" d="M319.18,-409C340.46,-409 364.98,-409 387.33,-409"/>
<polygon fill="midnightblue" stroke="midnightblue" points="387.43,-412.5 397.43,-409 387.43,-405.5 387.43,-412.5"/>
</g>
<!-- Node40 -->
<g id="node40" class="node">
<title>Node40</title>
<g id="a_node40"><a xlink:href="../../d7/d7e/_app_wren_8cpp.html#ad2ce68e399aa9789b4f49cc5256f27c2" target="_top" xlink:title="error function system callback for the Wren VM. Stdout/Stderr is SerialUSB1">
<polygon fill="white" stroke="black" points="429.5,-358.5 429.5,-379.5 484.5,-379.5 484.5,-358.5 429.5,-358.5"/>
<text text-anchor="middle" x="457" y="-365.9" font-family="Helvetica,sans-Serif" font-size="12.00">errorFn</text>
</a>
</g>
</g>
<!-- Node5&#45;&gt;Node40 -->
<g id="edge47" class="edge">
<title>Node5&#45;&gt;Node40</title>
<path fill="none" stroke="midnightblue" d="M314.08,-398.49C347.16,-391.62 389.61,-382.79 419.44,-376.6"/>
<polygon fill="midnightblue" stroke="midnightblue" points="420.34,-379.98 429.42,-374.52 418.92,-373.13 420.34,-379.98"/>
</g>
<!-- Node41 -->
<g id="node41" class="node">
<title>Node41</title>
<g id="a_node41"><a xlink:href="../../d7/d7e/_app_wren_8cpp.html#a8862be3048f99b67cf6ccc12d2c2ae74" target="_top" xlink:title="callback for the VM to request a module be loaded from the filesystem">
<polygon fill="white" stroke="black" points="418.5,-40.5 418.5,-61.5 495.5,-61.5 495.5,-40.5 418.5,-40.5"/>
<text text-anchor="middle" x="457" y="-47.9" font-family="Helvetica,sans-Serif" font-size="12.00">loadModule</text>
</a>
</g>
</g>
<!-- Node5&#45;&gt;Node41 -->
<g id="edge48" class="edge">
<title>Node5&#45;&gt;Node41</title>
<path fill="none" stroke="midnightblue" d="M269.26,-398.29C296.22,-348.16 410.06,-136.44 445.45,-70.62"/>
<polygon fill="midnightblue" stroke="midnightblue" points="448.61,-72.14 450.26,-61.67 442.44,-68.82 448.61,-72.14"/>
</g>
<!-- Node44 -->
<g id="node44" class="node">
<title>Node44</title>
<g id="a_node44"><a xlink:href="../../d7/d7e/_app_wren_8cpp.html#ad0c26c660738b28a098f1400caef81e2" target="_top" xlink:title="write function system callback for the Wren VM. Stdout/Stderr is SerialUSB1">
<polygon fill="white" stroke="black" points="429.5,-438.5 429.5,-459.5 484.5,-459.5 484.5,-438.5 429.5,-438.5"/>
<text text-anchor="middle" x="457" y="-445.9" font-family="Helvetica,sans-Serif" font-size="12.00">writeFn</text>
</a>
</g>
</g>
<!-- Node5&#45;&gt;Node44 -->
<g id="edge51" class="edge">
<title>Node5&#45;&gt;Node44</title>
<path fill="none" stroke="midnightblue" d="M314.08,-419.51C347.16,-426.38 389.61,-435.21 419.44,-441.4"/>
<polygon fill="midnightblue" stroke="midnightblue" points="418.92,-444.87 429.42,-443.48 420.34,-438.02 418.92,-444.87"/>
</g>
<!-- Node7 -->
<g id="node7" class="node">
<title>Node7</title>
<g id="a_node7"><a xlink:href="../../d7/d7e/_app_wren_8cpp.html#af75d96be639ca6825082ffa47934be07" target="_top" xlink:title="AudioDirector callback for wren.">
<polygon fill="white" stroke="black" points="579.5,-692.5 579.5,-713.5 756.5,-713.5 756.5,-692.5 579.5,-692.5"/>
<text text-anchor="middle" x="668" y="-699.9" font-family="Helvetica,sans-Serif" font-size="12.00">audioDirectorConnectCallback</text>
</a>
</g>
</g>
<!-- Node6&#45;&gt;Node7 -->
<g id="edge7" class="edge">
<title>Node6&#45;&gt;Node7</title>
<path fill="none" stroke="midnightblue" d="M516.87,-415.87C524.11,-418.93 530.78,-423.17 536,-429 612.06,-513.94 494.11,-599.73 572,-683 573.08,-684.15 574.21,-685.25 575.38,-686.29"/>
<polygon fill="midnightblue" stroke="midnightblue" points="573.55,-689.29 583.68,-692.39 577.7,-683.65 573.55,-689.29"/>
</g>
<!-- Node8 -->
<g id="node8" class="node">
<title>Node8</title>
<g id="a_node8"><a xlink:href="../../d7/d7e/_app_wren_8cpp.html#a58685c4e3619dc6ddfdfaeb04f8c95fc" target="_top" xlink:title="AudioDirector callback for wren.">
<polygon fill="white" stroke="black" points="588.5,-639 588.5,-673 747.5,-673 747.5,-639 588.5,-639"/>
<text text-anchor="start" x="596.5" y="-659.4" font-family="Helvetica,sans-Serif" font-size="12.00">audioDirectorDisconnectAll</text>
<text text-anchor="middle" x="668" y="-646.4" font-family="Helvetica,sans-Serif" font-size="12.00">Callback</text>
</a>
</g>
</g>
<!-- Node6&#45;&gt;Node8 -->
<g id="edge8" class="edge">
<title>Node6&#45;&gt;Node8</title>
<path fill="none" stroke="midnightblue" d="M516.68,-416.05C523.94,-419.08 530.67,-423.27 536,-429 597.49,-495.15 511.37,-562.06 572,-629 574.3,-631.54 576.82,-633.85 579.52,-635.95"/>
<polygon fill="midnightblue" stroke="midnightblue" points="577.8,-639.01 588.07,-641.63 581.67,-633.18 577.8,-639.01"/>
</g>
<!-- Node9 -->
<g id="node9" class="node">
<title>Node9</title>
<g id="a_node9"><a xlink:href="../../d7/d7e/_app_wren_8cpp.html#af49d4fea05c06629b1d47f199557ba3b" target="_top" xlink:title="AudioDirector callback for wren.">
<polygon fill="white" stroke="black" points="572,-598.5 572,-619.5 764,-619.5 764,-598.5 572,-598.5"/>
<text text-anchor="middle" x="668" y="-605.9" font-family="Helvetica,sans-Serif" font-size="12.00">audioDirectorDisconnectCallback</text>
</a>
</g>
</g>
<!-- Node6&#45;&gt;Node9 -->
<g id="edge9" class="edge">
<title>Node6&#45;&gt;Node9</title>
<path fill="none" stroke="midnightblue" d="M516.84,-416.42C523.99,-419.41 530.64,-423.48 536,-429 586.77,-481.3 520.1,-537.82 572,-589 573.28,-590.26 574.62,-591.45 576,-592.58"/>
<polygon fill="midnightblue" stroke="midnightblue" points="574.22,-595.6 584.46,-598.31 578.15,-589.8 574.22,-595.6"/>
</g>
<!-- Node10 -->
<g id="node10" class="node">
<title>Node10</title>
<g id="a_node10"><a xlink:href="../../d7/d7e/_app_wren_8cpp.html#a001c0ccb759e6d820931591c06ff273d" target="_top" xlink:title="SvcDataDictionary exported method which can be called from within a Wren VM instance.">
<polygon fill="white" stroke="black" points="600.5,-558.5 600.5,-579.5 735.5,-579.5 735.5,-558.5 600.5,-558.5"/>
<text text-anchor="middle" x="668" y="-565.9" font-family="Helvetica,sans-Serif" font-size="12.00">dataDictReadCallback</text>
</a>
</g>
</g>
<!-- Node6&#45;&gt;Node10 -->
<g id="edge10" class="edge">
<title>Node6&#45;&gt;Node10</title>
<path fill="none" stroke="midnightblue" d="M516.88,-416.94C523.94,-419.86 530.56,-423.77 536,-429 576.16,-467.57 531.01,-511.31 572,-549 577.46,-554.02 583.85,-557.9 590.69,-560.9"/>
<polygon fill="midnightblue" stroke="midnightblue" points="589.65,-564.24 600.24,-564.44 592.09,-557.68 589.65,-564.24"/>
</g>
<!-- Node11 -->
<g id="node11" class="node">
<title>Node11</title>
<g id="a_node11"><a xlink:href="../../d7/d7e/_app_wren_8cpp.html#a8a1f2538f4efc1d16a962797648c4e3d" target="_top" xlink:title="SvcDataDictionary exported method which can be called from within a Wren VM instance.">
<polygon fill="white" stroke="black" points="587.5,-518.5 587.5,-539.5 748.5,-539.5 748.5,-518.5 587.5,-518.5"/>
<text text-anchor="middle" x="668" y="-525.9" font-family="Helvetica,sans-Serif" font-size="12.00">dataDictReadFloatCallback</text>
</a>
</g>
</g>
<!-- Node6&#45;&gt;Node11 -->
<g id="edge11" class="edge">
<title>Node6&#45;&gt;Node11</title>
<path fill="none" stroke="midnightblue" d="M516.66,-417.78C523.67,-420.58 530.33,-424.23 536,-429 565.83,-454.1 541.63,-484.55 572,-509 574.01,-510.62 576.12,-512.11 578.31,-513.5"/>
<polygon fill="midnightblue" stroke="midnightblue" points="576.66,-516.58 587.12,-518.29 580.01,-510.43 576.66,-516.58"/>
</g>
<!-- Node12 -->
<g id="node12" class="node">
<title>Node12</title>
<g id="a_node12"><a xlink:href="../../d7/d7e/_app_wren_8cpp.html#a03f7cda21c2bbe03929840d8e117ed8f" target="_top" xlink:title="SvcDataDictionary exported method which can be called from within a Wren VM instance.">
<polygon fill="white" stroke="black" points="595.5,-478.5 595.5,-499.5 740.5,-499.5 740.5,-478.5 595.5,-478.5"/>
<text text-anchor="middle" x="668" y="-485.9" font-family="Helvetica,sans-Serif" font-size="12.00">dataDictUpdateCallback</text>
</a>
</g>
</g>
<!-- Node6&#45;&gt;Node12 -->
<g id="edge12" class="edge">
<title>Node6&#45;&gt;Node12</title>
<path fill="none" stroke="midnightblue" d="M515.4,-419.54C522.61,-422.06 529.66,-425.16 536,-429 556.46,-441.39 551.28,-457.06 572,-469 576.25,-471.45 580.76,-473.6 585.42,-475.49"/>
<polygon fill="midnightblue" stroke="midnightblue" points="584.55,-478.9 595.14,-479.01 586.93,-472.31 584.55,-478.9"/>
</g>
<!-- Node13 -->
<g id="node13" class="node">
<title>Node13</title>
<g id="a_node13"><a xlink:href="../../d7/d7e/_app_wren_8cpp.html#a75d6e46721275ddbf997cc4f93494982" target="_top" xlink:title="SvcDataDictionary exported method which can be called from within a Wren VM instance.">
<polygon fill="white" stroke="black" points="582.5,-438.5 582.5,-459.5 753.5,-459.5 753.5,-438.5 582.5,-438.5"/>
<text text-anchor="middle" x="668" y="-445.9" font-family="Helvetica,sans-Serif" font-size="12.00">dataDictUpdateFloatCallback</text>
</a>
</g>
</g>
<!-- Node6&#45;&gt;Node13 -->
<g id="edge13" class="edge">
<title>Node6&#45;&gt;Node13</title>
<path fill="none" stroke="midnightblue" d="M512.91,-419.51C540.28,-424.75 573.56,-431.12 602.18,-436.59"/>
<polygon fill="midnightblue" stroke="midnightblue" points="601.61,-440.05 612.09,-438.49 602.93,-433.17 601.61,-440.05"/>
</g>
<!-- Node14 -->
<g id="node14" class="node">
<title>Node14</title>
<g id="a_node14"><a xlink:href="../../d7/d7e/_app_wren_8cpp.html#ad76d44200b483213c78a903735937d55" target="_top" xlink:title="Get the Focus Callback object.AppWren exported method which can be called from within a Wren VM insta...">
<polygon fill="white" stroke="black" points="612.5,-398.5 612.5,-419.5 723.5,-419.5 723.5,-398.5 612.5,-398.5"/>
<text text-anchor="middle" x="668" y="-405.9" font-family="Helvetica,sans-Serif" font-size="12.00">getFocusCallback</text>
</a>
</g>
</g>
<!-- Node6&#45;&gt;Node14 -->
<g id="edge14" class="edge">
<title>Node6&#45;&gt;Node14</title>
<path fill="none" stroke="midnightblue" d="M516.77,-409C543.33,-409 574.78,-409 602.03,-409"/>
<polygon fill="midnightblue" stroke="midnightblue" points="602.25,-412.5 612.25,-409 602.25,-405.5 602.25,-412.5"/>
</g>
<!-- Node18 -->
<g id="node18" class="node">
<title>Node18</title>
<g id="a_node18"><a xlink:href="../../d7/d7e/_app_wren_8cpp.html#a25d25f1406cc969202b654e1b0ff5eec" target="_top" xlink:title="AppWren exported method which can be called from within a Wren VM instance.">
<polygon fill="white" stroke="black" points="599,-280.5 599,-301.5 737,-301.5 737,-280.5 599,-280.5"/>
<text text-anchor="middle" x="668" y="-287.9" font-family="Helvetica,sans-Serif" font-size="12.00">releasePopUpCallback</text>
</a>
</g>
</g>
<!-- Node6&#45;&gt;Node18 -->
<g id="edge18" class="edge">
<title>Node6&#45;&gt;Node18</title>
<path fill="none" stroke="midnightblue" d="M516.5,-400.03C523.53,-397.26 530.25,-393.67 536,-389 564.09,-366.2 543.98,-338.89 572,-316 577.24,-311.72 583.13,-308.17 589.35,-305.22"/>
<polygon fill="midnightblue" stroke="midnightblue" points="590.79,-308.41 598.66,-301.32 588.08,-301.96 590.79,-308.41"/>
</g>
<!-- Node21 -->
<g id="node21" class="node">
<title>Node21</title>
<g id="a_node21"><a xlink:href="../../d7/d7e/_app_wren_8cpp.html#a8156eadb16530b87de97824abd487921" target="_top" xlink:title="AppWren exported method which can be called from within a Wren VM instance.">
<polygon fill="white" stroke="black" points="599,-160.5 599,-181.5 737,-181.5 737,-160.5 599,-160.5"/>
<text text-anchor="middle" x="668" y="-167.9" font-family="Helvetica,sans-Serif" font-size="12.00">requestPopUpCallback</text>
</a>
</g>
</g>
<!-- Node6&#45;&gt;Node21 -->
<g id="edge22" class="edge">
<title>Node6&#45;&gt;Node21</title>
<path fill="none" stroke="midnightblue" d="M516.67,-401.94C523.93,-398.91 530.66,-394.73 536,-389 596.96,-323.55 509.63,-255.11 572,-191 576.9,-185.97 582.71,-182.04 589.02,-179"/>
<polygon fill="midnightblue" stroke="midnightblue" points="590.61,-182.13 598.57,-175.14 587.99,-175.64 590.61,-182.13"/>
</g>
<!-- Node24 -->
<g id="node24" class="node">
<title>Node24</title>
<g id="a_node24"><a xlink:href="../../d7/d7e/_app_wren_8cpp.html#a7d888714ebd3a2befec867833015d7f2" target="_top" xlink:title="AppWren exported method which can be called from within a Wren VM instance.">
<polygon fill="white" stroke="black" points="606,-358.5 606,-379.5 730,-379.5 730,-358.5 606,-358.5"/>
<text text-anchor="middle" x="668" y="-365.9" font-family="Helvetica,sans-Serif" font-size="12.00">returnFocusCallback</text>
</a>
</g>
</g>
<!-- Node6&#45;&gt;Node24 -->
<g id="edge26" class="edge">
<title>Node6&#45;&gt;Node24</title>
<path fill="none" stroke="midnightblue" d="M512.91,-398.49C540.28,-393.25 573.56,-386.88 602.18,-381.41"/>
<polygon fill="midnightblue" stroke="midnightblue" points="602.93,-384.83 612.09,-379.51 601.61,-377.95 602.93,-384.83"/>
</g>
<!-- Node27 -->
<g id="node27" class="node">
<title>Node27</title>
<g id="a_node27"><a xlink:href="../../d7/d7e/_app_wren_8cpp.html#a5a2a584aa9624610a07f621a52c2cd4c" target="_top" xlink:title="AppWren exported method which can be called from within a Wren VM instance.">
<polygon fill="white" stroke="black" points="599.5,-240.5 599.5,-261.5 736.5,-261.5 736.5,-240.5 599.5,-240.5"/>
<text text-anchor="middle" x="668" y="-247.9" font-family="Helvetica,sans-Serif" font-size="12.00">sendMessageCallback</text>
</a>
</g>
</g>
<!-- Node6&#45;&gt;Node27 -->
<g id="edge30" class="edge">
<title>Node6&#45;&gt;Node27</title>
<path fill="none" stroke="midnightblue" d="M516.86,-401.04C523.92,-398.12 530.54,-394.22 536,-389 575.64,-351.11 531.55,-308.02 572,-271 577.18,-266.26 583.19,-262.53 589.62,-259.62"/>
<polygon fill="midnightblue" stroke="midnightblue" points="591.22,-262.75 599.3,-255.89 588.71,-256.22 591.22,-262.75"/>
</g>
<!-- Node28 -->
<g id="node28" class="node">
<title>Node28</title>
<g id="a_node28"><a xlink:href="../../d7/d7e/_app_wren_8cpp.html#aef047c3a796bec18d6d761edee67f418" target="_top" xlink:title="Set the CPU Clock Speed Callback object.">
<polygon fill="white" stroke="black" points="596.5,-200.5 596.5,-221.5 739.5,-221.5 739.5,-200.5 596.5,-200.5"/>
<text text-anchor="middle" x="668" y="-207.9" font-family="Helvetica,sans-Serif" font-size="12.00">setClockSpeedCallback</text>
</a>
</g>
</g>
<!-- Node6&#45;&gt;Node28 -->
<g id="edge31" class="edge">
<title>Node6&#45;&gt;Node28</title>
<path fill="none" stroke="midnightblue" d="M516.83,-401.56C523.98,-398.58 530.64,-394.51 536,-389 586.24,-337.39 520.65,-281.5 572,-231 576.39,-226.68 581.46,-223.19 586.92,-220.38"/>
<polygon fill="midnightblue" stroke="midnightblue" points="588.66,-223.44 596.45,-216.25 585.88,-217.02 588.66,-223.44"/>
</g>
<!-- Node30 -->
<g id="node30" class="node">
<title>Node30</title>
<g id="a_node30"><a xlink:href="../../d7/d7e/_app_wren_8cpp.html#a1af842755d61bd4e87bf767b1a64116e" target="_top" xlink:title="Set the Dimension Callback object. AppWren exported method which can be called from within a Wren VM ...">
<polygon fill="white" stroke="black" points="601,-80.5 601,-101.5 735,-101.5 735,-80.5 601,-80.5"/>
<text text-anchor="middle" x="668" y="-87.9" font-family="Helvetica,sans-Serif" font-size="12.00">setDimensionCallback</text>
</a>
</g>
</g>
<!-- Node6&#45;&gt;Node30 -->
<g id="edge33" class="edge">
<title>Node6&#45;&gt;Node30</title>
<path fill="none" stroke="midnightblue" d="M516.55,-402.35C523.92,-399.27 530.72,-394.97 536,-389 618.55,-295.69 487.44,-202.49 572,-111 577.39,-105.17 584.01,-100.81 591.23,-97.57"/>
<polygon fill="midnightblue" stroke="midnightblue" points="592.51,-100.83 600.65,-94.05 590.06,-94.27 592.51,-100.83"/>
</g>
<!-- Node32 -->
<g id="node32" class="node">
<title>Node32</title>
<g id="a_node32"><a xlink:href="../../d7/d7e/_app_wren_8cpp.html#ab1db7563238658e013cce74318dcb63a" target="_top" xlink:title="Set the Pixel Callback object. AppWren exported method which can be called from within a Wren VM inst...">
<polygon fill="white" stroke="black" points="616,-120.5 616,-141.5 720,-141.5 720,-120.5 616,-120.5"/>
<text text-anchor="middle" x="668" y="-127.9" font-family="Helvetica,sans-Serif" font-size="12.00">setPixelCallback</text>
</a>
</g>
</g>
<!-- Node6&#45;&gt;Node32 -->
<g id="edge36" class="edge">
<title>Node6&#45;&gt;Node32</title>
<path fill="none" stroke="midnightblue" d="M516.82,-402.09C524.07,-399.03 530.75,-394.81 536,-389 607.74,-309.64 498.55,-228.79 572,-151 580.86,-141.62 592.91,-136.06 605.46,-132.88"/>
<polygon fill="midnightblue" stroke="midnightblue" points="606.48,-136.24 615.57,-130.8 605.07,-129.38 606.48,-136.24"/>
</g>
<!-- Node35 -->
<g id="node35" class="node">
<title>Node35</title>
<g id="a_node35"><a xlink:href="../../d7/d7e/_app_wren_8cpp.html#adf638e5457d5fe7abf8a52f9ab3476ab" target="_top" xlink:title="AppWren exported method which can be called from within a Wren VM instance.">
<polygon fill="white" stroke="black" points="607.5,-772.5 607.5,-793.5 728.5,-793.5 728.5,-772.5 607.5,-772.5"/>
<text text-anchor="middle" x="668" y="-779.9" font-family="Helvetica,sans-Serif" font-size="12.00">setPositionCallback</text>
</a>
</g>
</g>
<!-- Node6&#45;&gt;Node35 -->
<g id="edge39" class="edge">
<title>Node6&#45;&gt;Node35</title>
<path fill="none" stroke="midnightblue" d="M516.67,-415.55C524.02,-418.64 530.78,-422.98 536,-429 633.73,-541.88 471.84,-652.28 572,-763 578.87,-770.59 587.83,-775.71 597.5,-779.1"/>
<polygon fill="midnightblue" stroke="midnightblue" points="596.77,-782.53 607.35,-781.93 598.71,-775.8 596.77,-782.53"/>
</g>
<!-- Node37 -->
<g id="node37" class="node">
<title>Node37</title>
<g id="a_node37"><a xlink:href="../../d7/d7e/_app_wren_8cpp.html#a8b6665e4ce88da8beffe58df7644ce3f" target="_top" xlink:title="Set the Widget Dimension Callback object. AppWren exported method which can be called from within a W...">
<polygon fill="white" stroke="black" points="805,-318.5 805,-339.5 977,-339.5 977,-318.5 805,-318.5"/>
<text text-anchor="middle" x="891" y="-325.9" font-family="Helvetica,sans-Serif" font-size="12.00">setWidgetDimensionCallback</text>
</a>
</g>
</g>
<!-- Node6&#45;&gt;Node37 -->
<g id="edge42" class="edge">
<title>Node6&#45;&gt;Node37</title>
<path fill="none" stroke="midnightblue" d="M515.4,-398.46C522.61,-395.94 529.66,-392.84 536,-389 556.46,-376.61 550.47,-359.41 572,-349 645.54,-313.44 740.05,-312.25 806.87,-317.61"/>
<polygon fill="midnightblue" stroke="midnightblue" points="806.67,-321.11 816.93,-318.48 807.27,-314.13 806.67,-321.11"/>
</g>
<!-- Node38 -->
<g id="node38" class="node">
<title>Node38</title>
<g id="a_node38"><a xlink:href="../../d7/d7e/_app_wren_8cpp.html#a6fe5cd9f6d4f102b8f94385f4291222d" target="_top" xlink:title="Set the Widget Position Callback object. AppWren exported method which can be called from within a Wr...">
<polygon fill="white" stroke="black" points="589,-732.5 589,-753.5 747,-753.5 747,-732.5 589,-732.5"/>
<text text-anchor="middle" x="668" y="-739.9" font-family="Helvetica,sans-Serif" font-size="12.00">setWidgetPositionCallback</text>
</a>
</g>
</g>
<!-- Node6&#45;&gt;Node38 -->
<g id="edge44" class="edge">
<title>Node6&#45;&gt;Node38</title>
<path fill="none" stroke="midnightblue" d="M516.59,-415.61C523.96,-418.7 530.74,-423.01 536,-429 622.88,-527.9 482.99,-626.01 572,-723 574.47,-725.69 577.2,-728.07 580.13,-730.17"/>
<polygon fill="midnightblue" stroke="midnightblue" points="578.48,-733.26 588.87,-735.37 582.07,-727.25 578.48,-733.26"/>
</g>
<!-- Node15 -->
<g id="node15" class="node">
<title>Node15</title>
<g id="a_node15"><a xlink:href="../../d0/da0/class_app_wren.html#abfe45ee73ddb0f8d35c5e45342a5fe05" target="_top" xlink:title=" ">
<polygon fill="white" stroke="black" points="830.5,-398.5 830.5,-419.5 951.5,-419.5 951.5,-398.5 830.5,-398.5"/>
<text text-anchor="middle" x="891" y="-405.9" font-family="Helvetica,sans-Serif" font-size="12.00">AppWren::getFocus</text>
</a>
</g>
</g>
<!-- Node14&#45;&gt;Node15 -->
<g id="edge15" class="edge">
<title>Node14&#45;&gt;Node15</title>
<path fill="none" stroke="midnightblue" d="M723.63,-409C752.68,-409 788.73,-409 819.84,-409"/>
<polygon fill="midnightblue" stroke="midnightblue" points="820.18,-412.5 830.18,-409 820.18,-405.5 820.18,-412.5"/>
</g>
<!-- Node16 -->
<g id="node16" class="node">
<title>Node16</title>
<g id="a_node16"><a xlink:href="../../db/d69/class_app_base_class.html#afcd9194843e5eb3f6140e28cc3c9e8f9" target="_top" xlink:title=" ">
<polygon fill="white" stroke="black" points="1048.5,-393.5 1048.5,-414.5 1199.5,-414.5 1199.5,-393.5 1048.5,-393.5"/>
<text text-anchor="middle" x="1124" y="-400.9" font-family="Helvetica,sans-Serif" font-size="12.00">AppBaseClass::getFocus</text>
</a>
</g>
</g>
<!-- Node15&#45;&gt;Node16 -->
<g id="edge16" class="edge">
<title>Node15&#45;&gt;Node16</title>
<path fill="none" stroke="midnightblue" d="M951.79,-407.71C978.1,-407.14 1009.48,-406.46 1038.14,-405.84"/>
<polygon fill="midnightblue" stroke="midnightblue" points="1038.23,-409.34 1048.15,-405.62 1038.08,-402.34 1038.23,-409.34"/>
</g>
<!-- Node17 -->
<g id="node17" class="node">
<title>Node17</title>
<g id="a_node17"><a xlink:href="../../db/d69/class_app_base_class.html#a32e44666dd58b3cd733c8ac64957dce3" target="_top" xlink:title=" ">
<polygon fill="white" stroke="black" points="1266,-343.5 1266,-364.5 1454,-364.5 1454,-343.5 1266,-343.5"/>
<text text-anchor="middle" x="1360" y="-350.9" font-family="Helvetica,sans-Serif" font-size="12.00">AppBaseClass::_updatePosition</text>
</a>
</g>
</g>
<!-- Node16&#45;&gt;Node17 -->
<g id="edge17" class="edge">
<title>Node16&#45;&gt;Node17</title>
<path fill="none" stroke="midnightblue" d="M1174.34,-393.46C1210.9,-385.65 1260.88,-374.97 1299.63,-366.69"/>
<polygon fill="midnightblue" stroke="midnightblue" points="1300.68,-370.04 1309.73,-364.53 1299.22,-363.2 1300.68,-370.04"/>
</g>
<!-- Node19 -->
<g id="node19" class="node">
<title>Node19</title>
<g id="a_node19"><a xlink:href="../../d0/da0/class_app_wren.html#ab7a97ed3ad7b7b7ccd2a629448679e20" target="_top" xlink:title=" ">
<polygon fill="white" stroke="black" points="817,-278.5 817,-299.5 965,-299.5 965,-278.5 817,-278.5"/>
<text text-anchor="middle" x="891" y="-285.9" font-family="Helvetica,sans-Serif" font-size="12.00">AppWren::releasePopUp</text>
</a>
</g>
</g>
<!-- Node18&#45;&gt;Node19 -->
<g id="edge19" class="edge">
<title>Node18&#45;&gt;Node19</title>
<path fill="none" stroke="midnightblue" d="M737.11,-290.38C759.1,-290.18 783.72,-289.96 806.67,-289.75"/>
<polygon fill="midnightblue" stroke="midnightblue" points="806.77,-293.25 816.74,-289.66 806.71,-286.25 806.77,-293.25"/>
</g>
<!-- Node20 -->
<g id="node20" class="node">
<title>Node20</title>
<g id="a_node20"><a xlink:href="../../db/d69/class_app_base_class.html#a84d1a45250dacc61c7f3fd1c06547a3a" target="_top" xlink:title=" ">
<polygon fill="white" stroke="black" points="1035,-283.5 1035,-304.5 1213,-304.5 1213,-283.5 1035,-283.5"/>
<text text-anchor="middle" x="1124" y="-290.9" font-family="Helvetica,sans-Serif" font-size="12.00">AppBaseClass::releasePopUp</text>
</a>
</g>
</g>
<!-- Node19&#45;&gt;Node20 -->
<g id="edge20" class="edge">
<title>Node19&#45;&gt;Node20</title>
<path fill="none" stroke="midnightblue" d="M965.09,-290.58C983.97,-290.99 1004.61,-291.44 1024.56,-291.87"/>
<polygon fill="midnightblue" stroke="midnightblue" points="1024.52,-295.37 1034.6,-292.09 1024.68,-288.37 1024.52,-295.37"/>
</g>
<!-- Node20&#45;&gt;Node17 -->
<g id="edge21" class="edge">
<title>Node20&#45;&gt;Node17</title>
<path fill="none" stroke="midnightblue" d="M1166.03,-304.52C1205.59,-314.66 1265.56,-330.04 1308.13,-340.96"/>
<polygon fill="midnightblue" stroke="midnightblue" points="1307.46,-344.4 1318.02,-343.49 1309.2,-337.62 1307.46,-344.4"/>
</g>
<!-- Node22 -->
<g id="node22" class="node">
<title>Node22</title>
<g id="a_node22"><a xlink:href="../../d0/da0/class_app_wren.html#a8a02cff13a6da29a75d2070218902c26" target="_top" xlink:title=" ">
<polygon fill="white" stroke="black" points="817,-160.5 817,-181.5 965,-181.5 965,-160.5 817,-160.5"/>
<text text-anchor="middle" x="891" y="-167.9" font-family="Helvetica,sans-Serif" font-size="12.00">AppWren::requestPopUp</text>
</a>
</g>
</g>
<!-- Node21&#45;&gt;Node22 -->
<g id="edge23" class="edge">
<title>Node21&#45;&gt;Node22</title>
<path fill="none" stroke="midnightblue" d="M737.11,-171C759.1,-171 783.72,-171 806.67,-171"/>
<polygon fill="midnightblue" stroke="midnightblue" points="806.74,-174.5 816.74,-171 806.74,-167.5 806.74,-174.5"/>
</g>
<!-- Node23 -->
<g id="node23" class="node">
<title>Node23</title>
<g id="a_node23"><a xlink:href="../../db/d69/class_app_base_class.html#a5c284e20788663354eb4d8a862d3a91d" target="_top" xlink:title=" ">
<polygon fill="white" stroke="black" points="1035,-204.5 1035,-225.5 1213,-225.5 1213,-204.5 1035,-204.5"/>
<text text-anchor="middle" x="1124" y="-211.9" font-family="Helvetica,sans-Serif" font-size="12.00">AppBaseClass::requestPopUp</text>
</a>
</g>
</g>
<!-- Node22&#45;&gt;Node23 -->
<g id="edge24" class="edge">
<title>Node22&#45;&gt;Node23</title>
<path fill="none" stroke="midnightblue" d="M947.33,-181.54C980.5,-187.86 1022.84,-195.92 1057.65,-202.55"/>
<polygon fill="midnightblue" stroke="midnightblue" points="1057.24,-206.04 1067.72,-204.47 1058.55,-199.16 1057.24,-206.04"/>
</g>
<!-- Node23&#45;&gt;Node17 -->
<g id="edge25" class="edge">
<title>Node23&#45;&gt;Node17</title>
<path fill="none" stroke="midnightblue" d="M1144.5,-225.63C1165.69,-237.25 1200.47,-256.56 1230,-274 1266.54,-295.58 1308.14,-321.66 1333.99,-338.05"/>
<polygon fill="midnightblue" stroke="midnightblue" points="1332.12,-341.01 1342.44,-343.41 1335.88,-335.1 1332.12,-341.01"/>
</g>
<!-- Node25 -->
<g id="node25" class="node">
<title>Node25</title>
<g id="a_node25"><a xlink:href="../../d0/da0/class_app_wren.html#a514b3b6b2c8059bde367709b11bc55a8" target="_top" xlink:title=" ">
<polygon fill="white" stroke="black" points="800,-358.5 800,-379.5 982,-379.5 982,-358.5 800,-358.5"/>
<text text-anchor="middle" x="891" y="-365.9" font-family="Helvetica,sans-Serif" font-size="12.00">AppWren::setWidgetDimension</text>
</a>
</g>
</g>
<!-- Node24&#45;&gt;Node25 -->
<g id="edge27" class="edge">
<title>Node24&#45;&gt;Node25</title>
<path fill="none" stroke="midnightblue" d="M730.27,-369C748.63,-369 769.26,-369 789.46,-369"/>
<polygon fill="midnightblue" stroke="midnightblue" points="789.64,-372.5 799.64,-369 789.64,-365.5 789.64,-372.5"/>
</g>
<!-- Node26 -->
<g id="node26" class="node">
<title>Node26</title>
<g id="a_node26"><a xlink:href="../../db/d69/class_app_base_class.html#a801f8d24d3623f8d5e2d654b6b3b7d32" target="_top" xlink:title=" ">
<polygon fill="white" stroke="black" points="1018,-343.5 1018,-364.5 1230,-364.5 1230,-343.5 1018,-343.5"/>
<text text-anchor="middle" x="1124" y="-350.9" font-family="Helvetica,sans-Serif" font-size="12.00">AppBaseClass::setWidgetDimension</text>
</a>
</g>
</g>
<!-- Node25&#45;&gt;Node26 -->
<g id="edge28" class="edge">
<title>Node25&#45;&gt;Node26</title>
<path fill="none" stroke="midnightblue" d="M982.3,-363.14C990.67,-362.59 999.22,-362.04 1007.77,-361.48"/>
<polygon fill="midnightblue" stroke="midnightblue" points="1008.05,-364.97 1017.8,-360.83 1007.59,-357.99 1008.05,-364.97"/>
</g>
<!-- Node26&#45;&gt;Node17 -->
<g id="edge29" class="edge">
<title>Node26&#45;&gt;Node17</title>
<path fill="none" stroke="midnightblue" d="M1230.02,-354C1238.49,-354 1247.04,-354 1255.49,-354"/>
<polygon fill="midnightblue" stroke="midnightblue" points="1255.74,-357.5 1265.74,-354 1255.74,-350.5 1255.74,-357.5"/>
</g>
<!-- Node29 -->
<g id="node29" class="node">
<title>Node29</title>
<g id="a_node29"><a xlink:href="../../d7/d7e/_app_wren_8cpp.html#a01f554db1c07c31f60f5167060279699" target="_top" xlink:title=" ">
<polygon fill="white" stroke="black" points="844.5,-200.5 844.5,-221.5 937.5,-221.5 937.5,-200.5 844.5,-200.5"/>
<text text-anchor="middle" x="891" y="-207.9" font-family="Helvetica,sans-Serif" font-size="12.00">set_arm_clock</text>
</a>
</g>
</g>
<!-- Node28&#45;&gt;Node29 -->
<g id="edge32" class="edge">
<title>Node28&#45;&gt;Node29</title>
<path fill="none" stroke="midnightblue" d="M739.53,-211C770.14,-211 805.46,-211 834.19,-211"/>
<polygon fill="midnightblue" stroke="midnightblue" points="834.46,-214.5 844.46,-211 834.46,-207.5 834.46,-214.5"/>
</g>
<!-- Node31 -->
<g id="node31" class="node">
<title>Node31</title>
<g id="a_node31"><a xlink:href="../../db/d69/class_app_base_class.html#ae48421c05ab38a72f27c1face4bb50c4" target="_top" xlink:title=" ">
<polygon fill="white" stroke="black" points="1037,-80.5 1037,-101.5 1211,-101.5 1211,-80.5 1037,-80.5"/>
<text text-anchor="middle" x="1124" y="-87.9" font-family="Helvetica,sans-Serif" font-size="12.00">AppBaseClass::setDimension</text>
</a>
</g>
</g>
<!-- Node30&#45;&gt;Node31 -->
<g id="edge34" class="edge">
<title>Node30&#45;&gt;Node31</title>
<path fill="none" stroke="midnightblue" d="M735.02,-91C811.66,-91 938.76,-91 1026.48,-91"/>
<polygon fill="midnightblue" stroke="midnightblue" points="1026.71,-94.5 1036.71,-91 1026.71,-87.5 1026.71,-94.5"/>
</g>
<!-- Node31&#45;&gt;Node17 -->
<g id="edge35" class="edge">
<title>Node31&#45;&gt;Node17</title>
<path fill="none" stroke="midnightblue" d="M1211.14,-100.6C1217.86,-103.34 1224.25,-106.76 1230,-111 1307.4,-168.09 1342.85,-285.71 1354.46,-333.32"/>
<polygon fill="midnightblue" stroke="midnightblue" points="1351.12,-334.41 1356.8,-343.35 1357.93,-332.82 1351.12,-334.41"/>
</g>
<!-- Node33 -->
<g id="node33" class="node">
<title>Node33</title>
<g id="a_node33"><a xlink:href="../../d0/da0/class_app_wren.html#acd797662d50ea1d4dc11eff65cd5ab18" target="_top" xlink:title=" ">
<polygon fill="white" stroke="black" points="834.5,-120.5 834.5,-141.5 947.5,-141.5 947.5,-120.5 834.5,-120.5"/>
<text text-anchor="middle" x="891" y="-127.9" font-family="Helvetica,sans-Serif" font-size="12.00">AppWren::setPixel</text>
</a>
</g>
</g>
<!-- Node32&#45;&gt;Node33 -->
<g id="edge37" class="edge">
<title>Node32&#45;&gt;Node33</title>
<path fill="none" stroke="midnightblue" d="M720.26,-131C751.23,-131 791.01,-131 824.28,-131"/>
<polygon fill="midnightblue" stroke="midnightblue" points="824.38,-134.5 834.38,-131 824.38,-127.5 824.38,-134.5"/>
</g>
<!-- Node34 -->
<g id="node34" class="node">
<title>Node34</title>
<g id="a_node34"><a xlink:href="../../d8/d5a/class_i_l_i9341__t3___e_r_i_s.html#a7772be6101e046acc585a7c8610cabdb" target="_top" xlink:title=" ">
<polygon fill="white" stroke="black" points="1043,-120.5 1043,-141.5 1205,-141.5 1205,-120.5 1043,-120.5"/>
<text text-anchor="middle" x="1124" y="-127.9" font-family="Helvetica,sans-Serif" font-size="12.00">ILI9341_t3_ERIS::drawPixel</text>
</a>
</g>
</g>
<!-- Node33&#45;&gt;Node34 -->
<g id="edge38" class="edge">
<title>Node33&#45;&gt;Node34</title>
<path fill="none" stroke="midnightblue" d="M947.62,-131C973.18,-131 1004.14,-131 1032.9,-131"/>
<polygon fill="midnightblue" stroke="midnightblue" points="1032.96,-134.5 1042.96,-131 1032.96,-127.5 1032.96,-134.5"/>
</g>
<!-- Node36 -->
<g id="node36" class="node">
<title>Node36</title>
<g id="a_node36"><a xlink:href="../../db/d69/class_app_base_class.html#aa9f84b5a03adc7115a476219022e12b5" target="_top" xlink:title=" ">
<polygon fill="white" stroke="black" points="1043.5,-626.5 1043.5,-647.5 1204.5,-647.5 1204.5,-626.5 1043.5,-626.5"/>
<text text-anchor="middle" x="1124" y="-633.9" font-family="Helvetica,sans-Serif" font-size="12.00">AppBaseClass::setPosition</text>
</a>
</g>
</g>
<!-- Node35&#45;&gt;Node36 -->
<g id="edge40" class="edge">
<title>Node35&#45;&gt;Node36</title>
<path fill="none" stroke="midnightblue" d="M725.05,-772.46C737.93,-769.69 751.5,-766.49 764,-763 884.47,-729.33 1023.15,-676.53 1087.18,-651.32"/>
<polygon fill="midnightblue" stroke="midnightblue" points="1088.79,-654.45 1096.8,-647.52 1086.22,-647.94 1088.79,-654.45"/>
</g>
<!-- Node36&#45;&gt;Node17 -->
<g id="edge41" class="edge">
<title>Node36&#45;&gt;Node17</title>
<path fill="none" stroke="midnightblue" d="M1138.52,-626.49C1159.46,-609.86 1200.39,-575.87 1230,-542 1279.53,-485.34 1326.64,-409.15 1347.61,-373.68"/>
<polygon fill="midnightblue" stroke="midnightblue" points="1350.77,-375.21 1352.81,-364.81 1344.73,-371.67 1350.77,-375.21"/>
</g>
<!-- Node37&#45;&gt;Node26 -->
<g id="edge43" class="edge">
<title>Node37&#45;&gt;Node26</title>
<path fill="none" stroke="midnightblue" d="M977.03,-338.2C989.52,-339.55 1002.51,-340.96 1015.38,-342.35"/>
<polygon fill="midnightblue" stroke="midnightblue" points="1015.34,-345.87 1025.66,-343.47 1016.09,-338.91 1015.34,-345.87"/>
</g>
<!-- Node39 -->
<g id="node39" class="node">
<title>Node39</title>
<g id="a_node39"><a xlink:href="../../db/d69/class_app_base_class.html#a02b03e7f3c8034d8b52991d7c7a82f28" target="_top" xlink:title=" ">
<polygon fill="white" stroke="black" points="1025,-511.5 1025,-532.5 1223,-532.5 1223,-511.5 1025,-511.5"/>
<text text-anchor="middle" x="1124" y="-518.9" font-family="Helvetica,sans-Serif" font-size="12.00">AppBaseClass::setWidgetPosition</text>
</a>
</g>
</g>
<!-- Node38&#45;&gt;Node39 -->
<g id="edge45" class="edge">
<title>Node38&#45;&gt;Node39</title>
<path fill="none" stroke="midnightblue" d="M741.09,-732.38C749.06,-729.88 756.86,-726.8 764,-723 783.7,-712.51 781.88,-701.02 800,-688 895.99,-619.03 1024.61,-562.05 1086.59,-536.49"/>
<polygon fill="midnightblue" stroke="midnightblue" points="1088.02,-539.69 1095.95,-532.66 1085.37,-533.21 1088.02,-539.69"/>
</g>
<!-- Node39&#45;&gt;Node17 -->
<g id="edge46" class="edge">
<title>Node39&#45;&gt;Node17</title>
<path fill="none" stroke="midnightblue" d="M1139.64,-511.49C1179.2,-483.09 1288.48,-404.63 1336.2,-370.37"/>
<polygon fill="midnightblue" stroke="midnightblue" points="1338.29,-373.18 1344.37,-364.51 1334.2,-367.49 1338.29,-373.18"/>
</g>
<!-- Node42 -->
<g id="node42" class="node">
<title>Node42</title>
<g id="a_node42"><a xlink:href="../../d7/d7e/_app_wren_8cpp.html#a2469bc30d12bb4b85e4a318a873ec7be" target="_top" xlink:title="Get the Source For Module object requested by the Wren VM.">
<polygon fill="white" stroke="black" points="604.5,-40.5 604.5,-61.5 731.5,-61.5 731.5,-40.5 604.5,-40.5"/>
<text text-anchor="middle" x="668" y="-47.9" font-family="Helvetica,sans-Serif" font-size="12.00">getSourceForModule</text>
</a>
</g>
</g>
<!-- Node41&#45;&gt;Node42 -->
<g id="edge49" class="edge">
<title>Node41&#45;&gt;Node42</title>
<path fill="none" stroke="midnightblue" d="M495.85,-51C523.25,-51 561.13,-51 594.3,-51"/>
<polygon fill="midnightblue" stroke="midnightblue" points="594.42,-54.5 604.42,-51 594.42,-47.5 594.42,-54.5"/>
</g>
<!-- Node43 -->
<g id="node43" class="node">
<title>Node43</title>
<g id="a_node43"><a xlink:href="../../d7/d7e/_app_wren_8cpp.html#a085afb683548c1082208ee513452dd24" target="_top" xlink:title="callback function for the VM to indicate to the system that it&#39;s ok to release any memory allocated d...">
<polygon fill="white" stroke="black" points="604,-0.5 604,-21.5 732,-21.5 732,-0.5 604,-0.5"/>
<text text-anchor="middle" x="668" y="-7.9" font-family="Helvetica,sans-Serif" font-size="12.00">loadModuleComplete</text>
</a>
</g>
</g>
<!-- Node41&#45;&gt;Node43 -->
<g id="edge50" class="edge">
<title>Node41&#45;&gt;Node43</title>
<path fill="none" stroke="midnightblue" d="M495.85,-43.76C525.4,-38.1 567.15,-30.11 602.02,-23.44"/>
<polygon fill="midnightblue" stroke="midnightblue" points="602.96,-26.82 612.13,-21.5 601.65,-19.94 602.96,-26.82"/>
</g>
</g>
</svg>
        <g id="navigator" transform="translate(0 0)" fill="#404254">
                <rect fill="#f2f5e9" fill-opacity="0.5" stroke="#606060" stroke-width=".5" x="0" y="0" width="60" height="60"/>
                <use id="zoomplus" xlink:href="#zoomPlus" x="17" y="9" onmousedown="handleZoom(evt,'in')"/>
                <use id="zoomminus" xlink:href="#zoomMin" x="42" y="9" onmousedown="handleZoom(evt,'out')"/>
                <use id="reset" xlink:href="#resetDef" x="30" y="36" onmousedown="handleReset()"/>
                <g id="arrowUp" xlink:href="#dirArrow" transform="translate(30 24)" onmousedown="handlePan(0,-1)">
                  <use xlink:href="#rim" fill="#404040">
                        <set attributeName="fill" to="#808080" begin="arrowUp.mouseover" end="arrowUp.mouseout"/>
                  </use>
                  <path fill="none" stroke="white" stroke-width="1.5" d="M0,-3.0v7 M-2.5,-0.5L0,-3.0L2.5,-0.5"/>
                </g>
                <g id="arrowRight" xlink:href="#dirArrow" transform="rotate(90) translate(36 -43)" onmousedown="handlePan(1,0)">
                  <use xlink:href="#rim" fill="#404040">
                        <set attributeName="fill" to="#808080" begin="arrowRight.mouseover" end="arrowRight.mouseout"/>
                  </use>
                  <path fill="none" stroke="white" stroke-width="1.5" d="M0,-3.0v7 M-2.5,-0.5L0,-3.0L2.5,-0.5"/>
                </g>
                <g id="arrowDown" xlink:href="#dirArrow" transform="rotate(180) translate(-30 -48)" onmousedown="handlePan(0,1)">
                  <use xlink:href="#rim" fill="#404040">
                        <set attributeName="fill" to="#808080" begin="arrowDown.mouseover" end="arrowDown.mouseout"/>
                  </use>
                  <path fill="none" stroke="white" stroke-width="1.5" d="M0,-3.0v7 M-2.5,-0.5L0,-3.0L2.5,-0.5"/>
                </g>
                <g id="arrowLeft" xlink:href="#dirArrow" transform="rotate(270) translate(-36 17)" onmousedown="handlePan(-1,0)">
                  <use xlink:href="#rim" fill="#404040">
                        <set attributeName="fill" to="#808080" begin="arrowLeft.mouseover" end="arrowLeft.mouseout"/>
                  </use>
                  <path fill="none" stroke="white" stroke-width="1.5" d="M0,-3.0v7 M-2.5,-0.5L0,-3.0L2.5,-0.5"/>
                </g>
        </g>
        <svg viewBox="0 0 15 15" width="100%" height="30px" preserveAspectRatio="xMaxYMin meet">
         <g id="arrow_out" transform="scale(0.3 0.3)">
          <a xlink:href="class_app_wren_ab96749e0e63c43368cc7121477d472a4_cgraph_org.svg" target="_base">
           <rect id="button" ry="5" rx="5" y="6" x="6" height="38" width="38"
                fill="#f2f5e9" fill-opacity="0.5" stroke="#606060" stroke-width="1.0"/>
           <path id="arrow"
             d="M 11.500037,31.436501 C 11.940474,20.09759 22.043105,11.32322 32.158766,21.979434 L 37.068811,17.246167 C 37.068811,17.246167 37.088388,32 37.088388,32 L 22.160133,31.978069 C 22.160133,31.978069 26.997745,27.140456 26.997745,27.140456 C 18.528582,18.264221 13.291696,25.230495 11.500037,31.436501 z"
             style="fill:#404040;"/>
          </a>
         </g>
        </svg>
</svg>
