<?xml version="1.0" encoding="UTF-8" standalone="no"?>
<!DOCTYPE svg PUBLIC "-//W3C//DTD SVG 1.1//EN"
 "http://www.w3.org/Graphics/SVG/1.1/DTD/svg11.dtd">
<!-- Generated by graphviz version 2.47.3 (20210619.1520)
 -->
<!-- Title: AppWren::bltSD2Surface Pages: 1 -->
<svg width="907pt" height="209pt"
 viewBox="0.00 0.00 907.00 209.00" xmlns="http://www.w3.org/2000/svg" xmlns:xlink="http://www.w3.org/1999/xlink">
<g id="graph0" class="graph" transform="scale(1 1) rotate(0) translate(4 205)">
<title>AppWren::bltSD2Surface</title>
<!-- Node1 -->
<g id="node1" class="node">
<title>Node1</title>
<g id="a_node1"><a xlink:title="block tramsfer from SD to surface">
<polygon fill="#bfbfbf" stroke="black" points="0,-86.5 0,-114.5 220,-114.5 220,-86.5 0,-86.5"/>
<text text-anchor="middle" x="110" y="-96.1" font-family="Helvetica,sans-Serif" font-size="18.00">AppWren::bltSD2Surface</text>
</a>
</g>
</g>
<!-- Node2 -->
<g id="node2" class="node">
<title>Node2</title>
<g id="a_node2"><a xlink:href="../../d8/d5a/class_i_l_i9341__t3___e_r_i_s_aafadc45c6fd67bd3811bfe9138bf0dd7.html#aafadc45c6fd67bd3811bfe9138bf0dd7" target="_top" xlink:title=" ">
<polygon fill="none" stroke="black" points="298.5,-172.5 298.5,-200.5 516.5,-200.5 516.5,-172.5 298.5,-172.5"/>
<text text-anchor="middle" x="407.5" y="-182.1" font-family="Helvetica,sans-Serif" font-size="18.00">ILI9341_t3_ERIS::bltSDB</text>
</a>
</g>
</g>
<!-- Node1&#45;&gt;Node2 -->
<g id="edge1" class="edge">
<title>Node1&#45;&gt;Node2</title>
<path fill="none" stroke="midnightblue" d="M141.82,-114.54C170.78,-127.26 215.61,-145.78 256,-157.5 273.03,-162.44 291.4,-166.78 309.25,-170.49"/>
<polygon fill="midnightblue" stroke="midnightblue" points="308.61,-173.93 319.1,-172.48 310,-167.07 308.61,-173.93"/>
</g>
<!-- Node3 -->
<g id="node3" class="node">
<title>Node3</title>
<g id="a_node3"><a xlink:href="../../d0/da0/class_app_wren_a743e89bcfef0064cc5aaae3863ba2ac3.html#a743e89bcfef0064cc5aaae3863ba2ac3" target="_top" xlink:title="responsible for managing the surface buffer memory allocation">
<polygon fill="none" stroke="black" points="256,-86.5 256,-114.5 559,-114.5 559,-86.5 256,-86.5"/>
<text text-anchor="middle" x="407.5" y="-96.1" font-family="Helvetica,sans-Serif" font-size="18.00">AppWren::dynamicSurfaceManager</text>
</a>
</g>
</g>
<!-- Node1&#45;&gt;Node3 -->
<g id="edge2" class="edge">
<title>Node1&#45;&gt;Node3</title>
<path fill="none" stroke="midnightblue" d="M220.19,-100.5C228.58,-100.5 237.15,-100.5 245.78,-100.5"/>
<polygon fill="midnightblue" stroke="midnightblue" points="245.93,-104 255.93,-100.5 245.93,-97 245.93,-104"/>
</g>
<!-- Node5 -->
<g id="node5" class="node">
<title>Node5</title>
<g id="a_node5"><a xlink:href="../../d1/d1a/class_surface_a552bec1e25c262bbd74eafdea43dc438.html#a552bec1e25c262bbd74eafdea43dc438" target="_top" xlink:title=" ">
<polygon fill="none" stroke="black" points="663.5,-133.5 663.5,-161.5 830.5,-161.5 830.5,-133.5 663.5,-133.5"/>
<text text-anchor="middle" x="747" y="-143.1" font-family="Helvetica,sans-Serif" font-size="18.00">Surface::getHeight</text>
</a>
</g>
</g>
<!-- Node1&#45;&gt;Node5 -->
<g id="edge6" class="edge">
<title>Node1&#45;&gt;Node5</title>
<path fill="none" stroke="midnightblue" d="M189.44,-114.53C210.95,-117.95 234.32,-121.26 256,-123.5 393.87,-137.77 554.47,-143.59 653.19,-145.95"/>
<polygon fill="midnightblue" stroke="midnightblue" points="653.35,-149.45 663.43,-146.18 653.51,-142.45 653.35,-149.45"/>
</g>
<!-- Node6 -->
<g id="node6" class="node">
<title>Node6</title>
<g id="a_node6"><a xlink:href="../../d1/d1a/class_surface_a5c2bec03132b83f9a030a64c643ca256.html#a5c2bec03132b83f9a030a64c643ca256" target="_top" xlink:title=" ">
<polygon fill="none" stroke="black" points="666,-39.5 666,-67.5 828,-67.5 828,-39.5 666,-39.5"/>
<text text-anchor="middle" x="747" y="-49.1" font-family="Helvetica,sans-Serif" font-size="18.00">Surface::getWidth</text>
</a>
</g>
</g>
<!-- Node1&#45;&gt;Node6 -->
<g id="edge8" class="edge">
<title>Node1&#45;&gt;Node6</title>
<path fill="none" stroke="midnightblue" d="M185.28,-86.49C207.91,-82.68 232.91,-78.94 256,-76.5 394.85,-61.8 556.82,-56.5 655.35,-54.58"/>
<polygon fill="midnightblue" stroke="midnightblue" points="655.64,-58.08 665.57,-54.39 655.51,-51.08 655.64,-58.08"/>
</g>
<!-- Node7 -->
<g id="node7" class="node">
<title>Node7</title>
<g id="a_node7"><a xlink:href="../../d1/d1a/class_surface_a5d3958cf977d83b61cf670385d2b21e9.html#a5d3958cf977d83b61cf670385d2b21e9" target="_top" xlink:title=" ">
<polygon fill="none" stroke="black" points="288.5,-0.5 288.5,-28.5 526.5,-28.5 526.5,-0.5 288.5,-0.5"/>
<text text-anchor="middle" x="407.5" y="-10.1" font-family="Helvetica,sans-Serif" font-size="18.00">Surface::getSurfaceBufferP</text>
</a>
</g>
</g>
<!-- Node1&#45;&gt;Node7 -->
<g id="edge7" class="edge">
<title>Node1&#45;&gt;Node7</title>
<path fill="none" stroke="midnightblue" d="M141.82,-86.46C170.78,-73.74 215.61,-55.22 256,-43.5 273.03,-38.56 291.4,-34.22 309.25,-30.51"/>
<polygon fill="midnightblue" stroke="midnightblue" points="310,-33.93 319.1,-28.52 308.61,-27.07 310,-33.93"/>
</g>
<!-- Node4 -->
<g id="node4" class="node">
<title>Node4</title>
<g id="a_node4"><a xlink:href="../../d8/d5a/class_i_l_i9341__t3___e_r_i_s_aac6bfeafd4e3753f4e8dc2af3a5d0afd.html#aac6bfeafd4e3753f4e8dc2af3a5d0afd" target="_top" xlink:title=" ">
<polygon fill="none" stroke="black" points="595,-86.5 595,-114.5 899,-114.5 899,-86.5 595,-86.5"/>
<text text-anchor="middle" x="747" y="-96.1" font-family="Helvetica,sans-Serif" font-size="18.00">ILI9341_t3_ERIS::getFrameAddress</text>
</a>
</g>
</g>
<!-- Node3&#45;&gt;Node4 -->
<g id="edge3" class="edge">
<title>Node3&#45;&gt;Node4</title>
<path fill="none" stroke="midnightblue" d="M559.48,-100.5C567.84,-100.5 576.26,-100.5 584.65,-100.5"/>
<polygon fill="midnightblue" stroke="midnightblue" points="584.88,-104 594.88,-100.5 584.88,-97 584.88,-104"/>
</g>
<!-- Node3&#45;&gt;Node5 -->
<g id="edge4" class="edge">
<title>Node3&#45;&gt;Node5</title>
<path fill="none" stroke="midnightblue" d="M509.3,-114.54C554.99,-120.9 608.65,-128.37 653.32,-134.59"/>
<polygon fill="midnightblue" stroke="midnightblue" points="652.91,-138.07 663.3,-135.98 653.88,-131.14 652.91,-138.07"/>
</g>
<!-- Node3&#45;&gt;Node6 -->
<g id="edge5" class="edge">
<title>Node3&#45;&gt;Node6</title>
<path fill="none" stroke="midnightblue" d="M509.3,-86.46C555.8,-79.99 610.57,-72.36 655.7,-66.08"/>
<polygon fill="midnightblue" stroke="midnightblue" points="656.34,-69.52 665.77,-64.67 655.38,-62.59 656.34,-69.52"/>
</g>
</g>
</svg>
