<?xml version="1.0" encoding="UTF-8" standalone="no"?>
<!DOCTYPE svg PUBLIC "-//W3C//DTD SVG 1.1//EN"
 "http://www.w3.org/Graphics/SVG/1.1/DTD/svg11.dtd">
<!-- Generated by graphviz version 2.47.3 (20210619.1520)
 -->
<!-- Title: AppWren::releaseWrenHandles Pages: 1 -->
<svg width="1045pt" height="546pt"
 viewBox="0.00 0.00 1045.00 546.00" xmlns="http://www.w3.org/2000/svg" xmlns:xlink="http://www.w3.org/1999/xlink">
<g id="graph0" class="graph" transform="scale(1 1) rotate(0) translate(4 542)">
<title>AppWren::releaseWrenHandles</title>
<!-- Node1 -->
<g id="node1" class="node">
<title>Node1</title>
<g id="a_node1"><a xlink:title="release any/all Wren embedded call handles">
<polygon fill="#bfbfbf" stroke="black" points="765,-250.5 765,-278.5 1037,-278.5 1037,-250.5 765,-250.5"/>
<text text-anchor="middle" x="901" y="-260.1" font-family="Helvetica,sans-Serif" font-size="18.00">AppWren::releaseWrenHandles</text>
</a>
</g>
</g>
<!-- Node2 -->
<g id="node2" class="node">
<title>Node2</title>
<g id="a_node2"><a xlink:href="../../d0/da0/class_app_wren_aaa3a40fc5215f17f4f45ae64075df202.html#aaa3a40fc5215f17f4f45ae64075df202" target="_top" xlink:title="class specific onAnalog1 implementation">
<polygon fill="none" stroke="black" points="515,-509.5 515,-537.5 704,-537.5 704,-509.5 515,-509.5"/>
<text text-anchor="middle" x="609.5" y="-519.1" font-family="Helvetica,sans-Serif" font-size="18.00">AppWren::onAnalog1</text>
</a>
</g>
</g>
<!-- Node1&#45;&gt;Node2 -->
<g id="edge1" class="edge">
<title>Node1&#45;&gt;Node2</title>
<path fill="none" stroke="midnightblue" d="M890.17,-288.14C868.73,-336.58 812.83,-447.03 729,-500.5 721.31,-505.4 712.82,-509.3 704.01,-512.4"/>
<polygon fill="midnightblue" stroke="midnightblue" points="893.46,-289.36 894.22,-278.79 887.04,-286.57 893.46,-289.36"/>
</g>
<!-- Node3 -->
<g id="node3" class="node">
<title>Node3</title>
<g id="a_node3"><a xlink:href="../../d0/da0/class_app_wren_a6397b3b8da2519d07e68cf11eebee6ab.html#a6397b3b8da2519d07e68cf11eebee6ab" target="_top" xlink:title="class specific onAnalog2 implementation">
<polygon fill="none" stroke="black" points="515,-462.5 515,-490.5 704,-490.5 704,-462.5 515,-462.5"/>
<text text-anchor="middle" x="609.5" y="-472.1" font-family="Helvetica,sans-Serif" font-size="18.00">AppWren::onAnalog2</text>
</a>
</g>
</g>
<!-- Node1&#45;&gt;Node3 -->
<g id="edge2" class="edge">
<title>Node1&#45;&gt;Node3</title>
<path fill="none" stroke="midnightblue" d="M886.44,-287.35C861.07,-327.93 802.3,-412.16 729,-453.5 721.24,-457.88 712.79,-461.43 704.1,-464.32"/>
<polygon fill="midnightblue" stroke="midnightblue" points="889.5,-289.06 891.75,-278.71 883.53,-285.4 889.5,-289.06"/>
</g>
<!-- Node4 -->
<g id="node4" class="node">
<title>Node4</title>
<g id="a_node4"><a xlink:href="../../d0/da0/class_app_wren_a20af5fe83e8ae9f14c32d78027b739e1.html#a20af5fe83e8ae9f14c32d78027b739e1" target="_top" xlink:title="class specific onAnalog3 implementation">
<polygon fill="none" stroke="black" points="515,-415.5 515,-443.5 704,-443.5 704,-415.5 515,-415.5"/>
<text text-anchor="middle" x="609.5" y="-425.1" font-family="Helvetica,sans-Serif" font-size="18.00">AppWren::onAnalog3</text>
</a>
</g>
</g>
<!-- Node1&#45;&gt;Node4 -->
<g id="edge3" class="edge">
<title>Node1&#45;&gt;Node4</title>
<path fill="none" stroke="midnightblue" d="M880.67,-286.39C851.26,-318.2 792.01,-376.65 729,-406.5 721.14,-410.22 712.71,-413.34 704.11,-415.96"/>
<polygon fill="midnightblue" stroke="midnightblue" points="883.34,-288.66 887.49,-278.91 878.16,-283.94 883.34,-288.66"/>
</g>
<!-- Node5 -->
<g id="node5" class="node">
<title>Node5</title>
<g id="a_node5"><a xlink:href="../../d0/da0/class_app_wren_a883b94a1e3750e6b6510a397d9d8e70c.html#a883b94a1e3750e6b6510a397d9d8e70c" target="_top" xlink:title="class specific onAnalog4 implementation">
<polygon fill="none" stroke="black" points="515,-368.5 515,-396.5 704,-396.5 704,-368.5 515,-368.5"/>
<text text-anchor="middle" x="609.5" y="-378.1" font-family="Helvetica,sans-Serif" font-size="18.00">AppWren::onAnalog4</text>
</a>
</g>
</g>
<!-- Node1&#45;&gt;Node5 -->
<g id="edge4" class="edge">
<title>Node1&#45;&gt;Node5</title>
<path fill="none" stroke="midnightblue" d="M871.04,-284.35C838.08,-306.03 781.94,-340.21 729,-359.5 719.55,-362.94 709.48,-365.9 699.35,-368.44"/>
<polygon fill="midnightblue" stroke="midnightblue" points="873.31,-287.04 879.7,-278.59 869.43,-281.22 873.31,-287.04"/>
</g>
<!-- Node6 -->
<g id="node6" class="node">
<title>Node6</title>
<g id="a_node6"><a xlink:href="../../d0/da0/class_app_wren_a7bec828c82063c60320b34b395dd72b8.html#a7bec828c82063c60320b34b395dd72b8" target="_top" xlink:title="class specific OnFocus implementation">
<polygon fill="none" stroke="black" points="523,-321.5 523,-349.5 696,-349.5 696,-321.5 523,-321.5"/>
<text text-anchor="middle" x="609.5" y="-331.1" font-family="Helvetica,sans-Serif" font-size="18.00">AppWren::onFocus</text>
</a>
</g>
</g>
<!-- Node1&#45;&gt;Node6 -->
<g id="edge5" class="edge">
<title>Node1&#45;&gt;Node6</title>
<path fill="none" stroke="midnightblue" d="M843.84,-281.52C810.61,-291.27 767.61,-303.35 729,-312.5 715.75,-315.64 701.58,-318.67 687.83,-321.44"/>
<polygon fill="midnightblue" stroke="midnightblue" points="845.22,-284.76 853.82,-278.57 843.24,-278.05 845.22,-284.76"/>
</g>
<!-- Node7 -->
<g id="node7" class="node">
<title>Node7</title>
<g id="a_node7"><a xlink:href="../../d0/da0/class_app_wren_afb00a81c98cd0123992f95bec6e280e5.html#afb00a81c98cd0123992f95bec6e280e5" target="_top" xlink:title="class specific onFocusLost implementation">
<polygon fill="none" stroke="black" points="506.5,-274.5 506.5,-302.5 712.5,-302.5 712.5,-274.5 506.5,-274.5"/>
<text text-anchor="middle" x="609.5" y="-284.1" font-family="Helvetica,sans-Serif" font-size="18.00">AppWren::onFocusLost</text>
</a>
</g>
</g>
<!-- Node1&#45;&gt;Node7 -->
<g id="edge6" class="edge">
<title>Node1&#45;&gt;Node7</title>
<path fill="none" stroke="midnightblue" d="M754.7,-276.55C740.56,-277.72 726.42,-278.89 712.83,-280.02"/>
<polygon fill="midnightblue" stroke="midnightblue" points="755.32,-280.01 765,-275.69 754.74,-273.03 755.32,-280.01"/>
</g>
<!-- Node8 -->
<g id="node8" class="node">
<title>Node8</title>
<g id="a_node8"><a xlink:href="../../d0/da0/class_app_wren_a99464400376dff63908bd4157b710363.html#a99464400376dff63908bd4157b710363" target="_top" xlink:title="class specific onTouch implementation">
<polygon fill="none" stroke="black" points="523,-227.5 523,-255.5 696,-255.5 696,-227.5 523,-227.5"/>
<text text-anchor="middle" x="609.5" y="-237.1" font-family="Helvetica,sans-Serif" font-size="18.00">AppWren::onTouch</text>
</a>
</g>
</g>
<!-- Node1&#45;&gt;Node8 -->
<g id="edge7" class="edge">
<title>Node1&#45;&gt;Node8</title>
<path fill="none" stroke="midnightblue" d="M754.82,-252.97C734.73,-251.37 714.65,-249.77 696.13,-248.3"/>
<polygon fill="midnightblue" stroke="midnightblue" points="754.75,-256.47 765,-253.77 755.31,-249.49 754.75,-256.47"/>
</g>
<!-- Node9 -->
<g id="node9" class="node">
<title>Node9</title>
<g id="a_node9"><a xlink:href="../../d0/da0/class_app_wren_ab87659bde90d678b995ff8c7f1ee042f.html#ab87659bde90d678b995ff8c7f1ee042f" target="_top" xlink:title="class specific onTouchDrag implementation">
<polygon fill="none" stroke="black" points="503.5,-180.5 503.5,-208.5 715.5,-208.5 715.5,-180.5 503.5,-180.5"/>
<text text-anchor="middle" x="609.5" y="-190.1" font-family="Helvetica,sans-Serif" font-size="18.00">AppWren::onTouchDrag</text>
</a>
</g>
</g>
<!-- Node1&#45;&gt;Node9 -->
<g id="edge8" class="edge">
<title>Node1&#45;&gt;Node9</title>
<path fill="none" stroke="midnightblue" d="M841.28,-247.73C808.4,-238.58 766.56,-227.35 729,-218.5 714.29,-215.04 698.48,-211.62 683.35,-208.5"/>
<polygon fill="midnightblue" stroke="midnightblue" points="840.62,-251.17 851.19,-250.49 842.5,-244.43 840.62,-251.17"/>
</g>
<!-- Node10 -->
<g id="node10" class="node">
<title>Node10</title>
<g id="a_node10"><a xlink:href="../../d0/da0/class_app_wren_ae86344b2db061b7b70bd914cd1790067.html#ae86344b2db061b7b70bd914cd1790067" target="_top" xlink:title="class specific onTouchRelease implementation">
<polygon fill="none" stroke="black" points="490,-133.5 490,-161.5 729,-161.5 729,-133.5 490,-133.5"/>
<text text-anchor="middle" x="609.5" y="-143.1" font-family="Helvetica,sans-Serif" font-size="18.00">AppWren::onTouchRelease</text>
</a>
</g>
</g>
<!-- Node1&#45;&gt;Node10 -->
<g id="edge9" class="edge">
<title>Node1&#45;&gt;Node10</title>
<path fill="none" stroke="midnightblue" d="M870.4,-244.82C837.28,-223.68 781.4,-190.56 729,-171.5 718.35,-167.62 706.92,-164.32 695.51,-161.51"/>
<polygon fill="midnightblue" stroke="midnightblue" points="868.81,-247.97 879.11,-250.45 872.61,-242.08 868.81,-247.97"/>
</g>
<!-- Node11 -->
<g id="node11" class="node">
<title>Node11</title>
<g id="a_node11"><a xlink:href="../../d0/da0/class_app_wren_ae2320840487b326c37c2e66ad700bbbf.html#ae2320840487b326c37c2e66ad700bbbf" target="_top" xlink:title="class specific update implementation">
<polygon fill="none" stroke="black" points="42,-90.5 42,-118.5 197,-118.5 197,-90.5 42,-90.5"/>
<text text-anchor="middle" x="119.5" y="-100.1" font-family="Helvetica,sans-Serif" font-size="18.00">AppWren::render</text>
</a>
</g>
</g>
<!-- Node1&#45;&gt;Node11 -->
<g id="edge10" class="edge">
<title>Node1&#45;&gt;Node11</title>
<path fill="none" stroke="midnightblue" d="M882.03,-242.61C853.56,-209.81 794.56,-149.14 729,-124.5 633.89,-88.76 338.46,-95.42 197.22,-100.95"/>
<polygon fill="midnightblue" stroke="midnightblue" points="879.44,-244.97 888.6,-250.31 884.77,-240.43 879.44,-244.97"/>
</g>
<!-- Node12 -->
<g id="node12" class="node">
<title>Node12</title>
<g id="a_node12"><a xlink:href="../../d0/da0/class_app_wren_a45ddf6cabda05c29d6ab5ebda957a5bd.html#a45ddf6cabda05c29d6ab5ebda957a5bd" target="_top" xlink:title="shutdown the VM">
<polygon fill="none" stroke="black" points="506,-47.5 506,-75.5 713,-75.5 713,-47.5 506,-47.5"/>
<text text-anchor="middle" x="609.5" y="-57.1" font-family="Helvetica,sans-Serif" font-size="18.00">AppWren::shutdownVM</text>
</a>
</g>
</g>
<!-- Node1&#45;&gt;Node12 -->
<g id="edge11" class="edge">
<title>Node1&#45;&gt;Node12</title>
<path fill="none" stroke="midnightblue" d="M884.44,-241.93C857.36,-204.45 797.85,-129.65 729,-90.5 718.05,-84.27 705.78,-79.37 693.41,-75.52"/>
<polygon fill="midnightblue" stroke="midnightblue" points="881.66,-244.07 890.31,-250.19 887.37,-240.01 881.66,-244.07"/>
</g>
<!-- Node15 -->
<g id="node15" class="node">
<title>Node15</title>
<g id="a_node15"><a xlink:href="../../d0/da0/class_app_wren_a46ef63c583efb89334bc8fbf20cf7a83.html#a46ef63c583efb89334bc8fbf20cf7a83" target="_top" xlink:title="class specific update implementation">
<polygon fill="none" stroke="black" points="530,-0.5 530,-28.5 689,-28.5 689,-0.5 530,-0.5"/>
<text text-anchor="middle" x="609.5" y="-10.1" font-family="Helvetica,sans-Serif" font-size="18.00">AppWren::update</text>
</a>
</g>
</g>
<!-- Node1&#45;&gt;Node15 -->
<g id="edge15" class="edge">
<title>Node1&#45;&gt;Node15</title>
<path fill="none" stroke="midnightblue" d="M889.62,-241.13C867.48,-194.2 810.87,-88.65 729,-37.5 717,-30 703.09,-24.86 689.12,-21.35"/>
<polygon fill="midnightblue" stroke="midnightblue" points="886.56,-242.85 893.93,-250.46 892.92,-239.92 886.56,-242.85"/>
</g>
<!-- Node13 -->
<g id="node13" class="node">
<title>Node13</title>
<g id="a_node13"><a xlink:href="../../d0/da0/class_app_wren_ae60f9f125ea2700ade51aa51e15da888.html#ae60f9f125ea2700ade51aa51e15da888" target="_top" xlink:title="shutsdown then starts the VM">
<polygon fill="none" stroke="black" points="275,-47.5 275,-75.5 454,-75.5 454,-47.5 275,-47.5"/>
<text text-anchor="middle" x="364.5" y="-57.1" font-family="Helvetica,sans-Serif" font-size="18.00">AppWren::restartVM</text>
</a>
</g>
</g>
<!-- Node12&#45;&gt;Node13 -->
<g id="edge12" class="edge">
<title>Node12&#45;&gt;Node13</title>
<path fill="none" stroke="midnightblue" d="M495.73,-61.5C481.86,-61.5 467.83,-61.5 454.38,-61.5"/>
<polygon fill="midnightblue" stroke="midnightblue" points="495.8,-65 505.8,-61.5 495.8,-58 495.8,-65"/>
</g>
<!-- Node13&#45;&gt;Node11 -->
<g id="edge14" class="edge">
<title>Node13&#45;&gt;Node11</title>
<path fill="none" stroke="midnightblue" d="M274.3,-77.28C248.98,-81.76 221.65,-86.6 197.14,-90.94"/>
<polygon fill="midnightblue" stroke="midnightblue" points="275.03,-80.71 284.27,-75.52 273.81,-73.82 275.03,-80.71"/>
</g>
<!-- Node14 -->
<g id="node14" class="node">
<title>Node14</title>
<g id="a_node14"><a xlink:href="../../d0/da0/class_app_wren_aaa5357f4f5b7d4ffdd9f804e95d4a8e9.html#aaa5357f4f5b7d4ffdd9f804e95d4a8e9" target="_top" xlink:title="handles messages from other sw components">
<polygon fill="none" stroke="black" points="0,-43.5 0,-71.5 239,-71.5 239,-43.5 0,-43.5"/>
<text text-anchor="middle" x="119.5" y="-53.1" font-family="Helvetica,sans-Serif" font-size="18.00">AppWren::messageHandler</text>
</a>
</g>
</g>
<!-- Node13&#45;&gt;Node14 -->
<g id="edge13" class="edge">
<title>Node13&#45;&gt;Node14</title>
<path fill="none" stroke="midnightblue" d="M264.65,-59.87C256.31,-59.74 247.82,-59.6 239.35,-59.46"/>
<polygon fill="midnightblue" stroke="midnightblue" points="264.68,-63.37 274.74,-60.04 264.8,-56.37 264.68,-63.37"/>
</g>
</g>
</svg>
