<?xml version="1.0" encoding="UTF-8" standalone="no"?>
<!DOCTYPE svg PUBLIC "-//W3C//DTD SVG 1.1//EN"
 "http://www.w3.org/Graphics/SVG/1.1/DTD/svg11.dtd">
<!-- Generated by graphviz version 2.47.3 (20210619.1520)
 -->
<!-- Title: fsPrintDate Pages: 1 -->
<svg width="474pt" height="30pt"
 viewBox="0.00 0.00 474.00 30.00" xmlns="http://www.w3.org/2000/svg" xmlns:xlink="http://www.w3.org/1999/xlink">
<g id="graph0" class="graph" transform="scale(1 1) rotate(0) translate(4 26)">
<title>fsPrintDate</title>
<polygon fill="white" stroke="transparent" points="-4,4 -4,-26 470,-26 470,4 -4,4"/>
<!-- Node1 -->
<g id="node1" class="node">
<title>Node1</title>
<g id="a_node1"><a xlink:title=" ">
<polygon fill="#bfbfbf" stroke="black" points="391,-0.5 391,-21.5 466,-21.5 466,-0.5 391,-0.5"/>
<text text-anchor="middle" x="428.5" y="-7.9" font-family="Helvetica,sans-Serif" font-size="12.00">fsPrintDate</text>
</a>
</g>
</g>
<!-- Node2 -->
<g id="node2" class="node">
<title>Node2</title>
<g id="a_node2"><a xlink:href="../../d3/d51/class_fat_file.html#a22be4c339d0bfa331f75415b74dd4f37" target="_top" xlink:title=" ">
<polygon fill="white" stroke="black" points="209,-0.5 209,-21.5 355,-21.5 355,-0.5 209,-0.5"/>
<text text-anchor="middle" x="282" y="-7.9" font-family="Helvetica,sans-Serif" font-size="12.00">FatFile::printAccessDate</text>
</a>
</g>
</g>
<!-- Node1&#45;&gt;Node2 -->
<g id="edge1" class="edge">
<title>Node1&#45;&gt;Node2</title>
<path fill="none" stroke="midnightblue" d="M380.64,-11C372.49,-11 363.85,-11 355.21,-11"/>
<polygon fill="midnightblue" stroke="midnightblue" points="380.66,-14.5 390.66,-11 380.66,-7.5 380.66,-14.5"/>
</g>
<!-- Node3 -->
<g id="node3" class="node">
<title>Node3</title>
<g id="a_node3"><a xlink:href="../../d3/d51/class_fat_file.html#a19b3196bb1f6a68a2447e53b09369aef" target="_top" xlink:title=" ">
<polygon fill="white" stroke="black" points="0,-0.5 0,-21.5 173,-21.5 173,-0.5 0,-0.5"/>
<text text-anchor="middle" x="86.5" y="-7.9" font-family="Helvetica,sans-Serif" font-size="12.00">FatFile::printAccessDateTime</text>
</a>
</g>
</g>
<!-- Node2&#45;&gt;Node3 -->
<g id="edge2" class="edge">
<title>Node2&#45;&gt;Node3</title>
<path fill="none" stroke="midnightblue" d="M198.68,-11C190.18,-11 181.54,-11 173.01,-11"/>
<polygon fill="midnightblue" stroke="midnightblue" points="198.95,-14.5 208.95,-11 198.95,-7.5 198.95,-14.5"/>
</g>
</g>
</svg>
