<?xml version="1.0" encoding="UTF-8" standalone="no"?>
<!DOCTYPE svg PUBLIC "-//W3C//DTD SVG 1.1//EN"
 "http://www.w3.org/Graphics/SVG/1.1/DTD/svg11.dtd">
<!-- Generated by graphviz version 2.47.3 (20210619.1520)
 -->
<!-- Title: MyAppExample::MessageHandler Pages: 1 -->
<!--zoomable 296 -->
<svg id="main" version="1.1" xmlns="http://www.w3.org/2000/svg" xmlns:xlink="http://www.w3.org/1999/xlink" xml:space="preserve" onload="init(evt)">
<style type="text/css"><![CDATA[
.edge:hover path { stroke: red; }
.edge:hover polygon { stroke: red; fill: red; }
]]></style>
<script type="text/javascript"><![CDATA[
var edges = document.getElementsByTagName('g');
if (edges && edges.length) {
  for (var i=0;i<edges.length;i++) {
    if (edges[i].id.substr(0,4)=='edge') {
      edges[i].setAttribute('class','edge');
    }
  }
}
]]></script>
        <defs>
                <circle id="rim" cx="0" cy="0" r="7"/>
                <circle id="rim2" cx="0" cy="0" r="3.5"/>
                <g id="zoomPlus">
                        <use xlink:href="#rim" fill="#404040">
                                <set attributeName="fill" to="#808080" begin="zoomplus.mouseover" end="zoomplus.mouseout"/>
                        </use>
                        <path d="M-4,0h8M0,-4v8" fill="none" stroke="white" stroke-width="1.5" pointer-events="none"/>
                </g>
                <g id="zoomMin">
                        <use xlink:href="#rim" fill="#404040">
                                <set attributeName="fill" to="#808080" begin="zoomminus.mouseover" end="zoomminus.mouseout"/>
                        </use>
                        <path d="M-4,0h8" fill="none" stroke="white" stroke-width="1.5" pointer-events="none"/>
                </g>
                <g id="dirArrow">
                        <path fill="none" stroke="white" stroke-width="1.5" d="M0,-3.0v7 M-2.5,-0.5L0,-3.0L2.5,-0.5"/>
                </g>
               <g id="resetDef">
                       <use xlink:href="#rim2" fill="#404040">
                               <set attributeName="fill" to="#808080" begin="reset.mouseover" end="reset.mouseout"/>
                       </use>
               </g>
        </defs>

<script type="text/javascript">
var viewWidth = 829;
var viewHeight = 296;
var sectionId = 'dynsection-11';
</script>
<script xlink:href="../../svgpan.js"/>
<svg id="graph" class="graph">
<g id="viewport">
<title>MyAppExample::MessageHandler</title>
<polygon fill="white" stroke="transparent" points="-4,4 -4,-291.5 825,-291.5 825,4 -4,4"/>
<!-- Node1 -->
<g id="node1" class="node">
<title>Node1</title>
<g id="a_node1"><a xlink:title=" ">
<polygon fill="#bfbfbf" stroke="black" points="0,-134.5 0,-155.5 194,-155.5 194,-134.5 0,-134.5"/>
<text text-anchor="middle" x="97" y="-141.9" font-family="Helvetica,sans-Serif" font-size="12.00">MyAppExample::MessageHandler</text>
</a>
</g>
</g>
<!-- Node2 -->
<g id="node2" class="node">
<title>Node2</title>
<g id="a_node2"><a xlink:href="../../d4/dd5/class_audio_synth_waveform.html#ab5d0141790b5564716115191b82c5f48" target="_top" xlink:title=" ">
<polygon fill="white" stroke="black" points="252.5,-253 252.5,-287 381.5,-287 381.5,-253 252.5,-253"/>
<text text-anchor="start" x="260.5" y="-273.4" font-family="Helvetica,sans-Serif" font-size="12.00">AudioSynthWaveform</text>
<text text-anchor="middle" x="317" y="-260.4" font-family="Helvetica,sans-Serif" font-size="12.00">::amplitude</text>
</a>
</g>
</g>
<!-- Node1&#45;&gt;Node2 -->
<g id="edge1" class="edge">
<title>Node1&#45;&gt;Node2</title>
<path fill="none" stroke="midnightblue" d="M109.47,-155.65C131.34,-175.43 181.18,-218.11 230,-243 234.3,-245.19 238.82,-247.25 243.44,-249.17"/>
<polygon fill="midnightblue" stroke="midnightblue" points="242.43,-252.54 253.01,-252.93 244.98,-246.02 242.43,-252.54"/>
</g>
<!-- Node3 -->
<g id="node3" class="node">
<title>Node3</title>
<g id="a_node3"><a xlink:href="../../dd/da5/class_my_app_example.html#aa5595aba54c9d838845dec618c87f9ed" target="_top" xlink:title=" ">
<polygon fill="white" stroke="black" points="230,-212.5 230,-233.5 404,-233.5 404,-212.5 230,-212.5"/>
<text text-anchor="middle" x="317" y="-219.9" font-family="Helvetica,sans-Serif" font-size="12.00">MyAppExample::changeVoice</text>
</a>
</g>
</g>
<!-- Node1&#45;&gt;Node3 -->
<g id="edge2" class="edge">
<title>Node1&#45;&gt;Node3</title>
<path fill="none" stroke="midnightblue" d="M122.54,-155.7C148.84,-166.97 191.95,-184.87 230,-198 241.83,-202.08 254.72,-206.07 266.83,-209.62"/>
<polygon fill="midnightblue" stroke="midnightblue" points="266.21,-213.08 276.78,-212.48 268.15,-206.35 266.21,-213.08"/>
</g>
<!-- Node4 -->
<g id="node4" class="node">
<title>Node4</title>
<g id="a_node4"><a xlink:href="../../d8/d1c/class_audio_director.html#a578f1deac0695f2db3ba245aaedc62df" target="_top" xlink:title=" ">
<polygon fill="white" stroke="black" points="440,-190 440,-224 621,-224 621,-190 440,-190"/>
<text text-anchor="start" x="448" y="-210.4" font-family="Helvetica,sans-Serif" font-size="12.00">AudioDirector::getAudioStream</text>
<text text-anchor="middle" x="530.5" y="-197.4" font-family="Helvetica,sans-Serif" font-size="12.00">ObjByName</text>
</a>
</g>
</g>
<!-- Node1&#45;&gt;Node4 -->
<g id="edge9" class="edge">
<title>Node1&#45;&gt;Node4</title>
<path fill="none" stroke="midnightblue" d="M166.49,-155.52C186.92,-158.62 209.36,-161.99 230,-165 296.55,-174.71 371.48,-185.22 429.75,-193.29"/>
<polygon fill="midnightblue" stroke="midnightblue" points="429.3,-196.76 439.69,-194.67 430.26,-189.83 429.3,-196.76"/>
</g>
<!-- Node5 -->
<g id="node5" class="node">
<title>Node5</title>
<g id="a_node5"><a xlink:href="../../d8/d1c/class_audio_director.html#ab4957e373e5d9078454d07da471f1d94" target="_top" xlink:title=" ">
<polygon fill="white" stroke="black" points="249,-134.5 249,-155.5 385,-155.5 385,-134.5 249,-134.5"/>
<text text-anchor="middle" x="317" y="-141.9" font-family="Helvetica,sans-Serif" font-size="12.00">AudioDirector::connect</text>
</a>
</g>
</g>
<!-- Node1&#45;&gt;Node5 -->
<g id="edge4" class="edge">
<title>Node1&#45;&gt;Node5</title>
<path fill="none" stroke="midnightblue" d="M194.25,-145C209.03,-145 224.12,-145 238.43,-145"/>
<polygon fill="midnightblue" stroke="midnightblue" points="238.69,-148.5 248.69,-145 238.69,-141.5 238.69,-148.5"/>
</g>
<!-- Node8 -->
<g id="node8" class="node">
<title>Node8</title>
<g id="a_node8"><a xlink:href="../../d8/d1c/class_audio_director.html#aae48fff50fc2763f06611db46ae7c94e" target="_top" xlink:title=" ">
<polygon fill="white" stroke="black" points="241,-94.5 241,-115.5 393,-115.5 393,-94.5 241,-94.5"/>
<text text-anchor="middle" x="317" y="-101.9" font-family="Helvetica,sans-Serif" font-size="12.00">AudioDirector::disconnect</text>
</a>
</g>
</g>
<!-- Node1&#45;&gt;Node8 -->
<g id="edge7" class="edge">
<title>Node1&#45;&gt;Node8</title>
<path fill="none" stroke="midnightblue" d="M155.28,-134.49C183.95,-129.23 218.84,-122.83 248.78,-117.33"/>
<polygon fill="midnightblue" stroke="midnightblue" points="249.52,-120.76 258.73,-115.51 248.26,-113.87 249.52,-120.76"/>
</g>
<!-- Node9 -->
<g id="node9" class="node">
<title>Node9</title>
<g id="a_node9"><a xlink:href="../../d4/dd5/class_audio_synth_waveform.html#a395cff98439e97ba08854b343eed4317" target="_top" xlink:title=" ">
<polygon fill="white" stroke="black" points="252.5,-41 252.5,-75 381.5,-75 381.5,-41 252.5,-41"/>
<text text-anchor="start" x="260.5" y="-61.4" font-family="Helvetica,sans-Serif" font-size="12.00">AudioSynthWaveform</text>
<text text-anchor="middle" x="317" y="-48.4" font-family="Helvetica,sans-Serif" font-size="12.00">::frequency</text>
</a>
</g>
</g>
<!-- Node1&#45;&gt;Node9 -->
<g id="edge8" class="edge">
<title>Node1&#45;&gt;Node9</title>
<path fill="none" stroke="midnightblue" d="M119.15,-134.41C144.94,-121.73 190.03,-100.29 230,-85 235.95,-82.72 242.18,-80.49 248.45,-78.34"/>
<polygon fill="midnightblue" stroke="midnightblue" points="249.93,-81.54 258.3,-75.04 247.71,-74.9 249.93,-81.54"/>
</g>
<!-- Node10 -->
<g id="node10" class="node">
<title>Node10</title>
<g id="a_node10"><a xlink:href="../../db/d69/class_app_base_class.html#aa989ddf4bdc4cbd9a61791ca45082177" target="_top" xlink:title=" ">
<polygon fill="white" stroke="black" points="245.5,-0.5 245.5,-21.5 388.5,-21.5 388.5,-0.5 245.5,-0.5"/>
<text text-anchor="middle" x="317" y="-7.9" font-family="Helvetica,sans-Serif" font-size="12.00">AppBaseClass::isName</text>
</a>
</g>
</g>
<!-- Node1&#45;&gt;Node10 -->
<g id="edge10" class="edge">
<title>Node1&#45;&gt;Node10</title>
<path fill="none" stroke="midnightblue" d="M107.03,-134.28C126.82,-111.51 176.56,-58.18 230,-31 234.58,-28.67 239.43,-26.61 244.41,-24.78"/>
<polygon fill="midnightblue" stroke="midnightblue" points="245.72,-28.04 254.1,-21.56 243.51,-21.4 245.72,-28.04"/>
</g>
<!-- Node3&#45;&gt;Node4 -->
<g id="edge3" class="edge">
<title>Node3&#45;&gt;Node4</title>
<path fill="none" stroke="midnightblue" d="M404.03,-216.49C412.49,-215.85 421.13,-215.2 429.72,-214.55"/>
<polygon fill="midnightblue" stroke="midnightblue" points="430.06,-218.03 439.77,-213.79 429.53,-211.05 430.06,-218.03"/>
</g>
<!-- Node6 -->
<g id="node6" class="node">
<title>Node6</title>
<g id="a_node6"><a xlink:href="../../d2/d7c/class_audio_connection.html#a4208c4c7f60da78ae1daede7a6bfeb3f" target="_top" xlink:title=" ">
<polygon fill="white" stroke="black" points="458,-134.5 458,-155.5 603,-155.5 603,-134.5 458,-134.5"/>
<text text-anchor="middle" x="530.5" y="-141.9" font-family="Helvetica,sans-Serif" font-size="12.00">AudioConnection::rewire</text>
</a>
</g>
</g>
<!-- Node5&#45;&gt;Node6 -->
<g id="edge5" class="edge">
<title>Node5&#45;&gt;Node6</title>
<path fill="none" stroke="midnightblue" d="M385.21,-145C405.06,-145 427.02,-145 447.68,-145"/>
<polygon fill="midnightblue" stroke="midnightblue" points="447.71,-148.5 457.71,-145 447.71,-141.5 447.71,-148.5"/>
</g>
<!-- Node7 -->
<g id="node7" class="node">
<title>Node7</title>
<g id="a_node7"><a xlink:href="../../d2/d7c/class_audio_connection.html#ab86753a735bd46a3924035617b0c3623" target="_top" xlink:title=" ">
<polygon fill="white" stroke="black" points="657,-134.5 657,-155.5 821,-155.5 821,-134.5 657,-134.5"/>
<text text-anchor="middle" x="739" y="-141.9" font-family="Helvetica,sans-Serif" font-size="12.00">AudioConnection::reconnect</text>
</a>
</g>
</g>
<!-- Node6&#45;&gt;Node7 -->
<g id="edge6" class="edge">
<title>Node6&#45;&gt;Node7</title>
<path fill="none" stroke="midnightblue" d="M603.14,-145C617.25,-145 632.22,-145 646.86,-145"/>
<polygon fill="midnightblue" stroke="midnightblue" points="646.93,-148.5 656.93,-145 646.93,-141.5 646.93,-148.5"/>
</g>
</g>
</svg>
        <g id="navigator" transform="translate(0 0)" fill="#404254">
                <rect fill="#f2f5e9" fill-opacity="0.5" stroke="#606060" stroke-width=".5" x="0" y="0" width="60" height="60"/>
                <use id="zoomplus" xlink:href="#zoomPlus" x="17" y="9" onmousedown="handleZoom(evt,'in')"/>
                <use id="zoomminus" xlink:href="#zoomMin" x="42" y="9" onmousedown="handleZoom(evt,'out')"/>
                <use id="reset" xlink:href="#resetDef" x="30" y="36" onmousedown="handleReset()"/>
                <g id="arrowUp" xlink:href="#dirArrow" transform="translate(30 24)" onmousedown="handlePan(0,-1)">
                  <use xlink:href="#rim" fill="#404040">
                        <set attributeName="fill" to="#808080" begin="arrowUp.mouseover" end="arrowUp.mouseout"/>
                  </use>
                  <path fill="none" stroke="white" stroke-width="1.5" d="M0,-3.0v7 M-2.5,-0.5L0,-3.0L2.5,-0.5"/>
                </g>
                <g id="arrowRight" xlink:href="#dirArrow" transform="rotate(90) translate(36 -43)" onmousedown="handlePan(1,0)">
                  <use xlink:href="#rim" fill="#404040">
                        <set attributeName="fill" to="#808080" begin="arrowRight.mouseover" end="arrowRight.mouseout"/>
                  </use>
                  <path fill="none" stroke="white" stroke-width="1.5" d="M0,-3.0v7 M-2.5,-0.5L0,-3.0L2.5,-0.5"/>
                </g>
                <g id="arrowDown" xlink:href="#dirArrow" transform="rotate(180) translate(-30 -48)" onmousedown="handlePan(0,1)">
                  <use xlink:href="#rim" fill="#404040">
                        <set attributeName="fill" to="#808080" begin="arrowDown.mouseover" end="arrowDown.mouseout"/>
                  </use>
                  <path fill="none" stroke="white" stroke-width="1.5" d="M0,-3.0v7 M-2.5,-0.5L0,-3.0L2.5,-0.5"/>
                </g>
                <g id="arrowLeft" xlink:href="#dirArrow" transform="rotate(270) translate(-36 17)" onmousedown="handlePan(-1,0)">
                  <use xlink:href="#rim" fill="#404040">
                        <set attributeName="fill" to="#808080" begin="arrowLeft.mouseover" end="arrowLeft.mouseout"/>
                  </use>
                  <path fill="none" stroke="white" stroke-width="1.5" d="M0,-3.0v7 M-2.5,-0.5L0,-3.0L2.5,-0.5"/>
                </g>
        </g>
        <svg viewBox="0 0 15 15" width="100%" height="30px" preserveAspectRatio="xMaxYMin meet">
         <g id="arrow_out" transform="scale(0.3 0.3)">
          <a xlink:href="class_my_app_example_a7a77ffb8a5fb02933673fba14c58e8c0_cgraph_org.svg" target="_base">
           <rect id="button" ry="5" rx="5" y="6" x="6" height="38" width="38"
                fill="#f2f5e9" fill-opacity="0.5" stroke="#606060" stroke-width="1.0"/>
           <path id="arrow"
             d="M 11.500037,31.436501 C 11.940474,20.09759 22.043105,11.32322 32.158766,21.979434 L 37.068811,17.246167 C 37.068811,17.246167 37.088388,32 37.088388,32 L 22.160133,31.978069 C 22.160133,31.978069 26.997745,27.140456 26.997745,27.140456 C 18.528582,18.264221 13.291696,25.230495 11.500037,31.436501 z"
             style="fill:#404040;"/>
          </a>
         </g>
        </svg>
</svg>
