<?xml version="1.0" encoding="UTF-8" standalone="no"?>
<!DOCTYPE svg PUBLIC "-//W3C//DTD SVG 1.1//EN"
 "http://www.w3.org/Graphics/SVG/1.1/DTD/svg11.dtd">
<!-- Generated by graphviz version 2.47.3 (20210619.1520)
 -->
<!-- Title: MyAppExample::onFocus Pages: 1 -->
<svg width="839pt" height="150pt"
 viewBox="0.00 0.00 839.00 150.00" xmlns="http://www.w3.org/2000/svg" xmlns:xlink="http://www.w3.org/1999/xlink">
<g id="graph0" class="graph" transform="scale(1 1) rotate(0) translate(4 146)">
<title>MyAppExample::onFocus</title>
<polygon fill="white" stroke="transparent" points="-4,4 -4,-146 835,-146 835,4 -4,4"/>
<!-- Node1 -->
<g id="node1" class="node">
<title>Node1</title>
<g id="a_node1"><a xlink:title=" ">
<polygon fill="#bfbfbf" stroke="black" points="0,-60.5 0,-81.5 150,-81.5 150,-60.5 0,-60.5"/>
<text text-anchor="middle" x="75" y="-67.9" font-family="Helvetica,sans-Serif" font-size="12.00">MyAppExample::onFocus</text>
</a>
</g>
</g>
<!-- Node2 -->
<g id="node2" class="node">
<title>Node2</title>
<g id="a_node2"><a xlink:href="../../dd/da5/class_my_app_example.html#acbf88d789ce51f4ca12d3e0300327408" target="_top" xlink:title=" ">
<polygon fill="white" stroke="black" points="186,-80.5 186,-101.5 416,-101.5 416,-80.5 186,-80.5"/>
<text text-anchor="middle" x="301" y="-87.9" font-family="Helvetica,sans-Serif" font-size="12.00">MyAppExample::makeAudioConnections</text>
</a>
</g>
</g>
<!-- Node1&#45;&gt;Node2 -->
<g id="edge1" class="edge">
<title>Node1&#45;&gt;Node2</title>
<path fill="none" stroke="midnightblue" d="M150.28,-77.63C158.52,-78.37 167.06,-79.13 175.71,-79.9"/>
<polygon fill="midnightblue" stroke="midnightblue" points="175.62,-83.41 185.89,-80.81 176.24,-76.44 175.62,-83.41"/>
</g>
<!-- Node8 -->
<g id="node7" class="node">
<title>Node8</title>
<g id="a_node7"><a xlink:href="../../da/d96/class_app_manager.html#aa4f7649ae1aa1a567286d73981f00090" target="_top" xlink:title="provides an interface for apps to send messages to other apps">
<polygon fill="white" stroke="black" points="218.5,-40.5 218.5,-61.5 383.5,-61.5 383.5,-40.5 218.5,-40.5"/>
<text text-anchor="middle" x="301" y="-47.9" font-family="Helvetica,sans-Serif" font-size="12.00">AppManager::sendMessage</text>
</a>
</g>
</g>
<!-- Node1&#45;&gt;Node8 -->
<g id="edge6" class="edge">
<title>Node1&#45;&gt;Node8</title>
<path fill="none" stroke="midnightblue" d="M150.28,-64.37C168.82,-62.71 188.93,-60.92 208.21,-59.2"/>
<polygon fill="midnightblue" stroke="midnightblue" points="208.56,-62.68 218.2,-58.3 207.93,-55.71 208.56,-62.68"/>
</g>
<!-- Node3 -->
<g id="node3" class="node">
<title>Node3</title>
<g id="a_node3"><a xlink:href="../../d8/d1c/class_audio_director.html#ab4957e373e5d9078454d07da471f1d94" target="_top" xlink:title=" ">
<polygon fill="white" stroke="black" points="479.5,-120.5 479.5,-141.5 615.5,-141.5 615.5,-120.5 479.5,-120.5"/>
<text text-anchor="middle" x="547.5" y="-127.9" font-family="Helvetica,sans-Serif" font-size="12.00">AudioDirector::connect</text>
</a>
</g>
</g>
<!-- Node2&#45;&gt;Node3 -->
<g id="edge2" class="edge">
<title>Node2&#45;&gt;Node3</title>
<path fill="none" stroke="midnightblue" d="M366.24,-101.51C398.68,-106.82 438.21,-113.28 471.98,-118.81"/>
<polygon fill="midnightblue" stroke="midnightblue" points="471.83,-122.33 482.27,-120.49 472.96,-115.42 471.83,-122.33"/>
</g>
<!-- Node6 -->
<g id="node5" class="node">
<title>Node6</title>
<g id="a_node5"><a xlink:href="../../d8/d1c/class_audio_director.html#a0ee0c50bcd3cb021f77a10e5999c3c2f" target="_top" xlink:title=" ">
<polygon fill="white" stroke="black" points="465.5,-80.5 465.5,-101.5 629.5,-101.5 629.5,-80.5 465.5,-80.5"/>
<text text-anchor="middle" x="547.5" y="-87.9" font-family="Helvetica,sans-Serif" font-size="12.00">AudioDirector::disconnectAll</text>
</a>
</g>
</g>
<!-- Node2&#45;&gt;Node6 -->
<g id="edge4" class="edge">
<title>Node2&#45;&gt;Node6</title>
<path fill="none" stroke="midnightblue" d="M416.02,-91C429.18,-91 442.47,-91 455.28,-91"/>
<polygon fill="midnightblue" stroke="midnightblue" points="455.43,-94.5 465.43,-91 455.43,-87.5 455.43,-94.5"/>
</g>
<!-- Node4 -->
<g id="node4" class="node">
<title>Node4</title>
<g id="a_node4"><a xlink:href="../../d2/d7c/class_audio_connection.html#a4208c4c7f60da78ae1daede7a6bfeb3f" target="_top" xlink:title=" ">
<polygon fill="white" stroke="red" points="682.5,-120.5 682.5,-141.5 827.5,-141.5 827.5,-120.5 682.5,-120.5"/>
<text text-anchor="middle" x="755" y="-127.9" font-family="Helvetica,sans-Serif" font-size="12.00">AudioConnection::rewire</text>
</a>
</g>
</g>
<!-- Node3&#45;&gt;Node4 -->
<g id="edge3" class="edge">
<title>Node3&#45;&gt;Node4</title>
<path fill="none" stroke="midnightblue" d="M615.5,-131C633.67,-131 653.55,-131 672.42,-131"/>
<polygon fill="midnightblue" stroke="midnightblue" points="672.49,-134.5 682.49,-131 672.49,-127.5 672.49,-134.5"/>
</g>
<!-- Node7 -->
<g id="node6" class="node">
<title>Node7</title>
<g id="a_node6"><a xlink:href="../../d8/d1c/class_audio_director.html#aae48fff50fc2763f06611db46ae7c94e" target="_top" xlink:title=" ">
<polygon fill="white" stroke="black" points="679,-80.5 679,-101.5 831,-101.5 831,-80.5 679,-80.5"/>
<text text-anchor="middle" x="755" y="-87.9" font-family="Helvetica,sans-Serif" font-size="12.00">AudioDirector::disconnect</text>
</a>
</g>
</g>
<!-- Node6&#45;&gt;Node7 -->
<g id="edge5" class="edge">
<title>Node6&#45;&gt;Node7</title>
<path fill="none" stroke="midnightblue" d="M629.72,-91C642.47,-91 655.68,-91 668.52,-91"/>
<polygon fill="midnightblue" stroke="midnightblue" points="668.72,-94.5 678.72,-91 668.72,-87.5 668.72,-94.5"/>
</g>
<!-- Node9 -->
<g id="node8" class="node">
<title>Node9</title>
<g id="a_node8"><a xlink:href="../../db/d69/class_app_base_class.html#aa989ddf4bdc4cbd9a61791ca45082177" target="_top" xlink:title=" ">
<polygon fill="white" stroke="black" points="476,-40.5 476,-61.5 619,-61.5 619,-40.5 476,-40.5"/>
<text text-anchor="middle" x="547.5" y="-47.9" font-family="Helvetica,sans-Serif" font-size="12.00">AppBaseClass::isName</text>
</a>
</g>
</g>
<!-- Node8&#45;&gt;Node9 -->
<g id="edge7" class="edge">
<title>Node8&#45;&gt;Node9</title>
<path fill="none" stroke="midnightblue" d="M383.75,-51C410.1,-51 439.28,-51 465.57,-51"/>
<polygon fill="midnightblue" stroke="midnightblue" points="465.88,-54.5 475.88,-51 465.88,-47.5 465.88,-54.5"/>
</g>
<!-- Node10 -->
<g id="node9" class="node">
<title>Node10</title>
<g id="a_node9"><a xlink:href="../../db/d69/class_app_base_class.html#ae84fb7d2e79a6e050cfa11d8e04cbae9" target="_top" xlink:title=" ">
<polygon fill="white" stroke="black" points="452,-0.5 452,-21.5 643,-21.5 643,-0.5 452,-0.5"/>
<text text-anchor="middle" x="547.5" y="-7.9" font-family="Helvetica,sans-Serif" font-size="12.00">AppBaseClass::MessageHandler</text>
</a>
</g>
</g>
<!-- Node8&#45;&gt;Node10 -->
<g id="edge8" class="edge">
<title>Node8&#45;&gt;Node10</title>
<path fill="none" stroke="midnightblue" d="M366.24,-40.49C398.68,-35.18 438.21,-28.72 471.98,-23.19"/>
<polygon fill="midnightblue" stroke="midnightblue" points="472.96,-26.58 482.27,-21.51 471.83,-19.67 472.96,-26.58"/>
</g>
</g>
</svg>
