<?xml version="1.0" encoding="UTF-8" standalone="no"?>
<!DOCTYPE svg PUBLIC "-//W3C//DTD SVG 1.1//EN"
 "http://www.w3.org/Graphics/SVG/1.1/DTD/svg11.dtd">
<!-- Generated by graphviz version 2.47.3 (20210619.1520)
 -->
<!-- Title: erisAudio.h Pages: 1 -->
<svg width="776pt" height="204pt"
 viewBox="0.00 0.00 775.68 204.00" xmlns="http://www.w3.org/2000/svg" xmlns:xlink="http://www.w3.org/1999/xlink">
<g id="graph0" class="graph" transform="scale(1 1) rotate(0) translate(4 200)">
<title>erisAudio.h</title>
<polygon fill="white" stroke="transparent" points="-4,4 -4,-200 771.68,-200 771.68,4 -4,4"/>
<!-- Node1 -->
<g id="node1" class="node">
<title>Node1</title>
<g id="a_node1"><a xlink:title="audio block class extentions (note: autogenerated code)">
<polygon fill="#bfbfbf" stroke="black" points="316.68,-174.5 316.68,-195.5 392.68,-195.5 392.68,-174.5 316.68,-174.5"/>
<text text-anchor="middle" x="354.68" y="-181.9" font-family="Helvetica,sans-Serif" font-size="12.00">erisAudio.h</text>
</a>
</g>
</g>
<!-- Node2 -->
<g id="node2" class="node">
<title>Node2</title>
<g id="a_node2"><a xlink:href="../../de/db5/eris__synth__waveform_8h.html" target="_top" xlink:title=" ">
<polygon fill="white" stroke="black" points="287.18,-116.5 287.18,-137.5 422.18,-137.5 422.18,-116.5 287.18,-116.5"/>
<text text-anchor="middle" x="354.68" y="-123.9" font-family="Helvetica,sans-Serif" font-size="12.00">eris_synth_waveform.h</text>
</a>
</g>
</g>
<!-- Node1&#45;&gt;Node2 -->
<g id="edge1" class="edge">
<title>Node1&#45;&gt;Node2</title>
<path fill="none" stroke="midnightblue" d="M354.68,-174.25C354.68,-166.94 354.68,-156.69 354.68,-147.7"/>
<polygon fill="midnightblue" stroke="midnightblue" points="358.18,-147.64 354.68,-137.64 351.18,-147.64 358.18,-147.64"/>
</g>
<!-- Node4 -->
<g id="node4" class="node">
<title>Node4</title>
<g id="a_node4"><a xlink:href="../../df/d6c/_audio_stream_8h.html" target="_top" xlink:title=" ">
<polygon fill="white" stroke="black" points="153.18,-58.5 153.18,-79.5 248.18,-79.5 248.18,-58.5 153.18,-58.5"/>
<text text-anchor="middle" x="200.68" y="-65.9" font-family="Helvetica,sans-Serif" font-size="12.00">AudioStream.h</text>
</a>
</g>
</g>
<!-- Node1&#45;&gt;Node4 -->
<g id="edge18" class="edge">
<title>Node1&#45;&gt;Node4</title>
<path fill="none" stroke="midnightblue" d="M316.52,-181.71C230.96,-176.17 29.68,-160.85 9.68,-138 -30.87,-91.68 73.14,-76.91 143.11,-72.2"/>
<polygon fill="midnightblue" stroke="midnightblue" points="143.4,-75.69 153.16,-71.58 142.96,-68.71 143.4,-75.69"/>
</g>
<!-- Node8 -->
<g id="node8" class="node">
<title>Node8</title>
<g id="a_node8"><a xlink:href="../../d4/dfc/eris__analyze__fft1024_8h.html" target="_top" xlink:title=" ">
<polygon fill="white" stroke="black" points="514.68,-116.5 514.68,-137.5 648.68,-137.5 648.68,-116.5 514.68,-116.5"/>
<text text-anchor="middle" x="581.68" y="-123.9" font-family="Helvetica,sans-Serif" font-size="12.00">eris_analyze_fft1024.h</text>
</a>
</g>
</g>
<!-- Node1&#45;&gt;Node8 -->
<g id="edge7" class="edge">
<title>Node1&#45;&gt;Node8</title>
<path fill="none" stroke="midnightblue" d="M392.93,-174.56C431.53,-165.04 491.27,-150.3 533.18,-139.97"/>
<polygon fill="midnightblue" stroke="midnightblue" points="534.02,-143.36 542.89,-137.57 532.34,-136.57 534.02,-143.36"/>
</g>
<!-- Node12 -->
<g id="node12" class="node">
<title>Node12</title>
<g id="a_node12"><a xlink:href="../../d8/dc5/eris__analyze__scope_8h.html" target="_top" xlink:title=" ">
<polygon fill="white" stroke="black" points="18.68,-116.5 18.68,-137.5 148.68,-137.5 148.68,-116.5 18.68,-116.5"/>
<text text-anchor="middle" x="83.68" y="-123.9" font-family="Helvetica,sans-Serif" font-size="12.00">eris_analyze_scope.h</text>
</a>
</g>
</g>
<!-- Node1&#45;&gt;Node12 -->
<g id="edge14" class="edge">
<title>Node1&#45;&gt;Node12</title>
<path fill="none" stroke="midnightblue" d="M316.43,-176.1C270.37,-166.58 192.64,-150.52 139.79,-139.6"/>
<polygon fill="midnightblue" stroke="midnightblue" points="140.4,-136.15 129.9,-137.55 138.99,-143 140.4,-136.15"/>
</g>
<!-- Node13 -->
<g id="node13" class="node">
<title>Node13</title>
<g id="a_node13"><a xlink:title=" ">
<polygon fill="white" stroke="#bfbfbf" points="440.68,-116.5 440.68,-137.5 496.68,-137.5 496.68,-116.5 440.68,-116.5"/>
<text text-anchor="middle" x="468.68" y="-123.9" font-family="Helvetica,sans-Serif" font-size="12.00">Audio.h</text>
</a>
</g>
</g>
<!-- Node1&#45;&gt;Node13 -->
<g id="edge17" class="edge">
<title>Node1&#45;&gt;Node13</title>
<path fill="none" stroke="midnightblue" d="M374.28,-174.37C392.41,-165.46 419.59,-152.11 440.14,-142.02"/>
<polygon fill="midnightblue" stroke="midnightblue" points="441.91,-145.05 449.34,-137.5 438.82,-138.77 441.91,-145.05"/>
</g>
<!-- Node14 -->
<g id="node14" class="node">
<title>Node14</title>
<g id="a_node14"><a xlink:href="../../d4/dd6/eris__mixer__ext_8h.html" target="_top" xlink:title=" ">
<polygon fill="white" stroke="black" points="166.68,-116.5 166.68,-137.5 268.68,-137.5 268.68,-116.5 166.68,-116.5"/>
<text text-anchor="middle" x="217.68" y="-123.9" font-family="Helvetica,sans-Serif" font-size="12.00">eris_mixer_ext.h</text>
</a>
</g>
</g>
<!-- Node1&#45;&gt;Node14 -->
<g id="edge19" class="edge">
<title>Node1&#45;&gt;Node14</title>
<path fill="none" stroke="midnightblue" d="M331.13,-174.37C308.84,-165.26 275.19,-151.51 250.32,-141.34"/>
<polygon fill="midnightblue" stroke="midnightblue" points="251.5,-138.05 240.92,-137.5 248.86,-144.52 251.5,-138.05"/>
</g>
<!-- Node15 -->
<g id="node15" class="node">
<title>Node15</title>
<g id="a_node15"><a xlink:title=" ">
<polygon fill="white" stroke="#bfbfbf" points="666.68,-116.5 666.68,-137.5 704.68,-137.5 704.68,-116.5 666.68,-116.5"/>
<text text-anchor="middle" x="685.68" y="-123.9" font-family="Helvetica,sans-Serif" font-size="12.00">new</text>
</a>
</g>
</g>
<!-- Node1&#45;&gt;Node15 -->
<g id="edge22" class="edge">
<title>Node1&#45;&gt;Node15</title>
<path fill="none" stroke="midnightblue" d="M392.94,-180.58C449,-175.04 556.8,-162.44 656.61,-137.87"/>
<polygon fill="midnightblue" stroke="midnightblue" points="657.7,-141.21 666.55,-135.38 656,-134.42 657.7,-141.21"/>
</g>
<!-- Node3 -->
<g id="node3" class="node">
<title>Node3</title>
<g id="a_node3"><a xlink:title=" ">
<polygon fill="white" stroke="#bfbfbf" points="266.68,-58.5 266.68,-79.5 332.68,-79.5 332.68,-58.5 266.68,-58.5"/>
<text text-anchor="middle" x="299.68" y="-65.9" font-family="Helvetica,sans-Serif" font-size="12.00">Arduino.h</text>
</a>
</g>
</g>
<!-- Node2&#45;&gt;Node3 -->
<g id="edge2" class="edge">
<title>Node2&#45;&gt;Node3</title>
<path fill="none" stroke="midnightblue" d="M345.1,-116.25C337.13,-108.14 325.62,-96.41 316.17,-86.79"/>
<polygon fill="midnightblue" stroke="midnightblue" points="318.65,-84.32 309.15,-79.64 313.66,-89.23 318.65,-84.32"/>
</g>
<!-- Node2&#45;&gt;Node4 -->
<g id="edge3" class="edge">
<title>Node2&#45;&gt;Node4</title>
<path fill="none" stroke="midnightblue" d="M328.21,-116.37C302.82,-107.14 264.32,-93.14 236.26,-82.94"/>
<polygon fill="midnightblue" stroke="midnightblue" points="237.4,-79.63 226.81,-79.5 235.01,-86.21 237.4,-79.63"/>
</g>
<!-- Node7 -->
<g id="node7" class="node">
<title>Node7</title>
<g id="a_node7"><a xlink:title=" ">
<polygon fill="white" stroke="#bfbfbf" points="350.68,-58.5 350.68,-79.5 428.68,-79.5 428.68,-58.5 350.68,-58.5"/>
<text text-anchor="middle" x="389.68" y="-65.9" font-family="Helvetica,sans-Serif" font-size="12.00">arm_math.h</text>
</a>
</g>
</g>
<!-- Node2&#45;&gt;Node7 -->
<g id="edge6" class="edge">
<title>Node2&#45;&gt;Node7</title>
<path fill="none" stroke="midnightblue" d="M360.78,-116.25C365.59,-108.54 372.46,-97.56 378.28,-88.23"/>
<polygon fill="midnightblue" stroke="midnightblue" points="381.32,-89.98 383.65,-79.64 375.39,-86.27 381.32,-89.98"/>
</g>
<!-- Node5 -->
<g id="node5" class="node">
<title>Node5</title>
<g id="a_node5"><a xlink:title=" ">
<polygon fill="white" stroke="#bfbfbf" points="140.18,-0.5 140.18,-21.5 191.18,-21.5 191.18,-0.5 140.18,-0.5"/>
<text text-anchor="middle" x="165.68" y="-7.9" font-family="Helvetica,sans-Serif" font-size="12.00">stdio.h</text>
</a>
</g>
</g>
<!-- Node4&#45;&gt;Node5 -->
<g id="edge4" class="edge">
<title>Node4&#45;&gt;Node5</title>
<path fill="none" stroke="midnightblue" d="M194.58,-58.25C189.77,-50.54 182.9,-39.56 177.08,-30.23"/>
<polygon fill="midnightblue" stroke="midnightblue" points="179.97,-28.27 171.71,-21.64 174.04,-31.98 179.97,-28.27"/>
</g>
<!-- Node6 -->
<g id="node6" class="node">
<title>Node6</title>
<g id="a_node6"><a xlink:title=" ">
<polygon fill="white" stroke="#bfbfbf" points="209.68,-0.5 209.68,-21.5 263.68,-21.5 263.68,-0.5 209.68,-0.5"/>
<text text-anchor="middle" x="236.68" y="-7.9" font-family="Helvetica,sans-Serif" font-size="12.00">string.h</text>
</a>
</g>
</g>
<!-- Node4&#45;&gt;Node6 -->
<g id="edge5" class="edge">
<title>Node4&#45;&gt;Node6</title>
<path fill="none" stroke="midnightblue" d="M206.95,-58.25C211.91,-50.54 218.96,-39.56 224.96,-30.23"/>
<polygon fill="midnightblue" stroke="midnightblue" points="228.02,-31.95 230.48,-21.64 222.13,-28.16 228.02,-31.95"/>
</g>
<!-- Node8&#45;&gt;Node3 -->
<g id="edge8" class="edge">
<title>Node8&#45;&gt;Node3</title>
<path fill="none" stroke="midnightblue" d="M528.16,-116.45C481.72,-107.99 412.43,-95.01 343.31,-80.29"/>
<polygon fill="midnightblue" stroke="midnightblue" points="343.63,-76.78 333.12,-78.1 342.16,-83.62 343.63,-76.78"/>
</g>
<!-- Node8&#45;&gt;Node4 -->
<g id="edge9" class="edge">
<title>Node8&#45;&gt;Node4</title>
<path fill="none" stroke="midnightblue" d="M514.57,-117.12C451.22,-108.59 353.31,-95.03 258.32,-80.06"/>
<polygon fill="midnightblue" stroke="midnightblue" points="258.67,-76.57 248.25,-78.46 257.58,-83.49 258.67,-76.57"/>
</g>
<!-- Node8&#45;&gt;Node7 -->
<g id="edge10" class="edge">
<title>Node8&#45;&gt;Node7</title>
<path fill="none" stroke="midnightblue" d="M548.67,-116.37C516.47,-106.98 467.34,-92.65 432.22,-82.41"/>
<polygon fill="midnightblue" stroke="midnightblue" points="432.84,-78.94 422.26,-79.5 430.88,-85.66 432.84,-78.94"/>
</g>
<!-- Node9 -->
<g id="node9" class="node">
<title>Node9</title>
<g id="a_node9"><a xlink:title=" ">
<polygon fill="white" stroke="#bfbfbf" points="447.18,-58.5 447.18,-79.5 554.18,-79.5 554.18,-58.5 447.18,-58.5"/>
<text text-anchor="middle" x="500.68" y="-65.9" font-family="Helvetica,sans-Serif" font-size="12.00">analyze_fft1024.h</text>
</a>
</g>
</g>
<!-- Node8&#45;&gt;Node9 -->
<g id="edge11" class="edge">
<title>Node8&#45;&gt;Node9</title>
<path fill="none" stroke="midnightblue" d="M567.57,-116.25C555.26,-107.73 537.18,-95.24 522.93,-85.38"/>
<polygon fill="midnightblue" stroke="midnightblue" points="524.84,-82.45 514.63,-79.64 520.86,-88.21 524.84,-82.45"/>
</g>
<!-- Node10 -->
<g id="node10" class="node">
<title>Node10</title>
<g id="a_node10"><a xlink:title=" ">
<polygon fill="white" stroke="#bfbfbf" points="572.18,-58.5 572.18,-79.5 625.18,-79.5 625.18,-58.5 572.18,-58.5"/>
<text text-anchor="middle" x="598.68" y="-65.9" font-family="Helvetica,sans-Serif" font-size="12.00">stdlib.h</text>
</a>
</g>
</g>
<!-- Node8&#45;&gt;Node10 -->
<g id="edge12" class="edge">
<title>Node8&#45;&gt;Node10</title>
<path fill="none" stroke="midnightblue" d="M584.64,-116.25C586.88,-108.86 590.04,-98.47 592.79,-89.41"/>
<polygon fill="midnightblue" stroke="midnightblue" points="596.2,-90.23 595.75,-79.64 589.5,-88.19 596.2,-90.23"/>
</g>
<!-- Node11 -->
<g id="node11" class="node">
<title>Node11</title>
<g id="a_node11"><a xlink:href="../../da/d3d/data__windows__f32_8h.html" target="_top" xlink:title=" ">
<polygon fill="white" stroke="black" points="643.68,-58.5 643.68,-79.5 767.68,-79.5 767.68,-58.5 643.68,-58.5"/>
<text text-anchor="middle" x="705.68" y="-65.9" font-family="Helvetica,sans-Serif" font-size="12.00">data_windows_f32.h</text>
</a>
</g>
</g>
<!-- Node8&#45;&gt;Node11 -->
<g id="edge13" class="edge">
<title>Node8&#45;&gt;Node11</title>
<path fill="none" stroke="midnightblue" d="M603,-116.37C622.9,-107.38 652.82,-93.87 675.24,-83.75"/>
<polygon fill="midnightblue" stroke="midnightblue" points="676.97,-86.81 684.64,-79.5 674.09,-80.43 676.97,-86.81"/>
</g>
<!-- Node12&#45;&gt;Node3 -->
<g id="edge15" class="edge">
<title>Node12&#45;&gt;Node3</title>
<path fill="none" stroke="midnightblue" d="M120.81,-116.37C158.54,-106.59 216.92,-91.46 256.65,-81.16"/>
<polygon fill="midnightblue" stroke="midnightblue" points="257.77,-84.48 266.57,-78.58 256.01,-77.71 257.77,-84.48"/>
</g>
<!-- Node12&#45;&gt;Node4 -->
<g id="edge16" class="edge">
<title>Node12&#45;&gt;Node4</title>
<path fill="none" stroke="midnightblue" d="M103.79,-116.37C122.49,-107.42 150.55,-93.99 171.67,-83.88"/>
<polygon fill="midnightblue" stroke="midnightblue" points="173.32,-86.98 180.83,-79.5 170.3,-80.66 173.32,-86.98"/>
</g>
<!-- Node14&#45;&gt;Node3 -->
<g id="edge20" class="edge">
<title>Node14&#45;&gt;Node3</title>
<path fill="none" stroke="midnightblue" d="M231.96,-116.25C244.43,-107.73 262.73,-95.24 277.16,-85.38"/>
<polygon fill="midnightblue" stroke="midnightblue" points="279.28,-88.17 285.56,-79.64 275.33,-82.39 279.28,-88.17"/>
</g>
<!-- Node14&#45;&gt;Node4 -->
<g id="edge21" class="edge">
<title>Node14&#45;&gt;Node4</title>
<path fill="none" stroke="midnightblue" d="M214.72,-116.25C212.48,-108.86 209.32,-98.47 206.57,-89.41"/>
<polygon fill="midnightblue" stroke="midnightblue" points="209.86,-88.19 203.61,-79.64 203.16,-90.23 209.86,-88.19"/>
</g>
</g>
</svg>
