<?xml version="1.0" encoding="UTF-8" standalone="no"?>
<!DOCTYPE svg PUBLIC "-//W3C//DTD SVG 1.1//EN"
 "http://www.w3.org/Graphics/SVG/1.1/DTD/svg11.dtd">
<!-- Generated by graphviz version 2.47.3 (20210619.1520)
 -->
<!-- Title: skipLineComment Pages: 1 -->
<svg width="323pt" height="50pt"
 viewBox="0.00 0.00 323.00 50.00" xmlns="http://www.w3.org/2000/svg" xmlns:xlink="http://www.w3.org/1999/xlink">
<g id="graph0" class="graph" transform="scale(1 1) rotate(0) translate(4 46)">
<title>skipLineComment</title>
<polygon fill="white" stroke="transparent" points="-4,4 -4,-46 319,-46 319,4 -4,4"/>
<!-- Node1 -->
<g id="node1" class="node">
<title>Node1</title>
<g id="a_node1"><a xlink:title=" ">
<polygon fill="#bfbfbf" stroke="black" points="0,-0.5 0,-21.5 112,-21.5 112,-0.5 0,-0.5"/>
<text text-anchor="middle" x="56" y="-7.9" font-family="Helvetica,sans-Serif" font-size="12.00">skipLineComment</text>
</a>
</g>
</g>
<!-- Node2 -->
<g id="node2" class="node">
<title>Node2</title>
<g id="a_node2"><a xlink:href="../../d4/de2/wren__compiler_8c.html#a4b86346dfdb1db3a38675c77b11be8d3" target="_top" xlink:title=" ">
<polygon fill="white" stroke="black" points="148,-20.5 148,-41.5 211,-41.5 211,-20.5 148,-20.5"/>
<text text-anchor="middle" x="179.5" y="-27.9" font-family="Helvetica,sans-Serif" font-size="12.00">nextChar</text>
</a>
</g>
</g>
<!-- Node1&#45;&gt;Node2 -->
<g id="edge1" class="edge">
<title>Node1&#45;&gt;Node2</title>
<path fill="none" stroke="midnightblue" d="M112.06,-20.06C120.72,-21.49 129.52,-22.94 137.78,-24.3"/>
<polygon fill="midnightblue" stroke="midnightblue" points="137.44,-27.79 147.88,-25.96 138.58,-20.88 137.44,-27.79"/>
</g>
<!-- Node3 -->
<g id="node3" class="node">
<title>Node3</title>
<g id="a_node3"><a xlink:href="../../d4/de2/wren__compiler_8c.html#a3b5f12d504fe199f09e2651235c398a5" target="_top" xlink:title=" ">
<polygon fill="white" stroke="black" points="247,-0.5 247,-21.5 315,-21.5 315,-0.5 247,-0.5"/>
<text text-anchor="middle" x="281" y="-7.9" font-family="Helvetica,sans-Serif" font-size="12.00">peekChar</text>
</a>
</g>
</g>
<!-- Node1&#45;&gt;Node3 -->
<g id="edge3" class="edge">
<title>Node1&#45;&gt;Node3</title>
<path fill="none" stroke="midnightblue" d="M112.12,-11C150.63,-11 201.3,-11 236.87,-11"/>
<polygon fill="midnightblue" stroke="midnightblue" points="236.93,-14.5 246.93,-11 236.93,-7.5 236.93,-14.5"/>
</g>
<!-- Node2&#45;&gt;Node3 -->
<g id="edge2" class="edge">
<title>Node2&#45;&gt;Node3</title>
<path fill="none" stroke="midnightblue" d="M211.17,-24.84C219.29,-23.2 228.22,-21.41 236.87,-19.67"/>
<polygon fill="midnightblue" stroke="midnightblue" points="237.73,-23.07 246.84,-17.66 236.35,-16.2 237.73,-23.07"/>
</g>
</g>
</svg>
