<?xml version="1.0" encoding="UTF-8" standalone="no"?>
<!DOCTYPE svg PUBLIC "-//W3C//DTD SVG 1.1//EN"
 "http://www.w3.org/Graphics/SVG/1.1/DTD/svg11.dtd">
<!-- Generated by graphviz version 2.47.3 (20210619.1520)
 -->
<!-- Title: declareNamedVariable Pages: 1 -->
<svg width="1347pt" height="419pt"
 viewBox="0.00 0.00 1347.00 419.00" xmlns="http://www.w3.org/2000/svg" xmlns:xlink="http://www.w3.org/1999/xlink">
<g id="graph0" class="graph" transform="scale(1 1) rotate(0) translate(4 415)">
<title>declareNamedVariable</title>
<polygon fill="white" stroke="transparent" points="-4,4 -4,-415 1343,-415 1343,4 -4,4"/>
<!-- Node1 -->
<g id="node1" class="node">
<title>Node1</title>
<g id="a_node1"><a xlink:title=" ">
<polygon fill="#bfbfbf" stroke="black" points="1201,-100.5 1201,-121.5 1339,-121.5 1339,-100.5 1201,-100.5"/>
<text text-anchor="middle" x="1270" y="-107.9" font-family="Helvetica,sans-Serif" font-size="12.00">declareNamedVariable</text>
</a>
</g>
</g>
<!-- Node2 -->
<g id="node2" class="node">
<title>Node2</title>
<g id="a_node2"><a xlink:href="../../d4/de2/wren__compiler_8c.html#acb2713c83e03d07b11beeca8a9f58539" target="_top" xlink:title=" ">
<polygon fill="white" stroke="black" points="1059.5,-200.5 1059.5,-221.5 1152.5,-221.5 1152.5,-200.5 1059.5,-200.5"/>
<text text-anchor="middle" x="1106" y="-207.9" font-family="Helvetica,sans-Serif" font-size="12.00">classDefinition</text>
</a>
</g>
</g>
<!-- Node1&#45;&gt;Node2 -->
<g id="edge1" class="edge">
<title>Node1&#45;&gt;Node2</title>
<path fill="none" stroke="midnightblue" d="M1250.27,-128.45C1230.39,-146.21 1197.44,-173.54 1165,-191 1158.25,-194.64 1150.71,-197.81 1143.35,-200.49"/>
<polygon fill="midnightblue" stroke="midnightblue" points="1252.65,-131.02 1257.71,-121.71 1247.95,-125.84 1252.65,-131.02"/>
</g>
<!-- Node151 -->
<g id="node21" class="node">
<title>Node151</title>
<g id="a_node21"><a xlink:href="../../d4/de2/wren__compiler_8c.html#aab6a09fed2816d59ff4ec4b2d3b00e3a" target="_top" xlink:title=" ">
<polygon fill="white" stroke="black" points="1047,-40.5 1047,-61.5 1165,-61.5 1165,-40.5 1047,-40.5"/>
<text text-anchor="middle" x="1106" y="-47.9" font-family="Helvetica,sans-Serif" font-size="12.00">finishParameterList</text>
</a>
</g>
</g>
<!-- Node1&#45;&gt;Node151 -->
<g id="edge29" class="edge">
<title>Node1&#45;&gt;Node151</title>
<path fill="none" stroke="midnightblue" d="M1232.83,-96.73C1212.89,-88.95 1187.65,-79.26 1165,-71 1156.39,-67.86 1147.02,-64.58 1138.38,-61.59"/>
<polygon fill="midnightblue" stroke="midnightblue" points="1231.57,-100 1242.16,-100.38 1234.12,-93.48 1231.57,-100"/>
</g>
<!-- Node60 -->
<g id="node26" class="node">
<title>Node60</title>
<g id="a_node26"><a xlink:href="../../d4/de2/wren__compiler_8c.html#a8817c0493130cea4fe71207cf5df5426" target="_top" xlink:title=" ">
<polygon fill="white" stroke="black" points="1081,-120.5 1081,-141.5 1131,-141.5 1131,-120.5 1081,-120.5"/>
<text text-anchor="middle" x="1106" y="-127.9" font-family="Helvetica,sans-Serif" font-size="12.00">import</text>
</a>
</g>
</g>
<!-- Node1&#45;&gt;Node60 -->
<g id="edge35" class="edge">
<title>Node1&#45;&gt;Node60</title>
<path fill="none" stroke="midnightblue" d="M1190.56,-120.68C1168.98,-123.35 1147.15,-126.04 1131.22,-128.01"/>
<polygon fill="midnightblue" stroke="midnightblue" points="1191.27,-124.12 1200.77,-119.42 1190.41,-117.18 1191.27,-124.12"/>
</g>
<!-- Node156 -->
<g id="node27" class="node">
<title>Node156</title>
<g id="a_node27"><a xlink:href="../../d4/de2/wren__compiler_8c.html#a2d20d4cbad146f301f87ee2af01148c1" target="_top" xlink:title=" ">
<polygon fill="white" stroke="black" points="1062.5,-80.5 1062.5,-101.5 1149.5,-101.5 1149.5,-80.5 1062.5,-80.5"/>
<text text-anchor="middle" x="1106" y="-87.9" font-family="Helvetica,sans-Serif" font-size="12.00">infixSignature</text>
</a>
</g>
</g>
<!-- Node1&#45;&gt;Node156 -->
<g id="edge36" class="edge">
<title>Node1&#45;&gt;Node156</title>
<path fill="none" stroke="midnightblue" d="M1190.57,-101.32C1176.5,-99.58 1162.33,-97.83 1149.76,-96.28"/>
<polygon fill="midnightblue" stroke="midnightblue" points="1190.41,-104.82 1200.77,-102.58 1191.27,-97.88 1190.41,-104.82"/>
</g>
<!-- Node157 -->
<g id="node28" class="node">
<title>Node157</title>
<g id="a_node28"><a xlink:href="../../d4/de2/wren__compiler_8c.html#a9d18a27f98829f62d0d8c258197f1a17" target="_top" xlink:title=" ">
<polygon fill="white" stroke="black" points="1064.5,-160.5 1064.5,-181.5 1147.5,-181.5 1147.5,-160.5 1064.5,-160.5"/>
<text text-anchor="middle" x="1106" y="-167.9" font-family="Helvetica,sans-Serif" font-size="12.00">maybeSetter</text>
</a>
</g>
</g>
<!-- Node1&#45;&gt;Node157 -->
<g id="edge37" class="edge">
<title>Node1&#45;&gt;Node157</title>
<path fill="none" stroke="midnightblue" d="M1232.83,-125.27C1212.89,-133.05 1187.65,-142.74 1165,-151 1156.39,-154.14 1147.02,-157.42 1138.38,-160.41"/>
<polygon fill="midnightblue" stroke="midnightblue" points="1234.12,-128.52 1242.16,-121.62 1231.57,-122 1234.12,-128.52"/>
</g>
<!-- Node158 -->
<g id="node29" class="node">
<title>Node158</title>
<g id="a_node29"><a xlink:href="../../d4/de2/wren__compiler_8c.html#aae9d87e942ec21e7de756387b4f28f6a" target="_top" xlink:title=" ">
<polygon fill="white" stroke="black" points="1057,-0.5 1057,-21.5 1155,-21.5 1155,-0.5 1057,-0.5"/>
<text text-anchor="middle" x="1106" y="-7.9" font-family="Helvetica,sans-Serif" font-size="12.00">mixedSignature</text>
</a>
</g>
</g>
<!-- Node1&#45;&gt;Node158 -->
<g id="edge40" class="edge">
<title>Node1&#45;&gt;Node158</title>
<path fill="none" stroke="midnightblue" d="M1250.27,-93.55C1230.39,-75.79 1197.44,-48.46 1165,-31 1158.25,-27.36 1150.71,-24.19 1143.35,-21.51"/>
<polygon fill="midnightblue" stroke="midnightblue" points="1247.95,-96.16 1257.71,-100.29 1252.65,-90.98 1247.95,-96.16"/>
</g>
<!-- Node3 -->
<g id="node3" class="node">
<title>Node3</title>
<g id="a_node3"><a xlink:href="../../d4/de2/wren__compiler_8c.html#a3909aa8ee9218228fe302cab2e0d5d2f" target="_top" xlink:title=" ">
<polygon fill="white" stroke="black" points="917,-198.5 917,-219.5 981,-219.5 981,-198.5 917,-198.5"/>
<text text-anchor="middle" x="949" y="-205.9" font-family="Helvetica,sans-Serif" font-size="12.00">definition</text>
</a>
</g>
</g>
<!-- Node2&#45;&gt;Node3 -->
<g id="edge2" class="edge">
<title>Node2&#45;&gt;Node3</title>
<path fill="none" stroke="midnightblue" d="M1049.04,-210.28C1026.16,-209.98 1000.56,-209.65 981.12,-209.4"/>
<polygon fill="midnightblue" stroke="midnightblue" points="1049.29,-213.78 1059.33,-210.41 1049.38,-206.78 1049.29,-213.78"/>
</g>
<!-- Node4 -->
<g id="node4" class="node">
<title>Node4</title>
<g id="a_node4"><a xlink:href="../../d4/de2/wren__compiler_8c.html#ad911c5983e96a9527dac91f1c86607ec" target="_top" xlink:title=" ">
<polygon fill="white" stroke="black" points="763,-120.5 763,-141.5 836,-141.5 836,-120.5 763,-120.5"/>
<text text-anchor="middle" x="799.5" y="-127.9" font-family="Helvetica,sans-Serif" font-size="12.00">finishBlock</text>
</a>
</g>
</g>
<!-- Node3&#45;&gt;Node4 -->
<g id="edge3" class="edge">
<title>Node3&#45;&gt;Node4</title>
<path fill="none" stroke="midnightblue" d="M908.1,-194.48C900.91,-191.35 893.6,-187.83 887,-184 869.46,-173.84 868.17,-166.77 851,-156 842.63,-150.75 833,-145.75 824.42,-141.62"/>
<polygon fill="midnightblue" stroke="midnightblue" points="907.18,-197.89 917.75,-198.49 909.86,-191.42 907.18,-197.89"/>
</g>
<!-- Node110 -->
<g id="node20" class="node">
<title>Node110</title>
<g id="a_node20"><a xlink:href="../../d4/de2/wren__compiler_8c.html#aedcc023430c3c9b1891dbdc4f7b8f0b8" target="_top" xlink:title=" ">
<polygon fill="white" stroke="red" points="756.5,-198.5 756.5,-219.5 842.5,-219.5 842.5,-198.5 756.5,-198.5"/>
<text text-anchor="middle" x="799.5" y="-205.9" font-family="Helvetica,sans-Serif" font-size="12.00">wrenCompile</text>
</a>
</g>
</g>
<!-- Node3&#45;&gt;Node110 -->
<g id="edge28" class="edge">
<title>Node3&#45;&gt;Node110</title>
<path fill="none" stroke="midnightblue" d="M906.67,-209C886.69,-209 862.74,-209 842.65,-209"/>
<polygon fill="midnightblue" stroke="midnightblue" points="906.72,-212.5 916.72,-209 906.72,-205.5 906.72,-212.5"/>
</g>
<!-- Node5 -->
<g id="node5" class="node">
<title>Node5</title>
<g id="a_node5"><a xlink:href="../../d4/de2/wren__compiler_8c.html#ac1514744dedaa4c087738a38405e3778" target="_top" xlink:title=" ">
<polygon fill="white" stroke="black" points="641,-119.5 641,-140.5 712,-140.5 712,-119.5 641,-119.5"/>
<text text-anchor="middle" x="676.5" y="-126.9" font-family="Helvetica,sans-Serif" font-size="12.00">finishBody</text>
</a>
</g>
</g>
<!-- Node4&#45;&gt;Node5 -->
<g id="edge4" class="edge">
<title>Node4&#45;&gt;Node5</title>
<path fill="none" stroke="midnightblue" d="M752.78,-130.62C739.28,-130.51 724.73,-130.39 712.06,-130.29"/>
<polygon fill="midnightblue" stroke="midnightblue" points="752.82,-134.12 762.85,-130.71 752.88,-127.12 752.82,-134.12"/>
</g>
<!-- Node64 -->
<g id="node19" class="node">
<title>Node64</title>
<g id="a_node19"><a xlink:href="../../d4/de2/wren__compiler_8c.html#a1b50adda3f611e35b1bf68776af68f6d" target="_top" xlink:title=" ">
<polygon fill="white" stroke="red" points="642.5,-159.5 642.5,-180.5 710.5,-180.5 710.5,-159.5 642.5,-159.5"/>
<text text-anchor="middle" x="676.5" y="-166.9" font-family="Helvetica,sans-Serif" font-size="12.00">statement</text>
</a>
</g>
</g>
<!-- Node4&#45;&gt;Node64 -->
<g id="edge26" class="edge">
<title>Node4&#45;&gt;Node64</title>
<path fill="none" stroke="midnightblue" d="M756.15,-144.65C741.1,-149.5 724.4,-154.88 710.27,-159.44"/>
<polygon fill="midnightblue" stroke="midnightblue" points="757.31,-147.95 765.76,-141.55 755.16,-141.29 757.31,-147.95"/>
</g>
<!-- Node6 -->
<g id="node6" class="node">
<title>Node6</title>
<g id="a_node6"><a xlink:href="../../d4/de2/wren__compiler_8c.html#a280648a47237a52319d293ace8edb7c8" target="_top" xlink:title=" ">
<polygon fill="white" stroke="black" points="539,-231.5 539,-252.5 595,-252.5 595,-231.5 539,-231.5"/>
<text text-anchor="middle" x="567" y="-238.9" font-family="Helvetica,sans-Serif" font-size="12.00">method</text>
</a>
</g>
</g>
<!-- Node5&#45;&gt;Node6 -->
<g id="edge5" class="edge">
<title>Node5&#45;&gt;Node6</title>
<path fill="none" stroke="midnightblue" d="M645.72,-146.25C644.08,-147.46 642.49,-148.71 641,-150 612,-175.06 586.22,-212.93 574.58,-231.28"/>
<polygon fill="midnightblue" stroke="midnightblue" points="647.8,-149.08 654.22,-140.66 643.95,-143.24 647.8,-149.08"/>
</g>
<!-- Node54 -->
<g id="node16" class="node">
<title>Node54</title>
<g id="a_node16"><a xlink:href="../../d4/de2/wren__compiler_8c.html#a7427f00898251d026c3b69ab90b92ed6" target="_top" xlink:title=" ">
<polygon fill="white" stroke="black" points="529,-22.5 529,-43.5 605,-43.5 605,-22.5 529,-22.5"/>
<text text-anchor="middle" x="567" y="-29.9" font-family="Helvetica,sans-Serif" font-size="12.00">methodCall</text>
</a>
</g>
</g>
<!-- Node5&#45;&gt;Node54 -->
<g id="edge22" class="edge">
<title>Node5&#45;&gt;Node54</title>
<path fill="none" stroke="midnightblue" d="M656.04,-112.44C633.76,-92.34 597.97,-60.04 579.64,-43.5"/>
<polygon fill="midnightblue" stroke="midnightblue" points="653.82,-115.15 663.58,-119.25 658.51,-109.95 653.82,-115.15"/>
</g>
<!-- Node6&#45;&gt;Node2 -->
<g id="edge10" class="edge">
<title>Node6&#45;&gt;Node2</title>
<path fill="none" stroke="midnightblue" d="M605.14,-242.91C681.44,-244.33 861.25,-245.43 1011,-229 1026.86,-227.26 1044.04,-224.29 1059.32,-221.27"/>
<polygon fill="midnightblue" stroke="midnightblue" points="605.14,-239.41 595.07,-242.71 605,-246.41 605.14,-239.41"/>
</g>
<!-- Node7 -->
<g id="node7" class="node">
<title>Node7</title>
<g id="a_node7"><a xlink:href="../../de/db2/wren__vm_8c.html#a774b44fd4c8b7ad7531f001178ee66f2" target="_top" xlink:title=" ">
<polygon fill="white" stroke="red" points="219,-280.5 219,-301.5 329,-301.5 329,-280.5 219,-280.5"/>
<text text-anchor="middle" x="274" y="-287.9" font-family="Helvetica,sans-Serif" font-size="12.00">bindForeignClass</text>
</a>
</g>
</g>
<!-- Node6&#45;&gt;Node7 -->
<g id="edge6" class="edge">
<title>Node6&#45;&gt;Node7</title>
<path fill="none" stroke="midnightblue" d="M550.41,-260.42C536.91,-274.84 515.98,-293.77 493,-302 432.89,-323.53 357.46,-311.95 312.93,-301.52"/>
<polygon fill="midnightblue" stroke="midnightblue" points="553.38,-262.35 557.46,-252.57 548.17,-257.68 553.38,-262.35"/>
</g>
<!-- Node31 -->
<g id="node8" class="node">
<title>Node31</title>
<g id="a_node8"><a xlink:href="../../de/db2/wren__vm_8c.html#ac1a65601a290fe012a862d25e78b0399" target="_top" xlink:title=" ">
<polygon fill="white" stroke="black" points="235,-221.5 235,-242.5 313,-242.5 313,-221.5 235,-221.5"/>
<text text-anchor="middle" x="274" y="-228.9" font-family="Helvetica,sans-Serif" font-size="12.00">bindMethod</text>
</a>
</g>
</g>
<!-- Node6&#45;&gt;Node31 -->
<g id="edge7" class="edge">
<title>Node6&#45;&gt;Node31</title>
<path fill="none" stroke="midnightblue" d="M529.27,-229.88C517.79,-226.65 504.99,-223.61 493,-222 430.48,-213.59 357.07,-220.35 313.38,-226.1"/>
<polygon fill="midnightblue" stroke="midnightblue" points="528.39,-233.27 538.97,-232.74 530.37,-226.55 528.39,-233.27"/>
</g>
<!-- Node9 -->
<g id="node9" class="node">
<title>Node9</title>
<g id="a_node9"><a xlink:href="../../de/db2/wren__vm_8c.html#ade1e713227c5685b4747c982aab961c4" target="_top" xlink:title=" ">
<polygon fill="white" stroke="red" points="98,-134.5 98,-155.5 183,-155.5 183,-134.5 98,-134.5"/>
<text text-anchor="middle" x="140.5" y="-141.9" font-family="Helvetica,sans-Serif" font-size="12.00">runInterpreter</text>
</a>
</g>
</g>
<!-- Node6&#45;&gt;Node9 -->
<g id="edge15" class="edge">
<title>Node6&#45;&gt;Node9</title>
<path fill="none" stroke="midnightblue" d="M532.32,-227.69C520.1,-222.87 506.07,-217.76 493,-214 383.03,-182.37 249.56,-160.56 183.18,-150.8"/>
<polygon fill="midnightblue" stroke="midnightblue" points="531.11,-230.97 541.69,-231.47 533.73,-224.48 531.11,-230.97"/>
</g>
<!-- Node10 -->
<g id="node10" class="node">
<title>Node10</title>
<g id="a_node10"><a xlink:href="../../dd/d19/wren_8h.html#a4bbb5e4dc3f5b794c88b4210e30927ba" target="_top" xlink:title=" ">
<polygon fill="white" stroke="red" points="0,-105.5 0,-126.5 62,-126.5 62,-105.5 0,-105.5"/>
<text text-anchor="middle" x="31" y="-112.9" font-family="Helvetica,sans-Serif" font-size="12.00">wrenCall</text>
</a>
</g>
</g>
<!-- Node6&#45;&gt;Node10 -->
<g id="edge19" class="edge">
<title>Node6&#45;&gt;Node10</title>
<path fill="none" stroke="midnightblue" d="M560.56,-221.36C551.72,-192.43 531.27,-140.7 493,-117 353.01,-30.28 140.26,-82.31 62.13,-106.08"/>
<polygon fill="midnightblue" stroke="midnightblue" points="557.27,-222.58 563.39,-231.23 563.99,-220.65 557.27,-222.58"/>
</g>
<!-- Node32 -->
<g id="node11" class="node">
<title>Node32</title>
<g id="a_node11"><a xlink:href="../../de/db2/wren__vm_8c.html#a5020cc736d0f9d681e5bed6f2804bf5a" target="_top" xlink:title=" ">
<polygon fill="white" stroke="black" points="229,-115.5 229,-136.5 319,-136.5 319,-115.5 229,-115.5"/>
<text text-anchor="middle" x="274" y="-122.9" font-family="Helvetica,sans-Serif" font-size="12.00">createForeign</text>
</a>
</g>
</g>
<!-- Node6&#45;&gt;Node32 -->
<g id="edge11" class="edge">
<title>Node6&#45;&gt;Node32</title>
<path fill="none" stroke="midnightblue" d="M556.3,-222.39C544.52,-200.89 522.52,-167.3 493,-151 438.81,-121.08 365.57,-119.07 319.31,-121.59"/>
<polygon fill="midnightblue" stroke="midnightblue" points="553.23,-224.08 560.98,-231.31 559.43,-220.82 553.23,-224.08"/>
</g>
<!-- Node33 -->
<g id="node12" class="node">
<title>Node33</title>
<g id="a_node12"><a xlink:href="../../de/db2/wren__vm_8c.html#af338fc167f40b3e51e4290d44ec4ce19" target="_top" xlink:title=" ">
<polygon fill="white" stroke="black" points="371.5,-231.5 371.5,-252.5 486.5,-252.5 486.5,-231.5 371.5,-231.5"/>
<text text-anchor="middle" x="429" y="-238.9" font-family="Helvetica,sans-Serif" font-size="12.00">findForeignMethod</text>
</a>
</g>
</g>
<!-- Node6&#45;&gt;Node33 -->
<g id="edge13" class="edge">
<title>Node6&#45;&gt;Node33</title>
<path fill="none" stroke="midnightblue" d="M528.44,-242C515.52,-242 500.75,-242 486.66,-242"/>
<polygon fill="midnightblue" stroke="midnightblue" points="528.81,-245.5 538.81,-242 528.81,-238.5 528.81,-245.5"/>
</g>
<!-- Node34 -->
<g id="node13" class="node">
<title>Node34</title>
<g id="a_node13"><a xlink:href="../../da/dbe/wren__value_8c.html#aa6e32aab368f689ded9f419739fe6915" target="_top" xlink:title=" ">
<polygon fill="white" stroke="red" points="377,-271.5 377,-292.5 481,-292.5 481,-271.5 377,-271.5"/>
<text text-anchor="middle" x="429" y="-278.9" font-family="Helvetica,sans-Serif" font-size="12.00">wrenBindMethod</text>
</a>
</g>
</g>
<!-- Node6&#45;&gt;Node34 -->
<g id="edge16" class="edge">
<title>Node6&#45;&gt;Node34</title>
<path fill="none" stroke="midnightblue" d="M528.99,-252.88C509.37,-258.66 485.37,-265.71 465.92,-271.44"/>
<polygon fill="midnightblue" stroke="midnightblue" points="530.2,-256.18 538.81,-250 528.22,-249.46 530.2,-256.18"/>
</g>
<!-- Node37 -->
<g id="node14" class="node">
<title>Node37</title>
<g id="a_node14"><a xlink:href="../../de/db2/wren__vm_8c.html#a443e764ebdacef5995484adea8b9d447" target="_top" xlink:title=" ">
<polygon fill="white" stroke="red" points="368,-389.5 368,-410.5 490,-410.5 490,-389.5 368,-389.5"/>
<text text-anchor="middle" x="429" y="-396.9" font-family="Helvetica,sans-Serif" font-size="12.00">wrenFinalizeForeign</text>
</a>
</g>
</g>
<!-- Node6&#45;&gt;Node37 -->
<g id="edge20" class="edge">
<title>Node6&#45;&gt;Node37</title>
<path fill="none" stroke="midnightblue" d="M560.54,-262.6C551.51,-292.71 530.61,-348.59 493,-380 488.42,-383.83 483.1,-386.92 477.53,-389.43"/>
<polygon fill="midnightblue" stroke="midnightblue" points="563.97,-263.34 563.34,-252.76 557.24,-261.42 563.97,-263.34"/>
</g>
<!-- Node53 -->
<g id="node15" class="node">
<title>Node53</title>
<g id="a_node15"><a xlink:href="../../dd/d19/wren_8h.html#abe767089c421873af8384fba0934cd26" target="_top" xlink:title=" ">
<polygon fill="white" stroke="red" points="365,-349.5 365,-370.5 493,-370.5 493,-349.5 365,-349.5"/>
<text text-anchor="middle" x="429" y="-356.9" font-family="Helvetica,sans-Serif" font-size="12.00">wrenMakeCallHandle</text>
</a>
</g>
</g>
<!-- Node6&#45;&gt;Node53 -->
<g id="edge21" class="edge">
<title>Node6&#45;&gt;Node53</title>
<path fill="none" stroke="midnightblue" d="M554.95,-261.59C542.35,-282.34 519.97,-314.85 493,-335 484.99,-340.99 475.35,-345.75 466.05,-349.45"/>
<polygon fill="midnightblue" stroke="midnightblue" points="558.12,-263.1 560.18,-252.7 552.09,-259.55 558.12,-263.1"/>
</g>
<!-- Node31&#45;&gt;Node9 -->
<g id="edge8" class="edge">
<title>Node31&#45;&gt;Node9</title>
<path fill="none" stroke="midnightblue" d="M248.51,-215.8C222.01,-198.27 180.5,-170.81 157.76,-155.76"/>
<polygon fill="midnightblue" stroke="midnightblue" points="246.6,-218.73 256.88,-221.33 250.47,-212.9 246.6,-218.73"/>
</g>
<!-- Node9&#45;&gt;Node10 -->
<g id="edge9" class="edge">
<title>Node9&#45;&gt;Node10</title>
<path fill="none" stroke="midnightblue" d="M90.46,-131.77C80.81,-129.17 70.95,-126.51 62.15,-124.13"/>
<polygon fill="midnightblue" stroke="midnightblue" points="89.82,-135.22 100.39,-134.45 91.64,-128.46 89.82,-135.22"/>
</g>
<!-- Node32&#45;&gt;Node9 -->
<g id="edge12" class="edge">
<title>Node32&#45;&gt;Node9</title>
<path fill="none" stroke="midnightblue" d="M218.59,-133.86C206.73,-135.57 194.36,-137.36 183.09,-138.99"/>
<polygon fill="midnightblue" stroke="midnightblue" points="219.45,-137.27 228.85,-132.38 218.45,-130.35 219.45,-137.27"/>
</g>
<!-- Node33&#45;&gt;Node31 -->
<g id="edge14" class="edge">
<title>Node33&#45;&gt;Node31</title>
<path fill="none" stroke="midnightblue" d="M361.32,-237.64C344.86,-236.57 327.78,-235.45 313.2,-234.5"/>
<polygon fill="midnightblue" stroke="midnightblue" points="361.26,-241.15 371.46,-238.3 361.71,-234.16 361.26,-241.15"/>
</g>
<!-- Node34&#45;&gt;Node7 -->
<g id="edge17" class="edge">
<title>Node34&#45;&gt;Node7</title>
<path fill="none" stroke="midnightblue" d="M366.41,-285.62C354.07,-286.35 341.19,-287.11 329.12,-287.82"/>
<polygon fill="midnightblue" stroke="midnightblue" points="366.85,-289.1 376.63,-285.02 366.44,-282.12 366.85,-289.1"/>
</g>
<!-- Node34&#45;&gt;Node31 -->
<g id="edge18" class="edge">
<title>Node34&#45;&gt;Node31</title>
<path fill="none" stroke="midnightblue" d="M384.75,-268.36C378.13,-266.25 371.38,-264.08 365,-262 345.42,-255.63 323.51,-248.33 306.2,-242.52"/>
<polygon fill="midnightblue" stroke="midnightblue" points="383.7,-271.7 394.3,-271.4 385.83,-265.03 383.7,-271.7"/>
</g>
<!-- Node55 -->
<g id="node17" class="node">
<title>Node55</title>
<g id="a_node17"><a xlink:href="../../d4/de2/wren__compiler_8c.html#a16fd4c5c52c951aed01a1d0fcd6d71aa" target="_top" xlink:title=" ">
<polygon fill="white" stroke="red" points="392.5,-27.5 392.5,-48.5 465.5,-48.5 465.5,-27.5 392.5,-27.5"/>
<text text-anchor="middle" x="429" y="-34.9" font-family="Helvetica,sans-Serif" font-size="12.00">namedCall</text>
</a>
</g>
</g>
<!-- Node54&#45;&gt;Node55 -->
<g id="edge23" class="edge">
<title>Node54&#45;&gt;Node55</title>
<path fill="none" stroke="midnightblue" d="M518.36,-34.75C501.05,-35.39 481.81,-36.1 465.71,-36.69"/>
<polygon fill="midnightblue" stroke="midnightblue" points="518.97,-38.23 528.84,-34.37 518.72,-31.24 518.97,-38.23"/>
</g>
<!-- Node141 -->
<g id="node18" class="node">
<title>Node141</title>
<g id="a_node18"><a xlink:href="../../d4/de2/wren__compiler_8c.html#a82a42c1b41759f79a9e76c4c5a898ede" target="_top" xlink:title=" ">
<polygon fill="white" stroke="black" points="247.5,-8.5 247.5,-29.5 300.5,-29.5 300.5,-8.5 247.5,-8.5"/>
<text text-anchor="middle" x="274" y="-15.9" font-family="Helvetica,sans-Serif" font-size="12.00">super_</text>
</a>
</g>
</g>
<!-- Node54&#45;&gt;Node141 -->
<g id="edge25" class="edge">
<title>Node54&#45;&gt;Node141</title>
<path fill="none" stroke="midnightblue" d="M518.86,-21.86C510.3,-20.25 501.42,-18.86 493,-18 423.72,-10.96 341.41,-14.55 300.59,-17.14"/>
<polygon fill="midnightblue" stroke="midnightblue" points="518.22,-25.3 528.71,-23.82 519.59,-18.44 518.22,-25.3"/>
</g>
<!-- Node55&#45;&gt;Node141 -->
<g id="edge24" class="edge">
<title>Node55&#45;&gt;Node141</title>
<path fill="none" stroke="midnightblue" d="M381.87,-32.27C355.23,-28.96 322.72,-24.93 300.61,-22.18"/>
<polygon fill="midnightblue" stroke="midnightblue" points="381.77,-35.79 392.13,-33.55 382.64,-28.84 381.77,-35.79"/>
</g>
<!-- Node64&#45;&gt;Node3 -->
<g id="edge27" class="edge">
<title>Node64&#45;&gt;Node3</title>
<path fill="none" stroke="midnightblue" d="M720.96,-173.61C756.14,-176.82 806.92,-182.06 851,-189 873.08,-192.48 897.75,-197.58 916.68,-201.76"/>
<polygon fill="midnightblue" stroke="midnightblue" points="720.83,-170.09 710.56,-172.69 720.21,-177.06 720.83,-170.09"/>
</g>
<!-- Node151&#45;&gt;Node54 -->
<g id="edge31" class="edge">
<title>Node151&#45;&gt;Node54</title>
<path fill="none" stroke="midnightblue" d="M1054.63,-38.25C1040.6,-35.26 1025.29,-32.5 1011,-31 861.27,-15.25 681.51,-24.75 605.18,-30.1"/>
<polygon fill="midnightblue" stroke="midnightblue" points="1054.06,-41.71 1064.58,-40.46 1055.58,-34.88 1054.06,-41.71"/>
</g>
<!-- Node152 -->
<g id="node22" class="node">
<title>Node152</title>
<g id="a_node22"><a xlink:href="../../d4/de2/wren__compiler_8c.html#aff6717562bb3c8c6b5d6f23b43b510b2" target="_top" xlink:title=" ">
<polygon fill="white" stroke="black" points="887,-40.5 887,-61.5 1011,-61.5 1011,-40.5 887,-40.5"/>
<text text-anchor="middle" x="949" y="-47.9" font-family="Helvetica,sans-Serif" font-size="12.00">constructorSignature</text>
</a>
</g>
</g>
<!-- Node151&#45;&gt;Node152 -->
<g id="edge30" class="edge">
<title>Node151&#45;&gt;Node152</title>
<path fill="none" stroke="midnightblue" d="M1036.58,-51C1028.09,-51 1019.45,-51 1011.07,-51"/>
<polygon fill="midnightblue" stroke="midnightblue" points="1036.84,-54.5 1046.84,-51 1036.84,-47.5 1036.84,-54.5"/>
</g>
<!-- Node153 -->
<g id="node23" class="node">
<title>Node153</title>
<g id="a_node23"><a xlink:href="../../d4/de2/wren__compiler_8c.html#a00d4650384afa8e4b934f2dda47fd044" target="_top" xlink:title=" ">
<polygon fill="white" stroke="black" points="904.5,-80.5 904.5,-101.5 993.5,-101.5 993.5,-80.5 904.5,-80.5"/>
<text text-anchor="middle" x="949" y="-87.9" font-family="Helvetica,sans-Serif" font-size="12.00">parameterList</text>
</a>
</g>
</g>
<!-- Node151&#45;&gt;Node153 -->
<g id="edge32" class="edge">
<title>Node151&#45;&gt;Node153</title>
<path fill="none" stroke="midnightblue" d="M1054.41,-64.06C1033.77,-69.38 1010.22,-75.46 990.72,-80.49"/>
<polygon fill="midnightblue" stroke="midnightblue" points="1055.47,-67.4 1064.28,-61.51 1053.72,-60.62 1055.47,-67.4"/>
</g>
<!-- Node155 -->
<g id="node25" class="node">
<title>Node155</title>
<g id="a_node25"><a xlink:href="../../d4/de2/wren__compiler_8c.html#a3753cc085696e463597365c204ac56f3" target="_top" xlink:title=" ">
<polygon fill="white" stroke="black" points="892,-120.5 892,-141.5 1006,-141.5 1006,-120.5 892,-120.5"/>
<text text-anchor="middle" x="949" y="-127.9" font-family="Helvetica,sans-Serif" font-size="12.00">subscriptSignature</text>
</a>
</g>
</g>
<!-- Node151&#45;&gt;Node155 -->
<g id="edge34" class="edge">
<title>Node151&#45;&gt;Node155</title>
<path fill="none" stroke="midnightblue" d="M1056.31,-65.67C1053.07,-67.29 1049.93,-69.06 1047,-71 1027.06,-84.21 1031.04,-97.94 1011,-111 1005.21,-114.77 998.65,-117.89 992.02,-120.45"/>
<polygon fill="midnightblue" stroke="midnightblue" points="1057.93,-68.78 1065.65,-61.52 1055.09,-62.38 1057.93,-68.78"/>
</g>
<!-- Node154 -->
<g id="node24" class="node">
<title>Node154</title>
<g id="a_node24"><a xlink:href="../../d4/de2/wren__compiler_8c.html#a89156fcf9589f1e896bfcfede5fe8e78" target="_top" xlink:title=" ">
<polygon fill="white" stroke="black" points="748,-80.5 748,-101.5 851,-101.5 851,-80.5 748,-80.5"/>
<text text-anchor="middle" x="799.5" y="-87.9" font-family="Helvetica,sans-Serif" font-size="12.00">namedSignature</text>
</a>
</g>
</g>
<!-- Node153&#45;&gt;Node154 -->
<g id="edge33" class="edge">
<title>Node153&#45;&gt;Node154</title>
<path fill="none" stroke="midnightblue" d="M894.14,-91C880.11,-91 865.05,-91 851.19,-91"/>
<polygon fill="midnightblue" stroke="midnightblue" points="894.14,-94.5 904.14,-91 894.14,-87.5 894.14,-94.5"/>
</g>
<!-- Node157&#45;&gt;Node154 -->
<g id="edge38" class="edge">
<title>Node157&#45;&gt;Node154</title>
<path fill="none" stroke="midnightblue" d="M1054.38,-176.46C1008.29,-179.16 939.59,-177.37 887,-151 865.62,-140.28 870.64,-124.65 851,-111 845.74,-107.34 839.7,-104.21 833.69,-101.59"/>
<polygon fill="midnightblue" stroke="midnightblue" points="1054.7,-179.94 1064.44,-175.78 1054.22,-172.96 1054.7,-179.94"/>
</g>
<!-- Node157&#45;&gt;Node155 -->
<g id="edge39" class="edge">
<title>Node157&#45;&gt;Node155</title>
<path fill="none" stroke="midnightblue" d="M1054.41,-157.94C1033.77,-152.62 1010.22,-146.54 990.72,-141.51"/>
<polygon fill="midnightblue" stroke="midnightblue" points="1053.72,-161.38 1064.28,-160.49 1055.47,-154.6 1053.72,-161.38"/>
</g>
</g>
</svg>
