<?xml version="1.0" encoding="UTF-8" standalone="no"?>
<!DOCTYPE svg PUBLIC "-//W3C//DTD SVG 1.1//EN"
 "http://www.w3.org/Graphics/SVG/1.1/DTD/svg11.dtd">
<!-- Generated by graphviz version 2.47.3 (20210619.1520)
 -->
<!-- Title: disallowAttributes Pages: 1 -->
<!--zoomable 500 -->
<svg id="main" version="1.1" xmlns="http://www.w3.org/2000/svg" xmlns:xlink="http://www.w3.org/1999/xlink" xml:space="preserve" onload="init(evt)">
<style type="text/css"><![CDATA[
.edge:hover path { stroke: red; }
.edge:hover polygon { stroke: red; fill: red; }
]]></style>
<script type="text/javascript"><![CDATA[
var edges = document.getElementsByTagName('g');
if (edges && edges.length) {
  for (var i=0;i<edges.length;i++) {
    if (edges[i].id.substr(0,4)=='edge') {
      edges[i].setAttribute('class','edge');
    }
  }
}
]]></script>
        <defs>
                <circle id="rim" cx="0" cy="0" r="7"/>
                <circle id="rim2" cx="0" cy="0" r="3.5"/>
                <g id="zoomPlus">
                        <use xlink:href="#rim" fill="#404040">
                                <set attributeName="fill" to="#808080" begin="zoomplus.mouseover" end="zoomplus.mouseout"/>
                        </use>
                        <path d="M-4,0h8M0,-4v8" fill="none" stroke="white" stroke-width="1.5" pointer-events="none"/>
                </g>
                <g id="zoomMin">
                        <use xlink:href="#rim" fill="#404040">
                                <set attributeName="fill" to="#808080" begin="zoomminus.mouseover" end="zoomminus.mouseout"/>
                        </use>
                        <path d="M-4,0h8" fill="none" stroke="white" stroke-width="1.5" pointer-events="none"/>
                </g>
                <g id="dirArrow">
                        <path fill="none" stroke="white" stroke-width="1.5" d="M0,-3.0v7 M-2.5,-0.5L0,-3.0L2.5,-0.5"/>
                </g>
               <g id="resetDef">
                       <use xlink:href="#rim2" fill="#404040">
                               <set attributeName="fill" to="#808080" begin="reset.mouseover" end="reset.mouseout"/>
                       </use>
               </g>
        </defs>

<script type="text/javascript">
var viewWidth = 1261;
var viewHeight = 500;
var sectionId = 'dynsection-48';
</script>
<script xlink:href="../../svgpan.js"/>
<svg id="graph" class="graph">
<g id="viewport">
<title>disallowAttributes</title>
<polygon fill="white" stroke="transparent" points="-4,4 -4,-496 1257,-496 1257,4 -4,4"/>
<!-- Node1 -->
<g id="node1" class="node">
<title>Node1</title>
<g id="a_node1"><a xlink:title=" ">
<polygon fill="#bfbfbf" stroke="black" points="1145,-108.5 1145,-129.5 1253,-129.5 1253,-108.5 1145,-108.5"/>
<text text-anchor="middle" x="1199" y="-115.9" font-family="Helvetica,sans-Serif" font-size="12.00">disallowAttributes</text>
</a>
</g>
</g>
<!-- Node2 -->
<g id="node2" class="node">
<title>Node2</title>
<g id="a_node2"><a xlink:href="../../d4/de2/wren__compiler_8c.html#a3909aa8ee9218228fe302cab2e0d5d2f" target="_top" xlink:title=" ">
<polygon fill="white" stroke="black" points="1045,-108.5 1045,-129.5 1109,-129.5 1109,-108.5 1045,-108.5"/>
<text text-anchor="middle" x="1077" y="-115.9" font-family="Helvetica,sans-Serif" font-size="12.00">definition</text>
</a>
</g>
</g>
<!-- Node1&#45;&gt;Node2 -->
<g id="edge1" class="edge">
<title>Node1&#45;&gt;Node2</title>
<path fill="none" stroke="midnightblue" d="M1134.66,-119C1125.8,-119 1117.04,-119 1109.15,-119"/>
<polygon fill="midnightblue" stroke="midnightblue" points="1134.67,-122.5 1144.67,-119 1134.67,-115.5 1134.67,-122.5"/>
</g>
<!-- Node3 -->
<g id="node3" class="node">
<title>Node3</title>
<g id="a_node3"><a xlink:href="../../d4/de2/wren__compiler_8c.html#ad911c5983e96a9527dac91f1c86607ec" target="_top" xlink:title=" ">
<polygon fill="white" stroke="black" points="929.5,-168.5 929.5,-189.5 1002.5,-189.5 1002.5,-168.5 929.5,-168.5"/>
<text text-anchor="middle" x="966" y="-175.9" font-family="Helvetica,sans-Serif" font-size="12.00">finishBlock</text>
</a>
</g>
</g>
<!-- Node2&#45;&gt;Node3 -->
<g id="edge2" class="edge">
<title>Node2&#45;&gt;Node3</title>
<path fill="none" stroke="midnightblue" d="M1050.34,-135.09C1038,-142.63 1022.9,-151.56 1009,-159 1003.02,-162.2 996.44,-165.45 990.3,-168.38"/>
<polygon fill="midnightblue" stroke="midnightblue" points="1052.5,-137.87 1059.18,-129.64 1048.83,-131.91 1052.5,-137.87"/>
</g>
<!-- Node119 -->
<g id="node26" class="node">
<title>Node119</title>
<g id="a_node26"><a xlink:href="../../d4/de2/wren__compiler_8c.html#aedcc023430c3c9b1891dbdc4f7b8f0b8" target="_top" xlink:title=" ">
<polygon fill="white" stroke="red" points="923,-128.5 923,-149.5 1009,-149.5 1009,-128.5 923,-128.5"/>
<text text-anchor="middle" x="966" y="-135.9" font-family="Helvetica,sans-Serif" font-size="12.00">wrenCompile</text>
</a>
</g>
</g>
<!-- Node2&#45;&gt;Node119 -->
<g id="edge35" class="edge">
<title>Node2&#45;&gt;Node119</title>
<path fill="none" stroke="midnightblue" d="M1034.83,-126.55C1026.45,-128.09 1017.62,-129.71 1009.21,-131.25"/>
<polygon fill="midnightblue" stroke="midnightblue" points="1035.56,-129.98 1044.76,-124.73 1034.3,-123.09 1035.56,-129.98"/>
</g>
<!-- Node4 -->
<g id="node4" class="node">
<title>Node4</title>
<g id="a_node4"><a xlink:href="../../d4/de2/wren__compiler_8c.html#ac1514744dedaa4c087738a38405e3778" target="_top" xlink:title=" ">
<polygon fill="white" stroke="black" points="816,-178.5 816,-199.5 887,-199.5 887,-178.5 816,-178.5"/>
<text text-anchor="middle" x="851.5" y="-185.9" font-family="Helvetica,sans-Serif" font-size="12.00">finishBody</text>
</a>
</g>
</g>
<!-- Node3&#45;&gt;Node4 -->
<g id="edge3" class="edge">
<title>Node3&#45;&gt;Node4</title>
<path fill="none" stroke="midnightblue" d="M919.31,-183.06C908.56,-184.02 897.27,-185.02 887.09,-185.92"/>
<polygon fill="midnightblue" stroke="midnightblue" points="919.75,-186.54 929.4,-182.16 919.13,-179.56 919.75,-186.54"/>
</g>
<!-- Node73 -->
<g id="node25" class="node">
<title>Node73</title>
<g id="a_node25"><a xlink:href="../../d4/de2/wren__compiler_8c.html#a1b50adda3f611e35b1bf68776af68f6d" target="_top" xlink:title=" ">
<polygon fill="white" stroke="red" points="817.5,-119.5 817.5,-140.5 885.5,-140.5 885.5,-119.5 817.5,-119.5"/>
<text text-anchor="middle" x="851.5" y="-126.9" font-family="Helvetica,sans-Serif" font-size="12.00">statement</text>
</a>
</g>
</g>
<!-- Node3&#45;&gt;Node73 -->
<g id="edge33" class="edge">
<title>Node3&#45;&gt;Node73</title>
<path fill="none" stroke="midnightblue" d="M931.55,-164.43C914.03,-156.8 892.96,-147.62 876.98,-140.66"/>
<polygon fill="midnightblue" stroke="midnightblue" points="930.3,-167.7 940.87,-168.49 933.1,-161.29 930.3,-167.7"/>
</g>
<!-- Node5 -->
<g id="node5" class="node">
<title>Node5</title>
<g id="a_node5"><a xlink:href="../../d4/de2/wren__compiler_8c.html#a280648a47237a52319d293ace8edb7c8" target="_top" xlink:title=" ">
<polygon fill="white" stroke="black" points="714,-178.5 714,-199.5 770,-199.5 770,-178.5 714,-178.5"/>
<text text-anchor="middle" x="742" y="-185.9" font-family="Helvetica,sans-Serif" font-size="12.00">method</text>
</a>
</g>
</g>
<!-- Node4&#45;&gt;Node5 -->
<g id="edge4" class="edge">
<title>Node4&#45;&gt;Node5</title>
<path fill="none" stroke="midnightblue" d="M805.88,-189C793.71,-189 780.9,-189 770.04,-189"/>
<polygon fill="midnightblue" stroke="midnightblue" points="805.89,-192.5 815.89,-189 805.89,-185.5 805.89,-192.5"/>
</g>
<!-- Node54 -->
<g id="node20" class="node">
<title>Node54</title>
<g id="a_node20"><a xlink:href="../../d4/de2/wren__compiler_8c.html#a7427f00898251d026c3b69ab90b92ed6" target="_top" xlink:title=" ">
<polygon fill="white" stroke="black" points="704,-390.5 704,-411.5 780,-411.5 780,-390.5 704,-390.5"/>
<text text-anchor="middle" x="742" y="-397.9" font-family="Helvetica,sans-Serif" font-size="12.00">methodCall</text>
</a>
</g>
</g>
<!-- Node4&#45;&gt;Node54 -->
<g id="edge27" class="edge">
<title>Node4&#45;&gt;Node54</title>
<path fill="none" stroke="midnightblue" d="M840.58,-208.57C818.39,-252.32 765.39,-356.85 748.36,-390.42"/>
<polygon fill="midnightblue" stroke="midnightblue" points="843.77,-210.01 845.17,-199.51 837.52,-206.85 843.77,-210.01"/>
</g>
<!-- Node6 -->
<g id="node6" class="node">
<title>Node6</title>
<g id="a_node6"><a xlink:href="../../de/db2/wren__vm_8c.html#a774b44fd4c8b7ad7531f001178ee66f2" target="_top" xlink:title=" ">
<polygon fill="white" stroke="black" points="369.5,-196.5 369.5,-217.5 479.5,-217.5 479.5,-196.5 369.5,-196.5"/>
<text text-anchor="middle" x="424.5" y="-203.9" font-family="Helvetica,sans-Serif" font-size="12.00">bindForeignClass</text>
</a>
</g>
</g>
<!-- Node5&#45;&gt;Node6 -->
<g id="edge5" class="edge">
<title>Node5&#45;&gt;Node6</title>
<path fill="none" stroke="midnightblue" d="M703.73,-191.13C648.22,-194.29 543.51,-200.27 479.58,-203.91"/>
<polygon fill="midnightblue" stroke="midnightblue" points="704.04,-194.61 713.83,-190.55 703.64,-187.63 704.04,-194.61"/>
</g>
<!-- Node8 -->
<g id="node8" class="node">
<title>Node8</title>
<g id="a_node8"><a xlink:href="../../de/db2/wren__vm_8c.html#ade1e713227c5685b4747c982aab961c4" target="_top" xlink:title=" ">
<polygon fill="white" stroke="red" points="98,-234.5 98,-255.5 183,-255.5 183,-234.5 98,-234.5"/>
<text text-anchor="middle" x="140.5" y="-241.9" font-family="Helvetica,sans-Serif" font-size="12.00">runInterpreter</text>
</a>
</g>
</g>
<!-- Node5&#45;&gt;Node8 -->
<g id="edge17" class="edge">
<title>Node5&#45;&gt;Node8</title>
<path fill="none" stroke="midnightblue" d="M719.26,-205.55C705.36,-215.23 686.51,-226.74 668,-233 516.24,-284.28 469.09,-259.26 309,-265 269.03,-266.43 258.68,-270.04 219,-265 204.25,-263.13 188.29,-259.33 174.71,-255.54"/>
<polygon fill="midnightblue" stroke="midnightblue" points="721.55,-208.21 727.63,-199.53 717.47,-202.53 721.55,-208.21"/>
</g>
<!-- Node9 -->
<g id="node9" class="node">
<title>Node9</title>
<g id="a_node9"><a xlink:href="../../dd/d19/wren_8h.html#a4bbb5e4dc3f5b794c88b4210e30927ba" target="_top" xlink:title=" ">
<polygon fill="white" stroke="red" points="0,-272.5 0,-293.5 62,-293.5 62,-272.5 0,-272.5"/>
<text text-anchor="middle" x="31" y="-279.9" font-family="Helvetica,sans-Serif" font-size="12.00">wrenCall</text>
</a>
</g>
</g>
<!-- Node5&#45;&gt;Node9 -->
<g id="edge22" class="edge">
<title>Node5&#45;&gt;Node9</title>
<path fill="none" stroke="midnightblue" d="M727.1,-207.47C713.73,-223.93 692.04,-247.47 668,-261 571.14,-315.49 536.64,-322 425.5,-322 425.5,-322 425.5,-322 263,-322 190.2,-322 106.27,-302.93 62.36,-291.46"/>
<polygon fill="midnightblue" stroke="midnightblue" points="729.87,-209.61 733.31,-199.59 724.37,-205.28 729.87,-209.61"/>
</g>
<!-- Node30 -->
<g id="node10" class="node">
<title>Node30</title>
<g id="a_node10"><a xlink:href="../../de/db2/wren__vm_8c.html#ac1a65601a290fe012a862d25e78b0399" target="_top" xlink:title=" ">
<polygon fill="white" stroke="black" points="385.5,-116.5 385.5,-137.5 463.5,-137.5 463.5,-116.5 385.5,-116.5"/>
<text text-anchor="middle" x="424.5" y="-123.9" font-family="Helvetica,sans-Serif" font-size="12.00">bindMethod</text>
</a>
</g>
</g>
<!-- Node5&#45;&gt;Node30 -->
<g id="edge9" class="edge">
<title>Node5&#45;&gt;Node30</title>
<path fill="none" stroke="midnightblue" d="M717.36,-172.79C703.59,-164.2 685.52,-154.34 668,-149 598.25,-127.74 512.39,-125.14 463.8,-125.71"/>
<polygon fill="midnightblue" stroke="midnightblue" points="715.86,-175.98 726.16,-178.47 719.65,-170.1 715.86,-175.98"/>
</g>
<!-- Node31 -->
<g id="node11" class="node">
<title>Node31</title>
<g id="a_node11"><a xlink:href="../../d4/de2/wren__compiler_8c.html#acb2713c83e03d07b11beeca8a9f58539" target="_top" xlink:title=" ">
<polygon fill="white" stroke="black" points="557.5,-0.5 557.5,-21.5 650.5,-21.5 650.5,-0.5 557.5,-0.5"/>
<text text-anchor="middle" x="604" y="-7.9" font-family="Helvetica,sans-Serif" font-size="12.00">classDefinition</text>
</a>
</g>
</g>
<!-- Node5&#45;&gt;Node31 -->
<g id="edge11" class="edge">
<title>Node5&#45;&gt;Node31</title>
<path fill="none" stroke="midnightblue" d="M737.06,-168.35C729.58,-134.72 710.15,-68.17 668,-31 663.01,-26.6 657.04,-23.16 650.81,-20.49"/>
<polygon fill="midnightblue" stroke="midnightblue" points="733.69,-169.32 739.16,-178.4 740.54,-167.89 733.69,-169.32"/>
</g>
<!-- Node32 -->
<g id="node12" class="node">
<title>Node32</title>
<g id="a_node12"><a xlink:href="../../de/db2/wren__vm_8c.html#a5020cc736d0f9d681e5bed6f2804bf5a" target="_top" xlink:title=" ">
<polygon fill="white" stroke="black" points="219,-234.5 219,-255.5 309,-255.5 309,-234.5 219,-234.5"/>
<text text-anchor="middle" x="264" y="-241.9" font-family="Helvetica,sans-Serif" font-size="12.00">createForeign</text>
</a>
</g>
</g>
<!-- Node5&#45;&gt;Node32 -->
<g id="edge13" class="edge">
<title>Node5&#45;&gt;Node32</title>
<path fill="none" stroke="midnightblue" d="M704.19,-200.96C692.7,-204.32 679.92,-207.69 668,-210 539.25,-234.99 383.88,-242.14 309.25,-244.19"/>
<polygon fill="midnightblue" stroke="midnightblue" points="705.33,-204.27 713.89,-198.04 703.31,-197.57 705.33,-204.27"/>
</g>
<!-- Node33 -->
<g id="node13" class="node">
<title>Node33</title>
<g id="a_node13"><a xlink:href="../../de/db2/wren__vm_8c.html#af338fc167f40b3e51e4290d44ec4ce19" target="_top" xlink:title=" ">
<polygon fill="white" stroke="black" points="546.5,-80.5 546.5,-101.5 661.5,-101.5 661.5,-80.5 546.5,-80.5"/>
<text text-anchor="middle" x="604" y="-87.9" font-family="Helvetica,sans-Serif" font-size="12.00">findForeignMethod</text>
</a>
</g>
</g>
<!-- Node5&#45;&gt;Node33 -->
<g id="edge15" class="edge">
<title>Node5&#45;&gt;Node33</title>
<path fill="none" stroke="midnightblue" d="M726.49,-170.73C712.83,-154.54 691.08,-131.18 668,-116 659.15,-110.18 648.74,-105.37 638.95,-101.56"/>
<polygon fill="midnightblue" stroke="midnightblue" points="723.8,-172.97 732.85,-178.46 729.2,-168.52 723.8,-172.97"/>
</g>
<!-- Node34 -->
<g id="node14" class="node">
<title>Node34</title>
<g id="a_node14"><a xlink:href="../../da/dbe/wren__value_8c.html#aa6e32aab368f689ded9f419739fe6915" target="_top" xlink:title=" ">
<polygon fill="white" stroke="black" points="552,-158.5 552,-179.5 656,-179.5 656,-158.5 552,-158.5"/>
<text text-anchor="middle" x="604" y="-165.9" font-family="Helvetica,sans-Serif" font-size="12.00">wrenBindMethod</text>
</a>
</g>
</g>
<!-- Node5&#45;&gt;Node34 -->
<g id="edge18" class="edge">
<title>Node5&#45;&gt;Node34</title>
<path fill="none" stroke="midnightblue" d="M703.6,-183.5C688.93,-181.34 671.86,-178.83 656.09,-176.51"/>
<polygon fill="midnightblue" stroke="midnightblue" points="703.4,-187.01 713.81,-185 704.42,-180.08 703.4,-187.01"/>
</g>
<!-- Node37 -->
<g id="node16" class="node">
<title>Node37</title>
<g id="a_node16"><a xlink:href="../../de/db2/wren__vm_8c.html#a443e764ebdacef5995484adea8b9d447" target="_top" xlink:title=" ">
<polygon fill="white" stroke="black" points="543,-40.5 543,-61.5 665,-61.5 665,-40.5 543,-40.5"/>
<text text-anchor="middle" x="604" y="-47.9" font-family="Helvetica,sans-Serif" font-size="12.00">wrenFinalizeForeign</text>
</a>
</g>
</g>
<!-- Node5&#45;&gt;Node37 -->
<g id="edge23" class="edge">
<title>Node5&#45;&gt;Node37</title>
<path fill="none" stroke="midnightblue" d="M733.67,-168.78C723.13,-142.49 701.23,-96.9 668,-71 663.11,-67.19 657.48,-64.1 651.64,-61.59"/>
<polygon fill="midnightblue" stroke="midnightblue" points="730.53,-170.36 737.38,-178.44 737.06,-167.85 730.53,-170.36"/>
</g>
<!-- Node53 -->
<g id="node18" class="node">
<title>Node53</title>
<g id="a_node18"><a xlink:href="../../dd/d19/wren_8h.html#abe767089c421873af8384fba0934cd26" target="_top" xlink:title=" ">
<polygon fill="white" stroke="black" points="540,-350.5 540,-371.5 668,-371.5 668,-350.5 540,-350.5"/>
<text text-anchor="middle" x="604" y="-357.9" font-family="Helvetica,sans-Serif" font-size="12.00">wrenMakeCallHandle</text>
</a>
</g>
</g>
<!-- Node5&#45;&gt;Node53 -->
<g id="edge25" class="edge">
<title>Node5&#45;&gt;Node53</title>
<path fill="none" stroke="midnightblue" d="M735.86,-209.69C727.07,-241.08 706.26,-300.79 668,-336 661.33,-342.14 652.98,-346.84 644.55,-350.42"/>
<polygon fill="midnightblue" stroke="midnightblue" points="739.29,-210.42 738.48,-199.86 732.53,-208.62 739.29,-210.42"/>
</g>
<!-- Node7 -->
<g id="node7" class="node">
<title>Node7</title>
<g id="a_node7"><a xlink:href="../../de/db2/wren__vm_8c.html#aa2e5e3d9efe082d2fc2e33d4916463c5" target="_top" xlink:title=" ">
<polygon fill="white" stroke="black" points="224,-194.5 224,-215.5 304,-215.5 304,-194.5 224,-194.5"/>
<text text-anchor="middle" x="264" y="-201.9" font-family="Helvetica,sans-Serif" font-size="12.00">createClass</text>
</a>
</g>
</g>
<!-- Node6&#45;&gt;Node7 -->
<g id="edge6" class="edge">
<title>Node6&#45;&gt;Node7</title>
<path fill="none" stroke="midnightblue" d="M359.22,-206.19C340.64,-205.95 320.93,-205.71 304.36,-205.5"/>
<polygon fill="midnightblue" stroke="midnightblue" points="359.35,-209.69 369.4,-206.32 359.44,-202.69 359.35,-209.69"/>
</g>
<!-- Node7&#45;&gt;Node8 -->
<g id="edge7" class="edge">
<title>Node7&#45;&gt;Node8</title>
<path fill="none" stroke="midnightblue" d="M221.16,-218.77C205.6,-223.9 188.19,-229.63 173.63,-234.42"/>
<polygon fill="midnightblue" stroke="midnightblue" points="222.67,-221.96 231.08,-215.51 220.48,-215.31 222.67,-221.96"/>
</g>
<!-- Node8&#45;&gt;Node9 -->
<g id="edge8" class="edge">
<title>Node8&#45;&gt;Node9</title>
<path fill="none" stroke="midnightblue" d="M99.77,-259.04C87.2,-263.49 73.53,-268.32 61.78,-272.47"/>
<polygon fill="midnightblue" stroke="midnightblue" points="101.29,-262.22 109.56,-255.59 98.96,-255.62 101.29,-262.22"/>
</g>
<!-- Node30&#45;&gt;Node8 -->
<g id="edge10" class="edge">
<title>Node30&#45;&gt;Node8</title>
<path fill="none" stroke="midnightblue" d="M375.38,-135.01C332.61,-143.42 269.26,-159.1 219,-185 192.98,-198.41 166.94,-220.88 152.65,-234.19"/>
<polygon fill="midnightblue" stroke="midnightblue" points="376.09,-138.44 385.25,-133.13 374.77,-131.57 376.09,-138.44"/>
</g>
<!-- Node31&#45;&gt;Node2 -->
<g id="edge12" class="edge">
<title>Node31&#45;&gt;Node2</title>
<path fill="none" stroke="midnightblue" d="M660.56,-23.74C760.22,-46.59 966.27,-93.84 1044.73,-111.83"/>
<polygon fill="midnightblue" stroke="midnightblue" points="661.21,-20.3 650.68,-21.47 659.64,-27.12 661.21,-20.3"/>
</g>
<!-- Node32&#45;&gt;Node8 -->
<g id="edge14" class="edge">
<title>Node32&#45;&gt;Node8</title>
<path fill="none" stroke="midnightblue" d="M208.78,-245C200.14,-245 191.33,-245 183.05,-245"/>
<polygon fill="midnightblue" stroke="midnightblue" points="208.79,-248.5 218.79,-245 208.79,-241.5 208.79,-248.5"/>
</g>
<!-- Node33&#45;&gt;Node30 -->
<g id="edge16" class="edge">
<title>Node33&#45;&gt;Node30</title>
<path fill="none" stroke="midnightblue" d="M541.1,-103.55C515.29,-108.79 486.12,-114.7 463.55,-119.28"/>
<polygon fill="midnightblue" stroke="midnightblue" points="542.08,-106.93 551.18,-101.51 540.69,-100.07 542.08,-106.93"/>
</g>
<!-- Node34&#45;&gt;Node6 -->
<g id="edge19" class="edge">
<title>Node34&#45;&gt;Node6</title>
<path fill="none" stroke="midnightblue" d="M543.5,-181.74C521.14,-186.52 496,-191.91 474.68,-196.47"/>
<polygon fill="midnightblue" stroke="midnightblue" points="544.51,-185.1 553.56,-179.59 543.05,-178.26 544.51,-185.1"/>
</g>
<!-- Node34&#45;&gt;Node30 -->
<g id="edge20" class="edge">
<title>Node34&#45;&gt;Node30</title>
<path fill="none" stroke="midnightblue" d="M548.36,-156.07C520.93,-149.58 488.37,-141.88 463.66,-136.03"/>
<polygon fill="midnightblue" stroke="midnightblue" points="547.67,-159.5 558.21,-158.4 549.28,-152.69 547.67,-159.5"/>
</g>
<!-- Node35 -->
<g id="node15" class="node">
<title>Node35</title>
<g id="a_node15"><a xlink:href="../../da/dbe/wren__value_8c.html#a0b8b706fa29e8b5d4557b1441256cd5f" target="_top" xlink:title=" ">
<polygon fill="white" stroke="red" points="362.5,-156.5 362.5,-177.5 486.5,-177.5 486.5,-156.5 362.5,-156.5"/>
<text text-anchor="middle" x="424.5" y="-163.9" font-family="Helvetica,sans-Serif" font-size="12.00">wrenBindSuperclass</text>
</a>
</g>
</g>
<!-- Node34&#45;&gt;Node35 -->
<g id="edge21" class="edge">
<title>Node34&#45;&gt;Node35</title>
<path fill="none" stroke="midnightblue" d="M541.45,-168.31C523.75,-168.11 504.46,-167.89 486.78,-167.69"/>
<polygon fill="midnightblue" stroke="midnightblue" points="541.62,-171.81 551.66,-168.42 541.7,-164.81 541.62,-171.81"/>
</g>
<!-- Node38 -->
<g id="node17" class="node">
<title>Node38</title>
<g id="a_node17"><a xlink:href="../../da/dbe/wren__value_8c.html#a59813fe4b53e8c1fab4de560fe06271f" target="_top" xlink:title=" ">
<polygon fill="white" stroke="red" points="382.5,-40.5 382.5,-61.5 466.5,-61.5 466.5,-40.5 382.5,-40.5"/>
<text text-anchor="middle" x="424.5" y="-47.9" font-family="Helvetica,sans-Serif" font-size="12.00">wrenFreeObj</text>
</a>
</g>
</g>
<!-- Node37&#45;&gt;Node38 -->
<g id="edge24" class="edge">
<title>Node37&#45;&gt;Node38</title>
<path fill="none" stroke="midnightblue" d="M532.73,-51C510.28,-51 486.17,-51 466.51,-51"/>
<polygon fill="midnightblue" stroke="midnightblue" points="532.91,-54.5 542.91,-51 532.91,-47.5 532.91,-54.5"/>
</g>
<!-- Node46 -->
<g id="node19" class="node">
<title>Node46</title>
<g id="a_node19"><a xlink:href="../../d0/da0/class_app_wren.html#a96b2fca22884292f1df5bfdebd8e0fac" target="_top" xlink:title=" ">
<polygon fill="white" stroke="red" points="345,-350.5 345,-371.5 504,-371.5 504,-350.5 345,-350.5"/>
<text text-anchor="middle" x="424.5" y="-357.9" font-family="Helvetica,sans-Serif" font-size="12.00">AppWren::getWrenHandles</text>
</a>
</g>
</g>
<!-- Node53&#45;&gt;Node46 -->
<g id="edge26" class="edge">
<title>Node53&#45;&gt;Node46</title>
<path fill="none" stroke="midnightblue" d="M529.76,-361C521.33,-361 512.71,-361 504.22,-361"/>
<polygon fill="midnightblue" stroke="midnightblue" points="529.92,-364.5 539.92,-361 529.92,-357.5 529.92,-364.5"/>
</g>
<!-- Node55 -->
<g id="node21" class="node">
<title>Node55</title>
<g id="a_node21"><a xlink:href="../../d4/de2/wren__compiler_8c.html#a16fd4c5c52c951aed01a1d0fcd6d71aa" target="_top" xlink:title=" ">
<polygon fill="white" stroke="black" points="567.5,-430.5 567.5,-451.5 640.5,-451.5 640.5,-430.5 567.5,-430.5"/>
<text text-anchor="middle" x="604" y="-437.9" font-family="Helvetica,sans-Serif" font-size="12.00">namedCall</text>
</a>
</g>
</g>
<!-- Node54&#45;&gt;Node55 -->
<g id="edge28" class="edge">
<title>Node54&#45;&gt;Node55</title>
<path fill="none" stroke="midnightblue" d="M695.66,-414.34C677.86,-419.57 657.73,-425.49 640.97,-430.42"/>
<polygon fill="midnightblue" stroke="midnightblue" points="696.66,-417.69 705.27,-411.51 694.69,-410.97 696.66,-417.69"/>
</g>
<!-- Node149 -->
<g id="node24" class="node">
<title>Node149</title>
<g id="a_node24"><a xlink:href="../../d4/de2/wren__compiler_8c.html#a82a42c1b41759f79a9e76c4c5a898ede" target="_top" xlink:title=" ">
<polygon fill="white" stroke="black" points="398,-390.5 398,-411.5 451,-411.5 451,-390.5 398,-390.5"/>
<text text-anchor="middle" x="424.5" y="-397.9" font-family="Helvetica,sans-Serif" font-size="12.00">super_</text>
</a>
</g>
</g>
<!-- Node54&#45;&gt;Node149 -->
<g id="edge32" class="edge">
<title>Node54&#45;&gt;Node149</title>
<path fill="none" stroke="midnightblue" d="M693.5,-401C625.82,-401 503.97,-401 451.12,-401"/>
<polygon fill="midnightblue" stroke="midnightblue" points="693.88,-404.5 703.88,-401 693.88,-397.5 693.88,-404.5"/>
</g>
<!-- Node56 -->
<g id="node22" class="node">
<title>Node56</title>
<g id="a_node22"><a xlink:href="../../d4/de2/wren__compiler_8c.html#abc28d53c9cefc405f7f74cd877d037d1" target="_top" xlink:title=" ">
<polygon fill="white" stroke="black" points="407.5,-430.5 407.5,-451.5 441.5,-451.5 441.5,-430.5 407.5,-430.5"/>
<text text-anchor="middle" x="424.5" y="-437.9" font-family="Helvetica,sans-Serif" font-size="12.00">call</text>
</a>
</g>
</g>
<!-- Node55&#45;&gt;Node56 -->
<g id="edge29" class="edge">
<title>Node55&#45;&gt;Node56</title>
<path fill="none" stroke="midnightblue" d="M556.78,-441C518.89,-441 467.44,-441 441.65,-441"/>
<polygon fill="midnightblue" stroke="midnightblue" points="557.08,-444.5 567.08,-441 557.08,-437.5 557.08,-444.5"/>
</g>
<!-- Node57 -->
<g id="node23" class="node">
<title>Node57</title>
<g id="a_node23"><a xlink:href="../../d4/de2/wren__compiler_8c.html#a59935c559e6df5f8a5f95110a971014d" target="_top" xlink:title=" ">
<polygon fill="white" stroke="red" points="401.5,-470.5 401.5,-491.5 447.5,-491.5 447.5,-470.5 401.5,-470.5"/>
<text text-anchor="middle" x="424.5" y="-477.9" font-family="Helvetica,sans-Serif" font-size="12.00">name</text>
</a>
</g>
</g>
<!-- Node55&#45;&gt;Node57 -->
<g id="edge30" class="edge">
<title>Node55&#45;&gt;Node57</title>
<path fill="none" stroke="midnightblue" d="M557.04,-451.36C521.86,-459.29 474.88,-469.87 447.64,-476.01"/>
<polygon fill="midnightblue" stroke="midnightblue" points="558.09,-454.71 567.08,-449.09 556.56,-447.88 558.09,-454.71"/>
</g>
<!-- Node55&#45;&gt;Node149 -->
<g id="edge31" class="edge">
<title>Node55&#45;&gt;Node149</title>
<path fill="none" stroke="midnightblue" d="M556.98,-430.63C523.23,-423.02 478.65,-412.98 451.04,-406.75"/>
<polygon fill="midnightblue" stroke="midnightblue" points="556.56,-434.12 567.08,-432.91 558.09,-427.29 556.56,-434.12"/>
</g>
<!-- Node73&#45;&gt;Node2 -->
<g id="edge34" class="edge">
<title>Node73&#45;&gt;Node2</title>
<path fill="none" stroke="midnightblue" d="M895.65,-122.19C904.66,-120.86 914.12,-119.69 923,-119 965.11,-115.73 1013.93,-116.53 1044.88,-117.59"/>
<polygon fill="midnightblue" stroke="midnightblue" points="895.07,-118.73 885.73,-123.73 896.15,-125.65 895.07,-118.73"/>
</g>
</g>
</svg>
        <g id="navigator" transform="translate(0 0)" fill="#404254">
                <rect fill="#f2f5e9" fill-opacity="0.5" stroke="#606060" stroke-width=".5" x="0" y="0" width="60" height="60"/>
                <use id="zoomplus" xlink:href="#zoomPlus" x="17" y="9" onmousedown="handleZoom(evt,'in')"/>
                <use id="zoomminus" xlink:href="#zoomMin" x="42" y="9" onmousedown="handleZoom(evt,'out')"/>
                <use id="reset" xlink:href="#resetDef" x="30" y="36" onmousedown="handleReset()"/>
                <g id="arrowUp" xlink:href="#dirArrow" transform="translate(30 24)" onmousedown="handlePan(0,-1)">
                  <use xlink:href="#rim" fill="#404040">
                        <set attributeName="fill" to="#808080" begin="arrowUp.mouseover" end="arrowUp.mouseout"/>
                  </use>
                  <path fill="none" stroke="white" stroke-width="1.5" d="M0,-3.0v7 M-2.5,-0.5L0,-3.0L2.5,-0.5"/>
                </g>
                <g id="arrowRight" xlink:href="#dirArrow" transform="rotate(90) translate(36 -43)" onmousedown="handlePan(1,0)">
                  <use xlink:href="#rim" fill="#404040">
                        <set attributeName="fill" to="#808080" begin="arrowRight.mouseover" end="arrowRight.mouseout"/>
                  </use>
                  <path fill="none" stroke="white" stroke-width="1.5" d="M0,-3.0v7 M-2.5,-0.5L0,-3.0L2.5,-0.5"/>
                </g>
                <g id="arrowDown" xlink:href="#dirArrow" transform="rotate(180) translate(-30 -48)" onmousedown="handlePan(0,1)">
                  <use xlink:href="#rim" fill="#404040">
                        <set attributeName="fill" to="#808080" begin="arrowDown.mouseover" end="arrowDown.mouseout"/>
                  </use>
                  <path fill="none" stroke="white" stroke-width="1.5" d="M0,-3.0v7 M-2.5,-0.5L0,-3.0L2.5,-0.5"/>
                </g>
                <g id="arrowLeft" xlink:href="#dirArrow" transform="rotate(270) translate(-36 17)" onmousedown="handlePan(-1,0)">
                  <use xlink:href="#rim" fill="#404040">
                        <set attributeName="fill" to="#808080" begin="arrowLeft.mouseover" end="arrowLeft.mouseout"/>
                  </use>
                  <path fill="none" stroke="white" stroke-width="1.5" d="M0,-3.0v7 M-2.5,-0.5L0,-3.0L2.5,-0.5"/>
                </g>
        </g>
        <svg viewBox="0 0 15 15" width="100%" height="30px" preserveAspectRatio="xMaxYMin meet">
         <g id="arrow_out" transform="scale(0.3 0.3)">
          <a xlink:href="wren__compiler_8c_a576b164c108737d8d82019ec54a0d533_icgraph_org.svg" target="_base">
           <rect id="button" ry="5" rx="5" y="6" x="6" height="38" width="38"
                fill="#f2f5e9" fill-opacity="0.5" stroke="#606060" stroke-width="1.0"/>
           <path id="arrow"
             d="M 11.500037,31.436501 C 11.940474,20.09759 22.043105,11.32322 32.158766,21.979434 L 37.068811,17.246167 C 37.068811,17.246167 37.088388,32 37.088388,32 L 22.160133,31.978069 C 22.160133,31.978069 26.997745,27.140456 26.997745,27.140456 C 18.528582,18.264221 13.291696,25.230495 11.500037,31.436501 z"
             style="fill:#404040;"/>
          </a>
         </g>
        </svg>
</svg>
