<?xml version="1.0" encoding="UTF-8" standalone="no"?>
<!DOCTYPE svg PUBLIC "-//W3C//DTD SVG 1.1//EN"
 "http://www.w3.org/Graphics/SVG/1.1/DTD/svg11.dtd">
<!-- Generated by graphviz version 2.47.3 (20210619.1520)
 -->
<!-- Title: signatureSymbol Pages: 1 -->
<!--zoomable 718 -->
<svg id="main" version="1.1" xmlns="http://www.w3.org/2000/svg" xmlns:xlink="http://www.w3.org/1999/xlink" xml:space="preserve" onload="init(evt)">
<style type="text/css"><![CDATA[
.edge:hover path { stroke: red; }
.edge:hover polygon { stroke: red; fill: red; }
]]></style>
<script type="text/javascript"><![CDATA[
var edges = document.getElementsByTagName('g');
if (edges && edges.length) {
  for (var i=0;i<edges.length;i++) {
    if (edges[i].id.substr(0,4)=='edge') {
      edges[i].setAttribute('class','edge');
    }
  }
}
]]></script>
        <defs>
                <circle id="rim" cx="0" cy="0" r="7"/>
                <circle id="rim2" cx="0" cy="0" r="3.5"/>
                <g id="zoomPlus">
                        <use xlink:href="#rim" fill="#404040">
                                <set attributeName="fill" to="#808080" begin="zoomplus.mouseover" end="zoomplus.mouseout"/>
                        </use>
                        <path d="M-4,0h8M0,-4v8" fill="none" stroke="white" stroke-width="1.5" pointer-events="none"/>
                </g>
                <g id="zoomMin">
                        <use xlink:href="#rim" fill="#404040">
                                <set attributeName="fill" to="#808080" begin="zoomminus.mouseover" end="zoomminus.mouseout"/>
                        </use>
                        <path d="M-4,0h8" fill="none" stroke="white" stroke-width="1.5" pointer-events="none"/>
                </g>
                <g id="dirArrow">
                        <path fill="none" stroke="white" stroke-width="1.5" d="M0,-3.0v7 M-2.5,-0.5L0,-3.0L2.5,-0.5"/>
                </g>
               <g id="resetDef">
                       <use xlink:href="#rim2" fill="#404040">
                               <set attributeName="fill" to="#808080" begin="reset.mouseover" end="reset.mouseout"/>
                       </use>
               </g>
        </defs>

<script type="text/javascript">
var viewWidth = 1460;
var viewHeight = 718;
var sectionId = 'dynsection-200';
</script>
<script xlink:href="../../svgpan.js"/>
<svg id="graph" class="graph">
<g id="viewport">
<title>signatureSymbol</title>
<polygon fill="white" stroke="transparent" points="-4,4 -4,-713.9 1456,-713.9 1456,4 -4,4"/>
<!-- Node1 -->
<g id="node1" class="node">
<title>Node1</title>
<g id="a_node1"><a xlink:title=" ">
<polygon fill="#bfbfbf" stroke="black" points="1348,-106.5 1348,-127.5 1452,-127.5 1452,-106.5 1348,-106.5"/>
<text text-anchor="middle" x="1400" y="-113.9" font-family="Helvetica,sans-Serif" font-size="12.00">signatureSymbol</text>
</a>
</g>
</g>
<!-- Node2 -->
<g id="node2" class="node">
<title>Node2</title>
<g id="a_node2"><a xlink:href="../../d4/de2/wren__compiler_8c.html#a38d81393ddf947ea59ad1d15eaa868cf" target="_top" xlink:title=" ">
<polygon fill="white" stroke="black" points="1228,-301.5 1228,-322.5 1312,-322.5 1312,-301.5 1228,-301.5"/>
<text text-anchor="middle" x="1270" y="-308.9" font-family="Helvetica,sans-Serif" font-size="12.00">callSignature</text>
</a>
</g>
</g>
<!-- Node1&#45;&gt;Node2 -->
<g id="edge1" class="edge">
<title>Node1&#45;&gt;Node2</title>
<path fill="none" stroke="midnightblue" d="M1386.4,-136.19C1359.89,-176.58 1299.09,-269.21 1278.2,-301.03"/>
<polygon fill="midnightblue" stroke="midnightblue" points="1389.37,-138.04 1391.94,-127.76 1383.52,-134.2 1389.37,-138.04"/>
</g>
<!-- Node145 -->
<g id="node21" class="node">
<title>Node145</title>
<g id="a_node21"><a xlink:href="../../d4/de2/wren__compiler_8c.html#ab340843ddcc4e86bcca961782d54d1f6" target="_top" xlink:title=" ">
<polygon fill="white" stroke="black" points="765,-145.5 765,-166.5 860,-166.5 860,-145.5 765,-145.5"/>
<text text-anchor="middle" x="812.5" y="-152.9" font-family="Helvetica,sans-Serif" font-size="12.00">declareMethod</text>
</a>
</g>
</g>
<!-- Node1&#45;&gt;Node145 -->
<g id="edge64" class="edge">
<title>Node1&#45;&gt;Node145</title>
<path fill="none" stroke="midnightblue" d="M1348.57,-129.85C1299.49,-141.21 1222.63,-156 1155,-156 1155,-156 1155,-156 1042.5,-156 979.49,-156 906.72,-156 860.43,-156"/>
<polygon fill="midnightblue" stroke="midnightblue" points="1349.37,-133.25 1358.3,-127.55 1347.77,-126.44 1349.37,-133.25"/>
</g>
<!-- Node15 -->
<g id="node22" class="node">
<title>Node15</title>
<g id="a_node22"><a xlink:href="../../d4/de2/wren__compiler_8c.html#a280648a47237a52319d293ace8edb7c8" target="_top" xlink:title=" ">
<polygon fill="white" stroke="red" points="476.5,-61.5 476.5,-82.5 532.5,-82.5 532.5,-61.5 476.5,-61.5"/>
<text text-anchor="middle" x="504.5" y="-68.9" font-family="Helvetica,sans-Serif" font-size="12.00">method</text>
</a>
</g>
</g>
<!-- Node1&#45;&gt;Node15 -->
<g id="edge65" class="edge">
<title>Node1&#45;&gt;Node15</title>
<path fill="none" stroke="midnightblue" d="M1382.93,-98.39C1366.75,-80.79 1340.19,-54.93 1312,-40 1248.36,-6.3 1227.01,0 1155,0 1155,0 1155,0 811.5,0 705.62,0 584.49,-41.35 532.02,-61.38"/>
<polygon fill="midnightblue" stroke="midnightblue" points="1380.73,-101.17 1390.01,-106.28 1385.94,-96.49 1380.73,-101.17"/>
</g>
<!-- Node3 -->
<g id="node3" class="node">
<title>Node3</title>
<g id="a_node3"><a xlink:href="../../d4/de2/wren__compiler_8c.html#a8743e9688db1718a6a325ea9f27adb05" target="_top" xlink:title=" ">
<polygon fill="white" stroke="black" points="1127.5,-340.5 1127.5,-361.5 1180.5,-361.5 1180.5,-340.5 1127.5,-340.5"/>
<text text-anchor="middle" x="1154" y="-347.9" font-family="Helvetica,sans-Serif" font-size="12.00">infixOp</text>
</a>
</g>
</g>
<!-- Node2&#45;&gt;Node3 -->
<g id="edge2" class="edge">
<title>Node2&#45;&gt;Node3</title>
<path fill="none" stroke="midnightblue" d="M1228.56,-325.83C1212.69,-331.26 1194.94,-337.33 1180.86,-342.15"/>
<polygon fill="midnightblue" stroke="midnightblue" points="1229.82,-329.1 1238.15,-322.55 1227.56,-322.48 1229.82,-329.1"/>
</g>
<!-- Node4 -->
<g id="node4" class="node">
<title>Node4</title>
<g id="a_node4"><a xlink:href="../../d4/de2/wren__compiler_8c.html#a7427f00898251d026c3b69ab90b92ed6" target="_top" xlink:title=" ">
<polygon fill="white" stroke="black" points="1116,-262.5 1116,-283.5 1192,-283.5 1192,-262.5 1116,-262.5"/>
<text text-anchor="middle" x="1154" y="-269.9" font-family="Helvetica,sans-Serif" font-size="12.00">methodCall</text>
</a>
</g>
</g>
<!-- Node2&#45;&gt;Node4 -->
<g id="edge3" class="edge">
<title>Node2&#45;&gt;Node4</title>
<path fill="none" stroke="midnightblue" d="M1228.29,-298.07C1214.32,-293.29 1198.93,-288.03 1185.87,-283.56"/>
<polygon fill="midnightblue" stroke="midnightblue" points="1227.56,-301.52 1238.15,-301.45 1229.82,-294.9 1227.56,-301.52"/>
</g>
<!-- Node5 -->
<g id="node5" class="node">
<title>Node5</title>
<g id="a_node5"><a xlink:href="../../d4/de2/wren__compiler_8c.html#a16fd4c5c52c951aed01a1d0fcd6d71aa" target="_top" xlink:title=" ">
<polygon fill="white" stroke="black" points="1007,-301.5 1007,-322.5 1080,-322.5 1080,-301.5 1007,-301.5"/>
<text text-anchor="middle" x="1043.5" y="-308.9" font-family="Helvetica,sans-Serif" font-size="12.00">namedCall</text>
</a>
</g>
</g>
<!-- Node2&#45;&gt;Node5 -->
<g id="edge62" class="edge">
<title>Node2&#45;&gt;Node5</title>
<path fill="none" stroke="midnightblue" d="M1217.79,-312C1175.77,-312 1117.35,-312 1080.24,-312"/>
<polygon fill="midnightblue" stroke="midnightblue" points="1217.82,-315.5 1227.82,-312 1217.82,-308.5 1217.82,-315.5"/>
</g>
<!-- Node159 -->
<g id="node33" class="node">
<title>Node159</title>
<g id="a_node33"><a xlink:href="../../d4/de2/wren__compiler_8c.html#a41444a093a5170bf6ff69627445a457c" target="_top" xlink:title=" ">
<polygon fill="white" stroke="black" points="1122,-380.5 1122,-401.5 1186,-401.5 1186,-380.5 1122,-380.5"/>
<text text-anchor="middle" x="1154" y="-387.9" font-family="Helvetica,sans-Serif" font-size="12.00">subscript</text>
</a>
</g>
</g>
<!-- Node2&#45;&gt;Node159 -->
<g id="edge63" class="edge">
<title>Node2&#45;&gt;Node159</title>
<path fill="none" stroke="midnightblue" d="M1248.23,-329.35C1233.1,-341.64 1211.85,-358.14 1192,-371 1186.97,-374.25 1181.37,-377.48 1176.08,-380.35"/>
<polygon fill="midnightblue" stroke="midnightblue" points="1250.87,-331.72 1256.38,-322.67 1246.43,-326.31 1250.87,-331.72"/>
</g>
<!-- Node4&#45;&gt;Node5 -->
<g id="edge4" class="edge">
<title>Node4&#45;&gt;Node5</title>
<path fill="none" stroke="midnightblue" d="M1113.86,-287.07C1100.67,-291.81 1086.19,-297.01 1073.89,-301.44"/>
<polygon fill="midnightblue" stroke="midnightblue" points="1115.41,-290.23 1123.64,-283.55 1113.04,-283.64 1115.41,-290.23"/>
</g>
<!-- Node150 -->
<g id="node32" class="node">
<title>Node150</title>
<g id="a_node32"><a xlink:href="../../d4/de2/wren__compiler_8c.html#a82a42c1b41759f79a9e76c4c5a898ede" target="_top" xlink:title=" ">
<polygon fill="white" stroke="black" points="918,-321.5 918,-342.5 971,-342.5 971,-321.5 918,-321.5"/>
<text text-anchor="middle" x="944.5" y="-328.9" font-family="Helvetica,sans-Serif" font-size="12.00">super_</text>
</a>
</g>
</g>
<!-- Node4&#45;&gt;Node150 -->
<g id="edge61" class="edge">
<title>Node4&#45;&gt;Node150</title>
<path fill="none" stroke="midnightblue" d="M1105.58,-273.85C1076.38,-275.66 1038.61,-280.35 1007,-292 997.26,-295.59 974.99,-310.82 960.1,-321.42"/>
<polygon fill="midnightblue" stroke="midnightblue" points="1106.12,-277.33 1115.92,-273.31 1105.75,-270.34 1106.12,-277.33"/>
</g>
<!-- Node6 -->
<g id="node6" class="node">
<title>Node6</title>
<g id="a_node6"><a xlink:href="../../d4/de2/wren__compiler_8c.html#abc28d53c9cefc405f7f74cd877d037d1" target="_top" xlink:title=" ">
<polygon fill="white" stroke="black" points="927.5,-361.5 927.5,-382.5 961.5,-382.5 961.5,-361.5 927.5,-361.5"/>
<text text-anchor="middle" x="944.5" y="-368.9" font-family="Helvetica,sans-Serif" font-size="12.00">call</text>
</a>
</g>
</g>
<!-- Node5&#45;&gt;Node6 -->
<g id="edge5" class="edge">
<title>Node5&#45;&gt;Node6</title>
<path fill="none" stroke="midnightblue" d="M1016.56,-328.04C999.12,-338.83 976.68,-352.72 961.72,-361.96"/>
<polygon fill="midnightblue" stroke="midnightblue" points="1018.5,-330.96 1025.16,-322.73 1014.81,-325.01 1018.5,-330.96"/>
</g>
<!-- Node7 -->
<g id="node7" class="node">
<title>Node7</title>
<g id="a_node7"><a xlink:href="../../d4/de2/wren__compiler_8c.html#a59935c559e6df5f8a5f95110a971014d" target="_top" xlink:title=" ">
<polygon fill="white" stroke="black" points="921.5,-281.5 921.5,-302.5 967.5,-302.5 967.5,-281.5 921.5,-281.5"/>
<text text-anchor="middle" x="944.5" y="-288.9" font-family="Helvetica,sans-Serif" font-size="12.00">name</text>
</a>
</g>
</g>
<!-- Node5&#45;&gt;Node7 -->
<g id="edge6" class="edge">
<title>Node5&#45;&gt;Node7</title>
<path fill="none" stroke="midnightblue" d="M996.85,-302.59C986.64,-300.48 976.26,-298.34 967.53,-296.54"/>
<polygon fill="midnightblue" stroke="midnightblue" points="996.43,-306.07 1006.93,-304.67 997.84,-299.22 996.43,-306.07"/>
</g>
<!-- Node5&#45;&gt;Node150 -->
<g id="edge60" class="edge">
<title>Node5&#45;&gt;Node150</title>
<path fill="none" stroke="midnightblue" d="M996.99,-321.38C988.07,-323.22 979.02,-325.09 971.05,-326.73"/>
<polygon fill="midnightblue" stroke="midnightblue" points="997.84,-324.78 1006.93,-319.33 996.43,-317.93 997.84,-324.78"/>
</g>
<!-- Node7&#45;&gt;Node1 -->
<g id="edge58" class="edge">
<title>Node7&#45;&gt;Node1</title>
<path fill="none" stroke="midnightblue" d="M977.3,-281.63C1063.49,-253.5 1296.16,-177.35 1312,-170 1338.47,-157.72 1366.96,-139.25 1383.87,-127.68"/>
<polygon fill="midnightblue" stroke="midnightblue" points="975.96,-278.39 967.54,-284.81 978.13,-285.04 975.96,-278.39"/>
</g>
<!-- Node8 -->
<g id="node8" class="node">
<title>Node8</title>
<g id="a_node8"><a xlink:href="../../d4/de2/wren__compiler_8c.html#a9bd2c0d9435a0ab262ba508ec071fa83" target="_top" xlink:title=" ">
<polygon fill="white" stroke="black" points="619.5,-337.5 619.5,-358.5 684.5,-358.5 684.5,-337.5 619.5,-337.5"/>
<text text-anchor="middle" x="652" y="-344.9" font-family="Helvetica,sans-Serif" font-size="12.00">addLocal</text>
</a>
</g>
</g>
<!-- Node7&#45;&gt;Node8 -->
<g id="edge7" class="edge">
<title>Node7&#45;&gt;Node8</title>
<path fill="none" stroke="midnightblue" d="M911.84,-304.01C902.35,-307.28 891.84,-310.59 882,-313 812.66,-329.99 729.39,-340.25 684.83,-344.94"/>
<polygon fill="midnightblue" stroke="midnightblue" points="913.04,-307.3 921.29,-300.65 910.7,-300.7 913.04,-307.3"/>
</g>
<!-- Node67 -->
<g id="node11" class="node">
<title>Node67</title>
<g id="a_node11"><a xlink:href="../../d4/de2/wren__compiler_8c.html#af0278a0c6c812bdb67378f6b686499e6" target="_top" xlink:title=" ">
<polygon fill="white" stroke="red" points="463,-217.5 463,-238.5 546,-238.5 546,-217.5 463,-217.5"/>
<text text-anchor="middle" x="504.5" y="-224.9" font-family="Helvetica,sans-Serif" font-size="12.00">forStatement</text>
</a>
</g>
</g>
<!-- Node7&#45;&gt;Node67 -->
<g id="edge32" class="edge">
<title>Node7&#45;&gt;Node67</title>
<path fill="none" stroke="midnightblue" d="M911.26,-287.29C832.91,-275.84 632.63,-246.58 546.21,-233.95"/>
<polygon fill="midnightblue" stroke="midnightblue" points="911.08,-290.8 921.48,-288.78 912.09,-283.87 911.08,-290.8"/>
</g>
<!-- Node85 -->
<g id="node12" class="node">
<title>Node85</title>
<g id="a_node12"><a xlink:href="../../d4/de2/wren__compiler_8c.html#a659fca4caa4720785ab7fbddcb247fb7" target="_top" xlink:title=" ">
<polygon fill="white" stroke="black" points="615.5,-297.5 615.5,-318.5 688.5,-318.5 688.5,-297.5 615.5,-297.5"/>
<text text-anchor="middle" x="652" y="-304.9" font-family="Helvetica,sans-Serif" font-size="12.00">callMethod</text>
</a>
</g>
</g>
<!-- Node7&#45;&gt;Node85 -->
<g id="edge11" class="edge">
<title>Node7&#45;&gt;Node85</title>
<path fill="none" stroke="midnightblue" d="M910.99,-293.79C856.12,-296.81 745.57,-302.9 688.66,-306.04"/>
<polygon fill="midnightblue" stroke="midnightblue" points="911.39,-297.27 921.19,-293.23 911.01,-290.28 911.39,-297.27"/>
</g>
<!-- Node7&#45;&gt;Node145 -->
<g id="edge24" class="edge">
<title>Node7&#45;&gt;Node145</title>
<path fill="none" stroke="midnightblue" d="M937.09,-271.4C928.4,-246.66 910.59,-205.44 882,-181 874.78,-174.83 865.92,-170.13 856.98,-166.57"/>
<polygon fill="midnightblue" stroke="midnightblue" points="933.87,-272.81 940.36,-281.19 940.51,-270.6 933.87,-272.81"/>
</g>
<!-- Node146 -->
<g id="node23" class="node">
<title>Node146</title>
<g id="a_node23"><a xlink:href="../../d4/de2/wren__compiler_8c.html#ab3f241e328328e3814e5244dde86ad98" target="_top" xlink:title=" ">
<polygon fill="white" stroke="black" points="613.5,-559.5 613.5,-580.5 690.5,-580.5 690.5,-559.5 613.5,-559.5"/>
<text text-anchor="middle" x="652" y="-566.9" font-family="Helvetica,sans-Serif" font-size="12.00">findUpvalue</text>
</a>
</g>
</g>
<!-- Node7&#45;&gt;Node146 -->
<g id="edge27" class="edge">
<title>Node7&#45;&gt;Node146</title>
<path fill="none" stroke="midnightblue" d="M919.28,-310.03C918.83,-310.67 918.4,-311.33 918,-312 867.58,-397.29 951.98,-461.86 882,-532 831.62,-582.5 741.43,-581.33 690.57,-575.8"/>
<polygon fill="midnightblue" stroke="midnightblue" points="922.05,-312.19 926.37,-302.52 916.96,-307.39 922.05,-312.19"/>
</g>
<!-- Node147 -->
<g id="node24" class="node">
<title>Node147</title>
<g id="a_node24"><a xlink:href="../../d4/de2/wren__compiler_8c.html#aeead4115d1ddc029dcd2a2b406cab6a9" target="_top" xlink:title=" ">
<polygon fill="white" stroke="red" points="448,-607.5 448,-628.5 561,-628.5 561,-607.5 448,-607.5"/>
<text text-anchor="middle" x="504.5" y="-614.9" font-family="Helvetica,sans-Serif" font-size="12.00">resolveNonmodule</text>
</a>
</g>
</g>
<!-- Node7&#45;&gt;Node147 -->
<g id="edge52" class="edge">
<title>Node7&#45;&gt;Node147</title>
<path fill="none" stroke="midnightblue" d="M916.59,-307.14C866.16,-407.25 961.63,-481.14 882,-560 796.99,-644.18 643.27,-633.63 561,-623.56"/>
<polygon fill="midnightblue" stroke="midnightblue" points="919.69,-308.77 921.38,-298.32 913.54,-305.43 919.69,-308.77"/>
</g>
<!-- Node152 -->
<g id="node25" class="node">
<title>Node152</title>
<g id="a_node25"><a xlink:href="../../d4/de2/wren__compiler_8c.html#a8ee09994b5ad4511965abd53ef245a8a" target="_top" xlink:title=" ">
<polygon fill="white" stroke="black" points="305,-647.5 305,-668.5 391,-668.5 391,-647.5 305,-647.5"/>
<text text-anchor="middle" x="348" y="-654.9" font-family="Helvetica,sans-Serif" font-size="12.00">resolveName</text>
</a>
</g>
</g>
<!-- Node7&#45;&gt;Node152 -->
<g id="edge51" class="edge">
<title>Node7&#45;&gt;Node152</title>
<path fill="none" stroke="midnightblue" d="M919.2,-310.06C918.77,-310.69 918.37,-311.34 918,-312 884.01,-372.7 930.12,-572.75 882,-623 747.16,-763.83 474.29,-696.94 381.06,-668.54"/>
<polygon fill="midnightblue" stroke="midnightblue" points="921.8,-312.4 925.98,-302.67 916.64,-307.67 921.8,-312.4"/>
</g>
<!-- Node153 -->
<g id="node26" class="node">
<title>Node153</title>
<g id="a_node26"><a xlink:href="../../d4/de2/wren__compiler_8c.html#aa30b2bee45b3b4a728ebac4fb0e5a82b" target="_top" xlink:title=" ">
<polygon fill="white" stroke="black" points="597,-377.5 597,-398.5 707,-398.5 707,-377.5 597,-377.5"/>
<text text-anchor="middle" x="652" y="-384.9" font-family="Helvetica,sans-Serif" font-size="12.00">loadCoreVariable</text>
</a>
</g>
</g>
<!-- Node7&#45;&gt;Node153 -->
<g id="edge33" class="edge">
<title>Node7&#45;&gt;Node153</title>
<path fill="none" stroke="midnightblue" d="M921.73,-308.99C904.97,-322.02 884.29,-337.95 882,-339 825.69,-364.94 755.2,-377.36 707.41,-383.17"/>
<polygon fill="midnightblue" stroke="midnightblue" points="924.28,-311.44 930.02,-302.54 919.98,-305.92 924.28,-311.44"/>
</g>
<!-- Node154 -->
<g id="node27" class="node">
<title>Node154</title>
<g id="a_node27"><a xlink:href="../../d4/de2/wren__compiler_8c.html#ad1e91368551c7720efd9105fc37570a1" target="_top" xlink:title=" ">
<polygon fill="white" stroke="black" points="765,-29.5 765,-50.5 860,-50.5 860,-29.5 765,-29.5"/>
<text text-anchor="middle" x="812.5" y="-36.9" font-family="Helvetica,sans-Serif" font-size="12.00">methodSymbol</text>
</a>
</g>
</g>
<!-- Node7&#45;&gt;Node154 -->
<g id="edge41" class="edge">
<title>Node7&#45;&gt;Node154</title>
<path fill="none" stroke="midnightblue" d="M937.2,-271.5C927.44,-240.98 907.12,-182.25 882,-136 864.02,-102.9 836.5,-67.79 822.44,-50.65"/>
<polygon fill="midnightblue" stroke="midnightblue" points="933.97,-272.9 940.31,-281.39 940.65,-270.8 933.97,-272.9"/>
</g>
<!-- Node156 -->
<g id="node29" class="node">
<title>Node156</title>
<g id="a_node29"><a xlink:href="../../d4/de2/wren__compiler_8c.html#ac193a2eaa589f497f8147efe1dfca7a8" target="_top" xlink:title=" ">
<polygon fill="white" stroke="black" points="771,-501.5 771,-522.5 854,-522.5 854,-501.5 771,-501.5"/>
<text text-anchor="middle" x="812.5" y="-508.9" font-family="Helvetica,sans-Serif" font-size="12.00">resolveLocal</text>
</a>
</g>
</g>
<!-- Node7&#45;&gt;Node156 -->
<g id="edge47" class="edge">
<title>Node7&#45;&gt;Node156</title>
<path fill="none" stroke="midnightblue" d="M919.78,-309.8C919.16,-310.52 918.56,-311.25 918,-312 892.35,-346.1 901.27,-362.93 882,-401 862.57,-439.39 834.25,-481.94 820.94,-501.32"/>
<polygon fill="midnightblue" stroke="midnightblue" points="922.41,-312.13 927.22,-302.69 917.57,-307.07 922.41,-312.13"/>
</g>
<!-- Node157 -->
<g id="node30" class="node">
<title>Node157</title>
<g id="a_node30"><a xlink:href="../../d4/de2/wren__compiler_8c.html#afd4e5fb23443ab31b9160488d6de132c" target="_top" xlink:title=" ">
<polygon fill="white" stroke="black" points="743,-223.5 743,-244.5 882,-244.5 882,-223.5 743,-223.5"/>
<text text-anchor="middle" x="812.5" y="-230.9" font-family="Helvetica,sans-Serif" font-size="12.00">signatureParameterList</text>
</a>
</g>
</g>
<!-- Node7&#45;&gt;Node157 -->
<g id="edge53" class="edge">
<title>Node7&#45;&gt;Node157</title>
<path fill="none" stroke="midnightblue" d="M916.73,-276.56C906.09,-270.71 893.63,-264.21 882,-259 870.22,-253.72 856.95,-248.68 845.25,-244.52"/>
<polygon fill="midnightblue" stroke="midnightblue" points="915.11,-279.66 925.54,-281.49 918.52,-273.55 915.11,-279.66"/>
</g>
<!-- Node158 -->
<g id="node31" class="node">
<title>Node158</title>
<g id="a_node31"><a xlink:href="../../d4/de2/wren__compiler_8c.html#ac8d1d75280e54ef6c6d6367ff1f26aef" target="_top" xlink:title=" ">
<polygon fill="white" stroke="black" points="597.5,-106.5 597.5,-127.5 706.5,-127.5 706.5,-106.5 597.5,-106.5"/>
<text text-anchor="middle" x="652" y="-113.9" font-family="Helvetica,sans-Serif" font-size="12.00">signatureToString</text>
</a>
</g>
</g>
<!-- Node7&#45;&gt;Node158 -->
<g id="edge59" class="edge">
<title>Node7&#45;&gt;Node158</title>
<path fill="none" stroke="midnightblue" d="M932.96,-272.42C922.38,-254.6 904.44,-228.86 882,-214 828.6,-178.63 801.39,-202.32 743,-176 713.7,-162.79 683.15,-140.7 666.25,-127.62"/>
<polygon fill="midnightblue" stroke="midnightblue" points="930.08,-274.43 938.07,-281.39 936.16,-270.97 930.08,-274.43"/>
</g>
<!-- Node9 -->
<g id="node9" class="node">
<title>Node9</title>
<g id="a_node9"><a xlink:href="../../d4/de2/wren__compiler_8c.html#a6f04eaffda4b4d4ee46d87aa3e9a8d2b" target="_top" xlink:title=" ">
<polygon fill="white" stroke="red" points="298,-569.5 298,-590.5 398,-590.5 398,-569.5 298,-569.5"/>
<text text-anchor="middle" x="348" y="-576.9" font-family="Helvetica,sans-Serif" font-size="12.00">declareVariable</text>
</a>
</g>
</g>
<!-- Node8&#45;&gt;Node9 -->
<g id="edge8" class="edge">
<title>Node8&#45;&gt;Node9</title>
<path fill="none" stroke="midnightblue" d="M610.04,-360.73C605.48,-362.85 601.03,-365.27 597,-368 577.21,-381.43 578.34,-391.53 561,-408 491.25,-474.27 398.81,-543.59 363.53,-569.46"/>
<polygon fill="midnightblue" stroke="midnightblue" points="611.6,-363.87 619.47,-356.78 608.9,-357.41 611.6,-363.87"/>
</g>
<!-- Node8&#45;&gt;Node67 -->
<g id="edge10" class="edge">
<title>Node8&#45;&gt;Node67</title>
<path fill="none" stroke="midnightblue" d="M610.13,-336.96C605.35,-334.53 600.83,-331.58 597,-328 568.51,-301.39 589.61,-274.49 561,-248 556.72,-244.03 551.59,-240.84 546.21,-238.28"/>
<polygon fill="midnightblue" stroke="midnightblue" points="608.93,-340.25 619.5,-341.02 611.72,-333.83 608.93,-340.25"/>
</g>
<!-- Node83 -->
<g id="node10" class="node">
<title>Node83</title>
<g id="a_node10"><a xlink:href="../../d4/de2/wren__compiler_8c.html#aa1f392a8806f59a267ba5c7b413b7577" target="_top" xlink:title=" ">
<polygon fill="white" stroke="black" points="153,-608.5 153,-629.5 224,-629.5 224,-608.5 153,-608.5"/>
<text text-anchor="middle" x="188.5" y="-615.9" font-family="Helvetica,sans-Serif" font-size="12.00">staticField</text>
</a>
</g>
</g>
<!-- Node9&#45;&gt;Node83 -->
<g id="edge9" class="edge">
<title>Node9&#45;&gt;Node83</title>
<path fill="none" stroke="midnightblue" d="M294.37,-593.03C271.26,-598.75 244.77,-605.31 224.2,-610.41"/>
<polygon fill="midnightblue" stroke="midnightblue" points="295.51,-596.36 304.38,-590.55 293.83,-589.56 295.51,-596.36"/>
</g>
<!-- Node85&#45;&gt;Node67 -->
<g id="edge19" class="edge">
<title>Node85&#45;&gt;Node67</title>
<path fill="none" stroke="midnightblue" d="M614.35,-293.09C608.36,-290.08 602.36,-286.69 597,-283 578.61,-270.35 579.92,-259.83 561,-248 555.09,-244.31 548.41,-241.17 541.78,-238.54"/>
<polygon fill="midnightblue" stroke="midnightblue" points="613.13,-296.38 623.66,-297.5 616.12,-290.05 613.13,-296.38"/>
</g>
<!-- Node86 -->
<g id="node13" class="node">
<title>Node86</title>
<g id="a_node13"><a xlink:href="../../d4/de2/wren__compiler_8c.html#ac0fd522b34e48c85c192b29593a79fb9" target="_top" xlink:title=" ">
<polygon fill="white" stroke="black" points="284,-316.5 284,-337.5 412,-337.5 412,-316.5 284,-316.5"/>
<text text-anchor="middle" x="348" y="-323.9" font-family="Helvetica,sans-Serif" font-size="12.00">emitAttributeMethods</text>
</a>
</g>
</g>
<!-- Node85&#45;&gt;Node86 -->
<g id="edge12" class="edge">
<title>Node85&#45;&gt;Node86</title>
<path fill="none" stroke="midnightblue" d="M640.43,-288.53C626.08,-264.39 597.94,-224.45 561,-208 515.12,-187.57 493.47,-186.68 448,-208 398.85,-231.05 365.62,-291.81 353.8,-316.43"/>
<polygon fill="midnightblue" stroke="midnightblue" points="637.56,-290.55 645.56,-297.5 643.63,-287.08 637.56,-290.55"/>
</g>
<!-- Node87 -->
<g id="node14" class="node">
<title>Node87</title>
<g id="a_node14"><a xlink:href="../../d4/de2/wren__compiler_8c.html#ad596cab10744611b6321d2f883acf5f1" target="_top" xlink:title=" ">
<polygon fill="white" stroke="black" points="129,-296.5 129,-317.5 248,-317.5 248,-296.5 129,-296.5"/>
<text text-anchor="middle" x="188.5" y="-303.9" font-family="Helvetica,sans-Serif" font-size="12.00">emitClassAttributes</text>
</a>
</g>
</g>
<!-- Node85&#45;&gt;Node87 -->
<g id="edge18" class="edge">
<title>Node85&#45;&gt;Node87</title>
<path fill="none" stroke="midnightblue" d="M647.67,-287.3C640.16,-248.36 617.92,-165 561,-130 518.22,-103.69 495.98,-115.15 448,-130 337.85,-164.1 232.86,-263.11 200.02,-296.13"/>
<polygon fill="midnightblue" stroke="midnightblue" points="644.28,-288.21 649.48,-297.44 651.17,-286.98 644.28,-288.21"/>
</g>
<!-- Node88 -->
<g id="node16" class="node">
<title>Node88</title>
<g id="a_node16"><a xlink:href="../../d4/de2/wren__compiler_8c.html#a4716244e490967ab0e98a209de45844e" target="_top" xlink:title=" ">
<polygon fill="white" stroke="black" points="460,-297.5 460,-318.5 549,-318.5 549,-297.5 460,-297.5"/>
<text text-anchor="middle" x="504.5" y="-304.9" font-family="Helvetica,sans-Serif" font-size="12.00">emitAttributes</text>
</a>
</g>
</g>
<!-- Node85&#45;&gt;Node88 -->
<g id="edge15" class="edge">
<title>Node85&#45;&gt;Node88</title>
<path fill="none" stroke="midnightblue" d="M605.18,-308C587.24,-308 566.75,-308 549.04,-308"/>
<polygon fill="midnightblue" stroke="midnightblue" points="605.41,-311.5 615.41,-308 605.41,-304.5 605.41,-311.5"/>
</g>
<!-- Node89 -->
<g id="node17" class="node">
<title>Node89</title>
<g id="a_node17"><a xlink:href="../../d4/de2/wren__compiler_8c.html#a0a8cb504ca7e49b97ac975d128414786" target="_top" xlink:title=" ">
<polygon fill="white" stroke="red" points="489,-337.5 489,-358.5 520,-358.5 520,-337.5 489,-337.5"/>
<text text-anchor="middle" x="504.5" y="-344.9" font-family="Helvetica,sans-Serif" font-size="12.00">list</text>
</a>
</g>
</g>
<!-- Node85&#45;&gt;Node89 -->
<g id="edge20" class="edge">
<title>Node85&#45;&gt;Node89</title>
<path fill="none" stroke="midnightblue" d="M605.74,-320.44C576.34,-328.53 539.91,-338.54 520.06,-344"/>
<polygon fill="midnightblue" stroke="midnightblue" points="606.69,-323.81 615.41,-317.79 604.84,-317.06 606.69,-323.81"/>
</g>
<!-- Node110 -->
<g id="node18" class="node">
<title>Node110</title>
<g id="a_node18"><a xlink:href="../../d4/de2/wren__compiler_8c.html#a590c72120bf1ccc844e8c2ba7a63445a" target="_top" xlink:title=" ">
<polygon fill="white" stroke="red" points="484.5,-257.5 484.5,-278.5 524.5,-278.5 524.5,-257.5 484.5,-257.5"/>
<text text-anchor="middle" x="504.5" y="-264.9" font-family="Helvetica,sans-Serif" font-size="12.00">map</text>
</a>
</g>
</g>
<!-- Node85&#45;&gt;Node110 -->
<g id="edge21" class="edge">
<title>Node85&#45;&gt;Node110</title>
<path fill="none" stroke="midnightblue" d="M605.68,-295.54C578.45,-288.05 545.2,-278.91 524.69,-273.28"/>
<polygon fill="midnightblue" stroke="midnightblue" points="604.84,-298.94 615.41,-298.21 606.69,-292.19 604.84,-298.94"/>
</g>
<!-- Node121 -->
<g id="node19" class="node">
<title>Node121</title>
<g id="a_node19"><a xlink:href="../../d4/de2/wren__compiler_8c.html#afbde727a3fafa6041cfd3ffbe17c8e4f" target="_top" xlink:title=" ">
<polygon fill="white" stroke="black" points="450.5,-377.5 450.5,-398.5 558.5,-398.5 558.5,-377.5 450.5,-377.5"/>
<text text-anchor="middle" x="504.5" y="-384.9" font-family="Helvetica,sans-Serif" font-size="12.00">stringInterpolation</text>
</a>
</g>
</g>
<!-- Node85&#45;&gt;Node121 -->
<g id="edge22" class="edge">
<title>Node85&#45;&gt;Node121</title>
<path fill="none" stroke="midnightblue" d="M606.1,-322.65C602.93,-324.28 599.86,-326.06 597,-328 577.21,-341.43 580.85,-354.65 561,-368 555.48,-371.71 549.18,-374.83 542.86,-377.42"/>
<polygon fill="midnightblue" stroke="midnightblue" points="607.6,-325.81 615.22,-318.46 604.67,-319.45 607.6,-325.81"/>
</g>
<!-- Node144 -->
<g id="node20" class="node">
<title>Node144</title>
<g id="a_node20"><a xlink:href="../../d4/de2/wren__compiler_8c.html#aba0b44d974c3aaf9e72e55ce709cc5ac" target="_top" xlink:title=" ">
<polygon fill="white" stroke="black" points="474.5,-139.5 474.5,-160.5 534.5,-160.5 534.5,-139.5 474.5,-139.5"/>
<text text-anchor="middle" x="504.5" y="-146.9" font-family="Helvetica,sans-Serif" font-size="12.00">unaryOp</text>
</a>
</g>
</g>
<!-- Node85&#45;&gt;Node144 -->
<g id="edge23" class="edge">
<title>Node85&#45;&gt;Node144</title>
<path fill="none" stroke="midnightblue" d="M641.84,-287.87C627.98,-259.36 599.19,-207.14 561,-175 553.32,-168.54 543.7,-163.43 534.63,-159.56"/>
<polygon fill="midnightblue" stroke="midnightblue" points="638.82,-289.67 646.26,-297.22 645.15,-286.68 638.82,-289.67"/>
</g>
<!-- Node86&#45;&gt;Node87 -->
<g id="edge13" class="edge">
<title>Node86&#45;&gt;Node87</title>
<path fill="none" stroke="midnightblue" d="M273.79,-317.7C265.17,-316.61 256.46,-315.5 248.07,-314.44"/>
<polygon fill="midnightblue" stroke="midnightblue" points="273.48,-321.19 283.85,-318.98 274.37,-314.25 273.48,-321.19"/>
</g>
<!-- Node11 -->
<g id="node15" class="node">
<title>Node11</title>
<g id="a_node15"><a xlink:href="../../d4/de2/wren__compiler_8c.html#acb2713c83e03d07b11beeca8a9f58539" target="_top" xlink:title=" ">
<polygon fill="white" stroke="red" points="0,-296.5 0,-317.5 93,-317.5 93,-296.5 0,-296.5"/>
<text text-anchor="middle" x="46.5" y="-303.9" font-family="Helvetica,sans-Serif" font-size="12.00">classDefinition</text>
</a>
</g>
</g>
<!-- Node87&#45;&gt;Node11 -->
<g id="edge14" class="edge">
<title>Node87&#45;&gt;Node11</title>
<path fill="none" stroke="midnightblue" d="M118.75,-307C110.03,-307 101.28,-307 93.05,-307"/>
<polygon fill="midnightblue" stroke="midnightblue" points="118.94,-310.5 128.94,-307 118.94,-303.5 118.94,-310.5"/>
</g>
<!-- Node88&#45;&gt;Node86 -->
<g id="edge16" class="edge">
<title>Node88&#45;&gt;Node86</title>
<path fill="none" stroke="midnightblue" d="M449.66,-314.62C437.5,-316.12 424.5,-317.72 412,-319.25"/>
<polygon fill="midnightblue" stroke="midnightblue" points="450.14,-318.09 459.64,-313.39 449.29,-311.14 450.14,-318.09"/>
</g>
<!-- Node88&#45;&gt;Node87 -->
<g id="edge17" class="edge">
<title>Node88&#45;&gt;Node87</title>
<path fill="none" stroke="midnightblue" d="M449.58,-307.31C437.23,-307.18 424.16,-307.07 412,-307 356.38,-306.7 292.93,-306.73 248.06,-306.83"/>
<polygon fill="midnightblue" stroke="midnightblue" points="449.71,-310.81 459.75,-307.42 449.79,-303.81 449.71,-310.81"/>
</g>
<!-- Node145&#45;&gt;Node15 -->
<g id="edge25" class="edge">
<title>Node145&#45;&gt;Node15</title>
<path fill="none" stroke="midnightblue" d="M754.74,-161.95C709.63,-164.18 646.18,-161.56 597,-137 575.6,-126.31 580.32,-111.1 561,-97 552.46,-90.77 542.13,-85.59 532.7,-81.59"/>
<polygon fill="midnightblue" stroke="midnightblue" points="755.15,-165.43 764.93,-161.35 754.74,-158.45 755.15,-165.43"/>
</g>
<!-- Node15&#45;&gt;Node11 -->
<g id="edge26" class="edge">
<title>Node15&#45;&gt;Node11</title>
<path fill="none" stroke="midnightblue" d="M466.62,-79.68C421.89,-89.82 344.93,-109.99 284,-140 190.21,-186.19 92.7,-267.57 59.43,-296.46"/>
<polygon fill="midnightblue" stroke="midnightblue" points="467.46,-83.08 476.46,-77.49 465.94,-76.24 467.46,-83.08"/>
</g>
<!-- Node146&#45;&gt;Node147 -->
<g id="edge28" class="edge">
<title>Node146&#45;&gt;Node147</title>
<path fill="none" stroke="midnightblue" d="M609.28,-583.76C586.4,-591.31 558.47,-600.52 537.36,-607.49"/>
<polygon fill="midnightblue" stroke="midnightblue" points="610.67,-586.99 619.07,-580.53 608.48,-580.34 610.67,-586.99"/>
</g>
<!-- Node147&#45;&gt;Node7 -->
<g id="edge29" class="edge">
<title>Node147&#45;&gt;Node7</title>
<path fill="none" stroke="midnightblue" d="M542.41,-631.05C617.8,-649.28 790.08,-669.03 882,-578 963.95,-496.84 860.45,-420.95 918,-321 922.27,-313.59 930.46,-307.93 936.41,-302.67"/>
<polygon fill="midnightblue" stroke="midnightblue" points="542.99,-627.59 532.44,-628.5 541.26,-634.37 542.99,-627.59"/>
</g>
<!-- Node147&#45;&gt;Node152 -->
<g id="edge30" class="edge">
<title>Node147&#45;&gt;Node152</title>
<path fill="none" stroke="midnightblue" d="M453.07,-631.06C432.5,-636.38 409.03,-642.46 389.59,-647.49"/>
<polygon fill="midnightblue" stroke="midnightblue" points="454.1,-634.4 462.91,-628.51 452.35,-627.63 454.1,-634.4"/>
</g>
<!-- Node152&#45;&gt;Node83 -->
<g id="edge31" class="edge">
<title>Node152&#45;&gt;Node83</title>
<path fill="none" stroke="midnightblue" d="M295.05,-645.14C271.76,-639.37 244.91,-632.72 224.12,-627.57"/>
<polygon fill="midnightblue" stroke="midnightblue" points="294.24,-648.54 304.79,-647.55 295.93,-641.75 294.24,-648.54"/>
</g>
<!-- Node153&#45;&gt;Node86 -->
<g id="edge35" class="edge">
<title>Node153&#45;&gt;Node86</title>
<path fill="none" stroke="midnightblue" d="M612.01,-401.57C570.23,-413.91 502.54,-427.47 448,-408 408.26,-393.81 372.98,-356.07 357.42,-337.55"/>
<polygon fill="midnightblue" stroke="midnightblue" points="613.27,-404.84 621.8,-398.56 611.21,-398.15 613.27,-404.84"/>
</g>
<!-- Node153&#45;&gt;Node87 -->
<g id="edge37" class="edge">
<title>Node153&#45;&gt;Node87</title>
<path fill="none" stroke="midnightblue" d="M623.07,-403.22C605.76,-411.78 582.74,-421.6 561,-426 511.78,-435.97 497.06,-436.75 448,-426 350.27,-404.59 245.41,-342.59 205.85,-317.61"/>
<polygon fill="midnightblue" stroke="midnightblue" points="624.74,-406.3 632.06,-398.64 621.56,-400.06 624.74,-406.3"/>
</g>
<!-- Node153&#45;&gt;Node11 -->
<g id="edge34" class="edge">
<title>Node153&#45;&gt;Node11</title>
<path fill="none" stroke="midnightblue" d="M630.45,-405.14C613.15,-418.38 587.12,-435.65 561,-443 512.65,-456.6 497.86,-448.99 448,-443 296.36,-424.77 126.74,-346.38 68.47,-317.63"/>
<polygon fill="midnightblue" stroke="midnightblue" points="632.98,-407.6 638.65,-398.66 628.64,-402.11 632.98,-407.6"/>
</g>
<!-- Node153&#45;&gt;Node88 -->
<g id="edge36" class="edge">
<title>Node153&#45;&gt;Node88</title>
<path fill="none" stroke="midnightblue" d="M605.67,-373.13C602.65,-371.56 599.73,-369.85 597,-368 577.21,-354.57 580.85,-341.35 561,-328 555.48,-324.29 549.18,-321.17 542.86,-318.58"/>
<polygon fill="midnightblue" stroke="midnightblue" points="604.39,-376.39 614.94,-377.43 607.34,-370.04 604.39,-376.39"/>
</g>
<!-- Node153&#45;&gt;Node89 -->
<g id="edge38" class="edge">
<title>Node153&#45;&gt;Node89</title>
<path fill="none" stroke="midnightblue" d="M602.87,-374.77C574.08,-366.85 539.47,-357.34 520.24,-352.05"/>
<polygon fill="midnightblue" stroke="midnightblue" points="602.2,-378.21 612.77,-377.49 604.06,-371.46 602.2,-378.21"/>
</g>
<!-- Node153&#45;&gt;Node110 -->
<g id="edge39" class="edge">
<title>Node153&#45;&gt;Node110</title>
<path fill="none" stroke="midnightblue" d="M602.34,-372.31C600.46,-370.99 598.66,-369.55 597,-368 568.51,-341.39 589.61,-314.49 561,-288 551,-278.75 536.41,-273.71 524.7,-271.01"/>
<polygon fill="midnightblue" stroke="midnightblue" points="600.72,-375.42 611.11,-377.45 604.25,-369.38 600.72,-375.42"/>
</g>
<!-- Node153&#45;&gt;Node121 -->
<g id="edge40" class="edge">
<title>Node153&#45;&gt;Node121</title>
<path fill="none" stroke="midnightblue" d="M586.77,-388C577.41,-388 567.86,-388 558.76,-388"/>
<polygon fill="midnightblue" stroke="midnightblue" points="586.82,-391.5 596.82,-388 586.82,-384.5 586.82,-391.5"/>
</g>
<!-- Node154&#45;&gt;Node1 -->
<g id="edge46" class="edge">
<title>Node154&#45;&gt;Node1</title>
<path fill="none" stroke="midnightblue" d="M870.57,-40.39C916.9,-40.67 983.92,-41 1042.5,-41 1155,-41 1155,-41 1155,-41 1225.59,-41 1245.58,-41.11 1312,-65 1339.82,-75 1368.59,-94.27 1385.09,-106.34"/>
<polygon fill="midnightblue" stroke="midnightblue" points="870.45,-36.89 860.43,-40.32 870.41,-43.89 870.45,-36.89"/>
</g>
<!-- Node154&#45;&gt;Node85 -->
<g id="edge42" class="edge">
<title>Node154&#45;&gt;Node85</title>
<path fill="none" stroke="midnightblue" d="M796.98,-58.7C782.54,-77.68 760.12,-108.14 743,-136 706.83,-194.87 670.88,-269.75 657.99,-297.25"/>
<polygon fill="midnightblue" stroke="midnightblue" points="799.88,-60.67 803.19,-50.61 794.33,-56.41 799.88,-60.67"/>
</g>
<!-- Node154&#45;&gt;Node15 -->
<g id="edge45" class="edge">
<title>Node154&#45;&gt;Node15</title>
<path fill="none" stroke="midnightblue" d="M754.88,-43.19C711.56,-45.95 650.39,-50.52 597,-57 575.27,-59.64 550.8,-63.71 532.64,-66.94"/>
<polygon fill="midnightblue" stroke="midnightblue" points="755.18,-46.68 764.94,-42.57 754.74,-39.7 755.18,-46.68"/>
</g>
<!-- Node155 -->
<g id="node28" class="node">
<title>Node155</title>
<g id="a_node28"><a xlink:href="../../d4/de2/wren__compiler_8c.html#a8ec648c741d1eff279418c865b4f79f2" target="_top" xlink:title=" ">
<polygon fill="white" stroke="black" points="608,-66.5 608,-87.5 696,-87.5 696,-66.5 608,-66.5"/>
<text text-anchor="middle" x="652" y="-73.9" font-family="Helvetica,sans-Serif" font-size="12.00">defineMethod</text>
</a>
</g>
</g>
<!-- Node154&#45;&gt;Node155 -->
<g id="edge43" class="edge">
<title>Node154&#45;&gt;Node155</title>
<path fill="none" stroke="midnightblue" d="M756.69,-52.79C736.9,-57.41 714.85,-62.56 696.2,-66.92"/>
<polygon fill="midnightblue" stroke="midnightblue" points="757.56,-56.19 766.5,-50.5 755.97,-49.37 757.56,-56.19"/>
</g>
<!-- Node155&#45;&gt;Node15 -->
<g id="edge44" class="edge">
<title>Node155&#45;&gt;Node15</title>
<path fill="none" stroke="midnightblue" d="M597.51,-75.16C575.52,-74.41 550.99,-73.56 532.79,-72.94"/>
<polygon fill="midnightblue" stroke="midnightblue" points="597.62,-78.67 607.74,-75.51 597.87,-71.67 597.62,-78.67"/>
</g>
<!-- Node156&#45;&gt;Node83 -->
<g id="edge50" class="edge">
<title>Node156&#45;&gt;Node83</title>
<path fill="none" stroke="midnightblue" d="M760.85,-505.78C716.94,-501.85 651.98,-499.59 597,-512 508.18,-532.05 499.88,-576.19 412,-600 347.26,-617.54 268.41,-620.05 224.09,-619.83"/>
<polygon fill="midnightblue" stroke="midnightblue" points="760.7,-509.28 770.99,-506.75 761.36,-502.31 760.7,-509.28"/>
</g>
<!-- Node156&#45;&gt;Node146 -->
<g id="edge48" class="edge">
<title>Node156&#45;&gt;Node146</title>
<path fill="none" stroke="midnightblue" d="M773.27,-525.99C745.1,-536.3 707.39,-550.1 681.76,-559.48"/>
<polygon fill="midnightblue" stroke="midnightblue" points="774.61,-529.23 782.8,-522.5 772.2,-522.65 774.61,-529.23"/>
</g>
<!-- Node156&#45;&gt;Node147 -->
<g id="edge49" class="edge">
<title>Node156&#45;&gt;Node147</title>
<path fill="none" stroke="midnightblue" d="M760.49,-511.4C714.8,-513 647.41,-520.83 597,-550 575.43,-562.48 580.86,-577.95 561,-593 553.34,-598.81 544.11,-603.65 535.4,-607.47"/>
<polygon fill="midnightblue" stroke="midnightblue" points="760.85,-514.89 770.76,-511.13 760.67,-507.89 760.85,-514.89"/>
</g>
<!-- Node157&#45;&gt;Node158 -->
<g id="edge54" class="edge">
<title>Node157&#45;&gt;Node158</title>
<path fill="none" stroke="midnightblue" d="M763.43,-219.59C756.33,-216.58 749.29,-213.06 743,-209 707.33,-185.98 675.03,-146.45 660.75,-127.6"/>
<polygon fill="midnightblue" stroke="midnightblue" points="762.51,-222.99 773.1,-223.38 765.07,-216.47 762.51,-222.99"/>
</g>
<!-- Node158&#45;&gt;Node1 -->
<g id="edge57" class="edge">
<title>Node158&#45;&gt;Node1</title>
<path fill="none" stroke="midnightblue" d="M713.04,-104.51C771.57,-93.43 863.25,-79 943.5,-79 1155,-79 1155,-79 1155,-79 1226.6,-79 1308.62,-95.17 1356.99,-106.41"/>
<polygon fill="midnightblue" stroke="midnightblue" points="712.02,-101.14 702.86,-106.47 713.34,-108.02 712.02,-101.14"/>
</g>
<!-- Node158&#45;&gt;Node4 -->
<g id="edge56" class="edge">
<title>Node158&#45;&gt;Node4</title>
<path fill="none" stroke="midnightblue" d="M717.04,-115.79C763.61,-116.47 827.75,-120.67 882,-136 986,-165.39 1097.22,-235.56 1137.4,-262.35"/>
<polygon fill="midnightblue" stroke="midnightblue" points="716.82,-112.29 706.78,-115.69 716.75,-119.29 716.82,-112.29"/>
</g>
<!-- Node158&#45;&gt;Node15 -->
<g id="edge55" class="edge">
<title>Node158&#45;&gt;Node15</title>
<path fill="none" stroke="midnightblue" d="M607.19,-103.45C582.92,-95.95 553.53,-86.86 532.6,-80.38"/>
<polygon fill="midnightblue" stroke="midnightblue" points="606.3,-106.84 616.89,-106.45 608.37,-100.15 606.3,-106.84"/>
</g>
</g>
</svg>
        <g id="navigator" transform="translate(0 0)" fill="#404254">
                <rect fill="#f2f5e9" fill-opacity="0.5" stroke="#606060" stroke-width=".5" x="0" y="0" width="60" height="60"/>
                <use id="zoomplus" xlink:href="#zoomPlus" x="17" y="9" onmousedown="handleZoom(evt,'in')"/>
                <use id="zoomminus" xlink:href="#zoomMin" x="42" y="9" onmousedown="handleZoom(evt,'out')"/>
                <use id="reset" xlink:href="#resetDef" x="30" y="36" onmousedown="handleReset()"/>
                <g id="arrowUp" xlink:href="#dirArrow" transform="translate(30 24)" onmousedown="handlePan(0,-1)">
                  <use xlink:href="#rim" fill="#404040">
                        <set attributeName="fill" to="#808080" begin="arrowUp.mouseover" end="arrowUp.mouseout"/>
                  </use>
                  <path fill="none" stroke="white" stroke-width="1.5" d="M0,-3.0v7 M-2.5,-0.5L0,-3.0L2.5,-0.5"/>
                </g>
                <g id="arrowRight" xlink:href="#dirArrow" transform="rotate(90) translate(36 -43)" onmousedown="handlePan(1,0)">
                  <use xlink:href="#rim" fill="#404040">
                        <set attributeName="fill" to="#808080" begin="arrowRight.mouseover" end="arrowRight.mouseout"/>
                  </use>
                  <path fill="none" stroke="white" stroke-width="1.5" d="M0,-3.0v7 M-2.5,-0.5L0,-3.0L2.5,-0.5"/>
                </g>
                <g id="arrowDown" xlink:href="#dirArrow" transform="rotate(180) translate(-30 -48)" onmousedown="handlePan(0,1)">
                  <use xlink:href="#rim" fill="#404040">
                        <set attributeName="fill" to="#808080" begin="arrowDown.mouseover" end="arrowDown.mouseout"/>
                  </use>
                  <path fill="none" stroke="white" stroke-width="1.5" d="M0,-3.0v7 M-2.5,-0.5L0,-3.0L2.5,-0.5"/>
                </g>
                <g id="arrowLeft" xlink:href="#dirArrow" transform="rotate(270) translate(-36 17)" onmousedown="handlePan(-1,0)">
                  <use xlink:href="#rim" fill="#404040">
                        <set attributeName="fill" to="#808080" begin="arrowLeft.mouseover" end="arrowLeft.mouseout"/>
                  </use>
                  <path fill="none" stroke="white" stroke-width="1.5" d="M0,-3.0v7 M-2.5,-0.5L0,-3.0L2.5,-0.5"/>
                </g>
        </g>
        <svg viewBox="0 0 15 15" width="100%" height="30px" preserveAspectRatio="xMaxYMin meet">
         <g id="arrow_out" transform="scale(0.3 0.3)">
          <a xlink:href="wren__compiler_8c_aeca856979ea544d751ca03e0f3b9204c_icgraph_org.svg" target="_base">
           <rect id="button" ry="5" rx="5" y="6" x="6" height="38" width="38"
                fill="#f2f5e9" fill-opacity="0.5" stroke="#606060" stroke-width="1.0"/>
           <path id="arrow"
             d="M 11.500037,31.436501 C 11.940474,20.09759 22.043105,11.32322 32.158766,21.979434 L 37.068811,17.246167 C 37.068811,17.246167 37.088388,32 37.088388,32 L 22.160133,31.978069 C 22.160133,31.978069 26.997745,27.140456 26.997745,27.140456 C 18.528582,18.264221 13.291696,25.230495 11.500037,31.436501 z"
             style="fill:#404040;"/>
          </a>
         </g>
        </svg>
</svg>
