<?xml version="1.0" encoding="UTF-8" standalone="no"?>
<!DOCTYPE svg PUBLIC "-//W3C//DTD SVG 1.1//EN"
 "http://www.w3.org/Graphics/SVG/1.1/DTD/svg11.dtd">
<!-- Generated by graphviz version 2.47.3 (20210619.1520)
 -->
<!-- Title: readNumber Pages: 1 -->
<svg width="445pt" height="264pt"
 viewBox="0.00 0.00 445.00 264.00" xmlns="http://www.w3.org/2000/svg" xmlns:xlink="http://www.w3.org/1999/xlink">
<g id="graph0" class="graph" transform="scale(1 1) rotate(0) translate(4 260)">
<title>readNumber</title>
<polygon fill="white" stroke="transparent" points="-4,4 -4,-260 441,-260 441,4 -4,4"/>
<!-- Node1 -->
<g id="node1" class="node">
<title>Node1</title>
<g id="a_node1"><a xlink:title=" ">
<polygon fill="#bfbfbf" stroke="black" points="0,-117.5 0,-138.5 82,-138.5 82,-117.5 0,-117.5"/>
<text text-anchor="middle" x="41" y="-124.9" font-family="Helvetica,sans-Serif" font-size="12.00">readNumber</text>
</a>
</g>
</g>
<!-- Node2 -->
<g id="node2" class="node">
<title>Node2</title>
<g id="a_node2"><a xlink:href="../../d4/de2/wren__compiler_8c.html#a1044bcfbcf0d32964730d3af27f4b45d" target="_top" xlink:title=" ">
<polygon fill="white" stroke="black" points="136.5,-234.5 136.5,-255.5 186.5,-255.5 186.5,-234.5 136.5,-234.5"/>
<text text-anchor="middle" x="161.5" y="-241.9" font-family="Helvetica,sans-Serif" font-size="12.00">isDigit</text>
</a>
</g>
</g>
<!-- Node1&#45;&gt;Node2 -->
<g id="edge1" class="edge">
<title>Node1&#45;&gt;Node2</title>
<path fill="none" stroke="midnightblue" d="M48.96,-138.68C61.27,-156.96 88.36,-194.73 118,-220 121.79,-223.23 126.05,-226.29 130.38,-229.08"/>
<polygon fill="midnightblue" stroke="midnightblue" points="128.84,-232.24 139.21,-234.41 132.46,-226.24 128.84,-232.24"/>
</g>
<!-- Node3 -->
<g id="node3" class="node">
<title>Node3</title>
<g id="a_node3"><a xlink:href="../../d4/de2/wren__compiler_8c.html#a2c404ef1792908a05d45d110401e9443" target="_top" xlink:title=" ">
<polygon fill="white" stroke="black" points="258.5,-196.5 258.5,-217.5 315.5,-217.5 315.5,-196.5 258.5,-196.5"/>
<text text-anchor="middle" x="287" y="-203.9" font-family="Helvetica,sans-Serif" font-size="12.00">lexError</text>
</a>
</g>
</g>
<!-- Node1&#45;&gt;Node3 -->
<g id="edge2" class="edge">
<title>Node1&#45;&gt;Node3</title>
<path fill="none" stroke="midnightblue" d="M52.12,-138.89C65.66,-152.68 91.11,-175.97 118,-187 160.24,-204.33 213.11,-207.99 248.14,-208.19"/>
<polygon fill="midnightblue" stroke="midnightblue" points="248.42,-211.69 258.4,-208.15 248.39,-204.69 248.42,-211.69"/>
</g>
<!-- Node5 -->
<g id="node5" class="node">
<title>Node5</title>
<g id="a_node5"><a xlink:href="../../d4/de2/wren__compiler_8c.html#ac0ffb0aaacc8800a0580e625000e333a" target="_top" xlink:title=" ">
<polygon fill="white" stroke="black" points="118,-156.5 118,-177.5 205,-177.5 205,-156.5 118,-156.5"/>
<text text-anchor="middle" x="161.5" y="-163.9" font-family="Helvetica,sans-Serif" font-size="12.00">makeNumber</text>
</a>
</g>
</g>
<!-- Node1&#45;&gt;Node5 -->
<g id="edge4" class="edge">
<title>Node1&#45;&gt;Node5</title>
<path fill="none" stroke="midnightblue" d="M74.07,-138.55C87.77,-143.06 103.94,-148.39 118.57,-153.2"/>
<polygon fill="midnightblue" stroke="midnightblue" points="117.81,-156.64 128.41,-156.44 120,-149.99 117.81,-156.64"/>
</g>
<!-- Node7 -->
<g id="node7" class="node">
<title>Node7</title>
<g id="a_node7"><a xlink:href="../../d4/de2/wren__compiler_8c.html#af8117cefc422a62d8544bc726143a24a" target="_top" xlink:title=" ">
<polygon fill="white" stroke="black" points="124.5,-78.5 124.5,-99.5 198.5,-99.5 198.5,-78.5 124.5,-78.5"/>
<text text-anchor="middle" x="161.5" y="-85.9" font-family="Helvetica,sans-Serif" font-size="12.00">matchChar</text>
</a>
</g>
</g>
<!-- Node1&#45;&gt;Node7 -->
<g id="edge7" class="edge">
<title>Node1&#45;&gt;Node7</title>
<path fill="none" stroke="midnightblue" d="M74.07,-117.45C87.77,-112.94 103.94,-107.61 118.57,-102.8"/>
<polygon fill="midnightblue" stroke="midnightblue" points="120,-106.01 128.41,-99.56 117.81,-99.36 120,-106.01"/>
</g>
<!-- Node8 -->
<g id="node8" class="node">
<title>Node8</title>
<g id="a_node8"><a xlink:href="../../d4/de2/wren__compiler_8c.html#a4b86346dfdb1db3a38675c77b11be8d3" target="_top" xlink:title=" ">
<polygon fill="white" stroke="black" points="255.5,-116.5 255.5,-137.5 318.5,-137.5 318.5,-116.5 255.5,-116.5"/>
<text text-anchor="middle" x="287" y="-123.9" font-family="Helvetica,sans-Serif" font-size="12.00">nextChar</text>
</a>
</g>
</g>
<!-- Node1&#45;&gt;Node8 -->
<g id="edge11" class="edge">
<title>Node1&#45;&gt;Node8</title>
<path fill="none" stroke="midnightblue" d="M82.02,-127.84C127.05,-127.65 199.81,-127.35 245.17,-127.17"/>
<polygon fill="midnightblue" stroke="midnightblue" points="245.26,-130.67 255.24,-127.13 245.23,-123.67 245.26,-130.67"/>
</g>
<!-- Node9 -->
<g id="node9" class="node">
<title>Node9</title>
<g id="a_node9"><a xlink:href="../../d4/de2/wren__compiler_8c.html#a3b5f12d504fe199f09e2651235c398a5" target="_top" xlink:title=" ">
<polygon fill="white" stroke="black" points="369,-58.5 369,-79.5 437,-79.5 437,-58.5 369,-58.5"/>
<text text-anchor="middle" x="403" y="-65.9" font-family="Helvetica,sans-Serif" font-size="12.00">peekChar</text>
</a>
</g>
</g>
<!-- Node1&#45;&gt;Node9 -->
<g id="edge12" class="edge">
<title>Node1&#45;&gt;Node9</title>
<path fill="none" stroke="midnightblue" d="M51.48,-117.11C64.7,-102.84 90.19,-78.53 118,-69 199.45,-41.09 301.93,-51.26 358.85,-60.54"/>
<polygon fill="midnightblue" stroke="midnightblue" points="358.49,-64.03 368.93,-62.26 359.66,-57.13 358.49,-64.03"/>
</g>
<!-- Node10 -->
<g id="node10" class="node">
<title>Node10</title>
<g id="a_node10"><a xlink:href="../../d4/de2/wren__compiler_8c.html#ac712f9fee52f55578ff47f1d4d40f27f" target="_top" xlink:title=" ">
<polygon fill="white" stroke="black" points="241,-0.5 241,-21.5 333,-21.5 333,-0.5 241,-0.5"/>
<text text-anchor="middle" x="287" y="-7.9" font-family="Helvetica,sans-Serif" font-size="12.00">peekNextChar</text>
</a>
</g>
</g>
<!-- Node1&#45;&gt;Node10 -->
<g id="edge13" class="edge">
<title>Node1&#45;&gt;Node10</title>
<path fill="none" stroke="midnightblue" d="M47.38,-117.29C57.93,-97.53 83.36,-55.56 118,-36 152.09,-16.75 196.01,-10.74 230.39,-9.42"/>
<polygon fill="midnightblue" stroke="midnightblue" points="230.83,-12.91 240.73,-9.15 230.64,-5.91 230.83,-12.91"/>
</g>
<!-- Node4 -->
<g id="node4" class="node">
<title>Node4</title>
<g id="a_node4"><a xlink:href="../../d4/de2/wren__compiler_8c.html#a22c495e9344a9dc8eff660fcba96d843" target="_top" xlink:title=" ">
<polygon fill="white" stroke="black" points="370.5,-196.5 370.5,-217.5 435.5,-217.5 435.5,-196.5 370.5,-196.5"/>
<text text-anchor="middle" x="403" y="-203.9" font-family="Helvetica,sans-Serif" font-size="12.00">printError</text>
</a>
</g>
</g>
<!-- Node3&#45;&gt;Node4 -->
<g id="edge3" class="edge">
<title>Node3&#45;&gt;Node4</title>
<path fill="none" stroke="midnightblue" d="M315.6,-207C328.98,-207 345.35,-207 360.22,-207"/>
<polygon fill="midnightblue" stroke="midnightblue" points="360.22,-210.5 370.22,-207 360.22,-203.5 360.22,-210.5"/>
</g>
<!-- Node5&#45;&gt;Node3 -->
<g id="edge5" class="edge">
<title>Node5&#45;&gt;Node3</title>
<path fill="none" stroke="midnightblue" d="M194.95,-177.51C211.44,-182.85 231.55,-189.37 248.68,-194.91"/>
<polygon fill="midnightblue" stroke="midnightblue" points="247.78,-198.3 258.37,-198.05 249.94,-191.64 247.78,-198.3"/>
</g>
<!-- Node6 -->
<g id="node6" class="node">
<title>Node6</title>
<g id="a_node6"><a xlink:href="../../d4/de2/wren__compiler_8c.html#ad5bbc381038389282731d29e3f95971f" target="_top" xlink:title=" ">
<polygon fill="white" stroke="black" points="248,-156.5 248,-177.5 326,-177.5 326,-156.5 248,-156.5"/>
<text text-anchor="middle" x="287" y="-163.9" font-family="Helvetica,sans-Serif" font-size="12.00">makeToken</text>
</a>
</g>
</g>
<!-- Node5&#45;&gt;Node6 -->
<g id="edge6" class="edge">
<title>Node5&#45;&gt;Node6</title>
<path fill="none" stroke="midnightblue" d="M205,-167C215.58,-167 226.99,-167 237.82,-167"/>
<polygon fill="midnightblue" stroke="midnightblue" points="237.97,-170.5 247.97,-167 237.97,-163.5 237.97,-170.5"/>
</g>
<!-- Node7&#45;&gt;Node8 -->
<g id="edge8" class="edge">
<title>Node7&#45;&gt;Node8</title>
<path fill="none" stroke="midnightblue" d="M196.9,-99.59C211.89,-104.2 229.57,-109.64 245.22,-114.45"/>
<polygon fill="midnightblue" stroke="midnightblue" points="244.57,-117.91 255.15,-117.51 246.63,-111.22 244.57,-117.91"/>
</g>
<!-- Node7&#45;&gt;Node9 -->
<g id="edge10" class="edge">
<title>Node7&#45;&gt;Node9</title>
<path fill="none" stroke="midnightblue" d="M198.61,-85.98C241.41,-82.41 312.67,-76.46 358.47,-72.63"/>
<polygon fill="midnightblue" stroke="midnightblue" points="359.01,-76.1 368.69,-71.78 358.43,-69.13 359.01,-76.1"/>
</g>
<!-- Node8&#45;&gt;Node9 -->
<g id="edge9" class="edge">
<title>Node8&#45;&gt;Node9</title>
<path fill="none" stroke="midnightblue" d="M308.64,-116.5C326.37,-107.48 352.14,-94.36 372.12,-84.2"/>
<polygon fill="midnightblue" stroke="midnightblue" points="373.8,-87.28 381.12,-79.62 370.62,-81.04 373.8,-87.28"/>
</g>
<!-- Node10&#45;&gt;Node9 -->
<g id="edge14" class="edge">
<title>Node10&#45;&gt;Node9</title>
<path fill="none" stroke="midnightblue" d="M308.64,-21.5C326.37,-30.52 352.14,-43.64 372.12,-53.8"/>
<polygon fill="midnightblue" stroke="midnightblue" points="370.62,-56.96 381.12,-58.38 373.8,-50.72 370.62,-56.96"/>
</g>
</g>
</svg>
