<?xml version="1.0" encoding="UTF-8" standalone="no"?>
<!DOCTYPE svg PUBLIC "-//W3C//DTD SVG 1.1//EN"
 "http://www.w3.org/Graphics/SVG/1.1/DTD/svg11.dtd">
<!-- Generated by graphviz version 2.47.3 (20210619.1520)
 -->
<!-- Title: match Pages: 1 -->
<!--zoomable 1067 -->
<svg id="main" version="1.1" xmlns="http://www.w3.org/2000/svg" xmlns:xlink="http://www.w3.org/1999/xlink" xml:space="preserve" onload="init(evt)">
<style type="text/css"><![CDATA[
.edge:hover path { stroke: red; }
.edge:hover polygon { stroke: red; fill: red; }
]]></style>
<script type="text/javascript"><![CDATA[
var edges = document.getElementsByTagName('g');
if (edges && edges.length) {
  for (var i=0;i<edges.length;i++) {
    if (edges[i].id.substr(0,4)=='edge') {
      edges[i].setAttribute('class','edge');
    }
  }
}
]]></script>
        <defs>
                <circle id="rim" cx="0" cy="0" r="7"/>
                <circle id="rim2" cx="0" cy="0" r="3.5"/>
                <g id="zoomPlus">
                        <use xlink:href="#rim" fill="#404040">
                                <set attributeName="fill" to="#808080" begin="zoomplus.mouseover" end="zoomplus.mouseout"/>
                        </use>
                        <path d="M-4,0h8M0,-4v8" fill="none" stroke="white" stroke-width="1.5" pointer-events="none"/>
                </g>
                <g id="zoomMin">
                        <use xlink:href="#rim" fill="#404040">
                                <set attributeName="fill" to="#808080" begin="zoomminus.mouseover" end="zoomminus.mouseout"/>
                        </use>
                        <path d="M-4,0h8" fill="none" stroke="white" stroke-width="1.5" pointer-events="none"/>
                </g>
                <g id="dirArrow">
                        <path fill="none" stroke="white" stroke-width="1.5" d="M0,-3.0v7 M-2.5,-0.5L0,-3.0L2.5,-0.5"/>
                </g>
               <g id="resetDef">
                       <use xlink:href="#rim2" fill="#404040">
                               <set attributeName="fill" to="#808080" begin="reset.mouseover" end="reset.mouseout"/>
                       </use>
               </g>
        </defs>

<script type="text/javascript">
var viewWidth = 1017;
var viewHeight = 1067;
var sectionId = 'dynsection-130';
</script>
<script xlink:href="../../svgpan.js"/>
<svg id="graph" class="graph">
<g id="viewport">
<title>match</title>
<polygon fill="white" stroke="transparent" points="-4,4 -4,-1063.08 1013,-1063.08 1013,4 -4,4"/>
<!-- Node1 -->
<g id="node1" class="node">
<title>Node1</title>
<g id="a_node1"><a xlink:title=" ">
<polygon fill="#bfbfbf" stroke="black" points="0,-687.58 0,-708.58 48,-708.58 48,-687.58 0,-687.58"/>
<text text-anchor="middle" x="24" y="-694.98" font-family="Helvetica,sans-Serif" font-size="12.00">match</text>
</a>
</g>
</g>
<!-- Node2 -->
<g id="node2" class="node">
<title>Node2</title>
<g id="a_node2"><a xlink:href="../../d4/de2/wren__compiler_8c.html#aff9308c9745d77724d06dbc7f1e7bd34" target="_top" xlink:title=" ">
<polygon fill="white" stroke="black" points="84,-707.58 84,-728.58 154,-728.58 154,-707.58 84,-707.58"/>
<text text-anchor="middle" x="119" y="-714.98" font-family="Helvetica,sans-Serif" font-size="12.00">nextToken</text>
</a>
</g>
</g>
<!-- Node1&#45;&gt;Node2 -->
<g id="edge1" class="edge">
<title>Node1&#45;&gt;Node2</title>
<path fill="none" stroke="midnightblue" d="M48.47,-703.13C56.29,-704.81 65.27,-706.74 74.12,-708.65"/>
<polygon fill="midnightblue" stroke="midnightblue" points="73.48,-712.09 84,-710.77 74.96,-705.25 73.48,-712.09"/>
</g>
<!-- Node30 -->
<g id="node30" class="node">
<title>Node30</title>
<g id="a_node30"><a xlink:href="../../d4/de2/wren__compiler_8c.html#a55ffa49d00ce173be5cbd76358588d08" target="_top" xlink:title=" ">
<polygon fill="white" stroke="black" points="97.5,-667.58 97.5,-688.58 140.5,-688.58 140.5,-667.58 97.5,-667.58"/>
<text text-anchor="middle" x="119" y="-674.98" font-family="Helvetica,sans-Serif" font-size="12.00">peek</text>
</a>
</g>
</g>
<!-- Node1&#45;&gt;Node30 -->
<g id="edge71" class="edge">
<title>Node1&#45;&gt;Node30</title>
<path fill="none" stroke="midnightblue" d="M48.47,-693.04C60.24,-690.51 74.64,-687.41 87.28,-684.69"/>
<polygon fill="midnightblue" stroke="midnightblue" points="88.35,-688.04 97.39,-682.52 86.88,-681.2 88.35,-688.04"/>
</g>
<!-- Node3 -->
<g id="node3" class="node">
<title>Node3</title>
<g id="a_node3"><a xlink:href="../../d4/de2/wren__compiler_8c.html#a1044bcfbcf0d32964730d3af27f4b45d" target="_top" xlink:title=" ">
<polygon fill="white" stroke="black" points="690.5,-934.58 690.5,-955.58 740.5,-955.58 740.5,-934.58 690.5,-934.58"/>
<text text-anchor="middle" x="715.5" y="-941.98" font-family="Helvetica,sans-Serif" font-size="12.00">isDigit</text>
</a>
</g>
</g>
<!-- Node2&#45;&gt;Node3 -->
<g id="edge2" class="edge">
<title>Node2&#45;&gt;Node3</title>
<path fill="none" stroke="midnightblue" d="M120.58,-728.64C122.95,-760.92 134.6,-859.2 190,-910.08 329.77,-1038.46 588.56,-981.37 680.78,-955.41"/>
<polygon fill="midnightblue" stroke="midnightblue" points="681.79,-958.77 690.43,-952.64 679.86,-952.04 681.79,-958.77"/>
</g>
<!-- Node4 -->
<g id="node4" class="node">
<title>Node4</title>
<g id="a_node4"><a xlink:href="../../d4/de2/wren__compiler_8c.html#a4f4bae86546f2e4c8c4854d69a9b4636" target="_top" xlink:title=" ">
<polygon fill="white" stroke="black" points="687,-992.58 687,-1013.58 744,-1013.58 744,-992.58 687,-992.58"/>
<text text-anchor="middle" x="715.5" y="-999.98" font-family="Helvetica,sans-Serif" font-size="12.00">isName</text>
</a>
</g>
</g>
<!-- Node2&#45;&gt;Node4 -->
<g id="edge3" class="edge">
<title>Node2&#45;&gt;Node4</title>
<path fill="none" stroke="midnightblue" d="M120.26,-728.67C121.69,-764.09 130.87,-880.06 190,-947.08 315.07,-1088.86 579.51,-1038.39 677.21,-1013.54"/>
<polygon fill="midnightblue" stroke="midnightblue" points="678.14,-1016.91 686.94,-1011.01 676.38,-1010.14 678.14,-1016.91"/>
</g>
<!-- Node5 -->
<g id="node5" class="node">
<title>Node5</title>
<g id="a_node5"><a xlink:href="../../d4/de2/wren__compiler_8c.html#a2c404ef1792908a05d45d110401e9443" target="_top" xlink:title=" ">
<polygon fill="white" stroke="black" points="687,-318.58 687,-339.58 744,-339.58 744,-318.58 687,-318.58"/>
<text text-anchor="middle" x="715.5" y="-325.98" font-family="Helvetica,sans-Serif" font-size="12.00">lexError</text>
</a>
</g>
</g>
<!-- Node2&#45;&gt;Node5 -->
<g id="edge4" class="edge">
<title>Node2&#45;&gt;Node5</title>
<path fill="none" stroke="midnightblue" d="M144.69,-707.43C148.32,-704.87 151.63,-701.77 154,-698.08 238.49,-566.5 112.07,-483.66 190,-348.08 219.33,-297.06 243.67,-294.98 297,-270.08 425.68,-210.02 491.42,-158.39 614,-230.08 642.17,-246.56 626.75,-271.18 650,-294.08 658.06,-302.02 668.29,-308.67 678.22,-313.96"/>
<polygon fill="midnightblue" stroke="midnightblue" points="676.67,-317.1 687.18,-318.44 679.79,-310.83 676.67,-317.1"/>
</g>
<!-- Node7 -->
<g id="node7" class="node">
<title>Node7</title>
<g id="a_node7"><a xlink:href="../../d4/de2/wren__compiler_8c.html#ad5bbc381038389282731d29e3f95971f" target="_top" xlink:title=" ">
<polygon fill="white" stroke="black" points="676.5,-625.58 676.5,-646.58 754.5,-646.58 754.5,-625.58 676.5,-625.58"/>
<text text-anchor="middle" x="715.5" y="-632.98" font-family="Helvetica,sans-Serif" font-size="12.00">makeToken</text>
</a>
</g>
</g>
<!-- Node2&#45;&gt;Node7 -->
<g id="edge6" class="edge">
<title>Node2&#45;&gt;Node7</title>
<path fill="none" stroke="midnightblue" d="M131.41,-728.82C144.52,-740.55 167.17,-758.99 190,-769.08 276.58,-807.36 538.24,-866.85 614,-810.08 659.58,-775.93 618.16,-734.31 650,-687.08 659.47,-673.04 674.01,-661.07 686.89,-652.25"/>
<polygon fill="midnightblue" stroke="midnightblue" points="688.99,-655.06 695.46,-646.67 685.17,-649.19 688.99,-655.06"/>
</g>
<!-- Node8 -->
<g id="node8" class="node">
<title>Node8</title>
<g id="a_node8"><a xlink:href="../../d4/de2/wren__compiler_8c.html#af8117cefc422a62d8544bc726143a24a" target="_top" xlink:title=" ">
<polygon fill="white" stroke="black" points="499,-779.58 499,-800.58 573,-800.58 573,-779.58 499,-779.58"/>
<text text-anchor="middle" x="536" y="-786.98" font-family="Helvetica,sans-Serif" font-size="12.00">matchChar</text>
</a>
</g>
</g>
<!-- Node2&#45;&gt;Node8 -->
<g id="edge7" class="edge">
<title>Node2&#45;&gt;Node8</title>
<path fill="none" stroke="midnightblue" d="M143.97,-728.72C157.34,-734.38 174.39,-741.17 190,-746.08 236.58,-760.75 248.75,-763.57 297,-771.08 363.2,-781.4 440.69,-786.27 488.81,-788.45"/>
<polygon fill="midnightblue" stroke="midnightblue" points="488.78,-791.95 498.92,-788.89 489.08,-784.96 488.78,-791.95"/>
</g>
<!-- Node9 -->
<g id="node9" class="node">
<title>Node9</title>
<g id="a_node9"><a xlink:href="../../d4/de2/wren__compiler_8c.html#a4b86346dfdb1db3a38675c77b11be8d3" target="_top" xlink:title=" ">
<polygon fill="white" stroke="black" points="829.5,-548.58 829.5,-569.58 892.5,-569.58 892.5,-548.58 829.5,-548.58"/>
<text text-anchor="middle" x="861" y="-555.98" font-family="Helvetica,sans-Serif" font-size="12.00">nextChar</text>
</a>
</g>
</g>
<!-- Node2&#45;&gt;Node9 -->
<g id="edge11" class="edge">
<title>Node2&#45;&gt;Node9</title>
<path fill="none" stroke="midnightblue" d="M138.48,-707.51C143.55,-704.53 149.02,-701.24 154,-698.08 246.86,-639.3 248.6,-559.08 358.5,-559.08 358.5,-559.08 358.5,-559.08 537,-559.08 638.51,-559.08 757.97,-559.08 819.24,-559.08"/>
<polygon fill="midnightblue" stroke="midnightblue" points="819.27,-562.59 829.27,-559.08 819.27,-555.59 819.27,-562.59"/>
</g>
<!-- Node10 -->
<g id="node10" class="node">
<title>Node10</title>
<g id="a_node10"><a xlink:href="../../d4/de2/wren__compiler_8c.html#a3b5f12d504fe199f09e2651235c398a5" target="_top" xlink:title=" ">
<polygon fill="white" stroke="black" points="941,-644.58 941,-665.58 1009,-665.58 1009,-644.58 941,-644.58"/>
<text text-anchor="middle" x="975" y="-651.98" font-family="Helvetica,sans-Serif" font-size="12.00">peekChar</text>
</a>
</g>
</g>
<!-- Node2&#45;&gt;Node10 -->
<g id="edge12" class="edge">
<title>Node2&#45;&gt;Node10</title>
<path fill="none" stroke="midnightblue" d="M119.89,-728.59C120.04,-767.25 125.33,-903.58 190,-986.08 240.35,-1050.32 276.89,-1059.08 358.5,-1059.08 358.5,-1059.08 358.5,-1059.08 716.5,-1059.08 900.19,-1059.08 958.59,-758.41 971.16,-675.84"/>
<polygon fill="midnightblue" stroke="midnightblue" points="974.63,-676.29 972.61,-665.89 967.7,-675.28 974.63,-676.29"/>
</g>
<!-- Node11 -->
<g id="node11" class="node">
<title>Node11</title>
<g id="a_node11"><a xlink:href="../../d4/de2/wren__compiler_8c.html#ac712f9fee52f55578ff47f1d4d40f27f" target="_top" xlink:title=" ">
<polygon fill="white" stroke="black" points="669.5,-64.58 669.5,-85.58 761.5,-85.58 761.5,-64.58 669.5,-64.58"/>
<text text-anchor="middle" x="715.5" y="-71.98" font-family="Helvetica,sans-Serif" font-size="12.00">peekNextChar</text>
</a>
</g>
</g>
<!-- Node2&#45;&gt;Node11 -->
<g id="edge13" class="edge">
<title>Node2&#45;&gt;Node11</title>
<path fill="none" stroke="midnightblue" d="M144.82,-707.52C148.44,-704.94 151.71,-701.82 154,-698.08 223.43,-584.75 104.73,-203.03 190,-101.08 312.31,45.15 426.61,-1 614,-36.08 638.71,-40.71 665.15,-51.22 684.71,-60.16"/>
<polygon fill="midnightblue" stroke="midnightblue" points="683.45,-63.44 693.99,-64.52 686.43,-57.1 683.45,-63.44"/>
</g>
<!-- Node12 -->
<g id="node12" class="node">
<title>Node12</title>
<g id="a_node12"><a xlink:href="../../d4/de2/wren__compiler_8c.html#ac5855f1df10bbda532ef62084fda7df4" target="_top" xlink:title=" ">
<polygon fill="white" stroke="black" points="308.5,-509.58 308.5,-530.58 410.5,-530.58 410.5,-509.58 308.5,-509.58"/>
<text text-anchor="middle" x="359.5" y="-516.98" font-family="Helvetica,sans-Serif" font-size="12.00">readHexNumber</text>
</a>
</g>
</g>
<!-- Node2&#45;&gt;Node12 -->
<g id="edge15" class="edge">
<title>Node2&#45;&gt;Node12</title>
<path fill="none" stroke="midnightblue" d="M143.95,-707.4C147.76,-704.82 151.32,-701.72 154,-698.08 195.44,-641.85 138.58,-592.37 190,-545.08 218.63,-518.76 262.32,-512.88 298.03,-513.4"/>
<polygon fill="midnightblue" stroke="midnightblue" points="298.25,-516.9 308.35,-513.72 298.47,-509.91 298.25,-516.9"/>
</g>
<!-- Node15 -->
<g id="node15" class="node">
<title>Node15</title>
<g id="a_node15"><a xlink:href="../../d4/de2/wren__compiler_8c.html#aaf25e0c94fad40c04caf138b3f838484" target="_top" xlink:title=" ">
<polygon fill="white" stroke="black" points="500,-895.58 500,-916.58 572,-916.58 572,-895.58 500,-895.58"/>
<text text-anchor="middle" x="536" y="-902.98" font-family="Helvetica,sans-Serif" font-size="12.00">readName</text>
</a>
</g>
</g>
<!-- Node2&#45;&gt;Node15 -->
<g id="edge22" class="edge">
<title>Node2&#45;&gt;Node15</title>
<path fill="none" stroke="midnightblue" d="M120.91,-728.77C124.09,-758.73 137.57,-843.75 190,-881.08 279.99,-945.16 418.79,-930.06 489.79,-916.48"/>
<polygon fill="midnightblue" stroke="midnightblue" points="490.63,-919.88 499.76,-914.5 489.27,-913.02 490.63,-919.88"/>
</g>
<!-- Node20 -->
<g id="node20" class="node">
<title>Node20</title>
<g id="a_node20"><a xlink:href="../../d4/de2/wren__compiler_8c.html#abcdd139278dedb26f772b0b373cdb7bf" target="_top" xlink:title=" ">
<polygon fill="white" stroke="black" points="318.5,-674.58 318.5,-695.58 400.5,-695.58 400.5,-674.58 318.5,-674.58"/>
<text text-anchor="middle" x="359.5" y="-681.98" font-family="Helvetica,sans-Serif" font-size="12.00">readNumber</text>
</a>
</g>
</g>
<!-- Node2&#45;&gt;Node20 -->
<g id="edge32" class="edge">
<title>Node2&#45;&gt;Node20</title>
<path fill="none" stroke="midnightblue" d="M154.17,-713.36C194.53,-707.77 262,-698.44 308.3,-692.03"/>
<polygon fill="midnightblue" stroke="midnightblue" points="308.99,-695.47 318.42,-690.63 308.03,-688.53 308.99,-695.47"/>
</g>
<!-- Node21 -->
<g id="node21" class="node">
<title>Node21</title>
<g id="a_node21"><a xlink:href="../../d4/de2/wren__compiler_8c.html#a5c8500d7d0bb3ab4624b4053b3213d86" target="_top" xlink:title=" ">
<polygon fill="white" stroke="black" points="488.5,-83.58 488.5,-104.58 583.5,-104.58 583.5,-83.58 488.5,-83.58"/>
<text text-anchor="middle" x="536" y="-90.98" font-family="Helvetica,sans-Serif" font-size="12.00">readRawString</text>
</a>
</g>
</g>
<!-- Node2&#45;&gt;Node21 -->
<g id="edge40" class="edge">
<title>Node2&#45;&gt;Node21</title>
<path fill="none" stroke="midnightblue" d="M144.81,-707.51C148.42,-704.93 151.7,-701.82 154,-698.08 217.7,-594.77 108.73,-243.23 190,-153.08 262.33,-72.86 400.57,-75.6 478.3,-84.77"/>
<polygon fill="midnightblue" stroke="midnightblue" points="478.04,-88.26 488.39,-86.04 478.91,-81.32 478.04,-88.26"/>
</g>
<!-- Node22 -->
<g id="node22" class="node">
<title>Node22</title>
<g id="a_node22"><a xlink:href="../../d4/de2/wren__compiler_8c.html#a3cad8aafffed68be975e83a055ce1b2c" target="_top" xlink:title=" ">
<polygon fill="white" stroke="black" points="190,-357.58 190,-378.58 261,-378.58 261,-357.58 190,-357.58"/>
<text text-anchor="middle" x="225.5" y="-364.98" font-family="Helvetica,sans-Serif" font-size="12.00">readString</text>
</a>
</g>
</g>
<!-- Node2&#45;&gt;Node22 -->
<g id="edge47" class="edge">
<title>Node2&#45;&gt;Node22</title>
<path fill="none" stroke="midnightblue" d="M144.09,-707.5C147.88,-704.9 151.4,-701.78 154,-698.08 203.68,-627.41 171.59,-591.48 190,-507.08 199.22,-464.81 211.85,-415.78 218.99,-388.71"/>
<polygon fill="midnightblue" stroke="midnightblue" points="222.42,-389.41 221.61,-378.85 215.66,-387.62 222.42,-389.41"/>
</g>
<!-- Node27 -->
<g id="node27" class="node">
<title>Node27</title>
<g id="a_node27"><a xlink:href="../../d4/de2/wren__compiler_8c.html#a65889c0069858f7d0d6a459470a69c37" target="_top" xlink:title=" ">
<polygon fill="white" stroke="black" points="476.5,-161.58 476.5,-182.58 595.5,-182.58 595.5,-161.58 476.5,-161.58"/>
<text text-anchor="middle" x="536" y="-168.98" font-family="Helvetica,sans-Serif" font-size="12.00">skipBlockComment</text>
</a>
</g>
</g>
<!-- Node2&#45;&gt;Node27 -->
<g id="edge60" class="edge">
<title>Node2&#45;&gt;Node27</title>
<path fill="none" stroke="midnightblue" d="M144.79,-707.49C148.41,-704.92 151.69,-701.81 154,-698.08 212.86,-603.24 111.1,-276.04 190,-197.08 269.06,-117.98 415.68,-140.74 489.72,-159.02"/>
<polygon fill="midnightblue" stroke="midnightblue" points="489.12,-162.48 499.67,-161.56 490.85,-155.69 489.12,-162.48"/>
</g>
<!-- Node28 -->
<g id="node28" class="node">
<title>Node28</title>
<g id="a_node28"><a xlink:href="../../d4/de2/wren__compiler_8c.html#a8d72014585e50329e9923ed2f9fdccad" target="_top" xlink:title=" ">
<polygon fill="white" stroke="black" points="659.5,-779.58 659.5,-800.58 771.5,-800.58 771.5,-779.58 659.5,-779.58"/>
<text text-anchor="middle" x="715.5" y="-786.98" font-family="Helvetica,sans-Serif" font-size="12.00">skipLineComment</text>
</a>
</g>
</g>
<!-- Node2&#45;&gt;Node28 -->
<g id="edge65" class="edge">
<title>Node2&#45;&gt;Node28</title>
<path fill="none" stroke="midnightblue" d="M122.16,-728.66C127.95,-753.91 146.44,-817.55 190,-843.08 352.58,-938.37 431.08,-888.36 614,-843.08 642.6,-836.01 672.03,-819.15 691.59,-806.33"/>
<polygon fill="midnightblue" stroke="midnightblue" points="693.76,-809.09 700.1,-800.6 689.85,-803.28 693.76,-809.09"/>
</g>
<!-- Node29 -->
<g id="node29" class="node">
<title>Node29</title>
<g id="a_node29"><a xlink:href="../../d4/de2/wren__compiler_8c.html#a1923996c19f9f549a909d1e2981971f1" target="_top" xlink:title=" ">
<polygon fill="white" stroke="black" points="313.5,-740.58 313.5,-761.58 405.5,-761.58 405.5,-740.58 313.5,-740.58"/>
<text text-anchor="middle" x="359.5" y="-747.98" font-family="Helvetica,sans-Serif" font-size="12.00">twoCharToken</text>
</a>
</g>
</g>
<!-- Node2&#45;&gt;Node29 -->
<g id="edge68" class="edge">
<title>Node2&#45;&gt;Node29</title>
<path fill="none" stroke="midnightblue" d="M154.17,-722.81C193.09,-728.2 257.23,-737.07 303.28,-743.44"/>
<polygon fill="midnightblue" stroke="midnightblue" points="303.01,-746.94 313.39,-744.84 303.97,-740.01 303.01,-746.94"/>
</g>
<!-- Node6 -->
<g id="node6" class="node">
<title>Node6</title>
<g id="a_node6"><a xlink:href="../../d4/de2/wren__compiler_8c.html#a22c495e9344a9dc8eff660fcba96d843" target="_top" xlink:title=" ">
<polygon fill="white" stroke="black" points="828.5,-318.58 828.5,-339.58 893.5,-339.58 893.5,-318.58 828.5,-318.58"/>
<text text-anchor="middle" x="861" y="-325.98" font-family="Helvetica,sans-Serif" font-size="12.00">printError</text>
</a>
</g>
</g>
<!-- Node5&#45;&gt;Node6 -->
<g id="edge5" class="edge">
<title>Node5&#45;&gt;Node6</title>
<path fill="none" stroke="midnightblue" d="M744.17,-329.08C765.17,-329.08 794.39,-329.08 818.23,-329.08"/>
<polygon fill="midnightblue" stroke="midnightblue" points="818.42,-332.59 828.42,-329.08 818.42,-325.59 818.42,-332.59"/>
</g>
<!-- Node8&#45;&gt;Node9 -->
<g id="edge8" class="edge">
<title>Node8&#45;&gt;Node9</title>
<path fill="none" stroke="midnightblue" d="M549.67,-779.45C576.81,-756.74 638.99,-705.07 650,-699.08 703.85,-669.84 730.5,-690.8 781,-656.08 810.93,-635.51 835.47,-600.42 848.89,-578.56"/>
<polygon fill="midnightblue" stroke="midnightblue" points="851.99,-580.19 854.1,-569.81 845.98,-576.61 851.99,-580.19"/>
</g>
<!-- Node8&#45;&gt;Node10 -->
<g id="edge10" class="edge">
<title>Node8&#45;&gt;Node10</title>
<path fill="none" stroke="midnightblue" d="M566.23,-800.72C633.36,-823.1 800.8,-867.14 905,-792.08 944.26,-763.81 962.55,-706.66 969.86,-675.87"/>
<polygon fill="midnightblue" stroke="midnightblue" points="973.34,-676.34 972.07,-665.82 966.5,-674.83 973.34,-676.34"/>
</g>
<!-- Node9&#45;&gt;Node10 -->
<g id="edge9" class="edge">
<title>Node9&#45;&gt;Node10</title>
<path fill="none" stroke="midnightblue" d="M874.41,-569.73C893.59,-586.16 930.6,-617.89 953.71,-637.69"/>
<polygon fill="midnightblue" stroke="midnightblue" points="951.66,-640.55 961.53,-644.4 956.22,-635.23 951.66,-640.55"/>
</g>
<!-- Node11&#45;&gt;Node10 -->
<g id="edge14" class="edge">
<title>Node11&#45;&gt;Node10</title>
<path fill="none" stroke="midnightblue" d="M761.67,-67.04C804.67,-62.2 868.15,-62.94 905,-100.08 943.44,-138.84 967.59,-537.7 972.89,-634.17"/>
<polygon fill="midnightblue" stroke="midnightblue" points="969.41,-634.59 973.45,-644.39 976.4,-634.21 969.41,-634.59"/>
</g>
<!-- Node12&#45;&gt;Node9 -->
<g id="edge19" class="edge">
<title>Node12&#45;&gt;Node9</title>
<path fill="none" stroke="midnightblue" d="M410.51,-521.18C489.46,-523.34 647.73,-529.37 781,-545.08 793.54,-546.56 807.1,-548.75 819.39,-550.96"/>
<polygon fill="midnightblue" stroke="midnightblue" points="818.89,-554.42 829.36,-552.8 820.16,-547.54 818.89,-554.42"/>
</g>
<!-- Node13 -->
<g id="node13" class="node">
<title>Node13</title>
<g id="a_node13"><a xlink:href="../../d4/de2/wren__compiler_8c.html#ac0ffb0aaacc8800a0580e625000e333a" target="_top" xlink:title=" ">
<polygon fill="white" stroke="black" points="492.5,-587.58 492.5,-608.58 579.5,-608.58 579.5,-587.58 492.5,-587.58"/>
<text text-anchor="middle" x="536" y="-594.98" font-family="Helvetica,sans-Serif" font-size="12.00">makeNumber</text>
</a>
</g>
</g>
<!-- Node12&#45;&gt;Node13 -->
<g id="edge16" class="edge">
<title>Node12&#45;&gt;Node13</title>
<path fill="none" stroke="midnightblue" d="M384.03,-530.6C414.48,-544.21 467.67,-567.99 502.1,-583.38"/>
<polygon fill="midnightblue" stroke="midnightblue" points="500.72,-586.6 511.28,-587.48 503.58,-580.21 500.72,-586.6"/>
</g>
<!-- Node14 -->
<g id="node14" class="node">
<title>Node14</title>
<g id="a_node14"><a xlink:href="../../d4/de2/wren__compiler_8c.html#a3b31922ca0cec992bd4f6f6883d5eb4c" target="_top" xlink:title=" ">
<polygon fill="white" stroke="black" points="672.5,-396.58 672.5,-417.58 758.5,-417.58 758.5,-396.58 672.5,-396.58"/>
<text text-anchor="middle" x="715.5" y="-403.98" font-family="Helvetica,sans-Serif" font-size="12.00">readHexDigit</text>
</a>
</g>
</g>
<!-- Node12&#45;&gt;Node14 -->
<g id="edge20" class="edge">
<title>Node12&#45;&gt;Node14</title>
<path fill="none" stroke="midnightblue" d="M393.49,-509.56C457.91,-488.99 600.4,-443.51 671.87,-420.69"/>
<polygon fill="midnightblue" stroke="midnightblue" points="673.01,-424 681.47,-417.63 670.88,-417.34 673.01,-424"/>
</g>
<!-- Node13&#45;&gt;Node5 -->
<g id="edge17" class="edge">
<title>Node13&#45;&gt;Node5</title>
<path fill="none" stroke="midnightblue" d="M547.1,-587.42C563.26,-569.86 595.03,-533.19 614,-497.08 637.93,-451.55 621.92,-430.19 650,-387.08 660.52,-370.94 676.64,-356.44 690.13,-345.98"/>
<polygon fill="midnightblue" stroke="midnightblue" points="692.61,-348.5 698.53,-339.71 688.42,-342.88 692.61,-348.5"/>
</g>
<!-- Node13&#45;&gt;Node7 -->
<g id="edge18" class="edge">
<title>Node13&#45;&gt;Node7</title>
<path fill="none" stroke="midnightblue" d="M579.52,-607.19C605.62,-612.77 639.12,-619.95 666.22,-625.75"/>
<polygon fill="midnightblue" stroke="midnightblue" points="665.75,-629.23 676.26,-627.9 667.22,-622.38 665.75,-629.23"/>
</g>
<!-- Node14&#45;&gt;Node9 -->
<g id="edge21" class="edge">
<title>Node14&#45;&gt;Node9</title>
<path fill="none" stroke="midnightblue" d="M755.55,-417.59C764.53,-421.21 773.6,-425.95 781,-432.08 816.46,-461.47 840.7,-511.09 852.25,-538.81"/>
<polygon fill="midnightblue" stroke="midnightblue" points="849.08,-540.3 856.05,-548.27 855.57,-537.69 849.08,-540.3"/>
</g>
<!-- Node15&#45;&gt;Node3 -->
<g id="edge23" class="edge">
<title>Node15&#45;&gt;Node3</title>
<path fill="none" stroke="midnightblue" d="M572.07,-913.79C603.48,-920.69 649.25,-930.75 680.37,-937.59"/>
<polygon fill="midnightblue" stroke="midnightblue" points="679.8,-941.04 690.32,-939.77 681.3,-934.21 679.8,-941.04"/>
</g>
<!-- Node15&#45;&gt;Node4 -->
<g id="edge24" class="edge">
<title>Node15&#45;&gt;Node4</title>
<path fill="none" stroke="midnightblue" d="M556.33,-916.65C587.68,-933.78 649.73,-967.69 686.1,-987.56"/>
<polygon fill="midnightblue" stroke="midnightblue" points="684.74,-990.81 695.19,-992.53 688.09,-984.67 684.74,-990.81"/>
</g>
<!-- Node15&#45;&gt;Node7 -->
<g id="edge25" class="edge">
<title>Node15&#45;&gt;Node7</title>
<path fill="none" stroke="midnightblue" d="M556.13,-895.38C573.81,-884.49 599.48,-865.99 614,-843.08 649.32,-787.37 617.16,-756.3 650,-699.08 660.39,-680.98 677.45,-664.65 691.42,-653.15"/>
<polygon fill="midnightblue" stroke="midnightblue" points="693.97,-655.6 699.63,-646.64 689.62,-650.11 693.97,-655.6"/>
</g>
<!-- Node15&#45;&gt;Node9 -->
<g id="edge26" class="edge">
<title>Node15&#45;&gt;Node9</title>
<path fill="none" stroke="midnightblue" d="M553.79,-895.49C570.7,-884.16 596.7,-864.85 614,-843.08 636.51,-814.77 625.52,-796.72 650,-770.08 696,-720.02 733,-739.24 781,-691.08 814.44,-657.54 839.46,-607.12 851.68,-579.31"/>
<polygon fill="midnightblue" stroke="midnightblue" points="855.01,-580.41 855.73,-569.84 848.58,-577.66 855.01,-580.41"/>
</g>
<!-- Node15&#45;&gt;Node10 -->
<g id="edge27" class="edge">
<title>Node15&#45;&gt;Node10</title>
<path fill="none" stroke="midnightblue" d="M572.01,-908.2C643.32,-910.57 806.94,-905.92 905,-823.08 950.42,-784.71 966.37,-711.7 971.62,-675.91"/>
<polygon fill="midnightblue" stroke="midnightblue" points="975.13,-676.07 972.97,-665.69 968.19,-675.15 975.13,-676.07"/>
</g>
<!-- Node16 -->
<g id="node16" class="node">
<title>Node16</title>
<g id="a_node16"><a xlink:href="../../da/dbe/wren__value_8c.html#a6f59ebcbdfd6eb24569b4d50cf85052b" target="_top" xlink:title=" ">
<polygon fill="white" stroke="black" points="650,-180.58 650,-201.58 781,-201.58 781,-180.58 650,-180.58"/>
<text text-anchor="middle" x="715.5" y="-187.98" font-family="Helvetica,sans-Serif" font-size="12.00">wrenNewStringLength</text>
</a>
</g>
</g>
<!-- Node15&#45;&gt;Node16 -->
<g id="edge28" class="edge">
<title>Node15&#45;&gt;Node16</title>
<path fill="none" stroke="midnightblue" d="M549.32,-895.46C567.23,-879.17 599.88,-846.09 614,-810.08 695.53,-602.27 587.02,-523.26 650,-309.08 661.06,-271.48 685.35,-232.46 700.76,-210.04"/>
<polygon fill="midnightblue" stroke="midnightblue" points="703.69,-211.96 706.57,-201.77 697.96,-207.94 703.69,-211.96"/>
</g>
<!-- Node17 -->
<g id="node17" class="node">
<title>Node17</title>
<g id="a_node17"><a xlink:href="../../da/dbe/wren__value_8c.html#a3d3e25579f4aebe9485f8b63144cc458" target="_top" xlink:title=" ">
<polygon fill="white" stroke="black" points="817,-26.58 817,-47.58 905,-47.58 905,-26.58 817,-26.58"/>
<text text-anchor="middle" x="861" y="-33.98" font-family="Helvetica,sans-Serif" font-size="12.00">allocateString</text>
</a>
</g>
</g>
<!-- Node16&#45;&gt;Node17 -->
<g id="edge29" class="edge">
<title>Node16&#45;&gt;Node17</title>
<path fill="none" stroke="midnightblue" d="M726.36,-180.5C750.53,-154.56 812.92,-87.61 843.13,-55.19"/>
<polygon fill="midnightblue" stroke="midnightblue" points="845.81,-57.45 850.07,-47.74 840.69,-52.67 845.81,-57.45"/>
</g>
<!-- Node19 -->
<g id="node19" class="node">
<title>Node19</title>
<g id="a_node19"><a xlink:href="../../da/dbe/wren__value_8c.html#aa7b677d04dbfc61fd57d43783053dda3" target="_top" xlink:title=" ">
<polygon fill="white" stroke="black" points="825,-180.58 825,-201.58 897,-201.58 897,-180.58 825,-180.58"/>
<text text-anchor="middle" x="861" y="-187.98" font-family="Helvetica,sans-Serif" font-size="12.00">hashString</text>
</a>
</g>
</g>
<!-- Node16&#45;&gt;Node19 -->
<g id="edge31" class="edge">
<title>Node16&#45;&gt;Node19</title>
<path fill="none" stroke="midnightblue" d="M781.11,-191.08C792.38,-191.08 803.89,-191.08 814.51,-191.08"/>
<polygon fill="midnightblue" stroke="midnightblue" points="814.79,-194.59 824.79,-191.08 814.79,-187.59 814.79,-194.59"/>
</g>
<!-- Node18 -->
<g id="node18" class="node">
<title>Node18</title>
<g id="a_node18"><a xlink:href="../../da/dbe/wren__value_8c.html#a43609aa7ebae0d5de168775652f8d2fc" target="_top" xlink:title=" ">
<polygon fill="white" stroke="black" points="950,-26.58 950,-47.58 1000,-47.58 1000,-26.58 950,-26.58"/>
<text text-anchor="middle" x="975" y="-33.98" font-family="Helvetica,sans-Serif" font-size="12.00">initObj</text>
</a>
</g>
</g>
<!-- Node17&#45;&gt;Node18 -->
<g id="edge30" class="edge">
<title>Node17&#45;&gt;Node18</title>
<path fill="none" stroke="midnightblue" d="M905.3,-37.08C916.66,-37.08 928.75,-37.08 939.58,-37.08"/>
<polygon fill="midnightblue" stroke="midnightblue" points="939.9,-40.59 949.9,-37.08 939.9,-33.59 939.9,-40.59"/>
</g>
<!-- Node20&#45;&gt;Node3 -->
<g id="edge33" class="edge">
<title>Node20&#45;&gt;Node3</title>
<path fill="none" stroke="midnightblue" d="M381.77,-695.6C395.43,-703.48 412.37,-715.57 422,-731.08 468.48,-805.96 392.39,-867.24 458,-926.08 519.52,-981.26 626.15,-966.59 680.51,-954.22"/>
<polygon fill="midnightblue" stroke="midnightblue" points="681.43,-957.6 690.34,-951.88 679.8,-950.79 681.43,-957.6"/>
</g>
<!-- Node20&#45;&gt;Node5 -->
<g id="edge34" class="edge">
<title>Node20&#45;&gt;Node5</title>
<path fill="none" stroke="midnightblue" d="M370.02,-674.29C387.27,-654.81 424.98,-612.58 458,-578.08 541.23,-491.13 562.55,-469.8 650,-387.08 664.72,-373.16 681.78,-357.86 694.66,-346.46"/>
<polygon fill="midnightblue" stroke="midnightblue" points="697.26,-348.84 702.45,-339.6 692.63,-343.58 697.26,-348.84"/>
</g>
<!-- Node20&#45;&gt;Node8 -->
<g id="edge36" class="edge">
<title>Node20&#45;&gt;Node8</title>
<path fill="none" stroke="midnightblue" d="M378.19,-695.73C408.97,-714.25 472.53,-752.5 508.56,-774.18"/>
<polygon fill="midnightblue" stroke="midnightblue" points="507.15,-777.41 517.52,-779.57 510.76,-771.41 507.15,-777.41"/>
</g>
<!-- Node20&#45;&gt;Node9 -->
<g id="edge37" class="edge">
<title>Node20&#45;&gt;Node9</title>
<path fill="none" stroke="midnightblue" d="M400.53,-674.99C493.92,-651.43 725.35,-593.05 819.34,-569.34"/>
<polygon fill="midnightblue" stroke="midnightblue" points="820.48,-572.66 829.32,-566.82 818.77,-565.88 820.48,-572.66"/>
</g>
<!-- Node20&#45;&gt;Node10 -->
<g id="edge38" class="edge">
<title>Node20&#45;&gt;Node10</title>
<path fill="none" stroke="midnightblue" d="M400.75,-683.12C511.01,-677.73 817.19,-662.75 930.83,-657.2"/>
<polygon fill="midnightblue" stroke="midnightblue" points="931.08,-660.69 940.89,-656.7 930.73,-653.7 931.08,-660.69"/>
</g>
<!-- Node20&#45;&gt;Node11 -->
<g id="edge39" class="edge">
<title>Node20&#45;&gt;Node11</title>
<path fill="none" stroke="midnightblue" d="M366.37,-674.58C379.1,-651.25 409.11,-592.95 422,-540.08 434.3,-489.63 419.89,-109.36 458,-74.08 517.53,-18.98 622.21,-42.8 677.65,-61.13"/>
<polygon fill="midnightblue" stroke="midnightblue" points="676.81,-64.54 687.41,-64.47 679.08,-57.92 676.81,-64.54"/>
</g>
<!-- Node20&#45;&gt;Node13 -->
<g id="edge35" class="edge">
<title>Node20&#45;&gt;Node13</title>
<path fill="none" stroke="midnightblue" d="M381.9,-674.42C412.59,-659.11 469.29,-630.85 504.41,-613.34"/>
<polygon fill="midnightblue" stroke="midnightblue" points="506.31,-616.3 513.7,-608.7 503.19,-610.03 506.31,-616.3"/>
</g>
<!-- Node21&#45;&gt;Node5 -->
<g id="edge41" class="edge">
<title>Node21&#45;&gt;Node5</title>
<path fill="none" stroke="midnightblue" d="M555.18,-104.74C571.94,-115.22 596.77,-132.47 614,-152.08 625.68,-165.38 680.66,-266.32 703.99,-309.54"/>
<polygon fill="midnightblue" stroke="midnightblue" points="701,-311.38 708.83,-318.52 707.16,-308.06 701,-311.38"/>
</g>
<!-- Node21&#45;&gt;Node7 -->
<g id="edge42" class="edge">
<title>Node21&#45;&gt;Node7</title>
<path fill="none" stroke="midnightblue" d="M559.53,-104.72C577.42,-114.43 601.44,-130.54 614,-152.08 676.07,-258.58 623.73,-306.65 650,-427.08 665.39,-497.66 693.52,-578.75 706.96,-615.76"/>
<polygon fill="midnightblue" stroke="midnightblue" points="703.76,-617.19 710.49,-625.38 710.33,-614.78 703.76,-617.19"/>
</g>
<!-- Node21&#45;&gt;Node9 -->
<g id="edge43" class="edge">
<title>Node21&#45;&gt;Node9</title>
<path fill="none" stroke="midnightblue" d="M571.85,-104.59C638.42,-124.71 777.39,-167.07 781,-171.08 834.97,-231.1 800.9,-269.99 817,-349.08 831.12,-418.45 848,-500.68 855.74,-538.36"/>
<polygon fill="midnightblue" stroke="midnightblue" points="852.31,-539.07 857.75,-548.16 859.17,-537.66 852.31,-539.07"/>
</g>
<!-- Node21&#45;&gt;Node10 -->
<g id="edge44" class="edge">
<title>Node21&#45;&gt;Node10</title>
<path fill="none" stroke="midnightblue" d="M583.52,-96.8C673.18,-103.1 864.63,-122.1 905,-171.08 964.55,-243.34 972.71,-550.53 973.82,-634.05"/>
<polygon fill="midnightblue" stroke="midnightblue" points="970.33,-634.34 973.94,-644.3 977.33,-634.26 970.33,-634.34"/>
</g>
<!-- Node21&#45;&gt;Node11 -->
<g id="edge45" class="edge">
<title>Node21&#45;&gt;Node11</title>
<path fill="none" stroke="midnightblue" d="M583.64,-89.09C606.82,-86.61 635.01,-83.59 659.27,-81"/>
<polygon fill="midnightblue" stroke="midnightblue" points="659.83,-84.46 669.4,-79.91 659.09,-77.5 659.83,-84.46"/>
</g>
<!-- Node21&#45;&gt;Node16 -->
<g id="edge46" class="edge">
<title>Node21&#45;&gt;Node16</title>
<path fill="none" stroke="midnightblue" d="M583.53,-104.22C594.13,-107.84 604.93,-112.67 614,-119.08 635.48,-134.28 628.95,-150.3 650,-166.08 655.36,-170.1 661.44,-173.56 667.68,-176.5"/>
<polygon fill="midnightblue" stroke="midnightblue" points="666.3,-179.72 676.87,-180.46 669.07,-173.29 666.3,-179.72"/>
</g>
<!-- Node22&#45;&gt;Node5 -->
<g id="edge48" class="edge">
<title>Node22&#45;&gt;Node5</title>
<path fill="none" stroke="midnightblue" d="M261,-364.97C306.23,-360.92 388.03,-353.7 458,-348.08 535.71,-341.85 626.72,-335.28 676.75,-331.74"/>
<polygon fill="midnightblue" stroke="midnightblue" points="677.06,-335.22 686.78,-331.03 676.56,-328.24 677.06,-335.22"/>
</g>
<!-- Node22&#45;&gt;Node7 -->
<g id="edge49" class="edge">
<title>Node22&#45;&gt;Node7</title>
<path fill="none" stroke="midnightblue" d="M228.16,-378.8C233.22,-408.19 251.03,-491.17 297,-540.08 394.27,-643.6 578.78,-646.09 666.22,-640.68"/>
<polygon fill="midnightblue" stroke="midnightblue" points="666.65,-644.16 676.39,-639.99 666.17,-637.18 666.65,-644.16"/>
</g>
<!-- Node22&#45;&gt;Node9 -->
<g id="edge50" class="edge">
<title>Node22&#45;&gt;Node9</title>
<path fill="none" stroke="midnightblue" d="M261.19,-377.12C348.94,-400.19 586.59,-464.06 781,-529.08 795.33,-533.88 810.92,-539.67 824.43,-544.88"/>
<polygon fill="midnightblue" stroke="midnightblue" points="823.27,-548.19 833.86,-548.55 825.81,-541.66 823.27,-548.19"/>
</g>
<!-- Node22&#45;&gt;Node16 -->
<g id="edge59" class="edge">
<title>Node22&#45;&gt;Node16</title>
<path fill="none" stroke="midnightblue" d="M232.55,-357.54C243.71,-338.65 268.97,-298.37 297,-270.08 359.45,-207.08 373.68,-179.68 458,-152.08 523.9,-130.52 545.85,-139.33 614,-152.08 617.45,-152.73 651.29,-165.98 678.76,-176.86"/>
<polygon fill="midnightblue" stroke="midnightblue" points="677.57,-180.15 688.15,-180.58 680.15,-173.64 677.57,-180.15"/>
</g>
<!-- Node23 -->
<g id="node23" class="node">
<title>Node23</title>
<g id="a_node23"><a xlink:href="../../d4/de2/wren__compiler_8c.html#a57cdd5f6031d050f5075bd276bc06c95" target="_top" xlink:title=" ">
<polygon fill="white" stroke="black" points="485.5,-357.58 485.5,-378.58 586.5,-378.58 586.5,-357.58 485.5,-357.58"/>
<text text-anchor="middle" x="536" y="-364.98" font-family="Helvetica,sans-Serif" font-size="12.00">readHexEscape</text>
</a>
</g>
</g>
<!-- Node22&#45;&gt;Node23 -->
<g id="edge51" class="edge">
<title>Node22&#45;&gt;Node23</title>
<path fill="none" stroke="midnightblue" d="M261.29,-368.08C313.16,-368.08 411.47,-368.08 475.07,-368.08"/>
<polygon fill="midnightblue" stroke="midnightblue" points="475.35,-371.59 485.35,-368.08 475.35,-364.59 475.35,-371.59"/>
</g>
<!-- Node24 -->
<g id="node24" class="node">
<title>Node24</title>
<g id="a_node24"><a xlink:href="../../d4/de2/wren__compiler_8c.html#a59c9947ace67700c2ba14902b13927e8" target="_top" xlink:title=" ">
<polygon fill="white" stroke="black" points="297,-279.58 297,-300.58 422,-300.58 422,-279.58 297,-279.58"/>
<text text-anchor="middle" x="359.5" y="-286.98" font-family="Helvetica,sans-Serif" font-size="12.00">readUnicodeEscape</text>
</a>
</g>
</g>
<!-- Node22&#45;&gt;Node24 -->
<g id="edge55" class="edge">
<title>Node22&#45;&gt;Node24</title>
<path fill="none" stroke="midnightblue" d="M238.8,-357.27C252.36,-345.73 275.15,-327.46 297,-315.08 303.69,-311.3 311.06,-307.79 318.32,-304.66"/>
<polygon fill="midnightblue" stroke="midnightblue" points="320.14,-307.7 328.06,-300.66 317.48,-301.23 320.14,-307.7"/>
</g>
<!-- Node23&#45;&gt;Node5 -->
<g id="edge52" class="edge">
<title>Node23&#45;&gt;Node5</title>
<path fill="none" stroke="midnightblue" d="M585.03,-357.53C613.98,-351.17 650.32,-343.19 677.12,-337.3"/>
<polygon fill="midnightblue" stroke="midnightblue" points="677.87,-340.72 686.89,-335.15 676.37,-333.88 677.87,-340.72"/>
</g>
<!-- Node23&#45;&gt;Node10 -->
<g id="edge53" class="edge">
<title>Node23&#45;&gt;Node10</title>
<path fill="none" stroke="midnightblue" d="M586.87,-360.98C638.5,-356.04 720.01,-355.17 781,-387.08 885.8,-441.92 947.02,-582.41 966.85,-634.9"/>
<polygon fill="midnightblue" stroke="midnightblue" points="963.62,-636.26 970.36,-644.44 970.19,-633.84 963.62,-636.26"/>
</g>
<!-- Node23&#45;&gt;Node14 -->
<g id="edge54" class="edge">
<title>Node23&#45;&gt;Node14</title>
<path fill="none" stroke="midnightblue" d="M585.03,-378.64C609.04,-383.91 638.11,-390.3 662.63,-395.69"/>
<polygon fill="midnightblue" stroke="midnightblue" points="661.95,-399.12 672.47,-397.85 663.46,-392.29 661.95,-399.12"/>
</g>
<!-- Node24&#45;&gt;Node23 -->
<g id="edge56" class="edge">
<title>Node24&#45;&gt;Node23</title>
<path fill="none" stroke="midnightblue" d="M384.03,-300.6C414.48,-314.21 467.67,-337.99 502.1,-353.38"/>
<polygon fill="midnightblue" stroke="midnightblue" points="500.72,-356.6 511.28,-357.48 503.58,-350.21 500.72,-356.6"/>
</g>
<!-- Node25 -->
<g id="node25" class="node">
<title>Node25</title>
<g id="a_node25"><a xlink:href="../../de/d0d/wren__utils_8c.html#a13c5ea2d24f15c1cf197e685b444401d" target="_top" xlink:title=" ">
<polygon fill="white" stroke="black" points="484.5,-279.58 484.5,-300.58 587.5,-300.58 587.5,-279.58 484.5,-279.58"/>
<text text-anchor="middle" x="536" y="-286.98" font-family="Helvetica,sans-Serif" font-size="12.00">wrenUtf8Encode</text>
</a>
</g>
</g>
<!-- Node24&#45;&gt;Node25 -->
<g id="edge57" class="edge">
<title>Node24&#45;&gt;Node25</title>
<path fill="none" stroke="midnightblue" d="M422.02,-290.08C438.92,-290.08 457.24,-290.08 474.11,-290.08"/>
<polygon fill="midnightblue" stroke="midnightblue" points="474.4,-293.59 484.4,-290.08 474.4,-286.59 474.4,-293.59"/>
</g>
<!-- Node26 -->
<g id="node26" class="node">
<title>Node26</title>
<g id="a_node26"><a xlink:href="../../de/d0d/wren__utils_8c.html#a85fac2a3e202a3273d4a1616fa77a2af" target="_top" xlink:title=" ">
<polygon fill="white" stroke="black" points="458,-239.58 458,-260.58 614,-260.58 614,-239.58 458,-239.58"/>
<text text-anchor="middle" x="536" y="-246.98" font-family="Helvetica,sans-Serif" font-size="12.00">wrenUtf8EncodeNumBytes</text>
</a>
</g>
</g>
<!-- Node24&#45;&gt;Node26 -->
<g id="edge58" class="edge">
<title>Node24&#45;&gt;Node26</title>
<path fill="none" stroke="midnightblue" d="M406.35,-279.58C428.7,-274.45 455.78,-268.25 479.31,-262.85"/>
<polygon fill="midnightblue" stroke="midnightblue" points="480.19,-266.24 489.16,-260.59 478.63,-259.42 480.19,-266.24"/>
</g>
<!-- Node27&#45;&gt;Node5 -->
<g id="edge61" class="edge">
<title>Node27&#45;&gt;Node5</title>
<path fill="none" stroke="midnightblue" d="M591.49,-182.75C599.78,-186.25 607.66,-190.9 614,-197.08 648.42,-230.64 617.68,-263.5 650,-299.08 657.36,-307.19 667.36,-313.28 677.29,-317.78"/>
<polygon fill="midnightblue" stroke="midnightblue" points="676.11,-321.08 686.7,-321.62 678.76,-314.6 676.11,-321.08"/>
</g>
<!-- Node27&#45;&gt;Node9 -->
<g id="edge62" class="edge">
<title>Node27&#45;&gt;Node9</title>
<path fill="none" stroke="midnightblue" d="M586.21,-182.7C596.01,-186.24 605.8,-190.92 614,-197.08 636.77,-214.18 628.2,-231.77 650,-250.08 698.89,-291.16 738.57,-261.37 781,-309.08 841.5,-377.12 855.69,-491.45 859,-538.2"/>
<polygon fill="midnightblue" stroke="midnightblue" points="855.51,-538.56 859.62,-548.33 862.5,-538.13 855.51,-538.56"/>
</g>
<!-- Node27&#45;&gt;Node10 -->
<g id="edge63" class="edge">
<title>Node27&#45;&gt;Node10</title>
<path fill="none" stroke="midnightblue" d="M570.87,-182.62C584.35,-186.94 599.97,-192.08 614,-197.08 630.17,-202.85 633.76,-205.52 650,-211.08 764.86,-250.44 830.39,-213.3 905,-309.08 945.3,-360.82 966.45,-568.05 972.3,-634.48"/>
<polygon fill="midnightblue" stroke="midnightblue" points="968.82,-634.88 973.16,-644.54 975.79,-634.28 968.82,-634.88"/>
</g>
<!-- Node27&#45;&gt;Node11 -->
<g id="edge64" class="edge">
<title>Node27&#45;&gt;Node11</title>
<path fill="none" stroke="midnightblue" d="M556.33,-161.52C587.68,-144.39 649.73,-110.48 686.1,-90.61"/>
<polygon fill="midnightblue" stroke="midnightblue" points="688.09,-93.5 695.19,-85.64 684.74,-87.36 688.09,-93.5"/>
</g>
<!-- Node28&#45;&gt;Node9 -->
<g id="edge66" class="edge">
<title>Node28&#45;&gt;Node9</title>
<path fill="none" stroke="midnightblue" d="M730,-779.41C744.1,-767.73 766.21,-747.88 781,-727.08 815.58,-678.48 841.45,-612.34 853.13,-579.43"/>
<polygon fill="midnightblue" stroke="midnightblue" points="856.57,-580.21 856.54,-569.62 849.95,-577.91 856.57,-580.21"/>
</g>
<!-- Node28&#45;&gt;Node10 -->
<g id="edge67" class="edge">
<title>Node28&#45;&gt;Node10</title>
<path fill="none" stroke="midnightblue" d="M771.89,-794.71C811.88,-795.35 865.56,-790.43 905,-765.08 937.86,-743.97 957.84,-701.05 967.33,-675.52"/>
<polygon fill="midnightblue" stroke="midnightblue" points="970.75,-676.34 970.76,-665.75 964.15,-674.02 970.75,-676.34"/>
</g>
<!-- Node29&#45;&gt;Node7 -->
<g id="edge69" class="edge">
<title>Node29&#45;&gt;Node7</title>
<path fill="none" stroke="midnightblue" d="M405.95,-745.83C458.24,-738.47 545.68,-722.13 614,-689.08 632.25,-680.26 632.36,-671.08 650,-661.08 656.98,-657.13 664.71,-653.54 672.32,-650.39"/>
<polygon fill="midnightblue" stroke="midnightblue" points="673.81,-653.56 681.83,-646.64 671.25,-647.05 673.81,-653.56"/>
</g>
<!-- Node29&#45;&gt;Node8 -->
<g id="edge70" class="edge">
<title>Node29&#45;&gt;Node8</title>
<path fill="none" stroke="midnightblue" d="M405.89,-761.23C431.48,-766.95 463.36,-774.07 489.04,-779.81"/>
<polygon fill="midnightblue" stroke="midnightblue" points="488.38,-783.25 498.91,-782.02 489.91,-776.42 488.38,-783.25"/>
</g>
</g>
</svg>
        <g id="navigator" transform="translate(0 0)" fill="#404254">
                <rect fill="#f2f5e9" fill-opacity="0.5" stroke="#606060" stroke-width=".5" x="0" y="0" width="60" height="60"/>
                <use id="zoomplus" xlink:href="#zoomPlus" x="17" y="9" onmousedown="handleZoom(evt,'in')"/>
                <use id="zoomminus" xlink:href="#zoomMin" x="42" y="9" onmousedown="handleZoom(evt,'out')"/>
                <use id="reset" xlink:href="#resetDef" x="30" y="36" onmousedown="handleReset()"/>
                <g id="arrowUp" xlink:href="#dirArrow" transform="translate(30 24)" onmousedown="handlePan(0,-1)">
                  <use xlink:href="#rim" fill="#404040">
                        <set attributeName="fill" to="#808080" begin="arrowUp.mouseover" end="arrowUp.mouseout"/>
                  </use>
                  <path fill="none" stroke="white" stroke-width="1.5" d="M0,-3.0v7 M-2.5,-0.5L0,-3.0L2.5,-0.5"/>
                </g>
                <g id="arrowRight" xlink:href="#dirArrow" transform="rotate(90) translate(36 -43)" onmousedown="handlePan(1,0)">
                  <use xlink:href="#rim" fill="#404040">
                        <set attributeName="fill" to="#808080" begin="arrowRight.mouseover" end="arrowRight.mouseout"/>
                  </use>
                  <path fill="none" stroke="white" stroke-width="1.5" d="M0,-3.0v7 M-2.5,-0.5L0,-3.0L2.5,-0.5"/>
                </g>
                <g id="arrowDown" xlink:href="#dirArrow" transform="rotate(180) translate(-30 -48)" onmousedown="handlePan(0,1)">
                  <use xlink:href="#rim" fill="#404040">
                        <set attributeName="fill" to="#808080" begin="arrowDown.mouseover" end="arrowDown.mouseout"/>
                  </use>
                  <path fill="none" stroke="white" stroke-width="1.5" d="M0,-3.0v7 M-2.5,-0.5L0,-3.0L2.5,-0.5"/>
                </g>
                <g id="arrowLeft" xlink:href="#dirArrow" transform="rotate(270) translate(-36 17)" onmousedown="handlePan(-1,0)">
                  <use xlink:href="#rim" fill="#404040">
                        <set attributeName="fill" to="#808080" begin="arrowLeft.mouseover" end="arrowLeft.mouseout"/>
                  </use>
                  <path fill="none" stroke="white" stroke-width="1.5" d="M0,-3.0v7 M-2.5,-0.5L0,-3.0L2.5,-0.5"/>
                </g>
        </g>
        <svg viewBox="0 0 15 15" width="100%" height="30px" preserveAspectRatio="xMaxYMin meet">
         <g id="arrow_out" transform="scale(0.3 0.3)">
          <a xlink:href="wren__compiler_8c_af4fe195796c3e700b61d62dafd263295_cgraph_org.svg" target="_base">
           <rect id="button" ry="5" rx="5" y="6" x="6" height="38" width="38"
                fill="#f2f5e9" fill-opacity="0.5" stroke="#606060" stroke-width="1.0"/>
           <path id="arrow"
             d="M 11.500037,31.436501 C 11.940474,20.09759 22.043105,11.32322 32.158766,21.979434 L 37.068811,17.246167 C 37.068811,17.246167 37.088388,32 37.088388,32 L 22.160133,31.978069 C 22.160133,31.978069 26.997745,27.140456 26.997745,27.140456 C 18.528582,18.264221 13.291696,25.230495 11.500037,31.436501 z"
             style="fill:#404040;"/>
          </a>
         </g>
        </svg>
</svg>
