<?xml version="1.0" encoding="UTF-8" standalone="no"?>
<!DOCTYPE svg PUBLIC "-//W3C//DTD SVG 1.1//EN"
 "http://www.w3.org/Graphics/SVG/1.1/DTD/svg11.dtd">
<!-- Generated by graphviz version 2.47.3 (20210619.1520)
 -->
<!-- Title: method Pages: 1 -->
<!--zoomable 815 -->
<svg id="main" version="1.1" xmlns="http://www.w3.org/2000/svg" xmlns:xlink="http://www.w3.org/1999/xlink" xml:space="preserve" onload="init(evt)">
<style type="text/css"><![CDATA[
.edge:hover path { stroke: red; }
.edge:hover polygon { stroke: red; fill: red; }
]]></style>
<script type="text/javascript"><![CDATA[
var edges = document.getElementsByTagName('g');
if (edges && edges.length) {
  for (var i=0;i<edges.length;i++) {
    if (edges[i].id.substr(0,4)=='edge') {
      edges[i].setAttribute('class','edge');
    }
  }
}
]]></script>
        <defs>
                <circle id="rim" cx="0" cy="0" r="7"/>
                <circle id="rim2" cx="0" cy="0" r="3.5"/>
                <g id="zoomPlus">
                        <use xlink:href="#rim" fill="#404040">
                                <set attributeName="fill" to="#808080" begin="zoomplus.mouseover" end="zoomplus.mouseout"/>
                        </use>
                        <path d="M-4,0h8M0,-4v8" fill="none" stroke="white" stroke-width="1.5" pointer-events="none"/>
                </g>
                <g id="zoomMin">
                        <use xlink:href="#rim" fill="#404040">
                                <set attributeName="fill" to="#808080" begin="zoomminus.mouseover" end="zoomminus.mouseout"/>
                        </use>
                        <path d="M-4,0h8" fill="none" stroke="white" stroke-width="1.5" pointer-events="none"/>
                </g>
                <g id="dirArrow">
                        <path fill="none" stroke="white" stroke-width="1.5" d="M0,-3.0v7 M-2.5,-0.5L0,-3.0L2.5,-0.5"/>
                </g>
               <g id="resetDef">
                       <use xlink:href="#rim2" fill="#404040">
                               <set attributeName="fill" to="#808080" begin="reset.mouseover" end="reset.mouseout"/>
                       </use>
               </g>
        </defs>

<script type="text/javascript">
var viewWidth = 1527;
var viewHeight = 815;
var sectionId = 'dynsection-141';
</script>
<script xlink:href="../../svgpan.js"/>
<svg id="graph" class="graph">
<g id="viewport">
<title>method</title>
<polygon fill="white" stroke="transparent" points="-4,4 -4,-811.21 1523,-811.21 1523,4 -4,4"/>
<!-- Node1 -->
<g id="node1" class="node">
<title>Node1</title>
<g id="a_node1"><a xlink:title=" ">
<polygon fill="#bfbfbf" stroke="black" points="1463,-268.71 1463,-289.71 1519,-289.71 1519,-268.71 1463,-268.71"/>
<text text-anchor="middle" x="1491" y="-276.11" font-family="Helvetica,sans-Serif" font-size="12.00">method</text>
</a>
</g>
</g>
<!-- Node2 -->
<g id="node2" class="node">
<title>Node2</title>
<g id="a_node2"><a xlink:href="../../de/db2/wren__vm_8c.html#a774b44fd4c8b7ad7531f001178ee66f2" target="_top" xlink:title=" ">
<polygon fill="white" stroke="black" points="1146,-306.71 1146,-327.71 1256,-327.71 1256,-306.71 1146,-306.71"/>
<text text-anchor="middle" x="1201" y="-314.11" font-family="Helvetica,sans-Serif" font-size="12.00">bindForeignClass</text>
</a>
</g>
</g>
<!-- Node1&#45;&gt;Node2 -->
<g id="edge1" class="edge">
<title>Node1&#45;&gt;Node2</title>
<path fill="none" stroke="midnightblue" d="M1453.12,-292.46C1444.63,-295.08 1435.58,-297.53 1427,-299.21 1369.32,-310.52 1301.98,-314.76 1256.11,-316.33"/>
<polygon fill="midnightblue" stroke="midnightblue" points="1454.31,-295.75 1462.75,-289.35 1452.16,-289.09 1454.31,-295.75"/>
</g>
<!-- Node4 -->
<g id="node4" class="node">
<title>Node4</title>
<g id="a_node4"><a xlink:href="../../de/db2/wren__vm_8c.html#ade1e713227c5685b4747c982aab961c4" target="_top" xlink:title=" ">
<polygon fill="white" stroke="black" points="734,-326.71 734,-347.71 819,-347.71 819,-326.71 734,-326.71"/>
<text text-anchor="middle" x="776.5" y="-334.11" font-family="Helvetica,sans-Serif" font-size="12.00">runInterpreter</text>
</a>
</g>
</g>
<!-- Node1&#45;&gt;Node4 -->
<g id="edge43" class="edge">
<title>Node1&#45;&gt;Node4</title>
<path fill="none" stroke="midnightblue" d="M1469.16,-295.97C1457.43,-304.54 1442.14,-314.38 1427,-320.21 1332.5,-356.62 1303.27,-356.21 1202,-356.21 1202,-356.21 1202,-356.21 1054.5,-356.21 970.87,-356.21 873.36,-347.48 819.2,-341.86"/>
<polygon fill="midnightblue" stroke="midnightblue" points="1471.51,-298.57 1477.37,-289.74 1467.28,-292.99 1471.51,-298.57"/>
</g>
<!-- Node5 -->
<g id="node5" class="node">
<title>Node5</title>
<g id="a_node5"><a xlink:href="../../dd/d19/wren_8h.html#a4bbb5e4dc3f5b794c88b4210e30927ba" target="_top" xlink:title=" ">
<polygon fill="white" stroke="black" points="568,-525.71 568,-546.71 630,-546.71 630,-525.71 568,-525.71"/>
<text text-anchor="middle" x="599" y="-533.11" font-family="Helvetica,sans-Serif" font-size="12.00">wrenCall</text>
</a>
</g>
</g>
<!-- Node1&#45;&gt;Node5 -->
<g id="edge51" class="edge">
<title>Node1&#45;&gt;Node5</title>
<path fill="none" stroke="midnightblue" d="M1489.31,-300.47C1486.83,-338.29 1475.75,-416.79 1427,-454.21 1347.4,-515.32 1302.36,-473.21 1202,-473.21 1202,-473.21 1202,-473.21 931,-473.21 818.39,-473.21 687.98,-508.83 630.21,-526.51"/>
<polygon fill="midnightblue" stroke="midnightblue" points="1492.83,-300.3 1489.84,-290.13 1485.84,-299.94 1492.83,-300.3"/>
</g>
<!-- Node26 -->
<g id="node24" class="node">
<title>Node26</title>
<g id="a_node24"><a xlink:href="../../de/db2/wren__vm_8c.html#ac1a65601a290fe012a862d25e78b0399" target="_top" xlink:title=" ">
<polygon fill="white" stroke="black" points="1162,-226.71 1162,-247.71 1240,-247.71 1240,-226.71 1162,-226.71"/>
<text text-anchor="middle" x="1201" y="-234.11" font-family="Helvetica,sans-Serif" font-size="12.00">bindMethod</text>
</a>
</g>
</g>
<!-- Node1&#45;&gt;Node26 -->
<g id="edge25" class="edge">
<title>Node1&#45;&gt;Node26</title>
<path fill="none" stroke="midnightblue" d="M1476.77,-260.44C1465.43,-246.12 1447.67,-227.48 1427,-219.21 1361.14,-192.87 1275.94,-212.77 1231.66,-226.7"/>
<polygon fill="midnightblue" stroke="midnightblue" points="1474.16,-262.8 1482.97,-268.68 1479.75,-258.58 1474.16,-262.8"/>
</g>
<!-- Node27 -->
<g id="node25" class="node">
<title>Node27</title>
<g id="a_node25"><a xlink:href="../../d4/de2/wren__compiler_8c.html#acb2713c83e03d07b11beeca8a9f58539" target="_top" xlink:title=" ">
<polygon fill="white" stroke="black" points="1316.5,-101.71 1316.5,-122.71 1409.5,-122.71 1409.5,-101.71 1316.5,-101.71"/>
<text text-anchor="middle" x="1363" y="-109.11" font-family="Helvetica,sans-Serif" font-size="12.00">classDefinition</text>
</a>
</g>
</g>
<!-- Node1&#45;&gt;Node27 -->
<g id="edge27" class="edge">
<title>Node1&#45;&gt;Node27</title>
<path fill="none" stroke="midnightblue" d="M1485.38,-258.39C1477.85,-228.84 1460.3,-174.62 1427,-141.21 1419.01,-133.2 1408.39,-127.16 1398.16,-122.72"/>
<polygon fill="midnightblue" stroke="midnightblue" points="1482.05,-259.5 1487.79,-268.41 1488.85,-257.87 1482.05,-259.5"/>
</g>
<!-- Node150 -->
<g id="node34" class="node">
<title>Node150</title>
<g id="a_node34"><a xlink:href="../../de/db2/wren__vm_8c.html#a5020cc736d0f9d681e5bed6f2804bf5a" target="_top" xlink:title=" ">
<polygon fill="white" stroke="black" points="1010.5,-384.71 1010.5,-405.71 1100.5,-405.71 1100.5,-384.71 1010.5,-384.71"/>
<text text-anchor="middle" x="1055.5" y="-392.11" font-family="Helvetica,sans-Serif" font-size="12.00">createForeign</text>
</a>
</g>
</g>
<!-- Node1&#45;&gt;Node150 -->
<g id="edge39" class="edge">
<title>Node1&#45;&gt;Node150</title>
<path fill="none" stroke="midnightblue" d="M1482.36,-299.3C1472.94,-320.98 1454.7,-354.49 1427,-370.21 1322.58,-429.49 1173.99,-415.75 1100.77,-403.86"/>
<polygon fill="midnightblue" stroke="midnightblue" points="1485.61,-300.59 1486.17,-290.01 1479.14,-297.94 1485.61,-300.59"/>
</g>
<!-- Node72 -->
<g id="node35" class="node">
<title>Node72</title>
<g id="a_node35"><a xlink:href="../../de/db2/wren__vm_8c.html#af338fc167f40b3e51e4290d44ec4ce19" target="_top" xlink:title=" ">
<polygon fill="white" stroke="black" points="1305.5,-228.71 1305.5,-249.71 1420.5,-249.71 1420.5,-228.71 1305.5,-228.71"/>
<text text-anchor="middle" x="1363" y="-236.11" font-family="Helvetica,sans-Serif" font-size="12.00">findForeignMethod</text>
</a>
</g>
</g>
<!-- Node1&#45;&gt;Node72 -->
<g id="edge41" class="edge">
<title>Node1&#45;&gt;Node72</title>
<path fill="none" stroke="midnightblue" d="M1453.01,-267.47C1435.36,-261.87 1414.41,-255.21 1397.27,-249.77"/>
<polygon fill="midnightblue" stroke="midnightblue" points="1452.38,-270.94 1462.97,-270.63 1454.5,-264.27 1452.38,-270.94"/>
</g>
<!-- Node151 -->
<g id="node36" class="node">
<title>Node151</title>
<g id="a_node36"><a xlink:href="../../da/dbe/wren__value_8c.html#aa6e32aab368f689ded9f419739fe6915" target="_top" xlink:title=" ">
<polygon fill="white" stroke="black" points="1311,-268.71 1311,-289.71 1415,-289.71 1415,-268.71 1311,-268.71"/>
<text text-anchor="middle" x="1363" y="-276.11" font-family="Helvetica,sans-Serif" font-size="12.00">wrenBindMethod</text>
</a>
</g>
</g>
<!-- Node1&#45;&gt;Node151 -->
<g id="edge44" class="edge">
<title>Node1&#45;&gt;Node151</title>
<path fill="none" stroke="midnightblue" d="M1452.63,-279.21C1440.87,-279.21 1427.68,-279.21 1415.13,-279.21"/>
<polygon fill="midnightblue" stroke="midnightblue" points="1452.97,-282.71 1462.97,-279.21 1452.97,-275.71 1452.97,-282.71"/>
</g>
<!-- Node154 -->
<g id="node39" class="node">
<title>Node154</title>
<g id="a_node39"><a xlink:href="../../de/db2/wren__vm_8c.html#a443e764ebdacef5995484adea8b9d447" target="_top" xlink:title=" ">
<polygon fill="white" stroke="black" points="1302,-150.71 1302,-171.71 1424,-171.71 1424,-150.71 1302,-150.71"/>
<text text-anchor="middle" x="1363" y="-158.11" font-family="Helvetica,sans-Serif" font-size="12.00">wrenFinalizeForeign</text>
</a>
</g>
</g>
<!-- Node1&#45;&gt;Node154 -->
<g id="edge52" class="edge">
<title>Node1&#45;&gt;Node154</title>
<path fill="none" stroke="midnightblue" d="M1480.96,-259.3C1470.61,-238.49 1451.83,-206.15 1427,-186.21 1419.48,-180.17 1410.31,-175.43 1401.32,-171.79"/>
<polygon fill="midnightblue" stroke="midnightblue" points="1477.89,-260.97 1485.36,-268.48 1484.2,-257.95 1477.89,-260.97"/>
</g>
<!-- Node158 -->
<g id="node45" class="node">
<title>Node158</title>
<g id="a_node45"><a xlink:href="../../dd/d19/wren_8h.html#abe767089c421873af8384fba0934cd26" target="_top" xlink:title=" ">
<polygon fill="white" stroke="black" points="1299,-423.71 1299,-444.71 1427,-444.71 1427,-423.71 1299,-423.71"/>
<text text-anchor="middle" x="1363" y="-431.11" font-family="Helvetica,sans-Serif" font-size="12.00">wrenMakeCallHandle</text>
</a>
</g>
</g>
<!-- Node1&#45;&gt;Node158 -->
<g id="edge60" class="edge">
<title>Node1&#45;&gt;Node158</title>
<path fill="none" stroke="midnightblue" d="M1484.95,-299.64C1477.05,-327.65 1459.24,-377.94 1427,-408.21 1419.93,-414.85 1410.92,-419.91 1401.95,-423.71"/>
<polygon fill="midnightblue" stroke="midnightblue" points="1488.39,-300.33 1487.58,-289.77 1481.63,-298.53 1488.39,-300.33"/>
</g>
<!-- Node3 -->
<g id="node3" class="node">
<title>Node3</title>
<g id="a_node3"><a xlink:href="../../de/db2/wren__vm_8c.html#aa2e5e3d9efe082d2fc2e33d4916463c5" target="_top" xlink:title=" ">
<polygon fill="white" stroke="black" points="892,-306.71 892,-327.71 972,-327.71 972,-306.71 892,-306.71"/>
<text text-anchor="middle" x="932" y="-314.11" font-family="Helvetica,sans-Serif" font-size="12.00">createClass</text>
</a>
</g>
</g>
<!-- Node2&#45;&gt;Node3 -->
<g id="edge2" class="edge">
<title>Node2&#45;&gt;Node3</title>
<path fill="none" stroke="midnightblue" d="M1135.72,-317.21C1084.75,-317.21 1015.19,-317.21 972.23,-317.21"/>
<polygon fill="midnightblue" stroke="midnightblue" points="1135.97,-320.71 1145.97,-317.21 1135.97,-313.71 1135.97,-320.71"/>
</g>
<!-- Node3&#45;&gt;Node4 -->
<g id="edge3" class="edge">
<title>Node3&#45;&gt;Node4</title>
<path fill="none" stroke="midnightblue" d="M881.92,-323.61C861.74,-326.24 838.6,-329.25 819.25,-331.77"/>
<polygon fill="midnightblue" stroke="midnightblue" points="882.4,-327.07 891.87,-322.31 881.5,-320.13 882.4,-327.07"/>
</g>
<!-- Node4&#45;&gt;Node5 -->
<g id="edge4" class="edge">
<title>Node4&#45;&gt;Node5</title>
<path fill="none" stroke="midnightblue" d="M756.53,-354.56C740.22,-369.78 716.33,-392.76 697,-414.21 661.68,-453.41 623.89,-503.68 607.88,-525.41"/>
<polygon fill="midnightblue" stroke="midnightblue" points="758.92,-357.12 763.88,-347.76 754.17,-351.98 758.92,-357.12"/>
</g>
<!-- Node19 -->
<g id="node19" class="node">
<title>Node19</title>
<g id="a_node19"><a xlink:href="../../dd/d19/wren_8h.html#a653b065ece2f5fb52dc3ff41e7c8322a" target="_top" xlink:title=" ">
<polygon fill="white" stroke="black" points="557.5,-250.71 557.5,-271.71 640.5,-271.71 640.5,-250.71 557.5,-250.71"/>
<text text-anchor="middle" x="599" y="-258.11" font-family="Helvetica,sans-Serif" font-size="12.00">wrenInterpret</text>
</a>
</g>
</g>
<!-- Node4&#45;&gt;Node19 -->
<g id="edge18" class="edge">
<title>Node4&#45;&gt;Node19</title>
<path fill="none" stroke="midnightblue" d="M741.49,-322.48C707.14,-307.61 654.94,-285 624.48,-271.81"/>
<polygon fill="midnightblue" stroke="midnightblue" points="740.53,-325.88 751.1,-326.64 743.31,-319.46 740.53,-325.88"/>
</g>
<!-- Node6 -->
<g id="node6" class="node">
<title>Node6</title>
<g id="a_node6"><a xlink:href="../../d0/da0/class_app_wren.html#aaa3a40fc5215f17f4f45ae64075df202" target="_top" xlink:title=" ">
<polygon fill="white" stroke="black" points="357,-465.71 357,-486.71 485,-486.71 485,-465.71 357,-465.71"/>
<text text-anchor="middle" x="421" y="-473.11" font-family="Helvetica,sans-Serif" font-size="12.00">AppWren::onAnalog1</text>
</a>
</g>
</g>
<!-- Node5&#45;&gt;Node6 -->
<g id="edge5" class="edge">
<title>Node5&#45;&gt;Node6</title>
<path fill="none" stroke="midnightblue" d="M565.61,-521.49C546.96,-513.36 522.94,-503.47 501,-496.21 490.52,-492.74 479.1,-489.53 468.27,-486.74"/>
<polygon fill="midnightblue" stroke="midnightblue" points="564.27,-524.72 574.83,-525.56 567.1,-518.32 564.27,-524.72"/>
</g>
<!-- Node7 -->
<g id="node7" class="node">
<title>Node7</title>
<g id="a_node7"><a xlink:href="../../d0/da0/class_app_wren.html#a6397b3b8da2519d07e68cf11eebee6ab" target="_top" xlink:title=" ">
<polygon fill="white" stroke="black" points="357,-425.71 357,-446.71 485,-446.71 485,-425.71 357,-425.71"/>
<text text-anchor="middle" x="421" y="-433.11" font-family="Helvetica,sans-Serif" font-size="12.00">AppWren::onAnalog2</text>
</a>
</g>
</g>
<!-- Node5&#45;&gt;Node7 -->
<g id="edge6" class="edge">
<title>Node5&#45;&gt;Node7</title>
<path fill="none" stroke="midnightblue" d="M580.89,-518C562.75,-499.74 532.41,-472.12 501,-456.21 493.55,-452.44 485.34,-449.34 477.12,-446.81"/>
<polygon fill="midnightblue" stroke="midnightblue" points="578.85,-520.92 588.33,-525.65 583.87,-516.04 578.85,-520.92"/>
</g>
<!-- Node8 -->
<g id="node8" class="node">
<title>Node8</title>
<g id="a_node8"><a xlink:href="../../d0/da0/class_app_wren.html#a20af5fe83e8ae9f14c32d78027b739e1" target="_top" xlink:title=" ">
<polygon fill="white" stroke="black" points="357,-785.71 357,-806.71 485,-806.71 485,-785.71 357,-785.71"/>
<text text-anchor="middle" x="421" y="-793.11" font-family="Helvetica,sans-Serif" font-size="12.00">AppWren::onAnalog3</text>
</a>
</g>
</g>
<!-- Node5&#45;&gt;Node8 -->
<g id="edge7" class="edge">
<title>Node5&#45;&gt;Node8</title>
<path fill="none" stroke="midnightblue" d="M595.87,-556.83C589.94,-603.34 568.89,-716.99 501,-776.21 496.31,-780.3 490.9,-783.58 485.15,-786.2"/>
<polygon fill="midnightblue" stroke="midnightblue" points="599.36,-557.1 597.05,-546.76 592.41,-556.29 599.36,-557.1"/>
</g>
<!-- Node9 -->
<g id="node9" class="node">
<title>Node9</title>
<g id="a_node9"><a xlink:href="../../d0/da0/class_app_wren.html#a883b94a1e3750e6b6510a397d9d8e70c" target="_top" xlink:title=" ">
<polygon fill="white" stroke="black" points="357,-745.71 357,-766.71 485,-766.71 485,-745.71 357,-745.71"/>
<text text-anchor="middle" x="421" y="-753.11" font-family="Helvetica,sans-Serif" font-size="12.00">AppWren::onAnalog4</text>
</a>
</g>
</g>
<!-- Node5&#45;&gt;Node9 -->
<g id="edge8" class="edge">
<title>Node5&#45;&gt;Node9</title>
<path fill="none" stroke="midnightblue" d="M594.06,-556.7C585.11,-597.41 559.38,-688.66 501,-736.21 496.28,-740.05 490.92,-743.17 485.27,-745.69"/>
<polygon fill="midnightblue" stroke="midnightblue" points="597.49,-557.35 596.1,-546.85 590.64,-555.93 597.49,-557.35"/>
</g>
<!-- Node10 -->
<g id="node10" class="node">
<title>Node10</title>
<g id="a_node10"><a xlink:href="../../d0/da0/class_app_wren.html#a7bec828c82063c60320b34b395dd72b8" target="_top" xlink:title=" ">
<polygon fill="white" stroke="black" points="362.5,-705.71 362.5,-726.71 479.5,-726.71 479.5,-705.71 362.5,-705.71"/>
<text text-anchor="middle" x="421" y="-713.11" font-family="Helvetica,sans-Serif" font-size="12.00">AppWren::onFocus</text>
</a>
</g>
</g>
<!-- Node5&#45;&gt;Node10 -->
<g id="edge9" class="edge">
<title>Node5&#45;&gt;Node10</title>
<path fill="none" stroke="midnightblue" d="M591.44,-556.56C579.3,-590.86 550.02,-659.95 501,-696.21 494.63,-700.92 487.27,-704.53 479.65,-707.29"/>
<polygon fill="midnightblue" stroke="midnightblue" points="594.87,-557.33 594.78,-546.74 588.24,-555.08 594.87,-557.33"/>
</g>
<!-- Node11 -->
<g id="node11" class="node">
<title>Node11</title>
<g id="a_node11"><a xlink:href="../../d0/da0/class_app_wren.html#afb00a81c98cd0123992f95bec6e280e5" target="_top" xlink:title=" ">
<polygon fill="white" stroke="black" points="351,-665.71 351,-686.71 491,-686.71 491,-665.71 351,-665.71"/>
<text text-anchor="middle" x="421" y="-673.11" font-family="Helvetica,sans-Serif" font-size="12.00">AppWren::onFocusLost</text>
</a>
</g>
</g>
<!-- Node5&#45;&gt;Node11 -->
<g id="edge10" class="edge">
<title>Node5&#45;&gt;Node11</title>
<path fill="none" stroke="midnightblue" d="M587.69,-555.63C572.41,-582.46 541.19,-630.48 501,-656.21 495.04,-660.02 488.4,-663.11 481.56,-665.61"/>
<polygon fill="midnightblue" stroke="midnightblue" points="590.81,-557.22 592.58,-546.78 584.68,-553.83 590.81,-557.22"/>
</g>
<!-- Node12 -->
<g id="node12" class="node">
<title>Node12</title>
<g id="a_node12"><a xlink:href="../../d0/da0/class_app_wren.html#a99464400376dff63908bd4157b710363" target="_top" xlink:title=" ">
<polygon fill="white" stroke="black" points="363,-625.71 363,-646.71 479,-646.71 479,-625.71 363,-625.71"/>
<text text-anchor="middle" x="421" y="-633.11" font-family="Helvetica,sans-Serif" font-size="12.00">AppWren::onTouch</text>
</a>
</g>
</g>
<!-- Node5&#45;&gt;Node12 -->
<g id="edge11" class="edge">
<title>Node5&#45;&gt;Node12</title>
<path fill="none" stroke="midnightblue" d="M580.89,-554.42C562.75,-572.68 532.41,-600.3 501,-616.21 493.55,-619.98 485.34,-623.08 477.12,-625.61"/>
<polygon fill="midnightblue" stroke="midnightblue" points="583.87,-556.38 588.33,-546.77 578.85,-551.5 583.87,-556.38"/>
</g>
<!-- Node13 -->
<g id="node13" class="node">
<title>Node13</title>
<g id="a_node13"><a xlink:href="../../d0/da0/class_app_wren.html#ab87659bde90d678b995ff8c7f1ee042f" target="_top" xlink:title=" ">
<polygon fill="white" stroke="black" points="349.5,-585.71 349.5,-606.71 492.5,-606.71 492.5,-585.71 349.5,-585.71"/>
<text text-anchor="middle" x="421" y="-593.11" font-family="Helvetica,sans-Serif" font-size="12.00">AppWren::onTouchDrag</text>
</a>
</g>
</g>
<!-- Node5&#45;&gt;Node13 -->
<g id="edge12" class="edge">
<title>Node5&#45;&gt;Node13</title>
<path fill="none" stroke="midnightblue" d="M565.61,-550.93C546.96,-559.06 522.94,-568.95 501,-576.21 490.52,-579.68 479.1,-582.89 468.27,-585.68"/>
<polygon fill="midnightblue" stroke="midnightblue" points="567.1,-554.1 574.83,-546.86 564.27,-547.7 567.1,-554.1"/>
</g>
<!-- Node14 -->
<g id="node14" class="node">
<title>Node14</title>
<g id="a_node14"><a xlink:href="../../d0/da0/class_app_wren.html#ae86344b2db061b7b70bd914cd1790067" target="_top" xlink:title=" ">
<polygon fill="white" stroke="black" points="341,-545.71 341,-566.71 501,-566.71 501,-545.71 341,-545.71"/>
<text text-anchor="middle" x="421" y="-553.11" font-family="Helvetica,sans-Serif" font-size="12.00">AppWren::onTouchRelease</text>
</a>
</g>
</g>
<!-- Node5&#45;&gt;Node14 -->
<g id="edge13" class="edge">
<title>Node5&#45;&gt;Node14</title>
<path fill="none" stroke="midnightblue" d="M557.71,-540.79C540.85,-542.7 520.64,-545 501.03,-547.23"/>
<polygon fill="midnightblue" stroke="midnightblue" points="558.2,-544.26 567.74,-539.65 557.41,-537.3 558.2,-544.26"/>
</g>
<!-- Node15 -->
<g id="node15" class="node">
<title>Node15</title>
<g id="a_node15"><a xlink:href="../../d0/da0/class_app_wren.html#a46ef63c583efb89334bc8fbf20cf7a83" target="_top" xlink:title=" ">
<polygon fill="white" stroke="black" points="367,-347.71 367,-368.71 475,-368.71 475,-347.71 367,-347.71"/>
<text text-anchor="middle" x="421" y="-355.11" font-family="Helvetica,sans-Serif" font-size="12.00">AppWren::update</text>
</a>
</g>
</g>
<!-- Node5&#45;&gt;Node15 -->
<g id="edge14" class="edge">
<title>Node5&#45;&gt;Node15</title>
<path fill="none" stroke="midnightblue" d="M590.58,-516.09C577.52,-483.41 547.32,-418.88 501,-383.21 492.91,-376.98 483.23,-372.28 473.46,-368.75"/>
<polygon fill="midnightblue" stroke="midnightblue" points="587.35,-517.44 594.22,-525.5 593.88,-514.92 587.35,-517.44"/>
</g>
<!-- Node16 -->
<g id="node16" class="node">
<title>Node16</title>
<g id="a_node16"><a xlink:href="../../d0/da0/class_app_wren.html#ab54563e10b08b5a6b03fad6d5c801c0b" target="_top" xlink:title=" ">
<polygon fill="white" stroke="black" points="359.5,-505.71 359.5,-526.71 482.5,-526.71 482.5,-505.71 359.5,-505.71"/>
<text text-anchor="middle" x="421" y="-513.11" font-family="Helvetica,sans-Serif" font-size="12.00">AppWren::updateRT</text>
</a>
</g>
</g>
<!-- Node5&#45;&gt;Node16 -->
<g id="edge15" class="edge">
<title>Node5&#45;&gt;Node16</title>
<path fill="none" stroke="midnightblue" d="M557.68,-531.63C535.52,-529.11 507.57,-525.93 482.81,-523.12"/>
<polygon fill="midnightblue" stroke="midnightblue" points="557.41,-535.12 567.74,-532.77 558.2,-528.17 557.41,-535.12"/>
</g>
<!-- Node17 -->
<g id="node17" class="node">
<title>Node17</title>
<g id="a_node17"><a xlink:href="../../d0/da0/class_app_wren.html#ab96749e0e63c43368cc7121477d472a4" target="_top" xlink:title=" ">
<polygon fill="white" stroke="black" points="158,-308.71 158,-329.71 305,-329.71 305,-308.71 158,-308.71"/>
<text text-anchor="middle" x="231.5" y="-316.11" font-family="Helvetica,sans-Serif" font-size="12.00">AppWren::vmConstructor</text>
</a>
</g>
</g>
<!-- Node5&#45;&gt;Node17 -->
<g id="edge16" class="edge">
<title>Node5&#45;&gt;Node17</title>
<path fill="none" stroke="midnightblue" d="M587.74,-516.71C572.53,-489.78 541.38,-441.64 501,-416.21 439.16,-377.26 409.26,-404.34 341,-378.21 306.56,-365.03 269.42,-342.92 248.75,-329.84"/>
<polygon fill="midnightblue" stroke="midnightblue" points="584.74,-518.51 592.61,-525.6 590.87,-515.14 584.74,-518.51"/>
</g>
<!-- Node18 -->
<g id="node18" class="node">
<title>Node18</title>
<g id="a_node18"><a xlink:href="../../d0/da0/class_app_wren.html#aa63148d0906a6b5eabbba7058f568eae" target="_top" xlink:title=" ">
<polygon fill="white" stroke="black" points="0,-308.71 0,-329.71 122,-329.71 122,-308.71 0,-308.71"/>
<text text-anchor="middle" x="61" y="-316.11" font-family="Helvetica,sans-Serif" font-size="12.00">AppWren::AppWren</text>
</a>
</g>
</g>
<!-- Node17&#45;&gt;Node18 -->
<g id="edge17" class="edge">
<title>Node17&#45;&gt;Node18</title>
<path fill="none" stroke="midnightblue" d="M147.54,-319.21C138.97,-319.21 130.38,-319.21 122.13,-319.21"/>
<polygon fill="midnightblue" stroke="midnightblue" points="147.57,-322.71 157.57,-319.21 147.57,-315.71 147.57,-322.71"/>
</g>
<!-- Node20 -->
<g id="node20" class="node">
<title>Node20</title>
<g id="a_node20"><a xlink:href="../../d0/da0/class_app_wren.html#a2aa4114b8f2506085c3a0871c598216b" target="_top" xlink:title=" ">
<polygon fill="white" stroke="black" points="358.5,-269.71 358.5,-290.71 483.5,-290.71 483.5,-269.71 358.5,-269.71"/>
<text text-anchor="middle" x="421" y="-277.11" font-family="Helvetica,sans-Serif" font-size="12.00">AppWren::loadScript</text>
</a>
</g>
</g>
<!-- Node19&#45;&gt;Node20 -->
<g id="edge19" class="edge">
<title>Node19&#45;&gt;Node20</title>
<path fill="none" stroke="midnightblue" d="M547.12,-266.7C527.3,-268.84 504.4,-271.32 483.65,-273.56"/>
<polygon fill="midnightblue" stroke="midnightblue" points="547.61,-270.17 557.18,-265.62 546.86,-263.21 547.61,-270.17"/>
</g>
<!-- Node21 -->
<g id="node21" class="node">
<title>Node21</title>
<g id="a_node21"><a xlink:href="../../d0/d29/main_8c.html#ae66f6b31b5ad750f1fe042a706a4e3d4" target="_top" xlink:title=" ">
<polygon fill="white" stroke="black" points="40,-191.71 40,-212.71 82,-212.71 82,-191.71 40,-191.71"/>
<text text-anchor="middle" x="61" y="-199.11" font-family="Helvetica,sans-Serif" font-size="12.00">main</text>
</a>
</g>
</g>
<!-- Node19&#45;&gt;Node21 -->
<g id="edge21" class="edge">
<title>Node19&#45;&gt;Node21</title>
<path fill="none" stroke="midnightblue" d="M547.42,-258.66C465.35,-254.08 298.23,-242.96 158,-222.21 131.56,-218.3 101.44,-211.66 82.1,-207.12"/>
<polygon fill="midnightblue" stroke="midnightblue" points="547.3,-262.15 557.47,-259.21 547.68,-255.16 547.3,-262.15"/>
</g>
<!-- Node22 -->
<g id="node22" class="node">
<title>Node22</title>
<g id="a_node22"><a xlink:href="../../de/d2f/wren__core_8c.html#a5eaf7ed563df2aec5a9975f0c21ba266" target="_top" xlink:title=" ">
<polygon fill="white" stroke="black" points="366.5,-191.71 366.5,-212.71 475.5,-212.71 475.5,-191.71 366.5,-191.71"/>
<text text-anchor="middle" x="421" y="-199.11" font-family="Helvetica,sans-Serif" font-size="12.00">wrenInitializeCore</text>
</a>
</g>
</g>
<!-- Node19&#45;&gt;Node22 -->
<g id="edge22" class="edge">
<title>Node19&#45;&gt;Node22</title>
<path fill="none" stroke="midnightblue" d="M559.34,-247.36C541.61,-241.08 520.28,-233.64 501,-227.21 486.4,-222.34 470.2,-217.18 456.29,-212.81"/>
<polygon fill="midnightblue" stroke="midnightblue" points="558.2,-250.66 568.79,-250.71 560.54,-244.07 558.2,-250.66"/>
</g>
<!-- Node20&#45;&gt;Node17 -->
<g id="edge20" class="edge">
<title>Node20&#45;&gt;Node17</title>
<path fill="none" stroke="midnightblue" d="M359.33,-292.83C334.77,-297.94 306.74,-303.77 283.28,-308.65"/>
<polygon fill="midnightblue" stroke="midnightblue" points="360.18,-296.23 369.26,-290.76 358.76,-289.37 360.18,-296.23"/>
</g>
<!-- Node23 -->
<g id="node23" class="node">
<title>Node23</title>
<g id="a_node23"><a xlink:href="../../dd/d19/wren_8h.html#a564a87c8703d1d01c6cc5d165e3c819a" target="_top" xlink:title=" ">
<polygon fill="white" stroke="red" points="190,-191.71 190,-212.71 273,-212.71 273,-191.71 190,-191.71"/>
<text text-anchor="middle" x="231.5" y="-199.11" font-family="Helvetica,sans-Serif" font-size="12.00">wrenNewVM</text>
</a>
</g>
</g>
<!-- Node22&#45;&gt;Node23 -->
<g id="edge23" class="edge">
<title>Node22&#45;&gt;Node23</title>
<path fill="none" stroke="midnightblue" d="M355.96,-202.21C328.53,-202.21 297.3,-202.21 273.12,-202.21"/>
<polygon fill="midnightblue" stroke="midnightblue" points="356.27,-205.71 366.27,-202.21 356.27,-198.71 356.27,-205.71"/>
</g>
<!-- Node23&#45;&gt;Node21 -->
<g id="edge24" class="edge">
<title>Node23&#45;&gt;Node21</title>
<path fill="none" stroke="midnightblue" d="M179.38,-202.21C146.61,-202.21 105.88,-202.21 82.03,-202.21"/>
<polygon fill="midnightblue" stroke="midnightblue" points="179.71,-205.71 189.71,-202.21 179.71,-198.71 179.71,-205.71"/>
</g>
<!-- Node26&#45;&gt;Node4 -->
<g id="edge26" class="edge">
<title>Node26&#45;&gt;Node4</title>
<path fill="none" stroke="midnightblue" d="M1151.69,-240.03C1112.59,-242.96 1056.29,-248.65 1008,-259.21 955,-270.8 943.39,-279.82 892,-297.21 863.08,-307 830.19,-318.53 807.1,-326.69"/>
<polygon fill="midnightblue" stroke="midnightblue" points="1152.02,-243.51 1161.74,-239.31 1151.51,-236.53 1152.02,-243.51"/>
</g>
<!-- Node28 -->
<g id="node26" class="node">
<title>Node28</title>
<g id="a_node26"><a xlink:href="../../d4/de2/wren__compiler_8c.html#a3909aa8ee9218228fe302cab2e0d5d2f" target="_top" xlink:title=" ">
<polygon fill="white" stroke="black" points="1169,-84.71 1169,-105.71 1233,-105.71 1233,-84.71 1169,-84.71"/>
<text text-anchor="middle" x="1201" y="-92.11" font-family="Helvetica,sans-Serif" font-size="12.00">definition</text>
</a>
</g>
</g>
<!-- Node27&#45;&gt;Node28 -->
<g id="edge28" class="edge">
<title>Node27&#45;&gt;Node28</title>
<path fill="none" stroke="midnightblue" d="M1305.92,-106.25C1281.5,-103.66 1253.81,-100.72 1233.16,-98.52"/>
<polygon fill="midnightblue" stroke="midnightblue" points="1305.84,-109.76 1316.15,-107.34 1306.58,-102.8 1305.84,-109.76"/>
</g>
<!-- Node29 -->
<g id="node27" class="node">
<title>Node29</title>
<g id="a_node27"><a xlink:href="../../d4/de2/wren__compiler_8c.html#ad911c5983e96a9527dac91f1c86607ec" target="_top" xlink:title=" ">
<polygon fill="white" stroke="black" points="1019,-36.71 1019,-57.71 1092,-57.71 1092,-36.71 1019,-36.71"/>
<text text-anchor="middle" x="1055.5" y="-44.11" font-family="Helvetica,sans-Serif" font-size="12.00">finishBlock</text>
</a>
</g>
</g>
<!-- Node28&#45;&gt;Node29 -->
<g id="edge29" class="edge">
<title>Node28&#45;&gt;Node29</title>
<path fill="none" stroke="midnightblue" d="M1159.21,-81.57C1136.63,-74.01 1108.99,-64.77 1088.07,-57.77"/>
<polygon fill="midnightblue" stroke="midnightblue" points="1158.27,-84.94 1168.86,-84.8 1160.49,-78.3 1158.27,-84.94"/>
</g>
<!-- Node109 -->
<g id="node33" class="node">
<title>Node109</title>
<g id="a_node33"><a xlink:href="../../d4/de2/wren__compiler_8c.html#aedcc023430c3c9b1891dbdc4f7b8f0b8" target="_top" xlink:title=" ">
<polygon fill="white" stroke="red" points="1012.5,-114.71 1012.5,-135.71 1098.5,-135.71 1098.5,-114.71 1012.5,-114.71"/>
<text text-anchor="middle" x="1055.5" y="-122.11" font-family="Helvetica,sans-Serif" font-size="12.00">wrenCompile</text>
</a>
</g>
</g>
<!-- Node28&#45;&gt;Node109 -->
<g id="edge38" class="edge">
<title>Node28&#45;&gt;Node109</title>
<path fill="none" stroke="midnightblue" d="M1159.06,-103.77C1140.18,-107.72 1117.78,-112.4 1098.74,-116.38"/>
<polygon fill="midnightblue" stroke="midnightblue" points="1159.79,-107.19 1168.86,-101.72 1158.36,-100.34 1159.79,-107.19"/>
</g>
<!-- Node30 -->
<g id="node28" class="node">
<title>Node30</title>
<g id="a_node28"><a xlink:href="../../d4/de2/wren__compiler_8c.html#ac1514744dedaa4c087738a38405e3778" target="_top" xlink:title=" ">
<polygon fill="white" stroke="black" points="896.5,-7.71 896.5,-28.71 967.5,-28.71 967.5,-7.71 896.5,-7.71"/>
<text text-anchor="middle" x="932" y="-15.11" font-family="Helvetica,sans-Serif" font-size="12.00">finishBody</text>
</a>
</g>
</g>
<!-- Node29&#45;&gt;Node30 -->
<g id="edge30" class="edge">
<title>Node29&#45;&gt;Node30</title>
<path fill="none" stroke="midnightblue" d="M1008.59,-36.25C995.04,-33.02 980.43,-29.53 967.71,-26.49"/>
<polygon fill="midnightblue" stroke="midnightblue" points="1008.16,-39.75 1018.7,-38.67 1009.79,-32.94 1008.16,-39.75"/>
</g>
<!-- Node50 -->
<g id="node32" class="node">
<title>Node50</title>
<g id="a_node32"><a xlink:href="../../d4/de2/wren__compiler_8c.html#a1b50adda3f611e35b1bf68776af68f6d" target="_top" xlink:title=" ">
<polygon fill="white" stroke="red" points="898,-61.71 898,-82.71 966,-82.71 966,-61.71 898,-61.71"/>
<text text-anchor="middle" x="932" y="-69.11" font-family="Helvetica,sans-Serif" font-size="12.00">statement</text>
</a>
</g>
</g>
<!-- Node29&#45;&gt;Node50 -->
<g id="edge36" class="edge">
<title>Node29&#45;&gt;Node50</title>
<path fill="none" stroke="midnightblue" d="M1008.64,-56.65C994.48,-59.56 979.17,-62.71 966.05,-65.41"/>
<polygon fill="midnightblue" stroke="midnightblue" points="1009.61,-60.02 1018.7,-54.58 1008.2,-53.16 1009.61,-60.02"/>
</g>
<!-- Node30&#45;&gt;Node1 -->
<g id="edge31" class="edge">
<title>Node30&#45;&gt;Node1</title>
<path fill="none" stroke="midnightblue" d="M977.69,-10.42C1073.01,3.47 1298.1,21.28 1427,-92.21 1481.25,-139.98 1488.87,-236.04 1489.87,-268.34"/>
<polygon fill="midnightblue" stroke="midnightblue" points="977.16,-6.96 967.79,-11.91 978.21,-13.88 977.16,-6.96"/>
</g>
<!-- Node31 -->
<g id="node29" class="node">
<title>Node31</title>
<g id="a_node29"><a xlink:href="../../d4/de2/wren__compiler_8c.html#a7427f00898251d026c3b69ab90b92ed6" target="_top" xlink:title=" ">
<polygon fill="white" stroke="black" points="738.5,-7.71 738.5,-28.71 814.5,-28.71 814.5,-7.71 738.5,-7.71"/>
<text text-anchor="middle" x="776.5" y="-15.11" font-family="Helvetica,sans-Serif" font-size="12.00">methodCall</text>
</a>
</g>
</g>
<!-- Node30&#45;&gt;Node31 -->
<g id="edge32" class="edge">
<title>Node30&#45;&gt;Node31</title>
<path fill="none" stroke="midnightblue" d="M886.08,-18.21C863.36,-18.21 836.12,-18.21 814.6,-18.21"/>
<polygon fill="midnightblue" stroke="midnightblue" points="886.17,-21.71 896.17,-18.21 886.17,-14.71 886.17,-21.71"/>
</g>
<!-- Node32 -->
<g id="node30" class="node">
<title>Node32</title>
<g id="a_node30"><a xlink:href="../../d4/de2/wren__compiler_8c.html#a16fd4c5c52c951aed01a1d0fcd6d71aa" target="_top" xlink:title=" ">
<polygon fill="white" stroke="red" points="562.5,-6.71 562.5,-27.71 635.5,-27.71 635.5,-6.71 562.5,-6.71"/>
<text text-anchor="middle" x="599" y="-14.11" font-family="Helvetica,sans-Serif" font-size="12.00">namedCall</text>
</a>
</g>
</g>
<!-- Node31&#45;&gt;Node32 -->
<g id="edge33" class="edge">
<title>Node31&#45;&gt;Node32</title>
<path fill="none" stroke="midnightblue" d="M727.94,-17.94C698.86,-17.77 662.26,-17.57 635.67,-17.41"/>
<polygon fill="midnightblue" stroke="midnightblue" points="728.26,-21.44 738.28,-18 728.3,-14.44 728.26,-21.44"/>
</g>
<!-- Node140 -->
<g id="node31" class="node">
<title>Node140</title>
<g id="a_node31"><a xlink:href="../../d4/de2/wren__compiler_8c.html#a82a42c1b41759f79a9e76c4c5a898ede" target="_top" xlink:title=" ">
<polygon fill="white" stroke="black" points="394.5,-24.71 394.5,-45.71 447.5,-45.71 447.5,-24.71 394.5,-24.71"/>
<text text-anchor="middle" x="421" y="-32.11" font-family="Helvetica,sans-Serif" font-size="12.00">super_</text>
</a>
</g>
</g>
<!-- Node31&#45;&gt;Node140 -->
<g id="edge35" class="edge">
<title>Node31&#45;&gt;Node140</title>
<path fill="none" stroke="midnightblue" d="M728.25,-27.85C707.68,-31.57 683.25,-35.38 661,-37.21 583.46,-43.6 491.29,-39.56 447.52,-36.94"/>
<polygon fill="midnightblue" stroke="midnightblue" points="729.12,-31.24 738.31,-25.97 727.84,-24.36 729.12,-31.24"/>
</g>
<!-- Node32&#45;&gt;Node140 -->
<g id="edge34" class="edge">
<title>Node32&#45;&gt;Node140</title>
<path fill="none" stroke="midnightblue" d="M552.4,-21.87C519.04,-25.29 475,-29.79 447.59,-32.59"/>
<polygon fill="midnightblue" stroke="midnightblue" points="552.79,-25.35 562.38,-20.85 552.08,-18.39 552.79,-25.35"/>
</g>
<!-- Node50&#45;&gt;Node28 -->
<g id="edge37" class="edge">
<title>Node50&#45;&gt;Node28</title>
<path fill="none" stroke="midnightblue" d="M976.32,-75.94C1030.31,-80.59 1121.26,-88.43 1168.85,-92.53"/>
<polygon fill="midnightblue" stroke="midnightblue" points="976.3,-72.43 966.04,-75.06 975.7,-79.4 976.3,-72.43"/>
</g>
<!-- Node150&#45;&gt;Node4 -->
<g id="edge40" class="edge">
<title>Node150&#45;&gt;Node4</title>
<path fill="none" stroke="midnightblue" d="M1000.44,-388.66C968.68,-384.37 927.84,-378.1 892,-370.21 863.92,-364.03 832.57,-354.83 809.79,-347.72"/>
<polygon fill="midnightblue" stroke="midnightblue" points="1000.05,-392.14 1010.42,-389.98 1000.97,-385.2 1000.05,-392.14"/>
</g>
<!-- Node72&#45;&gt;Node26 -->
<g id="edge42" class="edge">
<title>Node72&#45;&gt;Node26</title>
<path fill="none" stroke="midnightblue" d="M1294.88,-238.37C1276.19,-238.14 1256.54,-237.89 1240.15,-237.69"/>
<polygon fill="midnightblue" stroke="midnightblue" points="1295.1,-241.87 1305.14,-238.5 1295.18,-234.88 1295.1,-241.87"/>
</g>
<!-- Node151&#45;&gt;Node2 -->
<g id="edge45" class="edge">
<title>Node151&#45;&gt;Node2</title>
<path fill="none" stroke="midnightblue" d="M1307.55,-292.14C1287.6,-296.88 1265.29,-302.18 1246.33,-306.68"/>
<polygon fill="midnightblue" stroke="midnightblue" points="1308.51,-295.51 1317.43,-289.8 1306.89,-288.7 1308.51,-295.51"/>
</g>
<!-- Node151&#45;&gt;Node26 -->
<g id="edge46" class="edge">
<title>Node151&#45;&gt;Node26</title>
<path fill="none" stroke="midnightblue" d="M1311.65,-265.99C1288.53,-259.92 1261.56,-252.85 1240.16,-247.23"/>
<polygon fill="midnightblue" stroke="midnightblue" points="1311.06,-269.46 1321.63,-268.61 1312.84,-262.69 1311.06,-269.46"/>
</g>
<!-- Node152 -->
<g id="node37" class="node">
<title>Node152</title>
<g id="a_node37"><a xlink:href="../../da/dbe/wren__value_8c.html#a0b8b706fa29e8b5d4557b1441256cd5f" target="_top" xlink:title=" ">
<polygon fill="white" stroke="black" points="1139,-266.71 1139,-287.71 1263,-287.71 1263,-266.71 1139,-266.71"/>
<text text-anchor="middle" x="1201" y="-274.11" font-family="Helvetica,sans-Serif" font-size="12.00">wrenBindSuperclass</text>
</a>
</g>
</g>
<!-- Node151&#45;&gt;Node152 -->
<g id="edge47" class="edge">
<title>Node151&#45;&gt;Node152</title>
<path fill="none" stroke="midnightblue" d="M1300.77,-278.45C1288.46,-278.29 1275.52,-278.13 1263.21,-277.98"/>
<polygon fill="midnightblue" stroke="midnightblue" points="1300.89,-281.95 1310.94,-278.57 1300.98,-274.95 1300.89,-281.95"/>
</g>
<!-- Node152&#45;&gt;Node22 -->
<g id="edge48" class="edge">
<title>Node152&#45;&gt;Node22</title>
<path fill="none" stroke="midnightblue" d="M1156.7,-263.65C1087,-242.05 955.46,-202.21 933,-202.21 933,-202.21 933,-202.21 775.5,-202.21 669.17,-202.21 544.86,-202.21 475.6,-202.21"/>
<polygon fill="midnightblue" stroke="midnightblue" points="1155.92,-267.08 1166.51,-266.7 1158,-260.39 1155.92,-267.08"/>
</g>
<!-- Node153 -->
<g id="node38" class="node">
<title>Node153</title>
<g id="a_node38"><a xlink:href="../../da/dbe/wren__value_8c.html#a065f5fe80158088112a1473e6649991f" target="_top" xlink:title=" ">
<polygon fill="white" stroke="black" points="1008,-268.71 1008,-289.71 1103,-289.71 1103,-268.71 1008,-268.71"/>
<text text-anchor="middle" x="1055.5" y="-276.11" font-family="Helvetica,sans-Serif" font-size="12.00">wrenNewClass</text>
</a>
</g>
</g>
<!-- Node152&#45;&gt;Node153 -->
<g id="edge49" class="edge">
<title>Node152&#45;&gt;Node153</title>
<path fill="none" stroke="midnightblue" d="M1128.64,-278.21C1120.01,-278.33 1111.38,-278.45 1103.24,-278.56"/>
<polygon fill="midnightblue" stroke="midnightblue" points="1128.78,-281.7 1138.73,-278.06 1128.68,-274.7 1128.78,-281.7"/>
</g>
<!-- Node153&#45;&gt;Node3 -->
<g id="edge50" class="edge">
<title>Node153&#45;&gt;Node3</title>
<path fill="none" stroke="midnightblue" d="M1010.86,-292.86C996.31,-297.41 980.33,-302.41 966.66,-306.68"/>
<polygon fill="midnightblue" stroke="midnightblue" points="1012.16,-296.12 1020.66,-289.8 1010.07,-289.44 1012.16,-296.12"/>
</g>
<!-- Node155 -->
<g id="node40" class="node">
<title>Node155</title>
<g id="a_node40"><a xlink:href="../../da/dbe/wren__value_8c.html#a59813fe4b53e8c1fab4de560fe06271f" target="_top" xlink:title=" ">
<polygon fill="white" stroke="black" points="734.5,-152.71 734.5,-173.71 818.5,-173.71 818.5,-152.71 734.5,-152.71"/>
<text text-anchor="middle" x="776.5" y="-160.11" font-family="Helvetica,sans-Serif" font-size="12.00">wrenFreeObj</text>
</a>
</g>
</g>
<!-- Node154&#45;&gt;Node155 -->
<g id="edge53" class="edge">
<title>Node154&#45;&gt;Node155</title>
<path fill="none" stroke="midnightblue" d="M1291.84,-161.45C1168.66,-161.87 917.21,-162.73 818.54,-163.07"/>
<polygon fill="midnightblue" stroke="midnightblue" points="1291.93,-164.95 1301.92,-161.42 1291.91,-157.95 1291.93,-164.95"/>
</g>
<!-- Node62 -->
<g id="node41" class="node">
<title>Node62</title>
<g id="a_node41"><a xlink:href="../../dd/d19/wren_8h.html#a74a6f15b4e601896ab959c1040c8ca4c" target="_top" xlink:title=" ">
<polygon fill="white" stroke="red" points="537,-347.71 537,-368.71 661,-368.71 661,-347.71 537,-347.71"/>
<text text-anchor="middle" x="599" y="-355.11" font-family="Helvetica,sans-Serif" font-size="12.00">wrenCollectGarbage</text>
</a>
</g>
</g>
<!-- Node155&#45;&gt;Node62 -->
<g id="edge54" class="edge">
<title>Node155&#45;&gt;Node62</title>
<path fill="none" stroke="midnightblue" d="M758.91,-181.65C722.94,-221.61 638.69,-315.22 609.87,-347.24"/>
<polygon fill="midnightblue" stroke="midnightblue" points="761.73,-183.75 765.81,-173.97 756.52,-179.06 761.73,-183.75"/>
</g>
<!-- Node156 -->
<g id="node42" class="node">
<title>Node156</title>
<g id="a_node42"><a xlink:href="../../dd/d19/wren_8h.html#a6ed5058332b2b5bc51ffab9696f30b69" target="_top" xlink:title=" ">
<polygon fill="white" stroke="black" points="557,-131.71 557,-152.71 641,-152.71 641,-131.71 557,-131.71"/>
<text text-anchor="middle" x="599" y="-139.11" font-family="Helvetica,sans-Serif" font-size="12.00">wrenFreeVM</text>
</a>
</g>
</g>
<!-- Node155&#45;&gt;Node156 -->
<g id="edge56" class="edge">
<title>Node155&#45;&gt;Node156</title>
<path fill="none" stroke="midnightblue" d="M724.15,-157.07C697.73,-153.91 665.98,-150.11 641.19,-147.14"/>
<polygon fill="midnightblue" stroke="midnightblue" points="724.01,-160.57 734.35,-158.29 724.84,-153.62 724.01,-160.57"/>
</g>
<!-- Node62&#45;&gt;Node15 -->
<g id="edge55" class="edge">
<title>Node62&#45;&gt;Node15</title>
<path fill="none" stroke="midnightblue" d="M526.87,-358.21C509.56,-358.21 491.34,-358.21 475.04,-358.21"/>
<polygon fill="midnightblue" stroke="midnightblue" points="526.94,-361.71 536.94,-358.21 526.94,-354.71 526.94,-361.71"/>
</g>
<!-- Node156&#45;&gt;Node21 -->
<g id="edge58" class="edge">
<title>Node156&#45;&gt;Node21</title>
<path fill="none" stroke="midnightblue" d="M569.71,-127.09C550.84,-117.88 525.15,-107 501,-102.21 431.24,-88.39 411.06,-90.03 341,-102.21 240.12,-119.74 127.49,-170.44 82.33,-192.15"/>
<polygon fill="midnightblue" stroke="midnightblue" points="568.14,-130.22 578.65,-131.57 571.28,-123.96 568.14,-130.22"/>
</g>
<!-- Node157 -->
<g id="node43" class="node">
<title>Node157</title>
<g id="a_node43"><a xlink:href="../../d0/da0/class_app_wren.html#a9fcd48d21e31b650f0926420eee346d0" target="_top" xlink:title=" ">
<polygon fill="white" stroke="black" points="357,-111.71 357,-132.71 485,-132.71 485,-111.71 357,-111.71"/>
<text text-anchor="middle" x="421" y="-119.11" font-family="Helvetica,sans-Serif" font-size="12.00">AppWren::~AppWren</text>
</a>
</g>
</g>
<!-- Node156&#45;&gt;Node157 -->
<g id="edge57" class="edge">
<title>Node156&#45;&gt;Node157</title>
<path fill="none" stroke="midnightblue" d="M546.65,-136.38C527.39,-134.19 505.27,-131.67 485.06,-129.38"/>
<polygon fill="midnightblue" stroke="midnightblue" points="546.4,-139.87 556.74,-137.52 547.19,-132.91 546.4,-139.87"/>
</g>
<!-- Node25 -->
<g id="node44" class="node">
<title>Node25</title>
<g id="a_node44"><a xlink:href="../../d0/da0/class_app_wren.html#aedf9a5e77ba482fde47e52125e9ca292" target="_top" xlink:title=" ">
<polygon fill="white" stroke="black" points="359.5,-151.71 359.5,-172.71 482.5,-172.71 482.5,-151.71 359.5,-151.71"/>
<text text-anchor="middle" x="421" y="-159.11" font-family="Helvetica,sans-Serif" font-size="12.00">AppWren::restartVM</text>
</a>
</g>
</g>
<!-- Node156&#45;&gt;Node25 -->
<g id="edge59" class="edge">
<title>Node156&#45;&gt;Node25</title>
<path fill="none" stroke="midnightblue" d="M546.58,-148.05C526.57,-150.33 503.5,-152.95 482.69,-155.31"/>
<polygon fill="midnightblue" stroke="midnightblue" points="547.19,-151.51 556.74,-146.9 546.4,-144.55 547.19,-151.51"/>
</g>
<!-- Node69 -->
<g id="node46" class="node">
<title>Node69</title>
<g id="a_node46"><a xlink:href="../../d0/da0/class_app_wren.html#a96b2fca22884292f1df5bfdebd8e0fac" target="_top" xlink:title=" ">
<polygon fill="white" stroke="black" points="697,-423.71 697,-444.71 856,-444.71 856,-423.71 697,-423.71"/>
<text text-anchor="middle" x="776.5" y="-431.11" font-family="Helvetica,sans-Serif" font-size="12.00">AppWren::getWrenHandles</text>
</a>
</g>
</g>
<!-- Node158&#45;&gt;Node69 -->
<g id="edge61" class="edge">
<title>Node158&#45;&gt;Node69</title>
<path fill="none" stroke="midnightblue" d="M1288.84,-434.21C1178.32,-434.21 969.7,-434.21 856.08,-434.21"/>
<polygon fill="midnightblue" stroke="midnightblue" points="1288.89,-437.71 1298.89,-434.21 1288.89,-430.71 1288.89,-437.71"/>
</g>
<!-- Node69&#45;&gt;Node17 -->
<g id="edge62" class="edge">
<title>Node69&#45;&gt;Node17</title>
<path fill="none" stroke="midnightblue" d="M760.62,-415.88C740.7,-392.9 702.99,-354.55 661,-338.21 542.85,-292.24 392.33,-299.01 304.75,-308.71"/>
<polygon fill="midnightblue" stroke="midnightblue" points="758,-418.2 767.12,-423.58 763.34,-413.68 758,-418.2"/>
</g>
</g>
</svg>
        <g id="navigator" transform="translate(0 0)" fill="#404254">
                <rect fill="#f2f5e9" fill-opacity="0.5" stroke="#606060" stroke-width=".5" x="0" y="0" width="60" height="60"/>
                <use id="zoomplus" xlink:href="#zoomPlus" x="17" y="9" onmousedown="handleZoom(evt,'in')"/>
                <use id="zoomminus" xlink:href="#zoomMin" x="42" y="9" onmousedown="handleZoom(evt,'out')"/>
                <use id="reset" xlink:href="#resetDef" x="30" y="36" onmousedown="handleReset()"/>
                <g id="arrowUp" xlink:href="#dirArrow" transform="translate(30 24)" onmousedown="handlePan(0,-1)">
                  <use xlink:href="#rim" fill="#404040">
                        <set attributeName="fill" to="#808080" begin="arrowUp.mouseover" end="arrowUp.mouseout"/>
                  </use>
                  <path fill="none" stroke="white" stroke-width="1.5" d="M0,-3.0v7 M-2.5,-0.5L0,-3.0L2.5,-0.5"/>
                </g>
                <g id="arrowRight" xlink:href="#dirArrow" transform="rotate(90) translate(36 -43)" onmousedown="handlePan(1,0)">
                  <use xlink:href="#rim" fill="#404040">
                        <set attributeName="fill" to="#808080" begin="arrowRight.mouseover" end="arrowRight.mouseout"/>
                  </use>
                  <path fill="none" stroke="white" stroke-width="1.5" d="M0,-3.0v7 M-2.5,-0.5L0,-3.0L2.5,-0.5"/>
                </g>
                <g id="arrowDown" xlink:href="#dirArrow" transform="rotate(180) translate(-30 -48)" onmousedown="handlePan(0,1)">
                  <use xlink:href="#rim" fill="#404040">
                        <set attributeName="fill" to="#808080" begin="arrowDown.mouseover" end="arrowDown.mouseout"/>
                  </use>
                  <path fill="none" stroke="white" stroke-width="1.5" d="M0,-3.0v7 M-2.5,-0.5L0,-3.0L2.5,-0.5"/>
                </g>
                <g id="arrowLeft" xlink:href="#dirArrow" transform="rotate(270) translate(-36 17)" onmousedown="handlePan(-1,0)">
                  <use xlink:href="#rim" fill="#404040">
                        <set attributeName="fill" to="#808080" begin="arrowLeft.mouseover" end="arrowLeft.mouseout"/>
                  </use>
                  <path fill="none" stroke="white" stroke-width="1.5" d="M0,-3.0v7 M-2.5,-0.5L0,-3.0L2.5,-0.5"/>
                </g>
        </g>
        <svg viewBox="0 0 15 15" width="100%" height="30px" preserveAspectRatio="xMaxYMin meet">
         <g id="arrow_out" transform="scale(0.3 0.3)">
          <a xlink:href="wren__compiler_8c_a280648a47237a52319d293ace8edb7c8_icgraph_org.svg" target="_base">
           <rect id="button" ry="5" rx="5" y="6" x="6" height="38" width="38"
                fill="#f2f5e9" fill-opacity="0.5" stroke="#606060" stroke-width="1.0"/>
           <path id="arrow"
             d="M 11.500037,31.436501 C 11.940474,20.09759 22.043105,11.32322 32.158766,21.979434 L 37.068811,17.246167 C 37.068811,17.246167 37.088388,32 37.088388,32 L 22.160133,31.978069 C 22.160133,31.978069 26.997745,27.140456 26.997745,27.140456 C 18.528582,18.264221 13.291696,25.230495 11.500037,31.436501 z"
             style="fill:#404040;"/>
          </a>
         </g>
        </svg>
</svg>
