<?xml version="1.0" encoding="UTF-8" standalone="no"?>
<!DOCTYPE svg PUBLIC "-//W3C//DTD SVG 1.1//EN"
 "http://www.w3.org/Graphics/SVG/1.1/DTD/svg11.dtd">
<!-- Generated by graphviz version 2.47.3 (20210619.1520)
 -->
<!-- Title: ERISCore/include/SvcDataDictionary.h Pages: 1 -->
<!--zoomable 427 -->
<svg id="main" version="1.1" xmlns="http://www.w3.org/2000/svg" xmlns:xlink="http://www.w3.org/1999/xlink" xml:space="preserve" onload="init(evt)">
<style type="text/css"><![CDATA[
.edge:hover path { stroke: red; }
.edge:hover polygon { stroke: red; fill: red; }
]]></style>
<script type="text/javascript"><![CDATA[
var edges = document.getElementsByTagName('g');
if (edges && edges.length) {
  for (var i=0;i<edges.length;i++) {
    if (edges[i].id.substr(0,4)=='edge') {
      edges[i].setAttribute('class','edge');
    }
  }
}
]]></script>
        <defs>
                <circle id="rim" cx="0" cy="0" r="7"/>
                <circle id="rim2" cx="0" cy="0" r="3.5"/>
                <g id="zoomPlus">
                        <use xlink:href="#rim" fill="#404040">
                                <set attributeName="fill" to="#808080" begin="zoomplus.mouseover" end="zoomplus.mouseout"/>
                        </use>
                        <path d="M-4,0h8M0,-4v8" fill="none" stroke="white" stroke-width="1.5" pointer-events="none"/>
                </g>
                <g id="zoomMin">
                        <use xlink:href="#rim" fill="#404040">
                                <set attributeName="fill" to="#808080" begin="zoomminus.mouseover" end="zoomminus.mouseout"/>
                        </use>
                        <path d="M-4,0h8" fill="none" stroke="white" stroke-width="1.5" pointer-events="none"/>
                </g>
                <g id="dirArrow">
                        <path fill="none" stroke="white" stroke-width="1.5" d="M0,-3.0v7 M-2.5,-0.5L0,-3.0L2.5,-0.5"/>
                </g>
               <g id="resetDef">
                       <use xlink:href="#rim2" fill="#404040">
                               <set attributeName="fill" to="#808080" begin="reset.mouseover" end="reset.mouseout"/>
                       </use>
               </g>
        </defs>

<script type="text/javascript">
var viewWidth = 2467;
var viewHeight = 427;
var sectionId = 'dynsection-1';
</script>
<script xlink:href="../../svgpan.js"/>
<svg id="graph" class="graph">
<g id="viewport">
<title>ERISCore/include/SvcDataDictionary.h</title>
<!-- Node1 -->
<g id="node1" class="node">
<title>Node1</title>
<g id="a_node1"><a xlink:title="Data Dictionary service provides an interface to a data dictionary service the service shall provide ...">
<polygon fill="#bfbfbf" stroke="black" points="1497.5,-390.5 1497.5,-418.5 1824.5,-418.5 1824.5,-390.5 1497.5,-390.5"/>
<text text-anchor="middle" x="1661" y="-400.1" font-family="Helvetica,sans-Serif" font-size="18.00">ERISCore/include/SvcDataDictionary.h</text>
</a>
</g>
</g>
<!-- Node2 -->
<g id="node2" class="node">
<title>Node2</title>
<g id="a_node2"><a xlink:href="../../df/d72/_app_manager_8h.html" target="_top" xlink:title=" ">
<polygon fill="none" stroke="black" points="1140,-325.5 1140,-353.5 1424,-353.5 1424,-325.5 1140,-325.5"/>
<text text-anchor="middle" x="1282" y="-335.1" font-family="Helvetica,sans-Serif" font-size="18.00">ERISCore/include/AppManager.h</text>
</a>
</g>
</g>
<!-- Node1&#45;&gt;Node2 -->
<g id="edge1" class="edge">
<title>Node1&#45;&gt;Node2</title>
<path fill="none" stroke="midnightblue" d="M1572.36,-388.77C1508.15,-378.09 1422.14,-363.8 1360.43,-353.54"/>
<polygon fill="midnightblue" stroke="midnightblue" points="1572.03,-392.26 1582.47,-390.45 1573.18,-385.35 1572.03,-392.26"/>
</g>
<!-- Node23 -->
<g id="node23" class="node">
<title>Node23</title>
<g id="a_node23"><a xlink:href="../../dc/dc4/_svc_data_dictionary_8cpp.html" target="_top" xlink:title="Data Dictionary service provides an interface to a data dictionary service the service shall provide ...">
<polygon fill="none" stroke="black" points="1689,-325.5 1689,-353.5 2001,-353.5 2001,-325.5 1689,-325.5"/>
<text text-anchor="middle" x="1845" y="-335.1" font-family="Helvetica,sans-Serif" font-size="18.00">ERISCore/src/SvcDataDictionary.cpp</text>
</a>
</g>
</g>
<!-- Node1&#45;&gt;Node23 -->
<g id="edge41" class="edge">
<title>Node1&#45;&gt;Node23</title>
<path fill="none" stroke="midnightblue" d="M1708.73,-387.16C1739.3,-376.69 1778.44,-363.29 1806.92,-353.54"/>
<polygon fill="midnightblue" stroke="midnightblue" points="1707.45,-383.9 1699.12,-390.45 1709.72,-390.52 1707.45,-383.9"/>
</g>
<!-- Node3 -->
<g id="node3" class="node">
<title>Node3</title>
<g id="a_node3"><a xlink:href="../../d7/d07/_app_scope_8h.html" target="_top" xlink:title=" ">
<polygon fill="none" stroke="black" points="66,-260.5 66,-288.5 330,-288.5 330,-260.5 66,-260.5"/>
<text text-anchor="middle" x="198" y="-270.1" font-family="Helvetica,sans-Serif" font-size="18.00">ERISCore/include/AppScope.h</text>
</a>
</g>
</g>
<!-- Node2&#45;&gt;Node3 -->
<g id="edge2" class="edge">
<title>Node2&#45;&gt;Node3</title>
<path fill="none" stroke="midnightblue" d="M1129.54,-332.52C942.98,-324.73 617.54,-309.63 339,-289 336.06,-288.78 333.08,-288.55 330.08,-288.32"/>
<polygon fill="midnightblue" stroke="midnightblue" points="1129.56,-336.02 1139.69,-332.94 1129.85,-329.03 1129.56,-336.02"/>
</g>
<!-- Node4 -->
<g id="node4" class="node">
<title>Node4</title>
<g id="a_node4"><a xlink:href="../../d9/db6/_app_audio_to_polyphonic_8h.html" target="_top" xlink:title="Application Example.">
<polygon fill="none" stroke="black" points="335,-195.5 335,-223.5 703,-223.5 703,-195.5 335,-195.5"/>
<text text-anchor="middle" x="519" y="-205.1" font-family="Helvetica,sans-Serif" font-size="18.00">ERISCore/include/AppAudioToPolyphonic.h</text>
</a>
</g>
</g>
<!-- Node2&#45;&gt;Node4 -->
<g id="edge39" class="edge">
<title>Node2&#45;&gt;Node4</title>
<path fill="none" stroke="midnightblue" d="M1129.45,-337.89C809.28,-335.86 93.57,-327.07 57,-289 48.07,-279.7 48.39,-269.59 57,-260 76.02,-238.83 214.47,-225.96 334.9,-218.67"/>
<polygon fill="midnightblue" stroke="midnightblue" points="1129.72,-341.39 1139.74,-337.96 1129.76,-334.39 1129.72,-341.39"/>
</g>
<!-- Node6 -->
<g id="node6" class="node">
<title>Node6</title>
<g id="a_node6"><a xlink:href="../../d4/d0d/_app_template_8h.html" target="_top" xlink:title=" ">
<polygon fill="none" stroke="black" points="682,-130.5 682,-158.5 970,-158.5 970,-130.5 682,-130.5"/>
<text text-anchor="middle" x="826" y="-140.1" font-family="Helvetica,sans-Serif" font-size="18.00">ERISCore/include/AppTemplate.h</text>
</a>
</g>
</g>
<!-- Node2&#45;&gt;Node6 -->
<g id="edge5" class="edge">
<title>Node2&#45;&gt;Node6</title>
<path fill="none" stroke="midnightblue" d="M1271.12,-316.19C1261.38,-298.47 1245.48,-274.35 1225,-260 1141.33,-201.39 1027.99,-172.58 943.49,-158.54"/>
<polygon fill="midnightblue" stroke="midnightblue" points="1268.15,-318.05 1275.89,-325.28 1274.34,-314.79 1268.15,-318.05"/>
</g>
<!-- Node7 -->
<g id="node7" class="node">
<title>Node7</title>
<g id="a_node7"><a xlink:href="../../d8/db0/_app_c_q_t_8h.html" target="_top" xlink:title=" ">
<polygon fill="none" stroke="black" points="348.5,-260.5 348.5,-288.5 599.5,-288.5 599.5,-260.5 348.5,-260.5"/>
<text text-anchor="middle" x="474" y="-270.1" font-family="Helvetica,sans-Serif" font-size="18.00">ERISCore/include/AppCQT.h</text>
</a>
</g>
</g>
<!-- Node2&#45;&gt;Node7 -->
<g id="edge7" class="edge">
<title>Node2&#45;&gt;Node7</title>
<path fill="none" stroke="midnightblue" d="M1129.68,-328.44C993.21,-319.16 787.63,-304.5 609,-289 605.95,-288.74 602.86,-288.46 599.75,-288.18"/>
<polygon fill="midnightblue" stroke="midnightblue" points="1129.58,-331.94 1139.79,-329.13 1130.05,-324.96 1129.58,-331.94"/>
</g>
<!-- Node8 -->
<g id="node8" class="node">
<title>Node8</title>
<g id="a_node8"><a xlink:href="../../d5/d98/_app_reprogram_8h.html" target="_top" xlink:title=" ">
<polygon fill="none" stroke="black" points="988.5,-130.5 988.5,-158.5 1291.5,-158.5 1291.5,-130.5 988.5,-130.5"/>
<text text-anchor="middle" x="1140" y="-140.1" font-family="Helvetica,sans-Serif" font-size="18.00">ERISCore/include/AppReprogram.h</text>
</a>
</g>
</g>
<!-- Node2&#45;&gt;Node8 -->
<g id="edge9" class="edge">
<title>Node2&#45;&gt;Node8</title>
<path fill="none" stroke="midnightblue" d="M1284.54,-315.14C1286.58,-284.27 1285.51,-229.75 1258,-195 1244,-177.32 1222.56,-165.88 1201.77,-158.51"/>
<polygon fill="midnightblue" stroke="midnightblue" points="1281.03,-315.11 1283.69,-325.36 1288,-315.69 1281.03,-315.11"/>
</g>
<!-- Node9 -->
<g id="node9" class="node">
<title>Node9</title>
<g id="a_node9"><a xlink:href="../../db/d4d/_control_slider_8h.html" target="_top" xlink:title=" ">
<polygon fill="none" stroke="black" points="618,-260.5 618,-288.5 904,-288.5 904,-260.5 618,-260.5"/>
<text text-anchor="middle" x="761" y="-270.1" font-family="Helvetica,sans-Serif" font-size="18.00">ERISCore/include/ControlSlider.h</text>
</a>
</g>
</g>
<!-- Node2&#45;&gt;Node9 -->
<g id="edge11" class="edge">
<title>Node2&#45;&gt;Node9</title>
<path fill="none" stroke="midnightblue" d="M1164.26,-324.26C1075.63,-313.55 955.1,-298.97 868.94,-288.55"/>
<polygon fill="midnightblue" stroke="midnightblue" points="1164.02,-327.76 1174.36,-325.48 1164.86,-320.81 1164.02,-327.76"/>
</g>
<!-- Node10 -->
<g id="node10" class="node">
<title>Node10</title>
<g id="a_node10"><a xlink:href="../../d7/d4f/_control_button_8h.html" target="_top" xlink:title=" ">
<polygon fill="none" stroke="black" points="922.5,-260.5 922.5,-288.5 1215.5,-288.5 1215.5,-260.5 922.5,-260.5"/>
<text text-anchor="middle" x="1069" y="-270.1" font-family="Helvetica,sans-Serif" font-size="18.00">ERISCore/include/ControlButton.h</text>
</a>
</g>
</g>
<!-- Node2&#45;&gt;Node10 -->
<g id="edge13" class="edge">
<title>Node2&#45;&gt;Node10</title>
<path fill="none" stroke="midnightblue" d="M1228.13,-322.57C1192.54,-312.04 1146.48,-298.42 1113.08,-288.54"/>
<polygon fill="midnightblue" stroke="midnightblue" points="1227.28,-325.97 1237.87,-325.45 1229.27,-319.25 1227.28,-325.97"/>
</g>
<!-- Node11 -->
<g id="node11" class="node">
<title>Node11</title>
<g id="a_node11"><a xlink:href="../../de/d46/_svc_serial_command_interface_8h.html" target="_top" xlink:title=" ">
<polygon fill="none" stroke="black" points="1666.5,-260.5 1666.5,-288.5 2075.5,-288.5 2075.5,-260.5 1666.5,-260.5"/>
<text text-anchor="middle" x="1871" y="-270.1" font-family="Helvetica,sans-Serif" font-size="18.00">ERISCore/include/SvcSerialCommandInterface.h</text>
</a>
</g>
</g>
<!-- Node2&#45;&gt;Node11 -->
<g id="edge15" class="edge">
<title>Node2&#45;&gt;Node11</title>
<path fill="none" stroke="midnightblue" d="M1413.89,-324.39C1514.29,-313.65 1651.41,-298.99 1749.22,-288.53"/>
<polygon fill="midnightblue" stroke="midnightblue" points="1413.25,-320.94 1403.68,-325.48 1414,-327.9 1413.25,-320.94"/>
</g>
<!-- Node18 -->
<g id="node18" class="node">
<title>Node18</title>
<g id="a_node18"><a xlink:href="../../d7/d7e/_app_wren_8cpp.html" target="_top" xlink:title=" ">
<polygon fill="none" stroke="black" points="521,-0.5 521,-28.5 763,-28.5 763,-0.5 521,-0.5"/>
<text text-anchor="middle" x="642" y="-10.1" font-family="Helvetica,sans-Serif" font-size="18.00">ERISCore/src/AppWren.cpp</text>
</a>
</g>
</g>
<!-- Node2&#45;&gt;Node18 -->
<g id="edge40" class="edge">
<title>Node2&#45;&gt;Node18</title>
<path fill="none" stroke="midnightblue" d="M1129.56,-336.24C809.42,-330.96 92.76,-316.16 47,-289 12.03,-268.24 0,-251.16 0,-210.5 0,-210.5 0,-210.5 0,-143.5 0,-38.44 334.82,-18.37 520.87,-15.32"/>
<polygon fill="midnightblue" stroke="midnightblue" points="1129.79,-339.74 1139.85,-336.4 1129.9,-332.74 1129.79,-339.74"/>
</g>
<!-- Node19 -->
<g id="node19" class="node">
<title>Node19</title>
<g id="a_node19"><a xlink:href="../../d4/db1/_app_base_class_8cpp.html" target="_top" xlink:title=" ">
<polygon fill="none" stroke="black" points="1110,-65.5 1110,-93.5 1394,-93.5 1394,-65.5 1110,-65.5"/>
<text text-anchor="middle" x="1252" y="-75.1" font-family="Helvetica,sans-Serif" font-size="18.00">ERISCore/src/AppBaseClass.cpp</text>
</a>
</g>
</g>
<!-- Node2&#45;&gt;Node19 -->
<g id="edge37" class="edge">
<title>Node2&#45;&gt;Node19</title>
<path fill="none" stroke="midnightblue" d="M1290.77,-315.68C1304.52,-276.18 1327.02,-193.26 1301,-130 1294.93,-115.24 1282.09,-102.54 1271.08,-93.7"/>
<polygon fill="midnightblue" stroke="midnightblue" points="1287.44,-314.58 1287.34,-325.18 1294.03,-316.96 1287.44,-314.58"/>
</g>
<!-- Node21 -->
<g id="node21" class="node">
<title>Node21</title>
<g id="a_node21"><a xlink:href="../../dc/d40/_app_manager_8cpp.html" target="_top" xlink:title=" ">
<polygon fill="none" stroke="black" points="1386.5,-195.5 1386.5,-223.5 1655.5,-223.5 1655.5,-195.5 1386.5,-195.5"/>
<text text-anchor="middle" x="1521" y="-205.1" font-family="Helvetica,sans-Serif" font-size="18.00">ERISCore/src/AppManager.cpp</text>
</a>
</g>
</g>
<!-- Node2&#45;&gt;Node21 -->
<g id="edge36" class="edge">
<title>Node2&#45;&gt;Node21</title>
<path fill="none" stroke="midnightblue" d="M1315.57,-320.52C1364.28,-294.44 1453.42,-246.7 1496.46,-223.64"/>
<polygon fill="midnightblue" stroke="midnightblue" points="1313.84,-317.48 1306.68,-325.28 1317.14,-323.65 1313.84,-317.48"/>
</g>
<!-- Node22 -->
<g id="node22" class="node">
<title>Node22</title>
<g id="a_node22"><a xlink:href="../../da/d7d/_svc_serial_command_interface_8cpp.html" target="_top" xlink:title=" ">
<polygon fill="none" stroke="black" points="1674,-195.5 1674,-223.5 2068,-223.5 2068,-195.5 1674,-195.5"/>
<text text-anchor="middle" x="1871" y="-205.1" font-family="Helvetica,sans-Serif" font-size="18.00">ERISCore/src/SvcSerialCommandInterface.cpp</text>
</a>
</g>
</g>
<!-- Node2&#45;&gt;Node22 -->
<g id="edge38" class="edge">
<title>Node2&#45;&gt;Node22</title>
<path fill="none" stroke="midnightblue" d="M1351.89,-323.31C1468.53,-297.96 1700.87,-247.47 1810.75,-223.59"/>
<polygon fill="midnightblue" stroke="midnightblue" points="1351.02,-319.92 1341.99,-325.46 1352.51,-326.76 1351.02,-319.92"/>
</g>
<!-- Node3&#45;&gt;Node4 -->
<g id="edge3" class="edge">
<title>Node3&#45;&gt;Node4</title>
<path fill="none" stroke="midnightblue" d="M274.42,-258.5C328.65,-247.86 400.73,-233.71 452.57,-223.54"/>
<polygon fill="midnightblue" stroke="midnightblue" points="273.65,-255.09 264.51,-260.45 275,-261.95 273.65,-255.09"/>
</g>
<!-- Node5 -->
<g id="node5" class="node">
<title>Node5</title>
<g id="a_node5"><a xlink:href="../../d6/dd8/_eris_core_8cpp.html" target="_top" xlink:title=" ">
<polygon fill="none" stroke="black" points="1423.5,-0.5 1423.5,-28.5 1658.5,-28.5 1658.5,-0.5 1423.5,-0.5"/>
<text text-anchor="middle" x="1541" y="-10.1" font-family="Helvetica,sans-Serif" font-size="18.00">ERISCore/src/ErisCore.cpp</text>
</a>
</g>
</g>
<!-- Node4&#45;&gt;Node5 -->
<g id="edge4" class="edge">
<title>Node4&#45;&gt;Node5</title>
<path fill="none" stroke="midnightblue" d="M548.92,-190.28C579.22,-172.55 627.9,-146.02 673,-130 929.92,-38.72 1252.95,-19.14 1423.31,-15.6"/>
<polygon fill="midnightblue" stroke="midnightblue" points="546.96,-187.37 540.14,-195.47 550.53,-193.4 546.96,-187.37"/>
</g>
<!-- Node6&#45;&gt;Node5 -->
<g id="edge6" class="edge">
<title>Node6&#45;&gt;Node5</title>
<path fill="none" stroke="midnightblue" d="M871.83,-127.13C923.99,-109.15 1012.06,-80.73 1090,-65 1201.96,-42.4 1331.78,-29.52 1423.3,-22.6"/>
<polygon fill="midnightblue" stroke="midnightblue" points="870.5,-123.89 862.2,-130.47 872.8,-130.5 870.5,-123.89"/>
</g>
<!-- Node7&#45;&gt;Node4 -->
<g id="edge8" class="edge">
<title>Node7&#45;&gt;Node4</title>
<path fill="none" stroke="midnightblue" d="M489.2,-252.22C495.99,-242.71 503.78,-231.81 509.69,-223.54"/>
<polygon fill="midnightblue" stroke="midnightblue" points="486.29,-250.27 483.32,-260.45 491.98,-254.34 486.29,-250.27"/>
</g>
<!-- Node8&#45;&gt;Node5 -->
<g id="edge10" class="edge">
<title>Node8&#45;&gt;Node5</title>
<path fill="none" stroke="midnightblue" d="M1117.66,-123.03C1101.8,-106.05 1085.79,-82.02 1101,-65 1122.23,-41.25 1300.42,-27.5 1423.42,-20.76"/>
<polygon fill="midnightblue" stroke="midnightblue" points="1115.31,-125.63 1124.83,-130.29 1120.29,-120.71 1115.31,-125.63"/>
</g>
<!-- Node9&#45;&gt;Node4 -->
<g id="edge12" class="edge">
<title>Node9&#45;&gt;Node4</title>
<path fill="none" stroke="midnightblue" d="M701.08,-257.9C660.48,-247.33 607.43,-233.52 569.08,-223.54"/>
<polygon fill="midnightblue" stroke="midnightblue" points="700.3,-261.31 710.86,-260.45 702.06,-254.54 700.3,-261.31"/>
</g>
<!-- Node10&#45;&gt;Node4 -->
<g id="edge14" class="edge">
<title>Node10&#45;&gt;Node4</title>
<path fill="none" stroke="midnightblue" d="M945.28,-259.33C851.66,-248.6 724.09,-233.99 632.95,-223.55"/>
<polygon fill="midnightblue" stroke="midnightblue" points="945.04,-262.82 955.37,-260.48 945.84,-255.87 945.04,-262.82"/>
</g>
<!-- Node11&#45;&gt;Node1 -->
<g id="edge33" class="edge">
<title>Node11&#45;&gt;Node1</title>
<path fill="none" stroke="midnightblue" d="M1777.21,-290.48C1736.22,-298.85 1694.24,-310.53 1680,-325 1662.69,-342.59 1660.2,-373.1 1660.34,-390.45"/>
<polygon fill="midnightblue" stroke="midnightblue" points="1777.91,-293.91 1787.03,-288.53 1776.54,-287.04 1777.91,-293.91"/>
</g>
<!-- Node11&#45;&gt;Node5 -->
<g id="edge35" class="edge">
<title>Node11&#45;&gt;Node5</title>
<path fill="none" stroke="midnightblue" d="M2086.05,-267.88C2230.98,-261.8 2399.84,-249.33 2423,-224 2470.69,-171.85 2471.55,-116.35 2423,-65 2410.04,-51.3 1896.03,-29.42 1658.79,-20.03"/>
<polygon fill="midnightblue" stroke="midnightblue" points="2085.51,-264.4 2075.66,-268.31 2085.8,-271.39 2085.51,-264.4"/>
</g>
<!-- Node12 -->
<g id="node12" class="node">
<title>Node12</title>
<g id="a_node12"><a xlink:href="../../db/dc8/_audio_director_8h.html" target="_top" xlink:title=" ">
<polygon fill="none" stroke="black" points="2124.5,-195.5 2124.5,-223.5 2413.5,-223.5 2413.5,-195.5 2124.5,-195.5"/>
<text text-anchor="middle" x="2269" y="-205.1" font-family="Helvetica,sans-Serif" font-size="18.00">ERISCore/include/AudioDirector.h</text>
</a>
</g>
</g>
<!-- Node11&#45;&gt;Node12 -->
<g id="edge16" class="edge">
<title>Node11&#45;&gt;Node12</title>
<path fill="none" stroke="midnightblue" d="M1963.67,-258.83C2031.14,-248.15 2121.7,-233.82 2186.64,-223.54"/>
<polygon fill="midnightblue" stroke="midnightblue" points="1962.8,-255.43 1953.47,-260.45 1963.89,-262.34 1962.8,-255.43"/>
</g>
<!-- Node11&#45;&gt;Node21 -->
<g id="edge32" class="edge">
<title>Node11&#45;&gt;Node21</title>
<path fill="none" stroke="midnightblue" d="M1788.41,-258.63C1729.2,-247.98 1650.19,-233.75 1593.43,-223.54"/>
<polygon fill="midnightblue" stroke="midnightblue" points="1788.02,-262.12 1798.48,-260.45 1789.26,-255.23 1788.02,-262.12"/>
</g>
<!-- Node11&#45;&gt;Node22 -->
<g id="edge34" class="edge">
<title>Node11&#45;&gt;Node22</title>
<path fill="none" stroke="midnightblue" d="M1871,-250.16C1871,-241.17 1871,-231.22 1871,-223.54"/>
<polygon fill="midnightblue" stroke="midnightblue" points="1867.5,-250.45 1871,-260.45 1874.5,-250.45 1867.5,-250.45"/>
</g>
<!-- Node12&#45;&gt;Node2 -->
<g id="edge17" class="edge">
<title>Node12&#45;&gt;Node2</title>
<path fill="none" stroke="midnightblue" d="M2236.47,-228.44C2200.58,-247.24 2140.53,-275.86 2085,-289 2022.69,-303.75 1637.63,-322.77 1424.17,-332.37"/>
<polygon fill="midnightblue" stroke="midnightblue" points="2238.3,-231.43 2245.49,-223.65 2235.02,-225.24 2238.3,-231.43"/>
</g>
<!-- Node13 -->
<g id="node13" class="node">
<title>Node13</title>
<g id="a_node13"><a xlink:href="../../d9/d3e/_app_base_class_8h.html" target="_top" xlink:title=" ">
<polygon fill="none" stroke="black" points="1658.5,-130.5 1658.5,-158.5 1957.5,-158.5 1957.5,-130.5 1658.5,-130.5"/>
<text text-anchor="middle" x="1808" y="-140.1" font-family="Helvetica,sans-Serif" font-size="18.00">ERISCore/include/AppBaseClass.h</text>
</a>
</g>
</g>
<!-- Node12&#45;&gt;Node13 -->
<g id="edge18" class="edge">
<title>Node12&#45;&gt;Node13</title>
<path fill="none" stroke="midnightblue" d="M2163.39,-194.07C2085.1,-183.37 1979.28,-168.91 1903.51,-158.55"/>
<polygon fill="midnightblue" stroke="midnightblue" points="2163.38,-197.6 2173.76,-195.48 2164.33,-190.66 2163.38,-197.6"/>
</g>
<!-- Node20 -->
<g id="node20" class="node">
<title>Node20</title>
<g id="a_node20"><a xlink:href="../../d1/d2c/_audio_director_8cpp.html" target="_top" xlink:title=" ">
<polygon fill="none" stroke="black" points="1976,-130.5 1976,-158.5 2250,-158.5 2250,-130.5 1976,-130.5"/>
<text text-anchor="middle" x="2113" y="-140.1" font-family="Helvetica,sans-Serif" font-size="18.00">ERISCore/src/AudioDirector.cpp</text>
</a>
</g>
</g>
<!-- Node12&#45;&gt;Node20 -->
<g id="edge31" class="edge">
<title>Node12&#45;&gt;Node20</title>
<path fill="none" stroke="midnightblue" d="M2227.18,-191.61C2201.47,-181.23 2169.01,-168.12 2145.28,-158.54"/>
<polygon fill="midnightblue" stroke="midnightblue" points="2226.09,-194.95 2236.68,-195.45 2228.71,-188.46 2226.09,-194.95"/>
</g>
<!-- Node13&#45;&gt;Node2 -->
<g id="edge19" class="edge">
<title>Node13&#45;&gt;Node2</title>
<path fill="none" stroke="midnightblue" d="M1648.33,-147.9C1544.4,-152.44 1420.54,-164.38 1378,-195 1340.56,-221.94 1360.95,-251.56 1334,-289 1324.1,-302.76 1310.04,-315.87 1299.04,-325.14"/>
<polygon fill="midnightblue" stroke="midnightblue" points="1648.47,-151.4 1658.32,-147.49 1648.18,-144.4 1648.47,-151.4"/>
</g>
<!-- Node13&#45;&gt;Node11 -->
<g id="edge20" class="edge">
<title>Node13&#45;&gt;Node11</title>
<path fill="none" stroke="midnightblue" d="M1924.45,-159.95C1992.38,-169.57 2066.74,-182.68 2077,-195 2106.39,-230.29 2062.96,-249.75 2008.53,-260.46"/>
<polygon fill="midnightblue" stroke="midnightblue" points="1924.87,-156.47 1914.48,-158.55 1923.9,-163.4 1924.87,-156.47"/>
</g>
<!-- Node14 -->
<g id="node14" class="node">
<title>Node14</title>
<g id="a_node14"><a xlink:href="../../d2/d14/_app_a_if_e_s_8h.html" target="_top" xlink:title=" ">
<polygon fill="none" stroke="black" points="1688,-65.5 1688,-93.5 1946,-93.5 1946,-65.5 1688,-65.5"/>
<text text-anchor="middle" x="1817" y="-75.1" font-family="Helvetica,sans-Serif" font-size="18.00">ERISCore/include/AppAIfES.h</text>
</a>
</g>
</g>
<!-- Node13&#45;&gt;Node14 -->
<g id="edge21" class="edge">
<title>Node13&#45;&gt;Node14</title>
<path fill="none" stroke="midnightblue" d="M1811.29,-120.46C1812.59,-111.39 1814.03,-101.3 1815.14,-93.54"/>
<polygon fill="midnightblue" stroke="midnightblue" points="1807.81,-120.05 1809.86,-130.45 1814.74,-121.04 1807.81,-120.05"/>
</g>
<!-- Node15 -->
<g id="node15" class="node">
<title>Node15</title>
<g id="a_node15"><a xlink:href="../../d6/d59/_svc_eris_audio_parameter_controller_8h.html" target="_top" xlink:title=" ">
<polygon fill="none" stroke="black" points="1964.5,-65.5 1964.5,-93.5 2413.5,-93.5 2413.5,-65.5 1964.5,-65.5"/>
<text text-anchor="middle" x="2189" y="-75.1" font-family="Helvetica,sans-Serif" font-size="18.00">ERISCore/include/SvcErisAudioParameterController.h</text>
</a>
</g>
</g>
<!-- Node13&#45;&gt;Node15 -->
<g id="edge23" class="edge">
<title>Node13&#45;&gt;Node15</title>
<path fill="none" stroke="midnightblue" d="M1897.11,-128.77C1961.65,-118.09 2048.12,-103.8 2110.16,-93.54"/>
<polygon fill="midnightblue" stroke="midnightblue" points="1896.24,-125.36 1886.94,-130.45 1897.38,-132.27 1896.24,-125.36"/>
</g>
<!-- Node17 -->
<g id="node17" class="node">
<title>Node17</title>
<g id="a_node17"><a xlink:href="../../d5/d58/_app_wren_8h.html" target="_top" xlink:title=" ">
<polygon fill="none" stroke="black" points="1412.5,-65.5 1412.5,-93.5 1669.5,-93.5 1669.5,-65.5 1412.5,-65.5"/>
<text text-anchor="middle" x="1541" y="-75.1" font-family="Helvetica,sans-Serif" font-size="18.00">ERISCore/include/AppWren.h</text>
</a>
</g>
</g>
<!-- Node13&#45;&gt;Node17 -->
<g id="edge27" class="edge">
<title>Node13&#45;&gt;Node17</title>
<path fill="none" stroke="midnightblue" d="M1742.74,-128.1C1697.84,-117.51 1638.84,-103.58 1596.25,-93.54"/>
<polygon fill="midnightblue" stroke="midnightblue" points="1742.14,-131.56 1752.68,-130.45 1743.75,-124.74 1742.14,-131.56"/>
</g>
<!-- Node13&#45;&gt;Node19 -->
<g id="edge30" class="edge">
<title>Node13&#45;&gt;Node19</title>
<path fill="none" stroke="midnightblue" d="M1682.93,-129.33C1588.29,-118.6 1459.33,-103.99 1367.2,-93.55"/>
<polygon fill="midnightblue" stroke="midnightblue" points="1682.8,-132.84 1693.13,-130.48 1683.59,-125.88 1682.8,-132.84"/>
</g>
<!-- Node14&#45;&gt;Node5 -->
<g id="edge22" class="edge">
<title>Node14&#45;&gt;Node5</title>
<path fill="none" stroke="midnightblue" d="M1749.84,-63.17C1703.38,-52.56 1642.23,-38.61 1598.11,-28.54"/>
<polygon fill="midnightblue" stroke="midnightblue" points="1749.28,-66.63 1759.81,-65.45 1750.84,-59.81 1749.28,-66.63"/>
</g>
<!-- Node15&#45;&gt;Node5 -->
<g id="edge26" class="edge">
<title>Node15&#45;&gt;Node5</title>
<path fill="none" stroke="midnightblue" d="M2045.08,-64.51C1928.83,-53.21 1767.26,-37.5 1658.66,-26.94"/>
<polygon fill="midnightblue" stroke="midnightblue" points="2044.84,-68 2055.13,-65.48 2045.51,-61.03 2044.84,-68"/>
</g>
<!-- Node15&#45;&gt;Node12 -->
<g id="edge24" class="edge">
<title>Node15&#45;&gt;Node12</title>
<path fill="none" stroke="midnightblue" d="M2226.55,-98.89C2238.83,-106.78 2251.29,-117.17 2259,-130 2271.17,-150.26 2271.5,-178.73 2270.41,-195.23"/>
<polygon fill="midnightblue" stroke="midnightblue" points="2228.08,-95.73 2217.7,-93.59 2224.48,-101.73 2228.08,-95.73"/>
</g>
<!-- Node16 -->
<g id="node16" class="node">
<title>Node16</title>
<g id="a_node16"><a xlink:href="../../d5/d06/_svc_eris_audio_parameter_controller_8cpp.html" target="_top" xlink:title=" ">
<polygon fill="none" stroke="black" points="1972,-0.5 1972,-28.5 2406,-28.5 2406,-0.5 1972,-0.5"/>
<text text-anchor="middle" x="2189" y="-10.1" font-family="Helvetica,sans-Serif" font-size="18.00">ERISCore/src/SvcErisAudioParameterController.cpp</text>
</a>
</g>
</g>
<!-- Node15&#45;&gt;Node16 -->
<g id="edge25" class="edge">
<title>Node15&#45;&gt;Node16</title>
<path fill="none" stroke="midnightblue" d="M2189,-55.16C2189,-46.17 2189,-36.22 2189,-28.54"/>
<polygon fill="midnightblue" stroke="midnightblue" points="2185.5,-55.45 2189,-65.45 2192.5,-55.45 2185.5,-55.45"/>
</g>
<!-- Node17&#45;&gt;Node5 -->
<g id="edge29" class="edge">
<title>Node17&#45;&gt;Node5</title>
<path fill="none" stroke="midnightblue" d="M1541,-55.16C1541,-46.17 1541,-36.22 1541,-28.54"/>
<polygon fill="midnightblue" stroke="midnightblue" points="1537.5,-55.45 1541,-65.45 1544.5,-55.45 1537.5,-55.45"/>
</g>
<!-- Node17&#45;&gt;Node18 -->
<g id="edge28" class="edge">
<title>Node17&#45;&gt;Node18</title>
<path fill="none" stroke="midnightblue" d="M1402.45,-64.97C1169.73,-46.17 911.1,-30.57 763.02,-22.15"/>
<polygon fill="midnightblue" stroke="midnightblue" points="1402.21,-68.47 1412.46,-65.79 1402.78,-61.49 1402.21,-68.47"/>
</g>
</g>
</svg>
        <g id="navigator" transform="translate(0 0)" fill="#404254">
                <rect fill="#f2f5e9" fill-opacity="0.5" stroke="#606060" stroke-width=".5" x="0" y="0" width="60" height="60"/>
                <use id="zoomplus" xlink:href="#zoomPlus" x="17" y="9" onmousedown="handleZoom(evt,'in')"/>
                <use id="zoomminus" xlink:href="#zoomMin" x="42" y="9" onmousedown="handleZoom(evt,'out')"/>
                <use id="reset" xlink:href="#resetDef" x="30" y="36" onmousedown="handleReset()"/>
                <g id="arrowUp" xlink:href="#dirArrow" transform="translate(30 24)" onmousedown="handlePan(0,-1)">
                  <use xlink:href="#rim" fill="#404040">
                        <set attributeName="fill" to="#808080" begin="arrowUp.mouseover" end="arrowUp.mouseout"/>
                  </use>
                  <path fill="none" stroke="white" stroke-width="1.5" d="M0,-3.0v7 M-2.5,-0.5L0,-3.0L2.5,-0.5"/>
                </g>
                <g id="arrowRight" xlink:href="#dirArrow" transform="rotate(90) translate(36 -43)" onmousedown="handlePan(1,0)">
                  <use xlink:href="#rim" fill="#404040">
                        <set attributeName="fill" to="#808080" begin="arrowRight.mouseover" end="arrowRight.mouseout"/>
                  </use>
                  <path fill="none" stroke="white" stroke-width="1.5" d="M0,-3.0v7 M-2.5,-0.5L0,-3.0L2.5,-0.5"/>
                </g>
                <g id="arrowDown" xlink:href="#dirArrow" transform="rotate(180) translate(-30 -48)" onmousedown="handlePan(0,1)">
                  <use xlink:href="#rim" fill="#404040">
                        <set attributeName="fill" to="#808080" begin="arrowDown.mouseover" end="arrowDown.mouseout"/>
                  </use>
                  <path fill="none" stroke="white" stroke-width="1.5" d="M0,-3.0v7 M-2.5,-0.5L0,-3.0L2.5,-0.5"/>
                </g>
                <g id="arrowLeft" xlink:href="#dirArrow" transform="rotate(270) translate(-36 17)" onmousedown="handlePan(-1,0)">
                  <use xlink:href="#rim" fill="#404040">
                        <set attributeName="fill" to="#808080" begin="arrowLeft.mouseover" end="arrowLeft.mouseout"/>
                  </use>
                  <path fill="none" stroke="white" stroke-width="1.5" d="M0,-3.0v7 M-2.5,-0.5L0,-3.0L2.5,-0.5"/>
                </g>
        </g>
        <svg viewBox="0 0 15 15" width="100%" height="30px" preserveAspectRatio="xMaxYMin meet">
         <g id="arrow_out" transform="scale(0.3 0.3)">
          <a xlink:href="_svc_data_dictionary_8h__dep__incl_org.svg" target="_base">
           <rect id="button" ry="5" rx="5" y="6" x="6" height="38" width="38"
                fill="#f2f5e9" fill-opacity="0.5" stroke="#606060" stroke-width="1.0"/>
           <path id="arrow"
             d="M 11.500037,31.436501 C 11.940474,20.09759 22.043105,11.32322 32.158766,21.979434 L 37.068811,17.246167 C 37.068811,17.246167 37.088388,32 37.088388,32 L 22.160133,31.978069 C 22.160133,31.978069 26.997745,27.140456 26.997745,27.140456 C 18.528582,18.264221 13.291696,25.230495 11.500037,31.436501 z"
             style="fill:#404040;"/>
          </a>
         </g>
        </svg>
</svg>
