<?xml version="1.0" encoding="UTF-8" standalone="no"?>
<!DOCTYPE svg PUBLIC "-//W3C//DTD SVG 1.1//EN"
 "http://www.w3.org/Graphics/SVG/1.1/DTD/svg11.dtd">
<!-- Generated by graphviz version 2.47.3 (20210619.1520)
 -->
<!-- Title: wren_core.c Pages: 1 -->
<svg width="961pt" height="436pt"
 viewBox="0.00 0.00 961.00 436.00" xmlns="http://www.w3.org/2000/svg" xmlns:xlink="http://www.w3.org/1999/xlink">
<g id="graph0" class="graph" transform="scale(1 1) rotate(0) translate(4 432)">
<title>wren_core.c</title>
<polygon fill="white" stroke="transparent" points="-4,4 -4,-432 957,-432 957,4 -4,4"/>
<!-- Node1 -->
<g id="node1" class="node">
<title>Node1</title>
<g id="a_node1"><a xlink:title=" ">
<polygon fill="#bfbfbf" stroke="black" points="308.5,-406.5 308.5,-427.5 388.5,-427.5 388.5,-406.5 308.5,-406.5"/>
<text text-anchor="middle" x="348.5" y="-413.9" font-family="Helvetica,sans-Serif" font-size="12.00">wren_core.c</text>
</a>
</g>
</g>
<!-- Node2 -->
<g id="node2" class="node">
<title>Node2</title>
<g id="a_node2"><a xlink:title=" ">
<polygon fill="white" stroke="#bfbfbf" points="0,-348.5 0,-369.5 53,-369.5 53,-348.5 0,-348.5"/>
<text text-anchor="middle" x="26.5" y="-355.9" font-family="Helvetica,sans-Serif" font-size="12.00">ctype.h</text>
</a>
</g>
</g>
<!-- Node1&#45;&gt;Node2 -->
<g id="edge1" class="edge">
<title>Node1&#45;&gt;Node2</title>
<path fill="none" stroke="midnightblue" d="M308.29,-411.1C254.42,-404.19 155.73,-390.36 62.99,-370.14"/>
<polygon fill="midnightblue" stroke="midnightblue" points="63.69,-366.71 53.17,-367.97 62.18,-373.55 63.69,-366.71"/>
</g>
<!-- Node3 -->
<g id="node3" class="node">
<title>Node3</title>
<g id="a_node3"><a xlink:title=" ">
<polygon fill="white" stroke="#bfbfbf" points="71,-348.5 71,-369.5 124,-369.5 124,-348.5 71,-348.5"/>
<text text-anchor="middle" x="97.5" y="-355.9" font-family="Helvetica,sans-Serif" font-size="12.00">errno.h</text>
</a>
</g>
</g>
<!-- Node1&#45;&gt;Node3 -->
<g id="edge2" class="edge">
<title>Node1&#45;&gt;Node3</title>
<path fill="none" stroke="midnightblue" d="M308.1,-408.26C266.61,-400.11 199.95,-386.5 133.93,-370.25"/>
<polygon fill="midnightblue" stroke="midnightblue" points="134.75,-366.85 124.2,-367.83 133.06,-373.64 134.75,-366.85"/>
</g>
<!-- Node4 -->
<g id="node4" class="node">
<title>Node4</title>
<g id="a_node4"><a xlink:title=" ">
<polygon fill="white" stroke="#bfbfbf" points="142,-348.5 142,-369.5 189,-369.5 189,-348.5 142,-348.5"/>
<text text-anchor="middle" x="165.5" y="-355.9" font-family="Helvetica,sans-Serif" font-size="12.00">float.h</text>
</a>
</g>
</g>
<!-- Node1&#45;&gt;Node4 -->
<g id="edge3" class="edge">
<title>Node1&#45;&gt;Node4</title>
<path fill="none" stroke="midnightblue" d="M317.04,-406.37C284.16,-396.31 232.77,-380.59 199.11,-370.29"/>
<polygon fill="midnightblue" stroke="midnightblue" points="199.86,-366.85 189.28,-367.28 197.81,-373.55 199.86,-366.85"/>
</g>
<!-- Node5 -->
<g id="node5" class="node">
<title>Node5</title>
<g id="a_node5"><a xlink:title=" ">
<polygon fill="white" stroke="#bfbfbf" points="164,-58.5 164,-79.5 215,-79.5 215,-58.5 164,-58.5"/>
<text text-anchor="middle" x="189.5" y="-65.9" font-family="Helvetica,sans-Serif" font-size="12.00">math.h</text>
</a>
</g>
</g>
<!-- Node1&#45;&gt;Node5 -->
<g id="edge4" class="edge">
<title>Node1&#45;&gt;Node5</title>
<path fill="none" stroke="midnightblue" d="M320.1,-406.4C302.34,-399.04 280.29,-387.19 266.5,-370 197.04,-283.45 189.53,-141.46 189.23,-89.68"/>
<polygon fill="midnightblue" stroke="midnightblue" points="192.73,-89.55 189.26,-79.54 185.73,-89.53 192.73,-89.55"/>
</g>
<!-- Node6 -->
<g id="node6" class="node">
<title>Node6</title>
<g id="a_node6"><a xlink:title=" ">
<polygon fill="white" stroke="#bfbfbf" points="605.5,-116.5 605.5,-137.5 659.5,-137.5 659.5,-116.5 605.5,-116.5"/>
<text text-anchor="middle" x="632.5" y="-123.9" font-family="Helvetica,sans-Serif" font-size="12.00">string.h</text>
</a>
</g>
</g>
<!-- Node1&#45;&gt;Node6 -->
<g id="edge5" class="edge">
<title>Node1&#45;&gt;Node6</title>
<path fill="none" stroke="midnightblue" d="M388.71,-412.93C488.87,-404.19 741.5,-374.91 741.5,-302 741.5,-302 741.5,-302 741.5,-242 741.5,-195.77 694.09,-160.93 661.81,-142.57"/>
<polygon fill="midnightblue" stroke="midnightblue" points="663.2,-139.34 652.75,-137.62 659.84,-145.49 663.2,-139.34"/>
</g>
<!-- Node7 -->
<g id="node7" class="node">
<title>Node7</title>
<g id="a_node7"><a xlink:title=" ">
<polygon fill="white" stroke="#bfbfbf" points="769.5,-348.5 769.5,-369.5 817.5,-369.5 817.5,-348.5 769.5,-348.5"/>
<text text-anchor="middle" x="793.5" y="-355.9" font-family="Helvetica,sans-Serif" font-size="12.00">time.h</text>
</a>
</g>
</g>
<!-- Node1&#45;&gt;Node7 -->
<g id="edge6" class="edge">
<title>Node1&#45;&gt;Node7</title>
<path fill="none" stroke="midnightblue" d="M388.65,-413.4C461.99,-408.22 622.35,-394.91 755.5,-370 756.78,-369.76 758.09,-369.5 759.4,-369.22"/>
<polygon fill="midnightblue" stroke="midnightblue" points="760.55,-372.55 769.5,-366.88 758.96,-365.73 760.55,-372.55"/>
</g>
<!-- Node8 -->
<g id="node8" class="node">
<title>Node8</title>
<g id="a_node8"><a xlink:href="../../d3/d72/wren__common_8h.html" target="_top" xlink:title=" ">
<polygon fill="white" stroke="black" points="304.5,-58.5 304.5,-79.5 406.5,-79.5 406.5,-58.5 304.5,-58.5"/>
<text text-anchor="middle" x="355.5" y="-65.9" font-family="Helvetica,sans-Serif" font-size="12.00">wren_common.h</text>
</a>
</g>
</g>
<!-- Node1&#45;&gt;Node8 -->
<g id="edge7" class="edge">
<title>Node1&#45;&gt;Node8</title>
<path fill="none" stroke="midnightblue" d="M343.27,-406.48C338.6,-397.41 332.12,-383.22 329.5,-370 327.6,-360.41 329.31,-357.78 329.5,-348 331.5,-244.83 318.37,-217.21 338.5,-116 340.32,-106.84 343.7,-97.09 346.97,-88.93"/>
<polygon fill="midnightblue" stroke="midnightblue" points="350.24,-90.18 350.93,-79.61 343.8,-87.45 350.24,-90.18"/>
</g>
<!-- Node10 -->
<g id="node10" class="node">
<title>Node10</title>
<g id="a_node10"><a xlink:href="../../d4/da0/wren__core_8h.html" target="_top" xlink:title=" ">
<polygon fill="white" stroke="black" points="457.5,-348.5 457.5,-369.5 537.5,-369.5 537.5,-348.5 457.5,-348.5"/>
<text text-anchor="middle" x="497.5" y="-355.9" font-family="Helvetica,sans-Serif" font-size="12.00">wren_core.h</text>
</a>
</g>
</g>
<!-- Node1&#45;&gt;Node10 -->
<g id="edge9" class="edge">
<title>Node1&#45;&gt;Node10</title>
<path fill="none" stroke="midnightblue" d="M374.11,-406.37C398.57,-397.18 435.61,-383.26 462.72,-373.07"/>
<polygon fill="midnightblue" stroke="midnightblue" points="464.09,-376.3 472.22,-369.5 461.63,-369.74 464.09,-376.3"/>
</g>
<!-- Node17 -->
<g id="node17" class="node">
<title>Node17</title>
<g id="a_node17"><a xlink:href="../../d2/d0a/wren__value_8h.html" target="_top" xlink:title=" ">
<polygon fill="white" stroke="black" points="535.5,-174.5 535.5,-195.5 619.5,-195.5 619.5,-174.5 535.5,-174.5"/>
<text text-anchor="middle" x="577.5" y="-181.9" font-family="Helvetica,sans-Serif" font-size="12.00">wren_value.h</text>
</a>
</g>
</g>
<!-- Node1&#45;&gt;Node17 -->
<g id="edge33" class="edge">
<title>Node1&#45;&gt;Node17</title>
<path fill="none" stroke="midnightblue" d="M388.74,-412.14C465.85,-402.2 631.45,-367.89 684.5,-254 697.78,-225.49 662.9,-207.62 629.48,-197.4"/>
<polygon fill="midnightblue" stroke="midnightblue" points="630.25,-193.98 619.68,-194.59 628.33,-200.71 630.25,-193.98"/>
</g>
<!-- Node18 -->
<g id="node18" class="node">
<title>Node18</title>
<g id="a_node18"><a xlink:href="../../d2/db6/wren__math_8h.html" target="_top" xlink:title=" ">
<polygon fill="white" stroke="black" points="206,-116.5 206,-137.5 289,-137.5 289,-116.5 206,-116.5"/>
<text text-anchor="middle" x="247.5" y="-123.9" font-family="Helvetica,sans-Serif" font-size="12.00">wren_math.h</text>
</a>
</g>
</g>
<!-- Node1&#45;&gt;Node18 -->
<g id="edge30" class="edge">
<title>Node1&#45;&gt;Node18</title>
<path fill="none" stroke="midnightblue" d="M332.3,-406.31C305.66,-388.99 255.5,-350.02 255.5,-302 255.5,-302 255.5,-302 255.5,-242 255.5,-208.9 252.1,-170.53 249.74,-147.82"/>
<polygon fill="midnightblue" stroke="midnightblue" points="253.2,-147.31 248.65,-137.74 246.24,-148.06 253.2,-147.31"/>
</g>
<!-- Node21 -->
<g id="node21" class="node">
<title>Node21</title>
<g id="a_node21"><a xlink:href="../../d7/d66/wren__primitive_8h.html" target="_top" xlink:title=" ">
<polygon fill="white" stroke="black" points="338,-348.5 338,-369.5 439,-369.5 439,-348.5 338,-348.5"/>
<text text-anchor="middle" x="388.5" y="-355.9" font-family="Helvetica,sans-Serif" font-size="12.00">wren_primitive.h</text>
</a>
</g>
</g>
<!-- Node1&#45;&gt;Node21 -->
<g id="edge31" class="edge">
<title>Node1&#45;&gt;Node21</title>
<path fill="none" stroke="midnightblue" d="M355.47,-406.25C361.03,-398.46 368.98,-387.33 375.68,-377.94"/>
<polygon fill="midnightblue" stroke="midnightblue" points="378.65,-379.81 381.61,-369.64 372.95,-375.75 378.65,-379.81"/>
</g>
<!-- Node22 -->
<g id="node22" class="node">
<title>Node22</title>
<g id="a_node22"><a xlink:href="../../dc/dff/wren__core_8wren_8inc.html" target="_top" xlink:title=" ">
<polygon fill="white" stroke="black" points="836,-348.5 836,-369.5 953,-369.5 953,-348.5 836,-348.5"/>
<text text-anchor="middle" x="894.5" y="-355.9" font-family="Helvetica,sans-Serif" font-size="12.00">wren_core.wren.inc</text>
</a>
</g>
</g>
<!-- Node1&#45;&gt;Node22 -->
<g id="edge34" class="edge">
<title>Node1&#45;&gt;Node22</title>
<path fill="none" stroke="midnightblue" d="M388.55,-412.83C469.16,-406.3 656.97,-390.33 825.85,-370.02"/>
<polygon fill="midnightblue" stroke="midnightblue" points="826.41,-373.48 835.92,-368.8 825.57,-366.53 826.41,-373.48"/>
</g>
<!-- Node9 -->
<g id="node9" class="node">
<title>Node9</title>
<g id="a_node9"><a xlink:title=" ">
<polygon fill="white" stroke="#bfbfbf" points="284,-0.5 284,-21.5 337,-21.5 337,-0.5 284,-0.5"/>
<text text-anchor="middle" x="310.5" y="-7.9" font-family="Helvetica,sans-Serif" font-size="12.00">stdint.h</text>
</a>
</g>
</g>
<!-- Node8&#45;&gt;Node9 -->
<g id="edge8" class="edge">
<title>Node8&#45;&gt;Node9</title>
<path fill="none" stroke="midnightblue" d="M347.66,-58.25C341.34,-50.38 332.28,-39.1 324.69,-29.65"/>
<polygon fill="midnightblue" stroke="midnightblue" points="327.24,-27.25 318.25,-21.64 321.78,-31.63 327.24,-27.25"/>
</g>
<!-- Node11 -->
<g id="node11" class="node">
<title>Node11</title>
<g id="a_node11"><a xlink:href="../../d5/db1/wren__vm_8h.html" target="_top" xlink:title=" ">
<polygon fill="white" stroke="black" points="461.5,-290.5 461.5,-311.5 533.5,-311.5 533.5,-290.5 461.5,-290.5"/>
<text text-anchor="middle" x="497.5" y="-297.9" font-family="Helvetica,sans-Serif" font-size="12.00">wren_vm.h</text>
</a>
</g>
</g>
<!-- Node10&#45;&gt;Node11 -->
<g id="edge10" class="edge">
<title>Node10&#45;&gt;Node11</title>
<path fill="none" stroke="midnightblue" d="M497.5,-348.25C497.5,-340.94 497.5,-330.69 497.5,-321.7"/>
<polygon fill="midnightblue" stroke="midnightblue" points="501,-321.64 497.5,-311.64 494,-321.64 501,-321.64"/>
</g>
<!-- Node11&#45;&gt;Node8 -->
<g id="edge11" class="edge">
<title>Node11&#45;&gt;Node8</title>
<path fill="none" stroke="midnightblue" d="M461.44,-297.76C431.17,-293.79 389.46,-283.02 367.5,-254 330.38,-204.96 342.22,-125.89 350.44,-89.49"/>
<polygon fill="midnightblue" stroke="midnightblue" points="353.87,-90.18 352.81,-79.64 347.06,-88.54 353.87,-90.18"/>
</g>
<!-- Node12 -->
<g id="node12" class="node">
<title>Node12</title>
<g id="a_node12"><a xlink:href="../../d7/db9/wren__compiler_8h.html" target="_top" xlink:title=" ">
<polygon fill="white" stroke="black" points="573.5,-232.5 573.5,-253.5 675.5,-253.5 675.5,-232.5 573.5,-232.5"/>
<text text-anchor="middle" x="624.5" y="-239.9" font-family="Helvetica,sans-Serif" font-size="12.00">wren_compiler.h</text>
</a>
</g>
</g>
<!-- Node11&#45;&gt;Node12 -->
<g id="edge12" class="edge">
<title>Node11&#45;&gt;Node12</title>
<path fill="none" stroke="midnightblue" d="M519.33,-290.37C539.81,-281.34 570.64,-267.75 593.63,-257.61"/>
<polygon fill="midnightblue" stroke="midnightblue" points="595.21,-260.74 602.95,-253.5 592.39,-254.33 595.21,-260.74"/>
</g>
<!-- Node11&#45;&gt;Node17 -->
<g id="edge27" class="edge">
<title>Node11&#45;&gt;Node17</title>
<path fill="none" stroke="midnightblue" d="M504.32,-290.28C517.72,-271.18 547.68,-228.5 564.82,-204.08"/>
<polygon fill="midnightblue" stroke="midnightblue" points="567.82,-205.89 570.7,-195.69 562.09,-201.87 567.82,-205.89"/>
</g>
<!-- Node19 -->
<g id="node19" class="node">
<title>Node19</title>
<g id="a_node19"><a xlink:href="../../d1/df1/wren__utils_8h.html" target="_top" xlink:title=" ">
<polygon fill="white" stroke="black" points="434,-116.5 434,-137.5 511,-137.5 511,-116.5 434,-116.5"/>
<text text-anchor="middle" x="472.5" y="-123.9" font-family="Helvetica,sans-Serif" font-size="12.00">wren_utils.h</text>
</a>
</g>
</g>
<!-- Node11&#45;&gt;Node19 -->
<g id="edge28" class="edge">
<title>Node11&#45;&gt;Node19</title>
<path fill="none" stroke="midnightblue" d="M496.28,-290.31C494.61,-277.11 491.47,-252.75 488.5,-232 484.29,-202.57 478.97,-168.53 475.65,-147.63"/>
<polygon fill="midnightblue" stroke="midnightblue" points="479.1,-147.06 474.07,-137.74 472.19,-148.17 479.1,-147.06"/>
</g>
<!-- Node20 -->
<g id="node20" class="node">
<title>Node20</title>
<g id="a_node20"><a xlink:href="../../da/dc1/wren__opcodes_8h.html" target="_top" xlink:title=" ">
<polygon fill="white" stroke="black" points="376,-232.5 376,-253.5 479,-253.5 479,-232.5 376,-232.5"/>
<text text-anchor="middle" x="427.5" y="-239.9" font-family="Helvetica,sans-Serif" font-size="12.00">wren_opcodes.h</text>
</a>
</g>
</g>
<!-- Node11&#45;&gt;Node20 -->
<g id="edge29" class="edge">
<title>Node11&#45;&gt;Node20</title>
<path fill="none" stroke="midnightblue" d="M485.31,-290.25C474.87,-281.89 459.63,-269.71 447.43,-259.94"/>
<polygon fill="midnightblue" stroke="midnightblue" points="449.55,-257.16 439.55,-253.64 445.18,-262.62 449.55,-257.16"/>
</g>
<!-- Node13 -->
<g id="node13" class="node">
<title>Node13</title>
<g id="a_node13"><a xlink:href="../../dd/d19/wren_8h.html" target="_top" xlink:title=" ">
<polygon fill="white" stroke="black" points="629.5,-58.5 629.5,-79.5 679.5,-79.5 679.5,-58.5 629.5,-58.5"/>
<text text-anchor="middle" x="654.5" y="-65.9" font-family="Helvetica,sans-Serif" font-size="12.00">wren.h</text>
</a>
</g>
</g>
<!-- Node12&#45;&gt;Node13 -->
<g id="edge13" class="edge">
<title>Node12&#45;&gt;Node13</title>
<path fill="none" stroke="midnightblue" d="M630.13,-232.39C640.23,-214.53 661.06,-174.7 668.5,-138 671.83,-121.6 667.42,-102.98 662.7,-89.38"/>
<polygon fill="midnightblue" stroke="midnightblue" points="665.83,-87.76 658.98,-79.68 659.29,-90.27 665.83,-87.76"/>
</g>
<!-- Node12&#45;&gt;Node17 -->
<g id="edge17" class="edge">
<title>Node12&#45;&gt;Node17</title>
<path fill="none" stroke="midnightblue" d="M616.31,-232.25C609.64,-224.3 600.05,-212.87 592.07,-203.37"/>
<polygon fill="midnightblue" stroke="midnightblue" points="594.7,-201.05 585.59,-195.64 589.34,-205.55 594.7,-201.05"/>
</g>
<!-- Node14 -->
<g id="node14" class="node">
<title>Node14</title>
<g id="a_node14"><a xlink:title=" ">
<polygon fill="white" stroke="#bfbfbf" points="699,-0.5 699,-21.5 758,-21.5 758,-0.5 699,-0.5"/>
<text text-anchor="middle" x="728.5" y="-7.9" font-family="Helvetica,sans-Serif" font-size="12.00">stdarg.h</text>
</a>
</g>
</g>
<!-- Node13&#45;&gt;Node14 -->
<g id="edge14" class="edge">
<title>Node13&#45;&gt;Node14</title>
<path fill="none" stroke="midnightblue" d="M667.39,-58.25C678.43,-49.89 694.53,-37.71 707.44,-27.94"/>
<polygon fill="midnightblue" stroke="midnightblue" points="709.9,-30.47 715.76,-21.64 705.67,-24.89 709.9,-30.47"/>
</g>
<!-- Node15 -->
<g id="node15" class="node">
<title>Node15</title>
<g id="a_node15"><a xlink:title=" ">
<polygon fill="white" stroke="#bfbfbf" points="628,-0.5 628,-21.5 681,-21.5 681,-0.5 628,-0.5"/>
<text text-anchor="middle" x="654.5" y="-7.9" font-family="Helvetica,sans-Serif" font-size="12.00">stdlib.h</text>
</a>
</g>
</g>
<!-- Node13&#45;&gt;Node15 -->
<g id="edge15" class="edge">
<title>Node13&#45;&gt;Node15</title>
<path fill="none" stroke="midnightblue" d="M654.5,-58.25C654.5,-50.94 654.5,-40.69 654.5,-31.7"/>
<polygon fill="midnightblue" stroke="midnightblue" points="658,-31.64 654.5,-21.64 651,-31.64 658,-31.64"/>
</g>
<!-- Node16 -->
<g id="node16" class="node">
<title>Node16</title>
<g id="a_node16"><a xlink:title=" ">
<polygon fill="white" stroke="#bfbfbf" points="545.5,-0.5 545.5,-21.5 609.5,-21.5 609.5,-0.5 545.5,-0.5"/>
<text text-anchor="middle" x="577.5" y="-7.9" font-family="Helvetica,sans-Serif" font-size="12.00">stdbool.h</text>
</a>
</g>
</g>
<!-- Node13&#45;&gt;Node16 -->
<g id="edge16" class="edge">
<title>Node13&#45;&gt;Node16</title>
<path fill="none" stroke="midnightblue" d="M641.09,-58.25C629.49,-49.81 612.53,-37.47 599.03,-27.66"/>
<polygon fill="midnightblue" stroke="midnightblue" points="600.9,-24.69 590.76,-21.64 596.79,-30.36 600.9,-24.69"/>
</g>
<!-- Node17&#45;&gt;Node6 -->
<g id="edge19" class="edge">
<title>Node17&#45;&gt;Node6</title>
<path fill="none" stroke="midnightblue" d="M587.08,-174.25C595.05,-166.14 606.56,-154.41 616.01,-144.79"/>
<polygon fill="midnightblue" stroke="midnightblue" points="618.52,-147.23 623.03,-137.64 613.53,-142.32 618.52,-147.23"/>
</g>
<!-- Node17&#45;&gt;Node8 -->
<g id="edge20" class="edge">
<title>Node17&#45;&gt;Node8</title>
<path fill="none" stroke="midnightblue" d="M571.87,-174.05C562.93,-159.15 544.07,-131.19 520.5,-116 489.35,-95.92 449.43,-84.49 416.66,-78.05"/>
<polygon fill="midnightblue" stroke="midnightblue" points="417.21,-74.59 406.74,-76.2 415.93,-81.47 417.21,-74.59"/>
</g>
<!-- Node17&#45;&gt;Node16 -->
<g id="edge18" class="edge">
<title>Node17&#45;&gt;Node16</title>
<path fill="none" stroke="midnightblue" d="M577.5,-174.26C577.5,-146.82 577.5,-68.51 577.5,-31.64"/>
<polygon fill="midnightblue" stroke="midnightblue" points="581,-31.63 577.5,-21.63 574,-31.63 581,-31.63"/>
</g>
<!-- Node17&#45;&gt;Node18 -->
<g id="edge21" class="edge">
<title>Node17&#45;&gt;Node18</title>
<path fill="none" stroke="midnightblue" d="M535.37,-176.85C475.09,-166.62 364.32,-147.82 299.17,-136.77"/>
<polygon fill="midnightblue" stroke="midnightblue" points="299.56,-133.29 289.12,-135.06 298.39,-140.19 299.56,-133.29"/>
</g>
<!-- Node17&#45;&gt;Node19 -->
<g id="edge24" class="edge">
<title>Node17&#45;&gt;Node19</title>
<path fill="none" stroke="midnightblue" d="M559.21,-174.25C542.72,-165.45 518.26,-152.41 499.52,-142.41"/>
<polygon fill="midnightblue" stroke="midnightblue" points="501.05,-139.26 490.58,-137.64 497.76,-145.44 501.05,-139.26"/>
</g>
<!-- Node18&#45;&gt;Node5 -->
<g id="edge22" class="edge">
<title>Node18&#45;&gt;Node5</title>
<path fill="none" stroke="midnightblue" d="M237.4,-116.25C229,-108.14 216.85,-96.41 206.89,-86.79"/>
<polygon fill="midnightblue" stroke="midnightblue" points="209.11,-84.07 199.49,-79.64 204.25,-89.11 209.11,-84.07"/>
</g>
<!-- Node18&#45;&gt;Node9 -->
<g id="edge23" class="edge">
<title>Node18&#45;&gt;Node9</title>
<path fill="none" stroke="midnightblue" d="M252.87,-116.28C263.33,-97.35 286.6,-55.25 300.15,-30.72"/>
<polygon fill="midnightblue" stroke="midnightblue" points="303.37,-32.14 305.14,-21.69 297.24,-28.75 303.37,-32.14"/>
</g>
<!-- Node19&#45;&gt;Node8 -->
<g id="edge26" class="edge">
<title>Node19&#45;&gt;Node8</title>
<path fill="none" stroke="midnightblue" d="M452.39,-116.37C433.69,-107.42 405.63,-93.99 384.51,-83.88"/>
<polygon fill="midnightblue" stroke="midnightblue" points="385.88,-80.66 375.35,-79.5 382.86,-86.98 385.88,-80.66"/>
</g>
<!-- Node19&#45;&gt;Node13 -->
<g id="edge25" class="edge">
<title>Node19&#45;&gt;Node13</title>
<path fill="none" stroke="midnightblue" d="M503.79,-116.37C536.02,-106.45 586.16,-91.03 619.65,-80.72"/>
<polygon fill="midnightblue" stroke="midnightblue" points="620.94,-83.99 629.47,-77.7 618.88,-77.3 620.94,-83.99"/>
</g>
<!-- Node21&#45;&gt;Node11 -->
<g id="edge32" class="edge">
<title>Node21&#45;&gt;Node11</title>
<path fill="none" stroke="midnightblue" d="M407.49,-348.25C424.68,-339.41 450.22,-326.29 469.71,-316.28"/>
<polygon fill="midnightblue" stroke="midnightblue" points="471.44,-319.33 478.73,-311.64 468.24,-313.1 471.44,-319.33"/>
</g>
</g>
</svg>
