<?xml version="1.0" encoding="UTF-8" standalone="no"?>
<!DOCTYPE svg PUBLIC "-//W3C//DTD SVG 1.1//EN"
 "http://www.w3.org/Graphics/SVG/1.1/DTD/svg11.dtd">
<!-- Generated by graphviz version 2.47.3 (20210619.1520)
 -->
<!-- Title: D:/brian/Dev/Eris/ERISCore/src/main.cpp Pages: 1 -->
<!--zoomable 449 -->
<svg id="main" version="1.1" xmlns="http://www.w3.org/2000/svg" xmlns:xlink="http://www.w3.org/1999/xlink" xml:space="preserve" onload="init(evt)">
<style type="text/css"><![CDATA[
.edge:hover path { stroke: red; }
.edge:hover polygon { stroke: red; fill: red; }
]]></style>
<script type="text/javascript"><![CDATA[
var edges = document.getElementsByTagName('g');
if (edges && edges.length) {
  for (var i=0;i<edges.length;i++) {
    if (edges[i].id.substr(0,4)=='edge') {
      edges[i].setAttribute('class','edge');
    }
  }
}
]]></script>
        <defs>
                <circle id="rim" cx="0" cy="0" r="7"/>
                <circle id="rim2" cx="0" cy="0" r="3.5"/>
                <g id="zoomPlus">
                        <use xlink:href="#rim" fill="#404040">
                                <set attributeName="fill" to="#808080" begin="zoomplus.mouseover" end="zoomplus.mouseout"/>
                        </use>
                        <path d="M-4,0h8M0,-4v8" fill="none" stroke="white" stroke-width="1.5" pointer-events="none"/>
                </g>
                <g id="zoomMin">
                        <use xlink:href="#rim" fill="#404040">
                                <set attributeName="fill" to="#808080" begin="zoomminus.mouseover" end="zoomminus.mouseout"/>
                        </use>
                        <path d="M-4,0h8" fill="none" stroke="white" stroke-width="1.5" pointer-events="none"/>
                </g>
                <g id="dirArrow">
                        <path fill="none" stroke="white" stroke-width="1.5" d="M0,-3.0v7 M-2.5,-0.5L0,-3.0L2.5,-0.5"/>
                </g>
               <g id="resetDef">
                       <use xlink:href="#rim2" fill="#404040">
                               <set attributeName="fill" to="#808080" begin="reset.mouseover" end="reset.mouseout"/>
                       </use>
               </g>
        </defs>

<script type="text/javascript">
var viewWidth = 1320;
var viewHeight = 449;
var sectionId = 'dynsection-0';
</script>
<script xlink:href="../../svgpan.js"/>
<svg id="graph" class="graph">
<g id="viewport">
<title>D:/brian/Dev/Eris/ERISCore/src/main.cpp</title>
<polygon fill="white" stroke="transparent" points="-4,4 -4,-445 1316.44,-445 1316.44,4 -4,4"/>
<!-- Node1 -->
<g id="node1" class="node">
<title>Node1</title>
<g id="a_node1"><a xlink:title=" ">
<polygon fill="#bfbfbf" stroke="black" points="807.5,-406.5 807.5,-440.5 969.5,-440.5 969.5,-406.5 807.5,-406.5"/>
<text text-anchor="start" x="815.5" y="-426.9" font-family="Helvetica,sans-Serif" font-size="12.00">D:/brian/Dev/Eris/ERISCore</text>
<text text-anchor="middle" x="888.5" y="-413.9" font-family="Helvetica,sans-Serif" font-size="12.00">/src/main.cpp</text>
</a>
</g>
</g>
<!-- Node2 -->
<g id="node2" class="node">
<title>Node2</title>
<g id="a_node2"><a xlink:title=" ">
<polygon fill="white" stroke="#bfbfbf" points="1053.5,-58.5 1053.5,-79.5 1119.5,-79.5 1119.5,-58.5 1053.5,-58.5"/>
<text text-anchor="middle" x="1086.5" y="-65.9" font-family="Helvetica,sans-Serif" font-size="12.00">Arduino.h</text>
</a>
</g>
</g>
<!-- Node1&#45;&gt;Node2 -->
<g id="edge1" class="edge">
<title>Node1&#45;&gt;Node2</title>
<path fill="none" stroke="midnightblue" d="M969.56,-415.99C1092.38,-403.85 1311.5,-372.35 1311.5,-302 1311.5,-302 1311.5,-302 1311.5,-184 1311.5,-152.62 1315.27,-137.6 1292.5,-116 1269.44,-94.13 1183.08,-80.78 1129.77,-74.44"/>
<polygon fill="midnightblue" stroke="midnightblue" points="1129.91,-70.94 1119.57,-73.27 1129.11,-77.89 1129.91,-70.94"/>
</g>
<!-- Node3 -->
<g id="node3" class="node">
<title>Node3</title>
<g id="a_node3"><a xlink:title=" ">
<polygon fill="white" stroke="#bfbfbf" points="0,-116.5 0,-137.5 121,-137.5 121,-116.5 0,-116.5"/>
<text text-anchor="middle" x="60.5" y="-123.9" font-family="Helvetica,sans-Serif" font-size="12.00">SdCard/SdioCard.h</text>
</a>
</g>
</g>
<!-- Node1&#45;&gt;Node3 -->
<g id="edge2" class="edge">
<title>Node1&#45;&gt;Node3</title>
<path fill="none" stroke="midnightblue" d="M807.42,-422.85C689.45,-421.72 464.31,-413.35 278.5,-370 197.64,-351.14 104.5,-385.03 104.5,-302 104.5,-302 104.5,-302 104.5,-242 104.5,-206.15 85.33,-167.95 72.29,-146.13"/>
<polygon fill="midnightblue" stroke="midnightblue" points="75.24,-144.23 66.99,-137.58 69.29,-147.92 75.24,-144.23"/>
</g>
<!-- Node4 -->
<g id="node4" class="node">
<title>Node4</title>
<g id="a_node4"><a xlink:title=" ">
<polygon fill="white" stroke="#bfbfbf" points="139.5,-116.5 139.5,-137.5 231.5,-137.5 231.5,-116.5 139.5,-116.5"/>
<text text-anchor="middle" x="185.5" y="-123.9" font-family="Helvetica,sans-Serif" font-size="12.00">SdFatConfig.h</text>
</a>
</g>
</g>
<!-- Node1&#45;&gt;Node4 -->
<g id="edge3" class="edge">
<title>Node1&#45;&gt;Node4</title>
<path fill="none" stroke="midnightblue" d="M807.42,-416.77C624.69,-402.76 196.5,-363.39 196.5,-302 196.5,-302 196.5,-302 196.5,-242 196.5,-208.83 191.83,-170.48 188.57,-147.79"/>
<polygon fill="midnightblue" stroke="midnightblue" points="192.01,-147.1 187.08,-137.73 185.09,-148.14 192.01,-147.1"/>
</g>
<!-- Node5 -->
<g id="node5" class="node">
<title>Node5</title>
<g id="a_node5"><a xlink:title=" ">
<polygon fill="white" stroke="#bfbfbf" points="354,-116.5 354,-137.5 439,-137.5 439,-116.5 354,-116.5"/>
<text text-anchor="middle" x="396.5" y="-123.9" font-family="Helvetica,sans-Serif" font-size="12.00">SdFat&#45;beta.h</text>
</a>
</g>
</g>
<!-- Node1&#45;&gt;Node5 -->
<g id="edge4" class="edge">
<title>Node1&#45;&gt;Node5</title>
<path fill="none" stroke="midnightblue" d="M807.38,-418.89C669.81,-410.54 405.5,-383.83 405.5,-302 405.5,-302 405.5,-302 405.5,-242 405.5,-208.88 401.68,-170.52 399.02,-147.81"/>
<polygon fill="midnightblue" stroke="midnightblue" points="402.47,-147.24 397.79,-137.74 395.52,-148.09 402.47,-147.24"/>
</g>
<!-- Node6 -->
<g id="node6" class="node">
<title>Node6</title>
<g id="a_node6"><a xlink:href="../../de/d10/_h_s_i_8h.html" target="_top" xlink:title=" ">
<polygon fill="white" stroke="black" points="1133.5,-116.5 1133.5,-137.5 1177.5,-137.5 1177.5,-116.5 1133.5,-116.5"/>
<text text-anchor="middle" x="1155.5" y="-123.9" font-family="Helvetica,sans-Serif" font-size="12.00">HSI.h</text>
</a>
</g>
</g>
<!-- Node1&#45;&gt;Node6 -->
<g id="edge5" class="edge">
<title>Node1&#45;&gt;Node6</title>
<path fill="none" stroke="midnightblue" d="M969.8,-415.9C1038.45,-408.7 1129.73,-394.73 1156.5,-370 1179.55,-348.7 1175.5,-333.38 1175.5,-302 1175.5,-302 1175.5,-302 1175.5,-242 1175.5,-208.33 1166.93,-169.89 1161.01,-147.35"/>
<polygon fill="midnightblue" stroke="midnightblue" points="1164.37,-146.39 1158.37,-137.66 1157.62,-148.23 1164.37,-146.39"/>
</g>
<!-- Node7 -->
<g id="node7" class="node">
<title>Node7</title>
<g id="a_node7"><a xlink:title=" ">
<polygon fill="white" stroke="#bfbfbf" points="866.5,-348.5 866.5,-369.5 910.5,-369.5 910.5,-348.5 866.5,-348.5"/>
<text text-anchor="middle" x="888.5" y="-355.9" font-family="Helvetica,sans-Serif" font-size="12.00">SPI.h</text>
</a>
</g>
</g>
<!-- Node1&#45;&gt;Node7 -->
<g id="edge6" class="edge">
<title>Node1&#45;&gt;Node7</title>
<path fill="none" stroke="midnightblue" d="M888.5,-406.4C888.5,-398.36 888.5,-388.54 888.5,-380.01"/>
<polygon fill="midnightblue" stroke="midnightblue" points="892,-379.8 888.5,-369.8 885,-379.8 892,-379.8"/>
</g>
<!-- Node8 -->
<g id="node8" class="node">
<title>Node8</title>
<g id="a_node8"><a xlink:href="../../d3/d0e/app_template_8h.html" target="_top" xlink:title=" ">
<polygon fill="white" stroke="black" points="929,-348.5 929,-369.5 1024,-369.5 1024,-348.5 929,-348.5"/>
<text text-anchor="middle" x="976.5" y="-355.9" font-family="Helvetica,sans-Serif" font-size="12.00">appTemplate.h</text>
</a>
</g>
</g>
<!-- Node1&#45;&gt;Node8 -->
<g id="edge7" class="edge">
<title>Node1&#45;&gt;Node8</title>
<path fill="none" stroke="midnightblue" d="M911.16,-406.4C924.49,-396.94 941.25,-385.03 954.47,-375.65"/>
<polygon fill="midnightblue" stroke="midnightblue" points="956.83,-378.26 962.96,-369.62 952.78,-372.55 956.83,-378.26"/>
</g>
<!-- Node28 -->
<g id="node28" class="node">
<title>Node28</title>
<g id="a_node28"><a xlink:href="../../d2/d6c/app_example_8h.html" target="_top" xlink:title="Application Example.">
<polygon fill="white" stroke="black" points="562.5,-348.5 562.5,-369.5 654.5,-369.5 654.5,-348.5 562.5,-348.5"/>
<text text-anchor="middle" x="608.5" y="-355.9" font-family="Helvetica,sans-Serif" font-size="12.00">appExample.h</text>
</a>
</g>
</g>
<!-- Node1&#45;&gt;Node28 -->
<g id="edge39" class="edge">
<title>Node1&#45;&gt;Node28</title>
<path fill="none" stroke="midnightblue" d="M816.76,-406.49C768.2,-395.65 705.15,-381.57 661.2,-371.76"/>
<polygon fill="midnightblue" stroke="midnightblue" points="661.81,-368.31 651.29,-369.55 660.29,-375.15 661.81,-368.31"/>
</g>
<!-- Node34 -->
<g id="node34" class="node">
<title>Node34</title>
<g id="a_node34"><a xlink:href="../../dd/d93/app_reprogram_8h.html" target="_top" xlink:title=" ">
<polygon fill="white" stroke="black" points="1042,-348.5 1042,-369.5 1147,-369.5 1147,-348.5 1042,-348.5"/>
<text text-anchor="middle" x="1094.5" y="-355.9" font-family="Helvetica,sans-Serif" font-size="12.00">appReprogram.h</text>
</a>
</g>
</g>
<!-- Node1&#45;&gt;Node34 -->
<g id="edge51" class="edge">
<title>Node1&#45;&gt;Node34</title>
<path fill="none" stroke="midnightblue" d="M941.28,-406.49C976.03,-395.94 1020.86,-382.34 1053.05,-372.58"/>
<polygon fill="midnightblue" stroke="midnightblue" points="1054.47,-375.8 1063.02,-369.55 1052.43,-369.11 1054.47,-375.8"/>
</g>
<!-- Node36 -->
<g id="node36" class="node">
<title>Node36</title>
<g id="a_node36"><a xlink:href="../../db/d6b/app_serial_command_interface_8h.html" target="_top" xlink:title=" ">
<polygon fill="white" stroke="black" points="672.5,-348.5 672.5,-369.5 848.5,-369.5 848.5,-348.5 672.5,-348.5"/>
<text text-anchor="middle" x="760.5" y="-355.9" font-family="Helvetica,sans-Serif" font-size="12.00">appSerialCommandInterface.h</text>
</a>
</g>
</g>
<!-- Node1&#45;&gt;Node36 -->
<g id="edge54" class="edge">
<title>Node1&#45;&gt;Node36</title>
<path fill="none" stroke="midnightblue" d="M855.54,-406.4C835.04,-396.4 808.94,-383.65 789.28,-374.05"/>
<polygon fill="midnightblue" stroke="midnightblue" points="790.72,-370.86 780.2,-369.62 787.65,-377.15 790.72,-370.86"/>
</g>
<!-- Node37 -->
<g id="node37" class="node">
<title>Node37</title>
<g id="a_node37"><a xlink:href="../../dc/d47/_p_c_m1863_8h.html" target="_top" xlink:title=" ">
<polygon fill="white" stroke="black" points="1203.5,-174.5 1203.5,-195.5 1283.5,-195.5 1283.5,-174.5 1203.5,-174.5"/>
<text text-anchor="middle" x="1243.5" y="-181.9" font-family="Helvetica,sans-Serif" font-size="12.00">PCM1863.h</text>
</a>
</g>
</g>
<!-- Node1&#45;&gt;Node37 -->
<g id="edge56" class="edge">
<title>Node1&#45;&gt;Node37</title>
<path fill="none" stroke="midnightblue" d="M969.66,-417.87C1047.5,-411.79 1157.75,-398.36 1189.5,-370 1237.43,-327.19 1243.78,-244.33 1244.01,-206.15"/>
<polygon fill="midnightblue" stroke="midnightblue" points="1247.5,-205.8 1243.92,-195.83 1240.5,-205.86 1247.5,-205.8"/>
</g>
<!-- Node9 -->
<g id="node9" class="node">
<title>Node9</title>
<g id="a_node9"><a xlink:href="../../df/d72/_app_manager_8h.html" target="_top" xlink:title=" ">
<polygon fill="white" stroke="black" points="835.5,-232.5 835.5,-253.5 929.5,-253.5 929.5,-232.5 835.5,-232.5"/>
<text text-anchor="middle" x="882.5" y="-239.9" font-family="Helvetica,sans-Serif" font-size="12.00">AppManager.h</text>
</a>
</g>
</g>
<!-- Node8&#45;&gt;Node9 -->
<g id="edge8" class="edge">
<title>Node8&#45;&gt;Node9</title>
<path fill="none" stroke="midnightblue" d="M975.08,-348.27C972.61,-334.15 966.39,-307.74 952.5,-290 942.16,-276.79 926.92,-266.14 913.3,-258.43"/>
<polygon fill="midnightblue" stroke="midnightblue" points="914.68,-255.2 904.21,-253.57 911.37,-261.37 914.68,-255.2"/>
</g>
<!-- Node9&#45;&gt;Node2 -->
<g id="edge9" class="edge">
<title>Node9&#45;&gt;Node2</title>
<path fill="none" stroke="midnightblue" d="M904.83,-232.45C939.21,-216.86 1005.61,-183.1 1048.5,-138 1062,-123.81 1072.39,-103.91 1078.86,-89.3"/>
<polygon fill="midnightblue" stroke="midnightblue" points="1082.23,-90.33 1082.88,-79.76 1075.77,-87.62 1082.23,-90.33"/>
</g>
<!-- Node9&#45;&gt;Node6 -->
<g id="edge10" class="edge">
<title>Node9&#45;&gt;Node6</title>
<path fill="none" stroke="midnightblue" d="M929.58,-237.58C989.57,-231.16 1089.04,-217.59 1118.5,-196 1134.71,-184.12 1144.6,-162.93 1150.03,-147.35"/>
<polygon fill="midnightblue" stroke="midnightblue" points="1153.42,-148.23 1153.1,-137.64 1146.75,-146.12 1153.42,-148.23"/>
</g>
<!-- Node10 -->
<g id="node10" class="node">
<title>Node10</title>
<g id="a_node10"><a xlink:href="../../d1/d4e/touch_8h.html" target="_top" xlink:title=" ">
<polygon fill="white" stroke="black" points="873,-174.5 873,-195.5 926,-195.5 926,-174.5 873,-174.5"/>
<text text-anchor="middle" x="899.5" y="-181.9" font-family="Helvetica,sans-Serif" font-size="12.00">touch.h</text>
</a>
</g>
</g>
<!-- Node9&#45;&gt;Node10 -->
<g id="edge11" class="edge">
<title>Node9&#45;&gt;Node10</title>
<path fill="none" stroke="midnightblue" d="M885.46,-232.25C887.7,-224.86 890.86,-214.47 893.61,-205.41"/>
<polygon fill="midnightblue" stroke="midnightblue" points="897.02,-206.23 896.57,-195.64 890.32,-204.19 897.02,-206.23"/>
</g>
<!-- Node12 -->
<g id="node12" class="node">
<title>Node12</title>
<g id="a_node12"><a xlink:href="../../d3/ddb/_analog_inputs_8h.html" target="_top" xlink:title=" ">
<polygon fill="white" stroke="black" points="1017.5,-174.5 1017.5,-195.5 1109.5,-195.5 1109.5,-174.5 1017.5,-174.5"/>
<text text-anchor="middle" x="1063.5" y="-181.9" font-family="Helvetica,sans-Serif" font-size="12.00">AnalogInputs.h</text>
</a>
</g>
</g>
<!-- Node9&#45;&gt;Node12 -->
<g id="edge13" class="edge">
<title>Node9&#45;&gt;Node12</title>
<path fill="none" stroke="midnightblue" d="M913.62,-232.37C943.84,-223.02 989.9,-208.77 1022.97,-198.54"/>
<polygon fill="midnightblue" stroke="midnightblue" points="1024.27,-201.8 1032.79,-195.5 1022.2,-195.11 1024.27,-201.8"/>
</g>
<!-- Node16 -->
<g id="node16" class="node">
<title>Node16</title>
<g id="a_node16"><a xlink:href="../../d2/dda/_i_l_i9341__t3___e_r_i_s_8h.html" target="_top" xlink:title=" ">
<polygon fill="white" stroke="black" points="235.5,-174.5 235.5,-195.5 349.5,-195.5 349.5,-174.5 235.5,-174.5"/>
<text text-anchor="middle" x="292.5" y="-181.9" font-family="Helvetica,sans-Serif" font-size="12.00">ILI9341_t3_ERIS.h</text>
</a>
</g>
</g>
<!-- Node9&#45;&gt;Node16 -->
<g id="edge19" class="edge">
<title>Node9&#45;&gt;Node16</title>
<path fill="none" stroke="midnightblue" d="M835.22,-237.51C730.93,-227.61 480.87,-203.88 360.08,-192.41"/>
<polygon fill="midnightblue" stroke="midnightblue" points="360.14,-188.9 349.85,-191.44 359.48,-195.87 360.14,-188.9"/>
</g>
<!-- Node18 -->
<g id="node18" class="node">
<title>Node18</title>
<g id="a_node18"><a xlink:href="../../db/dc8/_audio_director_8h.html" target="_top" xlink:title=" ">
<polygon fill="white" stroke="black" points="718.5,-174.5 718.5,-195.5 816.5,-195.5 816.5,-174.5 718.5,-174.5"/>
<text text-anchor="middle" x="767.5" y="-181.9" font-family="Helvetica,sans-Serif" font-size="12.00">AudioDirector.h</text>
</a>
</g>
</g>
<!-- Node9&#45;&gt;Node18 -->
<g id="edge24" class="edge">
<title>Node9&#45;&gt;Node18</title>
<path fill="none" stroke="midnightblue" d="M862.73,-232.37C844.35,-223.42 816.77,-209.99 796.01,-199.88"/>
<polygon fill="midnightblue" stroke="midnightblue" points="797.53,-196.73 787.01,-195.5 794.47,-203.03 797.53,-196.73"/>
</g>
<!-- Node11 -->
<g id="node11" class="node">
<title>Node11</title>
<g id="a_node11"><a xlink:title=" ">
<polygon fill="white" stroke="#bfbfbf" points="890,-116.5 890,-137.5 1039,-137.5 1039,-116.5 890,-116.5"/>
<text text-anchor="middle" x="964.5" y="-123.9" font-family="Helvetica,sans-Serif" font-size="12.00">XPT2046_Touchscreen.h</text>
</a>
</g>
</g>
<!-- Node10&#45;&gt;Node11 -->
<g id="edge12" class="edge">
<title>Node10&#45;&gt;Node11</title>
<path fill="none" stroke="midnightblue" d="M910.82,-174.25C920.42,-165.97 934.39,-153.94 945.67,-144.22"/>
<polygon fill="midnightblue" stroke="midnightblue" points="948.02,-146.82 953.31,-137.64 943.45,-141.52 948.02,-146.82"/>
</g>
<!-- Node12&#45;&gt;Node2 -->
<g id="edge14" class="edge">
<title>Node12&#45;&gt;Node2</title>
<path fill="none" stroke="midnightblue" d="M1068.24,-174.4C1072.5,-165.27 1078.54,-151.05 1081.5,-138 1085.1,-122.13 1086.28,-103.69 1086.59,-90.02"/>
<polygon fill="midnightblue" stroke="midnightblue" points="1090.1,-89.85 1086.69,-79.82 1083.1,-89.79 1090.1,-89.85"/>
</g>
<!-- Node12&#45;&gt;Node6 -->
<g id="edge18" class="edge">
<title>Node12&#45;&gt;Node6</title>
<path fill="none" stroke="midnightblue" d="M1079.53,-174.25C1093.64,-165.65 1114.43,-153 1130.69,-143.1"/>
<polygon fill="midnightblue" stroke="midnightblue" points="1132.94,-145.83 1139.66,-137.64 1129.3,-139.85 1132.94,-145.83"/>
</g>
<!-- Node13 -->
<g id="node13" class="node">
<title>Node13</title>
<g id="a_node13"><a xlink:href="../../d2/ded/eris_audio_8h.html" target="_top" xlink:title=" ">
<polygon fill="white" stroke="black" points="795.5,-116.5 795.5,-137.5 871.5,-137.5 871.5,-116.5 795.5,-116.5"/>
<text text-anchor="middle" x="833.5" y="-123.9" font-family="Helvetica,sans-Serif" font-size="12.00">erisAudio.h</text>
</a>
</g>
</g>
<!-- Node12&#45;&gt;Node13 -->
<g id="edge15" class="edge">
<title>Node12&#45;&gt;Node13</title>
<path fill="none" stroke="midnightblue" d="M1024.22,-174.44C984.79,-164.84 923.97,-150.03 881.65,-139.72"/>
<polygon fill="midnightblue" stroke="midnightblue" points="882.39,-136.3 871.85,-137.34 880.74,-143.1 882.39,-136.3"/>
</g>
<!-- Node14 -->
<g id="node14" class="node">
<title>Node14</title>
<g id="a_node14"><a xlink:title=" ">
<polygon fill="white" stroke="#bfbfbf" points="800.5,-58.5 800.5,-79.5 856.5,-79.5 856.5,-58.5 800.5,-58.5"/>
<text text-anchor="middle" x="828.5" y="-65.9" font-family="Helvetica,sans-Serif" font-size="12.00">Audio.h</text>
</a>
</g>
</g>
<!-- Node13&#45;&gt;Node14 -->
<g id="edge16" class="edge">
<title>Node13&#45;&gt;Node14</title>
<path fill="none" stroke="midnightblue" d="M832.63,-116.25C831.98,-108.94 831.06,-98.69 830.26,-89.7"/>
<polygon fill="midnightblue" stroke="midnightblue" points="833.74,-89.29 829.36,-79.64 826.76,-89.91 833.74,-89.29"/>
</g>
<!-- Node15 -->
<g id="node15" class="node">
<title>Node15</title>
<g id="a_node15"><a xlink:title=" ">
<polygon fill="white" stroke="#bfbfbf" points="874.5,-58.5 874.5,-79.5 912.5,-79.5 912.5,-58.5 874.5,-58.5"/>
<text text-anchor="middle" x="893.5" y="-65.9" font-family="Helvetica,sans-Serif" font-size="12.00">new</text>
</a>
</g>
</g>
<!-- Node13&#45;&gt;Node15 -->
<g id="edge17" class="edge">
<title>Node13&#45;&gt;Node15</title>
<path fill="none" stroke="midnightblue" d="M843.95,-116.25C852.73,-108.05 865.46,-96.17 875.81,-86.51"/>
<polygon fill="midnightblue" stroke="midnightblue" points="878.25,-89.02 883.17,-79.64 873.47,-83.91 878.25,-89.02"/>
</g>
<!-- Node16&#45;&gt;Node3 -->
<g id="edge21" class="edge">
<title>Node16&#45;&gt;Node3</title>
<path fill="none" stroke="midnightblue" d="M252.88,-174.44C213.34,-164.89 152.49,-150.21 109.84,-139.91"/>
<polygon fill="midnightblue" stroke="midnightblue" points="110.5,-136.47 99.96,-137.52 108.85,-143.27 110.5,-136.47"/>
</g>
<!-- Node16&#45;&gt;Node4 -->
<g id="edge22" class="edge">
<title>Node16&#45;&gt;Node4</title>
<path fill="none" stroke="midnightblue" d="M273.86,-174.25C257.06,-165.45 232.14,-152.41 213.04,-142.41"/>
<polygon fill="midnightblue" stroke="midnightblue" points="214.41,-139.18 203.92,-137.64 211.16,-145.38 214.41,-139.18"/>
</g>
<!-- Node16&#45;&gt;Node5 -->
<g id="edge23" class="edge">
<title>Node16&#45;&gt;Node5</title>
<path fill="none" stroke="midnightblue" d="M310.62,-174.25C326.95,-165.45 351.17,-152.41 369.73,-142.41"/>
<polygon fill="midnightblue" stroke="midnightblue" points="371.45,-145.47 378.59,-137.64 368.13,-139.3 371.45,-145.47"/>
</g>
<!-- Node17 -->
<g id="node17" class="node">
<title>Node17</title>
<g id="a_node17"><a xlink:title=" ">
<polygon fill="white" stroke="#bfbfbf" points="249.5,-116.5 249.5,-137.5 335.5,-137.5 335.5,-116.5 249.5,-116.5"/>
<text text-anchor="middle" x="292.5" y="-123.9" font-family="Helvetica,sans-Serif" font-size="12.00">ILI9341_t3n.h</text>
</a>
</g>
</g>
<!-- Node16&#45;&gt;Node17 -->
<g id="edge20" class="edge">
<title>Node16&#45;&gt;Node17</title>
<path fill="none" stroke="midnightblue" d="M292.5,-174.25C292.5,-166.94 292.5,-156.69 292.5,-147.7"/>
<polygon fill="midnightblue" stroke="midnightblue" points="296,-147.64 292.5,-137.64 289,-147.64 296,-147.64"/>
</g>
<!-- Node18&#45;&gt;Node13 -->
<g id="edge26" class="edge">
<title>Node18&#45;&gt;Node13</title>
<path fill="none" stroke="midnightblue" d="M779,-174.25C788.74,-165.97 802.93,-153.94 814.38,-144.22"/>
<polygon fill="midnightblue" stroke="midnightblue" points="816.77,-146.78 822.14,-137.64 812.25,-141.44 816.77,-146.78"/>
</g>
<!-- Node19 -->
<g id="node19" class="node">
<title>Node19</title>
<g id="a_node19"><a xlink:title=" ">
<polygon fill="white" stroke="#bfbfbf" points="737.5,-0.5 737.5,-21.5 791.5,-21.5 791.5,-0.5 737.5,-0.5"/>
<text text-anchor="middle" x="764.5" y="-7.9" font-family="Helvetica,sans-Serif" font-size="12.00">string.h</text>
</a>
</g>
</g>
<!-- Node18&#45;&gt;Node19 -->
<g id="edge25" class="edge">
<title>Node18&#45;&gt;Node19</title>
<path fill="none" stroke="midnightblue" d="M767.33,-174.26C766.85,-146.82 765.49,-68.51 764.84,-31.64"/>
<polygon fill="midnightblue" stroke="midnightblue" points="768.34,-31.57 764.67,-21.63 761.34,-31.69 768.34,-31.57"/>
</g>
<!-- Node20 -->
<g id="node20" class="node">
<title>Node20</title>
<g id="a_node20"><a xlink:href="../../d4/dfc/eris__analyze__fft1024_8h.html" target="_top" xlink:title=" ">
<polygon fill="white" stroke="black" points="457.5,-116.5 457.5,-137.5 591.5,-137.5 591.5,-116.5 457.5,-116.5"/>
<text text-anchor="middle" x="524.5" y="-123.9" font-family="Helvetica,sans-Serif" font-size="12.00">eris_analyze_fft1024.h</text>
</a>
</g>
</g>
<!-- Node18&#45;&gt;Node20 -->
<g id="edge27" class="edge">
<title>Node18&#45;&gt;Node20</title>
<path fill="none" stroke="midnightblue" d="M726,-174.44C684.42,-164.85 620.32,-150.08 575.62,-139.78"/>
<polygon fill="midnightblue" stroke="midnightblue" points="576.36,-136.36 565.83,-137.52 574.78,-143.18 576.36,-136.36"/>
</g>
<!-- Node27 -->
<g id="node27" class="node">
<title>Node27</title>
<g id="a_node27"><a xlink:href="../../d8/dc5/eris__analyze__scope_8h.html" target="_top" xlink:title=" ">
<polygon fill="white" stroke="black" points="609.5,-116.5 609.5,-137.5 739.5,-137.5 739.5,-116.5 609.5,-116.5"/>
<text text-anchor="middle" x="674.5" y="-123.9" font-family="Helvetica,sans-Serif" font-size="12.00">eris_analyze_scope.h</text>
</a>
</g>
</g>
<!-- Node18&#45;&gt;Node27 -->
<g id="edge36" class="edge">
<title>Node18&#45;&gt;Node27</title>
<path fill="none" stroke="midnightblue" d="M751.3,-174.25C736.9,-165.57 715.63,-152.76 699.12,-142.82"/>
<polygon fill="midnightblue" stroke="midnightblue" points="700.89,-139.8 690.51,-137.64 697.28,-145.8 700.89,-139.8"/>
</g>
<!-- Node20&#45;&gt;Node2 -->
<g id="edge28" class="edge">
<title>Node20&#45;&gt;Node2</title>
<path fill="none" stroke="midnightblue" d="M591.62,-117.03C594.62,-116.68 597.59,-116.33 600.5,-116 763.8,-97.53 958.56,-80.65 1043.42,-73.55"/>
<polygon fill="midnightblue" stroke="midnightblue" points="1043.78,-77.03 1053.46,-72.71 1043.2,-70.05 1043.78,-77.03"/>
</g>
<!-- Node21 -->
<g id="node21" class="node">
<title>Node21</title>
<g id="a_node21"><a xlink:href="../../df/d6c/_audio_stream_8h.html" target="_top" xlink:title=" ">
<polygon fill="white" stroke="black" points="644,-58.5 644,-79.5 739,-79.5 739,-58.5 644,-58.5"/>
<text text-anchor="middle" x="691.5" y="-65.9" font-family="Helvetica,sans-Serif" font-size="12.00">AudioStream.h</text>
</a>
</g>
</g>
<!-- Node20&#45;&gt;Node21 -->
<g id="edge29" class="edge">
<title>Node20&#45;&gt;Node21</title>
<path fill="none" stroke="midnightblue" d="M553.21,-116.37C580.86,-107.1 622.86,-93.02 653.32,-82.8"/>
<polygon fill="midnightblue" stroke="midnightblue" points="654.8,-86 663.17,-79.5 652.57,-79.36 654.8,-86"/>
</g>
<!-- Node23 -->
<g id="node23" class="node">
<title>Node23</title>
<g id="a_node23"><a xlink:title=" ">
<polygon fill="white" stroke="#bfbfbf" points="208.5,-58.5 208.5,-79.5 286.5,-79.5 286.5,-58.5 208.5,-58.5"/>
<text text-anchor="middle" x="247.5" y="-65.9" font-family="Helvetica,sans-Serif" font-size="12.00">arm_math.h</text>
</a>
</g>
</g>
<!-- Node20&#45;&gt;Node23 -->
<g id="edge32" class="edge">
<title>Node20&#45;&gt;Node23</title>
<path fill="none" stroke="midnightblue" d="M476.67,-116.5C432.5,-107.7 364.79,-94.15 296.59,-80.21"/>
<polygon fill="midnightblue" stroke="midnightblue" points="297.03,-76.73 286.53,-78.16 295.62,-83.59 297.03,-76.73"/>
</g>
<!-- Node24 -->
<g id="node24" class="node">
<title>Node24</title>
<g id="a_node24"><a xlink:title=" ">
<polygon fill="white" stroke="#bfbfbf" points="305,-58.5 305,-79.5 412,-79.5 412,-58.5 305,-58.5"/>
<text text-anchor="middle" x="358.5" y="-65.9" font-family="Helvetica,sans-Serif" font-size="12.00">analyze_fft1024.h</text>
</a>
</g>
</g>
<!-- Node20&#45;&gt;Node24 -->
<g id="edge33" class="edge">
<title>Node20&#45;&gt;Node24</title>
<path fill="none" stroke="midnightblue" d="M495.96,-116.37C468.48,-107.1 426.73,-93.02 396.45,-82.8"/>
<polygon fill="midnightblue" stroke="midnightblue" points="397.26,-79.38 386.66,-79.5 395.02,-86.01 397.26,-79.38"/>
</g>
<!-- Node25 -->
<g id="node25" class="node">
<title>Node25</title>
<g id="a_node25"><a xlink:title=" ">
<polygon fill="white" stroke="#bfbfbf" points="430,-58.5 430,-79.5 483,-79.5 483,-58.5 430,-58.5"/>
<text text-anchor="middle" x="456.5" y="-65.9" font-family="Helvetica,sans-Serif" font-size="12.00">stdlib.h</text>
</a>
</g>
</g>
<!-- Node20&#45;&gt;Node25 -->
<g id="edge34" class="edge">
<title>Node20&#45;&gt;Node25</title>
<path fill="none" stroke="midnightblue" d="M512.66,-116.25C502.61,-107.97 488,-95.94 476.2,-86.22"/>
<polygon fill="midnightblue" stroke="midnightblue" points="478.15,-83.3 468.21,-79.64 473.7,-88.7 478.15,-83.3"/>
</g>
<!-- Node26 -->
<g id="node26" class="node">
<title>Node26</title>
<g id="a_node26"><a xlink:href="../../da/d3d/data__windows__f32_8h.html" target="_top" xlink:title=" ">
<polygon fill="white" stroke="black" points="501.5,-58.5 501.5,-79.5 625.5,-79.5 625.5,-58.5 501.5,-58.5"/>
<text text-anchor="middle" x="563.5" y="-65.9" font-family="Helvetica,sans-Serif" font-size="12.00">data_windows_f32.h</text>
</a>
</g>
</g>
<!-- Node20&#45;&gt;Node26 -->
<g id="edge35" class="edge">
<title>Node20&#45;&gt;Node26</title>
<path fill="none" stroke="midnightblue" d="M531.29,-116.25C536.72,-108.46 544.47,-97.33 551,-87.94"/>
<polygon fill="midnightblue" stroke="midnightblue" points="553.94,-89.85 556.78,-79.64 548.2,-85.85 553.94,-89.85"/>
</g>
<!-- Node21&#45;&gt;Node19 -->
<g id="edge31" class="edge">
<title>Node21&#45;&gt;Node19</title>
<path fill="none" stroke="midnightblue" d="M704.22,-58.25C715.1,-49.89 730.99,-37.71 743.72,-27.94"/>
<polygon fill="midnightblue" stroke="midnightblue" points="746.13,-30.51 751.93,-21.64 741.87,-24.95 746.13,-30.51"/>
</g>
<!-- Node22 -->
<g id="node22" class="node">
<title>Node22</title>
<g id="a_node22"><a xlink:title=" ">
<polygon fill="white" stroke="#bfbfbf" points="666,-0.5 666,-21.5 717,-21.5 717,-0.5 666,-0.5"/>
<text text-anchor="middle" x="691.5" y="-7.9" font-family="Helvetica,sans-Serif" font-size="12.00">stdio.h</text>
</a>
</g>
</g>
<!-- Node21&#45;&gt;Node22 -->
<g id="edge30" class="edge">
<title>Node21&#45;&gt;Node22</title>
<path fill="none" stroke="midnightblue" d="M691.5,-58.25C691.5,-50.94 691.5,-40.69 691.5,-31.7"/>
<polygon fill="midnightblue" stroke="midnightblue" points="695,-31.64 691.5,-21.64 688,-31.64 695,-31.64"/>
</g>
<!-- Node27&#45;&gt;Node2 -->
<g id="edge37" class="edge">
<title>Node27&#45;&gt;Node2</title>
<path fill="none" stroke="midnightblue" d="M739.78,-117.13C824.77,-105.57 970.98,-85.7 1043.34,-75.87"/>
<polygon fill="midnightblue" stroke="midnightblue" points="1044.03,-79.3 1053.47,-74.49 1043.09,-72.37 1044.03,-79.3"/>
</g>
<!-- Node27&#45;&gt;Node21 -->
<g id="edge38" class="edge">
<title>Node27&#45;&gt;Node21</title>
<path fill="none" stroke="midnightblue" d="M677.46,-116.25C679.7,-108.86 682.86,-98.47 685.61,-89.41"/>
<polygon fill="midnightblue" stroke="midnightblue" points="689.02,-90.23 688.57,-79.64 682.32,-88.19 689.02,-90.23"/>
</g>
<!-- Node28&#45;&gt;Node9 -->
<g id="edge41" class="edge">
<title>Node28&#45;&gt;Node9</title>
<path fill="none" stroke="midnightblue" d="M618.39,-348.34C634.07,-333.56 666.17,-305.46 698.5,-290 738.69,-270.78 787.78,-259.03 825.15,-252.22"/>
<polygon fill="midnightblue" stroke="midnightblue" points="826.12,-255.6 835.36,-250.43 824.91,-248.71 826.12,-255.6"/>
</g>
<!-- Node29 -->
<g id="node29" class="node">
<title>Node29</title>
<g id="a_node29"><a xlink:href="../../dc/dac/_audio_utilities_8h.html" target="_top" xlink:title=" ">
<polygon fill="white" stroke="black" points="456,-232.5 456,-253.5 551,-253.5 551,-232.5 456,-232.5"/>
<text text-anchor="middle" x="503.5" y="-239.9" font-family="Helvetica,sans-Serif" font-size="12.00">AudioUtilities.h</text>
</a>
</g>
</g>
<!-- Node28&#45;&gt;Node29 -->
<g id="edge40" class="edge">
<title>Node28&#45;&gt;Node29</title>
<path fill="none" stroke="midnightblue" d="M562.23,-355.64C531.33,-351.37 492.77,-340.25 472.5,-312 461.25,-296.31 473.55,-275.89 485.82,-261.53"/>
<polygon fill="midnightblue" stroke="midnightblue" points="488.68,-263.6 492.87,-253.87 483.53,-258.86 488.68,-263.6"/>
</g>
<!-- Node30 -->
<g id="node30" class="node">
<title>Node30</title>
<g id="a_node30"><a xlink:href="../../dc/ddf/control_button_8h.html" target="_top" xlink:title=" ">
<polygon fill="white" stroke="black" points="708,-290.5 708,-311.5 801,-311.5 801,-290.5 708,-290.5"/>
<text text-anchor="middle" x="754.5" y="-297.9" font-family="Helvetica,sans-Serif" font-size="12.00">controlButton.h</text>
</a>
</g>
</g>
<!-- Node28&#45;&gt;Node30 -->
<g id="edge42" class="edge">
<title>Node28&#45;&gt;Node30</title>
<path fill="none" stroke="midnightblue" d="M633.6,-348.37C657.46,-339.22 693.53,-325.38 720.07,-315.21"/>
<polygon fill="midnightblue" stroke="midnightblue" points="721.65,-318.35 729.73,-311.5 719.14,-311.81 721.65,-318.35"/>
</g>
<!-- Node31 -->
<g id="node31" class="node">
<title>Node31</title>
<g id="a_node31"><a xlink:href="../../d4/d50/control_slider_8h.html" target="_top" xlink:title=" ">
<polygon fill="white" stroke="black" points="819,-290.5 819,-311.5 910,-311.5 910,-290.5 819,-290.5"/>
<text text-anchor="middle" x="864.5" y="-297.9" font-family="Helvetica,sans-Serif" font-size="12.00">controlSlider.h</text>
</a>
</g>
</g>
<!-- Node28&#45;&gt;Node31 -->
<g id="edge44" class="edge">
<title>Node28&#45;&gt;Node31</title>
<path fill="none" stroke="midnightblue" d="M652.22,-348.44C696.12,-338.83 763.84,-324.02 810.95,-313.72"/>
<polygon fill="midnightblue" stroke="midnightblue" points="811.94,-317.08 820.96,-311.52 810.45,-310.24 811.94,-317.08"/>
</g>
<!-- Node32 -->
<g id="node32" class="node">
<title>Node32</title>
<g id="a_node32"><a xlink:href="../../d8/d1f/app_scope_8h.html" target="_top" xlink:title=" ">
<polygon fill="white" stroke="black" points="571.5,-290.5 571.5,-311.5 651.5,-311.5 651.5,-290.5 571.5,-290.5"/>
<text text-anchor="middle" x="611.5" y="-297.9" font-family="Helvetica,sans-Serif" font-size="12.00">appScope.h</text>
</a>
</g>
</g>
<!-- Node28&#45;&gt;Node32 -->
<g id="edge46" class="edge">
<title>Node28&#45;&gt;Node32</title>
<path fill="none" stroke="midnightblue" d="M609.02,-348.25C609.41,-340.94 609.96,-330.69 610.44,-321.7"/>
<polygon fill="midnightblue" stroke="midnightblue" points="613.94,-321.82 610.98,-311.64 606.95,-321.44 613.94,-321.82"/>
</g>
<!-- Node33 -->
<g id="node33" class="node">
<title>Node33</title>
<g id="a_node33"><a xlink:href="../../d4/d75/app_c_q_t_8h.html" target="_top" xlink:title=" ">
<polygon fill="white" stroke="black" points="482,-290.5 482,-311.5 553,-311.5 553,-290.5 482,-290.5"/>
<text text-anchor="middle" x="517.5" y="-297.9" font-family="Helvetica,sans-Serif" font-size="12.00">appCQT.h</text>
</a>
</g>
</g>
<!-- Node28&#45;&gt;Node33 -->
<g id="edge48" class="edge">
<title>Node28&#45;&gt;Node33</title>
<path fill="none" stroke="midnightblue" d="M592.65,-348.25C578.69,-339.65 558.13,-327 542.04,-317.1"/>
<polygon fill="midnightblue" stroke="midnightblue" points="543.52,-313.9 533.17,-311.64 539.85,-319.86 543.52,-313.9"/>
</g>
<!-- Node30&#45;&gt;Node9 -->
<g id="edge43" class="edge">
<title>Node30&#45;&gt;Node9</title>
<path fill="none" stroke="midnightblue" d="M776.5,-290.37C797.14,-281.34 828.22,-267.75 851.39,-257.61"/>
<polygon fill="midnightblue" stroke="midnightblue" points="853.02,-260.72 860.78,-253.5 850.22,-254.3 853.02,-260.72"/>
</g>
<!-- Node31&#45;&gt;Node9 -->
<g id="edge45" class="edge">
<title>Node31&#45;&gt;Node9</title>
<path fill="none" stroke="midnightblue" d="M867.64,-290.25C870.01,-282.86 873.35,-272.47 876.26,-263.41"/>
<polygon fill="midnightblue" stroke="midnightblue" points="879.67,-264.23 879.4,-253.64 873.01,-262.09 879.67,-264.23"/>
</g>
<!-- Node32&#45;&gt;Node9 -->
<g id="edge47" class="edge">
<title>Node32&#45;&gt;Node9</title>
<path fill="none" stroke="midnightblue" d="M651.78,-291.68C697.95,-282.14 773.94,-266.43 826.01,-255.67"/>
<polygon fill="midnightblue" stroke="midnightblue" points="827,-259.04 836.09,-253.59 825.59,-252.19 827,-259.04"/>
</g>
<!-- Node33&#45;&gt;Node9 -->
<g id="edge50" class="edge">
<title>Node33&#45;&gt;Node9</title>
<path fill="none" stroke="midnightblue" d="M553.31,-291.78C556.41,-291.15 559.51,-290.55 562.5,-290 653.9,-273.3 760.89,-258.96 825.1,-250.92"/>
<polygon fill="midnightblue" stroke="midnightblue" points="825.92,-254.34 835.42,-249.63 825.06,-247.4 825.92,-254.34"/>
</g>
<!-- Node33&#45;&gt;Node29 -->
<g id="edge49" class="edge">
<title>Node33&#45;&gt;Node29</title>
<path fill="none" stroke="midnightblue" d="M515.06,-290.25C513.21,-282.86 510.62,-272.47 508.35,-263.41"/>
<polygon fill="midnightblue" stroke="midnightblue" points="511.73,-262.5 505.91,-253.64 504.94,-264.19 511.73,-262.5"/>
</g>
<!-- Node34&#45;&gt;Node9 -->
<g id="edge53" class="edge">
<title>Node34&#45;&gt;Node9</title>
<path fill="none" stroke="midnightblue" d="M1077.47,-348.39C1053.81,-335.08 1009.59,-310.36 971.5,-290 951.18,-279.14 928.06,-267.2 910.48,-258.21"/>
<polygon fill="midnightblue" stroke="midnightblue" points="911.83,-254.97 901.33,-253.54 908.65,-261.2 911.83,-254.97"/>
</g>
<!-- Node35 -->
<g id="node35" class="node">
<title>Node35</title>
<g id="a_node35"><a xlink:title=" ">
<polygon fill="white" stroke="#bfbfbf" points="1056,-290.5 1056,-311.5 1133,-311.5 1133,-290.5 1056,-290.5"/>
<text text-anchor="middle" x="1094.5" y="-297.9" font-family="Helvetica,sans-Serif" font-size="12.00">core_pins.h</text>
</a>
</g>
</g>
<!-- Node34&#45;&gt;Node35 -->
<g id="edge52" class="edge">
<title>Node34&#45;&gt;Node35</title>
<path fill="none" stroke="midnightblue" d="M1094.5,-348.25C1094.5,-340.94 1094.5,-330.69 1094.5,-321.7"/>
<polygon fill="midnightblue" stroke="midnightblue" points="1098,-321.64 1094.5,-311.64 1091,-321.64 1098,-321.64"/>
</g>
<!-- Node36&#45;&gt;Node9 -->
<g id="edge55" class="edge">
<title>Node36&#45;&gt;Node9</title>
<path fill="none" stroke="midnightblue" d="M819.72,-348.46C859.66,-340.68 907.24,-328.31 919.5,-312 931.81,-295.62 916.34,-274.64 901.81,-260.34"/>
<polygon fill="midnightblue" stroke="midnightblue" points="904.17,-257.76 894.45,-253.54 899.42,-262.9 904.17,-257.76"/>
</g>
<!-- Node37&#45;&gt;Node2 -->
<g id="edge57" class="edge">
<title>Node37&#45;&gt;Node2</title>
<path fill="none" stroke="midnightblue" d="M1237.24,-174.03C1227.76,-159.61 1208.54,-132.83 1186.5,-116 1168.18,-102.01 1144.92,-90.99 1125.45,-83.25"/>
<polygon fill="midnightblue" stroke="midnightblue" points="1126.53,-79.92 1115.94,-79.61 1124.03,-86.45 1126.53,-79.92"/>
</g>
<!-- Node37&#45;&gt;Node6 -->
<g id="edge58" class="edge">
<title>Node37&#45;&gt;Node6</title>
<path fill="none" stroke="midnightblue" d="M1228.17,-174.25C1214.67,-165.65 1194.79,-153 1179.23,-143.1"/>
<polygon fill="midnightblue" stroke="midnightblue" points="1180.97,-140.06 1170.65,-137.64 1177.21,-145.96 1180.97,-140.06"/>
</g>
<!-- Node38 -->
<g id="node38" class="node">
<title>Node38</title>
<g id="a_node38"><a xlink:title=" ">
<polygon fill="white" stroke="#bfbfbf" points="1233.5,-116.5 1233.5,-137.5 1283.5,-137.5 1283.5,-116.5 1233.5,-116.5"/>
<text text-anchor="middle" x="1258.5" y="-123.9" font-family="Helvetica,sans-Serif" font-size="12.00">Wire.h</text>
</a>
</g>
</g>
<!-- Node37&#45;&gt;Node38 -->
<g id="edge59" class="edge">
<title>Node37&#45;&gt;Node38</title>
<path fill="none" stroke="midnightblue" d="M1246.11,-174.25C1248.09,-166.86 1250.87,-156.47 1253.3,-147.41"/>
<polygon fill="midnightblue" stroke="midnightblue" points="1256.71,-148.21 1255.92,-137.64 1249.95,-146.4 1256.71,-148.21"/>
</g>
</g>
</svg>
        <g id="navigator" transform="translate(0 0)" fill="#404254">
                <rect fill="#f2f5e9" fill-opacity="0.5" stroke="#606060" stroke-width=".5" x="0" y="0" width="60" height="60"/>
                <use id="zoomplus" xlink:href="#zoomPlus" x="17" y="9" onmousedown="handleZoom(evt,'in')"/>
                <use id="zoomminus" xlink:href="#zoomMin" x="42" y="9" onmousedown="handleZoom(evt,'out')"/>
                <use id="reset" xlink:href="#resetDef" x="30" y="36" onmousedown="handleReset()"/>
                <g id="arrowUp" xlink:href="#dirArrow" transform="translate(30 24)" onmousedown="handlePan(0,-1)">
                  <use xlink:href="#rim" fill="#404040">
                        <set attributeName="fill" to="#808080" begin="arrowUp.mouseover" end="arrowUp.mouseout"/>
                  </use>
                  <path fill="none" stroke="white" stroke-width="1.5" d="M0,-3.0v7 M-2.5,-0.5L0,-3.0L2.5,-0.5"/>
                </g>
                <g id="arrowRight" xlink:href="#dirArrow" transform="rotate(90) translate(36 -43)" onmousedown="handlePan(1,0)">
                  <use xlink:href="#rim" fill="#404040">
                        <set attributeName="fill" to="#808080" begin="arrowRight.mouseover" end="arrowRight.mouseout"/>
                  </use>
                  <path fill="none" stroke="white" stroke-width="1.5" d="M0,-3.0v7 M-2.5,-0.5L0,-3.0L2.5,-0.5"/>
                </g>
                <g id="arrowDown" xlink:href="#dirArrow" transform="rotate(180) translate(-30 -48)" onmousedown="handlePan(0,1)">
                  <use xlink:href="#rim" fill="#404040">
                        <set attributeName="fill" to="#808080" begin="arrowDown.mouseover" end="arrowDown.mouseout"/>
                  </use>
                  <path fill="none" stroke="white" stroke-width="1.5" d="M0,-3.0v7 M-2.5,-0.5L0,-3.0L2.5,-0.5"/>
                </g>
                <g id="arrowLeft" xlink:href="#dirArrow" transform="rotate(270) translate(-36 17)" onmousedown="handlePan(-1,0)">
                  <use xlink:href="#rim" fill="#404040">
                        <set attributeName="fill" to="#808080" begin="arrowLeft.mouseover" end="arrowLeft.mouseout"/>
                  </use>
                  <path fill="none" stroke="white" stroke-width="1.5" d="M0,-3.0v7 M-2.5,-0.5L0,-3.0L2.5,-0.5"/>
                </g>
        </g>
        <svg viewBox="0 0 15 15" width="100%" height="30px" preserveAspectRatio="xMaxYMin meet">
         <g id="arrow_out" transform="scale(0.3 0.3)">
          <a xlink:href="main_8cpp__incl_org.svg" target="_base">
           <rect id="button" ry="5" rx="5" y="6" x="6" height="38" width="38"
                fill="#f2f5e9" fill-opacity="0.5" stroke="#606060" stroke-width="1.0"/>
           <path id="arrow"
             d="M 11.500037,31.436501 C 11.940474,20.09759 22.043105,11.32322 32.158766,21.979434 L 37.068811,17.246167 C 37.068811,17.246167 37.088388,32 37.088388,32 L 22.160133,31.978069 C 22.160133,31.978069 26.997745,27.140456 26.997745,27.140456 C 18.528582,18.264221 13.291696,25.230495 11.500037,31.436501 z"
             style="fill:#404040;"/>
          </a>
         </g>
        </svg>
</svg>
