<?xml version="1.0" encoding="UTF-8" standalone="no"?>
<!DOCTYPE svg PUBLIC "-//W3C//DTD SVG 1.1//EN"
 "http://www.w3.org/Graphics/SVG/1.1/DTD/svg11.dtd">
<!-- Generated by graphviz version 2.47.3 (20210619.1520)
 -->
<!-- Title: ifstream::open Pages: 1 -->
<svg width="719pt" height="313pt"
 viewBox="0.00 0.00 719.00 313.00" xmlns="http://www.w3.org/2000/svg" xmlns:xlink="http://www.w3.org/1999/xlink">
<g id="graph0" class="graph" transform="scale(1 1) rotate(0) translate(4 309)">
<title>ifstream::open</title>
<polygon fill="white" stroke="transparent" points="-4,4 -4,-309 715,-309 715,4 -4,4"/>
<!-- Node1 -->
<g id="node1" class="node">
<title>Node1</title>
<g id="a_node1"><a xlink:title=" ">
<polygon fill="#bfbfbf" stroke="black" points="0,-114.5 0,-133.5 78,-133.5 78,-114.5 0,-114.5"/>
<text text-anchor="middle" x="39" y="-121.5" font-family="Helvetica,sans-Serif" font-size="10.00">ifstream::open</text>
</a>
</g>
</g>
<!-- Node2 -->
<g id="node2" class="node">
<title>Node2</title>
<g id="a_node2"><a xlink:href="../../d3/dc7/class_stream_base_class.html#ae35297f11506f154597015f9216b72df" target="_top" xlink:title=" ">
<polygon fill="white" stroke="black" points="114,-114.5 114,-133.5 236,-133.5 236,-114.5 114,-114.5"/>
<text text-anchor="middle" x="175" y="-121.5" font-family="Helvetica,sans-Serif" font-size="10.00">StreamBaseClass::open</text>
</a>
</g>
</g>
<!-- Node1&#45;&gt;Node2 -->
<g id="edge1" class="edge">
<title>Node1&#45;&gt;Node2</title>
<path fill="none" stroke="midnightblue" d="M78.04,-124C86.14,-124 94.93,-124 103.8,-124"/>
<polygon fill="midnightblue" stroke="midnightblue" points="103.81,-127.5 113.81,-124 103.81,-120.5 103.81,-127.5"/>
</g>
<!-- Node3 -->
<g id="node3" class="node">
<title>Node3</title>
<g id="a_node3"><a xlink:href="../../df/d02/classios.html#aa49ed6670d1743e7a373b2d915ec739a" target="_top" xlink:title=" ">
<polygon fill="white" stroke="black" points="317,-240.5 317,-259.5 373,-259.5 373,-240.5 317,-240.5"/>
<text text-anchor="middle" x="345" y="-247.5" font-family="Helvetica,sans-Serif" font-size="10.00">ios::clear</text>
</a>
</g>
</g>
<!-- Node2&#45;&gt;Node3 -->
<g id="edge2" class="edge">
<title>Node2&#45;&gt;Node3</title>
<path fill="none" stroke="midnightblue" d="M181.86,-133.7C195.12,-154.81 229.63,-205.09 272,-231 282.49,-237.42 295.13,-241.69 306.87,-244.52"/>
<polygon fill="midnightblue" stroke="midnightblue" points="306.37,-247.99 316.88,-246.66 307.83,-241.15 306.37,-247.99"/>
</g>
<!-- Node4 -->
<g id="node4" class="node">
<title>Node4</title>
<g id="a_node4"><a xlink:href="../../d3/dc7/class_stream_base_class.html#a27590dcf7b044e6dd8b88b696a6f132a" target="_top" xlink:title=" ">
<polygon fill="white" stroke="black" points="272,-191 272,-221 418,-221 418,-191 272,-191"/>
<text text-anchor="start" x="280" y="-209" font-family="Helvetica,sans-Serif" font-size="10.00">StreamBaseClass::clearWrite</text>
<text text-anchor="middle" x="345" y="-198" font-family="Helvetica,sans-Serif" font-size="10.00">Error</text>
</a>
</g>
</g>
<!-- Node2&#45;&gt;Node4 -->
<g id="edge3" class="edge">
<title>Node2&#45;&gt;Node4</title>
<path fill="none" stroke="midnightblue" d="M190.14,-133.63C208.44,-145.81 241.59,-166.87 272,-181 276.68,-183.17 281.6,-185.27 286.59,-187.25"/>
<polygon fill="midnightblue" stroke="midnightblue" points="285.62,-190.63 296.21,-190.93 288.12,-184.09 285.62,-190.63"/>
</g>
<!-- Node6 -->
<g id="node6" class="node">
<title>Node6</title>
<g id="a_node6"><a xlink:href="../../d3/d51/class_fat_file.html#afd16af325e0642e4bff6430b7d8bb18b" target="_top" xlink:title=" ">
<polygon fill="white" stroke="black" points="307,-152.5 307,-171.5 383,-171.5 383,-152.5 307,-152.5"/>
<text text-anchor="middle" x="345" y="-159.5" font-family="Helvetica,sans-Serif" font-size="10.00">FatFile::close</text>
</a>
</g>
</g>
<!-- Node2&#45;&gt;Node6 -->
<g id="edge5" class="edge">
<title>Node2&#45;&gt;Node6</title>
<path fill="none" stroke="midnightblue" d="M218.39,-133.59C242.31,-139 272.26,-145.77 296.91,-151.35"/>
<polygon fill="midnightblue" stroke="midnightblue" points="296.24,-154.79 306.77,-153.58 297.79,-147.96 296.24,-154.79"/>
</g>
<!-- Node16 -->
<g id="node16" class="node">
<title>Node16</title>
<g id="a_node16"><a xlink:href="../../df/d02/classios.html#a15269e67d05d4fe83a6cf344d542f8ae" target="_top" xlink:title=" ">
<polygon fill="white" stroke="black" points="321.5,-114.5 321.5,-133.5 368.5,-133.5 368.5,-114.5 321.5,-114.5"/>
<text text-anchor="middle" x="345" y="-121.5" font-family="Helvetica,sans-Serif" font-size="10.00">ios::fail</text>
</a>
</g>
</g>
<!-- Node2&#45;&gt;Node16 -->
<g id="edge15" class="edge">
<title>Node2&#45;&gt;Node16</title>
<path fill="none" stroke="midnightblue" d="M236.18,-124C261.47,-124 289.9,-124 311.22,-124"/>
<polygon fill="midnightblue" stroke="midnightblue" points="311.36,-127.5 321.36,-124 311.36,-120.5 311.36,-127.5"/>
</g>
<!-- Node17 -->
<g id="node17" class="node">
<title>Node17</title>
<g id="a_node17"><a xlink:href="../../d3/d51/class_fat_file.html#af49a42dc64cd954debb271eae5639059" target="_top" xlink:title=" ">
<polygon fill="white" stroke="black" points="308,-76.5 308,-95.5 382,-95.5 382,-76.5 308,-76.5"/>
<text text-anchor="middle" x="345" y="-83.5" font-family="Helvetica,sans-Serif" font-size="10.00">FatFile::open</text>
</a>
</g>
</g>
<!-- Node2&#45;&gt;Node17 -->
<g id="edge16" class="edge">
<title>Node2&#45;&gt;Node17</title>
<path fill="none" stroke="midnightblue" d="M218.39,-114.41C242.66,-108.92 273.12,-102.03 297.96,-96.41"/>
<polygon fill="midnightblue" stroke="midnightblue" points="298.9,-99.79 307.88,-94.17 297.36,-92.96 298.9,-99.79"/>
</g>
<!-- Node18 -->
<g id="node18" class="node">
<title>Node18</title>
<g id="a_node18"><a xlink:href="../../d3/dc7/class_stream_base_class.html#af5c94c8ad2618278f5a480ba984afbc9" target="_top" xlink:title=" ">
<polygon fill="white" stroke="black" points="275.5,-38.5 275.5,-57.5 414.5,-57.5 414.5,-38.5 275.5,-38.5"/>
<text text-anchor="middle" x="345" y="-45.5" font-family="Helvetica,sans-Serif" font-size="10.00">StreamBaseClass::setmode</text>
</a>
</g>
</g>
<!-- Node2&#45;&gt;Node18 -->
<g id="edge17" class="edge">
<title>Node2&#45;&gt;Node18</title>
<path fill="none" stroke="midnightblue" d="M189.36,-114.43C207.34,-101.93 240.72,-80.11 272,-67 277.79,-64.57 283.97,-62.38 290.19,-60.43"/>
<polygon fill="midnightblue" stroke="midnightblue" points="291.35,-63.74 299.95,-57.55 289.37,-57.02 291.35,-63.74"/>
</g>
<!-- Node19 -->
<g id="node19" class="node">
<title>Node19</title>
<g id="a_node19"><a xlink:href="../../df/d02/classios.html#aee5d194656bdfb0c8621b23ea2f51afb" target="_top" xlink:title=" ">
<polygon fill="white" stroke="black" points="309.5,-0.5 309.5,-19.5 380.5,-19.5 380.5,-0.5 309.5,-0.5"/>
<text text-anchor="middle" x="345" y="-7.5" font-family="Helvetica,sans-Serif" font-size="10.00">ios::setstate</text>
</a>
</g>
</g>
<!-- Node2&#45;&gt;Node19 -->
<g id="edge18" class="edge">
<title>Node2&#45;&gt;Node19</title>
<path fill="none" stroke="midnightblue" d="M182.99,-114.25C197.38,-94.93 232.3,-51.68 272,-29 280.41,-24.19 290.07,-20.57 299.53,-17.85"/>
<polygon fill="midnightblue" stroke="midnightblue" points="300.44,-21.23 309.25,-15.34 298.69,-14.46 300.44,-21.23"/>
</g>
<!-- Node5 -->
<g id="node5" class="node">
<title>Node5</title>
<g id="a_node5"><a xlink:href="../../d3/d51/class_fat_file.html#aeca2a2eff91e6aa55fe1b0e3860c9a05" target="_top" xlink:title=" ">
<polygon fill="white" stroke="black" points="454,-196.5 454,-215.5 572,-215.5 572,-196.5 454,-196.5"/>
<text text-anchor="middle" x="513" y="-203.5" font-family="Helvetica,sans-Serif" font-size="10.00">FatFile::clearWriteError</text>
</a>
</g>
</g>
<!-- Node4&#45;&gt;Node5 -->
<g id="edge4" class="edge">
<title>Node4&#45;&gt;Node5</title>
<path fill="none" stroke="midnightblue" d="M418.33,-206C426.77,-206 435.37,-206 443.76,-206"/>
<polygon fill="midnightblue" stroke="midnightblue" points="443.87,-209.5 453.87,-206 443.87,-202.5 443.87,-209.5"/>
</g>
<!-- Node7 -->
<g id="node7" class="node">
<title>Node7</title>
<g id="a_node7"><a xlink:href="../../d3/d51/class_fat_file.html#a67f3dc4896c542d695e11aac927f585e" target="_top" xlink:title=" ">
<polygon fill="white" stroke="black" points="476,-152.5 476,-171.5 550,-171.5 550,-152.5 476,-152.5"/>
<text text-anchor="middle" x="513" y="-159.5" font-family="Helvetica,sans-Serif" font-size="10.00">FatFile::sync</text>
</a>
</g>
</g>
<!-- Node6&#45;&gt;Node7 -->
<g id="edge6" class="edge">
<title>Node6&#45;&gt;Node7</title>
<path fill="none" stroke="midnightblue" d="M383.25,-162C407.64,-162 439.69,-162 465.72,-162"/>
<polygon fill="midnightblue" stroke="midnightblue" points="465.73,-165.5 475.73,-162 465.73,-158.5 465.73,-165.5"/>
</g>
<!-- Node8 -->
<g id="node8" class="node">
<title>Node8</title>
<g id="a_node8"><a xlink:href="../../d3/d51/class_fat_file.html#a49f8a32fb375d562158172b5fb65243d" target="_top" xlink:title=" ">
<polygon fill="white" stroke="black" points="613.5,-285.5 613.5,-304.5 705.5,-304.5 705.5,-285.5 613.5,-285.5"/>
<text text-anchor="middle" x="659.5" y="-292.5" font-family="Helvetica,sans-Serif" font-size="10.00">FatFile::isArchive</text>
</a>
</g>
</g>
<!-- Node7&#45;&gt;Node8 -->
<g id="edge7" class="edge">
<title>Node7&#45;&gt;Node8</title>
<path fill="none" stroke="midnightblue" d="M548.04,-171.51C556.7,-175.22 565.41,-180.26 572,-187 601.83,-217.51 577.46,-246.2 608,-276 609.61,-277.57 611.36,-279.01 613.21,-280.33"/>
<polygon fill="midnightblue" stroke="midnightblue" points="611.45,-283.36 621.84,-285.42 615,-277.33 611.45,-283.36"/>
</g>
<!-- Node9 -->
<g id="node9" class="node">
<title>Node9</title>
<g id="a_node9"><a xlink:href="../../d3/d51/class_fat_file.html#acc5a87da1a5c8cb9758bfeaa7ae47b57" target="_top" xlink:title=" ">
<polygon fill="white" stroke="black" points="621.5,-247.5 621.5,-266.5 697.5,-266.5 697.5,-247.5 621.5,-247.5"/>
<text text-anchor="middle" x="659.5" y="-254.5" font-family="Helvetica,sans-Serif" font-size="10.00">FatFile::isFile</text>
</a>
</g>
</g>
<!-- Node7&#45;&gt;Node9 -->
<g id="edge8" class="edge">
<title>Node7&#45;&gt;Node9</title>
<path fill="none" stroke="midnightblue" d="M544.67,-171.56C554.05,-175.41 564,-180.51 572,-187 593.55,-204.48 586.05,-221.03 608,-238 610.33,-239.8 612.84,-241.44 615.47,-242.94"/>
<polygon fill="midnightblue" stroke="midnightblue" points="614.17,-246.2 624.69,-247.5 617.27,-239.93 614.17,-246.2"/>
</g>
<!-- Node10 -->
<g id="node10" class="node">
<title>Node10</title>
<g id="a_node10"><a xlink:href="../../d3/d51/class_fat_file.html#ae216b4a2bc44a9cfb88478fa051a1fd8" target="_top" xlink:title=" ">
<polygon fill="white" stroke="black" points="614.5,-209.5 614.5,-228.5 704.5,-228.5 704.5,-209.5 614.5,-209.5"/>
<text text-anchor="middle" x="659.5" y="-216.5" font-family="Helvetica,sans-Serif" font-size="10.00">FatFile::isHidden</text>
</a>
</g>
</g>
<!-- Node7&#45;&gt;Node10 -->
<g id="edge9" class="edge">
<title>Node7&#45;&gt;Node10</title>
<path fill="none" stroke="midnightblue" d="M537.12,-171.53C556.1,-179.31 583.73,-190.53 608,-200 612.89,-201.91 618.06,-203.89 623.16,-205.83"/>
<polygon fill="midnightblue" stroke="midnightblue" points="622.17,-209.2 632.76,-209.45 624.64,-202.65 622.17,-209.2"/>
</g>
<!-- Node11 -->
<g id="node11" class="node">
<title>Node11</title>
<g id="a_node11"><a xlink:href="../../d3/d51/class_fat_file.html#a8b8a2850c086d3ce79bee64a23fbf7a6" target="_top" xlink:title=" ">
<polygon fill="white" stroke="black" points="618,-171.5 618,-190.5 701,-190.5 701,-171.5 618,-171.5"/>
<text text-anchor="middle" x="659.5" y="-178.5" font-family="Helvetica,sans-Serif" font-size="10.00">FatFile::isOpen</text>
</a>
</g>
</g>
<!-- Node7&#45;&gt;Node11 -->
<g id="edge10" class="edge">
<title>Node7&#45;&gt;Node11</title>
<path fill="none" stroke="midnightblue" d="M550.09,-166.75C567.52,-169.04 588.74,-171.83 607.76,-174.33"/>
<polygon fill="midnightblue" stroke="midnightblue" points="607.4,-177.81 617.77,-175.64 608.31,-170.87 607.4,-177.81"/>
</g>
<!-- Node12 -->
<g id="node12" class="node">
<title>Node12</title>
<g id="a_node12"><a xlink:href="../../d3/d51/class_fat_file.html#abaf639ec8f86f34aeb7e6b3615526f0b" target="_top" xlink:title=" ">
<polygon fill="white" stroke="black" points="608,-133.5 608,-152.5 711,-152.5 711,-133.5 608,-133.5"/>
<text text-anchor="middle" x="659.5" y="-140.5" font-family="Helvetica,sans-Serif" font-size="10.00">FatFile::isReadOnly</text>
</a>
</g>
</g>
<!-- Node7&#45;&gt;Node12 -->
<g id="edge11" class="edge">
<title>Node7&#45;&gt;Node12</title>
<path fill="none" stroke="midnightblue" d="M550.09,-157.25C564.56,-155.35 581.63,-153.11 597.9,-150.97"/>
<polygon fill="midnightblue" stroke="midnightblue" points="598.43,-154.43 607.89,-149.65 597.52,-147.49 598.43,-154.43"/>
</g>
<!-- Node13 -->
<g id="node13" class="node">
<title>Node13</title>
<g id="a_node13"><a xlink:href="../../d3/d51/class_fat_file.html#a48087bdeb6b94fc27e0f74c3d90af5a9" target="_top" xlink:title=" ">
<polygon fill="white" stroke="black" points="612.5,-95.5 612.5,-114.5 706.5,-114.5 706.5,-95.5 612.5,-95.5"/>
<text text-anchor="middle" x="659.5" y="-102.5" font-family="Helvetica,sans-Serif" font-size="10.00">FatFile::isSystem</text>
</a>
</g>
</g>
<!-- Node7&#45;&gt;Node13 -->
<g id="edge12" class="edge">
<title>Node7&#45;&gt;Node13</title>
<path fill="none" stroke="midnightblue" d="M537.12,-152.47C556.1,-144.69 583.73,-133.47 608,-124 612.89,-122.09 618.06,-120.11 623.16,-118.17"/>
<polygon fill="midnightblue" stroke="midnightblue" points="624.64,-121.35 632.76,-114.55 622.17,-114.8 624.64,-121.35"/>
</g>
<!-- Node14 -->
<g id="node14" class="node">
<title>Node14</title>
<g id="a_node14"><a xlink:href="../../d1/db3/_fs_structs_8h.html#a2a47595a3bb5c1f0f67d4f3dddac0a0e" target="_top" xlink:title=" ">
<polygon fill="white" stroke="black" points="634,-57.5 634,-76.5 685,-76.5 685,-57.5 634,-57.5"/>
<text text-anchor="middle" x="659.5" y="-64.5" font-family="Helvetica,sans-Serif" font-size="10.00">setLe16</text>
</a>
</g>
</g>
<!-- Node7&#45;&gt;Node14 -->
<g id="edge13" class="edge">
<title>Node7&#45;&gt;Node14</title>
<path fill="none" stroke="midnightblue" d="M523.64,-152.41C539.85,-136.72 574.12,-105.39 608,-86 613.16,-83.05 618.86,-80.39 624.52,-78.07"/>
<polygon fill="midnightblue" stroke="midnightblue" points="625.81,-81.32 633.9,-74.48 623.31,-74.78 625.81,-81.32"/>
</g>
<!-- Node15 -->
<g id="node15" class="node">
<title>Node15</title>
<g id="a_node15"><a xlink:href="../../d1/db3/_fs_structs_8h.html#a294114e9924b0436c1d110e692bef464" target="_top" xlink:title=" ">
<polygon fill="white" stroke="black" points="634,-19.5 634,-38.5 685,-38.5 685,-19.5 634,-19.5"/>
<text text-anchor="middle" x="659.5" y="-26.5" font-family="Helvetica,sans-Serif" font-size="10.00">setLe32</text>
</a>
</g>
</g>
<!-- Node7&#45;&gt;Node15 -->
<g id="edge14" class="edge">
<title>Node7&#45;&gt;Node15</title>
<path fill="none" stroke="midnightblue" d="M519.53,-152.3C532.37,-130.63 566.26,-77.83 608,-48 612.93,-44.48 618.6,-41.52 624.31,-39.07"/>
<polygon fill="midnightblue" stroke="midnightblue" points="625.76,-42.26 633.84,-35.41 623.25,-35.72 625.76,-42.26"/>
</g>
</g>
</svg>
