<?xml version="1.0" encoding="UTF-8" standalone="no"?>
<!DOCTYPE svg PUBLIC "-//W3C//DTD SVG 1.1//EN"
 "http://www.w3.org/Graphics/SVG/1.1/DTD/svg11.dtd">
<!-- Generated by graphviz version 2.47.3 (20210619.1520)
 -->
<!-- Title: wrenSetSlotBytes Pages: 1 -->
<svg width="562pt" height="110pt"
 viewBox="0.00 0.00 562.00 110.00" xmlns="http://www.w3.org/2000/svg" xmlns:xlink="http://www.w3.org/1999/xlink">
<g id="graph0" class="graph" transform="scale(1 1) rotate(0) translate(4 106)">
<title>wrenSetSlotBytes</title>
<polygon fill="white" stroke="transparent" points="-4,4 -4,-106 558,-106 558,4 -4,4"/>
<!-- Node1 -->
<g id="node1" class="node">
<title>Node1</title>
<g id="a_node1"><a xlink:title=" ">
<polygon fill="#bfbfbf" stroke="black" points="0,-60.5 0,-81.5 109,-81.5 109,-60.5 0,-60.5"/>
<text text-anchor="middle" x="54.5" y="-67.9" font-family="Helvetica,sans-Serif" font-size="12.00">wrenSetSlotBytes</text>
</a>
</g>
</g>
<!-- Node2 -->
<g id="node2" class="node">
<title>Node2</title>
<g id="a_node2"><a xlink:href="../../de/db2/wren__vm_8c.html#ac49216b899f66334b63b465b145c145b" target="_top" xlink:title=" ">
<polygon fill="white" stroke="black" points="184,-80.5 184,-101.5 237,-101.5 237,-80.5 184,-80.5"/>
<text text-anchor="middle" x="210.5" y="-87.9" font-family="Helvetica,sans-Serif" font-size="12.00">setSlot</text>
</a>
</g>
</g>
<!-- Node1&#45;&gt;Node2 -->
<g id="edge1" class="edge">
<title>Node1&#45;&gt;Node2</title>
<path fill="none" stroke="midnightblue" d="M109.36,-78C130.73,-80.77 154.72,-83.89 173.86,-86.37"/>
<polygon fill="midnightblue" stroke="midnightblue" points="173.58,-89.86 183.95,-87.68 174.49,-82.92 173.58,-89.86"/>
</g>
<!-- Node5 -->
<g id="node5" class="node">
<title>Node5</title>
<g id="a_node5"><a xlink:href="../../da/dbe/wren__value_8c.html#a6f59ebcbdfd6eb24569b4d50cf85052b" target="_top" xlink:title=" ">
<polygon fill="white" stroke="black" points="145,-40.5 145,-61.5 276,-61.5 276,-40.5 145,-40.5"/>
<text text-anchor="middle" x="210.5" y="-47.9" font-family="Helvetica,sans-Serif" font-size="12.00">wrenNewStringLength</text>
</a>
</g>
</g>
<!-- Node1&#45;&gt;Node5 -->
<g id="edge4" class="edge">
<title>Node1&#45;&gt;Node5</title>
<path fill="none" stroke="midnightblue" d="M109.36,-64C117.59,-62.94 126.21,-61.82 134.79,-60.7"/>
<polygon fill="midnightblue" stroke="midnightblue" points="135.35,-64.16 144.82,-59.4 134.45,-57.22 135.35,-64.16"/>
</g>
<!-- Node3 -->
<g id="node3" class="node">
<title>Node3</title>
<g id="a_node3"><a xlink:href="../../de/db2/wren__vm_8c.html#a8d8ab7468d737e418162d4d23bea133f" target="_top" xlink:title=" ">
<polygon fill="white" stroke="black" points="312,-80.5 312,-101.5 407,-101.5 407,-80.5 312,-80.5"/>
<text text-anchor="middle" x="359.5" y="-87.9" font-family="Helvetica,sans-Serif" font-size="12.00">validateApiSlot</text>
</a>
</g>
</g>
<!-- Node2&#45;&gt;Node3 -->
<g id="edge2" class="edge">
<title>Node2&#45;&gt;Node3</title>
<path fill="none" stroke="midnightblue" d="M237.11,-91C254.94,-91 279.44,-91 301.75,-91"/>
<polygon fill="midnightblue" stroke="midnightblue" points="301.82,-94.5 311.82,-91 301.82,-87.5 301.82,-94.5"/>
</g>
<!-- Node4 -->
<g id="node4" class="node">
<title>Node4</title>
<g id="a_node4"><a xlink:href="../../de/db2/wren__vm_8c.html#a878f8893f175d615198ae6e04d3b2b58" target="_top" xlink:title=" ">
<polygon fill="white" stroke="black" points="443,-80.5 443,-101.5 554,-101.5 554,-80.5 443,-80.5"/>
<text text-anchor="middle" x="498.5" y="-87.9" font-family="Helvetica,sans-Serif" font-size="12.00">wrenGetSlotCount</text>
</a>
</g>
</g>
<!-- Node3&#45;&gt;Node4 -->
<g id="edge3" class="edge">
<title>Node3&#45;&gt;Node4</title>
<path fill="none" stroke="midnightblue" d="M407.26,-91C415.51,-91 424.22,-91 432.86,-91"/>
<polygon fill="midnightblue" stroke="midnightblue" points="432.92,-94.5 442.92,-91 432.92,-87.5 432.92,-94.5"/>
</g>
<!-- Node6 -->
<g id="node6" class="node">
<title>Node6</title>
<g id="a_node6"><a xlink:href="../../da/dbe/wren__value_8c.html#a3d3e25579f4aebe9485f8b63144cc458" target="_top" xlink:title=" ">
<polygon fill="white" stroke="black" points="315.5,-40.5 315.5,-61.5 403.5,-61.5 403.5,-40.5 315.5,-40.5"/>
<text text-anchor="middle" x="359.5" y="-47.9" font-family="Helvetica,sans-Serif" font-size="12.00">allocateString</text>
</a>
</g>
</g>
<!-- Node5&#45;&gt;Node6 -->
<g id="edge5" class="edge">
<title>Node5&#45;&gt;Node6</title>
<path fill="none" stroke="midnightblue" d="M276.4,-51C286.12,-51 296.04,-51 305.47,-51"/>
<polygon fill="midnightblue" stroke="midnightblue" points="305.48,-54.5 315.48,-51 305.47,-47.5 305.48,-54.5"/>
</g>
<!-- Node8 -->
<g id="node8" class="node">
<title>Node8</title>
<g id="a_node8"><a xlink:href="../../da/dbe/wren__value_8c.html#aa7b677d04dbfc61fd57d43783053dda3" target="_top" xlink:title=" ">
<polygon fill="white" stroke="black" points="323.5,-0.5 323.5,-21.5 395.5,-21.5 395.5,-0.5 323.5,-0.5"/>
<text text-anchor="middle" x="359.5" y="-7.9" font-family="Helvetica,sans-Serif" font-size="12.00">hashString</text>
</a>
</g>
</g>
<!-- Node5&#45;&gt;Node8 -->
<g id="edge7" class="edge">
<title>Node5&#45;&gt;Node8</title>
<path fill="none" stroke="midnightblue" d="M250.12,-40.49C269.48,-35.22 293.04,-28.81 313.24,-23.32"/>
<polygon fill="midnightblue" stroke="midnightblue" points="314.43,-26.62 323.16,-20.62 312.59,-19.87 314.43,-26.62"/>
</g>
<!-- Node7 -->
<g id="node7" class="node">
<title>Node7</title>
<g id="a_node7"><a xlink:href="../../da/dbe/wren__value_8c.html#a43609aa7ebae0d5de168775652f8d2fc" target="_top" xlink:title=" ">
<polygon fill="white" stroke="black" points="473.5,-40.5 473.5,-61.5 523.5,-61.5 523.5,-40.5 473.5,-40.5"/>
<text text-anchor="middle" x="498.5" y="-47.9" font-family="Helvetica,sans-Serif" font-size="12.00">initObj</text>
</a>
</g>
</g>
<!-- Node6&#45;&gt;Node7 -->
<g id="edge6" class="edge">
<title>Node6&#45;&gt;Node7</title>
<path fill="none" stroke="midnightblue" d="M403.85,-51C422.98,-51 445.16,-51 463.13,-51"/>
<polygon fill="midnightblue" stroke="midnightblue" points="463.17,-54.5 473.17,-51 463.16,-47.5 463.17,-54.5"/>
</g>
</g>
</svg>
