<?xml version="1.0" encoding="UTF-8" standalone="no"?>
<!DOCTYPE svg PUBLIC "-//W3C//DTD SVG 1.1//EN"
 "http://www.w3.org/Graphics/SVG/1.1/DTD/svg11.dtd">
<!-- Generated by graphviz version 2.47.3 (20210619.1520)
 -->
<!-- Title: wrenAbortFiber Pages: 1 -->
<svg width="384pt" height="30pt"
 viewBox="0.00 0.00 384.00 30.00" xmlns="http://www.w3.org/2000/svg" xmlns:xlink="http://www.w3.org/1999/xlink">
<g id="graph0" class="graph" transform="scale(1 1) rotate(0) translate(4 26)">
<title>wrenAbortFiber</title>
<polygon fill="white" stroke="transparent" points="-4,4 -4,-26 380,-26 380,4 -4,4"/>
<!-- Node1 -->
<g id="node1" class="node">
<title>Node1</title>
<g id="a_node1"><a xlink:title=" ">
<polygon fill="#bfbfbf" stroke="black" points="0,-0.5 0,-21.5 98,-21.5 98,-0.5 0,-0.5"/>
<text text-anchor="middle" x="49" y="-7.9" font-family="Helvetica,sans-Serif" font-size="12.00">wrenAbortFiber</text>
</a>
</g>
</g>
<!-- Node2 -->
<g id="node2" class="node">
<title>Node2</title>
<g id="a_node2"><a xlink:href="../../de/db2/wren__vm_8c.html#a8d8ab7468d737e418162d4d23bea133f" target="_top" xlink:title=" ">
<polygon fill="white" stroke="black" points="134,-0.5 134,-21.5 229,-21.5 229,-0.5 134,-0.5"/>
<text text-anchor="middle" x="181.5" y="-7.9" font-family="Helvetica,sans-Serif" font-size="12.00">validateApiSlot</text>
</a>
</g>
</g>
<!-- Node1&#45;&gt;Node2 -->
<g id="edge1" class="edge">
<title>Node1&#45;&gt;Node2</title>
<path fill="none" stroke="midnightblue" d="M98.22,-11C106.48,-11 115.13,-11 123.59,-11"/>
<polygon fill="midnightblue" stroke="midnightblue" points="123.78,-14.5 133.78,-11 123.78,-7.5 123.78,-14.5"/>
</g>
<!-- Node3 -->
<g id="node3" class="node">
<title>Node3</title>
<g id="a_node3"><a xlink:href="../../de/db2/wren__vm_8c.html#a878f8893f175d615198ae6e04d3b2b58" target="_top" xlink:title=" ">
<polygon fill="white" stroke="black" points="265,-0.5 265,-21.5 376,-21.5 376,-0.5 265,-0.5"/>
<text text-anchor="middle" x="320.5" y="-7.9" font-family="Helvetica,sans-Serif" font-size="12.00">wrenGetSlotCount</text>
</a>
</g>
</g>
<!-- Node2&#45;&gt;Node3 -->
<g id="edge2" class="edge">
<title>Node2&#45;&gt;Node3</title>
<path fill="none" stroke="midnightblue" d="M229.26,-11C237.51,-11 246.22,-11 254.86,-11"/>
<polygon fill="midnightblue" stroke="midnightblue" points="254.92,-14.5 264.92,-11 254.92,-7.5 254.92,-14.5"/>
</g>
</g>
</svg>
