<?xml version="1.0" encoding="UTF-8" standalone="no"?>
<!DOCTYPE svg PUBLIC "-//W3C//DTD SVG 1.1//EN"
 "http://www.w3.org/Graphics/SVG/1.1/DTD/svg11.dtd">
<!-- Generated by graphviz version 2.47.3 (20210619.1520)
 -->
<!-- Title: ERISCore/include/HSI.h Pages: 1 -->
<!--zoomable 492 -->
<svg id="main" version="1.1" xmlns="http://www.w3.org/2000/svg" xmlns:xlink="http://www.w3.org/1999/xlink" xml:space="preserve" onload="init(evt)">
<style type="text/css"><![CDATA[
.edge:hover path { stroke: red; }
.edge:hover polygon { stroke: red; fill: red; }
]]></style>
<script type="text/javascript"><![CDATA[
var edges = document.getElementsByTagName('g');
if (edges && edges.length) {
  for (var i=0;i<edges.length;i++) {
    if (edges[i].id.substr(0,4)=='edge') {
      edges[i].setAttribute('class','edge');
    }
  }
}
]]></script>
        <defs>
                <circle id="rim" cx="0" cy="0" r="7"/>
                <circle id="rim2" cx="0" cy="0" r="3.5"/>
                <g id="zoomPlus">
                        <use xlink:href="#rim" fill="#404040">
                                <set attributeName="fill" to="#808080" begin="zoomplus.mouseover" end="zoomplus.mouseout"/>
                        </use>
                        <path d="M-4,0h8M0,-4v8" fill="none" stroke="white" stroke-width="1.5" pointer-events="none"/>
                </g>
                <g id="zoomMin">
                        <use xlink:href="#rim" fill="#404040">
                                <set attributeName="fill" to="#808080" begin="zoomminus.mouseover" end="zoomminus.mouseout"/>
                        </use>
                        <path d="M-4,0h8" fill="none" stroke="white" stroke-width="1.5" pointer-events="none"/>
                </g>
                <g id="dirArrow">
                        <path fill="none" stroke="white" stroke-width="1.5" d="M0,-3.0v7 M-2.5,-0.5L0,-3.0L2.5,-0.5"/>
                </g>
               <g id="resetDef">
                       <use xlink:href="#rim2" fill="#404040">
                               <set attributeName="fill" to="#808080" begin="reset.mouseover" end="reset.mouseout"/>
                       </use>
               </g>
        </defs>

<script type="text/javascript">
var viewWidth = 2733;
var viewHeight = 492;
var sectionId = 'dynsection-0';
</script>
<script xlink:href="../../svgpan.js"/>
<svg id="graph" class="graph">
<g id="viewport">
<title>ERISCore/include/HSI.h</title>
<!-- Node1 -->
<g id="node1" class="node">
<title>Node1</title>
<g id="a_node1"><a xlink:title=" ">
<polygon fill="#bfbfbf" stroke="black" points="1880,-455.5 1880,-483.5 2090,-483.5 2090,-455.5 1880,-455.5"/>
<text text-anchor="middle" x="1985" y="-465.1" font-family="Helvetica,sans-Serif" font-size="18.00">ERISCore/include/HSI.h</text>
</a>
</g>
</g>
<!-- Node2 -->
<g id="node2" class="node">
<title>Node2</title>
<g id="a_node2"><a xlink:href="../../dc/d47/_p_c_m1863_8h.html" target="_top" xlink:title=" ">
<polygon fill="none" stroke="black" points="502.5,-325.5 502.5,-353.5 761.5,-353.5 761.5,-325.5 502.5,-325.5"/>
<text text-anchor="middle" x="632" y="-335.1" font-family="Helvetica,sans-Serif" font-size="18.00">ERISCore/include/PCM1863.h</text>
</a>
</g>
</g>
<!-- Node1&#45;&gt;Node2 -->
<g id="edge1" class="edge">
<title>Node1&#45;&gt;Node2</title>
<path fill="none" stroke="midnightblue" d="M1869.73,-457.59C1618.88,-433.86 1024.92,-377.67 761.58,-352.76"/>
<polygon fill="midnightblue" stroke="midnightblue" points="1869.67,-461.11 1879.96,-458.56 1870.33,-454.14 1869.67,-461.11"/>
</g>
<!-- Node4 -->
<g id="node4" class="node">
<title>Node4</title>
<g id="a_node4"><a xlink:href="../../d3/ddb/_analog_inputs_8h.html" target="_top" xlink:title=" ">
<polygon fill="none" stroke="black" points="1841.5,-390.5 1841.5,-418.5 2128.5,-418.5 2128.5,-390.5 1841.5,-390.5"/>
<text text-anchor="middle" x="1985" y="-400.1" font-family="Helvetica,sans-Serif" font-size="18.00">ERISCore/include/AnalogInputs.h</text>
</a>
</g>
</g>
<!-- Node1&#45;&gt;Node4 -->
<g id="edge3" class="edge">
<title>Node1&#45;&gt;Node4</title>
<path fill="none" stroke="midnightblue" d="M1985,-445.16C1985,-436.17 1985,-426.22 1985,-418.54"/>
<polygon fill="midnightblue" stroke="midnightblue" points="1981.5,-445.45 1985,-455.45 1988.5,-445.45 1981.5,-445.45"/>
</g>
<!-- Node5 -->
<g id="node5" class="node">
<title>Node5</title>
<g id="a_node5"><a xlink:href="../../df/d72/_app_manager_8h.html" target="_top" xlink:title=" ">
<polygon fill="none" stroke="black" points="1254,-325.5 1254,-353.5 1538,-353.5 1538,-325.5 1254,-325.5"/>
<text text-anchor="middle" x="1396" y="-335.1" font-family="Helvetica,sans-Serif" font-size="18.00">ERISCore/include/AppManager.h</text>
</a>
</g>
</g>
<!-- Node1&#45;&gt;Node5 -->
<g id="edge48" class="edge">
<title>Node1&#45;&gt;Node5</title>
<path fill="none" stroke="midnightblue" d="M1915.11,-453.31C1798.47,-427.96 1566.13,-377.47 1456.25,-353.59"/>
<polygon fill="midnightblue" stroke="midnightblue" points="1914.49,-456.76 1925.01,-455.46 1915.98,-449.92 1914.49,-456.76"/>
</g>
<!-- Node8 -->
<g id="node8" class="node">
<title>Node8</title>
<g id="a_node8"><a xlink:href="../../d6/dd8/_eris_core_8cpp.html" target="_top" xlink:title=" ">
<polygon fill="none" stroke="black" points="712.5,-0.5 712.5,-28.5 947.5,-28.5 947.5,-0.5 712.5,-0.5"/>
<text text-anchor="middle" x="830" y="-10.1" font-family="Helvetica,sans-Serif" font-size="18.00">ERISCore/src/ErisCore.cpp</text>
</a>
</g>
</g>
<!-- Node1&#45;&gt;Node8 -->
<g id="edge51" class="edge">
<title>Node1&#45;&gt;Node8</title>
<path fill="none" stroke="midnightblue" d="M1869.56,-467.13C1445.73,-461.37 0,-434.81 0,-340.5 0,-340.5 0,-340.5 0,-143.5 0,-72.29 483.43,-35.22 712.4,-21.65"/>
<polygon fill="midnightblue" stroke="midnightblue" points="1869.63,-470.64 1879.68,-467.27 1869.73,-463.64 1869.63,-470.64"/>
</g>
<!-- Node16 -->
<g id="node16" class="node">
<title>Node16</title>
<g id="a_node16"><a xlink:href="../../d9/d3e/_app_base_class_8h.html" target="_top" xlink:title=" ">
<polygon fill="none" stroke="black" points="1615.5,-130.5 1615.5,-158.5 1914.5,-158.5 1914.5,-130.5 1615.5,-130.5"/>
<text text-anchor="middle" x="1765" y="-140.1" font-family="Helvetica,sans-Serif" font-size="18.00">ERISCore/include/AppBaseClass.h</text>
</a>
</g>
</g>
<!-- Node1&#45;&gt;Node16 -->
<g id="edge49" class="edge">
<title>Node1&#45;&gt;Node16</title>
<path fill="none" stroke="midnightblue" d="M2100.15,-461.98C2247.8,-450.4 2485,-419.5 2485,-340.5 2485,-340.5 2485,-340.5 2485,-273.5 2485,-237.5 2492.63,-218.08 2465,-195 2423.83,-160.61 2107.98,-150.11 1914.89,-146.91"/>
<polygon fill="midnightblue" stroke="midnightblue" points="2099.82,-458.49 2090.12,-462.75 2100.36,-465.47 2099.82,-458.49"/>
</g>
<!-- Node23 -->
<g id="node23" class="node">
<title>Node23</title>
<g id="a_node23"><a xlink:href="../../dc/d40/_app_manager_8cpp.html" target="_top" xlink:title=" ">
<polygon fill="none" stroke="black" points="2187.5,-195.5 2187.5,-223.5 2456.5,-223.5 2456.5,-195.5 2187.5,-195.5"/>
<text text-anchor="middle" x="2322" y="-205.1" font-family="Helvetica,sans-Serif" font-size="18.00">ERISCore/src/AppManager.cpp</text>
</a>
</g>
</g>
<!-- Node1&#45;&gt;Node23 -->
<g id="edge50" class="edge">
<title>Node1&#45;&gt;Node23</title>
<path fill="none" stroke="midnightblue" d="M2059.5,-452.71C2085.37,-445.09 2113.72,-434.21 2137,-419 2221.48,-363.83 2291.07,-260.22 2313.98,-223.67"/>
<polygon fill="midnightblue" stroke="midnightblue" points="2058.39,-449.39 2049.72,-455.47 2060.29,-456.12 2058.39,-449.39"/>
</g>
<!-- Node27 -->
<g id="node27" class="node">
<title>Node27</title>
<g id="a_node27"><a xlink:href="../../db/dfc/touch_8cpp.html" target="_top" xlink:title=" ">
<polygon fill="none" stroke="black" points="2513.5,-390.5 2513.5,-418.5 2724.5,-418.5 2724.5,-390.5 2513.5,-390.5"/>
<text text-anchor="middle" x="2619" y="-400.1" font-family="Helvetica,sans-Serif" font-size="18.00">ERISCore/src/touch.cpp</text>
</a>
</g>
</g>
<!-- Node1&#45;&gt;Node27 -->
<g id="edge47" class="edge">
<title>Node1&#45;&gt;Node27</title>
<path fill="none" stroke="midnightblue" d="M2100.61,-457.9C2204.82,-448.22 2362.23,-433.28 2499,-419 2503.69,-418.51 2508.49,-418 2513.33,-417.48"/>
<polygon fill="midnightblue" stroke="midnightblue" points="2100.02,-454.44 2090.38,-458.85 2100.66,-461.41 2100.02,-454.44"/>
</g>
<!-- Node3 -->
<g id="node3" class="node">
<title>Node3</title>
<g id="a_node3"><a xlink:href="../../d1/d2c/_audio_director_8cpp.html" target="_top" xlink:title=" ">
<polygon fill="none" stroke="black" points="289,-130.5 289,-158.5 563,-158.5 563,-130.5 289,-130.5"/>
<text text-anchor="middle" x="426" y="-140.1" font-family="Helvetica,sans-Serif" font-size="18.00">ERISCore/src/AudioDirector.cpp</text>
</a>
</g>
</g>
<!-- Node2&#45;&gt;Node3 -->
<g id="edge2" class="edge">
<title>Node2&#45;&gt;Node3</title>
<path fill="none" stroke="midnightblue" d="M491.76,-336.15C331.01,-331.96 85.86,-320.45 57,-289 -19.45,-205.69 154.71,-170.19 288.98,-155.46"/>
<polygon fill="midnightblue" stroke="midnightblue" points="492.14,-339.66 502.22,-336.41 492.32,-332.66 492.14,-339.66"/>
</g>
<!-- Node4&#45;&gt;Node5 -->
<g id="edge4" class="edge">
<title>Node4&#45;&gt;Node5</title>
<path fill="none" stroke="midnightblue" d="M1853.11,-389.39C1752.71,-378.65 1615.59,-363.99 1517.78,-353.53"/>
<polygon fill="midnightblue" stroke="midnightblue" points="1853,-392.9 1863.32,-390.48 1853.75,-385.94 1853,-392.9"/>
</g>
<!-- Node4&#45;&gt;Node23 -->
<g id="edge46" class="edge">
<title>Node4&#45;&gt;Node23</title>
<path fill="none" stroke="midnightblue" d="M2025.26,-386.35C2072.49,-365.61 2152.53,-328.55 2217,-289 2250.37,-268.53 2286.3,-240.13 2306.28,-223.7"/>
<polygon fill="midnightblue" stroke="midnightblue" points="2023.75,-383.19 2015.98,-390.39 2026.54,-389.6 2023.75,-383.19"/>
</g>
<!-- Node6 -->
<g id="node6" class="node">
<title>Node6</title>
<g id="a_node6"><a xlink:href="../../d7/d07/_app_scope_8h.html" target="_top" xlink:title=" ">
<polygon fill="none" stroke="black" points="416,-260.5 416,-288.5 680,-288.5 680,-260.5 416,-260.5"/>
<text text-anchor="middle" x="548" y="-270.1" font-family="Helvetica,sans-Serif" font-size="18.00">ERISCore/include/AppScope.h</text>
</a>
</g>
</g>
<!-- Node5&#45;&gt;Node6 -->
<g id="edge5" class="edge">
<title>Node5&#45;&gt;Node6</title>
<path fill="none" stroke="midnightblue" d="M1243.55,-328.96C1100.31,-319.72 880,-304.83 689,-289 686.06,-288.76 683.08,-288.51 680.08,-288.25"/>
<polygon fill="midnightblue" stroke="midnightblue" points="1243.53,-332.46 1253.73,-329.61 1243.98,-325.48 1243.53,-332.46"/>
</g>
<!-- Node7 -->
<g id="node7" class="node">
<title>Node7</title>
<g id="a_node7"><a xlink:href="../../d9/db6/_app_audio_to_polyphonic_8h.html" target="_top" xlink:title="Application Example.">
<polygon fill="none" stroke="black" points="284,-195.5 284,-223.5 652,-223.5 652,-195.5 284,-195.5"/>
<text text-anchor="middle" x="468" y="-205.1" font-family="Helvetica,sans-Serif" font-size="18.00">ERISCore/include/AppAudioToPolyphonic.h</text>
</a>
</g>
</g>
<!-- Node5&#45;&gt;Node7 -->
<g id="edge44" class="edge">
<title>Node5&#45;&gt;Node7</title>
<path fill="none" stroke="midnightblue" d="M1243.54,-336.32C973.18,-331.69 435.32,-318.78 407,-289 386.66,-267.62 420.71,-239.77 445.56,-223.64"/>
<polygon fill="midnightblue" stroke="midnightblue" points="1243.78,-339.82 1253.84,-336.49 1243.9,-332.82 1243.78,-339.82"/>
</g>
<!-- Node9 -->
<g id="node9" class="node">
<title>Node9</title>
<g id="a_node9"><a xlink:href="../../d4/d0d/_app_template_8h.html" target="_top" xlink:title=" ">
<polygon fill="none" stroke="black" points="581,-130.5 581,-158.5 869,-158.5 869,-130.5 581,-130.5"/>
<text text-anchor="middle" x="725" y="-140.1" font-family="Helvetica,sans-Serif" font-size="18.00">ERISCore/include/AppTemplate.h</text>
</a>
</g>
</g>
<!-- Node5&#45;&gt;Node9 -->
<g id="edge8" class="edge">
<title>Node5&#45;&gt;Node9</title>
<path fill="none" stroke="midnightblue" d="M1355.07,-321.19C1336.43,-312.58 1314.45,-301.36 1296,-289 1279.78,-278.13 1280.89,-267.81 1263,-260 1119.28,-197.26 1063.95,-262.77 912,-224 851.27,-208.5 784.59,-176.61 749.59,-158.61"/>
<polygon fill="midnightblue" stroke="midnightblue" points="1353.65,-324.39 1364.21,-325.33 1356.54,-318.02 1353.65,-324.39"/>
</g>
<!-- Node10 -->
<g id="node10" class="node">
<title>Node10</title>
<g id="a_node10"><a xlink:href="../../d8/db0/_app_c_q_t_8h.html" target="_top" xlink:title=" ">
<polygon fill="none" stroke="black" points="698.5,-260.5 698.5,-288.5 949.5,-288.5 949.5,-260.5 698.5,-260.5"/>
<text text-anchor="middle" x="824" y="-270.1" font-family="Helvetica,sans-Serif" font-size="18.00">ERISCore/include/AppCQT.h</text>
</a>
</g>
</g>
<!-- Node5&#45;&gt;Node10 -->
<g id="edge10" class="edge">
<title>Node5&#45;&gt;Node10</title>
<path fill="none" stroke="midnightblue" d="M1267.63,-324.36C1170.24,-313.63 1037.39,-299 942.51,-288.55"/>
<polygon fill="midnightblue" stroke="midnightblue" points="1267.51,-327.87 1277.83,-325.48 1268.27,-320.91 1267.51,-327.87"/>
</g>
<!-- Node11 -->
<g id="node11" class="node">
<title>Node11</title>
<g id="a_node11"><a xlink:href="../../d5/d98/_app_reprogram_8h.html" target="_top" xlink:title=" ">
<polygon fill="none" stroke="black" points="887.5,-130.5 887.5,-158.5 1190.5,-158.5 1190.5,-130.5 887.5,-130.5"/>
<text text-anchor="middle" x="1039" y="-140.1" font-family="Helvetica,sans-Serif" font-size="18.00">ERISCore/include/AppReprogram.h</text>
</a>
</g>
</g>
<!-- Node5&#45;&gt;Node11 -->
<g id="edge12" class="edge">
<title>Node5&#45;&gt;Node11</title>
<path fill="none" stroke="midnightblue" d="M1371.49,-318.98C1342.6,-296.02 1298.2,-260.88 1296,-260 1218.69,-229.04 978.98,-285.65 923,-224 897.09,-195.47 947.73,-172.17 990.06,-158.57"/>
<polygon fill="midnightblue" stroke="midnightblue" points="1369.53,-321.9 1379.53,-325.38 1373.89,-316.42 1369.53,-321.9"/>
</g>
<!-- Node12 -->
<g id="node12" class="node">
<title>Node12</title>
<g id="a_node12"><a xlink:href="../../db/d4d/_control_slider_8h.html" target="_top" xlink:title=" ">
<polygon fill="none" stroke="black" points="968,-260.5 968,-288.5 1254,-288.5 1254,-260.5 968,-260.5"/>
<text text-anchor="middle" x="1111" y="-270.1" font-family="Helvetica,sans-Serif" font-size="18.00">ERISCore/include/ControlSlider.h</text>
</a>
</g>
</g>
<!-- Node5&#45;&gt;Node12 -->
<g id="edge14" class="edge">
<title>Node5&#45;&gt;Node12</title>
<path fill="none" stroke="midnightblue" d="M1326.95,-323.24C1278.94,-312.62 1215.62,-298.63 1169.98,-288.54"/>
<polygon fill="midnightblue" stroke="midnightblue" points="1326.43,-326.71 1336.95,-325.45 1327.94,-319.87 1326.43,-326.71"/>
</g>
<!-- Node13 -->
<g id="node13" class="node">
<title>Node13</title>
<g id="a_node13"><a xlink:href="../../d7/d4f/_control_button_8h.html" target="_top" xlink:title=" ">
<polygon fill="none" stroke="black" points="66.5,-260.5 66.5,-288.5 359.5,-288.5 359.5,-260.5 66.5,-260.5"/>
<text text-anchor="middle" x="213" y="-270.1" font-family="Helvetica,sans-Serif" font-size="18.00">ERISCore/include/ControlButton.h</text>
</a>
</g>
</g>
<!-- Node5&#45;&gt;Node13 -->
<g id="edge16" class="edge">
<title>Node5&#45;&gt;Node13</title>
<path fill="none" stroke="midnightblue" d="M1243.45,-332.79C1043.62,-324.93 682.37,-309.39 374,-289 369.24,-288.69 364.41,-288.35 359.52,-288.01"/>
<polygon fill="midnightblue" stroke="midnightblue" points="1243.59,-336.3 1253.72,-333.19 1243.87,-329.3 1243.59,-336.3"/>
</g>
<!-- Node14 -->
<g id="node14" class="node">
<title>Node14</title>
<g id="a_node14"><a xlink:href="../../de/d46/_svc_serial_command_interface_8h.html" target="_top" xlink:title=" ">
<polygon fill="none" stroke="black" points="1424.5,-260.5 1424.5,-288.5 1833.5,-288.5 1833.5,-260.5 1424.5,-260.5"/>
<text text-anchor="middle" x="1629" y="-270.1" font-family="Helvetica,sans-Serif" font-size="18.00">ERISCore/include/SvcSerialCommandInterface.h</text>
</a>
</g>
</g>
<!-- Node5&#45;&gt;Node14 -->
<g id="edge18" class="edge">
<title>Node5&#45;&gt;Node14</title>
<path fill="none" stroke="midnightblue" d="M1453.94,-322.83C1493,-312.27 1543.94,-298.5 1580.78,-288.54"/>
<polygon fill="midnightblue" stroke="midnightblue" points="1453.02,-319.46 1444.28,-325.45 1454.84,-326.21 1453.02,-319.46"/>
</g>
<!-- Node21 -->
<g id="node21" class="node">
<title>Node21</title>
<g id="a_node21"><a xlink:href="../../d7/d7e/_app_wren_8cpp.html" target="_top" xlink:title=" ">
<polygon fill="none" stroke="black" points="1857,-0.5 1857,-28.5 2099,-28.5 2099,-0.5 1857,-0.5"/>
<text text-anchor="middle" x="1978" y="-10.1" font-family="Helvetica,sans-Serif" font-size="18.00">ERISCore/src/AppWren.cpp</text>
</a>
</g>
</g>
<!-- Node5&#45;&gt;Node21 -->
<g id="edge45" class="edge">
<title>Node5&#45;&gt;Node21</title>
<path fill="none" stroke="midnightblue" d="M1548.43,-332.53C1724.32,-324.73 1995.02,-309.61 2038,-289 2092.13,-263.05 2226.29,-112.05 2189,-65 2175.53,-48.01 2131.43,-36.28 2087,-28.53"/>
<polygon fill="midnightblue" stroke="midnightblue" points="1548.13,-329.04 1538.29,-332.97 1548.44,-336.03 1548.13,-329.04"/>
</g>
<!-- Node22 -->
<g id="node22" class="node">
<title>Node22</title>
<g id="a_node22"><a xlink:href="../../d4/db1/_app_base_class_8cpp.html" target="_top" xlink:title=" ">
<polygon fill="none" stroke="black" points="1896,-65.5 1896,-93.5 2180,-93.5 2180,-65.5 1896,-65.5"/>
<text text-anchor="middle" x="2038" y="-75.1" font-family="Helvetica,sans-Serif" font-size="18.00">ERISCore/src/AppBaseClass.cpp</text>
</a>
</g>
</g>
<!-- Node5&#45;&gt;Node22 -->
<g id="edge42" class="edge">
<title>Node5&#45;&gt;Node22</title>
<path fill="none" stroke="midnightblue" d="M1548.48,-335.19C1697.68,-330.27 1913.6,-318.23 1992,-289 2037.9,-271.89 2058.82,-267.67 2081,-224 2103.85,-179.02 2067.37,-119.8 2048.37,-93.76"/>
<polygon fill="midnightblue" stroke="midnightblue" points="1548.18,-331.69 1538.3,-335.51 1548.41,-338.69 1548.18,-331.69"/>
</g>
<!-- Node5&#45;&gt;Node23 -->
<g id="edge41" class="edge">
<title>Node5&#45;&gt;Node23</title>
<path fill="none" stroke="midnightblue" d="M1548.39,-336.34C1740.58,-332.3 2059.63,-320.9 2173,-289 2199.03,-281.68 2265.25,-243.94 2299.98,-223.57"/>
<polygon fill="midnightblue" stroke="midnightblue" points="1548.13,-332.84 1538.2,-336.55 1548.27,-339.84 1548.13,-332.84"/>
</g>
<!-- Node26 -->
<g id="node26" class="node">
<title>Node26</title>
<g id="a_node26"><a xlink:href="../../da/d7d/_svc_serial_command_interface_8cpp.html" target="_top" xlink:title=" ">
<polygon fill="none" stroke="black" points="1661,-195.5 1661,-223.5 2055,-223.5 2055,-195.5 1661,-195.5"/>
<text text-anchor="middle" x="1858" y="-205.1" font-family="Helvetica,sans-Serif" font-size="18.00">ERISCore/src/SvcSerialCommandInterface.cpp</text>
</a>
</g>
</g>
<!-- Node5&#45;&gt;Node26 -->
<g id="edge43" class="edge">
<title>Node5&#45;&gt;Node26</title>
<path fill="none" stroke="midnightblue" d="M1548.28,-330.38C1668.76,-322.51 1820.27,-308.85 1842,-289 1860.18,-272.4 1860.87,-241.23 1859.56,-223.57"/>
<polygon fill="midnightblue" stroke="midnightblue" points="1547.95,-326.89 1538.2,-331.03 1548.4,-333.88 1547.95,-326.89"/>
</g>
<!-- Node6&#45;&gt;Node7 -->
<g id="edge6" class="edge">
<title>Node6&#45;&gt;Node7</title>
<path fill="none" stroke="midnightblue" d="M523.54,-254.24C510.9,-244.28 495.81,-232.4 484.55,-223.54"/>
<polygon fill="midnightblue" stroke="midnightblue" points="521.4,-257.01 531.42,-260.45 525.73,-251.51 521.4,-257.01"/>
</g>
<!-- Node7&#45;&gt;Node8 -->
<g id="edge7" class="edge">
<title>Node7&#45;&gt;Node8</title>
<path fill="none" stroke="midnightblue" d="M341.94,-193.32C292.55,-182.08 253.32,-162.8 280,-130 333.42,-64.31 567.37,-35.06 712.4,-23.03"/>
<polygon fill="midnightblue" stroke="midnightblue" points="341.43,-196.79 351.94,-195.47 342.9,-189.95 341.43,-196.79"/>
</g>
<!-- Node9&#45;&gt;Node8 -->
<g id="edge9" class="edge">
<title>Node9&#45;&gt;Node8</title>
<path fill="none" stroke="midnightblue" d="M742.35,-122.35C764.12,-95.8 800.84,-51.05 819.06,-28.84"/>
<polygon fill="midnightblue" stroke="midnightblue" points="739.48,-120.33 735.84,-130.28 744.89,-124.77 739.48,-120.33"/>
</g>
<!-- Node10&#45;&gt;Node7 -->
<g id="edge11" class="edge">
<title>Node10&#45;&gt;Node7</title>
<path fill="none" stroke="midnightblue" d="M740.37,-258.7C680.1,-248.03 599.52,-233.77 541.67,-223.54"/>
<polygon fill="midnightblue" stroke="midnightblue" points="739.78,-262.15 750.24,-260.45 741,-255.26 739.78,-262.15"/>
</g>
<!-- Node11&#45;&gt;Node8 -->
<g id="edge13" class="edge">
<title>Node11&#45;&gt;Node8</title>
<path fill="none" stroke="midnightblue" d="M928.64,-128.63C887.65,-120.73 847.93,-109.41 835,-94 819.64,-75.69 822.94,-45.73 826.57,-28.61"/>
<polygon fill="midnightblue" stroke="midnightblue" points="928.04,-132.08 938.51,-130.47 929.32,-125.2 928.04,-132.08"/>
</g>
<!-- Node12&#45;&gt;Node7 -->
<g id="edge15" class="edge">
<title>Node12&#45;&gt;Node7</title>
<path fill="none" stroke="midnightblue" d="M968.01,-259.49C858.32,-248.74 708.05,-234.02 600.94,-223.53"/>
<polygon fill="midnightblue" stroke="midnightblue" points="967.87,-262.99 978.16,-260.48 968.55,-256.03 967.87,-262.99"/>
</g>
<!-- Node13&#45;&gt;Node7 -->
<g id="edge17" class="edge">
<title>Node13&#45;&gt;Node7</title>
<path fill="none" stroke="midnightblue" d="M275.59,-258.04C318.45,-247.45 374.65,-233.56 415.23,-223.54"/>
<polygon fill="midnightblue" stroke="midnightblue" points="274.7,-254.65 265.84,-260.45 276.38,-261.45 274.7,-254.65"/>
</g>
<!-- Node14&#45;&gt;Node8 -->
<g id="edge40" class="edge">
<title>Node14&#45;&gt;Node8</title>
<path fill="none" stroke="midnightblue" d="M1626.6,-250.28C1621.82,-217.31 1607.87,-157.87 1568,-130 1440.34,-40.75 997.8,-180.1 868,-94 845.54,-79.1 835.94,-46.97 832.18,-28.77"/>
<polygon fill="midnightblue" stroke="midnightblue" points="1623.15,-250.88 1627.89,-260.36 1630.09,-249.99 1623.15,-250.88"/>
</g>
<!-- Node15 -->
<g id="node15" class="node">
<title>Node15</title>
<g id="a_node15"><a xlink:href="../../db/dc8/_audio_director_8h.html" target="_top" xlink:title=" ">
<polygon fill="none" stroke="black" points="932.5,-195.5 932.5,-223.5 1221.5,-223.5 1221.5,-195.5 932.5,-195.5"/>
<text text-anchor="middle" x="1077" y="-205.1" font-family="Helvetica,sans-Serif" font-size="18.00">ERISCore/include/AudioDirector.h</text>
</a>
</g>
</g>
<!-- Node14&#45;&gt;Node15 -->
<g id="edge19" class="edge">
<title>Node14&#45;&gt;Node15</title>
<path fill="none" stroke="midnightblue" d="M1504.83,-259.33C1410.87,-248.6 1282.83,-233.99 1191.37,-223.55"/>
<polygon fill="midnightblue" stroke="midnightblue" points="1504.63,-262.83 1514.96,-260.48 1505.42,-255.87 1504.63,-262.83"/>
</g>
<!-- Node14&#45;&gt;Node23 -->
<g id="edge35" class="edge">
<title>Node14&#45;&gt;Node23</title>
<path fill="none" stroke="midnightblue" d="M1782.28,-259.57C1903.51,-248.54 2071.12,-233.31 2187.25,-222.75"/>
<polygon fill="midnightblue" stroke="midnightblue" points="1781.81,-256.09 1772.17,-260.48 1782.45,-263.06 1781.81,-256.09"/>
</g>
<!-- Node24 -->
<g id="node24" class="node">
<title>Node24</title>
<g id="a_node24"><a xlink:href="../../d7/d5f/_svc_data_dictionary_8h.html" target="_top" xlink:title="Data Dictionary service provides an interface to a data dictionary service the service shall provide ...">
<polygon fill="none" stroke="black" points="1239.5,-195.5 1239.5,-223.5 1566.5,-223.5 1566.5,-195.5 1239.5,-195.5"/>
<text text-anchor="middle" x="1403" y="-205.1" font-family="Helvetica,sans-Serif" font-size="18.00">ERISCore/include/SvcDataDictionary.h</text>
</a>
</g>
</g>
<!-- Node14&#45;&gt;Node24 -->
<g id="edge36" class="edge">
<title>Node14&#45;&gt;Node24</title>
<path fill="none" stroke="midnightblue" d="M1572.32,-257.7C1534.5,-247.16 1485.36,-233.46 1449.77,-223.54"/>
<polygon fill="midnightblue" stroke="midnightblue" points="1571.6,-261.13 1582.17,-260.45 1573.48,-254.39 1571.6,-261.13"/>
</g>
<!-- Node14&#45;&gt;Node26 -->
<g id="edge39" class="edge">
<title>Node14&#45;&gt;Node26</title>
<path fill="none" stroke="midnightblue" d="M1686.43,-257.7C1724.76,-247.16 1774.55,-233.46 1810.61,-223.54"/>
<polygon fill="midnightblue" stroke="midnightblue" points="1685.16,-254.42 1676.45,-260.45 1687.02,-261.17 1685.16,-254.42"/>
</g>
<!-- Node15&#45;&gt;Node3 -->
<g id="edge34" class="edge">
<title>Node15&#45;&gt;Node3</title>
<path fill="none" stroke="midnightblue" d="M932.23,-194.49C821.18,-183.74 669.03,-169.02 560.6,-158.53"/>
<polygon fill="midnightblue" stroke="midnightblue" points="932.22,-198 942.51,-195.48 932.89,-191.04 932.22,-198"/>
</g>
<!-- Node15&#45;&gt;Node5 -->
<g id="edge20" class="edge">
<title>Node15&#45;&gt;Node5</title>
<path fill="none" stroke="midnightblue" d="M1194.19,-225.02C1250.22,-233.56 1310.19,-245.53 1334,-260 1360.27,-275.97 1379.85,-307.38 1389.43,-325.25"/>
<polygon fill="midnightblue" stroke="midnightblue" points="1194.56,-221.54 1184.15,-223.52 1193.52,-228.46 1194.56,-221.54"/>
</g>
<!-- Node15&#45;&gt;Node16 -->
<g id="edge21" class="edge">
<title>Node15&#45;&gt;Node16</title>
<path fill="none" stroke="midnightblue" d="M1229.29,-194.55C1346.72,-183.8 1507.92,-169.04 1622.75,-158.53"/>
<polygon fill="midnightblue" stroke="midnightblue" points="1228.78,-191.09 1219.14,-195.48 1229.41,-198.06 1228.78,-191.09"/>
</g>
<!-- Node16&#45;&gt;Node5 -->
<g id="edge22" class="edge">
<title>Node16&#45;&gt;Node5</title>
<path fill="none" stroke="midnightblue" d="M1925.05,-153.62C1985.82,-160.35 2045.02,-172.62 2064,-195 2072.34,-204.83 2071.58,-213.57 2064,-224 2003.7,-307 1715.62,-330.05 1538.04,-336.32"/>
<polygon fill="midnightblue" stroke="midnightblue" points="1925.2,-150.12 1914.89,-152.55 1924.47,-157.08 1925.2,-150.12"/>
</g>
<!-- Node16&#45;&gt;Node14 -->
<g id="edge23" class="edge">
<title>Node16&#45;&gt;Node14</title>
<path fill="none" stroke="midnightblue" d="M1701.3,-162.21C1683.26,-169.66 1665.01,-180.21 1652,-195 1635.68,-213.55 1630.92,-243.15 1629.54,-260.21"/>
<polygon fill="midnightblue" stroke="midnightblue" points="1702.61,-165.45 1710.68,-158.59 1700.09,-158.92 1702.61,-165.45"/>
</g>
<!-- Node17 -->
<g id="node17" class="node">
<title>Node17</title>
<g id="a_node17"><a xlink:href="../../d2/d14/_app_a_if_e_s_8h.html" target="_top" xlink:title=" ">
<polygon fill="none" stroke="black" points="877,-65.5 877,-93.5 1135,-93.5 1135,-65.5 877,-65.5"/>
<text text-anchor="middle" x="1006" y="-75.1" font-family="Helvetica,sans-Serif" font-size="18.00">ERISCore/include/AppAIfES.h</text>
</a>
</g>
</g>
<!-- Node16&#45;&gt;Node17 -->
<g id="edge24" class="edge">
<title>Node16&#45;&gt;Node17</title>
<path fill="none" stroke="midnightblue" d="M1604.98,-130.32C1603.65,-130.21 1602.32,-130.11 1601,-130 1397.92,-113.64 1346.95,-111.92 1144,-94 1141.12,-93.75 1138.21,-93.49 1135.28,-93.22"/>
<polygon fill="midnightblue" stroke="midnightblue" points="1605.04,-133.84 1615.29,-131.15 1605.61,-126.86 1605.04,-133.84"/>
</g>
<!-- Node18 -->
<g id="node18" class="node">
<title>Node18</title>
<g id="a_node18"><a xlink:href="../../d6/d59/_svc_eris_audio_parameter_controller_8h.html" target="_top" xlink:title=" ">
<polygon fill="none" stroke="black" points="1153.5,-65.5 1153.5,-93.5 1602.5,-93.5 1602.5,-65.5 1153.5,-65.5"/>
<text text-anchor="middle" x="1378" y="-75.1" font-family="Helvetica,sans-Serif" font-size="18.00">ERISCore/include/SvcErisAudioParameterController.h</text>
</a>
</g>
</g>
<!-- Node16&#45;&gt;Node18 -->
<g id="edge26" class="edge">
<title>Node16&#45;&gt;Node18</title>
<path fill="none" stroke="midnightblue" d="M1674.89,-128.83C1609.29,-118.15 1521.23,-103.82 1458.08,-93.54"/>
<polygon fill="midnightblue" stroke="midnightblue" points="1674.38,-132.29 1684.81,-130.45 1675.51,-125.38 1674.38,-132.29"/>
</g>
<!-- Node20 -->
<g id="node20" class="node">
<title>Node20</title>
<g id="a_node20"><a xlink:href="../../d5/d58/_app_wren_8h.html" target="_top" xlink:title=" ">
<polygon fill="none" stroke="black" points="1620.5,-65.5 1620.5,-93.5 1877.5,-93.5 1877.5,-65.5 1620.5,-65.5"/>
<text text-anchor="middle" x="1749" y="-75.1" font-family="Helvetica,sans-Serif" font-size="18.00">ERISCore/include/AppWren.h</text>
</a>
</g>
</g>
<!-- Node16&#45;&gt;Node20 -->
<g id="edge30" class="edge">
<title>Node16&#45;&gt;Node20</title>
<path fill="none" stroke="midnightblue" d="M1759.15,-120.46C1756.84,-111.39 1754.28,-101.3 1752.31,-93.54"/>
<polygon fill="midnightblue" stroke="midnightblue" points="1755.83,-121.62 1761.68,-130.45 1762.62,-119.89 1755.83,-121.62"/>
</g>
<!-- Node16&#45;&gt;Node22 -->
<g id="edge33" class="edge">
<title>Node16&#45;&gt;Node22</title>
<path fill="none" stroke="midnightblue" d="M1831.43,-128.17C1877.39,-117.56 1937.87,-103.61 1981.51,-93.54"/>
<polygon fill="midnightblue" stroke="midnightblue" points="1830.52,-124.79 1821.57,-130.45 1832.1,-131.61 1830.52,-124.79"/>
</g>
<!-- Node17&#45;&gt;Node8 -->
<g id="edge25" class="edge">
<title>Node17&#45;&gt;Node8</title>
<path fill="none" stroke="midnightblue" d="M959.97,-62.02C930.78,-51.57 893.55,-38.25 866.42,-28.54"/>
<polygon fill="midnightblue" stroke="midnightblue" points="958.94,-65.37 969.53,-65.45 961.3,-58.78 958.94,-65.37"/>
</g>
<!-- Node18&#45;&gt;Node8 -->
<g id="edge29" class="edge">
<title>Node18&#45;&gt;Node8</title>
<path fill="none" stroke="midnightblue" d="M1254.73,-64.33C1161.45,-53.6 1034.34,-38.99 943.54,-28.55"/>
<polygon fill="midnightblue" stroke="midnightblue" points="1254.45,-67.82 1264.79,-65.48 1255.25,-60.87 1254.45,-67.82"/>
</g>
<!-- Node18&#45;&gt;Node15 -->
<g id="edge27" class="edge">
<title>Node18&#45;&gt;Node15</title>
<path fill="none" stroke="midnightblue" d="M1320.46,-96.55C1294.51,-104.86 1263.92,-116.19 1238,-130 1218.94,-140.16 1217.83,-148.41 1199,-159 1172.6,-173.85 1140.85,-186.59 1116.35,-195.42"/>
<polygon fill="midnightblue" stroke="midnightblue" points="1321.67,-99.84 1330.17,-93.51 1319.58,-93.16 1321.67,-99.84"/>
</g>
<!-- Node19 -->
<g id="node19" class="node">
<title>Node19</title>
<g id="a_node19"><a xlink:href="../../d5/d06/_svc_eris_audio_parameter_controller_8cpp.html" target="_top" xlink:title=" ">
<polygon fill="none" stroke="black" points="1161,-0.5 1161,-28.5 1595,-28.5 1595,-0.5 1161,-0.5"/>
<text text-anchor="middle" x="1378" y="-10.1" font-family="Helvetica,sans-Serif" font-size="18.00">ERISCore/src/SvcErisAudioParameterController.cpp</text>
</a>
</g>
</g>
<!-- Node18&#45;&gt;Node19 -->
<g id="edge28" class="edge">
<title>Node18&#45;&gt;Node19</title>
<path fill="none" stroke="midnightblue" d="M1378,-55.16C1378,-46.17 1378,-36.22 1378,-28.54"/>
<polygon fill="midnightblue" stroke="midnightblue" points="1374.5,-55.45 1378,-65.45 1381.5,-55.45 1374.5,-55.45"/>
</g>
<!-- Node20&#45;&gt;Node8 -->
<g id="edge32" class="edge">
<title>Node20&#45;&gt;Node8</title>
<path fill="none" stroke="midnightblue" d="M1610.41,-64.97C1368.36,-45.62 1098.34,-29.92 947.52,-21.69"/>
<polygon fill="midnightblue" stroke="midnightblue" points="1610.22,-68.47 1620.46,-65.78 1610.78,-61.49 1610.22,-68.47"/>
</g>
<!-- Node20&#45;&gt;Node21 -->
<g id="edge31" class="edge">
<title>Node20&#45;&gt;Node21</title>
<path fill="none" stroke="midnightblue" d="M1806.43,-62.7C1844.76,-52.16 1894.55,-38.46 1930.61,-28.54"/>
<polygon fill="midnightblue" stroke="midnightblue" points="1805.16,-59.42 1796.45,-65.45 1807.02,-66.17 1805.16,-59.42"/>
</g>
<!-- Node24&#45;&gt;Node5 -->
<g id="edge37" class="edge">
<title>Node24&#45;&gt;Node5</title>
<path fill="none" stroke="midnightblue" d="M1401.72,-233.9C1400.25,-260.71 1397.9,-303.73 1396.72,-325.28"/>
<polygon fill="midnightblue" stroke="midnightblue" points="1405.22,-234.01 1402.27,-223.84 1398.23,-233.63 1405.22,-234.01"/>
</g>
<!-- Node25 -->
<g id="node25" class="node">
<title>Node25</title>
<g id="a_node25"><a xlink:href="../../dc/dc4/_svc_data_dictionary_8cpp.html" target="_top" xlink:title="Data Dictionary service provides an interface to a data dictionary service the service shall provide ...">
<polygon fill="none" stroke="black" points="1247,-130.5 1247,-158.5 1559,-158.5 1559,-130.5 1247,-130.5"/>
<text text-anchor="middle" x="1403" y="-140.1" font-family="Helvetica,sans-Serif" font-size="18.00">ERISCore/src/SvcDataDictionary.cpp</text>
</a>
</g>
</g>
<!-- Node24&#45;&gt;Node25 -->
<g id="edge38" class="edge">
<title>Node24&#45;&gt;Node25</title>
<path fill="none" stroke="midnightblue" d="M1403,-185.16C1403,-176.17 1403,-166.22 1403,-158.54"/>
<polygon fill="midnightblue" stroke="midnightblue" points="1399.5,-185.45 1403,-195.45 1406.5,-185.45 1399.5,-185.45"/>
</g>
</g>
</svg>
        <g id="navigator" transform="translate(0 0)" fill="#404254">
                <rect fill="#f2f5e9" fill-opacity="0.5" stroke="#606060" stroke-width=".5" x="0" y="0" width="60" height="60"/>
                <use id="zoomplus" xlink:href="#zoomPlus" x="17" y="9" onmousedown="handleZoom(evt,'in')"/>
                <use id="zoomminus" xlink:href="#zoomMin" x="42" y="9" onmousedown="handleZoom(evt,'out')"/>
                <use id="reset" xlink:href="#resetDef" x="30" y="36" onmousedown="handleReset()"/>
                <g id="arrowUp" xlink:href="#dirArrow" transform="translate(30 24)" onmousedown="handlePan(0,-1)">
                  <use xlink:href="#rim" fill="#404040">
                        <set attributeName="fill" to="#808080" begin="arrowUp.mouseover" end="arrowUp.mouseout"/>
                  </use>
                  <path fill="none" stroke="white" stroke-width="1.5" d="M0,-3.0v7 M-2.5,-0.5L0,-3.0L2.5,-0.5"/>
                </g>
                <g id="arrowRight" xlink:href="#dirArrow" transform="rotate(90) translate(36 -43)" onmousedown="handlePan(1,0)">
                  <use xlink:href="#rim" fill="#404040">
                        <set attributeName="fill" to="#808080" begin="arrowRight.mouseover" end="arrowRight.mouseout"/>
                  </use>
                  <path fill="none" stroke="white" stroke-width="1.5" d="M0,-3.0v7 M-2.5,-0.5L0,-3.0L2.5,-0.5"/>
                </g>
                <g id="arrowDown" xlink:href="#dirArrow" transform="rotate(180) translate(-30 -48)" onmousedown="handlePan(0,1)">
                  <use xlink:href="#rim" fill="#404040">
                        <set attributeName="fill" to="#808080" begin="arrowDown.mouseover" end="arrowDown.mouseout"/>
                  </use>
                  <path fill="none" stroke="white" stroke-width="1.5" d="M0,-3.0v7 M-2.5,-0.5L0,-3.0L2.5,-0.5"/>
                </g>
                <g id="arrowLeft" xlink:href="#dirArrow" transform="rotate(270) translate(-36 17)" onmousedown="handlePan(-1,0)">
                  <use xlink:href="#rim" fill="#404040">
                        <set attributeName="fill" to="#808080" begin="arrowLeft.mouseover" end="arrowLeft.mouseout"/>
                  </use>
                  <path fill="none" stroke="white" stroke-width="1.5" d="M0,-3.0v7 M-2.5,-0.5L0,-3.0L2.5,-0.5"/>
                </g>
        </g>
        <svg viewBox="0 0 15 15" width="100%" height="30px" preserveAspectRatio="xMaxYMin meet">
         <g id="arrow_out" transform="scale(0.3 0.3)">
          <a xlink:href="_h_s_i_8h__dep__incl_org.svg" target="_base">
           <rect id="button" ry="5" rx="5" y="6" x="6" height="38" width="38"
                fill="#f2f5e9" fill-opacity="0.5" stroke="#606060" stroke-width="1.0"/>
           <path id="arrow"
             d="M 11.500037,31.436501 C 11.940474,20.09759 22.043105,11.32322 32.158766,21.979434 L 37.068811,17.246167 C 37.068811,17.246167 37.088388,32 37.088388,32 L 22.160133,31.978069 C 22.160133,31.978069 26.997745,27.140456 26.997745,27.140456 C 18.528582,18.264221 13.291696,25.230495 11.500037,31.436501 z"
             style="fill:#404040;"/>
          </a>
         </g>
        </svg>
</svg>
