<?xml version="1.0" encoding="UTF-8" standalone="no"?>
<!DOCTYPE svg PUBLIC "-//W3C//DTD SVG 1.1//EN"
 "http://www.w3.org/Graphics/SVG/1.1/DTD/svg11.dtd">
<!-- Generated by graphviz version 2.47.3 (20210619.1520)
 -->
<!-- Title: D:/brian/Dev/Eris/ERISCore/src/ILI9341_t3_ERIS.cpp Pages: 1 -->
<!--zoomable 391 -->
<svg id="main" version="1.1" xmlns="http://www.w3.org/2000/svg" xmlns:xlink="http://www.w3.org/1999/xlink" xml:space="preserve" onload="init(evt)">
<style type="text/css"><![CDATA[
.edge:hover path { stroke: red; }
.edge:hover polygon { stroke: red; fill: red; }
]]></style>
<script type="text/javascript"><![CDATA[
var edges = document.getElementsByTagName('g');
if (edges && edges.length) {
  for (var i=0;i<edges.length;i++) {
    if (edges[i].id.substr(0,4)=='edge') {
      edges[i].setAttribute('class','edge');
    }
  }
}
]]></script>
        <defs>
                <circle id="rim" cx="0" cy="0" r="7"/>
                <circle id="rim2" cx="0" cy="0" r="3.5"/>
                <g id="zoomPlus">
                        <use xlink:href="#rim" fill="#404040">
                                <set attributeName="fill" to="#808080" begin="zoomplus.mouseover" end="zoomplus.mouseout"/>
                        </use>
                        <path d="M-4,0h8M0,-4v8" fill="none" stroke="white" stroke-width="1.5" pointer-events="none"/>
                </g>
                <g id="zoomMin">
                        <use xlink:href="#rim" fill="#404040">
                                <set attributeName="fill" to="#808080" begin="zoomminus.mouseover" end="zoomminus.mouseout"/>
                        </use>
                        <path d="M-4,0h8" fill="none" stroke="white" stroke-width="1.5" pointer-events="none"/>
                </g>
                <g id="dirArrow">
                        <path fill="none" stroke="white" stroke-width="1.5" d="M0,-3.0v7 M-2.5,-0.5L0,-3.0L2.5,-0.5"/>
                </g>
               <g id="resetDef">
                       <use xlink:href="#rim2" fill="#404040">
                               <set attributeName="fill" to="#808080" begin="reset.mouseover" end="reset.mouseout"/>
                       </use>
               </g>
        </defs>

<script type="text/javascript">
var viewWidth = 702;
var viewHeight = 391;
var sectionId = 'dynsection-0';
</script>
<script xlink:href="../../svgpan.js"/>
<svg id="graph" class="graph">
<g id="viewport">
<title>D:/brian/Dev/Eris/ERISCore/src/ILI9341_t3_ERIS.cpp</title>
<polygon fill="white" stroke="transparent" points="-4,4 -4,-387 697.5,-387 697.5,4 -4,4"/>
<!-- Node1 -->
<g id="node1" class="node">
<title>Node1</title>
<g id="a_node1"><a xlink:title=" ">
<polygon fill="#bfbfbf" stroke="black" points="52,-348.5 52,-382.5 214,-382.5 214,-348.5 52,-348.5"/>
<text text-anchor="start" x="60" y="-368.9" font-family="Helvetica,sans-Serif" font-size="12.00">D:/brian/Dev/Eris/ERISCore</text>
<text text-anchor="middle" x="133" y="-355.9" font-family="Helvetica,sans-Serif" font-size="12.00">/src/ILI9341_t3_ERIS.cpp</text>
</a>
</g>
</g>
<!-- Node2 -->
<g id="node2" class="node">
<title>Node2</title>
<g id="a_node2"><a xlink:href="../../d2/dda/_i_l_i9341__t3___e_r_i_s_8h.html" target="_top" xlink:title=" ">
<polygon fill="white" stroke="black" points="76,-290.5 76,-311.5 190,-311.5 190,-290.5 76,-290.5"/>
<text text-anchor="middle" x="133" y="-297.9" font-family="Helvetica,sans-Serif" font-size="12.00">ILI9341_t3_ERIS.h</text>
</a>
</g>
</g>
<!-- Node1&#45;&gt;Node2 -->
<g id="edge1" class="edge">
<title>Node1&#45;&gt;Node2</title>
<path fill="none" stroke="midnightblue" d="M133,-348.4C133,-340.36 133,-330.54 133,-322.01"/>
<polygon fill="midnightblue" stroke="midnightblue" points="136.5,-321.8 133,-311.8 129.5,-321.8 136.5,-321.8"/>
</g>
<!-- Node3 -->
<g id="node3" class="node">
<title>Node3</title>
<g id="a_node3"><a xlink:title=" ">
<polygon fill="white" stroke="#bfbfbf" points="0,-232.5 0,-253.5 86,-253.5 86,-232.5 0,-232.5"/>
<text text-anchor="middle" x="43" y="-239.9" font-family="Helvetica,sans-Serif" font-size="12.00">ILI9341_t3n.h</text>
</a>
</g>
</g>
<!-- Node2&#45;&gt;Node3 -->
<g id="edge2" class="edge">
<title>Node2&#45;&gt;Node3</title>
<path fill="none" stroke="midnightblue" d="M117.32,-290.25C103.51,-281.65 83.18,-269 67.27,-259.1"/>
<polygon fill="midnightblue" stroke="midnightblue" points="68.84,-255.95 58.5,-253.64 65.14,-261.9 68.84,-255.95"/>
</g>
<!-- Node4 -->
<g id="node4" class="node">
<title>Node4</title>
<g id="a_node4"><a xlink:href="../../d5/d3e/_sdio_card_8h.html" target="_top" xlink:title=" ">
<polygon fill="white" stroke="black" points="156.5,-116.5 156.5,-137.5 277.5,-137.5 277.5,-116.5 156.5,-116.5"/>
<text text-anchor="middle" x="217" y="-123.9" font-family="Helvetica,sans-Serif" font-size="12.00">SdCard/SdioCard.h</text>
</a>
</g>
</g>
<!-- Node2&#45;&gt;Node4 -->
<g id="edge3" class="edge">
<title>Node2&#45;&gt;Node4</title>
<path fill="none" stroke="midnightblue" d="M134.29,-290.18C137.54,-268.06 147.54,-213.21 171,-174 177.66,-162.87 187.6,-152.47 196.54,-144.38"/>
<polygon fill="midnightblue" stroke="midnightblue" points="199.06,-146.83 204.34,-137.65 194.49,-141.53 199.06,-146.83"/>
</g>
<!-- Node8 -->
<g id="node6" class="node">
<title>Node8</title>
<g id="a_node6"><a xlink:href="../../de/d9b/_sd_fat_config_8h.html" target="_top" xlink:title="configuration definitions">
<polygon fill="white" stroke="red" points="177,-0.5 177,-21.5 269,-21.5 269,-0.5 177,-0.5"/>
<text text-anchor="middle" x="223" y="-7.9" font-family="Helvetica,sans-Serif" font-size="12.00">SdFatConfig.h</text>
</a>
</g>
</g>
<!-- Node2&#45;&gt;Node8 -->
<g id="edge7" class="edge">
<title>Node2&#45;&gt;Node8</title>
<path fill="none" stroke="midnightblue" d="M130.28,-290.33C125.02,-270.79 114,-225.13 114,-186 114,-186 114,-186 114,-126 114,-94.62 113.14,-82.29 133,-58 145.07,-43.24 163.11,-32.72 179.88,-25.5"/>
<polygon fill="midnightblue" stroke="midnightblue" points="181.57,-28.59 189.55,-21.63 178.96,-22.1 181.57,-28.59"/>
</g>
<!-- Node15 -->
<g id="node8" class="node">
<title>Node15</title>
<g id="a_node8"><a xlink:href="../../d5/ddc/_sd_fat_8h.html" target="_top" xlink:title="main SdFs include file.">
<polygon fill="white" stroke="black" points="336,-232.5 336,-253.5 394,-253.5 394,-232.5 336,-232.5"/>
<text text-anchor="middle" x="365" y="-239.9" font-family="Helvetica,sans-Serif" font-size="12.00">SdFat.h</text>
</a>
</g>
</g>
<!-- Node2&#45;&gt;Node15 -->
<g id="edge8" class="edge">
<title>Node2&#45;&gt;Node15</title>
<path fill="none" stroke="midnightblue" d="M172.62,-290.44C215.51,-280.08 283.49,-263.68 326.1,-253.39"/>
<polygon fill="midnightblue" stroke="midnightblue" points="326.93,-256.79 335.83,-251.04 325.29,-249.99 326.93,-256.79"/>
</g>
<!-- Node5 -->
<g id="node5" class="node">
<title>Node5</title>
<g id="a_node5"><a xlink:href="../../d9/da3/_sys_call_8h.html" target="_top" xlink:title="SysCall class.">
<polygon fill="white" stroke="red" points="272,-58.5 272,-79.5 394,-79.5 394,-58.5 272,-58.5"/>
<text text-anchor="middle" x="333" y="-65.9" font-family="Helvetica,sans-Serif" font-size="12.00">../common/SysCall.h</text>
</a>
</g>
</g>
<!-- Node4&#45;&gt;Node5 -->
<g id="edge4" class="edge">
<title>Node4&#45;&gt;Node5</title>
<path fill="none" stroke="midnightblue" d="M236.94,-116.37C255.48,-107.42 283.3,-93.99 304.24,-83.88"/>
<polygon fill="midnightblue" stroke="midnightblue" points="305.84,-87 313.32,-79.5 302.79,-80.7 305.84,-87"/>
</g>
<!-- Node12 -->
<g id="node7" class="node">
<title>Node12</title>
<g id="a_node7"><a xlink:href="../../da/d60/_sd_card_interface_8h.html" target="_top" xlink:title=" ">
<polygon fill="white" stroke="red" points="142.5,-58.5 142.5,-79.5 253.5,-79.5 253.5,-58.5 142.5,-58.5"/>
<text text-anchor="middle" x="198" y="-65.9" font-family="Helvetica,sans-Serif" font-size="12.00">SdCardInterface.h</text>
</a>
</g>
</g>
<!-- Node4&#45;&gt;Node12 -->
<g id="edge6" class="edge">
<title>Node4&#45;&gt;Node12</title>
<path fill="none" stroke="midnightblue" d="M213.69,-116.25C211.16,-108.78 207.58,-98.24 204.49,-89.11"/>
<polygon fill="midnightblue" stroke="midnightblue" points="207.8,-87.99 201.27,-79.64 201.17,-90.24 207.8,-87.99"/>
</g>
<!-- Node5&#45;&gt;Node8 -->
<g id="edge5" class="edge">
<title>Node5&#45;&gt;Node8</title>
<path fill="none" stroke="midnightblue" d="M313.84,-58.25C296.49,-49.41 270.71,-36.29 251.04,-26.28"/>
<polygon fill="midnightblue" stroke="midnightblue" points="252.44,-23.06 241.94,-21.64 249.26,-29.3 252.44,-23.06"/>
</g>
<!-- Node15&#45;&gt;Node5 -->
<g id="edge9" class="edge">
<title>Node15&#45;&gt;Node5</title>
<path fill="none" stroke="midnightblue" d="M358.08,-232.32C352.09,-223.38 343.82,-209.47 340,-196 329.67,-159.63 330.09,-115.04 331.46,-89.84"/>
<polygon fill="midnightblue" stroke="midnightblue" points="334.96,-89.93 332.12,-79.72 327.97,-89.47 334.96,-89.93"/>
</g>
<!-- Node16 -->
<g id="node9" class="node">
<title>Node16</title>
<g id="a_node9"><a xlink:href="../../db/d31/_sd_card_8h.html" target="_top" xlink:title=" ">
<polygon fill="white" stroke="red" points="180.5,-174.5 180.5,-195.5 291.5,-195.5 291.5,-174.5 180.5,-174.5"/>
<text text-anchor="middle" x="236" y="-181.9" font-family="Helvetica,sans-Serif" font-size="12.00">SdCard/SdCard.h</text>
</a>
</g>
</g>
<!-- Node15&#45;&gt;Node16 -->
<g id="edge10" class="edge">
<title>Node15&#45;&gt;Node16</title>
<path fill="none" stroke="midnightblue" d="M342.82,-232.37C322.02,-223.34 290.71,-209.75 267.35,-199.61"/>
<polygon fill="midnightblue" stroke="midnightblue" points="268.45,-196.27 257.89,-195.5 265.67,-202.69 268.45,-196.27"/>
</g>
<!-- Node22 -->
<g id="node10" class="node">
<title>Node22</title>
<g id="a_node10"><a xlink:href="../../d8/d23/_ex_fat_lib_8h.html" target="_top" xlink:title=" ">
<polygon fill="white" stroke="red" points="348.5,-174.5 348.5,-195.5 471.5,-195.5 471.5,-174.5 348.5,-174.5"/>
<text text-anchor="middle" x="410" y="-181.9" font-family="Helvetica,sans-Serif" font-size="12.00">ExFatLib/ExFatLib.h</text>
</a>
</g>
</g>
<!-- Node15&#45;&gt;Node22 -->
<g id="edge12" class="edge">
<title>Node15&#45;&gt;Node22</title>
<path fill="none" stroke="midnightblue" d="M372.84,-232.25C379.16,-224.38 388.22,-213.1 395.81,-203.65"/>
<polygon fill="midnightblue" stroke="midnightblue" points="398.72,-205.63 402.25,-195.64 393.26,-201.25 398.72,-205.63"/>
</g>
<!-- Node39 -->
<g id="node11" class="node">
<title>Node39</title>
<g id="a_node11"><a xlink:href="../../de/dfa/_fat_lib_8h.html" target="_top" xlink:title=" ">
<polygon fill="white" stroke="red" points="490,-174.5 490,-195.5 586,-195.5 586,-174.5 490,-174.5"/>
<text text-anchor="middle" x="538" y="-181.9" font-family="Helvetica,sans-Serif" font-size="12.00">FatLib/FatLib.h</text>
</a>
</g>
</g>
<!-- Node15&#45;&gt;Node39 -->
<g id="edge13" class="edge">
<title>Node15&#45;&gt;Node39</title>
<path fill="none" stroke="midnightblue" d="M394.35,-232.5C423.05,-223.21 466.96,-209 498.67,-198.73"/>
<polygon fill="midnightblue" stroke="midnightblue" points="500.07,-201.96 508.51,-195.55 497.92,-195.3 500.07,-201.96"/>
</g>
<!-- Node44 -->
<g id="node12" class="node">
<title>Node44</title>
<g id="a_node12"><a xlink:href="../../d3/d27/_fs_lib_8h.html" target="_top" xlink:title="FsLib include file.">
<polygon fill="white" stroke="red" points="604.5,-174.5 604.5,-195.5 693.5,-195.5 693.5,-174.5 604.5,-174.5"/>
<text text-anchor="middle" x="649" y="-181.9" font-family="Helvetica,sans-Serif" font-size="12.00">FsLib/FsLib.h</text>
</a>
</g>
</g>
<!-- Node15&#45;&gt;Node44 -->
<g id="edge14" class="edge">
<title>Node15&#45;&gt;Node44</title>
<path fill="none" stroke="midnightblue" d="M394.06,-236.27C441.1,-226.99 534.68,-208.54 594.43,-196.76"/>
<polygon fill="midnightblue" stroke="midnightblue" points="595.32,-200.15 604.45,-194.78 593.96,-193.29 595.32,-200.15"/>
</g>
<!-- Node16&#45;&gt;Node4 -->
<g id="edge11" class="edge">
<title>Node16&#45;&gt;Node4</title>
<path fill="none" stroke="midnightblue" d="M232.69,-174.25C230.16,-166.78 226.58,-156.24 223.49,-147.11"/>
<polygon fill="midnightblue" stroke="midnightblue" points="226.8,-145.99 220.27,-137.64 220.17,-148.24 226.8,-145.99"/>
</g>
</g>
</svg>
        <g id="navigator" transform="translate(0 0)" fill="#404254">
                <rect fill="#f2f5e9" fill-opacity="0.5" stroke="#606060" stroke-width=".5" x="0" y="0" width="60" height="60"/>
                <use id="zoomplus" xlink:href="#zoomPlus" x="17" y="9" onmousedown="handleZoom(evt,'in')"/>
                <use id="zoomminus" xlink:href="#zoomMin" x="42" y="9" onmousedown="handleZoom(evt,'out')"/>
                <use id="reset" xlink:href="#resetDef" x="30" y="36" onmousedown="handleReset()"/>
                <g id="arrowUp" xlink:href="#dirArrow" transform="translate(30 24)" onmousedown="handlePan(0,-1)">
                  <use xlink:href="#rim" fill="#404040">
                        <set attributeName="fill" to="#808080" begin="arrowUp.mouseover" end="arrowUp.mouseout"/>
                  </use>
                  <path fill="none" stroke="white" stroke-width="1.5" d="M0,-3.0v7 M-2.5,-0.5L0,-3.0L2.5,-0.5"/>
                </g>
                <g id="arrowRight" xlink:href="#dirArrow" transform="rotate(90) translate(36 -43)" onmousedown="handlePan(1,0)">
                  <use xlink:href="#rim" fill="#404040">
                        <set attributeName="fill" to="#808080" begin="arrowRight.mouseover" end="arrowRight.mouseout"/>
                  </use>
                  <path fill="none" stroke="white" stroke-width="1.5" d="M0,-3.0v7 M-2.5,-0.5L0,-3.0L2.5,-0.5"/>
                </g>
                <g id="arrowDown" xlink:href="#dirArrow" transform="rotate(180) translate(-30 -48)" onmousedown="handlePan(0,1)">
                  <use xlink:href="#rim" fill="#404040">
                        <set attributeName="fill" to="#808080" begin="arrowDown.mouseover" end="arrowDown.mouseout"/>
                  </use>
                  <path fill="none" stroke="white" stroke-width="1.5" d="M0,-3.0v7 M-2.5,-0.5L0,-3.0L2.5,-0.5"/>
                </g>
                <g id="arrowLeft" xlink:href="#dirArrow" transform="rotate(270) translate(-36 17)" onmousedown="handlePan(-1,0)">
                  <use xlink:href="#rim" fill="#404040">
                        <set attributeName="fill" to="#808080" begin="arrowLeft.mouseover" end="arrowLeft.mouseout"/>
                  </use>
                  <path fill="none" stroke="white" stroke-width="1.5" d="M0,-3.0v7 M-2.5,-0.5L0,-3.0L2.5,-0.5"/>
                </g>
        </g>
        <svg viewBox="0 0 15 15" width="100%" height="30px" preserveAspectRatio="xMaxYMin meet">
         <g id="arrow_out" transform="scale(0.3 0.3)">
          <a xlink:href="_i_l_i9341__t3___e_r_i_s_8cpp__incl_org.svg" target="_base">
           <rect id="button" ry="5" rx="5" y="6" x="6" height="38" width="38"
                fill="#f2f5e9" fill-opacity="0.5" stroke="#606060" stroke-width="1.0"/>
           <path id="arrow"
             d="M 11.500037,31.436501 C 11.940474,20.09759 22.043105,11.32322 32.158766,21.979434 L 37.068811,17.246167 C 37.068811,17.246167 37.088388,32 37.088388,32 L 22.160133,31.978069 C 22.160133,31.978069 26.997745,27.140456 26.997745,27.140456 C 18.528582,18.264221 13.291696,25.230495 11.500037,31.436501 z"
             style="fill:#404040;"/>
          </a>
         </g>
        </svg>
</svg>
