<?xml version="1.0" encoding="UTF-8" standalone="no"?>
<!DOCTYPE svg PUBLIC "-//W3C//DTD SVG 1.1//EN"
 "http://www.w3.org/Graphics/SVG/1.1/DTD/svg11.dtd">
<!-- Generated by graphviz version 2.47.3 (20210619.1520)
 -->
<!-- Title: userSetup Pages: 1 -->
<!--zoomable 360 -->
<svg id="main" version="1.1" xmlns="http://www.w3.org/2000/svg" xmlns:xlink="http://www.w3.org/1999/xlink" xml:space="preserve" onload="init(evt)">
<style type="text/css"><![CDATA[
.edge:hover path { stroke: red; }
.edge:hover polygon { stroke: red; fill: red; }
]]></style>
<script type="text/javascript"><![CDATA[
var edges = document.getElementsByTagName('g');
if (edges && edges.length) {
  for (var i=0;i<edges.length;i++) {
    if (edges[i].id.substr(0,4)=='edge') {
      edges[i].setAttribute('class','edge');
    }
  }
}
]]></script>
        <defs>
                <circle id="rim" cx="0" cy="0" r="7"/>
                <circle id="rim2" cx="0" cy="0" r="3.5"/>
                <g id="zoomPlus">
                        <use xlink:href="#rim" fill="#404040">
                                <set attributeName="fill" to="#808080" begin="zoomplus.mouseover" end="zoomplus.mouseout"/>
                        </use>
                        <path d="M-4,0h8M0,-4v8" fill="none" stroke="white" stroke-width="1.5" pointer-events="none"/>
                </g>
                <g id="zoomMin">
                        <use xlink:href="#rim" fill="#404040">
                                <set attributeName="fill" to="#808080" begin="zoomminus.mouseover" end="zoomminus.mouseout"/>
                        </use>
                        <path d="M-4,0h8" fill="none" stroke="white" stroke-width="1.5" pointer-events="none"/>
                </g>
                <g id="dirArrow">
                        <path fill="none" stroke="white" stroke-width="1.5" d="M0,-3.0v7 M-2.5,-0.5L0,-3.0L2.5,-0.5"/>
                </g>
               <g id="resetDef">
                       <use xlink:href="#rim2" fill="#404040">
                               <set attributeName="fill" to="#808080" begin="reset.mouseover" end="reset.mouseout"/>
                       </use>
               </g>
        </defs>

<script type="text/javascript">
var viewWidth = 937;
var viewHeight = 360;
var sectionId = 'dynsection-2';
</script>
<script xlink:href="../../svgpan.js"/>
<svg id="graph" class="graph">
<g id="viewport">
<title>userSetup</title>
<polygon fill="white" stroke="transparent" points="-4,4 -4,-356 933,-356 933,4 -4,4"/>
<!-- Node1 -->
<g id="node1" class="node">
<title>Node1</title>
<g id="a_node1"><a xlink:title=" ">
<polygon fill="#bfbfbf" stroke="black" points="0,-133.5 0,-152.5 61,-152.5 61,-133.5 0,-133.5"/>
<text text-anchor="middle" x="30.5" y="-140.5" font-family="Helvetica,sans-Serif" font-size="10.00">userSetup</text>
</a>
</g>
</g>
<!-- Node2 -->
<g id="node2" class="node">
<title>Node2</title>
<g id="a_node2"><a xlink:href="../../df/d0a/main_8cpp.html#a2eb031a196afc920120d008cd3858f2e" target="_top" xlink:title=" ">
<polygon fill="white" stroke="black" points="133,-152.5 133,-171.5 174,-171.5 174,-152.5 133,-152.5"/>
<text text-anchor="middle" x="153.5" y="-159.5" font-family="Helvetica,sans-Serif" font-size="10.00">setup</text>
</a>
</g>
</g>
<!-- Node1&#45;&gt;Node2 -->
<g id="edge1" class="edge">
<title>Node1&#45;&gt;Node2</title>
<path fill="none" stroke="midnightblue" d="M61.1,-147.65C79.79,-150.58 103.85,-154.36 122.59,-157.3"/>
<polygon fill="midnightblue" stroke="midnightblue" points="122.24,-160.79 132.66,-158.88 123.32,-153.88 122.24,-160.79"/>
</g>
<!-- Node16 -->
<g id="node16" class="node">
<title>Node16</title>
<g id="a_node16"><a xlink:href="../../da/dc4/_low_latency_logger_a_d_x_l345_2_user_functions_8cpp.html#a142cb27d282e1466f56098aac938d4d7" target="_top" xlink:title=" ">
<polygon fill="white" stroke="black" points="97,-114.5 97,-133.5 210,-133.5 210,-114.5 97,-114.5"/>
<text text-anchor="middle" x="153.5" y="-121.5" font-family="Helvetica,sans-Serif" font-size="10.00">writeADXL345Register</text>
</a>
</g>
</g>
<!-- Node1&#45;&gt;Node16 -->
<g id="edge15" class="edge">
<title>Node1&#45;&gt;Node16</title>
<path fill="none" stroke="midnightblue" d="M61.1,-138.35C68.93,-137.12 77.7,-135.75 86.63,-134.34"/>
<polygon fill="midnightblue" stroke="midnightblue" points="87.4,-137.77 96.74,-132.76 86.31,-130.85 87.4,-137.77"/>
</g>
<!-- Node3 -->
<g id="node3" class="node">
<title>Node3</title>
<g id="a_node3"><a xlink:href="../../d8/d1c/class_audio_director.html#abf7bb7f3ee814b6a8b0048427f8e9eb5" target="_top" xlink:title=" ">
<polygon fill="white" stroke="black" points="246,-305 246,-335 409,-335 409,-305 246,-305"/>
<text text-anchor="start" x="254" y="-323" font-family="Helvetica,sans-Serif" font-size="10.00">AudioDirector::activateConnection</text>
<text text-anchor="middle" x="327.5" y="-312" font-family="Helvetica,sans-Serif" font-size="10.00">Group</text>
</a>
</g>
</g>
<!-- Node2&#45;&gt;Node3 -->
<g id="edge2" class="edge">
<title>Node2&#45;&gt;Node3</title>
<path fill="none" stroke="midnightblue" d="M158.44,-171.68C168.89,-196.14 199.73,-260.93 246,-295 248.51,-296.85 251.16,-298.56 253.91,-300.15"/>
<polygon fill="midnightblue" stroke="midnightblue" points="252.49,-303.36 262.98,-304.82 255.69,-297.13 252.49,-303.36"/>
</g>
<!-- Node8 -->
<g id="node8" class="node">
<title>Node8</title>
<g id="a_node8"><a xlink:href="../../dc/d47/_p_c_m1863_8h.html#a9956c2ea4162d70e6ee8db10139e2d2e" target="_top" xlink:title=" ">
<polygon fill="white" stroke="black" points="288,-266.5 288,-285.5 367,-285.5 367,-266.5 288,-266.5"/>
<text text-anchor="middle" x="327.5" y="-273.5" font-family="Helvetica,sans-Serif" font-size="10.00">ExtADCConfig</text>
</a>
</g>
</g>
<!-- Node2&#45;&gt;Node8 -->
<g id="edge7" class="edge">
<title>Node2&#45;&gt;Node8</title>
<path fill="none" stroke="midnightblue" d="M160.8,-171.55C174.09,-190.9 207.01,-234.78 246,-257 255.74,-262.55 267.03,-266.49 278.02,-269.27"/>
<polygon fill="midnightblue" stroke="midnightblue" points="277.44,-272.73 287.97,-271.52 278.99,-265.9 277.44,-272.73"/>
</g>
<!-- Node9 -->
<g id="node9" class="node">
<title>Node9</title>
<g id="a_node9"><a xlink:href="../../dc/d47/_p_c_m1863_8h.html#a355d3b0e208bf224635b70280298fcf8" target="_top" xlink:title=" ">
<polygon fill="white" stroke="black" points="281.5,-228.5 281.5,-247.5 373.5,-247.5 373.5,-228.5 281.5,-228.5"/>
<text text-anchor="middle" x="327.5" y="-235.5" font-family="Helvetica,sans-Serif" font-size="10.00">ExtADCReadReg</text>
</a>
</g>
</g>
<!-- Node2&#45;&gt;Node9 -->
<g id="edge8" class="edge">
<title>Node2&#45;&gt;Node9</title>
<path fill="none" stroke="midnightblue" d="M166.81,-171.51C183.75,-184.15 215.59,-206.34 246,-219 254.09,-222.37 262.9,-225.21 271.62,-227.59"/>
<polygon fill="midnightblue" stroke="midnightblue" points="270.84,-231 281.39,-230.07 272.57,-224.21 270.84,-231"/>
</g>
<!-- Node10 -->
<g id="node10" class="node">
<title>Node10</title>
<g id="a_node10"><a xlink:href="../../db/d69/class_app_base_class.html#aacbb5f3bae12ca03970d0b10b3bbd2de" target="_top" xlink:title=" ">
<polygon fill="white" stroke="black" points="273.5,-190.5 273.5,-209.5 381.5,-209.5 381.5,-190.5 273.5,-190.5"/>
<text text-anchor="middle" x="327.5" y="-197.5" font-family="Helvetica,sans-Serif" font-size="10.00">AppBaseClass::getId</text>
</a>
</g>
</g>
<!-- Node2&#45;&gt;Node10 -->
<g id="edge9" class="edge">
<title>Node2&#45;&gt;Node10</title>
<path fill="none" stroke="midnightblue" d="M174.23,-166.36C198.22,-171.66 239.67,-180.82 273.27,-188.24"/>
<polygon fill="midnightblue" stroke="midnightblue" points="272.9,-191.74 283.42,-190.48 274.41,-184.91 272.9,-191.74"/>
</g>
<!-- Node11 -->
<g id="node11" class="node">
<title>Node11</title>
<g id="a_node11"><a xlink:href="../../da/d96/class_app_manager.html#aa76d9691e8d029656413590fbe4dee86" target="_top" xlink:title=" ">
<polygon fill="white" stroke="black" points="263.5,-152.5 263.5,-171.5 391.5,-171.5 391.5,-152.5 263.5,-152.5"/>
<text text-anchor="middle" x="327.5" y="-159.5" font-family="Helvetica,sans-Serif" font-size="10.00">AppManager::getInstance</text>
</a>
</g>
</g>
<!-- Node2&#45;&gt;Node11 -->
<g id="edge10" class="edge">
<title>Node2&#45;&gt;Node11</title>
<path fill="none" stroke="midnightblue" d="M174.23,-162C193.65,-162 224.5,-162 253.38,-162"/>
<polygon fill="midnightblue" stroke="midnightblue" points="253.48,-165.5 263.48,-162 253.48,-158.5 253.48,-165.5"/>
</g>
<!-- Node12 -->
<g id="node12" class="node">
<title>Node12</title>
<g id="a_node12"><a xlink:href="../../dc/d47/_p_c_m1863_8h.html#a0d9ccf7656803723e1115c96b21820aa" target="_top" xlink:title=" ">
<polygon fill="white" stroke="black" points="299.5,-114.5 299.5,-133.5 355.5,-133.5 355.5,-114.5 299.5,-114.5"/>
<text text-anchor="middle" x="327.5" y="-121.5" font-family="Helvetica,sans-Serif" font-size="10.00">I2CReset</text>
</a>
</g>
</g>
<!-- Node2&#45;&gt;Node12 -->
<g id="edge11" class="edge">
<title>Node2&#45;&gt;Node12</title>
<path fill="none" stroke="midnightblue" d="M174.23,-157.64C202.26,-151.45 254.12,-139.99 289.45,-132.19"/>
<polygon fill="midnightblue" stroke="midnightblue" points="290.38,-135.56 299.39,-129.99 288.87,-128.73 290.38,-135.56"/>
</g>
<!-- Node13 -->
<g id="node13" class="node">
<title>Node13</title>
<g id="a_node13"><a xlink:href="../../d1/dff/class_touch.html#a61a5d056f07ab08cb5924fa573dc3497" target="_top" xlink:title=" ">
<polygon fill="white" stroke="black" points="260.5,-76.5 260.5,-95.5 394.5,-95.5 394.5,-76.5 260.5,-76.5"/>
<text text-anchor="middle" x="327.5" y="-83.5" font-family="Helvetica,sans-Serif" font-size="10.00">Touch::setCalibrationInputs</text>
</a>
</g>
</g>
<!-- Node2&#45;&gt;Node13 -->
<g id="edge12" class="edge">
<title>Node2&#45;&gt;Node13</title>
<path fill="none" stroke="midnightblue" d="M174.02,-157.79C185.16,-154.8 199.03,-150.05 210,-143 229.57,-130.42 225.83,-116.6 246,-105 249.89,-102.76 254.02,-100.79 258.29,-99.05"/>
<polygon fill="midnightblue" stroke="midnightblue" points="259.59,-102.3 267.79,-95.6 257.19,-95.72 259.59,-102.3"/>
</g>
<!-- Node14 -->
<g id="node14" class="node">
<title>Node14</title>
<g id="a_node14"><a xlink:href="../../da/d96/class_app_manager.html#a4e836d1c6fc14462e71bd7f386b031c0" target="_top" xlink:title=" ">
<polygon fill="white" stroke="black" points="253,-38.5 253,-57.5 402,-57.5 402,-38.5 253,-38.5"/>
<text text-anchor="middle" x="327.5" y="-45.5" font-family="Helvetica,sans-Serif" font-size="10.00">AppManager::switchAppFocus</text>
</a>
</g>
</g>
<!-- Node2&#45;&gt;Node14 -->
<g id="edge13" class="edge">
<title>Node2&#45;&gt;Node14</title>
<path fill="none" stroke="midnightblue" d="M174.16,-159.19C185.75,-156.66 200.05,-151.89 210,-143 237.87,-118.1 216.94,-90.5 246,-67 248.1,-65.3 250.33,-63.75 252.65,-62.33"/>
<polygon fill="midnightblue" stroke="midnightblue" points="254.73,-65.2 262.02,-57.51 251.53,-58.97 254.73,-65.2"/>
</g>
<!-- Node15 -->
<g id="node15" class="node">
<title>Node15</title>
<g id="a_node15"><a xlink:href="../../df/d72/_app_manager_8h.html#a08e2de6cc6534b42211780387e8a2568" target="_top" xlink:title=" ">
<polygon fill="white" stroke="black" points="307,-0.5 307,-19.5 348,-19.5 348,-0.5 307,-0.5"/>
<text text-anchor="middle" x="327.5" y="-7.5" font-family="Helvetica,sans-Serif" font-size="10.00">touch</text>
</a>
</g>
</g>
<!-- Node2&#45;&gt;Node15 -->
<g id="edge14" class="edge">
<title>Node2&#45;&gt;Node15</title>
<path fill="none" stroke="midnightblue" d="M174.07,-159.77C185.93,-157.44 200.54,-152.69 210,-143 247.12,-104.98 207.06,-65.15 246,-29 259.47,-16.5 279.58,-11.75 296.34,-10.12"/>
<polygon fill="midnightblue" stroke="midnightblue" points="297,-13.59 306.76,-9.46 296.56,-6.6 297,-13.59"/>
</g>
<!-- Node4 -->
<g id="node4" class="node">
<title>Node4</title>
<g id="a_node4"><a xlink:href="../../d8/d1c/class_audio_director.html#ab4957e373e5d9078454d07da471f1d94" target="_top" xlink:title=" ">
<polygon fill="white" stroke="black" points="462.5,-332.5 462.5,-351.5 578.5,-351.5 578.5,-332.5 462.5,-332.5"/>
<text text-anchor="middle" x="520.5" y="-339.5" font-family="Helvetica,sans-Serif" font-size="10.00">AudioDirector::connect</text>
</a>
</g>
</g>
<!-- Node3&#45;&gt;Node4 -->
<g id="edge3" class="edge">
<title>Node3&#45;&gt;Node4</title>
<path fill="none" stroke="midnightblue" d="M409.22,-329.3C423.56,-330.95 438.35,-332.65 452.27,-334.26"/>
<polygon fill="midnightblue" stroke="midnightblue" points="451.89,-337.74 462.22,-335.4 452.69,-330.78 451.89,-337.74"/>
</g>
<!-- Node7 -->
<g id="node7" class="node">
<title>Node7</title>
<g id="a_node7"><a xlink:href="../../d8/d1c/class_audio_director.html#a578f1deac0695f2db3ba245aaedc62df" target="_top" xlink:title=" ">
<polygon fill="white" stroke="black" points="445,-283 445,-313 596,-313 596,-283 445,-283"/>
<text text-anchor="start" x="453" y="-301" font-family="Helvetica,sans-Serif" font-size="10.00">AudioDirector::getAudioStream</text>
<text text-anchor="middle" x="520.5" y="-290" font-family="Helvetica,sans-Serif" font-size="10.00">ObjByName</text>
</a>
</g>
</g>
<!-- Node3&#45;&gt;Node7 -->
<g id="edge6" class="edge">
<title>Node3&#45;&gt;Node7</title>
<path fill="none" stroke="midnightblue" d="M409.22,-310.7C417.71,-309.72 426.36,-308.73 434.89,-307.75"/>
<polygon fill="midnightblue" stroke="midnightblue" points="435.3,-311.22 444.84,-306.6 434.5,-304.27 435.3,-311.22"/>
</g>
<!-- Node5 -->
<g id="node5" class="node">
<title>Node5</title>
<g id="a_node5"><a xlink:href="../../d2/d7c/class_audio_connection.html#a4208c4c7f60da78ae1daede7a6bfeb3f" target="_top" xlink:title=" ">
<polygon fill="white" stroke="black" points="632,-332.5 632,-351.5 754,-351.5 754,-332.5 632,-332.5"/>
<text text-anchor="middle" x="693" y="-339.5" font-family="Helvetica,sans-Serif" font-size="10.00">AudioConnection::rewire</text>
</a>
</g>
</g>
<!-- Node4&#45;&gt;Node5 -->
<g id="edge4" class="edge">
<title>Node4&#45;&gt;Node5</title>
<path fill="none" stroke="midnightblue" d="M578.75,-342C592.53,-342 607.4,-342 621.7,-342"/>
<polygon fill="midnightblue" stroke="midnightblue" points="621.99,-345.5 631.99,-342 621.99,-338.5 621.99,-345.5"/>
</g>
<!-- Node6 -->
<g id="node6" class="node">
<title>Node6</title>
<g id="a_node6"><a xlink:href="../../d2/d7c/class_audio_connection.html#ab86753a735bd46a3924035617b0c3623" target="_top" xlink:title=" ">
<polygon fill="white" stroke="black" points="790,-332.5 790,-351.5 929,-351.5 929,-332.5 790,-332.5"/>
<text text-anchor="middle" x="859.5" y="-339.5" font-family="Helvetica,sans-Serif" font-size="10.00">AudioConnection::reconnect</text>
</a>
</g>
</g>
<!-- Node5&#45;&gt;Node6 -->
<g id="edge5" class="edge">
<title>Node5&#45;&gt;Node6</title>
<path fill="none" stroke="midnightblue" d="M754.32,-342C762.62,-342 771.25,-342 779.82,-342"/>
<polygon fill="midnightblue" stroke="midnightblue" points="779.84,-345.5 789.84,-342 779.84,-338.5 779.84,-345.5"/>
</g>
</g>
</svg>
        <g id="navigator" transform="translate(0 0)" fill="#404254">
                <rect fill="#f2f5e9" fill-opacity="0.5" stroke="#606060" stroke-width=".5" x="0" y="0" width="60" height="60"/>
                <use id="zoomplus" xlink:href="#zoomPlus" x="17" y="9" onmousedown="handleZoom(evt,'in')"/>
                <use id="zoomminus" xlink:href="#zoomMin" x="42" y="9" onmousedown="handleZoom(evt,'out')"/>
                <use id="reset" xlink:href="#resetDef" x="30" y="36" onmousedown="handleReset()"/>
                <g id="arrowUp" xlink:href="#dirArrow" transform="translate(30 24)" onmousedown="handlePan(0,-1)">
                  <use xlink:href="#rim" fill="#404040">
                        <set attributeName="fill" to="#808080" begin="arrowUp.mouseover" end="arrowUp.mouseout"/>
                  </use>
                  <path fill="none" stroke="white" stroke-width="1.5" d="M0,-3.0v7 M-2.5,-0.5L0,-3.0L2.5,-0.5"/>
                </g>
                <g id="arrowRight" xlink:href="#dirArrow" transform="rotate(90) translate(36 -43)" onmousedown="handlePan(1,0)">
                  <use xlink:href="#rim" fill="#404040">
                        <set attributeName="fill" to="#808080" begin="arrowRight.mouseover" end="arrowRight.mouseout"/>
                  </use>
                  <path fill="none" stroke="white" stroke-width="1.5" d="M0,-3.0v7 M-2.5,-0.5L0,-3.0L2.5,-0.5"/>
                </g>
                <g id="arrowDown" xlink:href="#dirArrow" transform="rotate(180) translate(-30 -48)" onmousedown="handlePan(0,1)">
                  <use xlink:href="#rim" fill="#404040">
                        <set attributeName="fill" to="#808080" begin="arrowDown.mouseover" end="arrowDown.mouseout"/>
                  </use>
                  <path fill="none" stroke="white" stroke-width="1.5" d="M0,-3.0v7 M-2.5,-0.5L0,-3.0L2.5,-0.5"/>
                </g>
                <g id="arrowLeft" xlink:href="#dirArrow" transform="rotate(270) translate(-36 17)" onmousedown="handlePan(-1,0)">
                  <use xlink:href="#rim" fill="#404040">
                        <set attributeName="fill" to="#808080" begin="arrowLeft.mouseover" end="arrowLeft.mouseout"/>
                  </use>
                  <path fill="none" stroke="white" stroke-width="1.5" d="M0,-3.0v7 M-2.5,-0.5L0,-3.0L2.5,-0.5"/>
                </g>
        </g>
        <svg viewBox="0 0 15 15" width="100%" height="30px" preserveAspectRatio="xMaxYMin meet">
         <g id="arrow_out" transform="scale(0.3 0.3)">
          <a xlink:href="_low_latency_logger_m_p_u6050_2_user_types_8h_a41681a4f770a4314939bd47e174cab0c_cgraph_org.svg" target="_base">
           <rect id="button" ry="5" rx="5" y="6" x="6" height="38" width="38"
                fill="#f2f5e9" fill-opacity="0.5" stroke="#606060" stroke-width="1.0"/>
           <path id="arrow"
             d="M 11.500037,31.436501 C 11.940474,20.09759 22.043105,11.32322 32.158766,21.979434 L 37.068811,17.246167 C 37.068811,17.246167 37.088388,32 37.088388,32 L 22.160133,31.978069 C 22.160133,31.978069 26.997745,27.140456 26.997745,27.140456 C 18.528582,18.264221 13.291696,25.230495 11.500037,31.436501 z"
             style="fill:#404040;"/>
          </a>
         </g>
        </svg>
</svg>
