<?xml version="1.0" encoding="UTF-8" standalone="no"?>
<!DOCTYPE svg PUBLIC "-//W3C//DTD SVG 1.1//EN"
 "http://www.w3.org/Graphics/SVG/1.1/DTD/svg11.dtd">
<!-- Generated by graphviz version 2.47.3 (20210619.1520)
 -->
<!-- Title: erisAudioEffectEnvelope Pages: 1 -->
<svg width="337pt" height="238pt"
 viewBox="0.00 0.00 337.00 238.00" xmlns="http://www.w3.org/2000/svg" xmlns:xlink="http://www.w3.org/1999/xlink">
<g id="graph0" class="graph" transform="scale(1 1) rotate(0) translate(4 234)">
<title>erisAudioEffectEnvelope</title>
<!-- Node1 -->
<g id="node1" class="node">
<title>Node1</title>
<g id="a_node1"><a xlink:title=" ">
<polygon fill="#bfbfbf" stroke="black" points="36,-0.5 36,-96.5 248,-96.5 248,-0.5 36,-0.5"/>
<text text-anchor="middle" x="142" y="-79.7" font-family="Helvetica,sans-Serif" font-size="16.00">erisAudioEffectEnvelope</text>
<polyline fill="none" stroke="black" points="36,-70.5 248,-70.5 "/>
<text text-anchor="middle" x="142" y="-53.7" font-family="Helvetica,sans-Serif" font-size="16.00"> </text>
<polyline fill="none" stroke="black" points="36,-44.5 248,-44.5 "/>
<text text-anchor="start" x="44" y="-27.7" font-family="Helvetica,sans-Serif" font-size="16.00">+ erisAudioEffectEnvelope()</text>
<text text-anchor="start" x="44" y="-9.7" font-family="Helvetica,sans-Serif" font-size="16.00">+ void update()</text>
</a>
</g>
</g>
<!-- Node2 -->
<g id="node2" class="node">
<title>Node2</title>
<g id="a_node2"><a xlink:href="../../db/d31/class_audio_effect_envelope.html" target="_top" xlink:title=" ">
<polygon fill="none" stroke="black" points="0,-151.5 0,-229.5 162,-229.5 162,-151.5 0,-151.5"/>
<text text-anchor="middle" x="81" y="-212.7" font-family="Helvetica,sans-Serif" font-size="16.00">AudioEffectEnvelope</text>
<polyline fill="none" stroke="black" points="0,-203.5 162,-203.5 "/>
<text text-anchor="middle" x="81" y="-186.7" font-family="Helvetica,sans-Serif" font-size="16.00"> </text>
<polyline fill="none" stroke="black" points="0,-177.5 162,-177.5 "/>
<text text-anchor="middle" x="81" y="-160.7" font-family="Helvetica,sans-Serif" font-size="16.00"> </text>
</a>
</g>
</g>
<!-- Node2&#45;&gt;Node1 -->
<g id="edge1" class="edge">
<title>Node2&#45;&gt;Node1</title>
<path fill="none" stroke="midnightblue" d="M101.74,-141.9C108.1,-127.31 115.09,-111.27 121.43,-96.7"/>
<polygon fill="none" stroke="midnightblue" points="98.45,-140.68 97.67,-151.24 104.87,-143.47 98.45,-140.68"/>
</g>
<!-- Node3 -->
<g id="node3" class="node">
<title>Node3</title>
<g id="a_node3"><a xlink:title=" ">
<polygon fill="none" stroke="#bfbfbf" points="180.5,-151.5 180.5,-229.5 227.5,-229.5 227.5,-151.5 180.5,-151.5"/>
<text text-anchor="middle" x="204" y="-212.7" font-family="Helvetica,sans-Serif" font-size="16.00">char</text>
<polyline fill="none" stroke="#bfbfbf" points="180.5,-203.5 227.5,-203.5 "/>
<text text-anchor="middle" x="204" y="-186.7" font-family="Helvetica,sans-Serif" font-size="16.00"> </text>
<polyline fill="none" stroke="#bfbfbf" points="180.5,-177.5 227.5,-177.5 "/>
<text text-anchor="middle" x="204" y="-160.7" font-family="Helvetica,sans-Serif" font-size="16.00"> </text>
</a>
</g>
</g>
<!-- Node3&#45;&gt;Node1 -->
<g id="edge2" class="edge">
<title>Node3&#45;&gt;Node1</title>
<path fill="none" stroke="#404040" d="M187.06,-151.24C181.12,-137.83 174.3,-122.43 167.8,-107.75"/>
<polygon fill="none" stroke="#404040" points="167.76,-107.67 161.68,-103.81 162.9,-96.7 168.99,-100.57 167.76,-107.67"/>
<text text-anchor="middle" x="253.5" y="-120.2" font-family="Helvetica,sans-Serif" font-size="16.00"> +short_name_lookup</text>
</g>
</g>
</svg>
