<?xml version="1.0" encoding="UTF-8" standalone="no"?>
<!DOCTYPE svg PUBLIC "-//W3C//DTD SVG 1.1//EN"
 "http://www.w3.org/Graphics/SVG/1.1/DTD/svg11.dtd">
<!-- Generated by graphviz version 2.47.3 (20210619.1520)
 -->
<!-- Title: wren_value.h Pages: 1 -->
<!--zoomable 262 -->
<svg id="main" version="1.1" xmlns="http://www.w3.org/2000/svg" xmlns:xlink="http://www.w3.org/1999/xlink" xml:space="preserve" onload="init(evt)">
<style type="text/css"><![CDATA[
.edge:hover path { stroke: red; }
.edge:hover polygon { stroke: red; fill: red; }
]]></style>
<script type="text/javascript"><![CDATA[
var edges = document.getElementsByTagName('g');
if (edges && edges.length) {
  for (var i=0;i<edges.length;i++) {
    if (edges[i].id.substr(0,4)=='edge') {
      edges[i].setAttribute('class','edge');
    }
  }
}
]]></script>
        <defs>
                <circle id="rim" cx="0" cy="0" r="7"/>
                <circle id="rim2" cx="0" cy="0" r="3.5"/>
                <g id="zoomPlus">
                        <use xlink:href="#rim" fill="#404040">
                                <set attributeName="fill" to="#808080" begin="zoomplus.mouseover" end="zoomplus.mouseout"/>
                        </use>
                        <path d="M-4,0h8M0,-4v8" fill="none" stroke="white" stroke-width="1.5" pointer-events="none"/>
                </g>
                <g id="zoomMin">
                        <use xlink:href="#rim" fill="#404040">
                                <set attributeName="fill" to="#808080" begin="zoomminus.mouseover" end="zoomminus.mouseout"/>
                        </use>
                        <path d="M-4,0h8" fill="none" stroke="white" stroke-width="1.5" pointer-events="none"/>
                </g>
                <g id="dirArrow">
                        <path fill="none" stroke="white" stroke-width="1.5" d="M0,-3.0v7 M-2.5,-0.5L0,-3.0L2.5,-0.5"/>
                </g>
               <g id="resetDef">
                       <use xlink:href="#rim2" fill="#404040">
                               <set attributeName="fill" to="#808080" begin="reset.mouseover" end="reset.mouseout"/>
                       </use>
               </g>
        </defs>

<script type="text/javascript">
var viewWidth = 988;
var viewHeight = 262;
var sectionId = 'dynsection-1';
</script>
<script xlink:href="../../svgpan.js"/>
<svg id="graph" class="graph">
<g id="viewport">
<title>wren_value.h</title>
<polygon fill="white" stroke="transparent" points="-4,4 -4,-258 983.53,-258 983.53,4 -4,4"/>
<!-- Node1 -->
<g id="node1" class="node">
<title>Node1</title>
<g id="a_node1"><a xlink:title=" ">
<polygon fill="#bfbfbf" stroke="black" points="358,-232.5 358,-253.5 442,-253.5 442,-232.5 358,-232.5"/>
<text text-anchor="middle" x="400" y="-239.9" font-family="Helvetica,sans-Serif" font-size="12.00">wren_value.h</text>
</a>
</g>
</g>
<!-- Node2 -->
<g id="node2" class="node">
<title>Node2</title>
<g id="a_node2"><a xlink:href="../../d7/db9/wren__compiler_8h.html" target="_top" xlink:title=" ">
<polygon fill="white" stroke="black" points="225,-174.5 225,-195.5 327,-195.5 327,-174.5 225,-174.5"/>
<text text-anchor="middle" x="276" y="-181.9" font-family="Helvetica,sans-Serif" font-size="12.00">wren_compiler.h</text>
</a>
</g>
</g>
<!-- Node1&#45;&gt;Node2 -->
<g id="edge1" class="edge">
<title>Node1&#45;&gt;Node2</title>
<path fill="none" stroke="midnightblue" d="M369.55,-228.25C347.03,-218.08 316.94,-204.49 297.04,-195.5"/>
<polygon fill="midnightblue" stroke="midnightblue" points="368.13,-231.45 378.68,-232.37 371.01,-225.07 368.13,-231.45"/>
</g>
<!-- Node3 -->
<g id="node3" class="node">
<title>Node3</title>
<g id="a_node3"><a xlink:href="../../d5/db1/wren__vm_8h.html" target="_top" xlink:title=" ">
<polygon fill="white" stroke="black" points="364,-116.5 364,-137.5 436,-137.5 436,-116.5 364,-116.5"/>
<text text-anchor="middle" x="400" y="-123.9" font-family="Helvetica,sans-Serif" font-size="12.00">wren_vm.h</text>
</a>
</g>
</g>
<!-- Node1&#45;&gt;Node3 -->
<g id="edge22" class="edge">
<title>Node1&#45;&gt;Node3</title>
<path fill="none" stroke="midnightblue" d="M400,-222.25C400,-197.58 400,-156.35 400,-137.69"/>
<polygon fill="midnightblue" stroke="midnightblue" points="396.5,-222.28 400,-232.28 403.5,-222.28 396.5,-222.28"/>
</g>
<!-- Node5 -->
<g id="node5" class="node">
<title>Node5</title>
<g id="a_node5"><a xlink:href="../../dd/df7/wren__debug_8h.html" target="_top" xlink:title=" ">
<polygon fill="white" stroke="black" points="0,-58.5 0,-79.5 90,-79.5 90,-58.5 0,-58.5"/>
<text text-anchor="middle" x="45" y="-65.9" font-family="Helvetica,sans-Serif" font-size="12.00">wren_debug.h</text>
</a>
</g>
</g>
<!-- Node1&#45;&gt;Node5 -->
<g id="edge21" class="edge">
<title>Node1&#45;&gt;Node5</title>
<path fill="none" stroke="midnightblue" d="M347.58,-234.5C309.72,-227.76 258.07,-215.81 216,-196 147.94,-163.96 79.76,-102.97 54.88,-79.52"/>
<polygon fill="midnightblue" stroke="midnightblue" points="347.42,-238.02 357.87,-236.26 348.6,-231.12 347.42,-238.02"/>
</g>
<!-- Node9 -->
<g id="node9" class="node">
<title>Node9</title>
<g id="a_node9"><a xlink:href="../../de/d2f/wren__core_8c.html" target="_top" xlink:title=" ">
<polygon fill="white" stroke="black" points="826,-0.5 826,-21.5 906,-21.5 906,-0.5 826,-0.5"/>
<text text-anchor="middle" x="866" y="-7.9" font-family="Helvetica,sans-Serif" font-size="12.00">wren_core.c</text>
</a>
</g>
</g>
<!-- Node1&#45;&gt;Node9 -->
<g id="edge24" class="edge">
<title>Node1&#45;&gt;Node9</title>
<path fill="none" stroke="midnightblue" d="M452.28,-235.34C581.63,-217.66 910.76,-165.04 974,-80 995.68,-50.84 945.26,-31.14 906.22,-20.74"/>
<polygon fill="midnightblue" stroke="midnightblue" points="451.66,-231.89 442.22,-236.7 452.6,-238.83 451.66,-231.89"/>
</g>
<!-- Node10 -->
<g id="node10" class="node">
<title>Node10</title>
<g id="a_node10"><a xlink:href="../../da/dbe/wren__value_8c.html" target="_top" xlink:title=" ">
<polygon fill="white" stroke="black" points="881,-58.5 881,-79.5 965,-79.5 965,-58.5 881,-58.5"/>
<text text-anchor="middle" x="923" y="-65.9" font-family="Helvetica,sans-Serif" font-size="12.00">wren_value.c</text>
</a>
</g>
</g>
<!-- Node1&#45;&gt;Node10 -->
<g id="edge23" class="edge">
<title>Node1&#45;&gt;Node10</title>
<path fill="none" stroke="midnightblue" d="M438.99,-229.18C539.47,-196.13 805.54,-108.63 893.97,-79.55"/>
<polygon fill="midnightblue" stroke="midnightblue" points="437.65,-225.93 429.24,-232.38 439.83,-232.58 437.65,-225.93"/>
</g>
<!-- Node2&#45;&gt;Node3 -->
<g id="edge2" class="edge">
<title>Node2&#45;&gt;Node3</title>
<path fill="none" stroke="midnightblue" d="M306.45,-170.25C328.97,-160.08 359.06,-146.49 378.96,-137.5"/>
<polygon fill="midnightblue" stroke="midnightblue" points="304.99,-167.07 297.32,-174.37 307.87,-173.45 304.99,-167.07"/>
</g>
<!-- Node7 -->
<g id="node7" class="node">
<title>Node7</title>
<g id="a_node7"><a xlink:href="../../de/db2/wren__vm_8c.html" target="_top" xlink:title=" ">
<polygon fill="white" stroke="black" points="240,-0.5 240,-21.5 312,-21.5 312,-0.5 240,-0.5"/>
<text text-anchor="middle" x="276" y="-7.9" font-family="Helvetica,sans-Serif" font-size="12.00">wren_vm.c</text>
</a>
</g>
</g>
<!-- Node2&#45;&gt;Node7 -->
<g id="edge19" class="edge">
<title>Node2&#45;&gt;Node7</title>
<path fill="none" stroke="midnightblue" d="M239.39,-170.64C187.42,-149.59 102.24,-106.12 137,-58 160.3,-25.75 207.06,-15.74 239.89,-12.83"/>
<polygon fill="midnightblue" stroke="midnightblue" points="238.39,-174.01 248.98,-174.42 240.96,-167.49 238.39,-174.01"/>
</g>
<!-- Node15 -->
<g id="node15" class="node">
<title>Node15</title>
<g id="a_node15"><a xlink:href="../../d4/de2/wren__compiler_8c.html" target="_top" xlink:title=" ">
<polygon fill="white" stroke="black" points="146,-58.5 146,-79.5 248,-79.5 248,-58.5 146,-58.5"/>
<text text-anchor="middle" x="197" y="-65.9" font-family="Helvetica,sans-Serif" font-size="12.00">wren_compiler.c</text>
</a>
</g>
</g>
<!-- Node2&#45;&gt;Node15 -->
<g id="edge20" class="edge">
<title>Node2&#45;&gt;Node15</title>
<path fill="none" stroke="midnightblue" d="M263.45,-165.89C246.52,-141.45 216.94,-98.77 203.72,-79.69"/>
<polygon fill="midnightblue" stroke="midnightblue" points="260.69,-168.05 269.26,-174.28 266.45,-164.07 260.69,-168.05"/>
</g>
<!-- Node4 -->
<g id="node4" class="node">
<title>Node4</title>
<g id="a_node4"><a xlink:href="../../de/d0d/wren__utils_8c.html" target="_top" xlink:title=" ">
<polygon fill="white" stroke="black" points="666.5,-58.5 666.5,-79.5 743.5,-79.5 743.5,-58.5 666.5,-58.5"/>
<text text-anchor="middle" x="705" y="-65.9" font-family="Helvetica,sans-Serif" font-size="12.00">wren_utils.c</text>
</a>
</g>
</g>
<!-- Node3&#45;&gt;Node4 -->
<g id="edge3" class="edge">
<title>Node3&#45;&gt;Node4</title>
<path fill="none" stroke="midnightblue" d="M446.38,-118.1C497.91,-109.24 583.52,-94.23 657,-80 660.01,-79.42 663.12,-78.8 666.25,-78.17"/>
<polygon fill="midnightblue" stroke="midnightblue" points="445.5,-114.7 436.24,-119.85 446.68,-121.6 445.5,-114.7"/>
</g>
<!-- Node3&#45;&gt;Node5 -->
<g id="edge4" class="edge">
<title>Node3&#45;&gt;Node5</title>
<path fill="none" stroke="midnightblue" d="M353.62,-118.68C285.16,-107.88 157.88,-87.81 90.14,-77.12"/>
<polygon fill="midnightblue" stroke="midnightblue" points="353.25,-122.17 363.68,-120.27 354.34,-115.25 353.25,-122.17"/>
</g>
<!-- Node3&#45;&gt;Node7 -->
<g id="edge17" class="edge">
<title>Node3&#45;&gt;Node7</title>
<path fill="none" stroke="midnightblue" d="M354.24,-115.59C333.5,-108.69 310.27,-97.58 295,-80 280.37,-63.16 276.94,-35.89 276.18,-21.54"/>
<polygon fill="midnightblue" stroke="midnightblue" points="353.28,-118.95 363.86,-118.55 355.34,-112.26 353.28,-118.95"/>
</g>
<!-- Node8 -->
<g id="node8" class="node">
<title>Node8</title>
<g id="a_node8"><a xlink:href="../../d4/da0/wren__core_8h.html" target="_top" xlink:title=" ">
<polygon fill="white" stroke="black" points="304,-58.5 304,-79.5 384,-79.5 384,-58.5 304,-58.5"/>
<text text-anchor="middle" x="344" y="-65.9" font-family="Helvetica,sans-Serif" font-size="12.00">wren_core.h</text>
</a>
</g>
</g>
<!-- Node3&#45;&gt;Node8 -->
<g id="edge7" class="edge">
<title>Node3&#45;&gt;Node8</title>
<path fill="none" stroke="midnightblue" d="M383.08,-109.08C373.44,-99.44 361.72,-87.72 353.64,-79.64"/>
<polygon fill="midnightblue" stroke="midnightblue" points="380.7,-111.65 390.25,-116.25 385.65,-106.7 380.7,-111.65"/>
</g>
<!-- Node3&#45;&gt;Node10 -->
<g id="edge10" class="edge">
<title>Node3&#45;&gt;Node10</title>
<path fill="none" stroke="midnightblue" d="M446.34,-122.97C531.12,-117.11 716.77,-102.73 872,-80 874.86,-79.58 877.8,-79.11 880.75,-78.61"/>
<polygon fill="midnightblue" stroke="midnightblue" points="446,-119.49 436.27,-123.66 446.48,-126.47 446,-119.49"/>
</g>
<!-- Node11 -->
<g id="node11" class="node">
<title>Node11</title>
<g id="a_node11"><a xlink:href="../../de/dab/wren__opt__meta_8c.html" target="_top" xlink:title=" ">
<polygon fill="white" stroke="black" points="402.5,-58.5 402.5,-79.5 509.5,-79.5 509.5,-58.5 402.5,-58.5"/>
<text text-anchor="middle" x="456" y="-65.9" font-family="Helvetica,sans-Serif" font-size="12.00">wren_opt_meta.c</text>
</a>
</g>
</g>
<!-- Node3&#45;&gt;Node11 -->
<g id="edge11" class="edge">
<title>Node3&#45;&gt;Node11</title>
<path fill="none" stroke="midnightblue" d="M416.92,-109.08C426.56,-99.44 438.28,-87.72 446.36,-79.64"/>
<polygon fill="midnightblue" stroke="midnightblue" points="414.35,-106.7 409.75,-116.25 419.3,-111.65 414.35,-106.7"/>
</g>
<!-- Node12 -->
<g id="node12" class="node">
<title>Node12</title>
<g id="a_node12"><a xlink:href="../../d8/d6b/wren__opt__random_8c.html" target="_top" xlink:title=" ">
<polygon fill="white" stroke="black" points="528,-58.5 528,-79.5 648,-79.5 648,-58.5 528,-58.5"/>
<text text-anchor="middle" x="588" y="-65.9" font-family="Helvetica,sans-Serif" font-size="12.00">wren_opt_random.c</text>
</a>
</g>
</g>
<!-- Node3&#45;&gt;Node12 -->
<g id="edge12" class="edge">
<title>Node3&#45;&gt;Node12</title>
<path fill="none" stroke="midnightblue" d="M442.11,-113.46C476.62,-103.18 524.72,-88.85 556.1,-79.5"/>
<polygon fill="midnightblue" stroke="midnightblue" points="440.9,-110.16 432.32,-116.37 442.9,-116.87 440.9,-110.16"/>
</g>
<!-- Node13 -->
<g id="node13" class="node">
<title>Node13</title>
<g id="a_node13"><a xlink:href="../../d7/d66/wren__primitive_8h.html" target="_top" xlink:title=" ">
<polygon fill="white" stroke="black" points="761.5,-58.5 761.5,-79.5 862.5,-79.5 862.5,-58.5 761.5,-58.5"/>
<text text-anchor="middle" x="812" y="-65.9" font-family="Helvetica,sans-Serif" font-size="12.00">wren_primitive.h</text>
</a>
</g>
</g>
<!-- Node3&#45;&gt;Node13 -->
<g id="edge13" class="edge">
<title>Node3&#45;&gt;Node13</title>
<path fill="none" stroke="midnightblue" d="M446.45,-120.52C514.02,-112.42 643.35,-96.43 753,-80 755.77,-79.58 758.62,-79.15 761.49,-78.69"/>
<polygon fill="midnightblue" stroke="midnightblue" points="445.66,-117.09 436.14,-121.75 446.49,-124.04 445.66,-117.09"/>
</g>
<!-- Node3&#45;&gt;Node15 -->
<g id="edge18" class="edge">
<title>Node3&#45;&gt;Node15</title>
<path fill="none" stroke="midnightblue" d="M355.01,-113.59C317.71,-103.3 265.47,-88.89 231.44,-79.5"/>
<polygon fill="midnightblue" stroke="midnightblue" points="354.53,-117.09 365.1,-116.37 356.39,-110.34 354.53,-117.09"/>
</g>
<!-- Node6 -->
<g id="node6" class="node">
<title>Node6</title>
<g id="a_node6"><a xlink:href="../../d8/df0/wren__debug_8c.html" target="_top" xlink:title=" ">
<polygon fill="white" stroke="black" points="0,-0.5 0,-21.5 90,-21.5 90,-0.5 0,-0.5"/>
<text text-anchor="middle" x="45" y="-7.9" font-family="Helvetica,sans-Serif" font-size="12.00">wren_debug.c</text>
</a>
</g>
</g>
<!-- Node5&#45;&gt;Node6 -->
<g id="edge5" class="edge">
<title>Node5&#45;&gt;Node6</title>
<path fill="none" stroke="midnightblue" d="M45,-48.16C45,-39.16 45,-28.92 45,-21.64"/>
<polygon fill="midnightblue" stroke="midnightblue" points="41.5,-48.25 45,-58.25 48.5,-48.25 41.5,-48.25"/>
</g>
<!-- Node5&#45;&gt;Node7 -->
<g id="edge6" class="edge">
<title>Node5&#45;&gt;Node7</title>
<path fill="none" stroke="midnightblue" d="M94.28,-56.05C137.91,-45.48 200.58,-30.28 239.76,-20.79"/>
<polygon fill="midnightblue" stroke="midnightblue" points="93.34,-52.68 84.45,-58.44 94.99,-59.48 93.34,-52.68"/>
</g>
<!-- Node8&#45;&gt;Node7 -->
<g id="edge8" class="edge">
<title>Node8&#45;&gt;Node7</title>
<path fill="none" stroke="midnightblue" d="M324.14,-51.65C312.31,-41.91 297.71,-29.88 287.71,-21.64"/>
<polygon fill="midnightblue" stroke="midnightblue" points="322.21,-54.59 332.16,-58.25 326.66,-49.19 322.21,-54.59"/>
</g>
<!-- Node8&#45;&gt;Node9 -->
<g id="edge9" class="edge">
<title>Node8&#45;&gt;Node9</title>
<path fill="none" stroke="midnightblue" d="M393.7,-58.04C393.8,-58.03 393.9,-58.01 394,-58 580.8,-31.46 630.25,-48.91 817,-22 819.92,-21.58 822.93,-21.09 825.96,-20.57"/>
<polygon fill="midnightblue" stroke="midnightblue" points="393.37,-54.55 384.05,-59.58 394.47,-61.46 393.37,-54.55"/>
</g>
<!-- Node13&#45;&gt;Node7 -->
<g id="edge15" class="edge">
<title>Node13&#45;&gt;Node7</title>
<path fill="none" stroke="midnightblue" d="M751.06,-57.81C581.22,-35.6 390.13,-20.38 312,-14.58"/>
<polygon fill="midnightblue" stroke="midnightblue" points="750.81,-61.31 761.19,-59.15 751.73,-54.37 750.81,-61.31"/>
</g>
<!-- Node13&#45;&gt;Node9 -->
<g id="edge16" class="edge">
<title>Node13&#45;&gt;Node9</title>
<path fill="none" stroke="midnightblue" d="M828.6,-50.79C837.83,-41.21 848.99,-29.64 856.7,-21.64"/>
<polygon fill="midnightblue" stroke="midnightblue" points="825.83,-48.62 821.41,-58.25 830.87,-53.48 825.83,-48.62"/>
</g>
<!-- Node14 -->
<g id="node14" class="node">
<title>Node14</title>
<g id="a_node14"><a xlink:href="../../d9/def/wren__primitive_8c.html" target="_top" xlink:title=" ">
<polygon fill="white" stroke="black" points="706.5,-0.5 706.5,-21.5 807.5,-21.5 807.5,-0.5 706.5,-0.5"/>
<text text-anchor="middle" x="757" y="-7.9" font-family="Helvetica,sans-Serif" font-size="12.00">wren_primitive.c</text>
</a>
</g>
</g>
<!-- Node13&#45;&gt;Node14 -->
<g id="edge14" class="edge">
<title>Node13&#45;&gt;Node14</title>
<path fill="none" stroke="midnightblue" d="M795.38,-51.08C785.91,-41.44 774.4,-29.72 766.47,-21.64"/>
<polygon fill="midnightblue" stroke="midnightblue" points="792.92,-53.56 802.42,-58.25 797.91,-48.66 792.92,-53.56"/>
</g>
</g>
</svg>
        <g id="navigator" transform="translate(0 0)" fill="#404254">
                <rect fill="#f2f5e9" fill-opacity="0.5" stroke="#606060" stroke-width=".5" x="0" y="0" width="60" height="60"/>
                <use id="zoomplus" xlink:href="#zoomPlus" x="17" y="9" onmousedown="handleZoom(evt,'in')"/>
                <use id="zoomminus" xlink:href="#zoomMin" x="42" y="9" onmousedown="handleZoom(evt,'out')"/>
                <use id="reset" xlink:href="#resetDef" x="30" y="36" onmousedown="handleReset()"/>
                <g id="arrowUp" xlink:href="#dirArrow" transform="translate(30 24)" onmousedown="handlePan(0,-1)">
                  <use xlink:href="#rim" fill="#404040">
                        <set attributeName="fill" to="#808080" begin="arrowUp.mouseover" end="arrowUp.mouseout"/>
                  </use>
                  <path fill="none" stroke="white" stroke-width="1.5" d="M0,-3.0v7 M-2.5,-0.5L0,-3.0L2.5,-0.5"/>
                </g>
                <g id="arrowRight" xlink:href="#dirArrow" transform="rotate(90) translate(36 -43)" onmousedown="handlePan(1,0)">
                  <use xlink:href="#rim" fill="#404040">
                        <set attributeName="fill" to="#808080" begin="arrowRight.mouseover" end="arrowRight.mouseout"/>
                  </use>
                  <path fill="none" stroke="white" stroke-width="1.5" d="M0,-3.0v7 M-2.5,-0.5L0,-3.0L2.5,-0.5"/>
                </g>
                <g id="arrowDown" xlink:href="#dirArrow" transform="rotate(180) translate(-30 -48)" onmousedown="handlePan(0,1)">
                  <use xlink:href="#rim" fill="#404040">
                        <set attributeName="fill" to="#808080" begin="arrowDown.mouseover" end="arrowDown.mouseout"/>
                  </use>
                  <path fill="none" stroke="white" stroke-width="1.5" d="M0,-3.0v7 M-2.5,-0.5L0,-3.0L2.5,-0.5"/>
                </g>
                <g id="arrowLeft" xlink:href="#dirArrow" transform="rotate(270) translate(-36 17)" onmousedown="handlePan(-1,0)">
                  <use xlink:href="#rim" fill="#404040">
                        <set attributeName="fill" to="#808080" begin="arrowLeft.mouseover" end="arrowLeft.mouseout"/>
                  </use>
                  <path fill="none" stroke="white" stroke-width="1.5" d="M0,-3.0v7 M-2.5,-0.5L0,-3.0L2.5,-0.5"/>
                </g>
        </g>
        <svg viewBox="0 0 15 15" width="100%" height="30px" preserveAspectRatio="xMaxYMin meet">
         <g id="arrow_out" transform="scale(0.3 0.3)">
          <a xlink:href="wren__value_8h__dep__incl_org.svg" target="_base">
           <rect id="button" ry="5" rx="5" y="6" x="6" height="38" width="38"
                fill="#f2f5e9" fill-opacity="0.5" stroke="#606060" stroke-width="1.0"/>
           <path id="arrow"
             d="M 11.500037,31.436501 C 11.940474,20.09759 22.043105,11.32322 32.158766,21.979434 L 37.068811,17.246167 C 37.068811,17.246167 37.088388,32 37.088388,32 L 22.160133,31.978069 C 22.160133,31.978069 26.997745,27.140456 26.997745,27.140456 C 18.528582,18.264221 13.291696,25.230495 11.500037,31.436501 z"
             style="fill:#404040;"/>
          </a>
         </g>
        </svg>
</svg>
