<?xml version="1.0" encoding="UTF-8" standalone="no"?>
<!DOCTYPE svg PUBLIC "-//W3C//DTD SVG 1.1//EN"
 "http://www.w3.org/Graphics/SVG/1.1/DTD/svg11.dtd">
<!-- Generated by graphviz version 2.47.3 (20210619.1520)
 -->
<!-- Title: erisAudioSynthWaveform2k Pages: 1 -->
<!--zoomable 1473 -->
<svg id="main" version="1.1" xmlns="http://www.w3.org/2000/svg" xmlns:xlink="http://www.w3.org/1999/xlink" xml:space="preserve" onload="init(evt)">
<style type="text/css"><![CDATA[
.edge:hover path { stroke: red; }
.edge:hover polygon { stroke: red; fill: red; }
]]></style>
<script type="text/javascript"><![CDATA[
var edges = document.getElementsByTagName('g');
if (edges && edges.length) {
  for (var i=0;i<edges.length;i++) {
    if (edges[i].id.substr(0,4)=='edge') {
      edges[i].setAttribute('class','edge');
    }
  }
}
]]></script>
        <defs>
                <circle id="rim" cx="0" cy="0" r="7"/>
                <circle id="rim2" cx="0" cy="0" r="3.5"/>
                <g id="zoomPlus">
                        <use xlink:href="#rim" fill="#404040">
                                <set attributeName="fill" to="#808080" begin="zoomplus.mouseover" end="zoomplus.mouseout"/>
                        </use>
                        <path d="M-4,0h8M0,-4v8" fill="none" stroke="white" stroke-width="1.5" pointer-events="none"/>
                </g>
                <g id="zoomMin">
                        <use xlink:href="#rim" fill="#404040">
                                <set attributeName="fill" to="#808080" begin="zoomminus.mouseover" end="zoomminus.mouseout"/>
                        </use>
                        <path d="M-4,0h8" fill="none" stroke="white" stroke-width="1.5" pointer-events="none"/>
                </g>
                <g id="dirArrow">
                        <path fill="none" stroke="white" stroke-width="1.5" d="M0,-3.0v7 M-2.5,-0.5L0,-3.0L2.5,-0.5"/>
                </g>
               <g id="resetDef">
                       <use xlink:href="#rim2" fill="#404040">
                               <set attributeName="fill" to="#808080" begin="reset.mouseover" end="reset.mouseout"/>
                       </use>
               </g>
        </defs>

<script type="text/javascript">
var viewWidth = 1796;
var viewHeight = 1473;
var sectionId = 'dynsection-1';
</script>
<script xlink:href="../../svgpan.js"/>
<svg id="graph" class="graph">
<g id="viewport">
<title>erisAudioSynthWaveform2k</title>
<!-- Node1 -->
<g id="node1" class="node">
<title>Node1</title>
<g id="a_node1"><a xlink:title=" ">
<polygon fill="#bfbfbf" stroke="black" points="155.12,-0.5 155.12,-104.5 421.12,-104.5 421.12,-0.5 155.12,-0.5"/>
<text text-anchor="middle" x="288.12" y="-86.1" font-family="Helvetica,sans-Serif" font-size="18.00">erisAudioSynthWaveform2k</text>
<polyline fill="none" stroke="black" points="155.12,-76.5 421.12,-76.5 "/>
<text text-anchor="middle" x="288.12" y="-58.1" font-family="Helvetica,sans-Serif" font-size="18.00"> </text>
<polyline fill="none" stroke="black" points="155.12,-48.5 421.12,-48.5 "/>
<text text-anchor="start" x="163.12" y="-30.1" font-family="Helvetica,sans-Serif" font-size="18.00">+ erisAudioSynthWaveform2k()</text>
<text text-anchor="start" x="163.12" y="-10.1" font-family="Helvetica,sans-Serif" font-size="18.00">+ void update()</text>
</a>
</g>
</g>
<!-- Node2 -->
<g id="node2" class="node">
<title>Node2</title>
<g id="a_node2"><a xlink:href="../../d8/dd0/class_audio_synth_waveform2k.html" target="_top" xlink:title=" ">
<polygon fill="none" stroke="black" points="1109.12,-142.5 1109.12,-486.5 1453.12,-486.5 1453.12,-142.5 1109.12,-142.5"/>
<text text-anchor="middle" x="1281.12" y="-468.1" font-family="Helvetica,sans-Serif" font-size="18.00">AudioSynthWaveform2k</text>
<polyline fill="none" stroke="black" points="1109.12,-458.5 1453.12,-458.5 "/>
<text text-anchor="middle" x="1281.12" y="-440.1" font-family="Helvetica,sans-Serif" font-size="18.00"> </text>
<polyline fill="none" stroke="black" points="1109.12,-430.5 1453.12,-430.5 "/>
<text text-anchor="start" x="1117.12" y="-412.1" font-family="Helvetica,sans-Serif" font-size="18.00">+ AudioSynthWaveform2k(void)</text>
<text text-anchor="start" x="1117.12" y="-392.1" font-family="Helvetica,sans-Serif" font-size="18.00">+ void amplitude(float n)</text>
<text text-anchor="start" x="1117.12" y="-372.1" font-family="Helvetica,sans-Serif" font-size="18.00">+ void arbitraryProgram(uint8_t program)</text>
<text text-anchor="start" x="1117.12" y="-352.1" font-family="Helvetica,sans-Serif" font-size="18.00">+ void arbitraryWaveform(const int16</text>
<text text-anchor="start" x="1117.12" y="-332.1" font-family="Helvetica,sans-Serif" font-size="18.00">_t *data, float maxFreq)</text>
<text text-anchor="start" x="1117.12" y="-312.1" font-family="Helvetica,sans-Serif" font-size="18.00">+ void begin(float t_amp, float t_freq,</text>
<text text-anchor="start" x="1117.12" y="-292.1" font-family="Helvetica,sans-Serif" font-size="18.00"> short t_type)</text>
<text text-anchor="start" x="1117.12" y="-272.1" font-family="Helvetica,sans-Serif" font-size="18.00">+ void begin(short t_type)</text>
<text text-anchor="start" x="1117.12" y="-252.1" font-family="Helvetica,sans-Serif" font-size="18.00">+ void frequency(float freq)</text>
<text text-anchor="start" x="1117.12" y="-232.1" font-family="Helvetica,sans-Serif" font-size="18.00">+ float getPhase()</text>
<text text-anchor="start" x="1117.12" y="-212.1" font-family="Helvetica,sans-Serif" font-size="18.00">+ void offset(float n)</text>
<text text-anchor="start" x="1117.12" y="-192.1" font-family="Helvetica,sans-Serif" font-size="18.00">+ void phase(float angle)</text>
<text text-anchor="start" x="1117.12" y="-172.1" font-family="Helvetica,sans-Serif" font-size="18.00">+ void pulseWidth(float n)</text>
<text text-anchor="start" x="1117.12" y="-152.1" font-family="Helvetica,sans-Serif" font-size="18.00">+ virtual void update(void)</text>
</a>
</g>
</g>
<!-- Node2&#45;&gt;Node1 -->
<g id="edge1" class="edge">
<title>Node2&#45;&gt;Node1</title>
<path fill="none" stroke="midnightblue" d="M1099.17,-265.86C903.15,-214.53 595.9,-134.09 421.25,-88.36"/>
<polygon fill="none" stroke="midnightblue" points="1098.44,-269.29 1109,-268.43 1100.21,-262.52 1098.44,-269.29"/>
</g>
<!-- Node3 -->
<g id="node3" class="node">
<title>Node3</title>
<g id="a_node3"><a xlink:href="../../d5/d96/class_audio_stream.html" target="_top" xlink:title=" ">
<polygon fill="none" stroke="black" points="420.62,-563.5 420.62,-1047.5 799.62,-1047.5 799.62,-563.5 420.62,-563.5"/>
<text text-anchor="middle" x="610.12" y="-1029.1" font-family="Helvetica,sans-Serif" font-size="18.00">AudioStream</text>
<polyline fill="none" stroke="black" points="420.62,-1019.5 799.62,-1019.5 "/>
<text text-anchor="middle" x="610.12" y="-1001.1" font-family="Helvetica,sans-Serif" font-size="18.00"> </text>
<polyline fill="none" stroke="black" points="420.62,-991.5 799.62,-991.5 "/>
<text text-anchor="start" x="428.62" y="-973.1" font-family="Helvetica,sans-Serif" font-size="18.00">+ AudioStream()</text>
<text text-anchor="start" x="428.62" y="-953.1" font-family="Helvetica,sans-Serif" font-size="18.00">+ AudioStream(unsigned char ninput,</text>
<text text-anchor="start" x="428.62" y="-933.1" font-family="Helvetica,sans-Serif" font-size="18.00"> audio_block_t **iqueue)</text>
<text text-anchor="start" x="428.62" y="-913.1" font-family="Helvetica,sans-Serif" font-size="18.00">+ bool isActive(void)</text>
<text text-anchor="start" x="428.62" y="-893.1" font-family="Helvetica,sans-Serif" font-size="18.00">+ int processorUsage(void)</text>
<text text-anchor="start" x="428.62" y="-873.1" font-family="Helvetica,sans-Serif" font-size="18.00">+ int processorUsageMax(void)</text>
<text text-anchor="start" x="428.62" y="-853.1" font-family="Helvetica,sans-Serif" font-size="18.00">+ void processorUsageMaxReset(void)</text>
<text text-anchor="start" x="428.62" y="-833.1" font-family="Helvetica,sans-Serif" font-size="18.00">+ static void initialize_memory(audio</text>
<text text-anchor="start" x="428.62" y="-813.1" font-family="Helvetica,sans-Serif" font-size="18.00">_block_t *data, unsigned int num)</text>
<text text-anchor="start" x="428.62" y="-793.1" font-family="Helvetica,sans-Serif" font-size="18.00"># audio_block_t * receiveReadOnly(unsigned</text>
<text text-anchor="start" x="428.62" y="-773.1" font-family="Helvetica,sans-Serif" font-size="18.00"> int index=0)</text>
<text text-anchor="start" x="428.62" y="-753.1" font-family="Helvetica,sans-Serif" font-size="18.00"># audio_block_t * receiveWritable(unsigned</text>
<text text-anchor="start" x="428.62" y="-733.1" font-family="Helvetica,sans-Serif" font-size="18.00"> int index=0)</text>
<text text-anchor="start" x="428.62" y="-713.1" font-family="Helvetica,sans-Serif" font-size="18.00"># void transmit(audio_block_t *block,</text>
<text text-anchor="start" x="428.62" y="-693.1" font-family="Helvetica,sans-Serif" font-size="18.00"> unsigned char index=0)</text>
<text text-anchor="start" x="428.62" y="-673.1" font-family="Helvetica,sans-Serif" font-size="18.00"># static audio_block_t * allocate(void)</text>
<text text-anchor="start" x="428.62" y="-653.1" font-family="Helvetica,sans-Serif" font-size="18.00"># static void release(audio_block_t *block)</text>
<text text-anchor="start" x="428.62" y="-633.1" font-family="Helvetica,sans-Serif" font-size="18.00"># static void update_all(void)</text>
<text text-anchor="start" x="428.62" y="-613.1" font-family="Helvetica,sans-Serif" font-size="18.00"># static bool update_setup(void)</text>
<text text-anchor="start" x="428.62" y="-593.1" font-family="Helvetica,sans-Serif" font-size="18.00"># static void update_stop(void)</text>
<text text-anchor="start" x="428.62" y="-573.1" font-family="Helvetica,sans-Serif" font-size="18.00">&#45; virtual void update(void)=0</text>
</a>
</g>
</g>
<!-- Node3&#45;&gt;Node2 -->
<g id="edge2" class="edge">
<title>Node3&#45;&gt;Node2</title>
<path fill="none" stroke="midnightblue" d="M808.01,-660.28C903.52,-590.68 1017.02,-507.96 1108.91,-441"/>
<polygon fill="none" stroke="midnightblue" points="805.73,-657.61 799.71,-666.33 809.85,-663.27 805.73,-657.61"/>
</g>
<!-- Node3&#45;&gt;Node3 -->
<g id="edge13" class="edge">
<title>Node3&#45;&gt;Node3</title>
<path fill="none" stroke="#404040" d="M799.63,-841.62C810.88,-832.99 817.62,-820.95 817.62,-805.5 817.62,-794.64 814.29,-785.46 808.4,-777.97"/>
<polygon fill="none" stroke="#404040" points="808.21,-777.78 801.12,-776.44 799.63,-769.38 806.72,-770.72 808.21,-777.78"/>
<text text-anchor="middle" x="871.12" y="-811.1" font-family="Helvetica,sans-Serif" font-size="18.00"> &#45;first_update</text>
<text text-anchor="middle" x="871.12" y="-791.1" font-family="Helvetica,sans-Serif" font-size="18.00">&#45;next_update</text>
</g>
<!-- Node4 -->
<g id="node4" class="node">
<title>Node4</title>
<g id="a_node4"><a xlink:href="../../d2/d7c/class_audio_connection.html" target="_top" xlink:title=" ">
<polygon fill="none" stroke="black" points="108.62,-162.5 108.62,-466.5 501.62,-466.5 501.62,-162.5 108.62,-162.5"/>
<text text-anchor="middle" x="305.12" y="-448.1" font-family="Helvetica,sans-Serif" font-size="18.00">AudioConnection</text>
<polyline fill="none" stroke="black" points="108.62,-438.5 501.62,-438.5 "/>
<text text-anchor="middle" x="305.12" y="-420.1" font-family="Helvetica,sans-Serif" font-size="18.00"> </text>
<polyline fill="none" stroke="black" points="108.62,-410.5 501.62,-410.5 "/>
<text text-anchor="start" x="116.62" y="-392.1" font-family="Helvetica,sans-Serif" font-size="18.00">+ AudioConnection(AudioStream *source,</text>
<text text-anchor="start" x="116.62" y="-372.1" font-family="Helvetica,sans-Serif" font-size="18.00"> AudioStream *destination)</text>
<text text-anchor="start" x="116.62" y="-352.1" font-family="Helvetica,sans-Serif" font-size="18.00">+ AudioConnection(AudioStream *source,</text>
<text text-anchor="start" x="116.62" y="-332.1" font-family="Helvetica,sans-Serif" font-size="18.00"> unsigned char sourceOutput, AudioStream</text>
<text text-anchor="start" x="116.62" y="-312.1" font-family="Helvetica,sans-Serif" font-size="18.00"> *destination, unsigned char destinationInput)</text>
<text text-anchor="start" x="116.62" y="-292.1" font-family="Helvetica,sans-Serif" font-size="18.00">+ ~AudioConnection()</text>
<text text-anchor="start" x="116.62" y="-272.1" font-family="Helvetica,sans-Serif" font-size="18.00">+ void connect(void)</text>
<text text-anchor="start" x="116.62" y="-252.1" font-family="Helvetica,sans-Serif" font-size="18.00">+ bool disconnect(void)</text>
<text text-anchor="start" x="116.62" y="-232.1" font-family="Helvetica,sans-Serif" font-size="18.00">+ bool reconnect(void)</text>
<text text-anchor="start" x="116.62" y="-212.1" font-family="Helvetica,sans-Serif" font-size="18.00">+ bool rewire(AudioStream *psource,</text>
<text text-anchor="start" x="116.62" y="-192.1" font-family="Helvetica,sans-Serif" font-size="18.00"> unsigned char sourceOutput, AudioStream</text>
<text text-anchor="start" x="116.62" y="-172.1" font-family="Helvetica,sans-Serif" font-size="18.00"> *pdestination, unsigned char destinationInput)</text>
</a>
</g>
</g>
<!-- Node3&#45;&gt;Node4 -->
<g id="edge7" class="edge">
<title>Node3&#45;&gt;Node4</title>
<path fill="none" stroke="#404040" d="M588.8,-563.45C581.89,-542.91 573.15,-523.1 562.12,-505 548.17,-482.11 530.33,-461.11 510.56,-442.1"/>
<polygon fill="none" stroke="#404040" points="510.43,-441.98 503.32,-440.81 501.66,-433.79 508.78,-434.96 510.43,-441.98"/>
<text text-anchor="middle" x="608.12" y="-530.6" font-family="Helvetica,sans-Serif" font-size="18.00"> +pDst</text>
<text text-anchor="middle" x="608.12" y="-510.6" font-family="Helvetica,sans-Serif" font-size="18.00">+pSrc</text>
</g>
<!-- Node4&#45;&gt;Node3 -->
<g id="edge3" class="edge">
<title>Node4&#45;&gt;Node3</title>
<path fill="none" stroke="#404040" d="M384.35,-466.51C399.08,-492.96 414.7,-519.99 430.12,-545 431.75,-547.65 433.41,-550.32 435.08,-552.99"/>
<polygon fill="none" stroke="#404040" points="435.19,-553.18 441.77,-556.13 441.58,-563.34 435,-560.39 435.19,-553.18"/>
<text text-anchor="middle" x="496.12" y="-520.6" font-family="Helvetica,sans-Serif" font-size="18.00"> &#45;destination_list</text>
</g>
<!-- Node4&#45;&gt;Node4 -->
<g id="edge4" class="edge">
<title>Node4&#45;&gt;Node4</title>
<path fill="none" stroke="#404040" d="M501.64,-338.7C512.9,-332.86 519.62,-324.8 519.62,-314.5 519.62,-307.74 516.72,-301.95 511.55,-297.11"/>
<polygon fill="none" stroke="#404040" points="511.53,-297.1 504.32,-297 501.64,-290.3 508.85,-290.4 511.53,-297.1"/>
<text text-anchor="middle" x="566.62" y="-310.1" font-family="Helvetica,sans-Serif" font-size="18.00"> +next_dest</text>
</g>
<!-- Node5 -->
<g id="node5" class="node">
<title>Node5</title>
<g id="a_node5"><a xlink:title=" ">
<polygon fill="none" stroke="#bfbfbf" points="113.12,-1172 113.12,-1256 165.12,-1256 165.12,-1172 113.12,-1172"/>
<text text-anchor="middle" x="139.12" y="-1237.6" font-family="Helvetica,sans-Serif" font-size="18.00">char</text>
<polyline fill="none" stroke="#bfbfbf" points="113.12,-1228 165.12,-1228 "/>
<text text-anchor="middle" x="139.12" y="-1209.6" font-family="Helvetica,sans-Serif" font-size="18.00"> </text>
<polyline fill="none" stroke="#bfbfbf" points="113.12,-1200 165.12,-1200 "/>
<text text-anchor="middle" x="139.12" y="-1181.6" font-family="Helvetica,sans-Serif" font-size="18.00"> </text>
</a>
</g>
</g>
<!-- Node5&#45;&gt;Node1 -->
<g id="edge23" class="edge">
<title>Node5&#45;&gt;Node1</title>
<path fill="none" stroke="#404040" d="M122.19,-1171.78C79.65,-1063.29 -26.11,-760.61 6.12,-505 26.95,-339.76 -7.13,-270.25 99.12,-142 111.66,-126.87 127.37,-114.17 144.34,-103.56"/>
<polygon fill="none" stroke="#404040" points="144.73,-103.33 147.85,-96.84 155.06,-97.22 151.93,-103.72 144.73,-103.33"/>
<text text-anchor="middle" x="93.62" y="-520.6" font-family="Helvetica,sans-Serif" font-size="18.00"> +short_name_lookup</text>
</g>
<!-- Node5&#45;&gt;Node3 -->
<g id="edge8" class="edge">
<title>Node5&#45;&gt;Node3</title>
<path fill="none" stroke="#404040" d="M165.22,-1180.39C194.51,-1146.17 245.29,-1093.61 301.12,-1066 340.81,-1046.37 360.63,-1069.9 399.12,-1048 402.86,-1045.87 406.57,-1043.65 410.24,-1041.34"/>
<polygon fill="none" stroke="#404040" points="410.46,-1041.2 413.3,-1034.57 420.51,-1034.63 417.68,-1041.26 410.46,-1041.2"/>
<text text-anchor="middle" x="356.62" y="-1111.6" font-family="Helvetica,sans-Serif" font-size="18.00"> #num_inputs</text>
<text text-anchor="middle" x="356.62" y="-1091.6" font-family="Helvetica,sans-Serif" font-size="18.00">+category</text>
<text text-anchor="middle" x="356.62" y="-1071.6" font-family="Helvetica,sans-Serif" font-size="18.00">+short_name</text>
</g>
<!-- Node5&#45;&gt;Node4 -->
<g id="edge5" class="edge">
<title>Node5&#45;&gt;Node4</title>
<path fill="none" stroke="#404040" d="M135.94,-1171.75C129.12,-1067.53 118.3,-786.07 179.12,-563 186.9,-534.46 198.19,-505.38 210.86,-477.66"/>
<polygon fill="none" stroke="#404040" points="210.9,-477.58 209.81,-470.45 215.97,-466.7 217.06,-473.83 210.9,-477.58"/>
<text text-anchor="middle" x="230.62" y="-811.1" font-family="Helvetica,sans-Serif" font-size="18.00"> +dest_index</text>
<text text-anchor="middle" x="230.62" y="-791.1" font-family="Helvetica,sans-Serif" font-size="18.00">+src_index</text>
</g>
<!-- Node6 -->
<g id="node6" class="node">
<title>Node6</title>
<g id="a_node6"><a xlink:title=" ">
<polygon fill="none" stroke="#bfbfbf" points="265.62,-1172 265.62,-1256 316.62,-1256 316.62,-1172 265.62,-1172"/>
<text text-anchor="middle" x="291.12" y="-1237.6" font-family="Helvetica,sans-Serif" font-size="18.00">bool</text>
<polyline fill="none" stroke="#bfbfbf" points="265.62,-1228 316.62,-1228 "/>
<text text-anchor="middle" x="291.12" y="-1209.6" font-family="Helvetica,sans-Serif" font-size="18.00"> </text>
<polyline fill="none" stroke="#bfbfbf" points="265.62,-1200 316.62,-1200 "/>
<text text-anchor="middle" x="291.12" y="-1181.6" font-family="Helvetica,sans-Serif" font-size="18.00"> </text>
</a>
</g>
</g>
<!-- Node6&#45;&gt;Node3 -->
<g id="edge11" class="edge">
<title>Node6&#45;&gt;Node3</title>
<path fill="none" stroke="#404040" d="M316.99,-1191.17C334.51,-1176.9 358.5,-1158.33 381.12,-1144 395.9,-1134.64 404.44,-1139.02 416.12,-1126 435.18,-1104.74 426.07,-1091.41 439.12,-1066 440.44,-1063.42 441.79,-1060.83 443.15,-1058.24"/>
<polygon fill="none" stroke="#404040" points="443.2,-1058.14 442.5,-1050.96 448.86,-1047.56 449.56,-1054.73 443.2,-1058.14"/>
<text text-anchor="middle" x="517.62" y="-1101.6" font-family="Helvetica,sans-Serif" font-size="18.00"> #active</text>
<text text-anchor="middle" x="517.62" y="-1081.6" font-family="Helvetica,sans-Serif" font-size="18.00">&#45;update_scheduled</text>
</g>
<!-- Node6&#45;&gt;Node4 -->
<g id="edge6" class="edge">
<title>Node6&#45;&gt;Node4</title>
<path fill="none" stroke="#404040" d="M287.7,-1171.87C286.65,-1157.38 285.63,-1140.98 285.12,-1126 284.2,-1099.35 284.88,-1092.67 285.12,-1066 287.12,-842.42 287.15,-786.48 294.12,-563 294.97,-535.73 296.07,-506.77 297.25,-478.65"/>
<polygon fill="none" stroke="#404040" points="297.25,-478.64 293.51,-472.47 297.76,-466.65 301.5,-472.81 297.25,-478.64"/>
<text text-anchor="middle" x="352.62" y="-801.1" font-family="Helvetica,sans-Serif" font-size="18.00"> +isConnected</text>
</g>
<!-- Node7 -->
<g id="node7" class="node">
<title>Node7</title>
<g id="a_node7"><a xlink:title=" ">
<polygon fill="none" stroke="#bfbfbf" points="510.62,-1380.5 510.62,-1464.5 591.62,-1464.5 591.62,-1380.5 510.62,-1380.5"/>
<text text-anchor="middle" x="551.12" y="-1446.1" font-family="Helvetica,sans-Serif" font-size="18.00">uint16_t</text>
<polyline fill="none" stroke="#bfbfbf" points="510.62,-1436.5 591.62,-1436.5 "/>
<text text-anchor="middle" x="551.12" y="-1418.1" font-family="Helvetica,sans-Serif" font-size="18.00"> </text>
<polyline fill="none" stroke="#bfbfbf" points="510.62,-1408.5 591.62,-1408.5 "/>
<text text-anchor="middle" x="551.12" y="-1390.1" font-family="Helvetica,sans-Serif" font-size="18.00"> </text>
</a>
</g>
</g>
<!-- Node7&#45;&gt;Node3 -->
<g id="edge9" class="edge">
<title>Node7&#45;&gt;Node3</title>
<path fill="none" stroke="#404040" d="M510.59,-1393.88C478.44,-1369.3 435.89,-1330.16 417.12,-1284 393.68,-1226.36 375.38,-1190.15 417.12,-1144 443.94,-1114.35 568.66,-1155.06 596.12,-1126 607.61,-1113.84 614.46,-1089.71 618.23,-1059.91"/>
<polygon fill="none" stroke="#404040" points="618.26,-1059.69 614.94,-1053.29 619.57,-1047.76 622.89,-1054.16 618.26,-1059.69"/>
<text text-anchor="middle" x="520.62" y="-1269.6" font-family="Helvetica,sans-Serif" font-size="18.00"> +cpu_cycles</text>
<text text-anchor="middle" x="520.62" y="-1249.6" font-family="Helvetica,sans-Serif" font-size="18.00">+cpu_cycles_max</text>
<text text-anchor="middle" x="520.62" y="-1229.6" font-family="Helvetica,sans-Serif" font-size="18.00">+cpu_cycles_total</text>
<text text-anchor="middle" x="520.62" y="-1209.6" font-family="Helvetica,sans-Serif" font-size="18.00">+cpu_cycles_total_max</text>
<text text-anchor="middle" x="520.62" y="-1189.6" font-family="Helvetica,sans-Serif" font-size="18.00">+memory_used</text>
<text text-anchor="middle" x="520.62" y="-1169.6" font-family="Helvetica,sans-Serif" font-size="18.00">+memory_used_max</text>
<text text-anchor="middle" x="520.62" y="-1149.6" font-family="Helvetica,sans-Serif" font-size="18.00">&#45;memory_pool_first_mask</text>
</g>
<!-- Node10 -->
<g id="node10" class="node">
<title>Node10</title>
<g id="a_node10"><a xlink:href="../../de/dd6/structaudio__block__struct.html" target="_top" xlink:title=" ">
<polygon fill="none" stroke="black" points="816.12,-1172 816.12,-1256 984.12,-1256 984.12,-1172 816.12,-1172"/>
<text text-anchor="middle" x="900.12" y="-1237.6" font-family="Helvetica,sans-Serif" font-size="18.00">audio_block_struct</text>
<polyline fill="none" stroke="black" points="816.12,-1228 984.12,-1228 "/>
<text text-anchor="middle" x="900.12" y="-1209.6" font-family="Helvetica,sans-Serif" font-size="18.00"> </text>
<polyline fill="none" stroke="black" points="816.12,-1200 984.12,-1200 "/>
<text text-anchor="middle" x="900.12" y="-1181.6" font-family="Helvetica,sans-Serif" font-size="18.00"> </text>
</a>
</g>
</g>
<!-- Node7&#45;&gt;Node10 -->
<g id="edge15" class="edge">
<title>Node7&#45;&gt;Node10</title>
<path fill="none" stroke="#404040" d="M587.06,-1380.21C612.73,-1353.51 649.61,-1320.4 689.12,-1302 735.22,-1280.53 755,-1303.13 802.12,-1284 815.45,-1278.59 828.73,-1271.07 841.01,-1262.97"/>
<polygon fill="none" stroke="#404040" points="841.17,-1262.85 843.86,-1256.16 851.07,-1256.06 848.38,-1262.76 841.17,-1262.85"/>
<text text-anchor="middle" x="778.12" y="-1327.6" font-family="Helvetica,sans-Serif" font-size="18.00"> +memory_pool_index</text>
</g>
<!-- Node8 -->
<g id="node8" class="node">
<title>Node8</title>
<g id="a_node8"><a xlink:title=" ">
<polygon fill="none" stroke="#bfbfbf" points="1023.62,-1172 1023.62,-1256 1104.62,-1256 1104.62,-1172 1023.62,-1172"/>
<text text-anchor="middle" x="1064.12" y="-1237.6" font-family="Helvetica,sans-Serif" font-size="18.00">uint32_t</text>
<polyline fill="none" stroke="#bfbfbf" points="1023.62,-1228 1104.62,-1228 "/>
<text text-anchor="middle" x="1064.12" y="-1209.6" font-family="Helvetica,sans-Serif" font-size="18.00"> </text>
<polyline fill="none" stroke="#bfbfbf" points="1023.62,-1200 1104.62,-1200 "/>
<text text-anchor="middle" x="1064.12" y="-1181.6" font-family="Helvetica,sans-Serif" font-size="18.00"> </text>
</a>
</g>
</g>
<!-- Node8&#45;&gt;Node2 -->
<g id="edge21" class="edge">
<title>Node8&#45;&gt;Node2</title>
<path fill="none" stroke="#404040" d="M1063.81,-1171.77C1063.01,-1037.76 1062.25,-619.83 1083.12,-563 1091.43,-540.36 1102.7,-518.22 1115.68,-497.07"/>
<polygon fill="none" stroke="#404040" points="1115.77,-496.92 1115.59,-489.71 1122.17,-486.77 1122.36,-493.98 1115.77,-496.92"/>
<text text-anchor="middle" x="1168.12" y="-831.1" font-family="Helvetica,sans-Serif" font-size="18.00"> &#45;phase_accumulator</text>
<text text-anchor="middle" x="1168.12" y="-811.1" font-family="Helvetica,sans-Serif" font-size="18.00">&#45;phase_increment</text>
<text text-anchor="middle" x="1168.12" y="-791.1" font-family="Helvetica,sans-Serif" font-size="18.00">&#45;phase_offset</text>
<text text-anchor="middle" x="1168.12" y="-771.1" font-family="Helvetica,sans-Serif" font-size="18.00">&#45;pulse_width</text>
</g>
<!-- Node8&#45;&gt;Node3 -->
<g id="edge10" class="edge">
<title>Node8&#45;&gt;Node3</title>
<path fill="none" stroke="#404040" d="M1030.98,-1171.79C1020.1,-1160.96 1007.15,-1150.5 993.12,-1144 955.44,-1126.55 840.16,-1151.15 807.12,-1126 784.39,-1108.7 797.26,-1091.35 784.12,-1066 782.77,-1063.41 781.41,-1060.81 780.03,-1058.21"/>
<polygon fill="none" stroke="#404040" points="779.95,-1058.06 773.58,-1054.68 774.24,-1047.5 780.61,-1050.88 779.95,-1058.06"/>
<text text-anchor="middle" x="933.62" y="-1091.6" font-family="Helvetica,sans-Serif" font-size="18.00"> &#45;memory_pool_available_mask</text>
</g>
<!-- Node9 -->
<g id="node9" class="node">
<title>Node9</title>
<g id="a_node9"><a xlink:title=" ">
<polygon fill="none" stroke="#bfbfbf" points="735.62,-1380.5 735.62,-1464.5 806.62,-1464.5 806.62,-1380.5 735.62,-1380.5"/>
<text text-anchor="middle" x="771.12" y="-1446.1" font-family="Helvetica,sans-Serif" font-size="18.00">uint8_t</text>
<polyline fill="none" stroke="#bfbfbf" points="735.62,-1436.5 806.62,-1436.5 "/>
<text text-anchor="middle" x="771.12" y="-1418.1" font-family="Helvetica,sans-Serif" font-size="18.00"> </text>
<polyline fill="none" stroke="#bfbfbf" points="735.62,-1408.5 806.62,-1408.5 "/>
<text text-anchor="middle" x="771.12" y="-1390.1" font-family="Helvetica,sans-Serif" font-size="18.00"> </text>
</a>
</g>
</g>
<!-- Node9&#45;&gt;Node3 -->
<g id="edge12" class="edge">
<title>Node9&#45;&gt;Node3</title>
<path fill="none" stroke="#404040" d="M735.41,-1412.2C709.98,-1403.59 677.36,-1388.08 660.12,-1362 642.81,-1335.83 630.22,-1193.81 622,-1059.94"/>
<polygon fill="none" stroke="#404040" points="621.99,-1059.82 617.63,-1054.07 621.26,-1047.84 625.62,-1053.59 621.99,-1059.82"/>
<text text-anchor="middle" x="717.12" y="-1239.6" font-family="Helvetica,sans-Serif" font-size="18.00"> #numConnections</text>
<text text-anchor="middle" x="717.12" y="-1219.6" font-family="Helvetica,sans-Serif" font-size="18.00">+instance</text>
<text text-anchor="middle" x="717.12" y="-1199.6" font-family="Helvetica,sans-Serif" font-size="18.00">+unum_inputs</text>
<text text-anchor="middle" x="717.12" y="-1179.6" font-family="Helvetica,sans-Serif" font-size="18.00">+unum_outputs</text>
</g>
<!-- Node9&#45;&gt;Node10 -->
<g id="edge16" class="edge">
<title>Node9&#45;&gt;Node10</title>
<path fill="none" stroke="#404040" d="M806.97,-1408.91C828.85,-1399.38 855.51,-1384.12 871.12,-1362 890.21,-1334.94 897.48,-1298.44 899.97,-1268.58"/>
<polygon fill="none" stroke="#404040" points="900,-1268.21 896.39,-1261.97 900.77,-1256.23 904.37,-1262.48 900,-1268.21"/>
<text text-anchor="middle" x="941.12" y="-1347.6" font-family="Helvetica,sans-Serif" font-size="18.00"> +padding</text>
<text text-anchor="middle" x="941.12" y="-1327.6" font-family="Helvetica,sans-Serif" font-size="18.00">+ref_count</text>
<text text-anchor="middle" x="941.12" y="-1307.6" font-family="Helvetica,sans-Serif" font-size="18.00">+reserved1</text>
</g>
<!-- Node10&#45;&gt;Node3 -->
<g id="edge14" class="edge">
<title>Node10&#45;&gt;Node3</title>
<path fill="none" stroke="#404040" d="M851.42,-1171.86C836.45,-1161.17 819.36,-1150.77 802.12,-1144 774.35,-1133.1 690.71,-1146.58 669.12,-1126 662.17,-1119.38 654.75,-1093.7 647.59,-1059.56"/>
<polygon fill="none" stroke="#404040" points="647.57,-1059.43 642.45,-1054.35 645.18,-1047.67 650.29,-1052.76 647.57,-1059.43"/>
<text text-anchor="middle" x="726.62" y="-1101.6" font-family="Helvetica,sans-Serif" font-size="18.00"> &#45;inputQueue</text>
<text text-anchor="middle" x="726.62" y="-1081.6" font-family="Helvetica,sans-Serif" font-size="18.00">&#45;memory_pool</text>
</g>
<!-- Node11 -->
<g id="node11" class="node">
<title>Node11</title>
<g id="a_node11"><a xlink:title=" ">
<polygon fill="none" stroke="#bfbfbf" points="1472.62,-1380.5 1472.62,-1464.5 1543.62,-1464.5 1543.62,-1380.5 1472.62,-1380.5"/>
<text text-anchor="middle" x="1508.12" y="-1446.1" font-family="Helvetica,sans-Serif" font-size="18.00">int16_t</text>
<polyline fill="none" stroke="#bfbfbf" points="1472.62,-1436.5 1543.62,-1436.5 "/>
<text text-anchor="middle" x="1508.12" y="-1418.1" font-family="Helvetica,sans-Serif" font-size="18.00"> </text>
<polyline fill="none" stroke="#bfbfbf" points="1472.62,-1408.5 1543.62,-1408.5 "/>
<text text-anchor="middle" x="1508.12" y="-1390.1" font-family="Helvetica,sans-Serif" font-size="18.00"> </text>
</a>
</g>
</g>
<!-- Node11&#45;&gt;Node2 -->
<g id="edge22" class="edge">
<title>Node11&#45;&gt;Node2</title>
<path fill="none" stroke="#404040" d="M1535.6,-1380.17C1622.72,-1243.52 1876.26,-798.27 1689.12,-505 1639.31,-426.95 1548.14,-380.55 1464.59,-353.22"/>
<polygon fill="none" stroke="#404040" points="1464.56,-353.21 1457.63,-355.21 1453.12,-349.57 1460.06,-347.58 1464.56,-353.21"/>
<text text-anchor="middle" x="1740.12" y="-1111.6" font-family="Helvetica,sans-Serif" font-size="18.00"> &#45;arbdata</text>
<text text-anchor="middle" x="1740.12" y="-1091.6" font-family="Helvetica,sans-Serif" font-size="18.00">&#45;sample</text>
<text text-anchor="middle" x="1740.12" y="-1071.6" font-family="Helvetica,sans-Serif" font-size="18.00">&#45;tone_offset</text>
</g>
<!-- Node11&#45;&gt;Node10 -->
<g id="edge17" class="edge">
<title>Node11&#45;&gt;Node10</title>
<path fill="none" stroke="#404040" d="M1472.56,-1415.07C1389.76,-1399.37 1178.58,-1355.07 1014.12,-1284 999.9,-1277.86 985.33,-1270.21 971.55,-1262.26"/>
<polygon fill="none" stroke="#404040" points="971.53,-1262.25 964.33,-1262.64 961.19,-1256.15 968.39,-1255.75 971.53,-1262.25"/>
<text text-anchor="middle" x="1266.12" y="-1327.6" font-family="Helvetica,sans-Serif" font-size="18.00"> +data</text>
</g>
<!-- Node12 -->
<g id="node12" class="node">
<title>Node12</title>
<g id="a_node12"><a xlink:title=" ">
<polygon fill="none" stroke="#bfbfbf" points="1262.62,-763.5 1262.62,-847.5 1319.62,-847.5 1319.62,-763.5 1262.62,-763.5"/>
<text text-anchor="middle" x="1291.12" y="-829.1" font-family="Helvetica,sans-Serif" font-size="18.00">short</text>
<polyline fill="none" stroke="#bfbfbf" points="1262.62,-819.5 1319.62,-819.5 "/>
<text text-anchor="middle" x="1291.12" y="-801.1" font-family="Helvetica,sans-Serif" font-size="18.00"> </text>
<polyline fill="none" stroke="#bfbfbf" points="1262.62,-791.5 1319.62,-791.5 "/>
<text text-anchor="middle" x="1291.12" y="-773.1" font-family="Helvetica,sans-Serif" font-size="18.00"> </text>
</a>
</g>
</g>
<!-- Node12&#45;&gt;Node2 -->
<g id="edge18" class="edge">
<title>Node12&#45;&gt;Node2</title>
<path fill="none" stroke="#404040" d="M1289.3,-763.16C1287.13,-711.96 1283.62,-622.07 1282.12,-545 1281.82,-529.92 1281.59,-514.28 1281.42,-498.58"/>
<polygon fill="none" stroke="#404040" points="1281.42,-498.57 1277.36,-492.61 1281.29,-486.57 1285.36,-492.53 1281.42,-498.57"/>
<text text-anchor="middle" x="1327.62" y="-520.6" font-family="Helvetica,sans-Serif" font-size="18.00"> &#45;tone_type</text>
</g>
<!-- Node13 -->
<g id="node13" class="node">
<title>Node13</title>
<g id="a_node13"><a xlink:title=" ">
<polygon fill="none" stroke="#bfbfbf" points="1338.12,-763.5 1338.12,-847.5 1536.12,-847.5 1536.12,-763.5 1338.12,-763.5"/>
<text text-anchor="middle" x="1437.12" y="-829.1" font-family="Helvetica,sans-Serif" font-size="18.00">BandLimitedWaveform</text>
<polyline fill="none" stroke="#bfbfbf" points="1338.12,-819.5 1536.12,-819.5 "/>
<text text-anchor="middle" x="1437.12" y="-801.1" font-family="Helvetica,sans-Serif" font-size="18.00"> </text>
<polyline fill="none" stroke="#bfbfbf" points="1338.12,-791.5 1536.12,-791.5 "/>
<text text-anchor="middle" x="1437.12" y="-773.1" font-family="Helvetica,sans-Serif" font-size="18.00"> </text>
</a>
</g>
</g>
<!-- Node13&#45;&gt;Node2 -->
<g id="edge19" class="edge">
<title>Node13&#45;&gt;Node2</title>
<path fill="none" stroke="#404040" d="M1431.56,-763.45C1422.92,-704.95 1403.98,-594.75 1373.12,-505 1372.34,-502.73 1371.54,-500.45 1370.72,-498.17"/>
<polygon fill="none" stroke="#404040" points="1370.64,-497.96 1364.8,-493.72 1366.47,-486.71 1372.3,-490.94 1370.64,-497.96"/>
<text text-anchor="middle" x="1476.62" y="-520.6" font-family="Helvetica,sans-Serif" font-size="18.00"> &#45;band_limit_waveform</text>
</g>
<!-- Node14 -->
<g id="node14" class="node">
<title>Node14</title>
<g id="a_node14"><a xlink:title=" ">
<polygon fill="none" stroke="#bfbfbf" points="1563.62,-763.5 1563.62,-847.5 1634.62,-847.5 1634.62,-763.5 1563.62,-763.5"/>
<text text-anchor="middle" x="1599.12" y="-829.1" font-family="Helvetica,sans-Serif" font-size="18.00">int32_t</text>
<polyline fill="none" stroke="#bfbfbf" points="1563.62,-819.5 1634.62,-819.5 "/>
<text text-anchor="middle" x="1599.12" y="-801.1" font-family="Helvetica,sans-Serif" font-size="18.00"> </text>
<polyline fill="none" stroke="#bfbfbf" points="1563.62,-791.5 1634.62,-791.5 "/>
<text text-anchor="middle" x="1599.12" y="-773.1" font-family="Helvetica,sans-Serif" font-size="18.00"> </text>
</a>
</g>
</g>
<!-- Node14&#45;&gt;Node2 -->
<g id="edge20" class="edge">
<title>Node14&#45;&gt;Node2</title>
<path fill="none" stroke="#404040" d="M1605.88,-763.29C1613.71,-702.15 1619.93,-585.95 1571.12,-505 1545.17,-461.97 1505.27,-426.84 1463.29,-399.04"/>
<polygon fill="none" stroke="#404040" points="1463.23,-399 1456.02,-399.11 1453.15,-392.49 1460.37,-392.39 1463.23,-399"/>
<text text-anchor="middle" x="1636.62" y="-520.6" font-family="Helvetica,sans-Serif" font-size="18.00"> &#45;magnitude</text>
</g>
</g>
</svg>
        <g id="navigator" transform="translate(0 0)" fill="#404254">
                <rect fill="#f2f5e9" fill-opacity="0.5" stroke="#606060" stroke-width=".5" x="0" y="0" width="60" height="60"/>
                <use id="zoomplus" xlink:href="#zoomPlus" x="17" y="9" onmousedown="handleZoom(evt,'in')"/>
                <use id="zoomminus" xlink:href="#zoomMin" x="42" y="9" onmousedown="handleZoom(evt,'out')"/>
                <use id="reset" xlink:href="#resetDef" x="30" y="36" onmousedown="handleReset()"/>
                <g id="arrowUp" xlink:href="#dirArrow" transform="translate(30 24)" onmousedown="handlePan(0,-1)">
                  <use xlink:href="#rim" fill="#404040">
                        <set attributeName="fill" to="#808080" begin="arrowUp.mouseover" end="arrowUp.mouseout"/>
                  </use>
                  <path fill="none" stroke="white" stroke-width="1.5" d="M0,-3.0v7 M-2.5,-0.5L0,-3.0L2.5,-0.5"/>
                </g>
                <g id="arrowRight" xlink:href="#dirArrow" transform="rotate(90) translate(36 -43)" onmousedown="handlePan(1,0)">
                  <use xlink:href="#rim" fill="#404040">
                        <set attributeName="fill" to="#808080" begin="arrowRight.mouseover" end="arrowRight.mouseout"/>
                  </use>
                  <path fill="none" stroke="white" stroke-width="1.5" d="M0,-3.0v7 M-2.5,-0.5L0,-3.0L2.5,-0.5"/>
                </g>
                <g id="arrowDown" xlink:href="#dirArrow" transform="rotate(180) translate(-30 -48)" onmousedown="handlePan(0,1)">
                  <use xlink:href="#rim" fill="#404040">
                        <set attributeName="fill" to="#808080" begin="arrowDown.mouseover" end="arrowDown.mouseout"/>
                  </use>
                  <path fill="none" stroke="white" stroke-width="1.5" d="M0,-3.0v7 M-2.5,-0.5L0,-3.0L2.5,-0.5"/>
                </g>
                <g id="arrowLeft" xlink:href="#dirArrow" transform="rotate(270) translate(-36 17)" onmousedown="handlePan(-1,0)">
                  <use xlink:href="#rim" fill="#404040">
                        <set attributeName="fill" to="#808080" begin="arrowLeft.mouseover" end="arrowLeft.mouseout"/>
                  </use>
                  <path fill="none" stroke="white" stroke-width="1.5" d="M0,-3.0v7 M-2.5,-0.5L0,-3.0L2.5,-0.5"/>
                </g>
        </g>
        <svg viewBox="0 0 15 15" width="100%" height="30px" preserveAspectRatio="xMaxYMin meet">
         <g id="arrow_out" transform="scale(0.3 0.3)">
          <a xlink:href="classeris_audio_synth_waveform2k__coll__graph_org.svg" target="_base">
           <rect id="button" ry="5" rx="5" y="6" x="6" height="38" width="38"
                fill="#f2f5e9" fill-opacity="0.5" stroke="#606060" stroke-width="1.0"/>
           <path id="arrow"
             d="M 11.500037,31.436501 C 11.940474,20.09759 22.043105,11.32322 32.158766,21.979434 L 37.068811,17.246167 C 37.068811,17.246167 37.088388,32 37.088388,32 L 22.160133,31.978069 C 22.160133,31.978069 26.997745,27.140456 26.997745,27.140456 C 18.528582,18.264221 13.291696,25.230495 11.500037,31.436501 z"
             style="fill:#404040;"/>
          </a>
         </g>
        </svg>
</svg>
