<?xml version="1.0" encoding="UTF-8" standalone="no"?>
<!DOCTYPE svg PUBLIC "-//W3C//DTD SVG 1.1//EN"
 "http://www.w3.org/Graphics/SVG/1.1/DTD/svg11.dtd">
<!-- Generated by graphviz version 2.47.3 (20210619.1520)
 -->
<!-- Title: cpplint.IsMacroDefinition Pages: 1 -->
<svg width="1180pt" height="43pt"
 viewBox="0.00 0.00 1180.00 43.00" xmlns="http://www.w3.org/2000/svg" xmlns:xlink="http://www.w3.org/1999/xlink">
<g id="graph0" class="graph" transform="scale(1 1) rotate(0) translate(4 39)">
<title>cpplint.IsMacroDefinition</title>
<polygon fill="white" stroke="transparent" points="-4,4 -4,-39 1176,-39 1176,4 -4,4"/>
<!-- Node1 -->
<g id="node1" class="node">
<title>Node1</title>
<g id="a_node1"><a xlink:title=" ">
<polygon fill="#bfbfbf" stroke="black" points="1028,-7 1028,-28 1172,-28 1172,-7 1028,-7"/>
<text text-anchor="middle" x="1100" y="-14.4" font-family="Helvetica,sans-Serif" font-size="12.00">cpplint.IsMacroDefinition</text>
</a>
</g>
</g>
<!-- Node2 -->
<g id="node2" class="node">
<title>Node2</title>
<g id="a_node2"><a xlink:href="../../d3/d23/namespacecpplint.html#aaaeb792789007d86b0898676c00caa72" target="_top" xlink:title=" ">
<polygon fill="white" stroke="black" points="805,-0.5 805,-34.5 992,-34.5 992,-0.5 805,-0.5"/>
<text text-anchor="start" x="813" y="-20.9" font-family="Helvetica,sans-Serif" font-size="12.00">cpplint.ShouldCheckNamespace</text>
<text text-anchor="middle" x="898.5" y="-7.9" font-family="Helvetica,sans-Serif" font-size="12.00">Indentation</text>
</a>
</g>
</g>
<!-- Node1&#45;&gt;Node2 -->
<g id="edge1" class="edge">
<title>Node1&#45;&gt;Node2</title>
<path fill="none" stroke="midnightblue" d="M1017.7,-17.5C1009.32,-17.5 1000.76,-17.5 992.27,-17.5"/>
<polygon fill="midnightblue" stroke="midnightblue" points="1017.82,-21 1027.82,-17.5 1017.82,-14 1017.82,-21"/>
</g>
<!-- Node3 -->
<g id="node3" class="node">
<title>Node3</title>
<g id="a_node3"><a xlink:href="../../d3/d23/namespacecpplint.html#a7c5964127d06521a2a05fbb28cc26478" target="_top" xlink:title=" ">
<polygon fill="white" stroke="black" points="600,-0.5 600,-34.5 769,-34.5 769,-0.5 600,-0.5"/>
<text text-anchor="start" x="608" y="-20.9" font-family="Helvetica,sans-Serif" font-size="12.00">cpplint.CheckForNamespace</text>
<text text-anchor="middle" x="684.5" y="-7.9" font-family="Helvetica,sans-Serif" font-size="12.00">Indentation</text>
</a>
</g>
</g>
<!-- Node2&#45;&gt;Node3 -->
<g id="edge2" class="edge">
<title>Node2&#45;&gt;Node3</title>
<path fill="none" stroke="midnightblue" d="M794.82,-17.5C786.27,-17.5 777.7,-17.5 769.32,-17.5"/>
<polygon fill="midnightblue" stroke="midnightblue" points="794.82,-21 804.82,-17.5 794.82,-14 794.82,-21"/>
</g>
<!-- Node4 -->
<g id="node4" class="node">
<title>Node4</title>
<g id="a_node4"><a xlink:href="../../d3/d23/namespacecpplint.html#ac7c198c2adf60fd79a3f2b4270055a3b" target="_top" xlink:title=" ">
<polygon fill="white" stroke="black" points="445,-7 445,-28 564,-28 564,-7 445,-7"/>
<text text-anchor="middle" x="504.5" y="-14.4" font-family="Helvetica,sans-Serif" font-size="12.00">cpplint.ProcessLine</text>
</a>
</g>
</g>
<!-- Node3&#45;&gt;Node4 -->
<g id="edge3" class="edge">
<title>Node3&#45;&gt;Node4</title>
<path fill="none" stroke="midnightblue" d="M589.75,-17.5C581.04,-17.5 572.4,-17.5 564.15,-17.5"/>
<polygon fill="midnightblue" stroke="midnightblue" points="589.97,-21 599.97,-17.5 589.97,-14 589.97,-21"/>
</g>
<!-- Node5 -->
<g id="node5" class="node">
<title>Node5</title>
<g id="a_node5"><a xlink:href="../../d3/d23/namespacecpplint.html#ace3e46f0fab9638ad0e786037a5ca96c" target="_top" xlink:title=" ">
<polygon fill="white" stroke="black" points="267,-7 267,-28 409,-28 409,-7 267,-7"/>
<text text-anchor="middle" x="338" y="-14.4" font-family="Helvetica,sans-Serif" font-size="12.00">cpplint.ProcessFileData</text>
</a>
</g>
</g>
<!-- Node4&#45;&gt;Node5 -->
<g id="edge4" class="edge">
<title>Node4&#45;&gt;Node5</title>
<path fill="none" stroke="midnightblue" d="M434.44,-17.5C426.03,-17.5 417.44,-17.5 409.02,-17.5"/>
<polygon fill="midnightblue" stroke="midnightblue" points="434.58,-21 444.58,-17.5 434.58,-14 434.58,-21"/>
</g>
<!-- Node6 -->
<g id="node6" class="node">
<title>Node6</title>
<g id="a_node6"><a xlink:href="../../d3/d23/namespacecpplint.html#a41785091b61e8719f4a4a886eb20fe43" target="_top" xlink:title=" ">
<polygon fill="white" stroke="black" points="115,-7 115,-28 231,-28 231,-7 115,-7"/>
<text text-anchor="middle" x="173" y="-14.4" font-family="Helvetica,sans-Serif" font-size="12.00">cpplint.ProcessFile</text>
</a>
</g>
</g>
<!-- Node5&#45;&gt;Node6 -->
<g id="edge5" class="edge">
<title>Node5&#45;&gt;Node6</title>
<path fill="none" stroke="midnightblue" d="M256.75,-17.5C248.06,-17.5 239.34,-17.5 231,-17.5"/>
<polygon fill="midnightblue" stroke="midnightblue" points="256.93,-21 266.93,-17.5 256.93,-14 256.93,-21"/>
</g>
<!-- Node7 -->
<g id="node7" class="node">
<title>Node7</title>
<g id="a_node7"><a xlink:href="../../d3/d23/namespacecpplint.html#a03dd39c6bfb4337676fcfaf5cd797c91" target="_top" xlink:title=" ">
<polygon fill="white" stroke="black" points="0,-7 0,-28 79,-28 79,-7 0,-7"/>
<text text-anchor="middle" x="39.5" y="-14.4" font-family="Helvetica,sans-Serif" font-size="12.00">cpplint.main</text>
</a>
</g>
</g>
<!-- Node6&#45;&gt;Node7 -->
<g id="edge6" class="edge">
<title>Node6&#45;&gt;Node7</title>
<path fill="none" stroke="midnightblue" d="M104.49,-17.5C95.77,-17.5 87.1,-17.5 79.07,-17.5"/>
<polygon fill="midnightblue" stroke="midnightblue" points="104.7,-21 114.7,-17.5 104.7,-14 104.7,-21"/>
</g>
</g>
</svg>
