<?xml version="1.0" encoding="UTF-8" standalone="no"?>
<!DOCTYPE svg PUBLIC "-//W3C//DTD SVG 1.1//EN"
 "http://www.w3.org/Graphics/SVG/1.1/DTD/svg11.dtd">
<!-- Generated by graphviz version 2.47.3 (20210619.1520)
 -->
<!-- Title: cpplint.CheckForNonConstReference Pages: 1 -->
<svg width="1538pt" height="732pt"
 viewBox="0.00 0.00 1538.00 731.55" xmlns="http://www.w3.org/2000/svg" xmlns:xlink="http://www.w3.org/1999/xlink">
<g id="graph0" class="graph" transform="scale(1 1) rotate(0) translate(4 727.55)">
<title>cpplint.CheckForNonConstReference</title>
<polygon fill="white" stroke="transparent" points="-4,4 -4,-727.55 1534,-727.55 1534,4 -4,4"/>
<!-- Node1 -->
<g id="node1" class="node">
<title>Node1</title>
<g id="a_node1"><a xlink:title=" ">
<polygon fill="#bfbfbf" stroke="black" points="0,-329 0,-363 157,-363 157,-329 0,-329"/>
<text text-anchor="start" x="8" y="-349.4" font-family="Helvetica,sans-Serif" font-size="12.00">cpplint.CheckForNonConst</text>
<text text-anchor="middle" x="78.5" y="-336.4" font-family="Helvetica,sans-Serif" font-size="12.00">Reference</text>
</a>
</g>
</g>
<!-- Node2 -->
<g id="node2" class="node">
<title>Node2</title>
<g id="a_node2"><a xlink:href="../../d3/d23/namespacecpplint.html#ac8519cf084d818c931eac29994b03f55" target="_top" xlink:title=" ">
<polygon fill="white" stroke="black" points="212.5,-393.5 212.5,-414.5 359.5,-414.5 359.5,-393.5 212.5,-393.5"/>
<text text-anchor="middle" x="286" y="-400.9" font-family="Helvetica,sans-Serif" font-size="12.00">cpplint.IsDerivedFunction</text>
</a>
</g>
</g>
<!-- Node1&#45;&gt;Node2 -->
<g id="edge1" class="edge">
<title>Node1&#45;&gt;Node2</title>
<path fill="none" stroke="midnightblue" d="M139.77,-363.01C171.02,-371.83 208.64,-382.45 237.76,-390.67"/>
<polygon fill="midnightblue" stroke="midnightblue" points="237.1,-394.12 247.68,-393.47 239,-387.38 237.1,-394.12"/>
</g>
<!-- Node5 -->
<g id="node5" class="node">
<title>Node5</title>
<g id="a_node5"><a xlink:href="../../d3/d23/namespacecpplint.html#a75eae6bb88590e904f751502c8ee4bab" target="_top" xlink:title=" ">
<polygon fill="white" stroke="black" points="827,-451.5 827,-472.5 918,-472.5 918,-451.5 827,-451.5"/>
<text text-anchor="middle" x="872.5" y="-458.9" font-family="Helvetica,sans-Serif" font-size="12.00">cpplint.Search</text>
</a>
</g>
</g>
<!-- Node1&#45;&gt;Node5 -->
<g id="edge70" class="edge">
<title>Node1&#45;&gt;Node5</title>
<path fill="none" stroke="midnightblue" d="M87.2,-363.31C102.4,-395.28 139.5,-463.31 193,-496 278.48,-548.23 315.2,-526.3 415,-535 582.24,-549.58 630.76,-549.05 791,-499 808.82,-493.43 827.85,-484.82 842.92,-477.31"/>
<polygon fill="midnightblue" stroke="midnightblue" points="844.89,-480.24 852.21,-472.58 841.71,-474 844.89,-480.24"/>
</g>
<!-- Node6 -->
<g id="node6" class="node">
<title>Node6</title>
<g id="a_node6"><a xlink:href="../../d3/d23/namespacecpplint.html#a73ac2ecfcd9c52b4a3755176c68dea7e" target="_top" xlink:title=" ">
<polygon fill="white" stroke="black" points="664.5,-347.5 664.5,-368.5 749.5,-368.5 749.5,-347.5 664.5,-347.5"/>
<text text-anchor="middle" x="707" y="-354.9" font-family="Helvetica,sans-Serif" font-size="12.00">cpplint.Match</text>
</a>
</g>
</g>
<!-- Node1&#45;&gt;Node6 -->
<g id="edge64" class="edge">
<title>Node1&#45;&gt;Node6</title>
<path fill="none" stroke="midnightblue" d="M157.26,-347.49C286.95,-349.97 543.98,-354.9 654.02,-357"/>
<polygon fill="midnightblue" stroke="midnightblue" points="654.14,-360.51 664.21,-357.2 654.27,-353.51 654.14,-360.51"/>
</g>
<!-- Node37 -->
<g id="node26" class="node">
<title>Node37</title>
<g id="a_node26"><a xlink:href="../../d3/d23/namespacecpplint.html#ae06fb1dd669681214573c0441b7e854f" target="_top" xlink:title=" ">
<polygon fill="white" stroke="black" points="438.5,-242.5 438.5,-263.5 563.5,-263.5 563.5,-242.5 438.5,-242.5"/>
<text text-anchor="middle" x="501" y="-249.9" font-family="Helvetica,sans-Serif" font-size="12.00">cpplint.IsInitializerList</text>
</a>
</g>
</g>
<!-- Node1&#45;&gt;Node37 -->
<g id="edge59" class="edge">
<title>Node1&#45;&gt;Node37</title>
<path fill="none" stroke="midnightblue" d="M126.85,-328.99C147.05,-322.14 171,-314.57 193,-309 272.61,-288.86 365.56,-272.94 428.15,-263.3"/>
<polygon fill="midnightblue" stroke="midnightblue" points="428.96,-266.72 438.32,-261.75 427.9,-259.8 428.96,-266.72"/>
</g>
<!-- Node38 -->
<g id="node27" class="node">
<title>Node38</title>
<g id="a_node27"><a xlink:href="../../d3/d23/namespacecpplint.html#a52e4468f674e140c256254eb0d1cf007" target="_top" xlink:title=" ">
<polygon fill="white" stroke="black" points="424.5,-283 424.5,-317 577.5,-317 577.5,-283 424.5,-283"/>
<text text-anchor="start" x="432.5" y="-303.4" font-family="Helvetica,sans-Serif" font-size="12.00">cpplint.IsOutOfLineMethod</text>
<text text-anchor="middle" x="501" y="-290.4" font-family="Helvetica,sans-Serif" font-size="12.00">Definition</text>
</a>
</g>
</g>
<!-- Node1&#45;&gt;Node38 -->
<g id="edge62" class="edge">
<title>Node1&#45;&gt;Node38</title>
<path fill="none" stroke="midnightblue" d="M157.02,-336.24C169.06,-334.78 181.36,-333.32 193,-332 267.65,-323.51 352.6,-314.72 414.2,-308.51"/>
<polygon fill="midnightblue" stroke="midnightblue" points="414.66,-311.98 424.26,-307.49 413.96,-305.01 414.66,-311.98"/>
</g>
<!-- Node39 -->
<g id="node28" class="node">
<title>Node39</title>
<g id="a_node28"><a xlink:href="../../d3/d23/namespacecpplint.html#a1b85a5657aeab8b4a0ed85e06aed3576" target="_top" xlink:title=" ">
<polygon fill="white" stroke="black" points="231,-220.5 231,-241.5 341,-241.5 341,-220.5 231,-220.5"/>
<text text-anchor="middle" x="286" y="-227.9" font-family="Helvetica,sans-Serif" font-size="12.00">cpplint.ReplaceAll</text>
</a>
</g>
</g>
<!-- Node1&#45;&gt;Node39 -->
<g id="edge65" class="edge">
<title>Node1&#45;&gt;Node39</title>
<path fill="none" stroke="midnightblue" d="M96.4,-328.88C117.31,-308.64 154.84,-275.28 193,-256 201.97,-251.47 211.87,-247.67 221.74,-244.53"/>
<polygon fill="midnightblue" stroke="midnightblue" points="222.99,-247.81 231.58,-241.6 220.99,-241.1 222.99,-247.81"/>
</g>
<!-- Node40 -->
<g id="node29" class="node">
<title>Node40</title>
<g id="a_node29"><a xlink:href="../../d3/d23/namespacecpplint.html#a15cd96cbf1c13e655e156fbd98cf0bae" target="_top" xlink:title=" ">
<polygon fill="white" stroke="black" points="193,-465.5 193,-486.5 379,-486.5 379,-465.5 193,-465.5"/>
<text text-anchor="middle" x="286" y="-472.9" font-family="Helvetica,sans-Serif" font-size="12.00">cpplint.ReverseCloseExpression</text>
</a>
</g>
</g>
<!-- Node1&#45;&gt;Node40 -->
<g id="edge66" class="edge">
<title>Node1&#45;&gt;Node40</title>
<path fill="none" stroke="midnightblue" d="M103.01,-363.05C125.69,-379.28 161.16,-404.12 193,-424 213.67,-436.91 237.66,-450.42 255.96,-460.44"/>
<polygon fill="midnightblue" stroke="midnightblue" points="254.51,-463.63 264.97,-465.34 257.85,-457.48 254.51,-463.63"/>
</g>
<!-- Node3 -->
<g id="node3" class="node">
<title>Node3</title>
<g id="a_node3"><a xlink:href="../../d3/d23/namespacecpplint.html#af254258f584f59c87fcfd755e3c9017a" target="_top" xlink:title=" ">
<polygon fill="white" stroke="black" points="429.5,-412.5 429.5,-433.5 572.5,-433.5 572.5,-412.5 429.5,-412.5"/>
<text text-anchor="middle" x="501" y="-419.9" font-family="Helvetica,sans-Serif" font-size="12.00">cpplint.CloseExpression</text>
</a>
</g>
</g>
<!-- Node2&#45;&gt;Node3 -->
<g id="edge2" class="edge">
<title>Node2&#45;&gt;Node3</title>
<path fill="none" stroke="midnightblue" d="M359.71,-410.49C378.9,-412.2 399.72,-414.06 419.31,-415.8"/>
<polygon fill="midnightblue" stroke="midnightblue" points="419.15,-419.3 429.42,-416.7 419.77,-412.33 419.15,-419.3"/>
</g>
<!-- Node2&#45;&gt;Node5 -->
<g id="edge58" class="edge">
<title>Node2&#45;&gt;Node5</title>
<path fill="none" stroke="midnightblue" d="M314.47,-414.6C340.07,-423.93 379.5,-436.96 415,-443 558.33,-467.41 730.44,-466.6 816.64,-464.18"/>
<polygon fill="midnightblue" stroke="midnightblue" points="816.83,-467.67 826.72,-463.88 816.62,-460.68 816.83,-467.67"/>
</g>
<!-- Node2&#45;&gt;Node6 -->
<g id="edge57" class="edge">
<title>Node2&#45;&gt;Node6</title>
<path fill="none" stroke="midnightblue" d="M359.51,-396.04C443.62,-386.81 580.2,-371.81 654.26,-363.68"/>
<polygon fill="midnightblue" stroke="midnightblue" points="654.73,-367.15 664.29,-362.58 653.96,-360.19 654.73,-367.15"/>
</g>
<!-- Node4 -->
<g id="node4" class="node">
<title>Node4</title>
<g id="a_node4"><a xlink:href="../../d3/d23/namespacecpplint.html#a6e623c46c1ae3bf650454744a693a633" target="_top" xlink:title=" ">
<polygon fill="white" stroke="black" points="623,-399 623,-433 791,-433 791,-399 623,-399"/>
<text text-anchor="start" x="631" y="-419.4" font-family="Helvetica,sans-Serif" font-size="12.00">cpplint.FindEndOfExpression</text>
<text text-anchor="middle" x="707" y="-406.4" font-family="Helvetica,sans-Serif" font-size="12.00">InLine</text>
</a>
</g>
</g>
<!-- Node3&#45;&gt;Node4 -->
<g id="edge3" class="edge">
<title>Node3&#45;&gt;Node4</title>
<path fill="none" stroke="midnightblue" d="M572.78,-420.57C585.62,-420.13 599.18,-419.67 612.56,-419.21"/>
<polygon fill="midnightblue" stroke="midnightblue" points="612.85,-422.7 622.73,-418.86 612.61,-415.7 612.85,-422.7"/>
</g>
<!-- Node3&#45;&gt;Node6 -->
<g id="edge5" class="edge">
<title>Node3&#45;&gt;Node6</title>
<path fill="none" stroke="midnightblue" d="M538.91,-412.48C553.88,-408.12 571.3,-402.94 587,-398 613.44,-389.67 642.98,-379.75 666.01,-371.87"/>
<polygon fill="midnightblue" stroke="midnightblue" points="667.46,-375.07 675.78,-368.51 665.18,-368.45 667.46,-375.07"/>
</g>
<!-- Node4&#45;&gt;Node5 -->
<g id="edge4" class="edge">
<title>Node4&#45;&gt;Node5</title>
<path fill="none" stroke="midnightblue" d="M768.88,-433.13C787.1,-438.25 806.79,-443.79 824.01,-448.64"/>
<polygon fill="midnightblue" stroke="midnightblue" points="823.26,-452.06 833.84,-451.4 825.16,-445.33 823.26,-452.06"/>
</g>
<!-- Node7 -->
<g id="node7" class="node">
<title>Node7</title>
<g id="a_node7"><a xlink:href="../../d4/de2/wren__compiler_8c.html#af4fe195796c3e700b61d62dafd263295" target="_top" xlink:title=" ">
<polygon fill="white" stroke="black" points="848.5,-347.5 848.5,-368.5 896.5,-368.5 896.5,-347.5 848.5,-347.5"/>
<text text-anchor="middle" x="872.5" y="-354.9" font-family="Helvetica,sans-Serif" font-size="12.00">match</text>
</a>
</g>
</g>
<!-- Node6&#45;&gt;Node7 -->
<g id="edge6" class="edge">
<title>Node6&#45;&gt;Node7</title>
<path fill="none" stroke="midnightblue" d="M749.68,-358C777,-358 812.25,-358 837.8,-358"/>
<polygon fill="midnightblue" stroke="midnightblue" points="838.1,-361.5 848.1,-358 838.1,-354.5 838.1,-361.5"/>
</g>
<!-- Node8 -->
<g id="node8" class="node">
<title>Node8</title>
<g id="a_node8"><a xlink:href="../../d4/de2/wren__compiler_8c.html#aff9308c9745d77724d06dbc7f1e7bd34" target="_top" xlink:title=" ">
<polygon fill="white" stroke="black" points="954,-367.5 954,-388.5 1024,-388.5 1024,-367.5 954,-367.5"/>
<text text-anchor="middle" x="989" y="-374.9" font-family="Helvetica,sans-Serif" font-size="12.00">nextToken</text>
</a>
</g>
</g>
<!-- Node7&#45;&gt;Node8 -->
<g id="edge7" class="edge">
<title>Node7&#45;&gt;Node8</title>
<path fill="none" stroke="midnightblue" d="M896.67,-362.05C910.07,-364.39 927.39,-367.41 943.34,-370.2"/>
<polygon fill="midnightblue" stroke="midnightblue" points="943.11,-373.71 953.56,-371.98 944.32,-366.82 943.11,-373.71"/>
</g>
<!-- Node36 -->
<g id="node25" class="node">
<title>Node36</title>
<g id="a_node25"><a xlink:href="../../d4/de2/wren__compiler_8c.html#a55ffa49d00ce173be5cbd76358588d08" target="_top" xlink:title=" ">
<polygon fill="white" stroke="black" points="967.5,-327.5 967.5,-348.5 1010.5,-348.5 1010.5,-327.5 967.5,-327.5"/>
<text text-anchor="middle" x="989" y="-334.9" font-family="Helvetica,sans-Serif" font-size="12.00">peek</text>
</a>
</g>
</g>
<!-- Node7&#45;&gt;Node36 -->
<g id="edge56" class="edge">
<title>Node7&#45;&gt;Node36</title>
<path fill="none" stroke="midnightblue" d="M896.67,-353.95C914.09,-350.91 938.14,-346.71 957.18,-343.38"/>
<polygon fill="midnightblue" stroke="midnightblue" points="957.93,-346.81 967.17,-341.64 956.72,-339.91 957.93,-346.81"/>
</g>
<!-- Node9 -->
<g id="node9" class="node">
<title>Node9</title>
<g id="a_node9"><a xlink:href="../../d4/de2/wren__compiler_8c.html#a1044bcfbcf0d32964730d3af27f4b45d" target="_top" xlink:title=" ">
<polygon fill="white" stroke="black" points="1246,-542.5 1246,-563.5 1296,-563.5 1296,-542.5 1246,-542.5"/>
<text text-anchor="middle" x="1271" y="-549.9" font-family="Helvetica,sans-Serif" font-size="12.00">isDigit</text>
</a>
</g>
</g>
<!-- Node8&#45;&gt;Node9 -->
<g id="edge8" class="edge">
<title>Node8&#45;&gt;Node9</title>
<path fill="none" stroke="midnightblue" d="M991.65,-388.54C996.52,-415.83 1013.52,-489.01 1060,-523 1112.01,-561.04 1191.03,-561.1 1235.84,-557.32"/>
<polygon fill="midnightblue" stroke="midnightblue" points="1236.3,-560.79 1245.92,-556.35 1235.63,-553.82 1236.3,-560.79"/>
</g>
<!-- Node10 -->
<g id="node10" class="node">
<title>Node10</title>
<g id="a_node10"><a xlink:href="../../d4/de2/wren__compiler_8c.html#a4f4bae86546f2e4c8c4854d69a9b4636" target="_top" xlink:title=" ">
<polygon fill="white" stroke="black" points="1242.5,-658.5 1242.5,-679.5 1299.5,-679.5 1299.5,-658.5 1242.5,-658.5"/>
<text text-anchor="middle" x="1271" y="-665.9" font-family="Helvetica,sans-Serif" font-size="12.00">isName</text>
</a>
</g>
</g>
<!-- Node8&#45;&gt;Node10 -->
<g id="edge9" class="edge">
<title>Node8&#45;&gt;Node10</title>
<path fill="none" stroke="midnightblue" d="M989.79,-388.67C989.67,-425.43 994.41,-548.07 1060,-612 1106.65,-657.47 1185.75,-667.55 1232.41,-669.28"/>
<polygon fill="midnightblue" stroke="midnightblue" points="1232.32,-672.78 1242.41,-669.54 1232.51,-665.78 1232.32,-672.78"/>
</g>
<!-- Node11 -->
<g id="node11" class="node">
<title>Node11</title>
<g id="a_node11"><a xlink:href="../../d4/de2/wren__compiler_8c.html#a2c404ef1792908a05d45d110401e9443" target="_top" xlink:title=" ">
<polygon fill="white" stroke="red" points="1242.5,-308.5 1242.5,-329.5 1299.5,-329.5 1299.5,-308.5 1242.5,-308.5"/>
<text text-anchor="middle" x="1271" y="-315.9" font-family="Helvetica,sans-Serif" font-size="12.00">lexError</text>
</a>
</g>
</g>
<!-- Node8&#45;&gt;Node11 -->
<g id="edge10" class="edge">
<title>Node8&#45;&gt;Node11</title>
<path fill="none" stroke="midnightblue" d="M1008.13,-367.38C1027.93,-355.83 1057.2,-338.88 1060,-338 1118.11,-319.73 1189.4,-317.18 1232.19,-317.64"/>
<polygon fill="midnightblue" stroke="midnightblue" points="1232.37,-321.14 1242.42,-317.81 1232.49,-314.14 1232.37,-321.14"/>
</g>
<!-- Node13 -->
<g id="node12" class="node">
<title>Node13</title>
<g id="a_node12"><a xlink:href="../../d4/de2/wren__compiler_8c.html#ad5bbc381038389282731d29e3f95971f" target="_top" xlink:title=" ">
<polygon fill="white" stroke="black" points="1232,-502.5 1232,-523.5 1310,-523.5 1310,-502.5 1232,-502.5"/>
<text text-anchor="middle" x="1271" y="-509.9" font-family="Helvetica,sans-Serif" font-size="12.00">makeToken</text>
</a>
</g>
</g>
<!-- Node8&#45;&gt;Node13 -->
<g id="edge11" class="edge">
<title>Node8&#45;&gt;Node13</title>
<path fill="none" stroke="midnightblue" d="M992.78,-388.85C999.6,-412.94 1019.59,-470.77 1060,-496 1108.65,-526.37 1176.48,-525.92 1221.74,-521"/>
<polygon fill="midnightblue" stroke="midnightblue" points="1222.38,-524.45 1231.89,-519.79 1221.55,-517.5 1222.38,-524.45"/>
</g>
<!-- Node14 -->
<g id="node13" class="node">
<title>Node14</title>
<g id="a_node13"><a xlink:href="../../d4/de2/wren__compiler_8c.html#af8117cefc422a62d8544bc726143a24a" target="_top" xlink:title=" ">
<polygon fill="white" stroke="black" points="1234,-462.5 1234,-483.5 1308,-483.5 1308,-462.5 1234,-462.5"/>
<text text-anchor="middle" x="1271" y="-469.9" font-family="Helvetica,sans-Serif" font-size="12.00">matchChar</text>
</a>
</g>
</g>
<!-- Node8&#45;&gt;Node14 -->
<g id="edge12" class="edge">
<title>Node8&#45;&gt;Node14</title>
<path fill="none" stroke="midnightblue" d="M1005.79,-388.64C1019.59,-397.53 1040.43,-410.01 1060,-418 1114.43,-440.22 1180.5,-455.79 1223.82,-464.55"/>
<polygon fill="midnightblue" stroke="midnightblue" points="1223.29,-468.02 1233.78,-466.53 1224.65,-461.15 1223.29,-468.02"/>
</g>
<!-- Node15 -->
<g id="node14" class="node">
<title>Node15</title>
<g id="a_node14"><a xlink:href="../../d4/de2/wren__compiler_8c.html#a4b86346dfdb1db3a38675c77b11be8d3" target="_top" xlink:title=" ">
<polygon fill="white" stroke="black" points="1363,-230.5 1363,-251.5 1426,-251.5 1426,-230.5 1363,-230.5"/>
<text text-anchor="middle" x="1394.5" y="-237.9" font-family="Helvetica,sans-Serif" font-size="12.00">nextChar</text>
</a>
</g>
</g>
<!-- Node8&#45;&gt;Node15 -->
<g id="edge16" class="edge">
<title>Node8&#45;&gt;Node15</title>
<path fill="none" stroke="midnightblue" d="M1012.9,-367.5C1016.99,-364.84 1020.93,-361.68 1024,-358 1053.73,-322.38 1023.09,-288.13 1060,-260 1146.21,-194.3 1284.31,-214.41 1352.57,-230.05"/>
<polygon fill="midnightblue" stroke="midnightblue" points="1351.98,-233.5 1362.52,-232.41 1353.59,-226.69 1351.98,-233.5"/>
</g>
<!-- Node16 -->
<g id="node15" class="node">
<title>Node16</title>
<g id="a_node15"><a xlink:href="../../d4/de2/wren__compiler_8c.html#a3b5f12d504fe199f09e2651235c398a5" target="_top" xlink:title=" ">
<polygon fill="white" stroke="black" points="1462,-269.5 1462,-290.5 1530,-290.5 1530,-269.5 1462,-269.5"/>
<text text-anchor="middle" x="1496" y="-276.9" font-family="Helvetica,sans-Serif" font-size="12.00">peekChar</text>
</a>
</g>
</g>
<!-- Node8&#45;&gt;Node16 -->
<g id="edge17" class="edge">
<title>Node8&#45;&gt;Node16</title>
<path fill="none" stroke="midnightblue" d="M991.26,-388.53C996.89,-433.95 1021.22,-612.63 1060,-651 1145.2,-735.31 1219.89,-742.8 1327,-689 1475.46,-614.43 1492.97,-373.63 1494.84,-300.96"/>
<polygon fill="midnightblue" stroke="midnightblue" points="1498.34,-300.85 1495.02,-290.79 1491.34,-300.72 1498.34,-300.85"/>
</g>
<!-- Node17 -->
<g id="node16" class="node">
<title>Node17</title>
<g id="a_node16"><a xlink:href="../../d4/de2/wren__compiler_8c.html#ac712f9fee52f55578ff47f1d4d40f27f" target="_top" xlink:title=" ">
<polygon fill="white" stroke="black" points="1225,-154.5 1225,-175.5 1317,-175.5 1317,-154.5 1225,-154.5"/>
<text text-anchor="middle" x="1271" y="-161.9" font-family="Helvetica,sans-Serif" font-size="12.00">peekNextChar</text>
</a>
</g>
</g>
<!-- Node8&#45;&gt;Node17 -->
<g id="edge18" class="edge">
<title>Node8&#45;&gt;Node17</title>
<path fill="none" stroke="midnightblue" d="M1014.01,-367.36C1017.81,-364.77 1021.35,-361.66 1024,-358 1068.47,-296.46 1003.97,-242.24 1060,-191 1101.29,-153.23 1167.79,-151.21 1214.89,-155.76"/>
<polygon fill="midnightblue" stroke="midnightblue" points="1214.6,-159.25 1224.92,-156.85 1215.36,-152.29 1214.6,-159.25"/>
</g>
<!-- Node18 -->
<g id="node17" class="node">
<title>Node18</title>
<g id="a_node17"><a xlink:href="../../d4/de2/wren__compiler_8c.html#ac5855f1df10bbda532ef62084fda7df4" target="_top" xlink:title=" ">
<polygon fill="white" stroke="red" points="1068.5,-77.5 1068.5,-98.5 1170.5,-98.5 1170.5,-77.5 1068.5,-77.5"/>
<text text-anchor="middle" x="1119.5" y="-84.9" font-family="Helvetica,sans-Serif" font-size="12.00">readHexNumber</text>
</a>
</g>
</g>
<!-- Node8&#45;&gt;Node18 -->
<g id="edge20" class="edge">
<title>Node8&#45;&gt;Node18</title>
<path fill="none" stroke="midnightblue" d="M1014.57,-367.27C1018.21,-364.71 1021.56,-361.64 1024,-358 1086.55,-264.79 988.35,-194.42 1060,-108 1060.98,-106.81 1062.04,-105.69 1063.16,-104.64"/>
<polygon fill="midnightblue" stroke="midnightblue" points="1065.37,-107.37 1071.35,-98.62 1061.22,-101.73 1065.37,-107.37"/>
</g>
<!-- Node21 -->
<g id="node18" class="node">
<title>Node21</title>
<g id="a_node18"><a xlink:href="../../d4/de2/wren__compiler_8c.html#aaf25e0c94fad40c04caf138b3f838484" target="_top" xlink:title=" ">
<polygon fill="white" stroke="red" points="1083.5,-581.5 1083.5,-602.5 1155.5,-602.5 1155.5,-581.5 1083.5,-581.5"/>
<text text-anchor="middle" x="1119.5" y="-588.9" font-family="Helvetica,sans-Serif" font-size="12.00">readName</text>
</a>
</g>
</g>
<!-- Node8&#45;&gt;Node21 -->
<g id="edge22" class="edge">
<title>Node8&#45;&gt;Node21</title>
<path fill="none" stroke="midnightblue" d="M991.01,-388.51C994.55,-419.81 1009.09,-513.53 1060,-567 1064.1,-571.3 1069.06,-574.9 1074.34,-577.91"/>
<polygon fill="midnightblue" stroke="midnightblue" points="1072.91,-581.1 1083.43,-582.41 1076.02,-574.83 1072.91,-581.1"/>
</g>
<!-- Node26 -->
<g id="node19" class="node">
<title>Node26</title>
<g id="a_node19"><a xlink:href="../../d4/de2/wren__compiler_8c.html#abcdd139278dedb26f772b0b373cdb7bf" target="_top" xlink:title=" ">
<polygon fill="white" stroke="red" points="1078.5,-387.5 1078.5,-408.5 1160.5,-408.5 1160.5,-387.5 1078.5,-387.5"/>
<text text-anchor="middle" x="1119.5" y="-394.9" font-family="Helvetica,sans-Serif" font-size="12.00">readNumber</text>
</a>
</g>
</g>
<!-- Node8&#45;&gt;Node26 -->
<g id="edge28" class="edge">
<title>Node8&#45;&gt;Node26</title>
<path fill="none" stroke="midnightblue" d="M1024.1,-383.31C1037.63,-385.41 1053.47,-387.88 1068.27,-390.18"/>
<polygon fill="midnightblue" stroke="midnightblue" points="1067.89,-393.66 1078.3,-391.74 1068.96,-386.75 1067.89,-393.66"/>
</g>
<!-- Node27 -->
<g id="node20" class="node">
<title>Node27</title>
<g id="a_node20"><a xlink:href="../../d4/de2/wren__compiler_8c.html#a5c8500d7d0bb3ab4624b4053b3213d86" target="_top" xlink:title=" ">
<polygon fill="white" stroke="red" points="1072,-269.5 1072,-290.5 1167,-290.5 1167,-269.5 1072,-269.5"/>
<text text-anchor="middle" x="1119.5" y="-276.9" font-family="Helvetica,sans-Serif" font-size="12.00">readRawString</text>
</a>
</g>
</g>
<!-- Node8&#45;&gt;Node27 -->
<g id="edge35" class="edge">
<title>Node8&#45;&gt;Node27</title>
<path fill="none" stroke="midnightblue" d="M1011.51,-367.3C1015.9,-364.6 1020.3,-361.47 1024,-358 1044.78,-338.53 1038.02,-323.1 1060,-305 1064.64,-301.18 1069.96,-297.85 1075.45,-294.98"/>
<polygon fill="midnightblue" stroke="midnightblue" points="1077.22,-298.01 1084.76,-290.57 1074.23,-291.68 1077.22,-298.01"/>
</g>
<!-- Node28 -->
<g id="node21" class="node">
<title>Node28</title>
<g id="a_node21"><a xlink:href="../../d4/de2/wren__compiler_8c.html#a3cad8aafffed68be975e83a055ce1b2c" target="_top" xlink:title=" ">
<polygon fill="white" stroke="red" points="1084,-347.5 1084,-368.5 1155,-368.5 1155,-347.5 1084,-347.5"/>
<text text-anchor="middle" x="1119.5" y="-354.9" font-family="Helvetica,sans-Serif" font-size="12.00">readString</text>
</a>
</g>
</g>
<!-- Node8&#45;&gt;Node28 -->
<g id="edge41" class="edge">
<title>Node8&#45;&gt;Node28</title>
<path fill="none" stroke="midnightblue" d="M1024.1,-372.69C1039.37,-370.32 1057.58,-367.48 1073.91,-364.94"/>
<polygon fill="midnightblue" stroke="midnightblue" points="1074.45,-368.4 1083.79,-363.4 1073.38,-361.48 1074.45,-368.4"/>
</g>
<!-- Node33 -->
<g id="node22" class="node">
<title>Node33</title>
<g id="a_node22"><a xlink:href="../../d4/de2/wren__compiler_8c.html#a65889c0069858f7d0d6a459470a69c37" target="_top" xlink:title=" ">
<polygon fill="white" stroke="black" points="1060,-117.5 1060,-138.5 1179,-138.5 1179,-117.5 1060,-117.5"/>
<text text-anchor="middle" x="1119.5" y="-124.9" font-family="Helvetica,sans-Serif" font-size="12.00">skipBlockComment</text>
</a>
</g>
</g>
<!-- Node8&#45;&gt;Node33 -->
<g id="edge45" class="edge">
<title>Node8&#45;&gt;Node33</title>
<path fill="none" stroke="midnightblue" d="M1014.13,-367.44C1017.92,-364.84 1021.42,-361.71 1024,-358 1076.72,-281.99 1002.53,-225.49 1060,-153 1062.86,-149.4 1066.33,-146.31 1070.15,-143.65"/>
<polygon fill="midnightblue" stroke="midnightblue" points="1072.06,-146.59 1078.94,-138.52 1068.54,-140.54 1072.06,-146.59"/>
</g>
<!-- Node34 -->
<g id="node23" class="node">
<title>Node34</title>
<g id="a_node23"><a xlink:href="../../d4/de2/wren__compiler_8c.html#a8d72014585e50329e9923ed2f9fdccad" target="_top" xlink:title=" ">
<polygon fill="white" stroke="black" points="1215,-0.5 1215,-21.5 1327,-21.5 1327,-0.5 1215,-0.5"/>
<text text-anchor="middle" x="1271" y="-7.9" font-family="Helvetica,sans-Serif" font-size="12.00">skipLineComment</text>
</a>
</g>
</g>
<!-- Node8&#45;&gt;Node34 -->
<g id="edge50" class="edge">
<title>Node8&#45;&gt;Node34</title>
<path fill="none" stroke="midnightblue" d="M1014.63,-367.31C1018.27,-364.74 1021.59,-361.66 1024,-358 1095.32,-249.45 974.89,-166.1 1060,-68 1095.52,-27.06 1157.19,-14.11 1204.53,-10.63"/>
<polygon fill="midnightblue" stroke="midnightblue" points="1204.94,-14.11 1214.71,-10.01 1204.52,-7.12 1204.94,-14.11"/>
</g>
<!-- Node35 -->
<g id="node24" class="node">
<title>Node35</title>
<g id="a_node24"><a xlink:href="../../d4/de2/wren__compiler_8c.html#a1923996c19f9f549a909d1e2981971f1" target="_top" xlink:title=" ">
<polygon fill="white" stroke="black" points="1073.5,-465.5 1073.5,-486.5 1165.5,-486.5 1165.5,-465.5 1073.5,-465.5"/>
<text text-anchor="middle" x="1119.5" y="-472.9" font-family="Helvetica,sans-Serif" font-size="12.00">twoCharToken</text>
</a>
</g>
</g>
<!-- Node8&#45;&gt;Node35 -->
<g id="edge53" class="edge">
<title>Node8&#45;&gt;Node35</title>
<path fill="none" stroke="midnightblue" d="M997.97,-388.73C1009.96,-404.23 1034.01,-433.02 1060,-451 1065.61,-454.88 1071.93,-458.35 1078.28,-461.37"/>
<polygon fill="midnightblue" stroke="midnightblue" points="1076.96,-464.62 1087.52,-465.48 1079.81,-458.22 1076.96,-464.62"/>
</g>
<!-- Node14&#45;&gt;Node15 -->
<g id="edge13" class="edge">
<title>Node14&#45;&gt;Node15</title>
<path fill="none" stroke="midnightblue" d="M1283.41,-462.32C1295.54,-450.48 1314.63,-430.35 1327,-410 1357.17,-360.38 1378.35,-294.68 1387.86,-261.72"/>
<polygon fill="midnightblue" stroke="midnightblue" points="1391.29,-262.45 1390.63,-251.87 1384.55,-260.55 1391.29,-262.45"/>
</g>
<!-- Node14&#45;&gt;Node16 -->
<g id="edge15" class="edge">
<title>Node14&#45;&gt;Node16</title>
<path fill="none" stroke="midnightblue" d="M1308.01,-476.53C1342,-477.87 1392.59,-474.53 1426,-448 1472.57,-411.03 1487.97,-337.36 1492.85,-301.12"/>
<polygon fill="midnightblue" stroke="midnightblue" points="1496.38,-301.11 1494.1,-290.77 1489.43,-300.28 1496.38,-301.11"/>
</g>
<!-- Node15&#45;&gt;Node16 -->
<g id="edge14" class="edge">
<title>Node15&#45;&gt;Node16</title>
<path fill="none" stroke="midnightblue" d="M1422.43,-251.55C1433.6,-255.93 1446.73,-261.08 1458.73,-265.78"/>
<polygon fill="midnightblue" stroke="midnightblue" points="1457.46,-269.05 1468.05,-269.44 1460.02,-262.53 1457.46,-269.05"/>
</g>
<!-- Node17&#45;&gt;Node16 -->
<g id="edge19" class="edge">
<title>Node17&#45;&gt;Node16</title>
<path fill="none" stroke="midnightblue" d="M1312.99,-175.54C1345.08,-184.8 1390.12,-200.07 1426,-221 1445.17,-232.18 1464.12,-248.91 1477.3,-261.7"/>
<polygon fill="midnightblue" stroke="midnightblue" points="1475.15,-264.5 1484.71,-269.07 1480.09,-259.54 1475.15,-264.5"/>
</g>
<!-- Node18&#45;&gt;Node15 -->
<g id="edge21" class="edge">
<title>Node18&#45;&gt;Node15</title>
<path fill="none" stroke="midnightblue" d="M1170.51,-82.65C1215.41,-80.47 1281.13,-84.06 1327,-116 1362.97,-141.05 1381.1,-191.86 1388.78,-220.38"/>
<polygon fill="midnightblue" stroke="midnightblue" points="1385.48,-221.6 1391.31,-230.45 1392.27,-219.9 1385.48,-221.6"/>
</g>
<!-- Node21&#45;&gt;Node9 -->
<g id="edge23" class="edge">
<title>Node21&#45;&gt;Node9</title>
<path fill="none" stroke="midnightblue" d="M1155.55,-582.86C1179.87,-576.51 1212.08,-568.11 1236.13,-561.83"/>
<polygon fill="midnightblue" stroke="midnightblue" points="1237.1,-565.2 1245.9,-559.29 1235.34,-558.43 1237.1,-565.2"/>
</g>
<!-- Node21&#45;&gt;Node10 -->
<g id="edge24" class="edge">
<title>Node21&#45;&gt;Node10</title>
<path fill="none" stroke="midnightblue" d="M1138.75,-602.58C1157.62,-613.4 1188.05,-630.48 1215,-644 1221.83,-647.43 1229.23,-650.93 1236.32,-654.18"/>
<polygon fill="midnightblue" stroke="midnightblue" points="1235.16,-657.5 1245.72,-658.44 1238.05,-651.13 1235.16,-657.5"/>
</g>
<!-- Node21&#45;&gt;Node13 -->
<g id="edge25" class="edge">
<title>Node21&#45;&gt;Node13</title>
<path fill="none" stroke="midnightblue" d="M1135.32,-581.37C1153.47,-568.7 1185.44,-547.4 1215,-533 1219.12,-530.99 1223.49,-529.07 1227.9,-527.27"/>
<polygon fill="midnightblue" stroke="midnightblue" points="1229.49,-530.41 1237.54,-523.53 1226.95,-523.89 1229.49,-530.41"/>
</g>
<!-- Node21&#45;&gt;Node15 -->
<g id="edge26" class="edge">
<title>Node21&#45;&gt;Node15</title>
<path fill="none" stroke="midnightblue" d="M1155.76,-600.22C1201.31,-608.58 1280.29,-615.01 1327,-573 1373.69,-531.01 1388.76,-327.88 1392.48,-261.81"/>
<polygon fill="midnightblue" stroke="midnightblue" points="1395.97,-261.95 1393.01,-251.78 1388.98,-261.58 1395.97,-261.95"/>
</g>
<!-- Node21&#45;&gt;Node16 -->
<g id="edge27" class="edge">
<title>Node21&#45;&gt;Node16</title>
<path fill="none" stroke="midnightblue" d="M1155.78,-597.98C1206.7,-605.92 1297.86,-617.37 1327,-603 1446.81,-543.92 1483.3,-362.24 1492.38,-300.66"/>
<polygon fill="midnightblue" stroke="midnightblue" points="1495.87,-301 1493.78,-290.62 1488.94,-300.04 1495.87,-301"/>
</g>
<!-- Node26&#45;&gt;Node9 -->
<g id="edge29" class="edge">
<title>Node26&#45;&gt;Node9</title>
<path fill="none" stroke="midnightblue" d="M1133.94,-408.87C1146.76,-419.76 1165.99,-437.52 1179,-456 1200.75,-486.89 1187.13,-507.5 1215,-533 1221.01,-538.5 1228.65,-542.51 1236.3,-545.44"/>
<polygon fill="midnightblue" stroke="midnightblue" points="1235.3,-548.79 1245.89,-548.58 1237.48,-542.14 1235.3,-548.79"/>
</g>
<!-- Node26&#45;&gt;Node11 -->
<g id="edge30" class="edge">
<title>Node26&#45;&gt;Node11</title>
<path fill="none" stroke="midnightblue" d="M1156.02,-387.42C1163.74,-384.69 1171.76,-381.52 1179,-378 1203.66,-366.02 1229.71,-348.58 1247.59,-335.76"/>
<polygon fill="midnightblue" stroke="midnightblue" points="1250.12,-338.25 1256.14,-329.54 1246,-332.59 1250.12,-338.25"/>
</g>
<!-- Node26&#45;&gt;Node14 -->
<g id="edge31" class="edge">
<title>Node26&#45;&gt;Node14</title>
<path fill="none" stroke="midnightblue" d="M1148.43,-408.58C1158.3,-412.67 1169.34,-417.65 1179,-423 1196.04,-432.43 1198.06,-438.37 1215,-448 1221.25,-451.55 1228.09,-454.99 1234.77,-458.13"/>
<polygon fill="midnightblue" stroke="midnightblue" points="1233.78,-461.53 1244.33,-462.48 1236.68,-455.15 1233.78,-461.53"/>
</g>
<!-- Node26&#45;&gt;Node15 -->
<g id="edge32" class="edge">
<title>Node26&#45;&gt;Node15</title>
<path fill="none" stroke="midnightblue" d="M1160.52,-402.09C1205.23,-404.54 1277.77,-401.93 1327,-367 1363.13,-341.36 1381.26,-289.92 1388.89,-261.33"/>
<polygon fill="midnightblue" stroke="midnightblue" points="1392.29,-262.14 1391.31,-251.59 1385.5,-260.45 1392.29,-262.14"/>
</g>
<!-- Node26&#45;&gt;Node16 -->
<g id="edge33" class="edge">
<title>Node26&#45;&gt;Node16</title>
<path fill="none" stroke="midnightblue" d="M1160.8,-405.37C1203.24,-411.5 1271.49,-416.67 1327,-399 1389.89,-378.98 1449.45,-325.94 1477.78,-297.92"/>
<polygon fill="midnightblue" stroke="midnightblue" points="1480.35,-300.29 1484.91,-290.73 1475.38,-295.36 1480.35,-300.29"/>
</g>
<!-- Node26&#45;&gt;Node17 -->
<g id="edge34" class="edge">
<title>Node26&#45;&gt;Node17</title>
<path fill="none" stroke="midnightblue" d="M1160.76,-389.27C1167.41,-386.48 1173.81,-382.82 1179,-378 1182.82,-374.46 1240.06,-237.13 1261.75,-184.89"/>
<polygon fill="midnightblue" stroke="midnightblue" points="1264.99,-186.22 1265.59,-175.64 1258.52,-183.54 1264.99,-186.22"/>
</g>
<!-- Node27&#45;&gt;Node11 -->
<g id="edge36" class="edge">
<title>Node27&#45;&gt;Node11</title>
<path fill="none" stroke="midnightblue" d="M1160.96,-290.55C1183.2,-296.36 1210.62,-303.51 1232.4,-309.19"/>
<polygon fill="midnightblue" stroke="midnightblue" points="1231.72,-312.63 1242.28,-311.77 1233.49,-305.86 1231.72,-312.63"/>
</g>
<!-- Node27&#45;&gt;Node13 -->
<g id="edge37" class="edge">
<title>Node27&#45;&gt;Node13</title>
<path fill="none" stroke="midnightblue" d="M1135.07,-290.52C1148.54,-301.02 1168.06,-318.39 1179,-338 1213.46,-399.76 1168.1,-440.07 1215,-493 1217.36,-495.67 1220.11,-497.98 1223.09,-499.98"/>
<polygon fill="midnightblue" stroke="midnightblue" points="1221.54,-503.12 1231.99,-504.85 1224.9,-496.98 1221.54,-503.12"/>
</g>
<!-- Node27&#45;&gt;Node15 -->
<g id="edge38" class="edge">
<title>Node27&#45;&gt;Node15</title>
<path fill="none" stroke="midnightblue" d="M1167.11,-273.02C1182.37,-270.75 1199.41,-268.25 1215,-266 1262.22,-259.2 1316.5,-251.63 1352.69,-246.62"/>
<polygon fill="midnightblue" stroke="midnightblue" points="1353.43,-250.05 1362.85,-245.22 1352.47,-243.12 1353.43,-250.05"/>
</g>
<!-- Node27&#45;&gt;Node16 -->
<g id="edge39" class="edge">
<title>Node27&#45;&gt;Node16</title>
<path fill="none" stroke="midnightblue" d="M1167.17,-280C1240.19,-280 1380.41,-280 1451.45,-280"/>
<polygon fill="midnightblue" stroke="midnightblue" points="1451.83,-283.5 1461.83,-280 1451.83,-276.5 1451.83,-283.5"/>
</g>
<!-- Node27&#45;&gt;Node17 -->
<g id="edge40" class="edge">
<title>Node27&#45;&gt;Node17</title>
<path fill="none" stroke="midnightblue" d="M1134.3,-269.39C1160.33,-249.36 1216.88,-205.86 1248.14,-181.82"/>
<polygon fill="midnightblue" stroke="midnightblue" points="1250.44,-184.46 1256.24,-175.59 1246.18,-178.91 1250.44,-184.46"/>
</g>
<!-- Node28&#45;&gt;Node11 -->
<g id="edge42" class="edge">
<title>Node28&#45;&gt;Node11</title>
<path fill="none" stroke="midnightblue" d="M1155.17,-348.95C1178.42,-342.89 1209.01,-334.91 1232.77,-328.71"/>
<polygon fill="midnightblue" stroke="midnightblue" points="1233.7,-332.09 1242.49,-326.18 1231.93,-325.31 1233.7,-332.09"/>
</g>
<!-- Node28&#45;&gt;Node13 -->
<g id="edge43" class="edge">
<title>Node28&#45;&gt;Node13</title>
<path fill="none" stroke="midnightblue" d="M1155.11,-364C1163.84,-366.96 1172.56,-371.39 1179,-378 1216.37,-416.36 1178,-454.28 1215,-493 1217.32,-495.42 1219.95,-497.56 1222.78,-499.43"/>
<polygon fill="midnightblue" stroke="midnightblue" points="1221.28,-502.6 1231.74,-504.31 1224.63,-496.45 1221.28,-502.6"/>
</g>
<!-- Node28&#45;&gt;Node15 -->
<g id="edge44" class="edge">
<title>Node28&#45;&gt;Node15</title>
<path fill="none" stroke="midnightblue" d="M1155.01,-363.33C1198.35,-368.22 1273.52,-370.57 1327,-339 1356.94,-321.33 1376.34,-284.24 1386.07,-261.1"/>
<polygon fill="midnightblue" stroke="midnightblue" points="1389.41,-262.16 1389.85,-251.57 1382.91,-259.57 1389.41,-262.16"/>
</g>
<!-- Node33&#45;&gt;Node11 -->
<g id="edge46" class="edge">
<title>Node33&#45;&gt;Node11</title>
<path fill="none" stroke="midnightblue" d="M1128.75,-138.54C1152.99,-169.51 1224.25,-260.55 1255.28,-300.19"/>
<polygon fill="midnightblue" stroke="midnightblue" points="1252.67,-302.54 1261.59,-308.26 1258.18,-298.22 1252.67,-302.54"/>
</g>
<!-- Node33&#45;&gt;Node15 -->
<g id="edge47" class="edge">
<title>Node33&#45;&gt;Node15</title>
<path fill="none" stroke="midnightblue" d="M1179.19,-120.01C1222.82,-116.98 1282.29,-119.19 1327,-145 1356.54,-162.05 1375.97,-198.15 1385.83,-220.9"/>
<polygon fill="midnightblue" stroke="midnightblue" points="1382.65,-222.37 1389.68,-230.3 1389.12,-219.72 1382.65,-222.37"/>
</g>
<!-- Node33&#45;&gt;Node16 -->
<g id="edge48" class="edge">
<title>Node33&#45;&gt;Node16</title>
<path fill="none" stroke="midnightblue" d="M1159.28,-117.42C1201.62,-107.76 1270.88,-97.55 1327,-116 1402.32,-140.77 1460.17,-222.58 1483.62,-260.45"/>
<polygon fill="midnightblue" stroke="midnightblue" points="1480.66,-262.32 1488.83,-269.07 1486.65,-258.7 1480.66,-262.32"/>
</g>
<!-- Node33&#45;&gt;Node17 -->
<g id="edge49" class="edge">
<title>Node33&#45;&gt;Node17</title>
<path fill="none" stroke="midnightblue" d="M1162.94,-138.5C1179.98,-142.72 1199.8,-147.63 1217.72,-152.06"/>
<polygon fill="midnightblue" stroke="midnightblue" points="1216.91,-155.46 1227.45,-154.47 1218.59,-148.67 1216.91,-155.46"/>
</g>
<!-- Node34&#45;&gt;Node15 -->
<g id="edge51" class="edge">
<title>Node34&#45;&gt;Node15</title>
<path fill="none" stroke="midnightblue" d="M1283.4,-21.69C1295.51,-33.54 1314.59,-53.68 1327,-74 1356.96,-123.05 1378.23,-187.96 1387.81,-220.52"/>
<polygon fill="midnightblue" stroke="midnightblue" points="1384.48,-221.61 1390.6,-230.26 1391.21,-219.68 1384.48,-221.61"/>
</g>
<!-- Node34&#45;&gt;Node16 -->
<g id="edge52" class="edge">
<title>Node34&#45;&gt;Node16</title>
<path fill="none" stroke="midnightblue" d="M1327.35,-6.17C1359.81,-6.4 1399.51,-12.39 1426,-36 1459.9,-66.22 1483.98,-206.22 1492.04,-259.42"/>
<polygon fill="midnightblue" stroke="midnightblue" points="1488.59,-260 1493.52,-269.38 1495.52,-258.97 1488.59,-260"/>
</g>
<!-- Node35&#45;&gt;Node13 -->
<g id="edge54" class="edge">
<title>Node35&#45;&gt;Node13</title>
<path fill="none" stroke="midnightblue" d="M1162.94,-486.5C1181.31,-491.05 1202.9,-496.39 1221.86,-501.09"/>
<polygon fill="midnightblue" stroke="midnightblue" points="1221.25,-504.54 1231.79,-503.54 1222.93,-497.74 1221.25,-504.54"/>
</g>
<!-- Node35&#45;&gt;Node14 -->
<g id="edge55" class="edge">
<title>Node35&#45;&gt;Node14</title>
<path fill="none" stroke="midnightblue" d="M1165.76,-475.09C1184.09,-474.72 1205.24,-474.3 1223.68,-473.93"/>
<polygon fill="midnightblue" stroke="midnightblue" points="1223.97,-477.42 1233.9,-473.72 1223.83,-470.43 1223.97,-477.42"/>
</g>
<!-- Node37&#45;&gt;Node5 -->
<g id="edge61" class="edge">
<title>Node37&#45;&gt;Node5</title>
<path fill="none" stroke="midnightblue" d="M563.62,-258.25C626.41,-266.35 723.85,-286.77 791,-338 809.97,-352.47 843.83,-411.3 860.96,-442.45"/>
<polygon fill="midnightblue" stroke="midnightblue" points="858.03,-444.39 865.89,-451.49 864.18,-441.04 858.03,-444.39"/>
</g>
<!-- Node37&#45;&gt;Node6 -->
<g id="edge60" class="edge">
<title>Node37&#45;&gt;Node6</title>
<path fill="none" stroke="midnightblue" d="M560.61,-263.61C569.65,-266.15 578.72,-269.24 587,-273 607.33,-282.22 655.86,-318.86 684.27,-340.92"/>
<polygon fill="midnightblue" stroke="midnightblue" points="682.35,-343.86 692.39,-347.25 686.65,-338.34 682.35,-343.86"/>
</g>
<!-- Node38&#45;&gt;Node6 -->
<g id="edge63" class="edge">
<title>Node38&#45;&gt;Node6</title>
<path fill="none" stroke="midnightblue" d="M561.83,-317.01C592.85,-325.83 630.19,-336.45 659.1,-344.67"/>
<polygon fill="midnightblue" stroke="midnightblue" points="658.37,-348.1 668.95,-347.47 660.29,-341.36 658.37,-348.1"/>
</g>
<!-- Node41 -->
<g id="node30" class="node">
<title>Node41</title>
<g id="a_node30"><a xlink:href="../../d3/d23/namespacecpplint.html#a8572f47efb3bc11632d1192fd74bb7eb" target="_top" xlink:title=" ">
<polygon fill="white" stroke="black" points="415,-491 415,-525 587,-525 587,-491 415,-491"/>
<text text-anchor="start" x="423" y="-511.4" font-family="Helvetica,sans-Serif" font-size="12.00">cpplint.FindStartOfExpression</text>
<text text-anchor="middle" x="501" y="-498.4" font-family="Helvetica,sans-Serif" font-size="12.00">InLine</text>
</a>
</g>
</g>
<!-- Node40&#45;&gt;Node41 -->
<g id="edge67" class="edge">
<title>Node40&#45;&gt;Node41</title>
<path fill="none" stroke="midnightblue" d="M357.04,-486.52C372.3,-488.82 388.7,-491.28 404.75,-493.69"/>
<polygon fill="midnightblue" stroke="midnightblue" points="404.28,-497.16 414.69,-495.18 405.32,-490.24 404.28,-497.16"/>
</g>
<!-- Node41&#45;&gt;Node5 -->
<g id="edge69" class="edge">
<title>Node41&#45;&gt;Node5</title>
<path fill="none" stroke="midnightblue" d="M587.22,-499.96C644.86,-494.18 722.66,-485.72 791,-476 799.38,-474.81 808.22,-473.41 816.86,-471.97"/>
<polygon fill="midnightblue" stroke="midnightblue" points="817.6,-475.4 826.87,-470.27 816.42,-468.5 817.6,-475.4"/>
</g>
<!-- Node41&#45;&gt;Node6 -->
<g id="edge68" class="edge">
<title>Node41&#45;&gt;Node6</title>
<path fill="none" stroke="midnightblue" d="M528.74,-490.96C546.48,-478.88 569.6,-461.57 587,-443 606.72,-421.95 600.39,-406.91 623,-389 632.23,-381.68 643.37,-375.97 654.44,-371.56"/>
<polygon fill="midnightblue" stroke="midnightblue" points="655.93,-374.74 664.1,-368.01 653.51,-368.17 655.93,-374.74"/>
</g>
</g>
</svg>
