<?xml version="1.0" encoding="UTF-8" standalone="no"?>
<!DOCTYPE svg PUBLIC "-//W3C//DTD SVG 1.1//EN"
 "http://www.w3.org/Graphics/SVG/1.1/DTD/svg11.dtd">
<!-- Generated by graphviz version 2.47.3 (20210619.1520)
 -->
<!-- Title: cpplint.GetLineWidth Pages: 1 -->
<svg width="598pt" height="50pt"
 viewBox="0.00 0.00 598.00 50.00" xmlns="http://www.w3.org/2000/svg" xmlns:xlink="http://www.w3.org/1999/xlink">
<g id="graph0" class="graph" transform="scale(1 1) rotate(0) translate(4 46)">
<title>cpplint.GetLineWidth</title>
<polygon fill="white" stroke="transparent" points="-4,4 -4,-46 594,-46 594,4 -4,4"/>
<!-- Node1 -->
<g id="node1" class="node">
<title>Node1</title>
<g id="a_node1"><a xlink:title=" ">
<polygon fill="#bfbfbf" stroke="black" points="465,-0.5 465,-21.5 590,-21.5 590,-0.5 465,-0.5"/>
<text text-anchor="middle" x="527.5" y="-7.9" font-family="Helvetica,sans-Serif" font-size="12.00">cpplint.GetLineWidth</text>
</a>
</g>
</g>
<!-- Node2 -->
<g id="node2" class="node">
<title>Node2</title>
<g id="a_node2"><a xlink:href="../../d3/d23/namespacecpplint.html#a3f0a4d2ab1846bf487c742dc88946e3e" target="_top" xlink:title=" ">
<polygon fill="white" stroke="black" points="304,-20.5 304,-41.5 429,-41.5 429,-20.5 304,-20.5"/>
<text text-anchor="middle" x="366.5" y="-27.9" font-family="Helvetica,sans-Serif" font-size="12.00">cpplint.CheckBraces</text>
</a>
</g>
</g>
<!-- Node1&#45;&gt;Node2 -->
<g id="edge1" class="edge">
<title>Node1&#45;&gt;Node2</title>
<path fill="none" stroke="midnightblue" d="M454.41,-20.07C446.01,-21.12 437.5,-22.19 429.26,-23.23"/>
<polygon fill="midnightblue" stroke="midnightblue" points="455.09,-23.51 464.57,-18.79 454.21,-16.57 455.09,-23.51"/>
</g>
<!-- Node3 -->
<g id="node3" class="node">
<title>Node3</title>
<g id="a_node3"><a xlink:href="../../d3/d23/namespacecpplint.html#acfc546daa5947842cb01af319dcb482b" target="_top" xlink:title=" ">
<polygon fill="white" stroke="black" points="155,-0.5 155,-21.5 268,-21.5 268,-0.5 155,-0.5"/>
<text text-anchor="middle" x="211.5" y="-7.9" font-family="Helvetica,sans-Serif" font-size="12.00">cpplint.CheckStyle</text>
</a>
</g>
</g>
<!-- Node1&#45;&gt;Node3 -->
<g id="edge4" class="edge">
<title>Node1&#45;&gt;Node3</title>
<path fill="none" stroke="midnightblue" d="M454.52,-11C397.91,-11 320.17,-11 268.23,-11"/>
<polygon fill="midnightblue" stroke="midnightblue" points="454.84,-14.5 464.84,-11 454.84,-7.5 454.84,-14.5"/>
</g>
<!-- Node2&#45;&gt;Node3 -->
<g id="edge2" class="edge">
<title>Node2&#45;&gt;Node3</title>
<path fill="none" stroke="midnightblue" d="M293.68,-21.61C285.09,-20.49 276.42,-19.36 268.1,-18.27"/>
<polygon fill="midnightblue" stroke="midnightblue" points="293.34,-25.1 303.71,-22.92 294.25,-18.16 293.34,-25.1"/>
</g>
<!-- Node4 -->
<g id="node4" class="node">
<title>Node4</title>
<g id="a_node4"><a xlink:href="../../d3/d23/namespacecpplint.html#ac7c198c2adf60fd79a3f2b4270055a3b" target="_top" xlink:title=" ">
<polygon fill="white" stroke="red" points="0,-0.5 0,-21.5 119,-21.5 119,-0.5 0,-0.5"/>
<text text-anchor="middle" x="59.5" y="-7.9" font-family="Helvetica,sans-Serif" font-size="12.00">cpplint.ProcessLine</text>
</a>
</g>
</g>
<!-- Node3&#45;&gt;Node4 -->
<g id="edge3" class="edge">
<title>Node3&#45;&gt;Node4</title>
<path fill="none" stroke="midnightblue" d="M144.47,-11C136.04,-11 127.46,-11 119.16,-11"/>
<polygon fill="midnightblue" stroke="midnightblue" points="144.65,-14.5 154.65,-11 144.65,-7.5 144.65,-14.5"/>
</g>
</g>
</svg>
