<?xml version="1.0" encoding="UTF-8" standalone="no"?>
<!DOCTYPE svg PUBLIC "-//W3C//DTD SVG 1.1//EN"
 "http://www.w3.org/Graphics/SVG/1.1/DTD/svg11.dtd">
<!-- Generated by graphviz version 2.47.3 (20210619.1520)
 -->
<!-- Title: cpplint._AddFilters Pages: 1 -->
<svg width="607pt" height="30pt"
 viewBox="0.00 0.00 607.00 30.00" xmlns="http://www.w3.org/2000/svg" xmlns:xlink="http://www.w3.org/1999/xlink">
<g id="graph0" class="graph" transform="scale(1 1) rotate(0) translate(4 26)">
<title>cpplint._AddFilters</title>
<polygon fill="white" stroke="transparent" points="-4,4 -4,-26 603,-26 603,4 -4,4"/>
<!-- Node1 -->
<g id="node1" class="node">
<title>Node1</title>
<g id="a_node1"><a xlink:title=" ">
<polygon fill="#bfbfbf" stroke="black" points="485,-0.5 485,-21.5 599,-21.5 599,-0.5 485,-0.5"/>
<text text-anchor="middle" x="542" y="-7.9" font-family="Helvetica,sans-Serif" font-size="12.00">cpplint._AddFilters</text>
</a>
</g>
</g>
<!-- Node2 -->
<g id="node2" class="node">
<title>Node2</title>
<g id="a_node2"><a xlink:href="../../d3/d23/namespacecpplint.html#a6b67f01b8b199f5f6a7481fc0fb53878" target="_top" xlink:title=" ">
<polygon fill="white" stroke="black" points="267,-0.5 267,-21.5 449,-21.5 449,-0.5 267,-0.5"/>
<text text-anchor="middle" x="358" y="-7.9" font-family="Helvetica,sans-Serif" font-size="12.00">cpplint.ProcessConfigOverrides</text>
</a>
</g>
</g>
<!-- Node1&#45;&gt;Node2 -->
<g id="edge1" class="edge">
<title>Node1&#45;&gt;Node2</title>
<path fill="none" stroke="midnightblue" d="M474.84,-11C466.45,-11 457.75,-11 449.06,-11"/>
<polygon fill="midnightblue" stroke="midnightblue" points="474.91,-14.5 484.91,-11 474.91,-7.5 474.91,-14.5"/>
</g>
<!-- Node3 -->
<g id="node3" class="node">
<title>Node3</title>
<g id="a_node3"><a xlink:href="../../d3/d23/namespacecpplint.html#a41785091b61e8719f4a4a886eb20fe43" target="_top" xlink:title=" ">
<polygon fill="white" stroke="black" points="115,-0.5 115,-21.5 231,-21.5 231,-0.5 115,-0.5"/>
<text text-anchor="middle" x="173" y="-7.9" font-family="Helvetica,sans-Serif" font-size="12.00">cpplint.ProcessFile</text>
</a>
</g>
</g>
<!-- Node2&#45;&gt;Node3 -->
<g id="edge2" class="edge">
<title>Node2&#45;&gt;Node3</title>
<path fill="none" stroke="midnightblue" d="M256.58,-11C247.86,-11 239.25,-11 231.07,-11"/>
<polygon fill="midnightblue" stroke="midnightblue" points="256.84,-14.5 266.84,-11 256.84,-7.5 256.84,-14.5"/>
</g>
<!-- Node4 -->
<g id="node4" class="node">
<title>Node4</title>
<g id="a_node4"><a xlink:href="../../d3/d23/namespacecpplint.html#a03dd39c6bfb4337676fcfaf5cd797c91" target="_top" xlink:title=" ">
<polygon fill="white" stroke="black" points="0,-0.5 0,-21.5 79,-21.5 79,-0.5 0,-0.5"/>
<text text-anchor="middle" x="39.5" y="-7.9" font-family="Helvetica,sans-Serif" font-size="12.00">cpplint.main</text>
</a>
</g>
</g>
<!-- Node3&#45;&gt;Node4 -->
<g id="edge3" class="edge">
<title>Node3&#45;&gt;Node4</title>
<path fill="none" stroke="midnightblue" d="M104.49,-11C95.77,-11 87.1,-11 79.07,-11"/>
<polygon fill="midnightblue" stroke="midnightblue" points="104.7,-14.5 114.7,-11 104.7,-7.5 104.7,-14.5"/>
</g>
</g>
</svg>
