<?xml version="1.0" encoding="UTF-8" standalone="no"?>
<!DOCTYPE svg PUBLIC "-//W3C//DTD SVG 1.1//EN"
 "http://www.w3.org/Graphics/SVG/1.1/DTD/svg11.dtd">
<!-- Generated by graphviz version 2.47.3 (20210619.1520)
 -->
<!-- Title: cpplint.CheckCStyleCast Pages: 1 -->
<svg width="281pt" height="70pt"
 viewBox="0.00 0.00 281.00 70.00" xmlns="http://www.w3.org/2000/svg" xmlns:xlink="http://www.w3.org/1999/xlink">
<g id="graph0" class="graph" transform="scale(1 1) rotate(0) translate(4 66)">
<title>cpplint.CheckCStyleCast</title>
<polygon fill="white" stroke="transparent" points="-4,4 -4,-66 277,-66 277,4 -4,4"/>
<!-- Node1 -->
<g id="node1" class="node">
<title>Node1</title>
<g id="a_node1"><a xlink:title=" ">
<polygon fill="#bfbfbf" stroke="black" points="0,-20.5 0,-41.5 146,-41.5 146,-20.5 0,-20.5"/>
<text text-anchor="middle" x="73" y="-27.9" font-family="Helvetica,sans-Serif" font-size="12.00">cpplint.CheckCStyleCast</text>
</a>
</g>
</g>
<!-- Node2 -->
<g id="node2" class="node">
<title>Node2</title>
<g id="a_node2"><a xlink:href="../../d3/d23/namespacecpplint.html#a73ac2ecfcd9c52b4a3755176c68dea7e" target="_top" xlink:title=" ">
<polygon fill="white" stroke="black" points="185,-40.5 185,-61.5 270,-61.5 270,-40.5 185,-40.5"/>
<text text-anchor="middle" x="227.5" y="-47.9" font-family="Helvetica,sans-Serif" font-size="12.00">cpplint.Match</text>
</a>
</g>
</g>
<!-- Node1&#45;&gt;Node2 -->
<g id="edge1" class="edge">
<title>Node1&#45;&gt;Node2</title>
<path fill="none" stroke="midnightblue" d="M146.23,-40.47C155.85,-41.73 165.56,-43.01 174.73,-44.21"/>
<polygon fill="midnightblue" stroke="midnightblue" points="174.47,-47.71 184.84,-45.54 175.38,-40.77 174.47,-47.71"/>
</g>
<!-- Node3 -->
<g id="node3" class="node">
<title>Node3</title>
<g id="a_node3"><a xlink:href="../../d3/d23/namespacecpplint.html#a75eae6bb88590e904f751502c8ee4bab" target="_top" xlink:title=" ">
<polygon fill="white" stroke="black" points="182,-0.5 182,-21.5 273,-21.5 273,-0.5 182,-0.5"/>
<text text-anchor="middle" x="227.5" y="-7.9" font-family="Helvetica,sans-Serif" font-size="12.00">cpplint.Search</text>
</a>
</g>
</g>
<!-- Node1&#45;&gt;Node3 -->
<g id="edge2" class="edge">
<title>Node1&#45;&gt;Node3</title>
<path fill="none" stroke="midnightblue" d="M146.23,-21.53C154.88,-20.39 163.6,-19.25 171.93,-18.16"/>
<polygon fill="midnightblue" stroke="midnightblue" points="172.43,-21.62 181.89,-16.85 171.52,-14.68 172.43,-21.62"/>
</g>
</g>
</svg>
