<?xml version="1.0" encoding="UTF-8" standalone="no"?>
<!DOCTYPE svg PUBLIC "-//W3C//DTD SVG 1.1//EN"
 "http://www.w3.org/Graphics/SVG/1.1/DTD/svg11.dtd">
<!-- Generated by graphviz version 2.47.3 (20210619.1520)
 -->
<!-- Title: cpplint.CheckCheck Pages: 1 -->
<svg width="639pt" height="138pt"
 viewBox="0.00 0.00 639.00 137.50" xmlns="http://www.w3.org/2000/svg" xmlns:xlink="http://www.w3.org/1999/xlink">
<g id="graph0" class="graph" transform="scale(1 1) rotate(0) translate(4 133.5)">
<title>cpplint.CheckCheck</title>
<polygon fill="white" stroke="transparent" points="-4,4 -4,-133.5 635,-133.5 635,4 -4,4"/>
<!-- Node1 -->
<g id="node1" class="node">
<title>Node1</title>
<g id="a_node1"><a xlink:title=" ">
<polygon fill="#bfbfbf" stroke="black" points="0,-58.5 0,-79.5 121,-79.5 121,-58.5 0,-58.5"/>
<text text-anchor="middle" x="60.5" y="-65.9" font-family="Helvetica,sans-Serif" font-size="12.00">cpplint.CheckCheck</text>
</a>
</g>
</g>
<!-- Node2 -->
<g id="node2" class="node">
<title>Node2</title>
<g id="a_node2"><a xlink:href="../../d3/d23/namespacecpplint.html#af254258f584f59c87fcfd755e3c9017a" target="_top" xlink:title=" ">
<polygon fill="white" stroke="black" points="157,-78.5 157,-99.5 300,-99.5 300,-78.5 157,-78.5"/>
<text text-anchor="middle" x="228.5" y="-85.9" font-family="Helvetica,sans-Serif" font-size="12.00">cpplint.CloseExpression</text>
</a>
</g>
</g>
<!-- Node1&#45;&gt;Node2 -->
<g id="edge1" class="edge">
<title>Node1&#45;&gt;Node2</title>
<path fill="none" stroke="midnightblue" d="M121.43,-76.22C129.71,-77.22 138.32,-78.25 146.89,-79.29"/>
<polygon fill="midnightblue" stroke="midnightblue" points="146.57,-82.78 156.92,-80.5 147.41,-75.83 146.57,-82.78"/>
</g>
<!-- Node3 -->
<g id="node3" class="node">
<title>Node3</title>
<g id="a_node3"><a xlink:href="../../d3/d23/namespacecpplint.html#a6e623c46c1ae3bf650454744a693a633" target="_top" xlink:title=" ">
<polygon fill="white" stroke="black" points="336,-95 336,-129 504,-129 504,-95 336,-95"/>
<text text-anchor="start" x="344" y="-115.4" font-family="Helvetica,sans-Serif" font-size="12.00">cpplint.FindEndOfExpression</text>
<text text-anchor="middle" x="420" y="-102.4" font-family="Helvetica,sans-Serif" font-size="12.00">InLine</text>
</a>
</g>
</g>
<!-- Node1&#45;&gt;Node3 -->
<g id="edge7" class="edge">
<title>Node1&#45;&gt;Node3</title>
<path fill="none" stroke="midnightblue" d="M80.54,-79.57C99.33,-89.36 129.19,-103.24 157,-109 212.11,-120.4 275.15,-121.49 325.58,-119.56"/>
<polygon fill="midnightblue" stroke="midnightblue" points="325.98,-123.05 335.82,-119.12 325.68,-116.05 325.98,-123.05"/>
</g>
<!-- Node5 -->
<g id="node5" class="node">
<title>Node5</title>
<g id="a_node5"><a xlink:href="../../d3/d23/namespacecpplint.html#a73ac2ecfcd9c52b4a3755176c68dea7e" target="_top" xlink:title=" ">
<polygon fill="white" stroke="black" points="377.5,-39.5 377.5,-60.5 462.5,-60.5 462.5,-39.5 377.5,-39.5"/>
<text text-anchor="middle" x="420" y="-46.9" font-family="Helvetica,sans-Serif" font-size="12.00">cpplint.Match</text>
</a>
</g>
</g>
<!-- Node1&#45;&gt;Node5 -->
<g id="edge8" class="edge">
<title>Node1&#45;&gt;Node5</title>
<path fill="none" stroke="midnightblue" d="M121.34,-65.82C190.21,-62.16 302.17,-56.21 367.37,-52.74"/>
<polygon fill="midnightblue" stroke="midnightblue" points="367.62,-56.24 377.42,-52.21 367.25,-49.25 367.62,-56.24"/>
</g>
<!-- Node6 -->
<g id="node6" class="node">
<title>Node6</title>
<g id="a_node6"><a xlink:href="../../d3/d23/namespacecpplint.html#aefff9c2eefe99656a226d11ce4d9b555" target="_top" xlink:title=" ">
<polygon fill="white" stroke="black" points="157,-0.5 157,-21.5 300,-21.5 300,-0.5 157,-0.5"/>
<text text-anchor="middle" x="228.5" y="-7.9" font-family="Helvetica,sans-Serif" font-size="12.00">cpplint.FindCheckMacro</text>
</a>
</g>
</g>
<!-- Node1&#45;&gt;Node6 -->
<g id="edge5" class="edge">
<title>Node1&#45;&gt;Node6</title>
<path fill="none" stroke="midnightblue" d="M91.56,-58.5C118.51,-49.08 158.23,-35.2 187.78,-24.88"/>
<polygon fill="midnightblue" stroke="midnightblue" points="189.1,-28.13 197.38,-21.52 186.79,-21.52 189.1,-28.13"/>
</g>
<!-- Node2&#45;&gt;Node3 -->
<g id="edge2" class="edge">
<title>Node2&#45;&gt;Node3</title>
<path fill="none" stroke="midnightblue" d="M300.06,-97.56C308.46,-98.58 317.13,-99.64 325.77,-100.69"/>
<polygon fill="midnightblue" stroke="midnightblue" points="325.56,-104.18 335.9,-101.91 326.4,-97.24 325.56,-104.18"/>
</g>
<!-- Node2&#45;&gt;Node5 -->
<g id="edge4" class="edge">
<title>Node2&#45;&gt;Node5</title>
<path fill="none" stroke="midnightblue" d="M280.78,-78.45C307.61,-72.93 340.37,-66.18 367.26,-60.65"/>
<polygon fill="midnightblue" stroke="midnightblue" points="368.17,-64.04 377.26,-58.59 366.76,-57.18 368.17,-64.04"/>
</g>
<!-- Node4 -->
<g id="node4" class="node">
<title>Node4</title>
<g id="a_node4"><a xlink:href="../../d3/d23/namespacecpplint.html#a75eae6bb88590e904f751502c8ee4bab" target="_top" xlink:title=" ">
<polygon fill="white" stroke="black" points="540,-101.5 540,-122.5 631,-122.5 631,-101.5 540,-101.5"/>
<text text-anchor="middle" x="585.5" y="-108.9" font-family="Helvetica,sans-Serif" font-size="12.00">cpplint.Search</text>
</a>
</g>
</g>
<!-- Node3&#45;&gt;Node4 -->
<g id="edge3" class="edge">
<title>Node3&#45;&gt;Node4</title>
<path fill="none" stroke="midnightblue" d="M504.19,-112C512.84,-112 521.47,-112 529.69,-112"/>
<polygon fill="midnightblue" stroke="midnightblue" points="529.86,-115.5 539.86,-112 529.86,-108.5 529.86,-115.5"/>
</g>
<!-- Node6&#45;&gt;Node5 -->
<g id="edge6" class="edge">
<title>Node6&#45;&gt;Node5</title>
<path fill="none" stroke="midnightblue" d="M280.78,-21.55C307.61,-27.07 340.37,-33.82 367.26,-39.35"/>
<polygon fill="midnightblue" stroke="midnightblue" points="366.76,-42.82 377.26,-41.41 368.17,-35.96 366.76,-42.82"/>
</g>
</g>
</svg>
