<?xml version="1.0" encoding="UTF-8" standalone="no"?>
<!DOCTYPE svg PUBLIC "-//W3C//DTD SVG 1.1//EN"
 "http://www.w3.org/Graphics/SVG/1.1/DTD/svg11.dtd">
<!-- Generated by graphviz version 2.47.3 (20210619.1520)
 -->
<!-- Title: D:/brian/Dev/Eris/ERISCore/lib/SdFat&#45;master/src/FatLib/FatFileLFN.cpp Pages: 1 -->
<!--zoomable 346 -->
<svg id="main" version="1.1" xmlns="http://www.w3.org/2000/svg" xmlns:xlink="http://www.w3.org/1999/xlink" xml:space="preserve" onload="init(evt)">
<style type="text/css"><![CDATA[
.edge:hover path { stroke: red; }
.edge:hover polygon { stroke: red; fill: red; }
]]></style>
<script type="text/javascript"><![CDATA[
var edges = document.getElementsByTagName('g');
if (edges && edges.length) {
  for (var i=0;i<edges.length;i++) {
    if (edges[i].id.substr(0,4)=='edge') {
      edges[i].setAttribute('class','edge');
    }
  }
}
]]></script>
        <defs>
                <circle id="rim" cx="0" cy="0" r="7"/>
                <circle id="rim2" cx="0" cy="0" r="3.5"/>
                <g id="zoomPlus">
                        <use xlink:href="#rim" fill="#404040">
                                <set attributeName="fill" to="#808080" begin="zoomplus.mouseover" end="zoomplus.mouseout"/>
                        </use>
                        <path d="M-4,0h8M0,-4v8" fill="none" stroke="white" stroke-width="1.5" pointer-events="none"/>
                </g>
                <g id="zoomMin">
                        <use xlink:href="#rim" fill="#404040">
                                <set attributeName="fill" to="#808080" begin="zoomminus.mouseover" end="zoomminus.mouseout"/>
                        </use>
                        <path d="M-4,0h8" fill="none" stroke="white" stroke-width="1.5" pointer-events="none"/>
                </g>
                <g id="dirArrow">
                        <path fill="none" stroke="white" stroke-width="1.5" d="M0,-3.0v7 M-2.5,-0.5L0,-3.0L2.5,-0.5"/>
                </g>
               <g id="resetDef">
                       <use xlink:href="#rim2" fill="#404040">
                               <set attributeName="fill" to="#808080" begin="reset.mouseover" end="reset.mouseout"/>
                       </use>
               </g>
        </defs>

<script type="text/javascript">
var viewWidth = 616;
var viewHeight = 346;
var sectionId = 'dynsection-0';
</script>
<script xlink:href="../../svgpan.js"/>
<svg id="graph" class="graph">
<g id="viewport">
<title>D:/brian/Dev/Eris/ERISCore/lib/SdFat&#45;master/src/FatLib/FatFileLFN.cpp</title>
<polygon fill="white" stroke="transparent" points="-4,4 -4,-342 612,-342 612,4 -4,4"/>
<!-- Node1 -->
<g id="node1" class="node">
<title>Node1</title>
<g id="a_node1"><a xlink:title=" ">
<polygon fill="#bfbfbf" stroke="black" points="321.5,-290.5 321.5,-337.5 483.5,-337.5 483.5,-290.5 321.5,-290.5"/>
<text text-anchor="start" x="329.5" y="-323.9" font-family="Helvetica,sans-Serif" font-size="12.00">D:/brian/Dev/Eris/ERISCore</text>
<text text-anchor="start" x="329.5" y="-310.9" font-family="Helvetica,sans-Serif" font-size="12.00">/lib/SdFat&#45;master/src/FatLib</text>
<text text-anchor="middle" x="402.5" y="-297.9" font-family="Helvetica,sans-Serif" font-size="12.00">/FatFileLFN.cpp</text>
</a>
</g>
</g>
<!-- Node2 -->
<g id="node2" class="node">
<title>Node2</title>
<g id="a_node2"><a xlink:href="../../d5/dfc/_debug_macros_8h.html" target="_top" xlink:title=" ">
<polygon fill="white" stroke="black" points="0,-174.5 0,-195.5 157,-195.5 157,-174.5 0,-174.5"/>
<text text-anchor="middle" x="78.5" y="-181.9" font-family="Helvetica,sans-Serif" font-size="12.00">../common/DebugMacros.h</text>
</a>
</g>
</g>
<!-- Node1&#45;&gt;Node2 -->
<g id="edge1" class="edge">
<title>Node1&#45;&gt;Node2</title>
<path fill="none" stroke="midnightblue" d="M344.95,-290.44C277.36,-263.95 167.49,-220.88 112.34,-199.26"/>
<polygon fill="midnightblue" stroke="midnightblue" points="113.61,-196 103.02,-195.61 111.05,-202.52 113.61,-196"/>
</g>
<!-- Node6 -->
<g id="node6" class="node">
<title>Node6</title>
<g id="a_node6"><a xlink:href="../../d4/d2c/upcase_8h.html" target="_top" xlink:title=" ">
<polygon fill="white" stroke="black" points="487,-232.5 487,-253.5 608,-253.5 608,-232.5 487,-232.5"/>
<text text-anchor="middle" x="547.5" y="-239.9" font-family="Helvetica,sans-Serif" font-size="12.00">../common/upcase.h</text>
</a>
</g>
</g>
<!-- Node1&#45;&gt;Node6 -->
<g id="edge5" class="edge">
<title>Node1&#45;&gt;Node6</title>
<path fill="none" stroke="midnightblue" d="M449.98,-290.41C472.55,-279.67 498.81,-267.17 518.39,-257.85"/>
<polygon fill="midnightblue" stroke="midnightblue" points="519.89,-261.01 527.42,-253.56 516.89,-254.69 519.89,-261.01"/>
</g>
<!-- Node7 -->
<g id="node7" class="node">
<title>Node7</title>
<g id="a_node7"><a xlink:href="../../d5/d9f/_fs_utf_8h.html" target="_top" xlink:title="Unicode Transformation Format functions.">
<polygon fill="white" stroke="black" points="416.5,-116.5 416.5,-137.5 526.5,-137.5 526.5,-116.5 416.5,-116.5"/>
<text text-anchor="middle" x="471.5" y="-123.9" font-family="Helvetica,sans-Serif" font-size="12.00">../common/FsUtf.h</text>
</a>
</g>
</g>
<!-- Node1&#45;&gt;Node7 -->
<g id="edge7" class="edge">
<title>Node1&#45;&gt;Node7</title>
<path fill="none" stroke="midnightblue" d="M410.96,-290.32C424.66,-253.57 451.47,-181.7 464.31,-147.28"/>
<polygon fill="midnightblue" stroke="midnightblue" points="467.74,-148.1 467.95,-137.51 461.18,-145.66 467.74,-148.1"/>
</g>
<!-- Node9 -->
<g id="node9" class="node">
<title>Node9</title>
<g id="a_node9"><a xlink:href="../../de/dfa/_fat_lib_8h.html" target="_top" xlink:title=" ">
<polygon fill="white" stroke="black" points="338,-232.5 338,-253.5 397,-253.5 397,-232.5 338,-232.5"/>
<text text-anchor="middle" x="367.5" y="-239.9" font-family="Helvetica,sans-Serif" font-size="12.00">FatLib.h</text>
</a>
</g>
</g>
<!-- Node1&#45;&gt;Node9 -->
<g id="edge10" class="edge">
<title>Node1&#45;&gt;Node9</title>
<path fill="none" stroke="midnightblue" d="M391.04,-290.41C386.51,-281.48 381.37,-271.34 377.05,-262.82"/>
<polygon fill="midnightblue" stroke="midnightblue" points="380.08,-261.07 372.44,-253.74 373.84,-264.24 380.08,-261.07"/>
</g>
<!-- Node3 -->
<g id="node3" class="node">
<title>Node3</title>
<g id="a_node3"><a xlink:href="../../de/d9b/_sd_fat_config_8h.html" target="_top" xlink:title="configuration definitions">
<polygon fill="white" stroke="black" points="72.5,-58.5 72.5,-79.5 164.5,-79.5 164.5,-58.5 72.5,-58.5"/>
<text text-anchor="middle" x="118.5" y="-65.9" font-family="Helvetica,sans-Serif" font-size="12.00">SdFatConfig.h</text>
</a>
</g>
</g>
<!-- Node2&#45;&gt;Node3 -->
<g id="edge2" class="edge">
<title>Node2&#45;&gt;Node3</title>
<path fill="none" stroke="midnightblue" d="M75.94,-174.37C72.83,-160.82 68.9,-135.6 76.5,-116 80.89,-104.69 89.49,-94.46 97.77,-86.54"/>
<polygon fill="midnightblue" stroke="midnightblue" points="100.33,-88.95 105.47,-79.69 95.68,-83.72 100.33,-88.95"/>
</g>
<!-- Node4 -->
<g id="node4" class="node">
<title>Node4</title>
<g id="a_node4"><a xlink:title=" ">
<polygon fill="white" stroke="#bfbfbf" points="305,-0.5 305,-21.5 358,-21.5 358,-0.5 305,-0.5"/>
<text text-anchor="middle" x="331.5" y="-7.9" font-family="Helvetica,sans-Serif" font-size="12.00">stdint.h</text>
</a>
</g>
</g>
<!-- Node3&#45;&gt;Node4 -->
<g id="edge3" class="edge">
<title>Node3&#45;&gt;Node4</title>
<path fill="none" stroke="midnightblue" d="M155.12,-58.37C194.21,-48.1 255.78,-31.91 294.88,-21.63"/>
<polygon fill="midnightblue" stroke="midnightblue" points="296,-24.95 304.78,-19.02 294.22,-18.18 296,-24.95"/>
</g>
<!-- Node5 -->
<g id="node5" class="node">
<title>Node5</title>
<g id="a_node5"><a xlink:title=" ">
<polygon fill="white" stroke="#bfbfbf" points="85.5,-0.5 85.5,-21.5 151.5,-21.5 151.5,-0.5 85.5,-0.5"/>
<text text-anchor="middle" x="118.5" y="-7.9" font-family="Helvetica,sans-Serif" font-size="12.00">Arduino.h</text>
</a>
</g>
</g>
<!-- Node3&#45;&gt;Node5 -->
<g id="edge4" class="edge">
<title>Node3&#45;&gt;Node5</title>
<path fill="none" stroke="midnightblue" d="M118.5,-58.25C118.5,-50.94 118.5,-40.69 118.5,-31.7"/>
<polygon fill="midnightblue" stroke="midnightblue" points="122,-31.64 118.5,-21.64 115,-31.64 122,-31.64"/>
</g>
<!-- Node6&#45;&gt;Node4 -->
<g id="edge6" class="edge">
<title>Node6&#45;&gt;Node4</title>
<path fill="none" stroke="midnightblue" d="M549.42,-232.17C553.27,-209.57 559.65,-152.98 535.5,-116 497.33,-57.55 415.53,-30.35 367.92,-19.03"/>
<polygon fill="midnightblue" stroke="midnightblue" points="368.55,-15.59 358.02,-16.79 367,-22.41 368.55,-15.59"/>
</g>
<!-- Node7&#45;&gt;Node4 -->
<g id="edge8" class="edge">
<title>Node7&#45;&gt;Node4</title>
<path fill="none" stroke="midnightblue" d="M463.6,-116.49C451.82,-102.65 428.56,-76.58 405.5,-58 390.91,-46.24 373.11,-35.09 358.63,-26.72"/>
<polygon fill="midnightblue" stroke="midnightblue" points="360.08,-23.52 349.66,-21.63 356.63,-29.61 360.08,-23.52"/>
</g>
<!-- Node8 -->
<g id="node8" class="node">
<title>Node8</title>
<g id="a_node8"><a xlink:title=" ">
<polygon fill="white" stroke="#bfbfbf" points="338.5,-58.5 338.5,-79.5 396.5,-79.5 396.5,-58.5 338.5,-58.5"/>
<text text-anchor="middle" x="367.5" y="-65.9" font-family="Helvetica,sans-Serif" font-size="12.00">stddef.h</text>
</a>
</g>
</g>
<!-- Node7&#45;&gt;Node8 -->
<g id="edge9" class="edge">
<title>Node7&#45;&gt;Node8</title>
<path fill="none" stroke="midnightblue" d="M453.38,-116.25C437.05,-107.45 412.83,-94.41 394.27,-84.41"/>
<polygon fill="midnightblue" stroke="midnightblue" points="395.87,-81.3 385.41,-79.64 392.55,-87.47 395.87,-81.3"/>
</g>
<!-- Node10 -->
<g id="node10" class="node">
<title>Node10</title>
<g id="a_node10"><a xlink:href="../../da/d0b/_fat_volume_8h.html" target="_top" xlink:title="FatVolume class.">
<polygon fill="white" stroke="black" points="326,-174.5 326,-195.5 409,-195.5 409,-174.5 326,-174.5"/>
<text text-anchor="middle" x="367.5" y="-181.9" font-family="Helvetica,sans-Serif" font-size="12.00">FatVolume.h</text>
</a>
</g>
</g>
<!-- Node9&#45;&gt;Node10 -->
<g id="edge11" class="edge">
<title>Node9&#45;&gt;Node10</title>
<path fill="none" stroke="midnightblue" d="M367.5,-232.25C367.5,-224.94 367.5,-214.69 367.5,-205.7"/>
<polygon fill="midnightblue" stroke="midnightblue" points="371,-205.64 367.5,-195.64 364,-205.64 371,-205.64"/>
</g>
<!-- Node37 -->
<g id="node12" class="node">
<title>Node37</title>
<g id="a_node12"><a xlink:href="../../d8/d20/_fat_formatter_8h.html" target="_top" xlink:title=" ">
<polygon fill="white" stroke="black" points="196.5,-174.5 196.5,-195.5 290.5,-195.5 290.5,-174.5 196.5,-174.5"/>
<text text-anchor="middle" x="243.5" y="-181.9" font-family="Helvetica,sans-Serif" font-size="12.00">FatFormatter.h</text>
</a>
</g>
</g>
<!-- Node9&#45;&gt;Node37 -->
<g id="edge14" class="edge">
<title>Node9&#45;&gt;Node37</title>
<path fill="none" stroke="midnightblue" d="M346.18,-232.37C326.28,-223.38 296.36,-209.87 273.94,-199.75"/>
<polygon fill="midnightblue" stroke="midnightblue" points="275.09,-196.43 264.54,-195.5 272.21,-202.81 275.09,-196.43"/>
</g>
<!-- Node11 -->
<g id="node11" class="node">
<title>Node11</title>
<g id="a_node11"><a xlink:href="../../d6/d7b/_fat_file_8h.html" target="_top" xlink:title="FatFile class.">
<polygon fill="white" stroke="red" points="336.5,-116.5 336.5,-137.5 398.5,-137.5 398.5,-116.5 336.5,-116.5"/>
<text text-anchor="middle" x="367.5" y="-123.9" font-family="Helvetica,sans-Serif" font-size="12.00">FatFile.h</text>
</a>
</g>
</g>
<!-- Node10&#45;&gt;Node11 -->
<g id="edge12" class="edge">
<title>Node10&#45;&gt;Node11</title>
<path fill="none" stroke="midnightblue" d="M367.5,-174.25C367.5,-166.94 367.5,-156.69 367.5,-147.7"/>
<polygon fill="midnightblue" stroke="midnightblue" points="371,-147.64 367.5,-137.64 364,-147.64 371,-147.64"/>
</g>
<!-- Node11&#45;&gt;Node8 -->
<g id="edge13" class="edge">
<title>Node11&#45;&gt;Node8</title>
<path fill="none" stroke="midnightblue" d="M367.5,-116.25C367.5,-108.94 367.5,-98.69 367.5,-89.7"/>
<polygon fill="midnightblue" stroke="midnightblue" points="371,-89.64 367.5,-79.64 364,-89.64 371,-89.64"/>
</g>
<!-- Node19 -->
<g id="node13" class="node">
<title>Node19</title>
<g id="a_node13"><a xlink:href="../../d9/da3/_sys_call_8h.html" target="_top" xlink:title="SysCall class.">
<polygon fill="white" stroke="red" points="86,-116.5 86,-137.5 151,-137.5 151,-116.5 86,-116.5"/>
<text text-anchor="middle" x="118.5" y="-123.9" font-family="Helvetica,sans-Serif" font-size="12.00">SysCall.h</text>
</a>
</g>
</g>
<!-- Node37&#45;&gt;Node19 -->
<g id="edge15" class="edge">
<title>Node37&#45;&gt;Node19</title>
<path fill="none" stroke="midnightblue" d="M222.01,-174.37C201.86,-165.34 171.51,-151.75 148.88,-141.61"/>
<polygon fill="midnightblue" stroke="midnightblue" points="150.26,-138.4 139.71,-137.5 147.4,-144.78 150.26,-138.4"/>
</g>
<!-- Node23 -->
<g id="node14" class="node">
<title>Node23</title>
<g id="a_node14"><a xlink:href="../../d7/df6/_block_device_8h.html" target="_top" xlink:title=" ">
<polygon fill="white" stroke="red" points="169,-116.5 169,-137.5 318,-137.5 318,-116.5 169,-116.5"/>
<text text-anchor="middle" x="243.5" y="-123.9" font-family="Helvetica,sans-Serif" font-size="12.00">../common/BlockDevice.h</text>
</a>
</g>
</g>
<!-- Node37&#45;&gt;Node23 -->
<g id="edge19" class="edge">
<title>Node37&#45;&gt;Node23</title>
<path fill="none" stroke="midnightblue" d="M243.5,-174.25C243.5,-166.94 243.5,-156.69 243.5,-147.7"/>
<polygon fill="midnightblue" stroke="midnightblue" points="247,-147.64 243.5,-137.64 240,-147.64 247,-147.64"/>
</g>
<!-- Node19&#45;&gt;Node3 -->
<g id="edge18" class="edge">
<title>Node19&#45;&gt;Node3</title>
<path fill="none" stroke="midnightblue" d="M118.5,-116.25C118.5,-108.94 118.5,-98.69 118.5,-89.7"/>
<polygon fill="midnightblue" stroke="midnightblue" points="122,-89.64 118.5,-79.64 115,-89.64 122,-89.64"/>
</g>
<!-- Node19&#45;&gt;Node4 -->
<g id="edge16" class="edge">
<title>Node19&#45;&gt;Node4</title>
<path fill="none" stroke="midnightblue" d="M136.29,-116.48C173.65,-96.48 260.42,-50.04 304.6,-26.39"/>
<polygon fill="midnightblue" stroke="midnightblue" points="306.44,-29.38 313.61,-21.58 303.14,-23.21 306.44,-29.38"/>
</g>
<!-- Node19&#45;&gt;Node8 -->
<g id="edge17" class="edge">
<title>Node19&#45;&gt;Node8</title>
<path fill="none" stroke="midnightblue" d="M151.16,-117.97C153.98,-117.29 156.79,-116.63 159.5,-116 218.24,-102.34 286.53,-87.42 328.38,-78.39"/>
<polygon fill="midnightblue" stroke="midnightblue" points="329.14,-81.81 338.18,-76.28 327.66,-74.96 329.14,-81.81"/>
</g>
</g>
</svg>
        <g id="navigator" transform="translate(0 0)" fill="#404254">
                <rect fill="#f2f5e9" fill-opacity="0.5" stroke="#606060" stroke-width=".5" x="0" y="0" width="60" height="60"/>
                <use id="zoomplus" xlink:href="#zoomPlus" x="17" y="9" onmousedown="handleZoom(evt,'in')"/>
                <use id="zoomminus" xlink:href="#zoomMin" x="42" y="9" onmousedown="handleZoom(evt,'out')"/>
                <use id="reset" xlink:href="#resetDef" x="30" y="36" onmousedown="handleReset()"/>
                <g id="arrowUp" xlink:href="#dirArrow" transform="translate(30 24)" onmousedown="handlePan(0,-1)">
                  <use xlink:href="#rim" fill="#404040">
                        <set attributeName="fill" to="#808080" begin="arrowUp.mouseover" end="arrowUp.mouseout"/>
                  </use>
                  <path fill="none" stroke="white" stroke-width="1.5" d="M0,-3.0v7 M-2.5,-0.5L0,-3.0L2.5,-0.5"/>
                </g>
                <g id="arrowRight" xlink:href="#dirArrow" transform="rotate(90) translate(36 -43)" onmousedown="handlePan(1,0)">
                  <use xlink:href="#rim" fill="#404040">
                        <set attributeName="fill" to="#808080" begin="arrowRight.mouseover" end="arrowRight.mouseout"/>
                  </use>
                  <path fill="none" stroke="white" stroke-width="1.5" d="M0,-3.0v7 M-2.5,-0.5L0,-3.0L2.5,-0.5"/>
                </g>
                <g id="arrowDown" xlink:href="#dirArrow" transform="rotate(180) translate(-30 -48)" onmousedown="handlePan(0,1)">
                  <use xlink:href="#rim" fill="#404040">
                        <set attributeName="fill" to="#808080" begin="arrowDown.mouseover" end="arrowDown.mouseout"/>
                  </use>
                  <path fill="none" stroke="white" stroke-width="1.5" d="M0,-3.0v7 M-2.5,-0.5L0,-3.0L2.5,-0.5"/>
                </g>
                <g id="arrowLeft" xlink:href="#dirArrow" transform="rotate(270) translate(-36 17)" onmousedown="handlePan(-1,0)">
                  <use xlink:href="#rim" fill="#404040">
                        <set attributeName="fill" to="#808080" begin="arrowLeft.mouseover" end="arrowLeft.mouseout"/>
                  </use>
                  <path fill="none" stroke="white" stroke-width="1.5" d="M0,-3.0v7 M-2.5,-0.5L0,-3.0L2.5,-0.5"/>
                </g>
        </g>
        <svg viewBox="0 0 15 15" width="100%" height="30px" preserveAspectRatio="xMaxYMin meet">
         <g id="arrow_out" transform="scale(0.3 0.3)">
          <a xlink:href="_fat_file_l_f_n_8cpp__incl_org.svg" target="_base">
           <rect id="button" ry="5" rx="5" y="6" x="6" height="38" width="38"
                fill="#f2f5e9" fill-opacity="0.5" stroke="#606060" stroke-width="1.0"/>
           <path id="arrow"
             d="M 11.500037,31.436501 C 11.940474,20.09759 22.043105,11.32322 32.158766,21.979434 L 37.068811,17.246167 C 37.068811,17.246167 37.088388,32 37.088388,32 L 22.160133,31.978069 C 22.160133,31.978069 26.997745,27.140456 26.997745,27.140456 C 18.528582,18.264221 13.291696,25.230495 11.500037,31.436501 z"
             style="fill:#404040;"/>
          </a>
         </g>
        </svg>
</svg>
