<?xml version="1.0" encoding="UTF-8" standalone="no"?>
<!DOCTYPE svg PUBLIC "-//W3C//DTD SVG 1.1//EN"
 "http://www.w3.org/Graphics/SVG/1.1/DTD/svg11.dtd">
<!-- Generated by graphviz version 2.47.3 (20210619.1520)
 -->
<!-- Title: erisAudioEffectGranular Pages: 1 -->
<svg width="379pt" height="254pt"
 viewBox="0.00 0.00 379.00 254.00" xmlns="http://www.w3.org/2000/svg" xmlns:xlink="http://www.w3.org/1999/xlink">
<g id="graph0" class="graph" transform="scale(1 1) rotate(0) translate(4 250)">
<title>erisAudioEffectGranular</title>
<!-- Node1 -->
<g id="node1" class="node">
<title>Node1</title>
<g id="a_node1"><a xlink:title=" ">
<polygon fill="#bfbfbf" stroke="black" points="39,-0.5 39,-104.5 275,-104.5 275,-0.5 39,-0.5"/>
<text text-anchor="middle" x="157" y="-86.1" font-family="Helvetica,sans-Serif" font-size="18.00">erisAudioEffectGranular</text>
<polyline fill="none" stroke="black" points="39,-76.5 275,-76.5 "/>
<text text-anchor="middle" x="157" y="-58.1" font-family="Helvetica,sans-Serif" font-size="18.00"> </text>
<polyline fill="none" stroke="black" points="39,-48.5 275,-48.5 "/>
<text text-anchor="start" x="47" y="-30.1" font-family="Helvetica,sans-Serif" font-size="18.00">+ erisAudioEffectGranular()</text>
<text text-anchor="start" x="47" y="-10.1" font-family="Helvetica,sans-Serif" font-size="18.00">+ void update()</text>
</a>
</g>
</g>
<!-- Node2 -->
<g id="node2" class="node">
<title>Node2</title>
<g id="a_node2"><a xlink:href="../../d3/d7a/class_audio_effect_granular.html" target="_top" xlink:title=" ">
<polygon fill="none" stroke="black" points="0,-161.5 0,-245.5 180,-245.5 180,-161.5 0,-161.5"/>
<text text-anchor="middle" x="90" y="-227.1" font-family="Helvetica,sans-Serif" font-size="18.00">AudioEffectGranular</text>
<polyline fill="none" stroke="black" points="0,-217.5 180,-217.5 "/>
<text text-anchor="middle" x="90" y="-199.1" font-family="Helvetica,sans-Serif" font-size="18.00"> </text>
<polyline fill="none" stroke="black" points="0,-189.5 180,-189.5 "/>
<text text-anchor="middle" x="90" y="-171.1" font-family="Helvetica,sans-Serif" font-size="18.00"> </text>
</a>
</g>
</g>
<!-- Node2&#45;&gt;Node1 -->
<g id="edge1" class="edge">
<title>Node2&#45;&gt;Node1</title>
<path fill="none" stroke="midnightblue" d="M112.67,-152.08C119.56,-136.77 127.13,-119.93 134.03,-104.58"/>
<polygon fill="none" stroke="midnightblue" points="109.39,-150.83 108.49,-161.39 115.78,-153.71 109.39,-150.83"/>
</g>
<!-- Node3 -->
<g id="node3" class="node">
<title>Node3</title>
<g id="a_node3"><a xlink:title=" ">
<polygon fill="none" stroke="#bfbfbf" points="198,-161.5 198,-245.5 250,-245.5 250,-161.5 198,-161.5"/>
<text text-anchor="middle" x="224" y="-227.1" font-family="Helvetica,sans-Serif" font-size="18.00">char</text>
<polyline fill="none" stroke="#bfbfbf" points="198,-217.5 250,-217.5 "/>
<text text-anchor="middle" x="224" y="-199.1" font-family="Helvetica,sans-Serif" font-size="18.00"> </text>
<polyline fill="none" stroke="#bfbfbf" points="198,-189.5 250,-189.5 "/>
<text text-anchor="middle" x="224" y="-171.1" font-family="Helvetica,sans-Serif" font-size="18.00"> </text>
</a>
</g>
</g>
<!-- Node3&#45;&gt;Node1 -->
<g id="edge2" class="edge">
<title>Node3&#45;&gt;Node1</title>
<path fill="none" stroke="#404040" d="M205.51,-161.39C199.16,-147.25 191.89,-131.09 184.95,-115.65"/>
<polygon fill="none" stroke="#404040" points="184.89,-115.52 178.78,-111.69 179.97,-104.58 186.08,-108.41 184.89,-115.52"/>
<text text-anchor="middle" x="283.5" y="-128.6" font-family="Helvetica,sans-Serif" font-size="18.00"> +short_name_lookup</text>
</g>
</g>
</svg>
