<?xml version="1.0" encoding="UTF-8" standalone="no"?>
<!DOCTYPE svg PUBLIC "-//W3C//DTD SVG 1.1//EN"
 "http://www.w3.org/Graphics/SVG/1.1/DTD/svg11.dtd">
<!-- Generated by graphviz version 2.47.3 (20210619.1520)
 -->
<!-- Title: ERISCore/include/AppManager.h Pages: 1 -->
<!--zoomable 287 -->
<svg id="main" version="1.1" xmlns="http://www.w3.org/2000/svg" xmlns:xlink="http://www.w3.org/1999/xlink" xml:space="preserve" onload="init(evt)">
<style type="text/css"><![CDATA[
.edge:hover path { stroke: red; }
.edge:hover polygon { stroke: red; fill: red; }
]]></style>
<script type="text/javascript"><![CDATA[
var edges = document.getElementsByTagName('g');
if (edges && edges.length) {
  for (var i=0;i<edges.length;i++) {
    if (edges[i].id.substr(0,4)=='edge') {
      edges[i].setAttribute('class','edge');
    }
  }
}
]]></script>
        <defs>
                <circle id="rim" cx="0" cy="0" r="7"/>
                <circle id="rim2" cx="0" cy="0" r="3.5"/>
                <g id="zoomPlus">
                        <use xlink:href="#rim" fill="#404040">
                                <set attributeName="fill" to="#808080" begin="zoomplus.mouseover" end="zoomplus.mouseout"/>
                        </use>
                        <path d="M-4,0h8M0,-4v8" fill="none" stroke="white" stroke-width="1.5" pointer-events="none"/>
                </g>
                <g id="zoomMin">
                        <use xlink:href="#rim" fill="#404040">
                                <set attributeName="fill" to="#808080" begin="zoomminus.mouseover" end="zoomminus.mouseout"/>
                        </use>
                        <path d="M-4,0h8" fill="none" stroke="white" stroke-width="1.5" pointer-events="none"/>
                </g>
                <g id="dirArrow">
                        <path fill="none" stroke="white" stroke-width="1.5" d="M0,-3.0v7 M-2.5,-0.5L0,-3.0L2.5,-0.5"/>
                </g>
               <g id="resetDef">
                       <use xlink:href="#rim2" fill="#404040">
                               <set attributeName="fill" to="#808080" begin="reset.mouseover" end="reset.mouseout"/>
                       </use>
               </g>
        </defs>

<script type="text/javascript">
var viewWidth = 2641;
var viewHeight = 287;
var sectionId = 'dynsection-1';
</script>
<script xlink:href="../../svgpan.js"/>
<svg id="graph" class="graph">
<g id="viewport">
<title>ERISCore/include/AppManager.h</title>
<!-- Node1 -->
<g id="node1" class="node">
<title>Node1</title>
<g id="a_node1"><a xlink:title=" ">
<polygon fill="#bfbfbf" stroke="black" points="882.5,-252.5 882.5,-278.5 1128.5,-278.5 1128.5,-252.5 882.5,-252.5"/>
<text text-anchor="middle" x="1005.5" y="-261.7" font-family="Helvetica,sans-Serif" font-size="16.00">ERISCore/include/AppManager.h</text>
</a>
</g>
</g>
<!-- Node2 -->
<g id="node2" class="node">
<title>Node2</title>
<g id="a_node2"><a xlink:href="../../d4/db1/_app_base_class_8cpp.html" target="_top" xlink:title=" ">
<polygon fill="none" stroke="black" points="0,-0.5 0,-26.5 251,-26.5 251,-0.5 0,-0.5"/>
<text text-anchor="middle" x="125.5" y="-9.7" font-family="Helvetica,sans-Serif" font-size="16.00">ERISCore/src/AppBaseClass.cpp</text>
</a>
</g>
</g>
<!-- Node1&#45;&gt;Node2 -->
<g id="edge1" class="edge">
<title>Node1&#45;&gt;Node2</title>
<path fill="none" stroke="midnightblue" d="M872.15,-264.71C674.54,-263.64 314.11,-256.01 191.5,-216 116.21,-191.43 81.94,-167.47 65.5,-90 63.01,-78.26 60.33,-73.83 65.5,-63 73.06,-47.17 88.6,-34.84 101.96,-26.57"/>
<polygon fill="midnightblue" stroke="midnightblue" points="872.29,-268.21 882.31,-264.76 872.32,-261.21 872.29,-268.21"/>
</g>
<!-- Node3 -->
<g id="node3" class="node">
<title>Node3</title>
<g id="a_node3"><a xlink:href="../../d7/d7e/_app_wren_8cpp.html" target="_top" xlink:title=" ">
<polygon fill="none" stroke="black" points="2420.5,-126.5 2420.5,-152.5 2632.5,-152.5 2632.5,-126.5 2420.5,-126.5"/>
<text text-anchor="middle" x="2526.5" y="-135.7" font-family="Helvetica,sans-Serif" font-size="16.00">ERISCore/src/AppWren.cpp</text>
</a>
</g>
</g>
<!-- Node1&#45;&gt;Node3 -->
<g id="edge2" class="edge">
<title>Node1&#45;&gt;Node3</title>
<path fill="none" stroke="midnightblue" d="M1138.89,-264.63C1497.42,-264.38 2458.39,-259.64 2510.5,-216 2528.89,-200.6 2529.38,-169.83 2528.02,-152.7"/>
<polygon fill="midnightblue" stroke="midnightblue" points="1138.72,-261.13 1128.72,-264.63 1138.72,-268.13 1138.72,-261.13"/>
</g>
<!-- Node4 -->
<g id="node4" class="node">
<title>Node4</title>
<g id="a_node4"><a xlink:href="../../dc/d40/_app_manager_8cpp.html" target="_top" xlink:title=" ">
<polygon fill="none" stroke="black" points="384.5,-126.5 384.5,-152.5 620.5,-152.5 620.5,-126.5 384.5,-126.5"/>
<text text-anchor="middle" x="502.5" y="-135.7" font-family="Helvetica,sans-Serif" font-size="16.00">ERISCore/src/AppManager.cpp</text>
</a>
</g>
</g>
<!-- Node1&#45;&gt;Node4 -->
<g id="edge3" class="edge">
<title>Node1&#45;&gt;Node4</title>
<path fill="none" stroke="midnightblue" d="M872.03,-261.83C719.92,-257.38 488.72,-245.75 461.5,-216 443.88,-196.74 469.51,-168.53 487.49,-152.61"/>
<polygon fill="midnightblue" stroke="midnightblue" points="872.29,-265.34 882.38,-262.13 872.49,-258.34 872.29,-265.34"/>
</g>
<!-- Node5 -->
<g id="node5" class="node">
<title>Node5</title>
<g id="a_node5"><a xlink:href="../../dd/dbe/svc_serial_command_interface_8cpp.html" target="_top" xlink:title=" ">
<polygon fill="none" stroke="black" points="715,-126.5 715,-152.5 1060,-152.5 1060,-126.5 715,-126.5"/>
<text text-anchor="middle" x="887.5" y="-135.7" font-family="Helvetica,sans-Serif" font-size="16.00">ERISCore/src/svcSerialCommandInterface.cpp</text>
</a>
</g>
</g>
<!-- Node1&#45;&gt;Node5 -->
<g id="edge4" class="edge">
<title>Node1&#45;&gt;Node5</title>
<path fill="none" stroke="midnightblue" d="M921.86,-248.77C904.83,-241.6 888.95,-231.17 878.5,-216 865.4,-196.97 874.42,-168.68 881.43,-152.68"/>
<polygon fill="midnightblue" stroke="midnightblue" points="920.82,-252.12 931.41,-252.42 923.32,-245.58 920.82,-252.12"/>
</g>
<!-- Node6 -->
<g id="node6" class="node">
<title>Node6</title>
<g id="a_node6"><a xlink:href="../../db/db5/svc_serial_command_interface_8h.html" target="_top" xlink:title=" ">
<polygon fill="none" stroke="black" points="470.5,-189.5 470.5,-215.5 826.5,-215.5 826.5,-189.5 470.5,-189.5"/>
<text text-anchor="middle" x="648.5" y="-198.7" font-family="Helvetica,sans-Serif" font-size="16.00">ERISCore/include/svcSerialCommandInterface.h</text>
</a>
</g>
</g>
<!-- Node1&#45;&gt;Node6 -->
<g id="edge5" class="edge">
<title>Node1&#45;&gt;Node6</title>
<path fill="none" stroke="midnightblue" d="M924.84,-250.72C862.87,-240.13 778.13,-225.65 718.89,-215.53"/>
<polygon fill="midnightblue" stroke="midnightblue" points="924.52,-254.21 934.97,-252.45 925.7,-247.31 924.52,-254.21"/>
</g>
<!-- Node13 -->
<g id="node13" class="node">
<title>Node13</title>
<g id="a_node13"><a xlink:href="../../d4/d50/control_slider_8h.html" target="_top" xlink:title=" ">
<polygon fill="none" stroke="black" points="959,-189.5 959,-215.5 1204,-215.5 1204,-189.5 959,-189.5"/>
<text text-anchor="middle" x="1081.5" y="-198.7" font-family="Helvetica,sans-Serif" font-size="16.00">ERISCore/include/controlSlider.h</text>
</a>
</g>
</g>
<!-- Node1&#45;&gt;Node13 -->
<g id="edge19" class="edge">
<title>Node1&#45;&gt;Node13</title>
<path fill="none" stroke="midnightblue" d="M1028.57,-245.99C1040.89,-236.1 1055.7,-224.21 1066.52,-215.53"/>
<polygon fill="midnightblue" stroke="midnightblue" points="1026.12,-243.46 1020.52,-252.45 1030.5,-248.92 1026.12,-243.46"/>
</g>
<!-- Node14 -->
<g id="node14" class="node">
<title>Node14</title>
<g id="a_node14"><a xlink:href="../../d9/db6/_app_audio_to_polyphonic_8h.html" target="_top" xlink:title="Application Example.">
<polygon fill="none" stroke="black" points="1401.5,-126.5 1401.5,-152.5 1719.5,-152.5 1719.5,-126.5 1401.5,-126.5"/>
<text text-anchor="middle" x="1560.5" y="-135.7" font-family="Helvetica,sans-Serif" font-size="16.00">ERISCore/include/AppAudioToPolyphonic.h</text>
</a>
</g>
</g>
<!-- Node1&#45;&gt;Node14 -->
<g id="edge35" class="edge">
<title>Node1&#45;&gt;Node14</title>
<path fill="none" stroke="midnightblue" d="M977.66,-246.44C956.52,-230.55 933.7,-207.19 950.5,-189 954.33,-184.86 1221.68,-164.86 1401.13,-151.87"/>
<polygon fill="midnightblue" stroke="midnightblue" points="975.73,-249.36 985.9,-252.34 979.81,-243.67 975.73,-249.36"/>
</g>
<!-- Node15 -->
<g id="node15" class="node">
<title>Node15</title>
<g id="a_node15"><a xlink:href="../../d8/d1f/app_scope_8h.html" target="_top" xlink:title=" ">
<polygon fill="none" stroke="black" points="1222,-189.5 1222,-215.5 1451,-215.5 1451,-189.5 1222,-189.5"/>
<text text-anchor="middle" x="1336.5" y="-198.7" font-family="Helvetica,sans-Serif" font-size="16.00">ERISCore/include/appScope.h</text>
</a>
</g>
</g>
<!-- Node1&#45;&gt;Node15 -->
<g id="edge22" class="edge">
<title>Node1&#45;&gt;Node15</title>
<path fill="none" stroke="midnightblue" d="M1081,-250.59C1138.39,-240.01 1216.54,-225.61 1271.24,-215.53"/>
<polygon fill="midnightblue" stroke="midnightblue" points="1080.09,-247.19 1070.89,-252.45 1081.36,-254.08 1080.09,-247.19"/>
</g>
<!-- Node16 -->
<g id="node16" class="node">
<title>Node16</title>
<g id="a_node16"><a xlink:href="../../d3/d0e/app_template_8h.html" target="_top" xlink:title=" ">
<polygon fill="none" stroke="black" points="1973.5,-189.5 1973.5,-215.5 2221.5,-215.5 2221.5,-189.5 1973.5,-189.5"/>
<text text-anchor="middle" x="2097.5" y="-198.7" font-family="Helvetica,sans-Serif" font-size="16.00">ERISCore/include/appTemplate.h</text>
</a>
</g>
</g>
<!-- Node1&#45;&gt;Node16 -->
<g id="edge24" class="edge">
<title>Node1&#45;&gt;Node16</title>
<path fill="none" stroke="midnightblue" d="M1138.67,-259.58C1323.96,-252.33 1670,-237.28 1964.5,-216 1967.39,-215.79 1970.32,-215.57 1973.27,-215.35"/>
<polygon fill="midnightblue" stroke="midnightblue" points="1138.46,-256.09 1128.6,-259.98 1138.73,-263.08 1138.46,-256.09"/>
</g>
<!-- Node17 -->
<g id="node17" class="node">
<title>Node17</title>
<g id="a_node17"><a xlink:href="../../d4/d75/app_c_q_t_8h.html" target="_top" xlink:title=" ">
<polygon fill="none" stroke="black" points="1469.5,-189.5 1469.5,-215.5 1685.5,-215.5 1685.5,-189.5 1469.5,-189.5"/>
<text text-anchor="middle" x="1577.5" y="-198.7" font-family="Helvetica,sans-Serif" font-size="16.00">ERISCore/include/appCQT.h</text>
</a>
</g>
</g>
<!-- Node1&#45;&gt;Node17 -->
<g id="edge26" class="edge">
<title>Node1&#45;&gt;Node17</title>
<path fill="none" stroke="midnightblue" d="M1128.3,-251.42C1219.87,-241.66 1348.01,-228 1460.5,-216 1463.45,-215.69 1466.43,-215.37 1469.45,-215.05"/>
<polygon fill="midnightblue" stroke="midnightblue" points="1127.73,-247.96 1118.16,-252.5 1128.47,-254.92 1127.73,-247.96"/>
</g>
<!-- Node18 -->
<g id="node18" class="node">
<title>Node18</title>
<g id="a_node18"><a xlink:href="../../dc/ddf/control_button_8h.html" target="_top" xlink:title=" ">
<polygon fill="none" stroke="black" points="1704,-189.5 1704,-215.5 1955,-215.5 1955,-189.5 1704,-189.5"/>
<text text-anchor="middle" x="1829.5" y="-198.7" font-family="Helvetica,sans-Serif" font-size="16.00">ERISCore/include/controlButton.h</text>
</a>
</g>
</g>
<!-- Node1&#45;&gt;Node18 -->
<g id="edge28" class="edge">
<title>Node1&#45;&gt;Node18</title>
<path fill="none" stroke="midnightblue" d="M1139.04,-255.98C1277.9,-246.91 1501.53,-231.72 1694.5,-216 1697.55,-215.75 1700.64,-215.5 1703.75,-215.23"/>
<polygon fill="midnightblue" stroke="midnightblue" points="1138.53,-252.5 1128.78,-256.64 1138.99,-259.49 1138.53,-252.5"/>
</g>
<!-- Node19 -->
<g id="node19" class="node">
<title>Node19</title>
<g id="a_node19"><a xlink:href="../../dd/d93/app_reprogram_8h.html" target="_top" xlink:title=" ">
<polygon fill="none" stroke="black" points="2100,-126.5 2100,-152.5 2361,-152.5 2361,-126.5 2100,-126.5"/>
<text text-anchor="middle" x="2230.5" y="-135.7" font-family="Helvetica,sans-Serif" font-size="16.00">ERISCore/include/appReprogram.h</text>
</a>
</g>
</g>
<!-- Node1&#45;&gt;Node19 -->
<g id="edge30" class="edge">
<title>Node1&#45;&gt;Node19</title>
<path fill="none" stroke="midnightblue" d="M1138.98,-264.12C1448.77,-262.58 2193.17,-254.83 2230.5,-216 2246.67,-199.18 2240.35,-169.25 2235,-152.57"/>
<polygon fill="midnightblue" stroke="midnightblue" points="1138.57,-260.62 1128.59,-264.17 1138.61,-267.62 1138.57,-260.62"/>
</g>
<!-- Node20 -->
<g id="node20" class="node">
<title>Node20</title>
<g id="a_node20"><a xlink:href="../../d5/d58/_app_wren_8h.html" target="_top" xlink:title=" ">
<polygon fill="none" stroke="black" points="2278,-189.5 2278,-215.5 2501,-215.5 2501,-189.5 2278,-189.5"/>
<text text-anchor="middle" x="2389.5" y="-198.7" font-family="Helvetica,sans-Serif" font-size="16.00">ERISCore/include/AppWren.h</text>
</a>
</g>
</g>
<!-- Node1&#45;&gt;Node20 -->
<g id="edge32" class="edge">
<title>Node1&#45;&gt;Node20</title>
<path fill="none" stroke="midnightblue" d="M1138.92,-262C1368.78,-257.1 1854.2,-244.17 2263.5,-216 2268.22,-215.68 2273.03,-215.32 2277.89,-214.93"/>
<polygon fill="midnightblue" stroke="midnightblue" points="1138.76,-258.5 1128.84,-262.21 1138.91,-265.5 1138.76,-258.5"/>
</g>
<!-- Node6&#45;&gt;Node4 -->
<g id="edge6" class="edge">
<title>Node6&#45;&gt;Node4</title>
<path fill="none" stroke="midnightblue" d="M610.22,-185.5C585.5,-175.18 553.87,-161.96 531.28,-152.53"/>
<polygon fill="midnightblue" stroke="midnightblue" points="609.08,-188.82 619.66,-189.45 611.78,-182.36 609.08,-188.82"/>
</g>
<!-- Node6&#45;&gt;Node5 -->
<g id="edge8" class="edge">
<title>Node6&#45;&gt;Node5</title>
<path fill="none" stroke="midnightblue" d="M705.61,-186.92C746.78,-176.41 801.7,-162.4 840.38,-152.53"/>
<polygon fill="midnightblue" stroke="midnightblue" points="704.54,-183.58 695.72,-189.45 706.27,-190.37 704.54,-183.58"/>
</g>
<!-- Node7 -->
<g id="node7" class="node">
<title>Node7</title>
<g id="a_node7"><a xlink:href="../../d6/dd8/_eris_core_8cpp.html" target="_top" xlink:title=" ">
<polygon fill="none" stroke="black" points="1966.5,-63.5 1966.5,-89.5 2176.5,-89.5 2176.5,-63.5 1966.5,-63.5"/>
<text text-anchor="middle" x="2071.5" y="-72.7" font-family="Helvetica,sans-Serif" font-size="16.00">ERISCore/src/ErisCore.cpp</text>
</a>
</g>
</g>
<!-- Node6&#45;&gt;Node7 -->
<g id="edge7" class="edge">
<title>Node6&#45;&gt;Node7</title>
<path fill="none" stroke="midnightblue" d="M658.25,-180.19C667.75,-162.2 684.06,-137.56 706.5,-126 734.42,-111.62 1651.12,-87.82 1966.31,-80.04"/>
<polygon fill="midnightblue" stroke="midnightblue" points="654.99,-178.87 653.67,-189.38 661.26,-181.99 654.99,-178.87"/>
</g>
<!-- Node8 -->
<g id="node8" class="node">
<title>Node8</title>
<g id="a_node8"><a xlink:href="../../dd/df4/svc_data_dictionary_8h.html" target="_top" xlink:title="Data Dictionary service provides an interface to a data dictionary service the service shall provide ...">
<polygon fill="none" stroke="black" points="1078.5,-126.5 1078.5,-152.5 1366.5,-152.5 1366.5,-126.5 1078.5,-126.5"/>
<text text-anchor="middle" x="1222.5" y="-135.7" font-family="Helvetica,sans-Serif" font-size="16.00">ERISCore/include/svcDataDictionary.h</text>
</a>
</g>
</g>
<!-- Node6&#45;&gt;Node8 -->
<g id="edge9" class="edge">
<title>Node6&#45;&gt;Node8</title>
<path fill="none" stroke="midnightblue" d="M771.73,-188.4C871.83,-177.77 1011.87,-162.88 1109.2,-152.54"/>
<polygon fill="midnightblue" stroke="midnightblue" points="771.14,-184.95 761.56,-189.48 771.88,-191.91 771.14,-184.95"/>
</g>
<!-- Node10 -->
<g id="node10" class="node">
<title>Node10</title>
<g id="a_node10"><a xlink:href="../../db/dc8/_audio_director_8h.html" target="_top" xlink:title=" ">
<polygon fill="none" stroke="black" points="112.5,-126.5 112.5,-152.5 366.5,-152.5 366.5,-126.5 112.5,-126.5"/>
<text text-anchor="middle" x="239.5" y="-135.7" font-family="Helvetica,sans-Serif" font-size="16.00">ERISCore/include/AudioDirector.h</text>
</a>
</g>
</g>
<!-- Node6&#45;&gt;Node10 -->
<g id="edge12" class="edge">
<title>Node6&#45;&gt;Node10</title>
<path fill="none" stroke="midnightblue" d="M557.4,-187.91C486.29,-177.31 388.43,-162.71 320.14,-152.53"/>
<polygon fill="midnightblue" stroke="midnightblue" points="557.29,-191.43 567.69,-189.45 558.32,-184.51 557.29,-191.43"/>
</g>
<!-- Node8&#45;&gt;Node1 -->
<g id="edge11" class="edge">
<title>Node8&#45;&gt;Node1</title>
<path fill="none" stroke="midnightblue" d="M1088.2,-153.71C1011.47,-162.65 928.2,-175.3 916.5,-189 894.72,-214.5 938.3,-238.58 971.83,-252.43"/>
<polygon fill="midnightblue" stroke="midnightblue" points="1088.95,-157.15 1098.48,-152.53 1088.15,-150.2 1088.95,-157.15"/>
</g>
<!-- Node9 -->
<g id="node9" class="node">
<title>Node9</title>
<g id="a_node9"><a xlink:href="../../d4/d7f/svc_data_dictionary_8cpp.html" target="_top" xlink:title="Data Dictionary service provides an interface to a data dictionary service the service shall provide ...">
<polygon fill="none" stroke="black" points="1083.5,-63.5 1083.5,-89.5 1361.5,-89.5 1361.5,-63.5 1083.5,-63.5"/>
<text text-anchor="middle" x="1222.5" y="-72.7" font-family="Helvetica,sans-Serif" font-size="16.00">ERISCore/src/svcDataDictionary.cpp</text>
</a>
</g>
</g>
<!-- Node8&#45;&gt;Node9 -->
<g id="edge10" class="edge">
<title>Node8&#45;&gt;Node9</title>
<path fill="none" stroke="midnightblue" d="M1222.5,-116.19C1222.5,-107.18 1222.5,-97.12 1222.5,-89.53"/>
<polygon fill="midnightblue" stroke="midnightblue" points="1219,-116.45 1222.5,-126.45 1226,-116.45 1219,-116.45"/>
</g>
<!-- Node10&#45;&gt;Node1 -->
<g id="edge14" class="edge">
<title>Node10&#45;&gt;Node1</title>
<path fill="none" stroke="midnightblue" d="M275.71,-156.6C317.26,-174.32 387.89,-202.13 451.5,-216 597.36,-247.81 769.13,-258.89 882.3,-262.67"/>
<polygon fill="midnightblue" stroke="midnightblue" points="276.86,-153.29 266.29,-152.55 274.09,-159.72 276.86,-153.29"/>
</g>
<!-- Node11 -->
<g id="node11" class="node">
<title>Node11</title>
<g id="a_node11"><a xlink:href="../../d1/d2c/_audio_director_8cpp.html" target="_top" xlink:title=" ">
<polygon fill="none" stroke="black" points="354,-63.5 354,-89.5 597,-89.5 597,-63.5 354,-63.5"/>
<text text-anchor="middle" x="475.5" y="-72.7" font-family="Helvetica,sans-Serif" font-size="16.00">ERISCore/src/AudioDirector.cpp</text>
</a>
</g>
</g>
<!-- Node10&#45;&gt;Node11 -->
<g id="edge13" class="edge">
<title>Node10&#45;&gt;Node11</title>
<path fill="none" stroke="midnightblue" d="M295.89,-123.92C336.55,-113.41 390.78,-99.4 428.97,-89.53"/>
<polygon fill="midnightblue" stroke="midnightblue" points="294.93,-120.56 286.13,-126.45 296.68,-127.33 294.93,-120.56"/>
</g>
<!-- Node12 -->
<g id="node12" class="node">
<title>Node12</title>
<g id="a_node12"><a xlink:href="../../d9/d3e/_app_base_class_8h.html" target="_top" xlink:title=" ">
<polygon fill="none" stroke="black" points="75,-63.5 75,-89.5 336,-89.5 336,-63.5 75,-63.5"/>
<text text-anchor="middle" x="205.5" y="-72.7" font-family="Helvetica,sans-Serif" font-size="16.00">ERISCore/include/AppBaseClass.h</text>
</a>
</g>
</g>
<!-- Node10&#45;&gt;Node12 -->
<g id="edge15" class="edge">
<title>Node10&#45;&gt;Node12</title>
<path fill="none" stroke="midnightblue" d="M227.89,-117.67C222.66,-108.29 216.67,-97.54 212.2,-89.53"/>
<polygon fill="midnightblue" stroke="midnightblue" points="224.86,-119.42 232.78,-126.45 230.97,-116.01 224.86,-119.42"/>
</g>
<!-- Node12&#45;&gt;Node1 -->
<g id="edge18" class="edge">
<title>Node12&#45;&gt;Node1</title>
<path fill="none" stroke="midnightblue" d="M154.7,-93.12C119.98,-106.48 83.57,-127.55 103.5,-153 150.77,-213.37 646.26,-246.35 882.08,-258.72"/>
<polygon fill="midnightblue" stroke="midnightblue" points="156.22,-96.29 164.41,-89.56 153.81,-89.72 156.22,-96.29"/>
</g>
<!-- Node12&#45;&gt;Node2 -->
<g id="edge16" class="edge">
<title>Node12&#45;&gt;Node2</title>
<path fill="none" stroke="midnightblue" d="M181.59,-57.27C168.55,-47.33 152.77,-35.29 141.27,-26.53"/>
<polygon fill="midnightblue" stroke="midnightblue" points="179.62,-60.17 189.69,-63.45 183.86,-54.6 179.62,-60.17"/>
</g>
<!-- Node12&#45;&gt;Node6 -->
<g id="edge17" class="edge">
<title>Node12&#45;&gt;Node6</title>
<path fill="none" stroke="midnightblue" d="M335.07,-90.56C457.69,-103.18 623.89,-121.09 629.5,-126 647.7,-141.94 649.74,-172.5 649.32,-189.44"/>
<polygon fill="midnightblue" stroke="midnightblue" points="335.14,-87.05 324.84,-89.51 334.43,-94.01 335.14,-87.05"/>
</g>
<!-- Node13&#45;&gt;Node14 -->
<g id="edge20" class="edge">
<title>Node13&#45;&gt;Node14</title>
<path fill="none" stroke="midnightblue" d="M1185.86,-188.21C1269.28,-177.59 1385.22,-162.82 1465.95,-152.54"/>
<polygon fill="midnightblue" stroke="midnightblue" points="1185.33,-184.75 1175.85,-189.48 1186.21,-191.69 1185.33,-184.75"/>
</g>
<!-- Node14&#45;&gt;Node7 -->
<g id="edge21" class="edge">
<title>Node14&#45;&gt;Node7</title>
<path fill="none" stroke="midnightblue" d="M1671.29,-125.28C1760.32,-114.65 1884.34,-99.84 1970.63,-89.54"/>
<polygon fill="midnightblue" stroke="midnightblue" points="1670.67,-121.82 1661.15,-126.48 1671.5,-128.77 1670.67,-121.82"/>
</g>
<!-- Node15&#45;&gt;Node14 -->
<g id="edge23" class="edge">
<title>Node15&#45;&gt;Node14</title>
<path fill="none" stroke="midnightblue" d="M1390.76,-186.72C1429.27,-176.24 1480.31,-162.34 1516.34,-152.53"/>
<polygon fill="midnightblue" stroke="midnightblue" points="1389.48,-183.44 1380.76,-189.45 1391.32,-190.2 1389.48,-183.44"/>
</g>
<!-- Node16&#45;&gt;Node7 -->
<g id="edge25" class="edge">
<title>Node16&#45;&gt;Node7</title>
<path fill="none" stroke="midnightblue" d="M2092.79,-179.04C2087.3,-152.86 2078.43,-110.56 2074.08,-89.79"/>
<polygon fill="midnightblue" stroke="midnightblue" points="2089.43,-180.09 2094.91,-189.16 2096.29,-178.65 2089.43,-180.09"/>
</g>
<!-- Node17&#45;&gt;Node14 -->
<g id="edge27" class="edge">
<title>Node17&#45;&gt;Node14</title>
<path fill="none" stroke="midnightblue" d="M1571.45,-179.79C1568.89,-170.62 1566.02,-160.29 1563.85,-152.53"/>
<polygon fill="midnightblue" stroke="midnightblue" points="1568.09,-180.76 1574.14,-189.45 1574.83,-178.88 1568.09,-180.76"/>
</g>
<!-- Node18&#45;&gt;Node14 -->
<g id="edge29" class="edge">
<title>Node18&#45;&gt;Node14</title>
<path fill="none" stroke="midnightblue" d="M1766.4,-187.19C1719.93,-176.65 1657.44,-162.48 1613.54,-152.53"/>
<polygon fill="midnightblue" stroke="midnightblue" points="1765.83,-190.65 1776.35,-189.45 1767.38,-183.82 1765.83,-190.65"/>
</g>
<!-- Node19&#45;&gt;Node7 -->
<g id="edge31" class="edge">
<title>Node19&#45;&gt;Node7</title>
<path fill="none" stroke="midnightblue" d="M2189.52,-122.78C2162.5,-112.41 2127.66,-99.04 2102.85,-89.53"/>
<polygon fill="midnightblue" stroke="midnightblue" points="2188.5,-126.13 2199.09,-126.45 2191,-119.6 2188.5,-126.13"/>
</g>
<!-- Node20&#45;&gt;Node3 -->
<g id="edge33" class="edge">
<title>Node20&#45;&gt;Node3</title>
<path fill="none" stroke="midnightblue" d="M2425.73,-185.37C2448.88,-175.06 2478.39,-161.92 2499.49,-152.53"/>
<polygon fill="midnightblue" stroke="midnightblue" points="2424.28,-182.18 2416.57,-189.45 2427.13,-188.58 2424.28,-182.18"/>
</g>
<!-- Node20&#45;&gt;Node7 -->
<g id="edge34" class="edge">
<title>Node20&#45;&gt;Node7</title>
<path fill="none" stroke="midnightblue" d="M2390.04,-179.06C2389.18,-162.03 2385.04,-139.34 2370.5,-126 2342.56,-100.35 2251.17,-88.21 2176.71,-82.5"/>
<polygon fill="midnightblue" stroke="midnightblue" points="2386.55,-179.34 2390.22,-189.27 2393.55,-179.22 2386.55,-179.34"/>
</g>
</g>
</svg>
        <g id="navigator" transform="translate(0 0)" fill="#404254">
                <rect fill="#f2f5e9" fill-opacity="0.5" stroke="#606060" stroke-width=".5" x="0" y="0" width="60" height="60"/>
                <use id="zoomplus" xlink:href="#zoomPlus" x="17" y="9" onmousedown="handleZoom(evt,'in')"/>
                <use id="zoomminus" xlink:href="#zoomMin" x="42" y="9" onmousedown="handleZoom(evt,'out')"/>
                <use id="reset" xlink:href="#resetDef" x="30" y="36" onmousedown="handleReset()"/>
                <g id="arrowUp" xlink:href="#dirArrow" transform="translate(30 24)" onmousedown="handlePan(0,-1)">
                  <use xlink:href="#rim" fill="#404040">
                        <set attributeName="fill" to="#808080" begin="arrowUp.mouseover" end="arrowUp.mouseout"/>
                  </use>
                  <path fill="none" stroke="white" stroke-width="1.5" d="M0,-3.0v7 M-2.5,-0.5L0,-3.0L2.5,-0.5"/>
                </g>
                <g id="arrowRight" xlink:href="#dirArrow" transform="rotate(90) translate(36 -43)" onmousedown="handlePan(1,0)">
                  <use xlink:href="#rim" fill="#404040">
                        <set attributeName="fill" to="#808080" begin="arrowRight.mouseover" end="arrowRight.mouseout"/>
                  </use>
                  <path fill="none" stroke="white" stroke-width="1.5" d="M0,-3.0v7 M-2.5,-0.5L0,-3.0L2.5,-0.5"/>
                </g>
                <g id="arrowDown" xlink:href="#dirArrow" transform="rotate(180) translate(-30 -48)" onmousedown="handlePan(0,1)">
                  <use xlink:href="#rim" fill="#404040">
                        <set attributeName="fill" to="#808080" begin="arrowDown.mouseover" end="arrowDown.mouseout"/>
                  </use>
                  <path fill="none" stroke="white" stroke-width="1.5" d="M0,-3.0v7 M-2.5,-0.5L0,-3.0L2.5,-0.5"/>
                </g>
                <g id="arrowLeft" xlink:href="#dirArrow" transform="rotate(270) translate(-36 17)" onmousedown="handlePan(-1,0)">
                  <use xlink:href="#rim" fill="#404040">
                        <set attributeName="fill" to="#808080" begin="arrowLeft.mouseover" end="arrowLeft.mouseout"/>
                  </use>
                  <path fill="none" stroke="white" stroke-width="1.5" d="M0,-3.0v7 M-2.5,-0.5L0,-3.0L2.5,-0.5"/>
                </g>
        </g>
        <svg viewBox="0 0 15 15" width="100%" height="30px" preserveAspectRatio="xMaxYMin meet">
         <g id="arrow_out" transform="scale(0.3 0.3)">
          <a xlink:href="_app_manager_8h__dep__incl_org.svg" target="_base">
           <rect id="button" ry="5" rx="5" y="6" x="6" height="38" width="38"
                fill="#f2f5e9" fill-opacity="0.5" stroke="#606060" stroke-width="1.0"/>
           <path id="arrow"
             d="M 11.500037,31.436501 C 11.940474,20.09759 22.043105,11.32322 32.158766,21.979434 L 37.068811,17.246167 C 37.068811,17.246167 37.088388,32 37.088388,32 L 22.160133,31.978069 C 22.160133,31.978069 26.997745,27.140456 26.997745,27.140456 C 18.528582,18.264221 13.291696,25.230495 11.500037,31.436501 z"
             style="fill:#404040;"/>
          </a>
         </g>
        </svg>
</svg>
