<?xml version="1.0" encoding="UTF-8" standalone="no"?>
<!DOCTYPE svg PUBLIC "-//W3C//DTD SVG 1.1//EN"
 "http://www.w3.org/Graphics/SVG/1.1/DTD/svg11.dtd">
<!-- Generated by graphviz version 2.47.3 (20210619.1520)
 -->
<!-- Title: globaldefs.h Pages: 1 -->
<svg width="1536pt" height="320pt"
 viewBox="0.00 0.00 1535.87 320.00" xmlns="http://www.w3.org/2000/svg" xmlns:xlink="http://www.w3.org/1999/xlink">
<g id="graph0" class="graph" transform="scale(1 1) rotate(0) translate(4 316)">
<title>globaldefs.h</title>
<!-- Node1 -->
<g id="node1" class="node">
<title>Node1</title>
<g id="a_node1"><a xlink:title=" ">
<polygon fill="#bfbfbf" stroke="black" points="980.87,-290.5 980.87,-311.5 1060.87,-311.5 1060.87,-290.5 980.87,-290.5"/>
<text text-anchor="middle" x="1020.87" y="-297.9" font-family="Helvetica,sans-Serif" font-size="12.00">globaldefs.h</text>
</a>
</g>
</g>
<!-- Node2 -->
<g id="node2" class="node">
<title>Node2</title>
<g id="a_node2"><a xlink:href="../../d7/d7e/_app_wren_8cpp.html" target="_top" xlink:title=" ">
<polygon fill="none" stroke="black" points="7.37,-116.5 7.37,-137.5 96.37,-137.5 96.37,-116.5 7.37,-116.5"/>
<text text-anchor="middle" x="51.87" y="-123.9" font-family="Helvetica,sans-Serif" font-size="12.00">AppWren.cpp</text>
</a>
</g>
</g>
<!-- Node1&#45;&gt;Node2 -->
<g id="edge1" class="edge">
<title>Node1&#45;&gt;Node2</title>
<path fill="none" stroke="midnightblue" d="M970.72,-298.91C774.51,-294.13 66.55,-271.71 4.87,-196 -11.27,-176.2 17.76,-151.06 36.94,-137.58"/>
<polygon fill="midnightblue" stroke="midnightblue" points="970.68,-302.41 980.76,-299.15 970.85,-295.42 970.68,-302.41"/>
</g>
<!-- Node3 -->
<g id="node3" class="node">
<title>Node3</title>
<g id="a_node3"><a xlink:href="../../d4/df8/_i_l_i9341__t3___e_r_i_s_8cpp.html" target="_top" xlink:title=" ">
<polygon fill="none" stroke="black" points="1399.87,-232.5 1399.87,-253.5 1527.87,-253.5 1527.87,-232.5 1399.87,-232.5"/>
<text text-anchor="middle" x="1463.87" y="-239.9" font-family="Helvetica,sans-Serif" font-size="12.00">ILI9341_t3_ERIS.cpp</text>
</a>
</g>
</g>
<!-- Node1&#45;&gt;Node3 -->
<g id="edge2" class="edge">
<title>Node1&#45;&gt;Node3</title>
<path fill="none" stroke="midnightblue" d="M1071.03,-293.71C1141.4,-284.89 1273.39,-268.3 1385.87,-254 1390.34,-253.43 1394.95,-252.84 1399.6,-252.25"/>
<polygon fill="midnightblue" stroke="midnightblue" points="1070.6,-290.24 1061.11,-294.96 1071.47,-297.19 1070.6,-290.24"/>
</g>
<!-- Node4 -->
<g id="node4" class="node">
<title>Node4</title>
<g id="a_node4"><a xlink:href="../../dc/d40/_app_manager_8cpp.html" target="_top" xlink:title=" ">
<polygon fill="none" stroke="black" points="1120.37,-116.5 1120.37,-137.5 1227.37,-137.5 1227.37,-116.5 1120.37,-116.5"/>
<text text-anchor="middle" x="1173.87" y="-123.9" font-family="Helvetica,sans-Serif" font-size="12.00">AppManager.cpp</text>
</a>
</g>
</g>
<!-- Node1&#45;&gt;Node4 -->
<g id="edge3" class="edge">
<title>Node1&#45;&gt;Node4</title>
<path fill="none" stroke="midnightblue" d="M1044.94,-284.63C1072.02,-266.3 1115.88,-233.42 1143.87,-196 1157.78,-177.4 1166.96,-151.34 1171.18,-137.5"/>
<polygon fill="midnightblue" stroke="midnightblue" points="1042.83,-281.82 1036.44,-290.27 1046.71,-287.65 1042.83,-281.82"/>
</g>
<!-- Node5 -->
<g id="node5" class="node">
<title>Node5</title>
<g id="a_node5"><a xlink:href="../../df/d72/_app_manager_8h.html" target="_top" xlink:title=" ">
<polygon fill="none" stroke="black" points="592.87,-232.5 592.87,-253.5 686.87,-253.5 686.87,-232.5 592.87,-232.5"/>
<text text-anchor="middle" x="639.87" y="-239.9" font-family="Helvetica,sans-Serif" font-size="12.00">AppManager.h</text>
</a>
</g>
</g>
<!-- Node1&#45;&gt;Node5 -->
<g id="edge4" class="edge">
<title>Node1&#45;&gt;Node5</title>
<path fill="none" stroke="midnightblue" d="M970.81,-292.64C896.86,-281.77 759.36,-261.56 687.07,-250.94"/>
<polygon fill="midnightblue" stroke="midnightblue" points="970.41,-296.12 980.82,-294.11 971.43,-289.2 970.41,-296.12"/>
</g>
<!-- Node12 -->
<g id="node12" class="node">
<title>Node12</title>
<g id="a_node12"><a xlink:href="../../db/db5/svc_serial_command_interface_8h.html" target="_top" xlink:title=" ">
<polygon fill="none" stroke="black" points="934.37,-174.5 934.37,-195.5 1107.37,-195.5 1107.37,-174.5 934.37,-174.5"/>
<text text-anchor="middle" x="1020.87" y="-181.9" font-family="Helvetica,sans-Serif" font-size="12.00">svcSerialCommandInterface.h</text>
</a>
</g>
</g>
<!-- Node1&#45;&gt;Node12 -->
<g id="edge39" class="edge">
<title>Node1&#45;&gt;Node12</title>
<path fill="none" stroke="midnightblue" d="M1020.87,-280.25C1020.87,-255.58 1020.87,-214.35 1020.87,-195.69"/>
<polygon fill="midnightblue" stroke="midnightblue" points="1017.37,-280.28 1020.87,-290.28 1024.37,-280.28 1017.37,-280.28"/>
</g>
<!-- Node15 -->
<g id="node14" class="node">
<title>Node15</title>
<g id="a_node14"><a xlink:href="../../db/dc8/_audio_director_8h.html" target="_top" xlink:title=" ">
<polygon fill="none" stroke="red" points="1245.87,-116.5 1245.87,-137.5 1343.87,-137.5 1343.87,-116.5 1245.87,-116.5"/>
<text text-anchor="middle" x="1294.87" y="-123.9" font-family="Helvetica,sans-Serif" font-size="12.00">AudioDirector.h</text>
</a>
</g>
</g>
<!-- Node1&#45;&gt;Node15 -->
<g id="edge40" class="edge">
<title>Node1&#45;&gt;Node15</title>
<path fill="none" stroke="midnightblue" d="M1051.4,-286.07C1069.59,-277.45 1092.94,-265.8 1112.87,-254 1179.01,-214.84 1252.89,-159.96 1282.05,-137.83"/>
<polygon fill="midnightblue" stroke="midnightblue" points="1049.71,-283 1042.15,-290.41 1052.69,-289.34 1049.71,-283"/>
</g>
<!-- Node17 -->
<g id="node15" class="node">
<title>Node17</title>
<g id="a_node15"><a xlink:href="../../d9/d3e/_app_base_class_8h.html" target="_top" xlink:title=" ">
<polygon fill="none" stroke="black" points="1039.37,-58.5 1039.37,-79.5 1144.37,-79.5 1144.37,-58.5 1039.37,-58.5"/>
<text text-anchor="middle" x="1091.87" y="-65.9" font-family="Helvetica,sans-Serif" font-size="12.00">AppBaseClass.h</text>
</a>
</g>
</g>
<!-- Node1&#45;&gt;Node17 -->
<g id="edge38" class="edge">
<title>Node1&#45;&gt;Node17</title>
<path fill="none" stroke="midnightblue" d="M1070.99,-292.84C1148.08,-278.79 1293.08,-239.56 1352.87,-138 1357.83,-129.57 1359.15,-123.49 1352.87,-116 1326.8,-84.94 1212.92,-74.84 1144.49,-71.57"/>
<polygon fill="midnightblue" stroke="midnightblue" points="1070.28,-289.41 1061.03,-294.58 1071.48,-296.31 1070.28,-289.41"/>
</g>
<!-- Node20 -->
<g id="node18" class="node">
<title>Node20</title>
<g id="a_node18"><a xlink:href="../../dc/ddf/control_button_8h.html" target="_top" xlink:title=" ">
<polygon fill="none" stroke="black" points="107.37,-174.5 107.37,-195.5 200.37,-195.5 200.37,-174.5 107.37,-174.5"/>
<text text-anchor="middle" x="153.87" y="-181.9" font-family="Helvetica,sans-Serif" font-size="12.00">controlButton.h</text>
</a>
</g>
</g>
<!-- Node1&#45;&gt;Node20 -->
<g id="edge41" class="edge">
<title>Node1&#45;&gt;Node20</title>
<path fill="none" stroke="midnightblue" d="M970.77,-295.5C889.44,-288.02 723.72,-272.05 583.87,-254 414.87,-232.19 372.74,-225.29 204.87,-196 203.45,-195.75 202,-195.5 200.55,-195.23"/>
<polygon fill="midnightblue" stroke="midnightblue" points="970.45,-298.98 980.73,-296.41 971.09,-292.01 970.45,-298.98"/>
</g>
<!-- Node22 -->
<g id="node20" class="node">
<title>Node22</title>
<g id="a_node20"><a xlink:href="../../d5/d58/_app_wren_8h.html" target="_top" xlink:title=" ">
<polygon fill="none" stroke="black" points="14.37,-174.5 14.37,-195.5 89.37,-195.5 89.37,-174.5 14.37,-174.5"/>
<text text-anchor="middle" x="51.87" y="-181.9" font-family="Helvetica,sans-Serif" font-size="12.00">AppWren.h</text>
</a>
</g>
</g>
<!-- Node1&#45;&gt;Node22 -->
<g id="edge42" class="edge">
<title>Node1&#45;&gt;Node22</title>
<path fill="none" stroke="midnightblue" d="M970.64,-297.85C867.49,-293.06 624.42,-279.84 421.87,-254 299.42,-238.38 156.1,-208.76 89.47,-194.33"/>
<polygon fill="midnightblue" stroke="midnightblue" points="970.62,-301.35 980.77,-298.31 970.94,-294.36 970.62,-301.35"/>
</g>
<!-- Node5&#45;&gt;Node2 -->
<g id="edge6" class="edge">
<title>Node5&#45;&gt;Node2</title>
<path fill="none" stroke="midnightblue" d="M582.25,-241.3C505.52,-238.99 366.31,-229.97 252.87,-196 231.92,-189.73 229.22,-181.99 208.87,-174 169.88,-158.68 123.7,-145.74 91.56,-137.53"/>
<polygon fill="midnightblue" stroke="midnightblue" points="582.56,-244.81 592.65,-241.58 582.75,-237.81 582.56,-244.81"/>
</g>
<!-- Node5&#45;&gt;Node4 -->
<g id="edge7" class="edge">
<title>Node5&#45;&gt;Node4</title>
<path fill="none" stroke="midnightblue" d="M697.14,-241.77C807.35,-240.46 1044.37,-233.27 1115.87,-196 1141.19,-182.8 1160.07,-153.45 1168.69,-137.98"/>
<polygon fill="midnightblue" stroke="midnightblue" points="696.84,-238.27 686.88,-241.88 696.91,-245.27 696.84,-238.27"/>
</g>
<!-- Node6 -->
<g id="node6" class="node">
<title>Node6</title>
<g id="a_node6"><a xlink:href="../../d4/db1/_app_base_class_8cpp.html" target="_top" xlink:title=" ">
<polygon fill="none" stroke="black" points="619.37,-0.5 619.37,-21.5 738.37,-21.5 738.37,-0.5 619.37,-0.5"/>
<text text-anchor="middle" x="678.87" y="-7.9" font-family="Helvetica,sans-Serif" font-size="12.00">AppBaseClass.cpp</text>
</a>
</g>
</g>
<!-- Node5&#45;&gt;Node6 -->
<g id="edge5" class="edge">
<title>Node5&#45;&gt;Node6</title>
<path fill="none" stroke="midnightblue" d="M582.64,-236.54C484.96,-226.94 295.56,-207.03 285.87,-196 279.42,-188.65 283.07,-183.37 285.87,-174 325.6,-40.88 519.41,-15.94 619.21,-12.06"/>
<polygon fill="midnightblue" stroke="midnightblue" points="582.36,-240.03 592.66,-237.52 583.05,-233.06 582.36,-240.03"/>
</g>
<!-- Node7 -->
<g id="node7" class="node">
<title>Node7</title>
<g id="a_node7"><a xlink:href="../../dd/dbe/svc_serial_command_interface_8cpp.html" target="_top" xlink:title=" ">
<polygon fill="none" stroke="black" points="839.87,-116.5 839.87,-137.5 1025.87,-137.5 1025.87,-116.5 839.87,-116.5"/>
<text text-anchor="middle" x="932.87" y="-123.9" font-family="Helvetica,sans-Serif" font-size="12.00">svcSerialCommandInterface.cpp</text>
</a>
</g>
</g>
<!-- Node5&#45;&gt;Node7 -->
<g id="edge8" class="edge">
<title>Node5&#45;&gt;Node7</title>
<path fill="none" stroke="midnightblue" d="M697.09,-232.32C733.93,-224.96 782.33,-213.14 822.87,-196 860.71,-180 900.66,-152.13 920.37,-137.53"/>
<polygon fill="midnightblue" stroke="midnightblue" points="696.17,-228.94 687.02,-234.28 697.51,-235.81 696.17,-228.94"/>
</g>
<!-- Node8 -->
<g id="node8" class="node">
<title>Node8</title>
<g id="a_node8"><a xlink:href="../../d3/d0e/app_template_8h.html" target="_top" xlink:title=" ">
<polygon fill="none" stroke="black" points="668.37,-174.5 668.37,-195.5 763.37,-195.5 763.37,-174.5 668.37,-174.5"/>
<text text-anchor="middle" x="715.87" y="-181.9" font-family="Helvetica,sans-Serif" font-size="12.00">appTemplate.h</text>
</a>
</g>
</g>
<!-- Node5&#45;&gt;Node8 -->
<g id="edge9" class="edge">
<title>Node5&#45;&gt;Node8</title>
<path fill="none" stroke="midnightblue" d="M661.3,-226.21C674.65,-216.37 691.39,-204.04 702.78,-195.64"/>
<polygon fill="midnightblue" stroke="midnightblue" points="659.08,-223.5 653.11,-232.25 663.23,-229.13 659.08,-223.5"/>
</g>
<!-- Node10 -->
<g id="node10" class="node">
<title>Node10</title>
<g id="a_node10"><a xlink:href="../../d8/d1f/app_scope_8h.html" target="_top" xlink:title=" ">
<polygon fill="none" stroke="black" points="294.87,-174.5 294.87,-195.5 374.87,-195.5 374.87,-174.5 294.87,-174.5"/>
<text text-anchor="middle" x="334.87" y="-181.9" font-family="Helvetica,sans-Serif" font-size="12.00">appScope.h</text>
</a>
</g>
</g>
<!-- Node5&#45;&gt;Node10 -->
<g id="edge11" class="edge">
<title>Node5&#45;&gt;Node10</title>
<path fill="none" stroke="midnightblue" d="M582.61,-232.11C530.68,-223.04 452.05,-209.08 383.87,-196 380.97,-195.44 377.98,-194.86 374.96,-194.26"/>
<polygon fill="midnightblue" stroke="midnightblue" points="582.17,-235.58 592.62,-233.85 583.37,-228.69 582.17,-235.58"/>
</g>
<!-- Node11 -->
<g id="node11" class="node">
<title>Node11</title>
<g id="a_node11"><a xlink:href="../../d9/db6/_app_audio_to_polyphonic_8h.html" target="_top" xlink:title="Application Example.">
<polygon fill="none" stroke="black" points="333.37,-116.5 333.37,-137.5 482.37,-137.5 482.37,-116.5 333.37,-116.5"/>
<text text-anchor="middle" x="407.87" y="-123.9" font-family="Helvetica,sans-Serif" font-size="12.00">AppAudioToPolyphonic.h</text>
</a>
</g>
</g>
<!-- Node5&#45;&gt;Node11 -->
<g id="edge37" class="edge">
<title>Node5&#45;&gt;Node11</title>
<path fill="none" stroke="midnightblue" d="M628.89,-223.78C618.62,-208.28 601.88,-186.59 581.87,-174 552.11,-155.28 514.91,-144.13 482.55,-137.51"/>
<polygon fill="midnightblue" stroke="midnightblue" points="626.11,-225.93 634.42,-232.5 632.02,-222.18 626.11,-225.93"/>
</g>
<!-- Node5&#45;&gt;Node12 -->
<g id="edge14" class="edge">
<title>Node5&#45;&gt;Node12</title>
<path fill="none" stroke="midnightblue" d="M697.28,-233.56C766.76,-223.35 883.42,-206.2 956.06,-195.53"/>
<polygon fill="midnightblue" stroke="midnightblue" points="696.35,-230.16 686.97,-235.08 697.37,-237.09 696.35,-230.16"/>
</g>
<!-- Node18 -->
<g id="node16" class="node">
<title>Node18</title>
<g id="a_node16"><a xlink:href="../../dd/d93/app_reprogram_8h.html" target="_top" xlink:title=" ">
<polygon fill="none" stroke="black" points="500.37,-116.5 500.37,-137.5 605.37,-137.5 605.37,-116.5 500.37,-116.5"/>
<text text-anchor="middle" x="552.87" y="-123.9" font-family="Helvetica,sans-Serif" font-size="12.00">appReprogram.h</text>
</a>
</g>
</g>
<!-- Node5&#45;&gt;Node18 -->
<g id="edge26" class="edge">
<title>Node5&#45;&gt;Node18</title>
<path fill="none" stroke="midnightblue" d="M636.25,-222.48C632.83,-208.02 626.59,-188.41 615.87,-174 604.15,-158.25 585.49,-145.58 571.52,-137.56"/>
<polygon fill="midnightblue" stroke="midnightblue" points="632.84,-223.3 638.34,-232.36 639.69,-221.85 632.84,-223.3"/>
</g>
<!-- Node19 -->
<g id="node17" class="node">
<title>Node19</title>
<g id="a_node17"><a xlink:href="../../d4/d50/control_slider_8h.html" target="_top" xlink:title=" ">
<polygon fill="none" stroke="black" points="393.37,-174.5 393.37,-195.5 484.37,-195.5 484.37,-174.5 393.37,-174.5"/>
<text text-anchor="middle" x="438.87" y="-181.9" font-family="Helvetica,sans-Serif" font-size="12.00">controlSlider.h</text>
</a>
</g>
</g>
<!-- Node5&#45;&gt;Node19 -->
<g id="edge28" class="edge">
<title>Node5&#45;&gt;Node19</title>
<path fill="none" stroke="midnightblue" d="M595.32,-229.59C558.39,-219.3 506.67,-204.89 472.97,-195.5"/>
<polygon fill="midnightblue" stroke="midnightblue" points="594.74,-233.06 605.32,-232.37 596.62,-226.32 594.74,-233.06"/>
</g>
<!-- Node5&#45;&gt;Node20 -->
<g id="edge30" class="edge">
<title>Node5&#45;&gt;Node20</title>
<path fill="none" stroke="midnightblue" d="M582.51,-236.8C500.75,-229.15 346.04,-213.84 214.87,-196 210.19,-195.36 205.32,-194.65 200.46,-193.91"/>
<polygon fill="midnightblue" stroke="midnightblue" points="582.32,-240.29 592.6,-237.73 582.97,-233.32 582.32,-240.29"/>
</g>
<!-- Node21 -->
<g id="node19" class="node">
<title>Node21</title>
<g id="a_node19"><a xlink:href="../../d4/d75/app_c_q_t_8h.html" target="_top" xlink:title=" ">
<polygon fill="none" stroke="black" points="502.37,-174.5 502.37,-195.5 573.37,-195.5 573.37,-174.5 502.37,-174.5"/>
<text text-anchor="middle" x="537.87" y="-181.9" font-family="Helvetica,sans-Serif" font-size="12.00">appCQT.h</text>
</a>
</g>
</g>
<!-- Node5&#45;&gt;Node21 -->
<g id="edge32" class="edge">
<title>Node5&#45;&gt;Node21</title>
<path fill="none" stroke="midnightblue" d="M613.13,-227.32C594.92,-217.32 571.31,-204.36 555.43,-195.64"/>
<polygon fill="midnightblue" stroke="midnightblue" points="611.65,-230.5 622.1,-232.25 615.02,-224.36 611.65,-230.5"/>
</g>
<!-- Node5&#45;&gt;Node22 -->
<g id="edge34" class="edge">
<title>Node5&#45;&gt;Node22</title>
<path fill="none" stroke="midnightblue" d="M582.77,-239.59C483.65,-234.86 273.52,-222.43 97.87,-196 95.12,-195.59 92.29,-195.11 89.45,-194.58"/>
<polygon fill="midnightblue" stroke="midnightblue" points="582.72,-243.09 592.87,-240.06 583.04,-236.1 582.72,-243.09"/>
</g>
<!-- Node9 -->
<g id="node9" class="node">
<title>Node9</title>
<g id="a_node9"><a xlink:href="../../d6/dd8/_eris_core_8cpp.html" target="_top" xlink:title=" ">
<polygon fill="none" stroke="black" points="509.87,-58.5 509.87,-79.5 595.87,-79.5 595.87,-58.5 509.87,-58.5"/>
<text text-anchor="middle" x="552.87" y="-65.9" font-family="Helvetica,sans-Serif" font-size="12.00">ErisCore.cpp</text>
</a>
</g>
</g>
<!-- Node8&#45;&gt;Node9 -->
<g id="edge10" class="edge">
<title>Node8&#45;&gt;Node9</title>
<path fill="none" stroke="midnightblue" d="M693.89,-168.63C659.8,-144.79 595.15,-99.57 566.79,-79.74"/>
<polygon fill="midnightblue" stroke="midnightblue" points="692.05,-171.61 702.25,-174.48 696.06,-165.88 692.05,-171.61"/>
</g>
<!-- Node10&#45;&gt;Node11 -->
<g id="edge12" class="edge">
<title>Node10&#45;&gt;Node11</title>
<path fill="none" stroke="midnightblue" d="M355.82,-167.93C368.58,-158.14 384.46,-145.96 395.3,-137.64"/>
<polygon fill="midnightblue" stroke="midnightblue" points="353.39,-165.38 347.58,-174.25 357.65,-170.94 353.39,-165.38"/>
</g>
<!-- Node11&#45;&gt;Node9 -->
<g id="edge13" class="edge">
<title>Node11&#45;&gt;Node9</title>
<path fill="none" stroke="midnightblue" d="M442.43,-112.65C468.87,-102.44 504.69,-88.61 528.27,-79.5"/>
<polygon fill="midnightblue" stroke="midnightblue" points="440.86,-109.51 432.8,-116.37 443.38,-116.04 440.86,-109.51"/>
</g>
<!-- Node12&#45;&gt;Node4 -->
<g id="edge15" class="edge">
<title>Node12&#45;&gt;Node4</title>
<path fill="none" stroke="midnightblue" d="M1056.6,-170.92C1084.57,-160.69 1122.81,-146.69 1147.91,-137.5"/>
<polygon fill="midnightblue" stroke="midnightblue" points="1055.36,-167.65 1047.17,-174.37 1057.76,-174.22 1055.36,-167.65"/>
</g>
<!-- Node12&#45;&gt;Node7 -->
<g id="edge17" class="edge">
<title>Node12&#45;&gt;Node7</title>
<path fill="none" stroke="midnightblue" d="M996.93,-168.77C981.34,-158.85 961.47,-146.2 948.02,-137.64"/>
<polygon fill="midnightblue" stroke="midnightblue" points="995.22,-171.83 1005.54,-174.25 998.98,-165.92 995.22,-171.83"/>
</g>
<!-- Node12&#45;&gt;Node9 -->
<g id="edge16" class="edge">
<title>Node12&#45;&gt;Node9</title>
<path fill="none" stroke="midnightblue" d="M1032.45,-165.35C1040.2,-150.23 1046.97,-129.32 1034.87,-116 1005.64,-83.85 709.24,-73.63 596.28,-70.88"/>
<polygon fill="midnightblue" stroke="midnightblue" points="1029.26,-163.88 1027.4,-174.31 1035.36,-167.31 1029.26,-163.88"/>
</g>
<!-- Node13 -->
<g id="node13" class="node">
<title>Node13</title>
<g id="a_node13"><a xlink:href="../../dd/df4/svc_data_dictionary_8h.html" target="_top" xlink:title="Data Dictionary service provides an interface to a data dictionary service the service shall provide ...">
<polygon fill="none" stroke="red" points="700.37,-116.5 700.37,-137.5 821.37,-137.5 821.37,-116.5 700.37,-116.5"/>
<text text-anchor="middle" x="760.87" y="-123.9" font-family="Helvetica,sans-Serif" font-size="12.00">svcDataDictionary.h</text>
</a>
</g>
</g>
<!-- Node12&#45;&gt;Node13 -->
<g id="edge18" class="edge">
<title>Node12&#45;&gt;Node13</title>
<path fill="none" stroke="midnightblue" d="M966.58,-172.31C918.67,-161.99 849.7,-147.13 805.09,-137.52"/>
<polygon fill="midnightblue" stroke="midnightblue" points="965.96,-175.75 976.47,-174.44 967.43,-168.91 965.96,-175.75"/>
</g>
<!-- Node12&#45;&gt;Node15 -->
<g id="edge20" class="edge">
<title>Node12&#45;&gt;Node15</title>
<path fill="none" stroke="midnightblue" d="M1077.76,-172.37C1128.26,-162.05 1201.15,-147.15 1248.27,-137.52"/>
<polygon fill="midnightblue" stroke="midnightblue" points="1076.76,-169.01 1067.66,-174.44 1078.16,-175.86 1076.76,-169.01"/>
</g>
<!-- Node13&#45;&gt;Node5 -->
<g id="edge19" class="edge">
<title>Node13&#45;&gt;Node5</title>
<path fill="none" stroke="midnightblue" d="M783.24,-143.8C800.35,-157.85 818.98,-178.76 805.87,-196 791.48,-214.92 730.93,-228.09 687.11,-235.34"/>
<polygon fill="midnightblue" stroke="midnightblue" points="785.15,-140.86 775.1,-137.51 780.87,-146.39 785.15,-140.86"/>
</g>
<!-- Node15&#45;&gt;Node5 -->
<g id="edge21" class="edge">
<title>Node15&#45;&gt;Node5</title>
<path fill="none" stroke="midnightblue" d="M1269.23,-142.74C1239.94,-158.81 1190.09,-183.85 1143.87,-196 980.08,-239.06 777.21,-243.35 686.97,-242.85"/>
<polygon fill="midnightblue" stroke="midnightblue" points="1271.3,-145.59 1278.34,-137.67 1267.9,-139.48 1271.3,-145.59"/>
</g>
<!-- Node15&#45;&gt;Node17 -->
<g id="edge22" class="edge">
<title>Node15&#45;&gt;Node17</title>
<path fill="none" stroke="midnightblue" d="M1249.88,-113.59C1212.58,-103.3 1160.34,-88.89 1126.31,-79.5"/>
<polygon fill="midnightblue" stroke="midnightblue" points="1249.4,-117.09 1259.97,-116.37 1251.26,-110.34 1249.4,-117.09"/>
</g>
<!-- Node17&#45;&gt;Node5 -->
<g id="edge24" class="edge">
<title>Node17&#45;&gt;Node5</title>
<path fill="none" stroke="midnightblue" d="M1029.04,-72.69C921.83,-77.94 712.95,-91.24 690.87,-116 684.36,-123.3 685.54,-129.8 690.87,-138 711.36,-169.53 805.98,-147.99 771.87,-196 752.75,-222.91 716.69,-234.21 687.09,-238.89"/>
<polygon fill="midnightblue" stroke="midnightblue" points="1029.26,-76.19 1039.09,-72.21 1028.93,-69.19 1029.26,-76.19"/>
</g>
<!-- Node17&#45;&gt;Node6 -->
<g id="edge23" class="edge">
<title>Node17&#45;&gt;Node6</title>
<path fill="none" stroke="midnightblue" d="M1028.86,-59.46C950.01,-48.76 815.93,-30.59 738.63,-20.1"/>
<polygon fill="midnightblue" stroke="midnightblue" points="1028.76,-62.98 1039.14,-60.85 1029.7,-56.04 1028.76,-62.98"/>
</g>
<!-- Node17&#45;&gt;Node12 -->
<g id="edge25" class="edge">
<title>Node17&#45;&gt;Node12</title>
<path fill="none" stroke="midnightblue" d="M1087.5,-89.57C1083.75,-103.77 1077.42,-123.03 1067.87,-138 1058.66,-152.44 1044.11,-165.75 1033.63,-174.3"/>
<polygon fill="midnightblue" stroke="midnightblue" points="1090.9,-90.4 1089.88,-79.86 1084.1,-88.74 1090.9,-90.4"/>
</g>
<!-- Node18&#45;&gt;Node9 -->
<g id="edge27" class="edge">
<title>Node18&#45;&gt;Node9</title>
<path fill="none" stroke="midnightblue" d="M552.87,-106.16C552.87,-97.16 552.87,-86.92 552.87,-79.64"/>
<polygon fill="midnightblue" stroke="midnightblue" points="549.37,-106.25 552.87,-116.25 556.37,-106.25 549.37,-106.25"/>
</g>
<!-- Node19&#45;&gt;Node11 -->
<g id="edge29" class="edge">
<title>Node19&#45;&gt;Node11</title>
<path fill="none" stroke="midnightblue" d="M428.54,-165.34C423.4,-156.06 417.41,-145.24 413.21,-137.64"/>
<polygon fill="midnightblue" stroke="midnightblue" points="425.56,-167.19 433.47,-174.25 431.69,-163.8 425.56,-167.19"/>
</g>
<!-- Node20&#45;&gt;Node11 -->
<g id="edge31" class="edge">
<title>Node20&#45;&gt;Node11</title>
<path fill="none" stroke="midnightblue" d="M207.2,-172.24C253.99,-161.93 321.18,-147.11 364.67,-137.52"/>
<polygon fill="midnightblue" stroke="midnightblue" points="206.26,-168.87 197.24,-174.44 207.76,-175.7 206.26,-168.87"/>
</g>
<!-- Node21&#45;&gt;Node11 -->
<g id="edge33" class="edge">
<title>Node21&#45;&gt;Node11</title>
<path fill="none" stroke="midnightblue" d="M506.26,-170.38C482.62,-160.2 450.88,-146.53 429.92,-137.5"/>
<polygon fill="midnightblue" stroke="midnightblue" points="504.95,-173.63 515.52,-174.37 507.72,-167.2 504.95,-173.63"/>
</g>
<!-- Node22&#45;&gt;Node2 -->
<g id="edge35" class="edge">
<title>Node22&#45;&gt;Node2</title>
<path fill="none" stroke="midnightblue" d="M51.87,-164.16C51.87,-155.16 51.87,-144.92 51.87,-137.64"/>
<polygon fill="midnightblue" stroke="midnightblue" points="48.37,-164.25 51.87,-174.25 55.37,-164.25 48.37,-164.25"/>
</g>
<!-- Node22&#45;&gt;Node9 -->
<g id="edge36" class="edge">
<title>Node22&#45;&gt;Node9</title>
<path fill="none" stroke="midnightblue" d="M97.76,-171.83C151.7,-157.69 244.02,-133.99 323.87,-116 388.35,-101.47 463.56,-86.8 509.69,-78.05"/>
<polygon fill="midnightblue" stroke="midnightblue" points="96.6,-168.52 87.82,-174.44 98.38,-175.29 96.6,-168.52"/>
</g>
</g>
</svg>
