<?xml version="1.0" encoding="UTF-8" standalone="no"?>
<!DOCTYPE svg PUBLIC "-//W3C//DTD SVG 1.1//EN"
 "http://www.w3.org/Graphics/SVG/1.1/DTD/svg11.dtd">
<!-- Generated by graphviz version 2.47.3 (20210619.1520)
 -->
<!-- Title: FsCache::cacheBuffer Pages: 1 -->
<svg width="812pt" height="170pt"
 viewBox="0.00 0.00 812.00 170.00" xmlns="http://www.w3.org/2000/svg" xmlns:xlink="http://www.w3.org/1999/xlink">
<g id="graph0" class="graph" transform="scale(1 1) rotate(0) translate(4 166)">
<title>FsCache::cacheBuffer</title>
<polygon fill="white" stroke="transparent" points="-4,4 -4,-166 808,-166 808,4 -4,4"/>
<!-- Node1 -->
<g id="node1" class="node">
<title>Node1</title>
<g id="a_node1"><a xlink:title=" ">
<polygon fill="#bfbfbf" stroke="black" points="671,-80.5 671,-101.5 804,-101.5 804,-80.5 671,-80.5"/>
<text text-anchor="middle" x="737.5" y="-87.9" font-family="Helvetica,sans-Serif" font-size="12.00">FsCache::cacheBuffer</text>
</a>
</g>
</g>
<!-- Node2 -->
<g id="node2" class="node">
<title>Node2</title>
<g id="a_node2"><a xlink:href="../../d0/d12/class_fat_partition.html#a83dc0faf3047682f877cd5f71694b93e" target="_top" xlink:title=" ">
<polygon fill="white" stroke="black" points="476,-80.5 476,-101.5 635,-101.5 635,-80.5 476,-80.5"/>
<text text-anchor="middle" x="555.5" y="-87.9" font-family="Helvetica,sans-Serif" font-size="12.00">FatPartition::cacheAddress</text>
</a>
</g>
</g>
<!-- Node1&#45;&gt;Node2 -->
<g id="edge1" class="edge">
<title>Node1&#45;&gt;Node2</title>
<path fill="none" stroke="midnightblue" d="M660.61,-91C652.21,-91 643.65,-91 635.22,-91"/>
<polygon fill="midnightblue" stroke="midnightblue" points="660.75,-94.5 670.75,-91 660.75,-87.5 660.75,-94.5"/>
</g>
<!-- Node3 -->
<g id="node3" class="node">
<title>Node3</title>
<g id="a_node3"><a xlink:href="../../d3/d51/class_fat_file.html#ad39f3c4d83135ad181c58306b23df0aa" target="_top" xlink:title=" ">
<polygon fill="white" stroke="black" points="287,-100.5 287,-121.5 440,-121.5 440,-100.5 287,-100.5"/>
<text text-anchor="middle" x="363.5" y="-107.9" font-family="Helvetica,sans-Serif" font-size="12.00">FatFile::openCachedEntry</text>
</a>
</g>
</g>
<!-- Node2&#45;&gt;Node3 -->
<g id="edge2" class="edge">
<title>Node2&#45;&gt;Node3</title>
<path fill="none" stroke="midnightblue" d="M465.79,-100.34C457.18,-101.24 448.5,-102.16 440.04,-103.05"/>
<polygon fill="midnightblue" stroke="midnightblue" points="466.27,-103.81 475.85,-99.28 465.54,-96.85 466.27,-103.81"/>
</g>
<!-- Node12 -->
<g id="node6" class="node">
<title>Node12</title>
<g id="a_node6"><a xlink:href="../../d3/d51/class_fat_file.html#a07d137a7ff48af119d039d1e7ab8337a" target="_top" xlink:title=" ">
<polygon fill="white" stroke="black" points="296.5,-60.5 296.5,-81.5 430.5,-81.5 430.5,-60.5 296.5,-60.5"/>
<text text-anchor="middle" x="363.5" y="-67.9" font-family="Helvetica,sans-Serif" font-size="12.00">FatFile::readDirCache</text>
</a>
</g>
</g>
<!-- Node2&#45;&gt;Node12 -->
<g id="edge5" class="edge">
<title>Node2&#45;&gt;Node12</title>
<path fill="none" stroke="midnightblue" d="M465.58,-81.64C453.84,-80.4 441.97,-79.15 430.7,-77.97"/>
<polygon fill="midnightblue" stroke="midnightblue" points="465.54,-85.15 475.85,-82.72 466.27,-78.19 465.54,-85.15"/>
</g>
<!-- Node4 -->
<g id="node4" class="node">
<title>Node4</title>
<g id="a_node4"><a xlink:href="../../d3/d51/class_fat_file.html#aefd095e898758e6008f33cca17e92b72" target="_top" xlink:title=" ">
<polygon fill="white" stroke="black" points="153.5,-100.5 153.5,-121.5 239.5,-121.5 239.5,-100.5 153.5,-100.5"/>
<text text-anchor="middle" x="196.5" y="-107.9" font-family="Helvetica,sans-Serif" font-size="12.00">FatFile::open</text>
</a>
</g>
</g>
<!-- Node3&#45;&gt;Node4 -->
<g id="edge3" class="edge">
<title>Node3&#45;&gt;Node4</title>
<path fill="none" stroke="midnightblue" d="M276.55,-111C263.82,-111 251.2,-111 239.91,-111"/>
<polygon fill="midnightblue" stroke="midnightblue" points="276.76,-114.5 286.76,-111 276.76,-107.5 276.76,-114.5"/>
</g>
<!-- Node5 -->
<g id="node5" class="node">
<title>Node5</title>
<g id="a_node5"><a xlink:href="../../d3/d51/class_fat_file.html#acda9b1bf547d43e183e657bee053a48d" target="_top" xlink:title=" ">
<polygon fill="white" stroke="red" points="142,-140.5 142,-161.5 251,-161.5 251,-140.5 142,-140.5"/>
<text text-anchor="middle" x="196.5" y="-147.9" font-family="Helvetica,sans-Serif" font-size="12.00">FatFile::openNext</text>
</a>
</g>
</g>
<!-- Node3&#45;&gt;Node5 -->
<g id="edge4" class="edge">
<title>Node3&#45;&gt;Node5</title>
<path fill="none" stroke="midnightblue" d="M309.24,-123.91C287.13,-129.27 261.8,-135.41 240.85,-140.49"/>
<polygon fill="midnightblue" stroke="midnightblue" points="310.25,-127.27 319.15,-121.51 308.61,-120.46 310.25,-127.27"/>
</g>
<!-- Node12&#45;&gt;Node4 -->
<g id="edge7" class="edge">
<title>Node12&#45;&gt;Node4</title>
<path fill="none" stroke="midnightblue" d="M309.38,-83.88C286.84,-89.34 260.92,-95.63 239.71,-100.77"/>
<polygon fill="midnightblue" stroke="midnightblue" points="310.25,-87.27 319.15,-81.51 308.61,-80.46 310.25,-87.27"/>
</g>
<!-- Node12&#45;&gt;Node5 -->
<g id="edge8" class="edge">
<title>Node12&#45;&gt;Node5</title>
<path fill="none" stroke="midnightblue" d="M297.8,-85.36C294.05,-87.04 290.42,-88.91 287,-91 266.59,-103.47 270.77,-117.54 251,-131 245.59,-134.68 239.41,-137.8 233.23,-140.39"/>
<polygon fill="midnightblue" stroke="midnightblue" points="299.33,-88.52 307.33,-81.57 296.75,-82.02 299.33,-88.52"/>
</g>
<!-- Node13 -->
<g id="node7" class="node">
<title>Node13</title>
<g id="a_node7"><a xlink:href="../../d3/d51/class_fat_file.html#a1edf82f8818d33a8f29cf623e80f3aee" target="_top" xlink:title=" ">
<polygon fill="white" stroke="red" points="143,-60.5 143,-81.5 250,-81.5 250,-60.5 143,-60.5"/>
<text text-anchor="middle" x="196.5" y="-67.9" font-family="Helvetica,sans-Serif" font-size="12.00">FatFile::cacheDir</text>
</a>
</g>
</g>
<!-- Node12&#45;&gt;Node13 -->
<g id="edge6" class="edge">
<title>Node12&#45;&gt;Node13</title>
<path fill="none" stroke="midnightblue" d="M286.19,-71C274.03,-71 261.68,-71 250.23,-71"/>
<polygon fill="midnightblue" stroke="midnightblue" points="286.34,-74.5 296.34,-71 286.34,-67.5 286.34,-74.5"/>
</g>
<!-- Node21 -->
<g id="node8" class="node">
<title>Node21</title>
<g id="a_node8"><a xlink:href="../../d3/d51/class_fat_file.html#a9515bac181d33e7f0125e88fa2ccd283" target="_top" xlink:title=" ">
<polygon fill="white" stroke="red" points="153.5,-20.5 153.5,-41.5 239.5,-41.5 239.5,-20.5 153.5,-20.5"/>
<text text-anchor="middle" x="196.5" y="-27.9" font-family="Helvetica,sans-Serif" font-size="12.00">FatFile::rmdir</text>
</a>
</g>
</g>
<!-- Node12&#45;&gt;Node21 -->
<g id="edge9" class="edge">
<title>Node12&#45;&gt;Node21</title>
<path fill="none" stroke="midnightblue" d="M309.38,-58.12C286.84,-52.66 260.92,-46.37 239.71,-41.23"/>
<polygon fill="midnightblue" stroke="midnightblue" points="308.61,-61.54 319.15,-60.49 310.25,-54.73 308.61,-61.54"/>
</g>
<!-- Node24 -->
<g id="node9" class="node">
<title>Node24</title>
<g id="a_node9"><a xlink:href="../../d3/d51/class_fat_file.html#ac780a80526f86d3def701ecdc99d8bfe" target="_top" xlink:title=" ">
<polygon fill="white" stroke="black" points="0,-0.5 0,-21.5 106,-21.5 106,-0.5 0,-0.5"/>
<text text-anchor="middle" x="53" y="-7.9" font-family="Helvetica,sans-Serif" font-size="12.00">FatFile::rmRfStar</text>
</a>
</g>
</g>
<!-- Node12&#45;&gt;Node24 -->
<g id="edge12" class="edge">
<title>Node12&#45;&gt;Node24</title>
<path fill="none" stroke="midnightblue" d="M339.87,-54.45C318.27,-39.76 284.2,-19.37 251,-11 203.08,1.08 146.49,-0.48 106.29,-4.13"/>
<polygon fill="midnightblue" stroke="midnightblue" points="338.12,-57.5 348.32,-60.35 342.12,-51.76 338.12,-57.5"/>
</g>
<!-- Node21&#45;&gt;Node24 -->
<g id="edge10" class="edge">
<title>Node21&#45;&gt;Node24</title>
<path fill="none" stroke="midnightblue" d="M143.44,-23.64C131.29,-21.92 118.35,-20.1 106.19,-18.38"/>
<polygon fill="midnightblue" stroke="midnightblue" points="143.04,-27.12 153.43,-25.05 144.02,-20.19 143.04,-27.12"/>
</g>
<!-- Node24&#45;&gt;Node24 -->
<g id="edge11" class="edge">
<title>Node24&#45;&gt;Node24</title>
<path fill="none" stroke="midnightblue" d="M79.31,-31.06C77.58,-36.16 68.81,-40 53,-40 28.32,-40 20.8,-30.65 30.44,-21.71"/>
<polygon fill="midnightblue" stroke="midnightblue" points="82.53,-29.69 75.56,-21.71 76.03,-32.29 82.53,-29.69"/>
</g>
</g>
</svg>
