<?xml version="1.0" encoding="UTF-8" standalone="no"?>
<!DOCTYPE svg PUBLIC "-//W3C//DTD SVG 1.1//EN"
 "http://www.w3.org/Graphics/SVG/1.1/DTD/svg11.dtd">
<!-- Generated by graphviz version 2.47.3 (20210619.1520)
 -->
<!-- Title: ERISCore/lib/SdFat&#45;master/src/common/FsName.h Pages: 1 -->
<svg width="188pt" height="159pt"
 viewBox="0.00 0.00 188.00 159.00" xmlns="http://www.w3.org/2000/svg" xmlns:xlink="http://www.w3.org/1999/xlink">
<g id="graph0" class="graph" transform="scale(1 1) rotate(0) translate(4 155)">
<title>ERISCore/lib/SdFat&#45;master/src/common/FsName.h</title>
<polygon fill="white" stroke="transparent" points="-4,4 -4,-155 184,-155 184,4 -4,4"/>
<!-- Node1 -->
<g id="node1" class="node">
<title>Node1</title>
<g id="a_node1"><a xlink:title="FsName class.">
<polygon fill="#bfbfbf" stroke="black" points="0,-116.5 0,-150.5 180,-150.5 180,-116.5 0,-116.5"/>
<text text-anchor="start" x="8" y="-136.9" font-family="Helvetica,sans-Serif" font-size="12.00">ERISCore/lib/SdFat</text>
<text text-anchor="middle" x="90" y="-123.9" font-family="Helvetica,sans-Serif" font-size="12.00">&#45;master/src/common/FsName.h</text>
</a>
</g>
</g>
<!-- Node2 -->
<g id="node2" class="node">
<title>Node2</title>
<g id="a_node2"><a xlink:href="../../de/d9b/_sd_fat_config_8h.html" target="_top" xlink:title="configuration definitions">
<polygon fill="white" stroke="black" points="81,-58.5 81,-79.5 173,-79.5 173,-58.5 81,-58.5"/>
<text text-anchor="middle" x="127" y="-65.9" font-family="Helvetica,sans-Serif" font-size="12.00">SdFatConfig.h</text>
</a>
</g>
</g>
<!-- Node1&#45;&gt;Node2 -->
<g id="edge1" class="edge">
<title>Node1&#45;&gt;Node2</title>
<path fill="none" stroke="midnightblue" d="M99.53,-116.4C104.56,-107.91 110.76,-97.43 116,-88.59"/>
<polygon fill="midnightblue" stroke="midnightblue" points="119.12,-90.19 121.2,-79.8 113.09,-86.62 119.12,-90.19"/>
</g>
<!-- Node3 -->
<g id="node3" class="node">
<title>Node3</title>
<g id="a_node3"><a xlink:title=" ">
<polygon fill="white" stroke="#bfbfbf" points="26.5,-0.5 26.5,-21.5 79.5,-21.5 79.5,-0.5 26.5,-0.5"/>
<text text-anchor="middle" x="53" y="-7.9" font-family="Helvetica,sans-Serif" font-size="12.00">stdint.h</text>
</a>
</g>
</g>
<!-- Node1&#45;&gt;Node3 -->
<g id="edge4" class="edge">
<title>Node1&#45;&gt;Node3</title>
<path fill="none" stroke="midnightblue" d="M84.24,-116.49C80.58,-106.14 75.83,-92.33 72,-80 66.95,-63.74 61.78,-45.11 58.12,-31.47"/>
<polygon fill="midnightblue" stroke="midnightblue" points="61.48,-30.5 55.53,-21.74 54.72,-32.3 61.48,-30.5"/>
</g>
<!-- Node2&#45;&gt;Node3 -->
<g id="edge2" class="edge">
<title>Node2&#45;&gt;Node3</title>
<path fill="none" stroke="midnightblue" d="M114.11,-58.25C103.07,-49.89 86.97,-37.71 74.06,-27.94"/>
<polygon fill="midnightblue" stroke="midnightblue" points="75.83,-24.89 65.74,-21.64 71.6,-30.47 75.83,-24.89"/>
</g>
<!-- Node4 -->
<g id="node4" class="node">
<title>Node4</title>
<g id="a_node4"><a xlink:title=" ">
<polygon fill="white" stroke="#bfbfbf" points="98,-0.5 98,-21.5 164,-21.5 164,-0.5 98,-0.5"/>
<text text-anchor="middle" x="131" y="-7.9" font-family="Helvetica,sans-Serif" font-size="12.00">Arduino.h</text>
</a>
</g>
</g>
<!-- Node2&#45;&gt;Node4 -->
<g id="edge3" class="edge">
<title>Node2&#45;&gt;Node4</title>
<path fill="none" stroke="midnightblue" d="M127.7,-58.25C128.22,-50.94 128.95,-40.69 129.59,-31.7"/>
<polygon fill="midnightblue" stroke="midnightblue" points="133.09,-31.87 130.31,-21.64 126.11,-31.37 133.09,-31.87"/>
</g>
</g>
</svg>
