<?xml version="1.0" encoding="UTF-8" standalone="no"?>
<!DOCTYPE svg PUBLIC "-//W3C//DTD SVG 1.1//EN"
 "http://www.w3.org/Graphics/SVG/1.1/DTD/svg11.dtd">
<!-- Generated by graphviz version 2.47.3 (20210619.1520)
 -->
<!-- Title: LZ4_getPosition Pages: 1 -->
<svg width="1488pt" height="338pt"
 viewBox="0.00 0.00 1488.00 338.00" xmlns="http://www.w3.org/2000/svg" xmlns:xlink="http://www.w3.org/1999/xlink">
<g id="graph0" class="graph" transform="scale(1 1) rotate(0) translate(4 334)">
<title>LZ4_getPosition</title>
<polygon fill="white" stroke="transparent" points="-4,4 -4,-334 1484,-334 1484,4 -4,4"/>
<!-- Node1 -->
<g id="node1" class="node">
<title>Node1</title>
<g id="a_node1"><a xlink:title=" ">
<polygon fill="#bfbfbf" stroke="black" points="1377,-163.5 1377,-184.5 1480,-184.5 1480,-163.5 1377,-163.5"/>
<text text-anchor="middle" x="1428.5" y="-170.9" font-family="Helvetica,sans-Serif" font-size="12.00">LZ4_getPosition</text>
</a>
</g>
</g>
<!-- Node2 -->
<g id="node2" class="node">
<title>Node2</title>
<g id="a_node2"><a xlink:href="../../d4/d05/lz4_8c.html#aaf9d82d99a9a4f4d33da21867c6aa751" target="_top" xlink:title=" ">
<polygon fill="white" stroke="black" points="1200,-157 1200,-191 1341,-191 1341,-157 1200,-157"/>
<text text-anchor="start" x="1208" y="-177.4" font-family="Helvetica,sans-Serif" font-size="12.00">LZ4_compress_generic</text>
<text text-anchor="middle" x="1270.5" y="-164.4" font-family="Helvetica,sans-Serif" font-size="12.00">_validated</text>
</a>
</g>
</g>
<!-- Node1&#45;&gt;Node2 -->
<g id="edge1" class="edge">
<title>Node1&#45;&gt;Node2</title>
<path fill="none" stroke="midnightblue" d="M1366.78,-174C1358.39,-174 1349.71,-174 1341.17,-174"/>
<polygon fill="midnightblue" stroke="midnightblue" points="1366.85,-177.5 1376.85,-174 1366.85,-170.5 1366.85,-177.5"/>
</g>
<!-- Node3 -->
<g id="node3" class="node">
<title>Node3</title>
<g id="a_node3"><a xlink:href="../../d4/d05/lz4_8c.html#a2c16b0c1f9b51bb73e155876011fc97a" target="_top" xlink:title=" ">
<polygon fill="white" stroke="black" points="1023,-163.5 1023,-184.5 1164,-184.5 1164,-163.5 1023,-163.5"/>
<text text-anchor="middle" x="1093.5" y="-170.9" font-family="Helvetica,sans-Serif" font-size="12.00">LZ4_compress_generic</text>
</a>
</g>
</g>
<!-- Node2&#45;&gt;Node3 -->
<g id="edge2" class="edge">
<title>Node2&#45;&gt;Node3</title>
<path fill="none" stroke="midnightblue" d="M1189.58,-174C1181.11,-174 1172.55,-174 1164.21,-174"/>
<polygon fill="midnightblue" stroke="midnightblue" points="1189.83,-177.5 1199.83,-174 1189.83,-170.5 1189.83,-177.5"/>
</g>
<!-- Node4 -->
<g id="node4" class="node">
<title>Node4</title>
<g id="a_node4"><a xlink:href="../../d4/d05/lz4_8c.html#a9951546f6fa1f29c8d01ed77fda4abab" target="_top" xlink:title=" ">
<polygon fill="white" stroke="black" points="621,-202 621,-236 769,-236 769,-202 621,-202"/>
<text text-anchor="start" x="629" y="-222.4" font-family="Helvetica,sans-Serif" font-size="12.00">LZ4_compress_destSize</text>
<text text-anchor="middle" x="695" y="-209.4" font-family="Helvetica,sans-Serif" font-size="12.00">_extState</text>
</a>
</g>
</g>
<!-- Node3&#45;&gt;Node4 -->
<g id="edge3" class="edge">
<title>Node3&#45;&gt;Node4</title>
<path fill="none" stroke="midnightblue" d="M1032.66,-186.44C1017.79,-189.23 1001.86,-191.96 987,-194 913.15,-204.14 828.17,-210.88 769.18,-214.78"/>
<polygon fill="midnightblue" stroke="midnightblue" points="1033.6,-189.82 1042.76,-184.51 1032.28,-182.95 1033.6,-189.82"/>
</g>
<!-- Node6 -->
<g id="node6" class="node">
<title>Node6</title>
<g id="a_node6"><a xlink:href="../../d4/d05/lz4_8c.html#abee2872be58007aae02ca0ca467dae4f" target="_top" xlink:title=" ">
<polygon fill="white" stroke="black" points="816,-261.5 816,-282.5 987,-282.5 987,-261.5 816,-261.5"/>
<text text-anchor="middle" x="901.5" y="-268.9" font-family="Helvetica,sans-Serif" font-size="12.00">LZ4_compress_fast_continue</text>
</a>
</g>
</g>
<!-- Node3&#45;&gt;Node6 -->
<g id="edge5" class="edge">
<title>Node3&#45;&gt;Node6</title>
<path fill="none" stroke="midnightblue" d="M1064.79,-189.4C1043.61,-201.06 1013.63,-217.35 987,-231 966.1,-241.71 941.98,-253.34 924.87,-261.47"/>
<polygon fill="midnightblue" stroke="midnightblue" points="1066.51,-192.45 1073.57,-184.55 1063.13,-186.32 1066.51,-192.45"/>
</g>
<!-- Node9 -->
<g id="node9" class="node">
<title>Node9</title>
<g id="a_node9"><a xlink:href="../../d4/d05/lz4_8c.html#a19a6258c0092d5b3255a41d7566248d7" target="_top" xlink:title=" ">
<polygon fill="white" stroke="black" points="816.5,-163.5 816.5,-184.5 986.5,-184.5 986.5,-163.5 816.5,-163.5"/>
<text text-anchor="middle" x="901.5" y="-170.9" font-family="Helvetica,sans-Serif" font-size="12.00">LZ4_compress_fast_extState</text>
</a>
</g>
</g>
<!-- Node3&#45;&gt;Node9 -->
<g id="edge8" class="edge">
<title>Node3&#45;&gt;Node9</title>
<path fill="none" stroke="midnightblue" d="M1012.8,-174C1004.17,-174 995.36,-174 986.68,-174"/>
<polygon fill="midnightblue" stroke="midnightblue" points="1012.83,-177.5 1022.83,-174 1012.83,-170.5 1012.83,-177.5"/>
</g>
<!-- Node22 -->
<g id="node22" class="node">
<title>Node22</title>
<g id="a_node22"><a xlink:href="../../d4/d05/lz4_8c.html#ad9ca3cfc174b63e4ecf1897c32f146a7" target="_top" xlink:title=" ">
<polygon fill="white" stroke="black" points="816.5,-110 816.5,-144 986.5,-144 986.5,-110 816.5,-110"/>
<text text-anchor="start" x="824.5" y="-130.4" font-family="Helvetica,sans-Serif" font-size="12.00">LZ4_compress_fast_extState</text>
<text text-anchor="middle" x="901.5" y="-117.4" font-family="Helvetica,sans-Serif" font-size="12.00">_fastReset</text>
</a>
</g>
</g>
<!-- Node3&#45;&gt;Node22 -->
<g id="edge23" class="edge">
<title>Node3&#45;&gt;Node22</title>
<path fill="none" stroke="midnightblue" d="M1040.08,-161.03C1018.88,-155.79 994.11,-149.66 971.47,-144.06"/>
<polygon fill="midnightblue" stroke="midnightblue" points="1039.31,-164.45 1049.86,-163.45 1040.99,-157.65 1039.31,-164.45"/>
</g>
<!-- Node23 -->
<g id="node23" class="node">
<title>Node23</title>
<g id="a_node23"><a xlink:href="../../d4/d05/lz4_8c.html#aa21d9d803f8efcb91ecbb99062fd6b9e" target="_top" xlink:title=" ">
<polygon fill="white" stroke="black" points="818.5,-69.5 818.5,-90.5 984.5,-90.5 984.5,-69.5 818.5,-69.5"/>
<text text-anchor="middle" x="901.5" y="-76.9" font-family="Helvetica,sans-Serif" font-size="12.00">LZ4_compress_forceExtDict</text>
</a>
</g>
</g>
<!-- Node3&#45;&gt;Node23 -->
<g id="edge24" class="edge">
<title>Node3&#45;&gt;Node23</title>
<path fill="none" stroke="midnightblue" d="M1072.94,-156.81C1052.75,-139.94 1019.68,-114.67 987,-100 978.61,-96.23 969.42,-93.13 960.29,-90.58"/>
<polygon fill="midnightblue" stroke="midnightblue" points="1070.88,-159.66 1080.77,-163.47 1075.42,-154.32 1070.88,-159.66"/>
</g>
<!-- Node5 -->
<g id="node5" class="node">
<title>Node5</title>
<g id="a_node5"><a xlink:href="../../d4/d05/lz4_8c.html#a54116374080dae219ffa71e484ce5f2a" target="_top" xlink:title=" ">
<polygon fill="white" stroke="black" points="417,-234.5 417,-255.5 565,-255.5 565,-234.5 417,-234.5"/>
<text text-anchor="middle" x="491" y="-241.9" font-family="Helvetica,sans-Serif" font-size="12.00">LZ4_compress_destSize</text>
</a>
</g>
</g>
<!-- Node4&#45;&gt;Node5 -->
<g id="edge4" class="edge">
<title>Node4&#45;&gt;Node5</title>
<path fill="none" stroke="midnightblue" d="M610.51,-229.75C595.51,-231.68 579.98,-233.68 565.3,-235.57"/>
<polygon fill="midnightblue" stroke="midnightblue" points="611.32,-233.17 620.79,-228.42 610.42,-226.23 611.32,-233.17"/>
</g>
<!-- Node7 -->
<g id="node7" class="node">
<title>Node7</title>
<g id="a_node7"><a xlink:href="../../d4/d05/lz4_8c.html#a7936aa7dce7ba045f7daa578de555175" target="_top" xlink:title=" ">
<polygon fill="white" stroke="black" points="622,-308.5 622,-329.5 768,-329.5 768,-308.5 622,-308.5"/>
<text text-anchor="middle" x="695" y="-315.9" font-family="Helvetica,sans-Serif" font-size="12.00">LZ4_compress_continue</text>
</a>
</g>
</g>
<!-- Node6&#45;&gt;Node7 -->
<g id="edge6" class="edge">
<title>Node6&#45;&gt;Node7</title>
<path fill="none" stroke="midnightblue" d="M844.84,-284.79C812.49,-292.23 772.23,-301.48 741.74,-308.49"/>
<polygon fill="midnightblue" stroke="midnightblue" points="845.64,-288.2 854.61,-282.55 844.08,-281.38 845.64,-288.2"/>
</g>
<!-- Node8 -->
<g id="node8" class="node">
<title>Node8</title>
<g id="a_node8"><a xlink:href="../../d4/d05/lz4_8c.html#a4a6e82d1e76a274fe351f9d090c44e59" target="_top" xlink:title=" ">
<polygon fill="white" stroke="black" points="610,-255 610,-289 780,-289 780,-255 610,-255"/>
<text text-anchor="start" x="618" y="-275.4" font-family="Helvetica,sans-Serif" font-size="12.00">LZ4_compress_limitedOutput</text>
<text text-anchor="middle" x="695" y="-262.4" font-family="Helvetica,sans-Serif" font-size="12.00">_continue</text>
</a>
</g>
</g>
<!-- Node6&#45;&gt;Node8 -->
<g id="edge7" class="edge">
<title>Node6&#45;&gt;Node8</title>
<path fill="none" stroke="midnightblue" d="M805.59,-272C797.13,-272 788.61,-272 780.26,-272"/>
<polygon fill="midnightblue" stroke="midnightblue" points="805.85,-275.5 815.85,-272 805.85,-268.5 805.85,-275.5"/>
</g>
<!-- Node9&#45;&gt;Node4 -->
<g id="edge9" class="edge">
<title>Node9&#45;&gt;Node4</title>
<path fill="none" stroke="midnightblue" d="M842.69,-186.72C819.88,-191.74 793.4,-197.57 769.27,-202.88"/>
<polygon fill="midnightblue" stroke="midnightblue" points="843.54,-190.12 852.55,-184.55 842.04,-183.28 843.54,-190.12"/>
</g>
<!-- Node10 -->
<g id="node10" class="node">
<title>Node10</title>
<g id="a_node10"><a xlink:href="../../d4/d05/lz4_8c.html#a7466a8eca8f7b2eeec7887c9371d21e1" target="_top" xlink:title=" ">
<polygon fill="white" stroke="black" points="634.5,-161.5 634.5,-182.5 755.5,-182.5 755.5,-161.5 634.5,-161.5"/>
<text text-anchor="middle" x="695" y="-168.9" font-family="Helvetica,sans-Serif" font-size="12.00">LZ4_compress_fast</text>
</a>
</g>
</g>
<!-- Node9&#45;&gt;Node10 -->
<g id="edge10" class="edge">
<title>Node9&#45;&gt;Node10</title>
<path fill="none" stroke="midnightblue" d="M806.34,-173.08C789.11,-172.91 771.56,-172.74 755.69,-172.58"/>
<polygon fill="midnightblue" stroke="midnightblue" points="806.4,-176.58 816.44,-173.18 806.47,-169.58 806.4,-176.58"/>
</g>
<!-- Node20 -->
<g id="node20" class="node">
<title>Node20</title>
<g id="a_node20"><a xlink:href="../../d4/d05/lz4_8c.html#ab9e6911a8271745f3a45490edeae135b" target="_top" xlink:title=" ">
<polygon fill="white" stroke="black" points="610,-108 610,-142 780,-142 780,-108 610,-108"/>
<text text-anchor="start" x="618" y="-128.4" font-family="Helvetica,sans-Serif" font-size="12.00">LZ4_compress_limitedOutput</text>
<text text-anchor="middle" x="695" y="-115.4" font-family="Helvetica,sans-Serif" font-size="12.00">_withState</text>
</a>
</g>
</g>
<!-- Node9&#45;&gt;Node20 -->
<g id="edge21" class="edge">
<title>Node9&#45;&gt;Node20</title>
<path fill="none" stroke="midnightblue" d="M846.85,-161.15C822.48,-155.31 793.31,-148.32 767.15,-142.05"/>
<polygon fill="midnightblue" stroke="midnightblue" points="846.09,-164.56 856.63,-163.49 847.72,-157.75 846.09,-164.56"/>
</g>
<!-- Node21 -->
<g id="node21" class="node">
<title>Node21</title>
<g id="a_node21"><a xlink:href="../../d4/d05/lz4_8c.html#a9fa2e6e61caea57ae1c3ef996f0e9ac9" target="_top" xlink:title=" ">
<polygon fill="white" stroke="black" points="620,-67.5 620,-88.5 770,-88.5 770,-67.5 620,-67.5"/>
<text text-anchor="middle" x="695" y="-74.9" font-family="Helvetica,sans-Serif" font-size="12.00">LZ4_compress_withState</text>
</a>
</g>
</g>
<!-- Node9&#45;&gt;Node21 -->
<g id="edge22" class="edge">
<title>Node9&#45;&gt;Node21</title>
<path fill="none" stroke="midnightblue" d="M826.53,-159.28C822.84,-157.43 819.3,-155.35 816,-153 792.18,-136.09 803.9,-114.8 780,-98 774.6,-94.21 768.58,-91.13 762.3,-88.63"/>
<polygon fill="midnightblue" stroke="midnightblue" points="825.39,-162.6 835.95,-163.42 828.2,-156.2 825.39,-162.6"/>
</g>
<!-- Node11 -->
<g id="node11" class="node">
<title>Node11</title>
<g id="a_node11"><a xlink:href="../../d2/da8/class_svc_serial_command_interface.html#af0793e6bc9aee7207b4d7f59932e6508" target="_top" xlink:title="Calling this function signals the end of a compressed message. The current txBuffer is lz4 compressed...">
<polygon fill="white" stroke="black" points="408,-128 408,-162 574,-162 574,-128 408,-128"/>
<text text-anchor="start" x="416" y="-148.4" font-family="Helvetica,sans-Serif" font-size="12.00">SvcSerialCommandInterface</text>
<text text-anchor="middle" x="491" y="-135.4" font-family="Helvetica,sans-Serif" font-size="12.00">::endLZ4Message</text>
</a>
</g>
</g>
<!-- Node10&#45;&gt;Node11 -->
<g id="edge11" class="edge">
<title>Node10&#45;&gt;Node11</title>
<path fill="none" stroke="midnightblue" d="M624.12,-162.66C608.05,-160.51 590.82,-158.21 574.29,-156"/>
<polygon fill="midnightblue" stroke="midnightblue" points="624.11,-166.19 634.49,-164.05 625.04,-159.25 624.11,-166.19"/>
</g>
<!-- Node16 -->
<g id="node16" class="node">
<title>Node16</title>
<g id="a_node16"><a xlink:href="../../d4/d05/lz4_8c.html#a4a0eddbe2e6f52ce91e259fa57459fbd" target="_top" xlink:title=" ">
<polygon fill="white" stroke="black" points="422.5,-40.5 422.5,-61.5 559.5,-61.5 559.5,-40.5 422.5,-40.5"/>
<text text-anchor="middle" x="491" y="-47.9" font-family="Helvetica,sans-Serif" font-size="12.00">LZ4_compress_default</text>
</a>
</g>
</g>
<!-- Node10&#45;&gt;Node16 -->
<g id="edge16" class="edge">
<title>Node10&#45;&gt;Node16</title>
<path fill="none" stroke="midnightblue" d="M626.14,-158.21C620.54,-156.13 615.09,-153.74 610,-151 590.88,-140.72 590.41,-132.21 574,-118 550.37,-97.55 521.96,-74.71 505.54,-61.68"/>
<polygon fill="midnightblue" stroke="midnightblue" points="625.05,-161.54 635.65,-161.43 627.3,-154.91 625.05,-161.54"/>
</g>
<!-- Node19 -->
<g id="node19" class="node">
<title>Node19</title>
<g id="a_node19"><a xlink:href="../../d2/da8/class_svc_serial_command_interface.html#add54582c8a1dae31f0d69bea84c65c84" target="_top" xlink:title=" ">
<polygon fill="white" stroke="black" points="408,-181 408,-215 574,-215 574,-181 408,-181"/>
<text text-anchor="start" x="416" y="-201.4" font-family="Helvetica,sans-Serif" font-size="12.00">SvcSerialCommandInterface</text>
<text text-anchor="middle" x="491" y="-188.4" font-family="Helvetica,sans-Serif" font-size="12.00">::streamHandler</text>
</a>
</g>
</g>
<!-- Node10&#45;&gt;Node19 -->
<g id="edge19" class="edge">
<title>Node10&#45;&gt;Node19</title>
<path fill="none" stroke="midnightblue" d="M624.12,-180.99C608.05,-183.06 590.82,-185.28 574.29,-187.41"/>
<polygon fill="midnightblue" stroke="midnightblue" points="625.01,-184.41 634.49,-179.66 624.12,-177.47 625.01,-184.41"/>
</g>
<!-- Node12 -->
<g id="node12" class="node">
<title>Node12</title>
<g id="a_node12"><a xlink:href="../../dc/d43/class_svc_data_dictionary.html#a5d76aa4fdff94a92acf9a63bce1a6c2b" target="_top" xlink:title=" ">
<polygon fill="white" stroke="black" points="227,-81 227,-115 347,-115 347,-81 227,-81"/>
<text text-anchor="start" x="235" y="-101.4" font-family="Helvetica,sans-Serif" font-size="12.00">SvcDataDictionary::</text>
<text text-anchor="middle" x="287" y="-88.4" font-family="Helvetica,sans-Serif" font-size="12.00">printDictionary</text>
</a>
</g>
</g>
<!-- Node11&#45;&gt;Node12 -->
<g id="edge12" class="edge">
<title>Node11&#45;&gt;Node12</title>
<path fill="none" stroke="midnightblue" d="M407.01,-125.69C386.9,-121.01 365.81,-116.1 347.06,-111.74"/>
<polygon fill="midnightblue" stroke="midnightblue" points="406.25,-129.11 416.79,-127.97 407.84,-122.29 406.25,-129.11"/>
</g>
<!-- Node13 -->
<g id="node13" class="node">
<title>Node13</title>
<g id="a_node13"><a xlink:href="../../d8/d1c/class_audio_director.html#a154eaf3ab4ea4fa754fc35e0687f4c1b" target="_top" xlink:title=" ">
<polygon fill="white" stroke="black" points="214.5,-174.5 214.5,-195.5 359.5,-195.5 359.5,-174.5 214.5,-174.5"/>
<text text-anchor="middle" x="287" y="-181.9" font-family="Helvetica,sans-Serif" font-size="12.00">AudioDirector::printStats</text>
</a>
</g>
</g>
<!-- Node11&#45;&gt;Node13 -->
<g id="edge13" class="edge">
<title>Node11&#45;&gt;Node13</title>
<path fill="none" stroke="midnightblue" d="M398.02,-163.21C378.53,-167.07 358.59,-171.02 341.14,-174.48"/>
<polygon fill="midnightblue" stroke="midnightblue" points="398.71,-166.65 407.84,-161.27 397.35,-159.78 398.71,-166.65"/>
</g>
<!-- Node15 -->
<g id="node15" class="node">
<title>Node15</title>
<g id="a_node15"><a xlink:href="../../d4/dde/class_app_c_q_t.html#a0e1d9e850811f24577f20ac1900dd4f8" target="_top" xlink:title=" ">
<polygon fill="white" stroke="black" points="234.5,-134.5 234.5,-155.5 339.5,-155.5 339.5,-134.5 234.5,-134.5"/>
<text text-anchor="middle" x="287" y="-141.9" font-family="Helvetica,sans-Serif" font-size="12.00">AppCQT::update</text>
</a>
</g>
</g>
<!-- Node11&#45;&gt;Node15 -->
<g id="edge15" class="edge">
<title>Node11&#45;&gt;Node15</title>
<path fill="none" stroke="midnightblue" d="M397.78,-145C377.81,-145 357.39,-145 339.66,-145"/>
<polygon fill="midnightblue" stroke="midnightblue" points="397.84,-148.5 407.84,-145 397.84,-141.5 397.84,-148.5"/>
</g>
<!-- Node14 -->
<g id="node14" class="node">
<title>Node14</title>
<g id="a_node14"><a xlink:href="../../d2/da8/class_svc_serial_command_interface.html#a6d455ea6d7ca58624ccc6ce5fd43d2c5" target="_top" xlink:title=" ">
<polygon fill="white" stroke="black" points="0,-187 0,-221 166,-221 166,-187 0,-187"/>
<text text-anchor="start" x="8" y="-207.4" font-family="Helvetica,sans-Serif" font-size="12.00">SvcSerialCommandInterface</text>
<text text-anchor="middle" x="83" y="-194.4" font-family="Helvetica,sans-Serif" font-size="12.00">::updateRT</text>
</a>
</g>
</g>
<!-- Node13&#45;&gt;Node14 -->
<g id="edge14" class="edge">
<title>Node13&#45;&gt;Node14</title>
<path fill="none" stroke="midnightblue" d="M204.46,-192.67C191.82,-193.86 178.75,-195.09 166.1,-196.28"/>
<polygon fill="midnightblue" stroke="midnightblue" points="204.87,-196.15 214.5,-191.73 204.21,-189.18 204.87,-196.15"/>
</g>
<!-- Node17 -->
<g id="node17" class="node">
<title>Node17</title>
<g id="a_node17"><a xlink:href="../../d4/d05/lz4_8c.html#a5eae984914665109fd891ff2bed82331" target="_top" xlink:title=" ">
<polygon fill="white" stroke="black" points="239.5,-0.5 239.5,-21.5 334.5,-21.5 334.5,-0.5 239.5,-0.5"/>
<text text-anchor="middle" x="287" y="-7.9" font-family="Helvetica,sans-Serif" font-size="12.00">LZ4_compress</text>
</a>
</g>
</g>
<!-- Node16&#45;&gt;Node17 -->
<g id="edge17" class="edge">
<title>Node16&#45;&gt;Node17</title>
<path fill="none" stroke="midnightblue" d="M427,-38.53C397.1,-32.6 361.98,-25.65 334.53,-20.21"/>
<polygon fill="midnightblue" stroke="midnightblue" points="426.44,-41.98 436.93,-40.49 427.8,-35.11 426.44,-41.98"/>
</g>
<!-- Node18 -->
<g id="node18" class="node">
<title>Node18</title>
<g id="a_node18"><a xlink:href="../../d4/d05/lz4_8c.html#a464e8e2a2ad215e0d94042722eb75551" target="_top" xlink:title=" ">
<polygon fill="white" stroke="black" points="202,-40.5 202,-61.5 372,-61.5 372,-40.5 202,-40.5"/>
<text text-anchor="middle" x="287" y="-47.9" font-family="Helvetica,sans-Serif" font-size="12.00">LZ4_compress_limitedOutput</text>
</a>
</g>
</g>
<!-- Node16&#45;&gt;Node18 -->
<g id="edge18" class="edge">
<title>Node16&#45;&gt;Node18</title>
<path fill="none" stroke="midnightblue" d="M412.07,-51C398.95,-51 385.28,-51 372.01,-51"/>
<polygon fill="midnightblue" stroke="midnightblue" points="412.46,-54.5 422.46,-51 412.46,-47.5 412.46,-54.5"/>
</g>
<!-- Node19&#45;&gt;Node14 -->
<g id="edge20" class="edge">
<title>Node19&#45;&gt;Node14</title>
<path fill="none" stroke="midnightblue" d="M397.66,-204C388.99,-204.41 380.33,-204.75 372,-205 302.66,-207.06 223.88,-206.59 166.26,-205.73"/>
<polygon fill="midnightblue" stroke="midnightblue" points="398.01,-207.49 407.82,-203.5 397.66,-200.5 398.01,-207.49"/>
</g>
</g>
</svg>
