<?xml version="1.0" encoding="UTF-8" standalone="no"?>
<!DOCTYPE svg PUBLIC "-//W3C//DTD SVG 1.1//EN"
 "http://www.w3.org/Graphics/SVG/1.1/DTD/svg11.dtd">
<!-- Generated by graphviz version 2.47.3 (20210619.1520)
 -->
<!-- Title: LZ4_putPosition Pages: 1 -->
<!--zoomable 150 -->
<svg id="main" version="1.1" xmlns="http://www.w3.org/2000/svg" xmlns:xlink="http://www.w3.org/1999/xlink" xml:space="preserve" onload="init(evt)">
<style type="text/css"><![CDATA[
.edge:hover path { stroke: red; }
.edge:hover polygon { stroke: red; fill: red; }
]]></style>
<script type="text/javascript"><![CDATA[
var edges = document.getElementsByTagName('g');
if (edges && edges.length) {
  for (var i=0;i<edges.length;i++) {
    if (edges[i].id.substr(0,4)=='edge') {
      edges[i].setAttribute('class','edge');
    }
  }
}
]]></script>
        <defs>
                <circle id="rim" cx="0" cy="0" r="7"/>
                <circle id="rim2" cx="0" cy="0" r="3.5"/>
                <g id="zoomPlus">
                        <use xlink:href="#rim" fill="#404040">
                                <set attributeName="fill" to="#808080" begin="zoomplus.mouseover" end="zoomplus.mouseout"/>
                        </use>
                        <path d="M-4,0h8M0,-4v8" fill="none" stroke="white" stroke-width="1.5" pointer-events="none"/>
                </g>
                <g id="zoomMin">
                        <use xlink:href="#rim" fill="#404040">
                                <set attributeName="fill" to="#808080" begin="zoomminus.mouseover" end="zoomminus.mouseout"/>
                        </use>
                        <path d="M-4,0h8" fill="none" stroke="white" stroke-width="1.5" pointer-events="none"/>
                </g>
                <g id="dirArrow">
                        <path fill="none" stroke="white" stroke-width="1.5" d="M0,-3.0v7 M-2.5,-0.5L0,-3.0L2.5,-0.5"/>
                </g>
               <g id="resetDef">
                       <use xlink:href="#rim2" fill="#404040">
                               <set attributeName="fill" to="#808080" begin="reset.mouseover" end="reset.mouseout"/>
                       </use>
               </g>
        </defs>

<script type="text/javascript">
var viewWidth = 584;
var viewHeight = 150;
var sectionId = 'dynsection-0';
</script>
<script xlink:href="../../svgpan.js"/>
<svg id="graph" class="graph">
<g id="viewport">
<title>LZ4_putPosition</title>
<!-- Node1 -->
<g id="node1" class="node">
<title>Node1</title>
<g id="a_node1"><a xlink:title=" ">
<polygon fill="#bfbfbf" stroke="black" points="0,-40.5 0,-61.5 102,-61.5 102,-40.5 0,-40.5"/>
<text text-anchor="middle" x="51" y="-47.9" font-family="Helvetica,sans-Serif" font-size="12.00">LZ4_putPosition</text>
</a>
</g>
</g>
<!-- Node2 -->
<g id="node2" class="node">
<title>Node2</title>
<g id="a_node2"><a xlink:href="../../d4/d05/lz4_8c_ac12a7e2c99e027f4890aa543dc3fc367.html#ac12a7e2c99e027f4890aa543dc3fc367" target="_top" xlink:title=" ">
<polygon fill="none" stroke="black" points="154.5,-60.5 154.5,-81.5 265.5,-81.5 265.5,-60.5 154.5,-60.5"/>
<text text-anchor="middle" x="210" y="-67.9" font-family="Helvetica,sans-Serif" font-size="12.00">LZ4_hashPosition</text>
</a>
</g>
</g>
<!-- Node1&#45;&gt;Node2 -->
<g id="edge1" class="edge">
<title>Node1&#45;&gt;Node2</title>
<path fill="none" stroke="midnightblue" d="M102.11,-57.38C115.54,-59.09 130.25,-60.97 144.35,-62.76"/>
<polygon fill="midnightblue" stroke="midnightblue" points="144.12,-66.26 154.48,-64.05 145,-59.32 144.12,-66.26"/>
</g>
<!-- Node8 -->
<g id="node8" class="node">
<title>Node8</title>
<g id="a_node8"><a xlink:href="../../d4/d05/lz4_8c_a0eba3b95eb6fc95a7796c30657417ac1.html#a0eba3b95eb6fc95a7796c30657417ac1" target="_top" xlink:title=" ">
<polygon fill="none" stroke="black" points="138,-20.5 138,-41.5 282,-41.5 282,-20.5 138,-20.5"/>
<text text-anchor="middle" x="210" y="-27.9" font-family="Helvetica,sans-Serif" font-size="12.00">LZ4_putPositionOnHash</text>
</a>
</g>
</g>
<!-- Node1&#45;&gt;Node8 -->
<g id="edge7" class="edge">
<title>Node1&#45;&gt;Node8</title>
<path fill="none" stroke="midnightblue" d="M102.11,-44.62C110.39,-43.56 119.16,-42.45 127.97,-41.32"/>
<polygon fill="midnightblue" stroke="midnightblue" points="128.43,-44.79 137.91,-40.06 127.55,-37.85 128.43,-44.79"/>
</g>
<!-- Node3 -->
<g id="node3" class="node">
<title>Node3</title>
<g id="a_node3"><a xlink:href="../../d4/d05/lz4_8c_a4b2bca18b9716c1b14c20ef98c00706a.html#a4b2bca18b9716c1b14c20ef98c00706a" target="_top" xlink:title=" ">
<polygon fill="none" stroke="black" points="334.5,-120.5 334.5,-141.5 409.5,-141.5 409.5,-120.5 334.5,-120.5"/>
<text text-anchor="middle" x="372" y="-127.9" font-family="Helvetica,sans-Serif" font-size="12.00">LZ4_hash4</text>
</a>
</g>
</g>
<!-- Node2&#45;&gt;Node3 -->
<g id="edge2" class="edge">
<title>Node2&#45;&gt;Node3</title>
<path fill="none" stroke="midnightblue" d="M239.24,-81.59C265.32,-91.37 304.26,-105.97 333.05,-116.77"/>
<polygon fill="midnightblue" stroke="midnightblue" points="332.18,-120.18 342.78,-120.42 334.64,-113.63 332.18,-120.18"/>
</g>
<!-- Node4 -->
<g id="node4" class="node">
<title>Node4</title>
<g id="a_node4"><a xlink:href="../../d4/d05/lz4_8c_adc69f36cc4b0eec011a50a195eadfecc.html#adc69f36cc4b0eec011a50a195eadfecc" target="_top" xlink:title=" ">
<polygon fill="none" stroke="black" points="334.5,-80.5 334.5,-101.5 409.5,-101.5 409.5,-80.5 334.5,-80.5"/>
<text text-anchor="middle" x="372" y="-87.9" font-family="Helvetica,sans-Serif" font-size="12.00">LZ4_hash5</text>
</a>
</g>
</g>
<!-- Node2&#45;&gt;Node4 -->
<g id="edge3" class="edge">
<title>Node2&#45;&gt;Node4</title>
<path fill="none" stroke="midnightblue" d="M265.62,-77.83C284.62,-80.2 305.76,-82.85 324.09,-85.14"/>
<polygon fill="midnightblue" stroke="midnightblue" points="323.88,-88.64 334.23,-86.4 324.75,-81.69 323.88,-88.64"/>
</g>
<!-- Node6 -->
<g id="node6" class="node">
<title>Node6</title>
<g id="a_node6"><a xlink:href="../../d4/d05/lz4_8c_a91090d7f3d29948be259526ace41da4c.html#a91090d7f3d29948be259526ace41da4c" target="_top" xlink:title=" ">
<polygon fill="none" stroke="black" points="331.5,-40.5 331.5,-61.5 412.5,-61.5 412.5,-40.5 331.5,-40.5"/>
<text text-anchor="middle" x="372" y="-47.9" font-family="Helvetica,sans-Serif" font-size="12.00">LZ4_read32</text>
</a>
</g>
</g>
<!-- Node2&#45;&gt;Node6 -->
<g id="edge5" class="edge">
<title>Node2&#45;&gt;Node6</title>
<path fill="none" stroke="midnightblue" d="M265.62,-64.17C283.63,-61.92 303.55,-59.43 321.19,-57.23"/>
<polygon fill="midnightblue" stroke="midnightblue" points="321.78,-60.68 331.27,-55.97 320.91,-53.73 321.78,-60.68"/>
</g>
<!-- Node7 -->
<g id="node7" class="node">
<title>Node7</title>
<g id="a_node7"><a xlink:href="../../d4/d05/lz4_8c_a9f1c5198d0fac6d72364edbb87a390e4.html#a9f1c5198d0fac6d72364edbb87a390e4" target="_top" xlink:title=" ">
<polygon fill="none" stroke="black" points="318,-0.5 318,-21.5 426,-21.5 426,-0.5 318,-0.5"/>
<text text-anchor="middle" x="372" y="-7.9" font-family="Helvetica,sans-Serif" font-size="12.00">LZ4_read_ARCH</text>
</a>
</g>
</g>
<!-- Node2&#45;&gt;Node7 -->
<g id="edge6" class="edge">
<title>Node2&#45;&gt;Node7</title>
<path fill="none" stroke="midnightblue" d="M254.72,-60.41C263.87,-57.72 273.36,-54.56 282,-51 298.92,-44.03 301.39,-38.7 318,-31 322.18,-29.06 326.6,-27.17 331.04,-25.36"/>
<polygon fill="midnightblue" stroke="midnightblue" points="332.67,-28.48 340.69,-21.56 330.11,-21.97 332.67,-28.48"/>
</g>
<!-- Node5 -->
<g id="node5" class="node">
<title>Node5</title>
<g id="a_node5"><a xlink:href="../../d4/d05/lz4_8c_aa8a9ba402bf00e8e6c21691085ae9601.html#aa8a9ba402bf00e8e6c21691085ae9601" target="_top" xlink:title=" ">
<polygon fill="none" stroke="black" points="462,-80.5 462,-101.5 576,-101.5 576,-80.5 462,-80.5"/>
<text text-anchor="middle" x="519" y="-87.9" font-family="Helvetica,sans-Serif" font-size="12.00">LZ4_isLittleEndian</text>
</a>
</g>
</g>
<!-- Node4&#45;&gt;Node5 -->
<g id="edge4" class="edge">
<title>Node4&#45;&gt;Node5</title>
<path fill="none" stroke="midnightblue" d="M409.59,-91C422.35,-91 437.09,-91 451.52,-91"/>
<polygon fill="midnightblue" stroke="midnightblue" points="451.93,-94.5 461.93,-91 451.93,-87.5 451.93,-94.5"/>
</g>
</g>
</svg>
        <g id="navigator" transform="translate(0 0)" fill="#404254">
                <rect fill="#f2f5e9" fill-opacity="0.5" stroke="#606060" stroke-width=".5" x="0" y="0" width="60" height="60"/>
                <use id="zoomplus" xlink:href="#zoomPlus" x="17" y="9" onmousedown="handleZoom(evt,'in')"/>
                <use id="zoomminus" xlink:href="#zoomMin" x="42" y="9" onmousedown="handleZoom(evt,'out')"/>
                <use id="reset" xlink:href="#resetDef" x="30" y="36" onmousedown="handleReset()"/>
                <g id="arrowUp" xlink:href="#dirArrow" transform="translate(30 24)" onmousedown="handlePan(0,-1)">
                  <use xlink:href="#rim" fill="#404040">
                        <set attributeName="fill" to="#808080" begin="arrowUp.mouseover" end="arrowUp.mouseout"/>
                  </use>
                  <path fill="none" stroke="white" stroke-width="1.5" d="M0,-3.0v7 M-2.5,-0.5L0,-3.0L2.5,-0.5"/>
                </g>
                <g id="arrowRight" xlink:href="#dirArrow" transform="rotate(90) translate(36 -43)" onmousedown="handlePan(1,0)">
                  <use xlink:href="#rim" fill="#404040">
                        <set attributeName="fill" to="#808080" begin="arrowRight.mouseover" end="arrowRight.mouseout"/>
                  </use>
                  <path fill="none" stroke="white" stroke-width="1.5" d="M0,-3.0v7 M-2.5,-0.5L0,-3.0L2.5,-0.5"/>
                </g>
                <g id="arrowDown" xlink:href="#dirArrow" transform="rotate(180) translate(-30 -48)" onmousedown="handlePan(0,1)">
                  <use xlink:href="#rim" fill="#404040">
                        <set attributeName="fill" to="#808080" begin="arrowDown.mouseover" end="arrowDown.mouseout"/>
                  </use>
                  <path fill="none" stroke="white" stroke-width="1.5" d="M0,-3.0v7 M-2.5,-0.5L0,-3.0L2.5,-0.5"/>
                </g>
                <g id="arrowLeft" xlink:href="#dirArrow" transform="rotate(270) translate(-36 17)" onmousedown="handlePan(-1,0)">
                  <use xlink:href="#rim" fill="#404040">
                        <set attributeName="fill" to="#808080" begin="arrowLeft.mouseover" end="arrowLeft.mouseout"/>
                  </use>
                  <path fill="none" stroke="white" stroke-width="1.5" d="M0,-3.0v7 M-2.5,-0.5L0,-3.0L2.5,-0.5"/>
                </g>
        </g>
        <svg viewBox="0 0 15 15" width="100%" height="30px" preserveAspectRatio="xMaxYMin meet">
         <g id="arrow_out" transform="scale(0.3 0.3)">
          <a xlink:href="lz4_8c_a6efaf92ef3c802858a2246a5a588dcb9_a6efaf92ef3c802858a2246a5a588dcb9_cgraph_org.svg" target="_base">
           <rect id="button" ry="5" rx="5" y="6" x="6" height="38" width="38"
                fill="#f2f5e9" fill-opacity="0.5" stroke="#606060" stroke-width="1.0"/>
           <path id="arrow"
             d="M 11.500037,31.436501 C 11.940474,20.09759 22.043105,11.32322 32.158766,21.979434 L 37.068811,17.246167 C 37.068811,17.246167 37.088388,32 37.088388,32 L 22.160133,31.978069 C 22.160133,31.978069 26.997745,27.140456 26.997745,27.140456 C 18.528582,18.264221 13.291696,25.230495 11.500037,31.436501 z"
             style="fill:#404040;"/>
          </a>
         </g>
        </svg>
</svg>
