<?xml version="1.0" encoding="UTF-8" standalone="no"?>
<!DOCTYPE svg PUBLIC "-//W3C//DTD SVG 1.1//EN"
 "http://www.w3.org/Graphics/SVG/1.1/DTD/svg11.dtd">
<!-- Generated by graphviz version 2.47.3 (20210619.1520)
 -->
<!-- Title: LZ4_decompress_safe_continue Pages: 1 -->
<!--zoomable 190 -->
<svg id="main" version="1.1" xmlns="http://www.w3.org/2000/svg" xmlns:xlink="http://www.w3.org/1999/xlink" xml:space="preserve" onload="init(evt)">
<style type="text/css"><![CDATA[
.edge:hover path { stroke: red; }
.edge:hover polygon { stroke: red; fill: red; }
]]></style>
<script type="text/javascript"><![CDATA[
var edges = document.getElementsByTagName('g');
if (edges && edges.length) {
  for (var i=0;i<edges.length;i++) {
    if (edges[i].id.substr(0,4)=='edge') {
      edges[i].setAttribute('class','edge');
    }
  }
}
]]></script>
        <defs>
                <circle id="rim" cx="0" cy="0" r="7"/>
                <circle id="rim2" cx="0" cy="0" r="3.5"/>
                <g id="zoomPlus">
                        <use xlink:href="#rim" fill="#404040">
                                <set attributeName="fill" to="#808080" begin="zoomplus.mouseover" end="zoomplus.mouseout"/>
                        </use>
                        <path d="M-4,0h8M0,-4v8" fill="none" stroke="white" stroke-width="1.5" pointer-events="none"/>
                </g>
                <g id="zoomMin">
                        <use xlink:href="#rim" fill="#404040">
                                <set attributeName="fill" to="#808080" begin="zoomminus.mouseover" end="zoomminus.mouseout"/>
                        </use>
                        <path d="M-4,0h8" fill="none" stroke="white" stroke-width="1.5" pointer-events="none"/>
                </g>
                <g id="dirArrow">
                        <path fill="none" stroke="white" stroke-width="1.5" d="M0,-3.0v7 M-2.5,-0.5L0,-3.0L2.5,-0.5"/>
                </g>
               <g id="resetDef">
                       <use xlink:href="#rim2" fill="#404040">
                               <set attributeName="fill" to="#808080" begin="reset.mouseover" end="reset.mouseout"/>
                       </use>
               </g>
        </defs>

<script type="text/javascript">
var viewWidth = 809;
var viewHeight = 190;
var sectionId = 'dynsection-0';
</script>
<script xlink:href="../../svgpan.js"/>
<svg id="graph" class="graph">
<g id="viewport">
<title>LZ4_decompress_safe_continue</title>
<!-- Node1 -->
<g id="node1" class="node">
<title>Node1</title>
<g id="a_node1"><a xlink:title=" ">
<polygon fill="#bfbfbf" stroke="black" points="0,-80.5 0,-101.5 188,-101.5 188,-80.5 0,-80.5"/>
<text text-anchor="middle" x="94" y="-87.9" font-family="Helvetica,sans-Serif" font-size="12.00">LZ4_decompress_safe_continue</text>
</a>
</g>
</g>
<!-- Node2 -->
<g id="node2" class="node">
<title>Node2</title>
<g id="a_node2"><a xlink:href="../../d4/d05/lz4_8c_ae753d1e5bc9c6a1529b1fe73d39a4972.html#ae753d1e5bc9c6a1529b1fe73d39a4972" target="_top" xlink:title=" ">
<polygon fill="none" stroke="black" points="267,-160.5 267,-181.5 405,-181.5 405,-160.5 267,-160.5"/>
<text text-anchor="middle" x="336" y="-167.9" font-family="Helvetica,sans-Serif" font-size="12.00">LZ4_decompress_safe</text>
</a>
</g>
</g>
<!-- Node1&#45;&gt;Node2 -->
<g id="edge1" class="edge">
<title>Node1&#45;&gt;Node2</title>
<path fill="none" stroke="midnightblue" d="M113.62,-101.53C138.16,-114.97 183.03,-138.02 224,-151 234.43,-154.31 245.6,-157.12 256.69,-159.5"/>
<polygon fill="midnightblue" stroke="midnightblue" points="256.32,-163 266.82,-161.57 257.72,-156.14 256.32,-163"/>
</g>
<!-- Node10 -->
<g id="node8" class="node">
<title>Node10</title>
<g id="a_node8"><a xlink:href="../../d4/d05/lz4_8c_a8dbbbc837a88da1386c24d27d5cffe81.html#a8dbbbc837a88da1386c24d27d5cffe81" target="_top" xlink:title=" ">
<polygon fill="none" stroke="black" points="235.5,-120.5 235.5,-141.5 436.5,-141.5 436.5,-120.5 235.5,-120.5"/>
<text text-anchor="middle" x="336" y="-127.9" font-family="Helvetica,sans-Serif" font-size="12.00">LZ4_decompress_safe_doubleDict</text>
</a>
</g>
</g>
<!-- Node1&#45;&gt;Node10 -->
<g id="edge7" class="edge">
<title>Node1&#45;&gt;Node10</title>
<path fill="none" stroke="midnightblue" d="M158.06,-101.51C189.9,-106.82 228.71,-113.28 261.86,-118.81"/>
<polygon fill="midnightblue" stroke="midnightblue" points="261.51,-122.3 271.95,-120.49 262.66,-115.39 261.51,-122.3"/>
</g>
<!-- Node11 -->
<g id="node9" class="node">
<title>Node11</title>
<g id="a_node9"><a xlink:href="../../d4/d05/lz4_8c_a8bb3038074030f03d5b70229b9841a51.html#a8bb3038074030f03d5b70229b9841a51" target="_top" xlink:title=" ">
<polygon fill="none" stroke="black" points="231.5,-80.5 231.5,-101.5 440.5,-101.5 440.5,-80.5 231.5,-80.5"/>
<text text-anchor="middle" x="336" y="-87.9" font-family="Helvetica,sans-Serif" font-size="12.00">LZ4_decompress_safe_forceExtDict</text>
</a>
</g>
</g>
<!-- Node1&#45;&gt;Node11 -->
<g id="edge9" class="edge">
<title>Node1&#45;&gt;Node11</title>
<path fill="none" stroke="midnightblue" d="M188.13,-91C198.93,-91 210.03,-91 221.06,-91"/>
<polygon fill="midnightblue" stroke="midnightblue" points="221.16,-94.5 231.16,-91 221.16,-87.5 221.16,-94.5"/>
</g>
<!-- Node12 -->
<g id="node10" class="node">
<title>Node12</title>
<g id="a_node10"><a xlink:href="../../d4/d05/lz4_8c_a2ceb6bc3c28b8e95a220343c6c40bed6.html#a2ceb6bc3c28b8e95a220343c6c40bed6" target="_top" xlink:title=" ">
<polygon fill="none" stroke="black" points="228.5,-40.5 228.5,-61.5 443.5,-61.5 443.5,-40.5 228.5,-40.5"/>
<text text-anchor="middle" x="336" y="-47.9" font-family="Helvetica,sans-Serif" font-size="12.00">LZ4_decompress_safe_withPrefix64k</text>
</a>
</g>
</g>
<!-- Node1&#45;&gt;Node12 -->
<g id="edge11" class="edge">
<title>Node1&#45;&gt;Node12</title>
<path fill="none" stroke="midnightblue" d="M158.06,-80.49C189.9,-75.18 228.71,-68.72 261.86,-63.19"/>
<polygon fill="midnightblue" stroke="midnightblue" points="262.66,-66.61 271.95,-61.51 261.51,-59.7 262.66,-66.61"/>
</g>
<!-- Node13 -->
<g id="node11" class="node">
<title>Node13</title>
<g id="a_node11"><a xlink:href="../../d4/d05/lz4_8c_a7686ce8b0d531b982551ab501b65c067.html#a7686ce8b0d531b982551ab501b65c067" target="_top" xlink:title=" ">
<polygon fill="none" stroke="black" points="224,-0.5 224,-21.5 448,-21.5 448,-0.5 224,-0.5"/>
<text text-anchor="middle" x="336" y="-7.9" font-family="Helvetica,sans-Serif" font-size="12.00">LZ4_decompress_safe_withSmallPrefix</text>
</a>
</g>
</g>
<!-- Node1&#45;&gt;Node13 -->
<g id="edge13" class="edge">
<title>Node1&#45;&gt;Node13</title>
<path fill="none" stroke="midnightblue" d="M113.62,-80.47C138.16,-67.03 183.03,-43.98 224,-31 232.7,-28.24 241.92,-25.83 251.17,-23.72"/>
<polygon fill="midnightblue" stroke="midnightblue" points="252.17,-27.08 261.21,-21.55 250.69,-20.24 252.17,-27.08"/>
</g>
<!-- Node3 -->
<g id="node3" class="node">
<title>Node3</title>
<g id="a_node3"><a xlink:href="../../d4/d05/lz4_8c_ac53b33bff098af0f44931aaae87ef585.html#ac53b33bff098af0f44931aaae87ef585" target="_top" xlink:title=" ">
<polygon fill="none" stroke="black" points="484,-80.5 484,-101.5 639,-101.5 639,-80.5 484,-80.5"/>
<text text-anchor="middle" x="561.5" y="-87.9" font-family="Helvetica,sans-Serif" font-size="12.00">LZ4_decompress_generic</text>
</a>
</g>
</g>
<!-- Node2&#45;&gt;Node3 -->
<g id="edge2" class="edge">
<title>Node2&#45;&gt;Node3</title>
<path fill="none" stroke="midnightblue" d="M405.07,-162.19C419.46,-159.38 434.4,-155.72 448,-151 479.84,-139.95 513.6,-120.82 535.73,-107.13"/>
<polygon fill="midnightblue" stroke="midnightblue" points="537.87,-109.92 544.47,-101.64 534.14,-104 537.87,-109.92"/>
</g>
<!-- Node4 -->
<g id="node4" class="node">
<title>Node4</title>
<g id="a_node4"><a xlink:href="../../d4/d05/lz4_8c_a69a8c81f7731ff4ae0d292541bbb2d69.html#a69a8c81f7731ff4ae0d292541bbb2d69" target="_top" xlink:title=" ">
<polygon fill="none" stroke="red" points="690,-140.5 690,-161.5 786,-161.5 786,-140.5 690,-140.5"/>
<text text-anchor="middle" x="738" y="-147.9" font-family="Helvetica,sans-Serif" font-size="12.00">LZ4_readLE16</text>
</a>
</g>
</g>
<!-- Node3&#45;&gt;Node4 -->
<g id="edge3" class="edge">
<title>Node3&#45;&gt;Node4</title>
<path fill="none" stroke="midnightblue" d="M591.55,-101.6C614.22,-109.8 646.53,-121.35 675,-131 681.12,-133.07 687.59,-135.22 693.95,-137.3"/>
<polygon fill="midnightblue" stroke="midnightblue" points="693.21,-140.73 703.8,-140.49 695.37,-134.07 693.21,-140.73"/>
</g>
<!-- Node7 -->
<g id="node5" class="node">
<title>Node7</title>
<g id="a_node5"><a xlink:href="../../d4/d05/lz4_8c_a07728e73c2d01917fa46e28357fb6fd1.html#a07728e73c2d01917fa46e28357fb6fd1" target="_top" xlink:title=" ">
<polygon fill="none" stroke="black" points="689,-100.5 689,-121.5 787,-121.5 787,-100.5 689,-100.5"/>
<text text-anchor="middle" x="738" y="-107.9" font-family="Helvetica,sans-Serif" font-size="12.00">LZ4_wildCopy8</text>
</a>
</g>
</g>
<!-- Node3&#45;&gt;Node7 -->
<g id="edge4" class="edge">
<title>Node3&#45;&gt;Node7</title>
<path fill="none" stroke="midnightblue" d="M639.04,-99.77C652.33,-101.3 665.97,-102.86 678.68,-104.32"/>
<polygon fill="midnightblue" stroke="midnightblue" points="678.31,-107.8 688.65,-105.46 679.11,-100.84 678.31,-107.8"/>
</g>
<!-- Node8 -->
<g id="node6" class="node">
<title>Node8</title>
<g id="a_node6"><a xlink:href="../../d4/d05/lz4_8c_a2e50fa2df2ee7536797308f96806df83.html#a2e50fa2df2ee7536797308f96806df83" target="_top" xlink:title=" ">
<polygon fill="none" stroke="black" points="697,-60.5 697,-81.5 779,-81.5 779,-60.5 697,-60.5"/>
<text text-anchor="middle" x="738" y="-67.9" font-family="Helvetica,sans-Serif" font-size="12.00">LZ4_write32</text>
</a>
</g>
</g>
<!-- Node3&#45;&gt;Node8 -->
<g id="edge5" class="edge">
<title>Node3&#45;&gt;Node8</title>
<path fill="none" stroke="midnightblue" d="M639.04,-82.23C655.26,-80.37 671.98,-78.45 686.91,-76.74"/>
<polygon fill="midnightblue" stroke="midnightblue" points="687.4,-80.21 696.94,-75.59 686.61,-73.25 687.4,-80.21"/>
</g>
<!-- Node9 -->
<g id="node7" class="node">
<title>Node9</title>
<g id="a_node7"><a xlink:href="../../d4/d05/lz4_8c_a54ff5f47024f14f6cbc486fa483811f4.html#a54ff5f47024f14f6cbc486fa483811f4" target="_top" xlink:title=" ">
<polygon fill="none" stroke="black" points="675,-20.5 675,-41.5 801,-41.5 801,-20.5 675,-20.5"/>
<text text-anchor="middle" x="738" y="-27.9" font-family="Helvetica,sans-Serif" font-size="12.00">read_variable_length</text>
</a>
</g>
</g>
<!-- Node3&#45;&gt;Node9 -->
<g id="edge6" class="edge">
<title>Node3&#45;&gt;Node9</title>
<path fill="none" stroke="midnightblue" d="M591.55,-80.4C614.22,-72.2 646.53,-60.65 675,-51 681.12,-48.93 687.59,-46.78 693.95,-44.7"/>
<polygon fill="midnightblue" stroke="midnightblue" points="695.37,-47.93 703.8,-41.51 693.21,-41.27 695.37,-47.93"/>
</g>
<!-- Node10&#45;&gt;Node3 -->
<g id="edge8" class="edge">
<title>Node10&#45;&gt;Node3</title>
<path fill="none" stroke="midnightblue" d="M395.72,-120.49C425.12,-115.23 460.89,-108.83 491.59,-103.33"/>
<polygon fill="midnightblue" stroke="midnightblue" points="492.56,-106.72 501.78,-101.51 491.32,-99.83 492.56,-106.72"/>
</g>
<!-- Node11&#45;&gt;Node3 -->
<g id="edge10" class="edge">
<title>Node11&#45;&gt;Node3</title>
<path fill="none" stroke="midnightblue" d="M440.57,-91C451.65,-91 462.83,-91 473.68,-91"/>
<polygon fill="midnightblue" stroke="midnightblue" points="473.97,-94.5 483.97,-91 473.97,-87.5 473.97,-94.5"/>
</g>
<!-- Node12&#45;&gt;Node3 -->
<g id="edge12" class="edge">
<title>Node12&#45;&gt;Node3</title>
<path fill="none" stroke="midnightblue" d="M395.72,-61.51C425.12,-66.77 460.89,-73.17 491.59,-78.67"/>
<polygon fill="midnightblue" stroke="midnightblue" points="491.32,-82.17 501.78,-80.49 492.56,-75.28 491.32,-82.17"/>
</g>
<!-- Node13&#45;&gt;Node3 -->
<g id="edge14" class="edge">
<title>Node13&#45;&gt;Node3</title>
<path fill="none" stroke="midnightblue" d="M413.34,-21.51C425.11,-24.05 436.99,-27.18 448,-31 479.84,-42.05 513.6,-61.18 535.73,-74.87"/>
<polygon fill="midnightblue" stroke="midnightblue" points="534.14,-78 544.47,-80.36 537.87,-72.08 534.14,-78"/>
</g>
</g>
</svg>
        <g id="navigator" transform="translate(0 0)" fill="#404254">
                <rect fill="#f2f5e9" fill-opacity="0.5" stroke="#606060" stroke-width=".5" x="0" y="0" width="60" height="60"/>
                <use id="zoomplus" xlink:href="#zoomPlus" x="17" y="9" onmousedown="handleZoom(evt,'in')"/>
                <use id="zoomminus" xlink:href="#zoomMin" x="42" y="9" onmousedown="handleZoom(evt,'out')"/>
                <use id="reset" xlink:href="#resetDef" x="30" y="36" onmousedown="handleReset()"/>
                <g id="arrowUp" xlink:href="#dirArrow" transform="translate(30 24)" onmousedown="handlePan(0,-1)">
                  <use xlink:href="#rim" fill="#404040">
                        <set attributeName="fill" to="#808080" begin="arrowUp.mouseover" end="arrowUp.mouseout"/>
                  </use>
                  <path fill="none" stroke="white" stroke-width="1.5" d="M0,-3.0v7 M-2.5,-0.5L0,-3.0L2.5,-0.5"/>
                </g>
                <g id="arrowRight" xlink:href="#dirArrow" transform="rotate(90) translate(36 -43)" onmousedown="handlePan(1,0)">
                  <use xlink:href="#rim" fill="#404040">
                        <set attributeName="fill" to="#808080" begin="arrowRight.mouseover" end="arrowRight.mouseout"/>
                  </use>
                  <path fill="none" stroke="white" stroke-width="1.5" d="M0,-3.0v7 M-2.5,-0.5L0,-3.0L2.5,-0.5"/>
                </g>
                <g id="arrowDown" xlink:href="#dirArrow" transform="rotate(180) translate(-30 -48)" onmousedown="handlePan(0,1)">
                  <use xlink:href="#rim" fill="#404040">
                        <set attributeName="fill" to="#808080" begin="arrowDown.mouseover" end="arrowDown.mouseout"/>
                  </use>
                  <path fill="none" stroke="white" stroke-width="1.5" d="M0,-3.0v7 M-2.5,-0.5L0,-3.0L2.5,-0.5"/>
                </g>
                <g id="arrowLeft" xlink:href="#dirArrow" transform="rotate(270) translate(-36 17)" onmousedown="handlePan(-1,0)">
                  <use xlink:href="#rim" fill="#404040">
                        <set attributeName="fill" to="#808080" begin="arrowLeft.mouseover" end="arrowLeft.mouseout"/>
                  </use>
                  <path fill="none" stroke="white" stroke-width="1.5" d="M0,-3.0v7 M-2.5,-0.5L0,-3.0L2.5,-0.5"/>
                </g>
        </g>
        <svg viewBox="0 0 15 15" width="100%" height="30px" preserveAspectRatio="xMaxYMin meet">
         <g id="arrow_out" transform="scale(0.3 0.3)">
          <a xlink:href="lz4_8c_aa04e6d12be3e13001d9b01cd73c58111_aa04e6d12be3e13001d9b01cd73c58111_cgraph_org.svg" target="_base">
           <rect id="button" ry="5" rx="5" y="6" x="6" height="38" width="38"
                fill="#f2f5e9" fill-opacity="0.5" stroke="#606060" stroke-width="1.0"/>
           <path id="arrow"
             d="M 11.500037,31.436501 C 11.940474,20.09759 22.043105,11.32322 32.158766,21.979434 L 37.068811,17.246167 C 37.068811,17.246167 37.088388,32 37.088388,32 L 22.160133,31.978069 C 22.160133,31.978069 26.997745,27.140456 26.997745,27.140456 C 18.528582,18.264221 13.291696,25.230495 11.500037,31.436501 z"
             style="fill:#404040;"/>
          </a>
         </g>
        </svg>
</svg>
