<?xml version="1.0" encoding="UTF-8" standalone="no"?>
<!DOCTYPE svg PUBLIC "-//W3C//DTD SVG 1.1//EN"
 "http://www.w3.org/Graphics/SVG/1.1/DTD/svg11.dtd">
<!-- Generated by graphviz version 2.47.3 (20210619.1520)
 -->
<!-- Title: LZ4_decompress_safe_withSmallPrefix Pages: 1 -->
<!--zoomable 170 -->
<svg id="main" version="1.1" xmlns="http://www.w3.org/2000/svg" xmlns:xlink="http://www.w3.org/1999/xlink" xml:space="preserve" onload="init(evt)">
<style type="text/css"><![CDATA[
.edge:hover path { stroke: red; }
.edge:hover polygon { stroke: red; fill: red; }
]]></style>
<script type="text/javascript"><![CDATA[
var edges = document.getElementsByTagName('g');
if (edges && edges.length) {
  for (var i=0;i<edges.length;i++) {
    if (edges[i].id.substr(0,4)=='edge') {
      edges[i].setAttribute('class','edge');
    }
  }
}
]]></script>
        <defs>
                <circle id="rim" cx="0" cy="0" r="7"/>
                <circle id="rim2" cx="0" cy="0" r="3.5"/>
                <g id="zoomPlus">
                        <use xlink:href="#rim" fill="#404040">
                                <set attributeName="fill" to="#808080" begin="zoomplus.mouseover" end="zoomplus.mouseout"/>
                        </use>
                        <path d="M-4,0h8M0,-4v8" fill="none" stroke="white" stroke-width="1.5" pointer-events="none"/>
                </g>
                <g id="zoomMin">
                        <use xlink:href="#rim" fill="#404040">
                                <set attributeName="fill" to="#808080" begin="zoomminus.mouseover" end="zoomminus.mouseout"/>
                        </use>
                        <path d="M-4,0h8" fill="none" stroke="white" stroke-width="1.5" pointer-events="none"/>
                </g>
                <g id="dirArrow">
                        <path fill="none" stroke="white" stroke-width="1.5" d="M0,-3.0v7 M-2.5,-0.5L0,-3.0L2.5,-0.5"/>
                </g>
               <g id="resetDef">
                       <use xlink:href="#rim2" fill="#404040">
                               <set attributeName="fill" to="#808080" begin="reset.mouseover" end="reset.mouseout"/>
                       </use>
               </g>
        </defs>

<script type="text/javascript">
var viewWidth = 735;
var viewHeight = 170;
var sectionId = 'dynsection-0';
</script>
<script xlink:href="../../svgpan.js"/>
<svg id="graph" class="graph">
<g id="viewport">
<title>LZ4_decompress_safe_withSmallPrefix</title>
<!-- Node1 -->
<g id="node1" class="node">
<title>Node1</title>
<g id="a_node1"><a xlink:title=" ">
<polygon fill="#bfbfbf" stroke="black" points="0,-60.5 0,-81.5 224,-81.5 224,-60.5 0,-60.5"/>
<text text-anchor="middle" x="112" y="-67.9" font-family="Helvetica,sans-Serif" font-size="12.00">LZ4_decompress_safe_withSmallPrefix</text>
</a>
</g>
</g>
<!-- Node2 -->
<g id="node2" class="node">
<title>Node2</title>
<g id="a_node2"><a xlink:href="../../d4/d05/lz4_8c_ac53b33bff098af0f44931aaae87ef585.html#ac53b33bff098af0f44931aaae87ef585" target="_top" xlink:title=" ">
<polygon fill="none" stroke="black" points="260,-60.5 260,-81.5 415,-81.5 415,-60.5 260,-60.5"/>
<text text-anchor="middle" x="337.5" y="-67.9" font-family="Helvetica,sans-Serif" font-size="12.00">LZ4_decompress_generic</text>
</a>
</g>
</g>
<!-- Node1&#45;&gt;Node2 -->
<g id="edge1" class="edge">
<title>Node1&#45;&gt;Node2</title>
<path fill="none" stroke="midnightblue" d="M224.1,-71C232.66,-71 241.24,-71 249.61,-71"/>
<polygon fill="midnightblue" stroke="midnightblue" points="249.72,-74.5 259.72,-71 249.72,-67.5 249.72,-74.5"/>
</g>
<!-- Node3 -->
<g id="node3" class="node">
<title>Node3</title>
<g id="a_node3"><a xlink:href="../../d4/d05/lz4_8c_a69a8c81f7731ff4ae0d292541bbb2d69.html#a69a8c81f7731ff4ae0d292541bbb2d69" target="_top" xlink:title=" ">
<polygon fill="none" stroke="black" points="466,-120.5 466,-141.5 562,-141.5 562,-120.5 466,-120.5"/>
<text text-anchor="middle" x="514" y="-127.9" font-family="Helvetica,sans-Serif" font-size="12.00">LZ4_readLE16</text>
</a>
</g>
</g>
<!-- Node2&#45;&gt;Node3 -->
<g id="edge2" class="edge">
<title>Node2&#45;&gt;Node3</title>
<path fill="none" stroke="midnightblue" d="M367.55,-81.6C390.22,-89.8 422.53,-101.35 451,-111 457.12,-113.07 463.59,-115.22 469.95,-117.3"/>
<polygon fill="midnightblue" stroke="midnightblue" points="469.21,-120.73 479.8,-120.49 471.37,-114.07 469.21,-120.73"/>
</g>
<!-- Node6 -->
<g id="node6" class="node">
<title>Node6</title>
<g id="a_node6"><a xlink:href="../../d4/d05/lz4_8c_a07728e73c2d01917fa46e28357fb6fd1.html#a07728e73c2d01917fa46e28357fb6fd1" target="_top" xlink:title=" ">
<polygon fill="none" stroke="black" points="465,-80.5 465,-101.5 563,-101.5 563,-80.5 465,-80.5"/>
<text text-anchor="middle" x="514" y="-87.9" font-family="Helvetica,sans-Serif" font-size="12.00">LZ4_wildCopy8</text>
</a>
</g>
</g>
<!-- Node2&#45;&gt;Node6 -->
<g id="edge5" class="edge">
<title>Node2&#45;&gt;Node6</title>
<path fill="none" stroke="midnightblue" d="M415.04,-79.77C428.33,-81.3 441.97,-82.86 454.68,-84.32"/>
<polygon fill="midnightblue" stroke="midnightblue" points="454.31,-87.8 464.65,-85.46 455.11,-80.84 454.31,-87.8"/>
</g>
<!-- Node7 -->
<g id="node7" class="node">
<title>Node7</title>
<g id="a_node7"><a xlink:href="../../d4/d05/lz4_8c_a2e50fa2df2ee7536797308f96806df83.html#a2e50fa2df2ee7536797308f96806df83" target="_top" xlink:title=" ">
<polygon fill="none" stroke="black" points="473,-40.5 473,-61.5 555,-61.5 555,-40.5 473,-40.5"/>
<text text-anchor="middle" x="514" y="-47.9" font-family="Helvetica,sans-Serif" font-size="12.00">LZ4_write32</text>
</a>
</g>
</g>
<!-- Node2&#45;&gt;Node7 -->
<g id="edge6" class="edge">
<title>Node2&#45;&gt;Node7</title>
<path fill="none" stroke="midnightblue" d="M415.04,-62.23C431.26,-60.37 447.98,-58.45 462.91,-56.74"/>
<polygon fill="midnightblue" stroke="midnightblue" points="463.4,-60.21 472.94,-55.59 462.61,-53.25 463.4,-60.21"/>
</g>
<!-- Node8 -->
<g id="node8" class="node">
<title>Node8</title>
<g id="a_node8"><a xlink:href="../../d4/d05/lz4_8c_a54ff5f47024f14f6cbc486fa483811f4.html#a54ff5f47024f14f6cbc486fa483811f4" target="_top" xlink:title=" ">
<polygon fill="none" stroke="black" points="451,-0.5 451,-21.5 577,-21.5 577,-0.5 451,-0.5"/>
<text text-anchor="middle" x="514" y="-7.9" font-family="Helvetica,sans-Serif" font-size="12.00">read_variable_length</text>
</a>
</g>
</g>
<!-- Node2&#45;&gt;Node8 -->
<g id="edge7" class="edge">
<title>Node2&#45;&gt;Node8</title>
<path fill="none" stroke="midnightblue" d="M367.55,-60.4C390.22,-52.2 422.53,-40.65 451,-31 457.12,-28.93 463.59,-26.78 469.95,-24.7"/>
<polygon fill="midnightblue" stroke="midnightblue" points="471.37,-27.93 479.8,-21.51 469.21,-21.27 471.37,-27.93"/>
</g>
<!-- Node4 -->
<g id="node4" class="node">
<title>Node4</title>
<g id="a_node4"><a xlink:href="../../d4/d05/lz4_8c_aa8a9ba402bf00e8e6c21691085ae9601.html#aa8a9ba402bf00e8e6c21691085ae9601" target="_top" xlink:title=" ">
<polygon fill="none" stroke="black" points="613,-140.5 613,-161.5 727,-161.5 727,-140.5 613,-140.5"/>
<text text-anchor="middle" x="670" y="-147.9" font-family="Helvetica,sans-Serif" font-size="12.00">LZ4_isLittleEndian</text>
</a>
</g>
</g>
<!-- Node3&#45;&gt;Node4 -->
<g id="edge3" class="edge">
<title>Node3&#45;&gt;Node4</title>
<path fill="none" stroke="midnightblue" d="M562.04,-137.11C574.8,-138.77 588.86,-140.59 602.47,-142.36"/>
<polygon fill="midnightblue" stroke="midnightblue" points="602.4,-145.88 612.77,-143.7 603.3,-138.94 602.4,-145.88"/>
</g>
<!-- Node5 -->
<g id="node5" class="node">
<title>Node5</title>
<g id="a_node5"><a xlink:href="../../d4/d05/lz4_8c_adceb4c7713e1bed1554da37458db6fb6.html#adceb4c7713e1bed1554da37458db6fb6" target="_top" xlink:title=" ">
<polygon fill="none" stroke="black" points="629.5,-100.5 629.5,-121.5 710.5,-121.5 710.5,-100.5 629.5,-100.5"/>
<text text-anchor="middle" x="670" y="-107.9" font-family="Helvetica,sans-Serif" font-size="12.00">LZ4_read16</text>
</a>
</g>
</g>
<!-- Node3&#45;&gt;Node5 -->
<g id="edge4" class="edge">
<title>Node3&#45;&gt;Node5</title>
<path fill="none" stroke="midnightblue" d="M562.04,-124.89C580.18,-122.54 600.94,-119.84 619.32,-117.45"/>
<polygon fill="midnightblue" stroke="midnightblue" points="619.78,-120.92 629.25,-116.16 618.88,-113.98 619.78,-120.92"/>
</g>
</g>
</svg>
        <g id="navigator" transform="translate(0 0)" fill="#404254">
                <rect fill="#f2f5e9" fill-opacity="0.5" stroke="#606060" stroke-width=".5" x="0" y="0" width="60" height="60"/>
                <use id="zoomplus" xlink:href="#zoomPlus" x="17" y="9" onmousedown="handleZoom(evt,'in')"/>
                <use id="zoomminus" xlink:href="#zoomMin" x="42" y="9" onmousedown="handleZoom(evt,'out')"/>
                <use id="reset" xlink:href="#resetDef" x="30" y="36" onmousedown="handleReset()"/>
                <g id="arrowUp" xlink:href="#dirArrow" transform="translate(30 24)" onmousedown="handlePan(0,-1)">
                  <use xlink:href="#rim" fill="#404040">
                        <set attributeName="fill" to="#808080" begin="arrowUp.mouseover" end="arrowUp.mouseout"/>
                  </use>
                  <path fill="none" stroke="white" stroke-width="1.5" d="M0,-3.0v7 M-2.5,-0.5L0,-3.0L2.5,-0.5"/>
                </g>
                <g id="arrowRight" xlink:href="#dirArrow" transform="rotate(90) translate(36 -43)" onmousedown="handlePan(1,0)">
                  <use xlink:href="#rim" fill="#404040">
                        <set attributeName="fill" to="#808080" begin="arrowRight.mouseover" end="arrowRight.mouseout"/>
                  </use>
                  <path fill="none" stroke="white" stroke-width="1.5" d="M0,-3.0v7 M-2.5,-0.5L0,-3.0L2.5,-0.5"/>
                </g>
                <g id="arrowDown" xlink:href="#dirArrow" transform="rotate(180) translate(-30 -48)" onmousedown="handlePan(0,1)">
                  <use xlink:href="#rim" fill="#404040">
                        <set attributeName="fill" to="#808080" begin="arrowDown.mouseover" end="arrowDown.mouseout"/>
                  </use>
                  <path fill="none" stroke="white" stroke-width="1.5" d="M0,-3.0v7 M-2.5,-0.5L0,-3.0L2.5,-0.5"/>
                </g>
                <g id="arrowLeft" xlink:href="#dirArrow" transform="rotate(270) translate(-36 17)" onmousedown="handlePan(-1,0)">
                  <use xlink:href="#rim" fill="#404040">
                        <set attributeName="fill" to="#808080" begin="arrowLeft.mouseover" end="arrowLeft.mouseout"/>
                  </use>
                  <path fill="none" stroke="white" stroke-width="1.5" d="M0,-3.0v7 M-2.5,-0.5L0,-3.0L2.5,-0.5"/>
                </g>
        </g>
        <svg viewBox="0 0 15 15" width="100%" height="30px" preserveAspectRatio="xMaxYMin meet">
         <g id="arrow_out" transform="scale(0.3 0.3)">
          <a xlink:href="lz4_8c_a7686ce8b0d531b982551ab501b65c067_a7686ce8b0d531b982551ab501b65c067_cgraph_org.svg" target="_base">
           <rect id="button" ry="5" rx="5" y="6" x="6" height="38" width="38"
                fill="#f2f5e9" fill-opacity="0.5" stroke="#606060" stroke-width="1.0"/>
           <path id="arrow"
             d="M 11.500037,31.436501 C 11.940474,20.09759 22.043105,11.32322 32.158766,21.979434 L 37.068811,17.246167 C 37.068811,17.246167 37.088388,32 37.088388,32 L 22.160133,31.978069 C 22.160133,31.978069 26.997745,27.140456 26.997745,27.140456 C 18.528582,18.264221 13.291696,25.230495 11.500037,31.436501 z"
             style="fill:#404040;"/>
          </a>
         </g>
        </svg>
</svg>
