<?xml version="1.0" encoding="UTF-8" standalone="no"?>
<!DOCTYPE svg PUBLIC "-//W3C//DTD SVG 1.1//EN"
 "http://www.w3.org/Graphics/SVG/1.1/DTD/svg11.dtd">
<!-- Generated by graphviz version 2.47.3 (20210619.1520)
 -->
<!-- Title: LZ4_decompress_safe_forceExtDict Pages: 1 -->
<svg width="720pt" height="170pt"
 viewBox="0.00 0.00 720.00 170.00" xmlns="http://www.w3.org/2000/svg" xmlns:xlink="http://www.w3.org/1999/xlink">
<g id="graph0" class="graph" transform="scale(1 1) rotate(0) translate(4 166)">
<title>LZ4_decompress_safe_forceExtDict</title>
<!-- Node1 -->
<g id="node1" class="node">
<title>Node1</title>
<g id="a_node1"><a xlink:title=" ">
<polygon fill="#bfbfbf" stroke="black" points="0,-60.5 0,-81.5 209,-81.5 209,-60.5 0,-60.5"/>
<text text-anchor="middle" x="104.5" y="-67.9" font-family="Helvetica,sans-Serif" font-size="12.00">LZ4_decompress_safe_forceExtDict</text>
</a>
</g>
</g>
<!-- Node2 -->
<g id="node2" class="node">
<title>Node2</title>
<g id="a_node2"><a xlink:href="../../d4/d05/lz4_8c_ac53b33bff098af0f44931aaae87ef585.html#ac53b33bff098af0f44931aaae87ef585" target="_top" xlink:title=" ">
<polygon fill="none" stroke="black" points="245,-60.5 245,-81.5 400,-81.5 400,-60.5 245,-60.5"/>
<text text-anchor="middle" x="322.5" y="-67.9" font-family="Helvetica,sans-Serif" font-size="12.00">LZ4_decompress_generic</text>
</a>
</g>
</g>
<!-- Node1&#45;&gt;Node2 -->
<g id="edge1" class="edge">
<title>Node1&#45;&gt;Node2</title>
<path fill="none" stroke="midnightblue" d="M209.07,-71C217.62,-71 226.2,-71 234.6,-71"/>
<polygon fill="midnightblue" stroke="midnightblue" points="234.75,-74.5 244.75,-71 234.75,-67.5 234.75,-74.5"/>
</g>
<!-- Node3 -->
<g id="node3" class="node">
<title>Node3</title>
<g id="a_node3"><a xlink:href="../../d4/d05/lz4_8c_a69a8c81f7731ff4ae0d292541bbb2d69.html#a69a8c81f7731ff4ae0d292541bbb2d69" target="_top" xlink:title=" ">
<polygon fill="none" stroke="black" points="451,-120.5 451,-141.5 547,-141.5 547,-120.5 451,-120.5"/>
<text text-anchor="middle" x="499" y="-127.9" font-family="Helvetica,sans-Serif" font-size="12.00">LZ4_readLE16</text>
</a>
</g>
</g>
<!-- Node2&#45;&gt;Node3 -->
<g id="edge2" class="edge">
<title>Node2&#45;&gt;Node3</title>
<path fill="none" stroke="midnightblue" d="M352.55,-81.6C375.22,-89.8 407.53,-101.35 436,-111 442.12,-113.07 448.59,-115.22 454.95,-117.3"/>
<polygon fill="midnightblue" stroke="midnightblue" points="454.21,-120.73 464.8,-120.49 456.37,-114.07 454.21,-120.73"/>
</g>
<!-- Node6 -->
<g id="node6" class="node">
<title>Node6</title>
<g id="a_node6"><a xlink:href="../../d4/d05/lz4_8c_a07728e73c2d01917fa46e28357fb6fd1.html#a07728e73c2d01917fa46e28357fb6fd1" target="_top" xlink:title=" ">
<polygon fill="none" stroke="black" points="450,-80.5 450,-101.5 548,-101.5 548,-80.5 450,-80.5"/>
<text text-anchor="middle" x="499" y="-87.9" font-family="Helvetica,sans-Serif" font-size="12.00">LZ4_wildCopy8</text>
</a>
</g>
</g>
<!-- Node2&#45;&gt;Node6 -->
<g id="edge5" class="edge">
<title>Node2&#45;&gt;Node6</title>
<path fill="none" stroke="midnightblue" d="M400.04,-79.77C413.33,-81.3 426.97,-82.86 439.68,-84.32"/>
<polygon fill="midnightblue" stroke="midnightblue" points="439.31,-87.8 449.65,-85.46 440.11,-80.84 439.31,-87.8"/>
</g>
<!-- Node7 -->
<g id="node7" class="node">
<title>Node7</title>
<g id="a_node7"><a xlink:href="../../d4/d05/lz4_8c_a2e50fa2df2ee7536797308f96806df83.html#a2e50fa2df2ee7536797308f96806df83" target="_top" xlink:title=" ">
<polygon fill="none" stroke="black" points="458,-40.5 458,-61.5 540,-61.5 540,-40.5 458,-40.5"/>
<text text-anchor="middle" x="499" y="-47.9" font-family="Helvetica,sans-Serif" font-size="12.00">LZ4_write32</text>
</a>
</g>
</g>
<!-- Node2&#45;&gt;Node7 -->
<g id="edge6" class="edge">
<title>Node2&#45;&gt;Node7</title>
<path fill="none" stroke="midnightblue" d="M400.04,-62.23C416.26,-60.37 432.98,-58.45 447.91,-56.74"/>
<polygon fill="midnightblue" stroke="midnightblue" points="448.4,-60.21 457.94,-55.59 447.61,-53.25 448.4,-60.21"/>
</g>
<!-- Node8 -->
<g id="node8" class="node">
<title>Node8</title>
<g id="a_node8"><a xlink:href="../../d4/d05/lz4_8c_a54ff5f47024f14f6cbc486fa483811f4.html#a54ff5f47024f14f6cbc486fa483811f4" target="_top" xlink:title=" ">
<polygon fill="none" stroke="black" points="436,-0.5 436,-21.5 562,-21.5 562,-0.5 436,-0.5"/>
<text text-anchor="middle" x="499" y="-7.9" font-family="Helvetica,sans-Serif" font-size="12.00">read_variable_length</text>
</a>
</g>
</g>
<!-- Node2&#45;&gt;Node8 -->
<g id="edge7" class="edge">
<title>Node2&#45;&gt;Node8</title>
<path fill="none" stroke="midnightblue" d="M352.55,-60.4C375.22,-52.2 407.53,-40.65 436,-31 442.12,-28.93 448.59,-26.78 454.95,-24.7"/>
<polygon fill="midnightblue" stroke="midnightblue" points="456.37,-27.93 464.8,-21.51 454.21,-21.27 456.37,-27.93"/>
</g>
<!-- Node4 -->
<g id="node4" class="node">
<title>Node4</title>
<g id="a_node4"><a xlink:href="../../d4/d05/lz4_8c_aa8a9ba402bf00e8e6c21691085ae9601.html#aa8a9ba402bf00e8e6c21691085ae9601" target="_top" xlink:title=" ">
<polygon fill="none" stroke="black" points="598,-140.5 598,-161.5 712,-161.5 712,-140.5 598,-140.5"/>
<text text-anchor="middle" x="655" y="-147.9" font-family="Helvetica,sans-Serif" font-size="12.00">LZ4_isLittleEndian</text>
</a>
</g>
</g>
<!-- Node3&#45;&gt;Node4 -->
<g id="edge3" class="edge">
<title>Node3&#45;&gt;Node4</title>
<path fill="none" stroke="midnightblue" d="M547.04,-137.11C559.8,-138.77 573.86,-140.59 587.47,-142.36"/>
<polygon fill="midnightblue" stroke="midnightblue" points="587.4,-145.88 597.77,-143.7 588.3,-138.94 587.4,-145.88"/>
</g>
<!-- Node5 -->
<g id="node5" class="node">
<title>Node5</title>
<g id="a_node5"><a xlink:href="../../d4/d05/lz4_8c_adceb4c7713e1bed1554da37458db6fb6.html#adceb4c7713e1bed1554da37458db6fb6" target="_top" xlink:title=" ">
<polygon fill="none" stroke="black" points="614.5,-100.5 614.5,-121.5 695.5,-121.5 695.5,-100.5 614.5,-100.5"/>
<text text-anchor="middle" x="655" y="-107.9" font-family="Helvetica,sans-Serif" font-size="12.00">LZ4_read16</text>
</a>
</g>
</g>
<!-- Node3&#45;&gt;Node5 -->
<g id="edge4" class="edge">
<title>Node3&#45;&gt;Node5</title>
<path fill="none" stroke="midnightblue" d="M547.04,-124.89C565.18,-122.54 585.94,-119.84 604.32,-117.45"/>
<polygon fill="midnightblue" stroke="midnightblue" points="604.78,-120.92 614.25,-116.16 603.88,-113.98 604.78,-120.92"/>
</g>
</g>
</svg>
