<?xml version="1.0" encoding="UTF-8" standalone="no"?>
<!DOCTYPE svg PUBLIC "-//W3C//DTD SVG 1.1//EN"
 "http://www.w3.org/Graphics/SVG/1.1/DTD/svg11.dtd">
<!-- Generated by graphviz version 2.47.3 (20210619.1520)
 -->
<!-- Title: ExFatPartition::dmpSector Pages: 1 -->
<svg width="841pt" height="208pt"
 viewBox="0.00 0.00 841.00 208.34" xmlns="http://www.w3.org/2000/svg" xmlns:xlink="http://www.w3.org/1999/xlink">
<g id="graph0" class="graph" transform="scale(1 1) rotate(0) translate(4 204.34)">
<title>ExFatPartition::dmpSector</title>
<polygon fill="white" stroke="transparent" points="-4,4 -4,-204.34 837,-204.34 837,4 -4,4"/>
<!-- Node1 -->
<g id="node1" class="node">
<title>Node1</title>
<g id="a_node1"><a xlink:title=" ">
<polygon fill="#bfbfbf" stroke="black" points="0,-72.84 0,-93.84 155,-93.84 155,-72.84 0,-72.84"/>
<text text-anchor="middle" x="77.5" y="-80.24" font-family="Helvetica,sans-Serif" font-size="12.00">ExFatPartition::dmpSector</text>
</a>
</g>
</g>
<!-- Node2 -->
<g id="node2" class="node">
<title>Node2</title>
<g id="a_node2"><a xlink:href="../../d4/de9/class_ex_fat_partition.html#a119f5be5695880d2a16f1c0b3c3ff369" target="_top" xlink:title=" ">
<polygon fill="white" stroke="black" points="191,-132.34 191,-166.34 346,-166.34 346,-132.34 191,-132.34"/>
<text text-anchor="start" x="199" y="-152.74" font-family="Helvetica,sans-Serif" font-size="12.00">ExFatPartition::dataCache</text>
<text text-anchor="middle" x="268.5" y="-139.74" font-family="Helvetica,sans-Serif" font-size="12.00">Prepare</text>
</a>
</g>
</g>
<!-- Node1&#45;&gt;Node2 -->
<g id="edge1" class="edge">
<title>Node1&#45;&gt;Node2</title>
<path fill="none" stroke="midnightblue" d="M108.87,-93.95C135.84,-103.37 176.01,-117.39 209.18,-128.98"/>
<polygon fill="midnightblue" stroke="midnightblue" points="208.18,-132.34 218.77,-132.33 210.49,-125.73 208.18,-132.34"/>
</g>
<!-- Node30 -->
<g id="node7" class="node">
<title>Node30</title>
<g id="a_node7"><a xlink:href="../../da/dc3/_ex_fat_dbg_8cpp.html#a55d1092a0a775f867ae2addf15861c3a" target="_top" xlink:title=" ">
<polygon fill="white" stroke="black" points="239,-13.84 239,-34.84 298,-34.84 298,-13.84 239,-13.84"/>
<text text-anchor="middle" x="268.5" y="-21.24" font-family="Helvetica,sans-Serif" font-size="12.00">printHex</text>
</a>
</g>
</g>
<!-- Node1&#45;&gt;Node30 -->
<g id="edge7" class="edge">
<title>Node1&#45;&gt;Node30</title>
<path fill="none" stroke="midnightblue" d="M106.97,-72.78C129.59,-64.56 162.12,-53.11 191,-44.34 203.21,-40.64 216.64,-36.98 228.8,-33.84"/>
<polygon fill="midnightblue" stroke="midnightblue" points="229.83,-37.18 238.65,-31.32 228.1,-30.4 229.83,-37.18"/>
</g>
<!-- Node32 -->
<g id="node9" class="node">
<title>Node32</title>
<g id="a_node9"><a xlink:href="../../da/db3/class_print_basic.html#afdd5b2ee779058e5b7741c6e46f63f06" target="_top" xlink:title=" ">
<polygon fill="white" stroke="black" points="561.5,-33.84 561.5,-54.84 662.5,-54.84 662.5,-33.84 561.5,-33.84"/>
<text text-anchor="middle" x="612" y="-41.24" font-family="Helvetica,sans-Serif" font-size="12.00">PrintBasic::write</text>
</a>
</g>
</g>
<!-- Node1&#45;&gt;Node32 -->
<g id="edge15" class="edge">
<title>Node1&#45;&gt;Node32</title>
<path fill="none" stroke="midnightblue" d="M155.32,-91.12C239.18,-97.86 377.12,-103.77 494,-84.34 523.28,-79.48 555.05,-68.2 578.09,-58.86"/>
<polygon fill="midnightblue" stroke="midnightblue" points="579.5,-62.06 587.4,-55 576.82,-55.6 579.5,-62.06"/>
</g>
<!-- Node33 -->
<g id="node10" class="node">
<title>Node33</title>
<g id="a_node10"><a xlink:href="../../da/db3/class_print_basic.html#af89079da3793cc7778b6b8adb46e1fde" target="_top" xlink:title=" ">
<polygon fill="white" stroke="black" points="215,-53.84 215,-74.84 322,-74.84 322,-53.84 215,-53.84"/>
<text text-anchor="middle" x="268.5" y="-61.24" font-family="Helvetica,sans-Serif" font-size="12.00">PrintBasic::println</text>
</a>
</g>
</g>
<!-- Node1&#45;&gt;Node33 -->
<g id="edge11" class="edge">
<title>Node1&#45;&gt;Node33</title>
<path fill="none" stroke="midnightblue" d="M155.1,-75.64C171.55,-73.99 188.76,-72.26 204.62,-70.66"/>
<polygon fill="midnightblue" stroke="midnightblue" points="205.22,-74.12 214.82,-69.64 204.52,-67.16 205.22,-74.12"/>
</g>
<!-- Node3 -->
<g id="node3" class="node">
<title>Node3</title>
<g id="a_node3"><a xlink:href="../../d3/d77/class_fs_cache.html#a8c11f064a2ce0a380f522392f09d63cb" target="_top" xlink:title=" ">
<polygon fill="white" stroke="black" points="382,-138.84 382,-159.84 494,-159.84 494,-138.84 382,-138.84"/>
<text text-anchor="middle" x="438" y="-146.24" font-family="Helvetica,sans-Serif" font-size="12.00">FsCache::prepare</text>
</a>
</g>
</g>
<!-- Node2&#45;&gt;Node3 -->
<g id="edge2" class="edge">
<title>Node2&#45;&gt;Node3</title>
<path fill="none" stroke="midnightblue" d="M346.39,-149.34C354.73,-149.34 363.17,-149.34 371.36,-149.34"/>
<polygon fill="midnightblue" stroke="midnightblue" points="371.58,-152.84 381.58,-149.34 371.58,-145.84 371.58,-152.84"/>
</g>
<!-- Node4 -->
<g id="node4" class="node">
<title>Node4</title>
<g id="a_node4"><a xlink:href="../../d5/d4b/class_shared_spi_card.html#a61d86f4092f8ddbc7339d7cbcf6f70c0" target="_top" xlink:title=" ">
<polygon fill="white" stroke="red" points="530,-138.84 530,-159.84 694,-159.84 694,-138.84 530,-138.84"/>
<text text-anchor="middle" x="612" y="-146.24" font-family="Helvetica,sans-Serif" font-size="12.00">SharedSpiCard::readSector</text>
</a>
</g>
</g>
<!-- Node3&#45;&gt;Node4 -->
<g id="edge3" class="edge">
<title>Node3&#45;&gt;Node4</title>
<path fill="none" stroke="midnightblue" d="M494.37,-149.34C502.49,-149.34 511.02,-149.34 519.63,-149.34"/>
<polygon fill="midnightblue" stroke="midnightblue" points="519.75,-152.84 529.75,-149.34 519.75,-145.84 519.75,-152.84"/>
</g>
<!-- Node26 -->
<g id="node5" class="node">
<title>Node26</title>
<g id="a_node5"><a xlink:href="../../d3/d77/class_fs_cache.html#a5b90e145400de8687d9f34536b134130" target="_top" xlink:title=" ">
<polygon fill="white" stroke="black" points="730,-138.84 730,-159.84 833,-159.84 833,-138.84 730,-138.84"/>
<text text-anchor="middle" x="781.5" y="-146.24" font-family="Helvetica,sans-Serif" font-size="12.00">FsCache::sector</text>
</a>
</g>
</g>
<!-- Node3&#45;&gt;Node26 -->
<g id="edge4" class="edge">
<title>Node3&#45;&gt;Node26</title>
<path fill="none" stroke="midnightblue" d="M478.11,-138.8C494.07,-135.01 512.79,-131.21 530,-129.34 602.46,-121.47 621.58,-121.08 694,-129.34 706.93,-130.82 720.74,-133.5 733.44,-136.42"/>
<polygon fill="midnightblue" stroke="midnightblue" points="732.81,-139.87 743.35,-138.8 734.45,-133.06 732.81,-139.87"/>
</g>
<!-- Node27 -->
<g id="node6" class="node">
<title>Node27</title>
<g id="a_node6"><a xlink:href="../../d3/d77/class_fs_cache.html#a5a2c8fb432d7b7590ebb43200ca21893" target="_top" xlink:title=" ">
<polygon fill="white" stroke="red" points="565,-178.84 565,-199.84 659,-199.84 659,-178.84 565,-178.84"/>
<text text-anchor="middle" x="612" y="-186.24" font-family="Helvetica,sans-Serif" font-size="12.00">FsCache::sync</text>
</a>
</g>
</g>
<!-- Node3&#45;&gt;Node27 -->
<g id="edge5" class="edge">
<title>Node3&#45;&gt;Node27</title>
<path fill="none" stroke="midnightblue" d="M484.19,-159.85C506.13,-164.95 532.67,-171.13 555.8,-176.51"/>
<polygon fill="midnightblue" stroke="midnightblue" points="555.28,-179.98 565.81,-178.83 556.87,-173.16 555.28,-179.98"/>
</g>
<!-- Node27&#45;&gt;Node26 -->
<g id="edge6" class="edge">
<title>Node27&#45;&gt;Node26</title>
<path fill="none" stroke="midnightblue" d="M657.01,-178.83C678.37,-173.73 704.22,-167.56 726.74,-162.18"/>
<polygon fill="midnightblue" stroke="midnightblue" points="727.58,-165.58 736.49,-159.85 725.96,-158.77 727.58,-165.58"/>
</g>
<!-- Node31 -->
<g id="node8" class="node">
<title>Node31</title>
<g id="a_node8"><a xlink:href="../../da/db3/class_print_basic.html#a65247e790e6f8e209eb68a797bf96add" target="_top" xlink:title=" ">
<polygon fill="white" stroke="black" points="388.5,-13.84 388.5,-34.84 487.5,-34.84 487.5,-13.84 388.5,-13.84"/>
<text text-anchor="middle" x="438" y="-21.24" font-family="Helvetica,sans-Serif" font-size="12.00">PrintBasic::print</text>
</a>
</g>
</g>
<!-- Node30&#45;&gt;Node31 -->
<g id="edge8" class="edge">
<title>Node30&#45;&gt;Node31</title>
<path fill="none" stroke="midnightblue" d="M298.29,-24.34C320.19,-24.34 351.06,-24.34 378.12,-24.34"/>
<polygon fill="midnightblue" stroke="midnightblue" points="378.28,-27.84 388.28,-24.34 378.28,-20.84 378.28,-27.84"/>
</g>
<!-- Node30&#45;&gt;Node32 -->
<g id="edge10" class="edge">
<title>Node30&#45;&gt;Node32</title>
<path fill="none" stroke="midnightblue" d="M298.03,-17.21C340.84,-7.54 424.13,7.27 494,-4.34 523.28,-9.21 555.05,-20.49 578.09,-29.83"/>
<polygon fill="midnightblue" stroke="midnightblue" points="576.82,-33.09 587.4,-33.69 579.5,-26.62 576.82,-33.09"/>
</g>
<!-- Node31&#45;&gt;Node32 -->
<g id="edge9" class="edge">
<title>Node31&#45;&gt;Node32</title>
<path fill="none" stroke="midnightblue" d="M487.83,-30.02C507.63,-32.32 530.69,-35 551.46,-37.42"/>
<polygon fill="midnightblue" stroke="midnightblue" points="551.12,-40.9 561.45,-38.58 551.92,-33.95 551.12,-40.9"/>
</g>
<!-- Node33&#45;&gt;Node31 -->
<g id="edge12" class="edge">
<title>Node33&#45;&gt;Node31</title>
<path fill="none" stroke="midnightblue" d="M313.51,-53.83C334.87,-48.73 360.72,-42.56 383.24,-37.18"/>
<polygon fill="midnightblue" stroke="midnightblue" points="384.08,-40.58 392.99,-34.85 382.46,-33.77 384.08,-40.58"/>
</g>
<!-- Node34 -->
<g id="node11" class="node">
<title>Node34</title>
<g id="a_node11"><a xlink:href="../../da/db3/class_print_basic.html#a9ac86fd20911ebda9877289484b2a924" target="_top" xlink:title=" ">
<polygon fill="white" stroke="black" points="384.5,-53.84 384.5,-74.84 491.5,-74.84 491.5,-53.84 384.5,-53.84"/>
<text text-anchor="middle" x="438" y="-61.24" font-family="Helvetica,sans-Serif" font-size="12.00">PrintBasic::println</text>
</a>
</g>
</g>
<!-- Node33&#45;&gt;Node34 -->
<g id="edge13" class="edge">
<title>Node33&#45;&gt;Node34</title>
<path fill="none" stroke="midnightblue" d="M322.04,-64.34C338.49,-64.34 356.81,-64.34 373.9,-64.34"/>
<polygon fill="midnightblue" stroke="midnightblue" points="374.36,-67.84 384.36,-64.34 374.36,-60.84 374.36,-67.84"/>
</g>
<!-- Node34&#45;&gt;Node32 -->
<g id="edge14" class="edge">
<title>Node34&#45;&gt;Node32</title>
<path fill="none" stroke="midnightblue" d="M491.54,-58.23C510.47,-56.03 531.96,-53.53 551.44,-51.27"/>
<polygon fill="midnightblue" stroke="midnightblue" points="551.9,-54.74 561.43,-50.11 551.09,-47.79 551.9,-54.74"/>
</g>
</g>
</svg>
