<?xml version="1.0" encoding="UTF-8" standalone="no"?>
<!DOCTYPE svg PUBLIC "-//W3C//DTD SVG 1.1//EN"
 "http://www.w3.org/Graphics/SVG/1.1/DTD/svg11.dtd">
<!-- Generated by graphviz version 2.47.3 (20210619.1520)
 -->
<!-- Title: ExFatPartition::freeChain Pages: 1 -->
<svg width="962pt" height="308pt"
 viewBox="0.00 0.00 962.00 308.00" xmlns="http://www.w3.org/2000/svg" xmlns:xlink="http://www.w3.org/1999/xlink">
<g id="graph0" class="graph" transform="scale(1 1) rotate(0) translate(4 304)">
<title>ExFatPartition::freeChain</title>
<polygon fill="white" stroke="transparent" points="-4,4 -4,-304 958,-304 958,4 -4,4"/>
<!-- Node1 -->
<g id="node1" class="node">
<title>Node1</title>
<g id="a_node1"><a xlink:title=" ">
<polygon fill="#bfbfbf" stroke="black" points="806,-97.5 806,-118.5 954,-118.5 954,-97.5 806,-97.5"/>
<text text-anchor="middle" x="880" y="-104.9" font-family="Helvetica,sans-Serif" font-size="12.00">ExFatPartition::freeChain</text>
</a>
</g>
</g>
<!-- Node2 -->
<g id="node2" class="node">
<title>Node2</title>
<g id="a_node2"><a xlink:href="../../d5/d14/class_ex_fat_file.html#a8e88c8e79551a72cc98310038514c47a" target="_top" xlink:title=" ">
<polygon fill="white" stroke="black" points="331,-198.5 331,-219.5 443,-219.5 443,-198.5 331,-198.5"/>
<text text-anchor="middle" x="387" y="-205.9" font-family="Helvetica,sans-Serif" font-size="12.00">ExFatFile::remove</text>
</a>
</g>
</g>
<!-- Node1&#45;&gt;Node2 -->
<g id="edge1" class="edge">
<title>Node1&#45;&gt;Node2</title>
<path fill="none" stroke="midnightblue" d="M817.82,-120.58C720.11,-140.68 530.57,-179.67 439.41,-198.42"/>
<polygon fill="midnightblue" stroke="midnightblue" points="818.75,-123.97 827.84,-118.52 817.34,-117.11 818.75,-123.97"/>
</g>
<!-- Node10 -->
<g id="node10" class="node">
<title>Node10</title>
<g id="a_node10"><a xlink:href="../../d5/d14/class_ex_fat_file.html#aca37955d3c7cce40f7f9e1ea078e5636" target="_top" xlink:title=" ">
<polygon fill="white" stroke="black" points="656,-78.5 656,-99.5 770,-99.5 770,-78.5 656,-78.5"/>
<text text-anchor="middle" x="713" y="-85.9" font-family="Helvetica,sans-Serif" font-size="12.00">ExFatFile::truncate</text>
</a>
</g>
</g>
<!-- Node1&#45;&gt;Node10 -->
<g id="edge9" class="edge">
<title>Node1&#45;&gt;Node10</title>
<path fill="none" stroke="midnightblue" d="M795.61,-98.4C787.02,-97.41 778.45,-96.42 770.27,-95.48"/>
<polygon fill="midnightblue" stroke="midnightblue" points="795.33,-101.89 805.67,-99.56 796.13,-94.93 795.33,-101.89"/>
</g>
<!-- Node3 -->
<g id="node3" class="node">
<title>Node3</title>
<g id="a_node3"><a xlink:href="../../d7/d76/class_fs_base_file.html#a8d21f9df86e846e34c3bb11cf7db21bc" target="_top" xlink:title=" ">
<polygon fill="white" stroke="black" points="162,-238.5 162,-259.5 284,-259.5 284,-238.5 162,-238.5"/>
<text text-anchor="middle" x="223" y="-245.9" font-family="Helvetica,sans-Serif" font-size="12.00">FsBaseFile::remove</text>
</a>
</g>
</g>
<!-- Node2&#45;&gt;Node3 -->
<g id="edge2" class="edge">
<title>Node2&#45;&gt;Node3</title>
<path fill="none" stroke="midnightblue" d="M333.71,-221.91C312,-227.27 287.13,-233.41 266.56,-238.49"/>
<polygon fill="midnightblue" stroke="midnightblue" points="334.57,-225.3 343.44,-219.51 332.89,-218.51 334.57,-225.3"/>
</g>
<!-- Node4 -->
<g id="node4" class="node">
<title>Node4</title>
<g id="a_node4"><a xlink:href="../../d5/d14/class_ex_fat_file.html#a145a2fa9269876bae17a44569b4625fb" target="_top" xlink:title=" ">
<polygon fill="white" stroke="black" points="167,-198.5 167,-219.5 279,-219.5 279,-198.5 167,-198.5"/>
<text text-anchor="middle" x="223" y="-205.9" font-family="Helvetica,sans-Serif" font-size="12.00">ExFatFile::remove</text>
</a>
</g>
</g>
<!-- Node2&#45;&gt;Node4 -->
<g id="edge3" class="edge">
<title>Node2&#45;&gt;Node4</title>
<path fill="none" stroke="midnightblue" d="M320.36,-209C306.65,-209 292.33,-209 279.05,-209"/>
<polygon fill="midnightblue" stroke="midnightblue" points="320.7,-212.5 330.7,-209 320.7,-205.5 320.7,-212.5"/>
</g>
<!-- Node5 -->
<g id="node5" class="node">
<title>Node5</title>
<g id="a_node5"><a xlink:href="../../da/d35/class_ex_fat_volume.html#ac4d15484d30dd40ecdb4d331d29534d9" target="_top" xlink:title=" ">
<polygon fill="white" stroke="black" points="157,-158.5 157,-179.5 289,-179.5 289,-158.5 157,-158.5"/>
<text text-anchor="middle" x="223" y="-165.9" font-family="Helvetica,sans-Serif" font-size="12.00">ExFatVolume::remove</text>
</a>
</g>
</g>
<!-- Node2&#45;&gt;Node5 -->
<g id="edge4" class="edge">
<title>Node2&#45;&gt;Node5</title>
<path fill="none" stroke="midnightblue" d="M333.71,-196.09C312,-190.73 287.13,-184.59 266.56,-179.51"/>
<polygon fill="midnightblue" stroke="midnightblue" points="332.89,-199.49 343.44,-198.49 334.57,-192.7 332.89,-199.49"/>
</g>
<!-- Node6 -->
<g id="node6" class="node">
<title>Node6</title>
<g id="a_node6"><a xlink:href="../../d5/d14/class_ex_fat_file.html#a707e3a4139319fb5d4e31d591b3c5b77" target="_top" xlink:title=" ">
<polygon fill="white" stroke="black" points="166.5,-118.5 166.5,-139.5 279.5,-139.5 279.5,-118.5 166.5,-118.5"/>
<text text-anchor="middle" x="223" y="-125.9" font-family="Helvetica,sans-Serif" font-size="12.00">ExFatFile::rename</text>
</a>
</g>
</g>
<!-- Node2&#45;&gt;Node6 -->
<g id="edge5" class="edge">
<title>Node2&#45;&gt;Node6</title>
<path fill="none" stroke="midnightblue" d="M335.32,-194.28C332.08,-192.68 328.94,-190.92 326,-189 305.99,-175.9 310.19,-161.83 290,-149 284.04,-145.21 277.32,-142.11 270.51,-139.57"/>
<polygon fill="midnightblue" stroke="midnightblue" points="334.1,-197.56 344.66,-198.38 336.91,-191.15 334.1,-197.56"/>
</g>
<!-- Node7 -->
<g id="node7" class="node">
<title>Node7</title>
<g id="a_node7"><a xlink:href="../../d5/d14/class_ex_fat_file.html#a0165e0fde12a53e419bd92cd37f9cfed" target="_top" xlink:title=" ">
<polygon fill="white" stroke="black" points="173,-278.5 173,-299.5 273,-299.5 273,-278.5 173,-278.5"/>
<text text-anchor="middle" x="223" y="-285.9" font-family="Helvetica,sans-Serif" font-size="12.00">ExFatFile::rmdir</text>
</a>
</g>
</g>
<!-- Node2&#45;&gt;Node7 -->
<g id="edge6" class="edge">
<title>Node2&#45;&gt;Node7</title>
<path fill="none" stroke="midnightblue" d="M363.48,-225.47C344.61,-238.68 316.57,-256.93 290,-269 282.04,-272.62 273.26,-275.79 264.76,-278.49"/>
<polygon fill="midnightblue" stroke="midnightblue" points="365.59,-228.27 371.72,-219.62 361.54,-222.56 365.59,-228.27"/>
</g>
<!-- Node8 -->
<g id="node8" class="node">
<title>Node8</title>
<g id="a_node8"><a xlink:href="../../d7/d76/class_fs_base_file.html#ac47870fd89b0849cda33f2780918a286" target="_top" xlink:title=" ">
<polygon fill="white" stroke="black" points="5,-278.5 5,-299.5 115,-299.5 115,-278.5 5,-278.5"/>
<text text-anchor="middle" x="60" y="-285.9" font-family="Helvetica,sans-Serif" font-size="12.00">FsBaseFile::rmdir</text>
</a>
</g>
</g>
<!-- Node7&#45;&gt;Node8 -->
<g id="edge7" class="edge">
<title>Node7&#45;&gt;Node8</title>
<path fill="none" stroke="midnightblue" d="M162.78,-289C147.21,-289 130.5,-289 115.21,-289"/>
<polygon fill="midnightblue" stroke="midnightblue" points="162.82,-292.5 172.82,-289 162.82,-285.5 162.82,-292.5"/>
</g>
<!-- Node9 -->
<g id="node9" class="node">
<title>Node9</title>
<g id="a_node9"><a xlink:href="../../da/d35/class_ex_fat_volume.html#afaa44ad57398f8c293b9a35aa150ce75" target="_top" xlink:title=" ">
<polygon fill="white" stroke="black" points="0,-159.5 0,-180.5 120,-180.5 120,-159.5 0,-159.5"/>
<text text-anchor="middle" x="60" y="-166.9" font-family="Helvetica,sans-Serif" font-size="12.00">ExFatVolume::rmdir</text>
</a>
</g>
</g>
<!-- Node7&#45;&gt;Node9 -->
<g id="edge8" class="edge">
<title>Node7&#45;&gt;Node9</title>
<path fill="none" stroke="midnightblue" d="M166.61,-274.58C162.92,-272.91 159.35,-271.05 156,-269 116.81,-244.97 82.72,-200.9 68.31,-180.67"/>
<polygon fill="midnightblue" stroke="midnightblue" points="165.36,-277.86 175.95,-278.39 168,-271.37 165.36,-277.86"/>
</g>
<!-- Node11 -->
<g id="node11" class="node">
<title>Node11</title>
<g id="a_node11"><a xlink:href="../../d5/d14/class_ex_fat_file.html#a531de6eac70b708a3fefd96e25506016" target="_top" xlink:title=" ">
<polygon fill="white" stroke="black" points="484,-98.5 484,-119.5 620,-119.5 620,-98.5 484,-98.5"/>
<text text-anchor="middle" x="552" y="-105.9" font-family="Helvetica,sans-Serif" font-size="12.00">ExFatFile::openPrivate</text>
</a>
</g>
</g>
<!-- Node10&#45;&gt;Node11 -->
<g id="edge10" class="edge">
<title>Node10&#45;&gt;Node11</title>
<path fill="none" stroke="midnightblue" d="M645.79,-97.33C637.35,-98.39 628.72,-99.48 620.27,-100.54"/>
<polygon fill="midnightblue" stroke="midnightblue" points="646.46,-100.77 655.94,-96.05 645.58,-93.83 646.46,-100.77"/>
</g>
<!-- Node26 -->
<g id="node14" class="node">
<title>Node26</title>
<g id="a_node14"><a xlink:href="../../da/d35/class_ex_fat_volume.html#a1af3c481f14ff2d390aabe6226658b01" target="_top" xlink:title=" ">
<polygon fill="white" stroke="black" points="156,-40.5 156,-61.5 290,-61.5 290,-40.5 156,-40.5"/>
<text text-anchor="middle" x="223" y="-47.9" font-family="Helvetica,sans-Serif" font-size="12.00">ExFatVolume::truncate</text>
</a>
</g>
</g>
<!-- Node10&#45;&gt;Node26 -->
<g id="edge19" class="edge">
<title>Node10&#45;&gt;Node26</title>
<path fill="none" stroke="midnightblue" d="M645.36,-83.81C551.96,-76.54 383.11,-63.39 290.03,-56.14"/>
<polygon fill="midnightblue" stroke="midnightblue" points="645.3,-87.32 655.54,-84.6 645.85,-80.34 645.3,-87.32"/>
</g>
<!-- Node35 -->
<g id="node16" class="node">
<title>Node35</title>
<g id="a_node16"><a xlink:href="../../d5/d14/class_ex_fat_file.html#a6262b0d6d43d2a426953a0a7d90f624f" target="_top" xlink:title=" ">
<polygon fill="white" stroke="black" points="495,-0.5 495,-21.5 609,-21.5 609,-0.5 495,-0.5"/>
<text text-anchor="middle" x="552" y="-7.9" font-family="Helvetica,sans-Serif" font-size="12.00">ExFatFile::truncate</text>
</a>
</g>
</g>
<!-- Node10&#45;&gt;Node35 -->
<g id="edge20" class="edge">
<title>Node10&#45;&gt;Node35</title>
<path fill="none" stroke="midnightblue" d="M686.7,-72.9C668.55,-61.74 643.29,-46.96 620,-36 608.65,-30.66 595.83,-25.64 584.46,-21.52"/>
<polygon fill="midnightblue" stroke="midnightblue" points="685.15,-76.06 695.49,-78.37 688.85,-70.12 685.15,-76.06"/>
</g>
<!-- Node12 -->
<g id="node12" class="node">
<title>Node12</title>
<g id="a_node12"><a xlink:href="../../d5/d14/class_ex_fat_file.html#ad9ca8c5ba1de8965e65b9f25f31baeff" target="_top" xlink:title=" ">
<polygon fill="white" stroke="red" points="336,-118.5 336,-139.5 438,-139.5 438,-118.5 336,-118.5"/>
<text text-anchor="middle" x="387" y="-125.9" font-family="Helvetica,sans-Serif" font-size="12.00">ExFatFile::mkdir</text>
</a>
</g>
</g>
<!-- Node11&#45;&gt;Node12 -->
<g id="edge11" class="edge">
<title>Node11&#45;&gt;Node12</title>
<path fill="none" stroke="midnightblue" d="M473.67,-118.49C461.6,-119.97 449.4,-121.47 438.15,-122.85"/>
<polygon fill="midnightblue" stroke="midnightblue" points="474.26,-121.94 483.76,-117.25 473.41,-114.99 474.26,-121.94"/>
</g>
<!-- Node15 -->
<g id="node13" class="node">
<title>Node15</title>
<g id="a_node13"><a xlink:href="../../d5/d14/class_ex_fat_file.html#a354ba015486119b46be89b10ef200d27" target="_top" xlink:title=" ">
<polygon fill="white" stroke="red" points="337.5,-158.5 337.5,-179.5 436.5,-179.5 436.5,-158.5 337.5,-158.5"/>
<text text-anchor="middle" x="387" y="-165.9" font-family="Helvetica,sans-Serif" font-size="12.00">ExFatFile::open</text>
</a>
</g>
</g>
<!-- Node11&#45;&gt;Node15 -->
<g id="edge12" class="edge">
<title>Node11&#45;&gt;Node15</title>
<path fill="none" stroke="midnightblue" d="M515.36,-123.33C495.6,-131.15 470.54,-140.87 448,-149 439.12,-152.2 429.43,-155.51 420.48,-158.49"/>
<polygon fill="midnightblue" stroke="midnightblue" points="516.89,-126.49 524.88,-119.55 514.3,-119.99 516.89,-126.49"/>
</g>
<!-- Node27 -->
<g id="node15" class="node">
<title>Node27</title>
<g id="a_node15"><a xlink:href="../../d5/d14/class_ex_fat_file.html#a3ea80d4e3dd4340c2d282097ad12c249" target="_top" xlink:title=" ">
<polygon fill="white" stroke="red" points="326,-78.5 326,-99.5 448,-99.5 448,-78.5 326,-78.5"/>
<text text-anchor="middle" x="387" y="-85.9" font-family="Helvetica,sans-Serif" font-size="12.00">ExFatFile::openNext</text>
</a>
</g>
</g>
<!-- Node11&#45;&gt;Node27 -->
<g id="edge18" class="edge">
<title>Node11&#45;&gt;Node27</title>
<path fill="none" stroke="midnightblue" d="M473.7,-99.51C465.08,-98.46 456.4,-97.39 448.04,-96.37"/>
<polygon fill="midnightblue" stroke="midnightblue" points="473.41,-103.01 483.76,-100.75 474.26,-96.06 473.41,-103.01"/>
</g>
<!-- Node15&#45;&gt;Node4 -->
<g id="edge13" class="edge">
<title>Node15&#45;&gt;Node4</title>
<path fill="none" stroke="midnightblue" d="M333.71,-181.91C312,-187.27 287.13,-193.41 266.56,-198.49"/>
<polygon fill="midnightblue" stroke="midnightblue" points="334.57,-185.3 343.44,-179.51 332.89,-178.51 334.57,-185.3"/>
</g>
<!-- Node15&#45;&gt;Node5 -->
<g id="edge14" class="edge">
<title>Node15&#45;&gt;Node5</title>
<path fill="none" stroke="midnightblue" d="M327.19,-169C314.8,-169 301.66,-169 289.06,-169"/>
<polygon fill="midnightblue" stroke="midnightblue" points="327.39,-172.5 337.39,-169 327.39,-165.5 327.39,-172.5"/>
</g>
<!-- Node15&#45;&gt;Node6 -->
<g id="edge15" class="edge">
<title>Node15&#45;&gt;Node6</title>
<path fill="none" stroke="midnightblue" d="M333.71,-156.09C312,-150.73 287.13,-144.59 266.56,-139.51"/>
<polygon fill="midnightblue" stroke="midnightblue" points="332.89,-159.49 343.44,-158.49 334.57,-152.7 332.89,-159.49"/>
</g>
<!-- Node15&#45;&gt;Node9 -->
<g id="edge16" class="edge">
<title>Node15&#45;&gt;Node9</title>
<path fill="none" stroke="midnightblue" d="M335.32,-154.28C332.08,-152.68 328.94,-150.92 326,-149 305.99,-135.9 311.85,-118.73 290,-109 235.6,-84.77 213.15,-92.23 156,-109 122.33,-118.88 89.3,-144.77 72.48,-159.44"/>
<polygon fill="midnightblue" stroke="midnightblue" points="334.1,-157.56 344.66,-158.38 336.91,-151.15 334.1,-157.56"/>
</g>
<!-- Node15&#45;&gt;Node26 -->
<g id="edge17" class="edge">
<title>Node15&#45;&gt;Node26</title>
<path fill="none" stroke="midnightblue" d="M332.15,-153.61C329.98,-152.21 327.92,-150.67 326,-149 298.74,-125.22 316.78,-100.32 290,-76 283.2,-69.82 274.72,-65.12 266.12,-61.55"/>
<polygon fill="midnightblue" stroke="midnightblue" points="330.47,-156.69 340.92,-158.43 333.84,-150.55 330.47,-156.69"/>
</g>
</g>
</svg>
