<?xml version="1.0" encoding="UTF-8" standalone="no"?>
<!DOCTYPE svg PUBLIC "-//W3C//DTD SVG 1.1//EN"
 "http://www.w3.org/Graphics/SVG/1.1/DTD/svg11.dtd">
<!-- Generated by graphviz version 2.47.3 (20210619.1520)
 -->
<!-- Title: ExFatPartition::fatPut Pages: 1 -->
<svg width="1977pt" height="524pt"
 viewBox="0.00 0.00 1977.00 524.00" xmlns="http://www.w3.org/2000/svg" xmlns:xlink="http://www.w3.org/1999/xlink">
<g id="graph0" class="graph" transform="scale(1 1) rotate(0) translate(4 520)">
<title>ExFatPartition::fatPut</title>
<polygon fill="white" stroke="transparent" points="-4,4 -4,-520 1973,-520 1973,4 -4,4"/>
<!-- Node1 -->
<g id="node1" class="node">
<title>Node1</title>
<g id="a_node1"><a xlink:title=" ">
<polygon fill="#bfbfbf" stroke="black" points="0,-189.5 0,-210.5 127,-210.5 127,-189.5 0,-189.5"/>
<text text-anchor="middle" x="63.5" y="-196.9" font-family="Helvetica,sans-Serif" font-size="12.00">ExFatPartition::fatPut</text>
</a>
</g>
</g>
<!-- Node2 -->
<g id="node2" class="node">
<title>Node2</title>
<g id="a_node2"><a xlink:href="../../d4/de9/class_ex_fat_partition.html#a119f5be5695880d2a16f1c0b3c3ff369" target="_top" xlink:title=" ">
<polygon fill="white" stroke="black" points="163,-207 163,-241 318,-241 318,-207 163,-207"/>
<text text-anchor="start" x="171" y="-227.4" font-family="Helvetica,sans-Serif" font-size="12.00">ExFatPartition::dataCache</text>
<text text-anchor="middle" x="240.5" y="-214.4" font-family="Helvetica,sans-Serif" font-size="12.00">Prepare</text>
</a>
</g>
</g>
<!-- Node1&#45;&gt;Node2 -->
<g id="edge1" class="edge">
<title>Node1&#45;&gt;Node2</title>
<path fill="none" stroke="midnightblue" d="M127.18,-208.6C135.5,-209.74 144.15,-210.92 152.78,-212.11"/>
<polygon fill="midnightblue" stroke="midnightblue" points="152.51,-215.6 162.89,-213.49 153.46,-208.67 152.51,-215.6"/>
</g>
<!-- Node30 -->
<g id="node25" class="node">
<title>Node30</title>
<g id="a_node25"><a xlink:href="../../d1/db3/_fs_structs_8h.html#a294114e9924b0436c1d110e692bef464" target="_top" xlink:title=" ">
<polygon fill="white" stroke="black" points="211,-166.5 211,-187.5 270,-187.5 270,-166.5 211,-166.5"/>
<text text-anchor="middle" x="240.5" y="-173.9" font-family="Helvetica,sans-Serif" font-size="12.00">setLe32</text>
</a>
</g>
</g>
<!-- Node1&#45;&gt;Node30 -->
<g id="edge44" class="edge">
<title>Node1&#45;&gt;Node30</title>
<path fill="none" stroke="midnightblue" d="M127.18,-191.76C151.8,-188.53 179.26,-184.92 200.87,-182.08"/>
<polygon fill="midnightblue" stroke="midnightblue" points="201.51,-185.52 210.97,-180.75 200.6,-178.58 201.51,-185.52"/>
</g>
<!-- Node3 -->
<g id="node3" class="node">
<title>Node3</title>
<g id="a_node3"><a xlink:href="../../d3/d77/class_fs_cache.html#a8c11f064a2ce0a380f522392f09d63cb" target="_top" xlink:title=" ">
<polygon fill="white" stroke="black" points="354,-213.5 354,-234.5 466,-234.5 466,-213.5 354,-213.5"/>
<text text-anchor="middle" x="410" y="-220.9" font-family="Helvetica,sans-Serif" font-size="12.00">FsCache::prepare</text>
</a>
</g>
</g>
<!-- Node2&#45;&gt;Node3 -->
<g id="edge2" class="edge">
<title>Node2&#45;&gt;Node3</title>
<path fill="none" stroke="midnightblue" d="M318.39,-224C326.73,-224 335.17,-224 343.36,-224"/>
<polygon fill="midnightblue" stroke="midnightblue" points="343.58,-227.5 353.58,-224 343.58,-220.5 343.58,-227.5"/>
</g>
<!-- Node4 -->
<g id="node4" class="node">
<title>Node4</title>
<g id="a_node4"><a xlink:href="../../d5/d4b/class_shared_spi_card.html#a61d86f4092f8ddbc7339d7cbcf6f70c0" target="_top" xlink:title=" ">
<polygon fill="white" stroke="black" points="632,-255.5 632,-276.5 796,-276.5 796,-255.5 632,-255.5"/>
<text text-anchor="middle" x="714" y="-262.9" font-family="Helvetica,sans-Serif" font-size="12.00">SharedSpiCard::readSector</text>
</a>
</g>
</g>
<!-- Node3&#45;&gt;Node4 -->
<g id="edge3" class="edge">
<title>Node3&#45;&gt;Node4</title>
<path fill="none" stroke="midnightblue" d="M466.33,-231.95C478.11,-233.63 490.46,-235.38 502,-237 542.67,-242.7 587.77,-248.91 625.8,-254.12"/>
<polygon fill="midnightblue" stroke="midnightblue" points="625.44,-257.6 635.82,-255.49 626.39,-250.67 625.44,-257.6"/>
</g>
<!-- Node26 -->
<g id="node21" class="node">
<title>Node26</title>
<g id="a_node21"><a xlink:href="../../d3/d77/class_fs_cache.html#a5b90e145400de8687d9f34536b134130" target="_top" xlink:title=" ">
<polygon fill="white" stroke="black" points="662.5,-210.5 662.5,-231.5 765.5,-231.5 765.5,-210.5 662.5,-210.5"/>
<text text-anchor="middle" x="714" y="-217.9" font-family="Helvetica,sans-Serif" font-size="12.00">FsCache::sector</text>
</a>
</g>
</g>
<!-- Node3&#45;&gt;Node26 -->
<g id="edge30" class="edge">
<title>Node3&#45;&gt;Node26</title>
<path fill="none" stroke="midnightblue" d="M466.04,-223.45C518.62,-222.93 597.72,-222.15 652.15,-221.6"/>
<polygon fill="midnightblue" stroke="midnightblue" points="652.39,-225.1 662.36,-221.5 652.32,-218.1 652.39,-225.1"/>
</g>
<!-- Node27 -->
<g id="node22" class="node">
<title>Node27</title>
<g id="a_node22"><a xlink:href="../../d3/d77/class_fs_cache.html#a5a2c8fb432d7b7590ebb43200ca21893" target="_top" xlink:title=" ">
<polygon fill="white" stroke="black" points="502,-174.5 502,-195.5 596,-195.5 596,-174.5 502,-174.5"/>
<text text-anchor="middle" x="549" y="-181.9" font-family="Helvetica,sans-Serif" font-size="12.00">FsCache::sync</text>
</a>
</g>
</g>
<!-- Node3&#45;&gt;Node27 -->
<g id="edge31" class="edge">
<title>Node3&#45;&gt;Node27</title>
<path fill="none" stroke="midnightblue" d="M448.07,-213.45C464.37,-208.81 483.7,-203.31 500.99,-198.38"/>
<polygon fill="midnightblue" stroke="midnightblue" points="502.24,-201.67 510.9,-195.56 500.32,-194.93 502.24,-201.67"/>
</g>
<!-- Node5 -->
<g id="node5" class="node">
<title>Node5</title>
<g id="a_node5"><a xlink:href="../../d5/d4b/class_shared_spi_card.html#adda33199753fc2aec74fe317cbaabc06" target="_top" xlink:title=" ">
<polygon fill="white" stroke="black" points="832,-260.5 832,-281.5 1015,-281.5 1015,-260.5 832,-260.5"/>
<text text-anchor="middle" x="923.5" y="-267.9" font-family="Helvetica,sans-Serif" font-size="12.00">SharedSpiCard::cardCommand</text>
</a>
</g>
</g>
<!-- Node4&#45;&gt;Node5 -->
<g id="edge4" class="edge">
<title>Node4&#45;&gt;Node5</title>
<path fill="none" stroke="midnightblue" d="M796.12,-267.95C804.53,-268.16 813.16,-268.37 821.75,-268.57"/>
<polygon fill="midnightblue" stroke="midnightblue" points="821.73,-272.07 831.82,-268.81 821.9,-265.07 821.73,-272.07"/>
</g>
<!-- Node17 -->
<g id="node15" class="node">
<title>Node17</title>
<g id="a_node15"><a xlink:href="../../d5/d4b/class_shared_spi_card.html#a747c3f0b962098cf0c097f3c4c2b4fd4" target="_top" xlink:title=" ">
<polygon fill="white" stroke="black" points="1466,-180.5 1466,-201.5 1596,-201.5 1596,-180.5 1466,-180.5"/>
<text text-anchor="middle" x="1531" y="-187.9" font-family="Helvetica,sans-Serif" font-size="12.00">SharedSpiCard::error</text>
</a>
</g>
</g>
<!-- Node4&#45;&gt;Node17 -->
<g id="edge26" class="edge">
<title>Node4&#45;&gt;Node17</title>
<path fill="none" stroke="midnightblue" d="M773.96,-255.48C840.89,-243.95 953.44,-225.78 1051,-216 1193.9,-201.67 1361.66,-195.3 1455.93,-192.67"/>
<polygon fill="midnightblue" stroke="midnightblue" points="1456.03,-196.17 1465.93,-192.4 1455.84,-189.17 1456.03,-196.17"/>
</g>
<!-- Node18 -->
<g id="node16" class="node">
<title>Node18</title>
<g id="a_node16"><a xlink:href="../../d5/d4b/class_shared_spi_card.html#a0f511c39c50055a4fc97e720933aee3a" target="_top" xlink:title=" ">
<polygon fill="white" stroke="red" points="1458,-347.5 1458,-368.5 1604,-368.5 1604,-347.5 1458,-347.5"/>
<text text-anchor="middle" x="1531" y="-354.9" font-family="Helvetica,sans-Serif" font-size="12.00">SharedSpiCard::spiStop</text>
</a>
</g>
</g>
<!-- Node4&#45;&gt;Node18 -->
<g id="edge28" class="edge">
<title>Node4&#45;&gt;Node18</title>
<path fill="none" stroke="midnightblue" d="M718.11,-276.55C728.2,-308.67 763.44,-405.25 832,-442 946.19,-503.21 1291.84,-482.19 1415,-442 1454.81,-429.01 1492.28,-396.44 1513.08,-375.89"/>
<polygon fill="midnightblue" stroke="midnightblue" points="1515.67,-378.24 1520.21,-368.66 1510.69,-373.32 1515.67,-378.24"/>
</g>
<!-- Node24 -->
<g id="node19" class="node">
<title>Node24</title>
<g id="a_node19"><a xlink:href="../../d5/d4b/class_shared_spi_card.html#abeae3cdc162f24c2d450abe4e1ed8340" target="_top" xlink:title=" ">
<polygon fill="white" stroke="black" points="846,-494.5 846,-515.5 1001,-515.5 1001,-494.5 846,-494.5"/>
<text text-anchor="middle" x="923.5" y="-501.9" font-family="Helvetica,sans-Serif" font-size="12.00">SharedSpiCard::readData</text>
</a>
</g>
</g>
<!-- Node4&#45;&gt;Node24 -->
<g id="edge27" class="edge">
<title>Node4&#45;&gt;Node24</title>
<path fill="none" stroke="midnightblue" d="M717.68,-276.85C726.94,-312 760.97,-423.73 832,-480 837.11,-484.05 842.84,-487.45 848.87,-490.29"/>
<polygon fill="midnightblue" stroke="midnightblue" points="847.96,-493.71 858.53,-494.33 850.65,-487.25 847.96,-493.71"/>
</g>
<!-- Node25 -->
<g id="node20" class="node">
<title>Node25</title>
<g id="a_node20"><a xlink:href="../../d5/d4b/class_shared_spi_card.html#a7dac2190763d7b4b72163ed7131e8a87" target="_top" xlink:title=" ">
<polygon fill="white" stroke="black" points="860,-182.5 860,-203.5 987,-203.5 987,-182.5 860,-182.5"/>
<text text-anchor="middle" x="923.5" y="-189.9" font-family="Helvetica,sans-Serif" font-size="12.00">SharedSpiCard::type</text>
</a>
</g>
</g>
<!-- Node4&#45;&gt;Node25 -->
<g id="edge29" class="edge">
<title>Node4&#45;&gt;Node25</title>
<path fill="none" stroke="midnightblue" d="M756.59,-255.5C769.5,-251.63 783.58,-246.75 796,-241 813.23,-233.02 814.66,-225.73 832,-218 842.15,-213.48 853.3,-209.6 864.21,-206.33"/>
<polygon fill="midnightblue" stroke="midnightblue" points="865.47,-209.61 874.13,-203.5 863.55,-202.88 865.47,-209.61"/>
</g>
<!-- Node6 -->
<g id="node6" class="node">
<title>Node6</title>
<g id="a_node6"><a xlink:href="../../d5/d4b/class_shared_spi_card.html#a08363209d938db87521cca6a84146041" target="_top" xlink:title=" ">
<polygon fill="white" stroke="black" points="1647,-84.5 1647,-105.5 1811,-105.5 1811,-84.5 1647,-84.5"/>
<text text-anchor="middle" x="1729" y="-91.9" font-family="Helvetica,sans-Serif" font-size="12.00">SharedSpiCard::spiReceive</text>
</a>
</g>
</g>
<!-- Node5&#45;&gt;Node6 -->
<g id="edge5" class="edge">
<title>Node5&#45;&gt;Node6</title>
<path fill="none" stroke="midnightblue" d="M980.7,-260.49C1002.57,-256.71 1027.89,-252.72 1051,-250 1174.89,-235.44 1497.37,-262.47 1611,-211 1657.82,-189.79 1696.55,-141.21 1715.49,-114.12"/>
<polygon fill="midnightblue" stroke="midnightblue" points="1718.4,-116.07 1721.13,-105.84 1712.61,-112.13 1718.4,-116.07"/>
</g>
<!-- Node8 -->
<g id="node8" class="node">
<title>Node8</title>
<g id="a_node8"><a xlink:href="../../d5/d4b/class_shared_spi_card.html#ab311b9ad8a250f06afbe091f7abb118b" target="_top" xlink:title=" ">
<polygon fill="white" stroke="black" points="1654.5,-444.5 1654.5,-465.5 1803.5,-465.5 1803.5,-444.5 1654.5,-444.5"/>
<text text-anchor="middle" x="1729" y="-451.9" font-family="Helvetica,sans-Serif" font-size="12.00">SharedSpiCard::spiSend</text>
</a>
</g>
</g>
<!-- Node5&#45;&gt;Node8 -->
<g id="edge7" class="edge">
<title>Node5&#45;&gt;Node8</title>
<path fill="none" stroke="midnightblue" d="M932.67,-281.78C951.05,-305.22 998.2,-360.99 1051,-389 1243.54,-491.16 1510.35,-480.32 1644.25,-466.31"/>
<polygon fill="midnightblue" stroke="midnightblue" points="1644.88,-469.77 1654.45,-465.21 1644.13,-462.81 1644.88,-469.77"/>
</g>
<!-- Node10 -->
<g id="node10" class="node">
<title>Node10</title>
<g id="a_node10"><a xlink:href="../../d5/d4b/class_shared_spi_card.html#aef2dfa72e8d5643c90720f9f8c6a4254" target="_top" xlink:title=" ">
<polygon fill="white" stroke="black" points="1060.5,-358.5 1060.5,-379.5 1206.5,-379.5 1206.5,-358.5 1060.5,-358.5"/>
<text text-anchor="middle" x="1133.5" y="-365.9" font-family="Helvetica,sans-Serif" font-size="12.00">SharedSpiCard::spiStart</text>
</a>
</g>
</g>
<!-- Node5&#45;&gt;Node10 -->
<g id="edge9" class="edge">
<title>Node5&#45;&gt;Node10</title>
<path fill="none" stroke="midnightblue" d="M947.16,-281.67C984.37,-299.21 1058.54,-334.15 1100.9,-354.11"/>
<polygon fill="midnightblue" stroke="midnightblue" points="1099.65,-357.39 1110.19,-358.49 1102.63,-351.06 1099.65,-357.39"/>
</g>
<!-- Node15 -->
<g id="node13" class="node">
<title>Node15</title>
<g id="a_node13"><a xlink:href="../../d5/d4b/class_shared_spi_card.html#a2f181b3d6f27413a0f5ee883dfd94d87" target="_top" xlink:title=" ">
<polygon fill="white" stroke="black" points="1051,-259.5 1051,-280.5 1216,-280.5 1216,-259.5 1051,-259.5"/>
<text text-anchor="middle" x="1133.5" y="-266.9" font-family="Helvetica,sans-Serif" font-size="12.00">SharedSpiCard::syncDevice</text>
</a>
</g>
</g>
<!-- Node5&#45;&gt;Node15 -->
<g id="edge13" class="edge">
<title>Node5&#45;&gt;Node15</title>
<path fill="none" stroke="midnightblue" d="M1015.13,-270.56C1023.7,-270.52 1032.4,-270.48 1040.99,-270.44"/>
<polygon fill="midnightblue" stroke="midnightblue" points="1041.02,-273.94 1051,-270.39 1040.98,-266.94 1041.02,-273.94"/>
</g>
<!-- Node23 -->
<g id="node18" class="node">
<title>Node23</title>
<g id="a_node18"><a xlink:href="../../d5/d4b/class_shared_spi_card.html#ab3468397bb3b12d29dd2f31e45b3dcaf" target="_top" xlink:title=" ">
<polygon fill="white" stroke="black" points="1451,-84.5 1451,-105.5 1611,-105.5 1611,-84.5 1451,-84.5"/>
<text text-anchor="middle" x="1531" y="-91.9" font-family="Helvetica,sans-Serif" font-size="12.00">SharedSpiCard::waitReady</text>
</a>
</g>
</g>
<!-- Node5&#45;&gt;Node23 -->
<g id="edge25" class="edge">
<title>Node5&#45;&gt;Node23</title>
<path fill="none" stroke="midnightblue" d="M941.43,-260.45C998.59,-225.09 1184.55,-111.98 1252,-95 1313.69,-79.47 1385.54,-79.94 1440.74,-84.04"/>
<polygon fill="midnightblue" stroke="midnightblue" points="1440.61,-87.54 1450.85,-84.84 1441.16,-80.56 1440.61,-87.54"/>
</g>
<!-- Node7 -->
<g id="node7" class="node">
<title>Node7</title>
<g id="a_node7"><a xlink:href="../../dc/da1/class_sd_spi_arduino_driver.html#a8d6bc852a52e9d69c4b1e48ee062e8d1" target="_top" xlink:title=" ">
<polygon fill="white" stroke="black" points="1847,-78 1847,-112 1969,-112 1969,-78 1847,-78"/>
<text text-anchor="start" x="1855" y="-98.4" font-family="Helvetica,sans-Serif" font-size="12.00">SdSpiArduinoDriver</text>
<text text-anchor="middle" x="1908" y="-85.4" font-family="Helvetica,sans-Serif" font-size="12.00">::receive</text>
</a>
</g>
</g>
<!-- Node6&#45;&gt;Node7 -->
<g id="edge6" class="edge">
<title>Node6&#45;&gt;Node7</title>
<path fill="none" stroke="midnightblue" d="M1811.25,-95C1819.78,-95 1828.39,-95 1836.78,-95"/>
<polygon fill="midnightblue" stroke="midnightblue" points="1836.88,-98.5 1846.88,-95 1836.88,-91.5 1836.88,-98.5"/>
</g>
<!-- Node9 -->
<g id="node9" class="node">
<title>Node9</title>
<g id="a_node9"><a xlink:href="../../dc/da1/class_sd_spi_arduino_driver.html#a3c4842e47f98fe5d3799cd6028778ab5" target="_top" xlink:title=" ">
<polygon fill="white" stroke="black" points="1847,-438 1847,-472 1969,-472 1969,-438 1847,-438"/>
<text text-anchor="start" x="1855" y="-458.4" font-family="Helvetica,sans-Serif" font-size="12.00">SdSpiArduinoDriver</text>
<text text-anchor="middle" x="1908" y="-445.4" font-family="Helvetica,sans-Serif" font-size="12.00">::send</text>
</a>
</g>
</g>
<!-- Node8&#45;&gt;Node9 -->
<g id="edge8" class="edge">
<title>Node8&#45;&gt;Node9</title>
<path fill="none" stroke="midnightblue" d="M1803.53,-455C1814.47,-455 1825.72,-455 1836.6,-455"/>
<polygon fill="midnightblue" stroke="midnightblue" points="1836.88,-458.5 1846.88,-455 1836.88,-451.5 1836.88,-458.5"/>
</g>
<!-- Node10&#45;&gt;Node8 -->
<g id="edge12" class="edge">
<title>Node10&#45;&gt;Node8</title>
<path fill="none" stroke="midnightblue" d="M1160.15,-379.66C1183.63,-388.95 1219.56,-402.01 1252,-409 1387.28,-438.15 1548.18,-448.84 1644,-452.75"/>
<polygon fill="midnightblue" stroke="midnightblue" points="1644.08,-456.26 1654.21,-453.15 1644.35,-449.26 1644.08,-456.26"/>
</g>
<!-- Node11 -->
<g id="node11" class="node">
<title>Node11</title>
<g id="a_node11"><a xlink:href="../../d5/d4b/class_shared_spi_card.html#a69ee2fe49dfaeea2347d8a265806d2b6" target="_top" xlink:title=" ">
<polygon fill="white" stroke="red" points="1252,-338.5 1252,-359.5 1415,-359.5 1415,-338.5 1252,-338.5"/>
<text text-anchor="middle" x="1333.5" y="-345.9" font-family="Helvetica,sans-Serif" font-size="12.00">SharedSpiCard::spiActivate</text>
</a>
</g>
</g>
<!-- Node10&#45;&gt;Node11 -->
<g id="edge10" class="edge">
<title>Node10&#45;&gt;Node11</title>
<path fill="none" stroke="midnightblue" d="M1206.54,-361.72C1217.92,-360.57 1229.81,-359.37 1241.54,-358.19"/>
<polygon fill="midnightblue" stroke="midnightblue" points="1242.2,-361.64 1251.8,-357.15 1241.5,-354.67 1242.2,-361.64"/>
</g>
<!-- Node13 -->
<g id="node12" class="node">
<title>Node13</title>
<g id="a_node12"><a xlink:href="../../d5/d4b/class_shared_spi_card.html#a8c3088599862ff6e84ae79bfdf32aea8" target="_top" xlink:title=" ">
<polygon fill="white" stroke="red" points="1256.5,-378.5 1256.5,-399.5 1410.5,-399.5 1410.5,-378.5 1256.5,-378.5"/>
<text text-anchor="middle" x="1333.5" y="-385.9" font-family="Helvetica,sans-Serif" font-size="12.00">SharedSpiCard::spiSelect</text>
</a>
</g>
</g>
<!-- Node10&#45;&gt;Node13 -->
<g id="edge11" class="edge">
<title>Node10&#45;&gt;Node13</title>
<path fill="none" stroke="midnightblue" d="M1206.54,-376.28C1219.41,-377.58 1232.93,-378.94 1246.15,-380.28"/>
<polygon fill="midnightblue" stroke="midnightblue" points="1245.87,-383.77 1256.18,-381.29 1246.58,-376.8 1245.87,-383.77"/>
</g>
<!-- Node16 -->
<g id="node14" class="node">
<title>Node16</title>
<g id="a_node14"><a xlink:href="../../d5/d4b/class_shared_spi_card.html#ab33ad2aefbb9cff905cad0879dffc78b" target="_top" xlink:title=" ">
<polygon fill="white" stroke="black" points="1256.5,-298.5 1256.5,-319.5 1410.5,-319.5 1410.5,-298.5 1256.5,-298.5"/>
<text text-anchor="middle" x="1333.5" y="-305.9" font-family="Helvetica,sans-Serif" font-size="12.00">SharedSpiCard::readStop</text>
</a>
</g>
</g>
<!-- Node15&#45;&gt;Node16 -->
<g id="edge14" class="edge">
<title>Node15&#45;&gt;Node16</title>
<path fill="none" stroke="midnightblue" d="M1187.82,-280.5C1212.91,-285.44 1243.01,-291.37 1269.24,-296.54"/>
<polygon fill="midnightblue" stroke="midnightblue" points="1268.6,-299.98 1279.08,-298.48 1269.95,-293.11 1268.6,-299.98"/>
</g>
<!-- Node22 -->
<g id="node17" class="node">
<title>Node22</title>
<g id="a_node17"><a xlink:href="../../d5/d4b/class_shared_spi_card.html#ae9a34a573077e43e7c6028a16ae77fb3" target="_top" xlink:title=" ">
<polygon fill="white" stroke="black" points="1256,-258.5 1256,-279.5 1411,-279.5 1411,-258.5 1256,-258.5"/>
<text text-anchor="middle" x="1333.5" y="-265.9" font-family="Helvetica,sans-Serif" font-size="12.00">SharedSpiCard::writeStop</text>
</a>
</g>
</g>
<!-- Node15&#45;&gt;Node22 -->
<g id="edge19" class="edge">
<title>Node15&#45;&gt;Node22</title>
<path fill="none" stroke="midnightblue" d="M1216.18,-269.59C1225.9,-269.54 1235.86,-269.49 1245.65,-269.44"/>
<polygon fill="midnightblue" stroke="midnightblue" points="1245.8,-272.94 1255.78,-269.39 1245.76,-265.94 1245.8,-272.94"/>
</g>
<!-- Node16&#45;&gt;Node5 -->
<g id="edge15" class="edge">
<title>Node16&#45;&gt;Node5</title>
<path fill="none" stroke="midnightblue" d="M1256.48,-305.55C1199.75,-302.57 1120.39,-297.54 1051,-290 1033.74,-288.12 1015.23,-285.62 997.84,-283.05"/>
<polygon fill="midnightblue" stroke="midnightblue" points="998.16,-279.56 987.75,-281.54 997.12,-286.48 998.16,-279.56"/>
</g>
<!-- Node16&#45;&gt;Node17 -->
<g id="edge16" class="edge">
<title>Node16&#45;&gt;Node17</title>
<path fill="none" stroke="midnightblue" d="M1391.14,-298.46C1399.38,-295.93 1407.57,-292.82 1415,-289 1455.11,-268.39 1493.2,-231.28 1513.9,-209.11"/>
<polygon fill="midnightblue" stroke="midnightblue" points="1516.54,-211.42 1520.72,-201.68 1511.38,-206.69 1516.54,-211.42"/>
</g>
<!-- Node16&#45;&gt;Node18 -->
<g id="edge17" class="edge">
<title>Node16&#45;&gt;Node18</title>
<path fill="none" stroke="midnightblue" d="M1377.12,-319.56C1389.35,-322.6 1402.71,-325.92 1415,-329 1435.85,-334.22 1458.81,-340 1478.7,-345.02"/>
<polygon fill="midnightblue" stroke="midnightblue" points="1477.94,-348.44 1488.49,-347.49 1479.65,-341.65 1477.94,-348.44"/>
</g>
<!-- Node18&#45;&gt;Node8 -->
<g id="edge18" class="edge">
<title>Node18&#45;&gt;Node8</title>
<path fill="none" stroke="midnightblue" d="M1553.35,-368.57C1588.25,-385.84 1657.65,-420.18 1697.65,-439.98"/>
<polygon fill="midnightblue" stroke="midnightblue" points="1696.16,-443.15 1706.68,-444.45 1699.27,-436.88 1696.16,-443.15"/>
</g>
<!-- Node22&#45;&gt;Node8 -->
<g id="edge21" class="edge">
<title>Node22&#45;&gt;Node8</title>
<path fill="none" stroke="midnightblue" d="M1411.06,-276.86C1468.99,-285.39 1548.9,-302.84 1611,-338 1655.5,-363.19 1694.68,-409.92 1714.43,-436.06"/>
<polygon fill="midnightblue" stroke="midnightblue" points="1711.82,-438.41 1720.58,-444.37 1717.45,-434.25 1711.82,-438.41"/>
</g>
<!-- Node22&#45;&gt;Node17 -->
<g id="edge20" class="edge">
<title>Node22&#45;&gt;Node17</title>
<path fill="none" stroke="midnightblue" d="M1360.87,-258.48C1395.26,-244.76 1455.59,-220.69 1494.13,-205.31"/>
<polygon fill="midnightblue" stroke="midnightblue" points="1495.44,-208.56 1503.43,-201.6 1492.84,-202.06 1495.44,-208.56"/>
</g>
<!-- Node22&#45;&gt;Node18 -->
<g id="edge22" class="edge">
<title>Node22&#45;&gt;Node18</title>
<path fill="none" stroke="midnightblue" d="M1395.17,-279.53C1402.14,-282.04 1408.92,-285.15 1415,-289 1436.35,-302.51 1430.09,-318.82 1451,-333 1457.22,-337.22 1464.19,-340.76 1471.35,-343.71"/>
<polygon fill="midnightblue" stroke="midnightblue" points="1470.58,-347.16 1481.18,-347.4 1473.04,-340.61 1470.58,-347.16"/>
</g>
<!-- Node22&#45;&gt;Node23 -->
<g id="edge23" class="edge">
<title>Node22&#45;&gt;Node23</title>
<path fill="none" stroke="midnightblue" d="M1346.44,-258.38C1379.01,-229.39 1469.7,-148.67 1510.12,-112.69"/>
<polygon fill="midnightblue" stroke="midnightblue" points="1512.58,-115.19 1517.72,-105.93 1507.93,-109.96 1512.58,-115.19"/>
</g>
<!-- Node23&#45;&gt;Node6 -->
<g id="edge24" class="edge">
<title>Node23&#45;&gt;Node6</title>
<path fill="none" stroke="midnightblue" d="M1611.16,-95C1619.63,-95 1628.3,-95 1636.9,-95"/>
<polygon fill="midnightblue" stroke="midnightblue" points="1636.95,-98.5 1646.95,-95 1636.95,-91.5 1636.95,-98.5"/>
</g>
<!-- Node27&#45;&gt;Node26 -->
<g id="edge32" class="edge">
<title>Node27&#45;&gt;Node26</title>
<path fill="none" stroke="midnightblue" d="M596.27,-195.22C614.63,-199.27 635.93,-203.98 655.28,-208.25"/>
<polygon fill="midnightblue" stroke="midnightblue" points="654.67,-211.7 665.19,-210.44 656.18,-204.87 654.67,-211.7"/>
</g>
<!-- Node28 -->
<g id="node23" class="node">
<title>Node28</title>
<g id="a_node23"><a xlink:href="../../d5/d4b/class_shared_spi_card.html#adf2ce56ca0a56fe841fbdf75f7f3faee" target="_top" xlink:title=" ">
<polygon fill="white" stroke="black" points="632,-161.5 632,-182.5 796,-182.5 796,-161.5 632,-161.5"/>
<text text-anchor="middle" x="714" y="-168.9" font-family="Helvetica,sans-Serif" font-size="12.00">SharedSpiCard::writeSector</text>
</a>
</g>
</g>
<!-- Node27&#45;&gt;Node28 -->
<g id="edge33" class="edge">
<title>Node27&#45;&gt;Node28</title>
<path fill="none" stroke="midnightblue" d="M596.27,-181.31C604.34,-180.67 612.98,-179.98 621.78,-179.28"/>
<polygon fill="midnightblue" stroke="midnightblue" points="622.06,-182.76 631.75,-178.48 621.5,-175.79 622.06,-182.76"/>
</g>
<!-- Node28&#45;&gt;Node5 -->
<g id="edge34" class="edge">
<title>Node28&#45;&gt;Node5</title>
<path fill="none" stroke="midnightblue" d="M748.19,-182.53C763.04,-187.58 780.62,-194.05 796,-201 832.05,-217.3 871.67,-240.07 896.79,-255.16"/>
<polygon fill="midnightblue" stroke="midnightblue" points="894.99,-258.16 905.36,-260.34 898.62,-252.17 894.99,-258.16"/>
</g>
<!-- Node28&#45;&gt;Node6 -->
<g id="edge36" class="edge">
<title>Node28&#45;&gt;Node6</title>
<path fill="none" stroke="midnightblue" d="M724.14,-161.39C742.44,-140.83 785.81,-95.53 832,-72 954.37,-9.66 995.16,0 1132.5,0 1132.5,0 1132.5,0 1334.5,0 1470.48,0 1625.69,-54.27 1693.39,-80.77"/>
<polygon fill="midnightblue" stroke="midnightblue" points="1692.14,-84.04 1702.73,-84.47 1694.72,-77.53 1692.14,-84.04"/>
</g>
<!-- Node28&#45;&gt;Node17 -->
<g id="edge35" class="edge">
<title>Node28&#45;&gt;Node17</title>
<path fill="none" stroke="midnightblue" d="M796.21,-169.86C926.76,-167.05 1191.36,-164 1415,-178 1428.18,-178.83 1442.18,-180.08 1455.7,-181.5"/>
<polygon fill="midnightblue" stroke="midnightblue" points="1455.61,-185.01 1465.93,-182.61 1456.36,-178.05 1455.61,-185.01"/>
</g>
<!-- Node28&#45;&gt;Node18 -->
<g id="edge37" class="edge">
<title>Node28&#45;&gt;Node18</title>
<path fill="none" stroke="midnightblue" d="M765.01,-182.51C776.26,-186.77 787.4,-192.71 796,-201 827.02,-230.9 802.16,-259.93 832,-291 905.87,-367.9 947.95,-361.59 1051,-389 1207.58,-430.65 1256.49,-442.57 1415,-409 1446.97,-402.23 1480.85,-385.95 1503.49,-373.59"/>
<polygon fill="midnightblue" stroke="midnightblue" points="1505.45,-376.51 1512.47,-368.57 1502.03,-370.4 1505.45,-376.51"/>
</g>
<!-- Node28&#45;&gt;Node23 -->
<g id="edge39" class="edge">
<title>Node28&#45;&gt;Node23</title>
<path fill="none" stroke="midnightblue" d="M732.49,-161.4C754.74,-148.49 794.75,-127.15 832,-117 1082.56,-48.73 1156.01,-58.96 1415,-78 1429.64,-79.08 1445.24,-80.91 1460.07,-82.99"/>
<polygon fill="midnightblue" stroke="midnightblue" points="1459.8,-86.49 1470.2,-84.46 1460.81,-79.56 1459.8,-86.49"/>
</g>
<!-- Node28&#45;&gt;Node25 -->
<g id="edge38" class="edge">
<title>Node28&#45;&gt;Node25</title>
<path fill="none" stroke="midnightblue" d="M796.12,-180.21C813.79,-182 832.38,-183.88 849.71,-185.63"/>
<polygon fill="midnightblue" stroke="midnightblue" points="849.45,-189.12 859.75,-186.65 850.15,-182.16 849.45,-189.12"/>
</g>
<!-- Node29 -->
<g id="node24" class="node">
<title>Node29</title>
<g id="a_node24"><a xlink:href="../../d5/d4b/class_shared_spi_card.html#a5b6d7ad34f56d0d6a6c5059d920499ba" target="_top" xlink:title=" ">
<polygon fill="white" stroke="black" points="1256,-104.5 1256,-125.5 1411,-125.5 1411,-104.5 1256,-104.5"/>
<text text-anchor="middle" x="1333.5" y="-111.9" font-family="Helvetica,sans-Serif" font-size="12.00">SharedSpiCard::writeData</text>
</a>
</g>
</g>
<!-- Node28&#45;&gt;Node29 -->
<g id="edge40" class="edge">
<title>Node28&#45;&gt;Node29</title>
<path fill="none" stroke="midnightblue" d="M746.37,-161.42C769.7,-154.05 802.47,-144.72 832,-140 975.69,-117.04 1145.27,-113.41 1245.57,-113.65"/>
<polygon fill="midnightblue" stroke="midnightblue" points="1245.64,-117.15 1255.65,-113.69 1245.66,-110.15 1245.64,-117.15"/>
</g>
<!-- Node29&#45;&gt;Node17 -->
<g id="edge41" class="edge">
<title>Node29&#45;&gt;Node17</title>
<path fill="none" stroke="midnightblue" d="M1371.67,-125.56C1385.41,-129.72 1401.03,-134.75 1415,-140 1443.98,-150.88 1476.13,-165.35 1499.05,-176.1"/>
<polygon fill="midnightblue" stroke="midnightblue" points="1497.73,-179.35 1508.27,-180.45 1500.72,-173.02 1497.73,-179.35"/>
</g>
<!-- Node29&#45;&gt;Node18 -->
<g id="edge42" class="edge">
<title>Node29&#45;&gt;Node18</title>
<path fill="none" stroke="midnightblue" d="M1343.15,-125.75C1373.62,-163.63 1476.2,-291.13 1514.98,-339.33"/>
<polygon fill="midnightblue" stroke="midnightblue" points="1512.45,-341.77 1521.45,-347.37 1517.91,-337.38 1512.45,-341.77"/>
</g>
<!-- Node29&#45;&gt;Node23 -->
<g id="edge43" class="edge">
<title>Node29&#45;&gt;Node23</title>
<path fill="none" stroke="midnightblue" d="M1411.21,-107.15C1420.89,-106.16 1430.87,-105.14 1440.73,-104.13"/>
<polygon fill="midnightblue" stroke="midnightblue" points="1441.35,-107.59 1450.94,-103.09 1440.64,-100.62 1441.35,-107.59"/>
</g>
</g>
</svg>
