<?xml version="1.0" encoding="UTF-8" standalone="no"?>
<!DOCTYPE svg PUBLIC "-//W3C//DTD SVG 1.1//EN"
 "http://www.w3.org/Graphics/SVG/1.1/DTD/svg11.dtd">
<!-- Generated by graphviz version 2.47.3 (20210619.1520)
 -->
<!-- Title: ExFatPartition::dataCachePrepare Pages: 1 -->
<!--zoomable 605 -->
<svg id="main" version="1.1" xmlns="http://www.w3.org/2000/svg" xmlns:xlink="http://www.w3.org/1999/xlink" xml:space="preserve" onload="init(evt)">
<style type="text/css"><![CDATA[
.edge:hover path { stroke: red; }
.edge:hover polygon { stroke: red; fill: red; }
]]></style>
<script type="text/javascript"><![CDATA[
var edges = document.getElementsByTagName('g');
if (edges && edges.length) {
  for (var i=0;i<edges.length;i++) {
    if (edges[i].id.substr(0,4)=='edge') {
      edges[i].setAttribute('class','edge');
    }
  }
}
]]></script>
        <defs>
                <circle id="rim" cx="0" cy="0" r="7"/>
                <circle id="rim2" cx="0" cy="0" r="3.5"/>
                <g id="zoomPlus">
                        <use xlink:href="#rim" fill="#404040">
                                <set attributeName="fill" to="#808080" begin="zoomplus.mouseover" end="zoomplus.mouseout"/>
                        </use>
                        <path d="M-4,0h8M0,-4v8" fill="none" stroke="white" stroke-width="1.5" pointer-events="none"/>
                </g>
                <g id="zoomMin">
                        <use xlink:href="#rim" fill="#404040">
                                <set attributeName="fill" to="#808080" begin="zoomminus.mouseover" end="zoomminus.mouseout"/>
                        </use>
                        <path d="M-4,0h8" fill="none" stroke="white" stroke-width="1.5" pointer-events="none"/>
                </g>
                <g id="dirArrow">
                        <path fill="none" stroke="white" stroke-width="1.5" d="M0,-3.0v7 M-2.5,-0.5L0,-3.0L2.5,-0.5"/>
                </g>
               <g id="resetDef">
                       <use xlink:href="#rim2" fill="#404040">
                               <set attributeName="fill" to="#808080" begin="reset.mouseover" end="reset.mouseout"/>
                       </use>
               </g>
        </defs>

<script type="text/javascript">
var viewWidth = 1814;
var viewHeight = 605;
var sectionId = 'dynsection-32';
</script>
<script xlink:href="../../svgpan.js"/>
<svg id="graph" class="graph">
<g id="viewport">
<title>ExFatPartition::dataCachePrepare</title>
<polygon fill="white" stroke="transparent" points="-4,4 -4,-601 1810,-601 1810,4 -4,4"/>
<!-- Node1 -->
<g id="node1" class="node">
<title>Node1</title>
<g id="a_node1"><a xlink:title=" ">
<polygon fill="#bfbfbf" stroke="black" points="0,-384 0,-418 155,-418 155,-384 0,-384"/>
<text text-anchor="start" x="8" y="-404.4" font-family="Helvetica,sans-Serif" font-size="12.00">ExFatPartition::dataCache</text>
<text text-anchor="middle" x="77.5" y="-391.4" font-family="Helvetica,sans-Serif" font-size="12.00">Prepare</text>
</a>
</g>
</g>
<!-- Node2 -->
<g id="node2" class="node">
<title>Node2</title>
<g id="a_node2"><a xlink:href="../../d3/d77/class_fs_cache.html#a8c11f064a2ce0a380f522392f09d63cb" target="_top" xlink:title=" ">
<polygon fill="white" stroke="black" points="191,-390.5 191,-411.5 303,-411.5 303,-390.5 191,-390.5"/>
<text text-anchor="middle" x="247" y="-397.9" font-family="Helvetica,sans-Serif" font-size="12.00">FsCache::prepare</text>
</a>
</g>
</g>
<!-- Node1&#45;&gt;Node2 -->
<g id="edge1" class="edge">
<title>Node1&#45;&gt;Node2</title>
<path fill="none" stroke="midnightblue" d="M155.39,-401C163.73,-401 172.17,-401 180.36,-401"/>
<polygon fill="midnightblue" stroke="midnightblue" points="180.58,-404.5 190.58,-401 180.58,-397.5 180.58,-404.5"/>
</g>
<!-- Node3 -->
<g id="node3" class="node">
<title>Node3</title>
<g id="a_node3"><a xlink:href="../../d5/d4b/class_shared_spi_card.html#a61d86f4092f8ddbc7339d7cbcf6f70c0" target="_top" xlink:title=" ">
<polygon fill="white" stroke="black" points="469,-434.5 469,-455.5 633,-455.5 633,-434.5 469,-434.5"/>
<text text-anchor="middle" x="551" y="-441.9" font-family="Helvetica,sans-Serif" font-size="12.00">SharedSpiCard::readSector</text>
</a>
</g>
</g>
<!-- Node2&#45;&gt;Node3 -->
<g id="edge2" class="edge">
<title>Node2&#45;&gt;Node3</title>
<path fill="none" stroke="midnightblue" d="M303.04,-409.02C349.07,-415.73 415.42,-425.39 467.75,-433.02"/>
<polygon fill="midnightblue" stroke="midnightblue" points="467.29,-436.49 477.69,-434.46 468.3,-429.56 467.29,-436.49"/>
</g>
<!-- Node25 -->
<g id="node22" class="node">
<title>Node25</title>
<g id="a_node22"><a xlink:href="../../d3/d77/class_fs_cache.html#a5b90e145400de8687d9f34536b134130" target="_top" xlink:title=" ">
<polygon fill="white" stroke="black" points="499.5,-385.5 499.5,-406.5 602.5,-406.5 602.5,-385.5 499.5,-385.5"/>
<text text-anchor="middle" x="551" y="-392.9" font-family="Helvetica,sans-Serif" font-size="12.00">FsCache::sector</text>
</a>
</g>
</g>
<!-- Node2&#45;&gt;Node25 -->
<g id="edge31" class="edge">
<title>Node2&#45;&gt;Node25</title>
<path fill="none" stroke="midnightblue" d="M303.04,-400.09C355.62,-399.22 434.72,-397.91 489.15,-397.01"/>
<polygon fill="midnightblue" stroke="midnightblue" points="489.42,-400.5 499.36,-396.84 489.3,-393.5 489.42,-400.5"/>
</g>
<!-- Node26 -->
<g id="node23" class="node">
<title>Node26</title>
<g id="a_node23"><a xlink:href="../../d3/d77/class_fs_cache.html#a5a2c8fb432d7b7590ebb43200ca21893" target="_top" xlink:title=" ">
<polygon fill="white" stroke="black" points="339,-351.5 339,-372.5 433,-372.5 433,-351.5 339,-351.5"/>
<text text-anchor="middle" x="386" y="-358.9" font-family="Helvetica,sans-Serif" font-size="12.00">FsCache::sync</text>
</a>
</g>
</g>
<!-- Node2&#45;&gt;Node26 -->
<g id="edge32" class="edge">
<title>Node2&#45;&gt;Node26</title>
<path fill="none" stroke="midnightblue" d="M285.07,-390.45C301.37,-385.81 320.7,-380.31 337.99,-375.38"/>
<polygon fill="midnightblue" stroke="midnightblue" points="339.24,-378.67 347.9,-372.56 337.32,-371.93 339.24,-378.67"/>
</g>
<!-- Node4 -->
<g id="node4" class="node">
<title>Node4</title>
<g id="a_node4"><a xlink:href="../../d5/d4b/class_shared_spi_card.html#adda33199753fc2aec74fe317cbaabc06" target="_top" xlink:title=" ">
<polygon fill="white" stroke="black" points="669,-342.5 669,-363.5 852,-363.5 852,-342.5 669,-342.5"/>
<text text-anchor="middle" x="760.5" y="-349.9" font-family="Helvetica,sans-Serif" font-size="12.00">SharedSpiCard::cardCommand</text>
</a>
</g>
</g>
<!-- Node3&#45;&gt;Node4 -->
<g id="edge3" class="edge">
<title>Node3&#45;&gt;Node4</title>
<path fill="none" stroke="midnightblue" d="M584.27,-434.43C599.25,-429.27 617.2,-422.74 633,-416 667.42,-401.33 705.73,-381.78 731.07,-368.37"/>
<polygon fill="midnightblue" stroke="midnightblue" points="732.94,-371.34 740.12,-363.55 729.65,-365.16 732.94,-371.34"/>
</g>
<!-- Node16 -->
<g id="node16" class="node">
<title>Node16</title>
<g id="a_node16"><a xlink:href="../../d5/d4b/class_shared_spi_card.html#a747c3f0b962098cf0c097f3c4c2b4fd4" target="_top" xlink:title=" ">
<polygon fill="white" stroke="black" points="1303,-342.5 1303,-363.5 1433,-363.5 1433,-342.5 1303,-342.5"/>
<text text-anchor="middle" x="1368" y="-349.9" font-family="Helvetica,sans-Serif" font-size="12.00">SharedSpiCard::error</text>
</a>
</g>
</g>
<!-- Node3&#45;&gt;Node16 -->
<g id="edge27" class="edge">
<title>Node3&#45;&gt;Node16</title>
<path fill="none" stroke="midnightblue" d="M581.31,-455.51C638.55,-474.04 767,-505.67 852,-451 884.45,-430.13 855.97,-393.51 888,-372 952.11,-328.94 1175.02,-338.33 1292.78,-346.75"/>
<polygon fill="midnightblue" stroke="midnightblue" points="1292.57,-350.24 1302.8,-347.48 1293.08,-343.26 1292.57,-350.24"/>
</g>
<!-- Node17 -->
<g id="node17" class="node">
<title>Node17</title>
<g id="a_node17"><a xlink:href="../../d5/d4b/class_shared_spi_card.html#a0f511c39c50055a4fc97e720933aee3a" target="_top" xlink:title=" ">
<polygon fill="white" stroke="red" points="1295,-421.5 1295,-442.5 1441,-442.5 1441,-421.5 1295,-421.5"/>
<text text-anchor="middle" x="1368" y="-428.9" font-family="Helvetica,sans-Serif" font-size="12.00">SharedSpiCard::spiStop</text>
</a>
</g>
</g>
<!-- Node3&#45;&gt;Node17 -->
<g id="edge29" class="edge">
<title>Node3&#45;&gt;Node17</title>
<path fill="none" stroke="midnightblue" d="M576.08,-455.54C599.34,-465.11 635.83,-478.54 669,-484 733.36,-494.59 1187.42,-499.17 1252,-485 1284.5,-477.87 1318.78,-460.64 1341.36,-447.75"/>
<polygon fill="midnightblue" stroke="midnightblue" points="1343.42,-450.6 1350.29,-442.53 1339.89,-444.56 1343.42,-450.6"/>
</g>
<!-- Node23 -->
<g id="node20" class="node">
<title>Node23</title>
<g id="a_node20"><a xlink:href="../../d5/d4b/class_shared_spi_card.html#abeae3cdc162f24c2d450abe4e1ed8340" target="_top" xlink:title=" ">
<polygon fill="white" stroke="black" points="683,-575.5 683,-596.5 838,-596.5 838,-575.5 683,-575.5"/>
<text text-anchor="middle" x="760.5" y="-582.9" font-family="Helvetica,sans-Serif" font-size="12.00">SharedSpiCard::readData</text>
</a>
</g>
</g>
<!-- Node3&#45;&gt;Node23 -->
<g id="edge28" class="edge">
<title>Node3&#45;&gt;Node23</title>
<path fill="none" stroke="midnightblue" d="M559.75,-455.79C576.81,-478.74 620,-532.6 669,-561 676.68,-565.45 685.2,-569.15 693.84,-572.2"/>
<polygon fill="midnightblue" stroke="midnightblue" points="693.02,-575.61 703.61,-575.37 695.19,-568.95 693.02,-575.61"/>
</g>
<!-- Node24 -->
<g id="node21" class="node">
<title>Node24</title>
<g id="a_node21"><a xlink:href="../../d5/d4b/class_shared_spi_card.html#a7dac2190763d7b4b72163ed7131e8a87" target="_top" xlink:title=" ">
<polygon fill="white" stroke="black" points="697,-420.5 697,-441.5 824,-441.5 824,-420.5 697,-420.5"/>
<text text-anchor="middle" x="760.5" y="-427.9" font-family="Helvetica,sans-Serif" font-size="12.00">SharedSpiCard::type</text>
</a>
</g>
</g>
<!-- Node3&#45;&gt;Node24 -->
<g id="edge30" class="edge">
<title>Node3&#45;&gt;Node24</title>
<path fill="none" stroke="midnightblue" d="M633.12,-439.53C650.79,-438.33 669.38,-437.08 686.71,-435.91"/>
<polygon fill="midnightblue" stroke="midnightblue" points="687.01,-439.4 696.75,-435.23 686.54,-432.41 687.01,-439.4"/>
</g>
<!-- Node5 -->
<g id="node5" class="node">
<title>Node5</title>
<g id="a_node5"><a xlink:href="../../d5/d4b/class_shared_spi_card.html#a08363209d938db87521cca6a84146041" target="_top" xlink:title=" ">
<polygon fill="white" stroke="black" points="1484,-27.5 1484,-48.5 1648,-48.5 1648,-27.5 1484,-27.5"/>
<text text-anchor="middle" x="1566" y="-34.9" font-family="Helvetica,sans-Serif" font-size="12.00">SharedSpiCard::spiReceive</text>
</a>
</g>
</g>
<!-- Node4&#45;&gt;Node5 -->
<g id="edge4" class="edge">
<title>Node4&#45;&gt;Node5</title>
<path fill="none" stroke="midnightblue" d="M764.18,-342.37C773.97,-305.77 811.29,-183.72 888,-121 960.37,-61.82 996.89,-74.97 1089,-59 1221.44,-36.04 1377.54,-33.77 1473.89,-35.17"/>
<polygon fill="midnightblue" stroke="midnightblue" points="1473.84,-38.67 1483.9,-35.33 1473.95,-31.67 1473.84,-38.67"/>
</g>
<!-- Node7 -->
<g id="node7" class="node">
<title>Node7</title>
<g id="a_node7"><a xlink:href="../../d5/d4b/class_shared_spi_card.html#ab311b9ad8a250f06afbe091f7abb118b" target="_top" xlink:title=" ">
<polygon fill="white" stroke="black" points="1491.5,-401.5 1491.5,-422.5 1640.5,-422.5 1640.5,-401.5 1491.5,-401.5"/>
<text text-anchor="middle" x="1566" y="-408.9" font-family="Helvetica,sans-Serif" font-size="12.00">SharedSpiCard::spiSend</text>
</a>
</g>
</g>
<!-- Node4&#45;&gt;Node7 -->
<g id="edge6" class="edge">
<title>Node4&#45;&gt;Node7</title>
<path fill="none" stroke="midnightblue" d="M779.22,-363.57C797.74,-374.8 827.47,-393.34 852,-411 868.67,-423.01 868.84,-432.59 888,-440 966.8,-470.46 1394.87,-460.83 1448,-452 1477.28,-447.13 1509.05,-435.86 1532.09,-426.51"/>
<polygon fill="midnightblue" stroke="midnightblue" points="1533.5,-429.72 1541.4,-422.65 1530.82,-423.25 1533.5,-429.72"/>
</g>
<!-- Node9 -->
<g id="node9" class="node">
<title>Node9</title>
<g id="a_node9"><a xlink:href="../../d5/d4b/class_shared_spi_card.html#aef2dfa72e8d5643c90720f9f8c6a4254" target="_top" xlink:title=" ">
<polygon fill="white" stroke="black" points="897.5,-130.5 897.5,-151.5 1043.5,-151.5 1043.5,-130.5 897.5,-130.5"/>
<text text-anchor="middle" x="970.5" y="-137.9" font-family="Helvetica,sans-Serif" font-size="12.00">SharedSpiCard::spiStart</text>
</a>
</g>
</g>
<!-- Node4&#45;&gt;Node9 -->
<g id="edge8" class="edge">
<title>Node4&#45;&gt;Node9</title>
<path fill="none" stroke="midnightblue" d="M771.96,-342.18C793.56,-319.83 844.72,-267.01 888,-223 909.77,-200.86 934.99,-175.54 951.54,-158.96"/>
<polygon fill="midnightblue" stroke="midnightblue" points="954.32,-161.13 958.91,-151.58 949.37,-156.18 954.32,-161.13"/>
</g>
<!-- Node14 -->
<g id="node14" class="node">
<title>Node14</title>
<g id="a_node14"><a xlink:href="../../d5/d4b/class_shared_spi_card.html#a2f181b3d6f27413a0f5ee883dfd94d87" target="_top" xlink:title=" ">
<polygon fill="white" stroke="black" points="888,-381.5 888,-402.5 1053,-402.5 1053,-381.5 888,-381.5"/>
<text text-anchor="middle" x="970.5" y="-388.9" font-family="Helvetica,sans-Serif" font-size="12.00">SharedSpiCard::syncDevice</text>
</a>
</g>
</g>
<!-- Node4&#45;&gt;Node14 -->
<g id="edge14" class="edge">
<title>Node4&#45;&gt;Node14</title>
<path fill="none" stroke="midnightblue" d="M817.51,-363.5C843.98,-368.47 875.76,-374.42 903.41,-379.61"/>
<polygon fill="midnightblue" stroke="midnightblue" points="902.91,-383.08 913.39,-381.48 904.2,-376.2 902.91,-383.08"/>
</g>
<!-- Node22 -->
<g id="node19" class="node">
<title>Node22</title>
<g id="a_node19"><a xlink:href="../../d5/d4b/class_shared_spi_card.html#ab3468397bb3b12d29dd2f31e45b3dcaf" target="_top" xlink:title=" ">
<polygon fill="white" stroke="black" points="1288,-226.5 1288,-247.5 1448,-247.5 1448,-226.5 1288,-226.5"/>
<text text-anchor="middle" x="1368" y="-233.9" font-family="Helvetica,sans-Serif" font-size="12.00">SharedSpiCard::waitReady</text>
</a>
</g>
</g>
<!-- Node4&#45;&gt;Node22 -->
<g id="edge26" class="edge">
<title>Node4&#45;&gt;Node22</title>
<path fill="none" stroke="midnightblue" d="M816.57,-342.45C928.46,-321.01 1181.91,-272.46 1301.81,-249.49"/>
<polygon fill="midnightblue" stroke="midnightblue" points="1302.78,-252.87 1311.95,-247.55 1301.47,-245.99 1302.78,-252.87"/>
</g>
<!-- Node6 -->
<g id="node6" class="node">
<title>Node6</title>
<g id="a_node6"><a xlink:href="../../dc/da1/class_sd_spi_arduino_driver.html#a8d6bc852a52e9d69c4b1e48ee062e8d1" target="_top" xlink:title=" ">
<polygon fill="white" stroke="black" points="1684,-21 1684,-55 1806,-55 1806,-21 1684,-21"/>
<text text-anchor="start" x="1692" y="-41.4" font-family="Helvetica,sans-Serif" font-size="12.00">SdSpiArduinoDriver</text>
<text text-anchor="middle" x="1745" y="-28.4" font-family="Helvetica,sans-Serif" font-size="12.00">::receive</text>
</a>
</g>
</g>
<!-- Node5&#45;&gt;Node6 -->
<g id="edge5" class="edge">
<title>Node5&#45;&gt;Node6</title>
<path fill="none" stroke="midnightblue" d="M1648.25,-38C1656.78,-38 1665.39,-38 1673.78,-38"/>
<polygon fill="midnightblue" stroke="midnightblue" points="1673.88,-41.5 1683.88,-38 1673.88,-34.5 1673.88,-41.5"/>
</g>
<!-- Node8 -->
<g id="node8" class="node">
<title>Node8</title>
<g id="a_node8"><a xlink:href="../../dc/da1/class_sd_spi_arduino_driver.html#a3c4842e47f98fe5d3799cd6028778ab5" target="_top" xlink:title=" ">
<polygon fill="white" stroke="black" points="1684,-395 1684,-429 1806,-429 1806,-395 1684,-395"/>
<text text-anchor="start" x="1692" y="-415.4" font-family="Helvetica,sans-Serif" font-size="12.00">SdSpiArduinoDriver</text>
<text text-anchor="middle" x="1745" y="-402.4" font-family="Helvetica,sans-Serif" font-size="12.00">::send</text>
</a>
</g>
</g>
<!-- Node7&#45;&gt;Node8 -->
<g id="edge7" class="edge">
<title>Node7&#45;&gt;Node8</title>
<path fill="none" stroke="midnightblue" d="M1640.53,-412C1651.47,-412 1662.72,-412 1673.6,-412"/>
<polygon fill="midnightblue" stroke="midnightblue" points="1673.88,-415.5 1683.88,-412 1673.88,-408.5 1673.88,-415.5"/>
</g>
<!-- Node9&#45;&gt;Node7 -->
<g id="edge13" class="edge">
<title>Node9&#45;&gt;Node7</title>
<path fill="none" stroke="midnightblue" d="M1043.97,-145.1C1160.6,-152.91 1383.44,-173.2 1448,-217 1511.88,-260.34 1546.43,-351.23 1559.19,-391.75"/>
<polygon fill="midnightblue" stroke="midnightblue" points="1555.85,-392.78 1562.1,-401.34 1562.55,-390.75 1555.85,-392.78"/>
</g>
<!-- Node10 -->
<g id="node10" class="node">
<title>Node10</title>
<g id="a_node10"><a xlink:href="../../d5/d4b/class_shared_spi_card.html#a69ee2fe49dfaeea2347d8a265806d2b6" target="_top" xlink:title=" ">
<polygon fill="white" stroke="black" points="1089,-111.5 1089,-132.5 1252,-132.5 1252,-111.5 1089,-111.5"/>
<text text-anchor="middle" x="1170.5" y="-118.9" font-family="Helvetica,sans-Serif" font-size="12.00">SharedSpiCard::spiActivate</text>
</a>
</g>
</g>
<!-- Node9&#45;&gt;Node10 -->
<g id="edge9" class="edge">
<title>Node9&#45;&gt;Node10</title>
<path fill="none" stroke="midnightblue" d="M1043.54,-134.09C1054.92,-133 1066.81,-131.85 1078.54,-130.73"/>
<polygon fill="midnightblue" stroke="midnightblue" points="1079.18,-134.18 1088.8,-129.74 1078.51,-127.22 1079.18,-134.18"/>
</g>
<!-- Node12 -->
<g id="node12" class="node">
<title>Node12</title>
<g id="a_node12"><a xlink:href="../../d5/d4b/class_shared_spi_card.html#a8c3088599862ff6e84ae79bfdf32aea8" target="_top" xlink:title=" ">
<polygon fill="white" stroke="black" points="1093.5,-68.5 1093.5,-89.5 1247.5,-89.5 1247.5,-68.5 1093.5,-68.5"/>
<text text-anchor="middle" x="1170.5" y="-75.9" font-family="Helvetica,sans-Serif" font-size="12.00">SharedSpiCard::spiSelect</text>
</a>
</g>
</g>
<!-- Node9&#45;&gt;Node12 -->
<g id="edge11" class="edge">
<title>Node9&#45;&gt;Node12</title>
<path fill="none" stroke="midnightblue" d="M1002.31,-130.38C1025.94,-122.33 1059.43,-111.13 1089,-102 1099.53,-98.75 1110.88,-95.41 1121.64,-92.32"/>
<polygon fill="midnightblue" stroke="midnightblue" points="1122.66,-95.66 1131.32,-89.55 1120.74,-88.93 1122.66,-95.66"/>
</g>
<!-- Node11 -->
<g id="node11" class="node">
<title>Node11</title>
<g id="a_node11"><a xlink:href="../../dc/da1/class_sd_spi_arduino_driver.html#abb6b88c5c8b87fc344a69f23f6eab3d9" target="_top" xlink:title=" ">
<polygon fill="white" stroke="black" points="1307,-107 1307,-141 1429,-141 1429,-107 1307,-107"/>
<text text-anchor="start" x="1315" y="-127.4" font-family="Helvetica,sans-Serif" font-size="12.00">SdSpiArduinoDriver</text>
<text text-anchor="middle" x="1368" y="-114.4" font-family="Helvetica,sans-Serif" font-size="12.00">::activate</text>
</a>
</g>
</g>
<!-- Node10&#45;&gt;Node11 -->
<g id="edge10" class="edge">
<title>Node10&#45;&gt;Node11</title>
<path fill="none" stroke="midnightblue" d="M1252.15,-122.83C1266.87,-122.98 1282.13,-123.13 1296.54,-123.28"/>
<polygon fill="midnightblue" stroke="midnightblue" points="1296.82,-126.78 1306.85,-123.38 1296.89,-119.78 1296.82,-126.78"/>
</g>
<!-- Node13 -->
<g id="node13" class="node">
<title>Node13</title>
<g id="a_node13"><a xlink:href="../../d1/d6a/_sd_spi_driver_8h.html#ac469bbe2d31ffde9b00ffc68258d7428" target="_top" xlink:title=" ">
<polygon fill="white" stroke="black" points="1332,-66.5 1332,-87.5 1404,-87.5 1404,-66.5 1332,-66.5"/>
<text text-anchor="middle" x="1368" y="-73.9" font-family="Helvetica,sans-Serif" font-size="12.00">sdCsWrite</text>
</a>
</g>
</g>
<!-- Node12&#45;&gt;Node13 -->
<g id="edge12" class="edge">
<title>Node12&#45;&gt;Node13</title>
<path fill="none" stroke="midnightblue" d="M1247.65,-78.22C1272.73,-77.96 1299.81,-77.69 1321.82,-77.46"/>
<polygon fill="midnightblue" stroke="midnightblue" points="1321.91,-80.96 1331.87,-77.36 1321.84,-73.96 1321.91,-80.96"/>
</g>
<!-- Node15 -->
<g id="node15" class="node">
<title>Node15</title>
<g id="a_node15"><a xlink:href="../../d5/d4b/class_shared_spi_card.html#ab33ad2aefbb9cff905cad0879dffc78b" target="_top" xlink:title=" ">
<polygon fill="white" stroke="black" points="1093.5,-421.5 1093.5,-442.5 1247.5,-442.5 1247.5,-421.5 1093.5,-421.5"/>
<text text-anchor="middle" x="1170.5" y="-428.9" font-family="Helvetica,sans-Serif" font-size="12.00">SharedSpiCard::readStop</text>
</a>
</g>
</g>
<!-- Node14&#45;&gt;Node15 -->
<g id="edge15" class="edge">
<title>Node14&#45;&gt;Node15</title>
<path fill="none" stroke="midnightblue" d="M1023.52,-402.51C1049.23,-407.7 1080.43,-414.01 1107.38,-419.45"/>
<polygon fill="midnightblue" stroke="midnightblue" points="1106.99,-422.94 1117.48,-421.49 1108.37,-416.08 1106.99,-422.94"/>
</g>
<!-- Node21 -->
<g id="node18" class="node">
<title>Node21</title>
<g id="a_node18"><a xlink:href="../../d5/d4b/class_shared_spi_card.html#ae9a34a573077e43e7c6028a16ae77fb3" target="_top" xlink:title=" ">
<polygon fill="white" stroke="black" points="1093,-381.5 1093,-402.5 1248,-402.5 1248,-381.5 1093,-381.5"/>
<text text-anchor="middle" x="1170.5" y="-388.9" font-family="Helvetica,sans-Serif" font-size="12.00">SharedSpiCard::writeStop</text>
</a>
</g>
</g>
<!-- Node14&#45;&gt;Node21 -->
<g id="edge20" class="edge">
<title>Node14&#45;&gt;Node21</title>
<path fill="none" stroke="midnightblue" d="M1053.18,-392C1062.9,-392 1072.86,-392 1082.65,-392"/>
<polygon fill="midnightblue" stroke="midnightblue" points="1082.78,-395.5 1092.78,-392 1082.78,-388.5 1082.78,-395.5"/>
</g>
<!-- Node15&#45;&gt;Node4 -->
<g id="edge16" class="edge">
<title>Node15&#45;&gt;Node4</title>
<path fill="none" stroke="midnightblue" d="M1093.31,-440.09C1034.72,-443.19 953.04,-440.57 888,-412 867.85,-403.15 871.17,-388.8 852,-378 843.97,-373.47 835.07,-369.73 826.08,-366.64"/>
<polygon fill="midnightblue" stroke="midnightblue" points="826.92,-363.23 816.33,-363.54 824.79,-369.9 826.92,-363.23"/>
</g>
<!-- Node15&#45;&gt;Node16 -->
<g id="edge17" class="edge">
<title>Node15&#45;&gt;Node16</title>
<path fill="none" stroke="midnightblue" d="M1221.43,-421.5C1231.68,-418.82 1242.29,-415.64 1252,-412 1283.76,-400.09 1318.11,-381.67 1340.92,-368.59"/>
<polygon fill="midnightblue" stroke="midnightblue" points="1342.77,-371.56 1349.65,-363.51 1339.25,-365.51 1342.77,-371.56"/>
</g>
<!-- Node15&#45;&gt;Node17 -->
<g id="edge18" class="edge">
<title>Node15&#45;&gt;Node17</title>
<path fill="none" stroke="midnightblue" d="M1247.65,-432C1259.79,-432 1272.4,-432 1284.68,-432"/>
<polygon fill="midnightblue" stroke="midnightblue" points="1284.9,-435.5 1294.9,-432 1284.9,-428.5 1284.9,-435.5"/>
</g>
<!-- Node17&#45;&gt;Node7 -->
<g id="edge19" class="edge">
<title>Node17&#45;&gt;Node7</title>
<path fill="none" stroke="midnightblue" d="M1441.15,-424.64C1454.2,-423.31 1467.9,-421.91 1481.25,-420.55"/>
<polygon fill="midnightblue" stroke="midnightblue" points="1481.77,-424.01 1491.36,-419.51 1481.06,-417.05 1481.77,-424.01"/>
</g>
<!-- Node21&#45;&gt;Node7 -->
<g id="edge22" class="edge">
<title>Node21&#45;&gt;Node7</title>
<path fill="none" stroke="midnightblue" d="M1248.3,-395.9C1315.21,-399.3 1412.05,-404.23 1480.99,-407.73"/>
<polygon fill="midnightblue" stroke="midnightblue" points="1481.22,-411.25 1491.39,-408.26 1481.58,-404.26 1481.22,-411.25"/>
</g>
<!-- Node21&#45;&gt;Node16 -->
<g id="edge21" class="edge">
<title>Node21&#45;&gt;Node16</title>
<path fill="none" stroke="midnightblue" d="M1224.15,-381.5C1248.81,-376.58 1278.37,-370.68 1304.19,-365.53"/>
<polygon fill="midnightblue" stroke="midnightblue" points="1305.14,-368.91 1314.26,-363.52 1303.77,-362.05 1305.14,-368.91"/>
</g>
<!-- Node21&#45;&gt;Node17 -->
<g id="edge23" class="edge">
<title>Node21&#45;&gt;Node17</title>
<path fill="none" stroke="midnightblue" d="M1222.87,-402.51C1248.25,-407.7 1279.06,-414.01 1305.67,-419.45"/>
<polygon fill="midnightblue" stroke="midnightblue" points="1305.14,-422.92 1315.64,-421.49 1306.54,-416.06 1305.14,-422.92"/>
</g>
<!-- Node21&#45;&gt;Node22 -->
<g id="edge24" class="edge">
<title>Node21&#45;&gt;Node22</title>
<path fill="none" stroke="midnightblue" d="M1186.89,-381.44C1203.28,-370.06 1229.86,-351.27 1252,-334 1286.48,-307.1 1325.05,-273.89 1347.61,-254.14"/>
<polygon fill="midnightblue" stroke="midnightblue" points="1349.96,-256.73 1355.16,-247.5 1345.34,-251.47 1349.96,-256.73"/>
</g>
<!-- Node22&#45;&gt;Node5 -->
<g id="edge25" class="edge">
<title>Node22&#45;&gt;Node5</title>
<path fill="none" stroke="midnightblue" d="M1379.54,-226.3C1411.44,-193.91 1507.25,-96.64 1547.2,-56.07"/>
<polygon fill="midnightblue" stroke="midnightblue" points="1549.89,-58.33 1554.41,-48.75 1544.9,-53.42 1549.89,-58.33"/>
</g>
<!-- Node26&#45;&gt;Node25 -->
<g id="edge33" class="edge">
<title>Node26&#45;&gt;Node25</title>
<path fill="none" stroke="midnightblue" d="M433.27,-371.65C450.83,-375.31 471.08,-379.54 489.73,-383.43"/>
<polygon fill="midnightblue" stroke="midnightblue" points="489.11,-386.87 499.61,-385.49 490.54,-380.02 489.11,-386.87"/>
</g>
<!-- Node27 -->
<g id="node24" class="node">
<title>Node27</title>
<g id="a_node24"><a xlink:href="../../d5/d4b/class_shared_spi_card.html#adf2ce56ca0a56fe841fbdf75f7f3faee" target="_top" xlink:title=" ">
<polygon fill="white" stroke="black" points="469,-327.5 469,-348.5 633,-348.5 633,-327.5 469,-327.5"/>
<text text-anchor="middle" x="551" y="-334.9" font-family="Helvetica,sans-Serif" font-size="12.00">SharedSpiCard::writeSector</text>
</a>
</g>
</g>
<!-- Node26&#45;&gt;Node27 -->
<g id="edge34" class="edge">
<title>Node26&#45;&gt;Node27</title>
<path fill="none" stroke="midnightblue" d="M433.27,-355.19C444.3,-353.56 456.4,-351.78 468.49,-350"/>
<polygon fill="midnightblue" stroke="midnightblue" points="469.25,-353.43 478.63,-348.51 468.23,-346.5 469.25,-353.43"/>
</g>
<!-- Node27&#45;&gt;Node4 -->
<g id="edge35" class="edge">
<title>Node27&#45;&gt;Node4</title>
<path fill="none" stroke="midnightblue" d="M633.12,-343.86C641.53,-344.47 650.16,-345.1 658.75,-345.72"/>
<polygon fill="midnightblue" stroke="midnightblue" points="658.59,-349.21 668.82,-346.44 659.09,-342.23 658.59,-349.21"/>
</g>
<!-- Node27&#45;&gt;Node5 -->
<g id="edge37" class="edge">
<title>Node27&#45;&gt;Node5</title>
<path fill="none" stroke="midnightblue" d="M558.04,-327.14C591.1,-269.28 756.4,0 969.5,0 969.5,0 969.5,0 1171.5,0 1281.36,0 1407.67,-14.86 1486.92,-25.99"/>
<polygon fill="midnightblue" stroke="midnightblue" points="1486.91,-29.52 1497.3,-27.47 1487.89,-22.59 1486.91,-29.52"/>
</g>
<!-- Node27&#45;&gt;Node16 -->
<g id="edge36" class="edge">
<title>Node27&#45;&gt;Node16</title>
<path fill="none" stroke="midnightblue" d="M591.41,-327.47C699.05,-300.43 1006.4,-234.67 1252,-294 1285.93,-302.2 1321.09,-322.22 1343.46,-336.67"/>
<polygon fill="midnightblue" stroke="midnightblue" points="1341.66,-339.68 1351.93,-342.28 1345.53,-333.84 1341.66,-339.68"/>
</g>
<!-- Node27&#45;&gt;Node17 -->
<g id="edge38" class="edge">
<title>Node27&#45;&gt;Node17</title>
<path fill="none" stroke="midnightblue" d="M584.57,-348.56C607.93,-355.94 640.22,-365.72 669,-373 749.53,-393.37 776.89,-375.51 852,-411 870.58,-419.78 868.84,-432.59 888,-440 971.47,-472.27 999.55,-449.33 1089,-452 1161.41,-454.16 1179.82,-458.23 1252,-452 1270.06,-450.44 1289.54,-447.53 1307.24,-444.4"/>
<polygon fill="midnightblue" stroke="midnightblue" points="1308.22,-447.78 1317.43,-442.54 1306.97,-440.89 1308.22,-447.78"/>
</g>
<!-- Node27&#45;&gt;Node22 -->
<g id="edge40" class="edge">
<title>Node27&#45;&gt;Node22</title>
<path fill="none" stroke="midnightblue" d="M567.41,-327.42C589.01,-313.24 630.02,-288.63 669,-278 881.3,-220.1 1142.93,-223.64 1277.57,-230.64"/>
<polygon fill="midnightblue" stroke="midnightblue" points="1277.66,-234.15 1287.84,-231.19 1278.04,-227.16 1277.66,-234.15"/>
</g>
<!-- Node27&#45;&gt;Node24 -->
<g id="edge39" class="edge">
<title>Node27&#45;&gt;Node24</title>
<path fill="none" stroke="midnightblue" d="M578.8,-348.52C595.02,-355.38 615.83,-365.08 633,-376 650.57,-387.18 650.55,-396.34 669,-406 677.58,-410.49 687.04,-414.24 696.52,-417.35"/>
<polygon fill="midnightblue" stroke="midnightblue" points="695.79,-420.79 706.37,-420.37 697.84,-414.09 695.79,-420.79"/>
</g>
<!-- Node28 -->
<g id="node25" class="node">
<title>Node28</title>
<g id="a_node25"><a xlink:href="../../d5/d4b/class_shared_spi_card.html#a5b6d7ad34f56d0d6a6c5059d920499ba" target="_top" xlink:title=" ">
<polygon fill="white" stroke="black" points="1093,-303.5 1093,-324.5 1248,-324.5 1248,-303.5 1093,-303.5"/>
<text text-anchor="middle" x="1170.5" y="-310.9" font-family="Helvetica,sans-Serif" font-size="12.00">SharedSpiCard::writeData</text>
</a>
</g>
</g>
<!-- Node27&#45;&gt;Node28 -->
<g id="edge41" class="edge">
<title>Node27&#45;&gt;Node28</title>
<path fill="none" stroke="midnightblue" d="M633.19,-334.48C645.2,-333.97 657.42,-333.47 669,-333 814.11,-327.15 982.91,-320.84 1082.72,-317.17"/>
<polygon fill="midnightblue" stroke="midnightblue" points="1082.89,-320.67 1092.76,-316.8 1082.63,-313.67 1082.89,-320.67"/>
</g>
<!-- Node28&#45;&gt;Node16 -->
<g id="edge42" class="edge">
<title>Node28&#45;&gt;Node16</title>
<path fill="none" stroke="midnightblue" d="M1224.15,-324.5C1248.81,-329.42 1278.37,-335.32 1304.19,-340.47"/>
<polygon fill="midnightblue" stroke="midnightblue" points="1303.77,-343.95 1314.26,-342.48 1305.14,-337.09 1303.77,-343.95"/>
</g>
<!-- Node28&#45;&gt;Node17 -->
<g id="edge43" class="edge">
<title>Node28&#45;&gt;Node17</title>
<path fill="none" stroke="midnightblue" d="M1189.19,-324.68C1223.73,-345.52 1300.25,-391.71 1340.72,-416.14"/>
<polygon fill="midnightblue" stroke="midnightblue" points="1339.12,-419.26 1349.49,-421.43 1342.73,-413.27 1339.12,-419.26"/>
</g>
<!-- Node28&#45;&gt;Node22 -->
<g id="edge44" class="edge">
<title>Node28&#45;&gt;Node22</title>
<path fill="none" stroke="midnightblue" d="M1198.27,-303.45C1232.54,-289.96 1292.07,-266.51 1330.48,-251.38"/>
<polygon fill="midnightblue" stroke="midnightblue" points="1332.22,-254.46 1340.24,-247.54 1329.65,-247.95 1332.22,-254.46"/>
</g>
</g>
</svg>
        <g id="navigator" transform="translate(0 0)" fill="#404254">
                <rect fill="#f2f5e9" fill-opacity="0.5" stroke="#606060" stroke-width=".5" x="0" y="0" width="60" height="60"/>
                <use id="zoomplus" xlink:href="#zoomPlus" x="17" y="9" onmousedown="handleZoom(evt,'in')"/>
                <use id="zoomminus" xlink:href="#zoomMin" x="42" y="9" onmousedown="handleZoom(evt,'out')"/>
                <use id="reset" xlink:href="#resetDef" x="30" y="36" onmousedown="handleReset()"/>
                <g id="arrowUp" xlink:href="#dirArrow" transform="translate(30 24)" onmousedown="handlePan(0,-1)">
                  <use xlink:href="#rim" fill="#404040">
                        <set attributeName="fill" to="#808080" begin="arrowUp.mouseover" end="arrowUp.mouseout"/>
                  </use>
                  <path fill="none" stroke="white" stroke-width="1.5" d="M0,-3.0v7 M-2.5,-0.5L0,-3.0L2.5,-0.5"/>
                </g>
                <g id="arrowRight" xlink:href="#dirArrow" transform="rotate(90) translate(36 -43)" onmousedown="handlePan(1,0)">
                  <use xlink:href="#rim" fill="#404040">
                        <set attributeName="fill" to="#808080" begin="arrowRight.mouseover" end="arrowRight.mouseout"/>
                  </use>
                  <path fill="none" stroke="white" stroke-width="1.5" d="M0,-3.0v7 M-2.5,-0.5L0,-3.0L2.5,-0.5"/>
                </g>
                <g id="arrowDown" xlink:href="#dirArrow" transform="rotate(180) translate(-30 -48)" onmousedown="handlePan(0,1)">
                  <use xlink:href="#rim" fill="#404040">
                        <set attributeName="fill" to="#808080" begin="arrowDown.mouseover" end="arrowDown.mouseout"/>
                  </use>
                  <path fill="none" stroke="white" stroke-width="1.5" d="M0,-3.0v7 M-2.5,-0.5L0,-3.0L2.5,-0.5"/>
                </g>
                <g id="arrowLeft" xlink:href="#dirArrow" transform="rotate(270) translate(-36 17)" onmousedown="handlePan(-1,0)">
                  <use xlink:href="#rim" fill="#404040">
                        <set attributeName="fill" to="#808080" begin="arrowLeft.mouseover" end="arrowLeft.mouseout"/>
                  </use>
                  <path fill="none" stroke="white" stroke-width="1.5" d="M0,-3.0v7 M-2.5,-0.5L0,-3.0L2.5,-0.5"/>
                </g>
        </g>
        <svg viewBox="0 0 15 15" width="100%" height="30px" preserveAspectRatio="xMaxYMin meet">
         <g id="arrow_out" transform="scale(0.3 0.3)">
          <a xlink:href="class_ex_fat_partition_a119f5be5695880d2a16f1c0b3c3ff369_cgraph_org.svg" target="_base">
           <rect id="button" ry="5" rx="5" y="6" x="6" height="38" width="38"
                fill="#f2f5e9" fill-opacity="0.5" stroke="#606060" stroke-width="1.0"/>
           <path id="arrow"
             d="M 11.500037,31.436501 C 11.940474,20.09759 22.043105,11.32322 32.158766,21.979434 L 37.068811,17.246167 C 37.068811,17.246167 37.088388,32 37.088388,32 L 22.160133,31.978069 C 22.160133,31.978069 26.997745,27.140456 26.997745,27.140456 C 18.528582,18.264221 13.291696,25.230495 11.500037,31.436501 z"
             style="fill:#404040;"/>
          </a>
         </g>
        </svg>
</svg>
