<?xml version="1.0" encoding="UTF-8" standalone="no"?>
<!DOCTYPE svg PUBLIC "-//W3C//DTD SVG 1.1//EN"
 "http://www.w3.org/Graphics/SVG/1.1/DTD/svg11.dtd">
<!-- Generated by graphviz version 2.47.3 (20210619.1520)
 -->
<!-- Title: ExFatPartition::printVolInfo Pages: 1 -->
<svg width="978pt" height="488pt"
 viewBox="0.00 0.00 978.00 488.14" xmlns="http://www.w3.org/2000/svg" xmlns:xlink="http://www.w3.org/1999/xlink">
<g id="graph0" class="graph" transform="scale(1 1) rotate(0) translate(4 484.14)">
<title>ExFatPartition::printVolInfo</title>
<polygon fill="white" stroke="transparent" points="-4,4 -4,-484.14 974,-484.14 974,4 -4,4"/>
<!-- Node1 -->
<g id="node1" class="node">
<title>Node1</title>
<g id="a_node1"><a xlink:title=" ">
<polygon fill="#bfbfbf" stroke="black" points="0,-159.64 0,-180.64 155,-180.64 155,-159.64 0,-159.64"/>
<text text-anchor="middle" x="77.5" y="-167.04" font-family="Helvetica,sans-Serif" font-size="12.00">ExFatPartition::printVolInfo</text>
</a>
</g>
</g>
<!-- Node2 -->
<g id="node2" class="node">
<title>Node2</title>
<g id="a_node2"><a xlink:href="../../d4/de9/class_ex_fat_partition.html#a119f5be5695880d2a16f1c0b3c3ff369" target="_top" xlink:title=" ">
<polygon fill="white" stroke="black" points="191,-413.14 191,-447.14 346,-447.14 346,-413.14 191,-413.14"/>
<text text-anchor="start" x="199" y="-433.54" font-family="Helvetica,sans-Serif" font-size="12.00">ExFatPartition::dataCache</text>
<text text-anchor="middle" x="268.5" y="-420.54" font-family="Helvetica,sans-Serif" font-size="12.00">Prepare</text>
</a>
</g>
</g>
<!-- Node1&#45;&gt;Node2 -->
<g id="edge1" class="edge">
<title>Node1&#45;&gt;Node2</title>
<path fill="none" stroke="midnightblue" d="M80.91,-180.81C89.5,-216.51 121.84,-333.15 191,-398.14 194.84,-401.74 199.14,-404.97 203.69,-407.86"/>
<polygon fill="midnightblue" stroke="midnightblue" points="202.28,-411.08 212.71,-412.99 205.75,-405 202.28,-411.08"/>
</g>
<!-- Node30 -->
<g id="node7" class="node">
<title>Node30</title>
<g id="a_node7"><a xlink:href="../../d1/db3/_fs_structs_8h.html#a07fdcae728ab56cd53f71c6c17b1889c" target="_top" xlink:title=" ">
<polygon fill="white" stroke="black" points="582,-61.64 582,-82.64 642,-82.64 642,-61.64 582,-61.64"/>
<text text-anchor="middle" x="612" y="-69.04" font-family="Helvetica,sans-Serif" font-size="12.00">getLe32</text>
</a>
</g>
</g>
<!-- Node1&#45;&gt;Node30 -->
<g id="edge7" class="edge">
<title>Node1&#45;&gt;Node30</title>
<path fill="none" stroke="midnightblue" d="M101.49,-159.5C124.03,-149.27 159.5,-133.69 191,-122.14 274.42,-91.55 294.15,-76.4 382,-63.14 431.22,-55.71 444.26,-61.23 494,-63.14 519.83,-64.13 548.81,-66.35 571.46,-68.34"/>
<polygon fill="midnightblue" stroke="midnightblue" points="571.43,-71.85 581.71,-69.26 572.06,-64.88 571.43,-71.85"/>
</g>
<!-- Node31 -->
<g id="node8" class="node">
<title>Node31</title>
<g id="a_node8"><a xlink:href="../../da/db3/class_print_basic.html#a65247e790e6f8e209eb68a797bf96add" target="_top" xlink:title=" ">
<polygon fill="white" stroke="black" points="732,-101.64 732,-122.64 831,-122.64 831,-101.64 732,-101.64"/>
<text text-anchor="middle" x="781.5" y="-109.04" font-family="Helvetica,sans-Serif" font-size="12.00">PrintBasic::print</text>
</a>
</g>
</g>
<!-- Node1&#45;&gt;Node31 -->
<g id="edge8" class="edge">
<title>Node1&#45;&gt;Node31</title>
<path fill="none" stroke="midnightblue" d="M86.12,-159.62C102.52,-137.84 143.58,-87.97 191,-65.14 328.22,0.93 378.11,-26.28 530,-15.14 602.69,-9.81 627.48,14.67 694,-15.14 729.47,-31.03 756.37,-69.46 770.18,-92.9"/>
<polygon fill="midnightblue" stroke="midnightblue" points="767.15,-94.65 775.12,-101.63 773.24,-91.2 767.15,-94.65"/>
</g>
<!-- Node33 -->
<g id="node10" class="node">
<title>Node33</title>
<g id="a_node10"><a xlink:href="../../da/dc3/_ex_fat_dbg_8cpp.html#a0ac0d94135ef846b6853c511e174a0ab" target="_top" xlink:title=" ">
<polygon fill="white" stroke="black" points="221,-179.64 221,-200.64 316,-200.64 316,-179.64 221,-179.64"/>
<text text-anchor="middle" x="268.5" y="-187.04" font-family="Helvetica,sans-Serif" font-size="12.00">printExFatBoot</text>
</a>
</g>
</g>
<!-- Node1&#45;&gt;Node33 -->
<g id="edge10" class="edge">
<title>Node1&#45;&gt;Node33</title>
<path fill="none" stroke="midnightblue" d="M155.1,-178.24C173.75,-180.22 193.36,-182.29 210.89,-184.15"/>
<polygon fill="midnightblue" stroke="midnightblue" points="210.63,-187.64 220.94,-185.21 211.37,-180.68 210.63,-187.64"/>
</g>
<!-- Node37 -->
<g id="node14" class="node">
<title>Node37</title>
<g id="a_node14"><a xlink:href="../../da/db3/class_print_basic.html#af89079da3793cc7778b6b8adb46e1fde" target="_top" xlink:title=" ">
<polygon fill="white" stroke="red" points="558.5,-257.64 558.5,-278.64 665.5,-278.64 665.5,-257.64 558.5,-257.64"/>
<text text-anchor="middle" x="612" y="-265.04" font-family="Helvetica,sans-Serif" font-size="12.00">PrintBasic::println</text>
</a>
</g>
</g>
<!-- Node1&#45;&gt;Node37 -->
<g id="edge22" class="edge">
<title>Node1&#45;&gt;Node37</title>
<path fill="none" stroke="midnightblue" d="M92.65,-180.67C134.27,-210.91 260.95,-297.68 382,-327.14 430.37,-338.91 445.57,-338.66 494,-327.14 528.43,-318.95 564.22,-298.92 587,-284.47"/>
<polygon fill="midnightblue" stroke="midnightblue" points="589.16,-287.25 595.64,-278.86 585.35,-281.38 589.16,-287.25"/>
</g>
<!-- Node40 -->
<g id="node16" class="node">
<title>Node40</title>
<g id="a_node16"><a xlink:href="../../da/dc3/_ex_fat_dbg_8cpp.html#a049d69791ea628d050711ca6e7dce105" target="_top" xlink:title=" ">
<polygon fill="white" stroke="black" points="408.5,-100.64 408.5,-121.64 467.5,-121.64 467.5,-100.64 408.5,-100.64"/>
<text text-anchor="middle" x="438" y="-108.04" font-family="Helvetica,sans-Serif" font-size="12.00">printMbr</text>
</a>
</g>
</g>
<!-- Node1&#45;&gt;Node40 -->
<g id="edge23" class="edge">
<title>Node1&#45;&gt;Node40</title>
<path fill="none" stroke="midnightblue" d="M142.59,-159.59C216.84,-147.37 336.81,-127.63 398.16,-117.53"/>
<polygon fill="midnightblue" stroke="midnightblue" points="398.9,-120.96 408.2,-115.88 397.76,-114.05 398.9,-120.96"/>
</g>
<!-- Node3 -->
<g id="node3" class="node">
<title>Node3</title>
<g id="a_node3"><a xlink:href="../../d3/d77/class_fs_cache.html#a8c11f064a2ce0a380f522392f09d63cb" target="_top" xlink:title=" ">
<polygon fill="white" stroke="black" points="382,-419.64 382,-440.64 494,-440.64 494,-419.64 382,-419.64"/>
<text text-anchor="middle" x="438" y="-427.04" font-family="Helvetica,sans-Serif" font-size="12.00">FsCache::prepare</text>
</a>
</g>
</g>
<!-- Node2&#45;&gt;Node3 -->
<g id="edge2" class="edge">
<title>Node2&#45;&gt;Node3</title>
<path fill="none" stroke="midnightblue" d="M346.39,-430.14C354.73,-430.14 363.17,-430.14 371.36,-430.14"/>
<polygon fill="midnightblue" stroke="midnightblue" points="371.58,-433.64 381.58,-430.14 371.58,-426.64 371.58,-433.64"/>
</g>
<!-- Node4 -->
<g id="node4" class="node">
<title>Node4</title>
<g id="a_node4"><a xlink:href="../../d5/d4b/class_shared_spi_card.html#a61d86f4092f8ddbc7339d7cbcf6f70c0" target="_top" xlink:title=" ">
<polygon fill="white" stroke="red" points="530,-458.64 530,-479.64 694,-479.64 694,-458.64 530,-458.64"/>
<text text-anchor="middle" x="612" y="-466.04" font-family="Helvetica,sans-Serif" font-size="12.00">SharedSpiCard::readSector</text>
</a>
</g>
</g>
<!-- Node3&#45;&gt;Node4 -->
<g id="edge3" class="edge">
<title>Node3&#45;&gt;Node4</title>
<path fill="none" stroke="midnightblue" d="M485.55,-440.69C506.77,-445.5 532.09,-451.24 554.4,-456.3"/>
<polygon fill="midnightblue" stroke="midnightblue" points="553.89,-459.78 564.42,-458.58 555.44,-452.95 553.89,-459.78"/>
</g>
<!-- Node26 -->
<g id="node5" class="node">
<title>Node26</title>
<g id="a_node5"><a xlink:href="../../d3/d77/class_fs_cache.html#a5b90e145400de8687d9f34536b134130" target="_top" xlink:title=" ">
<polygon fill="white" stroke="black" points="730,-399.64 730,-420.64 833,-420.64 833,-399.64 730,-399.64"/>
<text text-anchor="middle" x="781.5" y="-407.04" font-family="Helvetica,sans-Serif" font-size="12.00">FsCache::sector</text>
</a>
</g>
</g>
<!-- Node3&#45;&gt;Node26 -->
<g id="edge4" class="edge">
<title>Node3&#45;&gt;Node26</title>
<path fill="none" stroke="midnightblue" d="M494.25,-426.9C555.94,-423.29 655.5,-417.46 719.45,-413.71"/>
<polygon fill="midnightblue" stroke="midnightblue" points="720.01,-417.19 729.79,-413.11 719.6,-410.2 720.01,-417.19"/>
</g>
<!-- Node27 -->
<g id="node6" class="node">
<title>Node27</title>
<g id="a_node6"><a xlink:href="../../d3/d77/class_fs_cache.html#a5a2c8fb432d7b7590ebb43200ca21893" target="_top" xlink:title=" ">
<polygon fill="white" stroke="red" points="565,-380.64 565,-401.64 659,-401.64 659,-380.64 565,-380.64"/>
<text text-anchor="middle" x="612" y="-388.04" font-family="Helvetica,sans-Serif" font-size="12.00">FsCache::sync</text>
</a>
</g>
</g>
<!-- Node3&#45;&gt;Node27 -->
<g id="edge5" class="edge">
<title>Node3&#45;&gt;Node27</title>
<path fill="none" stroke="midnightblue" d="M485.55,-419.58C506.86,-414.75 532.29,-408.98 554.67,-403.91"/>
<polygon fill="midnightblue" stroke="midnightblue" points="555.74,-407.26 564.72,-401.63 554.19,-400.43 555.74,-407.26"/>
</g>
<!-- Node27&#45;&gt;Node26 -->
<g id="edge6" class="edge">
<title>Node27&#45;&gt;Node26</title>
<path fill="none" stroke="midnightblue" d="M659.21,-396.38C677.93,-398.5 699.81,-400.99 719.79,-403.25"/>
<polygon fill="midnightblue" stroke="midnightblue" points="719.4,-406.73 729.73,-404.38 720.19,-399.77 719.4,-406.73"/>
</g>
<!-- Node32 -->
<g id="node9" class="node">
<title>Node32</title>
<g id="a_node9"><a xlink:href="../../da/db3/class_print_basic.html#afdd5b2ee779058e5b7741c6e46f63f06" target="_top" xlink:title=" ">
<polygon fill="white" stroke="black" points="869,-159.64 869,-180.64 970,-180.64 970,-159.64 869,-159.64"/>
<text text-anchor="middle" x="919.5" y="-167.04" font-family="Helvetica,sans-Serif" font-size="12.00">PrintBasic::write</text>
</a>
</g>
</g>
<!-- Node31&#45;&gt;Node32 -->
<g id="edge9" class="edge">
<title>Node31&#45;&gt;Node32</title>
<path fill="none" stroke="midnightblue" d="M807.13,-122.64C828.66,-131.82 860.14,-145.25 884.14,-155.49"/>
<polygon fill="midnightblue" stroke="midnightblue" points="883.02,-158.81 893.6,-159.52 885.77,-152.37 883.02,-158.81"/>
</g>
<!-- Node33&#45;&gt;Node30 -->
<g id="edge12" class="edge">
<title>Node33&#45;&gt;Node30</title>
<path fill="none" stroke="midnightblue" d="M277.67,-179.34C294.48,-158.04 335.32,-111 382,-91.14 444.28,-64.64 524.6,-64.92 571.69,-68.12"/>
<polygon fill="midnightblue" stroke="midnightblue" points="571.54,-71.62 581.78,-68.89 572.07,-64.64 571.54,-71.62"/>
</g>
<!-- Node33&#45;&gt;Node31 -->
<g id="edge14" class="edge">
<title>Node33&#45;&gt;Node31</title>
<path fill="none" stroke="midnightblue" d="M275.08,-179.48C289.08,-153.99 328.42,-89.69 382,-63.14 506.33,-1.54 561.58,-10.71 694,-52.14 720.44,-60.41 745.89,-79.92 762.26,-94.46"/>
<polygon fill="midnightblue" stroke="midnightblue" points="760.22,-97.34 769.95,-101.53 764.96,-92.18 760.22,-97.34"/>
</g>
<!-- Node33&#45;&gt;Node32 -->
<g id="edge21" class="edge">
<title>Node33&#45;&gt;Node32</title>
<path fill="none" stroke="midnightblue" d="M274.14,-200.67C286.76,-227.84 324.68,-300.04 382,-327.14 427,-348.41 444.45,-331.92 494,-327.14 584.14,-318.43 608.57,-318.19 694,-288.14 770.68,-261.16 853.52,-211.72 893.76,-186.25"/>
<polygon fill="midnightblue" stroke="midnightblue" points="895.82,-189.09 902.36,-180.76 892.05,-183.19 895.82,-189.09"/>
</g>
<!-- Node34 -->
<g id="node11" class="node">
<title>Node34</title>
<g id="a_node11"><a xlink:href="../../d1/db3/_fs_structs_8h.html#a89aef4aa8e8032eab2982d660e7b8a81" target="_top" xlink:title=" ">
<polygon fill="white" stroke="black" points="582,-217.64 582,-238.64 642,-238.64 642,-217.64 582,-217.64"/>
<text text-anchor="middle" x="612" y="-225.04" font-family="Helvetica,sans-Serif" font-size="12.00">getLe16</text>
</a>
</g>
</g>
<!-- Node33&#45;&gt;Node34 -->
<g id="edge11" class="edge">
<title>Node33&#45;&gt;Node34</title>
<path fill="none" stroke="midnightblue" d="M316.39,-194.98C361.82,-199.71 432.66,-207.19 494,-214.14 519.91,-217.07 549.03,-220.56 571.73,-223.31"/>
<polygon fill="midnightblue" stroke="midnightblue" points="571.33,-226.79 581.68,-224.53 572.18,-219.84 571.33,-226.79"/>
</g>
<!-- Node35 -->
<g id="node12" class="node">
<title>Node35</title>
<g id="a_node12"><a xlink:href="../../d1/db3/_fs_structs_8h.html#a25b748b219c3d782e4138208c54e70d9" target="_top" xlink:title=" ">
<polygon fill="white" stroke="black" points="408,-140.64 408,-161.64 468,-161.64 468,-140.64 408,-140.64"/>
<text text-anchor="middle" x="438" y="-148.04" font-family="Helvetica,sans-Serif" font-size="12.00">getLe64</text>
</a>
</g>
</g>
<!-- Node33&#45;&gt;Node35 -->
<g id="edge13" class="edge">
<title>Node33&#45;&gt;Node35</title>
<path fill="none" stroke="midnightblue" d="M314.83,-179.58C340.89,-173.52 373.28,-165.97 398.16,-160.18"/>
<polygon fill="midnightblue" stroke="midnightblue" points="399.03,-163.57 407.98,-157.89 397.45,-156.75 399.03,-163.57"/>
</g>
<!-- Node36 -->
<g id="node13" class="node">
<title>Node36</title>
<g id="a_node13"><a xlink:href="../../da/dc3/_ex_fat_dbg_8cpp.html#a493dd09bc96dd94a426e9aa49e660a9e" target="_top" xlink:title=" ">
<polygon fill="white" stroke="black" points="401.5,-296.64 401.5,-317.64 474.5,-317.64 474.5,-296.64 401.5,-296.64"/>
<text text-anchor="middle" x="438" y="-304.04" font-family="Helvetica,sans-Serif" font-size="12.00">printHex64</text>
</a>
</g>
</g>
<!-- Node33&#45;&gt;Node36 -->
<g id="edge15" class="edge">
<title>Node33&#45;&gt;Node36</title>
<path fill="none" stroke="midnightblue" d="M279.36,-200.91C297.8,-220.49 339.5,-262.23 382,-287.14 385.4,-289.13 389.04,-290.98 392.76,-292.69"/>
<polygon fill="midnightblue" stroke="midnightblue" points="391.52,-295.96 402.1,-296.61 394.24,-289.51 391.52,-295.96"/>
</g>
<!-- Node33&#45;&gt;Node37 -->
<g id="edge18" class="edge">
<title>Node33&#45;&gt;Node37</title>
<path fill="none" stroke="midnightblue" d="M315.56,-200.66C377.64,-214.84 488.07,-240.06 554.92,-255.33"/>
<polygon fill="midnightblue" stroke="midnightblue" points="554.33,-258.78 564.86,-257.6 555.89,-251.96 554.33,-258.78"/>
</g>
<!-- Node39 -->
<g id="node15" class="node">
<title>Node39</title>
<g id="a_node15"><a xlink:href="../../da/dc3/_ex_fat_dbg_8cpp.html#ad41fd2acf165b8571304d1690d92ffdb" target="_top" xlink:title=" ">
<polygon fill="white" stroke="black" points="407.5,-256.64 407.5,-277.64 468.5,-277.64 468.5,-256.64 407.5,-256.64"/>
<text text-anchor="middle" x="438" y="-264.04" font-family="Helvetica,sans-Serif" font-size="12.00">println64</text>
</a>
</g>
</g>
<!-- Node33&#45;&gt;Node39 -->
<g id="edge19" class="edge">
<title>Node33&#45;&gt;Node39</title>
<path fill="none" stroke="midnightblue" d="M292.32,-200.74C315.03,-211.28 350.9,-227.88 382,-242.14 389.15,-245.41 396.82,-248.91 404.1,-252.23"/>
<polygon fill="midnightblue" stroke="midnightblue" points="403.15,-255.64 413.7,-256.59 406.05,-249.26 403.15,-255.64"/>
</g>
<!-- Node36&#45;&gt;Node37 -->
<g id="edge16" class="edge">
<title>Node36&#45;&gt;Node37</title>
<path fill="none" stroke="midnightblue" d="M474.64,-299.06C497.76,-293.81 528.38,-286.87 554.75,-280.89"/>
<polygon fill="midnightblue" stroke="midnightblue" points="555.64,-284.28 564.62,-278.65 554.09,-277.45 555.64,-284.28"/>
</g>
<!-- Node37&#45;&gt;Node31 -->
<g id="edge17" class="edge">
<title>Node37&#45;&gt;Node31</title>
<path fill="none" stroke="midnightblue" d="M665.68,-261.3C675.7,-258.35 685.65,-254.14 694,-248.14 735.26,-218.48 761.51,-162.47 773.28,-132.41"/>
<polygon fill="midnightblue" stroke="midnightblue" points="776.6,-133.54 776.84,-122.95 770.05,-131.08 776.6,-133.54"/>
</g>
<!-- Node39&#45;&gt;Node37 -->
<g id="edge20" class="edge">
<title>Node39&#45;&gt;Node37</title>
<path fill="none" stroke="midnightblue" d="M468.57,-267.31C490.37,-267.44 520.84,-267.61 548,-267.77"/>
<polygon fill="midnightblue" stroke="midnightblue" points="548.21,-271.27 558.23,-267.83 548.25,-264.27 548.21,-271.27"/>
</g>
<!-- Node40&#45;&gt;Node30 -->
<g id="edge25" class="edge">
<title>Node40&#45;&gt;Node30</title>
<path fill="none" stroke="midnightblue" d="M467.79,-104.61C496.35,-98.13 540.33,-88.16 572.01,-80.98"/>
<polygon fill="midnightblue" stroke="midnightblue" points="572.85,-84.38 581.83,-78.75 571.3,-77.55 572.85,-84.38"/>
</g>
<!-- Node40&#45;&gt;Node31 -->
<g id="edge26" class="edge">
<title>Node40&#45;&gt;Node31</title>
<path fill="none" stroke="midnightblue" d="M467.53,-111.22C523.26,-111.38 647.6,-111.75 721.68,-111.97"/>
<polygon fill="midnightblue" stroke="midnightblue" points="721.78,-115.47 731.79,-112 721.8,-108.47 721.78,-115.47"/>
</g>
<!-- Node40&#45;&gt;Node32 -->
<g id="edge31" class="edge">
<title>Node40&#45;&gt;Node32</title>
<path fill="none" stroke="midnightblue" d="M467.65,-118.67C476.52,-121.75 486.05,-125.85 494,-131.14 513.64,-144.2 508.51,-160.41 530,-170.14 641.72,-220.73 790.74,-199.45 867.7,-182.88"/>
<polygon fill="midnightblue" stroke="midnightblue" points="868.62,-186.26 877.63,-180.68 867.11,-179.42 868.62,-186.26"/>
</g>
<!-- Node40&#45;&gt;Node34 -->
<g id="edge24" class="edge">
<title>Node40&#45;&gt;Node34</title>
<path fill="none" stroke="midnightblue" d="M467.78,-117.11C476.96,-120.12 486.64,-124.58 494,-131.14 520.71,-154.94 502.71,-180 530,-203.14 541.65,-213.02 557.17,-219 571.51,-222.61"/>
<polygon fill="midnightblue" stroke="midnightblue" points="571.15,-226.12 581.67,-224.85 572.65,-219.28 571.15,-226.12"/>
</g>
<!-- Node40&#45;&gt;Node37 -->
<g id="edge30" class="edge">
<title>Node40&#45;&gt;Node37</title>
<path fill="none" stroke="midnightblue" d="M467.58,-116.16C477.07,-119.11 487,-123.78 494,-131.14 531.49,-170.56 490.46,-210.77 530,-248.14 535.36,-253.2 541.78,-257.04 548.64,-259.94"/>
<polygon fill="midnightblue" stroke="midnightblue" points="547.61,-263.29 558.2,-263.35 549.96,-256.7 547.61,-263.29"/>
</g>
<!-- Node41 -->
<g id="node17" class="node">
<title>Node41</title>
<g id="a_node17"><a xlink:href="../../da/dc3/_ex_fat_dbg_8cpp.html#a55d1092a0a775f867ae2addf15861c3a" target="_top" xlink:title=" ">
<polygon fill="white" stroke="black" points="582.5,-139.64 582.5,-160.64 641.5,-160.64 641.5,-139.64 582.5,-139.64"/>
<text text-anchor="middle" x="612" y="-147.04" font-family="Helvetica,sans-Serif" font-size="12.00">printHex</text>
</a>
</g>
</g>
<!-- Node40&#45;&gt;Node41 -->
<g id="edge27" class="edge">
<title>Node40&#45;&gt;Node41</title>
<path fill="none" stroke="midnightblue" d="M467.79,-117.67C496.52,-124.18 540.86,-134.23 572.58,-141.43"/>
<polygon fill="midnightblue" stroke="midnightblue" points="571.88,-144.86 582.4,-143.65 573.43,-138.03 571.88,-144.86"/>
</g>
<!-- Node41&#45;&gt;Node31 -->
<g id="edge28" class="edge">
<title>Node41&#45;&gt;Node31</title>
<path fill="none" stroke="midnightblue" d="M641.79,-143.61C664.37,-138.48 696.48,-131.2 724.13,-124.93"/>
<polygon fill="midnightblue" stroke="midnightblue" points="725.11,-128.29 734.08,-122.67 723.56,-121.47 725.11,-128.29"/>
</g>
<!-- Node41&#45;&gt;Node32 -->
<g id="edge29" class="edge">
<title>Node41&#45;&gt;Node32</title>
<path fill="none" stroke="midnightblue" d="M641.74,-152.02C691.16,-155.25 793.21,-161.94 858.63,-166.22"/>
<polygon fill="midnightblue" stroke="midnightblue" points="858.59,-169.72 868.8,-166.88 859.05,-162.74 858.59,-169.72"/>
</g>
</g>
</svg>
