<?xml version="1.0" encoding="UTF-8" standalone="no"?>
<!DOCTYPE svg PUBLIC "-//W3C//DTD SVG 1.1//EN"
 "http://www.w3.org/Graphics/SVG/1.1/DTD/svg11.dtd">
<!-- Generated by graphviz version 2.47.3 (20210619.1520)
 -->
<!-- Title: ExFatPartition::writeSector Pages: 1 -->
<svg width="984pt" height="305pt"
 viewBox="0.00 0.00 984.00 305.00" xmlns="http://www.w3.org/2000/svg" xmlns:xlink="http://www.w3.org/1999/xlink">
<g id="graph0" class="graph" transform="scale(1 1) rotate(0) translate(4 301)">
<title>ExFatPartition::writeSector</title>
<polygon fill="white" stroke="transparent" points="-4,4 -4,-301 980,-301 980,4 -4,4"/>
<!-- Node1 -->
<g id="node1" class="node">
<title>Node1</title>
<g id="a_node1"><a xlink:title=" ">
<polygon fill="#bfbfbf" stroke="black" points="0,-117.5 0,-138.5 156,-138.5 156,-117.5 0,-117.5"/>
<text text-anchor="middle" x="78" y="-124.9" font-family="Helvetica,sans-Serif" font-size="12.00">ExFatPartition::writeSector</text>
</a>
</g>
</g>
<!-- Node2 -->
<g id="node2" class="node">
<title>Node2</title>
<g id="a_node2"><a xlink:href="../../d5/d4b/class_shared_spi_card.html#adf2ce56ca0a56fe841fbdf75f7f3faee" target="_top" xlink:title=" ">
<polygon fill="white" stroke="black" points="192,-117.5 192,-138.5 356,-138.5 356,-117.5 192,-117.5"/>
<text text-anchor="middle" x="274" y="-124.9" font-family="Helvetica,sans-Serif" font-size="12.00">SharedSpiCard::writeSector</text>
</a>
</g>
</g>
<!-- Node1&#45;&gt;Node2 -->
<g id="edge1" class="edge">
<title>Node1&#45;&gt;Node2</title>
<path fill="none" stroke="midnightblue" d="M156.23,-128C164.66,-128 173.3,-128 181.88,-128"/>
<polygon fill="midnightblue" stroke="midnightblue" points="181.9,-131.5 191.9,-128 181.9,-124.5 181.9,-131.5"/>
</g>
<!-- Node3 -->
<g id="node3" class="node">
<title>Node3</title>
<g id="a_node3"><a xlink:href="../../d5/d4b/class_shared_spi_card.html#adda33199753fc2aec74fe317cbaabc06" target="_top" xlink:title=" ">
<polygon fill="white" stroke="black" points="392,-195.5 392,-216.5 575,-216.5 575,-195.5 392,-195.5"/>
<text text-anchor="middle" x="483.5" y="-202.9" font-family="Helvetica,sans-Serif" font-size="12.00">SharedSpiCard::cardCommand</text>
</a>
</g>
</g>
<!-- Node2&#45;&gt;Node3 -->
<g id="edge2" class="edge">
<title>Node2&#45;&gt;Node3</title>
<path fill="none" stroke="midnightblue" d="M296.62,-138.7C319.83,-149.92 357.95,-167.61 392,-180 404.61,-184.59 418.44,-188.91 431.4,-192.66"/>
<polygon fill="midnightblue" stroke="midnightblue" points="430.54,-196.05 441.12,-195.41 432.45,-189.32 430.54,-196.05"/>
</g>
<!-- Node4 -->
<g id="node4" class="node">
<title>Node4</title>
<g id="a_node4"><a xlink:href="../../d5/d4b/class_shared_spi_card.html#a08363209d938db87521cca6a84146041" target="_top" xlink:title=" ">
<polygon fill="white" stroke="red" points="812,-275.5 812,-296.5 976,-296.5 976,-275.5 812,-275.5"/>
<text text-anchor="middle" x="894" y="-282.9" font-family="Helvetica,sans-Serif" font-size="12.00">SharedSpiCard::spiReceive</text>
</a>
</g>
</g>
<!-- Node2&#45;&gt;Node4 -->
<g id="edge11" class="edge">
<title>Node2&#45;&gt;Node4</title>
<path fill="none" stroke="midnightblue" d="M284.88,-138.8C303.78,-158.84 347.18,-201.93 392,-226 544.49,-307.9 602.95,-294.7 776,-291 784.33,-290.82 792.99,-290.57 801.66,-290.28"/>
<polygon fill="midnightblue" stroke="midnightblue" points="801.95,-293.77 811.82,-289.92 801.7,-286.78 801.95,-293.77"/>
</g>
<!-- Node21 -->
<g id="node8" class="node">
<title>Node21</title>
<g id="a_node8"><a xlink:href="../../d5/d4b/class_shared_spi_card.html#ab3468397bb3b12d29dd2f31e45b3dcaf" target="_top" xlink:title=" ">
<polygon fill="white" stroke="black" points="613.5,-118.5 613.5,-139.5 773.5,-139.5 773.5,-118.5 613.5,-118.5"/>
<text text-anchor="middle" x="693.5" y="-125.9" font-family="Helvetica,sans-Serif" font-size="12.00">SharedSpiCard::waitReady</text>
</a>
</g>
</g>
<!-- Node2&#45;&gt;Node21 -->
<g id="edge15" class="edge">
<title>Node2&#45;&gt;Node21</title>
<path fill="none" stroke="midnightblue" d="M351.98,-138.53C365.3,-139.98 379.03,-141.23 392,-142 473.19,-146.84 493.79,-146.48 575,-142 584.1,-141.5 593.59,-140.78 603.05,-139.93"/>
<polygon fill="midnightblue" stroke="midnightblue" points="603.65,-143.39 613.28,-138.97 602.99,-136.42 603.65,-143.39"/>
</g>
<!-- Node15 -->
<g id="node9" class="node">
<title>Node15</title>
<g id="a_node9"><a xlink:href="../../d5/d4b/class_shared_spi_card.html#a747c3f0b962098cf0c097f3c4c2b4fd4" target="_top" xlink:title=" ">
<polygon fill="white" stroke="black" points="628.5,-78.5 628.5,-99.5 758.5,-99.5 758.5,-78.5 628.5,-78.5"/>
<text text-anchor="middle" x="693.5" y="-85.9" font-family="Helvetica,sans-Serif" font-size="12.00">SharedSpiCard::error</text>
</a>
</g>
</g>
<!-- Node2&#45;&gt;Node15 -->
<g id="edge10" class="edge">
<title>Node2&#45;&gt;Node15</title>
<path fill="none" stroke="midnightblue" d="M356.06,-125.18C416.54,-122.51 501.13,-117.6 575,-109 592.27,-106.99 610.86,-104.14 628.04,-101.23"/>
<polygon fill="midnightblue" stroke="midnightblue" points="628.72,-104.66 637.97,-99.51 627.52,-97.77 628.72,-104.66"/>
</g>
<!-- Node16 -->
<g id="node10" class="node">
<title>Node16</title>
<g id="a_node10"><a xlink:href="../../d5/d4b/class_shared_spi_card.html#a0f511c39c50055a4fc97e720933aee3a" target="_top" xlink:title=" ">
<polygon fill="white" stroke="red" points="620.5,-38.5 620.5,-59.5 766.5,-59.5 766.5,-38.5 620.5,-38.5"/>
<text text-anchor="middle" x="693.5" y="-45.9" font-family="Helvetica,sans-Serif" font-size="12.00">SharedSpiCard::spiStop</text>
</a>
</g>
</g>
<!-- Node2&#45;&gt;Node16 -->
<g id="edge12" class="edge">
<title>Node2&#45;&gt;Node16</title>
<path fill="none" stroke="midnightblue" d="M290.82,-117.41C312.56,-103.48 353.38,-79.55 392,-69 463.87,-49.36 548.85,-45.39 610.06,-45.73"/>
<polygon fill="midnightblue" stroke="midnightblue" points="610.41,-49.23 620.44,-45.83 610.47,-42.23 610.41,-49.23"/>
</g>
<!-- Node22 -->
<g id="node11" class="node">
<title>Node22</title>
<g id="a_node11"><a xlink:href="../../d5/d4b/class_shared_spi_card.html#a7dac2190763d7b4b72163ed7131e8a87" target="_top" xlink:title=" ">
<polygon fill="white" stroke="black" points="420,-0.5 420,-21.5 547,-21.5 547,-0.5 420,-0.5"/>
<text text-anchor="middle" x="483.5" y="-7.9" font-family="Helvetica,sans-Serif" font-size="12.00">SharedSpiCard::type</text>
</a>
</g>
</g>
<!-- Node2&#45;&gt;Node22 -->
<g id="edge14" class="edge">
<title>Node2&#45;&gt;Node22</title>
<path fill="none" stroke="midnightblue" d="M285.58,-117.22C304.96,-98.1 348.18,-58.14 392,-36 400.95,-31.48 410.82,-27.69 420.65,-24.53"/>
<polygon fill="midnightblue" stroke="midnightblue" points="421.87,-27.82 430.44,-21.59 419.86,-21.12 421.87,-27.82"/>
</g>
<!-- Node23 -->
<g id="node12" class="node">
<title>Node23</title>
<g id="a_node12"><a xlink:href="../../d5/d4b/class_shared_spi_card.html#a5b6d7ad34f56d0d6a6c5059d920499ba" target="_top" xlink:title=" ">
<polygon fill="white" stroke="black" points="406,-78.5 406,-99.5 561,-99.5 561,-78.5 406,-78.5"/>
<text text-anchor="middle" x="483.5" y="-85.9" font-family="Helvetica,sans-Serif" font-size="12.00">SharedSpiCard::writeData</text>
</a>
</g>
</g>
<!-- Node2&#45;&gt;Node23 -->
<g id="edge16" class="edge">
<title>Node2&#45;&gt;Node23</title>
<path fill="none" stroke="midnightblue" d="M330.88,-117.5C357.29,-112.53 388.99,-106.58 416.57,-101.39"/>
<polygon fill="midnightblue" stroke="midnightblue" points="417.34,-104.81 426.52,-99.52 416.05,-97.93 417.34,-104.81"/>
</g>
<!-- Node3&#45;&gt;Node4 -->
<g id="edge3" class="edge">
<title>Node3&#45;&gt;Node4</title>
<path fill="none" stroke="midnightblue" d="M501.28,-216.69C524.78,-231.04 569.28,-255.98 611,-267 673.19,-283.43 745.64,-288.02 801.52,-288.58"/>
<polygon fill="midnightblue" stroke="midnightblue" points="801.74,-292.08 811.76,-288.64 801.78,-285.08 801.74,-292.08"/>
</g>
<!-- Node6 -->
<g id="node5" class="node">
<title>Node6</title>
<g id="a_node5"><a xlink:href="../../d5/d4b/class_shared_spi_card.html#ab311b9ad8a250f06afbe091f7abb118b" target="_top" xlink:title=" ">
<polygon fill="white" stroke="red" points="819.5,-158.5 819.5,-179.5 968.5,-179.5 968.5,-158.5 819.5,-158.5"/>
<text text-anchor="middle" x="894" y="-165.9" font-family="Helvetica,sans-Serif" font-size="12.00">SharedSpiCard::spiSend</text>
</a>
</g>
</g>
<!-- Node3&#45;&gt;Node6 -->
<g id="edge4" class="edge">
<title>Node3&#45;&gt;Node6</title>
<path fill="none" stroke="midnightblue" d="M575.32,-203.3C632.95,-200.94 709.01,-196.65 776,-189 793.29,-187.02 811.9,-184.18 829.08,-181.25"/>
<polygon fill="midnightblue" stroke="midnightblue" points="829.76,-184.68 839.01,-179.52 828.55,-177.79 829.76,-184.68"/>
</g>
<!-- Node8 -->
<g id="node6" class="node">
<title>Node8</title>
<g id="a_node6"><a xlink:href="../../d5/d4b/class_shared_spi_card.html#aef2dfa72e8d5643c90720f9f8c6a4254" target="_top" xlink:title=" ">
<polygon fill="white" stroke="red" points="620.5,-158.5 620.5,-179.5 766.5,-179.5 766.5,-158.5 620.5,-158.5"/>
<text text-anchor="middle" x="693.5" y="-165.9" font-family="Helvetica,sans-Serif" font-size="12.00">SharedSpiCard::spiStart</text>
</a>
</g>
</g>
<!-- Node3&#45;&gt;Node8 -->
<g id="edge5" class="edge">
<title>Node3&#45;&gt;Node8</title>
<path fill="none" stroke="midnightblue" d="M543.55,-195.5C568.36,-191.08 597.4,-185.92 623.21,-181.33"/>
<polygon fill="midnightblue" stroke="midnightblue" points="624.07,-184.73 633.3,-179.53 622.85,-177.84 624.07,-184.73"/>
</g>
<!-- Node13 -->
<g id="node7" class="node">
<title>Node13</title>
<g id="a_node7"><a xlink:href="../../d5/d4b/class_shared_spi_card.html#a2f181b3d6f27413a0f5ee883dfd94d87" target="_top" xlink:title=" ">
<polygon fill="white" stroke="red" points="611,-236.5 611,-257.5 776,-257.5 776,-236.5 611,-236.5"/>
<text text-anchor="middle" x="693.5" y="-243.9" font-family="Helvetica,sans-Serif" font-size="12.00">SharedSpiCard::syncDevice</text>
</a>
</g>
</g>
<!-- Node3&#45;&gt;Node13 -->
<g id="edge7" class="edge">
<title>Node3&#45;&gt;Node13</title>
<path fill="none" stroke="midnightblue" d="M537.8,-216.51C565.57,-221.98 599.74,-228.72 628.9,-234.46"/>
<polygon fill="midnightblue" stroke="midnightblue" points="628.49,-237.95 638.98,-236.45 629.85,-231.08 628.49,-237.95"/>
</g>
<!-- Node3&#45;&gt;Node21 -->
<g id="edge8" class="edge">
<title>Node3&#45;&gt;Node21</title>
<path fill="none" stroke="midnightblue" d="M535.8,-195.4C549.02,-191.57 562.92,-186.53 575,-180 593.58,-169.96 592.23,-158.67 611,-149 615.5,-146.68 620.28,-144.63 625.18,-142.8"/>
<polygon fill="midnightblue" stroke="midnightblue" points="626.36,-146.1 634.7,-139.57 624.11,-139.47 626.36,-146.1"/>
</g>
<!-- Node8&#45;&gt;Node6 -->
<g id="edge6" class="edge">
<title>Node8&#45;&gt;Node6</title>
<path fill="none" stroke="midnightblue" d="M766.72,-169C780.55,-169 795.13,-169 809.29,-169"/>
<polygon fill="midnightblue" stroke="midnightblue" points="809.5,-172.5 819.5,-169 809.5,-165.5 809.5,-172.5"/>
</g>
<!-- Node21&#45;&gt;Node4 -->
<g id="edge9" class="edge">
<title>Node21&#45;&gt;Node4</title>
<path fill="none" stroke="midnightblue" d="M755.84,-139.58C762.91,-142.09 769.8,-145.18 776,-149 782.5,-153.01 847.2,-230.67 877.5,-267.24"/>
<polygon fill="midnightblue" stroke="midnightblue" points="875,-269.72 884.08,-275.19 880.4,-265.25 875,-269.72"/>
</g>
<!-- Node16&#45;&gt;Node6 -->
<g id="edge13" class="edge">
<title>Node16&#45;&gt;Node6</title>
<path fill="none" stroke="midnightblue" d="M752.28,-59.6C760.47,-62.12 768.61,-65.21 776,-69 817.08,-90.07 856,-128.25 876.97,-150.85"/>
<polygon fill="midnightblue" stroke="midnightblue" points="874.53,-153.37 883.85,-158.41 879.71,-148.66 874.53,-153.37"/>
</g>
<!-- Node23&#45;&gt;Node21 -->
<g id="edge19" class="edge">
<title>Node23&#45;&gt;Node21</title>
<path fill="none" stroke="midnightblue" d="M539.15,-99.51C566.39,-104.75 599.51,-111.12 627.99,-116.59"/>
<polygon fill="midnightblue" stroke="midnightblue" points="627.37,-120.04 637.85,-118.49 628.7,-113.17 627.37,-120.04"/>
</g>
<!-- Node23&#45;&gt;Node15 -->
<g id="edge17" class="edge">
<title>Node23&#45;&gt;Node15</title>
<path fill="none" stroke="midnightblue" d="M561.07,-89C579.73,-89 599.67,-89 618.23,-89"/>
<polygon fill="midnightblue" stroke="midnightblue" points="618.38,-92.5 628.38,-89 618.38,-85.5 618.38,-92.5"/>
</g>
<!-- Node23&#45;&gt;Node16 -->
<g id="edge18" class="edge">
<title>Node23&#45;&gt;Node16</title>
<path fill="none" stroke="midnightblue" d="M539.15,-78.49C566.39,-73.25 599.51,-66.88 627.99,-61.41"/>
<polygon fill="midnightblue" stroke="midnightblue" points="628.7,-64.83 637.85,-59.51 627.37,-57.96 628.7,-64.83"/>
</g>
</g>
</svg>
