<?xml version="1.0" encoding="UTF-8" standalone="no"?>
<!DOCTYPE svg PUBLIC "-//W3C//DTD SVG 1.1//EN"
 "http://www.w3.org/Graphics/SVG/1.1/DTD/svg11.dtd">
<!-- Generated by graphviz version 2.47.3 (20210619.1520)
 -->
<!-- Title: ExFatPartition::fatGet Pages: 1 -->
<svg width="814pt" height="116pt"
 viewBox="0.00 0.00 814.00 116.00" xmlns="http://www.w3.org/2000/svg" xmlns:xlink="http://www.w3.org/1999/xlink">
<g id="graph0" class="graph" transform="scale(1 1) rotate(0) translate(4 112)">
<title>ExFatPartition::fatGet</title>
<polygon fill="white" stroke="transparent" points="-4,4 -4,-112 810,-112 810,4 -4,4"/>
<!-- Node1 -->
<g id="node1" class="node">
<title>Node1</title>
<g id="a_node1"><a xlink:title=" ">
<polygon fill="#bfbfbf" stroke="black" points="0,-23.5 0,-44.5 128,-44.5 128,-23.5 0,-23.5"/>
<text text-anchor="middle" x="64" y="-30.9" font-family="Helvetica,sans-Serif" font-size="12.00">ExFatPartition::fatGet</text>
</a>
</g>
</g>
<!-- Node2 -->
<g id="node2" class="node">
<title>Node2</title>
<g id="a_node2"><a xlink:href="../../d4/de9/class_ex_fat_partition.html#a119f5be5695880d2a16f1c0b3c3ff369" target="_top" xlink:title=" ">
<polygon fill="white" stroke="black" points="164,-41 164,-75 319,-75 319,-41 164,-41"/>
<text text-anchor="start" x="172" y="-61.4" font-family="Helvetica,sans-Serif" font-size="12.00">ExFatPartition::dataCache</text>
<text text-anchor="middle" x="241.5" y="-48.4" font-family="Helvetica,sans-Serif" font-size="12.00">Prepare</text>
</a>
</g>
</g>
<!-- Node1&#45;&gt;Node2 -->
<g id="edge1" class="edge">
<title>Node1&#45;&gt;Node2</title>
<path fill="none" stroke="midnightblue" d="M128.36,-42.66C136.62,-43.79 145.19,-44.97 153.74,-46.14"/>
<polygon fill="midnightblue" stroke="midnightblue" points="153.38,-49.62 163.76,-47.51 154.33,-42.68 153.38,-49.62"/>
</g>
<!-- Node30 -->
<g id="node7" class="node">
<title>Node30</title>
<g id="a_node7"><a xlink:href="../../d1/db3/_fs_structs_8h.html#a07fdcae728ab56cd53f71c6c17b1889c" target="_top" xlink:title=" ">
<polygon fill="white" stroke="black" points="211.5,-0.5 211.5,-21.5 271.5,-21.5 271.5,-0.5 211.5,-0.5"/>
<text text-anchor="middle" x="241.5" y="-7.9" font-family="Helvetica,sans-Serif" font-size="12.00">getLe32</text>
</a>
</g>
</g>
<!-- Node1&#45;&gt;Node30 -->
<g id="edge7" class="edge">
<title>Node1&#45;&gt;Node30</title>
<path fill="none" stroke="midnightblue" d="M128.36,-25.7C152.66,-22.51 179.67,-18.97 201.09,-16.16"/>
<polygon fill="midnightblue" stroke="midnightblue" points="201.66,-19.62 211.13,-14.85 200.76,-12.68 201.66,-19.62"/>
</g>
<!-- Node3 -->
<g id="node3" class="node">
<title>Node3</title>
<g id="a_node3"><a xlink:href="../../d3/d77/class_fs_cache.html#a8c11f064a2ce0a380f522392f09d63cb" target="_top" xlink:title=" ">
<polygon fill="white" stroke="black" points="355,-47.5 355,-68.5 467,-68.5 467,-47.5 355,-47.5"/>
<text text-anchor="middle" x="411" y="-54.9" font-family="Helvetica,sans-Serif" font-size="12.00">FsCache::prepare</text>
</a>
</g>
</g>
<!-- Node2&#45;&gt;Node3 -->
<g id="edge2" class="edge">
<title>Node2&#45;&gt;Node3</title>
<path fill="none" stroke="midnightblue" d="M319.39,-58C327.73,-58 336.17,-58 344.36,-58"/>
<polygon fill="midnightblue" stroke="midnightblue" points="344.58,-61.5 354.58,-58 344.58,-54.5 344.58,-61.5"/>
</g>
<!-- Node4 -->
<g id="node4" class="node">
<title>Node4</title>
<g id="a_node4"><a xlink:href="../../d5/d4b/class_shared_spi_card.html#a61d86f4092f8ddbc7339d7cbcf6f70c0" target="_top" xlink:title=" ">
<polygon fill="white" stroke="red" points="503,-86.5 503,-107.5 667,-107.5 667,-86.5 503,-86.5"/>
<text text-anchor="middle" x="585" y="-93.9" font-family="Helvetica,sans-Serif" font-size="12.00">SharedSpiCard::readSector</text>
</a>
</g>
</g>
<!-- Node3&#45;&gt;Node4 -->
<g id="edge3" class="edge">
<title>Node3&#45;&gt;Node4</title>
<path fill="none" stroke="midnightblue" d="M458.55,-68.55C479.77,-73.37 505.09,-79.11 527.4,-84.17"/>
<polygon fill="midnightblue" stroke="midnightblue" points="526.89,-87.64 537.42,-86.44 528.44,-80.81 526.89,-87.64"/>
</g>
<!-- Node26 -->
<g id="node5" class="node">
<title>Node26</title>
<g id="a_node5"><a xlink:href="../../d3/d77/class_fs_cache.html#a5b90e145400de8687d9f34536b134130" target="_top" xlink:title=" ">
<polygon fill="white" stroke="black" points="703,-27.5 703,-48.5 806,-48.5 806,-27.5 703,-27.5"/>
<text text-anchor="middle" x="754.5" y="-34.9" font-family="Helvetica,sans-Serif" font-size="12.00">FsCache::sector</text>
</a>
</g>
</g>
<!-- Node3&#45;&gt;Node26 -->
<g id="edge4" class="edge">
<title>Node3&#45;&gt;Node26</title>
<path fill="none" stroke="midnightblue" d="M467.25,-54.76C528.94,-51.15 628.5,-45.32 692.45,-41.58"/>
<polygon fill="midnightblue" stroke="midnightblue" points="693.01,-45.05 702.79,-40.97 692.6,-38.06 693.01,-45.05"/>
</g>
<!-- Node27 -->
<g id="node6" class="node">
<title>Node27</title>
<g id="a_node6"><a xlink:href="../../d3/d77/class_fs_cache.html#a5a2c8fb432d7b7590ebb43200ca21893" target="_top" xlink:title=" ">
<polygon fill="white" stroke="red" points="538,-8.5 538,-29.5 632,-29.5 632,-8.5 538,-8.5"/>
<text text-anchor="middle" x="585" y="-15.9" font-family="Helvetica,sans-Serif" font-size="12.00">FsCache::sync</text>
</a>
</g>
</g>
<!-- Node3&#45;&gt;Node27 -->
<g id="edge5" class="edge">
<title>Node3&#45;&gt;Node27</title>
<path fill="none" stroke="midnightblue" d="M458.55,-47.45C479.86,-42.61 505.29,-36.85 527.67,-31.77"/>
<polygon fill="midnightblue" stroke="midnightblue" points="528.74,-35.12 537.72,-29.49 527.19,-28.29 528.74,-35.12"/>
</g>
<!-- Node27&#45;&gt;Node26 -->
<g id="edge6" class="edge">
<title>Node27&#45;&gt;Node26</title>
<path fill="none" stroke="midnightblue" d="M632.21,-24.24C650.93,-26.37 672.81,-28.85 692.79,-31.11"/>
<polygon fill="midnightblue" stroke="midnightblue" points="692.4,-34.59 702.73,-32.24 693.19,-27.64 692.4,-34.59"/>
</g>
</g>
</svg>
