<?xml version="1.0" encoding="UTF-8" standalone="no"?>
<!DOCTYPE svg PUBLIC "-//W3C//DTD SVG 1.1//EN"
 "http://www.w3.org/Graphics/SVG/1.1/DTD/svg11.dtd">
<!-- Generated by graphviz version 2.47.3 (20210619.1520)
 -->
<!-- Title: ExFatPartition::dmpBitmap Pages: 1 -->
<svg width="833pt" height="191pt"
 viewBox="0.00 0.00 833.00 191.29" xmlns="http://www.w3.org/2000/svg" xmlns:xlink="http://www.w3.org/1999/xlink">
<g id="graph0" class="graph" transform="scale(1 1) rotate(0) translate(4 187.29)">
<title>ExFatPartition::dmpBitmap</title>
<polygon fill="white" stroke="transparent" points="-4,4 -4,-187.29 829,-187.29 829,4 -4,4"/>
<!-- Node1 -->
<g id="node1" class="node">
<title>Node1</title>
<g id="a_node1"><a xlink:title=" ">
<polygon fill="#bfbfbf" stroke="black" points="0,-47.5 0,-68.5 158,-68.5 158,-47.5 0,-47.5"/>
<text text-anchor="middle" x="79" y="-54.9" font-family="Helvetica,sans-Serif" font-size="12.00">ExFatPartition::dmpBitmap</text>
</a>
</g>
</g>
<!-- Node2 -->
<g id="node2" class="node">
<title>Node2</title>
<g id="a_node2"><a xlink:href="../../d4/de9/class_ex_fat_partition.html#a1092830e46501f07f54afa9f654ede0c" target="_top" xlink:title=" ">
<polygon fill="white" stroke="black" points="194,-67.5 194,-88.5 349,-88.5 349,-67.5 194,-67.5"/>
<text text-anchor="middle" x="271.5" y="-74.9" font-family="Helvetica,sans-Serif" font-size="12.00">ExFatPartition::dmpSector</text>
</a>
</g>
</g>
<!-- Node1&#45;&gt;Node2 -->
<g id="edge1" class="edge">
<title>Node1&#45;&gt;Node2</title>
<path fill="none" stroke="midnightblue" d="M158.03,-66.19C166.53,-67.08 175.21,-68 183.8,-68.9"/>
<polygon fill="midnightblue" stroke="midnightblue" points="183.51,-72.39 193.82,-69.95 184.24,-65.42 183.51,-72.39"/>
</g>
<!-- Node34 -->
<g id="node8" class="node">
<title>Node34</title>
<g id="a_node8"><a xlink:href="../../da/db3/class_print_basic.html#af89079da3793cc7778b6b8adb46e1fde" target="_top" xlink:title=" ">
<polygon fill="white" stroke="black" points="409,-27.5 409,-48.5 516,-48.5 516,-27.5 409,-27.5"/>
<text text-anchor="middle" x="462.5" y="-34.9" font-family="Helvetica,sans-Serif" font-size="12.00">PrintBasic::println</text>
</a>
</g>
</g>
<!-- Node1&#45;&gt;Node34 -->
<g id="edge13" class="edge">
<title>Node1&#45;&gt;Node34</title>
<path fill="none" stroke="midnightblue" d="M158.12,-53.9C229.2,-50.18 332.79,-44.75 398.65,-41.3"/>
<polygon fill="midnightblue" stroke="midnightblue" points="399.08,-44.78 408.88,-40.76 398.71,-37.79 399.08,-44.78"/>
</g>
<!-- Node3 -->
<g id="node3" class="node">
<title>Node3</title>
<g id="a_node3"><a xlink:href="../../d4/de9/class_ex_fat_partition.html#a119f5be5695880d2a16f1c0b3c3ff369" target="_top" xlink:title=" ">
<polygon fill="white" stroke="black" points="385,-108 385,-142 540,-142 540,-108 385,-108"/>
<text text-anchor="start" x="393" y="-128.4" font-family="Helvetica,sans-Serif" font-size="12.00">ExFatPartition::dataCache</text>
<text text-anchor="middle" x="462.5" y="-115.4" font-family="Helvetica,sans-Serif" font-size="12.00">Prepare</text>
</a>
</g>
</g>
<!-- Node2&#45;&gt;Node3 -->
<g id="edge2" class="edge">
<title>Node2&#45;&gt;Node3</title>
<path fill="none" stroke="midnightblue" d="M314.92,-88.55C335.01,-93.54 359.67,-99.68 383,-105.48"/>
<polygon fill="midnightblue" stroke="midnightblue" points="382.34,-108.92 392.89,-107.94 384.03,-102.13 382.34,-108.92"/>
</g>
<!-- Node31 -->
<g id="node5" class="node">
<title>Node31</title>
<g id="a_node5"><a xlink:href="../../da/dc3/_ex_fat_dbg_8cpp.html#a55d1092a0a775f867ae2addf15861c3a" target="_top" xlink:title=" ">
<polygon fill="white" stroke="black" points="433,-67.5 433,-88.5 492,-88.5 492,-67.5 433,-67.5"/>
<text text-anchor="middle" x="462.5" y="-74.9" font-family="Helvetica,sans-Serif" font-size="12.00">printHex</text>
</a>
</g>
</g>
<!-- Node2&#45;&gt;Node31 -->
<g id="edge4" class="edge">
<title>Node2&#45;&gt;Node31</title>
<path fill="none" stroke="midnightblue" d="M349.1,-78C374.31,-78 401.29,-78 422.49,-78"/>
<polygon fill="midnightblue" stroke="midnightblue" points="422.71,-81.5 432.71,-78 422.7,-74.5 422.71,-81.5"/>
</g>
<!-- Node33 -->
<g id="node7" class="node">
<title>Node33</title>
<g id="a_node7"><a xlink:href="../../da/db3/class_print_basic.html#afdd5b2ee779058e5b7741c6e46f63f06" target="_top" xlink:title=" ">
<polygon fill="white" stroke="black" points="724,-59.5 724,-80.5 825,-80.5 825,-59.5 724,-59.5"/>
<text text-anchor="middle" x="774.5" y="-66.9" font-family="Helvetica,sans-Serif" font-size="12.00">PrintBasic::write</text>
</a>
</g>
</g>
<!-- Node2&#45;&gt;Node33 -->
<g id="edge12" class="edge">
<title>Node2&#45;&gt;Node33</title>
<path fill="none" stroke="midnightblue" d="M283.82,-88.63C302.9,-105.74 343.48,-138.71 385,-151 514.13,-189.22 562.92,-198.92 688,-149 718.6,-136.79 744.9,-108.09 759.97,-88.86"/>
<polygon fill="midnightblue" stroke="midnightblue" points="762.84,-90.87 766.08,-80.78 757.25,-86.65 762.84,-90.87"/>
</g>
<!-- Node2&#45;&gt;Node34 -->
<g id="edge8" class="edge">
<title>Node2&#45;&gt;Node34</title>
<path fill="none" stroke="midnightblue" d="M322.16,-67.49C346.59,-62.32 376.22,-56.05 401.86,-50.62"/>
<polygon fill="midnightblue" stroke="midnightblue" points="402.79,-54 411.85,-48.51 401.34,-47.16 402.79,-54"/>
</g>
<!-- Node4 -->
<g id="node4" class="node">
<title>Node4</title>
<g id="a_node4"><a xlink:href="../../d3/d77/class_fs_cache.html#a8c11f064a2ce0a380f522392f09d63cb" target="_top" xlink:title=" ">
<polygon fill="white" stroke="red" points="576,-118.5 576,-139.5 688,-139.5 688,-118.5 576,-118.5"/>
<text text-anchor="middle" x="632" y="-125.9" font-family="Helvetica,sans-Serif" font-size="12.00">FsCache::prepare</text>
</a>
</g>
</g>
<!-- Node3&#45;&gt;Node4 -->
<g id="edge3" class="edge">
<title>Node3&#45;&gt;Node4</title>
<path fill="none" stroke="midnightblue" d="M540.39,-126.84C548.73,-127.04 557.17,-127.24 565.36,-127.43"/>
<polygon fill="midnightblue" stroke="midnightblue" points="565.5,-130.94 575.58,-127.68 565.67,-123.94 565.5,-130.94"/>
</g>
<!-- Node32 -->
<g id="node6" class="node">
<title>Node32</title>
<g id="a_node6"><a xlink:href="../../da/db3/class_print_basic.html#a65247e790e6f8e209eb68a797bf96add" target="_top" xlink:title=" ">
<polygon fill="white" stroke="black" points="582.5,-40.5 582.5,-61.5 681.5,-61.5 681.5,-40.5 582.5,-40.5"/>
<text text-anchor="middle" x="632" y="-47.9" font-family="Helvetica,sans-Serif" font-size="12.00">PrintBasic::print</text>
</a>
</g>
</g>
<!-- Node31&#45;&gt;Node32 -->
<g id="edge5" class="edge">
<title>Node31&#45;&gt;Node32</title>
<path fill="none" stroke="midnightblue" d="M492.29,-73.36C514.19,-69.83 545.06,-64.85 572.12,-60.49"/>
<polygon fill="midnightblue" stroke="midnightblue" points="572.96,-63.9 582.28,-58.85 571.85,-56.99 572.96,-63.9"/>
</g>
<!-- Node31&#45;&gt;Node33 -->
<g id="edge7" class="edge">
<title>Node31&#45;&gt;Node33</title>
<path fill="none" stroke="midnightblue" d="M492.11,-77.26C542.26,-75.97 647.04,-73.26 713.63,-71.55"/>
<polygon fill="midnightblue" stroke="midnightblue" points="714.07,-75.04 723.97,-71.28 713.89,-68.04 714.07,-75.04"/>
</g>
<!-- Node32&#45;&gt;Node33 -->
<g id="edge6" class="edge">
<title>Node32&#45;&gt;Node33</title>
<path fill="none" stroke="midnightblue" d="M681.75,-57.59C692.08,-58.99 703.09,-60.48 713.78,-61.92"/>
<polygon fill="midnightblue" stroke="midnightblue" points="713.51,-65.42 723.89,-63.29 714.45,-58.48 713.51,-65.42"/>
</g>
<!-- Node34&#45;&gt;Node32 -->
<g id="edge9" class="edge">
<title>Node34&#45;&gt;Node32</title>
<path fill="none" stroke="midnightblue" d="M516.04,-42.08C533.93,-43.47 554.04,-45.03 572.37,-46.45"/>
<polygon fill="midnightblue" stroke="midnightblue" points="572.11,-49.94 582.35,-47.22 572.65,-42.96 572.11,-49.94"/>
</g>
<!-- Node35 -->
<g id="node9" class="node">
<title>Node35</title>
<g id="a_node9"><a xlink:href="../../da/db3/class_print_basic.html#a9ac86fd20911ebda9877289484b2a924" target="_top" xlink:title=" ">
<polygon fill="white" stroke="black" points="578.5,-0.5 578.5,-21.5 685.5,-21.5 685.5,-0.5 578.5,-0.5"/>
<text text-anchor="middle" x="632" y="-7.9" font-family="Helvetica,sans-Serif" font-size="12.00">PrintBasic::println</text>
</a>
</g>
</g>
<!-- Node34&#45;&gt;Node35 -->
<g id="edge10" class="edge">
<title>Node34&#45;&gt;Node35</title>
<path fill="none" stroke="midnightblue" d="M516.04,-29.53C532.64,-26.86 551.15,-23.87 568.38,-21.09"/>
<polygon fill="midnightblue" stroke="midnightblue" points="569.04,-24.53 578.36,-19.49 567.93,-17.62 569.04,-24.53"/>
</g>
<!-- Node35&#45;&gt;Node33 -->
<g id="edge11" class="edge">
<title>Node35&#45;&gt;Node33</title>
<path fill="none" stroke="midnightblue" d="M663.42,-21.58C671.46,-24.5 680.1,-27.77 688,-31 706.13,-38.42 726.07,-47.46 742.12,-54.97"/>
<polygon fill="midnightblue" stroke="midnightblue" points="741.03,-58.32 751.57,-59.41 744.01,-51.99 741.03,-58.32"/>
</g>
</g>
</svg>
