<?xml version="1.0" encoding="UTF-8" standalone="no"?>
<!DOCTYPE svg PUBLIC "-//W3C//DTD SVG 1.1//EN"
 "http://www.w3.org/Graphics/SVG/1.1/DTD/svg11.dtd">
<!-- Generated by graphviz version 2.47.3 (20210619.1520)
 -->
<!-- Title: ios_base Pages: 1 -->
<svg width="596pt" height="262pt"
 viewBox="0.00 0.00 595.50 262.00" xmlns="http://www.w3.org/2000/svg" xmlns:xlink="http://www.w3.org/1999/xlink">
<g id="graph0" class="graph" transform="scale(1 1) rotate(0) translate(4 258)">
<title>ios_base</title>
<polygon fill="white" stroke="transparent" points="-4,4 -4,-258 591.5,-258 591.5,4 -4,4"/>
<!-- Node1 -->
<g id="node1" class="node">
<title>Node1</title>
<g id="a_node1"><a xlink:title="Base class for all streams.">
<polygon fill="#bfbfbf" stroke="black" points="231.5,-232.5 231.5,-253.5 296.5,-253.5 296.5,-232.5 231.5,-232.5"/>
<text text-anchor="middle" x="264" y="-239.9" font-family="Helvetica,sans-Serif" font-size="12.00">ios_base</text>
</a>
</g>
</g>
<!-- Node2 -->
<g id="node2" class="node">
<title>Node2</title>
<g id="a_node2"><a xlink:href="../../df/d02/classios.html" target="_top" xlink:title="Error and state information for all streams.">
<polygon fill="white" stroke="black" points="248,-174.5 248,-195.5 280,-195.5 280,-174.5 248,-174.5"/>
<text text-anchor="middle" x="264" y="-181.9" font-family="Helvetica,sans-Serif" font-size="12.00">ios</text>
</a>
</g>
</g>
<!-- Node1&#45;&gt;Node2 -->
<g id="edge1" class="edge">
<title>Node1&#45;&gt;Node2</title>
<path fill="none" stroke="midnightblue" d="M264,-222.16C264,-213.16 264,-202.92 264,-195.64"/>
<polygon fill="midnightblue" stroke="midnightblue" points="260.5,-222.25 264,-232.25 267.5,-222.25 260.5,-222.25"/>
</g>
<!-- Node3 -->
<g id="node3" class="node">
<title>Node3</title>
<g id="a_node3"><a xlink:href="../../d3/dc7/class_stream_base_class.html" target="_top" xlink:title="base type for FAT and exFAT streams">
<polygon fill="white" stroke="black" points="207.5,-116.5 207.5,-137.5 320.5,-137.5 320.5,-116.5 207.5,-116.5"/>
<text text-anchor="middle" x="264" y="-123.9" font-family="Helvetica,sans-Serif" font-size="12.00">StreamBaseClass</text>
</a>
</g>
</g>
<!-- Node2&#45;&gt;Node3 -->
<g id="edge2" class="edge">
<title>Node2&#45;&gt;Node3</title>
<path fill="none" stroke="midnightblue" d="M264,-164.16C264,-155.16 264,-144.92 264,-137.64"/>
<polygon fill="midnightblue" stroke="midnightblue" points="260.5,-164.25 264,-174.25 267.5,-164.25 260.5,-164.25"/>
</g>
<!-- Node7 -->
<g id="node7" class="node">
<title>Node7</title>
<g id="a_node7"><a xlink:href="../../d4/d07/classistream.html" target="_top" xlink:title="Input Stream.">
<polygon fill="white" stroke="black" points="124,-116.5 124,-137.5 180,-137.5 180,-116.5 124,-116.5"/>
<text text-anchor="middle" x="152" y="-123.9" font-family="Helvetica,sans-Serif" font-size="12.00">istream</text>
</a>
</g>
</g>
<!-- Node2&#45;&gt;Node7 -->
<g id="edge6" class="edge">
<title>Node2&#45;&gt;Node7</title>
<path fill="none" stroke="midnightblue" d="M238.87,-171.43C218.32,-161.16 189.7,-146.85 171.02,-137.51"/>
<polygon fill="midnightblue" stroke="midnightblue" points="237.44,-174.63 247.95,-175.98 240.57,-168.37 237.44,-174.63"/>
</g>
<!-- Node11 -->
<g id="node11" class="node">
<title>Node11</title>
<g id="a_node11"><a xlink:href="../../d0/d43/classostream.html" target="_top" xlink:title="Output Stream.">
<polygon fill="white" stroke="black" points="338.5,-116.5 338.5,-137.5 397.5,-137.5 397.5,-116.5 338.5,-116.5"/>
<text text-anchor="middle" x="368" y="-123.9" font-family="Helvetica,sans-Serif" font-size="12.00">ostream</text>
</a>
</g>
</g>
<!-- Node2&#45;&gt;Node11 -->
<g id="edge12" class="edge">
<title>Node2&#45;&gt;Node11</title>
<path fill="none" stroke="midnightblue" d="M289.17,-170.45C308.01,-160.3 333.32,-146.67 350.12,-137.63"/>
<polygon fill="midnightblue" stroke="midnightblue" points="287.4,-167.43 280.25,-175.25 290.71,-173.59 287.4,-167.43"/>
</g>
<!-- Node4 -->
<g id="node4" class="node">
<title>Node4</title>
<g id="a_node4"><a xlink:href="../../d7/df9/classfstream.html" target="_top" xlink:title="file input/output stream.">
<polygon fill="white" stroke="black" points="215,-0.5 215,-21.5 271,-21.5 271,-0.5 215,-0.5"/>
<text text-anchor="middle" x="243" y="-7.9" font-family="Helvetica,sans-Serif" font-size="12.00">fstream</text>
</a>
</g>
</g>
<!-- Node3&#45;&gt;Node4 -->
<g id="edge3" class="edge">
<title>Node3&#45;&gt;Node4</title>
<path fill="none" stroke="#8b1a1a" d="M261.55,-106.13C259.76,-92.53 257.1,-74.11 254,-58 251.58,-45.42 248.02,-31.09 245.61,-21.82"/>
<polygon fill="#8b1a1a" stroke="#8b1a1a" points="258.11,-106.79 262.84,-116.27 265.05,-105.91 258.11,-106.79"/>
</g>
<!-- Node5 -->
<g id="node5" class="node">
<title>Node5</title>
<g id="a_node5"><a xlink:href="../../d0/d68/classifstream.html" target="_top" xlink:title="file input stream.">
<polygon fill="white" stroke="black" points="105.5,-58.5 105.5,-79.5 164.5,-79.5 164.5,-58.5 105.5,-58.5"/>
<text text-anchor="middle" x="135" y="-65.9" font-family="Helvetica,sans-Serif" font-size="12.00">ifstream</text>
</a>
</g>
</g>
<!-- Node3&#45;&gt;Node5 -->
<g id="edge4" class="edge">
<title>Node3&#45;&gt;Node5</title>
<path fill="none" stroke="#8b1a1a" d="M232.63,-112.38C209.17,-102.2 177.68,-88.53 156.89,-79.5"/>
<polygon fill="#8b1a1a" stroke="#8b1a1a" points="231.26,-115.6 241.82,-116.37 234.04,-109.18 231.26,-115.6"/>
</g>
<!-- Node6 -->
<g id="node6" class="node">
<title>Node6</title>
<g id="a_node6"><a xlink:href="../../d9/d93/classofstream.html" target="_top" xlink:title="file output stream.">
<polygon fill="white" stroke="black" points="301,-58.5 301,-79.5 363,-79.5 363,-58.5 301,-58.5"/>
<text text-anchor="middle" x="332" y="-65.9" font-family="Helvetica,sans-Serif" font-size="12.00">ofstream</text>
</a>
</g>
</g>
<!-- Node3&#45;&gt;Node6 -->
<g id="edge5" class="edge">
<title>Node3&#45;&gt;Node6</title>
<path fill="none" stroke="#8b1a1a" d="M283.86,-109.65C295.69,-99.91 310.29,-87.88 320.29,-79.64"/>
<polygon fill="#8b1a1a" stroke="#8b1a1a" points="281.34,-107.19 275.84,-116.25 285.79,-112.59 281.34,-107.19"/>
</g>
<!-- Node7&#45;&gt;Node5 -->
<g id="edge9" class="edge">
<title>Node7&#45;&gt;Node5</title>
<path fill="none" stroke="midnightblue" d="M146.07,-106.45C143.31,-97.38 140.16,-87 137.93,-79.64"/>
<polygon fill="midnightblue" stroke="midnightblue" points="142.78,-107.69 149.04,-116.25 149.48,-105.66 142.78,-107.69"/>
</g>
<!-- Node8 -->
<g id="node8" class="node">
<title>Node8</title>
<g id="a_node8"><a xlink:href="../../d0/d91/classibufstream.html" target="_top" xlink:title="parse a char string">
<polygon fill="white" stroke="black" points="16.5,-58.5 16.5,-79.5 87.5,-79.5 87.5,-58.5 16.5,-58.5"/>
<text text-anchor="middle" x="52" y="-65.9" font-family="Helvetica,sans-Serif" font-size="12.00">ibufstream</text>
</a>
</g>
</g>
<!-- Node7&#45;&gt;Node8 -->
<g id="edge7" class="edge">
<title>Node7&#45;&gt;Node8</title>
<path fill="none" stroke="midnightblue" d="M125.79,-111.32C107.93,-101.32 84.78,-88.36 69.22,-79.64"/>
<polygon fill="midnightblue" stroke="midnightblue" points="124.15,-114.41 134.58,-116.25 127.57,-108.31 124.15,-114.41"/>
</g>
<!-- Node10 -->
<g id="node10" class="node">
<title>Node10</title>
<g id="a_node10"><a xlink:href="../../d1/d31/classiostream.html" target="_top" xlink:title="Input/Output stream.">
<polygon fill="white" stroke="black" points="183,-58.5 183,-79.5 245,-79.5 245,-58.5 183,-58.5"/>
<text text-anchor="middle" x="214" y="-65.9" font-family="Helvetica,sans-Serif" font-size="12.00">iostream</text>
</a>
</g>
</g>
<!-- Node7&#45;&gt;Node10 -->
<g id="edge10" class="edge">
<title>Node7&#45;&gt;Node10</title>
<path fill="none" stroke="midnightblue" d="M170.42,-109.36C181.15,-99.67 194.29,-87.8 203.32,-79.64"/>
<polygon fill="midnightblue" stroke="midnightblue" points="167.87,-106.95 162.8,-116.25 172.57,-112.14 167.87,-106.95"/>
</g>
<!-- Node9 -->
<g id="node9" class="node">
<title>Node9</title>
<g id="a_node9"><a xlink:href="../../d2/d74/class_arduino_in_stream.html" target="_top" xlink:title="Input stream for Arduino Stream objects.">
<polygon fill="white" stroke="black" points="0,-0.5 0,-21.5 104,-21.5 104,-0.5 0,-0.5"/>
<text text-anchor="middle" x="52" y="-7.9" font-family="Helvetica,sans-Serif" font-size="12.00">ArduinoInStream</text>
</a>
</g>
</g>
<!-- Node8&#45;&gt;Node9 -->
<g id="edge8" class="edge">
<title>Node8&#45;&gt;Node9</title>
<path fill="none" stroke="midnightblue" d="M52,-48.16C52,-39.16 52,-28.92 52,-21.64"/>
<polygon fill="midnightblue" stroke="midnightblue" points="48.5,-48.25 52,-58.25 55.5,-48.25 48.5,-48.25"/>
</g>
<!-- Node10&#45;&gt;Node4 -->
<g id="edge11" class="edge">
<title>Node10&#45;&gt;Node4</title>
<path fill="none" stroke="midnightblue" d="M223.66,-49.34C228.47,-40.06 234.07,-29.24 238.01,-21.64"/>
<polygon fill="midnightblue" stroke="midnightblue" points="220.54,-47.76 219.05,-58.25 226.76,-50.98 220.54,-47.76"/>
</g>
<!-- Node11&#45;&gt;Node6 -->
<g id="edge16" class="edge">
<title>Node11&#45;&gt;Node6</title>
<path fill="none" stroke="midnightblue" d="M356.19,-107.63C350.19,-98.29 343.13,-87.32 338.2,-79.64"/>
<polygon fill="midnightblue" stroke="midnightblue" points="353.38,-109.73 361.73,-116.25 359.27,-105.94 353.38,-109.73"/>
</g>
<!-- Node11&#45;&gt;Node10 -->
<g id="edge14" class="edge">
<title>Node11&#45;&gt;Node10</title>
<path fill="none" stroke="midnightblue" d="M332.04,-112.92C303.89,-102.69 265.39,-88.69 240.13,-79.5"/>
<polygon fill="midnightblue" stroke="midnightblue" points="330.93,-116.25 341.53,-116.37 333.32,-109.67 330.93,-116.25"/>
</g>
<!-- Node12 -->
<g id="node12" class="node">
<title>Node12</title>
<g id="a_node12"><a xlink:href="../../dc/d67/class_arduino_out_stream.html" target="_top" xlink:title="Output stream for Arduino Print objects.">
<polygon fill="white" stroke="black" points="474.5,-58.5 474.5,-79.5 587.5,-79.5 587.5,-58.5 474.5,-58.5"/>
<text text-anchor="middle" x="531" y="-65.9" font-family="Helvetica,sans-Serif" font-size="12.00">ArduinoOutStream</text>
</a>
</g>
</g>
<!-- Node11&#45;&gt;Node12 -->
<g id="edge13" class="edge">
<title>Node11&#45;&gt;Node12</title>
<path fill="none" stroke="midnightblue" d="M405.67,-113.06C435.5,-102.81 476.49,-88.73 503.34,-79.5"/>
<polygon fill="midnightblue" stroke="midnightblue" points="404.34,-109.81 396.02,-116.37 406.62,-116.43 404.34,-109.81"/>
</g>
<!-- Node13 -->
<g id="node13" class="node">
<title>Node13</title>
<g id="a_node13"><a xlink:href="../../df/d20/classobufstream.html" target="_top" xlink:title="format a char string">
<polygon fill="white" stroke="black" points="381.5,-58.5 381.5,-79.5 456.5,-79.5 456.5,-58.5 381.5,-58.5"/>
<text text-anchor="middle" x="419" y="-65.9" font-family="Helvetica,sans-Serif" font-size="12.00">obufstream</text>
</a>
</g>
</g>
<!-- Node11&#45;&gt;Node13 -->
<g id="edge15" class="edge">
<title>Node11&#45;&gt;Node13</title>
<path fill="none" stroke="midnightblue" d="M383.67,-108.79C392.4,-99.21 402.94,-87.64 410.22,-79.64"/>
<polygon fill="midnightblue" stroke="midnightblue" points="381.03,-106.5 376.88,-116.25 386.2,-111.21 381.03,-106.5"/>
</g>
</g>
</svg>
