<?xml version="1.0" encoding="UTF-8" standalone="no"?>
<!DOCTYPE svg PUBLIC "-//W3C//DTD SVG 1.1//EN"
 "http://www.w3.org/Graphics/SVG/1.1/DTD/svg11.dtd">
<!-- Generated by graphviz version 2.47.3 (20210619.1520)
 -->
<!-- Title: FsVolume::open Pages: 1 -->
<!--zoomable 306 -->
<svg id="main" version="1.1" xmlns="http://www.w3.org/2000/svg" xmlns:xlink="http://www.w3.org/1999/xlink" xml:space="preserve" onload="init(evt)">
<style type="text/css"><![CDATA[
.edge:hover path { stroke: red; }
.edge:hover polygon { stroke: red; fill: red; }
]]></style>
<script type="text/javascript"><![CDATA[
var edges = document.getElementsByTagName('g');
if (edges && edges.length) {
  for (var i=0;i<edges.length;i++) {
    if (edges[i].id.substr(0,4)=='edge') {
      edges[i].setAttribute('class','edge');
    }
  }
}
]]></script>
        <defs>
                <circle id="rim" cx="0" cy="0" r="7"/>
                <circle id="rim2" cx="0" cy="0" r="3.5"/>
                <g id="zoomPlus">
                        <use xlink:href="#rim" fill="#404040">
                                <set attributeName="fill" to="#808080" begin="zoomplus.mouseover" end="zoomplus.mouseout"/>
                        </use>
                        <path d="M-4,0h8M0,-4v8" fill="none" stroke="white" stroke-width="1.5" pointer-events="none"/>
                </g>
                <g id="zoomMin">
                        <use xlink:href="#rim" fill="#404040">
                                <set attributeName="fill" to="#808080" begin="zoomminus.mouseover" end="zoomminus.mouseout"/>
                        </use>
                        <path d="M-4,0h8" fill="none" stroke="white" stroke-width="1.5" pointer-events="none"/>
                </g>
                <g id="dirArrow">
                        <path fill="none" stroke="white" stroke-width="1.5" d="M0,-3.0v7 M-2.5,-0.5L0,-3.0L2.5,-0.5"/>
                </g>
               <g id="resetDef">
                       <use xlink:href="#rim2" fill="#404040">
                               <set attributeName="fill" to="#808080" begin="reset.mouseover" end="reset.mouseout"/>
                       </use>
               </g>
        </defs>

<script type="text/javascript">
var viewWidth = 743;
var viewHeight = 306;
var sectionId = 'dynsection-9';
</script>
<script xlink:href="../../svgpan.js"/>
<svg id="graph" class="graph">
<g id="viewport">
<title>FsVolume::open</title>
<polygon fill="white" stroke="transparent" points="-4,4 -4,-302 739,-302 739,4 -4,4"/>
<!-- Node1 -->
<g id="node1" class="node">
<title>Node1</title>
<g id="a_node1"><a xlink:title=" ">
<polygon fill="#bfbfbf" stroke="black" points="0,-139.5 0,-160.5 102,-160.5 102,-139.5 0,-139.5"/>
<text text-anchor="middle" x="51" y="-146.9" font-family="Helvetica,sans-Serif" font-size="12.00">FsVolume::open</text>
</a>
</g>
</g>
<!-- Node2 -->
<g id="node2" class="node">
<title>Node2</title>
<g id="a_node2"><a xlink:href="../../d7/d76/class_fs_base_file.html#aa767859d4a4b4716ebbc4ea42a6d74df" target="_top" xlink:title=" ">
<polygon fill="white" stroke="black" points="138,-139.5 138,-160.5 248,-160.5 248,-139.5 138,-139.5"/>
<text text-anchor="middle" x="193" y="-146.9" font-family="Helvetica,sans-Serif" font-size="12.00">FsBaseFile::open</text>
</a>
</g>
</g>
<!-- Node1&#45;&gt;Node2 -->
<g id="edge1" class="edge">
<title>Node1&#45;&gt;Node2</title>
<path fill="none" stroke="midnightblue" d="M102.15,-150C110.49,-150 119.25,-150 127.89,-150"/>
<polygon fill="midnightblue" stroke="midnightblue" points="127.94,-153.5 137.94,-150 127.94,-146.5 127.94,-153.5"/>
</g>
<!-- Node3 -->
<g id="node3" class="node">
<title>Node3</title>
<g id="a_node3"><a xlink:href="../../d7/d76/class_fs_base_file.html#aa669c695a839e68e417fb15eebe3de13" target="_top" xlink:title=" ">
<polygon fill="white" stroke="black" points="284,-236.5 284,-257.5 395,-257.5 395,-236.5 284,-236.5"/>
<text text-anchor="middle" x="339.5" y="-243.9" font-family="Helvetica,sans-Serif" font-size="12.00">FsBaseFile::close</text>
</a>
</g>
</g>
<!-- Node2&#45;&gt;Node3 -->
<g id="edge2" class="edge">
<title>Node2&#45;&gt;Node3</title>
<path fill="none" stroke="midnightblue" d="M209.74,-160.57C234.93,-177.47 284.48,-210.74 314.23,-230.71"/>
<polygon fill="midnightblue" stroke="midnightblue" points="312.53,-233.78 322.78,-236.45 316.43,-227.97 312.53,-233.78"/>
</g>
<!-- Node59 -->
<g id="node6" class="node">
<title>Node59</title>
<g id="a_node6"><a xlink:href="../../d5/d14/class_ex_fat_file.html#a354ba015486119b46be89b10ef200d27" target="_top" xlink:title=" ">
<polygon fill="white" stroke="black" points="290,-139.5 290,-160.5 389,-160.5 389,-139.5 290,-139.5"/>
<text text-anchor="middle" x="339.5" y="-146.9" font-family="Helvetica,sans-Serif" font-size="12.00">ExFatFile::open</text>
</a>
</g>
</g>
<!-- Node2&#45;&gt;Node59 -->
<g id="edge5" class="edge">
<title>Node2&#45;&gt;Node59</title>
<path fill="none" stroke="midnightblue" d="M248.22,-150C258.43,-150 269.15,-150 279.5,-150"/>
<polygon fill="midnightblue" stroke="midnightblue" points="279.69,-153.5 289.69,-150 279.69,-146.5 279.69,-153.5"/>
</g>
<!-- Node107 -->
<g id="node12" class="node">
<title>Node107</title>
<g id="a_node12"><a xlink:href="../../d3/d51/class_fat_file.html#af49a42dc64cd954debb271eae5639059" target="_top" xlink:title=" ">
<polygon fill="white" stroke="black" points="296.5,-40.5 296.5,-61.5 382.5,-61.5 382.5,-40.5 296.5,-40.5"/>
<text text-anchor="middle" x="339.5" y="-47.9" font-family="Helvetica,sans-Serif" font-size="12.00">FatFile::open</text>
</a>
</g>
</g>
<!-- Node2&#45;&gt;Node107 -->
<g id="edge15" class="edge">
<title>Node2&#45;&gt;Node107</title>
<path fill="none" stroke="midnightblue" d="M209.46,-139.41C234.67,-122.14 284.78,-87.8 314.6,-67.38"/>
<polygon fill="midnightblue" stroke="midnightblue" points="316.88,-70.06 323.15,-61.52 312.92,-64.28 316.88,-70.06"/>
</g>
<!-- Node4 -->
<g id="node4" class="node">
<title>Node4</title>
<g id="a_node4"><a xlink:href="../../d5/d14/class_ex_fat_file.html#a7ba9e04099bdf8fd34220ebfdde72867" target="_top" xlink:title=" ">
<polygon fill="white" stroke="red" points="459.5,-236.5 459.5,-257.5 560.5,-257.5 560.5,-236.5 459.5,-236.5"/>
<text text-anchor="middle" x="510" y="-243.9" font-family="Helvetica,sans-Serif" font-size="12.00">ExFatFile::close</text>
</a>
</g>
</g>
<!-- Node3&#45;&gt;Node4 -->
<g id="edge3" class="edge">
<title>Node3&#45;&gt;Node4</title>
<path fill="none" stroke="midnightblue" d="M395.21,-247C412.48,-247 431.65,-247 449.25,-247"/>
<polygon fill="midnightblue" stroke="midnightblue" points="449.41,-250.5 459.41,-247 449.41,-243.5 449.41,-250.5"/>
</g>
<!-- Node52 -->
<g id="node5" class="node">
<title>Node52</title>
<g id="a_node5"><a xlink:href="../../d3/d51/class_fat_file.html#afd16af325e0642e4bff6430b7d8bb18b" target="_top" xlink:title=" ">
<polygon fill="white" stroke="red" points="466.5,-276.5 466.5,-297.5 553.5,-297.5 553.5,-276.5 466.5,-276.5"/>
<text text-anchor="middle" x="510" y="-283.9" font-family="Helvetica,sans-Serif" font-size="12.00">FatFile::close</text>
</a>
</g>
</g>
<!-- Node3&#45;&gt;Node52 -->
<g id="edge4" class="edge">
<title>Node3&#45;&gt;Node52</title>
<path fill="none" stroke="midnightblue" d="M384.77,-257.51C406.77,-262.73 433.5,-269.08 456.53,-274.54"/>
<polygon fill="midnightblue" stroke="midnightblue" points="455.94,-278 466.48,-276.91 457.56,-271.19 455.94,-278"/>
</g>
<!-- Node59&#45;&gt;Node4 -->
<g id="edge6" class="edge">
<title>Node59&#45;&gt;Node4</title>
<path fill="none" stroke="midnightblue" d="M351,-160.51C366.98,-175.97 398.95,-204.86 431,-222 439.1,-226.33 448.09,-230.07 456.99,-233.24"/>
<polygon fill="midnightblue" stroke="midnightblue" points="455.98,-236.59 466.57,-236.46 458.2,-229.96 455.98,-236.59"/>
</g>
<!-- Node60 -->
<g id="node7" class="node">
<title>Node60</title>
<g id="a_node7"><a xlink:href="../../d5/d14/class_ex_fat_file.html#ad0a3687bd95bed5b216651335e66b500" target="_top" xlink:title=" ">
<polygon fill="white" stroke="black" points="631,-178.5 631,-199.5 729,-199.5 729,-178.5 631,-178.5"/>
<text text-anchor="middle" x="680" y="-185.9" font-family="Helvetica,sans-Serif" font-size="12.00">ExFatFile::isDir</text>
</a>
</g>
</g>
<!-- Node59&#45;&gt;Node60 -->
<g id="edge7" class="edge">
<title>Node59&#45;&gt;Node60</title>
<path fill="none" stroke="midnightblue" d="M358.83,-160.55C376.62,-170.13 404.69,-183.57 431,-189 494.91,-202.18 570.07,-199.76 620.76,-195.58"/>
<polygon fill="midnightblue" stroke="midnightblue" points="621.22,-199.06 630.87,-194.7 620.61,-192.08 621.22,-199.06"/>
</g>
<!-- Node32 -->
<g id="node8" class="node">
<title>Node32</title>
<g id="a_node8"><a xlink:href="../../d5/d14/class_ex_fat_file.html#a804c34bbe3ebefe2b6c1d77ff8d49a35" target="_top" xlink:title=" ">
<polygon fill="white" stroke="black" points="625,-119.5 625,-140.5 735,-140.5 735,-119.5 625,-119.5"/>
<text text-anchor="middle" x="680" y="-126.9" font-family="Helvetica,sans-Serif" font-size="12.00">ExFatFile::isOpen</text>
</a>
</g>
</g>
<!-- Node59&#45;&gt;Node32 -->
<g id="edge8" class="edge">
<title>Node59&#45;&gt;Node32</title>
<path fill="none" stroke="midnightblue" d="M389.36,-147.11C448.71,-143.61 549.01,-137.68 614.61,-133.8"/>
<polygon fill="midnightblue" stroke="midnightblue" points="615.06,-137.28 624.83,-133.2 614.65,-130.3 615.06,-137.28"/>
</g>
<!-- Node61 -->
<g id="node9" class="node">
<title>Node61</title>
<g id="a_node9"><a xlink:href="../../d5/d14/class_ex_fat_file.html#a531de6eac70b708a3fefd96e25506016" target="_top" xlink:title=" ">
<polygon fill="white" stroke="red" points="442,-158.5 442,-179.5 578,-179.5 578,-158.5 442,-158.5"/>
<text text-anchor="middle" x="510" y="-165.9" font-family="Helvetica,sans-Serif" font-size="12.00">ExFatFile::openPrivate</text>
</a>
</g>
</g>
<!-- Node59&#45;&gt;Node61 -->
<g id="edge9" class="edge">
<title>Node59&#45;&gt;Node61</title>
<path fill="none" stroke="midnightblue" d="M389.24,-155.5C402.58,-157 417.39,-158.67 431.9,-160.31"/>
<polygon fill="midnightblue" stroke="midnightblue" points="431.55,-163.79 441.88,-161.43 432.34,-156.83 431.55,-163.79"/>
</g>
<!-- Node101 -->
<g id="node10" class="node">
<title>Node101</title>
<g id="a_node10"><a xlink:href="../../d5/d14/class_ex_fat_file.html#af664c1da1bfa0bb5f6eb933bc25f757e" target="_top" xlink:title=" ">
<polygon fill="white" stroke="black" points="448,-80.5 448,-101.5 572,-101.5 572,-80.5 448,-80.5"/>
<text text-anchor="middle" x="510" y="-87.9" font-family="Helvetica,sans-Serif" font-size="12.00">ExFatFile::openRoot</text>
</a>
</g>
</g>
<!-- Node59&#45;&gt;Node101 -->
<g id="edge12" class="edge">
<title>Node59&#45;&gt;Node101</title>
<path fill="none" stroke="midnightblue" d="M367.7,-139.38C385.6,-132.49 409.6,-123.44 431,-116 442.01,-112.17 453.97,-108.23 465.14,-104.64"/>
<polygon fill="midnightblue" stroke="midnightblue" points="466.24,-107.96 474.71,-101.59 464.12,-101.29 466.24,-107.96"/>
</g>
<!-- Node102 -->
<g id="node11" class="node">
<title>Node102</title>
<g id="a_node11"><a xlink:href="../../d5/d14/class_ex_fat_file.html#a2f4dcc1eba01055754bae58b5348d8cc" target="_top" xlink:title=" ">
<polygon fill="white" stroke="red" points="431,-40.5 431,-61.5 589,-61.5 589,-40.5 431,-40.5"/>
<text text-anchor="middle" x="510" y="-47.9" font-family="Helvetica,sans-Serif" font-size="12.00">ExFatFile::parsePathName</text>
</a>
</g>
</g>
<!-- Node59&#45;&gt;Node102 -->
<g id="edge14" class="edge">
<title>Node59&#45;&gt;Node102</title>
<path fill="none" stroke="midnightblue" d="M349.64,-139.29C364.8,-122.22 396.85,-88.97 431,-71 435.26,-68.76 439.79,-66.76 444.43,-64.97"/>
<polygon fill="midnightblue" stroke="midnightblue" points="445.79,-68.21 454.07,-61.61 443.48,-61.6 445.79,-68.21"/>
</g>
<!-- Node61&#45;&gt;Node60 -->
<g id="edge10" class="edge">
<title>Node61&#45;&gt;Node60</title>
<path fill="none" stroke="midnightblue" d="M578.36,-177.02C592.33,-178.68 606.94,-180.42 620.55,-182.04"/>
<polygon fill="midnightblue" stroke="midnightblue" points="620.4,-185.55 630.75,-183.26 621.23,-178.6 620.4,-185.55"/>
</g>
<!-- Node61&#45;&gt;Node32 -->
<g id="edge11" class="edge">
<title>Node61&#45;&gt;Node32</title>
<path fill="none" stroke="midnightblue" d="M556.46,-158.45C577.19,-153.63 601.92,-147.89 623.72,-142.83"/>
<polygon fill="midnightblue" stroke="midnightblue" points="624.55,-146.23 633.5,-140.56 622.97,-139.41 624.55,-146.23"/>
</g>
<!-- Node101&#45;&gt;Node32 -->
<g id="edge13" class="edge">
<title>Node101&#45;&gt;Node32</title>
<path fill="none" stroke="midnightblue" d="M556.46,-101.55C577.19,-106.37 601.92,-112.11 623.72,-117.17"/>
<polygon fill="midnightblue" stroke="midnightblue" points="622.97,-120.59 633.5,-119.44 624.55,-113.77 622.97,-120.59"/>
</g>
<!-- Node108 -->
<g id="node13" class="node">
<title>Node108</title>
<g id="a_node13"><a xlink:href="../../d9/d27/class_fat_volume.html#a938d6b38399098c3b93a2f24c783ef68" target="_top" xlink:title=" ">
<polygon fill="white" stroke="black" points="460,-0.5 460,-21.5 560,-21.5 560,-0.5 460,-0.5"/>
<text text-anchor="middle" x="510" y="-7.9" font-family="Helvetica,sans-Serif" font-size="12.00">FatVolume::vwd</text>
</a>
</g>
</g>
<!-- Node107&#45;&gt;Node108 -->
<g id="edge16" class="edge">
<title>Node107&#45;&gt;Node108</title>
<path fill="none" stroke="midnightblue" d="M382.59,-41.01C404.42,-35.83 431.35,-29.43 454.73,-23.88"/>
<polygon fill="midnightblue" stroke="midnightblue" points="455.59,-27.28 464.51,-21.56 453.97,-20.47 455.59,-27.28"/>
</g>
</g>
</svg>
        <g id="navigator" transform="translate(0 0)" fill="#404254">
                <rect fill="#f2f5e9" fill-opacity="0.5" stroke="#606060" stroke-width=".5" x="0" y="0" width="60" height="60"/>
                <use id="zoomplus" xlink:href="#zoomPlus" x="17" y="9" onmousedown="handleZoom(evt,'in')"/>
                <use id="zoomminus" xlink:href="#zoomMin" x="42" y="9" onmousedown="handleZoom(evt,'out')"/>
                <use id="reset" xlink:href="#resetDef" x="30" y="36" onmousedown="handleReset()"/>
                <g id="arrowUp" xlink:href="#dirArrow" transform="translate(30 24)" onmousedown="handlePan(0,-1)">
                  <use xlink:href="#rim" fill="#404040">
                        <set attributeName="fill" to="#808080" begin="arrowUp.mouseover" end="arrowUp.mouseout"/>
                  </use>
                  <path fill="none" stroke="white" stroke-width="1.5" d="M0,-3.0v7 M-2.5,-0.5L0,-3.0L2.5,-0.5"/>
                </g>
                <g id="arrowRight" xlink:href="#dirArrow" transform="rotate(90) translate(36 -43)" onmousedown="handlePan(1,0)">
                  <use xlink:href="#rim" fill="#404040">
                        <set attributeName="fill" to="#808080" begin="arrowRight.mouseover" end="arrowRight.mouseout"/>
                  </use>
                  <path fill="none" stroke="white" stroke-width="1.5" d="M0,-3.0v7 M-2.5,-0.5L0,-3.0L2.5,-0.5"/>
                </g>
                <g id="arrowDown" xlink:href="#dirArrow" transform="rotate(180) translate(-30 -48)" onmousedown="handlePan(0,1)">
                  <use xlink:href="#rim" fill="#404040">
                        <set attributeName="fill" to="#808080" begin="arrowDown.mouseover" end="arrowDown.mouseout"/>
                  </use>
                  <path fill="none" stroke="white" stroke-width="1.5" d="M0,-3.0v7 M-2.5,-0.5L0,-3.0L2.5,-0.5"/>
                </g>
                <g id="arrowLeft" xlink:href="#dirArrow" transform="rotate(270) translate(-36 17)" onmousedown="handlePan(-1,0)">
                  <use xlink:href="#rim" fill="#404040">
                        <set attributeName="fill" to="#808080" begin="arrowLeft.mouseover" end="arrowLeft.mouseout"/>
                  </use>
                  <path fill="none" stroke="white" stroke-width="1.5" d="M0,-3.0v7 M-2.5,-0.5L0,-3.0L2.5,-0.5"/>
                </g>
        </g>
        <svg viewBox="0 0 15 15" width="100%" height="30px" preserveAspectRatio="xMaxYMin meet">
         <g id="arrow_out" transform="scale(0.3 0.3)">
          <a xlink:href="class_fs_volume_a6d51ed047796f7d382384c60c7bfac75_cgraph_org.svg" target="_base">
           <rect id="button" ry="5" rx="5" y="6" x="6" height="38" width="38"
                fill="#f2f5e9" fill-opacity="0.5" stroke="#606060" stroke-width="1.0"/>
           <path id="arrow"
             d="M 11.500037,31.436501 C 11.940474,20.09759 22.043105,11.32322 32.158766,21.979434 L 37.068811,17.246167 C 37.068811,17.246167 37.088388,32 37.088388,32 L 22.160133,31.978069 C 22.160133,31.978069 26.997745,27.140456 26.997745,27.140456 C 18.528582,18.264221 13.291696,25.230495 11.500037,31.436501 z"
             style="fill:#404040;"/>
          </a>
         </g>
        </svg>
</svg>
