<?xml version="1.0" encoding="UTF-8" standalone="no"?>
<!DOCTYPE svg PUBLIC "-//W3C//DTD SVG 1.1//EN"
 "http://www.w3.org/Graphics/SVG/1.1/DTD/svg11.dtd">
<!-- Generated by graphviz version 2.47.3 (20210619.1520)
 -->
<!-- Title: D:/brian/Dev/Eris/ERISCore/lib/SdFat&#45;master/src/FsLib/FsFile.h Pages: 1 -->
<svg width="1106pt" height="379pt"
 viewBox="0.00 0.00 1106.00 379.00" xmlns="http://www.w3.org/2000/svg" xmlns:xlink="http://www.w3.org/1999/xlink">
<g id="graph0" class="graph" transform="scale(1 1) rotate(0) translate(4 375)">
<title>D:/brian/Dev/Eris/ERISCore/lib/SdFat&#45;master/src/FsLib/FsFile.h</title>
<polygon fill="white" stroke="transparent" points="-4,4 -4,-375 1102,-375 1102,4 -4,4"/>
<!-- Node1 -->
<g id="node1" class="node">
<title>Node1</title>
<g id="a_node1"><a xlink:title="FsBaseFile include file.">
<polygon fill="#bfbfbf" stroke="black" points="280,-323.5 280,-370.5 442,-370.5 442,-323.5 280,-323.5"/>
<text text-anchor="start" x="288" y="-356.9" font-family="Helvetica,sans-Serif" font-size="12.00">D:/brian/Dev/Eris/ERISCore</text>
<text text-anchor="start" x="288" y="-343.9" font-family="Helvetica,sans-Serif" font-size="12.00">/lib/SdFat&#45;master/src/FsLib</text>
<text text-anchor="middle" x="361" y="-330.9" font-family="Helvetica,sans-Serif" font-size="12.00">/FsFile.h</text>
</a>
</g>
</g>
<!-- Node2 -->
<g id="node2" class="node">
<title>Node2</title>
<g id="a_node2"><a xlink:href="../../d3/d27/_fs_lib_8h.html" target="_top" xlink:title="FsLib include file.">
<polygon fill="white" stroke="black" points="280,-239.5 280,-286.5 442,-286.5 442,-239.5 280,-239.5"/>
<text text-anchor="start" x="288" y="-272.9" font-family="Helvetica,sans-Serif" font-size="12.00">D:/brian/Dev/Eris/ERISCore</text>
<text text-anchor="start" x="288" y="-259.9" font-family="Helvetica,sans-Serif" font-size="12.00">/lib/SdFat&#45;master/src/FsLib</text>
<text text-anchor="middle" x="361" y="-246.9" font-family="Helvetica,sans-Serif" font-size="12.00">/FsLib.h</text>
</a>
</g>
</g>
<!-- Node1&#45;&gt;Node2 -->
<g id="edge1" class="edge">
<title>Node1&#45;&gt;Node2</title>
<path fill="none" stroke="midnightblue" d="M361,-313.11C361,-304.26 361,-294.88 361,-286.72"/>
<polygon fill="midnightblue" stroke="midnightblue" points="357.5,-313.16 361,-323.16 364.5,-313.16 357.5,-313.16"/>
</g>
<!-- Node3 -->
<g id="node3" class="node">
<title>Node3</title>
<g id="a_node3"><a xlink:href="../../d5/d63/_fs_file_8cpp.html" target="_top" xlink:title=" ">
<polygon fill="white" stroke="black" points="0,-155.5 0,-202.5 162,-202.5 162,-155.5 0,-155.5"/>
<text text-anchor="start" x="8" y="-188.9" font-family="Helvetica,sans-Serif" font-size="12.00">D:/brian/Dev/Eris/ERISCore</text>
<text text-anchor="start" x="8" y="-175.9" font-family="Helvetica,sans-Serif" font-size="12.00">/lib/SdFat&#45;master/src/FsLib</text>
<text text-anchor="middle" x="81" y="-162.9" font-family="Helvetica,sans-Serif" font-size="12.00">/FsFile.cpp</text>
</a>
</g>
</g>
<!-- Node2&#45;&gt;Node3 -->
<g id="edge2" class="edge">
<title>Node2&#45;&gt;Node3</title>
<path fill="none" stroke="midnightblue" d="M274.32,-236.61C237.2,-225.74 194.2,-213.15 158.2,-202.61"/>
<polygon fill="midnightblue" stroke="midnightblue" points="273.54,-240.03 284.12,-239.48 275.51,-233.32 273.54,-240.03"/>
</g>
<!-- Node4 -->
<g id="node4" class="node">
<title>Node4</title>
<g id="a_node4"><a xlink:href="../../d8/dea/_fs_volume_8cpp.html" target="_top" xlink:title=" ">
<polygon fill="white" stroke="black" points="180,-155.5 180,-202.5 342,-202.5 342,-155.5 180,-155.5"/>
<text text-anchor="start" x="188" y="-188.9" font-family="Helvetica,sans-Serif" font-size="12.00">D:/brian/Dev/Eris/ERISCore</text>
<text text-anchor="start" x="188" y="-175.9" font-family="Helvetica,sans-Serif" font-size="12.00">/lib/SdFat&#45;master/src/FsLib</text>
<text text-anchor="middle" x="261" y="-162.9" font-family="Helvetica,sans-Serif" font-size="12.00">/FsVolume.cpp</text>
</a>
</g>
</g>
<!-- Node2&#45;&gt;Node4 -->
<g id="edge3" class="edge">
<title>Node2&#45;&gt;Node4</title>
<path fill="none" stroke="midnightblue" d="M325.62,-232.99C313.43,-222.99 299.97,-211.95 288.5,-202.55"/>
<polygon fill="midnightblue" stroke="midnightblue" points="323.46,-235.74 333.41,-239.38 327.9,-230.33 323.46,-235.74"/>
</g>
<!-- Node5 -->
<g id="node5" class="node">
<title>Node5</title>
<g id="a_node5"><a xlink:href="../../df/dd5/ios_8h.html" target="_top" xlink:title="ios_base and ios classes">
<polygon fill="white" stroke="black" points="360,-162 360,-196 562,-196 562,-162 360,-162"/>
<text text-anchor="start" x="368" y="-182.4" font-family="Helvetica,sans-Serif" font-size="12.00">D:/brian/Dev/Eris/ERISCore</text>
<text text-anchor="middle" x="461" y="-169.4" font-family="Helvetica,sans-Serif" font-size="12.00">/lib/SdFat&#45;master/src/iostream/ios.h</text>
</a>
</g>
</g>
<!-- Node2&#45;&gt;Node5 -->
<g id="edge4" class="edge">
<title>Node2&#45;&gt;Node5</title>
<path fill="none" stroke="midnightblue" d="M396.72,-232.71C411.77,-220.37 428.71,-206.48 441.42,-196.05"/>
<polygon fill="midnightblue" stroke="midnightblue" points="394.1,-230.33 388.59,-239.38 398.54,-235.74 394.1,-230.33"/>
</g>
<!-- Node18 -->
<g id="node9" class="node">
<title>Node18</title>
<g id="a_node9"><a xlink:href="../../d5/ddc/_sd_fat_8h.html" target="_top" xlink:title="main SdFs include file.">
<polygon fill="white" stroke="black" points="754,-162 754,-196 924,-196 924,-162 754,-162"/>
<text text-anchor="start" x="762" y="-182.4" font-family="Helvetica,sans-Serif" font-size="12.00">D:/brian/Dev/Eris/ERISCore</text>
<text text-anchor="middle" x="839" y="-169.4" font-family="Helvetica,sans-Serif" font-size="12.00">/lib/SdFat&#45;master/src/SdFat.h</text>
</a>
</g>
</g>
<!-- Node2&#45;&gt;Node18 -->
<g id="edge8" class="edge">
<title>Node2&#45;&gt;Node18</title>
<path fill="none" stroke="midnightblue" d="M452.21,-246.35C539.14,-231.44 669.03,-209.16 753.89,-194.6"/>
<polygon fill="midnightblue" stroke="midnightblue" points="451.35,-242.95 442.09,-248.09 452.53,-249.85 451.35,-242.95"/>
</g>
<!-- Node6 -->
<g id="node6" class="node">
<title>Node6</title>
<g id="a_node6"><a xlink:href="../../db/dc9/istream_8h.html" target="_top" xlink:title="istream class">
<polygon fill="white" stroke="red" points="86,-71.5 86,-118.5 260,-118.5 260,-71.5 86,-71.5"/>
<text text-anchor="start" x="94" y="-104.9" font-family="Helvetica,sans-Serif" font-size="12.00">D:/brian/Dev/Eris/ERISCore</text>
<text text-anchor="start" x="94" y="-91.9" font-family="Helvetica,sans-Serif" font-size="12.00">/lib/SdFat&#45;master/src/iostream</text>
<text text-anchor="middle" x="173" y="-78.9" font-family="Helvetica,sans-Serif" font-size="12.00">/istream.h</text>
</a>
</g>
</g>
<!-- Node5&#45;&gt;Node6 -->
<g id="edge5" class="edge">
<title>Node5&#45;&gt;Node6</title>
<path fill="none" stroke="midnightblue" d="M395.11,-159.24C352.61,-147.14 297.11,-131.34 252.22,-118.56"/>
<polygon fill="midnightblue" stroke="midnightblue" points="394.21,-162.62 404.79,-161.99 396.13,-155.89 394.21,-162.62"/>
</g>
<!-- Node14 -->
<g id="node7" class="node">
<title>Node14</title>
<g id="a_node7"><a xlink:href="../../dc/d64/ostream_8h.html" target="_top" xlink:title="ostream class">
<polygon fill="white" stroke="red" points="278,-71.5 278,-118.5 452,-118.5 452,-71.5 278,-71.5"/>
<text text-anchor="start" x="286" y="-104.9" font-family="Helvetica,sans-Serif" font-size="12.00">D:/brian/Dev/Eris/ERISCore</text>
<text text-anchor="start" x="286" y="-91.9" font-family="Helvetica,sans-Serif" font-size="12.00">/lib/SdFat&#45;master/src/iostream</text>
<text text-anchor="middle" x="365" y="-78.9" font-family="Helvetica,sans-Serif" font-size="12.00">/ostream.h</text>
</a>
</g>
</g>
<!-- Node5&#45;&gt;Node14 -->
<g id="edge6" class="edge">
<title>Node5&#45;&gt;Node14</title>
<path fill="none" stroke="midnightblue" d="M434.15,-155.06C420.84,-143.7 404.82,-130.02 391.56,-118.69"/>
<polygon fill="midnightblue" stroke="midnightblue" points="432.16,-157.97 442.03,-161.8 436.7,-152.64 432.16,-157.97"/>
</g>
<!-- Node16 -->
<g id="node8" class="node">
<title>Node16</title>
<g id="a_node8"><a xlink:href="../../da/d2d/_stdio_stream_8h.html" target="_top" xlink:title="StdioStream class.">
<polygon fill="white" stroke="red" points="470,-71.5 470,-118.5 644,-118.5 644,-71.5 470,-71.5"/>
<text text-anchor="start" x="478" y="-104.9" font-family="Helvetica,sans-Serif" font-size="12.00">D:/brian/Dev/Eris/ERISCore</text>
<text text-anchor="start" x="478" y="-91.9" font-family="Helvetica,sans-Serif" font-size="12.00">/lib/SdFat&#45;master/src/iostream</text>
<text text-anchor="middle" x="557" y="-78.9" font-family="Helvetica,sans-Serif" font-size="12.00">/StdioStream.h</text>
</a>
</g>
</g>
<!-- Node5&#45;&gt;Node16 -->
<g id="edge7" class="edge">
<title>Node5&#45;&gt;Node16</title>
<path fill="none" stroke="midnightblue" d="M487.85,-155.06C501.16,-143.7 517.18,-130.02 530.44,-118.69"/>
<polygon fill="midnightblue" stroke="midnightblue" points="485.3,-152.64 479.97,-161.8 489.84,-157.97 485.3,-152.64"/>
</g>
<!-- Node19 -->
<g id="node10" class="node">
<title>Node19</title>
<g id="a_node10"><a xlink:href="../../db/d6b/app_serial_command_interface_8h.html" target="_top" xlink:title=" ">
<polygon fill="white" stroke="red" points="662,-78 662,-112 880,-112 880,-78 662,-78"/>
<text text-anchor="start" x="670" y="-98.4" font-family="Helvetica,sans-Serif" font-size="12.00">D:/brian/Dev/Eris/ERISCore</text>
<text text-anchor="middle" x="771" y="-85.4" font-family="Helvetica,sans-Serif" font-size="12.00">/include/appSerialCommandInterface.h</text>
</a>
</g>
</g>
<!-- Node18&#45;&gt;Node19 -->
<g id="edge9" class="edge">
<title>Node18&#45;&gt;Node19</title>
<path fill="none" stroke="midnightblue" d="M818.99,-153.88C807.85,-140.44 794.27,-124.06 784.41,-112.17"/>
<polygon fill="midnightblue" stroke="midnightblue" points="816.49,-156.34 825.57,-161.8 821.88,-151.87 816.49,-156.34"/>
</g>
<!-- Node21 -->
<g id="node11" class="node">
<title>Node21</title>
<g id="a_node11"><a xlink:href="../../d6/dd8/_eris_core_8cpp.html" target="_top" xlink:title=" ">
<polygon fill="white" stroke="black" points="758,-0.5 758,-34.5 920,-34.5 920,-0.5 758,-0.5"/>
<text text-anchor="start" x="766" y="-20.9" font-family="Helvetica,sans-Serif" font-size="12.00">D:/brian/Dev/Eris/ERISCore</text>
<text text-anchor="middle" x="839" y="-7.9" font-family="Helvetica,sans-Serif" font-size="12.00">/src/ErisCore.cpp</text>
</a>
</g>
</g>
<!-- Node18&#45;&gt;Node21 -->
<g id="edge12" class="edge">
<title>Node18&#45;&gt;Node21</title>
<path fill="none" stroke="midnightblue" d="M865.34,-154.73C874.69,-144.77 884.1,-132.36 889,-119 896.35,-98.97 896.92,-90.81 889,-71 883.25,-56.63 871.48,-43.94 860.81,-34.65"/>
<polygon fill="midnightblue" stroke="midnightblue" points="862.84,-152.28 858.28,-161.84 867.81,-157.21 862.84,-152.28"/>
</g>
<!-- Node22 -->
<g id="node12" class="node">
<title>Node22</title>
<g id="a_node12"><a xlink:href="../../d2/dda/_i_l_i9341__t3___e_r_i_s_8h.html" target="_top" xlink:title=" ">
<polygon fill="white" stroke="red" points="936,-78 936,-112 1098,-112 1098,-78 936,-78"/>
<text text-anchor="start" x="944" y="-98.4" font-family="Helvetica,sans-Serif" font-size="12.00">D:/brian/Dev/Eris/ERISCore</text>
<text text-anchor="middle" x="1017" y="-85.4" font-family="Helvetica,sans-Serif" font-size="12.00">/include/ILI9341_t3_ERIS.h</text>
</a>
</g>
</g>
<!-- Node18&#45;&gt;Node22 -->
<g id="edge11" class="edge">
<title>Node18&#45;&gt;Node22</title>
<path fill="none" stroke="midnightblue" d="M882.89,-157.78C913.45,-143.7 953.65,-125.18 982.04,-112.1"/>
<polygon fill="midnightblue" stroke="midnightblue" points="881.36,-154.63 873.74,-161.99 884.29,-160.99 881.36,-154.63"/>
</g>
<!-- Node19&#45;&gt;Node21 -->
<g id="edge10" class="edge">
<title>Node19&#45;&gt;Node21</title>
<path fill="none" stroke="midnightblue" d="M792.28,-70.37C802.71,-58.79 815.01,-45.14 824.37,-34.75"/>
<polygon fill="midnightblue" stroke="midnightblue" points="789.51,-68.22 785.42,-77.99 794.71,-72.9 789.51,-68.22"/>
</g>
</g>
</svg>
