<?xml version="1.0" encoding="UTF-8" standalone="no"?>
<!DOCTYPE svg PUBLIC "-//W3C//DTD SVG 1.1//EN"
 "http://www.w3.org/Graphics/SVG/1.1/DTD/svg11.dtd">
<!-- Generated by graphviz version 2.47.3 (20210619.1520)
 -->
<!-- Title: wren_compiler.h Pages: 1 -->
<svg width="954pt" height="204pt"
 viewBox="0.00 0.00 954.14 204.00" xmlns="http://www.w3.org/2000/svg" xmlns:xlink="http://www.w3.org/1999/xlink">
<g id="graph0" class="graph" transform="scale(1 1) rotate(0) translate(4 200)">
<title>wren_compiler.h</title>
<polygon fill="white" stroke="transparent" points="-4,4 -4,-200 950.14,-200 950.14,4 -4,4"/>
<!-- Node1 -->
<g id="node1" class="node">
<title>Node1</title>
<g id="a_node1"><a xlink:title=" ">
<polygon fill="#bfbfbf" stroke="black" points="825.5,-174.5 825.5,-195.5 927.5,-195.5 927.5,-174.5 825.5,-174.5"/>
<text text-anchor="middle" x="876.5" y="-181.9" font-family="Helvetica,sans-Serif" font-size="12.00">wren_compiler.h</text>
</a>
</g>
</g>
<!-- Node2 -->
<g id="node2" class="node">
<title>Node2</title>
<g id="a_node2"><a xlink:href="../../d5/db1/wren__vm_8h.html" target="_top" xlink:title=" ">
<polygon fill="white" stroke="black" points="528.5,-116.5 528.5,-137.5 600.5,-137.5 600.5,-116.5 528.5,-116.5"/>
<text text-anchor="middle" x="564.5" y="-123.9" font-family="Helvetica,sans-Serif" font-size="12.00">wren_vm.h</text>
</a>
</g>
</g>
<!-- Node1&#45;&gt;Node2 -->
<g id="edge1" class="edge">
<title>Node1&#45;&gt;Node2</title>
<path fill="none" stroke="midnightblue" d="M815.37,-173.03C751.41,-161.55 653.15,-143.91 600.6,-134.48"/>
<polygon fill="midnightblue" stroke="midnightblue" points="814.87,-176.49 825.33,-174.82 816.1,-169.6 814.87,-176.49"/>
</g>
<!-- Node6 -->
<g id="node6" class="node">
<title>Node6</title>
<g id="a_node6"><a xlink:href="../../de/db2/wren__vm_8c.html" target="_top" xlink:title=" ">
<polygon fill="white" stroke="black" points="640.5,-0.5 640.5,-21.5 712.5,-21.5 712.5,-0.5 640.5,-0.5"/>
<text text-anchor="middle" x="676.5" y="-7.9" font-family="Helvetica,sans-Serif" font-size="12.00">wren_vm.c</text>
</a>
</g>
</g>
<!-- Node1&#45;&gt;Node6 -->
<g id="edge18" class="edge">
<title>Node1&#45;&gt;Node6</title>
<path fill="none" stroke="midnightblue" d="M895.37,-167.34C922.2,-141.65 965.14,-91.83 936.5,-58 905.2,-21.03 769.05,-31.26 721.5,-22 718.67,-21.45 715.75,-20.86 712.81,-20.24"/>
<polygon fill="midnightblue" stroke="midnightblue" points="892.92,-164.83 887.98,-174.2 897.69,-169.96 892.92,-164.83"/>
</g>
<!-- Node14 -->
<g id="node14" class="node">
<title>Node14</title>
<g id="a_node14"><a xlink:href="../../d4/de2/wren__compiler_8c.html" target="_top" xlink:title=" ">
<polygon fill="white" stroke="black" points="825.5,-58.5 825.5,-79.5 927.5,-79.5 927.5,-58.5 825.5,-58.5"/>
<text text-anchor="middle" x="876.5" y="-65.9" font-family="Helvetica,sans-Serif" font-size="12.00">wren_compiler.c</text>
</a>
</g>
</g>
<!-- Node1&#45;&gt;Node14 -->
<g id="edge19" class="edge">
<title>Node1&#45;&gt;Node14</title>
<path fill="none" stroke="midnightblue" d="M876.5,-164.25C876.5,-139.58 876.5,-98.35 876.5,-79.69"/>
<polygon fill="midnightblue" stroke="midnightblue" points="873,-164.28 876.5,-174.28 880,-164.28 873,-164.28"/>
</g>
<!-- Node3 -->
<g id="node3" class="node">
<title>Node3</title>
<g id="a_node3"><a xlink:href="../../de/d0d/wren__utils_8c.html" target="_top" xlink:title=" ">
<polygon fill="white" stroke="black" points="584,-58.5 584,-79.5 661,-79.5 661,-58.5 584,-58.5"/>
<text text-anchor="middle" x="622.5" y="-65.9" font-family="Helvetica,sans-Serif" font-size="12.00">wren_utils.c</text>
</a>
</g>
</g>
<!-- Node2&#45;&gt;Node3 -->
<g id="edge2" class="edge">
<title>Node2&#45;&gt;Node3</title>
<path fill="none" stroke="midnightblue" d="M582.03,-109.08C592.01,-99.44 604.15,-87.72 612.51,-79.64"/>
<polygon fill="midnightblue" stroke="midnightblue" points="579.37,-106.78 574.6,-116.25 584.23,-111.82 579.37,-106.78"/>
</g>
<!-- Node4 -->
<g id="node4" class="node">
<title>Node4</title>
<g id="a_node4"><a xlink:href="../../dd/df7/wren__debug_8h.html" target="_top" xlink:title=" ">
<polygon fill="white" stroke="black" points="717.5,-58.5 717.5,-79.5 807.5,-79.5 807.5,-58.5 717.5,-58.5"/>
<text text-anchor="middle" x="762.5" y="-65.9" font-family="Helvetica,sans-Serif" font-size="12.00">wren_debug.h</text>
</a>
</g>
</g>
<!-- Node2&#45;&gt;Node4 -->
<g id="edge3" class="edge">
<title>Node2&#45;&gt;Node4</title>
<path fill="none" stroke="midnightblue" d="M608.38,-113.59C644.76,-103.3 695.71,-88.89 728.91,-79.5"/>
<polygon fill="midnightblue" stroke="midnightblue" points="607.21,-110.28 598.54,-116.37 609.11,-117.02 607.21,-110.28"/>
</g>
<!-- Node2&#45;&gt;Node6 -->
<g id="edge16" class="edge">
<title>Node2&#45;&gt;Node6</title>
<path fill="none" stroke="midnightblue" d="M610.18,-117.13C631.61,-110.55 655.46,-99.24 669.5,-80 682.09,-62.74 680.44,-36.13 678.34,-21.86"/>
<polygon fill="midnightblue" stroke="midnightblue" points="609.23,-113.76 600.54,-119.83 611.12,-120.5 609.23,-113.76"/>
</g>
<!-- Node7 -->
<g id="node7" class="node">
<title>Node7</title>
<g id="a_node7"><a xlink:href="../../d4/da0/wren__core_8h.html" target="_top" xlink:title=" ">
<polygon fill="white" stroke="black" points="119.5,-58.5 119.5,-79.5 199.5,-79.5 199.5,-58.5 119.5,-58.5"/>
<text text-anchor="middle" x="159.5" y="-65.9" font-family="Helvetica,sans-Serif" font-size="12.00">wren_core.h</text>
</a>
</g>
</g>
<!-- Node2&#45;&gt;Node7 -->
<g id="edge6" class="edge">
<title>Node2&#45;&gt;Node7</title>
<path fill="none" stroke="midnightblue" d="M518.54,-121.14C450.56,-113.72 319.3,-98.44 208.5,-80 205.59,-79.52 202.59,-78.98 199.57,-78.42"/>
<polygon fill="midnightblue" stroke="midnightblue" points="518.18,-124.63 528.5,-122.23 518.93,-117.67 518.18,-124.63"/>
</g>
<!-- Node9 -->
<g id="node9" class="node">
<title>Node9</title>
<g id="a_node9"><a xlink:href="../../da/dbe/wren__value_8c.html" target="_top" xlink:title=" ">
<polygon fill="white" stroke="black" points="217.5,-58.5 217.5,-79.5 301.5,-79.5 301.5,-58.5 217.5,-58.5"/>
<text text-anchor="middle" x="259.5" y="-65.9" font-family="Helvetica,sans-Serif" font-size="12.00">wren_value.c</text>
</a>
</g>
</g>
<!-- Node2&#45;&gt;Node9 -->
<g id="edge9" class="edge">
<title>Node2&#45;&gt;Node9</title>
<path fill="none" stroke="midnightblue" d="M518.26,-117.83C467.32,-108.79 383.01,-93.67 310.5,-80 307.57,-79.45 304.56,-78.87 301.52,-78.29"/>
<polygon fill="midnightblue" stroke="midnightblue" points="517.84,-121.31 528.3,-119.61 519.06,-114.42 517.84,-121.31"/>
</g>
<!-- Node10 -->
<g id="node10" class="node">
<title>Node10</title>
<g id="a_node10"><a xlink:href="../../de/dab/wren__opt__meta_8c.html" target="_top" xlink:title=" ">
<polygon fill="white" stroke="black" points="320,-58.5 320,-79.5 427,-79.5 427,-58.5 320,-58.5"/>
<text text-anchor="middle" x="373.5" y="-65.9" font-family="Helvetica,sans-Serif" font-size="12.00">wren_opt_meta.c</text>
</a>
</g>
</g>
<!-- Node2&#45;&gt;Node10 -->
<g id="edge10" class="edge">
<title>Node2&#45;&gt;Node10</title>
<path fill="none" stroke="midnightblue" d="M521.72,-113.46C486.66,-103.18 437.79,-88.85 405.91,-79.5"/>
<polygon fill="midnightblue" stroke="midnightblue" points="521.09,-116.92 531.67,-116.37 523.05,-110.2 521.09,-116.92"/>
</g>
<!-- Node11 -->
<g id="node11" class="node">
<title>Node11</title>
<g id="a_node11"><a xlink:href="../../d8/d6b/wren__opt__random_8c.html" target="_top" xlink:title=" ">
<polygon fill="white" stroke="black" points="445.5,-58.5 445.5,-79.5 565.5,-79.5 565.5,-58.5 445.5,-58.5"/>
<text text-anchor="middle" x="505.5" y="-65.9" font-family="Helvetica,sans-Serif" font-size="12.00">wren_opt_random.c</text>
</a>
</g>
</g>
<!-- Node2&#45;&gt;Node11 -->
<g id="edge11" class="edge">
<title>Node2&#45;&gt;Node11</title>
<path fill="none" stroke="midnightblue" d="M546.97,-109.36C536.76,-99.67 524.25,-87.8 515.66,-79.64"/>
<polygon fill="midnightblue" stroke="midnightblue" points="544.56,-111.9 554.22,-116.25 549.38,-106.82 544.56,-111.9"/>
</g>
<!-- Node12 -->
<g id="node12" class="node">
<title>Node12</title>
<g id="a_node12"><a xlink:href="../../d7/d66/wren__primitive_8h.html" target="_top" xlink:title=" ">
<polygon fill="white" stroke="black" points="0,-58.5 0,-79.5 101,-79.5 101,-58.5 0,-58.5"/>
<text text-anchor="middle" x="50.5" y="-65.9" font-family="Helvetica,sans-Serif" font-size="12.00">wren_primitive.h</text>
</a>
</g>
</g>
<!-- Node2&#45;&gt;Node12 -->
<g id="edge12" class="edge">
<title>Node2&#45;&gt;Node12</title>
<path fill="none" stroke="midnightblue" d="M518.19,-122.3C435.94,-115.5 259.03,-99.88 110.5,-80 107.46,-79.59 104.35,-79.15 101.2,-78.69"/>
<polygon fill="midnightblue" stroke="midnightblue" points="517.96,-125.79 528.21,-123.12 518.53,-118.81 517.96,-125.79"/>
</g>
<!-- Node2&#45;&gt;Node14 -->
<g id="edge17" class="edge">
<title>Node2&#45;&gt;Node14</title>
<path fill="none" stroke="midnightblue" d="M610.47,-117.75C667.81,-107.46 765.55,-89.91 825.25,-79.2"/>
<polygon fill="midnightblue" stroke="midnightblue" points="609.82,-114.31 600.6,-119.52 611.06,-121.2 609.82,-114.31"/>
</g>
<!-- Node5 -->
<g id="node5" class="node">
<title>Node5</title>
<g id="a_node5"><a xlink:href="../../d8/df0/wren__debug_8c.html" target="_top" xlink:title=" ">
<polygon fill="white" stroke="black" points="730.5,-0.5 730.5,-21.5 820.5,-21.5 820.5,-0.5 730.5,-0.5"/>
<text text-anchor="middle" x="775.5" y="-7.9" font-family="Helvetica,sans-Serif" font-size="12.00">wren_debug.c</text>
</a>
</g>
</g>
<!-- Node4&#45;&gt;Node5 -->
<g id="edge4" class="edge">
<title>Node4&#45;&gt;Node5</title>
<path fill="none" stroke="midnightblue" d="M767.04,-48.45C769.14,-39.38 771.55,-29 773.26,-21.64"/>
<polygon fill="midnightblue" stroke="midnightblue" points="763.62,-47.71 764.76,-58.25 770.44,-49.3 763.62,-47.71"/>
</g>
<!-- Node4&#45;&gt;Node6 -->
<g id="edge5" class="edge">
<title>Node4&#45;&gt;Node6</title>
<path fill="none" stroke="midnightblue" d="M739.11,-52.77C723.87,-42.85 704.45,-30.2 691.31,-21.64"/>
<polygon fill="midnightblue" stroke="midnightblue" points="737.23,-55.72 747.52,-58.25 741.05,-49.86 737.23,-55.72"/>
</g>
<!-- Node7&#45;&gt;Node6 -->
<g id="edge7" class="edge">
<title>Node7&#45;&gt;Node6</title>
<path fill="none" stroke="midnightblue" d="M209.48,-57.99C376.03,-33.31 562.92,-19.42 640.23,-14.28"/>
<polygon fill="midnightblue" stroke="midnightblue" points="208.92,-54.53 199.55,-59.48 209.96,-61.45 208.92,-54.53"/>
</g>
<!-- Node8 -->
<g id="node8" class="node">
<title>Node8</title>
<g id="a_node8"><a xlink:href="../../de/d2f/wren__core_8c.html" target="_top" xlink:title=" ">
<polygon fill="white" stroke="black" points="119.5,-0.5 119.5,-21.5 199.5,-21.5 199.5,-0.5 119.5,-0.5"/>
<text text-anchor="middle" x="159.5" y="-7.9" font-family="Helvetica,sans-Serif" font-size="12.00">wren_core.c</text>
</a>
</g>
</g>
<!-- Node7&#45;&gt;Node8 -->
<g id="edge8" class="edge">
<title>Node7&#45;&gt;Node8</title>
<path fill="none" stroke="midnightblue" d="M159.5,-48.16C159.5,-39.16 159.5,-28.92 159.5,-21.64"/>
<polygon fill="midnightblue" stroke="midnightblue" points="156,-48.25 159.5,-58.25 163,-48.25 156,-48.25"/>
</g>
<!-- Node12&#45;&gt;Node6 -->
<g id="edge14" class="edge">
<title>Node12&#45;&gt;Node6</title>
<path fill="none" stroke="midnightblue" d="M111.31,-58C317.57,-32.86 551.86,-18.71 640.3,-13.88"/>
<polygon fill="midnightblue" stroke="midnightblue" points="110.69,-54.55 101.2,-59.24 111.55,-61.5 110.69,-54.55"/>
</g>
<!-- Node12&#45;&gt;Node8 -->
<g id="edge15" class="edge">
<title>Node12&#45;&gt;Node8</title>
<path fill="none" stroke="midnightblue" d="M78.53,-53.6C98.07,-43.56 123.61,-30.44 140.73,-21.64"/>
<polygon fill="midnightblue" stroke="midnightblue" points="76.78,-50.56 69.49,-58.25 79.98,-56.79 76.78,-50.56"/>
</g>
<!-- Node13 -->
<g id="node13" class="node">
<title>Node13</title>
<g id="a_node13"><a xlink:href="../../d9/def/wren__primitive_8c.html" target="_top" xlink:title=" ">
<polygon fill="white" stroke="black" points="0,-0.5 0,-21.5 101,-21.5 101,-0.5 0,-0.5"/>
<text text-anchor="middle" x="50.5" y="-7.9" font-family="Helvetica,sans-Serif" font-size="12.00">wren_primitive.c</text>
</a>
</g>
</g>
<!-- Node12&#45;&gt;Node13 -->
<g id="edge13" class="edge">
<title>Node12&#45;&gt;Node13</title>
<path fill="none" stroke="midnightblue" d="M50.5,-48.16C50.5,-39.16 50.5,-28.92 50.5,-21.64"/>
<polygon fill="midnightblue" stroke="midnightblue" points="47,-48.25 50.5,-58.25 54,-48.25 47,-48.25"/>
</g>
</g>
</svg>
