<?xml version="1.0" encoding="UTF-8" standalone="no"?>
<!DOCTYPE svg PUBLIC "-//W3C//DTD SVG 1.1//EN"
 "http://www.w3.org/Graphics/SVG/1.1/DTD/svg11.dtd">
<!-- Generated by graphviz version 2.47.3 (20210619.1520)
 -->
<!-- Title: FsCache.h Pages: 1 -->
<svg width="2250pt" height="436pt"
 viewBox="0.00 0.00 2249.50 436.00" xmlns="http://www.w3.org/2000/svg" xmlns:xlink="http://www.w3.org/1999/xlink">
<g id="graph0" class="graph" transform="scale(1 1) rotate(0) translate(4 432)">
<title>FsCache.h</title>
<polygon fill="white" stroke="transparent" points="-4,4 -4,-432 2245.5,-432 2245.5,4 -4,4"/>
<!-- Node1 -->
<g id="node1" class="node">
<title>Node1</title>
<g id="a_node1"><a xlink:title="Common cache code for exFAT and FAT.">
<polygon fill="#bfbfbf" stroke="black" points="1028,-406.5 1028,-427.5 1102,-427.5 1102,-406.5 1028,-406.5"/>
<text text-anchor="middle" x="1065" y="-413.9" font-family="Helvetica,sans-Serif" font-size="12.00">FsCache.h</text>
</a>
</g>
</g>
<!-- Node2 -->
<g id="node2" class="node">
<title>Node2</title>
<g id="a_node2"><a xlink:href="../../d0/d75/_fs_cache_8cpp.html" target="_top" xlink:title=" ">
<polygon fill="white" stroke="black" points="909.5,-348.5 909.5,-369.5 996.5,-369.5 996.5,-348.5 909.5,-348.5"/>
<text text-anchor="middle" x="953" y="-355.9" font-family="Helvetica,sans-Serif" font-size="12.00">FsCache.cpp</text>
</a>
</g>
</g>
<!-- Node1&#45;&gt;Node2 -->
<g id="edge1" class="edge">
<title>Node1&#45;&gt;Node2</title>
<path fill="none" stroke="midnightblue" d="M1036.67,-401.84C1016.43,-391.71 989.74,-378.37 972,-369.5"/>
<polygon fill="midnightblue" stroke="midnightblue" points="1035.24,-405.03 1045.75,-406.37 1038.37,-398.77 1035.24,-405.03"/>
</g>
<!-- Node3 -->
<g id="node3" class="node">
<title>Node3</title>
<g id="a_node3"><a xlink:href="../../d7/dc8/_ex_fat_partition_8h.html" target="_top" xlink:title="ExFatPartition include file.">
<polygon fill="white" stroke="black" points="1015,-348.5 1015,-369.5 1115,-369.5 1115,-348.5 1015,-348.5"/>
<text text-anchor="middle" x="1065" y="-355.9" font-family="Helvetica,sans-Serif" font-size="12.00">ExFatPartition.h</text>
</a>
</g>
</g>
<!-- Node1&#45;&gt;Node3 -->
<g id="edge2" class="edge">
<title>Node1&#45;&gt;Node3</title>
<path fill="none" stroke="midnightblue" d="M1065,-396.16C1065,-387.16 1065,-376.92 1065,-369.64"/>
<polygon fill="midnightblue" stroke="midnightblue" points="1061.5,-396.25 1065,-406.25 1068.5,-396.25 1061.5,-396.25"/>
</g>
<!-- Node56 -->
<g id="node19" class="node">
<title>Node56</title>
<g id="a_node19"><a xlink:href="../../db/dd3/_fat_partition_8h.html" target="_top" xlink:title="FatPartition class.">
<polygon fill="white" stroke="black" points="1248,-348.5 1248,-369.5 1334,-369.5 1334,-348.5 1248,-348.5"/>
<text text-anchor="middle" x="1291" y="-355.9" font-family="Helvetica,sans-Serif" font-size="12.00">FatPartition.h</text>
</a>
</g>
</g>
<!-- Node1&#45;&gt;Node56 -->
<g id="edge21" class="edge">
<title>Node1&#45;&gt;Node56</title>
<path fill="none" stroke="midnightblue" d="M1111.96,-404.36C1153.55,-394.06 1213.54,-379.19 1252.4,-369.56"/>
<polygon fill="midnightblue" stroke="midnightblue" points="1110.93,-401.01 1102.07,-406.82 1112.61,-407.81 1110.93,-401.01"/>
</g>
<!-- Node4 -->
<g id="node4" class="node">
<title>Node4</title>
<g id="a_node4"><a xlink:href="../../dd/ddc/_ex_fat_file_8h.html" target="_top" xlink:title="ExFatFile class.">
<polygon fill="white" stroke="black" points="998,-290.5 998,-311.5 1074,-311.5 1074,-290.5 998,-290.5"/>
<text text-anchor="middle" x="1036" y="-297.9" font-family="Helvetica,sans-Serif" font-size="12.00">ExFatFile.h</text>
</a>
</g>
</g>
<!-- Node3&#45;&gt;Node4 -->
<g id="edge3" class="edge">
<title>Node3&#45;&gt;Node4</title>
<path fill="none" stroke="midnightblue" d="M1055.34,-339.34C1050.53,-330.06 1044.93,-319.24 1040.99,-311.64"/>
<polygon fill="midnightblue" stroke="midnightblue" points="1052.24,-340.98 1059.95,-348.25 1058.46,-337.76 1052.24,-340.98"/>
</g>
<!-- Node5 -->
<g id="node5" class="node">
<title>Node5</title>
<g id="a_node5"><a xlink:href="../../d6/d68/_ex_fat_volume_8h.html" target="_top" xlink:title=" ">
<polygon fill="white" stroke="black" points="530,-232.5 530,-253.5 626,-253.5 626,-232.5 530,-232.5"/>
<text text-anchor="middle" x="578" y="-239.9" font-family="Helvetica,sans-Serif" font-size="12.00">ExFatVolume.h</text>
</a>
</g>
</g>
<!-- Node4&#45;&gt;Node5 -->
<g id="edge4" class="edge">
<title>Node4&#45;&gt;Node5</title>
<path fill="none" stroke="midnightblue" d="M987.76,-294.1C899.8,-283.35 714.33,-260.67 626.32,-249.91"/>
<polygon fill="midnightblue" stroke="midnightblue" points="987.39,-297.58 997.74,-295.32 988.24,-290.63 987.39,-297.58"/>
</g>
<!-- Node6 -->
<g id="node6" class="node">
<title>Node6</title>
<g id="a_node6"><a xlink:href="../../d8/d23/_ex_fat_lib_8h.html" target="_top" xlink:title=" ">
<polygon fill="white" stroke="black" points="541.5,-174.5 541.5,-195.5 614.5,-195.5 614.5,-174.5 541.5,-174.5"/>
<text text-anchor="middle" x="578" y="-181.9" font-family="Helvetica,sans-Serif" font-size="12.00">ExFatLib.h</text>
</a>
</g>
</g>
<!-- Node5&#45;&gt;Node6 -->
<g id="edge5" class="edge">
<title>Node5&#45;&gt;Node6</title>
<path fill="none" stroke="midnightblue" d="M578,-222.16C578,-213.16 578,-202.92 578,-195.64"/>
<polygon fill="midnightblue" stroke="midnightblue" points="574.5,-222.25 578,-232.25 581.5,-222.25 574.5,-222.25"/>
</g>
<!-- Node13 -->
<g id="node13" class="node">
<title>Node13</title>
<g id="a_node13"><a xlink:href="../../da/dc3/_ex_fat_dbg_8cpp.html" target="_top" xlink:title=" ">
<polygon fill="white" stroke="black" points="0,-116.5 0,-137.5 92,-137.5 92,-116.5 0,-116.5"/>
<text text-anchor="middle" x="46" y="-123.9" font-family="Helvetica,sans-Serif" font-size="12.00">ExFatDbg.cpp</text>
</a>
</g>
</g>
<!-- Node5&#45;&gt;Node13 -->
<g id="edge20" class="edge">
<title>Node5&#45;&gt;Node13</title>
<path fill="none" stroke="midnightblue" d="M523.76,-230.38C418.41,-207.8 187.93,-158.41 90.69,-137.58"/>
<polygon fill="midnightblue" stroke="midnightblue" points="523.05,-233.8 533.56,-232.48 524.51,-226.96 523.05,-233.8"/>
</g>
<!-- Node7 -->
<g id="node7" class="node">
<title>Node7</title>
<g id="a_node7"><a xlink:href="../../d4/d74/_ex_fat_file_8cpp.html" target="_top" xlink:title=" ">
<polygon fill="white" stroke="black" points="280.5,-116.5 280.5,-137.5 369.5,-137.5 369.5,-116.5 280.5,-116.5"/>
<text text-anchor="middle" x="325" y="-123.9" font-family="Helvetica,sans-Serif" font-size="12.00">ExFatFile.cpp</text>
</a>
</g>
</g>
<!-- Node6&#45;&gt;Node7 -->
<g id="edge6" class="edge">
<title>Node6&#45;&gt;Node7</title>
<path fill="none" stroke="midnightblue" d="M531.64,-173.74C485.04,-163.42 413.77,-147.65 368.29,-137.58"/>
<polygon fill="midnightblue" stroke="midnightblue" points="530.96,-177.17 541.48,-175.92 532.47,-170.34 530.96,-177.17"/>
</g>
<!-- Node8 -->
<g id="node8" class="node">
<title>Node8</title>
<g id="a_node8"><a xlink:href="../../db/d4e/_ex_fat_file_write_8cpp.html" target="_top" xlink:title=" ">
<polygon fill="white" stroke="black" points="387.5,-116.5 387.5,-137.5 504.5,-137.5 504.5,-116.5 387.5,-116.5"/>
<text text-anchor="middle" x="446" y="-123.9" font-family="Helvetica,sans-Serif" font-size="12.00">ExFatFileWrite.cpp</text>
</a>
</g>
</g>
<!-- Node6&#45;&gt;Node8 -->
<g id="edge7" class="edge">
<title>Node6&#45;&gt;Node8</title>
<path fill="none" stroke="midnightblue" d="M545.9,-170.38C521.9,-160.2 489.67,-146.53 468.4,-137.5"/>
<polygon fill="midnightblue" stroke="midnightblue" points="544.74,-173.69 555.31,-174.37 547.47,-167.25 544.74,-173.69"/>
</g>
<!-- Node9 -->
<g id="node9" class="node">
<title>Node9</title>
<g id="a_node9"><a xlink:href="../../dc/d94/_ex_fat_volume_8cpp.html" target="_top" xlink:title=" ">
<polygon fill="white" stroke="black" points="523,-116.5 523,-137.5 633,-137.5 633,-116.5 523,-116.5"/>
<text text-anchor="middle" x="578" y="-123.9" font-family="Helvetica,sans-Serif" font-size="12.00">ExFatVolume.cpp</text>
</a>
</g>
</g>
<!-- Node6&#45;&gt;Node9 -->
<g id="edge8" class="edge">
<title>Node6&#45;&gt;Node9</title>
<path fill="none" stroke="midnightblue" d="M578,-164.16C578,-155.16 578,-144.92 578,-137.64"/>
<polygon fill="midnightblue" stroke="midnightblue" points="574.5,-164.25 578,-174.25 581.5,-164.25 574.5,-164.25"/>
</g>
<!-- Node10 -->
<g id="node10" class="node">
<title>Node10</title>
<g id="a_node10"><a xlink:href="../../d2/df9/_ex_fat_partition_8cpp.html" target="_top" xlink:title=" ">
<polygon fill="white" stroke="black" points="651.5,-116.5 651.5,-137.5 764.5,-137.5 764.5,-116.5 651.5,-116.5"/>
<text text-anchor="middle" x="708" y="-123.9" font-family="Helvetica,sans-Serif" font-size="12.00">ExFatPartition.cpp</text>
</a>
</g>
</g>
<!-- Node6&#45;&gt;Node10 -->
<g id="edge9" class="edge">
<title>Node6&#45;&gt;Node10</title>
<path fill="none" stroke="midnightblue" d="M609.61,-170.38C633.25,-160.2 664.99,-146.53 685.94,-137.5"/>
<polygon fill="midnightblue" stroke="midnightblue" points="608.15,-167.2 600.35,-174.37 610.92,-173.63 608.15,-167.2"/>
</g>
<!-- Node11 -->
<g id="node11" class="node">
<title>Node11</title>
<g id="a_node11"><a xlink:href="../../d8/d04/_ex_fat_name_8cpp.html" target="_top" xlink:title=" ">
<polygon fill="white" stroke="black" points="782.5,-116.5 782.5,-137.5 883.5,-137.5 883.5,-116.5 782.5,-116.5"/>
<text text-anchor="middle" x="833" y="-123.9" font-family="Helvetica,sans-Serif" font-size="12.00">ExFatName.cpp</text>
</a>
</g>
</g>
<!-- Node6&#45;&gt;Node11 -->
<g id="edge10" class="edge">
<title>Node6&#45;&gt;Node11</title>
<path fill="none" stroke="midnightblue" d="M624.47,-173.79C671.55,-163.46 743.8,-147.59 789.71,-137.51"/>
<polygon fill="midnightblue" stroke="midnightblue" points="623.55,-170.41 614.54,-175.98 625.05,-177.25 623.55,-170.41"/>
</g>
<!-- Node12 -->
<g id="node12" class="node">
<title>Node12</title>
<g id="a_node12"><a xlink:href="../../d6/dac/_ex_fat_formatter_8cpp.html" target="_top" xlink:title=" ">
<polygon fill="white" stroke="black" points="901.5,-116.5 901.5,-137.5 1022.5,-137.5 1022.5,-116.5 901.5,-116.5"/>
<text text-anchor="middle" x="962" y="-123.9" font-family="Helvetica,sans-Serif" font-size="12.00">ExFatFormatter.cpp</text>
</a>
</g>
</g>
<!-- Node6&#45;&gt;Node12 -->
<g id="edge11" class="edge">
<title>Node6&#45;&gt;Node12</title>
<path fill="none" stroke="midnightblue" d="M625.02,-177.14C694.48,-167.01 824.54,-148.05 901.18,-136.87"/>
<polygon fill="midnightblue" stroke="midnightblue" points="624.21,-173.72 614.82,-178.63 625.22,-180.65 624.21,-173.72"/>
</g>
<!-- Node6&#45;&gt;Node13 -->
<g id="edge12" class="edge">
<title>Node6&#45;&gt;Node13</title>
<path fill="none" stroke="midnightblue" d="M531.2,-180.79C445.57,-174.64 258.03,-159.81 101,-138 98.12,-137.6 95.15,-137.16 92.17,-136.68"/>
<polygon fill="midnightblue" stroke="midnightblue" points="531.15,-184.3 541.37,-181.52 531.65,-177.32 531.15,-184.3"/>
</g>
<!-- Node14 -->
<g id="node14" class="node">
<title>Node14</title>
<g id="a_node14"><a xlink:href="../../d3/d2b/_ex_fat_file_print_8cpp.html" target="_top" xlink:title=" ">
<polygon fill="white" stroke="black" points="110.5,-116.5 110.5,-137.5 223.5,-137.5 223.5,-116.5 110.5,-116.5"/>
<text text-anchor="middle" x="167" y="-123.9" font-family="Helvetica,sans-Serif" font-size="12.00">ExFatFilePrint.cpp</text>
</a>
</g>
</g>
<!-- Node6&#45;&gt;Node14 -->
<g id="edge13" class="edge">
<title>Node6&#45;&gt;Node14</title>
<path fill="none" stroke="midnightblue" d="M531.25,-177.76C465.69,-168.98 342.74,-152.46 238,-138 233.31,-137.35 228.46,-136.68 223.58,-136"/>
<polygon fill="midnightblue" stroke="midnightblue" points="530.89,-181.24 541.26,-179.1 531.82,-174.3 530.89,-181.24"/>
</g>
<!-- Node15 -->
<g id="node15" class="node">
<title>Node15</title>
<g id="a_node15"><a xlink:href="../../d3/ddb/_fs_file_8h.html" target="_top" xlink:title="FsBaseFile include file.">
<polygon fill="white" stroke="black" points="1040.5,-116.5 1040.5,-137.5 1099.5,-137.5 1099.5,-116.5 1040.5,-116.5"/>
<text text-anchor="middle" x="1070" y="-123.9" font-family="Helvetica,sans-Serif" font-size="12.00">FsFile.h</text>
</a>
</g>
</g>
<!-- Node6&#45;&gt;Node15 -->
<g id="edge14" class="edge">
<title>Node6&#45;&gt;Node15</title>
<path fill="none" stroke="midnightblue" d="M624.72,-181.57C707.24,-176.76 883.97,-164.16 1031,-138 1034.03,-137.46 1037.17,-136.81 1040.29,-136.11"/>
<polygon fill="midnightblue" stroke="midnightblue" points="624.45,-178.08 614.66,-182.14 624.85,-185.07 624.45,-178.08"/>
</g>
<!-- Node32 -->
<g id="node17" class="node">
<title>Node32</title>
<g id="a_node17"><a xlink:href="../../d5/ddc/_sd_fat_8h.html" target="_top" xlink:title="main SdFs include file.">
<polygon fill="white" stroke="red" points="1084,-0.5 1084,-21.5 1142,-21.5 1142,-0.5 1084,-0.5"/>
<text text-anchor="middle" x="1113" y="-7.9" font-family="Helvetica,sans-Serif" font-size="12.00">SdFat.h</text>
</a>
</g>
</g>
<!-- Node6&#45;&gt;Node32 -->
<g id="edge19" class="edge">
<title>Node6&#45;&gt;Node32</title>
<path fill="none" stroke="midnightblue" d="M530.82,-184.1C453.23,-183.16 303.96,-176.27 271,-138 264.62,-130.59 264.52,-123.33 271,-116 326.18,-53.58 941.5,-20.26 1083.77,-13.36"/>
<polygon fill="midnightblue" stroke="midnightblue" points="531.24,-187.61 541.28,-184.2 531.31,-180.61 531.24,-187.61"/>
</g>
<!-- Node55 -->
<g id="node18" class="node">
<title>Node55</title>
<g id="a_node18"><a xlink:href="../../db/d47/_fs_volume_8h.html" target="_top" xlink:title="FsVolume include file.">
<polygon fill="white" stroke="black" points="1117.5,-116.5 1117.5,-137.5 1196.5,-137.5 1196.5,-116.5 1117.5,-116.5"/>
<text text-anchor="middle" x="1157" y="-123.9" font-family="Helvetica,sans-Serif" font-size="12.00">FsVolume.h</text>
</a>
</g>
</g>
<!-- Node6&#45;&gt;Node55 -->
<g id="edge17" class="edge">
<title>Node6&#45;&gt;Node55</title>
<path fill="none" stroke="midnightblue" d="M624.97,-181.74C717.69,-176.87 930.65,-163.71 1108,-138 1111.09,-137.55 1114.29,-137.03 1117.49,-136.47"/>
<polygon fill="midnightblue" stroke="midnightblue" points="624.6,-178.25 614.79,-182.26 624.96,-185.24 624.6,-178.25"/>
</g>
<!-- Node16 -->
<g id="node16" class="node">
<title>Node16</title>
<g id="a_node16"><a xlink:href="../../d3/d27/_fs_lib_8h.html" target="_top" xlink:title="FsLib include file.">
<polygon fill="white" stroke="red" points="1085,-58.5 1085,-79.5 1141,-79.5 1141,-58.5 1085,-58.5"/>
<text text-anchor="middle" x="1113" y="-65.9" font-family="Helvetica,sans-Serif" font-size="12.00">FsLib.h</text>
</a>
</g>
</g>
<!-- Node15&#45;&gt;Node16 -->
<g id="edge15" class="edge">
<title>Node15&#45;&gt;Node16</title>
<path fill="none" stroke="midnightblue" d="M1083.66,-108.21C1090.93,-98.75 1099.58,-87.48 1105.6,-79.64"/>
<polygon fill="midnightblue" stroke="midnightblue" points="1080.8,-106.18 1077.49,-116.25 1086.36,-110.45 1080.8,-106.18"/>
</g>
<!-- Node16&#45;&gt;Node32 -->
<g id="edge16" class="edge">
<title>Node16&#45;&gt;Node32</title>
<path fill="none" stroke="midnightblue" d="M1113,-48.16C1113,-39.16 1113,-28.92 1113,-21.64"/>
<polygon fill="midnightblue" stroke="midnightblue" points="1109.5,-48.25 1113,-58.25 1116.5,-48.25 1109.5,-48.25"/>
</g>
<!-- Node55&#45;&gt;Node16 -->
<g id="edge18" class="edge">
<title>Node55&#45;&gt;Node16</title>
<path fill="none" stroke="midnightblue" d="M1143.02,-108.21C1135.59,-98.75 1126.73,-87.48 1120.58,-79.64"/>
<polygon fill="midnightblue" stroke="midnightblue" points="1140.41,-110.54 1149.34,-116.25 1145.91,-106.22 1140.41,-110.54"/>
</g>
<!-- Node57 -->
<g id="node20" class="node">
<title>Node57</title>
<g id="a_node20"><a xlink:href="../../d6/d7b/_fat_file_8h.html" target="_top" xlink:title="FatFile class.">
<polygon fill="white" stroke="black" points="1317,-290.5 1317,-311.5 1379,-311.5 1379,-290.5 1317,-290.5"/>
<text text-anchor="middle" x="1348" y="-297.9" font-family="Helvetica,sans-Serif" font-size="12.00">FatFile.h</text>
</a>
</g>
</g>
<!-- Node56&#45;&gt;Node57 -->
<g id="edge22" class="edge">
<title>Node56&#45;&gt;Node57</title>
<path fill="none" stroke="midnightblue" d="M1308.23,-341.08C1318.03,-331.44 1329.96,-319.72 1338.19,-311.64"/>
<polygon fill="midnightblue" stroke="midnightblue" points="1305.61,-338.74 1300.93,-348.25 1310.51,-343.73 1305.61,-338.74"/>
</g>
<!-- Node58 -->
<g id="node21" class="node">
<title>Node58</title>
<g id="a_node21"><a xlink:href="../../da/d0b/_fat_volume_8h.html" target="_top" xlink:title="FatVolume class.">
<polygon fill="white" stroke="black" points="1535.5,-232.5 1535.5,-253.5 1618.5,-253.5 1618.5,-232.5 1535.5,-232.5"/>
<text text-anchor="middle" x="1577" y="-239.9" font-family="Helvetica,sans-Serif" font-size="12.00">FatVolume.h</text>
</a>
</g>
</g>
<!-- Node57&#45;&gt;Node58 -->
<g id="edge23" class="edge">
<title>Node57&#45;&gt;Node58</title>
<path fill="none" stroke="midnightblue" d="M1389.31,-289.9C1431.54,-279.57 1496.61,-263.66 1537.98,-253.54"/>
<polygon fill="midnightblue" stroke="midnightblue" points="1388.24,-286.56 1379.36,-292.33 1389.91,-293.36 1388.24,-286.56"/>
</g>
<!-- Node59 -->
<g id="node22" class="node">
<title>Node59</title>
<g id="a_node22"><a xlink:href="../../de/dfa/_fat_lib_8h.html" target="_top" xlink:title=" ">
<polygon fill="white" stroke="black" points="1576.5,-174.5 1576.5,-195.5 1635.5,-195.5 1635.5,-174.5 1576.5,-174.5"/>
<text text-anchor="middle" x="1606" y="-181.9" font-family="Helvetica,sans-Serif" font-size="12.00">FatLib.h</text>
</a>
</g>
</g>
<!-- Node58&#45;&gt;Node59 -->
<g id="edge24" class="edge">
<title>Node58&#45;&gt;Node59</title>
<path fill="none" stroke="midnightblue" d="M1586.66,-223.34C1591.47,-214.06 1597.07,-203.24 1601.01,-195.64"/>
<polygon fill="midnightblue" stroke="midnightblue" points="1583.54,-221.76 1582.05,-232.25 1589.76,-224.98 1583.54,-221.76"/>
</g>
<!-- Node59&#45;&gt;Node15 -->
<g id="edge32" class="edge">
<title>Node59&#45;&gt;Node15</title>
<path fill="none" stroke="midnightblue" d="M1566.08,-182.55C1481.19,-178.98 1276.71,-167.78 1108,-138 1105.31,-137.53 1102.54,-136.96 1099.77,-136.33"/>
<polygon fill="midnightblue" stroke="midnightblue" points="1566.17,-186.06 1576.3,-182.97 1566.46,-179.06 1566.17,-186.06"/>
</g>
<!-- Node59&#45;&gt;Node32 -->
<g id="edge36" class="edge">
<title>Node59&#45;&gt;Node32</title>
<path fill="none" stroke="midnightblue" d="M1645.75,-182.17C1739.34,-177.47 1967.39,-163.48 1990,-138 1996.49,-130.69 1996.49,-123.31 1990,-116 1932.27,-51.02 1288.77,-19.56 1142.47,-13.22"/>
<polygon fill="midnightblue" stroke="midnightblue" points="1645.37,-178.69 1635.55,-182.68 1645.71,-185.68 1645.37,-178.69"/>
</g>
<!-- Node59&#45;&gt;Node55 -->
<g id="edge35" class="edge">
<title>Node59&#45;&gt;Node55</title>
<path fill="none" stroke="midnightblue" d="M1566.27,-180.58C1494.21,-174.13 1337.26,-158.9 1206,-138 1202.91,-137.51 1199.73,-136.96 1196.53,-136.37"/>
<polygon fill="midnightblue" stroke="midnightblue" points="1566,-184.07 1576.27,-181.47 1566.62,-177.1 1566,-184.07"/>
</g>
<!-- Node60 -->
<g id="node23" class="node">
<title>Node60</title>
<g id="a_node23"><a xlink:href="../../d5/d96/_fat_dbg_8cpp.html" target="_top" xlink:title=" ">
<polygon fill="white" stroke="black" points="2037.5,-116.5 2037.5,-137.5 2116.5,-137.5 2116.5,-116.5 2037.5,-116.5"/>
<text text-anchor="middle" x="2077" y="-123.9" font-family="Helvetica,sans-Serif" font-size="12.00">FatDbg.cpp</text>
</a>
</g>
</g>
<!-- Node59&#45;&gt;Node60 -->
<g id="edge25" class="edge">
<title>Node59&#45;&gt;Node60</title>
<path fill="none" stroke="midnightblue" d="M1645.98,-180.57C1720.4,-173.97 1885.13,-158.34 2023,-138 2027.62,-137.32 2032.45,-136.53 2037.24,-135.7"/>
<polygon fill="midnightblue" stroke="midnightblue" points="1645.33,-177.12 1635.67,-181.48 1645.94,-184.09 1645.33,-177.12"/>
</g>
<!-- Node61 -->
<g id="node24" class="node">
<title>Node61</title>
<g id="a_node24"><a xlink:href="../../db/dc9/_fat_formatter_8cpp.html" target="_top" xlink:title=" ">
<polygon fill="white" stroke="black" points="2134.5,-116.5 2134.5,-137.5 2241.5,-137.5 2241.5,-116.5 2134.5,-116.5"/>
<text text-anchor="middle" x="2188" y="-123.9" font-family="Helvetica,sans-Serif" font-size="12.00">FatFormatter.cpp</text>
</a>
</g>
</g>
<!-- Node59&#45;&gt;Node61 -->
<g id="edge26" class="edge">
<title>Node59&#45;&gt;Node61</title>
<path fill="none" stroke="midnightblue" d="M1645.67,-181.47C1732.79,-175.68 1947.33,-160.28 2126,-138 2128.7,-137.66 2131.47,-137.3 2134.27,-136.91"/>
<polygon fill="midnightblue" stroke="midnightblue" points="1645.44,-177.97 1635.69,-182.12 1645.9,-184.96 1645.44,-177.97"/>
</g>
<!-- Node62 -->
<g id="node25" class="node">
<title>Node62</title>
<g id="a_node25"><a xlink:href="../../dc/dd7/_fat_file_s_f_n_8cpp.html" target="_top" xlink:title=" ">
<polygon fill="white" stroke="black" points="1215,-116.5 1215,-137.5 1315,-137.5 1315,-116.5 1215,-116.5"/>
<text text-anchor="middle" x="1265" y="-123.9" font-family="Helvetica,sans-Serif" font-size="12.00">FatFileSFN.cpp</text>
</a>
</g>
</g>
<!-- Node59&#45;&gt;Node62 -->
<g id="edge27" class="edge">
<title>Node59&#45;&gt;Node62</title>
<path fill="none" stroke="midnightblue" d="M1566.4,-177.62C1511.82,-168.81 1410.42,-152.37 1324,-138 1321.13,-137.52 1318.18,-137.03 1315.21,-136.53"/>
<polygon fill="midnightblue" stroke="midnightblue" points="1565.92,-181.09 1576.35,-179.23 1567.04,-174.18 1565.92,-181.09"/>
</g>
<!-- Node63 -->
<g id="node26" class="node">
<title>Node63</title>
<g id="a_node26"><a xlink:href="../../dc/d9e/_fat_name_8cpp.html" target="_top" xlink:title=" ">
<polygon fill="white" stroke="black" points="1333,-116.5 1333,-137.5 1421,-137.5 1421,-116.5 1333,-116.5"/>
<text text-anchor="middle" x="1377" y="-123.9" font-family="Helvetica,sans-Serif" font-size="12.00">FatName.cpp</text>
</a>
</g>
</g>
<!-- Node59&#45;&gt;Node63 -->
<g id="edge28" class="edge">
<title>Node59&#45;&gt;Node63</title>
<path fill="none" stroke="midnightblue" d="M1566.16,-174.26C1524.03,-163.96 1458.01,-147.81 1416.15,-137.57"/>
<polygon fill="midnightblue" stroke="midnightblue" points="1565.52,-177.7 1576.06,-176.68 1567.18,-170.9 1565.52,-177.7"/>
</g>
<!-- Node64 -->
<g id="node27" class="node">
<title>Node64</title>
<g id="a_node27"><a xlink:href="../../db/d91/_fat_file_print_8cpp.html" target="_top" xlink:title=" ">
<polygon fill="white" stroke="black" points="1439,-116.5 1439,-137.5 1539,-137.5 1539,-116.5 1439,-116.5"/>
<text text-anchor="middle" x="1489" y="-123.9" font-family="Helvetica,sans-Serif" font-size="12.00">FatFilePrint.cpp</text>
</a>
</g>
</g>
<!-- Node59&#45;&gt;Node64 -->
<g id="edge29" class="edge">
<title>Node59&#45;&gt;Node64</title>
<path fill="none" stroke="midnightblue" d="M1576.7,-169.97C1555.51,-159.83 1527.46,-146.41 1508.85,-137.5"/>
<polygon fill="midnightblue" stroke="midnightblue" points="1575.36,-173.21 1585.89,-174.37 1578.38,-166.9 1575.36,-173.21"/>
</g>
<!-- Node65 -->
<g id="node28" class="node">
<title>Node65</title>
<g id="a_node28"><a xlink:href="../../d6/d63/_fat_file_l_f_n_8cpp.html" target="_top" xlink:title=" ">
<polygon fill="white" stroke="black" points="1557,-116.5 1557,-137.5 1655,-137.5 1655,-116.5 1557,-116.5"/>
<text text-anchor="middle" x="1606" y="-123.9" font-family="Helvetica,sans-Serif" font-size="12.00">FatFileLFN.cpp</text>
</a>
</g>
</g>
<!-- Node59&#45;&gt;Node65 -->
<g id="edge30" class="edge">
<title>Node59&#45;&gt;Node65</title>
<path fill="none" stroke="midnightblue" d="M1606,-164.16C1606,-155.16 1606,-144.92 1606,-137.64"/>
<polygon fill="midnightblue" stroke="midnightblue" points="1602.5,-164.25 1606,-174.25 1609.5,-164.25 1602.5,-164.25"/>
</g>
<!-- Node66 -->
<g id="node29" class="node">
<title>Node66</title>
<g id="a_node29"><a xlink:href="../../d5/d8b/_fat_partition_8cpp.html" target="_top" xlink:title=" ">
<polygon fill="white" stroke="black" points="1673,-116.5 1673,-137.5 1773,-137.5 1773,-116.5 1673,-116.5"/>
<text text-anchor="middle" x="1723" y="-123.9" font-family="Helvetica,sans-Serif" font-size="12.00">FatPartition.cpp</text>
</a>
</g>
</g>
<!-- Node59&#45;&gt;Node66 -->
<g id="edge31" class="edge">
<title>Node59&#45;&gt;Node66</title>
<path fill="none" stroke="midnightblue" d="M1635.3,-169.97C1656.49,-159.83 1684.54,-146.41 1703.15,-137.5"/>
<polygon fill="midnightblue" stroke="midnightblue" points="1633.62,-166.9 1626.11,-174.37 1636.64,-173.21 1633.62,-166.9"/>
</g>
<!-- Node67 -->
<g id="node30" class="node">
<title>Node67</title>
<g id="a_node30"><a xlink:href="../../d2/dcc/_fat_file_8cpp.html" target="_top" xlink:title=" ">
<polygon fill="white" stroke="black" points="1791,-116.5 1791,-137.5 1867,-137.5 1867,-116.5 1791,-116.5"/>
<text text-anchor="middle" x="1829" y="-123.9" font-family="Helvetica,sans-Serif" font-size="12.00">FatFile.cpp</text>
</a>
</g>
</g>
<!-- Node59&#45;&gt;Node67 -->
<g id="edge33" class="edge">
<title>Node59&#45;&gt;Node67</title>
<path fill="none" stroke="midnightblue" d="M1645.55,-174.07C1686.65,-163.75 1750.54,-147.7 1791.05,-137.53"/>
<polygon fill="midnightblue" stroke="midnightblue" points="1644.46,-170.73 1635.61,-176.56 1646.16,-177.52 1644.46,-170.73"/>
</g>
<!-- Node68 -->
<g id="node31" class="node">
<title>Node68</title>
<g id="a_node31"><a xlink:href="../../dd/df4/_fat_volume_8cpp.html" target="_top" xlink:title=" ">
<polygon fill="white" stroke="black" points="1885,-116.5 1885,-137.5 1981,-137.5 1981,-116.5 1885,-116.5"/>
<text text-anchor="middle" x="1933" y="-123.9" font-family="Helvetica,sans-Serif" font-size="12.00">FatVolume.cpp</text>
</a>
</g>
</g>
<!-- Node59&#45;&gt;Node68 -->
<g id="edge34" class="edge">
<title>Node59&#45;&gt;Node68</title>
<path fill="none" stroke="midnightblue" d="M1645.5,-177.33C1698.11,-168.44 1794.08,-152.16 1876,-138 1878.87,-137.5 1881.82,-136.99 1884.8,-136.47"/>
<polygon fill="midnightblue" stroke="midnightblue" points="1644.85,-173.89 1635.57,-179.01 1646.02,-180.8 1644.85,-173.89"/>
</g>
</g>
</svg>
