<?xml version="1.0" encoding="UTF-8" standalone="no"?>
<!DOCTYPE svg PUBLIC "-//W3C//DTD SVG 1.1//EN"
 "http://www.w3.org/Graphics/SVG/1.1/DTD/svg11.dtd">
<!-- Generated by graphviz version 2.47.3 (20210619.1520)
 -->
<!-- Title: AppScope::update Pages: 1 -->
<svg width="475pt" height="125pt"
 viewBox="0.00 0.00 475.00 125.00" xmlns="http://www.w3.org/2000/svg" xmlns:xlink="http://www.w3.org/1999/xlink">
<g id="graph0" class="graph" transform="scale(1 1) rotate(0) translate(4 121)">
<title>AppScope::update</title>
<!-- Node1 -->
<g id="node1" class="node">
<title>Node1</title>
<g id="a_node1"><a xlink:title=" ">
<polygon fill="#bfbfbf" stroke="black" points="0,-45.5 0,-71.5 144,-71.5 144,-45.5 0,-45.5"/>
<text text-anchor="middle" x="72" y="-54.7" font-family="Helvetica,sans-Serif" font-size="16.00">AppScope::update</text>
</a>
</g>
</g>
<!-- Node2 -->
<g id="node2" class="node">
<title>Node2</title>
<g id="a_node2"><a xlink:href="../../d4/d81/classeris_audio_analyze_scope_a9a0e5d6a6eeff913a4e417efea934dde.html#a9a0e5d6a6eeff913a4e417efea934dde" target="_top" xlink:title=" ">
<polygon fill="none" stroke="black" points="201,-90.5 201,-116.5 446,-116.5 446,-90.5 201,-90.5"/>
<text text-anchor="middle" x="323.5" y="-99.7" font-family="Helvetica,sans-Serif" font-size="16.00">erisAudioAnalyzeScope::getHDiv</text>
</a>
</g>
</g>
<!-- Node1&#45;&gt;Node2 -->
<g id="edge1" class="edge">
<title>Node1&#45;&gt;Node2</title>
<path fill="none" stroke="midnightblue" d="M130.63,-71.53C146.58,-74.97 163.93,-78.54 180,-81.5 193.8,-84.05 208.39,-86.53 222.76,-88.86"/>
<polygon fill="midnightblue" stroke="midnightblue" points="222.24,-92.32 232.67,-90.45 223.35,-85.41 222.24,-92.32"/>
</g>
<!-- Node3 -->
<g id="node3" class="node">
<title>Node3</title>
<g id="a_node3"><a xlink:href="../../d4/d81/classeris_audio_analyze_scope_a9d865bd201a84115950c1810ba18971c.html#a9d865bd201a84115950c1810ba18971c" target="_top" xlink:title=" ">
<polygon fill="none" stroke="black" points="180,-45.5 180,-71.5 467,-71.5 467,-45.5 180,-45.5"/>
<text text-anchor="middle" x="323.5" y="-54.7" font-family="Helvetica,sans-Serif" font-size="16.00">erisAudioAnalyzeScope::getPeakValue</text>
</a>
</g>
</g>
<!-- Node1&#45;&gt;Node3 -->
<g id="edge2" class="edge">
<title>Node1&#45;&gt;Node3</title>
<path fill="none" stroke="midnightblue" d="M144.16,-58.5C152.24,-58.5 160.68,-58.5 169.32,-58.5"/>
<polygon fill="midnightblue" stroke="midnightblue" points="169.54,-62 179.54,-58.5 169.54,-55 169.54,-62"/>
</g>
<!-- Node4 -->
<g id="node4" class="node">
<title>Node4</title>
<g id="a_node4"><a xlink:href="../../d4/d81/classeris_audio_analyze_scope_a9b55a833ab606b7081bf2ecaac6626fa.html#a9b55a833ab606b7081bf2ecaac6626fa" target="_top" xlink:title=" ">
<polygon fill="none" stroke="black" points="213,-0.5 213,-26.5 434,-26.5 434,-0.5 213,-0.5"/>
<text text-anchor="middle" x="323.5" y="-9.7" font-family="Helvetica,sans-Serif" font-size="16.00">erisAudioAnalyzeScope::read</text>
</a>
</g>
</g>
<!-- Node1&#45;&gt;Node4 -->
<g id="edge3" class="edge">
<title>Node1&#45;&gt;Node4</title>
<path fill="none" stroke="midnightblue" d="M134.02,-45.48C149.03,-42.41 165.08,-39.24 180,-36.5 195.51,-33.65 212.01,-30.82 228.07,-28.16"/>
<polygon fill="midnightblue" stroke="midnightblue" points="228.7,-31.6 238,-26.53 227.57,-24.69 228.7,-31.6"/>
</g>
</g>
</svg>
