<?xml version="1.0" encoding="UTF-8" standalone="no"?>
<!DOCTYPE svg PUBLIC "-//W3C//DTD SVG 1.1//EN"
 "http://www.w3.org/Graphics/SVG/1.1/DTD/svg11.dtd">
<!-- Generated by graphviz version 2.47.3 (20210619.1520)
 -->
<!-- Title: ERISCore/include/SvcSerialCommandInterface.h Pages: 1 -->
<!--zoomable 427 -->
<svg id="main" version="1.1" xmlns="http://www.w3.org/2000/svg" xmlns:xlink="http://www.w3.org/1999/xlink" xml:space="preserve" onload="init(evt)">
<style type="text/css"><![CDATA[
.edge:hover path { stroke: red; }
.edge:hover polygon { stroke: red; fill: red; }
]]></style>
<script type="text/javascript"><![CDATA[
var edges = document.getElementsByTagName('g');
if (edges && edges.length) {
  for (var i=0;i<edges.length;i++) {
    if (edges[i].id.substr(0,4)=='edge') {
      edges[i].setAttribute('class','edge');
    }
  }
}
]]></script>
        <defs>
                <circle id="rim" cx="0" cy="0" r="7"/>
                <circle id="rim2" cx="0" cy="0" r="3.5"/>
                <g id="zoomPlus">
                        <use xlink:href="#rim" fill="#404040">
                                <set attributeName="fill" to="#808080" begin="zoomplus.mouseover" end="zoomplus.mouseout"/>
                        </use>
                        <path d="M-4,0h8M0,-4v8" fill="none" stroke="white" stroke-width="1.5" pointer-events="none"/>
                </g>
                <g id="zoomMin">
                        <use xlink:href="#rim" fill="#404040">
                                <set attributeName="fill" to="#808080" begin="zoomminus.mouseover" end="zoomminus.mouseout"/>
                        </use>
                        <path d="M-4,0h8" fill="none" stroke="white" stroke-width="1.5" pointer-events="none"/>
                </g>
                <g id="dirArrow">
                        <path fill="none" stroke="white" stroke-width="1.5" d="M0,-3.0v7 M-2.5,-0.5L0,-3.0L2.5,-0.5"/>
                </g>
               <g id="resetDef">
                       <use xlink:href="#rim2" fill="#404040">
                               <set attributeName="fill" to="#808080" begin="reset.mouseover" end="reset.mouseout"/>
                       </use>
               </g>
        </defs>

<script type="text/javascript">
var viewWidth = 3295;
var viewHeight = 427;
var sectionId = 'dynsection-1';
</script>
<script xlink:href="../../svgpan.js"/>
<svg id="graph" class="graph">
<g id="viewport">
<title>ERISCore/include/SvcSerialCommandInterface.h</title>
<!-- Node1 -->
<g id="node1" class="node">
<title>Node1</title>
<g id="a_node1"><a xlink:title=" ">
<polygon fill="#bfbfbf" stroke="black" points="1978.5,-390.5 1978.5,-418.5 2387.5,-418.5 2387.5,-390.5 1978.5,-390.5"/>
<text text-anchor="middle" x="2183" y="-400.1" font-family="Helvetica,sans-Serif" font-size="18.00">ERISCore/include/SvcSerialCommandInterface.h</text>
</a>
</g>
</g>
<!-- Node2 -->
<g id="node2" class="node">
<title>Node2</title>
<g id="a_node2"><a xlink:href="../../db/dc8/_audio_director_8h.html" target="_top" xlink:title=" ">
<polygon fill="none" stroke="black" points="990.5,-325.5 990.5,-353.5 1279.5,-353.5 1279.5,-325.5 990.5,-325.5"/>
<text text-anchor="middle" x="1135" y="-335.1" font-family="Helvetica,sans-Serif" font-size="18.00">ERISCore/include/AudioDirector.h</text>
</a>
</g>
</g>
<!-- Node1&#45;&gt;Node2 -->
<g id="edge1" class="edge">
<title>Node1&#45;&gt;Node2</title>
<path fill="none" stroke="midnightblue" d="M1968.42,-390.6C1762.77,-378.24 1458.05,-359.92 1279.68,-349.2"/>
<polygon fill="midnightblue" stroke="midnightblue" points="1968.26,-394.1 1978.45,-391.2 1968.68,-387.11 1968.26,-394.1"/>
</g>
<!-- Node6 -->
<g id="node6" class="node">
<title>Node6</title>
<g id="a_node6"><a xlink:href="../../d6/dd8/_eris_core_8cpp.html" target="_top" xlink:title=" ">
<polygon fill="none" stroke="black" points="1771.5,-0.5 1771.5,-28.5 2006.5,-28.5 2006.5,-0.5 1771.5,-0.5"/>
<text text-anchor="middle" x="1889" y="-10.1" font-family="Helvetica,sans-Serif" font-size="18.00">ERISCore/src/ErisCore.cpp</text>
</a>
</g>
</g>
<!-- Node1&#45;&gt;Node6 -->
<g id="edge41" class="edge">
<title>Node1&#45;&gt;Node6</title>
<path fill="none" stroke="midnightblue" d="M2398.12,-399.82C2719.34,-391.42 3287,-364.05 3287,-275.5 3287,-275.5 3287,-275.5 3287,-143.5 3287,-79.43 2343.47,-34.24 2006.69,-20.15"/>
<polygon fill="midnightblue" stroke="midnightblue" points="2397.65,-396.33 2387.74,-400.09 2397.83,-403.33 2397.65,-396.33"/>
</g>
<!-- Node12 -->
<g id="node12" class="node">
<title>Node12</title>
<g id="a_node12"><a xlink:href="../../dc/d40/_app_manager_8cpp.html" target="_top" xlink:title=" ">
<polygon fill="none" stroke="black" points="2577.5,-130.5 2577.5,-158.5 2846.5,-158.5 2846.5,-130.5 2577.5,-130.5"/>
<text text-anchor="middle" x="2712" y="-140.1" font-family="Helvetica,sans-Serif" font-size="18.00">ERISCore/src/AppManager.cpp</text>
</a>
</g>
</g>
<!-- Node1&#45;&gt;Node12 -->
<g id="edge36" class="edge">
<title>Node1&#45;&gt;Node12</title>
<path fill="none" stroke="midnightblue" d="M2252.11,-387.97C2284.34,-379.66 2322.81,-368.2 2356,-354 2492.97,-295.4 2642.38,-194.38 2693.59,-158.56"/>
<polygon fill="midnightblue" stroke="midnightblue" points="2251.16,-384.6 2242.33,-390.45 2252.88,-391.39 2251.16,-384.6"/>
</g>
<!-- Node14 -->
<g id="node14" class="node">
<title>Node14</title>
<g id="a_node14"><a xlink:href="../../da/d7d/_svc_serial_command_interface_8cpp.html" target="_top" xlink:title=" ">
<polygon fill="none" stroke="black" points="2865,-130.5 2865,-158.5 3259,-158.5 3259,-130.5 2865,-130.5"/>
<text text-anchor="middle" x="3062" y="-140.1" font-family="Helvetica,sans-Serif" font-size="18.00">ERISCore/src/SvcSerialCommandInterface.cpp</text>
</a>
</g>
</g>
<!-- Node1&#45;&gt;Node14 -->
<g id="edge40" class="edge">
<title>Node1&#45;&gt;Node14</title>
<path fill="none" stroke="midnightblue" d="M2256.74,-388.34C2299.15,-379.22 2353.31,-366.91 2401,-354 2640.85,-289.06 2923.85,-193.22 3024.32,-158.59"/>
<polygon fill="midnightblue" stroke="midnightblue" points="2255.82,-384.95 2246.78,-390.47 2257.29,-391.8 2255.82,-384.95"/>
</g>
<!-- Node22 -->
<g id="node22" class="node">
<title>Node22</title>
<g id="a_node22"><a xlink:href="../../d7/d5f/_svc_data_dictionary_8h.html" target="_top" xlink:title="Data Dictionary service provides an interface to a data dictionary service the service shall provide ...">
<polygon fill="none" stroke="black" points="2019.5,-325.5 2019.5,-353.5 2346.5,-353.5 2346.5,-325.5 2019.5,-325.5"/>
<text text-anchor="middle" x="2183" y="-335.1" font-family="Helvetica,sans-Serif" font-size="18.00">ERISCore/include/SvcDataDictionary.h</text>
</a>
</g>
</g>
<!-- Node1&#45;&gt;Node22 -->
<g id="edge37" class="edge">
<title>Node1&#45;&gt;Node22</title>
<path fill="none" stroke="midnightblue" d="M2183,-380.16C2183,-371.17 2183,-361.22 2183,-353.54"/>
<polygon fill="midnightblue" stroke="midnightblue" points="2179.5,-380.45 2183,-390.45 2186.5,-380.45 2179.5,-380.45"/>
</g>
<!-- Node3 -->
<g id="node3" class="node">
<title>Node3</title>
<g id="a_node3"><a xlink:href="../../df/d72/_app_manager_8h.html" target="_top" xlink:title=" ">
<polygon fill="none" stroke="black" points="1834,-195.5 1834,-223.5 2118,-223.5 2118,-195.5 1834,-195.5"/>
<text text-anchor="middle" x="1976" y="-205.1" font-family="Helvetica,sans-Serif" font-size="18.00">ERISCore/include/AppManager.h</text>
</a>
</g>
</g>
<!-- Node2&#45;&gt;Node3 -->
<g id="edge2" class="edge">
<title>Node2&#45;&gt;Node3</title>
<path fill="none" stroke="midnightblue" d="M1230.81,-323.92C1396.1,-298.76 1732.27,-247.6 1890.29,-223.55"/>
<polygon fill="midnightblue" stroke="midnightblue" points="1230.02,-320.5 1220.66,-325.46 1231.07,-327.42 1230.02,-320.5"/>
</g>
<!-- Node16 -->
<g id="node16" class="node">
<title>Node16</title>
<g id="a_node16"><a xlink:href="../../d9/d3e/_app_base_class_8h.html" target="_top" xlink:title=" ">
<polygon fill="none" stroke="black" points="985.5,-260.5 985.5,-288.5 1284.5,-288.5 1284.5,-260.5 985.5,-260.5"/>
<text text-anchor="middle" x="1135" y="-270.1" font-family="Helvetica,sans-Serif" font-size="18.00">ERISCore/include/AppBaseClass.h</text>
</a>
</g>
</g>
<!-- Node2&#45;&gt;Node16 -->
<g id="edge22" class="edge">
<title>Node2&#45;&gt;Node16</title>
<path fill="none" stroke="midnightblue" d="M1135,-315.16C1135,-306.17 1135,-296.22 1135,-288.54"/>
<polygon fill="midnightblue" stroke="midnightblue" points="1131.5,-315.45 1135,-325.45 1138.5,-315.45 1131.5,-315.45"/>
</g>
<!-- Node21 -->
<g id="node21" class="node">
<title>Node21</title>
<g id="a_node21"><a xlink:href="../../d1/d2c/_audio_director_8cpp.html" target="_top" xlink:title=" ">
<polygon fill="none" stroke="black" points="655,-260.5 655,-288.5 929,-288.5 929,-260.5 655,-260.5"/>
<text text-anchor="middle" x="792" y="-270.1" font-family="Helvetica,sans-Serif" font-size="18.00">ERISCore/src/AudioDirector.cpp</text>
</a>
</g>
</g>
<!-- Node2&#45;&gt;Node21 -->
<g id="edge35" class="edge">
<title>Node2&#45;&gt;Node21</title>
<path fill="none" stroke="midnightblue" d="M1054.06,-323.63C996.03,-312.98 918.6,-298.75 862.98,-288.54"/>
<polygon fill="midnightblue" stroke="midnightblue" points="1053.46,-327.08 1063.93,-325.45 1054.73,-320.2 1053.46,-327.08"/>
</g>
<!-- Node3&#45;&gt;Node1 -->
<g id="edge16" class="edge">
<title>Node3&#45;&gt;Node1</title>
<path fill="none" stroke="midnightblue" d="M1974.77,-233.64C1974.42,-265.1 1978.68,-321.21 2010,-354 2026.72,-371.51 2049.17,-382.95 2072.35,-390.4"/>
<polygon fill="midnightblue" stroke="midnightblue" points="1978.27,-233.71 1975.05,-223.61 1971.28,-233.51 1978.27,-233.71"/>
</g>
<!-- Node4 -->
<g id="node4" class="node">
<title>Node4</title>
<g id="a_node4"><a xlink:href="../../d7/d07/_app_scope_8h.html" target="_top" xlink:title=" ">
<polygon fill="none" stroke="black" points="1607,-130.5 1607,-158.5 1871,-158.5 1871,-130.5 1607,-130.5"/>
<text text-anchor="middle" x="1739" y="-140.1" font-family="Helvetica,sans-Serif" font-size="18.00">ERISCore/include/AppScope.h</text>
</a>
</g>
</g>
<!-- Node3&#45;&gt;Node4 -->
<g id="edge3" class="edge">
<title>Node3&#45;&gt;Node4</title>
<path fill="none" stroke="midnightblue" d="M1917.07,-192.83C1877.33,-182.27 1825.52,-168.5 1788.04,-158.54"/>
<polygon fill="midnightblue" stroke="midnightblue" points="1916.33,-196.26 1926.89,-195.45 1918.13,-189.49 1916.33,-196.26"/>
</g>
<!-- Node5 -->
<g id="node5" class="node">
<title>Node5</title>
<g id="a_node5"><a xlink:href="../../d9/db6/_app_audio_to_polyphonic_8h.html" target="_top" xlink:title="Application Example.">
<polygon fill="none" stroke="black" points="1705,-65.5 1705,-93.5 2073,-93.5 2073,-65.5 1705,-65.5"/>
<text text-anchor="middle" x="1889" y="-75.1" font-family="Helvetica,sans-Serif" font-size="18.00">ERISCore/include/AppAudioToPolyphonic.h</text>
</a>
</g>
</g>
<!-- Node3&#45;&gt;Node5 -->
<g id="edge20" class="edge">
<title>Node3&#45;&gt;Node5</title>
<path fill="none" stroke="midnightblue" d="M1947.79,-189.22C1937.3,-180.92 1926.01,-170.48 1918,-159 1903.7,-138.5 1895.53,-110.11 1891.7,-93.69"/>
<polygon fill="midnightblue" stroke="midnightblue" points="1945.87,-192.16 1955.95,-195.4 1950.09,-186.58 1945.87,-192.16"/>
</g>
<!-- Node7 -->
<g id="node7" class="node">
<title>Node7</title>
<g id="a_node7"><a xlink:href="../../d4/d0d/_app_template_8h.html" target="_top" xlink:title=" ">
<polygon fill="none" stroke="black" points="2091,-65.5 2091,-93.5 2379,-93.5 2379,-65.5 2091,-65.5"/>
<text text-anchor="middle" x="2235" y="-75.1" font-family="Helvetica,sans-Serif" font-size="18.00">ERISCore/include/AppTemplate.h</text>
</a>
</g>
</g>
<!-- Node3&#45;&gt;Node7 -->
<g id="edge6" class="edge">
<title>Node3&#45;&gt;Node7</title>
<path fill="none" stroke="midnightblue" d="M2128.31,-204.11C2271.6,-198.36 2467.75,-185.69 2492,-159 2500.67,-149.46 2500.21,-139.94 2492,-130 2481.64,-117.45 2402.4,-103.45 2334.61,-93.55"/>
<polygon fill="midnightblue" stroke="midnightblue" points="2127.94,-200.62 2118.08,-204.51 2128.21,-207.61 2127.94,-200.62"/>
</g>
<!-- Node8 -->
<g id="node8" class="node">
<title>Node8</title>
<g id="a_node8"><a xlink:href="../../d8/db0/_app_c_q_t_8h.html" target="_top" xlink:title=" ">
<polygon fill="none" stroke="black" points="1927.5,-130.5 1927.5,-158.5 2178.5,-158.5 2178.5,-130.5 1927.5,-130.5"/>
<text text-anchor="middle" x="2053" y="-140.1" font-family="Helvetica,sans-Serif" font-size="18.00">ERISCore/include/AppCQT.h</text>
</a>
</g>
</g>
<!-- Node3&#45;&gt;Node8 -->
<g id="edge8" class="edge">
<title>Node3&#45;&gt;Node8</title>
<path fill="none" stroke="midnightblue" d="M1999.89,-188.95C2011.98,-179.06 2026.33,-167.32 2037.07,-158.54"/>
<polygon fill="midnightblue" stroke="midnightblue" points="1997.48,-186.41 1991.95,-195.45 2001.91,-191.82 1997.48,-186.41"/>
</g>
<!-- Node9 -->
<g id="node9" class="node">
<title>Node9</title>
<g id="a_node9"><a xlink:href="../../d5/d98/_app_reprogram_8h.html" target="_top" xlink:title=" ">
<polygon fill="none" stroke="black" points="2397.5,-65.5 2397.5,-93.5 2700.5,-93.5 2700.5,-65.5 2397.5,-65.5"/>
<text text-anchor="middle" x="2549" y="-75.1" font-family="Helvetica,sans-Serif" font-size="18.00">ERISCore/include/AppReprogram.h</text>
</a>
</g>
</g>
<!-- Node3&#45;&gt;Node9 -->
<g id="edge10" class="edge">
<title>Node3&#45;&gt;Node9</title>
<path fill="none" stroke="midnightblue" d="M2128.13,-201.83C2274.47,-194.22 2477.99,-180.04 2509,-159 2531.53,-143.72 2542.07,-111.73 2546.4,-93.66"/>
<polygon fill="midnightblue" stroke="midnightblue" points="2127.95,-198.33 2118.14,-202.34 2128.31,-205.32 2127.95,-198.33"/>
</g>
<!-- Node10 -->
<g id="node10" class="node">
<title>Node10</title>
<g id="a_node10"><a xlink:href="../../db/d4d/_control_slider_8h.html" target="_top" xlink:title=" ">
<polygon fill="none" stroke="black" points="2197,-130.5 2197,-158.5 2483,-158.5 2483,-130.5 2197,-130.5"/>
<text text-anchor="middle" x="2340" y="-140.1" font-family="Helvetica,sans-Serif" font-size="18.00">ERISCore/include/ControlSlider.h</text>
</a>
</g>
</g>
<!-- Node3&#45;&gt;Node10 -->
<g id="edge12" class="edge">
<title>Node3&#45;&gt;Node10</title>
<path fill="none" stroke="midnightblue" d="M2061.51,-193.7C2123.14,-183.03 2205.52,-168.77 2264.68,-158.54"/>
<polygon fill="midnightblue" stroke="midnightblue" points="2060.68,-190.29 2051.42,-195.45 2061.87,-197.19 2060.68,-190.29"/>
</g>
<!-- Node11 -->
<g id="node11" class="node">
<title>Node11</title>
<g id="a_node11"><a xlink:href="../../d7/d4f/_control_button_8h.html" target="_top" xlink:title=" ">
<polygon fill="none" stroke="black" points="1295.5,-130.5 1295.5,-158.5 1588.5,-158.5 1588.5,-130.5 1295.5,-130.5"/>
<text text-anchor="middle" x="1442" y="-140.1" font-family="Helvetica,sans-Serif" font-size="18.00">ERISCore/include/ControlButton.h</text>
</a>
</g>
</g>
<!-- Node3&#45;&gt;Node11 -->
<g id="edge14" class="edge">
<title>Node3&#45;&gt;Node11</title>
<path fill="none" stroke="midnightblue" d="M1855.6,-194.3C1764.73,-183.58 1641.03,-168.98 1552.64,-158.55"/>
<polygon fill="midnightblue" stroke="midnightblue" points="1855.34,-197.79 1865.68,-195.48 1856.16,-190.84 1855.34,-197.79"/>
</g>
<!-- Node3&#45;&gt;Node12 -->
<g id="edge17" class="edge">
<title>Node3&#45;&gt;Node12</title>
<path fill="none" stroke="midnightblue" d="M2128.29,-195.92C2246.8,-186.07 2415.37,-171.91 2563,-159 2567.66,-158.59 2572.4,-158.18 2577.18,-157.75"/>
<polygon fill="midnightblue" stroke="midnightblue" points="2127.74,-192.45 2118.06,-196.77 2128.32,-199.43 2127.74,-192.45"/>
</g>
<!-- Node13 -->
<g id="node13" class="node">
<title>Node13</title>
<g id="a_node13"><a xlink:href="../../d4/db1/_app_base_class_8cpp.html" target="_top" xlink:title=" ">
<polygon fill="none" stroke="black" points="993,-130.5 993,-158.5 1277,-158.5 1277,-130.5 993,-130.5"/>
<text text-anchor="middle" x="1135" y="-140.1" font-family="Helvetica,sans-Serif" font-size="18.00">ERISCore/src/AppBaseClass.cpp</text>
</a>
</g>
</g>
<!-- Node3&#45;&gt;Node13 -->
<g id="edge18" class="edge">
<title>Node3&#45;&gt;Node13</title>
<path fill="none" stroke="midnightblue" d="M1823.52,-198.33C1683.67,-188.82 1470.82,-173.89 1286,-159 1283.11,-158.77 1280.2,-158.53 1277.26,-158.29"/>
<polygon fill="midnightblue" stroke="midnightblue" points="1823.67,-201.85 1833.88,-199.04 1824.15,-194.87 1823.67,-201.85"/>
</g>
<!-- Node3&#45;&gt;Node14 -->
<g id="edge19" class="edge">
<title>Node3&#45;&gt;Node14</title>
<path fill="none" stroke="midnightblue" d="M2128.23,-200.37C2303.7,-190.89 2600.73,-174.54 2856,-159 2858.95,-158.82 2861.93,-158.64 2864.92,-158.45"/>
<polygon fill="midnightblue" stroke="midnightblue" points="2127.95,-196.88 2118.15,-200.91 2128.32,-203.87 2127.95,-196.88"/>
</g>
<!-- Node15 -->
<g id="node15" class="node">
<title>Node15</title>
<g id="a_node15"><a xlink:href="../../d7/d7e/_app_wren_8cpp.html" target="_top" xlink:title=" ">
<polygon fill="none" stroke="black" points="733,-130.5 733,-158.5 975,-158.5 975,-130.5 733,-130.5"/>
<text text-anchor="middle" x="854" y="-140.1" font-family="Helvetica,sans-Serif" font-size="18.00">ERISCore/src/AppWren.cpp</text>
</a>
</g>
</g>
<!-- Node3&#45;&gt;Node15 -->
<g id="edge21" class="edge">
<title>Node3&#45;&gt;Node15</title>
<path fill="none" stroke="midnightblue" d="M1823.73,-203.44C1628.88,-196.38 1281,-181.81 984,-159 981.06,-158.77 978.08,-158.54 975.08,-158.29"/>
<polygon fill="midnightblue" stroke="midnightblue" points="1823.63,-206.94 1833.75,-203.8 1823.88,-199.94 1823.63,-206.94"/>
</g>
<!-- Node4&#45;&gt;Node5 -->
<g id="edge4" class="edge">
<title>Node4&#45;&gt;Node5</title>
<path fill="none" stroke="midnightblue" d="M1779.54,-126.48C1804.21,-116.11 1835.24,-103.08 1857.96,-93.54"/>
<polygon fill="midnightblue" stroke="midnightblue" points="1777.94,-123.35 1770.08,-130.45 1780.66,-129.8 1777.94,-123.35"/>
</g>
<!-- Node5&#45;&gt;Node6 -->
<g id="edge5" class="edge">
<title>Node5&#45;&gt;Node6</title>
<path fill="none" stroke="midnightblue" d="M1889,-55.16C1889,-46.17 1889,-36.22 1889,-28.54"/>
<polygon fill="midnightblue" stroke="midnightblue" points="1885.5,-55.45 1889,-65.45 1892.5,-55.45 1885.5,-55.45"/>
</g>
<!-- Node7&#45;&gt;Node6 -->
<g id="edge7" class="edge">
<title>Node7&#45;&gt;Node6</title>
<path fill="none" stroke="midnightblue" d="M2153.35,-63.63C2094.82,-52.98 2016.71,-38.75 1960.6,-28.54"/>
<polygon fill="midnightblue" stroke="midnightblue" points="2152.84,-67.1 2163.31,-65.45 2154.1,-60.21 2152.84,-67.1"/>
</g>
<!-- Node8&#45;&gt;Node5 -->
<g id="edge9" class="edge">
<title>Node8&#45;&gt;Node5</title>
<path fill="none" stroke="midnightblue" d="M2009.4,-126.75C1982.31,-116.34 1947.99,-103.16 1922.94,-93.54"/>
<polygon fill="midnightblue" stroke="midnightblue" points="2008.43,-130.13 2019.02,-130.45 2010.94,-123.59 2008.43,-130.13"/>
</g>
<!-- Node9&#45;&gt;Node6 -->
<g id="edge11" class="edge">
<title>Node9&#45;&gt;Node6</title>
<path fill="none" stroke="midnightblue" d="M2402.35,-64.5C2283.18,-53.13 2117.28,-37.29 2006.67,-26.73"/>
<polygon fill="midnightblue" stroke="midnightblue" points="2402.36,-68.02 2412.65,-65.48 2403.03,-61.05 2402.36,-68.02"/>
</g>
<!-- Node10&#45;&gt;Node5 -->
<g id="edge13" class="edge">
<title>Node10&#45;&gt;Node5</title>
<path fill="none" stroke="midnightblue" d="M2236.68,-129.07C2160.09,-118.37 2056.57,-103.91 1982.44,-93.55"/>
<polygon fill="midnightblue" stroke="midnightblue" points="2236.44,-132.57 2246.83,-130.48 2237.41,-125.63 2236.44,-132.57"/>
</g>
<!-- Node11&#45;&gt;Node5 -->
<g id="edge15" class="edge">
<title>Node11&#45;&gt;Node5</title>
<path fill="none" stroke="midnightblue" d="M1544.41,-129.07C1620.31,-118.37 1722.92,-103.91 1796.39,-93.55"/>
<polygon fill="midnightblue" stroke="midnightblue" points="1543.76,-125.62 1534.35,-130.48 1544.74,-132.55 1543.76,-125.62"/>
</g>
<!-- Node16&#45;&gt;Node1 -->
<g id="edge24" class="edge">
<title>Node16&#45;&gt;Node1</title>
<path fill="none" stroke="midnightblue" d="M1252.01,-289.79C1457.14,-314.85 1878.61,-366.32 2076.26,-390.46"/>
<polygon fill="midnightblue" stroke="midnightblue" points="1252.16,-286.28 1241.81,-288.55 1251.31,-293.23 1252.16,-286.28"/>
</g>
<!-- Node16&#45;&gt;Node3 -->
<g id="edge23" class="edge">
<title>Node16&#45;&gt;Node3</title>
<path fill="none" stroke="midnightblue" d="M1295,-261.51C1450.55,-249.86 1684.58,-232.33 1833.78,-221.15"/>
<polygon fill="midnightblue" stroke="midnightblue" points="1294.58,-258.04 1284.87,-262.27 1295.1,-265.02 1294.58,-258.04"/>
</g>
<!-- Node16&#45;&gt;Node13 -->
<g id="edge34" class="edge">
<title>Node16&#45;&gt;Node13</title>
<path fill="none" stroke="midnightblue" d="M1135,-250.25C1135,-223.5 1135,-180.47 1135,-158.84"/>
<polygon fill="midnightblue" stroke="midnightblue" points="1131.5,-250.28 1135,-260.28 1138.5,-250.28 1131.5,-250.28"/>
</g>
<!-- Node17 -->
<g id="node17" class="node">
<title>Node17</title>
<g id="a_node17"><a xlink:href="../../d2/d14/_app_a_if_e_s_8h.html" target="_top" xlink:title=" ">
<polygon fill="none" stroke="black" points="490,-65.5 490,-93.5 748,-93.5 748,-65.5 490,-65.5"/>
<text text-anchor="middle" x="619" y="-75.1" font-family="Helvetica,sans-Serif" font-size="18.00">ERISCore/include/AppAIfES.h</text>
</a>
</g>
</g>
<!-- Node16&#45;&gt;Node17 -->
<g id="edge25" class="edge">
<title>Node16&#45;&gt;Node17</title>
<path fill="none" stroke="midnightblue" d="M992,-259.46C875.37,-247.55 727.97,-231.29 716,-224 664.63,-192.72 634.32,-122.73 623.52,-93.61"/>
<polygon fill="midnightblue" stroke="midnightblue" points="991.81,-262.96 1002.11,-260.49 992.52,-255.99 991.81,-262.96"/>
</g>
<!-- Node18 -->
<g id="node18" class="node">
<title>Node18</title>
<g id="a_node18"><a xlink:href="../../d6/d59/_svc_eris_audio_parameter_controller_8h.html" target="_top" xlink:title=" ">
<polygon fill="none" stroke="black" points="189.5,-195.5 189.5,-223.5 638.5,-223.5 638.5,-195.5 189.5,-195.5"/>
<text text-anchor="middle" x="414" y="-205.1" font-family="Helvetica,sans-Serif" font-size="18.00">ERISCore/include/SvcErisAudioParameterController.h</text>
</a>
</g>
</g>
<!-- Node16&#45;&gt;Node18 -->
<g id="edge27" class="edge">
<title>Node16&#45;&gt;Node18</title>
<path fill="none" stroke="midnightblue" d="M975.78,-259.59C852.69,-248.83 683.53,-234.05 563.07,-223.53"/>
<polygon fill="midnightblue" stroke="midnightblue" points="975.78,-263.1 986.05,-260.48 976.39,-256.13 975.78,-263.1"/>
</g>
<!-- Node20 -->
<g id="node20" class="node">
<title>Node20</title>
<g id="a_node20"><a xlink:href="../../d5/d58/_app_wren_8h.html" target="_top" xlink:title=" ">
<polygon fill="none" stroke="black" points="725.5,-195.5 725.5,-223.5 982.5,-223.5 982.5,-195.5 725.5,-195.5"/>
<text text-anchor="middle" x="854" y="-205.1" font-family="Helvetica,sans-Serif" font-size="18.00">ERISCore/include/AppWren.h</text>
</a>
</g>
</g>
<!-- Node16&#45;&gt;Node20 -->
<g id="edge31" class="edge">
<title>Node16&#45;&gt;Node20</title>
<path fill="none" stroke="midnightblue" d="M1066.92,-258.24C1019.58,-247.62 957.15,-233.63 912.15,-223.54"/>
<polygon fill="midnightblue" stroke="midnightblue" points="1066.25,-261.67 1076.78,-260.45 1067.78,-254.84 1066.25,-261.67"/>
</g>
<!-- Node17&#45;&gt;Node6 -->
<g id="edge26" class="edge">
<title>Node17&#45;&gt;Node6</title>
<path fill="none" stroke="midnightblue" d="M758.63,-65.24C759.76,-65.16 760.88,-65.08 762,-65 1129.81,-39.58 1566.1,-24.78 1771.26,-18.72"/>
<polygon fill="midnightblue" stroke="midnightblue" points="758.08,-61.77 748.37,-65.99 758.6,-68.75 758.08,-61.77"/>
</g>
<!-- Node18&#45;&gt;Node2 -->
<g id="edge28" class="edge">
<title>Node18&#45;&gt;Node2</title>
<path fill="none" stroke="midnightblue" d="M616.41,-224.26C750.8,-234.32 907.88,-248.21 938,-260 957.78,-267.74 957.12,-279.25 976,-289 1007.47,-305.25 1045.22,-317.29 1076.05,-325.42"/>
<polygon fill="midnightblue" stroke="midnightblue" points="616.59,-220.77 606.36,-223.51 616.07,-227.75 616.59,-220.77"/>
</g>
<!-- Node18&#45;&gt;Node6 -->
<g id="edge30" class="edge">
<title>Node18&#45;&gt;Node6</title>
<path fill="none" stroke="midnightblue" d="M427.65,-186.77C432.75,-178.26 438.42,-168.32 443,-159 462.89,-118.56 444.09,-90.85 481,-65 533.45,-28.27 1442.47,-18.51 1771.41,-16.17"/>
<polygon fill="midnightblue" stroke="midnightblue" points="424.64,-184.99 422.42,-195.34 430.62,-188.63 424.64,-184.99"/>
</g>
<!-- Node19 -->
<g id="node19" class="node">
<title>Node19</title>
<g id="a_node19"><a xlink:href="../../d5/d06/_svc_eris_audio_parameter_controller_8cpp.html" target="_top" xlink:title=" ">
<polygon fill="none" stroke="black" points="0,-130.5 0,-158.5 434,-158.5 434,-130.5 0,-130.5"/>
<text text-anchor="middle" x="217" y="-140.1" font-family="Helvetica,sans-Serif" font-size="18.00">ERISCore/src/SvcErisAudioParameterController.cpp</text>
</a>
</g>
</g>
<!-- Node18&#45;&gt;Node19 -->
<g id="edge29" class="edge">
<title>Node18&#45;&gt;Node19</title>
<path fill="none" stroke="midnightblue" d="M363.33,-192.29C330.53,-181.81 288.39,-168.33 257.77,-158.54"/>
<polygon fill="midnightblue" stroke="midnightblue" points="362.59,-195.73 373.18,-195.45 364.72,-189.07 362.59,-195.73"/>
</g>
<!-- Node20&#45;&gt;Node6 -->
<g id="edge33" class="edge">
<title>Node20&#45;&gt;Node6</title>
<path fill="none" stroke="midnightblue" d="M786.15,-192.62C742.6,-179.34 698.57,-158.06 724,-130 793.49,-53.35 1489.5,-26.19 1771.39,-18.29"/>
<polygon fill="midnightblue" stroke="midnightblue" points="785.41,-196.05 795.99,-195.5 787.38,-189.33 785.41,-196.05"/>
</g>
<!-- Node20&#45;&gt;Node15 -->
<g id="edge32" class="edge">
<title>Node20&#45;&gt;Node15</title>
<path fill="none" stroke="midnightblue" d="M854,-185.16C854,-176.17 854,-166.22 854,-158.54"/>
<polygon fill="midnightblue" stroke="midnightblue" points="850.5,-185.45 854,-195.45 857.5,-185.45 850.5,-185.45"/>
</g>
<!-- Node22&#45;&gt;Node3 -->
<g id="edge38" class="edge">
<title>Node22&#45;&gt;Node3</title>
<path fill="none" stroke="midnightblue" d="M2104.53,-322.6C2080.07,-315.12 2054.02,-304.35 2033,-289 2009.06,-271.52 1991.1,-240.97 1982.21,-223.59"/>
<polygon fill="midnightblue" stroke="midnightblue" points="2103.59,-325.97 2114.17,-325.41 2105.55,-319.25 2103.59,-325.97"/>
</g>
<!-- Node23 -->
<g id="node23" class="node">
<title>Node23</title>
<g id="a_node23"><a xlink:href="../../dc/dc4/_svc_data_dictionary_8cpp.html" target="_top" xlink:title="Data Dictionary service provides an interface to a data dictionary service the service shall provide ...">
<polygon fill="none" stroke="black" points="2042,-260.5 2042,-288.5 2354,-288.5 2354,-260.5 2042,-260.5"/>
<text text-anchor="middle" x="2198" y="-270.1" font-family="Helvetica,sans-Serif" font-size="18.00">ERISCore/src/SvcDataDictionary.cpp</text>
</a>
</g>
</g>
<!-- Node22&#45;&gt;Node23 -->
<g id="edge39" class="edge">
<title>Node22&#45;&gt;Node23</title>
<path fill="none" stroke="midnightblue" d="M2188.49,-315.46C2190.65,-306.39 2193.05,-296.3 2194.9,-288.54"/>
<polygon fill="midnightblue" stroke="midnightblue" points="2185.02,-314.91 2186.11,-325.45 2191.83,-316.53 2185.02,-314.91"/>
</g>
</g>
</svg>
        <g id="navigator" transform="translate(0 0)" fill="#404254">
                <rect fill="#f2f5e9" fill-opacity="0.5" stroke="#606060" stroke-width=".5" x="0" y="0" width="60" height="60"/>
                <use id="zoomplus" xlink:href="#zoomPlus" x="17" y="9" onmousedown="handleZoom(evt,'in')"/>
                <use id="zoomminus" xlink:href="#zoomMin" x="42" y="9" onmousedown="handleZoom(evt,'out')"/>
                <use id="reset" xlink:href="#resetDef" x="30" y="36" onmousedown="handleReset()"/>
                <g id="arrowUp" xlink:href="#dirArrow" transform="translate(30 24)" onmousedown="handlePan(0,-1)">
                  <use xlink:href="#rim" fill="#404040">
                        <set attributeName="fill" to="#808080" begin="arrowUp.mouseover" end="arrowUp.mouseout"/>
                  </use>
                  <path fill="none" stroke="white" stroke-width="1.5" d="M0,-3.0v7 M-2.5,-0.5L0,-3.0L2.5,-0.5"/>
                </g>
                <g id="arrowRight" xlink:href="#dirArrow" transform="rotate(90) translate(36 -43)" onmousedown="handlePan(1,0)">
                  <use xlink:href="#rim" fill="#404040">
                        <set attributeName="fill" to="#808080" begin="arrowRight.mouseover" end="arrowRight.mouseout"/>
                  </use>
                  <path fill="none" stroke="white" stroke-width="1.5" d="M0,-3.0v7 M-2.5,-0.5L0,-3.0L2.5,-0.5"/>
                </g>
                <g id="arrowDown" xlink:href="#dirArrow" transform="rotate(180) translate(-30 -48)" onmousedown="handlePan(0,1)">
                  <use xlink:href="#rim" fill="#404040">
                        <set attributeName="fill" to="#808080" begin="arrowDown.mouseover" end="arrowDown.mouseout"/>
                  </use>
                  <path fill="none" stroke="white" stroke-width="1.5" d="M0,-3.0v7 M-2.5,-0.5L0,-3.0L2.5,-0.5"/>
                </g>
                <g id="arrowLeft" xlink:href="#dirArrow" transform="rotate(270) translate(-36 17)" onmousedown="handlePan(-1,0)">
                  <use xlink:href="#rim" fill="#404040">
                        <set attributeName="fill" to="#808080" begin="arrowLeft.mouseover" end="arrowLeft.mouseout"/>
                  </use>
                  <path fill="none" stroke="white" stroke-width="1.5" d="M0,-3.0v7 M-2.5,-0.5L0,-3.0L2.5,-0.5"/>
                </g>
        </g>
        <svg viewBox="0 0 15 15" width="100%" height="30px" preserveAspectRatio="xMaxYMin meet">
         <g id="arrow_out" transform="scale(0.3 0.3)">
          <a xlink:href="_svc_serial_command_interface_8h__dep__incl_org.svg" target="_base">
           <rect id="button" ry="5" rx="5" y="6" x="6" height="38" width="38"
                fill="#f2f5e9" fill-opacity="0.5" stroke="#606060" stroke-width="1.0"/>
           <path id="arrow"
             d="M 11.500037,31.436501 C 11.940474,20.09759 22.043105,11.32322 32.158766,21.979434 L 37.068811,17.246167 C 37.068811,17.246167 37.088388,32 37.088388,32 L 22.160133,31.978069 C 22.160133,31.978069 26.997745,27.140456 26.997745,27.140456 C 18.528582,18.264221 13.291696,25.230495 11.500037,31.436501 z"
             style="fill:#404040;"/>
          </a>
         </g>
        </svg>
</svg>
