<?xml version="1.0" encoding="UTF-8" standalone="no"?>
<!DOCTYPE svg PUBLIC "-//W3C//DTD SVG 1.1//EN"
 "http://www.w3.org/Graphics/SVG/1.1/DTD/svg11.dtd">
<!-- Generated by graphviz version 2.47.3 (20210619.1520)
 -->
<!-- Title: FsBaseFile::available Pages: 1 -->
<svg width="551pt" height="104pt"
 viewBox="0.00 0.00 551.00 104.00" xmlns="http://www.w3.org/2000/svg" xmlns:xlink="http://www.w3.org/1999/xlink">
<g id="graph0" class="graph" transform="scale(1 1) rotate(0) translate(4 100)">
<title>FsBaseFile::available</title>
<polygon fill="white" stroke="transparent" points="-4,4 -4,-100 547,-100 547,4 -4,4"/>
<!-- Node1 -->
<g id="node1" class="node">
<title>Node1</title>
<g id="a_node1"><a xlink:title=" ">
<polygon fill="#bfbfbf" stroke="black" points="0,-19.5 0,-38.5 109,-38.5 109,-19.5 0,-19.5"/>
<text text-anchor="middle" x="54.5" y="-26.5" font-family="Helvetica,sans-Serif" font-size="10.00">FsBaseFile::available</text>
</a>
</g>
</g>
<!-- Node2 -->
<g id="node2" class="node">
<title>Node2</title>
<g id="a_node2"><a xlink:href="../../d5/d14/class_ex_fat_file.html#a1eae02704b69e903ea174c5d0744debb" target="_top" xlink:title=" ">
<polygon fill="white" stroke="black" points="145,-38.5 145,-57.5 246,-57.5 246,-38.5 145,-38.5"/>
<text text-anchor="middle" x="195.5" y="-45.5" font-family="Helvetica,sans-Serif" font-size="10.00">ExFatFile::available</text>
</a>
</g>
</g>
<!-- Node1&#45;&gt;Node2 -->
<g id="edge1" class="edge">
<title>Node1&#45;&gt;Node2</title>
<path fill="none" stroke="midnightblue" d="M109.24,-36.35C117.7,-37.5 126.48,-38.7 135.06,-39.87"/>
<polygon fill="midnightblue" stroke="midnightblue" points="134.61,-43.35 145,-41.23 135.56,-36.41 134.61,-43.35"/>
</g>
<!-- Node7 -->
<g id="node7" class="node">
<title>Node7</title>
<g id="a_node7"><a xlink:href="../../d3/d51/class_fat_file.html#a4baea142c9cd53293a93ef3d6a67aa16" target="_top" xlink:title=" ">
<polygon fill="white" stroke="black" points="151,-0.5 151,-19.5 240,-19.5 240,-0.5 151,-0.5"/>
<text text-anchor="middle" x="195.5" y="-7.5" font-family="Helvetica,sans-Serif" font-size="10.00">FatFile::available</text>
</a>
</g>
</g>
<!-- Node1&#45;&gt;Node7 -->
<g id="edge6" class="edge">
<title>Node1&#45;&gt;Node7</title>
<path fill="none" stroke="midnightblue" d="M109.24,-21.65C119.55,-20.24 130.36,-18.77 140.67,-17.36"/>
<polygon fill="midnightblue" stroke="midnightblue" points="141.36,-20.8 150.79,-15.97 140.41,-13.86 141.36,-20.8"/>
</g>
<!-- Node3 -->
<g id="node3" class="node">
<title>Node3</title>
<g id="a_node3"><a xlink:href="../../d5/d14/class_ex_fat_file.html#adcf47e15b819fe2d6faac2a027ab30f5" target="_top" xlink:title=" ">
<polygon fill="white" stroke="black" points="282,-38.5 282,-57.5 394,-57.5 394,-38.5 282,-38.5"/>
<text text-anchor="middle" x="338" y="-45.5" font-family="Helvetica,sans-Serif" font-size="10.00">ExFatFile::available64</text>
</a>
</g>
</g>
<!-- Node2&#45;&gt;Node3 -->
<g id="edge2" class="edge">
<title>Node2&#45;&gt;Node3</title>
<path fill="none" stroke="midnightblue" d="M246.04,-48C254.33,-48 263.04,-48 271.65,-48"/>
<polygon fill="midnightblue" stroke="midnightblue" points="271.69,-51.5 281.69,-48 271.69,-44.5 271.69,-51.5"/>
</g>
<!-- Node4 -->
<g id="node4" class="node">
<title>Node4</title>
<g id="a_node4"><a xlink:href="../../d5/d14/class_ex_fat_file.html#ab49396aad3f6500aa19f75490dc26719" target="_top" xlink:title=" ">
<polygon fill="white" stroke="black" points="430,-76.5 430,-95.5 543,-95.5 543,-76.5 430,-76.5"/>
<text text-anchor="middle" x="486.5" y="-83.5" font-family="Helvetica,sans-Serif" font-size="10.00">ExFatFile::curPosition</text>
</a>
</g>
</g>
<!-- Node3&#45;&gt;Node4 -->
<g id="edge3" class="edge">
<title>Node3&#45;&gt;Node4</title>
<path fill="none" stroke="midnightblue" d="M375.97,-57.59C395.13,-62.56 418.71,-68.68 439.09,-73.96"/>
<polygon fill="midnightblue" stroke="midnightblue" points="438.24,-77.36 448.8,-76.48 440,-70.58 438.24,-77.36"/>
</g>
<!-- Node5 -->
<g id="node5" class="node">
<title>Node5</title>
<g id="a_node5"><a xlink:href="../../d5/d14/class_ex_fat_file.html#af2c08909b62b01f3edc4ee0c51ea7435" target="_top" xlink:title=" ">
<polygon fill="white" stroke="black" points="438.5,-38.5 438.5,-57.5 534.5,-57.5 534.5,-38.5 438.5,-38.5"/>
<text text-anchor="middle" x="486.5" y="-45.5" font-family="Helvetica,sans-Serif" font-size="10.00">ExFatFile::fileSize</text>
</a>
</g>
</g>
<!-- Node3&#45;&gt;Node5 -->
<g id="edge4" class="edge">
<title>Node3&#45;&gt;Node5</title>
<path fill="none" stroke="midnightblue" d="M394.39,-48C405.43,-48 417.05,-48 428.15,-48"/>
<polygon fill="midnightblue" stroke="midnightblue" points="428.18,-51.5 438.18,-48 428.18,-44.5 428.18,-51.5"/>
</g>
<!-- Node6 -->
<g id="node6" class="node">
<title>Node6</title>
<g id="a_node6"><a xlink:href="../../d5/d14/class_ex_fat_file.html#af601285f95db8398c140b3927cf9111c" target="_top" xlink:title=" ">
<polygon fill="white" stroke="black" points="442.5,-0.5 442.5,-19.5 530.5,-19.5 530.5,-0.5 442.5,-0.5"/>
<text text-anchor="middle" x="486.5" y="-7.5" font-family="Helvetica,sans-Serif" font-size="10.00">ExFatFile::isFile</text>
</a>
</g>
</g>
<!-- Node3&#45;&gt;Node6 -->
<g id="edge5" class="edge">
<title>Node3&#45;&gt;Node6</title>
<path fill="none" stroke="midnightblue" d="M375.97,-38.41C395.13,-33.44 418.71,-27.32 439.09,-22.04"/>
<polygon fill="midnightblue" stroke="midnightblue" points="440,-25.42 448.8,-19.52 438.24,-18.64 440,-25.42"/>
</g>
</g>
</svg>
