<?xml version="1.0" encoding="UTF-8" standalone="no"?>
<!DOCTYPE svg PUBLIC "-//W3C//DTD SVG 1.1//EN"
 "http://www.w3.org/Graphics/SVG/1.1/DTD/svg11.dtd">
<!-- Generated by graphviz version 2.47.3 (20210619.1520)
 -->
<!-- Title: BufferedPrint::printField Pages: 1 -->
<svg width="626pt" height="50pt"
 viewBox="0.00 0.00 626.00 50.00" xmlns="http://www.w3.org/2000/svg" xmlns:xlink="http://www.w3.org/1999/xlink">
<g id="graph0" class="graph" transform="scale(1 1) rotate(0) translate(4 46)">
<title>BufferedPrint::printField</title>
<polygon fill="white" stroke="transparent" points="-4,4 -4,-46 622,-46 622,4 -4,4"/>
<!-- Node1 -->
<g id="node1" class="node">
<title>Node1</title>
<g id="a_node1"><a xlink:title=" ">
<polygon fill="#bfbfbf" stroke="black" points="0,-0.5 0,-21.5 140,-21.5 140,-0.5 0,-0.5"/>
<text text-anchor="middle" x="70" y="-7.9" font-family="Helvetica,sans-Serif" font-size="12.00">BufferedPrint::printField</text>
</a>
</g>
</g>
<!-- Node2 -->
<g id="node2" class="node">
<title>Node2</title>
<g id="a_node2"><a xlink:href="../../de/de1/class_buffered_print.html#a69ea9541fb854448b9fe3aff44583975" target="_top" xlink:title=" ">
<polygon fill="white" stroke="black" points="176,-20.5 176,-41.5 316,-41.5 316,-20.5 176,-20.5"/>
<text text-anchor="middle" x="246" y="-27.9" font-family="Helvetica,sans-Serif" font-size="12.00">BufferedPrint::printField</text>
</a>
</g>
</g>
<!-- Node1&#45;&gt;Node2 -->
<g id="edge1" class="edge">
<title>Node1&#45;&gt;Node2</title>
<path fill="none" stroke="midnightblue" d="M140.02,-18.93C148.48,-19.91 157.17,-20.9 165.76,-21.89"/>
<polygon fill="midnightblue" stroke="midnightblue" points="165.45,-25.38 175.78,-23.04 166.24,-18.42 165.45,-25.38"/>
</g>
<!-- Node3 -->
<g id="node3" class="node">
<title>Node3</title>
<g id="a_node3"><a xlink:href="../../de/de1/class_buffered_print.html#ab41de6eca77a04a49a6fc965b1950fc5" target="_top" xlink:title=" ">
<polygon fill="white" stroke="black" points="352,-0.5 352,-21.5 468,-21.5 468,-0.5 352,-0.5"/>
<text text-anchor="middle" x="410" y="-7.9" font-family="Helvetica,sans-Serif" font-size="12.00">BufferedPrint::write</text>
</a>
</g>
</g>
<!-- Node1&#45;&gt;Node3 -->
<g id="edge4" class="edge">
<title>Node1&#45;&gt;Node3</title>
<path fill="none" stroke="midnightblue" d="M140.21,-11C199.16,-11 283.33,-11 341.71,-11"/>
<polygon fill="midnightblue" stroke="midnightblue" points="341.94,-14.5 351.94,-11 341.94,-7.5 341.94,-14.5"/>
</g>
<!-- Node2&#45;&gt;Node3 -->
<g id="edge2" class="edge">
<title>Node2&#45;&gt;Node3</title>
<path fill="none" stroke="midnightblue" d="M316.17,-22.46C324.61,-21.42 333.22,-20.36 341.63,-19.32"/>
<polygon fill="midnightblue" stroke="midnightblue" points="342.27,-22.76 351.77,-18.07 341.41,-15.82 342.27,-22.76"/>
</g>
<!-- Node4 -->
<g id="node4" class="node">
<title>Node4</title>
<g id="a_node4"><a xlink:href="../../de/de1/class_buffered_print.html#a2253d1e7f231b94b18eab1281c123a49" target="_top" xlink:title=" ">
<polygon fill="white" stroke="black" points="504,-0.5 504,-21.5 618,-21.5 618,-0.5 504,-0.5"/>
<text text-anchor="middle" x="561" y="-7.9" font-family="Helvetica,sans-Serif" font-size="12.00">BufferedPrint::sync</text>
</a>
</g>
</g>
<!-- Node3&#45;&gt;Node4 -->
<g id="edge3" class="edge">
<title>Node3&#45;&gt;Node4</title>
<path fill="none" stroke="midnightblue" d="M468.18,-11C476.47,-11 485.05,-11 493.5,-11"/>
<polygon fill="midnightblue" stroke="midnightblue" points="493.71,-14.5 503.71,-11 493.71,-7.5 493.71,-14.5"/>
</g>
</g>
</svg>
