<?xml version="1.0" encoding="UTF-8" standalone="no"?>
<!DOCTYPE svg PUBLIC "-//W3C//DTD SVG 1.1//EN"
 "http://www.w3.org/Graphics/SVG/1.1/DTD/svg11.dtd">
<!-- Generated by graphviz version 2.47.3 (20210619.1520)
 -->
<!-- Title: BufferedPrint::printField Pages: 1 -->
<svg width="450pt" height="30pt"
 viewBox="0.00 0.00 450.00 30.00" xmlns="http://www.w3.org/2000/svg" xmlns:xlink="http://www.w3.org/1999/xlink">
<g id="graph0" class="graph" transform="scale(1 1) rotate(0) translate(4 26)">
<title>BufferedPrint::printField</title>
<polygon fill="white" stroke="transparent" points="-4,4 -4,-26 446,-26 446,4 -4,4"/>
<!-- Node1 -->
<g id="node1" class="node">
<title>Node1</title>
<g id="a_node1"><a xlink:title=" ">
<polygon fill="#bfbfbf" stroke="black" points="0,-0.5 0,-21.5 140,-21.5 140,-0.5 0,-0.5"/>
<text text-anchor="middle" x="70" y="-7.9" font-family="Helvetica,sans-Serif" font-size="12.00">BufferedPrint::printField</text>
</a>
</g>
</g>
<!-- Node2 -->
<g id="node2" class="node">
<title>Node2</title>
<g id="a_node2"><a xlink:href="../../de/de1/class_buffered_print.html#ab41de6eca77a04a49a6fc965b1950fc5" target="_top" xlink:title=" ">
<polygon fill="white" stroke="black" points="176,-0.5 176,-21.5 292,-21.5 292,-0.5 176,-0.5"/>
<text text-anchor="middle" x="234" y="-7.9" font-family="Helvetica,sans-Serif" font-size="12.00">BufferedPrint::write</text>
</a>
</g>
</g>
<!-- Node1&#45;&gt;Node2 -->
<g id="edge1" class="edge">
<title>Node1&#45;&gt;Node2</title>
<path fill="none" stroke="midnightblue" d="M140.17,-11C148.61,-11 157.22,-11 165.63,-11"/>
<polygon fill="midnightblue" stroke="midnightblue" points="165.77,-14.5 175.77,-11 165.77,-7.5 165.77,-14.5"/>
</g>
<!-- Node3 -->
<g id="node3" class="node">
<title>Node3</title>
<g id="a_node3"><a xlink:href="../../de/de1/class_buffered_print.html#a2253d1e7f231b94b18eab1281c123a49" target="_top" xlink:title=" ">
<polygon fill="white" stroke="black" points="328,-0.5 328,-21.5 442,-21.5 442,-0.5 328,-0.5"/>
<text text-anchor="middle" x="385" y="-7.9" font-family="Helvetica,sans-Serif" font-size="12.00">BufferedPrint::sync</text>
</a>
</g>
</g>
<!-- Node2&#45;&gt;Node3 -->
<g id="edge2" class="edge">
<title>Node2&#45;&gt;Node3</title>
<path fill="none" stroke="midnightblue" d="M292.18,-11C300.47,-11 309.05,-11 317.5,-11"/>
<polygon fill="midnightblue" stroke="midnightblue" points="317.71,-14.5 327.71,-11 317.71,-7.5 317.71,-14.5"/>
</g>
</g>
</svg>
