<?xml version="1.0" encoding="UTF-8" standalone="no"?>
<!DOCTYPE svg PUBLIC "-//W3C//DTD SVG 1.1//EN"
 "http://www.w3.org/Graphics/SVG/1.1/DTD/svg11.dtd">
<!-- Generated by graphviz version 2.47.3 (20210619.1520)
 -->
<!-- Title: SvcSerialCommandInterface::requestStartLZ4Message Pages: 1 -->
<!--zoomable 217 -->
<svg id="main" version="1.1" xmlns="http://www.w3.org/2000/svg" xmlns:xlink="http://www.w3.org/1999/xlink" xml:space="preserve" onload="init(evt)">
<style type="text/css"><![CDATA[
.edge:hover path { stroke: red; }
.edge:hover polygon { stroke: red; fill: red; }
]]></style>
<script type="text/javascript"><![CDATA[
var edges = document.getElementsByTagName('g');
if (edges && edges.length) {
  for (var i=0;i<edges.length;i++) {
    if (edges[i].id.substr(0,4)=='edge') {
      edges[i].setAttribute('class','edge');
    }
  }
}
]]></script>
        <defs>
                <circle id="rim" cx="0" cy="0" r="7"/>
                <circle id="rim2" cx="0" cy="0" r="3.5"/>
                <g id="zoomPlus">
                        <use xlink:href="#rim" fill="#404040">
                                <set attributeName="fill" to="#808080" begin="zoomplus.mouseover" end="zoomplus.mouseout"/>
                        </use>
                        <path d="M-4,0h8M0,-4v8" fill="none" stroke="white" stroke-width="1.5" pointer-events="none"/>
                </g>
                <g id="zoomMin">
                        <use xlink:href="#rim" fill="#404040">
                                <set attributeName="fill" to="#808080" begin="zoomminus.mouseover" end="zoomminus.mouseout"/>
                        </use>
                        <path d="M-4,0h8" fill="none" stroke="white" stroke-width="1.5" pointer-events="none"/>
                </g>
                <g id="dirArrow">
                        <path fill="none" stroke="white" stroke-width="1.5" d="M0,-3.0v7 M-2.5,-0.5L0,-3.0L2.5,-0.5"/>
                </g>
               <g id="resetDef">
                       <use xlink:href="#rim2" fill="#404040">
                               <set attributeName="fill" to="#808080" begin="reset.mouseover" end="reset.mouseout"/>
                       </use>
               </g>
        </defs>

<script type="text/javascript">
var viewWidth = 1081;
var viewHeight = 217;
var sectionId = 'dynsection-1';
</script>
<script xlink:href="../../svgpan.js"/>
<svg id="graph" class="graph">
<g id="viewport">
<title>SvcSerialCommandInterface::requestStartLZ4Message</title>
<!-- Node1 -->
<g id="node1" class="node">
<title>Node1</title>
<g id="a_node1"><a xlink:title=" ">
<polygon fill="#bfbfbf" stroke="black" points="616,-90.5 616,-118.5 1073,-118.5 1073,-90.5 616,-90.5"/>
<text text-anchor="middle" x="844.5" y="-100.1" font-family="Helvetica,sans-Serif" font-size="18.00">SvcSerialCommandInterface::requestStartLZ4Message</text>
</a>
</g>
</g>
<!-- Node2 -->
<g id="node2" class="node">
<title>Node2</title>
<g id="a_node2"><a xlink:href="../../d4/dde/class_app_c_q_t_a5c33a48120697387e5435ae9d80aeb7c.html#a5c33a48120697387e5435ae9d80aeb7c" target="_top" xlink:title=" ">
<polygon fill="none" stroke="black" points="347,-180.5 347,-208.5 580,-208.5 580,-180.5 347,-180.5"/>
<text text-anchor="middle" x="463.5" y="-190.1" font-family="Helvetica,sans-Serif" font-size="18.00">AppCQT::messageHandler</text>
</a>
</g>
</g>
<!-- Node1&#45;&gt;Node2 -->
<g id="edge1" class="edge">
<title>Node1&#45;&gt;Node2</title>
<path fill="none" stroke="midnightblue" d="M781.73,-121.18C728.47,-135.33 649.41,-155.78 580,-171.5 566.44,-174.57 551.94,-177.63 537.94,-180.48"/>
<polygon fill="midnightblue" stroke="midnightblue" points="782.93,-124.48 791.7,-118.53 781.13,-117.72 782.93,-124.48"/>
</g>
<!-- Node3 -->
<g id="node3" class="node">
<title>Node3</title>
<g id="a_node3"><a xlink:href="../../da/d96/class_app_manager_a648bf66164619cfcc0f0b41e7b3a022f.html#a648bf66164619cfcc0f0b41e7b3a022f" target="_top" xlink:title="prints out some stats in JSON format to the serial port">
<polygon fill="none" stroke="black" points="360,-133.5 360,-161.5 567,-161.5 567,-133.5 360,-133.5"/>
<text text-anchor="middle" x="463.5" y="-143.1" font-family="Helvetica,sans-Serif" font-size="18.00">AppManager::printStats</text>
</a>
</g>
</g>
<!-- Node1&#45;&gt;Node3 -->
<g id="edge2" class="edge">
<title>Node1&#45;&gt;Node3</title>
<path fill="none" stroke="midnightblue" d="M709.98,-119.65C663.02,-124.98 611.01,-130.88 567,-135.87"/>
<polygon fill="midnightblue" stroke="midnightblue" points="710.38,-123.13 719.93,-118.52 709.59,-116.17 710.38,-123.13"/>
</g>
<!-- Node4 -->
<g id="node4" class="node">
<title>Node4</title>
<g id="a_node4"><a xlink:href="../../d2/da8/class_svc_serial_command_interface_af993c07bcbc2bdb566c5660eeb31f1ca.html#af993c07bcbc2bdb566c5660eeb31f1ca" target="_top" xlink:title=" ">
<polygon fill="none" stroke="black" points="0,-90.5 0,-118.5 311,-118.5 311,-90.5 0,-90.5"/>
<text text-anchor="middle" x="155.5" y="-100.1" font-family="Helvetica,sans-Serif" font-size="18.00">SvcSerialCommandInterface::update</text>
</a>
</g>
</g>
<!-- Node1&#45;&gt;Node4 -->
<g id="edge7" class="edge">
<title>Node1&#45;&gt;Node4</title>
<path fill="none" stroke="midnightblue" d="M605.69,-104.5C508.11,-104.5 397.92,-104.5 311.1,-104.5"/>
<polygon fill="midnightblue" stroke="midnightblue" points="605.69,-108 615.69,-104.5 605.69,-101 605.69,-108"/>
</g>
<!-- Node5 -->
<g id="node5" class="node">
<title>Node5</title>
<g id="a_node5"><a xlink:href="../../d8/d1c/class_audio_director_a0e1e6093fa5c9c76f11483ac5c9cc776.html#a0e1e6093fa5c9c76f11483ac5c9cc776" target="_top" xlink:title=" ">
<polygon fill="none" stroke="black" points="357.5,-47.5 357.5,-75.5 569.5,-75.5 569.5,-47.5 357.5,-47.5"/>
<text text-anchor="middle" x="463.5" y="-57.1" font-family="Helvetica,sans-Serif" font-size="18.00">AudioDirector::printStats</text>
</a>
</g>
</g>
<!-- Node1&#45;&gt;Node5 -->
<g id="edge4" class="edge">
<title>Node1&#45;&gt;Node5</title>
<path fill="none" stroke="midnightblue" d="M709.89,-89.34C663.94,-84.13 613.17,-78.37 569.79,-73.45"/>
<polygon fill="midnightblue" stroke="midnightblue" points="709.59,-92.83 719.93,-90.48 710.38,-85.87 709.59,-92.83"/>
</g>
<!-- Node6 -->
<g id="node6" class="node">
<title>Node6</title>
<g id="a_node6"><a xlink:href="../../d4/dde/class_app_c_q_t_aed18661c211e72751dec7dbfe1199f76.html#aed18661c211e72751dec7dbfe1199f76" target="_top" xlink:title=" ">
<polygon fill="none" stroke="black" points="389,-0.5 389,-28.5 538,-28.5 538,-0.5 389,-0.5"/>
<text text-anchor="middle" x="463.5" y="-10.1" font-family="Helvetica,sans-Serif" font-size="18.00">AppCQT::render</text>
</a>
</g>
</g>
<!-- Node1&#45;&gt;Node6 -->
<g id="edge6" class="edge">
<title>Node1&#45;&gt;Node6</title>
<path fill="none" stroke="midnightblue" d="M780.18,-87.87C726.91,-74.07 648.67,-54.23 580,-38.5 565.23,-35.12 549.34,-31.68 534.23,-28.51"/>
<polygon fill="midnightblue" stroke="midnightblue" points="779.6,-91.34 790.16,-90.46 781.36,-84.56 779.6,-91.34"/>
</g>
<!-- Node3&#45;&gt;Node4 -->
<g id="edge3" class="edge">
<title>Node3&#45;&gt;Node4</title>
<path fill="none" stroke="midnightblue" d="M352.6,-132.06C321.11,-127.63 286.97,-122.83 256.14,-118.5"/>
<polygon fill="midnightblue" stroke="midnightblue" points="352.34,-135.55 362.73,-133.48 353.31,-128.62 352.34,-135.55"/>
</g>
<!-- Node5&#45;&gt;Node4 -->
<g id="edge5" class="edge">
<title>Node5&#45;&gt;Node4</title>
<path fill="none" stroke="midnightblue" d="M352.6,-76.94C321.11,-81.37 286.97,-86.17 256.14,-90.5"/>
<polygon fill="midnightblue" stroke="midnightblue" points="353.31,-80.38 362.73,-75.52 352.34,-73.45 353.31,-80.38"/>
</g>
</g>
</svg>
        <g id="navigator" transform="translate(0 0)" fill="#404254">
                <rect fill="#f2f5e9" fill-opacity="0.5" stroke="#606060" stroke-width=".5" x="0" y="0" width="60" height="60"/>
                <use id="zoomplus" xlink:href="#zoomPlus" x="17" y="9" onmousedown="handleZoom(evt,'in')"/>
                <use id="zoomminus" xlink:href="#zoomMin" x="42" y="9" onmousedown="handleZoom(evt,'out')"/>
                <use id="reset" xlink:href="#resetDef" x="30" y="36" onmousedown="handleReset()"/>
                <g id="arrowUp" xlink:href="#dirArrow" transform="translate(30 24)" onmousedown="handlePan(0,-1)">
                  <use xlink:href="#rim" fill="#404040">
                        <set attributeName="fill" to="#808080" begin="arrowUp.mouseover" end="arrowUp.mouseout"/>
                  </use>
                  <path fill="none" stroke="white" stroke-width="1.5" d="M0,-3.0v7 M-2.5,-0.5L0,-3.0L2.5,-0.5"/>
                </g>
                <g id="arrowRight" xlink:href="#dirArrow" transform="rotate(90) translate(36 -43)" onmousedown="handlePan(1,0)">
                  <use xlink:href="#rim" fill="#404040">
                        <set attributeName="fill" to="#808080" begin="arrowRight.mouseover" end="arrowRight.mouseout"/>
                  </use>
                  <path fill="none" stroke="white" stroke-width="1.5" d="M0,-3.0v7 M-2.5,-0.5L0,-3.0L2.5,-0.5"/>
                </g>
                <g id="arrowDown" xlink:href="#dirArrow" transform="rotate(180) translate(-30 -48)" onmousedown="handlePan(0,1)">
                  <use xlink:href="#rim" fill="#404040">
                        <set attributeName="fill" to="#808080" begin="arrowDown.mouseover" end="arrowDown.mouseout"/>
                  </use>
                  <path fill="none" stroke="white" stroke-width="1.5" d="M0,-3.0v7 M-2.5,-0.5L0,-3.0L2.5,-0.5"/>
                </g>
                <g id="arrowLeft" xlink:href="#dirArrow" transform="rotate(270) translate(-36 17)" onmousedown="handlePan(-1,0)">
                  <use xlink:href="#rim" fill="#404040">
                        <set attributeName="fill" to="#808080" begin="arrowLeft.mouseover" end="arrowLeft.mouseout"/>
                  </use>
                  <path fill="none" stroke="white" stroke-width="1.5" d="M0,-3.0v7 M-2.5,-0.5L0,-3.0L2.5,-0.5"/>
                </g>
        </g>
        <svg viewBox="0 0 15 15" width="100%" height="30px" preserveAspectRatio="xMaxYMin meet">
         <g id="arrow_out" transform="scale(0.3 0.3)">
          <a xlink:href="class_svc_serial_command_interface_a0793f597a16bd5e1b99084354ac0415e_a0793f597a16bd5e1b99084354ac0415e_icgraph_org.svg" target="_base">
           <rect id="button" ry="5" rx="5" y="6" x="6" height="38" width="38"
                fill="#f2f5e9" fill-opacity="0.5" stroke="#606060" stroke-width="1.0"/>
           <path id="arrow"
             d="M 11.500037,31.436501 C 11.940474,20.09759 22.043105,11.32322 32.158766,21.979434 L 37.068811,17.246167 C 37.068811,17.246167 37.088388,32 37.088388,32 L 22.160133,31.978069 C 22.160133,31.978069 26.997745,27.140456 26.997745,27.140456 C 18.528582,18.264221 13.291696,25.230495 11.500037,31.436501 z"
             style="fill:#404040;"/>
          </a>
         </g>
        </svg>
</svg>
