<?xml version="1.0" encoding="UTF-8" standalone="no"?>
<!DOCTYPE svg PUBLIC "-//W3C//DTD SVG 1.1//EN"
 "http://www.w3.org/Graphics/SVG/1.1/DTD/svg11.dtd">
<!-- Generated by graphviz version 2.47.3 (20210619.1520)
 -->
<!-- Title: SvcSerialCommandInterface::streamHandler Pages: 1 -->
<!--zoomable 124 -->
<svg id="main" version="1.1" xmlns="http://www.w3.org/2000/svg" xmlns:xlink="http://www.w3.org/1999/xlink" xml:space="preserve" onload="init(evt)">
<style type="text/css"><![CDATA[
.edge:hover path { stroke: red; }
.edge:hover polygon { stroke: red; fill: red; }
]]></style>
<script type="text/javascript"><![CDATA[
var edges = document.getElementsByTagName('g');
if (edges && edges.length) {
  for (var i=0;i<edges.length;i++) {
    if (edges[i].id.substr(0,4)=='edge') {
      edges[i].setAttribute('class','edge');
    }
  }
}
]]></script>
        <defs>
                <circle id="rim" cx="0" cy="0" r="7"/>
                <circle id="rim2" cx="0" cy="0" r="3.5"/>
                <g id="zoomPlus">
                        <use xlink:href="#rim" fill="#404040">
                                <set attributeName="fill" to="#808080" begin="zoomplus.mouseover" end="zoomplus.mouseout"/>
                        </use>
                        <path d="M-4,0h8M0,-4v8" fill="none" stroke="white" stroke-width="1.5" pointer-events="none"/>
                </g>
                <g id="zoomMin">
                        <use xlink:href="#rim" fill="#404040">
                                <set attributeName="fill" to="#808080" begin="zoomminus.mouseover" end="zoomminus.mouseout"/>
                        </use>
                        <path d="M-4,0h8" fill="none" stroke="white" stroke-width="1.5" pointer-events="none"/>
                </g>
                <g id="dirArrow">
                        <path fill="none" stroke="white" stroke-width="1.5" d="M0,-3.0v7 M-2.5,-0.5L0,-3.0L2.5,-0.5"/>
                </g>
               <g id="resetDef">
                       <use xlink:href="#rim2" fill="#404040">
                               <set attributeName="fill" to="#808080" begin="reset.mouseover" end="reset.mouseout"/>
                       </use>
               </g>
        </defs>

<script type="text/javascript">
var viewWidth = 796;
var viewHeight = 124;
var sectionId = 'dynsection-0';
</script>
<script xlink:href="../../svgpan.js"/>
<svg id="graph" class="graph">
<g id="viewport">
<title>SvcSerialCommandInterface::streamHandler</title>
<!-- Node1 -->
<g id="node1" class="node">
<title>Node1</title>
<g id="a_node1"><a xlink:title=" ">
<polygon fill="#bfbfbf" stroke="black" points="0,-47.5 0,-81.5 166,-81.5 166,-47.5 0,-47.5"/>
<text text-anchor="start" x="8" y="-67.9" font-family="Helvetica,sans-Serif" font-size="12.00">SvcSerialCommandInterface</text>
<text text-anchor="middle" x="83" y="-54.9" font-family="Helvetica,sans-Serif" font-size="12.00">::streamHandler</text>
</a>
</g>
</g>
<!-- Node2 -->
<g id="node2" class="node">
<title>Node2</title>
<g id="a_node2"><a xlink:href="../../d2/da8/class_svc_serial_command_interface_a809cc3d22320bdd8c54044e278e188f0.html#a809cc3d22320bdd8c54044e278e188f0" target="_top" xlink:title=" ">
<polygon fill="none" stroke="black" points="202,-94 202,-115 405,-115 405,-94 202,-94"/>
<text text-anchor="middle" x="303.5" y="-101.4" font-family="Helvetica,sans-Serif" font-size="12.00">SvcSerialCommandInterface::empty</text>
</a>
</g>
</g>
<!-- Node1&#45;&gt;Node2 -->
<g id="edge1" class="edge">
<title>Node1&#45;&gt;Node2</title>
<path fill="none" stroke="midnightblue" d="M166.29,-79.57C188.96,-83.71 213.27,-88.16 234.99,-92.14"/>
<polygon fill="midnightblue" stroke="midnightblue" points="234.63,-95.63 245.1,-93.99 235.89,-88.75 234.63,-95.63"/>
</g>
<!-- Node3 -->
<g id="node3" class="node">
<title>Node3</title>
<g id="a_node3"><a xlink:href="../../d4/d05/lz4_8c_a7466a8eca8f7b2eeec7887c9371d21e1.html#a7466a8eca8f7b2eeec7887c9371d21e1" target="_top" xlink:title=" ">
<polygon fill="none" stroke="black" points="243,-54 243,-75 364,-75 364,-54 243,-54"/>
<text text-anchor="middle" x="303.5" y="-61.4" font-family="Helvetica,sans-Serif" font-size="12.00">LZ4_compress_fast</text>
</a>
</g>
</g>
<!-- Node1&#45;&gt;Node3 -->
<g id="edge2" class="edge">
<title>Node1&#45;&gt;Node3</title>
<path fill="none" stroke="midnightblue" d="M166.29,-64.5C188.13,-64.5 211.49,-64.5 232.59,-64.5"/>
<polygon fill="midnightblue" stroke="midnightblue" points="232.75,-68 242.75,-64.5 232.75,-61 232.75,-68"/>
</g>
<!-- Node31 -->
<g id="node8" class="node">
<title>Node31</title>
<g id="a_node8"><a xlink:href="../../d2/da8/class_svc_serial_command_interface_a72fa7592492598637d233d9abe27f8f0.html#a72fa7592492598637d233d9abe27f8f0" target="_top" xlink:title="returns true if the available serial buffer falls below SERIAL_THROTTLE_BUFFER_REMAINING_THRESHOLD if...">
<polygon fill="none" stroke="black" points="220.5,-0.5 220.5,-34.5 386.5,-34.5 386.5,-0.5 220.5,-0.5"/>
<text text-anchor="start" x="228.5" y="-20.9" font-family="Helvetica,sans-Serif" font-size="12.00">SvcSerialCommandInterface</text>
<text text-anchor="middle" x="303.5" y="-7.9" font-family="Helvetica,sans-Serif" font-size="12.00">::throttle</text>
</a>
</g>
</g>
<!-- Node1&#45;&gt;Node31 -->
<g id="edge7" class="edge">
<title>Node1&#45;&gt;Node31</title>
<path fill="none" stroke="midnightblue" d="M163.19,-47.47C179.37,-43.98 196.51,-40.3 213.02,-36.75"/>
<polygon fill="midnightblue" stroke="midnightblue" points="214.17,-40.08 223.21,-34.56 212.7,-33.24 214.17,-40.08"/>
</g>
<!-- Node4 -->
<g id="node4" class="node">
<title>Node4</title>
<g id="a_node4"><a xlink:href="../../d4/d05/lz4_8c_ab733ccea81cb7b3d5d6c0601c355dddc.html#ab733ccea81cb7b3d5d6c0601c355dddc" target="_top" xlink:title=" ">
<polygon fill="none" stroke="black" points="441,-54 441,-75 611,-75 611,-54 441,-54"/>
<text text-anchor="middle" x="526" y="-61.4" font-family="Helvetica,sans-Serif" font-size="12.00">LZ4_compress_fast_extState</text>
</a>
</g>
</g>
<!-- Node3&#45;&gt;Node4 -->
<g id="edge3" class="edge">
<title>Node3&#45;&gt;Node4</title>
<path fill="none" stroke="midnightblue" d="M364.17,-64.5C384.63,-64.5 408.06,-64.5 430.59,-64.5"/>
<polygon fill="midnightblue" stroke="midnightblue" points="430.86,-68 440.86,-64.5 430.86,-61 430.86,-68"/>
</g>
<!-- Node5 -->
<g id="node5" class="node">
<title>Node5</title>
<g id="a_node5"><a xlink:href="../../d4/d05/lz4_8c_a2c16b0c1f9b51bb73e155876011fc97a.html#a2c16b0c1f9b51bb73e155876011fc97a" target="_top" xlink:title=" ">
<polygon fill="none" stroke="red" points="647,-94 647,-115 788,-115 788,-94 647,-94"/>
<text text-anchor="middle" x="717.5" y="-101.4" font-family="Helvetica,sans-Serif" font-size="12.00">LZ4_compress_generic</text>
</a>
</g>
</g>
<!-- Node4&#45;&gt;Node5 -->
<g id="edge4" class="edge">
<title>Node4&#45;&gt;Node5</title>
<path fill="none" stroke="midnightblue" d="M576.79,-75.01C601.28,-80.18 630.99,-86.45 656.71,-91.88"/>
<polygon fill="midnightblue" stroke="midnightblue" points="656.21,-95.35 666.71,-93.99 657.65,-88.5 656.21,-95.35"/>
</g>
<!-- Node27 -->
<g id="node6" class="node">
<title>Node27</title>
<g id="a_node6"><a xlink:href="../../d4/d05/lz4_8c_a2b09f5ca41ce609bb136d3637beffe04.html#a2b09f5ca41ce609bb136d3637beffe04" target="_top" xlink:title=" ">
<polygon fill="none" stroke="black" points="653,-54 653,-75 782,-75 782,-54 653,-54"/>
<text text-anchor="middle" x="717.5" y="-61.4" font-family="Helvetica,sans-Serif" font-size="12.00">LZ4_compressBound</text>
</a>
</g>
</g>
<!-- Node4&#45;&gt;Node27 -->
<g id="edge5" class="edge">
<title>Node4&#45;&gt;Node27</title>
<path fill="none" stroke="midnightblue" d="M611.22,-64.5C621.67,-64.5 632.3,-64.5 642.58,-64.5"/>
<polygon fill="midnightblue" stroke="midnightblue" points="642.73,-68 652.73,-64.5 642.73,-61 642.73,-68"/>
</g>
<!-- Node28 -->
<g id="node7" class="node">
<title>Node28</title>
<g id="a_node7"><a xlink:href="../../d4/d05/lz4_8c_a43fc7d0a99a5a66f6056d73ce3e8aa5c.html#a43fc7d0a99a5a66f6056d73ce3e8aa5c" target="_top" xlink:title=" ">
<polygon fill="none" stroke="red" points="669,-14 669,-35 766,-35 766,-14 669,-14"/>
<text text-anchor="middle" x="717.5" y="-21.4" font-family="Helvetica,sans-Serif" font-size="12.00">LZ4_initStream</text>
</a>
</g>
</g>
<!-- Node4&#45;&gt;Node28 -->
<g id="edge6" class="edge">
<title>Node4&#45;&gt;Node28</title>
<path fill="none" stroke="midnightblue" d="M576.79,-53.99C601.97,-48.67 632.67,-42.19 658.88,-36.66"/>
<polygon fill="midnightblue" stroke="midnightblue" points="659.62,-40.08 668.68,-34.59 658.17,-33.24 659.62,-40.08"/>
</g>
</g>
</svg>
        <g id="navigator" transform="translate(0 0)" fill="#404254">
                <rect fill="#f2f5e9" fill-opacity="0.5" stroke="#606060" stroke-width=".5" x="0" y="0" width="60" height="60"/>
                <use id="zoomplus" xlink:href="#zoomPlus" x="17" y="9" onmousedown="handleZoom(evt,'in')"/>
                <use id="zoomminus" xlink:href="#zoomMin" x="42" y="9" onmousedown="handleZoom(evt,'out')"/>
                <use id="reset" xlink:href="#resetDef" x="30" y="36" onmousedown="handleReset()"/>
                <g id="arrowUp" xlink:href="#dirArrow" transform="translate(30 24)" onmousedown="handlePan(0,-1)">
                  <use xlink:href="#rim" fill="#404040">
                        <set attributeName="fill" to="#808080" begin="arrowUp.mouseover" end="arrowUp.mouseout"/>
                  </use>
                  <path fill="none" stroke="white" stroke-width="1.5" d="M0,-3.0v7 M-2.5,-0.5L0,-3.0L2.5,-0.5"/>
                </g>
                <g id="arrowRight" xlink:href="#dirArrow" transform="rotate(90) translate(36 -43)" onmousedown="handlePan(1,0)">
                  <use xlink:href="#rim" fill="#404040">
                        <set attributeName="fill" to="#808080" begin="arrowRight.mouseover" end="arrowRight.mouseout"/>
                  </use>
                  <path fill="none" stroke="white" stroke-width="1.5" d="M0,-3.0v7 M-2.5,-0.5L0,-3.0L2.5,-0.5"/>
                </g>
                <g id="arrowDown" xlink:href="#dirArrow" transform="rotate(180) translate(-30 -48)" onmousedown="handlePan(0,1)">
                  <use xlink:href="#rim" fill="#404040">
                        <set attributeName="fill" to="#808080" begin="arrowDown.mouseover" end="arrowDown.mouseout"/>
                  </use>
                  <path fill="none" stroke="white" stroke-width="1.5" d="M0,-3.0v7 M-2.5,-0.5L0,-3.0L2.5,-0.5"/>
                </g>
                <g id="arrowLeft" xlink:href="#dirArrow" transform="rotate(270) translate(-36 17)" onmousedown="handlePan(-1,0)">
                  <use xlink:href="#rim" fill="#404040">
                        <set attributeName="fill" to="#808080" begin="arrowLeft.mouseover" end="arrowLeft.mouseout"/>
                  </use>
                  <path fill="none" stroke="white" stroke-width="1.5" d="M0,-3.0v7 M-2.5,-0.5L0,-3.0L2.5,-0.5"/>
                </g>
        </g>
        <svg viewBox="0 0 15 15" width="100%" height="30px" preserveAspectRatio="xMaxYMin meet">
         <g id="arrow_out" transform="scale(0.3 0.3)">
          <a xlink:href="class_svc_serial_command_interface_ae049736228144211f46ad0d61bdffea5_ae049736228144211f46ad0d61bdffea5_cgraph_org.svg" target="_base">
           <rect id="button" ry="5" rx="5" y="6" x="6" height="38" width="38"
                fill="#f2f5e9" fill-opacity="0.5" stroke="#606060" stroke-width="1.0"/>
           <path id="arrow"
             d="M 11.500037,31.436501 C 11.940474,20.09759 22.043105,11.32322 32.158766,21.979434 L 37.068811,17.246167 C 37.068811,17.246167 37.088388,32 37.088388,32 L 22.160133,31.978069 C 22.160133,31.978069 26.997745,27.140456 26.997745,27.140456 C 18.528582,18.264221 13.291696,25.230495 11.500037,31.436501 z"
             style="fill:#404040;"/>
          </a>
         </g>
        </svg>
</svg>
