<?xml version="1.0" encoding="UTF-8" standalone="no"?>
<!DOCTYPE svg PUBLIC "-//W3C//DTD SVG 1.1//EN"
 "http://www.w3.org/Graphics/SVG/1.1/DTD/svg11.dtd">
<!-- Generated by graphviz version 2.47.3 (20210619.1520)
 -->
<!-- Title: SvcSerialCommandInterface::SvcSerialCommandInterface Pages: 1 -->
<svg width="1310pt" height="366pt"
 viewBox="0.00 0.00 1310.00 366.00" xmlns="http://www.w3.org/2000/svg" xmlns:xlink="http://www.w3.org/1999/xlink">
<g id="graph0" class="graph" transform="scale(1 1) rotate(0) translate(4 362)">
<title>SvcSerialCommandInterface::SvcSerialCommandInterface</title>
<!-- Node1 -->
<g id="node1" class="node">
<title>Node1</title>
<g id="a_node1"><a xlink:title=" ">
<polygon fill="#bfbfbf" stroke="black" points="0,-140.5 0,-168.5 483,-168.5 483,-140.5 0,-140.5"/>
<text text-anchor="middle" x="241.5" y="-150.1" font-family="Helvetica,sans-Serif" font-size="18.00">SvcSerialCommandInterface::SvcSerialCommandInterface</text>
</a>
</g>
</g>
<!-- Node2 -->
<g id="node2" class="node">
<title>Node2</title>
<g id="a_node2"><a xlink:href="../../da/d96/class_app_manager_aa76d9691e8d029656413590fbe4dee86.html#aa76d9691e8d029656413590fbe4dee86" target="_top" xlink:title=" ">
<polygon fill="none" stroke="black" points="519,-164.5 519,-192.5 743,-192.5 743,-164.5 519,-164.5"/>
<text text-anchor="middle" x="631" y="-174.1" font-family="Helvetica,sans-Serif" font-size="18.00">AppManager::getInstance</text>
</a>
</g>
</g>
<!-- Node1&#45;&gt;Node2 -->
<g id="edge1" class="edge">
<title>Node1&#45;&gt;Node2</title>
<path fill="none" stroke="midnightblue" d="M468.75,-168.51C482.36,-169.36 495.75,-170.19 508.64,-170.98"/>
<polygon fill="midnightblue" stroke="midnightblue" points="508.67,-174.49 518.86,-171.62 509.1,-167.51 508.67,-174.49"/>
</g>
<!-- Node12 -->
<g id="node12" class="node">
<title>Node12</title>
<g id="a_node12"><a xlink:href="../../da/d96/class_app_manager_a821aeaa51455976c0fa5ffe304cae89b.html#a821aeaa51455976c0fa5ffe304cae89b" target="_top" xlink:title="provides an interface for apps to request the SdFs object">
<polygon fill="none" stroke="black" points="541,-117.5 541,-145.5 721,-145.5 721,-117.5 541,-117.5"/>
<text text-anchor="middle" x="631" y="-127.1" font-family="Helvetica,sans-Serif" font-size="18.00">AppManager::getSD</text>
</a>
</g>
</g>
<!-- Node1&#45;&gt;Node12 -->
<g id="edge11" class="edge">
<title>Node1&#45;&gt;Node12</title>
<path fill="none" stroke="midnightblue" d="M478.52,-140.49C496.71,-139.41 514.38,-138.36 530.84,-137.39"/>
<polygon fill="midnightblue" stroke="midnightblue" points="531.15,-140.87 540.92,-136.79 530.73,-133.89 531.15,-140.87"/>
</g>
<!-- Node3 -->
<g id="node3" class="node">
<title>Node3</title>
<g id="a_node3"><a xlink:href="../../da/d96/class_app_manager_a9439da981933119c49a83a507d64eb23.html#a9439da981933119c49a83a507d64eb23" target="_top" xlink:title="Construct a new App Manager:: App Manager object using a private constuctor (lazy singleton pattern)">
<polygon fill="none" stroke="black" points="779,-164.5 779,-192.5 1012,-192.5 1012,-164.5 779,-164.5"/>
<text text-anchor="middle" x="895.5" y="-174.1" font-family="Helvetica,sans-Serif" font-size="18.00">AppManager::AppManager</text>
</a>
</g>
</g>
<!-- Node2&#45;&gt;Node3 -->
<g id="edge2" class="edge">
<title>Node2&#45;&gt;Node3</title>
<path fill="none" stroke="midnightblue" d="M743.32,-178.5C751.67,-178.5 760.12,-178.5 768.55,-178.5"/>
<polygon fill="midnightblue" stroke="midnightblue" points="768.8,-182 778.8,-178.5 768.8,-175 768.8,-182"/>
</g>
<!-- Node4 -->
<g id="node4" class="node">
<title>Node4</title>
<g id="a_node4"><a xlink:href="../../d8/d5a/class_i_l_i9341__t3___e_r_i_s_a8c8c09d5ca51d5b4c611875df643bef6.html#a8c8c09d5ca51d5b4c611875df643bef6" target="_top" xlink:title=" ">
<polygon fill="none" stroke="black" points="1072,-329.5 1072,-357.5 1278,-357.5 1278,-329.5 1072,-329.5"/>
<text text-anchor="middle" x="1175" y="-339.1" font-family="Helvetica,sans-Serif" font-size="18.00">ILI9341_t3_ERIS::begin</text>
</a>
</g>
</g>
<!-- Node3&#45;&gt;Node4 -->
<g id="edge3" class="edge">
<title>Node3&#45;&gt;Node4</title>
<path fill="none" stroke="midnightblue" d="M906.83,-192.56C929.05,-221.68 984.58,-288.54 1048,-320.5 1052.6,-322.82 1057.4,-324.9 1062.32,-326.78"/>
<polygon fill="midnightblue" stroke="midnightblue" points="1061.33,-330.14 1071.92,-330.14 1063.64,-323.54 1061.33,-330.14"/>
</g>
<!-- Node5 -->
<g id="node5" class="node">
<title>Node5</title>
<g id="a_node5"><a xlink:href="../../d1/dff/class_touch_a057f1914b96362769a5384dbbfdb4195.html#a057f1914b96362769a5384dbbfdb4195" target="_top" xlink:title=" ">
<polygon fill="none" stroke="black" points="1114,-282.5 1114,-310.5 1236,-310.5 1236,-282.5 1114,-282.5"/>
<text text-anchor="middle" x="1175" y="-292.1" font-family="Helvetica,sans-Serif" font-size="18.00">Touch::begin</text>
</a>
</g>
</g>
<!-- Node3&#45;&gt;Node5 -->
<g id="edge4" class="edge">
<title>Node3&#45;&gt;Node5</title>
<path fill="none" stroke="midnightblue" d="M913.95,-192.6C940.98,-213.66 995.33,-253.05 1048,-273.5 1065.57,-280.32 1085.32,-285.15 1103.88,-288.55"/>
<polygon fill="midnightblue" stroke="midnightblue" points="1103.3,-292 1113.75,-290.25 1104.49,-285.1 1103.3,-292"/>
</g>
<!-- Node6 -->
<g id="node6" class="node">
<title>Node6</title>
<g id="a_node6"><a xlink:href="../../dc/d40/_app_manager_8cpp_a5db3dd95011fd6a678ae291290091314.html#a5db3dd95011fd6a678ae291290091314" target="_top" xlink:title=" ">
<polygon fill="none" stroke="black" points="1147,-235.5 1147,-263.5 1203,-263.5 1203,-235.5 1147,-235.5"/>
<text text-anchor="middle" x="1175" y="-245.1" font-family="Helvetica,sans-Serif" font-size="18.00">draw</text>
</a>
</g>
</g>
<!-- Node3&#45;&gt;Node6 -->
<g id="edge5" class="edge">
<title>Node3&#45;&gt;Node6</title>
<path fill="none" stroke="midnightblue" d="M935.98,-192.52C966.33,-202.92 1009.44,-216.91 1048,-226.5 1077.59,-233.86 1111.62,-239.93 1136.86,-243.99"/>
<polygon fill="midnightblue" stroke="midnightblue" points="1136.33,-247.45 1146.75,-245.54 1137.42,-240.53 1136.33,-247.45"/>
</g>
<!-- Node7 -->
<g id="node7" class="node">
<title>Node7</title>
<g id="a_node7"><a xlink:href="../../d1/dff/class_touch_a61a5d056f07ab08cb5924fa573dc3497.html#a61a5d056f07ab08cb5924fa573dc3497" target="_top" xlink:title=" ">
<polygon fill="none" stroke="black" points="1056,-188.5 1056,-216.5 1294,-216.5 1294,-188.5 1056,-188.5"/>
<text text-anchor="middle" x="1175" y="-198.1" font-family="Helvetica,sans-Serif" font-size="18.00">Touch::setCalibrationInputs</text>
</a>
</g>
</g>
<!-- Node3&#45;&gt;Node7 -->
<g id="edge6" class="edge">
<title>Node3&#45;&gt;Node7</title>
<path fill="none" stroke="midnightblue" d="M1012.18,-188.5C1023.22,-189.46 1034.47,-190.43 1045.62,-191.4"/>
<polygon fill="midnightblue" stroke="midnightblue" points="1045.57,-194.91 1055.83,-192.28 1046.17,-187.93 1045.57,-194.91"/>
</g>
<!-- Node8 -->
<g id="node8" class="node">
<title>Node8</title>
<g id="a_node8"><a xlink:href="../../d4/d7c/class_animation_a997d1203ae9418f121f355a5bd0700f0.html#a997d1203ae9418f121f355a5bd0700f0" target="_top" xlink:title=" ">
<polygon fill="none" stroke="black" points="1091,-141.5 1091,-169.5 1259,-169.5 1259,-141.5 1091,-141.5"/>
<text text-anchor="middle" x="1175" y="-151.1" font-family="Helvetica,sans-Serif" font-size="18.00">Animation::setPath</text>
</a>
</g>
</g>
<!-- Node3&#45;&gt;Node8 -->
<g id="edge7" class="edge">
<title>Node3&#45;&gt;Node8</title>
<path fill="none" stroke="midnightblue" d="M1012.18,-168.91C1035,-167.02 1058.69,-165.06 1080.66,-163.24"/>
<polygon fill="midnightblue" stroke="midnightblue" points="1080.95,-166.72 1090.63,-162.41 1080.37,-159.75 1080.95,-166.72"/>
</g>
<!-- Node9 -->
<g id="node9" class="node">
<title>Node9</title>
<g id="a_node9"><a xlink:href="../../d8/d5a/class_i_l_i9341__t3___e_r_i_s_a33f0105b1eecc4c37195900fcf0d5fd8.html#a33f0105b1eecc4c37195900fcf0d5fd8" target="_top" xlink:title=" ">
<polygon fill="none" stroke="black" points="1048,-94.5 1048,-122.5 1302,-122.5 1302,-94.5 1048,-94.5"/>
<text text-anchor="middle" x="1175" y="-104.1" font-family="Helvetica,sans-Serif" font-size="18.00">ILI9341_t3_ERIS::setPWMPin</text>
</a>
</g>
</g>
<!-- Node3&#45;&gt;Node9 -->
<g id="edge8" class="edge">
<title>Node3&#45;&gt;Node9</title>
<path fill="none" stroke="midnightblue" d="M938.29,-164.5C968.53,-154.69 1010.5,-141.74 1048,-132.5 1059.4,-129.69 1071.45,-127.02 1083.4,-124.55"/>
<polygon fill="midnightblue" stroke="midnightblue" points="1084.29,-127.94 1093.4,-122.53 1082.9,-121.08 1084.29,-127.94"/>
</g>
<!-- Node10 -->
<g id="node10" class="node">
<title>Node10</title>
<g id="a_node10"><a xlink:href="../../d4/d7c/class_animation_ab5af4d2f56dce439c18ba9c4655f98f0.html#ab5af4d2f56dce439c18ba9c4655f98f0" target="_top" xlink:title=" ">
<polygon fill="none" stroke="black" points="1097.5,-47.5 1097.5,-75.5 1252.5,-75.5 1252.5,-47.5 1097.5,-47.5"/>
<text text-anchor="middle" x="1175" y="-57.1" font-family="Helvetica,sans-Serif" font-size="18.00">Animation::setSD</text>
</a>
</g>
</g>
<!-- Node3&#45;&gt;Node10 -->
<g id="edge9" class="edge">
<title>Node3&#45;&gt;Node10</title>
<path fill="none" stroke="midnightblue" d="M914.48,-164.42C941.74,-143.81 995.91,-105.67 1048,-85.5 1060.53,-80.65 1074.16,-76.75 1087.67,-73.63"/>
<polygon fill="midnightblue" stroke="midnightblue" points="1088.44,-77.04 1097.46,-71.48 1086.95,-70.2 1088.44,-77.04"/>
</g>
<!-- Node11 -->
<g id="node11" class="node">
<title>Node11</title>
<g id="a_node11"><a xlink:href="../../d8/d5a/class_i_l_i9341__t3___e_r_i_s_a2bfdbf675a570c74b787fd222185f25f.html#a2bfdbf675a570c74b787fd222185f25f" target="_top" xlink:title=" ">
<polygon fill="none" stroke="black" points="1070.5,-0.5 1070.5,-28.5 1279.5,-28.5 1279.5,-0.5 1070.5,-0.5"/>
<text text-anchor="middle" x="1175" y="-10.1" font-family="Helvetica,sans-Serif" font-size="18.00">ILI9341_t3_ERIS::setSD</text>
</a>
</g>
</g>
<!-- Node3&#45;&gt;Node11 -->
<g id="edge10" class="edge">
<title>Node3&#45;&gt;Node11</title>
<path fill="none" stroke="midnightblue" d="M907.24,-164.24C929.81,-135.38 985.33,-70.11 1048,-38.5 1052.85,-36.06 1057.91,-33.86 1063.11,-31.89"/>
<polygon fill="midnightblue" stroke="midnightblue" points="1064.31,-35.17 1072.6,-28.57 1062,-28.57 1064.31,-35.17"/>
</g>
</g>
</svg>
