<?xml version="1.0" encoding="UTF-8" standalone="no"?>
<!DOCTYPE svg PUBLIC "-//W3C//DTD SVG 1.1//EN"
 "http://www.w3.org/Graphics/SVG/1.1/DTD/svg11.dtd">
<!-- Generated by graphviz version 2.47.3 (20210619.1520)
 -->
<!-- Title: SvcSerialCommandInterface::startLZ4Message Pages: 1 -->
<!--zoomable 189 -->
<svg id="main" version="1.1" xmlns="http://www.w3.org/2000/svg" xmlns:xlink="http://www.w3.org/1999/xlink" xml:space="preserve" onload="init(evt)">
<style type="text/css"><![CDATA[
.edge:hover path { stroke: red; }
.edge:hover polygon { stroke: red; fill: red; }
]]></style>
<script type="text/javascript"><![CDATA[
var edges = document.getElementsByTagName('g');
if (edges && edges.length) {
  for (var i=0;i<edges.length;i++) {
    if (edges[i].id.substr(0,4)=='edge') {
      edges[i].setAttribute('class','edge');
    }
  }
}
]]></script>
        <defs>
                <circle id="rim" cx="0" cy="0" r="7"/>
                <circle id="rim2" cx="0" cy="0" r="3.5"/>
                <g id="zoomPlus">
                        <use xlink:href="#rim" fill="#404040">
                                <set attributeName="fill" to="#808080" begin="zoomplus.mouseover" end="zoomplus.mouseout"/>
                        </use>
                        <path d="M-4,0h8M0,-4v8" fill="none" stroke="white" stroke-width="1.5" pointer-events="none"/>
                </g>
                <g id="zoomMin">
                        <use xlink:href="#rim" fill="#404040">
                                <set attributeName="fill" to="#808080" begin="zoomminus.mouseover" end="zoomminus.mouseout"/>
                        </use>
                        <path d="M-4,0h8" fill="none" stroke="white" stroke-width="1.5" pointer-events="none"/>
                </g>
                <g id="dirArrow">
                        <path fill="none" stroke="white" stroke-width="1.5" d="M0,-3.0v7 M-2.5,-0.5L0,-3.0L2.5,-0.5"/>
                </g>
               <g id="resetDef">
                       <use xlink:href="#rim2" fill="#404040">
                               <set attributeName="fill" to="#808080" begin="reset.mouseover" end="reset.mouseout"/>
                       </use>
               </g>
        </defs>

<script type="text/javascript">
var viewWidth = 1126;
var viewHeight = 189;
var sectionId = 'dynsection-1';
</script>
<script xlink:href="../../svgpan.js"/>
<svg id="graph" class="graph">
<g id="viewport">
<title>SvcSerialCommandInterface::startLZ4Message</title>
<!-- Node1 -->
<g id="node1" class="node">
<title>Node1</title>
<g id="a_node1"><a xlink:title=" ">
<polygon fill="#bfbfbf" stroke="black" points="769,-42.5 769,-68.5 1118,-68.5 1118,-42.5 769,-42.5"/>
<text text-anchor="middle" x="943.5" y="-51.7" font-family="Helvetica,sans-Serif" font-size="16.00">SvcSerialCommandInterface::startLZ4Message</text>
</a>
</g>
</g>
<!-- Node2 -->
<g id="node2" class="node">
<title>Node2</title>
<g id="a_node2"><a xlink:href="../../d2/da8/class_svc_serial_command_interface_a0793f597a16bd5e1b99084354ac0415e.html#a0793f597a16bd5e1b99084354ac0415e" target="_top" xlink:title=" ">
<polygon fill="none" stroke="black" points="329,-84.5 329,-110.5 733,-110.5 733,-84.5 329,-84.5"/>
<text text-anchor="middle" x="531" y="-93.7" font-family="Helvetica,sans-Serif" font-size="16.00">SvcSerialCommandInterface::requestStartLZ4Message</text>
</a>
</g>
</g>
<!-- Node1&#45;&gt;Node2 -->
<g id="edge1" class="edge">
<title>Node1&#45;&gt;Node2</title>
<path fill="none" stroke="midnightblue" d="M805.44,-69.52C758.22,-74.35 705.57,-79.74 659.18,-84.49"/>
<polygon fill="midnightblue" stroke="midnightblue" points="805.83,-73 815.43,-68.5 805.12,-66.04 805.83,-73"/>
</g>
<!-- Node6 -->
<g id="node6" class="node">
<title>Node6</title>
<g id="a_node6"><a xlink:href="../../d2/da8/class_svc_serial_command_interface_a1e29f06d24eb83870212bf52563fd173.html#a1e29f06d24eb83870212bf52563fd173" target="_top" xlink:title=" ">
<polygon fill="none" stroke="black" points="0,-19.5 0,-45.5 293,-45.5 293,-19.5 0,-19.5"/>
<text text-anchor="middle" x="146.5" y="-28.7" font-family="Helvetica,sans-Serif" font-size="16.00">SvcSerialCommandInterface::updateRT</text>
</a>
</g>
</g>
<!-- Node1&#45;&gt;Node6 -->
<g id="edge8" class="edge">
<title>Node1&#45;&gt;Node6</title>
<path fill="none" stroke="midnightblue" d="M758.42,-50.17C616.88,-46.08 424.02,-40.5 293.13,-36.71"/>
<polygon fill="midnightblue" stroke="midnightblue" points="758.43,-53.68 768.53,-50.47 758.63,-46.68 758.43,-53.68"/>
</g>
<!-- Node7 -->
<g id="node7" class="node">
<title>Node7</title>
<g id="a_node7"><a xlink:href="../../d2/da8/class_svc_serial_command_interface_add54582c8a1dae31f0d69bea84c65c84.html#add54582c8a1dae31f0d69bea84c65c84" target="_top" xlink:title=" ">
<polygon fill="none" stroke="black" points="368,-0.5 368,-26.5 694,-26.5 694,-0.5 368,-0.5"/>
<text text-anchor="middle" x="531" y="-9.7" font-family="Helvetica,sans-Serif" font-size="16.00">SvcSerialCommandInterface::streamHandler</text>
</a>
</g>
</g>
<!-- Node1&#45;&gt;Node7 -->
<g id="edge6" class="edge">
<title>Node1&#45;&gt;Node7</title>
<path fill="none" stroke="midnightblue" d="M805.44,-41.48C758.22,-36.65 705.57,-31.26 659.18,-26.51"/>
<polygon fill="midnightblue" stroke="midnightblue" points="805.12,-44.96 815.43,-42.5 805.83,-38 805.12,-44.96"/>
</g>
<!-- Node3 -->
<g id="node3" class="node">
<title>Node3</title>
<g id="a_node3"><a xlink:href="../../d4/dde/class_app_c_q_t_a5c33a48120697387e5435ae9d80aeb7c.html#a5c33a48120697387e5435ae9d80aeb7c" target="_top" xlink:title=" ">
<polygon fill="none" stroke="black" points="46,-154.5 46,-180.5 247,-180.5 247,-154.5 46,-154.5"/>
<text text-anchor="middle" x="146.5" y="-163.7" font-family="Helvetica,sans-Serif" font-size="16.00">AppCQT::messageHandler</text>
</a>
</g>
</g>
<!-- Node2&#45;&gt;Node3 -->
<g id="edge2" class="edge">
<title>Node2&#45;&gt;Node3</title>
<path fill="none" stroke="midnightblue" d="M459.97,-112.64C412.88,-122.58 349.35,-135.54 293,-145.5 275.39,-148.61 256.53,-151.67 238.42,-154.46"/>
<polygon fill="midnightblue" stroke="midnightblue" points="460.71,-116.06 469.76,-110.56 459.25,-109.21 460.71,-116.06"/>
</g>
<!-- Node4 -->
<g id="node4" class="node">
<title>Node4</title>
<g id="a_node4"><a xlink:href="../../d8/d1c/class_audio_director_a0e1e6093fa5c9c76f11483ac5c9cc776.html#a0e1e6093fa5c9c76f11483ac5c9cc776" target="_top" xlink:title=" ">
<polygon fill="none" stroke="black" points="52.5,-109.5 52.5,-135.5 240.5,-135.5 240.5,-109.5 52.5,-109.5"/>
<text text-anchor="middle" x="146.5" y="-118.7" font-family="Helvetica,sans-Serif" font-size="16.00">AudioDirector::printStats</text>
</a>
</g>
</g>
<!-- Node2&#45;&gt;Node4 -->
<g id="edge3" class="edge">
<title>Node2&#45;&gt;Node4</title>
<path fill="none" stroke="midnightblue" d="M320.62,-111.19C292.74,-113.01 265.38,-114.8 240.94,-116.39"/>
<polygon fill="midnightblue" stroke="midnightblue" points="321.16,-114.66 330.91,-110.51 320.7,-107.67 321.16,-114.66"/>
</g>
<!-- Node5 -->
<g id="node5" class="node">
<title>Node5</title>
<g id="a_node5"><a xlink:href="../../d4/dde/class_app_c_q_t_a0e1d9e850811f24577f20ac1900dd4f8.html#a0e1d9e850811f24577f20ac1900dd4f8" target="_top" xlink:title=" ">
<polygon fill="none" stroke="black" points="81,-64.5 81,-90.5 212,-90.5 212,-64.5 81,-64.5"/>
<text text-anchor="middle" x="146.5" y="-73.7" font-family="Helvetica,sans-Serif" font-size="16.00">AppCQT::update</text>
</a>
</g>
</g>
<!-- Node2&#45;&gt;Node5 -->
<g id="edge4" class="edge">
<title>Node2&#45;&gt;Node5</title>
<path fill="none" stroke="midnightblue" d="M318.55,-86.44C279.83,-84.42 242.22,-82.45 212.18,-80.88"/>
<polygon fill="midnightblue" stroke="midnightblue" points="318.78,-89.96 328.95,-86.99 319.14,-82.97 318.78,-89.96"/>
</g>
<!-- Node2&#45;&gt;Node6 -->
<g id="edge5" class="edge">
<title>Node2&#45;&gt;Node6</title>
<path fill="none" stroke="midnightblue" d="M390.71,-82.83C369.85,-79.27 348.73,-74.89 329,-69.5 312.28,-64.93 309.69,-59.16 293,-54.5 280.57,-51.03 267.39,-48.07 254.23,-45.56"/>
<polygon fill="midnightblue" stroke="midnightblue" points="390.17,-86.29 400.6,-84.46 391.3,-79.38 390.17,-86.29"/>
</g>
<!-- Node7&#45;&gt;Node6 -->
<g id="edge7" class="edge">
<title>Node7&#45;&gt;Node6</title>
<path fill="none" stroke="midnightblue" d="M357.61,-22.06C336.12,-23.13 314.31,-24.21 293.29,-25.26"/>
<polygon fill="midnightblue" stroke="midnightblue" points="357.97,-25.55 367.79,-21.56 357.62,-18.56 357.97,-25.55"/>
</g>
</g>
</svg>
        <g id="navigator" transform="translate(0 0)" fill="#404254">
                <rect fill="#f2f5e9" fill-opacity="0.5" stroke="#606060" stroke-width=".5" x="0" y="0" width="60" height="60"/>
                <use id="zoomplus" xlink:href="#zoomPlus" x="17" y="9" onmousedown="handleZoom(evt,'in')"/>
                <use id="zoomminus" xlink:href="#zoomMin" x="42" y="9" onmousedown="handleZoom(evt,'out')"/>
                <use id="reset" xlink:href="#resetDef" x="30" y="36" onmousedown="handleReset()"/>
                <g id="arrowUp" xlink:href="#dirArrow" transform="translate(30 24)" onmousedown="handlePan(0,-1)">
                  <use xlink:href="#rim" fill="#404040">
                        <set attributeName="fill" to="#808080" begin="arrowUp.mouseover" end="arrowUp.mouseout"/>
                  </use>
                  <path fill="none" stroke="white" stroke-width="1.5" d="M0,-3.0v7 M-2.5,-0.5L0,-3.0L2.5,-0.5"/>
                </g>
                <g id="arrowRight" xlink:href="#dirArrow" transform="rotate(90) translate(36 -43)" onmousedown="handlePan(1,0)">
                  <use xlink:href="#rim" fill="#404040">
                        <set attributeName="fill" to="#808080" begin="arrowRight.mouseover" end="arrowRight.mouseout"/>
                  </use>
                  <path fill="none" stroke="white" stroke-width="1.5" d="M0,-3.0v7 M-2.5,-0.5L0,-3.0L2.5,-0.5"/>
                </g>
                <g id="arrowDown" xlink:href="#dirArrow" transform="rotate(180) translate(-30 -48)" onmousedown="handlePan(0,1)">
                  <use xlink:href="#rim" fill="#404040">
                        <set attributeName="fill" to="#808080" begin="arrowDown.mouseover" end="arrowDown.mouseout"/>
                  </use>
                  <path fill="none" stroke="white" stroke-width="1.5" d="M0,-3.0v7 M-2.5,-0.5L0,-3.0L2.5,-0.5"/>
                </g>
                <g id="arrowLeft" xlink:href="#dirArrow" transform="rotate(270) translate(-36 17)" onmousedown="handlePan(-1,0)">
                  <use xlink:href="#rim" fill="#404040">
                        <set attributeName="fill" to="#808080" begin="arrowLeft.mouseover" end="arrowLeft.mouseout"/>
                  </use>
                  <path fill="none" stroke="white" stroke-width="1.5" d="M0,-3.0v7 M-2.5,-0.5L0,-3.0L2.5,-0.5"/>
                </g>
        </g>
        <svg viewBox="0 0 15 15" width="100%" height="30px" preserveAspectRatio="xMaxYMin meet">
         <g id="arrow_out" transform="scale(0.3 0.3)">
          <a xlink:href="class_svc_serial_command_interface_a42055ffe62395b2d4ee7ca7ef44f1a50_a42055ffe62395b2d4ee7ca7ef44f1a50_icgraph_org.svg" target="_base">
           <rect id="button" ry="5" rx="5" y="6" x="6" height="38" width="38"
                fill="#f2f5e9" fill-opacity="0.5" stroke="#606060" stroke-width="1.0"/>
           <path id="arrow"
             d="M 11.500037,31.436501 C 11.940474,20.09759 22.043105,11.32322 32.158766,21.979434 L 37.068811,17.246167 C 37.068811,17.246167 37.088388,32 37.088388,32 L 22.160133,31.978069 C 22.160133,31.978069 26.997745,27.140456 26.997745,27.140456 C 18.528582,18.264221 13.291696,25.230495 11.500037,31.436501 z"
             style="fill:#404040;"/>
          </a>
         </g>
        </svg>
</svg>
