<?xml version="1.0" encoding="UTF-8" standalone="no"?>
<!DOCTYPE svg PUBLIC "-//W3C//DTD SVG 1.1//EN"
 "http://www.w3.org/Graphics/SVG/1.1/DTD/svg11.dtd">
<!-- Generated by graphviz version 2.47.3 (20210619.1520)
 -->
<!-- Title: SvcSerialCommandInterface::requestStartLZ4Message Pages: 1 -->
<!--zoomable 428 -->
<svg id="main" version="1.1" xmlns="http://www.w3.org/2000/svg" xmlns:xlink="http://www.w3.org/1999/xlink" xml:space="preserve" onload="init(evt)">
<style type="text/css"><![CDATA[
.edge:hover path { stroke: red; }
.edge:hover polygon { stroke: red; fill: red; }
]]></style>
<script type="text/javascript"><![CDATA[
var edges = document.getElementsByTagName('g');
if (edges && edges.length) {
  for (var i=0;i<edges.length;i++) {
    if (edges[i].id.substr(0,4)=='edge') {
      edges[i].setAttribute('class','edge');
    }
  }
}
]]></script>
        <defs>
                <circle id="rim" cx="0" cy="0" r="7"/>
                <circle id="rim2" cx="0" cy="0" r="3.5"/>
                <g id="zoomPlus">
                        <use xlink:href="#rim" fill="#404040">
                                <set attributeName="fill" to="#808080" begin="zoomplus.mouseover" end="zoomplus.mouseout"/>
                        </use>
                        <path d="M-4,0h8M0,-4v8" fill="none" stroke="white" stroke-width="1.5" pointer-events="none"/>
                </g>
                <g id="zoomMin">
                        <use xlink:href="#rim" fill="#404040">
                                <set attributeName="fill" to="#808080" begin="zoomminus.mouseover" end="zoomminus.mouseout"/>
                        </use>
                        <path d="M-4,0h8" fill="none" stroke="white" stroke-width="1.5" pointer-events="none"/>
                </g>
                <g id="dirArrow">
                        <path fill="none" stroke="white" stroke-width="1.5" d="M0,-3.0v7 M-2.5,-0.5L0,-3.0L2.5,-0.5"/>
                </g>
               <g id="resetDef">
                       <use xlink:href="#rim2" fill="#404040">
                               <set attributeName="fill" to="#808080" begin="reset.mouseover" end="reset.mouseout"/>
                       </use>
               </g>
        </defs>

<script type="text/javascript">
var viewWidth = 1875;
var viewHeight = 428;
var sectionId = 'dynsection-1';
</script>
<script xlink:href="../../svgpan.js"/>
<svg id="graph" class="graph">
<g id="viewport">
<title>SvcSerialCommandInterface::requestStartLZ4Message</title>
<!-- Node1 -->
<g id="node1" class="node">
<title>Node1</title>
<g id="a_node1"><a xlink:title="request to start a lz4 compressed message &#160;starts the message and returns true if available returns f...">
<polygon fill="#bfbfbf" stroke="black" points="1410,-211.5 1410,-239.5 1867,-239.5 1867,-211.5 1410,-211.5"/>
<text text-anchor="middle" x="1638.5" y="-221.1" font-family="Helvetica,sans-Serif" font-size="18.00">SvcSerialCommandInterface::requestStartLZ4Message</text>
</a>
</g>
</g>
<!-- Node2 -->
<g id="node2" class="node">
<title>Node2</title>
<g id="a_node2"><a xlink:href="../../d4/dde/class_app_c_q_t_a5c33a48120697387e5435ae9d80aeb7c.html#a5c33a48120697387e5435ae9d80aeb7c" target="_top" xlink:title="receiver method for inter&#45;app string based communication">
<polygon fill="none" stroke="black" points="1009.5,-391.5 1009.5,-419.5 1242.5,-419.5 1242.5,-391.5 1009.5,-391.5"/>
<text text-anchor="middle" x="1126" y="-401.1" font-family="Helvetica,sans-Serif" font-size="18.00">AppCQT::messageHandler</text>
</a>
</g>
</g>
<!-- Node1&#45;&gt;Node2 -->
<g id="edge1" class="edge">
<title>Node1&#45;&gt;Node2</title>
<path fill="none" stroke="midnightblue" d="M1612.34,-245.82C1567.53,-280.73 1469.6,-351.34 1374,-382.5 1332.34,-396.08 1284.77,-402.5 1242.58,-405.3"/>
<polygon fill="midnightblue" stroke="midnightblue" points="1614.64,-248.47 1620.33,-239.53 1610.31,-242.97 1614.64,-248.47"/>
</g>
<!-- Node3 -->
<g id="node3" class="node">
<title>Node3</title>
<g id="a_node3"><a xlink:href="../../d2/da8/class_svc_serial_command_interface_ac2c567fea4e60fc5008287d8442571df.html#ac2c567fea4e60fc5008287d8442571df" target="_top" xlink:title=" ">
<polygon fill="none" stroke="black" points="878,-344.5 878,-372.5 1374,-372.5 1374,-344.5 878,-344.5"/>
<text text-anchor="middle" x="1126" y="-354.1" font-family="Helvetica,sans-Serif" font-size="18.00">SvcSerialCommandInterface::messageHandler_GET_RAM1</text>
</a>
</g>
</g>
<!-- Node1&#45;&gt;Node3 -->
<g id="edge2" class="edge">
<title>Node1&#45;&gt;Node3</title>
<path fill="none" stroke="midnightblue" d="M1599.9,-243.95C1549.68,-267.74 1457.34,-308.54 1374,-329.5 1349.19,-335.74 1322.63,-340.64 1296.47,-344.5"/>
<polygon fill="midnightblue" stroke="midnightblue" points="1601.55,-247.04 1609.07,-239.57 1598.54,-240.72 1601.55,-247.04"/>
</g>
<!-- Node4 -->
<g id="node4" class="node">
<title>Node4</title>
<g id="a_node4"><a xlink:href="../../d2/da8/class_svc_serial_command_interface_af993c07bcbc2bdb566c5660eeb31f1ca.html#af993c07bcbc2bdb566c5660eeb31f1ca" target="_top" xlink:title="update loop">
<polygon fill="none" stroke="black" points="531,-234.5 531,-262.5 842,-262.5 842,-234.5 531,-234.5"/>
<text text-anchor="middle" x="686.5" y="-244.1" font-family="Helvetica,sans-Serif" font-size="18.00">SvcSerialCommandInterface::update</text>
</a>
</g>
</g>
<!-- Node1&#45;&gt;Node4 -->
<g id="edge13" class="edge">
<title>Node1&#45;&gt;Node4</title>
<path fill="none" stroke="midnightblue" d="M1588.75,-242.79C1536.45,-260.35 1450.56,-286.37 1374,-296.5 1155.46,-325.43 1096.77,-323.64 878,-296.5 826.38,-290.1 768.66,-274.29 730.43,-262.55"/>
<polygon fill="midnightblue" stroke="midnightblue" points="1590.08,-246.03 1598.43,-239.51 1587.84,-239.41 1590.08,-246.03"/>
</g>
<!-- Node5 -->
<g id="node5" class="node">
<title>Node5</title>
<g id="a_node5"><a xlink:href="../../d2/da8/class_svc_serial_command_interface_a3ed6a8c2dffd4f26422f0655aa528b27.html#a3ed6a8c2dffd4f26422f0655aa528b27" target="_top" xlink:title=" ">
<polygon fill="none" stroke="black" points="878,-258.5 878,-286.5 1374,-286.5 1374,-258.5 878,-258.5"/>
<text text-anchor="middle" x="1126" y="-268.1" font-family="Helvetica,sans-Serif" font-size="18.00">SvcSerialCommandInterface::messageHandler_GET_RAM2</text>
</a>
</g>
</g>
<!-- Node1&#45;&gt;Node5 -->
<g id="edge4" class="edge">
<title>Node1&#45;&gt;Node5</title>
<path fill="none" stroke="midnightblue" d="M1475.37,-240.43C1412.61,-246.21 1341.13,-252.79 1279.33,-258.48"/>
<polygon fill="midnightblue" stroke="midnightblue" points="1475.73,-243.91 1485.37,-239.51 1475.09,-236.94 1475.73,-243.91"/>
</g>
<!-- Node6 -->
<g id="node6" class="node">
<title>Node6</title>
<g id="a_node6"><a xlink:href="../../dc/d43/class_svc_data_dictionary_a5d76aa4fdff94a92acf9a63bce1a6c2b.html#a5d76aa4fdff94a92acf9a63bce1a6c2b" target="_top" xlink:title="prints the dictionary to the SvcSerialCommandInterface">
<polygon fill="none" stroke="black" points="981.5,-211.5 981.5,-239.5 1270.5,-239.5 1270.5,-211.5 981.5,-211.5"/>
<text text-anchor="middle" x="1126" y="-221.1" font-family="Helvetica,sans-Serif" font-size="18.00">SvcDataDictionary::printDictionary</text>
</a>
</g>
</g>
<!-- Node1&#45;&gt;Node6 -->
<g id="edge6" class="edge">
<title>Node1&#45;&gt;Node6</title>
<path fill="none" stroke="midnightblue" d="M1399.59,-225.5C1355.55,-225.5 1310.81,-225.5 1270.65,-225.5"/>
<polygon fill="midnightblue" stroke="midnightblue" points="1399.87,-229 1409.87,-225.5 1399.87,-222 1399.87,-229"/>
</g>
<!-- Node7 -->
<g id="node7" class="node">
<title>Node7</title>
<g id="a_node7"><a xlink:href="../../da/d96/class_app_manager_a648bf66164619cfcc0f0b41e7b3a022f.html#a648bf66164619cfcc0f0b41e7b3a022f" target="_top" xlink:title="prints out some stats in JSON format to the serial port">
<polygon fill="none" stroke="black" points="1022.5,-164.5 1022.5,-192.5 1229.5,-192.5 1229.5,-164.5 1022.5,-164.5"/>
<text text-anchor="middle" x="1126" y="-174.1" font-family="Helvetica,sans-Serif" font-size="18.00">AppManager::printStats</text>
</a>
</g>
</g>
<!-- Node1&#45;&gt;Node7 -->
<g id="edge8" class="edge">
<title>Node1&#45;&gt;Node7</title>
<path fill="none" stroke="midnightblue" d="M1475.13,-210.55C1394.65,-203.14 1299.91,-194.42 1229.6,-187.95"/>
<polygon fill="midnightblue" stroke="midnightblue" points="1475.09,-214.06 1485.37,-211.49 1475.73,-207.09 1475.09,-214.06"/>
</g>
<!-- Node8 -->
<g id="node8" class="node">
<title>Node8</title>
<g id="a_node8"><a xlink:href="../../d8/d1c/class_audio_director_a0e1e6093fa5c9c76f11483ac5c9cc776.html#a0e1e6093fa5c9c76f11483ac5c9cc776" target="_top" xlink:title=" ">
<polygon fill="none" stroke="black" points="1020,-117.5 1020,-145.5 1232,-145.5 1232,-117.5 1020,-117.5"/>
<text text-anchor="middle" x="1126" y="-127.1" font-family="Helvetica,sans-Serif" font-size="18.00">AudioDirector::printStats</text>
</a>
</g>
</g>
<!-- Node1&#45;&gt;Node8 -->
<g id="edge10" class="edge">
<title>Node1&#45;&gt;Node8</title>
<path fill="none" stroke="midnightblue" d="M1583.41,-208.36C1530.54,-192.27 1447.52,-168.75 1374,-155.5 1327.78,-147.17 1276.14,-141.59 1232.08,-137.92"/>
<polygon fill="midnightblue" stroke="midnightblue" points="1582.65,-211.79 1593.24,-211.37 1584.7,-205.09 1582.65,-211.79"/>
</g>
<!-- Node9 -->
<g id="node9" class="node">
<title>Node9</title>
<g id="a_node9"><a xlink:href="../../d4/dde/class_app_c_q_t_aed18661c211e72751dec7dbfe1199f76.html#aed18661c211e72751dec7dbfe1199f76" target="_top" xlink:title="render loop">
<polygon fill="none" stroke="black" points="1051.5,-70.5 1051.5,-98.5 1200.5,-98.5 1200.5,-70.5 1051.5,-70.5"/>
<text text-anchor="middle" x="1126" y="-80.1" font-family="Helvetica,sans-Serif" font-size="18.00">AppCQT::render</text>
</a>
</g>
</g>
<!-- Node1&#45;&gt;Node9 -->
<g id="edge12" class="edge">
<title>Node1&#45;&gt;Node9</title>
<path fill="none" stroke="midnightblue" d="M1604.2,-206.5C1555.41,-179.66 1460.86,-131.36 1374,-108.5 1317.02,-93.5 1250.44,-87.68 1200.77,-85.51"/>
<polygon fill="midnightblue" stroke="midnightblue" points="1602.6,-209.62 1613.05,-211.41 1606,-203.5 1602.6,-209.62"/>
</g>
<!-- Node10 -->
<g id="node10" class="node">
<title>Node10</title>
<g id="a_node10"><a xlink:href="../../d7/d7e/_app_wren_8cpp_ad0c26c660738b28a098f1400caef81e2.html#ad0c26c660738b28a098f1400caef81e2" target="_top" xlink:title="write function system callback for the Wren VM. Stdout/Stderr is Serial">
<polygon fill="none" stroke="black" points="1088,-23.5 1088,-51.5 1164,-51.5 1164,-23.5 1088,-23.5"/>
<text text-anchor="middle" x="1126" y="-33.1" font-family="Helvetica,sans-Serif" font-size="18.00">writeFn</text>
</a>
</g>
</g>
<!-- Node1&#45;&gt;Node10 -->
<g id="edge14" class="edge">
<title>Node1&#45;&gt;Node10</title>
<path fill="none" stroke="midnightblue" d="M1613.16,-204.84C1568.9,-168.6 1470.84,-94.32 1374,-61.5 1302.59,-37.3 1213.39,-34.97 1164.09,-35.92"/>
<polygon fill="midnightblue" stroke="midnightblue" points="1611.1,-207.67 1621.03,-211.35 1615.56,-202.28 1611.1,-207.67"/>
</g>
<!-- Node3&#45;&gt;Node4 -->
<g id="edge3" class="edge">
<title>Node3&#45;&gt;Node4</title>
<path fill="none" stroke="midnightblue" d="M941.5,-342.88C919.92,-339.3 898.36,-334.9 878,-329.5 816.87,-313.27 749.75,-281.07 713.77,-262.53"/>
<polygon fill="midnightblue" stroke="midnightblue" points="940.98,-346.34 951.41,-344.47 942.09,-339.43 940.98,-346.34"/>
</g>
<!-- Node5&#45;&gt;Node4 -->
<g id="edge5" class="edge">
<title>Node5&#45;&gt;Node4</title>
<path fill="none" stroke="midnightblue" d="M867.63,-258.38C858.99,-257.91 850.43,-257.44 842.01,-256.98"/>
<polygon fill="midnightblue" stroke="midnightblue" points="867.63,-261.89 877.8,-258.94 868.01,-254.9 867.63,-261.89"/>
</g>
<!-- Node6&#45;&gt;Node4 -->
<g id="edge7" class="edge">
<title>Node6&#45;&gt;Node4</title>
<path fill="none" stroke="midnightblue" d="M971.44,-233.57C929.55,-235.78 884.14,-238.16 842.19,-240.37"/>
<polygon fill="midnightblue" stroke="midnightblue" points="971.64,-237.07 981.44,-233.05 971.27,-230.08 971.64,-237.07"/>
</g>
<!-- Node7&#45;&gt;Node4 -->
<g id="edge9" class="edge">
<title>Node7&#45;&gt;Node4</title>
<path fill="none" stroke="midnightblue" d="M1012.38,-186.1C970.07,-189.83 921.66,-195.15 878,-202.5 829.69,-210.64 775.45,-224.18 737.24,-234.46"/>
<polygon fill="midnightblue" stroke="midnightblue" points="1012.77,-189.58 1022.43,-185.23 1012.17,-182.6 1012.77,-189.58"/>
</g>
<!-- Node8&#45;&gt;Node4 -->
<g id="edge11" class="edge">
<title>Node8&#45;&gt;Node4</title>
<path fill="none" stroke="midnightblue" d="M1009.81,-134.16C967.72,-137.36 920.12,-143.59 878,-155.5 813.37,-173.77 744.07,-213.26 709.61,-234.42"/>
<polygon fill="midnightblue" stroke="midnightblue" points="1010.09,-137.65 1019.82,-133.45 1009.59,-130.67 1010.09,-137.65"/>
</g>
<!-- Node11 -->
<g id="node11" class="node">
<title>Node11</title>
<g id="a_node11"><a xlink:href="../../d0/da0/class_app_wren_a0b139e8eac17bd02ffaff68532c3e4fc.html#a0b139e8eac17bd02ffaff68532c3e4fc" target="_top" xlink:title="start the VM">
<polygon fill="none" stroke="black" points="604.5,-23.5 604.5,-51.5 768.5,-51.5 768.5,-23.5 604.5,-23.5"/>
<text text-anchor="middle" x="686.5" y="-33.1" font-family="Helvetica,sans-Serif" font-size="18.00">AppWren::startVM</text>
</a>
</g>
</g>
<!-- Node10&#45;&gt;Node11 -->
<g id="edge15" class="edge">
<title>Node10&#45;&gt;Node11</title>
<path fill="none" stroke="midnightblue" d="M1077.29,-37.5C1003.19,-37.5 859.55,-37.5 768.86,-37.5"/>
<polygon fill="midnightblue" stroke="midnightblue" points="1077.7,-41 1087.7,-37.5 1077.7,-34 1077.7,-41"/>
</g>
<!-- Node12 -->
<g id="node12" class="node">
<title>Node12</title>
<g id="a_node12"><a xlink:href="../../d0/da0/class_app_wren_aedf9a5e77ba482fde47e52125e9ca292.html#aedf9a5e77ba482fde47e52125e9ca292" target="_top" xlink:title="shutsdown then starts the VM">
<polygon fill="none" stroke="black" points="295.5,-47.5 295.5,-75.5 474.5,-75.5 474.5,-47.5 295.5,-47.5"/>
<text text-anchor="middle" x="385" y="-57.1" font-family="Helvetica,sans-Serif" font-size="18.00">AppWren::restartVM</text>
</a>
</g>
</g>
<!-- Node11&#45;&gt;Node12 -->
<g id="edge16" class="edge">
<title>Node11&#45;&gt;Node12</title>
<path fill="none" stroke="midnightblue" d="M594.42,-44.8C556.44,-47.84 512.48,-51.36 474.75,-54.39"/>
<polygon fill="midnightblue" stroke="midnightblue" points="594.76,-48.28 604.45,-43.99 594.2,-41.3 594.76,-48.28"/>
</g>
<!-- Node15 -->
<g id="node15" class="node">
<title>Node15</title>
<g id="a_node15"><a xlink:href="../../d0/da0/class_app_wren_aeb6716ec79e8c30f26c0b9009e750e4c.html#aeb6716ec79e8c30f26c0b9009e750e4c" target="_top" xlink:title="start, load and configure the handles of the VM">
<polygon fill="none" stroke="black" points="275,-0.5 275,-28.5 495,-28.5 495,-0.5 275,-0.5"/>
<text text-anchor="middle" x="385" y="-10.1" font-family="Helvetica,sans-Serif" font-size="18.00">AppWren::vmConstructor</text>
</a>
</g>
</g>
<!-- Node11&#45;&gt;Node15 -->
<g id="edge19" class="edge">
<title>Node11&#45;&gt;Node15</title>
<path fill="none" stroke="midnightblue" d="M594.44,-30.51C563.16,-28.1 527.81,-25.39 495.24,-22.89"/>
<polygon fill="midnightblue" stroke="midnightblue" points="594.21,-34 604.45,-31.28 594.75,-27.02 594.21,-34"/>
</g>
<!-- Node13 -->
<g id="node13" class="node">
<title>Node13</title>
<g id="a_node13"><a xlink:href="../../d0/da0/class_app_wren_aaa5357f4f5b7d4ffdd9f804e95d4a8e9.html#aaa5357f4f5b7d4ffdd9f804e95d4a8e9" target="_top" xlink:title="handles messages from other sw components">
<polygon fill="none" stroke="black" points="0,-94.5 0,-122.5 239,-122.5 239,-94.5 0,-94.5"/>
<text text-anchor="middle" x="119.5" y="-104.1" font-family="Helvetica,sans-Serif" font-size="18.00">AppWren::messageHandler</text>
</a>
</g>
</g>
<!-- Node12&#45;&gt;Node13 -->
<g id="edge17" class="edge">
<title>Node12&#45;&gt;Node13</title>
<path fill="none" stroke="midnightblue" d="M295.33,-77.32C264.22,-82.87 229.5,-89.06 199.25,-94.45"/>
<polygon fill="midnightblue" stroke="midnightblue" points="296.07,-80.74 305.3,-75.54 294.84,-73.85 296.07,-80.74"/>
</g>
<!-- Node14 -->
<g id="node14" class="node">
<title>Node14</title>
<g id="a_node14"><a xlink:href="../../d0/da0/class_app_wren_a14a1f7886fa9338a1eedebf1d0c6768e.html#a14a1f7886fa9338a1eedebf1d0c6768e" target="_top" xlink:title="class specific update implementation">
<polygon fill="none" stroke="black" points="42,-47.5 42,-75.5 197,-75.5 197,-47.5 42,-47.5"/>
<text text-anchor="middle" x="119.5" y="-57.1" font-family="Helvetica,sans-Serif" font-size="18.00">AppWren::render</text>
</a>
</g>
</g>
<!-- Node12&#45;&gt;Node14 -->
<g id="edge18" class="edge">
<title>Node12&#45;&gt;Node14</title>
<path fill="none" stroke="midnightblue" d="M284.97,-61.5C255.88,-61.5 224.52,-61.5 197.07,-61.5"/>
<polygon fill="midnightblue" stroke="midnightblue" points="285.16,-65 295.16,-61.5 285.16,-58 285.16,-65"/>
</g>
<!-- Node16 -->
<g id="node16" class="node">
<title>Node16</title>
<g id="a_node16"><a xlink:href="../../d0/da0/class_app_wren_aa63148d0906a6b5eabbba7058f568eae.html#aa63148d0906a6b5eabbba7058f568eae" target="_top" xlink:title=" ">
<polygon fill="none" stroke="black" points="30,-0.5 30,-28.5 209,-28.5 209,-0.5 30,-0.5"/>
<text text-anchor="middle" x="119.5" y="-10.1" font-family="Helvetica,sans-Serif" font-size="18.00">AppWren::AppWren</text>
</a>
</g>
</g>
<!-- Node15&#45;&gt;Node16 -->
<g id="edge20" class="edge">
<title>Node15&#45;&gt;Node16</title>
<path fill="none" stroke="midnightblue" d="M264.84,-14.5C246.07,-14.5 226.95,-14.5 209.03,-14.5"/>
<polygon fill="midnightblue" stroke="midnightblue" points="264.92,-18 274.92,-14.5 264.92,-11 264.92,-18"/>
</g>
</g>
</svg>
        <g id="navigator" transform="translate(0 0)" fill="#404254">
                <rect fill="#f2f5e9" fill-opacity="0.5" stroke="#606060" stroke-width=".5" x="0" y="0" width="60" height="60"/>
                <use id="zoomplus" xlink:href="#zoomPlus" x="17" y="9" onmousedown="handleZoom(evt,'in')"/>
                <use id="zoomminus" xlink:href="#zoomMin" x="42" y="9" onmousedown="handleZoom(evt,'out')"/>
                <use id="reset" xlink:href="#resetDef" x="30" y="36" onmousedown="handleReset()"/>
                <g id="arrowUp" xlink:href="#dirArrow" transform="translate(30 24)" onmousedown="handlePan(0,-1)">
                  <use xlink:href="#rim" fill="#404040">
                        <set attributeName="fill" to="#808080" begin="arrowUp.mouseover" end="arrowUp.mouseout"/>
                  </use>
                  <path fill="none" stroke="white" stroke-width="1.5" d="M0,-3.0v7 M-2.5,-0.5L0,-3.0L2.5,-0.5"/>
                </g>
                <g id="arrowRight" xlink:href="#dirArrow" transform="rotate(90) translate(36 -43)" onmousedown="handlePan(1,0)">
                  <use xlink:href="#rim" fill="#404040">
                        <set attributeName="fill" to="#808080" begin="arrowRight.mouseover" end="arrowRight.mouseout"/>
                  </use>
                  <path fill="none" stroke="white" stroke-width="1.5" d="M0,-3.0v7 M-2.5,-0.5L0,-3.0L2.5,-0.5"/>
                </g>
                <g id="arrowDown" xlink:href="#dirArrow" transform="rotate(180) translate(-30 -48)" onmousedown="handlePan(0,1)">
                  <use xlink:href="#rim" fill="#404040">
                        <set attributeName="fill" to="#808080" begin="arrowDown.mouseover" end="arrowDown.mouseout"/>
                  </use>
                  <path fill="none" stroke="white" stroke-width="1.5" d="M0,-3.0v7 M-2.5,-0.5L0,-3.0L2.5,-0.5"/>
                </g>
                <g id="arrowLeft" xlink:href="#dirArrow" transform="rotate(270) translate(-36 17)" onmousedown="handlePan(-1,0)">
                  <use xlink:href="#rim" fill="#404040">
                        <set attributeName="fill" to="#808080" begin="arrowLeft.mouseover" end="arrowLeft.mouseout"/>
                  </use>
                  <path fill="none" stroke="white" stroke-width="1.5" d="M0,-3.0v7 M-2.5,-0.5L0,-3.0L2.5,-0.5"/>
                </g>
        </g>
        <svg viewBox="0 0 15 15" width="100%" height="30px" preserveAspectRatio="xMaxYMin meet">
         <g id="arrow_out" transform="scale(0.3 0.3)">
          <a xlink:href="class_svc_serial_command_interface_a0793f597a16bd5e1b99084354ac0415e_a0793f597a16bd5e1b99084354ac0415e_icgraph_org.svg" target="_base">
           <rect id="button" ry="5" rx="5" y="6" x="6" height="38" width="38"
                fill="#f2f5e9" fill-opacity="0.5" stroke="#606060" stroke-width="1.0"/>
           <path id="arrow"
             d="M 11.500037,31.436501 C 11.940474,20.09759 22.043105,11.32322 32.158766,21.979434 L 37.068811,17.246167 C 37.068811,17.246167 37.088388,32 37.088388,32 L 22.160133,31.978069 C 22.160133,31.978069 26.997745,27.140456 26.997745,27.140456 C 18.528582,18.264221 13.291696,25.230495 11.500037,31.436501 z"
             style="fill:#404040;"/>
          </a>
         </g>
        </svg>
</svg>
