<?xml version="1.0" encoding="UTF-8" standalone="no"?>
<!DOCTYPE svg PUBLIC "-//W3C//DTD SVG 1.1//EN"
 "http://www.w3.org/Graphics/SVG/1.1/DTD/svg11.dtd">
<!-- Generated by graphviz version 2.47.3 (20210619.1520)
 -->
<!-- Title: SvcSerialCommandInterface::messageHandler_LS Pages: 1 -->
<svg width="1945pt" height="174pt"
 viewBox="0.00 0.00 1945.00 174.00" xmlns="http://www.w3.org/2000/svg" xmlns:xlink="http://www.w3.org/1999/xlink">
<g id="graph0" class="graph" transform="scale(1 1) rotate(0) translate(4 170)">
<title>SvcSerialCommandInterface::messageHandler_LS</title>
<!-- Node1 -->
<g id="node1" class="node">
<title>Node1</title>
<g id="a_node1"><a xlink:title=" ">
<polygon fill="#bfbfbf" stroke="black" points="0,-66.5 0,-94.5 423,-94.5 423,-66.5 0,-66.5"/>
<text text-anchor="middle" x="211.5" y="-76.1" font-family="Helvetica,sans-Serif" font-size="18.00">SvcSerialCommandInterface::messageHandler_LS</text>
</a>
</g>
</g>
<!-- Node2 -->
<g id="node2" class="node">
<title>Node2</title>
<g id="a_node2"><a xlink:href="../../d2/da8/class_svc_serial_command_interface_a809cc3d22320bdd8c54044e278e188f0.html#a809cc3d22320bdd8c54044e278e188f0" target="_top" xlink:title="zero out the transmit buffer and reset the write index">
<polygon fill="none" stroke="black" points="459,-137.5 459,-165.5 764,-165.5 764,-137.5 459,-137.5"/>
<text text-anchor="middle" x="611.5" y="-147.1" font-family="Helvetica,sans-Serif" font-size="18.00">SvcSerialCommandInterface::empty</text>
</a>
</g>
</g>
<!-- Node1&#45;&gt;Node2 -->
<g id="edge1" class="edge">
<title>Node1&#45;&gt;Node2</title>
<path fill="none" stroke="midnightblue" d="M280.37,-94.51C329.8,-104.51 398.43,-118.01 459,-128.5 473.51,-131.01 488.84,-133.52 503.94,-135.89"/>
<polygon fill="midnightblue" stroke="midnightblue" points="503.4,-139.35 513.82,-137.44 504.48,-132.44 503.4,-139.35"/>
</g>
<!-- Node3 -->
<g id="node3" class="node">
<title>Node3</title>
<g id="a_node3"><a xlink:href="../../da/d7d/_svc_serial_command_interface_8cpp_af5c7749f4e4c2151747c91cc0ca99b9b.html#af5c7749f4e4c2151747c91cc0ca99b9b" target="_top" xlink:title=" ">
<polygon fill="none" stroke="black" points="556,-90.5 556,-118.5 667,-118.5 667,-90.5 556,-90.5"/>
<text text-anchor="middle" x="611.5" y="-100.1" font-family="Helvetica,sans-Serif" font-size="18.00">replacechar</text>
</a>
</g>
</g>
<!-- Node1&#45;&gt;Node3 -->
<g id="edge2" class="edge">
<title>Node1&#45;&gt;Node3</title>
<path fill="none" stroke="midnightblue" d="M423.15,-93.2C467.76,-95.89 511.59,-98.54 545.63,-100.59"/>
<polygon fill="midnightblue" stroke="midnightblue" points="545.67,-104.1 555.86,-101.21 546.09,-97.11 545.67,-104.1"/>
</g>
<!-- Node4 -->
<g id="node4" class="node">
<title>Node4</title>
<g id="a_node4"><a xlink:href="../../d2/da8/class_svc_serial_command_interface_a17d6da9f56cc7f1734d6b0ab78e420ca.html#a17d6da9f56cc7f1734d6b0ab78e420ca" target="_top" xlink:title="immediately transmit then clear the txBuffer">
<polygon fill="none" stroke="black" points="464,-43.5 464,-71.5 759,-71.5 759,-43.5 464,-43.5"/>
<text text-anchor="middle" x="611.5" y="-53.1" font-family="Helvetica,sans-Serif" font-size="18.00">SvcSerialCommandInterface::send</text>
</a>
</g>
</g>
<!-- Node1&#45;&gt;Node4 -->
<g id="edge3" class="edge">
<title>Node1&#45;&gt;Node4</title>
<path fill="none" stroke="midnightblue" d="M423.15,-68.33C433.43,-67.73 443.67,-67.14 453.76,-66.56"/>
<polygon fill="midnightblue" stroke="midnightblue" points="454,-70.05 463.79,-65.98 453.6,-63.06 454,-70.05"/>
</g>
<!-- Node5 -->
<g id="node5" class="node">
<title>Node5</title>
<g id="a_node5"><a xlink:href="../../d2/da8/class_svc_serial_command_interface_a0bf93d9b4e8fbc4f7ed89e908fc47e47.html#a0bf93d9b4e8fbc4f7ed89e908fc47e47" target="_top" xlink:title="returns true if the available serial buffer falls below SERIAL_THROTTLE_BUFFER_REMAINING_THRESHOLD if...">
<polygon fill="none" stroke="black" points="800,-21.5 800,-49.5 1111,-49.5 1111,-21.5 800,-21.5"/>
<text text-anchor="middle" x="955.5" y="-31.1" font-family="Helvetica,sans-Serif" font-size="18.00">SvcSerialCommandInterface::throttle</text>
</a>
</g>
</g>
<!-- Node1&#45;&gt;Node5 -->
<g id="edge10" class="edge">
<title>Node1&#45;&gt;Node5</title>
<path fill="none" stroke="midnightblue" d="M269.83,-66.39C319.51,-54.93 393.51,-39.69 459,-33.5 593.95,-20.75 628.45,-32.79 764,-33.5 772.38,-33.54 780.97,-33.6 789.64,-33.66"/>
<polygon fill="midnightblue" stroke="midnightblue" points="789.82,-37.16 799.85,-33.74 789.88,-30.16 789.82,-37.16"/>
</g>
<!-- Node4&#45;&gt;Node5 -->
<g id="edge4" class="edge">
<title>Node4&#45;&gt;Node5</title>
<path fill="none" stroke="midnightblue" d="M759.03,-48.07C769.16,-47.42 779.4,-46.76 789.62,-46.11"/>
<polygon fill="midnightblue" stroke="midnightblue" points="790.07,-49.58 799.82,-45.45 789.62,-42.6 790.07,-49.58"/>
</g>
<!-- Node6 -->
<g id="node6" class="node">
<title>Node6</title>
<g id="a_node6"><a xlink:href="../../dc/d43/class_svc_data_dictionary_aab72733da062e89f277308ca64daf300.html#aab72733da062e89f277308ca64daf300" target="_top" xlink:title="increments the value of a global record &#160;creates a new record if one does not exist and &#160;initalizes i...">
<polygon fill="none" stroke="black" points="1147,-21.5 1147,-49.5 1400,-49.5 1400,-21.5 1147,-21.5"/>
<text text-anchor="middle" x="1273.5" y="-31.1" font-family="Helvetica,sans-Serif" font-size="18.00">SvcDataDictionary::increment</text>
</a>
</g>
</g>
<!-- Node5&#45;&gt;Node6 -->
<g id="edge5" class="edge">
<title>Node5&#45;&gt;Node6</title>
<path fill="none" stroke="midnightblue" d="M1111.26,-35.5C1119.71,-35.5 1128.17,-35.5 1136.55,-35.5"/>
<polygon fill="midnightblue" stroke="midnightblue" points="1136.72,-39 1146.72,-35.5 1136.72,-32 1136.72,-39"/>
</g>
<!-- Node7 -->
<g id="node7" class="node">
<title>Node7</title>
<g id="a_node7"><a xlink:href="../../dc/d43/class_svc_data_dictionary_a3b09dc582adbb4d5c6f99f6e983a81f1.html#a3b09dc582adbb4d5c6f99f6e983a81f1" target="_top" xlink:title="create a record with ownership">
<polygon fill="none" stroke="black" points="1436,-43.5 1436,-71.5 1659,-71.5 1659,-43.5 1436,-43.5"/>
<text text-anchor="middle" x="1547.5" y="-53.1" font-family="Helvetica,sans-Serif" font-size="18.00">SvcDataDictionary::create</text>
</a>
</g>
</g>
<!-- Node6&#45;&gt;Node7 -->
<g id="edge6" class="edge">
<title>Node6&#45;&gt;Node7</title>
<path fill="none" stroke="midnightblue" d="M1400.15,-45.66C1408.56,-46.34 1417.03,-47.03 1425.41,-47.71"/>
<polygon fill="midnightblue" stroke="midnightblue" points="1425.35,-51.21 1435.6,-48.53 1425.91,-44.24 1425.35,-51.21"/>
</g>
<!-- Node9 -->
<g id="node9" class="node">
<title>Node9</title>
<g id="a_node9"><a xlink:href="../../dc/d43/class_svc_data_dictionary_ac4b80e87e8e9cf82926af2105b4e424a.html#ac4b80e87e8e9cf82926af2105b4e424a" target="_top" xlink:title="hashing function used to accelerate searches">
<polygon fill="none" stroke="black" points="1709.5,-0.5 1709.5,-28.5 1922.5,-28.5 1922.5,-0.5 1709.5,-0.5"/>
<text text-anchor="middle" x="1816" y="-10.1" font-family="Helvetica,sans-Serif" font-size="18.00">SvcDataDictionary::hash</text>
</a>
</g>
</g>
<!-- Node6&#45;&gt;Node9 -->
<g id="edge9" class="edge">
<title>Node6&#45;&gt;Node9</title>
<path fill="none" stroke="midnightblue" d="M1400.2,-30.62C1490.45,-27.11 1611.17,-22.42 1699.1,-19"/>
<polygon fill="midnightblue" stroke="midnightblue" points="1699.26,-22.5 1709.11,-18.61 1698.98,-15.5 1699.26,-22.5"/>
</g>
<!-- Node8 -->
<g id="node8" class="node">
<title>Node8</title>
<g id="a_node8"><a xlink:href="../../dc/d43/class_svc_data_dictionary_a7c7bd48b97fbcf18ef64337e12022619.html#a7c7bd48b97fbcf18ef64337e12022619" target="_top" xlink:title=" ">
<polygon fill="none" stroke="black" points="1695,-47.5 1695,-75.5 1937,-75.5 1937,-47.5 1695,-47.5"/>
<text text-anchor="middle" x="1816" y="-57.1" font-family="Helvetica,sans-Serif" font-size="18.00">SvcDataDictionary::copyKey</text>
</a>
</g>
</g>
<!-- Node7&#45;&gt;Node8 -->
<g id="edge7" class="edge">
<title>Node7&#45;&gt;Node8</title>
<path fill="none" stroke="midnightblue" d="M1659.2,-59.16C1667.63,-59.29 1676.19,-59.42 1684.72,-59.54"/>
<polygon fill="midnightblue" stroke="midnightblue" points="1684.68,-63.04 1694.73,-59.69 1684.78,-56.04 1684.68,-63.04"/>
</g>
<!-- Node7&#45;&gt;Node9 -->
<g id="edge8" class="edge">
<title>Node7&#45;&gt;Node9</title>
<path fill="none" stroke="midnightblue" d="M1635.39,-43.48C1661.91,-39.2 1691.22,-34.47 1718.34,-30.1"/>
<polygon fill="midnightblue" stroke="midnightblue" points="1718.91,-33.55 1728.22,-28.5 1717.79,-26.64 1718.91,-33.55"/>
</g>
</g>
</svg>
