<?xml version="1.0" encoding="UTF-8" standalone="no"?>
<!DOCTYPE svg PUBLIC "-//W3C//DTD SVG 1.1//EN"
 "http://www.w3.org/Graphics/SVG/1.1/DTD/svg11.dtd">
<!-- Generated by graphviz version 2.47.3 (20210619.1520)
 -->
<!-- Title: erisAudioAnalyzeFFT1024::reset Pages: 1 -->
<svg width="529pt" height="202pt"
 viewBox="0.00 0.00 529.00 202.00" xmlns="http://www.w3.org/2000/svg" xmlns:xlink="http://www.w3.org/1999/xlink">
<g id="graph0" class="graph" transform="scale(1 1) rotate(0) translate(4 198)">
<title>erisAudioAnalyzeFFT1024::reset</title>
<polygon fill="white" stroke="transparent" points="-4,4 -4,-198 525,-198 525,4 -4,4"/>
<!-- Node1 -->
<g id="node1" class="node">
<title>Node1</title>
<g id="a_node1"><a xlink:title=" ">
<polygon fill="#bfbfbf" stroke="black" points="365,-79.5 365,-113.5 521,-113.5 521,-79.5 365,-79.5"/>
<text text-anchor="start" x="373" y="-99.9" font-family="Helvetica,sans-Serif" font-size="12.00">erisAudioAnalyzeFFT1024</text>
<text text-anchor="middle" x="443" y="-86.9" font-family="Helvetica,sans-Serif" font-size="12.00">::reset</text>
</a>
</g>
</g>
<!-- Node2 -->
<g id="node2" class="node">
<title>Node2</title>
<g id="a_node2"><a xlink:href="../../d0/d55/classeris_audio_analyze_f_f_t1024.html#aaca8ebf5c8987cfcfaee069bbe779720" target="_top" xlink:title=" ">
<polygon fill="white" stroke="black" points="173,-159.5 173,-193.5 329,-193.5 329,-159.5 173,-159.5"/>
<text text-anchor="start" x="181" y="-179.9" font-family="Helvetica,sans-Serif" font-size="12.00">erisAudioAnalyzeFFT1024</text>
<text text-anchor="middle" x="251" y="-166.9" font-family="Helvetica,sans-Serif" font-size="12.00">::configSubsample</text>
</a>
</g>
</g>
<!-- Node1&#45;&gt;Node2 -->
<g id="edge1" class="edge">
<title>Node1&#45;&gt;Node2</title>
<path fill="none" stroke="midnightblue" d="M399.87,-118.12C378.84,-128.52 352.87,-140.81 329,-150.5 321.42,-153.58 313.32,-156.6 305.33,-159.42"/>
<polygon fill="midnightblue" stroke="midnightblue" points="401.46,-121.23 408.85,-113.64 398.34,-114.97 401.46,-121.23"/>
</g>
<!-- Node3 -->
<g id="node3" class="node">
<title>Node3</title>
<g id="a_node3"><a xlink:href="../../d0/d55/classeris_audio_analyze_f_f_t1024.html#a755081ed295a0ae6385db5dad48c6de1" target="_top" xlink:title=" ">
<polygon fill="white" stroke="black" points="173,-106.5 173,-140.5 329,-140.5 329,-106.5 173,-106.5"/>
<text text-anchor="start" x="181" y="-126.9" font-family="Helvetica,sans-Serif" font-size="12.00">erisAudioAnalyzeFFT1024</text>
<text text-anchor="middle" x="251" y="-113.9" font-family="Helvetica,sans-Serif" font-size="12.00">::enableFFT</text>
</a>
</g>
</g>
<!-- Node1&#45;&gt;Node3 -->
<g id="edge2" class="edge">
<title>Node1&#45;&gt;Node3</title>
<path fill="none" stroke="midnightblue" d="M354.94,-108.87C346.32,-110.1 337.62,-111.33 329.12,-112.54"/>
<polygon fill="midnightblue" stroke="midnightblue" points="355.59,-112.32 364.99,-107.44 354.6,-105.38 355.59,-112.32"/>
</g>
<!-- Node7 -->
<g id="node7" class="node">
<title>Node7</title>
<g id="a_node7"><a xlink:href="../../d0/d55/classeris_audio_analyze_f_f_t1024.html#aaee68161bece8d59cc3fcb02154d8822" target="_top" xlink:title=" ">
<polygon fill="white" stroke="black" points="173,-53.5 173,-87.5 329,-87.5 329,-53.5 173,-53.5"/>
<text text-anchor="start" x="181" y="-73.9" font-family="Helvetica,sans-Serif" font-size="12.00">erisAudioAnalyzeFFT1024</text>
<text text-anchor="middle" x="251" y="-60.9" font-family="Helvetica,sans-Serif" font-size="12.00">::setActiveRange</text>
</a>
</g>
</g>
<!-- Node1&#45;&gt;Node7 -->
<g id="edge6" class="edge">
<title>Node1&#45;&gt;Node7</title>
<path fill="none" stroke="midnightblue" d="M354.94,-84.59C346.32,-83.41 337.62,-82.22 329.12,-81.05"/>
<polygon fill="midnightblue" stroke="midnightblue" points="354.61,-88.07 364.99,-85.96 355.56,-81.14 354.61,-88.07"/>
</g>
<!-- Node8 -->
<g id="node8" class="node">
<title>Node8</title>
<g id="a_node8"><a xlink:href="../../d0/d55/classeris_audio_analyze_f_f_t1024.html#a5fad2b0d286d2ba6e7236b403dab81d6" target="_top" xlink:title=" ">
<polygon fill="white" stroke="black" points="173,-0.5 173,-34.5 329,-34.5 329,-0.5 173,-0.5"/>
<text text-anchor="start" x="181" y="-20.9" font-family="Helvetica,sans-Serif" font-size="12.00">erisAudioAnalyzeFFT1024</text>
<text text-anchor="middle" x="251" y="-7.9" font-family="Helvetica,sans-Serif" font-size="12.00">::toggleActiveRange</text>
</a>
</g>
</g>
<!-- Node1&#45;&gt;Node8 -->
<g id="edge7" class="edge">
<title>Node1&#45;&gt;Node8</title>
<path fill="none" stroke="midnightblue" d="M398.06,-75.11C377.31,-65.32 352.09,-53.84 329,-44.5 320.59,-41.1 311.58,-37.71 302.79,-34.55"/>
<polygon fill="midnightblue" stroke="midnightblue" points="396.72,-78.35 407.25,-79.48 399.72,-72.03 396.72,-78.35"/>
</g>
<!-- Node4 -->
<g id="node4" class="node">
<title>Node4</title>
<g id="a_node4"><a xlink:href="../../d4/dde/class_app_c_q_t.html#a587bd3e6103103694f01f420aeb02a70" target="_top" xlink:title=" ">
<polygon fill="white" stroke="black" points="10.5,-40 10.5,-61 126.5,-61 126.5,-40 10.5,-40"/>
<text text-anchor="middle" x="68.5" y="-47.4" font-family="Helvetica,sans-Serif" font-size="12.00">AppCQT::AppCQT</text>
</a>
</g>
</g>
<!-- Node3&#45;&gt;Node4 -->
<g id="edge3" class="edge">
<title>Node3&#45;&gt;Node4</title>
<path fill="none" stroke="midnightblue" d="M187.59,-103.02C182.63,-101.21 177.72,-99.36 173,-97.5 144.18,-86.12 111.78,-71.02 91.03,-61.05"/>
<polygon fill="midnightblue" stroke="midnightblue" points="186.55,-106.37 197.14,-106.44 188.9,-99.78 186.55,-106.37"/>
</g>
<!-- Node5 -->
<g id="node5" class="node">
<title>Node5</title>
<g id="a_node5"><a xlink:href="../../d4/dde/class_app_c_q_t.html#a3c3eec3552e1f40ba9ff5a73f93f6842" target="_top" xlink:title=" ">
<polygon fill="white" stroke="black" points="11.5,-133 11.5,-154 125.5,-154 125.5,-133 11.5,-133"/>
<text text-anchor="middle" x="68.5" y="-140.4" font-family="Helvetica,sans-Serif" font-size="12.00">AppCQT::onFocus</text>
</a>
</g>
</g>
<!-- Node3&#45;&gt;Node5 -->
<g id="edge4" class="edge">
<title>Node3&#45;&gt;Node5</title>
<path fill="none" stroke="midnightblue" d="M162.81,-133.16C150.14,-134.56 137.4,-135.98 125.57,-137.29"/>
<polygon fill="midnightblue" stroke="midnightblue" points="163.37,-136.62 172.93,-132.04 162.6,-129.66 163.37,-136.62"/>
</g>
<!-- Node6 -->
<g id="node6" class="node">
<title>Node6</title>
<g id="a_node6"><a xlink:href="../../d4/dde/class_app_c_q_t.html#acf9fa18df2c07e18c4c0fa4418ac2e6e" target="_top" xlink:title=" ">
<polygon fill="white" stroke="black" points="0,-93 0,-114 137,-114 137,-93 0,-93"/>
<text text-anchor="middle" x="68.5" y="-100.4" font-family="Helvetica,sans-Serif" font-size="12.00">AppCQT::onFocusLost</text>
</a>
</g>
</g>
<!-- Node3&#45;&gt;Node6 -->
<g id="edge5" class="edge">
<title>Node3&#45;&gt;Node6</title>
<path fill="none" stroke="midnightblue" d="M162.85,-113.84C154.23,-112.89 145.58,-111.93 137.2,-111"/>
<polygon fill="midnightblue" stroke="midnightblue" points="162.6,-117.34 172.93,-114.96 163.37,-110.38 162.6,-117.34"/>
</g>
<!-- Node8&#45;&gt;Node4 -->
<g id="edge8" class="edge">
<title>Node8&#45;&gt;Node4</title>
<path fill="none" stroke="midnightblue" d="M163.05,-33.4C150.69,-35.66 138.25,-37.93 126.66,-40.05"/>
<polygon fill="midnightblue" stroke="midnightblue" points="163.72,-36.83 172.93,-31.59 162.46,-29.95 163.72,-36.83"/>
</g>
</g>
</svg>
