<?xml version="1.0" encoding="UTF-8" standalone="no"?>
<!DOCTYPE svg PUBLIC "-//W3C//DTD SVG 1.1//EN"
 "http://www.w3.org/Graphics/SVG/1.1/DTD/svg11.dtd">
<!-- Generated by graphviz version 2.47.3 (20210619.1520)
 -->
<!-- Title: erisAudioAnalyzeFFT1024::sort_fftrr_by_value Pages: 1 -->
<svg width="563pt" height="43pt"
 viewBox="0.00 0.00 563.00 43.00" xmlns="http://www.w3.org/2000/svg" xmlns:xlink="http://www.w3.org/1999/xlink">
<g id="graph0" class="graph" transform="scale(1 1) rotate(0) translate(4 39)">
<title>erisAudioAnalyzeFFT1024::sort_fftrr_by_value</title>
<!-- Node1 -->
<g id="node1" class="node">
<title>Node1</title>
<g id="a_node1"><a xlink:title=" ">
<polygon fill="#bfbfbf" stroke="black" points="373,-0.5 373,-34.5 555,-34.5 555,-0.5 373,-0.5"/>
<text text-anchor="start" x="381" y="-20.9" font-family="Helvetica,sans-Serif" font-size="12.00">erisAudioAnalyzeFFT1024::sort</text>
<text text-anchor="middle" x="464" y="-7.9" font-family="Helvetica,sans-Serif" font-size="12.00">_fftrr_by_value</text>
</a>
</g>
</g>
<!-- Node2 -->
<g id="node2" class="node">
<title>Node2</title>
<g id="a_node2"><a xlink:href="../../d4/dde/class_app_c_q_t_a367a939ac48e4efa3bb648cd4f3bf848.html#a367a939ac48e4efa3bb648cd4f3bf848" target="_top" xlink:title=" ">
<polygon fill="none" stroke="black" points="156,-7 156,-28 337,-28 337,-7 156,-7"/>
<text text-anchor="middle" x="246.5" y="-14.4" font-family="Helvetica,sans-Serif" font-size="12.00">AppCQT::updateOscillatorBank</text>
</a>
</g>
</g>
<!-- Node1&#45;&gt;Node2 -->
<g id="edge1" class="edge">
<title>Node1&#45;&gt;Node2</title>
<path fill="none" stroke="midnightblue" d="M362.6,-17.5C354.15,-17.5 345.64,-17.5 337.28,-17.5"/>
<polygon fill="midnightblue" stroke="midnightblue" points="362.86,-21 372.86,-17.5 362.86,-14 362.86,-21"/>
</g>
<!-- Node3 -->
<g id="node3" class="node">
<title>Node3</title>
<g id="a_node3"><a xlink:href="../../d4/dde/class_app_c_q_t_a280277298835dcea30bdcb94d0eb08ab.html#a280277298835dcea30bdcb94d0eb08ab" target="_top" xlink:title=" ">
<polygon fill="none" stroke="black" points="0,-7 0,-28 120,-28 120,-7 0,-7"/>
<text text-anchor="middle" x="60" y="-14.4" font-family="Helvetica,sans-Serif" font-size="12.00">AppCQT::updateRT</text>
</a>
</g>
</g>
<!-- Node2&#45;&gt;Node3 -->
<g id="edge2" class="edge">
<title>Node2&#45;&gt;Node3</title>
<path fill="none" stroke="midnightblue" d="M145.73,-17.5C137.04,-17.5 128.44,-17.5 120.25,-17.5"/>
<polygon fill="midnightblue" stroke="midnightblue" points="145.95,-21 155.95,-17.5 145.95,-14 145.95,-21"/>
</g>
</g>
</svg>
