<?xml version="1.0" encoding="UTF-8" standalone="no"?>
<!DOCTYPE svg PUBLIC "-//W3C//DTD SVG 1.1//EN"
 "http://www.w3.org/Graphics/SVG/1.1/DTD/svg11.dtd">
<!-- Generated by graphviz version 2.47.3 (20210619.1520)
 -->
<!-- Title: erisAudioEffectChorus Pages: 1 -->
<svg width="324pt" height="238pt"
 viewBox="0.00 0.00 323.50 238.00" xmlns="http://www.w3.org/2000/svg" xmlns:xlink="http://www.w3.org/1999/xlink">
<g id="graph0" class="graph" transform="scale(1 1) rotate(0) translate(4 234)">
<title>erisAudioEffectChorus</title>
<!-- Node1 -->
<g id="node1" class="node">
<title>Node1</title>
<g id="a_node1"><a xlink:title=" ">
<polygon fill="#bfbfbf" stroke="black" points="32,-0.5 32,-96.5 229,-96.5 229,-0.5 32,-0.5"/>
<text text-anchor="middle" x="130.5" y="-79.7" font-family="Helvetica,sans-Serif" font-size="16.00">erisAudioEffectChorus</text>
<polyline fill="none" stroke="black" points="32,-70.5 229,-70.5 "/>
<text text-anchor="middle" x="130.5" y="-53.7" font-family="Helvetica,sans-Serif" font-size="16.00"> </text>
<polyline fill="none" stroke="black" points="32,-44.5 229,-44.5 "/>
<text text-anchor="start" x="40" y="-27.7" font-family="Helvetica,sans-Serif" font-size="16.00">+ erisAudioEffectChorus()</text>
<text text-anchor="start" x="40" y="-9.7" font-family="Helvetica,sans-Serif" font-size="16.00">+ void update()</text>
</a>
</g>
</g>
<!-- Node2 -->
<g id="node2" class="node">
<title>Node2</title>
<g id="a_node2"><a xlink:href="../../dd/df1/class_audio_effect_chorus.html" target="_top" xlink:title=" ">
<polygon fill="none" stroke="black" points="0,-151.5 0,-229.5 147,-229.5 147,-151.5 0,-151.5"/>
<text text-anchor="middle" x="73.5" y="-212.7" font-family="Helvetica,sans-Serif" font-size="16.00">AudioEffectChorus</text>
<polyline fill="none" stroke="black" points="0,-203.5 147,-203.5 "/>
<text text-anchor="middle" x="73.5" y="-186.7" font-family="Helvetica,sans-Serif" font-size="16.00"> </text>
<polyline fill="none" stroke="black" points="0,-177.5 147,-177.5 "/>
<text text-anchor="middle" x="73.5" y="-160.7" font-family="Helvetica,sans-Serif" font-size="16.00"> </text>
</a>
</g>
</g>
<!-- Node2&#45;&gt;Node1 -->
<g id="edge1" class="edge">
<title>Node2&#45;&gt;Node1</title>
<path fill="none" stroke="midnightblue" d="M92.88,-141.9C98.82,-127.31 105.35,-111.27 111.28,-96.7"/>
<polygon fill="none" stroke="midnightblue" points="89.6,-140.66 89.08,-151.24 96.09,-143.3 89.6,-140.66"/>
</g>
<!-- Node3 -->
<g id="node3" class="node">
<title>Node3</title>
<g id="a_node3"><a xlink:title=" ">
<polygon fill="none" stroke="#bfbfbf" points="165,-151.5 165,-229.5 212,-229.5 212,-151.5 165,-151.5"/>
<text text-anchor="middle" x="188.5" y="-212.7" font-family="Helvetica,sans-Serif" font-size="16.00">char</text>
<polyline fill="none" stroke="#bfbfbf" points="165,-203.5 212,-203.5 "/>
<text text-anchor="middle" x="188.5" y="-186.7" font-family="Helvetica,sans-Serif" font-size="16.00"> </text>
<polyline fill="none" stroke="#bfbfbf" points="165,-177.5 212,-177.5 "/>
<text text-anchor="middle" x="188.5" y="-160.7" font-family="Helvetica,sans-Serif" font-size="16.00"> </text>
</a>
</g>
</g>
<!-- Node3&#45;&gt;Node1 -->
<g id="edge2" class="edge">
<title>Node3&#45;&gt;Node1</title>
<path fill="none" stroke="#404040" d="M172.65,-151.24C167.15,-137.96 160.84,-122.73 154.81,-108.18"/>
<polygon fill="none" stroke="#404040" points="154.65,-107.79 148.66,-103.78 150.06,-96.7 156.05,-100.71 154.65,-107.79"/>
<text text-anchor="middle" x="240" y="-120.2" font-family="Helvetica,sans-Serif" font-size="16.00"> +short_name_lookup</text>
</g>
</g>
</svg>
