<?xml version="1.0" encoding="UTF-8" standalone="no"?>
<!DOCTYPE svg PUBLIC "-//W3C//DTD SVG 1.1//EN"
 "http://www.w3.org/Graphics/SVG/1.1/DTD/svg11.dtd">
<!-- Generated by graphviz version 2.47.3 (20210619.1520)
 -->
<!-- Title: erisAudioSynthSimpleDrum Pages: 1 -->
<svg width="186pt" height="185pt"
 viewBox="0.00 0.00 186.00 185.00" xmlns="http://www.w3.org/2000/svg" xmlns:xlink="http://www.w3.org/1999/xlink">
<g id="graph0" class="graph" transform="scale(1 1) rotate(0) translate(4 181)">
<title>erisAudioSynthSimpleDrum</title>
<polygon fill="white" stroke="transparent" points="-4,4 -4,-181 182,-181 182,4 -4,4"/>
<!-- Node1 -->
<g id="node1" class="node">
<title>Node1</title>
<g id="a_node1"><a xlink:title=" ">
<polygon fill="#bfbfbf" stroke="black" points="0,-0.5 0,-76.5 178,-76.5 178,-0.5 0,-0.5"/>
<text text-anchor="middle" x="89" y="-62.9" font-family="Helvetica,sans-Serif" font-size="12.00">erisAudioSynthSimpleDrum</text>
<polyline fill="none" stroke="black" points="0,-55.5 178,-55.5 "/>
<text text-anchor="middle" x="89" y="-41.9" font-family="Helvetica,sans-Serif" font-size="12.00"> </text>
<polyline fill="none" stroke="black" points="0,-34.5 178,-34.5 "/>
<text text-anchor="start" x="8" y="-20.9" font-family="Helvetica,sans-Serif" font-size="12.00">+ erisAudioSynthSimpleDrum()</text>
<text text-anchor="start" x="8" y="-7.9" font-family="Helvetica,sans-Serif" font-size="12.00">+ void update()</text>
</a>
</g>
</g>
<!-- Node2 -->
<g id="node2" class="node">
<title>Node2</title>
<g id="a_node2"><a xlink:title=" ">
<polygon fill="white" stroke="#bfbfbf" points="18.5,-113.5 18.5,-176.5 159.5,-176.5 159.5,-113.5 18.5,-113.5"/>
<text text-anchor="middle" x="89" y="-162.9" font-family="Helvetica,sans-Serif" font-size="12.00">AudioSynthSimpleDrum</text>
<polyline fill="none" stroke="#bfbfbf" points="18.5,-155.5 159.5,-155.5 "/>
<text text-anchor="middle" x="89" y="-141.9" font-family="Helvetica,sans-Serif" font-size="12.00"> </text>
<polyline fill="none" stroke="#bfbfbf" points="18.5,-134.5 159.5,-134.5 "/>
<text text-anchor="middle" x="89" y="-120.9" font-family="Helvetica,sans-Serif" font-size="12.00"> </text>
</a>
</g>
</g>
<!-- Node2&#45;&gt;Node1 -->
<g id="edge1" class="edge">
<title>Node2&#45;&gt;Node1</title>
<path fill="none" stroke="midnightblue" d="M89,-103.39C89,-94.54 89,-85.23 89,-76.53"/>
<polygon fill="none" stroke="midnightblue" points="85.5,-103.49 89,-113.49 92.5,-103.49 85.5,-103.49"/>
</g>
</g>
</svg>
