<?xml version="1.0" encoding="UTF-8" standalone="no"?>
<!DOCTYPE svg PUBLIC "-//W3C//DTD SVG 1.1//EN"
 "http://www.w3.org/Graphics/SVG/1.1/DTD/svg11.dtd">
<!-- Generated by graphviz version 2.47.3 (20210619.1520)
 -->
<!-- Title: SysCall::yield Pages: 1 -->
<!--zoomable 90 -->
<svg id="main" version="1.1" xmlns="http://www.w3.org/2000/svg" xmlns:xlink="http://www.w3.org/1999/xlink" xml:space="preserve" onload="init(evt)">
<style type="text/css"><![CDATA[
.edge:hover path { stroke: red; }
.edge:hover polygon { stroke: red; fill: red; }
]]></style>
<script type="text/javascript"><![CDATA[
var edges = document.getElementsByTagName('g');
if (edges && edges.length) {
  for (var i=0;i<edges.length;i++) {
    if (edges[i].id.substr(0,4)=='edge') {
      edges[i].setAttribute('class','edge');
    }
  }
}
]]></script>
        <defs>
                <circle id="rim" cx="0" cy="0" r="7"/>
                <circle id="rim2" cx="0" cy="0" r="3.5"/>
                <g id="zoomPlus">
                        <use xlink:href="#rim" fill="#404040">
                                <set attributeName="fill" to="#808080" begin="zoomplus.mouseover" end="zoomplus.mouseout"/>
                        </use>
                        <path d="M-4,0h8M0,-4v8" fill="none" stroke="white" stroke-width="1.5" pointer-events="none"/>
                </g>
                <g id="zoomMin">
                        <use xlink:href="#rim" fill="#404040">
                                <set attributeName="fill" to="#808080" begin="zoomminus.mouseover" end="zoomminus.mouseout"/>
                        </use>
                        <path d="M-4,0h8" fill="none" stroke="white" stroke-width="1.5" pointer-events="none"/>
                </g>
                <g id="dirArrow">
                        <path fill="none" stroke="white" stroke-width="1.5" d="M0,-3.0v7 M-2.5,-0.5L0,-3.0L2.5,-0.5"/>
                </g>
               <g id="resetDef">
                       <use xlink:href="#rim2" fill="#404040">
                               <set attributeName="fill" to="#808080" begin="reset.mouseover" end="reset.mouseout"/>
                       </use>
               </g>
        </defs>

<script type="text/javascript">
var viewWidth = 608;
var viewHeight = 90;
var sectionId = 'dynsection-2';
</script>
<script xlink:href="../../svgpan.js"/>
<svg id="graph" class="graph">
<g id="viewport">
<title>SysCall::yield</title>
<polygon fill="white" stroke="transparent" points="-4,4 -4,-86 604,-86 604,4 -4,4"/>
<!-- Node1 -->
<g id="node1" class="node">
<title>Node1</title>
<g id="a_node1"><a xlink:title=" ">
<polygon fill="#bfbfbf" stroke="black" points="514,-20.5 514,-41.5 600,-41.5 600,-20.5 514,-20.5"/>
<text text-anchor="middle" x="557" y="-27.9" font-family="Helvetica,sans-Serif" font-size="12.00">SysCall::yield</text>
</a>
</g>
</g>
<!-- Node2 -->
<g id="node2" class="node">
<title>Node2</title>
<g id="a_node2"><a xlink:href="../../df/dba/class_sys_call.html#a9b1ef8900e97f572ca561760b4dd4191" target="_top" xlink:title=" ">
<polygon fill="white" stroke="black" points="362,-40.5 362,-61.5 442,-61.5 442,-40.5 362,-40.5"/>
<text text-anchor="middle" x="402" y="-47.9" font-family="Helvetica,sans-Serif" font-size="12.00">SysCall::halt</text>
</a>
</g>
</g>
<!-- Node1&#45;&gt;Node2 -->
<g id="edge1" class="edge">
<title>Node1&#45;&gt;Node2</title>
<path fill="none" stroke="midnightblue" d="M503.81,-37.82C483.63,-40.46 460.93,-43.43 442.19,-45.88"/>
<polygon fill="midnightblue" stroke="midnightblue" points="504.33,-41.28 513.79,-36.52 503.42,-34.34 504.33,-41.28"/>
</g>
<!-- Node7 -->
<g id="node7" class="node">
<title>Node7</title>
<g id="a_node7"><a xlink:href="../../d2/d74/class_arduino_in_stream.html#ad4c60f813b8df6dd1d6696a3458de09c" target="_top" xlink:title=" ">
<polygon fill="white" stroke="black" points="326,-0.5 326,-21.5 478,-21.5 478,-0.5 326,-0.5"/>
<text text-anchor="middle" x="402" y="-7.9" font-family="Helvetica,sans-Serif" font-size="12.00">ArduinoInStream::readline</text>
</a>
</g>
</g>
<!-- Node1&#45;&gt;Node7 -->
<g id="edge6" class="edge">
<title>Node1&#45;&gt;Node7</title>
<path fill="none" stroke="midnightblue" d="M503.65,-24.16C495.45,-23.09 486.84,-21.96 478.25,-20.84"/>
<polygon fill="midnightblue" stroke="midnightblue" points="503.42,-27.66 513.79,-25.48 504.33,-20.72 503.42,-27.66"/>
</g>
<!-- Node3 -->
<g id="node3" class="node">
<title>Node3</title>
<g id="a_node3"><a xlink:href="../../de/d8b/class_sd_base.html#ac9d239810a48c90bd0f3a3e9c4c606a9" target="_top" xlink:title=" ">
<polygon fill="white" stroke="black" points="171.5,-60.5 171.5,-81.5 281.5,-81.5 281.5,-60.5 171.5,-60.5"/>
<text text-anchor="middle" x="226.5" y="-67.9" font-family="Helvetica,sans-Serif" font-size="12.00">SdBase::errorHalt</text>
</a>
</g>
</g>
<!-- Node2&#45;&gt;Node3 -->
<g id="edge2" class="edge">
<title>Node2&#45;&gt;Node3</title>
<path fill="none" stroke="midnightblue" d="M351.56,-56.7C329.68,-59.22 303.89,-62.19 281.51,-64.77"/>
<polygon fill="midnightblue" stroke="midnightblue" points="352.1,-60.16 361.63,-55.54 351.3,-53.21 352.1,-60.16"/>
</g>
<!-- Node5 -->
<g id="node5" class="node">
<title>Node5</title>
<g id="a_node5"><a xlink:href="../../de/d8b/class_sd_base.html#acb8180faf22cf72d97ec81330a700b05" target="_top" xlink:title=" ">
<polygon fill="white" stroke="black" points="163,-20.5 163,-41.5 290,-41.5 290,-20.5 163,-20.5"/>
<text text-anchor="middle" x="226.5" y="-27.9" font-family="Helvetica,sans-Serif" font-size="12.00">SdBase::initErrorHalt</text>
</a>
</g>
</g>
<!-- Node2&#45;&gt;Node5 -->
<g id="edge4" class="edge">
<title>Node2&#45;&gt;Node5</title>
<path fill="none" stroke="midnightblue" d="M351.64,-45.31C332.52,-43.11 310.41,-40.56 290.19,-38.23"/>
<polygon fill="midnightblue" stroke="midnightblue" points="351.3,-48.79 361.63,-46.46 352.1,-41.84 351.3,-48.79"/>
</g>
<!-- Node4 -->
<g id="node4" class="node">
<title>Node4</title>
<g id="a_node4"><a xlink:href="../../de/d8b/class_sd_base.html#a1691b7a85fc11851a6942de035d73772" target="_top" xlink:title=" ">
<polygon fill="white" stroke="black" points="8.5,-60.5 8.5,-81.5 118.5,-81.5 118.5,-60.5 8.5,-60.5"/>
<text text-anchor="middle" x="63.5" y="-67.9" font-family="Helvetica,sans-Serif" font-size="12.00">SdBase::errorHalt</text>
</a>
</g>
</g>
<!-- Node3&#45;&gt;Node4 -->
<g id="edge3" class="edge">
<title>Node3&#45;&gt;Node4</title>
<path fill="none" stroke="midnightblue" d="M161.31,-71C147.19,-71 132.37,-71 118.69,-71"/>
<polygon fill="midnightblue" stroke="midnightblue" points="161.44,-74.5 171.44,-71 161.44,-67.5 161.44,-74.5"/>
</g>
<!-- Node6 -->
<g id="node6" class="node">
<title>Node6</title>
<g id="a_node6"><a xlink:href="../../de/d8b/class_sd_base.html#aef6fd47c67b9b8498c1398e58422f169" target="_top" xlink:title=" ">
<polygon fill="white" stroke="black" points="0,-20.5 0,-41.5 127,-41.5 127,-20.5 0,-20.5"/>
<text text-anchor="middle" x="63.5" y="-27.9" font-family="Helvetica,sans-Serif" font-size="12.00">SdBase::initErrorHalt</text>
</a>
</g>
</g>
<!-- Node5&#45;&gt;Node6 -->
<g id="edge5" class="edge">
<title>Node5&#45;&gt;Node6</title>
<path fill="none" stroke="midnightblue" d="M152.78,-31C144.19,-31 135.47,-31 127.04,-31"/>
<polygon fill="midnightblue" stroke="midnightblue" points="152.79,-34.5 162.79,-31 152.79,-27.5 152.79,-34.5"/>
</g>
</g>
</svg>
        <g id="navigator" transform="translate(0 0)" fill="#404254">
                <rect fill="#f2f5e9" fill-opacity="0.5" stroke="#606060" stroke-width=".5" x="0" y="0" width="60" height="60"/>
                <use id="zoomplus" xlink:href="#zoomPlus" x="17" y="9" onmousedown="handleZoom(evt,'in')"/>
                <use id="zoomminus" xlink:href="#zoomMin" x="42" y="9" onmousedown="handleZoom(evt,'out')"/>
                <use id="reset" xlink:href="#resetDef" x="30" y="36" onmousedown="handleReset()"/>
                <g id="arrowUp" xlink:href="#dirArrow" transform="translate(30 24)" onmousedown="handlePan(0,-1)">
                  <use xlink:href="#rim" fill="#404040">
                        <set attributeName="fill" to="#808080" begin="arrowUp.mouseover" end="arrowUp.mouseout"/>
                  </use>
                  <path fill="none" stroke="white" stroke-width="1.5" d="M0,-3.0v7 M-2.5,-0.5L0,-3.0L2.5,-0.5"/>
                </g>
                <g id="arrowRight" xlink:href="#dirArrow" transform="rotate(90) translate(36 -43)" onmousedown="handlePan(1,0)">
                  <use xlink:href="#rim" fill="#404040">
                        <set attributeName="fill" to="#808080" begin="arrowRight.mouseover" end="arrowRight.mouseout"/>
                  </use>
                  <path fill="none" stroke="white" stroke-width="1.5" d="M0,-3.0v7 M-2.5,-0.5L0,-3.0L2.5,-0.5"/>
                </g>
                <g id="arrowDown" xlink:href="#dirArrow" transform="rotate(180) translate(-30 -48)" onmousedown="handlePan(0,1)">
                  <use xlink:href="#rim" fill="#404040">
                        <set attributeName="fill" to="#808080" begin="arrowDown.mouseover" end="arrowDown.mouseout"/>
                  </use>
                  <path fill="none" stroke="white" stroke-width="1.5" d="M0,-3.0v7 M-2.5,-0.5L0,-3.0L2.5,-0.5"/>
                </g>
                <g id="arrowLeft" xlink:href="#dirArrow" transform="rotate(270) translate(-36 17)" onmousedown="handlePan(-1,0)">
                  <use xlink:href="#rim" fill="#404040">
                        <set attributeName="fill" to="#808080" begin="arrowLeft.mouseover" end="arrowLeft.mouseout"/>
                  </use>
                  <path fill="none" stroke="white" stroke-width="1.5" d="M0,-3.0v7 M-2.5,-0.5L0,-3.0L2.5,-0.5"/>
                </g>
        </g>
        <svg viewBox="0 0 15 15" width="100%" height="30px" preserveAspectRatio="xMaxYMin meet">
         <g id="arrow_out" transform="scale(0.3 0.3)">
          <a xlink:href="class_sys_call_a2219ba5ea8e411b022a3a00df5f380e0_icgraph_org.svg" target="_base">
           <rect id="button" ry="5" rx="5" y="6" x="6" height="38" width="38"
                fill="#f2f5e9" fill-opacity="0.5" stroke="#606060" stroke-width="1.0"/>
           <path id="arrow"
             d="M 11.500037,31.436501 C 11.940474,20.09759 22.043105,11.32322 32.158766,21.979434 L 37.068811,17.246167 C 37.068811,17.246167 37.088388,32 37.088388,32 L 22.160133,31.978069 C 22.160133,31.978069 26.997745,27.140456 26.997745,27.140456 C 18.528582,18.264221 13.291696,25.230495 11.500037,31.436501 z"
             style="fill:#404040;"/>
          </a>
         </g>
        </svg>
</svg>
