<?xml version="1.0" encoding="UTF-8" standalone="no"?>
<!DOCTYPE svg PUBLIC "-//W3C//DTD SVG 1.1//EN"
 "http://www.w3.org/Graphics/SVG/1.1/DTD/svg11.dtd">
<!-- Generated by graphviz version 2.47.3 (20210619.1520)
 -->
<!-- Title: SdCard.h Pages: 1 -->
<svg width="472pt" height="436pt"
 viewBox="0.00 0.00 472.00 436.00" xmlns="http://www.w3.org/2000/svg" xmlns:xlink="http://www.w3.org/1999/xlink">
<g id="graph0" class="graph" transform="scale(1 1) rotate(0) translate(4 432)">
<title>SdCard.h</title>
<polygon fill="white" stroke="transparent" points="-4,4 -4,-432 468,-432 468,4 -4,4"/>
<!-- Node1 -->
<g id="node1" class="node">
<title>Node1</title>
<g id="a_node1"><a xlink:title=" ">
<polygon fill="#bfbfbf" stroke="black" points="315.5,-406.5 315.5,-427.5 382.5,-427.5 382.5,-406.5 315.5,-406.5"/>
<text text-anchor="middle" x="349" y="-413.9" font-family="Helvetica,sans-Serif" font-size="12.00">SdCard.h</text>
</a>
</g>
</g>
<!-- Node2 -->
<g id="node2" class="node">
<title>Node2</title>
<g id="a_node2"><a xlink:href="../../d7/df6/_block_device_8h.html" target="_top" xlink:title=" ">
<polygon fill="white" stroke="black" points="247,-348.5 247,-369.5 339,-369.5 339,-348.5 247,-348.5"/>
<text text-anchor="middle" x="293" y="-355.9" font-family="Helvetica,sans-Serif" font-size="12.00">BlockDevice.h</text>
</a>
</g>
</g>
<!-- Node1&#45;&gt;Node2 -->
<g id="edge1" class="edge">
<title>Node1&#45;&gt;Node2</title>
<path fill="none" stroke="midnightblue" d="M332.08,-399.08C322.44,-389.44 310.72,-377.72 302.64,-369.64"/>
<polygon fill="midnightblue" stroke="midnightblue" points="329.7,-401.65 339.25,-406.25 334.65,-396.7 329.7,-401.65"/>
</g>
<!-- Node34 -->
<g id="node10" class="node">
<title>Node34</title>
<g id="a_node10"><a xlink:href="../../d5/ddc/_sd_fat_8h.html" target="_top" xlink:title="main SdFs include file.">
<polygon fill="white" stroke="red" points="287,-0.5 287,-21.5 345,-21.5 345,-0.5 287,-0.5"/>
<text text-anchor="middle" x="316" y="-7.9" font-family="Helvetica,sans-Serif" font-size="12.00">SdFat.h</text>
</a>
</g>
</g>
<!-- Node1&#45;&gt;Node34 -->
<g id="edge22" class="edge">
<title>Node1&#45;&gt;Node34</title>
<path fill="none" stroke="midnightblue" d="M380.03,-401.8C414.09,-383.83 464,-349.41 464,-302 464,-302 464,-302 464,-126 464,-66.65 388.37,-33.9 345.24,-20.04"/>
<polygon fill="midnightblue" stroke="midnightblue" points="378.24,-398.78 370.9,-406.43 381.4,-405.03 378.24,-398.78"/>
</g>
<!-- Node3 -->
<g id="node3" class="node">
<title>Node3</title>
<g id="a_node3"><a xlink:href="../../d1/d0d/_fs_cache_8h.html" target="_top" xlink:title="Common cache code for exFAT and FAT.">
<polygon fill="white" stroke="black" points="106,-290.5 106,-311.5 180,-311.5 180,-290.5 106,-290.5"/>
<text text-anchor="middle" x="143" y="-297.9" font-family="Helvetica,sans-Serif" font-size="12.00">FsCache.h</text>
</a>
</g>
</g>
<!-- Node2&#45;&gt;Node3 -->
<g id="edge2" class="edge">
<title>Node2&#45;&gt;Node3</title>
<path fill="none" stroke="midnightblue" d="M257.61,-344.79C230.22,-334.56 192.95,-320.65 168.45,-311.5"/>
<polygon fill="midnightblue" stroke="midnightblue" points="256.62,-348.15 267.21,-348.37 259.07,-341.6 256.62,-348.15"/>
</g>
<!-- Node5 -->
<g id="node5" class="node">
<title>Node5</title>
<g id="a_node5"><a xlink:href="../../d7/dc8/_ex_fat_partition_8h.html" target="_top" xlink:title="ExFatPartition include file.">
<polygon fill="white" stroke="black" points="0,-232.5 0,-253.5 100,-253.5 100,-232.5 0,-232.5"/>
<text text-anchor="middle" x="50" y="-239.9" font-family="Helvetica,sans-Serif" font-size="12.00">ExFatPartition.h</text>
</a>
</g>
</g>
<!-- Node2&#45;&gt;Node5 -->
<g id="edge18" class="edge">
<title>Node2&#45;&gt;Node5</title>
<path fill="none" stroke="midnightblue" d="M236.86,-355.54C195.13,-351.31 138.49,-340.28 97,-312 75.18,-297.13 60.45,-268.51 53.88,-253.58"/>
<polygon fill="midnightblue" stroke="midnightblue" points="236.58,-359.03 246.86,-356.45 237.22,-352.06 236.58,-359.03"/>
</g>
<!-- Node58 -->
<g id="node11" class="node">
<title>Node58</title>
<g id="a_node11"><a xlink:href="../../db/dd3/_fat_partition_8h.html" target="_top" xlink:title="FatPartition class.">
<polygon fill="white" stroke="black" points="262,-232.5 262,-253.5 348,-253.5 348,-232.5 262,-232.5"/>
<text text-anchor="middle" x="305" y="-239.9" font-family="Helvetica,sans-Serif" font-size="12.00">FatPartition.h</text>
</a>
</g>
</g>
<!-- Node2&#45;&gt;Node58 -->
<g id="edge21" class="edge">
<title>Node2&#45;&gt;Node58</title>
<path fill="none" stroke="midnightblue" d="M304.26,-339.33C308.52,-331.23 312.86,-321.45 315,-312 319.65,-291.52 313.18,-267.06 308.68,-253.77"/>
<polygon fill="midnightblue" stroke="midnightblue" points="301.1,-337.81 299.26,-348.24 307.21,-341.24 301.1,-337.81"/>
</g>
<!-- Node71 -->
<g id="node15" class="node">
<title>Node71</title>
<g id="a_node15"><a xlink:href="../../d8/d58/_ex_fat_formatter_8h.html" target="_top" xlink:title=" ">
<polygon fill="white" stroke="black" points="198.5,-290.5 198.5,-311.5 305.5,-311.5 305.5,-290.5 198.5,-290.5"/>
<text text-anchor="middle" x="252" y="-297.9" font-family="Helvetica,sans-Serif" font-size="12.00">ExFatFormatter.h</text>
</a>
</g>
</g>
<!-- Node2&#45;&gt;Node71 -->
<g id="edge16" class="edge">
<title>Node2&#45;&gt;Node71</title>
<path fill="none" stroke="midnightblue" d="M279.76,-339.92C272.88,-330.52 264.74,-319.4 259.06,-311.64"/>
<polygon fill="midnightblue" stroke="midnightblue" points="277.13,-342.24 285.86,-348.25 282.77,-338.11 277.13,-342.24"/>
</g>
<!-- Node72 -->
<g id="node16" class="node">
<title>Node72</title>
<g id="a_node16"><a xlink:href="../../d8/d20/_fat_formatter_8h.html" target="_top" xlink:title=" ">
<polygon fill="white" stroke="black" points="342,-174.5 342,-195.5 436,-195.5 436,-174.5 342,-174.5"/>
<text text-anchor="middle" x="389" y="-181.9" font-family="Helvetica,sans-Serif" font-size="12.00">FatFormatter.h</text>
</a>
</g>
</g>
<!-- Node2&#45;&gt;Node72 -->
<g id="edge19" class="edge">
<title>Node2&#45;&gt;Node72</title>
<path fill="none" stroke="midnightblue" d="M308.25,-340.36C315.04,-332.06 322.87,-321.84 329,-312 354.61,-270.86 376.83,-217.1 385.32,-195.54"/>
<polygon fill="midnightblue" stroke="midnightblue" points="305.4,-338.31 301.66,-348.23 310.77,-342.81 305.4,-338.31"/>
</g>
<!-- Node4 -->
<g id="node4" class="node">
<title>Node4</title>
<g id="a_node4"><a xlink:href="../../d0/d75/_fs_cache_8cpp.html" target="_top" xlink:title=" ">
<polygon fill="white" stroke="black" points="118.5,-232.5 118.5,-253.5 205.5,-253.5 205.5,-232.5 118.5,-232.5"/>
<text text-anchor="middle" x="162" y="-239.9" font-family="Helvetica,sans-Serif" font-size="12.00">FsCache.cpp</text>
</a>
</g>
</g>
<!-- Node3&#45;&gt;Node4 -->
<g id="edge3" class="edge">
<title>Node3&#45;&gt;Node4</title>
<path fill="none" stroke="midnightblue" d="M149.53,-280.75C152.63,-271.61 156.21,-261.08 158.73,-253.64"/>
<polygon fill="midnightblue" stroke="midnightblue" points="146.21,-279.65 146.31,-290.25 152.84,-281.9 146.21,-279.65"/>
</g>
<!-- Node3&#45;&gt;Node5 -->
<g id="edge4" class="edge">
<title>Node3&#45;&gt;Node5</title>
<path fill="none" stroke="midnightblue" d="M118.17,-285.05C101.62,-275.08 80.36,-262.28 66.01,-253.64"/>
<polygon fill="midnightblue" stroke="midnightblue" points="116.43,-288.09 126.8,-290.25 120.04,-282.09 116.43,-288.09"/>
</g>
<!-- Node3&#45;&gt;Node58 -->
<g id="edge11" class="edge">
<title>Node3&#45;&gt;Node58</title>
<path fill="none" stroke="midnightblue" d="M180.44,-287.06C210.09,-276.81 250.82,-262.73 277.51,-253.5"/>
<polygon fill="midnightblue" stroke="midnightblue" points="179.16,-283.8 170.85,-290.37 181.44,-290.41 179.16,-283.8"/>
</g>
<!-- Node6 -->
<g id="node6" class="node">
<title>Node6</title>
<g id="a_node6"><a xlink:href="../../dd/ddc/_ex_fat_file_8h.html" target="_top" xlink:title="ExFatFile class.">
<polygon fill="white" stroke="black" points="66,-174.5 66,-195.5 142,-195.5 142,-174.5 66,-174.5"/>
<text text-anchor="middle" x="104" y="-181.9" font-family="Helvetica,sans-Serif" font-size="12.00">ExFatFile.h</text>
</a>
</g>
</g>
<!-- Node5&#45;&gt;Node6 -->
<g id="edge5" class="edge">
<title>Node5&#45;&gt;Node6</title>
<path fill="none" stroke="midnightblue" d="M66.6,-224.79C75.83,-215.21 86.99,-203.64 94.7,-195.64"/>
<polygon fill="midnightblue" stroke="midnightblue" points="63.83,-222.62 59.41,-232.25 68.87,-227.48 63.83,-222.62"/>
</g>
<!-- Node7 -->
<g id="node7" class="node">
<title>Node7</title>
<g id="a_node7"><a xlink:href="../../d6/d68/_ex_fat_volume_8h.html" target="_top" xlink:title=" ">
<polygon fill="white" stroke="black" points="110,-116.5 110,-137.5 206,-137.5 206,-116.5 110,-116.5"/>
<text text-anchor="middle" x="158" y="-123.9" font-family="Helvetica,sans-Serif" font-size="12.00">ExFatVolume.h</text>
</a>
</g>
</g>
<!-- Node6&#45;&gt;Node7 -->
<g id="edge6" class="edge">
<title>Node6&#45;&gt;Node7</title>
<path fill="none" stroke="midnightblue" d="M120.6,-166.79C129.83,-157.21 140.99,-145.64 148.7,-137.64"/>
<polygon fill="midnightblue" stroke="midnightblue" points="117.83,-164.62 113.41,-174.25 122.87,-169.48 117.83,-164.62"/>
</g>
<!-- Node8 -->
<g id="node8" class="node">
<title>Node8</title>
<g id="a_node8"><a xlink:href="../../d8/d23/_ex_fat_lib_8h.html" target="_top" xlink:title=" ">
<polygon fill="white" stroke="red" points="192.5,-58.5 192.5,-79.5 265.5,-79.5 265.5,-58.5 192.5,-58.5"/>
<text text-anchor="middle" x="229" y="-65.9" font-family="Helvetica,sans-Serif" font-size="12.00">ExFatLib.h</text>
</a>
</g>
</g>
<!-- Node7&#45;&gt;Node8 -->
<g id="edge7" class="edge">
<title>Node7&#45;&gt;Node8</title>
<path fill="none" stroke="midnightblue" d="M178.38,-109.93C190.79,-100.14 206.23,-87.96 216.77,-79.64"/>
<polygon fill="midnightblue" stroke="midnightblue" points="176.05,-107.3 170.37,-116.25 180.39,-112.8 176.05,-107.3"/>
</g>
<!-- Node16 -->
<g id="node9" class="node">
<title>Node16</title>
<g id="a_node9"><a xlink:href="../../da/dc3/_ex_fat_dbg_8cpp.html" target="_top" xlink:title=" ">
<polygon fill="white" stroke="black" points="149,-0.5 149,-21.5 241,-21.5 241,-0.5 149,-0.5"/>
<text text-anchor="middle" x="195" y="-7.9" font-family="Helvetica,sans-Serif" font-size="12.00">ExFatDbg.cpp</text>
</a>
</g>
</g>
<!-- Node7&#45;&gt;Node16 -->
<g id="edge10" class="edge">
<title>Node7&#45;&gt;Node16</title>
<path fill="none" stroke="midnightblue" d="M164.3,-106.58C172.3,-81.96 185.77,-40.44 191.85,-21.69"/>
<polygon fill="midnightblue" stroke="midnightblue" points="160.91,-105.69 161.15,-116.28 167.57,-107.85 160.91,-105.69"/>
</g>
<!-- Node8&#45;&gt;Node16 -->
<g id="edge8" class="edge">
<title>Node8&#45;&gt;Node16</title>
<path fill="none" stroke="midnightblue" d="M217.85,-49.63C212.18,-40.29 205.52,-29.32 200.85,-21.64"/>
<polygon fill="midnightblue" stroke="midnightblue" points="214.9,-51.51 223.08,-58.25 220.88,-47.88 214.9,-51.51"/>
</g>
<!-- Node8&#45;&gt;Node34 -->
<g id="edge9" class="edge">
<title>Node8&#45;&gt;Node34</title>
<path fill="none" stroke="midnightblue" d="M252.66,-52.77C268.08,-42.85 287.73,-30.2 301.02,-21.64"/>
<polygon fill="midnightblue" stroke="midnightblue" points="250.67,-49.89 244.15,-58.25 254.46,-55.78 250.67,-49.89"/>
</g>
<!-- Node59 -->
<g id="node12" class="node">
<title>Node59</title>
<g id="a_node12"><a xlink:href="../../d6/d7b/_fat_file_8h.html" target="_top" xlink:title="FatFile class.">
<polygon fill="white" stroke="black" points="262,-174.5 262,-195.5 324,-195.5 324,-174.5 262,-174.5"/>
<text text-anchor="middle" x="293" y="-181.9" font-family="Helvetica,sans-Serif" font-size="12.00">FatFile.h</text>
</a>
</g>
</g>
<!-- Node58&#45;&gt;Node59 -->
<g id="edge12" class="edge">
<title>Node58&#45;&gt;Node59</title>
<path fill="none" stroke="midnightblue" d="M300.81,-222.45C298.87,-213.38 296.64,-203 295.07,-195.64"/>
<polygon fill="midnightblue" stroke="midnightblue" points="297.39,-223.2 302.91,-232.25 304.24,-221.73 297.39,-223.2"/>
</g>
<!-- Node60 -->
<g id="node13" class="node">
<title>Node60</title>
<g id="a_node13"><a xlink:href="../../da/d0b/_fat_volume_8h.html" target="_top" xlink:title="FatVolume class.">
<polygon fill="white" stroke="black" points="268.5,-116.5 268.5,-137.5 351.5,-137.5 351.5,-116.5 268.5,-116.5"/>
<text text-anchor="middle" x="310" y="-123.9" font-family="Helvetica,sans-Serif" font-size="12.00">FatVolume.h</text>
</a>
</g>
</g>
<!-- Node59&#45;&gt;Node60 -->
<g id="edge13" class="edge">
<title>Node59&#45;&gt;Node60</title>
<path fill="none" stroke="midnightblue" d="M298.93,-164.45C301.69,-155.38 304.84,-145 307.07,-137.64"/>
<polygon fill="midnightblue" stroke="midnightblue" points="295.52,-163.66 295.96,-174.25 302.22,-165.69 295.52,-163.66"/>
</g>
<!-- Node61 -->
<g id="node14" class="node">
<title>Node61</title>
<g id="a_node14"><a xlink:href="../../de/dfa/_fat_lib_8h.html" target="_top" xlink:title=" ">
<polygon fill="white" stroke="red" points="286.5,-58.5 286.5,-79.5 345.5,-79.5 345.5,-58.5 286.5,-58.5"/>
<text text-anchor="middle" x="316" y="-65.9" font-family="Helvetica,sans-Serif" font-size="12.00">FatLib.h</text>
</a>
</g>
</g>
<!-- Node60&#45;&gt;Node61 -->
<g id="edge14" class="edge">
<title>Node60&#45;&gt;Node61</title>
<path fill="none" stroke="midnightblue" d="M312.13,-106.16C313.09,-97.16 314.19,-86.92 314.97,-79.64"/>
<polygon fill="midnightblue" stroke="midnightblue" points="308.63,-105.93 311.05,-116.25 315.59,-106.68 308.63,-105.93"/>
</g>
<!-- Node61&#45;&gt;Node34 -->
<g id="edge15" class="edge">
<title>Node61&#45;&gt;Node34</title>
<path fill="none" stroke="midnightblue" d="M316,-48.16C316,-39.16 316,-28.92 316,-21.64"/>
<polygon fill="midnightblue" stroke="midnightblue" points="312.5,-48.25 316,-58.25 319.5,-48.25 312.5,-48.25"/>
</g>
<!-- Node71&#45;&gt;Node8 -->
<g id="edge17" class="edge">
<title>Node71&#45;&gt;Node8</title>
<path fill="none" stroke="midnightblue" d="M250.02,-280.23C245.29,-232.87 233.43,-114.26 229.96,-79.63"/>
<polygon fill="midnightblue" stroke="midnightblue" points="246.56,-280.81 251.04,-290.41 253.53,-280.11 246.56,-280.81"/>
</g>
<!-- Node72&#45;&gt;Node61 -->
<g id="edge20" class="edge">
<title>Node72&#45;&gt;Node61</title>
<path fill="none" stroke="midnightblue" d="M383.21,-164.52C378.48,-150.36 370.96,-131.12 361,-116 351.66,-101.82 337.55,-88.26 327.62,-79.59"/>
<polygon fill="midnightblue" stroke="midnightblue" points="379.91,-165.72 386.27,-174.19 386.59,-163.6 379.91,-165.72"/>
</g>
</g>
</svg>
