<?xml version="1.0" encoding="UTF-8" standalone="no"?>
<!DOCTYPE svg PUBLIC "-//W3C//DTD SVG 1.1//EN"
 "http://www.w3.org/Graphics/SVG/1.1/DTD/svg11.dtd">
<!-- Generated by graphviz version 2.47.3 (20210619.1520)
 -->
<!-- Title: erisAudioInputI2SOct Pages: 1 -->
<svg width="196pt" height="220pt"
 viewBox="0.00 0.00 196.00 220.00" xmlns="http://www.w3.org/2000/svg" xmlns:xlink="http://www.w3.org/1999/xlink">
<g id="graph0" class="graph" transform="scale(1 1) rotate(0) translate(4 216)">
<title>erisAudioInputI2SOct</title>
<!-- Node1 -->
<g id="node1" class="node">
<title>Node1</title>
<g id="a_node1"><a xlink:title=" ">
<polygon fill="#bfbfbf" stroke="black" points="0,-0.5 0,-96.5 188,-96.5 188,-0.5 0,-0.5"/>
<text text-anchor="middle" x="94" y="-79.7" font-family="Helvetica,sans-Serif" font-size="16.00">erisAudioInputI2SOct</text>
<polyline fill="none" stroke="black" points="0,-70.5 188,-70.5 "/>
<text text-anchor="middle" x="94" y="-53.7" font-family="Helvetica,sans-Serif" font-size="16.00"> </text>
<polyline fill="none" stroke="black" points="0,-44.5 188,-44.5 "/>
<text text-anchor="start" x="8" y="-27.7" font-family="Helvetica,sans-Serif" font-size="16.00">+ erisAudioInputI2SOct()</text>
<text text-anchor="start" x="8" y="-9.7" font-family="Helvetica,sans-Serif" font-size="16.00">+ void update()</text>
</a>
</g>
</g>
<!-- Node2 -->
<g id="node2" class="node">
<title>Node2</title>
<g id="a_node2"><a xlink:href="../../df/d3d/class_audio_input_i2_s_oct.html" target="_top" xlink:title=" ">
<polygon fill="none" stroke="black" points="25,-133.5 25,-211.5 163,-211.5 163,-133.5 25,-133.5"/>
<text text-anchor="middle" x="94" y="-194.7" font-family="Helvetica,sans-Serif" font-size="16.00">AudioInputI2SOct</text>
<polyline fill="none" stroke="black" points="25,-185.5 163,-185.5 "/>
<text text-anchor="middle" x="94" y="-168.7" font-family="Helvetica,sans-Serif" font-size="16.00"> </text>
<polyline fill="none" stroke="black" points="25,-159.5 163,-159.5 "/>
<text text-anchor="middle" x="94" y="-142.7" font-family="Helvetica,sans-Serif" font-size="16.00"> </text>
</a>
</g>
</g>
<!-- Node2&#45;&gt;Node1 -->
<g id="edge1" class="edge">
<title>Node2&#45;&gt;Node1</title>
<path fill="none" stroke="midnightblue" d="M94,-123.19C94,-114.45 94,-105.35 94,-96.64"/>
<polygon fill="none" stroke="midnightblue" points="90.5,-123.23 94,-133.23 97.5,-123.23 90.5,-123.23"/>
</g>
</g>
</svg>
