<?xml version="1.0" encoding="UTF-8" standalone="no"?>
<!DOCTYPE svg PUBLIC "-//W3C//DTD SVG 1.1//EN"
 "http://www.w3.org/Graphics/SVG/1.1/DTD/svg11.dtd">
<!-- Generated by graphviz version 2.47.3 (20210619.1520)
 -->
<!-- Title: ostream::putChar Pages: 1 -->
<!--zoomable 90 -->
<svg id="main" version="1.1" xmlns="http://www.w3.org/2000/svg" xmlns:xlink="http://www.w3.org/1999/xlink" xml:space="preserve" onload="init(evt)">
<style type="text/css"><![CDATA[
.edge:hover path { stroke: red; }
.edge:hover polygon { stroke: red; fill: red; }
]]></style>
<script type="text/javascript"><![CDATA[
var edges = document.getElementsByTagName('g');
if (edges && edges.length) {
  for (var i=0;i<edges.length;i++) {
    if (edges[i].id.substr(0,4)=='edge') {
      edges[i].setAttribute('class','edge');
    }
  }
}
]]></script>
        <defs>
                <circle id="rim" cx="0" cy="0" r="7"/>
                <circle id="rim2" cx="0" cy="0" r="3.5"/>
                <g id="zoomPlus">
                        <use xlink:href="#rim" fill="#404040">
                                <set attributeName="fill" to="#808080" begin="zoomplus.mouseover" end="zoomplus.mouseout"/>
                        </use>
                        <path d="M-4,0h8M0,-4v8" fill="none" stroke="white" stroke-width="1.5" pointer-events="none"/>
                </g>
                <g id="zoomMin">
                        <use xlink:href="#rim" fill="#404040">
                                <set attributeName="fill" to="#808080" begin="zoomminus.mouseover" end="zoomminus.mouseout"/>
                        </use>
                        <path d="M-4,0h8" fill="none" stroke="white" stroke-width="1.5" pointer-events="none"/>
                </g>
                <g id="dirArrow">
                        <path fill="none" stroke="white" stroke-width="1.5" d="M0,-3.0v7 M-2.5,-0.5L0,-3.0L2.5,-0.5"/>
                </g>
               <g id="resetDef">
                       <use xlink:href="#rim2" fill="#404040">
                               <set attributeName="fill" to="#808080" begin="reset.mouseover" end="reset.mouseout"/>
                       </use>
               </g>
        </defs>

<script type="text/javascript">
var viewWidth = 537;
var viewHeight = 90;
var sectionId = 'dynsection-27';
</script>
<script xlink:href="../../svgpan.js"/>
<svg id="graph" class="graph">
<g id="viewport">
<title>ostream::putChar</title>
<polygon fill="white" stroke="transparent" points="-4,4 -4,-86 533,-86 533,4 -4,4"/>
<!-- Node1 -->
<g id="node1" class="node">
<title>Node1</title>
<g id="a_node1"><a xlink:title=" ">
<polygon fill="#bfbfbf" stroke="black" points="0,-20.5 0,-41.5 107,-41.5 107,-20.5 0,-20.5"/>
<text text-anchor="middle" x="53.5" y="-27.9" font-family="Helvetica,sans-Serif" font-size="12.00">ostream::putChar</text>
</a>
</g>
</g>
<!-- Node2 -->
<g id="node2" class="node">
<title>Node2</title>
<g id="a_node2"><a xlink:href="../../d0/d43/classostream.html#a8056a7d45f558917c1362c3ede310ef9" target="_top" xlink:title=" ">
<polygon fill="white" stroke="black" points="299,-40.5 299,-61.5 395,-61.5 395,-40.5 299,-40.5"/>
<text text-anchor="middle" x="347" y="-47.9" font-family="Helvetica,sans-Serif" font-size="12.00">ostream::do_fill</text>
</a>
</g>
</g>
<!-- Node1&#45;&gt;Node2 -->
<g id="edge1" class="edge">
<title>Node1&#45;&gt;Node2</title>
<path fill="none" stroke="midnightblue" d="M107.29,-34.62C158.51,-38.14 236.02,-43.45 288.71,-47.07"/>
<polygon fill="midnightblue" stroke="midnightblue" points="288.69,-50.58 298.9,-47.77 289.17,-43.59 288.69,-50.58"/>
</g>
<!-- Node5 -->
<g id="node5" class="node">
<title>Node5</title>
<g id="a_node5"><a xlink:href="../../d0/d43/classostream.html#ad5027f5ab212cf912b795ba8a26b7808" target="_top" xlink:title=" ">
<polygon fill="white" stroke="black" points="143,-1.5 143,-22.5 263,-22.5 263,-1.5 143,-1.5"/>
<text text-anchor="middle" x="203" y="-8.9" font-family="Helvetica,sans-Serif" font-size="12.00">ostream::fill_not_left</text>
</a>
</g>
</g>
<!-- Node1&#45;&gt;Node5 -->
<g id="edge4" class="edge">
<title>Node1&#45;&gt;Node5</title>
<path fill="none" stroke="midnightblue" d="M107.33,-24.19C115.59,-23.13 124.23,-22.02 132.79,-20.92"/>
<polygon fill="midnightblue" stroke="midnightblue" points="133.3,-24.38 142.77,-19.63 132.41,-17.44 133.3,-24.38"/>
</g>
<!-- Node3 -->
<g id="node3" class="node">
<title>Node3</title>
<g id="a_node3"><a xlink:href="../../d4/dc1/classios__base.html#ade5bd46462e075999c3a5c2cff2015f1" target="_top" xlink:title=" ">
<polygon fill="white" stroke="black" points="439,-60.5 439,-81.5 521,-81.5 521,-60.5 439,-60.5"/>
<text text-anchor="middle" x="480" y="-67.9" font-family="Helvetica,sans-Serif" font-size="12.00">ios_base::fill</text>
</a>
</g>
</g>
<!-- Node2&#45;&gt;Node3 -->
<g id="edge2" class="edge">
<title>Node2&#45;&gt;Node3</title>
<path fill="none" stroke="midnightblue" d="M395.29,-58.22C406.18,-59.88 417.79,-61.66 428.8,-63.34"/>
<polygon fill="midnightblue" stroke="midnightblue" points="428.28,-66.8 438.69,-64.85 429.34,-59.88 428.28,-66.8"/>
</g>
<!-- Node4 -->
<g id="node4" class="node">
<title>Node4</title>
<g id="a_node4"><a xlink:href="../../d4/dc1/classios__base.html#afa30e7644b4eae5928ad9c487ad387de" target="_top" xlink:title=" ">
<polygon fill="white" stroke="black" points="431,-20.5 431,-41.5 529,-41.5 529,-20.5 431,-20.5"/>
<text text-anchor="middle" x="480" y="-27.9" font-family="Helvetica,sans-Serif" font-size="12.00">ios_base::width</text>
</a>
</g>
</g>
<!-- Node2&#45;&gt;Node4 -->
<g id="edge3" class="edge">
<title>Node2&#45;&gt;Node4</title>
<path fill="none" stroke="midnightblue" d="M395.29,-43.78C403.62,-42.51 412.37,-41.17 420.94,-39.86"/>
<polygon fill="midnightblue" stroke="midnightblue" points="421.54,-43.31 430.89,-38.34 420.48,-36.39 421.54,-43.31"/>
</g>
<!-- Node5&#45;&gt;Node2 -->
<g id="edge5" class="edge">
<title>Node5&#45;&gt;Node2</title>
<path fill="none" stroke="midnightblue" d="M242.43,-22.55C259.48,-27.24 279.72,-32.8 297.77,-37.75"/>
<polygon fill="midnightblue" stroke="midnightblue" points="296.97,-41.16 307.54,-40.44 298.83,-34.41 296.97,-41.16"/>
</g>
<!-- Node6 -->
<g id="node6" class="node">
<title>Node6</title>
<g id="a_node6"><a xlink:href="../../d4/dc1/classios__base.html#a2a73a30a8b157cc1cc92bb55b0a62e4a" target="_top" xlink:title=" ">
<polygon fill="white" stroke="black" points="299,-0.5 299,-21.5 395,-21.5 395,-0.5 299,-0.5"/>
<text text-anchor="middle" x="347" y="-7.9" font-family="Helvetica,sans-Serif" font-size="12.00">ios_base::flags</text>
</a>
</g>
</g>
<!-- Node5&#45;&gt;Node6 -->
<g id="edge6" class="edge">
<title>Node5&#45;&gt;Node6</title>
<path fill="none" stroke="midnightblue" d="M263.4,-11.58C271.83,-11.52 280.48,-11.46 288.86,-11.4"/>
<polygon fill="midnightblue" stroke="midnightblue" points="288.95,-14.9 298.93,-11.33 288.9,-7.9 288.95,-14.9"/>
</g>
</g>
</svg>
        <g id="navigator" transform="translate(0 0)" fill="#404254">
                <rect fill="#f2f5e9" fill-opacity="0.5" stroke="#606060" stroke-width=".5" x="0" y="0" width="60" height="60"/>
                <use id="zoomplus" xlink:href="#zoomPlus" x="17" y="9" onmousedown="handleZoom(evt,'in')"/>
                <use id="zoomminus" xlink:href="#zoomMin" x="42" y="9" onmousedown="handleZoom(evt,'out')"/>
                <use id="reset" xlink:href="#resetDef" x="30" y="36" onmousedown="handleReset()"/>
                <g id="arrowUp" xlink:href="#dirArrow" transform="translate(30 24)" onmousedown="handlePan(0,-1)">
                  <use xlink:href="#rim" fill="#404040">
                        <set attributeName="fill" to="#808080" begin="arrowUp.mouseover" end="arrowUp.mouseout"/>
                  </use>
                  <path fill="none" stroke="white" stroke-width="1.5" d="M0,-3.0v7 M-2.5,-0.5L0,-3.0L2.5,-0.5"/>
                </g>
                <g id="arrowRight" xlink:href="#dirArrow" transform="rotate(90) translate(36 -43)" onmousedown="handlePan(1,0)">
                  <use xlink:href="#rim" fill="#404040">
                        <set attributeName="fill" to="#808080" begin="arrowRight.mouseover" end="arrowRight.mouseout"/>
                  </use>
                  <path fill="none" stroke="white" stroke-width="1.5" d="M0,-3.0v7 M-2.5,-0.5L0,-3.0L2.5,-0.5"/>
                </g>
                <g id="arrowDown" xlink:href="#dirArrow" transform="rotate(180) translate(-30 -48)" onmousedown="handlePan(0,1)">
                  <use xlink:href="#rim" fill="#404040">
                        <set attributeName="fill" to="#808080" begin="arrowDown.mouseover" end="arrowDown.mouseout"/>
                  </use>
                  <path fill="none" stroke="white" stroke-width="1.5" d="M0,-3.0v7 M-2.5,-0.5L0,-3.0L2.5,-0.5"/>
                </g>
                <g id="arrowLeft" xlink:href="#dirArrow" transform="rotate(270) translate(-36 17)" onmousedown="handlePan(-1,0)">
                  <use xlink:href="#rim" fill="#404040">
                        <set attributeName="fill" to="#808080" begin="arrowLeft.mouseover" end="arrowLeft.mouseout"/>
                  </use>
                  <path fill="none" stroke="white" stroke-width="1.5" d="M0,-3.0v7 M-2.5,-0.5L0,-3.0L2.5,-0.5"/>
                </g>
        </g>
        <svg viewBox="0 0 15 15" width="100%" height="30px" preserveAspectRatio="xMaxYMin meet">
         <g id="arrow_out" transform="scale(0.3 0.3)">
          <a xlink:href="classostream_a274ada578ffd2335fa220c6ed74f3702_cgraph_org.svg" target="_base">
           <rect id="button" ry="5" rx="5" y="6" x="6" height="38" width="38"
                fill="#f2f5e9" fill-opacity="0.5" stroke="#606060" stroke-width="1.0"/>
           <path id="arrow"
             d="M 11.500037,31.436501 C 11.940474,20.09759 22.043105,11.32322 32.158766,21.979434 L 37.068811,17.246167 C 37.068811,17.246167 37.088388,32 37.088388,32 L 22.160133,31.978069 C 22.160133,31.978069 26.997745,27.140456 26.997745,27.140456 C 18.528582,18.264221 13.291696,25.230495 11.500037,31.436501 z"
             style="fill:#404040;"/>
          </a>
         </g>
        </svg>
</svg>
