<?xml version="1.0" encoding="UTF-8" standalone="no"?>
<!DOCTYPE svg PUBLIC "-//W3C//DTD SVG 1.1//EN"
 "http://www.w3.org/Graphics/SVG/1.1/DTD/svg11.dtd">
<!-- Generated by graphviz version 2.47.3 (20210619.1520)
 -->
<!-- Title: ostream::do_fill Pages: 1 -->
<svg width="721pt" height="186pt"
 viewBox="0.00 0.00 721.00 186.00" xmlns="http://www.w3.org/2000/svg" xmlns:xlink="http://www.w3.org/1999/xlink">
<g id="graph0" class="graph" transform="scale(1 1) rotate(0) translate(4 182)">
<title>ostream::do_fill</title>
<polygon fill="white" stroke="transparent" points="-4,4 -4,-182 717,-182 717,4 -4,4"/>
<!-- Node1 -->
<g id="node1" class="node">
<title>Node1</title>
<g id="a_node1"><a xlink:title=" ">
<polygon fill="#bfbfbf" stroke="black" points="617,-78.5 617,-99.5 713,-99.5 713,-78.5 617,-78.5"/>
<text text-anchor="middle" x="665" y="-85.9" font-family="Helvetica,sans-Serif" font-size="12.00">ostream::do_fill</text>
</a>
</g>
</g>
<!-- Node2 -->
<g id="node2" class="node">
<title>Node2</title>
<g id="a_node2"><a xlink:href="../../d0/d43/classostream.html#ad5027f5ab212cf912b795ba8a26b7808" target="_top" xlink:title=" ">
<polygon fill="white" stroke="black" points="461,-78.5 461,-99.5 581,-99.5 581,-78.5 461,-78.5"/>
<text text-anchor="middle" x="521" y="-85.9" font-family="Helvetica,sans-Serif" font-size="12.00">ostream::fill_not_left</text>
</a>
</g>
</g>
<!-- Node1&#45;&gt;Node2 -->
<g id="edge1" class="edge">
<title>Node1&#45;&gt;Node2</title>
<path fill="none" stroke="midnightblue" d="M606.65,-89C598.27,-89 589.62,-89 581.2,-89"/>
<polygon fill="midnightblue" stroke="midnightblue" points="606.72,-92.5 616.72,-89 606.72,-85.5 606.72,-92.5"/>
</g>
<!-- Node3 -->
<g id="node3" class="node">
<title>Node3</title>
<g id="a_node3"><a xlink:href="../../d0/d43/classostream.html#a274ada578ffd2335fa220c6ed74f3702" target="_top" xlink:title=" ">
<polygon fill="white" stroke="black" points="318,-156.5 318,-177.5 425,-177.5 425,-156.5 318,-156.5"/>
<text text-anchor="middle" x="371.5" y="-163.9" font-family="Helvetica,sans-Serif" font-size="12.00">ostream::putChar</text>
</a>
</g>
</g>
<!-- Node1&#45;&gt;Node3 -->
<g id="edge11" class="edge">
<title>Node1&#45;&gt;Node3</title>
<path fill="none" stroke="midnightblue" d="M636.62,-104.5C620.8,-112.87 600.27,-122.73 581,-129 529.39,-145.8 468.04,-155.85 425.3,-161.36"/>
<polygon fill="midnightblue" stroke="midnightblue" points="638.67,-107.37 645.81,-99.54 635.34,-101.21 638.67,-107.37"/>
</g>
<!-- Node6 -->
<g id="node6" class="node">
<title>Node6</title>
<g id="a_node6"><a xlink:href="../../d0/d43/classostream.html#a3a77bc22bce5cf5d09f2d3816a11dd18" target="_top" xlink:title=" ">
<polygon fill="white" stroke="black" points="161,-77.5 161,-98.5 280,-98.5 280,-77.5 161,-77.5"/>
<text text-anchor="middle" x="220.5" y="-84.9" font-family="Helvetica,sans-Serif" font-size="12.00">ostream::putDouble</text>
</a>
</g>
</g>
<!-- Node1&#45;&gt;Node6 -->
<g id="edge12" class="edge">
<title>Node1&#45;&gt;Node6</title>
<path fill="none" stroke="midnightblue" d="M618.51,-75.99C606.42,-73.1 593.3,-70.46 581,-69 475.49,-56.47 351.58,-68.96 280.23,-78.76"/>
<polygon fill="midnightblue" stroke="midnightblue" points="617.83,-79.43 628.38,-78.46 619.53,-72.64 617.83,-79.43"/>
</g>
<!-- Node7 -->
<g id="node7" class="node">
<title>Node7</title>
<g id="a_node7"><a xlink:href="../../d0/d43/classostream.html#aa6c0ca9fc60d344bd0080be309c32ccb" target="_top" xlink:title=" ">
<polygon fill="white" stroke="black" points="318.5,-116.5 318.5,-137.5 424.5,-137.5 424.5,-116.5 318.5,-116.5"/>
<text text-anchor="middle" x="371.5" y="-123.9" font-family="Helvetica,sans-Serif" font-size="12.00">ostream::putPgm</text>
</a>
</g>
</g>
<!-- Node1&#45;&gt;Node7 -->
<g id="edge13" class="edge">
<title>Node1&#45;&gt;Node7</title>
<path fill="none" stroke="midnightblue" d="M615.34,-102.02C604.13,-104.66 592.2,-107.18 581,-109 528.11,-117.61 466.95,-122.27 424.61,-124.68"/>
<polygon fill="midnightblue" stroke="midnightblue" points="616.5,-105.34 625.4,-99.58 614.85,-98.53 616.5,-105.34"/>
</g>
<!-- Node8 -->
<g id="node8" class="node">
<title>Node8</title>
<g id="a_node8"><a xlink:href="../../d0/d43/classostream.html#a435bd154f24800d721b7c2839943d6c5" target="_top" xlink:title=" ">
<polygon fill="white" stroke="black" points="323.5,-0.5 323.5,-21.5 419.5,-21.5 419.5,-0.5 323.5,-0.5"/>
<text text-anchor="middle" x="371.5" y="-7.9" font-family="Helvetica,sans-Serif" font-size="12.00">ostream::putStr</text>
</a>
</g>
</g>
<!-- Node1&#45;&gt;Node8 -->
<g id="edge14" class="edge">
<title>Node1&#45;&gt;Node8</title>
<path fill="none" stroke="midnightblue" d="M643.36,-72.07C627.36,-59.91 604.09,-44.27 581,-36 527.97,-17.01 463.01,-11.84 419.83,-10.72"/>
<polygon fill="midnightblue" stroke="midnightblue" points="641.42,-74.99 651.46,-78.39 645.73,-69.48 641.42,-74.99"/>
</g>
<!-- Node2&#45;&gt;Node3 -->
<g id="edge2" class="edge">
<title>Node2&#45;&gt;Node3</title>
<path fill="none" stroke="midnightblue" d="M496.19,-105.24C477.38,-117.64 450.2,-134.64 425,-147 418.08,-150.39 410.43,-153.6 403.17,-156.4"/>
<polygon fill="midnightblue" stroke="midnightblue" points="498.32,-108.02 504.7,-99.56 494.44,-102.2 498.32,-108.02"/>
</g>
<!-- Node2&#45;&gt;Node6 -->
<g id="edge5" class="edge">
<title>Node2&#45;&gt;Node6</title>
<path fill="none" stroke="midnightblue" d="M450.59,-88.77C398.91,-88.59 329.13,-88.36 280.21,-88.2"/>
<polygon fill="midnightblue" stroke="midnightblue" points="450.66,-92.27 460.67,-88.8 450.68,-85.27 450.66,-92.27"/>
</g>
<!-- Node2&#45;&gt;Node7 -->
<g id="edge6" class="edge">
<title>Node2&#45;&gt;Node7</title>
<path fill="none" stroke="midnightblue" d="M469.05,-102.13C450.85,-106.81 430.6,-112.03 413.37,-116.47"/>
<polygon fill="midnightblue" stroke="midnightblue" points="470.1,-105.47 478.91,-99.59 468.36,-98.69 470.1,-105.47"/>
</g>
<!-- Node2&#45;&gt;Node8 -->
<g id="edge9" class="edge">
<title>Node2&#45;&gt;Node8</title>
<path fill="none" stroke="midnightblue" d="M491.24,-73.79C462.18,-58.42 418.03,-35.08 392.55,-21.6"/>
<polygon fill="midnightblue" stroke="midnightblue" points="489.63,-76.9 500.11,-78.48 492.9,-70.71 489.63,-76.9"/>
</g>
<!-- Node4 -->
<g id="node4" class="node">
<title>Node4</title>
<g id="a_node4"><a xlink:href="../../d0/d43/classostream.html#a9cb156e9728eee5ff9307a3a3ded4d58" target="_top" xlink:title=" ">
<polygon fill="white" stroke="black" points="168,-136.5 168,-157.5 273,-157.5 273,-136.5 168,-136.5"/>
<text text-anchor="middle" x="220.5" y="-143.9" font-family="Helvetica,sans-Serif" font-size="12.00">ostream::putBool</text>
</a>
</g>
</g>
<!-- Node3&#45;&gt;Node4 -->
<g id="edge3" class="edge">
<title>Node3&#45;&gt;Node4</title>
<path fill="none" stroke="midnightblue" d="M307.9,-158.6C296.29,-157.04 284.29,-155.43 273.06,-153.92"/>
<polygon fill="midnightblue" stroke="midnightblue" points="307.59,-162.09 317.97,-159.95 308.52,-155.15 307.59,-162.09"/>
</g>
<!-- Node5 -->
<g id="node5" class="node">
<title>Node5</title>
<g id="a_node5"><a xlink:href="../../d0/d43/classostream.html#a63e3999be154253cf92a45c22e548f51" target="_top" xlink:title=" ">
<polygon fill="white" stroke="black" points="0,-136.5 0,-157.5 123,-157.5 123,-136.5 0,-136.5"/>
<text text-anchor="middle" x="61.5" y="-143.9" font-family="Helvetica,sans-Serif" font-size="12.00">ostream::operator&lt;&lt;</text>
</a>
</g>
</g>
<!-- Node4&#45;&gt;Node5 -->
<g id="edge4" class="edge">
<title>Node4&#45;&gt;Node5</title>
<path fill="none" stroke="midnightblue" d="M157.42,-147C146.09,-147 134.28,-147 123,-147"/>
<polygon fill="midnightblue" stroke="midnightblue" points="157.66,-150.5 167.66,-147 157.66,-143.5 157.66,-150.5"/>
</g>
<!-- Node7&#45;&gt;Node4 -->
<g id="edge7" class="edge">
<title>Node7&#45;&gt;Node4</title>
<path fill="none" stroke="midnightblue" d="M308.24,-135.36C296.53,-136.93 284.42,-138.56 273.08,-140.08"/>
<polygon fill="midnightblue" stroke="midnightblue" points="308.94,-138.79 318.39,-134 308.01,-131.86 308.94,-138.79"/>
</g>
<!-- Node7&#45;&gt;Node6 -->
<g id="edge8" class="edge">
<title>Node7&#45;&gt;Node6</title>
<path fill="none" stroke="midnightblue" d="M320.46,-113.9C301.39,-108.91 279.91,-103.29 261.85,-98.56"/>
<polygon fill="midnightblue" stroke="midnightblue" points="319.62,-117.3 330.18,-116.45 321.39,-110.53 319.62,-117.3"/>
</g>
<!-- Node9 -->
<g id="node9" class="node">
<title>Node9</title>
<g id="a_node9"><a xlink:href="../../d0/d43/classostream.html#a618b5d6861dde2347847102b89e0ccfa" target="_top" xlink:title=" ">
<polygon fill="white" stroke="black" points="159,-0.5 159,-21.5 282,-21.5 282,-0.5 159,-0.5"/>
<text text-anchor="middle" x="220.5" y="-7.9" font-family="Helvetica,sans-Serif" font-size="12.00">ostream::operator&lt;&lt;</text>
</a>
</g>
</g>
<!-- Node8&#45;&gt;Node9 -->
<g id="edge10" class="edge">
<title>Node8&#45;&gt;Node9</title>
<path fill="none" stroke="midnightblue" d="M313.04,-11C302.96,-11 292.43,-11 282.27,-11"/>
<polygon fill="midnightblue" stroke="midnightblue" points="313.36,-14.5 323.36,-11 313.36,-7.5 313.36,-14.5"/>
</g>
</g>
</svg>
