<?xml version="1.0" encoding="UTF-8" standalone="no"?>
<!DOCTYPE svg PUBLIC "-//W3C//DTD SVG 1.1//EN"
 "http://www.w3.org/Graphics/SVG/1.1/DTD/svg11.dtd">
<!-- Generated by graphviz version 2.47.3 (20210619.1520)
 -->
<!-- Title: ostream::fill_not_left Pages: 1 -->
<svg width="589pt" height="148pt"
 viewBox="0.00 0.00 589.00 148.00" xmlns="http://www.w3.org/2000/svg" xmlns:xlink="http://www.w3.org/1999/xlink">
<g id="graph0" class="graph" transform="scale(1 1) rotate(0) translate(4 144)">
<title>ostream::fill_not_left</title>
<polygon fill="white" stroke="transparent" points="-4,4 -4,-144 585,-144 585,4 -4,4"/>
<!-- Node1 -->
<g id="node1" class="node">
<title>Node1</title>
<g id="a_node1"><a xlink:title=" ">
<polygon fill="#bfbfbf" stroke="black" points="461,-58.5 461,-79.5 581,-79.5 581,-58.5 461,-58.5"/>
<text text-anchor="middle" x="521" y="-65.9" font-family="Helvetica,sans-Serif" font-size="12.00">ostream::fill_not_left</text>
</a>
</g>
</g>
<!-- Node2 -->
<g id="node2" class="node">
<title>Node2</title>
<g id="a_node2"><a xlink:href="../../d0/d43/classostream.html#a274ada578ffd2335fa220c6ed74f3702" target="_top" xlink:title=" ">
<polygon fill="white" stroke="black" points="318,-118.5 318,-139.5 425,-139.5 425,-118.5 318,-118.5"/>
<text text-anchor="middle" x="371.5" y="-125.9" font-family="Helvetica,sans-Serif" font-size="12.00">ostream::putChar</text>
</a>
</g>
</g>
<!-- Node1&#45;&gt;Node2 -->
<g id="edge1" class="edge">
<title>Node1&#45;&gt;Node2</title>
<path fill="none" stroke="midnightblue" d="M485.97,-83.66C467.92,-91.36 445.32,-100.85 425,-109 417.12,-112.16 408.54,-115.48 400.63,-118.49"/>
<polygon fill="midnightblue" stroke="midnightblue" points="487.67,-86.74 495.49,-79.59 484.92,-80.31 487.67,-86.74"/>
</g>
<!-- Node5 -->
<g id="node5" class="node">
<title>Node5</title>
<g id="a_node5"><a xlink:href="../../d0/d43/classostream.html#a3a77bc22bce5cf5d09f2d3816a11dd18" target="_top" xlink:title=" ">
<polygon fill="white" stroke="black" points="161,-59.5 161,-80.5 280,-80.5 280,-59.5 161,-59.5"/>
<text text-anchor="middle" x="220.5" y="-66.9" font-family="Helvetica,sans-Serif" font-size="12.00">ostream::putDouble</text>
</a>
</g>
</g>
<!-- Node1&#45;&gt;Node5 -->
<g id="edge4" class="edge">
<title>Node1&#45;&gt;Node5</title>
<path fill="none" stroke="midnightblue" d="M450.6,-68.82C411.62,-68.77 362.1,-68.77 318,-69 305.77,-69.06 292.67,-69.17 280.19,-69.29"/>
<polygon fill="midnightblue" stroke="midnightblue" points="450.77,-72.32 460.78,-68.84 450.78,-65.32 450.77,-72.32"/>
</g>
<!-- Node6 -->
<g id="node6" class="node">
<title>Node6</title>
<g id="a_node6"><a xlink:href="../../d0/d43/classostream.html#aa6c0ca9fc60d344bd0080be309c32ccb" target="_top" xlink:title=" ">
<polygon fill="white" stroke="black" points="318.5,-78.5 318.5,-99.5 424.5,-99.5 424.5,-78.5 318.5,-78.5"/>
<text text-anchor="middle" x="371.5" y="-85.9" font-family="Helvetica,sans-Serif" font-size="12.00">ostream::putPgm</text>
</a>
</g>
</g>
<!-- Node1&#45;&gt;Node6 -->
<g id="edge5" class="edge">
<title>Node1&#45;&gt;Node6</title>
<path fill="none" stroke="midnightblue" d="M450.9,-78.37C442.02,-79.57 433.06,-80.79 424.52,-81.95"/>
<polygon fill="midnightblue" stroke="midnightblue" points="451.42,-81.83 460.86,-77.02 450.48,-74.89 451.42,-81.83"/>
</g>
<!-- Node7 -->
<g id="node7" class="node">
<title>Node7</title>
<g id="a_node7"><a xlink:href="../../d0/d43/classostream.html#a435bd154f24800d721b7c2839943d6c5" target="_top" xlink:title=" ">
<polygon fill="white" stroke="black" points="323.5,-0.5 323.5,-21.5 419.5,-21.5 419.5,-0.5 323.5,-0.5"/>
<text text-anchor="middle" x="371.5" y="-7.9" font-family="Helvetica,sans-Serif" font-size="12.00">ostream::putStr</text>
</a>
</g>
</g>
<!-- Node1&#45;&gt;Node7 -->
<g id="edge8" class="edge">
<title>Node1&#45;&gt;Node7</title>
<path fill="none" stroke="midnightblue" d="M483.76,-54.75C457.72,-44.51 423.16,-30.92 399.51,-21.62"/>
<polygon fill="midnightblue" stroke="midnightblue" points="482.7,-58.09 493.29,-58.5 485.26,-51.58 482.7,-58.09"/>
</g>
<!-- Node3 -->
<g id="node3" class="node">
<title>Node3</title>
<g id="a_node3"><a xlink:href="../../d0/d43/classostream.html#a9cb156e9728eee5ff9307a3a3ded4d58" target="_top" xlink:title=" ">
<polygon fill="white" stroke="black" points="168,-108.5 168,-129.5 273,-129.5 273,-108.5 168,-108.5"/>
<text text-anchor="middle" x="220.5" y="-115.9" font-family="Helvetica,sans-Serif" font-size="12.00">ostream::putBool</text>
</a>
</g>
</g>
<!-- Node2&#45;&gt;Node3 -->
<g id="edge2" class="edge">
<title>Node2&#45;&gt;Node3</title>
<path fill="none" stroke="midnightblue" d="M307.9,-124.8C296.29,-124.02 284.29,-123.21 273.06,-122.46"/>
<polygon fill="midnightblue" stroke="midnightblue" points="307.76,-128.3 317.97,-125.47 308.23,-121.31 307.76,-128.3"/>
</g>
<!-- Node4 -->
<g id="node4" class="node">
<title>Node4</title>
<g id="a_node4"><a xlink:href="../../d0/d43/classostream.html#a63e3999be154253cf92a45c22e548f51" target="_top" xlink:title=" ">
<polygon fill="white" stroke="black" points="0,-108.5 0,-129.5 123,-129.5 123,-108.5 0,-108.5"/>
<text text-anchor="middle" x="61.5" y="-115.9" font-family="Helvetica,sans-Serif" font-size="12.00">ostream::operator&lt;&lt;</text>
</a>
</g>
</g>
<!-- Node3&#45;&gt;Node4 -->
<g id="edge3" class="edge">
<title>Node3&#45;&gt;Node4</title>
<path fill="none" stroke="midnightblue" d="M157.42,-119C146.09,-119 134.28,-119 123,-119"/>
<polygon fill="midnightblue" stroke="midnightblue" points="157.66,-122.5 167.66,-119 157.66,-115.5 157.66,-122.5"/>
</g>
<!-- Node6&#45;&gt;Node3 -->
<g id="edge6" class="edge">
<title>Node6&#45;&gt;Node3</title>
<path fill="none" stroke="midnightblue" d="M308.24,-101.54C296.53,-103.89 284.42,-106.33 273.08,-108.61"/>
<polygon fill="midnightblue" stroke="midnightblue" points="309.27,-104.9 318.39,-99.49 307.89,-98.04 309.27,-104.9"/>
</g>
<!-- Node6&#45;&gt;Node5 -->
<g id="edge7" class="edge">
<title>Node6&#45;&gt;Node5</title>
<path fill="none" stroke="midnightblue" d="M308.39,-81.08C299.06,-79.89 289.46,-78.67 280.2,-77.49"/>
<polygon fill="midnightblue" stroke="midnightblue" points="308.02,-84.56 318.39,-82.35 308.91,-77.62 308.02,-84.56"/>
</g>
<!-- Node8 -->
<g id="node8" class="node">
<title>Node8</title>
<g id="a_node8"><a xlink:href="../../d0/d43/classostream.html#a618b5d6861dde2347847102b89e0ccfa" target="_top" xlink:title=" ">
<polygon fill="white" stroke="black" points="159,-0.5 159,-21.5 282,-21.5 282,-0.5 159,-0.5"/>
<text text-anchor="middle" x="220.5" y="-7.9" font-family="Helvetica,sans-Serif" font-size="12.00">ostream::operator&lt;&lt;</text>
</a>
</g>
</g>
<!-- Node7&#45;&gt;Node8 -->
<g id="edge9" class="edge">
<title>Node7&#45;&gt;Node8</title>
<path fill="none" stroke="midnightblue" d="M313.04,-11C302.96,-11 292.43,-11 282.27,-11"/>
<polygon fill="midnightblue" stroke="midnightblue" points="313.36,-14.5 323.36,-11 313.36,-7.5 313.36,-14.5"/>
</g>
</g>
</svg>
