<?xml version="1.0" encoding="UTF-8" standalone="no"?>
<!DOCTYPE svg PUBLIC "-//W3C//DTD SVG 1.1//EN"
 "http://www.w3.org/Graphics/SVG/1.1/DTD/svg11.dtd">
<!-- Generated by graphviz version 2.47.3 (20210619.1520)
 -->
<!-- Title: D:/brian/Dev/Eris/ERISCore/include/AppManager.h Pages: 1 -->
<!--zoomable 507 -->
<svg id="main" version="1.1" xmlns="http://www.w3.org/2000/svg" xmlns:xlink="http://www.w3.org/1999/xlink" xml:space="preserve" onload="init(evt)">
<style type="text/css"><![CDATA[
.edge:hover path { stroke: red; }
.edge:hover polygon { stroke: red; fill: red; }
]]></style>
<script type="text/javascript"><![CDATA[
var edges = document.getElementsByTagName('g');
if (edges && edges.length) {
  for (var i=0;i<edges.length;i++) {
    if (edges[i].id.substr(0,4)=='edge') {
      edges[i].setAttribute('class','edge');
    }
  }
}
]]></script>
        <defs>
                <circle id="rim" cx="0" cy="0" r="7"/>
                <circle id="rim2" cx="0" cy="0" r="3.5"/>
                <g id="zoomPlus">
                        <use xlink:href="#rim" fill="#404040">
                                <set attributeName="fill" to="#808080" begin="zoomplus.mouseover" end="zoomplus.mouseout"/>
                        </use>
                        <path d="M-4,0h8M0,-4v8" fill="none" stroke="white" stroke-width="1.5" pointer-events="none"/>
                </g>
                <g id="zoomMin">
                        <use xlink:href="#rim" fill="#404040">
                                <set attributeName="fill" to="#808080" begin="zoomminus.mouseover" end="zoomminus.mouseout"/>
                        </use>
                        <path d="M-4,0h8" fill="none" stroke="white" stroke-width="1.5" pointer-events="none"/>
                </g>
                <g id="dirArrow">
                        <path fill="none" stroke="white" stroke-width="1.5" d="M0,-3.0v7 M-2.5,-0.5L0,-3.0L2.5,-0.5"/>
                </g>
               <g id="resetDef">
                       <use xlink:href="#rim2" fill="#404040">
                               <set attributeName="fill" to="#808080" begin="reset.mouseover" end="reset.mouseout"/>
                       </use>
               </g>
        </defs>

<script type="text/javascript">
var viewWidth = 1612;
var viewHeight = 507;
var sectionId = 'dynsection-0';
</script>
<script xlink:href="../../svgpan.js"/>
<svg id="graph" class="graph">
<g id="viewport">
<title>D:/brian/Dev/Eris/ERISCore/include/AppManager.h</title>
<polygon fill="white" stroke="transparent" points="-4,4 -4,-503 1607.5,-503 1607.5,4 -4,4"/>
<!-- Node1 -->
<g id="node1" class="node">
<title>Node1</title>
<g id="a_node1"><a xlink:title=" ">
<polygon fill="#bfbfbf" stroke="black" points="972,-464.5 972,-498.5 1134,-498.5 1134,-464.5 972,-464.5"/>
<text text-anchor="start" x="980" y="-484.9" font-family="Helvetica,sans-Serif" font-size="12.00">D:/brian/Dev/Eris/ERISCore</text>
<text text-anchor="middle" x="1053" y="-471.9" font-family="Helvetica,sans-Serif" font-size="12.00">/include/AppManager.h</text>
</a>
</g>
</g>
<!-- Node2 -->
<g id="node2" class="node">
<title>Node2</title>
<g id="a_node2"><a xlink:title=" ">
<polygon fill="white" stroke="#bfbfbf" points="747,-0.5 747,-21.5 813,-21.5 813,-0.5 747,-0.5"/>
<text text-anchor="middle" x="780" y="-7.9" font-family="Helvetica,sans-Serif" font-size="12.00">Arduino.h</text>
</a>
</g>
</g>
<!-- Node1&#45;&gt;Node2 -->
<g id="edge1" class="edge">
<title>Node1&#45;&gt;Node2</title>
<path fill="none" stroke="midnightblue" d="M971.69,-479.71C724.69,-476.23 0,-457.7 0,-360 0,-360 0,-360 0,-126 0,-62.37 64.89,-75.74 126,-58 241.22,-24.55 610.21,-15 736.85,-12.67"/>
<polygon fill="midnightblue" stroke="midnightblue" points="737.01,-16.16 746.95,-12.49 736.89,-9.17 737.01,-16.16"/>
</g>
<!-- Node3 -->
<g id="node3" class="node">
<title>Node3</title>
<g id="a_node3"><a xlink:href="../../d8/d2c/globaldefs_8h.html" target="_top" xlink:title=" ">
<polygon fill="white" stroke="black" points="1318,-290.5 1318,-311.5 1398,-311.5 1398,-290.5 1318,-290.5"/>
<text text-anchor="middle" x="1358" y="-297.9" font-family="Helvetica,sans-Serif" font-size="12.00">globaldefs.h</text>
</a>
</g>
</g>
<!-- Node1&#45;&gt;Node3 -->
<g id="edge2" class="edge">
<title>Node1&#45;&gt;Node3</title>
<path fill="none" stroke="midnightblue" d="M1134.04,-466.43C1195.17,-451.93 1277.23,-423.58 1330,-370 1343.12,-356.68 1350.39,-336.34 1354.21,-321.38"/>
<polygon fill="midnightblue" stroke="midnightblue" points="1357.63,-322.14 1356.42,-311.61 1350.8,-320.59 1357.63,-322.14"/>
</g>
<!-- Node4 -->
<g id="node4" class="node">
<title>Node4</title>
<g id="a_node4"><a xlink:href="../../de/d10/_h_s_i_8h.html" target="_top" xlink:title=" ">
<polygon fill="white" stroke="black" points="944,-348.5 944,-369.5 988,-369.5 988,-348.5 944,-348.5"/>
<text text-anchor="middle" x="966" y="-355.9" font-family="Helvetica,sans-Serif" font-size="12.00">HSI.h</text>
</a>
</g>
</g>
<!-- Node1&#45;&gt;Node4 -->
<g id="edge3" class="edge">
<title>Node1&#45;&gt;Node4</title>
<path fill="none" stroke="midnightblue" d="M1041.27,-464.25C1025.05,-441.79 995.89,-401.4 979.02,-378.03"/>
<polygon fill="midnightblue" stroke="midnightblue" points="981.7,-375.77 973.01,-369.71 976.03,-379.87 981.7,-375.77"/>
</g>
<!-- Node5 -->
<g id="node5" class="node">
<title>Node5</title>
<g id="a_node5"><a xlink:href="../../d1/d4e/touch_8h.html" target="_top" xlink:title=" ">
<polygon fill="white" stroke="black" points="1478.5,-406.5 1478.5,-427.5 1531.5,-427.5 1531.5,-406.5 1478.5,-406.5"/>
<text text-anchor="middle" x="1505" y="-413.9" font-family="Helvetica,sans-Serif" font-size="12.00">touch.h</text>
</a>
</g>
</g>
<!-- Node1&#45;&gt;Node5 -->
<g id="edge4" class="edge">
<title>Node1&#45;&gt;Node5</title>
<path fill="none" stroke="midnightblue" d="M1134.22,-469.91C1212.57,-459.59 1334.48,-443.27 1440,-428 1449.2,-426.67 1459.11,-425.17 1468.36,-423.75"/>
<polygon fill="midnightblue" stroke="midnightblue" points="1469.1,-427.18 1478.45,-422.19 1468.03,-420.26 1469.1,-427.18"/>
</g>
<!-- Node7 -->
<g id="node7" class="node">
<title>Node7</title>
<g id="a_node7"><a xlink:href="../../d3/ddb/_analog_inputs_8h.html" target="_top" xlink:title=" ">
<polygon fill="white" stroke="black" points="860,-406.5 860,-427.5 952,-427.5 952,-406.5 860,-406.5"/>
<text text-anchor="middle" x="906" y="-413.9" font-family="Helvetica,sans-Serif" font-size="12.00">AnalogInputs.h</text>
</a>
</g>
</g>
<!-- Node1&#45;&gt;Node7 -->
<g id="edge6" class="edge">
<title>Node1&#45;&gt;Node7</title>
<path fill="none" stroke="midnightblue" d="M1015.14,-464.4C991.18,-454.21 960.54,-441.19 937.82,-431.53"/>
<polygon fill="midnightblue" stroke="midnightblue" points="939.19,-428.31 928.62,-427.62 936.45,-434.75 939.19,-428.31"/>
</g>
<!-- Node16 -->
<g id="node15" class="node">
<title>Node16</title>
<g id="a_node15"><a xlink:href="../../d2/dda/_i_l_i9341__t3___e_r_i_s_8h.html" target="_top" xlink:title=" ">
<polygon fill="white" stroke="black" points="570,-348.5 570,-369.5 684,-369.5 684,-348.5 570,-348.5"/>
<text text-anchor="middle" x="627" y="-355.9" font-family="Helvetica,sans-Serif" font-size="12.00">ILI9341_t3_ERIS.h</text>
</a>
</g>
</g>
<!-- Node1&#45;&gt;Node16 -->
<g id="edge17" class="edge">
<title>Node1&#45;&gt;Node16</title>
<path fill="none" stroke="midnightblue" d="M988.68,-464.49C948.91,-454.42 896.86,-440.92 851,-428 786.08,-409.72 711.2,-386.56 666.55,-372.54"/>
<polygon fill="midnightblue" stroke="midnightblue" points="667.55,-369.18 656.96,-369.52 665.45,-375.86 667.55,-369.18"/>
</g>
<!-- Node60 -->
<g id="node26" class="node">
<title>Node60</title>
<g id="a_node26"><a xlink:href="../../db/dc8/_audio_director_8h.html" target="_top" xlink:title=" ">
<polygon fill="white" stroke="black" points="1006,-348.5 1006,-369.5 1104,-369.5 1104,-348.5 1006,-348.5"/>
<text text-anchor="middle" x="1055" y="-355.9" font-family="Helvetica,sans-Serif" font-size="12.00">AudioDirector.h</text>
</a>
</g>
</g>
<!-- Node1&#45;&gt;Node60 -->
<g id="edge32" class="edge">
<title>Node1&#45;&gt;Node60</title>
<path fill="none" stroke="midnightblue" d="M1053.27,-464.25C1053.63,-442.39 1054.28,-403.53 1054.67,-379.93"/>
<polygon fill="midnightblue" stroke="midnightblue" points="1058.17,-379.77 1054.84,-369.71 1051.17,-379.65 1058.17,-379.77"/>
</g>
<!-- Node66 -->
<g id="node32" class="node">
<title>Node66</title>
<g id="a_node32"><a xlink:href="../../d9/d3e/_app_base_class_8h.html" target="_top" xlink:title=" ">
<polygon fill="white" stroke="black" points="1081.5,-406.5 1081.5,-427.5 1186.5,-427.5 1186.5,-406.5 1081.5,-406.5"/>
<text text-anchor="middle" x="1134" y="-413.9" font-family="Helvetica,sans-Serif" font-size="12.00">AppBaseClass.h</text>
</a>
</g>
</g>
<!-- Node1&#45;&gt;Node66 -->
<g id="edge46" class="edge">
<title>Node1&#45;&gt;Node66</title>
<path fill="none" stroke="midnightblue" d="M1073.86,-464.4C1085.93,-455.09 1101.07,-443.41 1113.14,-434.09"/>
<polygon fill="midnightblue" stroke="midnightblue" points="1115.52,-436.68 1121.3,-427.8 1111.24,-431.14 1115.52,-436.68"/>
</g>
<!-- Node68 -->
<g id="node34" class="node">
<title>Node68</title>
<g id="a_node34"><a xlink:href="../../dd/df4/svc_data_dictionary_8h.html" target="_top" xlink:title="Data Dictionary service provides an interface to a data dictionary service the service shall provide ...">
<polygon fill="white" stroke="black" points="1415.5,-58.5 1415.5,-79.5 1536.5,-79.5 1536.5,-58.5 1415.5,-58.5"/>
<text text-anchor="middle" x="1476" y="-65.9" font-family="Helvetica,sans-Serif" font-size="12.00">svcDataDictionary.h</text>
</a>
</g>
</g>
<!-- Node1&#45;&gt;Node68 -->
<g id="edge53" class="edge">
<title>Node1&#45;&gt;Node68</title>
<path fill="none" stroke="midnightblue" d="M1134.4,-470.82C1244.15,-455.46 1426,-420.82 1426,-360 1426,-360 1426,-360 1426,-184 1426,-147.5 1447.76,-109.55 1462.57,-87.94"/>
<polygon fill="midnightblue" stroke="midnightblue" points="1465.46,-89.91 1468.41,-79.74 1459.76,-85.86 1465.46,-89.91"/>
</g>
<!-- Node6 -->
<g id="node6" class="node">
<title>Node6</title>
<g id="a_node6"><a xlink:title=" ">
<polygon fill="white" stroke="#bfbfbf" points="1454.5,-348.5 1454.5,-369.5 1603.5,-369.5 1603.5,-348.5 1454.5,-348.5"/>
<text text-anchor="middle" x="1529" y="-355.9" font-family="Helvetica,sans-Serif" font-size="12.00">XPT2046_Touchscreen.h</text>
</a>
</g>
</g>
<!-- Node5&#45;&gt;Node6 -->
<g id="edge5" class="edge">
<title>Node5&#45;&gt;Node6</title>
<path fill="none" stroke="midnightblue" d="M1509.18,-406.25C1512.38,-398.78 1516.9,-388.24 1520.81,-379.11"/>
<polygon fill="midnightblue" stroke="midnightblue" points="1524.15,-380.21 1524.87,-369.64 1517.71,-377.46 1524.15,-380.21"/>
</g>
<!-- Node7&#45;&gt;Node2 -->
<g id="edge7" class="edge">
<title>Node7&#45;&gt;Node2</title>
<path fill="none" stroke="midnightblue" d="M859.95,-414.85C680.5,-409.76 38,-385.69 38,-302 38,-302 38,-302 38,-126 38,-54.89 577.23,-22.17 736.32,-14.07"/>
<polygon fill="midnightblue" stroke="midnightblue" points="736.86,-17.55 746.68,-13.55 736.51,-10.55 736.86,-17.55"/>
</g>
<!-- Node7&#45;&gt;Node4 -->
<g id="edge16" class="edge">
<title>Node7&#45;&gt;Node4</title>
<path fill="none" stroke="midnightblue" d="M916.45,-406.25C925.23,-398.05 937.96,-386.17 948.31,-376.51"/>
<polygon fill="midnightblue" stroke="midnightblue" points="950.75,-379.02 955.67,-369.64 945.97,-373.91 950.75,-379.02"/>
</g>
<!-- Node8 -->
<g id="node8" class="node">
<title>Node8</title>
<g id="a_node8"><a xlink:href="../../d2/ded/eris_audio_8h.html" target="_top" xlink:title="audio block class extentions (note: autogenerated code)">
<polygon fill="white" stroke="black" points="864,-290.5 864,-311.5 940,-311.5 940,-290.5 864,-290.5"/>
<text text-anchor="middle" x="902" y="-297.9" font-family="Helvetica,sans-Serif" font-size="12.00">erisAudio.h</text>
</a>
</g>
</g>
<!-- Node7&#45;&gt;Node8 -->
<g id="edge8" class="edge">
<title>Node7&#45;&gt;Node8</title>
<path fill="none" stroke="midnightblue" d="M905.66,-406.28C905,-387.6 903.56,-346.37 902.69,-321.72"/>
<polygon fill="midnightblue" stroke="midnightblue" points="906.19,-321.57 902.34,-311.69 899.19,-321.81 906.19,-321.57"/>
</g>
<!-- Node9 -->
<g id="node9" class="node">
<title>Node9</title>
<g id="a_node9"><a xlink:href="../../de/db5/eris__synth__waveform_8h.html" target="_top" xlink:title=" ">
<polygon fill="white" stroke="black" points="730.5,-232.5 730.5,-253.5 865.5,-253.5 865.5,-232.5 730.5,-232.5"/>
<text text-anchor="middle" x="798" y="-239.9" font-family="Helvetica,sans-Serif" font-size="12.00">eris_synth_waveform.h</text>
</a>
</g>
</g>
<!-- Node8&#45;&gt;Node9 -->
<g id="edge9" class="edge">
<title>Node8&#45;&gt;Node9</title>
<path fill="none" stroke="midnightblue" d="M883.88,-290.25C867.55,-281.45 843.33,-268.41 824.77,-258.41"/>
<polygon fill="midnightblue" stroke="midnightblue" points="826.37,-255.3 815.91,-253.64 823.05,-261.47 826.37,-255.3"/>
</g>
<!-- Node14 -->
<g id="node13" class="node">
<title>Node14</title>
<g id="a_node13"><a xlink:title=" ">
<polygon fill="white" stroke="#bfbfbf" points="884,-232.5 884,-253.5 940,-253.5 940,-232.5 884,-232.5"/>
<text text-anchor="middle" x="912" y="-239.9" font-family="Helvetica,sans-Serif" font-size="12.00">Audio.h</text>
</a>
</g>
</g>
<!-- Node8&#45;&gt;Node14 -->
<g id="edge14" class="edge">
<title>Node8&#45;&gt;Node14</title>
<path fill="none" stroke="midnightblue" d="M903.74,-290.25C905.05,-282.94 906.88,-272.69 908.48,-263.7"/>
<polygon fill="midnightblue" stroke="midnightblue" points="911.97,-264.1 910.28,-253.64 905.07,-262.87 911.97,-264.1"/>
</g>
<!-- Node15 -->
<g id="node14" class="node">
<title>Node15</title>
<g id="a_node14"><a xlink:title=" ">
<polygon fill="white" stroke="#bfbfbf" points="674,-232.5 674,-253.5 712,-253.5 712,-232.5 674,-232.5"/>
<text text-anchor="middle" x="693" y="-239.9" font-family="Helvetica,sans-Serif" font-size="12.00">new</text>
</a>
</g>
</g>
<!-- Node8&#45;&gt;Node15 -->
<g id="edge15" class="edge">
<title>Node8&#45;&gt;Node15</title>
<path fill="none" stroke="midnightblue" d="M863.93,-291.42C829.18,-283.36 776.27,-270.46 721.99,-254.11"/>
<polygon fill="midnightblue" stroke="midnightblue" points="722.79,-250.69 712.2,-251.13 720.75,-257.39 722.79,-250.69"/>
</g>
<!-- Node9&#45;&gt;Node2 -->
<g id="edge10" class="edge">
<title>Node9&#45;&gt;Node2</title>
<path fill="none" stroke="midnightblue" d="M759.9,-232.45C741.11,-225.61 720.13,-214.27 709,-196 674.53,-139.38 732.8,-63.17 763.25,-29.38"/>
<polygon fill="midnightblue" stroke="midnightblue" points="766.1,-31.46 770.32,-21.74 760.96,-26.7 766.1,-31.46"/>
</g>
<!-- Node10 -->
<g id="node10" class="node">
<title>Node10</title>
<g id="a_node10"><a xlink:href="../../df/d6c/_audio_stream_8h.html" target="_top" xlink:title=" ">
<polygon fill="white" stroke="red" points="751.5,-174.5 751.5,-195.5 846.5,-195.5 846.5,-174.5 751.5,-174.5"/>
<text text-anchor="middle" x="799" y="-181.9" font-family="Helvetica,sans-Serif" font-size="12.00">AudioStream.h</text>
</a>
</g>
</g>
<!-- Node9&#45;&gt;Node10 -->
<g id="edge11" class="edge">
<title>Node9&#45;&gt;Node10</title>
<path fill="none" stroke="midnightblue" d="M798.17,-232.25C798.3,-224.94 798.49,-214.69 798.65,-205.7"/>
<polygon fill="midnightblue" stroke="midnightblue" points="802.15,-205.7 798.83,-195.64 795.15,-205.58 802.15,-205.7"/>
</g>
<!-- Node13 -->
<g id="node12" class="node">
<title>Node13</title>
<g id="a_node12"><a xlink:title=" ">
<polygon fill="white" stroke="#bfbfbf" points="903,-174.5 903,-195.5 981,-195.5 981,-174.5 903,-174.5"/>
<text text-anchor="middle" x="942" y="-181.9" font-family="Helvetica,sans-Serif" font-size="12.00">arm_math.h</text>
</a>
</g>
</g>
<!-- Node9&#45;&gt;Node13 -->
<g id="edge13" class="edge">
<title>Node9&#45;&gt;Node13</title>
<path fill="none" stroke="midnightblue" d="M822.75,-232.37C846.28,-223.22 881.87,-209.38 908.04,-199.21"/>
<polygon fill="midnightblue" stroke="midnightblue" points="909.52,-202.39 917.57,-195.5 906.98,-195.86 909.52,-202.39"/>
</g>
<!-- Node12 -->
<g id="node11" class="node">
<title>Node12</title>
<g id="a_node11"><a xlink:title=" ">
<polygon fill="white" stroke="#bfbfbf" points="743,-116.5 743,-137.5 797,-137.5 797,-116.5 743,-116.5"/>
<text text-anchor="middle" x="770" y="-123.9" font-family="Helvetica,sans-Serif" font-size="12.00">string.h</text>
</a>
</g>
</g>
<!-- Node10&#45;&gt;Node12 -->
<g id="edge12" class="edge">
<title>Node10&#45;&gt;Node12</title>
<path fill="none" stroke="midnightblue" d="M793.95,-174.25C790,-166.62 784.39,-155.79 779.59,-146.53"/>
<polygon fill="midnightblue" stroke="midnightblue" points="782.7,-144.91 774.99,-137.64 776.48,-148.13 782.7,-144.91"/>
</g>
<!-- Node17 -->
<g id="node16" class="node">
<title>Node17</title>
<g id="a_node16"><a xlink:title=" ">
<polygon fill="white" stroke="#bfbfbf" points="494,-290.5 494,-311.5 580,-311.5 580,-290.5 494,-290.5"/>
<text text-anchor="middle" x="537" y="-297.9" font-family="Helvetica,sans-Serif" font-size="12.00">ILI9341_t3n.h</text>
</a>
</g>
</g>
<!-- Node16&#45;&gt;Node17 -->
<g id="edge18" class="edge">
<title>Node16&#45;&gt;Node17</title>
<path fill="none" stroke="midnightblue" d="M611.32,-348.25C597.51,-339.65 577.18,-327 561.27,-317.1"/>
<polygon fill="midnightblue" stroke="midnightblue" points="562.84,-313.95 552.5,-311.64 559.14,-319.9 562.84,-313.95"/>
</g>
<!-- Node18 -->
<g id="node17" class="node">
<title>Node18</title>
<g id="a_node17"><a xlink:href="../../d5/d3e/_sdio_card_8h.html" target="_top" xlink:title=" ">
<polygon fill="white" stroke="black" points="482.5,-174.5 482.5,-195.5 603.5,-195.5 603.5,-174.5 482.5,-174.5"/>
<text text-anchor="middle" x="543" y="-181.9" font-family="Helvetica,sans-Serif" font-size="12.00">SdCard/SdioCard.h</text>
</a>
</g>
</g>
<!-- Node16&#45;&gt;Node18 -->
<g id="edge19" class="edge">
<title>Node16&#45;&gt;Node18</title>
<path fill="none" stroke="midnightblue" d="M625.58,-348.2C622.06,-326.12 611.44,-271.34 588,-232 581.43,-220.98 571.7,-210.59 562.97,-202.48"/>
<polygon fill="midnightblue" stroke="midnightblue" points="565.15,-199.74 555.34,-195.72 560.51,-204.98 565.15,-199.74"/>
</g>
<!-- Node22 -->
<g id="node19" class="node">
<title>Node22</title>
<g id="a_node19"><a xlink:href="../../de/d9b/_sd_fat_config_8h.html" target="_top" xlink:title="configuration definitions">
<polygon fill="white" stroke="red" points="565,-58.5 565,-79.5 657,-79.5 657,-58.5 565,-58.5"/>
<text text-anchor="middle" x="611" y="-65.9" font-family="Helvetica,sans-Serif" font-size="12.00">SdFatConfig.h</text>
</a>
</g>
</g>
<!-- Node16&#45;&gt;Node22 -->
<g id="edge24" class="edge">
<title>Node16&#45;&gt;Node22</title>
<path fill="none" stroke="midnightblue" d="M629.72,-348.33C634.98,-328.79 646,-283.13 646,-244 646,-244 646,-244 646,-184 646,-149.33 631.02,-111.23 620.66,-89.03"/>
<polygon fill="midnightblue" stroke="midnightblue" points="623.68,-87.23 616.16,-79.75 617.38,-90.28 623.68,-87.23"/>
</g>
<!-- Node27 -->
<g id="node21" class="node">
<title>Node27</title>
<g id="a_node21"><a xlink:href="../../d5/ddc/_sd_fat_8h.html" target="_top" xlink:title="main SdFs include file.">
<polygon fill="white" stroke="black" points="375,-290.5 375,-311.5 433,-311.5 433,-290.5 375,-290.5"/>
<text text-anchor="middle" x="404" y="-297.9" font-family="Helvetica,sans-Serif" font-size="12.00">SdFat.h</text>
</a>
</g>
</g>
<!-- Node16&#45;&gt;Node27 -->
<g id="edge25" class="edge">
<title>Node16&#45;&gt;Node27</title>
<path fill="none" stroke="midnightblue" d="M588.92,-348.44C548.21,-338.21 483.99,-322.09 442.95,-311.78"/>
<polygon fill="midnightblue" stroke="midnightblue" points="443.59,-308.33 433.04,-309.29 441.89,-315.12 443.59,-308.33"/>
</g>
<!-- Node19 -->
<g id="node18" class="node">
<title>Node19</title>
<g id="a_node18"><a xlink:href="../../d9/da3/_sys_call_8h.html" target="_top" xlink:title="SysCall class.">
<polygon fill="white" stroke="red" points="366,-116.5 366,-137.5 488,-137.5 488,-116.5 366,-116.5"/>
<text text-anchor="middle" x="427" y="-123.9" font-family="Helvetica,sans-Serif" font-size="12.00">../common/SysCall.h</text>
</a>
</g>
</g>
<!-- Node18&#45;&gt;Node19 -->
<g id="edge20" class="edge">
<title>Node18&#45;&gt;Node19</title>
<path fill="none" stroke="midnightblue" d="M523.06,-174.37C504.52,-165.42 476.7,-151.99 455.76,-141.88"/>
<polygon fill="midnightblue" stroke="midnightblue" points="457.21,-138.7 446.68,-137.5 454.16,-145 457.21,-138.7"/>
</g>
<!-- Node24 -->
<g id="node20" class="node">
<title>Node24</title>
<g id="a_node20"><a xlink:href="../../da/d60/_sd_card_interface_8h.html" target="_top" xlink:title=" ">
<polygon fill="white" stroke="red" points="506.5,-116.5 506.5,-137.5 617.5,-137.5 617.5,-116.5 506.5,-116.5"/>
<text text-anchor="middle" x="562" y="-123.9" font-family="Helvetica,sans-Serif" font-size="12.00">SdCardInterface.h</text>
</a>
</g>
</g>
<!-- Node18&#45;&gt;Node24 -->
<g id="edge23" class="edge">
<title>Node18&#45;&gt;Node24</title>
<path fill="none" stroke="midnightblue" d="M546.31,-174.25C548.84,-166.78 552.42,-156.24 555.51,-147.11"/>
<polygon fill="midnightblue" stroke="midnightblue" points="558.83,-148.24 558.73,-137.64 552.2,-145.99 558.83,-148.24"/>
</g>
<!-- Node19&#45;&gt;Node22 -->
<g id="edge21" class="edge">
<title>Node19&#45;&gt;Node22</title>
<path fill="none" stroke="midnightblue" d="M458.63,-116.37C489.36,-107.02 536.18,-92.77 569.8,-82.54"/>
<polygon fill="midnightblue" stroke="midnightblue" points="571.23,-85.76 579.78,-79.5 569.2,-79.06 571.23,-85.76"/>
</g>
<!-- Node22&#45;&gt;Node2 -->
<g id="edge22" class="edge">
<title>Node22&#45;&gt;Node2</title>
<path fill="none" stroke="midnightblue" d="M640.05,-58.37C668.15,-49.06 710.91,-34.9 741.76,-24.67"/>
<polygon fill="midnightblue" stroke="midnightblue" points="742.94,-27.97 751.33,-21.5 740.73,-21.32 742.94,-27.97"/>
</g>
<!-- Node27&#45;&gt;Node19 -->
<g id="edge26" class="edge">
<title>Node27&#45;&gt;Node19</title>
<path fill="none" stroke="midnightblue" d="M408.25,-290.35C412.06,-281.19 417.44,-266.94 420,-254 427.33,-216.91 427.96,-172.57 427.59,-147.61"/>
<polygon fill="midnightblue" stroke="midnightblue" points="431.09,-147.52 427.37,-137.6 424.09,-147.67 431.09,-147.52"/>
</g>
<!-- Node28 -->
<g id="node22" class="node">
<title>Node28</title>
<g id="a_node22"><a xlink:href="../../db/d31/_sd_card_8h.html" target="_top" xlink:title=" ">
<polygon fill="white" stroke="red" points="468.5,-232.5 468.5,-253.5 579.5,-253.5 579.5,-232.5 468.5,-232.5"/>
<text text-anchor="middle" x="524" y="-239.9" font-family="Helvetica,sans-Serif" font-size="12.00">SdCard/SdCard.h</text>
</a>
</g>
</g>
<!-- Node27&#45;&gt;Node28 -->
<g id="edge27" class="edge">
<title>Node27&#45;&gt;Node28</title>
<path fill="none" stroke="midnightblue" d="M424.63,-290.37C443.89,-281.38 472.85,-267.87 494.54,-257.75"/>
<polygon fill="midnightblue" stroke="midnightblue" points="496.06,-260.9 503.64,-253.5 493.1,-254.56 496.06,-260.9"/>
</g>
<!-- Node34 -->
<g id="node23" class="node">
<title>Node34</title>
<g id="a_node23"><a xlink:href="../../d8/d23/_ex_fat_lib_8h.html" target="_top" xlink:title=" ">
<polygon fill="white" stroke="red" points="66.5,-232.5 66.5,-253.5 189.5,-253.5 189.5,-232.5 66.5,-232.5"/>
<text text-anchor="middle" x="128" y="-239.9" font-family="Helvetica,sans-Serif" font-size="12.00">ExFatLib/ExFatLib.h</text>
</a>
</g>
</g>
<!-- Node27&#45;&gt;Node34 -->
<g id="edge29" class="edge">
<title>Node27&#45;&gt;Node34</title>
<path fill="none" stroke="midnightblue" d="M374.98,-294.11C330.07,-285 242.87,-267.31 185.03,-255.57"/>
<polygon fill="midnightblue" stroke="midnightblue" points="185.44,-252.08 174.95,-253.53 184.05,-258.94 185.44,-252.08"/>
</g>
<!-- Node51 -->
<g id="node24" class="node">
<title>Node51</title>
<g id="a_node24"><a xlink:href="../../de/dfa/_fat_lib_8h.html" target="_top" xlink:title=" ">
<polygon fill="white" stroke="red" points="208,-232.5 208,-253.5 304,-253.5 304,-232.5 208,-232.5"/>
<text text-anchor="middle" x="256" y="-239.9" font-family="Helvetica,sans-Serif" font-size="12.00">FatLib/FatLib.h</text>
</a>
</g>
</g>
<!-- Node27&#45;&gt;Node51 -->
<g id="edge30" class="edge">
<title>Node27&#45;&gt;Node51</title>
<path fill="none" stroke="midnightblue" d="M378.56,-290.37C354.27,-281.18 317.48,-267.26 290.55,-257.07"/>
<polygon fill="midnightblue" stroke="midnightblue" points="291.7,-253.77 281.11,-253.5 289.22,-260.31 291.7,-253.77"/>
</g>
<!-- Node56 -->
<g id="node25" class="node">
<title>Node56</title>
<g id="a_node25"><a xlink:href="../../d3/d27/_fs_lib_8h.html" target="_top" xlink:title="FsLib include file.">
<polygon fill="white" stroke="red" points="322.5,-232.5 322.5,-253.5 411.5,-253.5 411.5,-232.5 322.5,-232.5"/>
<text text-anchor="middle" x="367" y="-239.9" font-family="Helvetica,sans-Serif" font-size="12.00">FsLib/FsLib.h</text>
</a>
</g>
</g>
<!-- Node27&#45;&gt;Node56 -->
<g id="edge31" class="edge">
<title>Node27&#45;&gt;Node56</title>
<path fill="none" stroke="midnightblue" d="M397.56,-290.25C392.46,-282.54 385.21,-271.56 379.05,-262.23"/>
<polygon fill="midnightblue" stroke="midnightblue" points="381.8,-260.06 373.37,-253.64 375.96,-263.92 381.8,-260.06"/>
</g>
<!-- Node28&#45;&gt;Node18 -->
<g id="edge28" class="edge">
<title>Node28&#45;&gt;Node18</title>
<path fill="none" stroke="midnightblue" d="M527.31,-232.25C529.84,-224.78 533.42,-214.24 536.51,-205.11"/>
<polygon fill="midnightblue" stroke="midnightblue" points="539.83,-206.24 539.73,-195.64 533.2,-203.99 539.83,-206.24"/>
</g>
<!-- Node60&#45;&gt;Node3 -->
<g id="edge33" class="edge">
<title>Node60&#45;&gt;Node3</title>
<path fill="none" stroke="midnightblue" d="M1104.02,-348.94C1159.99,-338.6 1251.11,-321.76 1307.64,-311.31"/>
<polygon fill="midnightblue" stroke="midnightblue" points="1308.58,-314.69 1317.77,-309.43 1307.3,-307.81 1308.58,-314.69"/>
</g>
<!-- Node60&#45;&gt;Node8 -->
<g id="edge35" class="edge">
<title>Node60&#45;&gt;Node8</title>
<path fill="none" stroke="midnightblue" d="M1028.7,-348.37C1003.59,-339.18 965.56,-325.26 937.71,-315.07"/>
<polygon fill="midnightblue" stroke="midnightblue" points="938.55,-311.65 927.96,-311.5 936.15,-318.23 938.55,-311.65"/>
</g>
<!-- Node60&#45;&gt;Node12 -->
<g id="edge34" class="edge">
<title>Node60&#45;&gt;Node12</title>
<path fill="none" stroke="midnightblue" d="M1050.1,-348.47C1037.21,-324.44 999.8,-261.21 949,-232 868.05,-185.46 802.11,-267.46 742,-196 729.63,-181.3 741.48,-160.39 753.34,-145.64"/>
<polygon fill="midnightblue" stroke="midnightblue" points="756.26,-147.63 760.15,-137.77 750.96,-143.05 756.26,-147.63"/>
</g>
<!-- Node61 -->
<g id="node27" class="node">
<title>Node61</title>
<g id="a_node27"><a xlink:href="../../d4/dfc/eris__analyze__fft1024_8h.html" target="_top" xlink:title=" ">
<polygon fill="white" stroke="black" points="1144,-232.5 1144,-253.5 1278,-253.5 1278,-232.5 1144,-232.5"/>
<text text-anchor="middle" x="1211" y="-239.9" font-family="Helvetica,sans-Serif" font-size="12.00">eris_analyze_fft1024.h</text>
</a>
</g>
</g>
<!-- Node60&#45;&gt;Node61 -->
<g id="edge36" class="edge">
<title>Node60&#45;&gt;Node61</title>
<path fill="none" stroke="midnightblue" d="M1068.03,-348.48C1094.81,-328.91 1156.25,-284.01 1189.19,-259.94"/>
<polygon fill="midnightblue" stroke="midnightblue" points="1191.67,-262.46 1197.67,-253.74 1187.54,-256.81 1191.67,-262.46"/>
</g>
<!-- Node65 -->
<g id="node31" class="node">
<title>Node65</title>
<g id="a_node31"><a xlink:href="../../d8/dc5/eris__analyze__scope_8h.html" target="_top" xlink:title=" ">
<polygon fill="white" stroke="black" points="996,-232.5 996,-253.5 1126,-253.5 1126,-232.5 996,-232.5"/>
<text text-anchor="middle" x="1061" y="-239.9" font-family="Helvetica,sans-Serif" font-size="12.00">eris_analyze_scope.h</text>
</a>
</g>
</g>
<!-- Node60&#45;&gt;Node65 -->
<g id="edge43" class="edge">
<title>Node60&#45;&gt;Node65</title>
<path fill="none" stroke="midnightblue" d="M1055.51,-348.28C1056.49,-329.6 1058.66,-288.37 1059.96,-263.72"/>
<polygon fill="midnightblue" stroke="midnightblue" points="1063.46,-263.87 1060.49,-253.69 1056.47,-263.5 1063.46,-263.87"/>
</g>
<!-- Node61&#45;&gt;Node2 -->
<g id="edge37" class="edge">
<title>Node61&#45;&gt;Node2</title>
<path fill="none" stroke="midnightblue" d="M1212.95,-232.06C1215.18,-217.68 1217,-190.95 1204,-174 1110,-51.42 911.34,-21.58 823.42,-14.32"/>
<polygon fill="midnightblue" stroke="midnightblue" points="823.5,-10.82 813.27,-13.55 822.97,-17.8 823.5,-10.82"/>
</g>
<!-- Node61&#45;&gt;Node10 -->
<g id="edge38" class="edge">
<title>Node61&#45;&gt;Node10</title>
<path fill="none" stroke="midnightblue" d="M1143.89,-232.88C1064.18,-222.04 932.55,-204.15 857.05,-193.89"/>
<polygon fill="midnightblue" stroke="midnightblue" points="857.16,-190.37 846.78,-192.49 856.22,-197.31 857.16,-190.37"/>
</g>
<!-- Node61&#45;&gt;Node13 -->
<g id="edge39" class="edge">
<title>Node61&#45;&gt;Node13</title>
<path fill="none" stroke="midnightblue" d="M1165.29,-232.49C1122.78,-223.64 1057.39,-210.03 991.23,-196.26"/>
<polygon fill="midnightblue" stroke="midnightblue" points="991.54,-192.74 981.03,-194.13 990.11,-199.6 991.54,-192.74"/>
</g>
<!-- Node62 -->
<g id="node28" class="node">
<title>Node62</title>
<g id="a_node28"><a xlink:title=" ">
<polygon fill="white" stroke="#bfbfbf" points="1251.5,-174.5 1251.5,-195.5 1358.5,-195.5 1358.5,-174.5 1251.5,-174.5"/>
<text text-anchor="middle" x="1305" y="-181.9" font-family="Helvetica,sans-Serif" font-size="12.00">analyze_fft1024.h</text>
</a>
</g>
</g>
<!-- Node61&#45;&gt;Node62 -->
<g id="edge40" class="edge">
<title>Node61&#45;&gt;Node62</title>
<path fill="none" stroke="midnightblue" d="M1227.37,-232.25C1241.93,-223.57 1263.43,-210.76 1280.12,-200.82"/>
<polygon fill="midnightblue" stroke="midnightblue" points="1282.01,-203.77 1288.81,-195.64 1278.43,-197.75 1282.01,-203.77"/>
</g>
<!-- Node63 -->
<g id="node29" class="node">
<title>Node63</title>
<g id="a_node29"><a xlink:title=" ">
<polygon fill="white" stroke="#bfbfbf" points="999.5,-174.5 999.5,-195.5 1052.5,-195.5 1052.5,-174.5 999.5,-174.5"/>
<text text-anchor="middle" x="1026" y="-181.9" font-family="Helvetica,sans-Serif" font-size="12.00">stdlib.h</text>
</a>
</g>
</g>
<!-- Node61&#45;&gt;Node63 -->
<g id="edge41" class="edge">
<title>Node61&#45;&gt;Node63</title>
<path fill="none" stroke="midnightblue" d="M1179.2,-232.37C1146.8,-222.57 1096.63,-207.38 1062.6,-197.08"/>
<polygon fill="midnightblue" stroke="midnightblue" points="1063.18,-193.6 1052.6,-194.05 1061.15,-200.3 1063.18,-193.6"/>
</g>
<!-- Node64 -->
<g id="node30" class="node">
<title>Node64</title>
<g id="a_node30"><a xlink:href="../../da/d3d/data__windows__f32_8h.html" target="_top" xlink:title=" ">
<polygon fill="white" stroke="black" points="1071,-174.5 1071,-195.5 1195,-195.5 1195,-174.5 1071,-174.5"/>
<text text-anchor="middle" x="1133" y="-181.9" font-family="Helvetica,sans-Serif" font-size="12.00">data_windows_f32.h</text>
</a>
</g>
</g>
<!-- Node61&#45;&gt;Node64 -->
<g id="edge42" class="edge">
<title>Node61&#45;&gt;Node64</title>
<path fill="none" stroke="midnightblue" d="M1197.41,-232.25C1185.67,-223.81 1168.48,-211.47 1154.81,-201.66"/>
<polygon fill="midnightblue" stroke="midnightblue" points="1156.6,-198.63 1146.43,-195.64 1152.51,-204.32 1156.6,-198.63"/>
</g>
<!-- Node65&#45;&gt;Node2 -->
<g id="edge44" class="edge">
<title>Node65&#45;&gt;Node2</title>
<path fill="none" stroke="midnightblue" d="M1011.01,-232.43C968.84,-223.61 912.48,-209.83 894,-196 835.67,-152.35 800.31,-69.29 786.58,-31.54"/>
<polygon fill="midnightblue" stroke="midnightblue" points="789.76,-30.04 783.14,-21.77 783.16,-32.37 789.76,-30.04"/>
</g>
<!-- Node65&#45;&gt;Node10 -->
<g id="edge45" class="edge">
<title>Node65&#45;&gt;Node10</title>
<path fill="none" stroke="midnightblue" d="M1016.26,-232.44C971.23,-222.81 901.73,-207.96 853.51,-197.65"/>
<polygon fill="midnightblue" stroke="midnightblue" points="854.07,-194.19 843.56,-195.52 852.6,-201.04 854.07,-194.19"/>
</g>
<!-- Node66&#45;&gt;Node2 -->
<g id="edge48" class="edge">
<title>Node66&#45;&gt;Node2</title>
<path fill="none" stroke="midnightblue" d="M1186.81,-408.47C1214.59,-402.18 1247.63,-390.73 1271,-370 1300.45,-343.88 1290.19,-324.58 1309,-290 1336.54,-239.36 1399.43,-221.65 1367,-174 1304.38,-81.97 947.59,-31.73 822.96,-16.8"/>
<polygon fill="midnightblue" stroke="midnightblue" points="823.36,-13.32 813.01,-15.62 822.53,-20.27 823.36,-13.32"/>
</g>
<!-- Node66&#45;&gt;Node3 -->
<g id="edge47" class="edge">
<title>Node66&#45;&gt;Node3</title>
<path fill="none" stroke="midnightblue" d="M1186.59,-410.47C1222.11,-404.75 1268.75,-393.19 1304,-370 1322.98,-357.51 1338.33,-336.16 1347.74,-320.71"/>
<polygon fill="midnightblue" stroke="midnightblue" points="1350.82,-322.38 1352.82,-311.98 1344.77,-318.87 1350.82,-322.38"/>
</g>
<!-- Node66&#45;&gt;Node4 -->
<g id="edge49" class="edge">
<title>Node66&#45;&gt;Node4</title>
<path fill="none" stroke="midnightblue" d="M1105.12,-406.37C1075.28,-396.43 1028.83,-380.94 997.92,-370.64"/>
<polygon fill="midnightblue" stroke="midnightblue" points="998.67,-367.2 988.08,-367.36 996.46,-373.84 998.67,-367.2"/>
</g>
<!-- Node66&#45;&gt;Node16 -->
<g id="edge50" class="edge">
<title>Node66&#45;&gt;Node16</title>
<path fill="none" stroke="midnightblue" d="M1081.18,-410.17C988.49,-399.93 796.73,-378.75 694.55,-367.46"/>
<polygon fill="midnightblue" stroke="midnightblue" points="694.67,-363.95 684.34,-366.33 693.9,-370.91 694.67,-363.95"/>
</g>
<!-- Node66&#45;&gt;Node60 -->
<g id="edge52" class="edge">
<title>Node66&#45;&gt;Node60</title>
<path fill="none" stroke="midnightblue" d="M1120.24,-406.25C1108.34,-397.81 1090.93,-385.47 1077.09,-375.66"/>
<polygon fill="midnightblue" stroke="midnightblue" points="1078.79,-372.57 1068.6,-369.64 1074.74,-378.28 1078.79,-372.57"/>
</g>
<!-- Node67 -->
<g id="node33" class="node">
<title>Node67</title>
<g id="a_node33"><a xlink:title=" ">
<polygon fill="white" stroke="#bfbfbf" points="1122,-348.5 1122,-369.5 1262,-369.5 1262,-348.5 1122,-348.5"/>
<text text-anchor="middle" x="1192" y="-355.9" font-family="Helvetica,sans-Serif" font-size="12.00">ili9341_t3n_font_Arial.h</text>
</a>
</g>
</g>
<!-- Node66&#45;&gt;Node67 -->
<g id="edge51" class="edge">
<title>Node66&#45;&gt;Node67</title>
<path fill="none" stroke="midnightblue" d="M1144.1,-406.25C1152.5,-398.14 1164.65,-386.41 1174.61,-376.79"/>
<polygon fill="midnightblue" stroke="midnightblue" points="1177.25,-379.11 1182.01,-369.64 1172.39,-374.07 1177.25,-379.11"/>
</g>
<!-- Node68&#45;&gt;Node2 -->
<g id="edge54" class="edge">
<title>Node68&#45;&gt;Node2</title>
<path fill="none" stroke="midnightblue" d="M1415.45,-59.62C1410.57,-59.04 1405.7,-58.49 1401,-58 1184.46,-35.56 924.33,-19.96 823.18,-14.32"/>
<polygon fill="midnightblue" stroke="midnightblue" points="823.23,-10.82 813.05,-13.76 822.84,-17.81 823.23,-10.82"/>
</g>
</g>
</svg>
        <g id="navigator" transform="translate(0 0)" fill="#404254">
                <rect fill="#f2f5e9" fill-opacity="0.5" stroke="#606060" stroke-width=".5" x="0" y="0" width="60" height="60"/>
                <use id="zoomplus" xlink:href="#zoomPlus" x="17" y="9" onmousedown="handleZoom(evt,'in')"/>
                <use id="zoomminus" xlink:href="#zoomMin" x="42" y="9" onmousedown="handleZoom(evt,'out')"/>
                <use id="reset" xlink:href="#resetDef" x="30" y="36" onmousedown="handleReset()"/>
                <g id="arrowUp" xlink:href="#dirArrow" transform="translate(30 24)" onmousedown="handlePan(0,-1)">
                  <use xlink:href="#rim" fill="#404040">
                        <set attributeName="fill" to="#808080" begin="arrowUp.mouseover" end="arrowUp.mouseout"/>
                  </use>
                  <path fill="none" stroke="white" stroke-width="1.5" d="M0,-3.0v7 M-2.5,-0.5L0,-3.0L2.5,-0.5"/>
                </g>
                <g id="arrowRight" xlink:href="#dirArrow" transform="rotate(90) translate(36 -43)" onmousedown="handlePan(1,0)">
                  <use xlink:href="#rim" fill="#404040">
                        <set attributeName="fill" to="#808080" begin="arrowRight.mouseover" end="arrowRight.mouseout"/>
                  </use>
                  <path fill="none" stroke="white" stroke-width="1.5" d="M0,-3.0v7 M-2.5,-0.5L0,-3.0L2.5,-0.5"/>
                </g>
                <g id="arrowDown" xlink:href="#dirArrow" transform="rotate(180) translate(-30 -48)" onmousedown="handlePan(0,1)">
                  <use xlink:href="#rim" fill="#404040">
                        <set attributeName="fill" to="#808080" begin="arrowDown.mouseover" end="arrowDown.mouseout"/>
                  </use>
                  <path fill="none" stroke="white" stroke-width="1.5" d="M0,-3.0v7 M-2.5,-0.5L0,-3.0L2.5,-0.5"/>
                </g>
                <g id="arrowLeft" xlink:href="#dirArrow" transform="rotate(270) translate(-36 17)" onmousedown="handlePan(-1,0)">
                  <use xlink:href="#rim" fill="#404040">
                        <set attributeName="fill" to="#808080" begin="arrowLeft.mouseover" end="arrowLeft.mouseout"/>
                  </use>
                  <path fill="none" stroke="white" stroke-width="1.5" d="M0,-3.0v7 M-2.5,-0.5L0,-3.0L2.5,-0.5"/>
                </g>
        </g>
        <svg viewBox="0 0 15 15" width="100%" height="30px" preserveAspectRatio="xMaxYMin meet">
         <g id="arrow_out" transform="scale(0.3 0.3)">
          <a xlink:href="_app_manager_8h__incl_org.svg" target="_base">
           <rect id="button" ry="5" rx="5" y="6" x="6" height="38" width="38"
                fill="#f2f5e9" fill-opacity="0.5" stroke="#606060" stroke-width="1.0"/>
           <path id="arrow"
             d="M 11.500037,31.436501 C 11.940474,20.09759 22.043105,11.32322 32.158766,21.979434 L 37.068811,17.246167 C 37.068811,17.246167 37.088388,32 37.088388,32 L 22.160133,31.978069 C 22.160133,31.978069 26.997745,27.140456 26.997745,27.140456 C 18.528582,18.264221 13.291696,25.230495 11.500037,31.436501 z"
             style="fill:#404040;"/>
          </a>
         </g>
        </svg>
</svg>
