<?xml version="1.0" encoding="UTF-8" standalone="no"?>
<!DOCTYPE svg PUBLIC "-//W3C//DTD SVG 1.1//EN"
 "http://www.w3.org/Graphics/SVG/1.1/DTD/svg11.dtd">
<!-- Generated by graphviz version 2.47.3 (20210619.1520)
 -->
<!-- Title: cpplint._NamespaceInfo.CheckEnd Pages: 1 -->
<svg width="392pt" height="137pt"
 viewBox="0.00 0.00 392.00 136.50" xmlns="http://www.w3.org/2000/svg" xmlns:xlink="http://www.w3.org/1999/xlink">
<g id="graph0" class="graph" transform="scale(1 1) rotate(0) translate(4 132.5)">
<title>cpplint._NamespaceInfo.CheckEnd</title>
<polygon fill="white" stroke="transparent" points="-4,4 -4,-132.5 388,-132.5 388,4 -4,4"/>
<!-- Node1 -->
<g id="node1" class="node">
<title>Node1</title>
<g id="a_node1"><a xlink:title=" ">
<polygon fill="#bfbfbf" stroke="black" points="0,-60 0,-81 200,-81 200,-60 0,-60"/>
<text text-anchor="middle" x="100" y="-67.4" font-family="Helvetica,sans-Serif" font-size="12.00">cpplint._NamespaceInfo.CheckEnd</text>
</a>
</g>
</g>
<!-- Node2 -->
<g id="node2" class="node">
<title>Node2</title>
<g id="a_node2"><a xlink:href="../../d3/d23/namespacecpplint.html#a73ac2ecfcd9c52b4a3755176c68dea7e" target="_top" xlink:title=" ">
<polygon fill="white" stroke="black" points="267.5,-107 267.5,-128 352.5,-128 352.5,-107 267.5,-107"/>
<text text-anchor="middle" x="310" y="-114.4" font-family="Helvetica,sans-Serif" font-size="12.00">cpplint.Match</text>
</a>
</g>
</g>
<!-- Node1&#45;&gt;Node2 -->
<g id="edge1" class="edge">
<title>Node1&#45;&gt;Node2</title>
<path fill="none" stroke="midnightblue" d="M147.68,-81.05C180.24,-88.41 223.71,-98.23 257.32,-105.82"/>
<polygon fill="midnightblue" stroke="midnightblue" points="256.89,-109.31 267.41,-108.1 258.43,-102.48 256.89,-109.31"/>
</g>
<!-- Node3 -->
<g id="node3" class="node">
<title>Node3</title>
<g id="a_node3"><a xlink:href="../../da/dc7/class_stream_file.html#a8792c863080576eb65ce6cacbe1dd931" target="_top" xlink:title=" ">
<polygon fill="white" stroke="black" points="236,-53.5 236,-87.5 384,-87.5 384,-53.5 236,-53.5"/>
<text text-anchor="start" x="244" y="-73.9" font-family="Helvetica,sans-Serif" font-size="12.00">StreamFile&lt; FsBaseFile,</text>
<text text-anchor="middle" x="310" y="-60.9" font-family="Helvetica,sans-Serif" font-size="12.00"> uint64_t &gt;::name</text>
</a>
</g>
</g>
<!-- Node1&#45;&gt;Node3 -->
<g id="edge2" class="edge">
<title>Node1&#45;&gt;Node3</title>
<path fill="none" stroke="midnightblue" d="M114.33,-59.93C141.89,-50.45 206.55,-47.93 253.81,-52.38"/>
<polygon fill="midnightblue" stroke="midnightblue" points="253.59,-55.88 263.91,-53.47 254.34,-48.92 253.59,-55.88"/>
</g>
<!-- Node1&#45;&gt;Node3 -->
<g id="edge4" class="edge">
<title>Node1&#45;&gt;Node3</title>
<path fill="none" stroke="midnightblue" d="M200.13,-63.76C208.68,-63.73 217.28,-63.77 225.69,-63.87"/>
<polygon fill="midnightblue" stroke="midnightblue" points="225.79,-67.37 235.84,-64.02 225.89,-60.37 225.79,-67.37"/>
</g>
<!-- Node1&#45;&gt;Node3 -->
<g id="edge5" class="edge">
<title>Node1&#45;&gt;Node3</title>
<path fill="none" stroke="midnightblue" d="M200.13,-77.24C208.68,-77.27 217.28,-77.23 225.69,-77.13"/>
<polygon fill="midnightblue" stroke="midnightblue" points="225.89,-80.63 235.84,-76.98 225.79,-73.63 225.89,-80.63"/>
</g>
<!-- Node1&#45;&gt;Node3 -->
<g id="edge6" class="edge">
<title>Node1&#45;&gt;Node3</title>
<path fill="none" stroke="midnightblue" d="M114.33,-81.07C141.89,-90.55 206.55,-93.07 253.81,-88.62"/>
<polygon fill="midnightblue" stroke="midnightblue" points="254.34,-92.08 263.91,-87.53 253.59,-85.12 254.34,-92.08"/>
</g>
<!-- Node4 -->
<g id="node4" class="node">
<title>Node4</title>
<g id="a_node4"><a xlink:href="../../d4/d81/classeris_audio_analyze_scope.html#aca595c069e0635302a601c9005c21d16" target="_top" xlink:title=" ">
<polygon fill="white" stroke="black" points="239,-0.5 239,-34.5 381,-34.5 381,-0.5 239,-0.5"/>
<text text-anchor="start" x="247" y="-20.9" font-family="Helvetica,sans-Serif" font-size="12.00">erisAudioAnalyzeScope</text>
<text text-anchor="middle" x="310" y="-7.9" font-family="Helvetica,sans-Serif" font-size="12.00">::name</text>
</a>
</g>
</g>
<!-- Node1&#45;&gt;Node4 -->
<g id="edge3" class="edge">
<title>Node1&#45;&gt;Node4</title>
<path fill="none" stroke="midnightblue" d="M142.59,-59.9C168.27,-53.36 201.99,-44.77 232.37,-37.03"/>
<polygon fill="midnightblue" stroke="midnightblue" points="233.27,-40.41 242.1,-34.55 231.54,-33.63 233.27,-40.41"/>
</g>
</g>
</svg>
