<?xml version="1.0" encoding="UTF-8" standalone="no"?>
<!DOCTYPE svg PUBLIC "-//W3C//DTD SVG 1.1//EN"
 "http://www.w3.org/Graphics/SVG/1.1/DTD/svg11.dtd">
<!-- Generated by graphviz version 2.47.3 (20210619.1520)
 -->
<!-- Title: hashDir Pages: 1 -->
<svg width="366pt" height="90pt"
 viewBox="0.00 0.00 366.00 90.00" xmlns="http://www.w3.org/2000/svg" xmlns:xlink="http://www.w3.org/1999/xlink">
<g id="graph0" class="graph" transform="scale(1 1) rotate(0) translate(4 86)">
<title>hashDir</title>
<polygon fill="white" stroke="transparent" points="-4,4 -4,-86 362,-86 362,4 -4,4"/>
<!-- Node1 -->
<g id="node1" class="node">
<title>Node1</title>
<g id="a_node1"><a xlink:title=" ">
<polygon fill="#bfbfbf" stroke="black" points="0,-40.5 0,-61.5 57,-61.5 57,-40.5 0,-40.5"/>
<text text-anchor="middle" x="28.5" y="-47.9" font-family="Helvetica,sans-Serif" font-size="12.00">hashDir</text>
</a>
</g>
</g>
<!-- Node2 -->
<g id="node2" class="node">
<title>Node2</title>
<g id="a_node2"><a xlink:href="../../d1/db3/_fs_structs_8h.html#a89aef4aa8e8032eab2982d660e7b8a81" target="_top" xlink:title=" ">
<polygon fill="white" stroke="black" points="96.5,-60.5 96.5,-81.5 156.5,-81.5 156.5,-60.5 96.5,-60.5"/>
<text text-anchor="middle" x="126.5" y="-67.9" font-family="Helvetica,sans-Serif" font-size="12.00">getLe16</text>
</a>
</g>
</g>
<!-- Node1&#45;&gt;Node2 -->
<g id="edge1" class="edge">
<title>Node1&#45;&gt;Node2</title>
<path fill="none" stroke="midnightblue" d="M57.01,-56.73C66.14,-58.63 76.49,-60.79 86.32,-62.84"/>
<polygon fill="midnightblue" stroke="midnightblue" points="85.81,-66.31 96.31,-64.92 87.23,-59.45 85.81,-66.31"/>
</g>
<!-- Node3 -->
<g id="node3" class="node">
<title>Node3</title>
<g id="a_node3"><a xlink:href="../../de/d22/upcase_8cpp.html#a21b6d308ac42097fe276a6cb2f392818" target="_top" xlink:title=" ">
<polygon fill="white" stroke="black" points="93,-20.5 93,-41.5 160,-41.5 160,-20.5 93,-20.5"/>
<text text-anchor="middle" x="126.5" y="-27.9" font-family="Helvetica,sans-Serif" font-size="12.00">toUpcase</text>
</a>
</g>
</g>
<!-- Node1&#45;&gt;Node3 -->
<g id="edge2" class="edge">
<title>Node1&#45;&gt;Node3</title>
<path fill="none" stroke="midnightblue" d="M57.01,-45.27C65.14,-43.57 74.24,-41.68 83.08,-39.84"/>
<polygon fill="midnightblue" stroke="midnightblue" points="83.81,-43.26 92.89,-37.79 82.39,-36.41 83.81,-43.26"/>
</g>
<!-- Node4 -->
<g id="node4" class="node">
<title>Node4</title>
<g id="a_node4"><a xlink:href="../../de/d22/upcase_8cpp.html#ad530d8c884214dce68a3e55efae606fd" target="_top" xlink:title=" ">
<polygon fill="white" stroke="black" points="196,-20.5 196,-41.5 283,-41.5 283,-20.5 196,-20.5"/>
<text text-anchor="middle" x="239.5" y="-27.9" font-family="Helvetica,sans-Serif" font-size="12.00">searchPair16</text>
</a>
</g>
</g>
<!-- Node3&#45;&gt;Node4 -->
<g id="edge3" class="edge">
<title>Node3&#45;&gt;Node4</title>
<path fill="none" stroke="midnightblue" d="M160.2,-31C168.2,-31 176.96,-31 185.64,-31"/>
<polygon fill="midnightblue" stroke="midnightblue" points="185.73,-34.5 195.73,-31 185.73,-27.5 185.73,-34.5"/>
</g>
<!-- Node5 -->
<g id="node5" class="node">
<title>Node5</title>
<g id="a_node5"><a xlink:href="../../df/dd5/ios_8h.html#a24a80a73f0a0d2d72d1cb74f49ff4759" target="_top" xlink:title=" ">
<polygon fill="white" stroke="red" points="322.5,-40.5 322.5,-61.5 354.5,-61.5 354.5,-40.5 322.5,-40.5"/>
<text text-anchor="middle" x="338.5" y="-47.9" font-family="Helvetica,sans-Serif" font-size="12.00">left</text>
</a>
</g>
</g>
<!-- Node4&#45;&gt;Node5 -->
<g id="edge4" class="edge">
<title>Node4&#45;&gt;Node5</title>
<path fill="none" stroke="midnightblue" d="M283.05,-39.77C293.14,-41.85 303.59,-44.01 312.6,-45.87"/>
<polygon fill="midnightblue" stroke="midnightblue" points="311.91,-49.3 322.41,-47.89 313.32,-42.44 311.91,-49.3"/>
</g>
<!-- Node7 -->
<g id="node6" class="node">
<title>Node7</title>
<g id="a_node6"><a xlink:href="../../df/dd5/ios_8h.html#aee80fd600c5c58a2bebbd48afdcf8280" target="_top" xlink:title=" ">
<polygon fill="white" stroke="red" points="319,-0.5 319,-21.5 358,-21.5 358,-0.5 319,-0.5"/>
<text text-anchor="middle" x="338.5" y="-7.9" font-family="Helvetica,sans-Serif" font-size="12.00">right</text>
</a>
</g>
</g>
<!-- Node4&#45;&gt;Node7 -->
<g id="edge5" class="edge">
<title>Node4&#45;&gt;Node7</title>
<path fill="none" stroke="midnightblue" d="M283.05,-22.23C291.68,-20.45 300.57,-18.61 308.6,-16.96"/>
<polygon fill="midnightblue" stroke="midnightblue" points="309.48,-20.35 318.57,-14.9 308.07,-13.49 309.48,-20.35"/>
</g>
</g>
</svg>
