<?xml version="1.0" encoding="UTF-8" standalone="no"?>
<!DOCTYPE svg PUBLIC "-//W3C//DTD SVG 1.1//EN"
 "http://www.w3.org/Graphics/SVG/1.1/DTD/svg11.dtd">
<!-- Generated by graphviz version 2.47.3 (20210619.1520)
 -->
<!-- Title: printDirFile Pages: 1 -->
<svg width="632pt" height="188pt"
 viewBox="0.00 0.00 632.00 188.00" xmlns="http://www.w3.org/2000/svg" xmlns:xlink="http://www.w3.org/1999/xlink">
<g id="graph0" class="graph" transform="scale(1 1) rotate(0) translate(4 184)">
<title>printDirFile</title>
<polygon fill="white" stroke="transparent" points="-4,4 -4,-184 628,-184 628,4 -4,4"/>
<!-- Node1 -->
<g id="node1" class="node">
<title>Node1</title>
<g id="a_node1"><a xlink:title=" ">
<polygon fill="#bfbfbf" stroke="black" points="0,-78.5 0,-99.5 74,-99.5 74,-78.5 0,-78.5"/>
<text text-anchor="middle" x="37" y="-85.9" font-family="Helvetica,sans-Serif" font-size="12.00">printDirFile</text>
</a>
</g>
</g>
<!-- Node2 -->
<g id="node2" class="node">
<title>Node2</title>
<g id="a_node2"><a xlink:href="../../d1/db3/_fs_structs_8h.html#a89aef4aa8e8032eab2982d660e7b8a81" target="_top" xlink:title=" ">
<polygon fill="white" stroke="black" points="125.5,-158.5 125.5,-179.5 185.5,-179.5 185.5,-158.5 125.5,-158.5"/>
<text text-anchor="middle" x="155.5" y="-165.9" font-family="Helvetica,sans-Serif" font-size="12.00">getLe16</text>
</a>
</g>
</g>
<!-- Node1&#45;&gt;Node2 -->
<g id="edge1" class="edge">
<title>Node1&#45;&gt;Node2</title>
<path fill="none" stroke="midnightblue" d="M48.98,-99.8C62.49,-112.69 86.54,-134.34 110,-149 112.64,-150.65 115.45,-152.24 118.31,-153.76"/>
<polygon fill="midnightblue" stroke="midnightblue" points="117.02,-157.02 127.53,-158.3 120.11,-150.74 117.02,-157.02"/>
</g>
<!-- Node3 -->
<g id="node3" class="node">
<title>Node3</title>
<g id="a_node3"><a xlink:href="../../d1/db3/_fs_structs_8h.html#a07fdcae728ab56cd53f71c6c17b1889c" target="_top" xlink:title=" ">
<polygon fill="white" stroke="black" points="125.5,-118.5 125.5,-139.5 185.5,-139.5 185.5,-118.5 125.5,-118.5"/>
<text text-anchor="middle" x="155.5" y="-125.9" font-family="Helvetica,sans-Serif" font-size="12.00">getLe32</text>
</a>
</g>
</g>
<!-- Node1&#45;&gt;Node3 -->
<g id="edge2" class="edge">
<title>Node1&#45;&gt;Node3</title>
<path fill="none" stroke="midnightblue" d="M68.61,-99.51C82.99,-104.45 100.29,-110.39 115.59,-115.64"/>
<polygon fill="midnightblue" stroke="midnightblue" points="114.7,-119.04 125.3,-118.97 116.98,-112.42 114.7,-119.04"/>
</g>
<!-- Node4 -->
<g id="node4" class="node">
<title>Node4</title>
<g id="a_node4"><a xlink:href="../../da/db3/class_print_basic.html#a65247e790e6f8e209eb68a797bf96add" target="_top" xlink:title=" ">
<polygon fill="white" stroke="black" points="384,-0.5 384,-21.5 483,-21.5 483,-0.5 384,-0.5"/>
<text text-anchor="middle" x="433.5" y="-7.9" font-family="Helvetica,sans-Serif" font-size="12.00">PrintBasic::print</text>
</a>
</g>
</g>
<!-- Node1&#45;&gt;Node4 -->
<g id="edge3" class="edge">
<title>Node1&#45;&gt;Node4</title>
<path fill="none" stroke="midnightblue" d="M55.43,-78.47C69.64,-70.33 90.48,-59.42 110,-53 198.97,-23.75 308.05,-14.77 373.81,-12.08"/>
<polygon fill="midnightblue" stroke="midnightblue" points="374.13,-15.57 383.99,-11.7 373.86,-8.57 374.13,-15.57"/>
</g>
<!-- Node6 -->
<g id="node6" class="node">
<title>Node6</title>
<g id="a_node6"><a xlink:href="../../da/dc3/_ex_fat_dbg_8cpp.html#a7f7a4b73b05a14880fcafc67b99b8141" target="_top" xlink:title=" ">
<polygon fill="white" stroke="black" points="110,-78.5 110,-99.5 201,-99.5 201,-78.5 110,-78.5"/>
<text text-anchor="middle" x="155.5" y="-85.9" font-family="Helvetica,sans-Serif" font-size="12.00">printDateTime</text>
</a>
</g>
</g>
<!-- Node1&#45;&gt;Node6 -->
<g id="edge5" class="edge">
<title>Node1&#45;&gt;Node6</title>
<path fill="none" stroke="midnightblue" d="M74.22,-89C82.29,-89 91.01,-89 99.64,-89"/>
<polygon fill="midnightblue" stroke="midnightblue" points="99.68,-92.5 109.68,-89 99.68,-85.5 99.68,-92.5"/>
</g>
<!-- Node12 -->
<g id="node10" class="node">
<title>Node12</title>
<g id="a_node10"><a xlink:href="../../da/db3/class_print_basic.html#af89079da3793cc7778b6b8adb46e1fde" target="_top" xlink:title=" ">
<polygon fill="white" stroke="black" points="237,-40.5 237,-61.5 344,-61.5 344,-40.5 237,-40.5"/>
<text text-anchor="middle" x="290.5" y="-47.9" font-family="Helvetica,sans-Serif" font-size="12.00">PrintBasic::println</text>
</a>
</g>
</g>
<!-- Node1&#45;&gt;Node12 -->
<g id="edge14" class="edge">
<title>Node1&#45;&gt;Node12</title>
<path fill="none" stroke="midnightblue" d="M71.42,-78.44C83.47,-74.97 97.25,-71.39 110,-69 148.52,-61.77 192.28,-57.31 226.94,-54.64"/>
<polygon fill="midnightblue" stroke="midnightblue" points="227.22,-58.13 236.93,-53.9 226.7,-51.14 227.22,-58.13"/>
</g>
<!-- Node5 -->
<g id="node5" class="node">
<title>Node5</title>
<g id="a_node5"><a xlink:href="../../da/db3/class_print_basic.html#afdd5b2ee779058e5b7741c6e46f63f06" target="_top" xlink:title=" ">
<polygon fill="white" stroke="black" points="523,-40.5 523,-61.5 624,-61.5 624,-40.5 523,-40.5"/>
<text text-anchor="middle" x="573.5" y="-47.9" font-family="Helvetica,sans-Serif" font-size="12.00">PrintBasic::write</text>
</a>
</g>
</g>
<!-- Node4&#45;&gt;Node5 -->
<g id="edge4" class="edge">
<title>Node4&#45;&gt;Node5</title>
<path fill="none" stroke="midnightblue" d="M470.76,-21.51C487.74,-26.43 508.16,-32.35 526.24,-37.59"/>
<polygon fill="midnightblue" stroke="midnightblue" points="525.43,-41 536.01,-40.42 527.37,-34.28 525.43,-41"/>
</g>
<!-- Node7 -->
<g id="node7" class="node">
<title>Node7</title>
<g id="a_node7"><a xlink:href="../../d5/dce/_fs_date_time_8cpp.html#a8eed4f2175da7c12f53ed62fccda5b12" target="_top" xlink:title=" ">
<polygon fill="white" stroke="black" points="240,-99.5 240,-120.5 341,-120.5 341,-99.5 240,-99.5"/>
<text text-anchor="middle" x="290.5" y="-106.9" font-family="Helvetica,sans-Serif" font-size="12.00">fsPrintDateTime</text>
</a>
</g>
</g>
<!-- Node6&#45;&gt;Node7 -->
<g id="edge6" class="edge">
<title>Node6&#45;&gt;Node7</title>
<path fill="none" stroke="midnightblue" d="M201.16,-96.05C210.34,-97.5 220.15,-99.05 229.77,-100.57"/>
<polygon fill="midnightblue" stroke="midnightblue" points="229.27,-104.03 239.69,-102.14 230.36,-97.12 229.27,-104.03"/>
</g>
<!-- Node6&#45;&gt;Node12 -->
<g id="edge10" class="edge">
<title>Node6&#45;&gt;Node12</title>
<path fill="none" stroke="midnightblue" d="M193.55,-78.41C208.82,-74.05 226.7,-68.94 242.85,-64.33"/>
<polygon fill="midnightblue" stroke="midnightblue" points="244,-67.64 252.65,-61.53 242.07,-60.91 244,-67.64"/>
</g>
<!-- Node7&#45;&gt;Node5 -->
<g id="edge9" class="edge">
<title>Node7&#45;&gt;Node5</title>
<path fill="none" stroke="midnightblue" d="M341.36,-118.51C381.63,-123.45 439.26,-126.08 487,-111 513.21,-102.72 538.36,-83.21 554.51,-68.67"/>
<polygon fill="midnightblue" stroke="midnightblue" points="557.16,-70.98 562.1,-61.61 552.39,-65.86 557.16,-70.98"/>
</g>
<!-- Node8 -->
<g id="node8" class="node">
<title>Node8</title>
<g id="a_node8"><a xlink:href="../../d5/dce/_fs_date_time_8cpp.html#a95582e36f7568be5d5d1c39a27f63e8f" target="_top" xlink:title=" ">
<polygon fill="white" stroke="red" points="398,-80.5 398,-101.5 469,-101.5 469,-80.5 398,-80.5"/>
<text text-anchor="middle" x="433.5" y="-87.9" font-family="Helvetica,sans-Serif" font-size="12.00">fsFmtDate</text>
</a>
</g>
</g>
<!-- Node7&#45;&gt;Node8 -->
<g id="edge7" class="edge">
<title>Node7&#45;&gt;Node8</title>
<path fill="none" stroke="midnightblue" d="M341.21,-103.3C356.41,-101.25 373.03,-99.01 387.88,-97.01"/>
<polygon fill="midnightblue" stroke="midnightblue" points="388.39,-100.48 397.83,-95.67 387.45,-93.54 388.39,-100.48"/>
</g>
<!-- Node11 -->
<g id="node9" class="node">
<title>Node11</title>
<g id="a_node9"><a xlink:href="../../d5/dce/_fs_date_time_8cpp.html#a88c788d558abbf5171901005b8df8ef0" target="_top" xlink:title=" ">
<polygon fill="white" stroke="red" points="397.5,-158.5 397.5,-179.5 469.5,-179.5 469.5,-158.5 397.5,-158.5"/>
<text text-anchor="middle" x="433.5" y="-165.9" font-family="Helvetica,sans-Serif" font-size="12.00">fsFmtTime</text>
</a>
</g>
</g>
<!-- Node7&#45;&gt;Node11 -->
<g id="edge8" class="edge">
<title>Node7&#45;&gt;Node11</title>
<path fill="none" stroke="midnightblue" d="M316.71,-120.55C339.23,-129.97 372.43,-143.87 397.52,-154.36"/>
<polygon fill="midnightblue" stroke="midnightblue" points="396.46,-157.71 407.03,-158.34 399.16,-151.26 396.46,-157.71"/>
</g>
<!-- Node12&#45;&gt;Node4 -->
<g id="edge11" class="edge">
<title>Node12&#45;&gt;Node4</title>
<path fill="none" stroke="midnightblue" d="M328.55,-40.49C345.98,-35.55 366.96,-29.59 385.49,-24.34"/>
<polygon fill="midnightblue" stroke="midnightblue" points="386.55,-27.67 395.21,-21.58 384.64,-20.94 386.55,-27.67"/>
</g>
<!-- Node13 -->
<g id="node11" class="node">
<title>Node13</title>
<g id="a_node11"><a xlink:href="../../da/db3/class_print_basic.html#a9ac86fd20911ebda9877289484b2a924" target="_top" xlink:title=" ">
<polygon fill="white" stroke="black" points="380,-40.5 380,-61.5 487,-61.5 487,-40.5 380,-40.5"/>
<text text-anchor="middle" x="433.5" y="-47.9" font-family="Helvetica,sans-Serif" font-size="12.00">PrintBasic::println</text>
</a>
</g>
</g>
<!-- Node12&#45;&gt;Node13 -->
<g id="edge12" class="edge">
<title>Node12&#45;&gt;Node13</title>
<path fill="none" stroke="midnightblue" d="M344,-51C352.44,-51 361.26,-51 369.9,-51"/>
<polygon fill="midnightblue" stroke="midnightblue" points="369.95,-54.5 379.95,-51 369.95,-47.5 369.95,-54.5"/>
</g>
<!-- Node13&#45;&gt;Node5 -->
<g id="edge13" class="edge">
<title>Node13&#45;&gt;Node5</title>
<path fill="none" stroke="midnightblue" d="M487.07,-51C495.4,-51 504.08,-51 512.58,-51"/>
<polygon fill="midnightblue" stroke="midnightblue" points="512.81,-54.5 522.81,-51 512.81,-47.5 512.81,-54.5"/>
</g>
</g>
</svg>
