<?xml version="1.0" encoding="UTF-8" standalone="no"?>
<!DOCTYPE svg PUBLIC "-//W3C//DTD SVG 1.1//EN"
 "http://www.w3.org/Graphics/SVG/1.1/DTD/svg11.dtd">
<!-- Generated by graphviz version 2.47.3 (20210619.1520)
 -->
<!-- Title: D:/brian/Dev/Eris/ERISCore/lib/SdFat&#45;beta&#45;master/src/ExFatLib/ExFatVolume.cpp Pages: 1 -->
<svg width="1034pt" height="666pt"
 viewBox="0.00 0.00 1033.50 666.00" xmlns="http://www.w3.org/2000/svg" xmlns:xlink="http://www.w3.org/1999/xlink">
<g id="graph0" class="graph" transform="scale(1 1) rotate(0) translate(4 662)">
<title>D:/brian/Dev/Eris/ERISCore/lib/SdFat&#45;beta&#45;master/src/ExFatLib/ExFatVolume.cpp</title>
<polygon fill="white" stroke="transparent" points="-4,4 -4,-662 1029.5,-662 1029.5,4 -4,4"/>
<!-- Node1 -->
<g id="node1" class="node">
<title>Node1</title>
<g id="a_node1"><a xlink:title=" ">
<polygon fill="#bfbfbf" stroke="black" points="349,-616.5 349,-657.5 489,-657.5 489,-616.5 349,-616.5"/>
<text text-anchor="start" x="357" y="-645.5" font-family="Helvetica,sans-Serif" font-size="10.00">D:/brian/Dev/Eris/ERISCore</text>
<text text-anchor="start" x="357" y="-634.5" font-family="Helvetica,sans-Serif" font-size="10.00">/lib/SdFat&#45;beta&#45;master/src</text>
<text text-anchor="middle" x="419" y="-623.5" font-family="Helvetica,sans-Serif" font-size="10.00">/ExFatLib/ExFatVolume.cpp</text>
</a>
</g>
</g>
<!-- Node2 -->
<g id="node2" class="node">
<title>Node2</title>
<g id="a_node2"><a xlink:href="../../d6/d68/_ex_fat_volume_8h.html" target="_top" xlink:title=" ">
<polygon fill="white" stroke="black" points="377,-560.5 377,-579.5 461,-579.5 461,-560.5 377,-560.5"/>
<text text-anchor="middle" x="419" y="-567.5" font-family="Helvetica,sans-Serif" font-size="10.00">ExFatVolume.h</text>
</a>
</g>
</g>
<!-- Node1&#45;&gt;Node2 -->
<g id="edge1" class="edge">
<title>Node1&#45;&gt;Node2</title>
<path fill="none" stroke="midnightblue" d="M419,-616.5C419,-608.07 419,-598.24 419,-589.87"/>
<polygon fill="midnightblue" stroke="midnightblue" points="422.5,-589.65 419,-579.65 415.5,-589.65 422.5,-589.65"/>
</g>
<!-- Node3 -->
<g id="node3" class="node">
<title>Node3</title>
<g id="a_node3"><a xlink:href="../../d7/dc8/_ex_fat_partition_8h.html" target="_top" xlink:title="ExFatPartition include file.">
<polygon fill="white" stroke="black" points="344.5,-448.5 344.5,-467.5 431.5,-467.5 431.5,-448.5 344.5,-448.5"/>
<text text-anchor="middle" x="388" y="-455.5" font-family="Helvetica,sans-Serif" font-size="10.00">ExFatPartition.h</text>
</a>
</g>
</g>
<!-- Node2&#45;&gt;Node3 -->
<g id="edge2" class="edge">
<title>Node2&#45;&gt;Node3</title>
<path fill="none" stroke="midnightblue" d="M416.57,-560.37C411.54,-542.54 399.92,-501.3 393.15,-477.27"/>
<polygon fill="midnightblue" stroke="midnightblue" points="396.5,-476.27 390.42,-467.59 389.77,-478.17 396.5,-476.27"/>
</g>
<!-- Node22 -->
<g id="node22" class="node">
<title>Node22</title>
<g id="a_node22"><a xlink:href="../../dd/ddc/_ex_fat_file_8h.html" target="_top" xlink:title="ExFatFile class.">
<polygon fill="white" stroke="black" points="416.5,-504.5 416.5,-523.5 483.5,-523.5 483.5,-504.5 416.5,-504.5"/>
<text text-anchor="middle" x="450" y="-511.5" font-family="Helvetica,sans-Serif" font-size="10.00">ExFatFile.h</text>
</a>
</g>
</g>
<!-- Node2&#45;&gt;Node22 -->
<g id="edge35" class="edge">
<title>Node2&#45;&gt;Node22</title>
<path fill="none" stroke="midnightblue" d="M424.12,-560.08C428.41,-552.61 434.66,-541.72 439.94,-532.52"/>
<polygon fill="midnightblue" stroke="midnightblue" points="443.03,-534.17 444.98,-523.75 436.96,-530.68 443.03,-534.17"/>
</g>
<!-- Node4 -->
<g id="node4" class="node">
<title>Node4</title>
<g id="a_node4"><a xlink:href="../../d9/da3/_sys_call_8h.html" target="_top" xlink:title="SysCall class.">
<polygon fill="white" stroke="black" points="290,-112.5 290,-131.5 398,-131.5 398,-112.5 290,-112.5"/>
<text text-anchor="middle" x="344" y="-119.5" font-family="Helvetica,sans-Serif" font-size="10.00">../common/SysCall.h</text>
</a>
</g>
</g>
<!-- Node3&#45;&gt;Node4 -->
<g id="edge3" class="edge">
<title>Node3&#45;&gt;Node4</title>
<path fill="none" stroke="midnightblue" d="M384.09,-448.31C371.48,-419.78 331.83,-326.09 317,-244 310.99,-210.75 305.46,-200.41 315,-168 318.01,-157.76 324.15,-147.66 330.01,-139.63"/>
<polygon fill="midnightblue" stroke="midnightblue" points="332.93,-141.58 336.33,-131.54 327.41,-137.27 332.93,-141.58"/>
</g>
<!-- Node9 -->
<g id="node9" class="node">
<title>Node9</title>
<g id="a_node9"><a xlink:href="../../d7/df6/_block_device_8h.html" target="_top" xlink:title=" ">
<polygon fill="white" stroke="black" points="416,-392.5 416,-411.5 544,-411.5 544,-392.5 416,-392.5"/>
<text text-anchor="middle" x="480" y="-399.5" font-family="Helvetica,sans-Serif" font-size="10.00">../common/BlockDevice.h</text>
</a>
</g>
</g>
<!-- Node3&#45;&gt;Node9 -->
<g id="edge9" class="edge">
<title>Node3&#45;&gt;Node9</title>
<path fill="none" stroke="midnightblue" d="M402.78,-448.32C417.27,-439.82 439.57,-426.73 456.49,-416.8"/>
<polygon fill="midnightblue" stroke="midnightblue" points="458.4,-419.74 465.26,-411.65 454.86,-413.7 458.4,-419.74"/>
</g>
<!-- Node20 -->
<g id="node20" class="node">
<title>Node20</title>
<g id="a_node20"><a xlink:href="../../da/df6/_ex_fat_config_8h.html" target="_top" xlink:title=" ">
<polygon fill="white" stroke="black" points="250,-336.5 250,-355.5 328,-355.5 328,-336.5 250,-336.5"/>
<text text-anchor="middle" x="289" y="-343.5" font-family="Helvetica,sans-Serif" font-size="10.00">ExFatConfig.h</text>
</a>
</g>
</g>
<!-- Node3&#45;&gt;Node20 -->
<g id="edge31" class="edge">
<title>Node3&#45;&gt;Node20</title>
<path fill="none" stroke="midnightblue" d="M380.34,-448.09C369.48,-435.5 348.92,-411.81 331,-392 322.2,-382.27 312.18,-371.52 304.14,-362.97"/>
<polygon fill="midnightblue" stroke="midnightblue" points="306.54,-360.42 297.13,-355.55 301.45,-365.23 306.54,-360.42"/>
</g>
<!-- Node21 -->
<g id="node21" class="node">
<title>Node21</title>
<g id="a_node21"><a xlink:href="../../d4/dbf/_ex_fat_types_8h.html" target="_top" xlink:title=" ">
<polygon fill="white" stroke="black" points="244.5,-392.5 244.5,-411.5 321.5,-411.5 321.5,-392.5 244.5,-392.5"/>
<text text-anchor="middle" x="283" y="-399.5" font-family="Helvetica,sans-Serif" font-size="10.00">ExFatTypes.h</text>
</a>
</g>
</g>
<!-- Node3&#45;&gt;Node21 -->
<g id="edge33" class="edge">
<title>Node3&#45;&gt;Node21</title>
<path fill="none" stroke="midnightblue" d="M371.13,-448.32C354.29,-439.66 328.19,-426.24 308.76,-416.25"/>
<polygon fill="midnightblue" stroke="midnightblue" points="310.32,-413.12 299.83,-411.65 307.12,-419.34 310.32,-413.12"/>
</g>
<!-- Node5 -->
<g id="node5" class="node">
<title>Node5</title>
<g id="a_node5"><a xlink:title=" ">
<polygon fill="white" stroke="#bfbfbf" points="511.5,-0.5 511.5,-19.5 560.5,-19.5 560.5,-0.5 511.5,-0.5"/>
<text text-anchor="middle" x="536" y="-7.5" font-family="Helvetica,sans-Serif" font-size="10.00">stdint.h</text>
</a>
</g>
</g>
<!-- Node4&#45;&gt;Node5 -->
<g id="edge4" class="edge">
<title>Node4&#45;&gt;Node5</title>
<path fill="none" stroke="midnightblue" d="M351.05,-112.23C362.51,-98.49 386.47,-71.85 412,-56 440,-38.62 475.7,-26.56 501.6,-19.33"/>
<polygon fill="midnightblue" stroke="midnightblue" points="502.61,-22.69 511.35,-16.71 500.79,-15.93 502.61,-22.69"/>
</g>
<!-- Node6 -->
<g id="node6" class="node">
<title>Node6</title>
<g id="a_node6"><a xlink:title=" ">
<polygon fill="white" stroke="#bfbfbf" points="631.5,-56.5 631.5,-75.5 682.5,-75.5 682.5,-56.5 631.5,-56.5"/>
<text text-anchor="middle" x="657" y="-63.5" font-family="Helvetica,sans-Serif" font-size="10.00">stddef.h</text>
</a>
</g>
</g>
<!-- Node4&#45;&gt;Node6 -->
<g id="edge5" class="edge">
<title>Node4&#45;&gt;Node6</title>
<path fill="none" stroke="midnightblue" d="M393.6,-112.44C456.91,-101.52 564.96,-82.88 620.96,-73.22"/>
<polygon fill="midnightblue" stroke="midnightblue" points="621.85,-76.62 631.11,-71.47 620.66,-69.72 621.85,-76.62"/>
</g>
<!-- Node7 -->
<g id="node7" class="node">
<title>Node7</title>
<g id="a_node7"><a xlink:href="../../de/d9b/_sd_fat_config_8h.html" target="_top" xlink:title="configuration definitions">
<polygon fill="white" stroke="black" points="190.5,-56.5 190.5,-75.5 277.5,-75.5 277.5,-56.5 190.5,-56.5"/>
<text text-anchor="middle" x="234" y="-63.5" font-family="Helvetica,sans-Serif" font-size="10.00">../SdFatConfig.h</text>
</a>
</g>
</g>
<!-- Node4&#45;&gt;Node7 -->
<g id="edge6" class="edge">
<title>Node4&#45;&gt;Node7</title>
<path fill="none" stroke="midnightblue" d="M326.33,-112.32C308.61,-103.62 281.1,-90.12 260.71,-80.11"/>
<polygon fill="midnightblue" stroke="midnightblue" points="262.15,-76.92 251.63,-75.65 259.06,-83.2 262.15,-76.92"/>
</g>
<!-- Node7&#45;&gt;Node5 -->
<g id="edge7" class="edge">
<title>Node7&#45;&gt;Node5</title>
<path fill="none" stroke="midnightblue" d="M277.59,-57.21C338.05,-46.39 446.15,-27.07 501.41,-17.19"/>
<polygon fill="midnightblue" stroke="midnightblue" points="502.18,-20.6 511.41,-15.4 500.95,-13.71 502.18,-20.6"/>
</g>
<!-- Node8 -->
<g id="node8" class="node">
<title>Node8</title>
<g id="a_node8"><a xlink:title=" ">
<polygon fill="white" stroke="#bfbfbf" points="205,-0.5 205,-19.5 263,-19.5 263,-0.5 205,-0.5"/>
<text text-anchor="middle" x="234" y="-7.5" font-family="Helvetica,sans-Serif" font-size="10.00">Arduino.h</text>
</a>
</g>
</g>
<!-- Node7&#45;&gt;Node8 -->
<g id="edge8" class="edge">
<title>Node7&#45;&gt;Node8</title>
<path fill="none" stroke="midnightblue" d="M234,-56.08C234,-49.01 234,-38.86 234,-29.99"/>
<polygon fill="midnightblue" stroke="midnightblue" points="237.5,-29.75 234,-19.75 230.5,-29.75 237.5,-29.75"/>
</g>
<!-- Node10 -->
<g id="node10" class="node">
<title>Node10</title>
<g id="a_node10"><a xlink:href="../../db/d31/_sd_card_8h.html" target="_top" xlink:title=" ">
<polygon fill="white" stroke="black" points="434,-336.5 434,-355.5 526,-355.5 526,-336.5 434,-336.5"/>
<text text-anchor="middle" x="480" y="-343.5" font-family="Helvetica,sans-Serif" font-size="10.00">SdCard/SdCard.h</text>
</a>
</g>
</g>
<!-- Node9&#45;&gt;Node10 -->
<g id="edge10" class="edge">
<title>Node9&#45;&gt;Node10</title>
<path fill="none" stroke="midnightblue" d="M480,-392.08C480,-385.01 480,-374.86 480,-365.99"/>
<polygon fill="midnightblue" stroke="midnightblue" points="483.5,-365.75 480,-355.75 476.5,-365.75 483.5,-365.75"/>
</g>
<!-- Node11 -->
<g id="node11" class="node">
<title>Node11</title>
<g id="a_node11"><a xlink:href="../../d5/d3e/_sdio_card_8h.html" target="_top" xlink:title=" ">
<polygon fill="white" stroke="black" points="373.5,-280.5 373.5,-299.5 438.5,-299.5 438.5,-280.5 373.5,-280.5"/>
<text text-anchor="middle" x="406" y="-287.5" font-family="Helvetica,sans-Serif" font-size="10.00">SdioCard.h</text>
</a>
</g>
</g>
<!-- Node10&#45;&gt;Node11 -->
<g id="edge11" class="edge">
<title>Node10&#45;&gt;Node11</title>
<path fill="none" stroke="midnightblue" d="M468.11,-336.32C456.85,-328.11 439.71,-315.6 426.29,-305.81"/>
<polygon fill="midnightblue" stroke="midnightblue" points="428.25,-302.9 418.11,-299.83 424.12,-308.56 428.25,-302.9"/>
</g>
<!-- Node15 -->
<g id="node15" class="node">
<title>Node15</title>
<g id="a_node15"><a xlink:href="../../d8/daa/_sd_spi_card_8h.html" target="_top" xlink:title="SdSpiCard class for V2 SD/SDHC cards.">
<polygon fill="white" stroke="black" points="456.5,-280.5 456.5,-299.5 527.5,-299.5 527.5,-280.5 456.5,-280.5"/>
<text text-anchor="middle" x="492" y="-287.5" font-family="Helvetica,sans-Serif" font-size="10.00">SdSpiCard.h</text>
</a>
</g>
</g>
<!-- Node10&#45;&gt;Node15 -->
<g id="edge21" class="edge">
<title>Node10&#45;&gt;Node15</title>
<path fill="none" stroke="midnightblue" d="M481.98,-336.08C483.57,-328.93 485.86,-318.64 487.85,-309.69"/>
<polygon fill="midnightblue" stroke="midnightblue" points="491.3,-310.27 490.06,-299.75 484.47,-308.75 491.3,-310.27"/>
</g>
<!-- Node11&#45;&gt;Node4 -->
<g id="edge12" class="edge">
<title>Node11&#45;&gt;Node4</title>
<path fill="none" stroke="midnightblue" d="M377.98,-280.4C360.83,-273.51 340.25,-261.98 330,-244 311.4,-211.37 325.35,-165.77 335.64,-140.9"/>
<polygon fill="midnightblue" stroke="midnightblue" points="338.9,-142.18 339.71,-131.62 332.49,-139.36 338.9,-142.18"/>
</g>
<!-- Node12 -->
<g id="node12" class="node">
<title>Node12</title>
<g id="a_node12"><a xlink:href="../../da/d60/_sd_card_interface_8h.html" target="_top" xlink:title=" ">
<polygon fill="white" stroke="black" points="520,-224.5 520,-243.5 614,-243.5 614,-224.5 520,-224.5"/>
<text text-anchor="middle" x="567" y="-231.5" font-family="Helvetica,sans-Serif" font-size="10.00">SdCardInterface.h</text>
</a>
</g>
</g>
<!-- Node11&#45;&gt;Node12 -->
<g id="edge13" class="edge">
<title>Node11&#45;&gt;Node12</title>
<path fill="none" stroke="midnightblue" d="M431.51,-280.44C458.6,-271.36 501.59,-256.94 531.87,-246.78"/>
<polygon fill="midnightblue" stroke="midnightblue" points="533.24,-250.01 541.61,-243.52 531.01,-243.38 533.24,-250.01"/>
</g>
<!-- Node13 -->
<g id="node13" class="node">
<title>Node13</title>
<g id="a_node13"><a xlink:href="../../da/d25/_block_device_interface_8h.html" target="_top" xlink:title="BlockDeviceInterface include file.">
<polygon fill="white" stroke="black" points="454,-112.5 454,-131.5 618,-131.5 618,-112.5 454,-112.5"/>
<text text-anchor="middle" x="536" y="-119.5" font-family="Helvetica,sans-Serif" font-size="10.00">../common/BlockDeviceInterface.h</text>
</a>
</g>
</g>
<!-- Node12&#45;&gt;Node13 -->
<g id="edge14" class="edge">
<title>Node12&#45;&gt;Node13</title>
<path fill="none" stroke="midnightblue" d="M564.57,-224.37C559.54,-206.54 547.92,-165.3 541.15,-141.27"/>
<polygon fill="midnightblue" stroke="midnightblue" points="544.5,-140.27 538.42,-131.59 537.77,-142.17 544.5,-140.27"/>
</g>
<!-- Node14 -->
<g id="node14" class="node">
<title>Node14</title>
<g id="a_node14"><a xlink:href="../../d2/db6/_sd_card_info_8h.html" target="_top" xlink:title=" ">
<polygon fill="white" stroke="black" points="436,-168.5 436,-187.5 508,-187.5 508,-168.5 436,-168.5"/>
<text text-anchor="middle" x="472" y="-175.5" font-family="Helvetica,sans-Serif" font-size="10.00">SdCardInfo.h</text>
</a>
</g>
</g>
<!-- Node12&#45;&gt;Node14 -->
<g id="edge18" class="edge">
<title>Node12&#45;&gt;Node14</title>
<path fill="none" stroke="midnightblue" d="M551.74,-224.32C536.78,-215.82 513.75,-202.73 496.27,-192.8"/>
<polygon fill="midnightblue" stroke="midnightblue" points="497.65,-189.55 487.23,-187.65 494.19,-195.64 497.65,-189.55"/>
</g>
<!-- Node13&#45;&gt;Node5 -->
<g id="edge15" class="edge">
<title>Node13&#45;&gt;Node5</title>
<path fill="none" stroke="midnightblue" d="M536,-112.37C536,-94.62 536,-53.67 536,-29.6"/>
<polygon fill="midnightblue" stroke="midnightblue" points="539.5,-29.59 536,-19.59 532.5,-29.59 539.5,-29.59"/>
</g>
<!-- Node13&#45;&gt;Node6 -->
<g id="edge16" class="edge">
<title>Node13&#45;&gt;Node6</title>
<path fill="none" stroke="midnightblue" d="M555.17,-112.44C574.91,-103.64 605.89,-89.81 628.49,-79.72"/>
<polygon fill="midnightblue" stroke="midnightblue" points="630.21,-82.79 637.92,-75.52 627.36,-76.4 630.21,-82.79"/>
</g>
<!-- Node13&#45;&gt;Node7 -->
<g id="edge17" class="edge">
<title>Node13&#45;&gt;Node7</title>
<path fill="none" stroke="midnightblue" d="M488.15,-112.44C433.55,-102.68 344.48,-86.75 287.59,-76.58"/>
<polygon fill="midnightblue" stroke="midnightblue" points="288.17,-73.13 277.71,-74.82 286.93,-80.02 288.17,-73.13"/>
</g>
<!-- Node14&#45;&gt;Node4 -->
<g id="edge20" class="edge">
<title>Node14&#45;&gt;Node4</title>
<path fill="none" stroke="midnightblue" d="M451.72,-168.44C430.65,-159.56 397.48,-145.56 373.51,-135.45"/>
<polygon fill="midnightblue" stroke="midnightblue" points="374.76,-132.18 364.19,-131.52 372.04,-138.63 374.76,-132.18"/>
</g>
<!-- Node14&#45;&gt;Node5 -->
<g id="edge19" class="edge">
<title>Node14&#45;&gt;Node5</title>
<path fill="none" stroke="midnightblue" d="M463.84,-168.23C453.3,-155.8 437.2,-132.3 445,-112 459.12,-75.24 493.49,-43.49 515.72,-25.84"/>
<polygon fill="midnightblue" stroke="midnightblue" points="518.06,-28.45 523.85,-19.58 513.79,-22.9 518.06,-28.45"/>
</g>
<!-- Node15&#45;&gt;Node4 -->
<g id="edge23" class="edge">
<title>Node15&#45;&gt;Node4</title>
<path fill="none" stroke="midnightblue" d="M456.32,-281.47C411.01,-271.56 337.75,-254.2 330,-244 307.06,-213.81 323.12,-166.56 334.8,-140.95"/>
<polygon fill="midnightblue" stroke="midnightblue" points="338.07,-142.22 339.27,-131.7 331.77,-139.18 338.07,-142.22"/>
</g>
<!-- Node15&#45;&gt;Node6 -->
<g id="edge22" class="edge">
<title>Node15&#45;&gt;Node6</title>
<path fill="none" stroke="midnightblue" d="M527.58,-283.66C606.22,-271.06 790.73,-236.82 827,-188 832.3,-180.86 831.39,-175.73 827,-168 822.88,-160.76 727.2,-106.39 681.23,-80.55"/>
<polygon fill="midnightblue" stroke="midnightblue" points="682.66,-77.34 672.22,-75.5 679.23,-83.45 682.66,-77.34"/>
</g>
<!-- Node15&#45;&gt;Node12 -->
<g id="edge25" class="edge">
<title>Node15&#45;&gt;Node12</title>
<path fill="none" stroke="midnightblue" d="M504.05,-280.32C515.46,-272.11 532.83,-259.6 546.43,-249.81"/>
<polygon fill="midnightblue" stroke="midnightblue" points="548.66,-252.52 554.73,-243.83 544.57,-246.84 548.66,-252.52"/>
</g>
<!-- Node15&#45;&gt;Node14 -->
<g id="edge24" class="edge">
<title>Node15&#45;&gt;Node14</title>
<path fill="none" stroke="midnightblue" d="M490.43,-280.37C487.2,-262.62 479.76,-221.67 475.38,-197.6"/>
<polygon fill="midnightblue" stroke="midnightblue" points="478.79,-196.8 473.56,-187.59 471.91,-198.06 478.79,-196.8"/>
</g>
<!-- Node16 -->
<g id="node16" class="node">
<title>Node16</title>
<g id="a_node16"><a xlink:href="../../d1/d6a/_sd_spi_driver_8h.html" target="_top" xlink:title="SpiDriver classes.">
<polygon fill="white" stroke="black" points="338.5,-224.5 338.5,-243.5 463.5,-243.5 463.5,-224.5 338.5,-224.5"/>
<text text-anchor="middle" x="401" y="-231.5" font-family="Helvetica,sans-Serif" font-size="10.00">../SpiDriver/SdSpiDriver.h</text>
</a>
</g>
</g>
<!-- Node15&#45;&gt;Node16 -->
<g id="edge26" class="edge">
<title>Node15&#45;&gt;Node16</title>
<path fill="none" stroke="midnightblue" d="M477.38,-280.32C463.05,-271.82 440.99,-258.73 424.25,-248.8"/>
<polygon fill="midnightblue" stroke="midnightblue" points="425.97,-245.75 415.58,-243.65 422.4,-251.77 425.97,-245.75"/>
</g>
<!-- Node16&#45;&gt;Node4 -->
<g id="edge27" class="edge">
<title>Node16&#45;&gt;Node4</title>
<path fill="none" stroke="midnightblue" d="M393.38,-224.19C386.12,-215.46 375.25,-201.48 368,-188 359.99,-173.1 353.54,-154.96 349.35,-141.63"/>
<polygon fill="midnightblue" stroke="midnightblue" points="352.61,-140.31 346.38,-131.74 345.91,-142.33 352.61,-140.31"/>
</g>
<!-- Node17 -->
<g id="node17" class="node">
<title>Node17</title>
<g id="a_node17"><a xlink:title=" ">
<polygon fill="white" stroke="#bfbfbf" points="376.5,-168.5 376.5,-187.5 417.5,-187.5 417.5,-168.5 376.5,-168.5"/>
<text text-anchor="middle" x="397" y="-175.5" font-family="Helvetica,sans-Serif" font-size="10.00">SPI.h</text>
</a>
</g>
</g>
<!-- Node16&#45;&gt;Node17 -->
<g id="edge28" class="edge">
<title>Node16&#45;&gt;Node17</title>
<path fill="none" stroke="midnightblue" d="M400.34,-224.08C399.82,-217.01 399.06,-206.86 398.41,-197.99"/>
<polygon fill="midnightblue" stroke="midnightblue" points="401.88,-197.47 397.65,-187.75 394.9,-197.98 401.88,-197.47"/>
</g>
<!-- Node18 -->
<g id="node18" class="node">
<title>Node18</title>
<g id="a_node18"><a xlink:href="../../df/d66/_sd_spi_arduino_driver_8h.html" target="_top" xlink:title="SpiDriver classes for Arduino compatible systems.">
<polygon fill="white" stroke="black" points="564,-168.5 564,-187.5 672,-187.5 672,-168.5 564,-168.5"/>
<text text-anchor="middle" x="618" y="-175.5" font-family="Helvetica,sans-Serif" font-size="10.00">SdSpiArduinoDriver.h</text>
</a>
</g>
</g>
<!-- Node16&#45;&gt;Node18 -->
<g id="edge29" class="edge">
<title>Node16&#45;&gt;Node18</title>
<path fill="none" stroke="midnightblue" d="M435.38,-224.44C472.92,-215.1 533.13,-200.12 574.07,-189.93"/>
<polygon fill="midnightblue" stroke="midnightblue" points="574.92,-193.33 583.78,-187.52 573.23,-186.53 574.92,-193.33"/>
</g>
<!-- Node19 -->
<g id="node19" class="node">
<title>Node19</title>
<g id="a_node19"><a xlink:href="../../da/d9f/_sd_spi_lib_driver_8h.html" target="_top" xlink:title="Class using only simple SPI library functions.">
<polygon fill="white" stroke="black" points="636,-112.5 636,-131.5 724,-131.5 724,-112.5 636,-112.5"/>
<text text-anchor="middle" x="680" y="-119.5" font-family="Helvetica,sans-Serif" font-size="10.00">SdSpiLibDriver.h</text>
</a>
</g>
</g>
<!-- Node18&#45;&gt;Node19 -->
<g id="edge30" class="edge">
<title>Node18&#45;&gt;Node19</title>
<path fill="none" stroke="midnightblue" d="M627.96,-168.32C637.13,-160.34 650.94,-148.31 662.03,-138.65"/>
<polygon fill="midnightblue" stroke="midnightblue" points="664.62,-141.04 669.86,-131.83 660.02,-135.76 664.62,-141.04"/>
</g>
<!-- Node20&#45;&gt;Node7 -->
<g id="edge32" class="edge">
<title>Node20&#45;&gt;Node7</title>
<path fill="none" stroke="midnightblue" d="M273.64,-336.31C247.23,-320.09 196,-282.51 196,-235 196,-235 196,-235 196,-177 196,-142.81 212.6,-105.76 223.86,-84.57"/>
<polygon fill="midnightblue" stroke="midnightblue" points="226.95,-86.22 228.72,-75.77 220.82,-82.83 226.95,-86.22"/>
</g>
<!-- Node21&#45;&gt;Node20 -->
<g id="edge34" class="edge">
<title>Node21&#45;&gt;Node20</title>
<path fill="none" stroke="midnightblue" d="M283.99,-392.08C284.79,-384.93 285.93,-374.64 286.92,-365.69"/>
<polygon fill="midnightblue" stroke="midnightblue" points="290.4,-366.08 288.03,-355.75 283.44,-365.3 290.4,-366.08"/>
</g>
<!-- Node22&#45;&gt;Node3 -->
<g id="edge51" class="edge">
<title>Node22&#45;&gt;Node3</title>
<path fill="none" stroke="midnightblue" d="M440.04,-504.32C430.87,-496.34 417.06,-484.31 405.97,-474.65"/>
<polygon fill="midnightblue" stroke="midnightblue" points="407.98,-471.76 398.14,-467.83 403.38,-477.04 407.98,-471.76"/>
</g>
<!-- Node22&#45;&gt;Node20 -->
<g id="edge38" class="edge">
<title>Node22&#45;&gt;Node20</title>
<path fill="none" stroke="midnightblue" d="M416.36,-509.5C365.09,-502.06 269.79,-479.39 236,-412 226.19,-392.42 246.19,-373.42 264.37,-361.06"/>
<polygon fill="midnightblue" stroke="midnightblue" points="266.46,-363.89 273.01,-355.56 262.7,-357.98 266.46,-363.89"/>
</g>
<!-- Node22&#45;&gt;Node21 -->
<g id="edge50" class="edge">
<title>Node22&#45;&gt;Node21</title>
<path fill="none" stroke="midnightblue" d="M416.32,-504.64C392.34,-497.56 360.22,-485.71 336,-468 318.26,-455.03 303.01,-434.76 293.49,-420.3"/>
<polygon fill="midnightblue" stroke="midnightblue" points="296.4,-418.35 288.09,-411.78 290.48,-422.1 296.4,-418.35"/>
</g>
<!-- Node23 -->
<g id="node23" class="node">
<title>Node23</title>
<g id="a_node23"><a xlink:title=" ">
<polygon fill="white" stroke="#bfbfbf" points="670,-448.5 670,-467.5 718,-467.5 718,-448.5 670,-448.5"/>
<text text-anchor="middle" x="694" y="-455.5" font-family="Helvetica,sans-Serif" font-size="10.00">limits.h</text>
</a>
</g>
</g>
<!-- Node22&#45;&gt;Node23 -->
<g id="edge36" class="edge">
<title>Node22&#45;&gt;Node23</title>
<path fill="none" stroke="midnightblue" d="M483.58,-505.85C524.39,-497.12 595.32,-481.81 656,-468 657.26,-467.71 658.55,-467.42 659.85,-467.12"/>
<polygon fill="midnightblue" stroke="midnightblue" points="660.95,-470.46 669.89,-464.78 659.36,-463.64 660.95,-470.46"/>
</g>
<!-- Node24 -->
<g id="node24" class="node">
<title>Node24</title>
<g id="a_node24"><a xlink:title=" ">
<polygon fill="white" stroke="#bfbfbf" points="874.5,-448.5 874.5,-467.5 923.5,-467.5 923.5,-448.5 874.5,-448.5"/>
<text text-anchor="middle" x="899" y="-455.5" font-family="Helvetica,sans-Serif" font-size="10.00">string.h</text>
</a>
</g>
</g>
<!-- Node22&#45;&gt;Node24 -->
<g id="edge37" class="edge">
<title>Node22&#45;&gt;Node24</title>
<path fill="none" stroke="midnightblue" d="M483.67,-510.65C553.95,-505.45 721.27,-491.54 860,-468 861.46,-467.75 862.94,-467.49 864.43,-467.2"/>
<polygon fill="midnightblue" stroke="midnightblue" points="865.25,-470.61 874.33,-465.15 863.83,-463.75 865.25,-470.61"/>
</g>
<!-- Node25 -->
<g id="node25" class="node">
<title>Node25</title>
<g id="a_node25"><a xlink:href="../../df/d9b/_fs_date_time_8h.html" target="_top" xlink:title=" ">
<polygon fill="white" stroke="black" points="690.5,-168.5 690.5,-187.5 817.5,-187.5 817.5,-168.5 690.5,-168.5"/>
<text text-anchor="middle" x="754" y="-175.5" font-family="Helvetica,sans-Serif" font-size="10.00">../common/FsDateTime.h</text>
</a>
</g>
</g>
<!-- Node22&#45;&gt;Node25 -->
<g id="edge39" class="edge">
<title>Node22&#45;&gt;Node25</title>
<path fill="none" stroke="midnightblue" d="M483.88,-509.06C539,-500.56 642,-475.03 642,-403 642,-403 642,-403 642,-289 642,-242.61 691.51,-209.28 724.69,-192.15"/>
<polygon fill="midnightblue" stroke="midnightblue" points="726.57,-195.13 733.98,-187.56 723.46,-188.86 726.57,-195.13"/>
</g>
<!-- Node26 -->
<g id="node26" class="node">
<title>Node26</title>
<g id="a_node26"><a xlink:href="../../d1/db3/_fs_structs_8h.html" target="_top" xlink:title=" ">
<polygon fill="white" stroke="black" points="908.5,-392.5 908.5,-411.5 1025.5,-411.5 1025.5,-392.5 908.5,-392.5"/>
<text text-anchor="middle" x="967" y="-399.5" font-family="Helvetica,sans-Serif" font-size="10.00">../common/FsStructs.h</text>
</a>
</g>
</g>
<!-- Node22&#45;&gt;Node26 -->
<g id="edge42" class="edge">
<title>Node22&#45;&gt;Node26</title>
<path fill="none" stroke="midnightblue" d="M483.51,-511.72C586.85,-507.51 895.8,-492.95 933,-468 948.83,-457.38 957.77,-436.96 962.47,-421.83"/>
<polygon fill="midnightblue" stroke="midnightblue" points="965.9,-422.53 965.18,-411.96 959.15,-420.68 965.9,-422.53"/>
</g>
<!-- Node27 -->
<g id="node27" class="node">
<title>Node27</title>
<g id="a_node27"><a xlink:href="../../dc/dbc/_fs_api_constants_8h.html" target="_top" xlink:title=" ">
<polygon fill="white" stroke="black" points="88,-336.5 88,-355.5 232,-355.5 232,-336.5 88,-336.5"/>
<text text-anchor="middle" x="160" y="-343.5" font-family="Helvetica,sans-Serif" font-size="10.00">../common/FsApiConstants.h</text>
</a>
</g>
</g>
<!-- Node22&#45;&gt;Node27 -->
<g id="edge44" class="edge">
<title>Node22&#45;&gt;Node27</title>
<path fill="none" stroke="midnightblue" d="M416.5,-511.37C376.7,-508.07 309.61,-498.1 261,-468 218.51,-441.68 185.23,-391.32 169.65,-364.62"/>
<polygon fill="midnightblue" stroke="midnightblue" points="172.54,-362.62 164.57,-355.65 166.46,-366.07 172.54,-362.62"/>
</g>
<!-- Node28 -->
<g id="node28" class="node">
<title>Node28</title>
<g id="a_node28"><a xlink:href="../../d8/d63/_fmt_number_8h.html" target="_top" xlink:title=" ">
<polygon fill="white" stroke="black" points="780.5,-112.5 780.5,-131.5 905.5,-131.5 905.5,-112.5 780.5,-112.5"/>
<text text-anchor="middle" x="843" y="-119.5" font-family="Helvetica,sans-Serif" font-size="10.00">../common/FmtNumber.h</text>
</a>
</g>
</g>
<!-- Node22&#45;&gt;Node28 -->
<g id="edge46" class="edge">
<title>Node22&#45;&gt;Node28</title>
<path fill="none" stroke="midnightblue" d="M483.76,-510.88C579.53,-503.95 846,-477.92 846,-403 846,-403 846,-403 846,-233 846,-200.94 844.71,-163.63 843.82,-141.74"/>
<polygon fill="midnightblue" stroke="midnightblue" points="847.31,-141.4 843.39,-131.56 840.32,-141.69 847.31,-141.4"/>
</g>
<!-- Node30 -->
<g id="node30" class="node">
<title>Node30</title>
<g id="a_node30"><a xlink:href="../../dd/dc9/_arduino_files_8h.html" target="_top" xlink:title=" ">
<polygon fill="white" stroke="black" points="0,-280.5 0,-299.5 128,-299.5 128,-280.5 0,-280.5"/>
<text text-anchor="middle" x="64" y="-287.5" font-family="Helvetica,sans-Serif" font-size="10.00">../common/ArduinoFiles.h</text>
</a>
</g>
</g>
<!-- Node22&#45;&gt;Node30 -->
<g id="edge52" class="edge">
<title>Node22&#45;&gt;Node30</title>
<path fill="none" stroke="midnightblue" d="M416.15,-510.5C372.08,-506.26 293.46,-495.28 232,-468 154.97,-433.81 125.38,-426.36 79,-356 69.94,-342.25 66.31,-323.72 64.88,-309.97"/>
<polygon fill="midnightblue" stroke="midnightblue" points="68.36,-309.46 64.13,-299.74 61.37,-309.97 68.36,-309.46"/>
</g>
<!-- Node25&#45;&gt;Node4 -->
<g id="edge41" class="edge">
<title>Node25&#45;&gt;Node4</title>
<path fill="none" stroke="midnightblue" d="M690.39,-168.62C613.65,-158.51 485.37,-141.62 408.32,-131.47"/>
<polygon fill="midnightblue" stroke="midnightblue" points="408.63,-127.98 398.26,-130.15 407.71,-134.92 408.63,-127.98"/>
</g>
<!-- Node25&#45;&gt;Node5 -->
<g id="edge40" class="edge">
<title>Node25&#45;&gt;Node5</title>
<path fill="none" stroke="midnightblue" d="M817.64,-174.39C871.04,-169.24 935.55,-154.38 915,-112 897.47,-75.84 880.92,-71.89 844,-56 751.24,-16.08 629.79,-10.46 570.96,-10.34"/>
<polygon fill="midnightblue" stroke="midnightblue" points="570.71,-6.84 560.72,-10.37 570.73,-13.84 570.71,-6.84"/>
</g>
<!-- Node26&#45;&gt;Node5 -->
<g id="edge43" class="edge">
<title>Node26&#45;&gt;Node5</title>
<path fill="none" stroke="midnightblue" d="M967.65,-392.45C969.01,-373.95 972,-328.85 972,-291 972,-291 972,-291 972,-121 972,-38.44 674.36,-17.21 570.92,-12.33"/>
<polygon fill="midnightblue" stroke="midnightblue" points="570.84,-8.82 560.69,-11.87 570.52,-15.82 570.84,-8.82"/>
</g>
<!-- Node27&#45;&gt;Node7 -->
<g id="edge45" class="edge">
<title>Node27&#45;&gt;Node7</title>
<path fill="none" stroke="midnightblue" d="M159.74,-336.44C159.2,-317.94 158,-272.82 158,-235 158,-235 158,-235 158,-177 158,-137.28 191.96,-101.5 214.48,-82.15"/>
<polygon fill="midnightblue" stroke="midnightblue" points="216.98,-84.63 222.46,-75.57 212.52,-79.24 216.98,-84.63"/>
</g>
<!-- Node28&#45;&gt;Node5 -->
<g id="edge48" class="edge">
<title>Node28&#45;&gt;Node5</title>
<path fill="none" stroke="midnightblue" d="M843.2,-112.31C843.02,-98.2 840.43,-70.43 824,-56 786.92,-23.43 639.13,-14.37 570.88,-11.9"/>
<polygon fill="midnightblue" stroke="midnightblue" points="570.75,-8.39 560.64,-11.56 570.52,-15.39 570.75,-8.39"/>
</g>
<!-- Node28&#45;&gt;Node6 -->
<g id="edge49" class="edge">
<title>Node28&#45;&gt;Node6</title>
<path fill="none" stroke="midnightblue" d="M813.53,-112.44C780.71,-102.92 727.68,-87.52 692.57,-77.33"/>
<polygon fill="midnightblue" stroke="midnightblue" points="693.32,-73.9 682.74,-74.47 691.37,-80.62 693.32,-73.9"/>
</g>
<!-- Node29 -->
<g id="node29" class="node">
<title>Node29</title>
<g id="a_node29"><a xlink:title=" ">
<polygon fill="white" stroke="#bfbfbf" points="767.5,-56.5 767.5,-75.5 814.5,-75.5 814.5,-56.5 767.5,-56.5"/>
<text text-anchor="middle" x="791" y="-63.5" font-family="Helvetica,sans-Serif" font-size="10.00">math.h</text>
</a>
</g>
</g>
<!-- Node28&#45;&gt;Node29 -->
<g id="edge47" class="edge">
<title>Node28&#45;&gt;Node29</title>
<path fill="none" stroke="midnightblue" d="M834.41,-112.08C826.84,-104.22 815.62,-92.57 806.49,-83.08"/>
<polygon fill="midnightblue" stroke="midnightblue" points="808.88,-80.53 799.43,-75.75 803.84,-85.38 808.88,-80.53"/>
</g>
<!-- Node30&#45;&gt;Node7 -->
<g id="edge53" class="edge">
<title>Node30&#45;&gt;Node7</title>
<path fill="none" stroke="midnightblue" d="M65.71,-280.47C71.68,-252.75 93.98,-164.02 144,-112 158.2,-97.23 178.28,-86.55 195.87,-79.31"/>
<polygon fill="midnightblue" stroke="midnightblue" points="197.28,-82.52 205.33,-75.64 194.74,-75.99 197.28,-82.52"/>
</g>
</g>
</svg>
