<?xml version="1.0" encoding="UTF-8" standalone="no"?>
<!DOCTYPE svg PUBLIC "-//W3C//DTD SVG 1.1//EN"
 "http://www.w3.org/Graphics/SVG/1.1/DTD/svg11.dtd">
<!-- Generated by graphviz version 2.47.3 (20210619.1520)
 -->
<!-- Title: ControlSlider Pages: 1 -->
<svg width="2433pt" height="581pt"
 viewBox="0.00 0.00 2433.00 580.50" xmlns="http://www.w3.org/2000/svg" xmlns:xlink="http://www.w3.org/1999/xlink">
<g id="graph0" class="graph" transform="scale(1 1) rotate(0) translate(4 576.5)">
<title>ControlSlider</title>
<polygon fill="white" stroke="transparent" points="-4,4 -4,-576.5 2429,-576.5 2429,4 -4,4"/>
<!-- Node1 -->
<g id="node1" class="node">
<title>Node1</title>
<g id="a_node1"><a xlink:title=" ">
<polygon fill="#bfbfbf" stroke="black" points="2046.5,-215.5 2046.5,-236.5 2131.5,-236.5 2131.5,-215.5 2046.5,-215.5"/>
<text text-anchor="middle" x="2089" y="-222.9" font-family="Helvetica,sans-Serif" font-size="12.00">ControlSlider</text>
</a>
</g>
</g>
<!-- Node2 -->
<g id="node2" class="node">
<title>Node2</title>
<g id="a_node2"><a xlink:href="../../db/d69/class_app_base_class.html" target="_top" xlink:title=" ">
<polygon fill="white" stroke="black" points="1782.5,-251.5 1782.5,-272.5 1878.5,-272.5 1878.5,-251.5 1782.5,-251.5"/>
<text text-anchor="middle" x="1830.5" y="-258.9" font-family="Helvetica,sans-Serif" font-size="12.00">AppBaseClass</text>
</a>
</g>
</g>
<!-- Node2&#45;&gt;Node1 -->
<g id="edge1" class="edge">
<title>Node2&#45;&gt;Node1</title>
<path fill="none" stroke="midnightblue" d="M1888.74,-253.97C1936.52,-247.26 2003.52,-237.86 2046.34,-231.85"/>
<polygon fill="midnightblue" stroke="midnightblue" points="1887.96,-250.54 1878.55,-255.4 1888.94,-257.47 1887.96,-250.54"/>
</g>
<!-- Node2&#45;&gt;Node2 -->
<g id="edge2" class="edge">
<title>Node2&#45;&gt;Node2</title>
<path fill="none" stroke="#9a32cd" stroke-dasharray="5,2" d="M1814.02,-282.79C1815.47,-287.53 1820.97,-291 1830.5,-291 1846.14,-291 1850.91,-281.65 1844.8,-272.71"/>
<polygon fill="#9a32cd" stroke="#9a32cd" points="1817.51,-283.22 1816.2,-272.71 1810.66,-281.74 1817.51,-283.22"/>
<text text-anchor="middle" x="1830.5" y="-320.4" font-family="Helvetica,sans-Serif" font-size="12.00"> nextAppicationNode</text>
<text text-anchor="middle" x="1830.5" y="-307.4" font-family="Helvetica,sans-Serif" font-size="12.00">parentNode</text>
<text text-anchor="middle" x="1830.5" y="-294.4" font-family="Helvetica,sans-Serif" font-size="12.00">previousAppicationNode</text>
</g>
<!-- Node27 -->
<g id="node25" class="node">
<title>Node27</title>
<g id="a_node25"><a xlink:href="../../d2/da8/class_svc_serial_command_interface.html" target="_top" xlink:title=" ">
<polygon fill="white" stroke="black" points="2006,-334.5 2006,-355.5 2172,-355.5 2172,-334.5 2006,-334.5"/>
<text text-anchor="middle" x="2089" y="-341.9" font-family="Helvetica,sans-Serif" font-size="12.00">SvcSerialCommandInterface</text>
</a>
</g>
</g>
<!-- Node2&#45;&gt;Node27 -->
<g id="edge39" class="edge">
<title>Node2&#45;&gt;Node27</title>
<path fill="none" stroke="midnightblue" d="M1874.57,-275.64C1906.02,-285.63 1949.69,-299.56 1988,-312 2010.78,-319.4 2036.43,-327.86 2056.05,-334.37"/>
<polygon fill="midnightblue" stroke="midnightblue" points="1875.4,-272.23 1864.81,-272.54 1873.28,-278.9 1875.4,-272.23"/>
</g>
<!-- Node3 -->
<g id="node3" class="node">
<title>Node3</title>
<g id="a_node3"><a xlink:href="../../d6/d73/class_sd_fs.html" target="_top" xlink:title="SD file system class for FAT16, FAT32, and exFAT volumes.">
<polygon fill="white" stroke="black" points="1478,-387.5 1478,-408.5 1523,-408.5 1523,-387.5 1478,-387.5"/>
<text text-anchor="middle" x="1500.5" y="-394.9" font-family="Helvetica,sans-Serif" font-size="12.00">SdFs</text>
</a>
</g>
</g>
<!-- Node3&#45;&gt;Node2 -->
<g id="edge3" class="edge">
<title>Node3&#45;&gt;Node2</title>
<path fill="none" stroke="#9a32cd" stroke-dasharray="5,2" d="M1532.64,-385.09C1597.18,-358.33 1744.44,-297.27 1803.9,-272.62"/>
<polygon fill="#9a32cd" stroke="#9a32cd" points="1530.92,-382.01 1523.02,-389.08 1533.6,-388.48 1530.92,-382.01"/>
<text text-anchor="middle" x="1655.5" y="-358.4" font-family="Helvetica,sans-Serif" font-size="12.00"> sd</text>
</g>
<!-- Node19 -->
<g id="node17" class="node">
<title>Node19</title>
<g id="a_node17"><a xlink:href="../../d8/d5a/class_i_l_i9341__t3___e_r_i_s.html" target="_top" xlink:title=" ">
<polygon fill="white" stroke="black" points="1603,-437.5 1603,-458.5 1708,-458.5 1708,-437.5 1603,-437.5"/>
<text text-anchor="middle" x="1655.5" y="-444.9" font-family="Helvetica,sans-Serif" font-size="12.00">ILI9341_t3_ERIS</text>
</a>
</g>
</g>
<!-- Node3&#45;&gt;Node19 -->
<g id="edge37" class="edge">
<title>Node3&#45;&gt;Node19</title>
<path fill="none" stroke="#9a32cd" stroke-dasharray="5,2" d="M1532.87,-408.25C1558.98,-416.79 1596.02,-428.89 1622.35,-437.49"/>
<polygon fill="#9a32cd" stroke="#9a32cd" points="1533.69,-404.84 1523.1,-405.06 1531.51,-411.49 1533.69,-404.84"/>
<text text-anchor="middle" x="1571" y="-427.4" font-family="Helvetica,sans-Serif" font-size="12.00"> pSD</text>
</g>
<!-- Node3&#45;&gt;Node27 -->
<g id="edge42" class="edge">
<title>Node3&#45;&gt;Node27</title>
<path fill="none" stroke="#9a32cd" stroke-dasharray="5,2" d="M1533.14,-398.26C1611.07,-398.4 1818.25,-395.79 1988,-367 2006.58,-363.85 2026.92,-359.54 2044.37,-355.56"/>
<polygon fill="#9a32cd" stroke="#9a32cd" points="1533.04,-394.76 1523.02,-398.22 1533.01,-401.76 1533.04,-394.76"/>
<text text-anchor="middle" x="1740.5" y="-396.4" font-family="Helvetica,sans-Serif" font-size="12.00"> pSD</text>
</g>
<!-- Node4 -->
<g id="node4" class="node">
<title>Node4</title>
<g id="a_node4"><a xlink:href="../../de/d8b/class_sd_base.html" target="_top" xlink:title=" ">
<polygon fill="white" stroke="black" points="977,-387.5 977,-408.5 1109,-408.5 1109,-387.5 977,-387.5"/>
<text text-anchor="middle" x="1043" y="-394.9" font-family="Helvetica,sans-Serif" font-size="12.00">SdBase&lt; FsVolume &gt;</text>
</a>
</g>
</g>
<!-- Node4&#45;&gt;Node3 -->
<g id="edge4" class="edge">
<title>Node4&#45;&gt;Node3</title>
<path fill="none" stroke="midnightblue" d="M1119.29,-398C1225.59,-398 1413.86,-398 1477.66,-398"/>
<polygon fill="midnightblue" stroke="midnightblue" points="1119.26,-394.5 1109.26,-398 1119.26,-401.5 1119.26,-394.5"/>
</g>
<!-- Node5 -->
<g id="node5" class="node">
<title>Node5</title>
<g id="a_node5"><a xlink:href="../../df/dd9/class_fs_volume.html" target="_top" xlink:title="FsVolume class.">
<polygon fill="white" stroke="black" points="824,-331.5 824,-352.5 894,-352.5 894,-331.5 824,-331.5"/>
<text text-anchor="middle" x="859" y="-338.9" font-family="Helvetica,sans-Serif" font-size="12.00">FsVolume</text>
</a>
</g>
</g>
<!-- Node5&#45;&gt;Node4 -->
<g id="edge5" class="edge">
<title>Node5&#45;&gt;Node4</title>
<path fill="none" stroke="midnightblue" d="M904.16,-355.59C935.98,-365.38 978.3,-378.4 1007.61,-387.42"/>
<polygon fill="midnightblue" stroke="midnightblue" points="904.82,-352.13 894.23,-352.53 902.76,-358.82 904.82,-352.13"/>
</g>
<!-- Node5&#45;&gt;Node5 -->
<g id="edge8" class="edge">
<title>Node5&#45;&gt;Node5</title>
<path fill="none" stroke="#9a32cd" stroke-dasharray="5,2" d="M845.08,-362.79C846.31,-367.53 850.95,-371 859,-371 872.21,-371 876.24,-361.65 871.08,-352.71"/>
<polygon fill="#9a32cd" stroke="#9a32cd" points="848.57,-363.17 846.92,-352.71 841.68,-361.92 848.57,-363.17"/>
<text text-anchor="middle" x="859" y="-374.4" font-family="Helvetica,sans-Serif" font-size="12.00"> m_cwv</text>
</g>
<!-- Node6 -->
<g id="node6" class="node">
<title>Node6</title>
<g id="a_node6"><a xlink:href="../../d5/d4b/class_shared_spi_card.html" target="_top" xlink:title="Raw access to SD and SDHC flash memory cards via shared SPI port.">
<polygon fill="white" stroke="black" points="225,-448.5 225,-469.5 324,-469.5 324,-448.5 225,-448.5"/>
<text text-anchor="middle" x="274.5" y="-455.9" font-family="Helvetica,sans-Serif" font-size="12.00">SharedSpiCard</text>
</a>
</g>
</g>
<!-- Node6&#45;&gt;Node5 -->
<g id="edge6" class="edge">
<title>Node6&#45;&gt;Node5</title>
<path fill="none" stroke="#9a32cd" stroke-dasharray="5,2" d="M303.76,-443.62C333.88,-427.97 383.41,-404.31 429,-392 448.05,-386.86 725.83,-356.37 823.97,-345.69"/>
<polygon fill="#9a32cd" stroke="#9a32cd" points="301.91,-440.64 294.69,-448.4 305.17,-446.84 301.91,-440.64"/>
<text text-anchor="middle" x="585" y="-379.4" font-family="Helvetica,sans-Serif" font-size="12.00"> m_blockDev</text>
</g>
<!-- Node9 -->
<g id="node9" class="node">
<title>Node9</title>
<g id="a_node9"><a xlink:href="../../d4/de9/class_ex_fat_partition.html" target="_top" xlink:title="Access exFat partitions on raw file devices.">
<polygon fill="white" stroke="red" points="432,-323.5 432,-344.5 523,-344.5 523,-323.5 432,-323.5"/>
<text text-anchor="middle" x="477.5" y="-330.9" font-family="Helvetica,sans-Serif" font-size="12.00">ExFatPartition</text>
</a>
</g>
</g>
<!-- Node6&#45;&gt;Node9 -->
<g id="edge11" class="edge">
<title>Node6&#45;&gt;Node9</title>
<path fill="none" stroke="#9a32cd" stroke-dasharray="5,2" d="M281.16,-438.57C289.64,-412.23 308.35,-367.28 342,-346 368.45,-329.27 403.89,-326.73 431.75,-328.12"/>
<polygon fill="#9a32cd" stroke="#9a32cd" points="277.77,-437.7 278.23,-448.29 284.47,-439.73 277.77,-437.7"/>
<text text-anchor="middle" x="376.5" y="-349.4" font-family="Helvetica,sans-Serif" font-size="12.00"> m_blockDev</text>
</g>
<!-- Node14 -->
<g id="node12" class="node">
<title>Node14</title>
<g id="a_node12"><a xlink:href="../../d0/d12/class_fat_partition.html" target="_top" xlink:title="Access FAT16 and FAT32 partitions on raw file devices.">
<polygon fill="white" stroke="red" points="439,-530.5 439,-551.5 516,-551.5 516,-530.5 439,-530.5"/>
<text text-anchor="middle" x="477.5" y="-537.9" font-family="Helvetica,sans-Serif" font-size="12.00">FatPartition</text>
</a>
</g>
</g>
<!-- Node6&#45;&gt;Node14 -->
<g id="edge17" class="edge">
<title>Node6&#45;&gt;Node14</title>
<path fill="none" stroke="#9a32cd" stroke-dasharray="5,2" d="M297.4,-475.99C309.91,-485.04 326.2,-495.76 342,-503 373.32,-517.36 411.28,-527.48 438.87,-533.65"/>
<polygon fill="#9a32cd" stroke="#9a32cd" points="299.14,-472.93 289.03,-469.78 294.97,-478.55 299.14,-472.93"/>
<text text-anchor="middle" x="376.5" y="-529.4" font-family="Helvetica,sans-Serif" font-size="12.00"> m_blockDev</text>
</g>
<!-- Node16 -->
<g id="node14" class="node">
<title>Node16</title>
<g id="a_node14"><a xlink:href="../../de/d8b/class_sd_base.html" target="_top" xlink:title="base SD file system template class.">
<polygon fill="white" stroke="black" points="644,-435.5 644,-456.5 740,-456.5 740,-435.5 644,-435.5"/>
<text text-anchor="middle" x="692" y="-442.9" font-family="Helvetica,sans-Serif" font-size="12.00">SdBase&lt; Vol &gt;</text>
</a>
</g>
</g>
<!-- Node6&#45;&gt;Node16 -->
<g id="edge23" class="edge">
<title>Node6&#45;&gt;Node16</title>
<path fill="none" stroke="#9a32cd" stroke-dasharray="5,2" d="M334.43,-457.16C417.59,-454.55 567.71,-449.86 643.9,-447.47"/>
<polygon fill="#9a32cd" stroke="#9a32cd" points="334.27,-453.66 324.38,-457.47 334.49,-460.66 334.27,-453.66"/>
<text text-anchor="middle" x="477.5" y="-457.4" font-family="Helvetica,sans-Serif" font-size="12.00"> m_card</text>
</g>
<!-- Node18 -->
<g id="node16" class="node">
<title>Node18</title>
<g id="a_node16"><a xlink:href="../../d9/d30/class_sd_card_factory.html" target="_top" xlink:title="Setup a SPI card or SDIO card.">
<polygon fill="white" stroke="black" points="429,-490.5 429,-511.5 526,-511.5 526,-490.5 429,-490.5"/>
<text text-anchor="middle" x="477.5" y="-497.9" font-family="Helvetica,sans-Serif" font-size="12.00">SdCardFactory</text>
</a>
</g>
</g>
<!-- Node6&#45;&gt;Node18 -->
<g id="edge25" class="edge">
<title>Node6&#45;&gt;Node18</title>
<path fill="none" stroke="#9a32cd" stroke-dasharray="5,2" d="M334.01,-471.33C336.71,-471.89 339.38,-472.45 342,-473 370.83,-479.04 403.15,-485.76 428.88,-491.11"/>
<polygon fill="#9a32cd" stroke="#9a32cd" points="334.67,-467.89 324.16,-469.26 333.23,-474.74 334.67,-467.89"/>
<text text-anchor="middle" x="376.5" y="-489.4" font-family="Helvetica,sans-Serif" font-size="12.00"> m_spiCard</text>
</g>
<!-- Node7 -->
<g id="node7" class="node">
<title>Node7</title>
<g id="a_node7"><a xlink:href="../../dc/da1/class_sd_spi_arduino_driver.html" target="_top" xlink:title="Optimized SPI class for access to SD and SDHC flash memory cards.">
<polygon fill="white" stroke="black" points="0,-448.5 0,-469.5 122,-469.5 122,-448.5 0,-448.5"/>
<text text-anchor="middle" x="61" y="-455.9" font-family="Helvetica,sans-Serif" font-size="12.00">SdSpiArduinoDriver</text>
</a>
</g>
</g>
<!-- Node7&#45;&gt;Node6 -->
<g id="edge7" class="edge">
<title>Node7&#45;&gt;Node6</title>
<path fill="none" stroke="#9a32cd" stroke-dasharray="5,2" d="M132.14,-459C162.48,-459 197.24,-459 224.7,-459"/>
<polygon fill="#9a32cd" stroke="#9a32cd" points="132.04,-455.5 122.04,-459 132.04,-462.5 132.04,-455.5"/>
<text text-anchor="middle" x="173.5" y="-462.4" font-family="Helvetica,sans-Serif" font-size="12.00"> m_spiDriver</text>
</g>
<!-- Node8 -->
<g id="node8" class="node">
<title>Node8</title>
<g id="a_node8"><a xlink:href="../../da/d35/class_ex_fat_volume.html" target="_top" xlink:title="exFAT volume.">
<polygon fill="white" stroke="black" points="648.5,-292.5 648.5,-313.5 735.5,-313.5 735.5,-292.5 648.5,-292.5"/>
<text text-anchor="middle" x="692" y="-299.9" font-family="Helvetica,sans-Serif" font-size="12.00">ExFatVolume</text>
</a>
</g>
</g>
<!-- Node8&#45;&gt;Node5 -->
<g id="edge9" class="edge">
<title>Node8&#45;&gt;Node5</title>
<path fill="none" stroke="#9a32cd" stroke-dasharray="5,2" d="M745.84,-315.49C771.41,-321.53 801.35,-328.61 823.87,-333.93"/>
<polygon fill="#9a32cd" stroke="#9a32cd" points="746.46,-312.04 735.92,-313.14 744.85,-318.85 746.46,-312.04"/>
<text text-anchor="middle" x="780.5" y="-332.4" font-family="Helvetica,sans-Serif" font-size="12.00"> m_xVol</text>
</g>
<!-- Node8&#45;&gt;Node8 -->
<g id="edge12" class="edge">
<title>Node8&#45;&gt;Node8</title>
<path fill="none" stroke="#9a32cd" stroke-dasharray="5,2" d="M675.88,-323.79C677.31,-328.53 682.68,-332 692,-332 707.3,-332 711.96,-322.65 705.98,-313.71"/>
<polygon fill="#9a32cd" stroke="#9a32cd" points="679.37,-324.22 678.02,-313.71 672.52,-322.77 679.37,-324.22"/>
<text text-anchor="middle" x="692" y="-335.4" font-family="Helvetica,sans-Serif" font-size="12.00"> m_cwv</text>
</g>
<!-- Node11 -->
<g id="node10" class="node">
<title>Node11</title>
<g id="a_node10"><a xlink:href="../../d5/d14/class_ex_fat_file.html" target="_top" xlink:title="Basic file class.">
<polygon fill="white" stroke="red" points="444,-265.5 444,-286.5 511,-286.5 511,-265.5 444,-265.5"/>
<text text-anchor="middle" x="477.5" y="-272.9" font-family="Helvetica,sans-Serif" font-size="12.00">ExFatFile</text>
</a>
</g>
</g>
<!-- Node8&#45;&gt;Node11 -->
<g id="edge14" class="edge">
<title>Node8&#45;&gt;Node11</title>
<path fill="none" stroke="#9a32cd" stroke-dasharray="5,2" d="M664.52,-287.62C653.07,-281.82 639.28,-275.92 626,-273 587.22,-264.48 541.33,-267.38 511.15,-270.99"/>
<polygon fill="#9a32cd" stroke="#9a32cd" points="663.05,-290.8 673.53,-292.4 666.34,-284.62 663.05,-290.8"/>
<text text-anchor="middle" x="585" y="-276.4" font-family="Helvetica,sans-Serif" font-size="12.00"> m_vol</text>
</g>
<!-- Node9&#45;&gt;Node8 -->
<g id="edge10" class="edge">
<title>Node9&#45;&gt;Node8</title>
<path fill="none" stroke="midnightblue" d="M533.11,-328.34C560.98,-325.19 595.38,-320.92 626,-316 633.27,-314.83 640.97,-313.43 648.43,-312"/>
<polygon fill="midnightblue" stroke="midnightblue" points="532.71,-324.86 523.16,-329.44 533.49,-331.82 532.71,-324.86"/>
</g>
<!-- Node11&#45;&gt;Node8 -->
<g id="edge13" class="edge">
<title>Node11&#45;&gt;Node8</title>
<path fill="none" stroke="#9a32cd" stroke-dasharray="5,2" d="M520.87,-285.85C528.54,-287.4 536.48,-288.87 544,-290 578.96,-295.26 618.95,-298.63 648.38,-300.61"/>
<polygon fill="#9a32cd" stroke="#9a32cd" points="521.51,-282.41 511.01,-283.77 520.07,-289.26 521.51,-282.41"/>
<text text-anchor="middle" x="585" y="-302.4" font-family="Helvetica,sans-Serif" font-size="12.00"> m_vwd</text>
</g>
<!-- Node24 -->
<g id="node22" class="node">
<title>Node24</title>
<g id="a_node22"><a xlink:href="../../d7/d76/class_fs_base_file.html" target="_top" xlink:title="FsBaseFile class.">
<polygon fill="white" stroke="black" points="1004.5,-459.5 1004.5,-480.5 1081.5,-480.5 1081.5,-459.5 1004.5,-459.5"/>
<text text-anchor="middle" x="1043" y="-466.9" font-family="Helvetica,sans-Serif" font-size="12.00">FsBaseFile</text>
</a>
</g>
</g>
<!-- Node11&#45;&gt;Node24 -->
<g id="edge33" class="edge">
<title>Node11&#45;&gt;Node24</title>
<path fill="none" stroke="#9a32cd" stroke-dasharray="5,2" d="M521.35,-267C528.87,-265.75 536.64,-264.67 544,-264 580.29,-260.7 589.68,-260.99 626,-264 748.75,-274.16 792.83,-256.27 897,-322 943.73,-351.48 936.52,-379.35 976,-418 992.16,-433.82 1012.94,-449.54 1026.83,-459.49"/>
<polygon fill="#9a32cd" stroke="#9a32cd" points="520.56,-263.59 511.33,-268.78 521.78,-270.48 520.56,-263.59"/>
<text text-anchor="middle" x="780.5" y="-282.4" font-family="Helvetica,sans-Serif" font-size="12.00"> m_xFile</text>
</g>
<!-- Node13 -->
<g id="node11" class="node">
<title>Node13</title>
<g id="a_node11"><a xlink:href="../../d9/d27/class_fat_volume.html" target="_top" xlink:title="Integration class for the FatLib library.">
<polygon fill="white" stroke="black" points="655,-485.5 655,-506.5 729,-506.5 729,-485.5 655,-485.5"/>
<text text-anchor="middle" x="692" y="-492.9" font-family="Helvetica,sans-Serif" font-size="12.00">FatVolume</text>
</a>
</g>
</g>
<!-- Node13&#45;&gt;Node5 -->
<g id="edge15" class="edge">
<title>Node13&#45;&gt;Node5</title>
<path fill="none" stroke="#9a32cd" stroke-dasharray="5,2" d="M720.69,-479.9C727.23,-475.67 734.04,-470.91 740,-466 745.99,-461.06 820.85,-381.54 848.13,-352.5"/>
<polygon fill="#9a32cd" stroke="#9a32cd" points="718.65,-477.04 712.02,-485.3 722.36,-482.98 718.65,-477.04"/>
<text text-anchor="middle" x="780.5" y="-448.4" font-family="Helvetica,sans-Serif" font-size="12.00"> m_fVol</text>
</g>
<!-- Node13&#45;&gt;Node13 -->
<g id="edge18" class="edge">
<title>Node13&#45;&gt;Node13</title>
<path fill="none" stroke="#9a32cd" stroke-dasharray="5,2" d="M675.88,-516.79C677.31,-521.53 682.68,-525 692,-525 707.3,-525 711.96,-515.65 705.98,-506.71"/>
<polygon fill="#9a32cd" stroke="#9a32cd" points="679.37,-517.22 678.02,-506.71 672.52,-515.77 679.37,-517.22"/>
<text text-anchor="middle" x="692" y="-528.4" font-family="Helvetica,sans-Serif" font-size="12.00"> m_cwv</text>
</g>
<!-- Node15 -->
<g id="node13" class="node">
<title>Node15</title>
<g id="a_node13"><a xlink:href="../../d3/d51/class_fat_file.html" target="_top" xlink:title="Basic file class.">
<polygon fill="white" stroke="black" points="832.5,-465.5 832.5,-486.5 885.5,-486.5 885.5,-465.5 832.5,-465.5"/>
<text text-anchor="middle" x="859" y="-472.9" font-family="Helvetica,sans-Serif" font-size="12.00">FatFile</text>
</a>
</g>
</g>
<!-- Node13&#45;&gt;Node15 -->
<g id="edge20" class="edge">
<title>Node13&#45;&gt;Node15</title>
<path fill="none" stroke="#9a32cd" stroke-dasharray="5,2" d="M721.16,-480.9C732.31,-475.73 745.43,-470.59 758,-468 782.9,-462.86 811.93,-466.19 832.27,-469.99"/>
<polygon fill="#9a32cd" stroke="#9a32cd" points="719.4,-477.86 711.95,-485.39 722.47,-484.16 719.4,-477.86"/>
<text text-anchor="middle" x="780.5" y="-471.4" font-family="Helvetica,sans-Serif" font-size="12.00"> m_vol</text>
</g>
<!-- Node14&#45;&gt;Node13 -->
<g id="edge16" class="edge">
<title>Node14&#45;&gt;Node13</title>
<path fill="none" stroke="midnightblue" d="M526.1,-532.81C555.08,-527.62 592.79,-520.49 626,-513 635.33,-510.9 645.35,-508.4 654.67,-505.97"/>
<polygon fill="midnightblue" stroke="midnightblue" points="525.47,-529.37 516.23,-534.57 526.69,-536.26 525.47,-529.37"/>
</g>
<!-- Node15&#45;&gt;Node13 -->
<g id="edge19" class="edge">
<title>Node15&#45;&gt;Node13</title>
<path fill="none" stroke="#9a32cd" stroke-dasharray="5,2" d="M822.43,-482.15C815.98,-483.18 809.3,-484.17 803,-485 778.45,-488.23 750.71,-491 729.23,-492.95"/>
<polygon fill="#9a32cd" stroke="#9a32cd" points="823,-485.61 832.31,-480.55 821.87,-478.7 823,-485.61"/>
<text text-anchor="middle" x="780.5" y="-492.4" font-family="Helvetica,sans-Serif" font-size="12.00"> m_vwd</text>
</g>
<!-- Node15&#45;&gt;Node24 -->
<g id="edge32" class="edge">
<title>Node15&#45;&gt;Node24</title>
<path fill="none" stroke="#9a32cd" stroke-dasharray="5,2" d="M895.74,-474.82C927.1,-473.79 972.54,-472.29 1004.43,-471.24"/>
<polygon fill="#9a32cd" stroke="#9a32cd" points="895.57,-471.33 885.69,-475.15 895.8,-478.32 895.57,-471.33"/>
<text text-anchor="middle" x="936.5" y="-477.4" font-family="Helvetica,sans-Serif" font-size="12.00"> m_fFile</text>
</g>
<!-- Node16&#45;&gt;Node4 -->
<g id="edge21" class="edge">
<title>Node16&#45;&gt;Node4</title>
<path fill="none" stroke="orange" stroke-dasharray="5,2" d="M750.09,-438.15C812.25,-429.6 911.47,-415.95 976.69,-406.98"/>
<polygon fill="orange" stroke="orange" points="749.5,-434.7 740.07,-439.53 750.45,-441.63 749.5,-434.7"/>
<text text-anchor="middle" x="859" y="-431.4" font-family="Helvetica,sans-Serif" font-size="12.00"> &lt; FsVolume &gt;</text>
</g>
<!-- Node17 -->
<g id="node15" class="node">
<title>Node17</title>
<g id="a_node15"><a xlink:title=" ">
<polygon fill="white" stroke="#bfbfbf" points="460.5,-401.5 460.5,-422.5 494.5,-422.5 494.5,-401.5 460.5,-401.5"/>
<text text-anchor="middle" x="477.5" y="-408.9" font-family="Helvetica,sans-Serif" font-size="12.00">Vol</text>
</a>
</g>
</g>
<!-- Node17&#45;&gt;Node16 -->
<g id="edge22" class="edge">
<title>Node17&#45;&gt;Node16</title>
<path fill="none" stroke="midnightblue" d="M505.1,-416.26C539.8,-421.81 601.13,-431.62 643.81,-438.45"/>
<polygon fill="midnightblue" stroke="midnightblue" points="505.25,-412.74 494.82,-414.61 504.14,-419.65 505.25,-412.74"/>
</g>
<!-- Node18&#45;&gt;Node16 -->
<g id="edge24" class="edge">
<title>Node18&#45;&gt;Node16</title>
<path fill="none" stroke="#9a32cd" stroke-dasharray="5,2" d="M536.49,-492.83C563.94,-488.24 596.99,-481.68 626,-473 640.63,-468.62 656.47,-462.08 668.85,-456.54"/>
<polygon fill="#9a32cd" stroke="#9a32cd" points="535.57,-489.43 526.26,-494.49 536.69,-496.34 535.57,-489.43"/>
<text text-anchor="middle" x="585" y="-494.4" font-family="Helvetica,sans-Serif" font-size="12.00"> m_cardFactory</text>
</g>
<!-- Node19&#45;&gt;Node2 -->
<g id="edge26" class="edge">
<title>Node19&#45;&gt;Node2</title>
<path fill="none" stroke="#9a32cd" stroke-dasharray="5,2" d="M1670.88,-429.21C1684.55,-411.64 1705.94,-384.91 1726,-363 1757.71,-328.38 1798.32,-290.44 1817.91,-272.51"/>
<polygon fill="#9a32cd" stroke="#9a32cd" points="1667.83,-427.43 1664.48,-437.48 1673.37,-431.71 1667.83,-427.43"/>
<text text-anchor="middle" x="1740.5" y="-366.4" font-family="Helvetica,sans-Serif" font-size="12.00"> draw</text>
</g>
<!-- Node20 -->
<g id="node18" class="node">
<title>Node20</title>
<g id="a_node18"><a xlink:title=" ">
<polygon fill="white" stroke="#bfbfbf" points="1462,-448.5 1462,-469.5 1539,-469.5 1539,-448.5 1462,-448.5"/>
<text text-anchor="middle" x="1500.5" y="-455.9" font-family="Helvetica,sans-Serif" font-size="12.00">ILI9341_t3n</text>
</a>
</g>
</g>
<!-- Node20&#45;&gt;Node19 -->
<g id="edge27" class="edge">
<title>Node20&#45;&gt;Node19</title>
<path fill="none" stroke="midnightblue" d="M1549.58,-455.54C1566.56,-454.32 1585.72,-452.94 1602.98,-451.7"/>
<polygon fill="midnightblue" stroke="midnightblue" points="1549.04,-452.07 1539.32,-456.28 1549.55,-459.05 1549.04,-452.07"/>
</g>
<!-- Node21 -->
<g id="node19" class="node">
<title>Node21</title>
<g id="a_node19"><a xlink:href="../../d4/da1/class_fs_file.html" target="_top" xlink:title="FsBaseFile file with Arduino Stream.">
<polygon fill="white" stroke="black" points="1475.5,-498.5 1475.5,-519.5 1525.5,-519.5 1525.5,-498.5 1475.5,-498.5"/>
<text text-anchor="middle" x="1500.5" y="-505.9" font-family="Helvetica,sans-Serif" font-size="12.00">FsFile</text>
</a>
</g>
</g>
<!-- Node21&#45;&gt;Node19 -->
<g id="edge28" class="edge">
<title>Node21&#45;&gt;Node19</title>
<path fill="none" stroke="#9a32cd" stroke-dasharray="5,2" d="M1535.12,-495.6C1563.07,-484.45 1602.31,-468.81 1628.06,-458.54"/>
<polygon fill="#9a32cd" stroke="#9a32cd" points="1533.74,-492.38 1525.74,-499.33 1536.33,-498.88 1533.74,-492.38"/>
<text text-anchor="middle" x="1571" y="-488.4" font-family="Helvetica,sans-Serif" font-size="12.00"> file</text>
</g>
<!-- Node21&#45;&gt;Node27 -->
<g id="edge41" class="edge">
<title>Node21&#45;&gt;Node27</title>
<path fill="none" stroke="#9a32cd" stroke-dasharray="5,2" d="M1535.76,-507.57C1550.93,-506.56 1568.94,-504.87 1585,-502 1646.73,-490.98 1896.2,-418.16 1988,-386 2014.39,-376.76 2043.93,-364.38 2064.02,-355.66"/>
<polygon fill="#9a32cd" stroke="#9a32cd" points="1535.55,-504.08 1525.77,-508.16 1535.96,-511.06 1535.55,-504.08"/>
<text text-anchor="middle" x="1740.5" y="-468.4" font-family="Helvetica,sans-Serif" font-size="12.00"> file</text>
</g>
<!-- Node22 -->
<g id="node20" class="node">
<title>Node22</title>
<g id="a_node20"><a xlink:href="../../da/dc7/class_stream_file.html" target="_top" xlink:title=" ">
<polygon fill="white" stroke="black" points="1277,-492 1277,-526 1425,-526 1425,-492 1277,-492"/>
<text text-anchor="start" x="1285" y="-512.4" font-family="Helvetica,sans-Serif" font-size="12.00">StreamFile&lt; FsBaseFile,</text>
<text text-anchor="middle" x="1351" y="-499.4" font-family="Helvetica,sans-Serif" font-size="12.00"> uint64_t &gt;</text>
</a>
</g>
</g>
<!-- Node22&#45;&gt;Node21 -->
<g id="edge29" class="edge">
<title>Node22&#45;&gt;Node21</title>
<path fill="none" stroke="midnightblue" d="M1435.46,-509C1450.03,-509 1464.09,-509 1475.3,-509"/>
<polygon fill="midnightblue" stroke="midnightblue" points="1435.32,-505.5 1425.32,-509 1435.32,-512.5 1435.32,-505.5"/>
</g>
<!-- Node23 -->
<g id="node21" class="node">
<title>Node23</title>
<g id="a_node21"><a xlink:href="../../da/db3/class_print_basic.html" target="_top" xlink:title=" ">
<polygon fill="white" stroke="black" points="828,-507.5 828,-528.5 890,-528.5 890,-507.5 828,-507.5"/>
<text text-anchor="middle" x="859" y="-514.9" font-family="Helvetica,sans-Serif" font-size="12.00">stream_t</text>
</a>
</g>
</g>
<!-- Node23&#45;&gt;Node22 -->
<g id="edge30" class="edge">
<title>Node23&#45;&gt;Node22</title>
<path fill="none" stroke="midnightblue" d="M900.52,-517.26C983.18,-515.74 1172.24,-512.27 1276.91,-510.34"/>
<polygon fill="midnightblue" stroke="midnightblue" points="900.22,-513.76 890.28,-517.44 900.34,-520.76 900.22,-513.76"/>
</g>
<!-- Node25 -->
<g id="node23" class="node">
<title>Node25</title>
<g id="a_node23"><a xlink:href="../../da/dc7/class_stream_file.html" target="_top" xlink:title="StreamFile class.">
<polygon fill="white" stroke="black" points="976,-538 976,-572 1110,-572 1110,-538 976,-538"/>
<text text-anchor="start" x="984" y="-558.4" font-family="Helvetica,sans-Serif" font-size="12.00">StreamFile&lt; BaseFile,</text>
<text text-anchor="middle" x="1043" y="-545.4" font-family="Helvetica,sans-Serif" font-size="12.00"> PosType &gt;</text>
</a>
</g>
</g>
<!-- Node23&#45;&gt;Node25 -->
<g id="edge35" class="edge">
<title>Node23&#45;&gt;Node25</title>
<path fill="none" stroke="midnightblue" d="M900.09,-526.15C922.24,-530.65 950.31,-536.36 975.63,-541.51"/>
<polygon fill="midnightblue" stroke="midnightblue" points="900.55,-522.67 890.05,-524.11 899.16,-529.53 900.55,-522.67"/>
</g>
<!-- Node24&#45;&gt;Node22 -->
<g id="edge31" class="edge">
<title>Node24&#45;&gt;Node22</title>
<path fill="none" stroke="midnightblue" d="M1091.76,-475.04C1135.37,-479.77 1201.6,-487.25 1259,-495 1264.7,-495.77 1270.6,-496.6 1276.53,-497.46"/>
<polygon fill="midnightblue" stroke="midnightblue" points="1092.04,-471.55 1081.73,-473.96 1091.29,-478.51 1092.04,-471.55"/>
</g>
<!-- Node25&#45;&gt;Node22 -->
<g id="edge34" class="edge">
<title>Node25&#45;&gt;Node22</title>
<path fill="none" stroke="orange" stroke-dasharray="5,2" d="M1120.3,-543.74C1161.4,-537.65 1212.98,-529.96 1259,-523 1264.85,-522.12 1270.91,-521.19 1276.99,-520.26"/>
<polygon fill="orange" stroke="orange" points="1119.74,-540.28 1110.36,-545.21 1120.76,-547.21 1119.74,-540.28"/>
<text text-anchor="middle" x="1193.5" y="-545.4" font-family="Helvetica,sans-Serif" font-size="12.00"> &lt; FsBaseFile, uint64_t &gt;</text>
</g>
<!-- Node26 -->
<g id="node24" class="node">
<title>Node26</title>
<g id="a_node24"><a xlink:title=" ">
<polygon fill="white" stroke="#bfbfbf" points="827,-548.5 827,-569.5 891,-569.5 891,-548.5 827,-548.5"/>
<text text-anchor="middle" x="859" y="-555.9" font-family="Helvetica,sans-Serif" font-size="12.00">BaseFile</text>
</a>
</g>
</g>
<!-- Node26&#45;&gt;Node25 -->
<g id="edge36" class="edge">
<title>Node26&#45;&gt;Node25</title>
<path fill="none" stroke="midnightblue" d="M901.58,-558.09C923.51,-557.6 950.94,-557 975.72,-556.46"/>
<polygon fill="midnightblue" stroke="midnightblue" points="901.21,-554.59 891.29,-558.31 901.36,-561.59 901.21,-554.59"/>
</g>
<!-- Node27&#45;&gt;Node2 -->
<g id="edge38" class="edge">
<title>Node27&#45;&gt;Node2</title>
<path fill="none" stroke="#9a32cd" stroke-dasharray="5,2" d="M1996.12,-333.59C1966.67,-328.16 1934.36,-320.3 1906,-309 1882.98,-299.83 1859.26,-283.45 1844.95,-272.65"/>
<polygon fill="#9a32cd" stroke="#9a32cd" points="1995.53,-337.04 2005.99,-335.34 1996.75,-330.15 1995.53,-337.04"/>
<text text-anchor="middle" x="1947" y="-335.4" font-family="Helvetica,sans-Serif" font-size="12.00"> sci</text>
</g>
<!-- Node29 -->
<g id="node27" class="node">
<title>Node29</title>
<g id="a_node27"><a xlink:href="../../d8/d1c/class_audio_director.html" target="_top" xlink:title=" ">
<polygon fill="white" stroke="black" points="2336,-175.5 2336,-196.5 2425,-196.5 2425,-175.5 2336,-175.5"/>
<text text-anchor="middle" x="2380.5" y="-182.9" font-family="Helvetica,sans-Serif" font-size="12.00">AudioDirector</text>
</a>
</g>
</g>
<!-- Node27&#45;&gt;Node29 -->
<g id="edge53" class="edge">
<title>Node27&#45;&gt;Node29</title>
<path fill="none" stroke="#9a32cd" stroke-dasharray="5,2" d="M2182.16,-337.81C2226.69,-330.51 2278.84,-315.95 2318,-287 2350.03,-263.33 2368.83,-217.53 2376.06,-196.74"/>
<polygon fill="#9a32cd" stroke="#9a32cd" points="2181.55,-334.36 2172.2,-339.34 2182.61,-341.28 2181.55,-334.36"/>
<text text-anchor="middle" x="2254" y="-339.4" font-family="Helvetica,sans-Serif" font-size="12.00"> sci</text>
</g>
<!-- Node28 -->
<g id="node26" class="node">
<title>Node28</title>
<g id="a_node26"><a xlink:title=" ">
<polygon fill="white" stroke="#bfbfbf" points="1810,-348.5 1810,-369.5 1851,-369.5 1851,-348.5 1810,-348.5"/>
<text text-anchor="middle" x="1830.5" y="-355.9" font-family="Helvetica,sans-Serif" font-size="12.00">Print</text>
</a>
</g>
</g>
<!-- Node28&#45;&gt;Node27 -->
<g id="edge40" class="edge">
<title>Node28&#45;&gt;Node27</title>
<path fill="none" stroke="midnightblue" d="M1861.28,-357.37C1896.45,-355.45 1956.42,-352.18 2005.85,-349.48"/>
<polygon fill="midnightblue" stroke="midnightblue" points="1861,-353.88 1851.2,-357.92 1861.38,-360.87 1861,-353.88"/>
</g>
<!-- Node29&#45;&gt;Node2 -->
<g id="edge43" class="edge">
<title>Node29&#45;&gt;Node2</title>
<path fill="none" stroke="#9a32cd" stroke-dasharray="5,2" d="M2340.76,-199.87C2299.51,-214.01 2232.03,-235.32 2172,-246 2091.28,-260.35 2069.9,-255.32 1988,-259 1951.35,-260.64 1909.83,-261.39 1878.77,-261.73"/>
<polygon fill="#9a32cd" stroke="#9a32cd" points="2342.11,-203.11 2350.41,-196.53 2339.82,-196.49 2342.11,-203.11"/>
<text text-anchor="middle" x="2089" y="-262.4" font-family="Helvetica,sans-Serif" font-size="12.00"> ad</text>
</g>
<!-- Node30 -->
<g id="node28" class="node">
<title>Node30</title>
<g id="a_node28"><a xlink:href="../../dc/d96/classeris_audio_output_i2_s.html" target="_top" xlink:title=" ">
<polygon fill="white" stroke="black" points="2030,-175.5 2030,-196.5 2148,-196.5 2148,-175.5 2030,-175.5"/>
<text text-anchor="middle" x="2089" y="-182.9" font-family="Helvetica,sans-Serif" font-size="12.00">erisAudioOutputI2S</text>
</a>
</g>
</g>
<!-- Node30&#45;&gt;Node29 -->
<g id="edge44" class="edge">
<title>Node30&#45;&gt;Node29</title>
<path fill="none" stroke="#9a32cd" stroke-dasharray="5,2" d="M2158.25,-186C2213.24,-186 2288.9,-186 2335.97,-186"/>
<polygon fill="#9a32cd" stroke="#9a32cd" points="2158.24,-182.5 2148.24,-186 2158.24,-189.5 2158.24,-182.5"/>
<text text-anchor="middle" x="2254" y="-189.4" font-family="Helvetica,sans-Serif" font-size="12.00"> AudioStreamOutputPort</text>
</g>
<!-- Node31 -->
<g id="node29" class="node">
<title>Node31</title>
<g id="a_node29"><a xlink:title=" ">
<polygon fill="white" stroke="#bfbfbf" points="1781.5,-175.5 1781.5,-196.5 1879.5,-196.5 1879.5,-175.5 1781.5,-175.5"/>
<text text-anchor="middle" x="1830.5" y="-182.9" font-family="Helvetica,sans-Serif" font-size="12.00">AudioOutputI2S</text>
</a>
</g>
</g>
<!-- Node31&#45;&gt;Node30 -->
<g id="edge45" class="edge">
<title>Node31&#45;&gt;Node30</title>
<path fill="none" stroke="midnightblue" d="M1889.79,-186C1931.62,-186 1987.77,-186 2029.63,-186"/>
<polygon fill="midnightblue" stroke="midnightblue" points="1889.75,-182.5 1879.75,-186 1889.75,-189.5 1889.75,-182.5"/>
</g>
<!-- Node32 -->
<g id="node30" class="node">
<title>Node32</title>
<g id="a_node30"><a xlink:href="../../d2/d7c/class_audio_connection.html" target="_top" xlink:title=" ">
<polygon fill="white" stroke="black" points="1777,-98.5 1777,-119.5 1884,-119.5 1884,-98.5 1777,-98.5"/>
<text text-anchor="middle" x="1830.5" y="-105.9" font-family="Helvetica,sans-Serif" font-size="12.00">AudioConnection</text>
</a>
</g>
</g>
<!-- Node32&#45;&gt;Node29 -->
<g id="edge46" class="edge">
<title>Node32&#45;&gt;Node29</title>
<path fill="none" stroke="#9a32cd" stroke-dasharray="5,2" d="M1894.62,-117.5C1898.47,-118.01 1902.29,-118.51 1906,-119 2024.17,-134.48 2054.02,-136.08 2172,-153 2228.69,-161.13 2293.89,-171.7 2335.84,-178.66"/>
<polygon fill="#9a32cd" stroke="#9a32cd" points="1894.78,-113.99 1884.4,-116.14 1893.85,-120.93 1894.78,-113.99"/>
<text text-anchor="middle" x="2089" y="-156.4" font-family="Helvetica,sans-Serif" font-size="12.00"> pCord</text>
</g>
<!-- Node32&#45;&gt;Node32 -->
<g id="edge47" class="edge">
<title>Node32&#45;&gt;Node32</title>
<path fill="none" stroke="#9a32cd" stroke-dasharray="5,2" d="M1814.02,-129.79C1815.47,-134.53 1820.97,-138 1830.5,-138 1846.14,-138 1850.91,-128.65 1844.8,-119.71"/>
<polygon fill="#9a32cd" stroke="#9a32cd" points="1817.51,-130.22 1816.2,-119.71 1810.66,-128.74 1817.51,-130.22"/>
<text text-anchor="middle" x="1830.5" y="-141.4" font-family="Helvetica,sans-Serif" font-size="12.00"> next_dest</text>
</g>
<!-- Node33 -->
<g id="node31" class="node">
<title>Node33</title>
<g id="a_node31"><a xlink:href="../../d5/d96/class_audio_stream.html" target="_top" xlink:title=" ">
<polygon fill="white" stroke="black" points="2046,-42.5 2046,-63.5 2132,-63.5 2132,-42.5 2046,-42.5"/>
<text text-anchor="middle" x="2089" y="-49.9" font-family="Helvetica,sans-Serif" font-size="12.00">AudioStream</text>
</a>
</g>
</g>
<!-- Node32&#45;&gt;Node33 -->
<g id="edge49" class="edge">
<title>Node32&#45;&gt;Node33</title>
<path fill="none" stroke="#9a32cd" stroke-dasharray="5,2" d="M1894.07,-102.93C1922.91,-99.44 1957.44,-94.28 1988,-87 2013.33,-80.97 2041.33,-71.17 2061.24,-63.63"/>
<polygon fill="#9a32cd" stroke="#9a32cd" points="1893.65,-99.46 1884.13,-104.1 1894.47,-106.41 1893.65,-99.46"/>
<text text-anchor="middle" x="1947" y="-105.4" font-family="Helvetica,sans-Serif" font-size="12.00"> destination_list</text>
</g>
<!-- Node33&#45;&gt;Node29 -->
<g id="edge52" class="edge">
<title>Node33&#45;&gt;Node29</title>
<path fill="none" stroke="#9a32cd" stroke-dasharray="5,2" d="M2142.07,-54.49C2191.02,-58.11 2264.57,-69.47 2318,-104 2345.95,-122.06 2365.88,-157.49 2374.6,-175.28"/>
<polygon fill="#9a32cd" stroke="#9a32cd" points="2142.22,-50.99 2132.01,-53.83 2141.76,-57.97 2142.22,-50.99"/>
<text text-anchor="middle" x="2254" y="-120.4" font-family="Helvetica,sans-Serif" font-size="12.00"> pAudioStreamInputPort</text>
<text text-anchor="middle" x="2254" y="-107.4" font-family="Helvetica,sans-Serif" font-size="12.00">pAudioStreamObjPool</text>
</g>
<!-- Node33&#45;&gt;Node32 -->
<g id="edge48" class="edge">
<title>Node33&#45;&gt;Node32</title>
<path fill="none" stroke="#9a32cd" stroke-dasharray="5,2" d="M2035.63,-48.16C1998.56,-46.44 1948.15,-47.59 1906,-61 1881.52,-68.79 1857.27,-86.85 1843.37,-98.46"/>
<polygon fill="#9a32cd" stroke="#9a32cd" points="2035.54,-51.66 2045.71,-48.72 2035.92,-44.67 2035.54,-51.66"/>
<text text-anchor="middle" x="1947" y="-77.4" font-family="Helvetica,sans-Serif" font-size="12.00"> pDst</text>
<text text-anchor="middle" x="1947" y="-64.4" font-family="Helvetica,sans-Serif" font-size="12.00">pSrc</text>
</g>
<!-- Node33&#45;&gt;Node33 -->
<g id="edge50" class="edge">
<title>Node33&#45;&gt;Node33</title>
<path fill="none" stroke="#9a32cd" stroke-dasharray="5,2" d="M2062.69,-73.06C2064.42,-78.16 2073.19,-82 2089,-82 2113.68,-82 2121.2,-72.65 2111.56,-63.71"/>
<polygon fill="#9a32cd" stroke="#9a32cd" points="2065.97,-74.29 2066.44,-63.71 2059.47,-71.69 2065.97,-74.29"/>
<text text-anchor="middle" x="2089" y="-98.4" font-family="Helvetica,sans-Serif" font-size="12.00"> first_update</text>
<text text-anchor="middle" x="2089" y="-85.4" font-family="Helvetica,sans-Serif" font-size="12.00">next_update</text>
</g>
<!-- Node34 -->
<g id="node32" class="node">
<title>Node34</title>
<g id="a_node32"><a xlink:href="../../de/dd6/structaudio__block__struct.html" target="_top" xlink:title=" ">
<polygon fill="white" stroke="black" points="1773,-0.5 1773,-21.5 1888,-21.5 1888,-0.5 1773,-0.5"/>
<text text-anchor="middle" x="1830.5" y="-7.9" font-family="Helvetica,sans-Serif" font-size="12.00">audio_block_struct</text>
</a>
</g>
</g>
<!-- Node34&#45;&gt;Node33 -->
<g id="edge51" class="edge">
<title>Node34&#45;&gt;Node33</title>
<path fill="none" stroke="#9a32cd" stroke-dasharray="5,2" d="M1898.24,-5.86C1926.22,-5.13 1958.93,-6.18 1988,-12 2017.25,-17.86 2048.74,-32.26 2068.41,-42.33"/>
<polygon fill="#9a32cd" stroke="#9a32cd" points="1898.04,-2.36 1888.17,-6.2 1898.28,-9.36 1898.04,-2.36"/>
<text text-anchor="middle" x="1947" y="-28.4" font-family="Helvetica,sans-Serif" font-size="12.00"> inputQueue</text>
<text text-anchor="middle" x="1947" y="-15.4" font-family="Helvetica,sans-Serif" font-size="12.00">memory_pool</text>
</g>
</g>
</svg>
