<?xml version="1.0" encoding="UTF-8" standalone="no"?>
<!DOCTYPE svg PUBLIC "-//W3C//DTD SVG 1.1//EN"
 "http://www.w3.org/Graphics/SVG/1.1/DTD/svg11.dtd">
<!-- Generated by graphviz version 2.47.3 (20210619.1520)
 -->
<!-- Title: ExFatVolume::rmdir Pages: 1 -->
<svg width="689pt" height="319pt"
 viewBox="0.00 0.00 689.00 319.22" xmlns="http://www.w3.org/2000/svg" xmlns:xlink="http://www.w3.org/1999/xlink">
<g id="graph0" class="graph" transform="scale(1 1) rotate(0) translate(4 315.22)">
<title>ExFatVolume::rmdir</title>
<polygon fill="white" stroke="transparent" points="-4,4 -4,-315.22 685,-315.22 685,4 -4,4"/>
<!-- Node1 -->
<g id="node1" class="node">
<title>Node1</title>
<g id="a_node1"><a xlink:title=" ">
<polygon fill="#bfbfbf" stroke="black" points="0,-171 0,-190 104,-190 104,-171 0,-171"/>
<text text-anchor="middle" x="52" y="-178" font-family="Helvetica,sans-Serif" font-size="10.00">ExFatVolume::rmdir</text>
</a>
</g>
</g>
<!-- Node2 -->
<g id="node2" class="node">
<title>Node2</title>
<g id="a_node2"><a xlink:href="../../d5/d14/class_ex_fat_file.html#ad0be05c5c7092317089872778052cbd7" target="_top" xlink:title=" ">
<polygon fill="white" stroke="black" points="140,-228 140,-247 226,-247 226,-228 140,-228"/>
<text text-anchor="middle" x="183" y="-235" font-family="Helvetica,sans-Serif" font-size="10.00">ExFatFile::open</text>
</a>
</g>
</g>
<!-- Node1&#45;&gt;Node2 -->
<g id="edge1" class="edge">
<title>Node1&#45;&gt;Node2</title>
<path fill="none" stroke="midnightblue" d="M74.59,-190.04C95.52,-199.29 127.48,-213.41 151.1,-223.85"/>
<polygon fill="midnightblue" stroke="midnightblue" points="149.78,-227.09 160.34,-227.93 152.61,-220.69 149.78,-227.09"/>
</g>
<!-- Node8 -->
<g id="node8" class="node">
<title>Node8</title>
<g id="a_node8"><a xlink:href="../../d5/d14/class_ex_fat_file.html#a0165e0fde12a53e419bd92cd37f9cfed" target="_top" xlink:title=" ">
<polygon fill="white" stroke="black" points="140,-114 140,-133 226,-133 226,-114 140,-114"/>
<text text-anchor="middle" x="183" y="-121" font-family="Helvetica,sans-Serif" font-size="10.00">ExFatFile::rmdir</text>
</a>
</g>
</g>
<!-- Node1&#45;&gt;Node8 -->
<g id="edge9" class="edge">
<title>Node1&#45;&gt;Node8</title>
<path fill="none" stroke="midnightblue" d="M74.59,-170.96C95.52,-161.71 127.48,-147.59 151.1,-137.15"/>
<polygon fill="midnightblue" stroke="midnightblue" points="152.61,-140.31 160.34,-133.07 149.78,-133.91 152.61,-140.31"/>
</g>
<!-- Node3 -->
<g id="node3" class="node">
<title>Node3</title>
<g id="a_node3"><a xlink:href="../../d5/d14/class_ex_fat_file.html#a7ba9e04099bdf8fd34220ebfdde72867" target="_top" xlink:title=" ">
<polygon fill="white" stroke="black" points="268.5,-266 268.5,-285 356.5,-285 356.5,-266 268.5,-266"/>
<text text-anchor="middle" x="312.5" y="-273" font-family="Helvetica,sans-Serif" font-size="10.00">ExFatFile::close</text>
</a>
</g>
</g>
<!-- Node2&#45;&gt;Node3 -->
<g id="edge2" class="edge">
<title>Node2&#45;&gt;Node3</title>
<path fill="none" stroke="midnightblue" d="M216.17,-247.09C232.33,-251.9 252.11,-257.8 269.45,-262.97"/>
<polygon fill="midnightblue" stroke="midnightblue" points="268.75,-266.41 279.34,-265.91 270.75,-259.7 268.75,-266.41"/>
</g>
<!-- Node5 -->
<g id="node5" class="node">
<title>Node5</title>
<g id="a_node5"><a xlink:href="../../d5/d14/class_ex_fat_file.html#a804c34bbe3ebefe2b6c1d77ff8d49a35" target="_top" xlink:title=" ">
<polygon fill="white" stroke="black" points="563.5,-261 563.5,-280 658.5,-280 658.5,-261 563.5,-261"/>
<text text-anchor="middle" x="611" y="-268" font-family="Helvetica,sans-Serif" font-size="10.00">ExFatFile::isOpen</text>
</a>
</g>
</g>
<!-- Node2&#45;&gt;Node5 -->
<g id="edge6" class="edge">
<title>Node2&#45;&gt;Node5</title>
<path fill="none" stroke="midnightblue" d="M192.95,-247.11C206.4,-260.76 233.3,-285.13 262,-294.5 368.83,-329.38 503.64,-301.08 569.73,-282.87"/>
<polygon fill="midnightblue" stroke="midnightblue" points="571.06,-286.13 579.74,-280.04 569.16,-279.39 571.06,-286.13"/>
</g>
<!-- Node6 -->
<g id="node6" class="node">
<title>Node6</title>
<g id="a_node6"><a xlink:href="../../d5/d14/class_ex_fat_file.html#ad0a3687bd95bed5b216651335e66b500" target="_top" xlink:title=" ">
<polygon fill="white" stroke="black" points="270.5,-190 270.5,-209 354.5,-209 354.5,-190 270.5,-190"/>
<text text-anchor="middle" x="312.5" y="-197" font-family="Helvetica,sans-Serif" font-size="10.00">ExFatFile::isDir</text>
</a>
</g>
</g>
<!-- Node2&#45;&gt;Node6 -->
<g id="edge5" class="edge">
<title>Node2&#45;&gt;Node6</title>
<path fill="none" stroke="midnightblue" d="M216.17,-227.91C232.33,-223.1 252.11,-217.2 269.45,-212.03"/>
<polygon fill="midnightblue" stroke="midnightblue" points="270.75,-215.3 279.34,-209.09 268.75,-208.59 270.75,-215.3"/>
</g>
<!-- Node7 -->
<g id="node7" class="node">
<title>Node7</title>
<g id="a_node7"><a xlink:href="../../d5/d14/class_ex_fat_file.html#af664c1da1bfa0bb5f6eb933bc25f757e" target="_top" xlink:title=" ">
<polygon fill="white" stroke="black" points="399,-228 399,-247 505,-247 505,-228 399,-228"/>
<text text-anchor="middle" x="452" y="-235" font-family="Helvetica,sans-Serif" font-size="10.00">ExFatFile::openRoot</text>
</a>
</g>
</g>
<!-- Node2&#45;&gt;Node7 -->
<g id="edge7" class="edge">
<title>Node2&#45;&gt;Node7</title>
<path fill="none" stroke="midnightblue" d="M226.01,-237.5C269.7,-237.5 338.58,-237.5 388.63,-237.5"/>
<polygon fill="midnightblue" stroke="midnightblue" points="388.69,-241 398.69,-237.5 388.69,-234 388.69,-241"/>
</g>
<!-- Node4 -->
<g id="node4" class="node">
<title>Node4</title>
<g id="a_node4"><a xlink:href="../../d5/d14/class_ex_fat_file.html#a2cb3638069afd2d01b79e5dff1a66f55" target="_top" xlink:title=" ">
<polygon fill="white" stroke="black" points="409,-266 409,-285 495,-285 495,-266 409,-266"/>
<text text-anchor="middle" x="452" y="-273" font-family="Helvetica,sans-Serif" font-size="10.00">ExFatFile::sync</text>
</a>
</g>
</g>
<!-- Node3&#45;&gt;Node4 -->
<g id="edge3" class="edge">
<title>Node3&#45;&gt;Node4</title>
<path fill="none" stroke="midnightblue" d="M356.63,-275.5C369.93,-275.5 384.73,-275.5 398.59,-275.5"/>
<polygon fill="midnightblue" stroke="midnightblue" points="398.97,-279 408.97,-275.5 398.97,-272 398.97,-279"/>
</g>
<!-- Node4&#45;&gt;Node5 -->
<g id="edge4" class="edge">
<title>Node4&#45;&gt;Node5</title>
<path fill="none" stroke="midnightblue" d="M495.07,-274.16C512.94,-273.59 534.03,-272.92 553.24,-272.31"/>
<polygon fill="midnightblue" stroke="midnightblue" points="553.5,-275.8 563.39,-271.98 553.28,-268.8 553.5,-275.8"/>
</g>
<!-- Node7&#45;&gt;Node5 -->
<g id="edge8" class="edge">
<title>Node7&#45;&gt;Node5</title>
<path fill="none" stroke="midnightblue" d="M498.41,-247.04C515.99,-250.74 536.27,-255 554.68,-258.87"/>
<polygon fill="midnightblue" stroke="midnightblue" points="554.19,-262.34 564.69,-260.98 555.62,-255.49 554.19,-262.34"/>
</g>
<!-- Node9 -->
<g id="node9" class="node">
<title>Node9</title>
<g id="a_node9"><a xlink:href="../../d5/d14/class_ex_fat_file.html#ad7e02a1db8fb5a90288bb4679e9ddcb9" target="_top" xlink:title=" ">
<polygon fill="white" stroke="black" points="262,-76 262,-95 363,-95 363,-76 262,-76"/>
<text text-anchor="middle" x="312.5" y="-83" font-family="Helvetica,sans-Serif" font-size="10.00">ExFatFile::isSubDir</text>
</a>
</g>
</g>
<!-- Node8&#45;&gt;Node9 -->
<g id="edge10" class="edge">
<title>Node8&#45;&gt;Node9</title>
<path fill="none" stroke="midnightblue" d="M216.17,-113.91C232.33,-109.1 252.11,-103.2 269.45,-98.03"/>
<polygon fill="midnightblue" stroke="midnightblue" points="270.75,-101.3 279.34,-95.09 268.75,-94.59 270.75,-101.3"/>
</g>
<!-- Node10 -->
<g id="node10" class="node">
<title>Node10</title>
<g id="a_node10"><a xlink:href="../../d5/d14/class_ex_fat_file.html#a77f4fea0aae0c8bae926fdfbba260a55" target="_top" xlink:title=" ">
<polygon fill="white" stroke="black" points="271,-38 271,-57 354,-57 354,-38 271,-38"/>
<text text-anchor="middle" x="312.5" y="-45" font-family="Helvetica,sans-Serif" font-size="10.00">ExFatFile::read</text>
</a>
</g>
</g>
<!-- Node8&#45;&gt;Node10 -->
<g id="edge11" class="edge">
<title>Node8&#45;&gt;Node10</title>
<path fill="none" stroke="midnightblue" d="M194.99,-114C209.55,-101.78 236.37,-80.46 262,-66.5 265.54,-64.57 269.31,-62.75 273.14,-61.05"/>
<polygon fill="midnightblue" stroke="midnightblue" points="274.76,-64.17 282.65,-57.1 272.07,-57.7 274.76,-64.17"/>
</g>
<!-- Node11 -->
<g id="node11" class="node">
<title>Node11</title>
<g id="a_node11"><a xlink:href="../../d5/d14/class_ex_fat_file.html#a8e88c8e79551a72cc98310038514c47a" target="_top" xlink:title=" ">
<polygon fill="white" stroke="black" points="404.5,-171 404.5,-190 499.5,-190 499.5,-171 404.5,-171"/>
<text text-anchor="middle" x="452" y="-178" font-family="Helvetica,sans-Serif" font-size="10.00">ExFatFile::remove</text>
</a>
</g>
</g>
<!-- Node8&#45;&gt;Node11 -->
<g id="edge12" class="edge">
<title>Node8&#45;&gt;Node11</title>
<path fill="none" stroke="midnightblue" d="M222.01,-133.09C234.7,-136.2 248.94,-139.6 262,-142.5 306.2,-152.32 356.46,-162.38 394.04,-169.67"/>
<polygon fill="midnightblue" stroke="midnightblue" points="393.8,-173.19 404.29,-171.65 395.13,-166.32 393.8,-173.19"/>
</g>
<!-- Node15 -->
<g id="node15" class="node">
<title>Node15</title>
<g id="a_node15"><a xlink:href="../../d5/d14/class_ex_fat_file.html#a3c1d3ef65284ffb13ed3ceee472adf9a" target="_top" xlink:title=" ">
<polygon fill="white" stroke="black" points="266.5,-114 266.5,-133 358.5,-133 358.5,-114 266.5,-114"/>
<text text-anchor="middle" x="312.5" y="-121" font-family="Helvetica,sans-Serif" font-size="10.00">ExFatFile::rewind</text>
</a>
</g>
</g>
<!-- Node8&#45;&gt;Node15 -->
<g id="edge16" class="edge">
<title>Node8&#45;&gt;Node15</title>
<path fill="none" stroke="midnightblue" d="M226.1,-123.5C235.79,-123.5 246.22,-123.5 256.37,-123.5"/>
<polygon fill="midnightblue" stroke="midnightblue" points="256.37,-127 266.37,-123.5 256.37,-120 256.37,-127"/>
</g>
<!-- Node12 -->
<g id="node12" class="node">
<title>Node12</title>
<g id="a_node12"><a xlink:href="../../d4/de9/class_ex_fat_partition.html#a64825a52f754bdcb02c8632f5fd15373" target="_top" xlink:title=" ">
<polygon fill="white" stroke="black" points="549,-126.5 549,-156.5 673,-156.5 673,-126.5 549,-126.5"/>
<text text-anchor="start" x="557" y="-144.5" font-family="Helvetica,sans-Serif" font-size="10.00">ExFatPartition::bytesPer</text>
<text text-anchor="middle" x="611" y="-133.5" font-family="Helvetica,sans-Serif" font-size="10.00">ClusterShift</text>
</a>
</g>
</g>
<!-- Node11&#45;&gt;Node12 -->
<g id="edge13" class="edge">
<title>Node11&#45;&gt;Node12</title>
<path fill="none" stroke="midnightblue" d="M491.41,-170.96C505.84,-167.37 522.75,-163.17 539.2,-159.09"/>
<polygon fill="midnightblue" stroke="midnightblue" points="540.49,-162.37 549.36,-156.56 538.81,-155.58 540.49,-162.37"/>
</g>
<!-- Node13 -->
<g id="node13" class="node">
<title>Node13</title>
<g id="a_node13"><a xlink:href="../../d5/d14/class_ex_fat_file.html#a7a167102bd47b7cf91167b69f8cc57d1" target="_top" xlink:title=" ">
<polygon fill="white" stroke="black" points="550.5,-176 550.5,-195 671.5,-195 671.5,-176 550.5,-176"/>
<text text-anchor="middle" x="611" y="-183" font-family="Helvetica,sans-Serif" font-size="10.00">ExFatFile::isContiguous</text>
</a>
</g>
</g>
<!-- Node11&#45;&gt;Node13 -->
<g id="edge14" class="edge">
<title>Node11&#45;&gt;Node13</title>
<path fill="none" stroke="midnightblue" d="M499.68,-181.99C512.36,-182.39 526.37,-182.84 540.03,-183.27"/>
<polygon fill="midnightblue" stroke="midnightblue" points="540.27,-186.78 550.38,-183.6 540.5,-179.78 540.27,-186.78"/>
</g>
<!-- Node14 -->
<g id="node14" class="node">
<title>Node14</title>
<g id="a_node14"><a xlink:href="../../d5/d14/class_ex_fat_file.html#a04d1c43e80743f8c1a51b64062ce16dd" target="_top" xlink:title=" ">
<polygon fill="white" stroke="black" points="557,-214 557,-233 665,-233 665,-214 557,-214"/>
<text text-anchor="middle" x="611" y="-221" font-family="Helvetica,sans-Serif" font-size="10.00">ExFatFile::isWritable</text>
</a>
</g>
</g>
<!-- Node11&#45;&gt;Node14 -->
<g id="edge15" class="edge">
<title>Node11&#45;&gt;Node14</title>
<path fill="none" stroke="midnightblue" d="M487.84,-190.04C510.71,-196.31 540.82,-204.55 565.43,-211.29"/>
<polygon fill="midnightblue" stroke="midnightblue" points="564.68,-214.72 575.25,-213.98 566.53,-207.97 564.68,-214.72"/>
</g>
<!-- Node16 -->
<g id="node16" class="node">
<title>Node16</title>
<g id="a_node16"><a xlink:href="../../d5/d14/class_ex_fat_file.html#a9834c4da2f14c66f4bda26938ebb36f6" target="_top" xlink:title=" ">
<polygon fill="white" stroke="black" points="401.5,-114 401.5,-133 502.5,-133 502.5,-114 401.5,-114"/>
<text text-anchor="middle" x="452" y="-121" font-family="Helvetica,sans-Serif" font-size="10.00">ExFatFile::seekSet</text>
</a>
</g>
</g>
<!-- Node15&#45;&gt;Node16 -->
<g id="edge17" class="edge">
<title>Node15&#45;&gt;Node16</title>
<path fill="none" stroke="midnightblue" d="M358.52,-123.5C368.85,-123.5 379.99,-123.5 390.84,-123.5"/>
<polygon fill="midnightblue" stroke="midnightblue" points="391.12,-127 401.12,-123.5 391.12,-120 391.12,-127"/>
</g>
<!-- Node16&#45;&gt;Node5 -->
<g id="edge21" class="edge">
<title>Node16&#45;&gt;Node5</title>
<path fill="none" stroke="midnightblue" d="M470.76,-133.22C481.78,-139.97 495.59,-149.84 505,-161.5 529.74,-192.16 512.69,-215.1 541,-242.5 547.14,-248.45 554.72,-253.19 562.57,-256.95"/>
<polygon fill="midnightblue" stroke="midnightblue" points="561.28,-260.21 571.85,-260.93 564.04,-253.77 561.28,-260.21"/>
</g>
<!-- Node16&#45;&gt;Node12 -->
<g id="edge18" class="edge">
<title>Node16&#45;&gt;Node12</title>
<path fill="none" stroke="midnightblue" d="M502.68,-129.2C514.12,-130.51 526.5,-131.93 538.66,-133.32"/>
<polygon fill="midnightblue" stroke="midnightblue" points="538.46,-136.82 548.79,-134.48 539.26,-129.87 538.46,-136.82"/>
</g>
<!-- Node16&#45;&gt;Node13 -->
<g id="edge19" class="edge">
<title>Node16&#45;&gt;Node13</title>
<path fill="none" stroke="midnightblue" d="M470.11,-133.04C487.54,-142.48 515.55,-156.87 541,-166.5 547.32,-168.89 554.08,-171.13 560.79,-173.16"/>
<polygon fill="midnightblue" stroke="midnightblue" points="559.97,-176.57 570.55,-175.99 561.92,-169.84 559.97,-176.57"/>
</g>
<!-- Node17 -->
<g id="node17" class="node">
<title>Node17</title>
<g id="a_node17"><a xlink:href="../../d5/d14/class_ex_fat_file.html#af601285f95db8398c140b3927cf9111c" target="_top" xlink:title=" ">
<polygon fill="white" stroke="black" points="567,-88 567,-107 655,-107 655,-88 567,-88"/>
<text text-anchor="middle" x="611" y="-95" font-family="Helvetica,sans-Serif" font-size="10.00">ExFatFile::isFile</text>
</a>
</g>
</g>
<!-- Node16&#45;&gt;Node17 -->
<g id="edge20" class="edge">
<title>Node16&#45;&gt;Node17</title>
<path fill="none" stroke="midnightblue" d="M502.68,-115.27C519.95,-112.41 539.38,-109.19 556.92,-106.29"/>
<polygon fill="midnightblue" stroke="midnightblue" points="557.7,-109.71 567,-104.62 556.56,-102.8 557.7,-109.71"/>
</g>
<!-- Node18 -->
<g id="node18" class="node">
<title>Node18</title>
<g id="a_node18"><a xlink:href="../../d5/d14/class_ex_fat_file.html#ad9f8e7afcf749ebcaaf055bd569dc7da" target="_top" xlink:title=" ">
<polygon fill="white" stroke="black" points="565,-50 565,-69 657,-69 657,-50 565,-50"/>
<text text-anchor="middle" x="611" y="-57" font-family="Helvetica,sans-Serif" font-size="10.00">ExFatFile::isRoot</text>
</a>
</g>
</g>
<!-- Node16&#45;&gt;Node18 -->
<g id="edge22" class="edge">
<title>Node16&#45;&gt;Node18</title>
<path fill="none" stroke="midnightblue" d="M469.4,-113.83C486.73,-103.92 515.09,-88.57 541,-78.5 547,-76.17 553.41,-74 559.8,-72.03"/>
<polygon fill="midnightblue" stroke="midnightblue" points="561.17,-75.27 569.78,-69.09 559.2,-68.55 561.17,-75.27"/>
</g>
<!-- Node19 -->
<g id="node19" class="node">
<title>Node19</title>
<g id="a_node19"><a xlink:href="../../d4/de9/class_ex_fat_partition.html#a658c250984be29febf8f4d2a2ec312a1" target="_top" xlink:title=" ">
<polygon fill="white" stroke="black" points="541,-0.5 541,-30.5 681,-30.5 681,-0.5 541,-0.5"/>
<text text-anchor="start" x="549" y="-18.5" font-family="Helvetica,sans-Serif" font-size="10.00">ExFatPartition::rootDirectory</text>
<text text-anchor="middle" x="611" y="-7.5" font-family="Helvetica,sans-Serif" font-size="10.00">Cluster</text>
</a>
</g>
</g>
<!-- Node16&#45;&gt;Node19 -->
<g id="edge23" class="edge">
<title>Node16&#45;&gt;Node19</title>
<path fill="none" stroke="midnightblue" d="M460.76,-113.97C475.01,-97.01 507.02,-61.42 541,-40.5 544.32,-38.45 547.84,-36.54 551.45,-34.76"/>
<polygon fill="midnightblue" stroke="midnightblue" points="552.94,-37.92 560.59,-30.58 550.04,-31.55 552.94,-37.92"/>
</g>
</g>
</svg>
