<?xml version="1.0" encoding="UTF-8" standalone="no"?>
<!DOCTYPE svg PUBLIC "-//W3C//DTD SVG 1.1//EN"
 "http://www.w3.org/Graphics/SVG/1.1/DTD/svg11.dtd">
<!-- Generated by graphviz version 2.47.3 (20210619.1520)
 -->
<!-- Title: ExFatVolume::open Pages: 1 -->
<svg width="769pt" height="123pt"
 viewBox="0.00 0.00 769.00 123.00" xmlns="http://www.w3.org/2000/svg" xmlns:xlink="http://www.w3.org/1999/xlink">
<g id="graph0" class="graph" transform="scale(1 1) rotate(0) translate(4 119)">
<title>ExFatVolume::open</title>
<polygon fill="white" stroke="transparent" points="-4,4 -4,-119 765,-119 765,4 -4,4"/>
<!-- Node1 -->
<g id="node1" class="node">
<title>Node1</title>
<g id="a_node1"><a xlink:title=" ">
<polygon fill="#bfbfbf" stroke="black" points="0,-38.5 0,-57.5 103,-57.5 103,-38.5 0,-38.5"/>
<text text-anchor="middle" x="51.5" y="-45.5" font-family="Helvetica,sans-Serif" font-size="10.00">ExFatVolume::open</text>
</a>
</g>
</g>
<!-- Node2 -->
<g id="node2" class="node">
<title>Node2</title>
<g id="a_node2"><a xlink:href="../../da/d35/class_ex_fat_volume.html#a9686979b368d287b5bdde9f8824609f9" target="_top" xlink:title=" ">
<polygon fill="white" stroke="black" points="139,-38.5 139,-57.5 242,-57.5 242,-38.5 139,-38.5"/>
<text text-anchor="middle" x="190.5" y="-45.5" font-family="Helvetica,sans-Serif" font-size="10.00">ExFatVolume::open</text>
</a>
</g>
</g>
<!-- Node1&#45;&gt;Node2 -->
<g id="edge1" class="edge">
<title>Node1&#45;&gt;Node2</title>
<path fill="none" stroke="midnightblue" d="M103.12,-48C111.36,-48 119.97,-48 128.42,-48"/>
<polygon fill="midnightblue" stroke="midnightblue" points="128.63,-51.5 138.63,-48 128.63,-44.5 128.63,-51.5"/>
</g>
<!-- Node3 -->
<g id="node3" class="node">
<title>Node3</title>
<g id="a_node3"><a xlink:href="../../d5/d14/class_ex_fat_file.html#ad0be05c5c7092317089872778052cbd7" target="_top" xlink:title=" ">
<polygon fill="white" stroke="black" points="278,-38.5 278,-57.5 364,-57.5 364,-38.5 278,-38.5"/>
<text text-anchor="middle" x="321" y="-45.5" font-family="Helvetica,sans-Serif" font-size="10.00">ExFatFile::open</text>
</a>
</g>
</g>
<!-- Node2&#45;&gt;Node3 -->
<g id="edge2" class="edge">
<title>Node2&#45;&gt;Node3</title>
<path fill="none" stroke="midnightblue" d="M242.29,-48C250.67,-48 259.36,-48 267.78,-48"/>
<polygon fill="midnightblue" stroke="midnightblue" points="267.86,-51.5 277.86,-48 267.86,-44.5 267.86,-51.5"/>
</g>
<!-- Node4 -->
<g id="node4" class="node">
<title>Node4</title>
<g id="a_node4"><a xlink:href="../../d5/d14/class_ex_fat_file.html#a7ba9e04099bdf8fd34220ebfdde72867" target="_top" xlink:title=" ">
<polygon fill="white" stroke="black" points="400,-95.5 400,-114.5 488,-114.5 488,-95.5 400,-95.5"/>
<text text-anchor="middle" x="444" y="-102.5" font-family="Helvetica,sans-Serif" font-size="10.00">ExFatFile::close</text>
</a>
</g>
</g>
<!-- Node3&#45;&gt;Node4 -->
<g id="edge3" class="edge">
<title>Node3&#45;&gt;Node4</title>
<path fill="none" stroke="midnightblue" d="M342.25,-57.54C361.71,-66.71 391.33,-80.66 413.42,-91.07"/>
<polygon fill="midnightblue" stroke="midnightblue" points="412.14,-94.33 422.68,-95.43 415.13,-88 412.14,-94.33"/>
</g>
<!-- Node6 -->
<g id="node6" class="node">
<title>Node6</title>
<g id="a_node6"><a xlink:href="../../d5/d14/class_ex_fat_file.html#a804c34bbe3ebefe2b6c1d77ff8d49a35" target="_top" xlink:title=" ">
<polygon fill="white" stroke="black" points="666,-57.5 666,-76.5 761,-76.5 761,-57.5 666,-57.5"/>
<text text-anchor="middle" x="713.5" y="-64.5" font-family="Helvetica,sans-Serif" font-size="10.00">ExFatFile::isOpen</text>
</a>
</g>
</g>
<!-- Node3&#45;&gt;Node6 -->
<g id="edge7" class="edge">
<title>Node3&#45;&gt;Node6</title>
<path fill="none" stroke="midnightblue" d="M364.16,-50.05C434.66,-53.48 576.5,-60.38 655.71,-64.24"/>
<polygon fill="midnightblue" stroke="midnightblue" points="655.83,-67.75 665.99,-64.74 656.17,-60.76 655.83,-67.75"/>
</g>
<!-- Node7 -->
<g id="node7" class="node">
<title>Node7</title>
<g id="a_node7"><a xlink:href="../../d5/d14/class_ex_fat_file.html#ad0a3687bd95bed5b216651335e66b500" target="_top" xlink:title=" ">
<polygon fill="white" stroke="black" points="402,-19.5 402,-38.5 486,-38.5 486,-19.5 402,-19.5"/>
<text text-anchor="middle" x="444" y="-26.5" font-family="Helvetica,sans-Serif" font-size="10.00">ExFatFile::isDir</text>
</a>
</g>
</g>
<!-- Node3&#45;&gt;Node7 -->
<g id="edge6" class="edge">
<title>Node3&#45;&gt;Node7</title>
<path fill="none" stroke="midnightblue" d="M364.32,-41.35C373.13,-39.97 382.51,-38.5 391.61,-37.07"/>
<polygon fill="midnightblue" stroke="midnightblue" points="392.39,-40.49 401.72,-35.48 391.3,-33.58 392.39,-40.49"/>
</g>
<!-- Node8 -->
<g id="node8" class="node">
<title>Node8</title>
<g id="a_node8"><a xlink:href="../../d5/d14/class_ex_fat_file.html#af664c1da1bfa0bb5f6eb933bc25f757e" target="_top" xlink:title=" ">
<polygon fill="white" stroke="black" points="524,-0.5 524,-19.5 630,-19.5 630,-0.5 524,-0.5"/>
<text text-anchor="middle" x="577" y="-7.5" font-family="Helvetica,sans-Serif" font-size="10.00">ExFatFile::openRoot</text>
</a>
</g>
</g>
<!-- Node3&#45;&gt;Node8 -->
<g id="edge8" class="edge">
<title>Node3&#45;&gt;Node8</title>
<path fill="none" stroke="midnightblue" d="M336.49,-38.44C351.61,-29.07 376.37,-15.45 400,-10 436.97,-1.47 479.47,-1.22 513.45,-3.22"/>
<polygon fill="midnightblue" stroke="midnightblue" points="513.5,-6.73 523.71,-3.9 513.96,0.26 513.5,-6.73"/>
</g>
<!-- Node5 -->
<g id="node5" class="node">
<title>Node5</title>
<g id="a_node5"><a xlink:href="../../d5/d14/class_ex_fat_file.html#a2cb3638069afd2d01b79e5dff1a66f55" target="_top" xlink:title=" ">
<polygon fill="white" stroke="black" points="534,-95.5 534,-114.5 620,-114.5 620,-95.5 534,-95.5"/>
<text text-anchor="middle" x="577" y="-102.5" font-family="Helvetica,sans-Serif" font-size="10.00">ExFatFile::sync</text>
</a>
</g>
</g>
<!-- Node4&#45;&gt;Node5 -->
<g id="edge4" class="edge">
<title>Node4&#45;&gt;Node5</title>
<path fill="none" stroke="midnightblue" d="M488.26,-105C499.56,-105 511.85,-105 523.57,-105"/>
<polygon fill="midnightblue" stroke="midnightblue" points="523.68,-108.5 533.68,-105 523.68,-101.5 523.68,-108.5"/>
</g>
<!-- Node5&#45;&gt;Node6 -->
<g id="edge5" class="edge">
<title>Node5&#45;&gt;Node6</title>
<path fill="none" stroke="midnightblue" d="M611.94,-95.41C629.22,-90.53 650.43,-84.54 668.91,-79.32"/>
<polygon fill="midnightblue" stroke="midnightblue" points="669.9,-82.67 678.57,-76.59 668,-75.94 669.9,-82.67"/>
</g>
<!-- Node8&#45;&gt;Node6 -->
<g id="edge9" class="edge">
<title>Node8&#45;&gt;Node6</title>
<path fill="none" stroke="midnightblue" d="M600.51,-19.54C622.43,-28.83 655.95,-43.04 680.61,-53.49"/>
<polygon fill="midnightblue" stroke="midnightblue" points="679.34,-56.75 689.91,-57.43 682.07,-50.3 679.34,-56.75"/>
</g>
</g>
</svg>
