<?xml version="1.0" encoding="UTF-8" standalone="no"?>
<!DOCTYPE svg PUBLIC "-//W3C//DTD SVG 1.1//EN"
 "http://www.w3.org/Graphics/SVG/1.1/DTD/svg11.dtd">
<!-- Generated by graphviz version 2.47.3 (20210619.1520)
 -->
<!-- Title: DedicatedSpiCard::readSectors Pages: 1 -->
<svg width="1372pt" height="397pt"
 viewBox="0.00 0.00 1372.00 397.40" xmlns="http://www.w3.org/2000/svg" xmlns:xlink="http://www.w3.org/1999/xlink">
<g id="graph0" class="graph" transform="scale(1 1) rotate(0) translate(4 393.4)">
<title>DedicatedSpiCard::readSectors</title>
<polygon fill="white" stroke="transparent" points="-4,4 -4,-393.4 1368,-393.4 1368,4 -4,4"/>
<!-- Node1 -->
<g id="node1" class="node">
<title>Node1</title>
<g id="a_node1"><a xlink:title=" ">
<polygon fill="#bfbfbf" stroke="black" points="0,-77.5 0,-98.5 186,-98.5 186,-77.5 0,-77.5"/>
<text text-anchor="middle" x="93" y="-84.9" font-family="Helvetica,sans-Serif" font-size="12.00">DedicatedSpiCard::readSectors</text>
</a>
</g>
</g>
<!-- Node2 -->
<g id="node2" class="node">
<title>Node2</title>
<g id="a_node2"><a xlink:href="../../d5/d4b/class_shared_spi_card.html#abeae3cdc162f24c2d450abe4e1ed8340" target="_top" xlink:title=" ">
<polygon fill="white" stroke="black" points="222,-156.5 222,-177.5 377,-177.5 377,-156.5 222,-156.5"/>
<text text-anchor="middle" x="299.5" y="-163.9" font-family="Helvetica,sans-Serif" font-size="12.00">SharedSpiCard::readData</text>
</a>
</g>
</g>
<!-- Node1&#45;&gt;Node2 -->
<g id="edge1" class="edge">
<title>Node1&#45;&gt;Node2</title>
<path fill="none" stroke="midnightblue" d="M113.93,-98.53C138.73,-111.31 182.61,-132.9 222,-147 228.75,-149.42 235.94,-151.68 243.09,-153.75"/>
<polygon fill="midnightblue" stroke="midnightblue" points="242.22,-157.14 252.79,-156.46 244.1,-150.4 242.22,-157.14"/>
</g>
<!-- Node3 -->
<g id="node3" class="node">
<title>Node3</title>
<g id="a_node3"><a xlink:href="../../d5/d4b/class_shared_spi_card.html#a0b1805d2eb0cd18141e8e180a967b816" target="_top" xlink:title=" ">
<polygon fill="white" stroke="black" points="222.5,-116.5 222.5,-137.5 376.5,-137.5 376.5,-116.5 222.5,-116.5"/>
<text text-anchor="middle" x="299.5" y="-123.9" font-family="Helvetica,sans-Serif" font-size="12.00">SharedSpiCard::readStart</text>
</a>
</g>
</g>
<!-- Node1&#45;&gt;Node3 -->
<g id="edge2" class="edge">
<title>Node1&#45;&gt;Node3</title>
<path fill="none" stroke="midnightblue" d="M149.07,-98.5C174.98,-103.44 206.07,-109.37 233.16,-114.54"/>
<polygon fill="midnightblue" stroke="midnightblue" points="232.85,-118.04 243.33,-116.48 234.16,-111.17 232.85,-118.04"/>
</g>
<!-- Node15 -->
<g id="node9" class="node">
<title>Node15</title>
<g id="a_node9"><a xlink:href="../../d5/d4b/class_shared_spi_card.html#ab33ad2aefbb9cff905cad0879dffc78b" target="_top" xlink:title=" ">
<polygon fill="white" stroke="black" points="838,-116.5 838,-137.5 992,-137.5 992,-116.5 838,-116.5"/>
<text text-anchor="middle" x="915" y="-123.9" font-family="Helvetica,sans-Serif" font-size="12.00">SharedSpiCard::readStop</text>
</a>
</g>
</g>
<!-- Node1&#45;&gt;Node15 -->
<g id="edge19" class="edge">
<title>Node1&#45;&gt;Node15</title>
<path fill="none" stroke="midnightblue" d="M186.1,-86.33C320.67,-84.82 578.75,-85.51 797,-107 814.91,-108.76 834.23,-111.65 851.9,-114.69"/>
<polygon fill="midnightblue" stroke="midnightblue" points="851.63,-118.2 862.09,-116.49 852.85,-111.31 851.63,-118.2"/>
</g>
<!-- Node24 -->
<g id="node14" class="node">
<title>Node24</title>
<g id="a_node14"><a xlink:href="../../d5/d4b/class_shared_spi_card.html#a3f089160d2ea9662c8c1f7a67f700ea1" target="_top" xlink:title=" ">
<polygon fill="white" stroke="black" points="226.5,-0.5 226.5,-21.5 372.5,-21.5 372.5,-0.5 226.5,-0.5"/>
<text text-anchor="middle" x="299.5" y="-7.9" font-family="Helvetica,sans-Serif" font-size="12.00">SharedSpiCard::sdState</text>
</a>
</g>
</g>
<!-- Node1&#45;&gt;Node24 -->
<g id="edge20" class="edge">
<title>Node1&#45;&gt;Node24</title>
<path fill="none" stroke="midnightblue" d="M118.82,-77.32C144.46,-66.42 185.74,-49.27 222,-36 232.55,-32.14 244.02,-28.24 254.78,-24.7"/>
<polygon fill="midnightblue" stroke="midnightblue" points="256,-27.99 264.43,-21.57 253.84,-21.33 256,-27.99"/>
</g>
<!-- Node4 -->
<g id="node4" class="node">
<title>Node4</title>
<g id="a_node4"><a xlink:href="../../d5/d4b/class_shared_spi_card.html#adda33199753fc2aec74fe317cbaabc06" target="_top" xlink:title=" ">
<polygon fill="white" stroke="black" points="413,-213.5 413,-234.5 596,-234.5 596,-213.5 413,-213.5"/>
<text text-anchor="middle" x="504.5" y="-220.9" font-family="Helvetica,sans-Serif" font-size="12.00">SharedSpiCard::cardCommand</text>
</a>
</g>
</g>
<!-- Node3&#45;&gt;Node4 -->
<g id="edge3" class="edge">
<title>Node3&#45;&gt;Node4</title>
<path fill="none" stroke="midnightblue" d="M354.45,-137.55C362.26,-140.08 370.01,-143.19 377,-147 396.06,-157.38 395.05,-167.79 413,-180 429.79,-191.42 449.98,-201.53 467.03,-209.18"/>
<polygon fill="midnightblue" stroke="midnightblue" points="466.09,-212.59 476.65,-213.39 468.89,-206.17 466.09,-212.59"/>
</g>
<!-- Node16 -->
<g id="node10" class="node">
<title>Node16</title>
<g id="a_node10"><a xlink:href="../../d5/d4b/class_shared_spi_card.html#a747c3f0b962098cf0c097f3c4c2b4fd4" target="_top" xlink:title=" ">
<polygon fill="white" stroke="black" points="1041,-96.5 1041,-117.5 1171,-117.5 1171,-96.5 1041,-96.5"/>
<text text-anchor="middle" x="1106" y="-103.9" font-family="Helvetica,sans-Serif" font-size="12.00">SharedSpiCard::error</text>
</a>
</g>
</g>
<!-- Node3&#45;&gt;Node16 -->
<g id="edge16" class="edge">
<title>Node3&#45;&gt;Node16</title>
<path fill="none" stroke="midnightblue" d="M376.81,-121.09C443.96,-116.2 544.4,-109.64 632,-107 772.82,-102.76 937.34,-104.2 1030.54,-105.61"/>
<polygon fill="midnightblue" stroke="midnightblue" points="1030.66,-109.12 1040.72,-105.77 1030.77,-102.12 1030.66,-109.12"/>
</g>
<!-- Node17 -->
<g id="node11" class="node">
<title>Node17</title>
<g id="a_node11"><a xlink:href="../../d5/d4b/class_shared_spi_card.html#a0f511c39c50055a4fc97e720933aee3a" target="_top" xlink:title=" ">
<polygon fill="white" stroke="red" points="1033,-155.5 1033,-176.5 1179,-176.5 1179,-155.5 1033,-155.5"/>
<text text-anchor="middle" x="1106" y="-162.9" font-family="Helvetica,sans-Serif" font-size="12.00">SharedSpiCard::spiStop</text>
</a>
</g>
</g>
<!-- Node3&#45;&gt;Node17 -->
<g id="edge17" class="edge">
<title>Node3&#45;&gt;Node17</title>
<path fill="none" stroke="midnightblue" d="M376.51,-132.02C443.69,-136.36 544.33,-142.59 632,-147 769.01,-153.88 928.44,-159.87 1022.81,-163.2"/>
<polygon fill="midnightblue" stroke="midnightblue" points="1022.74,-166.7 1032.86,-163.55 1022.99,-159.7 1022.74,-166.7"/>
</g>
<!-- Node23 -->
<g id="node13" class="node">
<title>Node23</title>
<g id="a_node13"><a xlink:href="../../d5/d4b/class_shared_spi_card.html#a7dac2190763d7b4b72163ed7131e8a87" target="_top" xlink:title=" ">
<polygon fill="white" stroke="black" points="441,-253.5 441,-274.5 568,-274.5 568,-253.5 441,-253.5"/>
<text text-anchor="middle" x="504.5" y="-260.9" font-family="Helvetica,sans-Serif" font-size="12.00">SharedSpiCard::type</text>
</a>
</g>
</g>
<!-- Node3&#45;&gt;Node23 -->
<g id="edge18" class="edge">
<title>Node3&#45;&gt;Node23</title>
<path fill="none" stroke="midnightblue" d="M362.91,-137.63C368.03,-140.14 372.83,-143.22 377,-147 411.1,-177.86 378.32,-213.8 413,-244 418.3,-248.61 424.42,-252.24 430.94,-255.07"/>
<polygon fill="midnightblue" stroke="midnightblue" points="430.12,-258.5 440.71,-258.68 432.55,-251.93 430.12,-258.5"/>
</g>
<!-- Node5 -->
<g id="node5" class="node">
<title>Node5</title>
<g id="a_node5"><a xlink:href="../../d5/d4b/class_shared_spi_card.html#a08363209d938db87521cca6a84146041" target="_top" xlink:title=" ">
<polygon fill="white" stroke="red" points="833,-250.5 833,-271.5 997,-271.5 997,-250.5 833,-250.5"/>
<text text-anchor="middle" x="915" y="-257.9" font-family="Helvetica,sans-Serif" font-size="12.00">SharedSpiCard::spiReceive</text>
</a>
</g>
</g>
<!-- Node4&#45;&gt;Node5 -->
<g id="edge4" class="edge">
<title>Node4&#45;&gt;Node5</title>
<path fill="none" stroke="midnightblue" d="M564.1,-234.54C574.86,-237.15 585.88,-240.29 596,-244 612.99,-250.23 614.44,-258.65 632,-263 703.18,-280.63 723.67,-263.63 797,-263 805.32,-262.93 813.98,-262.83 822.65,-262.71"/>
<polygon fill="midnightblue" stroke="midnightblue" points="822.86,-266.21 832.81,-262.57 822.76,-259.21 822.86,-266.21"/>
</g>
<!-- Node7 -->
<g id="node6" class="node">
<title>Node7</title>
<g id="a_node6"><a xlink:href="../../d5/d4b/class_shared_spi_card.html#ab311b9ad8a250f06afbe091f7abb118b" target="_top" xlink:title=" ">
<polygon fill="white" stroke="red" points="1215,-308.5 1215,-329.5 1364,-329.5 1364,-308.5 1215,-308.5"/>
<text text-anchor="middle" x="1289.5" y="-315.9" font-family="Helvetica,sans-Serif" font-size="12.00">SharedSpiCard::spiSend</text>
</a>
</g>
</g>
<!-- Node4&#45;&gt;Node7 -->
<g id="edge5" class="edge">
<title>Node4&#45;&gt;Node7</title>
<path fill="none" stroke="midnightblue" d="M579.6,-234.52C585.45,-237.07 591.02,-240.18 596,-244 623.46,-265.04 603.63,-293.21 632,-313 826.43,-448.68 1138.32,-367.83 1248.43,-332.75"/>
<polygon fill="midnightblue" stroke="midnightblue" points="1249.71,-336.02 1258.14,-329.61 1247.55,-329.36 1249.71,-336.02"/>
</g>
<!-- Node9 -->
<g id="node7" class="node">
<title>Node9</title>
<g id="a_node7"><a xlink:href="../../d5/d4b/class_shared_spi_card.html#aef2dfa72e8d5643c90720f9f8c6a4254" target="_top" xlink:title=" ">
<polygon fill="white" stroke="red" points="842,-308.5 842,-329.5 988,-329.5 988,-308.5 842,-308.5"/>
<text text-anchor="middle" x="915" y="-315.9" font-family="Helvetica,sans-Serif" font-size="12.00">SharedSpiCard::spiStart</text>
</a>
</g>
</g>
<!-- Node4&#45;&gt;Node9 -->
<g id="edge6" class="edge">
<title>Node4&#45;&gt;Node9</title>
<path fill="none" stroke="midnightblue" d="M573.76,-234.65C581.5,-237.14 589.09,-240.21 596,-244 615.84,-254.88 611.74,-269.93 632,-280 694.21,-310.93 773.12,-319.65 831.64,-321.23"/>
<polygon fill="midnightblue" stroke="midnightblue" points="831.88,-324.73 841.95,-321.44 832.02,-317.74 831.88,-324.73"/>
</g>
<!-- Node14 -->
<g id="node8" class="node">
<title>Node14</title>
<g id="a_node8"><a xlink:href="../../d5/d4b/class_shared_spi_card.html#a2f181b3d6f27413a0f5ee883dfd94d87" target="_top" xlink:title=" ">
<polygon fill="white" stroke="red" points="632,-116.5 632,-137.5 797,-137.5 797,-116.5 632,-116.5"/>
<text text-anchor="middle" x="714.5" y="-123.9" font-family="Helvetica,sans-Serif" font-size="12.00">SharedSpiCard::syncDevice</text>
</a>
</g>
</g>
<!-- Node4&#45;&gt;Node14 -->
<g id="edge8" class="edge">
<title>Node4&#45;&gt;Node14</title>
<path fill="none" stroke="midnightblue" d="M528.16,-213.43C565.27,-196.12 639.15,-161.67 681.57,-141.89"/>
<polygon fill="midnightblue" stroke="midnightblue" points="683.29,-144.95 690.87,-137.55 680.33,-138.61 683.29,-144.95"/>
</g>
<!-- Node22 -->
<g id="node12" class="node">
<title>Node22</title>
<g id="a_node12"><a xlink:href="../../d5/d4b/class_shared_spi_card.html#ab3468397bb3b12d29dd2f31e45b3dcaf" target="_top" xlink:title=" ">
<polygon fill="white" stroke="black" points="634.5,-232.5 634.5,-253.5 794.5,-253.5 794.5,-232.5 634.5,-232.5"/>
<text text-anchor="middle" x="714.5" y="-239.9" font-family="Helvetica,sans-Serif" font-size="12.00">SharedSpiCard::waitReady</text>
</a>
</g>
</g>
<!-- Node4&#45;&gt;Node22 -->
<g id="edge14" class="edge">
<title>Node4&#45;&gt;Node22</title>
<path fill="none" stroke="midnightblue" d="M596.13,-232.28C605.45,-233.13 614.92,-234 624.24,-234.85"/>
<polygon fill="midnightblue" stroke="midnightblue" points="623.98,-238.34 634.26,-235.76 624.62,-231.37 623.98,-238.34"/>
</g>
<!-- Node9&#45;&gt;Node7 -->
<g id="edge7" class="edge">
<title>Node9&#45;&gt;Node7</title>
<path fill="none" stroke="midnightblue" d="M988.26,-319C1050.22,-319 1139.52,-319 1204.61,-319"/>
<polygon fill="midnightblue" stroke="midnightblue" points="1204.85,-322.5 1214.85,-319 1204.85,-315.5 1204.85,-322.5"/>
</g>
<!-- Node14&#45;&gt;Node15 -->
<g id="edge9" class="edge">
<title>Node14&#45;&gt;Node15</title>
<path fill="none" stroke="midnightblue" d="M797.1,-127C807.2,-127 817.56,-127 827.73,-127"/>
<polygon fill="midnightblue" stroke="midnightblue" points="827.83,-130.5 837.83,-127 827.83,-123.5 827.83,-130.5"/>
</g>
<!-- Node15&#45;&gt;Node4 -->
<g id="edge10" class="edge">
<title>Node15&#45;&gt;Node4</title>
<path fill="none" stroke="midnightblue" d="M869.56,-137.55C794.24,-155.44 641.76,-191.65 560.07,-211.04"/>
<polygon fill="midnightblue" stroke="midnightblue" points="558.92,-207.72 549.99,-213.43 560.53,-214.53 558.92,-207.72"/>
</g>
<!-- Node15&#45;&gt;Node16 -->
<g id="edge11" class="edge">
<title>Node15&#45;&gt;Node16</title>
<path fill="none" stroke="midnightblue" d="M992.06,-118.95C1004.84,-117.6 1018.1,-116.2 1030.84,-114.85"/>
<polygon fill="midnightblue" stroke="midnightblue" points="1031.35,-118.31 1040.93,-113.78 1030.61,-111.35 1031.35,-118.31"/>
</g>
<!-- Node15&#45;&gt;Node17 -->
<g id="edge12" class="edge">
<title>Node15&#45;&gt;Node17</title>
<path fill="none" stroke="midnightblue" d="M967.15,-137.55C990.78,-142.43 1019.04,-148.26 1043.8,-153.37"/>
<polygon fill="midnightblue" stroke="midnightblue" points="1043.31,-156.84 1053.81,-155.44 1044.73,-149.99 1043.31,-156.84"/>
</g>
<!-- Node17&#45;&gt;Node7 -->
<g id="edge13" class="edge">
<title>Node17&#45;&gt;Node7</title>
<path fill="none" stroke="midnightblue" d="M1119.48,-176.52C1150.3,-202.5 1230.3,-269.94 1268.12,-301.82"/>
<polygon fill="midnightblue" stroke="midnightblue" points="1266.04,-304.64 1275.94,-308.41 1270.55,-299.29 1266.04,-304.64"/>
</g>
<!-- Node22&#45;&gt;Node5 -->
<g id="edge15" class="edge">
<title>Node22&#45;&gt;Node5</title>
<path fill="none" stroke="midnightblue" d="M794.52,-250.17C803.81,-251.01 813.35,-251.87 822.79,-252.73"/>
<polygon fill="midnightblue" stroke="midnightblue" points="822.7,-256.24 832.98,-253.65 823.33,-249.26 822.7,-256.24"/>
</g>
</g>
</svg>
