<?xml version="1.0" encoding="UTF-8" standalone="no"?>
<!DOCTYPE svg PUBLIC "-//W3C//DTD SVG 1.1//EN"
 "http://www.w3.org/Graphics/SVG/1.1/DTD/svg11.dtd">
<!-- Generated by graphviz version 2.47.3 (20210619.1520)
 -->
<!-- Title: wrenGrayBuffer Pages: 1 -->
<svg width="1100pt" height="150pt"
 viewBox="0.00 0.00 1100.00 150.00" xmlns="http://www.w3.org/2000/svg" xmlns:xlink="http://www.w3.org/1999/xlink">
<g id="graph0" class="graph" transform="scale(1 1) rotate(0) translate(4 146)">
<title>wrenGrayBuffer</title>
<polygon fill="white" stroke="transparent" points="-4,4 -4,-146 1096,-146 1096,4 -4,4"/>
<!-- Node1 -->
<g id="node1" class="node">
<title>Node1</title>
<g id="a_node1"><a xlink:title=" ">
<polygon fill="#bfbfbf" stroke="black" points="995,-80.5 995,-101.5 1092,-101.5 1092,-80.5 995,-80.5"/>
<text text-anchor="middle" x="1043.5" y="-87.9" font-family="Helvetica,sans-Serif" font-size="12.00">wrenGrayBuffer</text>
</a>
</g>
</g>
<!-- Node2 -->
<g id="node2" class="node">
<title>Node2</title>
<g id="a_node2"><a xlink:href="../../da/dbe/wren__value_8c.html#a5139f633c168ee28e0af32889358d8e0" target="_top" xlink:title=" ">
<polygon fill="white" stroke="black" points="885.5,-100.5 885.5,-121.5 956.5,-121.5 956.5,-100.5 885.5,-100.5"/>
<text text-anchor="middle" x="921" y="-107.9" font-family="Helvetica,sans-Serif" font-size="12.00">blackenFn</text>
</a>
</g>
</g>
<!-- Node1&#45;&gt;Node2 -->
<g id="edge1" class="edge">
<title>Node1&#45;&gt;Node2</title>
<path fill="none" stroke="midnightblue" d="M984.89,-100.56C975.23,-102.16 965.49,-103.78 956.65,-105.25"/>
<polygon fill="midnightblue" stroke="midnightblue" points="985.58,-103.99 994.88,-98.9 984.44,-97.09 985.58,-103.99"/>
</g>
<!-- Node41 -->
<g id="node12" class="node">
<title>Node41</title>
<g id="a_node12"><a xlink:href="../../da/dbe/wren__value_8c.html#a7093699a7efe6d9e41254bf91df030e0" target="_top" xlink:title=" ">
<polygon fill="white" stroke="black" points="883,-60.5 883,-81.5 959,-81.5 959,-60.5 883,-60.5"/>
<text text-anchor="middle" x="921" y="-67.9" font-family="Helvetica,sans-Serif" font-size="12.00">blackenList</text>
</a>
</g>
</g>
<!-- Node1&#45;&gt;Node41 -->
<g id="edge12" class="edge">
<title>Node1&#45;&gt;Node41</title>
<path fill="none" stroke="midnightblue" d="M984.77,-81.42C976.09,-79.98 967.34,-78.53 959.25,-77.18"/>
<polygon fill="midnightblue" stroke="midnightblue" points="984.44,-84.91 994.88,-83.1 985.58,-78.01 984.44,-84.91"/>
</g>
<!-- Node3 -->
<g id="node3" class="node">
<title>Node3</title>
<g id="a_node3"><a xlink:href="../../da/dbe/wren__value_8c.html#a42aa4a928a3eea46d094742e7098953a" target="_top" xlink:title=" ">
<polygon fill="white" stroke="black" points="756,-80.5 756,-101.5 847,-101.5 847,-80.5 756,-80.5"/>
<text text-anchor="middle" x="801.5" y="-87.9" font-family="Helvetica,sans-Serif" font-size="12.00">blackenObject</text>
</a>
</g>
</g>
<!-- Node2&#45;&gt;Node3 -->
<g id="edge2" class="edge">
<title>Node2&#45;&gt;Node3</title>
<path fill="none" stroke="midnightblue" d="M875.3,-103.39C866.14,-101.83 856.5,-100.19 847.34,-98.63"/>
<polygon fill="midnightblue" stroke="midnightblue" points="874.94,-106.88 885.38,-105.11 876.11,-99.98 874.94,-106.88"/>
</g>
<!-- Node4 -->
<g id="node4" class="node">
<title>Node4</title>
<g id="a_node4"><a xlink:href="../../da/dbe/wren__value_8c.html#a1643adceb635486ce24f7bb3b29f866c" target="_top" xlink:title=" ">
<polygon fill="white" stroke="black" points="597,-80.5 597,-101.5 720,-101.5 720,-80.5 597,-80.5"/>
<text text-anchor="middle" x="658.5" y="-87.9" font-family="Helvetica,sans-Serif" font-size="12.00">wrenBlackenObjects</text>
</a>
</g>
</g>
<!-- Node3&#45;&gt;Node4 -->
<g id="edge3" class="edge">
<title>Node3&#45;&gt;Node4</title>
<path fill="none" stroke="midnightblue" d="M745.79,-91C737.36,-91 728.61,-91 720.06,-91"/>
<polygon fill="midnightblue" stroke="midnightblue" points="745.89,-94.5 755.89,-91 745.89,-87.5 745.89,-94.5"/>
</g>
<!-- Node5 -->
<g id="node5" class="node">
<title>Node5</title>
<g id="a_node5"><a xlink:href="../../dd/d19/wren_8h.html#a74a6f15b4e601896ab959c1040c8ca4c" target="_top" xlink:title=" ">
<polygon fill="white" stroke="black" points="437,-80.5 437,-101.5 561,-101.5 561,-80.5 437,-80.5"/>
<text text-anchor="middle" x="499" y="-87.9" font-family="Helvetica,sans-Serif" font-size="12.00">wrenCollectGarbage</text>
</a>
</g>
</g>
<!-- Node4&#45;&gt;Node5 -->
<g id="edge4" class="edge">
<title>Node4&#45;&gt;Node5</title>
<path fill="none" stroke="midnightblue" d="M586.44,-91C578.03,-91 569.51,-91 561.25,-91"/>
<polygon fill="midnightblue" stroke="midnightblue" points="586.61,-94.5 596.61,-91 586.61,-87.5 586.61,-94.5"/>
</g>
<!-- Node6 -->
<g id="node6" class="node">
<title>Node6</title>
<g id="a_node6"><a xlink:href="../../de/d2f/wren__core_8c.html#a933851a6af80d160d1bb0136849c60e2" target="_top" xlink:title=" ">
<polygon fill="white" stroke="black" points="295,-120.5 295,-141.5 399,-141.5 399,-120.5 295,-120.5"/>
<text text-anchor="middle" x="347" y="-127.9" font-family="Helvetica,sans-Serif" font-size="12.00">DEF_PRIMITIVE</text>
</a>
</g>
</g>
<!-- Node5&#45;&gt;Node6 -->
<g id="edge5" class="edge">
<title>Node5&#45;&gt;Node6</title>
<path fill="none" stroke="midnightblue" d="M448.77,-104.13C428.86,-109.44 406.19,-115.48 387.41,-120.49"/>
<polygon fill="midnightblue" stroke="midnightblue" points="449.83,-107.47 458.59,-101.51 448.03,-100.7 449.83,-107.47"/>
</g>
<!-- Node7 -->
<g id="node7" class="node">
<title>Node7</title>
<g id="a_node7"><a xlink:href="../../d0/da0/class_app_wren.html#a46ef63c583efb89334bc8fbf20cf7a83" target="_top" xlink:title=" ">
<polygon fill="white" stroke="black" points="293,-80.5 293,-101.5 401,-101.5 401,-80.5 293,-80.5"/>
<text text-anchor="middle" x="347" y="-87.9" font-family="Helvetica,sans-Serif" font-size="12.00">AppWren::update</text>
</a>
</g>
</g>
<!-- Node5&#45;&gt;Node7 -->
<g id="edge6" class="edge">
<title>Node5&#45;&gt;Node7</title>
<path fill="none" stroke="midnightblue" d="M426.91,-91C418.27,-91 409.57,-91 401.25,-91"/>
<polygon fill="midnightblue" stroke="midnightblue" points="426.99,-94.5 436.99,-91 426.99,-87.5 426.99,-94.5"/>
</g>
<!-- Node8 -->
<g id="node8" class="node">
<title>Node8</title>
<g id="a_node8"><a xlink:href="../../de/db2/wren__vm_8c.html#a0df361e80b3e706ea1d8d7185ed0a2ef" target="_top" xlink:title=" ">
<polygon fill="white" stroke="black" points="298.5,-40.5 298.5,-61.5 395.5,-61.5 395.5,-40.5 298.5,-40.5"/>
<text text-anchor="middle" x="347" y="-47.9" font-family="Helvetica,sans-Serif" font-size="12.00">wrenReallocate</text>
</a>
</g>
</g>
<!-- Node5&#45;&gt;Node8 -->
<g id="edge7" class="edge">
<title>Node5&#45;&gt;Node8</title>
<path fill="none" stroke="midnightblue" d="M448.77,-77.87C428.86,-72.56 406.19,-66.52 387.41,-61.51"/>
<polygon fill="midnightblue" stroke="midnightblue" points="448.03,-81.3 458.59,-80.49 449.83,-74.53 448.03,-81.3"/>
</g>
<!-- Node9 -->
<g id="node9" class="node">
<title>Node9</title>
<g id="a_node9"><a xlink:href="../../d5/db1/wren__vm_8h.html#aa7d0c86a94d652075d8a7c60ea3cc500" target="_top" xlink:title=" ">
<polygon fill="white" stroke="red" points="0,-59.5 0,-80.5 106,-80.5 106,-59.5 0,-59.5"/>
<text text-anchor="middle" x="53" y="-66.9" font-family="Helvetica,sans-Serif" font-size="12.00">wrenCallFunction</text>
</a>
</g>
</g>
<!-- Node8&#45;&gt;Node9 -->
<g id="edge8" class="edge">
<title>Node8&#45;&gt;Node9</title>
<path fill="none" stroke="midnightblue" d="M297.95,-63.83C284.77,-66.79 270.42,-69.51 257,-71 206.03,-76.66 147.43,-75.56 106.33,-73.56"/>
<polygon fill="midnightblue" stroke="midnightblue" points="298.82,-67.23 307.76,-61.54 297.23,-60.41 298.82,-67.23"/>
</g>
<!-- Node32 -->
<g id="node10" class="node">
<title>Node32</title>
<g id="a_node10"><a xlink:href="../../da/dbe/wren__value_8c.html#aed1ff1baf49a705182870cbab13c30bf" target="_top" xlink:title=" ">
<polygon fill="white" stroke="red" points="145.5,-40.5 145.5,-61.5 253.5,-61.5 253.5,-40.5 145.5,-40.5"/>
<text text-anchor="middle" x="199.5" y="-47.9" font-family="Helvetica,sans-Serif" font-size="12.00">wrenEnsureStack</text>
</a>
</g>
</g>
<!-- Node8&#45;&gt;Node32 -->
<g id="edge9" class="edge">
<title>Node8&#45;&gt;Node32</title>
<path fill="none" stroke="midnightblue" d="M288.07,-51C276.67,-51 264.76,-51 253.53,-51"/>
<polygon fill="midnightblue" stroke="midnightblue" points="288.36,-54.5 298.36,-51 288.36,-47.5 288.36,-54.5"/>
</g>
<!-- Node39 -->
<g id="node11" class="node">
<title>Node39</title>
<g id="a_node11"><a xlink:href="../../da/dbe/wren__value_8c.html#a6634ba31c5f8427a59edffafde7ae654" target="_top" xlink:title=" ">
<polygon fill="white" stroke="red" points="142,-0.5 142,-21.5 257,-21.5 257,-0.5 142,-0.5"/>
<text text-anchor="middle" x="199.5" y="-7.9" font-family="Helvetica,sans-Serif" font-size="12.00">wrenListRemoveAt</text>
</a>
</g>
</g>
<!-- Node8&#45;&gt;Node39 -->
<g id="edge11" class="edge">
<title>Node8&#45;&gt;Node39</title>
<path fill="none" stroke="midnightblue" d="M297.98,-37.8C278.73,-32.51 256.86,-26.5 238.73,-21.51"/>
<polygon fill="midnightblue" stroke="midnightblue" points="297.2,-41.21 307.77,-40.49 299.06,-34.46 297.2,-41.21"/>
</g>
<!-- Node32&#45;&gt;Node9 -->
<g id="edge10" class="edge">
<title>Node32&#45;&gt;Node9</title>
<path fill="none" stroke="midnightblue" d="M135.14,-59.33C125.48,-60.6 115.6,-61.9 106.21,-63.13"/>
<polygon fill="midnightblue" stroke="midnightblue" points="135.65,-62.79 145.1,-58.02 134.73,-55.85 135.65,-62.79"/>
</g>
<!-- Node41&#45;&gt;Node3 -->
<g id="edge13" class="edge">
<title>Node41&#45;&gt;Node3</title>
<path fill="none" stroke="midnightblue" d="M872.77,-79.04C864.35,-80.47 855.6,-81.96 847.26,-83.38"/>
<polygon fill="midnightblue" stroke="midnightblue" points="873.55,-82.46 882.82,-77.33 872.38,-75.56 873.55,-82.46"/>
</g>
</g>
</svg>
