<?xml version="1.0" encoding="UTF-8" standalone="no"?>
<!DOCTYPE svg PUBLIC "-//W3C//DTD SVG 1.1//EN"
 "http://www.w3.org/Graphics/SVG/1.1/DTD/svg11.dtd">
<!-- Generated by graphviz version 2.47.3 (20210619.1520)
 -->
<!-- Title: wrenMapGet Pages: 1 -->
<svg width="1609pt" height="982pt"
 viewBox="0.00 0.00 1609.00 981.77" xmlns="http://www.w3.org/2000/svg" xmlns:xlink="http://www.w3.org/1999/xlink">
<g id="graph0" class="graph" transform="scale(1 1) rotate(0) translate(4 977.77)">
<title>wrenMapGet</title>
<polygon fill="white" stroke="transparent" points="-4,4 -4,-977.77 1605,-977.77 1605,4 -4,4"/>
<!-- Node1 -->
<g id="node1" class="node">
<title>Node1</title>
<g id="a_node1"><a xlink:title=" ">
<polygon fill="#bfbfbf" stroke="black" points="1518,-140.5 1518,-161.5 1601,-161.5 1601,-140.5 1518,-140.5"/>
<text text-anchor="middle" x="1559.5" y="-147.9" font-family="Helvetica,sans-Serif" font-size="12.00">wrenMapGet</text>
</a>
</g>
</g>
<!-- Node2 -->
<g id="node2" class="node">
<title>Node2</title>
<g id="a_node2"><a xlink:href="../../d4/de2/wren__compiler_8c.html#a0dc46acbdd511af1c3de1a937dca02b3" target="_top" xlink:title=" ">
<polygon fill="white" stroke="black" points="1365.5,-280.5 1365.5,-301.5 1448.5,-301.5 1448.5,-280.5 1365.5,-280.5"/>
<text text-anchor="middle" x="1407" y="-287.9" font-family="Helvetica,sans-Serif" font-size="12.00">addConstant</text>
</a>
</g>
</g>
<!-- Node1&#45;&gt;Node2 -->
<g id="edge1" class="edge">
<title>Node1&#45;&gt;Node2</title>
<path fill="none" stroke="midnightblue" d="M1551.13,-171.03C1540.21,-197.89 1517.16,-245.17 1482,-271 1472.35,-278.09 1460.34,-282.67 1448.82,-285.62"/>
<polygon fill="midnightblue" stroke="midnightblue" points="1554.47,-172.1 1554.84,-161.51 1547.94,-169.56 1554.47,-172.1"/>
</g>
<!-- Node106 -->
<g id="node35" class="node">
<title>Node106</title>
<g id="a_node35"><a xlink:href="../../d4/de2/wren__compiler_8c.html#ad7cf94c2202263aa2f1c991b8ed0c933" target="_top" xlink:title=" ">
<polygon fill="white" stroke="red" points="1344,-240.5 1344,-261.5 1470,-261.5 1470,-240.5 1344,-240.5"/>
<text text-anchor="middle" x="1407" y="-247.9" font-family="Helvetica,sans-Serif" font-size="12.00">addToAttributeGroup</text>
</a>
</g>
</g>
<!-- Node1&#45;&gt;Node106 -->
<g id="edge66" class="edge">
<title>Node1&#45;&gt;Node106</title>
<path fill="none" stroke="midnightblue" d="M1545.41,-169.74C1531.67,-188.03 1508.41,-215.32 1482,-231 1475.59,-234.81 1468.45,-237.9 1461.19,-240.42"/>
<polygon fill="midnightblue" stroke="midnightblue" points="1548.3,-171.72 1551.36,-161.58 1542.64,-167.6 1548.3,-171.72"/>
</g>
<!-- Node112 -->
<g id="node36" class="node">
<title>Node112</title>
<g id="a_node36"><a xlink:href="../../de/d2f/wren__core_8c.html#a81d816786416f381e19d65b9ace85040" target="_top" xlink:title=" ">
<polygon fill="white" stroke="black" points="1355,-200.5 1355,-221.5 1459,-221.5 1459,-200.5 1355,-200.5"/>
<text text-anchor="middle" x="1407" y="-207.9" font-family="Helvetica,sans-Serif" font-size="12.00">DEF_PRIMITIVE</text>
</a>
</g>
</g>
<!-- Node1&#45;&gt;Node112 -->
<g id="edge67" class="edge">
<title>Node1&#45;&gt;Node112</title>
<path fill="none" stroke="midnightblue" d="M1532.22,-166.56C1517.76,-174.65 1499.29,-184.24 1482,-191 1472.83,-194.59 1462.78,-197.77 1453.12,-200.49"/>
<polygon fill="midnightblue" stroke="midnightblue" points="1534.13,-169.5 1541.09,-161.51 1530.66,-163.42 1534.13,-169.5"/>
</g>
<!-- Node129 -->
<g id="node37" class="node">
<title>Node129</title>
<g id="a_node37"><a xlink:href="../../de/db2/wren__vm_8c.html#ac690f21b097553e14476d644a3ef1f62" target="_top" xlink:title=" ">
<polygon fill="white" stroke="red" points="1371.5,-160.5 1371.5,-181.5 1442.5,-181.5 1442.5,-160.5 1371.5,-160.5"/>
<text text-anchor="middle" x="1407" y="-167.9" font-family="Helvetica,sans-Serif" font-size="12.00">getModule</text>
</a>
</g>
</g>
<!-- Node1&#45;&gt;Node129 -->
<g id="edge68" class="edge">
<title>Node1&#45;&gt;Node129</title>
<path fill="none" stroke="midnightblue" d="M1507.84,-157.73C1486.4,-160.58 1461.97,-163.83 1442.64,-166.4"/>
<polygon fill="midnightblue" stroke="midnightblue" points="1508.32,-161.2 1517.77,-156.41 1507.4,-154.26 1508.32,-161.2"/>
</g>
<!-- Node71 -->
<g id="node38" class="node">
<title>Node71</title>
<g id="a_node38"><a xlink:href="../../de/db2/wren__vm_8c.html#ace5a23abf0a7880ce955c45fa9b7a9e8" target="_top" xlink:title=" ">
<polygon fill="white" stroke="red" points="1363,-120.5 1363,-141.5 1451,-141.5 1451,-120.5 1363,-120.5"/>
<text text-anchor="middle" x="1407" y="-127.9" font-family="Helvetica,sans-Serif" font-size="12.00">importModule</text>
</a>
</g>
</g>
<!-- Node1&#45;&gt;Node71 -->
<g id="edge69" class="edge">
<title>Node1&#45;&gt;Node71</title>
<path fill="none" stroke="midnightblue" d="M1507.81,-144.26C1489.41,-141.82 1468.81,-139.08 1451.13,-136.73"/>
<polygon fill="midnightblue" stroke="midnightblue" points="1507.4,-147.74 1517.77,-145.59 1508.32,-140.8 1507.4,-147.74"/>
</g>
<!-- Node57 -->
<g id="node39" class="node">
<title>Node57</title>
<g id="a_node39"><a xlink:href="../../de/dab/wren__opt__meta_8c.html#a04ea01c547ad5d9258de10c0d4d1e2bb" target="_top" xlink:title=" ">
<polygon fill="white" stroke="red" points="1332,-80.5 1332,-101.5 1482,-101.5 1482,-80.5 1332,-80.5"/>
<text text-anchor="middle" x="1407" y="-87.9" font-family="Helvetica,sans-Serif" font-size="12.00">metaGetModuleVariables</text>
</a>
</g>
</g>
<!-- Node1&#45;&gt;Node57 -->
<g id="edge70" class="edge">
<title>Node1&#45;&gt;Node57</title>
<path fill="none" stroke="midnightblue" d="M1532.22,-135.44C1517.76,-127.35 1499.29,-117.76 1482,-111 1472.83,-107.41 1462.78,-104.23 1453.12,-101.51"/>
<polygon fill="midnightblue" stroke="midnightblue" points="1530.66,-138.58 1541.09,-140.49 1534.13,-132.5 1530.66,-138.58"/>
</g>
<!-- Node122 -->
<g id="node40" class="node">
<title>Node122</title>
<g id="a_node40"><a xlink:href="../../dd/d19/wren_8h.html#a7df08f913890a174f2195a58a896086c" target="_top" xlink:title=" ">
<polygon fill="white" stroke="black" points="1332,-40.5 1332,-61.5 1482,-61.5 1482,-40.5 1332,-40.5"/>
<text text-anchor="middle" x="1407" y="-47.9" font-family="Helvetica,sans-Serif" font-size="12.00">wrenGetMapContainsKey</text>
</a>
</g>
</g>
<!-- Node1&#45;&gt;Node122 -->
<g id="edge71" class="edge">
<title>Node1&#45;&gt;Node122</title>
<path fill="none" stroke="midnightblue" d="M1545.41,-132.26C1531.67,-113.97 1508.41,-86.68 1482,-71 1475.59,-67.19 1468.45,-64.1 1461.19,-61.58"/>
<polygon fill="midnightblue" stroke="midnightblue" points="1542.64,-134.4 1551.36,-140.42 1548.3,-130.28 1542.64,-134.4"/>
</g>
<!-- Node124 -->
<g id="node41" class="node">
<title>Node124</title>
<g id="a_node41"><a xlink:href="../../dd/d19/wren_8h.html#a3ef719decc3cee2f8802aed09c3cd727" target="_top" xlink:title=" ">
<polygon fill="white" stroke="black" points="1350.5,-0.5 1350.5,-21.5 1463.5,-21.5 1463.5,-0.5 1350.5,-0.5"/>
<text text-anchor="middle" x="1407" y="-7.9" font-family="Helvetica,sans-Serif" font-size="12.00">wrenGetMapValue</text>
</a>
</g>
</g>
<!-- Node1&#45;&gt;Node124 -->
<g id="edge72" class="edge">
<title>Node1&#45;&gt;Node124</title>
<path fill="none" stroke="midnightblue" d="M1551.13,-130.97C1540.21,-104.11 1517.16,-56.83 1482,-31 1476.53,-26.98 1470.3,-23.77 1463.84,-21.2"/>
<polygon fill="midnightblue" stroke="midnightblue" points="1547.94,-132.44 1554.84,-140.49 1554.47,-129.9 1547.94,-132.44"/>
</g>
<!-- Node3 -->
<g id="node3" class="node">
<title>Node3</title>
<g id="a_node3"><a xlink:href="../../d4/de2/wren__compiler_8c.html#a38d81393ddf947ea59ad1d15eaa868cf" target="_top" xlink:title=" ">
<polygon fill="white" stroke="black" points="1212,-337.5 1212,-358.5 1296,-358.5 1296,-337.5 1212,-337.5"/>
<text text-anchor="middle" x="1254" y="-344.9" font-family="Helvetica,sans-Serif" font-size="12.00">callSignature</text>
</a>
</g>
</g>
<!-- Node2&#45;&gt;Node3 -->
<g id="edge2" class="edge">
<title>Node2&#45;&gt;Node3</title>
<path fill="none" stroke="midnightblue" d="M1368.6,-305.12C1342.06,-315.14 1307.01,-328.37 1282.9,-337.47"/>
<polygon fill="midnightblue" stroke="midnightblue" points="1369.83,-308.39 1377.95,-301.59 1367.36,-301.84 1369.83,-308.39"/>
</g>
<!-- Node157 -->
<g id="node29" class="node">
<title>Node157</title>
<g id="a_node29"><a xlink:href="../../d4/de2/wren__compiler_8c.html#a6b4cd3d0c1a4cf34e42541f058f2e55b" target="_top" xlink:title=" ">
<polygon fill="white" stroke="black" points="546,-905.5 546,-926.5 632,-926.5 632,-905.5 546,-905.5"/>
<text text-anchor="middle" x="589" y="-912.9" font-family="Helvetica,sans-Serif" font-size="12.00">emitConstant</text>
</a>
</g>
</g>
<!-- Node2&#45;&gt;Node157 -->
<g id="edge52" class="edge">
<title>Node2&#45;&gt;Node157</title>
<path fill="none" stroke="midnightblue" d="M1406.5,-311.85C1407.88,-419.23 1399.48,-905 1134,-905 1134,-905 1134,-905 880.5,-905 792.18,-905 688.86,-910.14 632.32,-913.39"/>
<polygon fill="midnightblue" stroke="midnightblue" points="1409.99,-311.59 1406.32,-301.66 1402.99,-311.72 1409.99,-311.59"/>
</g>
<!-- Node159 -->
<g id="node31" class="node">
<title>Node159</title>
<g id="a_node31"><a xlink:href="../../d4/de2/wren__compiler_8c.html#a3d81a8f8607a9b8236f1e6e49410581a" target="_top" xlink:title=" ">
<polygon fill="white" stroke="black" points="1212,-222.5 1212,-243.5 1296,-243.5 1296,-222.5 1212,-222.5"/>
<text text-anchor="middle" x="1254" y="-229.9" font-family="Helvetica,sans-Serif" font-size="12.00">endCompiler</text>
</a>
</g>
</g>
<!-- Node2&#45;&gt;Node159 -->
<g id="edge59" class="edge">
<title>Node2&#45;&gt;Node159</title>
<path fill="none" stroke="midnightblue" d="M1355.33,-278.72C1347.44,-276.4 1339.44,-273.81 1332,-271 1311.5,-263.26 1289.15,-251.88 1273.84,-243.59"/>
<polygon fill="midnightblue" stroke="midnightblue" points="1354.65,-282.16 1365.22,-281.5 1356.54,-275.42 1354.65,-282.16"/>
</g>
<!-- Node79 -->
<g id="node34" class="node">
<title>Node79</title>
<g id="a_node34"><a xlink:href="../../d4/de2/wren__compiler_8c.html#a8817c0493130cea4fe71207cf5df5426" target="_top" xlink:title=" ">
<polygon fill="white" stroke="black" points="1229,-182.5 1229,-203.5 1279,-203.5 1279,-182.5 1229,-182.5"/>
<text text-anchor="middle" x="1254" y="-189.9" font-family="Helvetica,sans-Serif" font-size="12.00">import</text>
</a>
</g>
</g>
<!-- Node2&#45;&gt;Node79 -->
<g id="edge65" class="edge">
<title>Node2&#45;&gt;Node79</title>
<path fill="none" stroke="midnightblue" d="M1355.36,-282.79C1347.05,-279.96 1338.91,-276.14 1332,-271 1307.66,-252.89 1318.52,-233.34 1296,-213 1291.18,-208.65 1285.24,-205.03 1279.4,-202.13"/>
<polygon fill="midnightblue" stroke="midnightblue" points="1354.55,-286.2 1365.13,-285.7 1356.54,-279.49 1354.55,-286.2"/>
</g>
<!-- Node4 -->
<g id="node4" class="node">
<title>Node4</title>
<g id="a_node4"><a xlink:href="../../d4/de2/wren__compiler_8c.html#a8743e9688db1718a6a325ea9f27adb05" target="_top" xlink:title=" ">
<polygon fill="white" stroke="black" points="1106.5,-395.5 1106.5,-416.5 1159.5,-416.5 1159.5,-395.5 1106.5,-395.5"/>
<text text-anchor="middle" x="1133" y="-402.9" font-family="Helvetica,sans-Serif" font-size="12.00">infixOp</text>
</a>
</g>
</g>
<!-- Node3&#45;&gt;Node4 -->
<g id="edge3" class="edge">
<title>Node3&#45;&gt;Node4</title>
<path fill="none" stroke="midnightblue" d="M1222.37,-362.93C1201.53,-373.09 1174.45,-386.28 1155.79,-395.38"/>
<polygon fill="midnightblue" stroke="midnightblue" points="1223.99,-366.03 1231.45,-358.5 1220.93,-359.74 1223.99,-366.03"/>
</g>
<!-- Node5 -->
<g id="node5" class="node">
<title>Node5</title>
<g id="a_node5"><a xlink:href="../../d4/de2/wren__compiler_8c.html#a7427f00898251d026c3b69ab90b92ed6" target="_top" xlink:title=" ">
<polygon fill="white" stroke="black" points="1095,-317.5 1095,-338.5 1171,-338.5 1171,-317.5 1095,-317.5"/>
<text text-anchor="middle" x="1133" y="-324.9" font-family="Helvetica,sans-Serif" font-size="12.00">methodCall</text>
</a>
</g>
</g>
<!-- Node3&#45;&gt;Node5 -->
<g id="edge4" class="edge">
<title>Node3&#45;&gt;Node5</title>
<path fill="none" stroke="midnightblue" d="M1201.64,-339.37C1191.42,-337.65 1180.87,-335.88 1171.23,-334.26"/>
<polygon fill="midnightblue" stroke="midnightblue" points="1201.27,-342.86 1211.71,-341.06 1202.43,-335.95 1201.27,-342.86"/>
</g>
<!-- Node6 -->
<g id="node6" class="node">
<title>Node6</title>
<g id="a_node6"><a xlink:href="../../d4/de2/wren__compiler_8c.html#a16fd4c5c52c951aed01a1d0fcd6d71aa" target="_top" xlink:title=" ">
<polygon fill="white" stroke="black" points="962.5,-394.5 962.5,-415.5 1035.5,-415.5 1035.5,-394.5 962.5,-394.5"/>
<text text-anchor="middle" x="999" y="-401.9" font-family="Helvetica,sans-Serif" font-size="12.00">namedCall</text>
</a>
</g>
</g>
<!-- Node3&#45;&gt;Node6 -->
<g id="edge50" class="edge">
<title>Node3&#45;&gt;Node6</title>
<path fill="none" stroke="midnightblue" d="M1201.96,-359.5C1152.67,-370.6 1079.28,-387.14 1035.87,-396.92"/>
<polygon fill="midnightblue" stroke="midnightblue" points="1202.8,-362.9 1211.79,-357.28 1201.26,-356.07 1202.8,-362.9"/>
</g>
<!-- Node156 -->
<g id="node28" class="node">
<title>Node156</title>
<g id="a_node28"><a xlink:href="../../d4/de2/wren__compiler_8c.html#a41444a093a5170bf6ff69627445a457c" target="_top" xlink:title=" ">
<polygon fill="white" stroke="black" points="1101,-435.5 1101,-456.5 1165,-456.5 1165,-435.5 1101,-435.5"/>
<text text-anchor="middle" x="1133" y="-442.9" font-family="Helvetica,sans-Serif" font-size="12.00">subscript</text>
</a>
</g>
</g>
<!-- Node3&#45;&gt;Node156 -->
<g id="edge51" class="edge">
<title>Node3&#45;&gt;Node156</title>
<path fill="none" stroke="midnightblue" d="M1237.72,-366.87C1223.19,-383.92 1200.03,-408.91 1176,-426 1171.13,-429.46 1165.57,-432.6 1160.12,-435.3"/>
<polygon fill="midnightblue" stroke="midnightblue" points="1240.77,-368.67 1244.49,-358.75 1235.4,-364.19 1240.77,-368.67"/>
</g>
<!-- Node5&#45;&gt;Node6 -->
<g id="edge5" class="edge">
<title>Node5&#45;&gt;Node6</title>
<path fill="none" stroke="midnightblue" d="M1104.68,-343.69C1099.74,-346.69 1094.67,-349.87 1090,-353 1073.38,-364.13 1071.17,-369.74 1054,-380 1045.04,-385.35 1034.75,-390.37 1025.57,-394.49"/>
<polygon fill="midnightblue" stroke="midnightblue" points="1106.53,-346.66 1113.34,-338.54 1102.95,-340.64 1106.53,-346.66"/>
</g>
<!-- Node146 -->
<g id="node27" class="node">
<title>Node146</title>
<g id="a_node27"><a xlink:href="../../d4/de2/wren__compiler_8c.html#a82a42c1b41759f79a9e76c4c5a898ede" target="_top" xlink:title=" ">
<polygon fill="white" stroke="black" points="855,-356.5 855,-377.5 908,-377.5 908,-356.5 855,-356.5"/>
<text text-anchor="middle" x="881.5" y="-363.9" font-family="Helvetica,sans-Serif" font-size="12.00">super_</text>
</a>
</g>
</g>
<!-- Node5&#45;&gt;Node146 -->
<g id="edge49" class="edge">
<title>Node5&#45;&gt;Node146</title>
<path fill="none" stroke="midnightblue" d="M1084.81,-336.73C1074.66,-338.53 1063.98,-340.38 1054,-342 1002.32,-350.4 941.67,-358.93 908.11,-363.53"/>
<polygon fill="midnightblue" stroke="midnightblue" points="1085.52,-340.16 1094.75,-334.94 1084.29,-333.27 1085.52,-340.16"/>
</g>
<!-- Node7 -->
<g id="node7" class="node">
<title>Node7</title>
<g id="a_node7"><a xlink:href="../../d4/de2/wren__compiler_8c.html#abc28d53c9cefc405f7f74cd877d037d1" target="_top" xlink:title=" ">
<polygon fill="white" stroke="black" points="864.5,-396.5 864.5,-417.5 898.5,-417.5 898.5,-396.5 864.5,-396.5"/>
<text text-anchor="middle" x="881.5" y="-403.9" font-family="Helvetica,sans-Serif" font-size="12.00">call</text>
</a>
</g>
</g>
<!-- Node6&#45;&gt;Node7 -->
<g id="edge6" class="edge">
<title>Node6&#45;&gt;Node7</title>
<path fill="none" stroke="midnightblue" d="M952.37,-405.79C933.33,-406.12 912.46,-406.48 898.53,-406.72"/>
<polygon fill="midnightblue" stroke="midnightblue" points="952.47,-409.29 962.4,-405.62 952.34,-402.29 952.47,-409.29"/>
</g>
<!-- Node8 -->
<g id="node8" class="node">
<title>Node8</title>
<g id="a_node8"><a xlink:href="../../d4/de2/wren__compiler_8c.html#a59935c559e6df5f8a5f95110a971014d" target="_top" xlink:title=" ">
<polygon fill="white" stroke="black" points="858.5,-520.5 858.5,-541.5 904.5,-541.5 904.5,-520.5 858.5,-520.5"/>
<text text-anchor="middle" x="881.5" y="-527.9" font-family="Helvetica,sans-Serif" font-size="12.00">name</text>
</a>
</g>
</g>
<!-- Node6&#45;&gt;Node8 -->
<g id="edge7" class="edge">
<title>Node6&#45;&gt;Node8</title>
<path fill="none" stroke="midnightblue" d="M981.26,-423.26C956.81,-449.94 912.08,-498.73 892.32,-520.28"/>
<polygon fill="midnightblue" stroke="midnightblue" points="983.98,-425.48 988.15,-415.74 978.82,-420.75 983.98,-425.48"/>
</g>
<!-- Node6&#45;&gt;Node146 -->
<g id="edge48" class="edge">
<title>Node6&#45;&gt;Node146</title>
<path fill="none" stroke="midnightblue" d="M956.14,-391.23C940.14,-385.96 922.37,-380.12 908.29,-375.49"/>
<polygon fill="midnightblue" stroke="midnightblue" points="955.23,-394.61 965.83,-394.41 957.42,-387.96 955.23,-394.61"/>
</g>
<!-- Node9 -->
<g id="node9" class="node">
<title>Node9</title>
<g id="a_node9"><a xlink:href="../../d4/de2/wren__compiler_8c.html#a9bd2c0d9435a0ab262ba508ec071fa83" target="_top" xlink:title=" ">
<polygon fill="white" stroke="red" points="717,-768.5 717,-789.5 782,-789.5 782,-768.5 717,-768.5"/>
<text text-anchor="middle" x="749.5" y="-775.9" font-family="Helvetica,sans-Serif" font-size="12.00">addLocal</text>
</a>
</g>
</g>
<!-- Node8&#45;&gt;Node9 -->
<g id="edge8" class="edge">
<title>Node8&#45;&gt;Node9</title>
<path fill="none" stroke="midnightblue" d="M878.94,-551.96C875.04,-591.49 861.87,-678.17 819,-735 807.85,-749.78 790.17,-760.96 775.57,-768.35"/>
<polygon fill="midnightblue" stroke="midnightblue" points="882.43,-552.19 879.82,-541.92 875.46,-551.57 882.43,-552.19"/>
</g>
<!-- Node67 -->
<g id="node10" class="node">
<title>Node67</title>
<g id="a_node10"><a xlink:href="../../d4/de2/wren__compiler_8c.html#af0278a0c6c812bdb67378f6b686499e6" target="_top" xlink:title=" ">
<polygon fill="white" stroke="red" points="400,-838.5 400,-859.5 483,-859.5 483,-838.5 400,-838.5"/>
<text text-anchor="middle" x="441.5" y="-845.9" font-family="Helvetica,sans-Serif" font-size="12.00">forStatement</text>
</a>
</g>
</g>
<!-- Node8&#45;&gt;Node67 -->
<g id="edge23" class="edge">
<title>Node8&#45;&gt;Node67</title>
<path fill="none" stroke="midnightblue" d="M878.74,-551.72C873.47,-608.65 855.81,-765.48 819,-799 725.15,-884.46 559.55,-869.67 483.18,-857.07"/>
<polygon fill="midnightblue" stroke="midnightblue" points="882.23,-552 879.63,-541.73 875.26,-551.38 882.23,-552"/>
</g>
<!-- Node85 -->
<g id="node11" class="node">
<title>Node85</title>
<g id="a_node11"><a xlink:href="../../d4/de2/wren__compiler_8c.html#a659fca4caa4720785ab7fbddcb247fb7" target="_top" xlink:title=" ">
<polygon fill="white" stroke="red" points="552.5,-645.5 552.5,-666.5 625.5,-666.5 625.5,-645.5 552.5,-645.5"/>
<text text-anchor="middle" x="589" y="-652.9" font-family="Helvetica,sans-Serif" font-size="12.00">callMethod</text>
</a>
</g>
</g>
<!-- Node8&#45;&gt;Node85 -->
<g id="edge10" class="edge">
<title>Node8&#45;&gt;Node85</title>
<path fill="none" stroke="midnightblue" d="M874.92,-551.6C866.98,-576.5 849.86,-617.48 819,-637 759.66,-674.53 673.67,-669.44 625.73,-662.59"/>
<polygon fill="midnightblue" stroke="midnightblue" points="878.36,-552.31 877.85,-541.73 871.65,-550.31 878.36,-552.31"/>
</g>
<!-- Node141 -->
<g id="node15" class="node">
<title>Node141</title>
<g id="a_node15"><a xlink:href="../../d4/de2/wren__compiler_8c.html#ab340843ddcc4e86bcca961782d54d1f6" target="_top" xlink:title=" ">
<polygon fill="white" stroke="black" points="237.5,-260.5 237.5,-281.5 332.5,-281.5 332.5,-260.5 237.5,-260.5"/>
<text text-anchor="middle" x="285" y="-267.9" font-family="Helvetica,sans-Serif" font-size="12.00">declareMethod</text>
</a>
</g>
</g>
<!-- Node8&#45;&gt;Node141 -->
<g id="edge16" class="edge">
<title>Node8&#45;&gt;Node141</title>
<path fill="none" stroke="midnightblue" d="M875.5,-510.65C870.35,-489.69 862.1,-456.07 855,-427 838.94,-361.24 871.74,-321.44 819,-279 666.68,-156.45 402.8,-230.71 315.2,-260.41"/>
<polygon fill="midnightblue" stroke="midnightblue" points="872.1,-511.5 877.89,-520.37 878.9,-509.83 872.1,-511.5"/>
</g>
<!-- Node142 -->
<g id="node18" class="node">
<title>Node142</title>
<g id="a_node18"><a xlink:href="../../d4/de2/wren__compiler_8c.html#ab3f241e328328e3814e5244dde86ad98" target="_top" xlink:title=" ">
<polygon fill="white" stroke="black" points="550.5,-434.5 550.5,-455.5 627.5,-455.5 627.5,-434.5 550.5,-434.5"/>
<text text-anchor="middle" x="589" y="-441.9" font-family="Helvetica,sans-Serif" font-size="12.00">findUpvalue</text>
</a>
</g>
</g>
<!-- Node8&#45;&gt;Node142 -->
<g id="edge19" class="edge">
<title>Node8&#45;&gt;Node142</title>
<path fill="none" stroke="midnightblue" d="M848.94,-518.58C839.39,-514.99 828.82,-511.18 819,-508 752.31,-486.4 673.21,-465.71 627.59,-454.24"/>
<polygon fill="midnightblue" stroke="midnightblue" points="847.87,-521.92 858.46,-522.21 850.37,-515.38 847.87,-521.92"/>
</g>
<!-- Node143 -->
<g id="node19" class="node">
<title>Node143</title>
<g id="a_node19"><a xlink:href="../../d4/de2/wren__compiler_8c.html#aeead4115d1ddc029dcd2a2b406cab6a9" target="_top" xlink:title=" ">
<polygon fill="white" stroke="red" points="385,-492.5 385,-513.5 498,-513.5 498,-492.5 385,-492.5"/>
<text text-anchor="middle" x="441.5" y="-499.9" font-family="Helvetica,sans-Serif" font-size="12.00">resolveNonmodule</text>
</a>
</g>
</g>
<!-- Node8&#45;&gt;Node143 -->
<g id="edge40" class="edge">
<title>Node8&#45;&gt;Node143</title>
<path fill="none" stroke="midnightblue" d="M848.37,-525.21C774.29,-516.8 590.79,-504.75 498.05,-501.88"/>
<polygon fill="midnightblue" stroke="midnightblue" points="848.13,-528.71 858.48,-526.42 848.97,-521.76 848.13,-528.71"/>
</g>
<!-- Node148 -->
<g id="node20" class="node">
<title>Node148</title>
<g id="a_node20"><a xlink:href="../../d4/de2/wren__compiler_8c.html#a8ee09994b5ad4511965abd53ef245a8a" target="_top" xlink:title=" ">
<polygon fill="white" stroke="red" points="242,-511.5 242,-532.5 328,-532.5 328,-511.5 242,-511.5"/>
<text text-anchor="middle" x="285" y="-518.9" font-family="Helvetica,sans-Serif" font-size="12.00">resolveName</text>
</a>
</g>
</g>
<!-- Node8&#45;&gt;Node148 -->
<g id="edge39" class="edge">
<title>Node8&#45;&gt;Node148</title>
<path fill="none" stroke="midnightblue" d="M848.45,-539.72C839.04,-541.89 828.67,-543.91 819,-545 637.22,-565.43 418.68,-540.65 328.3,-528.25"/>
<polygon fill="midnightblue" stroke="midnightblue" points="849.33,-543.11 858.21,-537.34 847.67,-536.31 849.33,-543.11"/>
</g>
<!-- Node149 -->
<g id="node21" class="node">
<title>Node149</title>
<g id="a_node21"><a xlink:href="../../d4/de2/wren__compiler_8c.html#aa30b2bee45b3b4a728ebac4fb0e5a82b" target="_top" xlink:title=" ">
<polygon fill="white" stroke="red" points="534,-723.5 534,-744.5 644,-744.5 644,-723.5 534,-723.5"/>
<text text-anchor="middle" x="589" y="-730.9" font-family="Helvetica,sans-Serif" font-size="12.00">loadCoreVariable</text>
</a>
</g>
</g>
<!-- Node8&#45;&gt;Node149 -->
<g id="edge24" class="edge">
<title>Node8&#45;&gt;Node149</title>
<path fill="none" stroke="midnightblue" d="M876.71,-551.58C870.17,-581.19 853.98,-635.57 819,-666 769.88,-708.74 694.88,-724.63 644.21,-730.53"/>
<polygon fill="midnightblue" stroke="midnightblue" points="880.18,-552.05 878.76,-541.55 873.32,-550.65 880.18,-552.05"/>
</g>
<!-- Node150 -->
<g id="node22" class="node">
<title>Node150</title>
<g id="a_node22"><a xlink:href="../../d4/de2/wren__compiler_8c.html#ad1e91368551c7720efd9105fc37570a1" target="_top" xlink:title=" ">
<polygon fill="white" stroke="red" points="702,-606.5 702,-627.5 797,-627.5 797,-606.5 702,-606.5"/>
<text text-anchor="middle" x="749.5" y="-613.9" font-family="Helvetica,sans-Serif" font-size="12.00">methodSymbol</text>
</a>
</g>
</g>
<!-- Node8&#45;&gt;Node150 -->
<g id="edge29" class="edge">
<title>Node8&#45;&gt;Node150</title>
<path fill="none" stroke="midnightblue" d="M865.61,-549.58C854.08,-562.93 837.08,-580.52 819,-592 809.7,-597.9 798.81,-602.68 788.49,-606.42"/>
<polygon fill="midnightblue" stroke="midnightblue" points="868.29,-551.83 872.03,-541.92 862.93,-547.33 868.29,-551.83"/>
</g>
<!-- Node152 -->
<g id="node23" class="node">
<title>Node152</title>
<g id="a_node23"><a xlink:href="../../d4/de2/wren__compiler_8c.html#aeca856979ea544d751ca03e0f3b9204c" target="_top" xlink:title=" ">
<polygon fill="white" stroke="black" points="389.5,-289.5 389.5,-310.5 493.5,-310.5 493.5,-289.5 389.5,-289.5"/>
<text text-anchor="middle" x="441.5" y="-296.9" font-family="Helvetica,sans-Serif" font-size="12.00">signatureSymbol</text>
</a>
</g>
</g>
<!-- Node8&#45;&gt;Node152 -->
<g id="edge46" class="edge">
<title>Node8&#45;&gt;Node152</title>
<path fill="none" stroke="midnightblue" d="M875.32,-510.63C863.15,-463.52 832.74,-350.16 819,-339 725.01,-262.68 571.28,-276.02 492.5,-289.49"/>
<polygon fill="midnightblue" stroke="midnightblue" points="871.94,-511.54 877.82,-520.36 878.72,-509.8 871.94,-511.54"/>
</g>
<!-- Node153 -->
<g id="node24" class="node">
<title>Node153</title>
<g id="a_node24"><a xlink:href="../../d4/de2/wren__compiler_8c.html#ac193a2eaa589f497f8147efe1dfca7a8" target="_top" xlink:title=" ">
<polygon fill="white" stroke="red" points="708,-434.5 708,-455.5 791,-455.5 791,-434.5 708,-434.5"/>
<text text-anchor="middle" x="749.5" y="-441.9" font-family="Helvetica,sans-Serif" font-size="12.00">resolveLocal</text>
</a>
</g>
</g>
<!-- Node8&#45;&gt;Node153 -->
<g id="edge36" class="edge">
<title>Node8&#45;&gt;Node153</title>
<path fill="none" stroke="midnightblue" d="M865.61,-512.42C854.08,-499.07 837.08,-481.48 819,-470 809.7,-464.1 798.81,-459.32 788.49,-455.58"/>
<polygon fill="midnightblue" stroke="midnightblue" points="862.93,-514.67 872.03,-520.08 868.29,-510.17 862.93,-514.67"/>
</g>
<!-- Node154 -->
<g id="node25" class="node">
<title>Node154</title>
<g id="a_node25"><a xlink:href="../../d4/de2/wren__compiler_8c.html#afd4e5fb23443ab31b9160488d6de132c" target="_top" xlink:title=" ">
<polygon fill="white" stroke="black" points="680,-394.5 680,-415.5 819,-415.5 819,-394.5 680,-394.5"/>
<text text-anchor="middle" x="749.5" y="-401.9" font-family="Helvetica,sans-Serif" font-size="12.00">signatureParameterList</text>
</a>
</g>
</g>
<!-- Node8&#45;&gt;Node154 -->
<g id="edge41" class="edge">
<title>Node8&#45;&gt;Node154</title>
<path fill="none" stroke="midnightblue" d="M874.09,-511.01C865.4,-487.07 847.59,-447.4 819,-425 814.12,-421.18 808.54,-418.09 802.71,-415.59"/>
<polygon fill="midnightblue" stroke="midnightblue" points="870.79,-512.18 877.36,-520.5 877.41,-509.9 870.79,-512.18"/>
</g>
<!-- Node155 -->
<g id="node26" class="node">
<title>Node155</title>
<g id="a_node26"><a xlink:href="../../d4/de2/wren__compiler_8c.html#ac8d1d75280e54ef6c6d6367ff1f26aef" target="_top" xlink:title=" ">
<polygon fill="white" stroke="black" points="534.5,-337.5 534.5,-358.5 643.5,-358.5 643.5,-337.5 534.5,-337.5"/>
<text text-anchor="middle" x="589" y="-344.9" font-family="Helvetica,sans-Serif" font-size="12.00">signatureToString</text>
</a>
</g>
</g>
<!-- Node8&#45;&gt;Node155 -->
<g id="edge47" class="edge">
<title>Node8&#45;&gt;Node155</title>
<path fill="none" stroke="midnightblue" d="M878.11,-510.41C873.19,-478.2 858.85,-416.32 819,-385 769.29,-345.93 694.42,-340.86 643.95,-342.79"/>
<polygon fill="midnightblue" stroke="midnightblue" points="874.66,-511.04 879.48,-520.47 881.59,-510.09 874.66,-511.04"/>
</g>
<!-- Node9&#45;&gt;Node67 -->
<g id="edge9" class="edge">
<title>Node9&#45;&gt;Node67</title>
<path fill="none" stroke="midnightblue" d="M706.86,-783.25C663.25,-788.29 593.02,-798.08 534,-814 510.35,-820.38 484.36,-830.66 466.14,-838.43"/>
<polygon fill="midnightblue" stroke="midnightblue" points="707.27,-786.73 716.81,-782.13 706.48,-779.77 707.27,-786.73"/>
</g>
<!-- Node85&#45;&gt;Node67 -->
<g id="edge14" class="edge">
<title>Node85&#45;&gt;Node67</title>
<path fill="none" stroke="midnightblue" d="M569.82,-674.06C558.97,-685.19 545.17,-699.97 534,-714 498.89,-758.07 463.08,-815.2 448.87,-838.46"/>
<polygon fill="midnightblue" stroke="midnightblue" points="572.59,-676.24 577.12,-666.67 567.61,-671.32 572.59,-676.24"/>
</g>
<!-- Node86 -->
<g id="node12" class="node">
<title>Node86</title>
<g id="a_node12"><a xlink:href="../../d4/de2/wren__compiler_8c.html#ac0fd522b34e48c85c192b29593a79fb9" target="_top" xlink:title=" ">
<polygon fill="white" stroke="red" points="221,-702.5 221,-723.5 349,-723.5 349,-702.5 221,-702.5"/>
<text text-anchor="middle" x="285" y="-709.9" font-family="Helvetica,sans-Serif" font-size="12.00">emitAttributeMethods</text>
</a>
</g>
</g>
<!-- Node85&#45;&gt;Node86 -->
<g id="edge11" class="edge">
<title>Node85&#45;&gt;Node86</title>
<path fill="none" stroke="midnightblue" d="M542.27,-643.31C500.34,-633.88 437.04,-625.27 385,-642 347.75,-653.98 312.64,-685.72 296.03,-702.41"/>
<polygon fill="midnightblue" stroke="midnightblue" points="541.65,-646.76 552.19,-645.64 543.26,-639.94 541.65,-646.76"/>
</g>
<!-- Node88 -->
<g id="node13" class="node">
<title>Node88</title>
<g id="a_node13"><a xlink:href="../../d4/de2/wren__compiler_8c.html#a4716244e490967ab0e98a209de45844e" target="_top" xlink:title=" ">
<polygon fill="white" stroke="red" points="397,-684.5 397,-705.5 486,-705.5 486,-684.5 397,-684.5"/>
<text text-anchor="middle" x="441.5" y="-691.9" font-family="Helvetica,sans-Serif" font-size="12.00">emitAttributes</text>
</a>
</g>
</g>
<!-- Node85&#45;&gt;Node88 -->
<g id="edge12" class="edge">
<title>Node85&#45;&gt;Node88</title>
<path fill="none" stroke="midnightblue" d="M542.54,-668.19C523.07,-673.4 500.56,-679.44 481.82,-684.46"/>
<polygon fill="midnightblue" stroke="midnightblue" points="543.65,-671.51 552.41,-665.54 541.84,-664.75 543.65,-671.51"/>
</g>
<!-- Node139 -->
<g id="node14" class="node">
<title>Node139</title>
<g id="a_node14"><a xlink:href="../../d4/de2/wren__compiler_8c.html#afbde727a3fafa6041cfd3ffbe17c8e4f" target="_top" xlink:title=" ">
<polygon fill="white" stroke="black" points="231,-760.5 231,-781.5 339,-781.5 339,-760.5 231,-760.5"/>
<text text-anchor="middle" x="285" y="-767.9" font-family="Helvetica,sans-Serif" font-size="12.00">stringInterpolation</text>
</a>
</g>
</g>
<!-- Node85&#45;&gt;Node139 -->
<g id="edge15" class="edge">
<title>Node85&#45;&gt;Node139</title>
<path fill="none" stroke="midnightblue" d="M542.31,-649.27C498.61,-645.22 432.51,-645.59 385,-675 359.2,-690.97 370.59,-711.68 349,-733 337.46,-744.4 321.86,-753.84 309.08,-760.46"/>
<polygon fill="midnightblue" stroke="midnightblue" points="542.06,-652.76 552.37,-650.31 542.78,-645.8 542.06,-652.76"/>
</g>
<!-- Node88&#45;&gt;Node86 -->
<g id="edge13" class="edge">
<title>Node88&#45;&gt;Node86</title>
<path fill="none" stroke="midnightblue" d="M386.66,-701.27C374.5,-702.69 361.5,-704.2 349,-705.66"/>
<polygon fill="midnightblue" stroke="midnightblue" points="387.11,-704.74 396.64,-700.11 386.3,-697.79 387.11,-704.74"/>
</g>
<!-- Node16 -->
<g id="node16" class="node">
<title>Node16</title>
<g id="a_node16"><a xlink:href="../../d4/de2/wren__compiler_8c.html#a280648a47237a52319d293ace8edb7c8" target="_top" xlink:title=" ">
<polygon fill="white" stroke="red" points="129,-318.5 129,-339.5 185,-339.5 185,-318.5 129,-318.5"/>
<text text-anchor="middle" x="157" y="-325.9" font-family="Helvetica,sans-Serif" font-size="12.00">method</text>
</a>
</g>
</g>
<!-- Node141&#45;&gt;Node16 -->
<g id="edge17" class="edge">
<title>Node141&#45;&gt;Node16</title>
<path fill="none" stroke="midnightblue" d="M246,-285.33C237.69,-288.67 228.99,-292.33 221,-296 205.96,-302.9 189.41,-311.62 177.04,-318.36"/>
<polygon fill="midnightblue" stroke="midnightblue" points="247.49,-288.51 255.51,-281.58 244.92,-282 247.49,-288.51"/>
</g>
<!-- Node12 -->
<g id="node17" class="node">
<title>Node12</title>
<g id="a_node17"><a xlink:href="../../d4/de2/wren__compiler_8c.html#acb2713c83e03d07b11beeca8a9f58539" target="_top" xlink:title=" ">
<polygon fill="white" stroke="red" points="0,-799.5 0,-820.5 93,-820.5 93,-799.5 0,-799.5"/>
<text text-anchor="middle" x="46.5" y="-806.9" font-family="Helvetica,sans-Serif" font-size="12.00">classDefinition</text>
</a>
</g>
</g>
<!-- Node16&#45;&gt;Node12 -->
<g id="edge18" class="edge">
<title>Node16&#45;&gt;Node12</title>
<path fill="none" stroke="midnightblue" d="M151.33,-349.71C132.66,-432.49 63.73,-738.04 49.92,-799.28"/>
<polygon fill="midnightblue" stroke="midnightblue" points="154.74,-350.48 153.53,-339.95 147.92,-348.93 154.74,-350.48"/>
</g>
<!-- Node142&#45;&gt;Node143 -->
<g id="edge20" class="edge">
<title>Node142&#45;&gt;Node143</title>
<path fill="none" stroke="midnightblue" d="M552.25,-459.25C526.56,-469.49 492.47,-483.08 469.14,-492.38"/>
<polygon fill="midnightblue" stroke="midnightblue" points="553.66,-462.46 561.65,-455.5 551.07,-455.96 553.66,-462.46"/>
</g>
<!-- Node143&#45;&gt;Node8 -->
<g id="edge21" class="edge">
<title>Node143&#45;&gt;Node8</title>
<path fill="none" stroke="midnightblue" d="M508.06,-512.17C608.3,-521.44 794.75,-532.75 858.48,-532.76"/>
<polygon fill="midnightblue" stroke="midnightblue" points="508.33,-508.68 498.05,-511.23 507.67,-515.65 508.33,-508.68"/>
</g>
<!-- Node143&#45;&gt;Node148 -->
<g id="edge22" class="edge">
<title>Node143&#45;&gt;Node148</title>
<path fill="none" stroke="midnightblue" d="M374.51,-511.12C358.79,-513.05 342.43,-515.06 328.12,-516.82"/>
<polygon fill="midnightblue" stroke="midnightblue" points="375.22,-514.55 384.72,-509.86 374.37,-507.61 375.22,-514.55"/>
</g>
<!-- Node149&#45;&gt;Node86 -->
<g id="edge26" class="edge">
<title>Node149&#45;&gt;Node86</title>
<path fill="none" stroke="midnightblue" d="M523.64,-729.52C472.1,-725.94 400.23,-720.94 349.04,-717.38"/>
<polygon fill="midnightblue" stroke="midnightblue" points="523.44,-733.02 533.66,-730.22 523.93,-726.04 523.44,-733.02"/>
</g>
<!-- Node149&#45;&gt;Node88 -->
<g id="edge27" class="edge">
<title>Node149&#45;&gt;Node88</title>
<path fill="none" stroke="midnightblue" d="M538.88,-720.83C520.32,-715.86 499.46,-710.27 481.91,-705.56"/>
<polygon fill="midnightblue" stroke="midnightblue" points="538.06,-724.24 548.63,-723.45 539.87,-717.48 538.06,-724.24"/>
</g>
<!-- Node149&#45;&gt;Node139 -->
<g id="edge28" class="edge">
<title>Node149&#45;&gt;Node139</title>
<path fill="none" stroke="midnightblue" d="M523.68,-741.88C468.73,-748.61 390.61,-758.18 339.14,-764.49"/>
<polygon fill="midnightblue" stroke="midnightblue" points="524.16,-745.35 533.66,-740.66 523.31,-738.4 524.16,-745.35"/>
</g>
<!-- Node149&#45;&gt;Node12 -->
<g id="edge25" class="edge">
<title>Node149&#45;&gt;Node12</title>
<path fill="none" stroke="midnightblue" d="M551.17,-748.17C535.03,-753.99 515.76,-760.42 498,-765 353.38,-802.27 175.28,-809.01 93.05,-810"/>
<polygon fill="midnightblue" stroke="midnightblue" points="552.59,-751.38 560.77,-744.65 550.18,-744.8 552.59,-751.38"/>
</g>
<!-- Node150&#45;&gt;Node85 -->
<g id="edge30" class="edge">
<title>Node150&#45;&gt;Node85</title>
<path fill="none" stroke="midnightblue" d="M695.65,-630C672.66,-635.66 646.32,-642.14 625.69,-647.22"/>
<polygon fill="midnightblue" stroke="midnightblue" points="696.73,-633.34 705.61,-627.55 695.06,-626.54 696.73,-633.34"/>
</g>
<!-- Node150&#45;&gt;Node16 -->
<g id="edge31" class="edge">
<title>Node150&#45;&gt;Node16</title>
<path fill="none" stroke="midnightblue" d="M691.52,-616.44C569.95,-614.07 290.56,-602.06 221,-542 158.54,-488.07 156.48,-375.46 157.49,-339.96"/>
<polygon fill="midnightblue" stroke="midnightblue" points="691.68,-619.94 701.74,-616.62 691.8,-612.94 691.68,-619.94"/>
</g>
<!-- Node150&#45;&gt;Node152 -->
<g id="edge32" class="edge">
<title>Node150&#45;&gt;Node152</title>
<path fill="none" stroke="midnightblue" d="M718.68,-601.59C674.06,-577.37 589.29,-526.74 534,-465 488.99,-414.73 457.17,-338.52 446.46,-310.67"/>
<polygon fill="midnightblue" stroke="midnightblue" points="717.1,-604.71 727.56,-606.35 720.4,-598.54 717.1,-604.71"/>
</g>
<!-- Node152&#45;&gt;Node3 -->
<g id="edge33" class="edge">
<title>Node152&#45;&gt;Node3</title>
<path fill="none" stroke="midnightblue" d="M473.6,-285.13C528.01,-260.52 644.6,-214 748.5,-214 1000,-214 1000,-214 1000,-214 1105.37,-214 1209.73,-305.9 1242.49,-337.49"/>
<polygon fill="midnightblue" stroke="midnightblue" points="471.81,-282.1 464.18,-289.45 474.73,-288.46 471.81,-282.1"/>
</g>
<!-- Node152&#45;&gt;Node141 -->
<g id="edge34" class="edge">
<title>Node152&#45;&gt;Node141</title>
<path fill="none" stroke="midnightblue" d="M379.39,-288.53C363.79,-285.6 347.27,-282.5 332.53,-279.73"/>
<polygon fill="midnightblue" stroke="midnightblue" points="379.01,-292.02 389.48,-290.42 380.3,-285.14 379.01,-292.02"/>
</g>
<!-- Node152&#45;&gt;Node16 -->
<g id="edge35" class="edge">
<title>Node152&#45;&gt;Node16</title>
<path fill="none" stroke="midnightblue" d="M379.19,-306.29C318.93,-312.48 229.73,-321.64 185.27,-326.2"/>
<polygon fill="midnightblue" stroke="midnightblue" points="379.75,-309.75 389.34,-305.25 379.04,-302.79 379.75,-309.75"/>
</g>
<!-- Node153&#45;&gt;Node142 -->
<g id="edge37" class="edge">
<title>Node153&#45;&gt;Node142</title>
<path fill="none" stroke="midnightblue" d="M697.54,-445C674.84,-445 648.58,-445 627.69,-445"/>
<polygon fill="midnightblue" stroke="midnightblue" points="697.68,-448.5 707.68,-445 697.68,-441.5 697.68,-448.5"/>
</g>
<!-- Node153&#45;&gt;Node143 -->
<g id="edge38" class="edge">
<title>Node153&#45;&gt;Node143</title>
<path fill="none" stroke="midnightblue" d="M697.57,-433.25C680.62,-429.88 661.59,-426.67 644,-425 595.33,-420.38 579.88,-408.1 534,-425 497.18,-438.57 465.09,-474.27 450.64,-492.28"/>
<polygon fill="midnightblue" stroke="midnightblue" points="697.31,-436.77 707.81,-435.36 698.72,-429.92 697.31,-436.77"/>
</g>
<!-- Node154&#45;&gt;Node155 -->
<g id="edge42" class="edge">
<title>Node154&#45;&gt;Node155</title>
<path fill="none" stroke="midnightblue" d="M709.6,-391.01C681.7,-380.98 644.7,-367.67 619.28,-358.53"/>
<polygon fill="midnightblue" stroke="midnightblue" points="708.46,-394.32 719.06,-394.41 710.83,-387.73 708.46,-394.32"/>
</g>
<!-- Node155&#45;&gt;Node5 -->
<g id="edge44" class="edge">
<title>Node155&#45;&gt;Node5</title>
<path fill="none" stroke="midnightblue" d="M653.95,-343.46C662.7,-342.92 671.57,-342.41 680,-342 833.89,-334.49 1017.47,-330.27 1094.78,-328.7"/>
<polygon fill="midnightblue" stroke="midnightblue" points="653.52,-339.98 643.76,-344.1 653.96,-346.96 653.52,-339.98"/>
</g>
<!-- Node155&#45;&gt;Node16 -->
<g id="edge43" class="edge">
<title>Node155&#45;&gt;Node16</title>
<path fill="none" stroke="midnightblue" d="M524.3,-345.19C428.77,-340.96 252.44,-333.17 185.11,-330.2"/>
<polygon fill="midnightblue" stroke="midnightblue" points="524.26,-348.69 534.41,-345.63 524.57,-341.69 524.26,-348.69"/>
</g>
<!-- Node155&#45;&gt;Node152 -->
<g id="edge45" class="edge">
<title>Node155&#45;&gt;Node152</title>
<path fill="none" stroke="midnightblue" d="M546.28,-334.24C523.4,-326.69 495.47,-317.48 474.36,-310.51"/>
<polygon fill="midnightblue" stroke="midnightblue" points="545.48,-337.66 556.07,-337.47 547.67,-331.01 545.48,-337.66"/>
</g>
<!-- Node157&#45;&gt;Node86 -->
<g id="edge54" class="edge">
<title>Node157&#45;&gt;Node86</title>
<path fill="none" stroke="midnightblue" d="M535.75,-909.88C483.07,-902.69 406.57,-889.14 385,-869 344.92,-831.58 382.71,-794.25 349,-751 339.58,-738.91 325.15,-729.81 312.47,-723.54"/>
<polygon fill="midnightblue" stroke="midnightblue" points="535.57,-913.39 545.94,-911.23 536.49,-906.45 535.57,-913.39"/>
</g>
<!-- Node157&#45;&gt;Node88 -->
<g id="edge55" class="edge">
<title>Node157&#45;&gt;Node88</title>
<path fill="none" stroke="midnightblue" d="M575.34,-896.78C545.66,-851.69 472.34,-740.33 449.45,-705.55"/>
<polygon fill="midnightblue" stroke="midnightblue" points="572.56,-898.91 580.98,-905.34 578.41,-895.06 572.56,-898.91"/>
</g>
<!-- Node157&#45;&gt;Node16 -->
<g id="edge58" class="edge">
<title>Node157&#45;&gt;Node16</title>
<path fill="none" stroke="midnightblue" d="M556.69,-930.55C515.8,-947.39 442.65,-970.04 385,-947 291.59,-909.67 266.82,-880.55 221,-791 178.59,-708.13 161.53,-401.24 158.51,-339.76"/>
<polygon fill="midnightblue" stroke="midnightblue" points="558.29,-933.67 566.12,-926.53 555.55,-927.23 558.29,-933.67"/>
</g>
<!-- Node157&#45;&gt;Node12 -->
<g id="edge53" class="edge">
<title>Node157&#45;&gt;Node12</title>
<path fill="none" stroke="midnightblue" d="M565.62,-932.32C548.17,-943.98 522.81,-958.68 498,-965 449.33,-977.39 434.06,-975.73 385,-965 253.04,-936.15 111.03,-850.71 63.8,-820.63"/>
<polygon fill="midnightblue" stroke="midnightblue" points="567.73,-935.12 573.98,-926.56 563.76,-929.35 567.73,-935.12"/>
</g>
<!-- Node158 -->
<g id="node30" class="node">
<title>Node158</title>
<g id="a_node30"><a xlink:href="../../d4/de2/wren__compiler_8c.html#ae4e9f96269b4e830731a0c5fcdb28d97" target="_top" xlink:title=" ">
<polygon fill="white" stroke="black" points="419.5,-916.5 419.5,-937.5 463.5,-937.5 463.5,-916.5 419.5,-916.5"/>
<text text-anchor="middle" x="441.5" y="-923.9" font-family="Helvetica,sans-Serif" font-size="12.00">literal</text>
</a>
</g>
</g>
<!-- Node157&#45;&gt;Node158 -->
<g id="edge56" class="edge">
<title>Node157&#45;&gt;Node158</title>
<path fill="none" stroke="midnightblue" d="M535.89,-919.94C511.08,-921.82 482.77,-923.96 463.89,-925.38"/>
<polygon fill="midnightblue" stroke="midnightblue" points="536.21,-923.43 545.92,-919.18 535.68,-916.45 536.21,-923.43"/>
</g>
<!-- Node158&#45;&gt;Node139 -->
<g id="edge57" class="edge">
<title>Node158&#45;&gt;Node139</title>
<path fill="none" stroke="midnightblue" d="M409.95,-916.5C401.37,-912.71 392.38,-907.89 385,-902 340.21,-866.26 304.72,-805.89 291.54,-781.59"/>
<polygon fill="midnightblue" stroke="midnightblue" points="408.77,-919.8 419.35,-920.33 411.41,-913.32 408.77,-919.8"/>
</g>
<!-- Node159&#45;&gt;Node5 -->
<g id="edge63" class="edge">
<title>Node159&#45;&gt;Node5</title>
<path fill="none" stroke="midnightblue" d="M1231.83,-249.9C1207.34,-269.45 1167.75,-301.06 1147.25,-317.42"/>
<polygon fill="midnightblue" stroke="midnightblue" points="1234.18,-252.5 1239.81,-243.53 1229.81,-247.03 1234.18,-252.5"/>
</g>
<!-- Node159&#45;&gt;Node16 -->
<g id="edge62" class="edge">
<title>Node159&#45;&gt;Node16</title>
<path fill="none" stroke="midnightblue" d="M1215.49,-219.07C1166.6,-202.19 1078.14,-176 1000,-176 1000,-176 1000,-176 440.5,-176 337.41,-176 305.48,-191.91 221,-251 194.75,-269.36 173.69,-301.62 163.92,-318.32"/>
<polygon fill="midnightblue" stroke="midnightblue" points="1214.41,-222.4 1225.01,-222.41 1216.73,-215.8 1214.41,-222.4"/>
</g>
<!-- Node137 -->
<g id="node32" class="node">
<title>Node137</title>
<g id="a_node32"><a xlink:href="../../d4/de2/wren__compiler_8c.html#affafb7a1d6b4eb1e2efd926e875379fb" target="_top" xlink:title=" ">
<polygon fill="white" stroke="black" points="944,-126.5 944,-147.5 1054,-147.5 1054,-126.5 944,-126.5"/>
<text text-anchor="middle" x="999" y="-133.9" font-family="Helvetica,sans-Serif" font-size="12.00">createConstructor</text>
</a>
</g>
</g>
<!-- Node159&#45;&gt;Node137 -->
<g id="edge60" class="edge">
<title>Node159&#45;&gt;Node137</title>
<path fill="none" stroke="midnightblue" d="M1217.47,-217.15C1215.56,-215.84 1213.72,-214.46 1212,-213 1190.87,-195.02 1199.67,-176.47 1176,-162 1139.53,-139.71 1091.01,-134.22 1054.15,-133.88"/>
<polygon fill="midnightblue" stroke="midnightblue" points="1215.83,-220.24 1226.21,-222.36 1219.41,-214.23 1215.83,-220.24"/>
</g>
<!-- Node69 -->
<g id="node33" class="node">
<title>Node69</title>
<g id="a_node33"><a xlink:href="../../d4/de2/wren__compiler_8c.html#aedcc023430c3c9b1891dbdc4f7b8f0b8" target="_top" xlink:title=" ">
<polygon fill="white" stroke="red" points="1090,-88.5 1090,-109.5 1176,-109.5 1176,-88.5 1090,-88.5"/>
<text text-anchor="middle" x="1133" y="-95.9" font-family="Helvetica,sans-Serif" font-size="12.00">wrenCompile</text>
</a>
</g>
</g>
<!-- Node159&#45;&gt;Node69 -->
<g id="edge64" class="edge">
<title>Node159&#45;&gt;Node69</title>
<path fill="none" stroke="midnightblue" d="M1215.84,-216.61C1214.48,-215.48 1213.19,-214.27 1212,-213 1182.89,-181.8 1203.78,-156.38 1176,-124 1171.03,-118.2 1164.36,-113.39 1157.8,-109.59"/>
<polygon fill="midnightblue" stroke="midnightblue" points="1214.02,-219.61 1224.24,-222.38 1217.98,-213.84 1214.02,-219.61"/>
</g>
<!-- Node137&#45;&gt;Node16 -->
<g id="edge61" class="edge">
<title>Node137&#45;&gt;Node16</title>
<path fill="none" stroke="midnightblue" d="M933.91,-137.4C883.94,-137.68 812.81,-138 750.5,-138 750.5,-138 750.5,-138 440.5,-138 342.36,-138 298.56,-101.87 221,-162 169.82,-201.68 160.22,-287.88 158.42,-318.19"/>
<polygon fill="midnightblue" stroke="midnightblue" points="933.95,-140.9 943.93,-137.34 933.91,-133.9 933.95,-140.9"/>
</g>
</g>
</svg>
