<?xml version="1.0" encoding="UTF-8" standalone="no"?>
<!DOCTYPE svg PUBLIC "-//W3C//DTD SVG 1.1//EN"
 "http://www.w3.org/Graphics/SVG/1.1/DTD/svg11.dtd">
<!-- Generated by graphviz version 2.47.3 (20210619.1520)
 -->
<!-- Title: D:/brian/Dev/Eris/ERISCore/lib/SdFat&#45;master/src/FatLib/FatFormatter.cpp Pages: 1 -->
<svg width="343pt" height="230pt"
 viewBox="0.00 0.00 343.00 230.00" xmlns="http://www.w3.org/2000/svg" xmlns:xlink="http://www.w3.org/1999/xlink">
<g id="graph0" class="graph" transform="scale(1 1) rotate(0) translate(4 226)">
<title>D:/brian/Dev/Eris/ERISCore/lib/SdFat&#45;master/src/FatLib/FatFormatter.cpp</title>
<polygon fill="white" stroke="transparent" points="-4,4 -4,-226 339,-226 339,4 -4,4"/>
<!-- Node1 -->
<g id="node1" class="node">
<title>Node1</title>
<g id="a_node1"><a xlink:title=" ">
<polygon fill="#bfbfbf" stroke="black" points="13.5,-174.5 13.5,-221.5 175.5,-221.5 175.5,-174.5 13.5,-174.5"/>
<text text-anchor="start" x="21.5" y="-207.9" font-family="Helvetica,sans-Serif" font-size="12.00">D:/brian/Dev/Eris/ERISCore</text>
<text text-anchor="start" x="21.5" y="-194.9" font-family="Helvetica,sans-Serif" font-size="12.00">/lib/SdFat&#45;master/src/FatLib</text>
<text text-anchor="middle" x="94.5" y="-181.9" font-family="Helvetica,sans-Serif" font-size="12.00">/FatFormatter.cpp</text>
</a>
</g>
</g>
<!-- Node2 -->
<g id="node2" class="node">
<title>Node2</title>
<g id="a_node2"><a xlink:href="../../de/dfa/_fat_lib_8h.html" target="_top" xlink:title=" ">
<polygon fill="white" stroke="black" points="65,-116.5 65,-137.5 124,-137.5 124,-116.5 65,-116.5"/>
<text text-anchor="middle" x="94.5" y="-123.9" font-family="Helvetica,sans-Serif" font-size="12.00">FatLib.h</text>
</a>
</g>
</g>
<!-- Node1&#45;&gt;Node2 -->
<g id="edge1" class="edge">
<title>Node1&#45;&gt;Node2</title>
<path fill="none" stroke="midnightblue" d="M94.5,-174.41C94.5,-165.87 94.5,-156.22 94.5,-147.94"/>
<polygon fill="midnightblue" stroke="midnightblue" points="98,-147.74 94.5,-137.74 91,-147.74 98,-147.74"/>
</g>
<!-- Node3 -->
<g id="node3" class="node">
<title>Node3</title>
<g id="a_node3"><a xlink:href="../../da/d0b/_fat_volume_8h.html" target="_top" xlink:title="FatVolume class.">
<polygon fill="white" stroke="black" points="0,-58.5 0,-79.5 83,-79.5 83,-58.5 0,-58.5"/>
<text text-anchor="middle" x="41.5" y="-65.9" font-family="Helvetica,sans-Serif" font-size="12.00">FatVolume.h</text>
</a>
</g>
</g>
<!-- Node2&#45;&gt;Node3 -->
<g id="edge2" class="edge">
<title>Node2&#45;&gt;Node3</title>
<path fill="none" stroke="midnightblue" d="M85.27,-116.25C77.67,-108.22 66.71,-96.64 57.66,-87.08"/>
<polygon fill="midnightblue" stroke="midnightblue" points="60.04,-84.5 50.63,-79.64 54.96,-89.31 60.04,-84.5"/>
</g>
<!-- Node34 -->
<g id="node5" class="node">
<title>Node34</title>
<g id="a_node5"><a xlink:href="../../d8/d20/_fat_formatter_8h.html" target="_top" xlink:title=" ">
<polygon fill="white" stroke="black" points="101.5,-58.5 101.5,-79.5 195.5,-79.5 195.5,-58.5 101.5,-58.5"/>
<text text-anchor="middle" x="148.5" y="-65.9" font-family="Helvetica,sans-Serif" font-size="12.00">FatFormatter.h</text>
</a>
</g>
</g>
<!-- Node2&#45;&gt;Node34 -->
<g id="edge4" class="edge">
<title>Node2&#45;&gt;Node34</title>
<path fill="none" stroke="midnightblue" d="M103.91,-116.25C111.65,-108.22 122.81,-96.64 132.03,-87.08"/>
<polygon fill="midnightblue" stroke="midnightblue" points="134.78,-89.27 139.2,-79.64 129.74,-84.41 134.78,-89.27"/>
</g>
<!-- Node4 -->
<g id="node4" class="node">
<title>Node4</title>
<g id="a_node4"><a xlink:href="../../d6/d7b/_fat_file_8h.html" target="_top" xlink:title="FatFile class.">
<polygon fill="white" stroke="red" points="10.5,-0.5 10.5,-21.5 72.5,-21.5 72.5,-0.5 10.5,-0.5"/>
<text text-anchor="middle" x="41.5" y="-7.9" font-family="Helvetica,sans-Serif" font-size="12.00">FatFile.h</text>
</a>
</g>
</g>
<!-- Node3&#45;&gt;Node4 -->
<g id="edge3" class="edge">
<title>Node3&#45;&gt;Node4</title>
<path fill="none" stroke="midnightblue" d="M41.5,-58.25C41.5,-50.94 41.5,-40.69 41.5,-31.7"/>
<polygon fill="midnightblue" stroke="midnightblue" points="45,-31.64 41.5,-21.64 38,-31.64 45,-31.64"/>
</g>
<!-- Node16 -->
<g id="node6" class="node">
<title>Node16</title>
<g id="a_node6"><a xlink:href="../../d9/da3/_sys_call_8h.html" target="_top" xlink:title="SysCall class.">
<polygon fill="white" stroke="red" points="103,-0.5 103,-21.5 168,-21.5 168,-0.5 103,-0.5"/>
<text text-anchor="middle" x="135.5" y="-7.9" font-family="Helvetica,sans-Serif" font-size="12.00">SysCall.h</text>
</a>
</g>
</g>
<!-- Node34&#45;&gt;Node16 -->
<g id="edge5" class="edge">
<title>Node34&#45;&gt;Node16</title>
<path fill="none" stroke="midnightblue" d="M146.24,-58.25C144.52,-50.86 142.11,-40.47 140.01,-31.41"/>
<polygon fill="midnightblue" stroke="midnightblue" points="143.41,-30.59 137.74,-21.64 136.59,-32.18 143.41,-30.59"/>
</g>
<!-- Node20 -->
<g id="node7" class="node">
<title>Node20</title>
<g id="a_node7"><a xlink:href="../../d7/df6/_block_device_8h.html" target="_top" xlink:title=" ">
<polygon fill="white" stroke="red" points="186,-0.5 186,-21.5 335,-21.5 335,-0.5 186,-0.5"/>
<text text-anchor="middle" x="260.5" y="-7.9" font-family="Helvetica,sans-Serif" font-size="12.00">../common/BlockDevice.h</text>
</a>
</g>
</g>
<!-- Node34&#45;&gt;Node20 -->
<g id="edge6" class="edge">
<title>Node34&#45;&gt;Node20</title>
<path fill="none" stroke="midnightblue" d="M167.75,-58.37C185.57,-49.46 212.27,-36.11 232.46,-26.02"/>
<polygon fill="midnightblue" stroke="midnightblue" points="234.12,-29.1 241.5,-21.5 230.99,-22.84 234.12,-29.1"/>
</g>
</g>
</svg>
