<?xml version="1.0" encoding="UTF-8" standalone="no"?>
<!DOCTYPE svg PUBLIC "-//W3C//DTD SVG 1.1//EN"
 "http://www.w3.org/Graphics/SVG/1.1/DTD/svg11.dtd">
<!-- Generated by graphviz version 2.47.3 (20210619.1520)
 -->
<!-- Title: erisAudioInputI2SOct Pages: 1 -->
<svg width="316pt" height="238pt"
 viewBox="0.00 0.00 316.00 238.00" xmlns="http://www.w3.org/2000/svg" xmlns:xlink="http://www.w3.org/1999/xlink">
<g id="graph0" class="graph" transform="scale(1 1) rotate(0) translate(4 234)">
<title>erisAudioInputI2SOct</title>
<!-- Node1 -->
<g id="node1" class="node">
<title>Node1</title>
<g id="a_node1"><a xlink:title=" ">
<polygon fill="#bfbfbf" stroke="black" points="30,-0.5 30,-96.5 218,-96.5 218,-0.5 30,-0.5"/>
<text text-anchor="middle" x="124" y="-79.7" font-family="Helvetica,sans-Serif" font-size="16.00">erisAudioInputI2SOct</text>
<polyline fill="none" stroke="black" points="30,-70.5 218,-70.5 "/>
<text text-anchor="middle" x="124" y="-53.7" font-family="Helvetica,sans-Serif" font-size="16.00"> </text>
<polyline fill="none" stroke="black" points="30,-44.5 218,-44.5 "/>
<text text-anchor="start" x="38" y="-27.7" font-family="Helvetica,sans-Serif" font-size="16.00">+ erisAudioInputI2SOct()</text>
<text text-anchor="start" x="38" y="-9.7" font-family="Helvetica,sans-Serif" font-size="16.00">+ void update()</text>
</a>
</g>
</g>
<!-- Node2 -->
<g id="node2" class="node">
<title>Node2</title>
<g id="a_node2"><a xlink:href="../../df/d3d/class_audio_input_i2_s_oct.html" target="_top" xlink:title=" ">
<polygon fill="none" stroke="black" points="0,-151.5 0,-229.5 138,-229.5 138,-151.5 0,-151.5"/>
<text text-anchor="middle" x="69" y="-212.7" font-family="Helvetica,sans-Serif" font-size="16.00">AudioInputI2SOct</text>
<polyline fill="none" stroke="black" points="0,-203.5 138,-203.5 "/>
<text text-anchor="middle" x="69" y="-186.7" font-family="Helvetica,sans-Serif" font-size="16.00"> </text>
<polyline fill="none" stroke="black" points="0,-177.5 138,-177.5 "/>
<text text-anchor="middle" x="69" y="-160.7" font-family="Helvetica,sans-Serif" font-size="16.00"> </text>
</a>
</g>
</g>
<!-- Node2&#45;&gt;Node1 -->
<g id="edge1" class="edge">
<title>Node2&#45;&gt;Node1</title>
<path fill="none" stroke="midnightblue" d="M87.7,-141.9C93.43,-127.31 99.73,-111.27 105.46,-96.7"/>
<polygon fill="none" stroke="midnightblue" points="84.43,-140.66 84.03,-151.24 90.94,-143.22 84.43,-140.66"/>
</g>
<!-- Node3 -->
<g id="node3" class="node">
<title>Node3</title>
<g id="a_node3"><a xlink:title=" ">
<polygon fill="none" stroke="#bfbfbf" points="156.5,-151.5 156.5,-229.5 203.5,-229.5 203.5,-151.5 156.5,-151.5"/>
<text text-anchor="middle" x="180" y="-212.7" font-family="Helvetica,sans-Serif" font-size="16.00">char</text>
<polyline fill="none" stroke="#bfbfbf" points="156.5,-203.5 203.5,-203.5 "/>
<text text-anchor="middle" x="180" y="-186.7" font-family="Helvetica,sans-Serif" font-size="16.00"> </text>
<polyline fill="none" stroke="#bfbfbf" points="156.5,-177.5 203.5,-177.5 "/>
<text text-anchor="middle" x="180" y="-160.7" font-family="Helvetica,sans-Serif" font-size="16.00"> </text>
</a>
</g>
</g>
<!-- Node3&#45;&gt;Node1 -->
<g id="edge2" class="edge">
<title>Node3&#45;&gt;Node1</title>
<path fill="none" stroke="#404040" d="M164.7,-151.24C159.38,-137.96 153.29,-122.73 147.47,-108.18"/>
<polygon fill="none" stroke="#404040" points="147.34,-107.84 141.4,-103.76 142.88,-96.7 148.82,-100.79 147.34,-107.84"/>
<text text-anchor="middle" x="232.5" y="-120.2" font-family="Helvetica,sans-Serif" font-size="16.00"> +short_name_lookup</text>
</g>
</g>
</svg>
