<?xml version="1.0" encoding="UTF-8" standalone="no"?>
<!DOCTYPE svg PUBLIC "-//W3C//DTD SVG 1.1//EN"
 "http://www.w3.org/Graphics/SVG/1.1/DTD/svg11.dtd">
<!-- Generated by graphviz version 2.47.3 (20210619.1520)
 -->
<!-- Title: ERISCore/lib/SdFat&#45;master/src/SdFat.h Pages: 1 -->
<svg width="1482pt" height="443pt"
 viewBox="0.00 0.00 1482.10 443.00" xmlns="http://www.w3.org/2000/svg" xmlns:xlink="http://www.w3.org/1999/xlink">
<g id="graph0" class="graph" transform="scale(1 1) rotate(0) translate(4 439)">
<title>ERISCore/lib/SdFat&#45;master/src/SdFat.h</title>
<polygon fill="white" stroke="transparent" points="-4,4 -4,-439 1478.1,-439 1478.1,4 -4,4"/>
<!-- Node1 -->
<g id="node1" class="node">
<title>Node1</title>
<g id="a_node1"><a xlink:title="main SdFs include file.">
<polygon fill="#bfbfbf" stroke="black" points="1296,-400.5 1296,-434.5 1416,-434.5 1416,-400.5 1296,-400.5"/>
<text text-anchor="start" x="1304" y="-420.9" font-family="Helvetica,sans-Serif" font-size="12.00">ERISCore/lib/SdFat</text>
<text text-anchor="middle" x="1356" y="-407.9" font-family="Helvetica,sans-Serif" font-size="12.00">&#45;master/src/SdFat.h</text>
</a>
</g>
</g>
<!-- Node2 -->
<g id="node2" class="node">
<title>Node2</title>
<g id="a_node2"><a xlink:href="../../d2/dda/_i_l_i9341__t3___e_r_i_s_8h.html" target="_top" xlink:title=" ">
<polygon fill="white" stroke="black" points="918.5,-329.5 918.5,-363.5 1069.5,-363.5 1069.5,-329.5 918.5,-329.5"/>
<text text-anchor="start" x="926.5" y="-349.9" font-family="Helvetica,sans-Serif" font-size="12.00">ERISCore/include/ILI9341</text>
<text text-anchor="middle" x="994" y="-336.9" font-family="Helvetica,sans-Serif" font-size="12.00">_t3_ERIS.h</text>
</a>
</g>
</g>
<!-- Node1&#45;&gt;Node2 -->
<g id="edge1" class="edge">
<title>Node1&#45;&gt;Node2</title>
<path fill="none" stroke="midnightblue" d="M1285.72,-403.1C1223.66,-391.28 1133.39,-374.07 1069.74,-361.94"/>
<polygon fill="midnightblue" stroke="midnightblue" points="1285.34,-406.59 1295.82,-405.03 1286.65,-399.72 1285.34,-406.59"/>
</g>
<!-- Node11 -->
<g id="node11" class="node">
<title>Node11</title>
<g id="a_node11"><a xlink:href="../../d6/dd8/_eris_core_8cpp.html" target="_top" xlink:title=" ">
<polygon fill="white" stroke="black" points="936.5,-0.5 936.5,-21.5 1097.5,-21.5 1097.5,-0.5 936.5,-0.5"/>
<text text-anchor="middle" x="1017" y="-7.9" font-family="Helvetica,sans-Serif" font-size="12.00">ERISCore/src/ErisCore.cpp</text>
</a>
</g>
</g>
<!-- Node1&#45;&gt;Node11 -->
<g id="edge29" class="edge">
<title>Node1&#45;&gt;Node11</title>
<path fill="none" stroke="midnightblue" d="M1389.31,-394.21C1421.69,-369.59 1466,-326.72 1466,-276.5 1466,-276.5 1466,-276.5 1466,-145.5 1466,-128.34 1517.28,-126.1 1359,-58 1313.39,-38.38 1183.47,-24.88 1097.54,-17.8"/>
<polygon fill="midnightblue" stroke="midnightblue" points="1386.94,-391.61 1380.96,-400.36 1391.09,-397.25 1386.94,-391.61"/>
</g>
<!-- Node15 -->
<g id="node15" class="node">
<title>Node15</title>
<g id="a_node15"><a xlink:href="../../db/d6b/app_serial_command_interface_8h.html" target="_top" xlink:title=" ">
<polygon fill="white" stroke="black" points="1274,-129.5 1274,-163.5 1438,-163.5 1438,-129.5 1274,-129.5"/>
<text text-anchor="start" x="1282" y="-149.9" font-family="Helvetica,sans-Serif" font-size="12.00">ERISCore/include/appSerial</text>
<text text-anchor="middle" x="1356" y="-136.9" font-family="Helvetica,sans-Serif" font-size="12.00">CommandInterface.h</text>
</a>
</g>
</g>
<!-- Node1&#45;&gt;Node15 -->
<g id="edge30" class="edge">
<title>Node1&#45;&gt;Node15</title>
<path fill="none" stroke="midnightblue" d="M1356,-390.14C1356,-334.97 1356,-208.74 1356,-163.78"/>
<polygon fill="midnightblue" stroke="midnightblue" points="1352.5,-390.48 1356,-400.48 1359.5,-390.48 1352.5,-390.48"/>
</g>
<!-- Node3 -->
<g id="node3" class="node">
<title>Node3</title>
<g id="a_node3"><a xlink:href="../../dc/d40/_app_manager_8cpp.html" target="_top" xlink:title=" ">
<polygon fill="white" stroke="black" points="0,-136 0,-157 182,-157 182,-136 0,-136"/>
<text text-anchor="middle" x="91" y="-143.4" font-family="Helvetica,sans-Serif" font-size="12.00">ERISCore/src/AppManager.cpp</text>
</a>
</g>
</g>
<!-- Node2&#45;&gt;Node3 -->
<g id="edge2" class="edge">
<title>Node2&#45;&gt;Node3</title>
<path fill="none" stroke="midnightblue" d="M911.1,-327.32C724.28,-286.36 275.71,-188 134.4,-157.02"/>
<polygon fill="midnightblue" stroke="midnightblue" points="910.35,-330.74 920.87,-329.46 911.85,-323.9 910.35,-330.74"/>
</g>
<!-- Node4 -->
<g id="node4" class="node">
<title>Node4</title>
<g id="a_node4"><a xlink:href="../../d4/df8/_i_l_i9341__t3___e_r_i_s_8cpp.html" target="_top" xlink:title=" ">
<polygon fill="white" stroke="black" points="836,-258.5 836,-292.5 966,-292.5 966,-258.5 836,-258.5"/>
<text text-anchor="start" x="844" y="-278.9" font-family="Helvetica,sans-Serif" font-size="12.00">ERISCore/src/ILI9341</text>
<text text-anchor="middle" x="901" y="-265.9" font-family="Helvetica,sans-Serif" font-size="12.00">_t3_ERIS.cpp</text>
</a>
</g>
</g>
<!-- Node2&#45;&gt;Node4 -->
<g id="edge3" class="edge">
<title>Node2&#45;&gt;Node4</title>
<path fill="none" stroke="midnightblue" d="M964.36,-323.51C950.86,-313.49 935.16,-301.85 922.78,-292.66"/>
<polygon fill="midnightblue" stroke="midnightblue" points="962.31,-326.35 972.43,-329.5 966.48,-320.73 962.31,-326.35"/>
</g>
<!-- Node5 -->
<g id="node5" class="node">
<title>Node5</title>
<g id="a_node5"><a xlink:href="../../d9/d3e/_app_base_class_8h.html" target="_top" xlink:title=" ">
<polygon fill="white" stroke="black" points="1029,-258.5 1029,-292.5 1191,-292.5 1191,-258.5 1029,-258.5"/>
<text text-anchor="start" x="1037" y="-278.9" font-family="Helvetica,sans-Serif" font-size="12.00">ERISCore/include/AppBase</text>
<text text-anchor="middle" x="1110" y="-265.9" font-family="Helvetica,sans-Serif" font-size="12.00">Class.h</text>
</a>
</g>
</g>
<!-- Node2&#45;&gt;Node5 -->
<g id="edge4" class="edge">
<title>Node2&#45;&gt;Node5</title>
<path fill="none" stroke="midnightblue" d="M1029.55,-324.35C1046.7,-314.15 1066.95,-302.11 1082.84,-292.66"/>
<polygon fill="midnightblue" stroke="midnightblue" points="1027.71,-321.38 1020.9,-329.5 1031.29,-327.39 1027.71,-321.38"/>
</g>
<!-- Node7 -->
<g id="node7" class="node">
<title>Node7</title>
<g id="a_node7"><a xlink:href="../../df/d72/_app_manager_8h.html" target="_top" xlink:title=" ">
<polygon fill="white" stroke="black" points="863,-200.5 863,-221.5 1053,-221.5 1053,-200.5 863,-200.5"/>
<text text-anchor="middle" x="958" y="-207.9" font-family="Helvetica,sans-Serif" font-size="12.00">ERISCore/include/AppManager.h</text>
</a>
</g>
</g>
<!-- Node2&#45;&gt;Node7 -->
<g id="edge28" class="edge">
<title>Node2&#45;&gt;Node7</title>
<path fill="none" stroke="midnightblue" d="M989.28,-319.15C985.9,-301.66 980.91,-278.27 975,-258 971.28,-245.25 965.78,-230.96 962.05,-221.74"/>
<polygon fill="midnightblue" stroke="midnightblue" points="985.88,-320.02 991.17,-329.2 992.76,-318.73 985.88,-320.02"/>
</g>
<!-- Node6 -->
<g id="node6" class="node">
<title>Node6</title>
<g id="a_node6"><a xlink:href="../../d4/db1/_app_base_class_8cpp.html" target="_top" xlink:title=" ">
<polygon fill="white" stroke="black" points="1062,-136 1062,-157 1256,-157 1256,-136 1062,-136"/>
<text text-anchor="middle" x="1159" y="-143.4" font-family="Helvetica,sans-Serif" font-size="12.00">ERISCore/src/AppBaseClass.cpp</text>
</a>
</g>
</g>
<!-- Node5&#45;&gt;Node6 -->
<g id="edge5" class="edge">
<title>Node5&#45;&gt;Node6</title>
<path fill="none" stroke="midnightblue" d="M1119.92,-248.8C1130.81,-220.56 1147.75,-176.66 1155.23,-157.27"/>
<polygon fill="midnightblue" stroke="midnightblue" points="1116.54,-247.83 1116.21,-258.42 1123.07,-250.35 1116.54,-247.83"/>
</g>
<!-- Node5&#45;&gt;Node7 -->
<g id="edge6" class="edge">
<title>Node5&#45;&gt;Node7</title>
<path fill="none" stroke="midnightblue" d="M1061.27,-254.46C1034.53,-243.47 1002.59,-230.34 981.39,-221.62"/>
<polygon fill="midnightblue" stroke="midnightblue" points="1060.28,-257.84 1070.86,-258.4 1062.94,-251.36 1060.28,-257.84"/>
</g>
<!-- Node5&#45;&gt;Node15 -->
<g id="edge27" class="edge">
<title>Node5&#45;&gt;Node15</title>
<path fill="none" stroke="midnightblue" d="M1150.17,-253.76C1198.98,-228.56 1280.3,-186.58 1324.71,-163.65"/>
<polygon fill="midnightblue" stroke="midnightblue" points="1148.44,-250.72 1141.16,-258.42 1151.65,-256.94 1148.44,-250.72"/>
</g>
<!-- Node7&#45;&gt;Node3 -->
<g id="edge9" class="edge">
<title>Node7&#45;&gt;Node3</title>
<path fill="none" stroke="midnightblue" d="M852.33,-206.81C704.97,-201.64 429.54,-189.34 196,-164 179.4,-162.2 161.41,-159.61 145.09,-157.01"/>
<polygon fill="midnightblue" stroke="midnightblue" points="852.6,-210.32 862.72,-207.17 852.85,-203.33 852.6,-210.32"/>
</g>
<!-- Node7&#45;&gt;Node6 -->
<g id="edge7" class="edge">
<title>Node7&#45;&gt;Node6</title>
<path fill="none" stroke="midnightblue" d="M998.78,-197.32C1037.13,-185.4 1093.68,-167.81 1128.33,-157.04"/>
<polygon fill="midnightblue" stroke="midnightblue" points="997.48,-194.06 988.97,-200.37 999.55,-200.74 997.48,-194.06"/>
</g>
<!-- Node8 -->
<g id="node8" class="node">
<title>Node8</title>
<g id="a_node8"><a xlink:href="../../d6/d0f/app_serial_command_interface_8cpp.html" target="_top" xlink:title=" ">
<polygon fill="white" stroke="black" points="1130.5,-58.5 1130.5,-92.5 1327.5,-92.5 1327.5,-58.5 1130.5,-58.5"/>
<text text-anchor="start" x="1138.5" y="-78.9" font-family="Helvetica,sans-Serif" font-size="12.00">ERISCore/src/appSerialCommand</text>
<text text-anchor="middle" x="1229" y="-65.9" font-family="Helvetica,sans-Serif" font-size="12.00">Interface.cpp</text>
</a>
</g>
</g>
<!-- Node7&#45;&gt;Node8 -->
<g id="edge8" class="edge">
<title>Node7&#45;&gt;Node8</title>
<path fill="none" stroke="midnightblue" d="M973.92,-192.68C991.6,-174.41 1021.79,-145.97 1053,-129 1082.97,-112.7 1118.64,-100.86 1150,-92.59"/>
<polygon fill="midnightblue" stroke="midnightblue" points="971.06,-190.61 966.72,-200.28 976.14,-195.43 971.06,-190.61"/>
</g>
<!-- Node9 -->
<g id="node9" class="node">
<title>Node9</title>
<g id="a_node9"><a xlink:href="../../d8/d1f/app_scope_8h.html" target="_top" xlink:title=" ">
<polygon fill="white" stroke="black" points="238,-136 238,-157 414,-157 414,-136 238,-136"/>
<text text-anchor="middle" x="326" y="-143.4" font-family="Helvetica,sans-Serif" font-size="12.00">ERISCore/include/appScope.h</text>
</a>
</g>
</g>
<!-- Node7&#45;&gt;Node9 -->
<g id="edge10" class="edge">
<title>Node7&#45;&gt;Node9</title>
<path fill="none" stroke="midnightblue" d="M852.3,-203.5C744.18,-196.25 571.48,-182.98 423,-164 408.09,-162.09 391.97,-159.55 377.23,-157.03"/>
<polygon fill="midnightblue" stroke="midnightblue" points="852.34,-207.01 862.55,-204.18 852.81,-200.03 852.34,-207.01"/>
</g>
<!-- Node10 -->
<g id="node10" class="node">
<title>Node10</title>
<g id="a_node10"><a xlink:href="../../d9/db6/_app_audio_to_polyphonic_8h.html" target="_top" xlink:title="Application Example.">
<polygon fill="white" stroke="black" points="476.5,-58.5 476.5,-92.5 641.5,-92.5 641.5,-58.5 476.5,-58.5"/>
<text text-anchor="start" x="484.5" y="-78.9" font-family="Helvetica,sans-Serif" font-size="12.00">ERISCore/include/AppAudio</text>
<text text-anchor="middle" x="559" y="-65.9" font-family="Helvetica,sans-Serif" font-size="12.00">ToPolyphonic.h</text>
</a>
</g>
</g>
<!-- Node7&#45;&gt;Node10 -->
<g id="edge26" class="edge">
<title>Node7&#45;&gt;Node10</title>
<path fill="none" stroke="midnightblue" d="M852.65,-207.11C655.79,-201.2 250,-186.36 229,-164 218.35,-152.66 218.9,-140.83 229,-129 260.16,-92.49 388.95,-81.24 476.12,-77.85"/>
<polygon fill="midnightblue" stroke="midnightblue" points="852.62,-210.61 862.72,-207.41 852.83,-203.62 852.62,-210.61"/>
</g>
<!-- Node12 -->
<g id="node12" class="node">
<title>Node12</title>
<g id="a_node12"><a xlink:href="../../d4/d75/app_c_q_t_8h.html" target="_top" xlink:title=" ">
<polygon fill="white" stroke="black" points="432.5,-136 432.5,-157 599.5,-157 599.5,-136 432.5,-136"/>
<text text-anchor="middle" x="516" y="-143.4" font-family="Helvetica,sans-Serif" font-size="12.00">ERISCore/include/appCQT.h</text>
</a>
</g>
</g>
<!-- Node7&#45;&gt;Node12 -->
<g id="edge13" class="edge">
<title>Node7&#45;&gt;Node12</title>
<path fill="none" stroke="midnightblue" d="M867,-199.22C796.26,-190.56 695.74,-177.63 608,-164 594.53,-161.91 580,-159.41 566.54,-157"/>
<polygon fill="midnightblue" stroke="midnightblue" points="866.87,-202.73 877.22,-200.47 867.72,-195.79 866.87,-202.73"/>
</g>
<!-- Node13 -->
<g id="node13" class="node">
<title>Node13</title>
<g id="a_node13"><a xlink:href="../../dc/ddf/control_button_8h.html" target="_top" xlink:title=" ">
<polygon fill="white" stroke="black" points="617.5,-129.5 617.5,-163.5 764.5,-163.5 764.5,-129.5 617.5,-129.5"/>
<text text-anchor="start" x="625.5" y="-149.9" font-family="Helvetica,sans-Serif" font-size="12.00">ERISCore/include/control</text>
<text text-anchor="middle" x="691" y="-136.9" font-family="Helvetica,sans-Serif" font-size="12.00">Button.h</text>
</a>
</g>
</g>
<!-- Node7&#45;&gt;Node13 -->
<g id="edge15" class="edge">
<title>Node7&#45;&gt;Node13</title>
<path fill="none" stroke="midnightblue" d="M907.19,-198.11C865.37,-188.32 805.68,-174.34 759.61,-163.56"/>
<polygon fill="midnightblue" stroke="midnightblue" points="906.62,-201.57 917.16,-200.44 908.22,-194.75 906.62,-201.57"/>
</g>
<!-- Node14 -->
<g id="node14" class="node">
<title>Node14</title>
<g id="a_node14"><a xlink:href="../../dd/d93/app_reprogram_8h.html" target="_top" xlink:title=" ">
<polygon fill="white" stroke="black" points="702.5,-65 702.5,-86 903.5,-86 903.5,-65 702.5,-65"/>
<text text-anchor="middle" x="803" y="-72.4" font-family="Helvetica,sans-Serif" font-size="12.00">ERISCore/include/appReprogram.h</text>
</a>
</g>
</g>
<!-- Node7&#45;&gt;Node14 -->
<g id="edge17" class="edge">
<title>Node7&#45;&gt;Node14</title>
<path fill="none" stroke="midnightblue" d="M958.34,-190.28C957.6,-172.28 953.78,-145.97 939,-129 919.31,-106.38 888.7,-93.45 861.51,-86.09"/>
<polygon fill="midnightblue" stroke="midnightblue" points="954.84,-190.53 958.46,-200.49 961.84,-190.45 954.84,-190.53"/>
</g>
<!-- Node7&#45;&gt;Node15 -->
<g id="edge19" class="edge">
<title>Node7&#45;&gt;Node15</title>
<path fill="none" stroke="midnightblue" d="M1035.59,-199.05C1097.72,-190.11 1187.06,-176.9 1265,-164 1267.85,-163.53 1270.75,-163.04 1273.68,-162.54"/>
<polygon fill="midnightblue" stroke="midnightblue" points="1034.87,-195.61 1025.47,-200.5 1035.87,-202.54 1034.87,-195.61"/>
</g>
<!-- Node16 -->
<g id="node16" class="node">
<title>Node16</title>
<g id="a_node16"><a xlink:href="../../d3/d0e/app_template_8h.html" target="_top" xlink:title=" ">
<polygon fill="white" stroke="black" points="921.5,-65 921.5,-86 1112.5,-86 1112.5,-65 921.5,-65"/>
<text text-anchor="middle" x="1017" y="-72.4" font-family="Helvetica,sans-Serif" font-size="12.00">ERISCore/include/appTemplate.h</text>
</a>
</g>
</g>
<!-- Node7&#45;&gt;Node16 -->
<g id="edge22" class="edge">
<title>Node7&#45;&gt;Node16</title>
<path fill="none" stroke="midnightblue" d="M966.41,-190.97C979.22,-161.99 1003.14,-107.87 1012.8,-86.01"/>
<polygon fill="midnightblue" stroke="midnightblue" points="963.08,-189.84 962.24,-200.4 969.49,-192.67 963.08,-189.84"/>
</g>
<!-- Node17 -->
<g id="node17" class="node">
<title>Node17</title>
<g id="a_node17"><a xlink:href="../../d4/d50/control_slider_8h.html" target="_top" xlink:title=" ">
<polygon fill="white" stroke="black" points="782.5,-129.5 782.5,-163.5 929.5,-163.5 929.5,-129.5 782.5,-129.5"/>
<text text-anchor="start" x="790.5" y="-149.9" font-family="Helvetica,sans-Serif" font-size="12.00">ERISCore/include/control</text>
<text text-anchor="middle" x="856" y="-136.9" font-family="Helvetica,sans-Serif" font-size="12.00">Slider.h</text>
</a>
</g>
</g>
<!-- Node7&#45;&gt;Node17 -->
<g id="edge24" class="edge">
<title>Node7&#45;&gt;Node17</title>
<path fill="none" stroke="midnightblue" d="M933.52,-195C918.01,-185.49 897.96,-173.21 882.14,-163.51"/>
<polygon fill="midnightblue" stroke="midnightblue" points="931.71,-197.99 942.06,-200.23 935.36,-192.03 931.71,-197.99"/>
</g>
<!-- Node9&#45;&gt;Node10 -->
<g id="edge11" class="edge">
<title>Node9&#45;&gt;Node10</title>
<path fill="none" stroke="midnightblue" d="M368.21,-133C406.55,-121.65 463.31,-104.84 504.95,-92.51"/>
<polygon fill="midnightblue" stroke="midnightblue" points="366.99,-129.71 358.4,-135.91 368.98,-136.42 366.99,-129.71"/>
</g>
<!-- Node10&#45;&gt;Node11 -->
<g id="edge12" class="edge">
<title>Node10&#45;&gt;Node11</title>
<path fill="none" stroke="midnightblue" d="M651.6,-61.86C739.06,-49.93 868.29,-32.29 947.32,-21.51"/>
<polygon fill="midnightblue" stroke="midnightblue" points="651.11,-58.4 641.68,-63.22 652.06,-65.33 651.11,-58.4"/>
</g>
<!-- Node12&#45;&gt;Node10 -->
<g id="edge14" class="edge">
<title>Node12&#45;&gt;Node10</title>
<path fill="none" stroke="midnightblue" d="M527.34,-127.3C534.05,-116.54 542.47,-103.02 548.94,-92.64"/>
<polygon fill="midnightblue" stroke="midnightblue" points="524.3,-125.57 521.98,-135.91 530.24,-129.27 524.3,-125.57"/>
</g>
<!-- Node13&#45;&gt;Node10 -->
<g id="edge16" class="edge">
<title>Node13&#45;&gt;Node10</title>
<path fill="none" stroke="midnightblue" d="M651.35,-124.77C631.66,-114.48 608.24,-102.24 589.91,-92.66"/>
<polygon fill="midnightblue" stroke="midnightblue" points="649.9,-127.97 660.38,-129.5 653.14,-121.76 649.9,-127.97"/>
</g>
<!-- Node14&#45;&gt;Node11 -->
<g id="edge18" class="edge">
<title>Node14&#45;&gt;Node11</title>
<path fill="none" stroke="midnightblue" d="M845.64,-62.05C886.48,-50.12 947.22,-32.38 984.35,-21.54"/>
<polygon fill="midnightblue" stroke="midnightblue" points="844.59,-58.71 835.97,-64.87 846.55,-65.43 844.59,-58.71"/>
</g>
<!-- Node15&#45;&gt;Node8 -->
<g id="edge20" class="edge">
<title>Node15&#45;&gt;Node8</title>
<path fill="none" stroke="midnightblue" d="M1317.59,-124.63C1298.71,-114.37 1276.29,-102.2 1258.74,-92.66"/>
<polygon fill="midnightblue" stroke="midnightblue" points="1316.09,-127.8 1326.54,-129.5 1319.43,-121.65 1316.09,-127.8"/>
</g>
<!-- Node15&#45;&gt;Node11 -->
<g id="edge21" class="edge">
<title>Node15&#45;&gt;Node11</title>
<path fill="none" stroke="midnightblue" d="M1357.69,-119.13C1357.41,-99.44 1353.51,-73.38 1337,-58 1303.27,-26.58 1181.09,-16.55 1097.85,-13.38"/>
<polygon fill="midnightblue" stroke="midnightblue" points="1354.18,-119.25 1357.53,-129.31 1361.18,-119.36 1354.18,-119.25"/>
</g>
<!-- Node16&#45;&gt;Node11 -->
<g id="edge23" class="edge">
<title>Node16&#45;&gt;Node11</title>
<path fill="none" stroke="midnightblue" d="M1017,-54.43C1017,-43.56 1017,-30.61 1017,-21.9"/>
<polygon fill="midnightblue" stroke="midnightblue" points="1013.5,-54.73 1017,-64.73 1020.5,-54.73 1013.5,-54.73"/>
</g>
<!-- Node17&#45;&gt;Node10 -->
<g id="edge25" class="edge">
<title>Node17&#45;&gt;Node10</title>
<path fill="none" stroke="midnightblue" d="M777.1,-127.17C730.71,-116.39 672.59,-102.89 628.02,-92.54"/>
<polygon fill="midnightblue" stroke="midnightblue" points="776.58,-130.64 787.12,-129.5 778.17,-123.82 776.58,-130.64"/>
</g>
</g>
</svg>
