<?xml version="1.0" encoding="UTF-8" standalone="no"?>
<!DOCTYPE svg PUBLIC "-//W3C//DTD SVG 1.1//EN"
 "http://www.w3.org/Graphics/SVG/1.1/DTD/svg11.dtd">
<!-- Generated by graphviz version 2.47.3 (20210619.1520)
 -->
<!-- Title: Graphical Class Hierarchy Pages: 1 -->
<svg width="358pt" height="364pt"
 viewBox="0.00 0.00 358.00 364.00" xmlns="http://www.w3.org/2000/svg" xmlns:xlink="http://www.w3.org/1999/xlink">
<g id="graph0" class="graph" transform="scale(1 1) rotate(0) translate(4 360)">
<title>Graphical Class Hierarchy</title>
<polygon fill="white" stroke="transparent" points="-4,4 -4,-360 354,-360 354,4 -4,4"/>
<!-- Node171 -->
<g id="node1" class="node">
<title>Node171</title>
<g id="a_node1"><a xlink:title=" ">
<polygon fill="white" stroke="#bfbfbf" points="7.5,-310.5 7.5,-331.5 71.5,-331.5 71.5,-310.5 7.5,-310.5"/>
<text text-anchor="middle" x="39.5" y="-317.9" font-family="Helvetica,sans-Serif" font-size="12.00">BaseFile</text>
</a>
</g>
</g>
<!-- Node0 -->
<g id="node2" class="node">
<title>Node0</title>
<g id="a_node2"><a xlink:href="d0/d9f/class_print_file.html" target="_top" xlink:title="PrintFile class.">
<polygon fill="white" stroke="black" points="125.5,-334.5 125.5,-355.5 252.5,-355.5 252.5,-334.5 125.5,-334.5"/>
<text text-anchor="middle" x="189" y="-341.9" font-family="Helvetica,sans-Serif" font-size="12.00">PrintFile&lt; BaseFile &gt;</text>
</a>
</g>
</g>
<!-- Node171&#45;&gt;Node0 -->
<g id="edge1" class="edge">
<title>Node171&#45;&gt;Node0</title>
<path fill="none" stroke="midnightblue" d="M81.75,-327.71C95.31,-329.92 110.7,-332.42 125.48,-334.83"/>
<polygon fill="midnightblue" stroke="midnightblue" points="82.21,-324.24 71.78,-326.09 81.09,-331.15 82.21,-324.24"/>
</g>
<!-- Node173 -->
<g id="node3" class="node">
<title>Node173</title>
<g id="a_node3"><a xlink:href="da/dc7/class_stream_file.html" target="_top" xlink:title="StreamFile class.">
<polygon fill="white" stroke="black" points="122,-281 122,-315 256,-315 256,-281 122,-281"/>
<text text-anchor="start" x="130" y="-301.4" font-family="Helvetica,sans-Serif" font-size="12.00">StreamFile&lt; BaseFile,</text>
<text text-anchor="middle" x="189" y="-288.4" font-family="Helvetica,sans-Serif" font-size="12.00"> PosType &gt;</text>
</a>
</g>
</g>
<!-- Node171&#45;&gt;Node173 -->
<g id="edge2" class="edge">
<title>Node171&#45;&gt;Node173</title>
<path fill="none" stroke="midnightblue" d="M81.83,-314.56C94.26,-312.62 108.24,-310.44 121.86,-308.31"/>
<polygon fill="midnightblue" stroke="midnightblue" points="81.12,-311.12 71.78,-316.12 82.2,-318.04 81.12,-311.12"/>
</g>
<!-- Node202 -->
<g id="node4" class="node">
<title>Node202</title>
<g id="a_node4"><a xlink:href="d5/d14/class_ex_fat_file.html" target="_top" xlink:title="Basic file class.">
<polygon fill="white" stroke="black" points="6,-234.5 6,-255.5 73,-255.5 73,-234.5 6,-234.5"/>
<text text-anchor="middle" x="39.5" y="-241.9" font-family="Helvetica,sans-Serif" font-size="12.00">ExFatFile</text>
</a>
</g>
</g>
<!-- Node203 -->
<g id="node5" class="node">
<title>Node203</title>
<g id="a_node5"><a xlink:href="da/dc7/class_stream_file.html" target="_top" xlink:title=" ">
<polygon fill="white" stroke="black" points="120.5,-228 120.5,-262 257.5,-262 257.5,-228 120.5,-228"/>
<text text-anchor="start" x="128.5" y="-248.4" font-family="Helvetica,sans-Serif" font-size="12.00">StreamFile&lt; ExFatFile,</text>
<text text-anchor="middle" x="189" y="-235.4" font-family="Helvetica,sans-Serif" font-size="12.00"> uint64_t &gt;</text>
</a>
</g>
</g>
<!-- Node202&#45;&gt;Node203 -->
<g id="edge3" class="edge">
<title>Node202&#45;&gt;Node203</title>
<path fill="none" stroke="midnightblue" d="M83.45,-245C95,-245 107.77,-245 120.31,-245"/>
<polygon fill="midnightblue" stroke="midnightblue" points="83.24,-241.5 73.24,-245 83.23,-248.5 83.24,-241.5"/>
</g>
<!-- Node204 -->
<g id="node6" class="node">
<title>Node204</title>
<g id="a_node6"><a xlink:href="db/d75/class_ex_file.html" target="_top" xlink:title="exFAT file with Arduino Stream.">
<polygon fill="white" stroke="black" points="299.5,-234.5 299.5,-255.5 349.5,-255.5 349.5,-234.5 299.5,-234.5"/>
<text text-anchor="middle" x="324.5" y="-241.9" font-family="Helvetica,sans-Serif" font-size="12.00">ExFile</text>
</a>
</g>
</g>
<!-- Node203&#45;&gt;Node204 -->
<g id="edge4" class="edge">
<title>Node203&#45;&gt;Node204</title>
<path fill="none" stroke="midnightblue" d="M267.69,-245C279.15,-245 290.18,-245 299.35,-245"/>
<polygon fill="midnightblue" stroke="midnightblue" points="267.53,-241.5 257.53,-245 267.53,-248.5 267.53,-241.5"/>
</g>
<!-- Node210 -->
<g id="node7" class="node">
<title>Node210</title>
<g id="a_node7"><a xlink:href="d3/d51/class_fat_file.html" target="_top" xlink:title="Basic file class.">
<polygon fill="white" stroke="black" points="13,-100.5 13,-121.5 66,-121.5 66,-100.5 13,-100.5"/>
<text text-anchor="middle" x="39.5" y="-107.9" font-family="Helvetica,sans-Serif" font-size="12.00">FatFile</text>
</a>
</g>
</g>
<!-- Node211 -->
<g id="node8" class="node">
<title>Node211</title>
<g id="a_node8"><a xlink:href="da/dc7/class_stream_file.html" target="_top" xlink:title=" ">
<polygon fill="white" stroke="black" points="127,-94 127,-128 251,-128 251,-94 127,-94"/>
<text text-anchor="start" x="135" y="-114.4" font-family="Helvetica,sans-Serif" font-size="12.00">StreamFile&lt; FatFile,</text>
<text text-anchor="middle" x="189" y="-101.4" font-family="Helvetica,sans-Serif" font-size="12.00"> uint32_t &gt;</text>
</a>
</g>
</g>
<!-- Node210&#45;&gt;Node211 -->
<g id="edge5" class="edge">
<title>Node210&#45;&gt;Node211</title>
<path fill="none" stroke="midnightblue" d="M76.63,-111C91.73,-111 109.7,-111 126.76,-111"/>
<polygon fill="midnightblue" stroke="midnightblue" points="76.19,-107.5 66.19,-111 76.19,-114.5 76.19,-107.5"/>
</g>
<!-- Node212 -->
<g id="node9" class="node">
<title>Node212</title>
<g id="a_node9"><a xlink:href="df/dfc/class_file32.html" target="_top" xlink:title="FAT16/FAT32 file with Arduino Stream.">
<polygon fill="white" stroke="black" points="299.5,-100.5 299.5,-121.5 349.5,-121.5 349.5,-100.5 299.5,-100.5"/>
<text text-anchor="middle" x="324.5" y="-107.9" font-family="Helvetica,sans-Serif" font-size="12.00">File32</text>
</a>
</g>
</g>
<!-- Node211&#45;&gt;Node212 -->
<g id="edge6" class="edge">
<title>Node211&#45;&gt;Node212</title>
<path fill="none" stroke="midnightblue" d="M261.66,-111C275.21,-111 288.5,-111 299.26,-111"/>
<polygon fill="midnightblue" stroke="midnightblue" points="261.28,-107.5 251.28,-111 261.28,-114.5 261.28,-107.5"/>
</g>
<!-- Node221 -->
<g id="node10" class="node">
<title>Node221</title>
<g id="a_node10"><a xlink:href="d7/d76/class_fs_base_file.html" target="_top" xlink:title="FsBaseFile class.">
<polygon fill="white" stroke="black" points="1,-47.5 1,-68.5 78,-68.5 78,-47.5 1,-47.5"/>
<text text-anchor="middle" x="39.5" y="-54.9" font-family="Helvetica,sans-Serif" font-size="12.00">FsBaseFile</text>
</a>
</g>
</g>
<!-- Node222 -->
<g id="node11" class="node">
<title>Node222</title>
<g id="a_node11"><a xlink:href="da/dc7/class_stream_file.html" target="_top" xlink:title=" ">
<polygon fill="white" stroke="black" points="115,-41 115,-75 263,-75 263,-41 115,-41"/>
<text text-anchor="start" x="123" y="-61.4" font-family="Helvetica,sans-Serif" font-size="12.00">StreamFile&lt; FsBaseFile,</text>
<text text-anchor="middle" x="189" y="-48.4" font-family="Helvetica,sans-Serif" font-size="12.00"> uint64_t &gt;</text>
</a>
</g>
</g>
<!-- Node221&#45;&gt;Node222 -->
<g id="edge7" class="edge">
<title>Node221&#45;&gt;Node222</title>
<path fill="none" stroke="midnightblue" d="M88.21,-58C96.74,-58 105.81,-58 114.87,-58"/>
<polygon fill="midnightblue" stroke="midnightblue" points="88.1,-54.5 78.1,-58 88.1,-61.5 88.1,-54.5"/>
</g>
<!-- Node223 -->
<g id="node12" class="node">
<title>Node223</title>
<g id="a_node12"><a xlink:href="d4/da1/class_fs_file.html" target="_top" xlink:title="FsBaseFile file with Arduino Stream.">
<polygon fill="white" stroke="black" points="299.5,-47.5 299.5,-68.5 349.5,-68.5 349.5,-47.5 299.5,-47.5"/>
<text text-anchor="middle" x="324.5" y="-54.9" font-family="Helvetica,sans-Serif" font-size="12.00">FsFile</text>
</a>
</g>
</g>
<!-- Node222&#45;&gt;Node223 -->
<g id="edge8" class="edge">
<title>Node222&#45;&gt;Node223</title>
<path fill="none" stroke="midnightblue" d="M273.61,-58C282.9,-58 291.72,-58 299.29,-58"/>
<polygon fill="midnightblue" stroke="midnightblue" points="273.39,-54.5 263.39,-58 273.39,-61.5 273.39,-54.5"/>
</g>
<!-- Node273 -->
<g id="node13" class="node">
<title>Node273</title>
<g id="a_node13"><a xlink:href="da/db3/class_print_basic.html" target="_top" xlink:title=" ">
<polygon fill="white" stroke="black" points="4,-167.5 4,-188.5 75,-188.5 75,-167.5 4,-167.5"/>
<text text-anchor="middle" x="39.5" y="-174.9" font-family="Helvetica,sans-Serif" font-size="12.00">PrintBasic</text>
</a>
</g>
</g>
<!-- Node273&#45;&gt;Node0 -->
<g id="edge15" class="edge">
<title>Node273&#45;&gt;Node0</title>
<path fill="none" stroke="midnightblue" d="M58,-196.35C65.22,-204.63 73.22,-214.82 79,-225 102.3,-266.09 80.32,-292.93 115,-325 119.15,-328.84 123.96,-331.95 129.1,-334.47"/>
<polygon fill="midnightblue" stroke="midnightblue" points="60.47,-193.86 51.16,-188.79 55.27,-198.55 60.47,-193.86"/>
</g>
<!-- Node273&#45;&gt;Node173 -->
<g id="edge17" class="edge">
<title>Node273&#45;&gt;Node173</title>
<path fill="none" stroke="midnightblue" d="M56,-196.64C63.08,-205.22 71.53,-215.57 79,-225 95.34,-245.62 93.73,-256.51 115,-272 119.57,-275.33 124.6,-278.26 129.82,-280.85"/>
<polygon fill="midnightblue" stroke="midnightblue" points="58.54,-194.22 49.47,-188.75 53.15,-198.68 58.54,-194.22"/>
</g>
<!-- Node273&#45;&gt;Node203 -->
<g id="edge11" class="edge">
<title>Node273&#45;&gt;Node203</title>
<path fill="none" stroke="midnightblue" d="M67.55,-193.69C81.49,-201.48 98.91,-210.75 115,-218 122.64,-221.44 130.86,-224.8 138.93,-227.92"/>
<polygon fill="midnightblue" stroke="midnightblue" points="68.94,-190.46 58.51,-188.58 65.5,-196.55 68.94,-190.46"/>
</g>
<!-- Node273&#45;&gt;Node211 -->
<g id="edge13" class="edge">
<title>Node273&#45;&gt;Node211</title>
<path fill="none" stroke="midnightblue" d="M67.55,-162.31C81.49,-154.52 98.91,-145.25 115,-138 122.64,-134.56 130.86,-131.2 138.93,-128.08"/>
<polygon fill="midnightblue" stroke="midnightblue" points="65.5,-159.45 58.51,-167.42 68.94,-165.54 65.5,-159.45"/>
</g>
<!-- Node273&#45;&gt;Node222 -->
<g id="edge12" class="edge">
<title>Node273&#45;&gt;Node222</title>
<path fill="none" stroke="midnightblue" d="M55.96,-159.32C63.03,-150.73 71.48,-140.39 79,-131 95.23,-110.73 94.03,-100.31 115,-85 120.13,-81.26 125.84,-77.98 131.74,-75.12"/>
<polygon fill="midnightblue" stroke="midnightblue" points="53.1,-157.29 49.44,-167.23 58.5,-161.74 53.1,-157.29"/>
</g>
<!-- Node274 -->
<g id="node14" class="node">
<title>Node274</title>
<g id="a_node14"><a xlink:href="d0/d9f/class_print_file.html" target="_top" xlink:title=" ">
<polygon fill="white" stroke="black" points="118,-0.5 118,-21.5 260,-21.5 260,-0.5 118,-0.5"/>
<text text-anchor="middle" x="189" y="-7.9" font-family="Helvetica,sans-Serif" font-size="12.00">PrintFile&lt; SdBaseFile &gt;</text>
</a>
</g>
</g>
<!-- Node273&#45;&gt;Node274 -->
<g id="edge9" class="edge">
<title>Node273&#45;&gt;Node274</title>
<path fill="none" stroke="midnightblue" d="M58,-159.65C65.22,-151.37 73.22,-141.18 79,-131 102.3,-89.91 80.32,-63.07 115,-31 119.15,-27.16 123.96,-24.05 129.1,-21.53"/>
<polygon fill="midnightblue" stroke="midnightblue" points="55.27,-157.45 51.16,-167.21 60.47,-162.14 55.27,-157.45"/>
</g>
<!-- Node276 -->
<g id="node16" class="node">
<title>Node276</title>
<g id="a_node16"><a xlink:href="d0/dcb/class_minimum_serial.html" target="_top" xlink:title="mini serial class for the SdFat library.">
<polygon fill="white" stroke="black" points="141.5,-187.5 141.5,-208.5 236.5,-208.5 236.5,-187.5 141.5,-187.5"/>
<text text-anchor="middle" x="189" y="-194.9" font-family="Helvetica,sans-Serif" font-size="12.00">MinimumSerial</text>
</a>
</g>
</g>
<!-- Node273&#45;&gt;Node276 -->
<g id="edge14" class="edge">
<title>Node273&#45;&gt;Node276</title>
<path fill="none" stroke="midnightblue" d="M85.19,-184.06C102.96,-186.47 123.4,-189.24 141.35,-191.67"/>
<polygon fill="midnightblue" stroke="midnightblue" points="85.46,-180.56 75.08,-182.69 84.52,-187.5 85.46,-180.56"/>
</g>
<!-- Node277 -->
<g id="node17" class="node">
<title>Node277</title>
<g id="a_node17"><a xlink:href="d9/db5/class_stream_basic.html" target="_top" xlink:title=" ">
<polygon fill="white" stroke="black" points="146.5,-147.5 146.5,-168.5 231.5,-168.5 231.5,-147.5 146.5,-147.5"/>
<text text-anchor="middle" x="189" y="-154.9" font-family="Helvetica,sans-Serif" font-size="12.00">StreamBasic</text>
</a>
</g>
</g>
<!-- Node273&#45;&gt;Node277 -->
<g id="edge16" class="edge">
<title>Node273&#45;&gt;Node277</title>
<path fill="none" stroke="midnightblue" d="M85.2,-171.94C104.61,-169.31 127.22,-166.24 146.28,-163.66"/>
<polygon fill="midnightblue" stroke="midnightblue" points="84.52,-168.5 75.08,-173.31 85.46,-175.44 84.52,-168.5"/>
</g>
<!-- Node275 -->
<g id="node15" class="node">
<title>Node275</title>
<g id="a_node15"><a xlink:href="d1/dfe/class_sd_file.html" target="_top" xlink:title="FAT16/FAT32 file with Print.">
<polygon fill="white" stroke="black" points="299,-0.5 299,-21.5 350,-21.5 350,-0.5 299,-0.5"/>
<text text-anchor="middle" x="324.5" y="-7.9" font-family="Helvetica,sans-Serif" font-size="12.00">SdFile</text>
</a>
</g>
</g>
<!-- Node274&#45;&gt;Node275 -->
<g id="edge10" class="edge">
<title>Node274&#45;&gt;Node275</title>
<path fill="none" stroke="midnightblue" d="M270.56,-11C280.74,-11 290.47,-11 298.74,-11"/>
<polygon fill="midnightblue" stroke="midnightblue" points="270.27,-7.5 260.27,-11 270.27,-14.5 270.27,-7.5"/>
</g>
<!-- Node278 -->
<g id="node18" class="node">
<title>Node278</title>
<g id="a_node18"><a xlink:title=" ">
<polygon fill="white" stroke="#bfbfbf" points="0,-0.5 0,-21.5 79,-21.5 79,-0.5 0,-0.5"/>
<text text-anchor="middle" x="39.5" y="-7.9" font-family="Helvetica,sans-Serif" font-size="12.00">SdBaseFile</text>
</a>
</g>
</g>
<!-- Node278&#45;&gt;Node274 -->
<g id="edge18" class="edge">
<title>Node278&#45;&gt;Node274</title>
<path fill="none" stroke="midnightblue" d="M89.3,-11C98.46,-11 108.19,-11 117.84,-11"/>
<polygon fill="midnightblue" stroke="midnightblue" points="89.25,-7.5 79.25,-11 89.25,-14.5 89.25,-7.5"/>
</g>
</g>
</svg>
