<?xml version="1.0" encoding="UTF-8" standalone="no"?>
<!DOCTYPE svg PUBLIC "-//W3C//DTD SVG 1.1//EN"
 "http://www.w3.org/Graphics/SVG/1.1/DTD/svg11.dtd">
<!-- Generated by graphviz version 2.47.3 (20210619.1520)
 -->
<!-- Title: wren_primitive.h Pages: 1 -->
<svg width="298pt" height="88pt"
 viewBox="0.00 0.00 297.50 88.00" xmlns="http://www.w3.org/2000/svg" xmlns:xlink="http://www.w3.org/1999/xlink">
<g id="graph0" class="graph" transform="scale(1 1) rotate(0) translate(4 84)">
<title>wren_primitive.h</title>
<polygon fill="white" stroke="transparent" points="-4,4 -4,-84 293.5,-84 293.5,4 -4,4"/>
<!-- Node1 -->
<g id="node1" class="node">
<title>Node1</title>
<g id="a_node1"><a xlink:title=" ">
<polygon fill="#bfbfbf" stroke="black" points="109,-58.5 109,-79.5 210,-79.5 210,-58.5 109,-58.5"/>
<text text-anchor="middle" x="159.5" y="-65.9" font-family="Helvetica,sans-Serif" font-size="12.00">wren_primitive.h</text>
</a>
</g>
</g>
<!-- Node2 -->
<g id="node2" class="node">
<title>Node2</title>
<g id="a_node2"><a xlink:href="../../d9/def/wren__primitive_8c.html" target="_top" xlink:title=" ">
<polygon fill="white" stroke="black" points="0,-0.5 0,-21.5 101,-21.5 101,-0.5 0,-0.5"/>
<text text-anchor="middle" x="50.5" y="-7.9" font-family="Helvetica,sans-Serif" font-size="12.00">wren_primitive.c</text>
</a>
</g>
</g>
<!-- Node1&#45;&gt;Node2 -->
<g id="edge1" class="edge">
<title>Node1&#45;&gt;Node2</title>
<path fill="none" stroke="midnightblue" d="M131.47,-53.6C111.93,-43.56 86.39,-30.44 69.27,-21.64"/>
<polygon fill="midnightblue" stroke="midnightblue" points="130.02,-56.79 140.51,-58.25 133.22,-50.56 130.02,-56.79"/>
</g>
<!-- Node3 -->
<g id="node3" class="node">
<title>Node3</title>
<g id="a_node3"><a xlink:href="../../de/d2f/wren__core_8c.html" target="_top" xlink:title=" ">
<polygon fill="white" stroke="black" points="119.5,-0.5 119.5,-21.5 199.5,-21.5 199.5,-0.5 119.5,-0.5"/>
<text text-anchor="middle" x="159.5" y="-7.9" font-family="Helvetica,sans-Serif" font-size="12.00">wren_core.c</text>
</a>
</g>
</g>
<!-- Node1&#45;&gt;Node3 -->
<g id="edge2" class="edge">
<title>Node1&#45;&gt;Node3</title>
<path fill="none" stroke="midnightblue" d="M159.5,-48.16C159.5,-39.16 159.5,-28.92 159.5,-21.64"/>
<polygon fill="midnightblue" stroke="midnightblue" points="156,-48.25 159.5,-58.25 163,-48.25 156,-48.25"/>
</g>
<!-- Node4 -->
<g id="node4" class="node">
<title>Node4</title>
<g id="a_node4"><a xlink:href="../../de/db2/wren__vm_8c.html" target="_top" xlink:title=" ">
<polygon fill="white" stroke="black" points="217.5,-0.5 217.5,-21.5 289.5,-21.5 289.5,-0.5 217.5,-0.5"/>
<text text-anchor="middle" x="253.5" y="-7.9" font-family="Helvetica,sans-Serif" font-size="12.00">wren_vm.c</text>
</a>
</g>
</g>
<!-- Node1&#45;&gt;Node4 -->
<g id="edge3" class="edge">
<title>Node1&#45;&gt;Node4</title>
<path fill="none" stroke="midnightblue" d="M184.6,-53.05C201.33,-43.08 222.82,-30.28 237.31,-21.64"/>
<polygon fill="midnightblue" stroke="midnightblue" points="182.67,-50.12 175.87,-58.25 186.26,-56.13 182.67,-50.12"/>
</g>
</g>
</svg>
