<?xml version="1.0" encoding="UTF-8" standalone="no"?>
<!DOCTYPE svg PUBLIC "-//W3C//DTD SVG 1.1//EN"
 "http://www.w3.org/Graphics/SVG/1.1/DTD/svg11.dtd">
<!-- Generated by graphviz version 2.47.3 (20210619.1520)
 -->
<!-- Title: AudioSynthWaveform::frequency Pages: 1 -->
<svg width="510pt" height="137pt"
 viewBox="0.00 0.00 510.00 136.50" xmlns="http://www.w3.org/2000/svg" xmlns:xlink="http://www.w3.org/1999/xlink">
<g id="graph0" class="graph" transform="scale(1 1) rotate(0) translate(4 132.5)">
<title>AudioSynthWaveform::frequency</title>
<polygon fill="white" stroke="transparent" points="-4,4 -4,-132.5 506,-132.5 506,4 -4,4"/>
<!-- Node1 -->
<g id="node1" class="node">
<title>Node1</title>
<g id="a_node1"><a xlink:title=" ">
<polygon fill="#bfbfbf" stroke="black" points="373,-41 373,-75 502,-75 502,-41 373,-41"/>
<text text-anchor="start" x="381" y="-61.4" font-family="Helvetica,sans-Serif" font-size="12.00">AudioSynthWaveform</text>
<text text-anchor="middle" x="437.5" y="-48.4" font-family="Helvetica,sans-Serif" font-size="12.00">::frequency</text>
</a>
</g>
</g>
<!-- Node2 -->
<g id="node2" class="node">
<title>Node2</title>
<g id="a_node2"><a xlink:href="../../d4/dd5/class_audio_synth_waveform.html#a26b58de690a697940d2441f7d73401b2" target="_top" xlink:title=" ">
<polygon fill="white" stroke="black" points="182,-94 182,-128 311,-128 311,-94 182,-94"/>
<text text-anchor="start" x="190" y="-114.4" font-family="Helvetica,sans-Serif" font-size="12.00">AudioSynthWaveform</text>
<text text-anchor="middle" x="246.5" y="-101.4" font-family="Helvetica,sans-Serif" font-size="12.00">::begin</text>
</a>
</g>
</g>
<!-- Node1&#45;&gt;Node2 -->
<g id="edge1" class="edge">
<title>Node1&#45;&gt;Node2</title>
<path fill="none" stroke="midnightblue" d="M365.89,-77.8C346.93,-83.12 326.6,-88.82 308.23,-93.97"/>
<polygon fill="midnightblue" stroke="midnightblue" points="366.98,-81.13 375.66,-75.06 365.09,-74.39 366.98,-81.13"/>
</g>
<!-- Node3 -->
<g id="node3" class="node">
<title>Node3</title>
<g id="a_node3"><a xlink:href="../../dc/d27/class_app_audio_to_polyphonic.html#a454a8eeb8687423a046a517abe6d9e50" target="_top" xlink:title=" ">
<polygon fill="white" stroke="black" points="176.5,-41 176.5,-75 316.5,-75 316.5,-41 176.5,-41"/>
<text text-anchor="start" x="184.5" y="-61.4" font-family="Helvetica,sans-Serif" font-size="12.00">AppAudioToPolyphonic</text>
<text text-anchor="middle" x="246.5" y="-48.4" font-family="Helvetica,sans-Serif" font-size="12.00">::MessageHandler</text>
</a>
</g>
</g>
<!-- Node1&#45;&gt;Node3 -->
<g id="edge2" class="edge">
<title>Node1&#45;&gt;Node3</title>
<path fill="none" stroke="midnightblue" d="M362.49,-58C347.44,-58 331.66,-58 316.78,-58"/>
<polygon fill="midnightblue" stroke="midnightblue" points="362.78,-61.5 372.78,-58 362.78,-54.5 362.78,-61.5"/>
</g>
<!-- Node4 -->
<g id="node4" class="node">
<title>Node4</title>
<g id="a_node4"><a xlink:href="../../d4/dde/class_app_c_q_t.html#a367a939ac48e4efa3bb648cd4f3bf848" target="_top" xlink:title=" ">
<polygon fill="white" stroke="black" points="156,-0.5 156,-21.5 337,-21.5 337,-0.5 156,-0.5"/>
<text text-anchor="middle" x="246.5" y="-7.9" font-family="Helvetica,sans-Serif" font-size="12.00">AppCQT::updateOscillatorBank</text>
</a>
</g>
</g>
<!-- Node1&#45;&gt;Node4 -->
<g id="edge3" class="edge">
<title>Node1&#45;&gt;Node4</title>
<path fill="none" stroke="midnightblue" d="M363.02,-38.58C354.26,-36.33 345.44,-34.09 337,-32 322.9,-28.5 307.52,-24.84 293.54,-21.57"/>
<polygon fill="midnightblue" stroke="midnightblue" points="362.31,-42.01 372.86,-41.12 364.06,-35.23 362.31,-42.01"/>
</g>
<!-- Node5 -->
<g id="node5" class="node">
<title>Node5</title>
<g id="a_node5"><a xlink:href="../../d4/dde/class_app_c_q_t.html#acba800039e0a2c7ec5f84b503d877057" target="_top" xlink:title=" ">
<polygon fill="white" stroke="black" points="0,-0.5 0,-21.5 120,-21.5 120,-0.5 0,-0.5"/>
<text text-anchor="middle" x="60" y="-7.9" font-family="Helvetica,sans-Serif" font-size="12.00">AppCQT::updateRT</text>
</a>
</g>
</g>
<!-- Node4&#45;&gt;Node5 -->
<g id="edge4" class="edge">
<title>Node4&#45;&gt;Node5</title>
<path fill="none" stroke="midnightblue" d="M145.73,-11C137.04,-11 128.44,-11 120.25,-11"/>
<polygon fill="midnightblue" stroke="midnightblue" points="145.95,-14.5 155.95,-11 145.95,-7.5 145.95,-14.5"/>
</g>
</g>
</svg>
