<?xml version="1.0" encoding="UTF-8" standalone="no"?>
<!DOCTYPE svg PUBLIC "-//W3C//DTD SVG 1.1//EN"
 "http://www.w3.org/Graphics/SVG/1.1/DTD/svg11.dtd">
<!-- Generated by graphviz version 2.47.3 (20210619.1520)
 -->
<!-- Title: AudioSynthWaveform::frequency Pages: 1 -->
<svg width="620pt" height="110pt"
 viewBox="0.00 0.00 620.00 110.00" xmlns="http://www.w3.org/2000/svg" xmlns:xlink="http://www.w3.org/1999/xlink">
<g id="graph0" class="graph" transform="scale(1 1) rotate(0) translate(4 106)">
<title>AudioSynthWaveform::frequency</title>
<!-- Node1 -->
<g id="node1" class="node">
<title>Node1</title>
<g id="a_node1"><a xlink:title=" ">
<polygon fill="#bfbfbf" stroke="black" points="427,-40.5 427,-61.5 612,-61.5 612,-40.5 427,-40.5"/>
<text text-anchor="middle" x="519.5" y="-47.9" font-family="Helvetica,sans-Serif" font-size="12.00">AudioSynthWaveform::frequency</text>
</a>
</g>
</g>
<!-- Node2 -->
<g id="node2" class="node">
<title>Node2</title>
<g id="a_node2"><a xlink:href="../../d4/dd5/class_audio_synth_waveform_a26b58de690a697940d2441f7d73401b2.html#a26b58de690a697940d2441f7d73401b2" target="_top" xlink:title=" ">
<polygon fill="none" stroke="black" points="191.5,-80.5 191.5,-101.5 355.5,-101.5 355.5,-80.5 191.5,-80.5"/>
<text text-anchor="middle" x="273.5" y="-87.9" font-family="Helvetica,sans-Serif" font-size="12.00">AudioSynthWaveform::begin</text>
</a>
</g>
</g>
<!-- Node1&#45;&gt;Node2 -->
<g id="edge1" class="edge">
<title>Node1&#45;&gt;Node2</title>
<path fill="none" stroke="midnightblue" d="M444.13,-63.19C410.43,-68.72 370.98,-75.18 338.6,-80.49"/>
<polygon fill="midnightblue" stroke="midnightblue" points="445.09,-66.58 454.39,-61.51 443.96,-59.67 445.09,-66.58"/>
</g>
<!-- Node3 -->
<g id="node3" class="node">
<title>Node3</title>
<g id="a_node3"><a xlink:href="../../dc/d27/class_app_audio_to_polyphonic_a454a8eeb8687423a046a517abe6d9e50.html#a454a8eeb8687423a046a517abe6d9e50" target="_top" xlink:title=" ">
<polygon fill="none" stroke="black" points="156,-40.5 156,-61.5 391,-61.5 391,-40.5 156,-40.5"/>
<text text-anchor="middle" x="273.5" y="-47.9" font-family="Helvetica,sans-Serif" font-size="12.00">AppAudioToPolyphonic::MessageHandler</text>
</a>
</g>
</g>
<!-- Node1&#45;&gt;Node3 -->
<g id="edge2" class="edge">
<title>Node1&#45;&gt;Node3</title>
<path fill="none" stroke="midnightblue" d="M416.78,-51C408.37,-51 399.84,-51 391.34,-51"/>
<polygon fill="midnightblue" stroke="midnightblue" points="416.95,-54.5 426.95,-51 416.95,-47.5 416.95,-54.5"/>
</g>
<!-- Node4 -->
<g id="node4" class="node">
<title>Node4</title>
<g id="a_node4"><a xlink:href="../../d4/dde/class_app_c_q_t_a367a939ac48e4efa3bb648cd4f3bf848.html#a367a939ac48e4efa3bb648cd4f3bf848" target="_top" xlink:title=" ">
<polygon fill="none" stroke="black" points="183,-0.5 183,-21.5 364,-21.5 364,-0.5 183,-0.5"/>
<text text-anchor="middle" x="273.5" y="-7.9" font-family="Helvetica,sans-Serif" font-size="12.00">AppCQT::updateOscillatorBank</text>
</a>
</g>
</g>
<!-- Node1&#45;&gt;Node4 -->
<g id="edge3" class="edge">
<title>Node1&#45;&gt;Node4</title>
<path fill="none" stroke="midnightblue" d="M444.13,-38.81C410.43,-33.28 370.98,-26.82 338.6,-21.51"/>
<polygon fill="midnightblue" stroke="midnightblue" points="443.96,-42.33 454.39,-40.49 445.09,-35.42 443.96,-42.33"/>
</g>
<!-- Node5 -->
<g id="node5" class="node">
<title>Node5</title>
<g id="a_node5"><a xlink:href="../../d4/dde/class_app_c_q_t_a280277298835dcea30bdcb94d0eb08ab.html#a280277298835dcea30bdcb94d0eb08ab" target="_top" xlink:title=" ">
<polygon fill="none" stroke="black" points="0,-0.5 0,-21.5 120,-21.5 120,-0.5 0,-0.5"/>
<text text-anchor="middle" x="60" y="-7.9" font-family="Helvetica,sans-Serif" font-size="12.00">AppCQT::updateRT</text>
</a>
</g>
</g>
<!-- Node4&#45;&gt;Node5 -->
<g id="edge4" class="edge">
<title>Node4&#45;&gt;Node5</title>
<path fill="none" stroke="midnightblue" d="M172.58,-11C154.64,-11 136.48,-11 120.17,-11"/>
<polygon fill="midnightblue" stroke="midnightblue" points="172.8,-14.5 182.8,-11 172.8,-7.5 172.8,-14.5"/>
</g>
</g>
</svg>
