<?xml version="1.0" encoding="UTF-8" standalone="no"?>
<!DOCTYPE svg PUBLIC "-//W3C//DTD SVG 1.1//EN"
 "http://www.w3.org/Graphics/SVG/1.1/DTD/svg11.dtd">
<!-- Generated by graphviz version 2.47.3 (20210619.1520)
 -->
<!-- Title: AudioSynthWaveform::begin Pages: 1 -->
<svg width="409pt" height="43pt"
 viewBox="0.00 0.00 409.00 43.00" xmlns="http://www.w3.org/2000/svg" xmlns:xlink="http://www.w3.org/1999/xlink">
<g id="graph0" class="graph" transform="scale(1 1) rotate(0) translate(4 39)">
<title>AudioSynthWaveform::begin</title>
<polygon fill="white" stroke="transparent" points="-4,4 -4,-39 405,-39 405,4 -4,4"/>
<!-- Node1 -->
<g id="node1" class="node">
<title>Node1</title>
<g id="a_node1"><a xlink:title=" ">
<polygon fill="#bfbfbf" stroke="black" points="272,-0.5 272,-34.5 401,-34.5 401,-0.5 272,-0.5"/>
<text text-anchor="start" x="280" y="-20.9" font-family="Helvetica,sans-Serif" font-size="12.00">AudioSynthWaveform</text>
<text text-anchor="middle" x="336.5" y="-7.9" font-family="Helvetica,sans-Serif" font-size="12.00">::begin</text>
</a>
</g>
</g>
<!-- Node2 -->
<g id="node2" class="node">
<title>Node2</title>
<g id="a_node2"><a xlink:href="../../d4/dde/class_app_c_q_t.html#a5b262ebd84f1446cb830f3e1c5437791" target="_top" xlink:title=" ">
<polygon fill="white" stroke="black" points="152,-7 152,-28 236,-28 236,-7 152,-7"/>
<text text-anchor="middle" x="194" y="-14.4" font-family="Helvetica,sans-Serif" font-size="12.00">AppCQT::init</text>
</a>
</g>
</g>
<!-- Node1&#45;&gt;Node2 -->
<g id="edge1" class="edge">
<title>Node1&#45;&gt;Node2</title>
<path fill="none" stroke="midnightblue" d="M261.63,-17.5C252.94,-17.5 244.33,-17.5 236.32,-17.5"/>
<polygon fill="midnightblue" stroke="midnightblue" points="261.83,-21 271.83,-17.5 261.83,-14 261.83,-21"/>
</g>
<!-- Node3 -->
<g id="node3" class="node">
<title>Node3</title>
<g id="a_node3"><a xlink:href="../../d4/dde/class_app_c_q_t.html#a587bd3e6103103694f01f420aeb02a70" target="_top" xlink:title=" ">
<polygon fill="white" stroke="black" points="0,-7 0,-28 116,-28 116,-7 0,-7"/>
<text text-anchor="middle" x="58" y="-14.4" font-family="Helvetica,sans-Serif" font-size="12.00">AppCQT::AppCQT</text>
</a>
</g>
</g>
<!-- Node2&#45;&gt;Node3 -->
<g id="edge2" class="edge">
<title>Node2&#45;&gt;Node3</title>
<path fill="none" stroke="midnightblue" d="M141.44,-17.5C133.17,-17.5 124.57,-17.5 116.18,-17.5"/>
<polygon fill="midnightblue" stroke="midnightblue" points="141.7,-21 151.7,-17.5 141.7,-14 141.7,-21"/>
</g>
</g>
</svg>
