<?xml version="1.0" encoding="UTF-8" standalone="no"?>
<!DOCTYPE svg PUBLIC "-//W3C//DTD SVG 1.1//EN"
 "http://www.w3.org/Graphics/SVG/1.1/DTD/svg11.dtd">
<!-- Generated by graphviz version 2.47.3 (20210619.1520)
 -->
<!-- Title: AudioSynthWaveform::begin Pages: 1 -->
<svg width="571pt" height="84pt"
 viewBox="0.00 0.00 571.00 84.00" xmlns="http://www.w3.org/2000/svg" xmlns:xlink="http://www.w3.org/1999/xlink">
<g id="graph0" class="graph" transform="scale(1 1) rotate(0) translate(4 80)">
<title>AudioSynthWaveform::begin</title>
<!-- Node1 -->
<g id="node1" class="node">
<title>Node1</title>
<g id="a_node1"><a xlink:title=" ">
<polygon fill="#bfbfbf" stroke="black" points="0,-23.5 0,-51.5 246,-51.5 246,-23.5 0,-23.5"/>
<text text-anchor="middle" x="123" y="-33.1" font-family="Helvetica,sans-Serif" font-size="18.00">AudioSynthWaveform::begin</text>
</a>
</g>
</g>
<!-- Node2 -->
<g id="node2" class="node">
<title>Node2</title>
<g id="a_node2"><a xlink:href="../../d4/dd5/class_audio_synth_waveform_ab5d0141790b5564716115191b82c5f48.html#ab5d0141790b5564716115191b82c5f48" target="_top" xlink:title=" ">
<polygon fill="none" stroke="black" points="282,-47.5 282,-75.5 563,-75.5 563,-47.5 282,-47.5"/>
<text text-anchor="middle" x="422.5" y="-57.1" font-family="Helvetica,sans-Serif" font-size="18.00">AudioSynthWaveform::amplitude</text>
</a>
</g>
</g>
<!-- Node1&#45;&gt;Node2 -->
<g id="edge1" class="edge">
<title>Node1&#45;&gt;Node2</title>
<path fill="none" stroke="midnightblue" d="M246.29,-47.37C254.7,-48.04 263.23,-48.73 271.76,-49.42"/>
<polygon fill="midnightblue" stroke="midnightblue" points="271.52,-52.91 281.76,-50.23 272.08,-45.93 271.52,-52.91"/>
</g>
<!-- Node3 -->
<g id="node3" class="node">
<title>Node3</title>
<g id="a_node3"><a xlink:href="../../d4/dd5/class_audio_synth_waveform_a395cff98439e97ba08854b343eed4317.html#a395cff98439e97ba08854b343eed4317" target="_top" xlink:title=" ">
<polygon fill="none" stroke="black" points="282,-0.5 282,-28.5 563,-28.5 563,-0.5 282,-0.5"/>
<text text-anchor="middle" x="422.5" y="-10.1" font-family="Helvetica,sans-Serif" font-size="18.00">AudioSynthWaveform::frequency</text>
</a>
</g>
</g>
<!-- Node1&#45;&gt;Node3 -->
<g id="edge2" class="edge">
<title>Node1&#45;&gt;Node3</title>
<path fill="none" stroke="midnightblue" d="M246.29,-28.05C254.7,-27.4 263.23,-26.74 271.76,-26.08"/>
<polygon fill="midnightblue" stroke="midnightblue" points="272.06,-29.56 281.76,-25.3 271.52,-22.58 272.06,-29.56"/>
</g>
</g>
</svg>
