<?xml version="1.0" encoding="UTF-8" standalone="no"?>
<!DOCTYPE svg PUBLIC "-//W3C//DTD SVG 1.1//EN"
 "http://www.w3.org/Graphics/SVG/1.1/DTD/svg11.dtd">
<!-- Generated by graphviz version 2.47.3 (20210619.1520)
 -->
<!-- Title: ios_base::setf Pages: 1 -->
<!--zoomable 470 -->
<svg id="main" version="1.1" xmlns="http://www.w3.org/2000/svg" xmlns:xlink="http://www.w3.org/1999/xlink" xml:space="preserve" onload="init(evt)">
<style type="text/css"><![CDATA[
.edge:hover path { stroke: red; }
.edge:hover polygon { stroke: red; fill: red; }
]]></style>
<script type="text/javascript"><![CDATA[
var edges = document.getElementsByTagName('g');
if (edges && edges.length) {
  for (var i=0;i<edges.length;i++) {
    if (edges[i].id.substr(0,4)=='edge') {
      edges[i].setAttribute('class','edge');
    }
  }
}
]]></script>
        <defs>
                <circle id="rim" cx="0" cy="0" r="7"/>
                <circle id="rim2" cx="0" cy="0" r="3.5"/>
                <g id="zoomPlus">
                        <use xlink:href="#rim" fill="#404040">
                                <set attributeName="fill" to="#808080" begin="zoomplus.mouseover" end="zoomplus.mouseout"/>
                        </use>
                        <path d="M-4,0h8M0,-4v8" fill="none" stroke="white" stroke-width="1.5" pointer-events="none"/>
                </g>
                <g id="zoomMin">
                        <use xlink:href="#rim" fill="#404040">
                                <set attributeName="fill" to="#808080" begin="zoomminus.mouseover" end="zoomminus.mouseout"/>
                        </use>
                        <path d="M-4,0h8" fill="none" stroke="white" stroke-width="1.5" pointer-events="none"/>
                </g>
                <g id="dirArrow">
                        <path fill="none" stroke="white" stroke-width="1.5" d="M0,-3.0v7 M-2.5,-0.5L0,-3.0L2.5,-0.5"/>
                </g>
               <g id="resetDef">
                       <use xlink:href="#rim2" fill="#404040">
                               <set attributeName="fill" to="#808080" begin="reset.mouseover" end="reset.mouseout"/>
                       </use>
               </g>
        </defs>

<script type="text/javascript">
var viewWidth = 534;
var viewHeight = 470;
var sectionId = 'dynsection-52';
</script>
<script xlink:href="../../svgpan.js"/>
<svg id="graph" class="graph">
<g id="viewport">
<title>ios_base::setf</title>
<polygon fill="white" stroke="transparent" points="-4,4 -4,-466 530,-466 530,4 -4,4"/>
<!-- Node1 -->
<g id="node1" class="node">
<title>Node1</title>
<g id="a_node1"><a xlink:title=" ">
<polygon fill="#bfbfbf" stroke="black" points="436,-220.5 436,-241.5 526,-241.5 526,-220.5 436,-220.5"/>
<text text-anchor="middle" x="481" y="-227.9" font-family="Helvetica,sans-Serif" font-size="12.00">ios_base::setf</text>
</a>
</g>
</g>
<!-- Node2 -->
<g id="node2" class="node">
<title>Node2</title>
<g id="a_node2"><a xlink:href="../../df/dd5/ios_8h.html#a0016daaaf730481e2ad36972fa7abb17" target="_top" xlink:title=" ">
<polygon fill="white" stroke="black" points="330,-440.5 330,-461.5 398,-461.5 398,-440.5 330,-440.5"/>
<text text-anchor="middle" x="364" y="-447.9" font-family="Helvetica,sans-Serif" font-size="12.00">boolalpha</text>
</a>
</g>
</g>
<!-- Node1&#45;&gt;Node2 -->
<g id="edge1" class="edge">
<title>Node1&#45;&gt;Node2</title>
<path fill="none" stroke="midnightblue" d="M476.39,-251.81C468.67,-291.01 447.24,-376.71 400,-431 396.88,-434.59 392.94,-437.68 388.85,-440.29"/>
<polygon fill="midnightblue" stroke="midnightblue" points="479.86,-252.32 478.25,-241.85 472.98,-251.04 479.86,-252.32"/>
</g>
<!-- Node3 -->
<g id="node3" class="node">
<title>Node3</title>
<g id="a_node3"><a xlink:href="../../df/dd5/ios_8h.html#ada38ab90e22f0ebb638cb864a35c562d" target="_top" xlink:title=" ">
<polygon fill="white" stroke="black" points="346,-400.5 346,-421.5 382,-421.5 382,-400.5 346,-400.5"/>
<text text-anchor="middle" x="364" y="-407.9" font-family="Helvetica,sans-Serif" font-size="12.00">dec</text>
</a>
</g>
</g>
<!-- Node1&#45;&gt;Node3 -->
<g id="edge2" class="edge">
<title>Node1&#45;&gt;Node3</title>
<path fill="none" stroke="midnightblue" d="M474.08,-251.42C463.7,-284.24 439.5,-349.24 400,-391 395,-396.29 388.28,-400.58 382.07,-403.81"/>
<polygon fill="midnightblue" stroke="midnightblue" points="477.5,-252.19 477.07,-241.61 470.8,-250.15 477.5,-252.19"/>
</g>
<!-- Node4 -->
<g id="node4" class="node">
<title>Node4</title>
<g id="a_node4"><a xlink:href="../../df/dd5/ios_8h.html#ace2036d970905192360d622140bfe336" target="_top" xlink:title=" ">
<polygon fill="white" stroke="black" points="346.5,-320.5 346.5,-341.5 381.5,-341.5 381.5,-320.5 346.5,-320.5"/>
<text text-anchor="middle" x="364" y="-327.9" font-family="Helvetica,sans-Serif" font-size="12.00">hex</text>
</a>
</g>
</g>
<!-- Node1&#45;&gt;Node4 -->
<g id="edge3" class="edge">
<title>Node1&#45;&gt;Node4</title>
<path fill="none" stroke="midnightblue" d="M464.18,-249.44C448.86,-266.63 424.41,-292.35 400,-311 394.33,-315.33 387.62,-319.39 381.6,-322.7"/>
<polygon fill="midnightblue" stroke="midnightblue" points="466.96,-251.57 470.93,-241.75 461.7,-246.95 466.96,-251.57"/>
</g>
<!-- Node9 -->
<g id="node8" class="node">
<title>Node9</title>
<g id="a_node8"><a xlink:href="../../df/dd5/ios_8h.html#a8dd76c1ce8fced364a98428ca1eea7a6" target="_top" xlink:title=" ">
<polygon fill="white" stroke="black" points="337,-160.5 337,-181.5 391,-181.5 391,-160.5 337,-160.5"/>
<text text-anchor="middle" x="364" y="-167.9" font-family="Helvetica,sans-Serif" font-size="12.00">internal</text>
</a>
</g>
</g>
<!-- Node1&#45;&gt;Node9 -->
<g id="edge7" class="edge">
<title>Node1&#45;&gt;Node9</title>
<path fill="none" stroke="midnightblue" d="M450.83,-215.78C430.41,-205.13 403.65,-191.17 385.48,-181.68"/>
<polygon fill="midnightblue" stroke="midnightblue" points="449.22,-218.89 459.71,-220.41 452.46,-212.68 449.22,-218.89"/>
</g>
<!-- Node10 -->
<g id="node9" class="node">
<title>Node10</title>
<g id="a_node9"><a xlink:href="../../df/dd5/ios_8h.html#a24a80a73f0a0d2d72d1cb74f49ff4759" target="_top" xlink:title=" ">
<polygon fill="white" stroke="black" points="348,-120.5 348,-141.5 380,-141.5 380,-120.5 348,-120.5"/>
<text text-anchor="middle" x="364" y="-127.9" font-family="Helvetica,sans-Serif" font-size="12.00">left</text>
</a>
</g>
</g>
<!-- Node1&#45;&gt;Node10 -->
<g id="edge8" class="edge">
<title>Node1&#45;&gt;Node10</title>
<path fill="none" stroke="midnightblue" d="M464.18,-212.56C448.86,-195.37 424.41,-169.65 400,-151 393.88,-146.33 386.56,-141.98 380.2,-138.54"/>
<polygon fill="midnightblue" stroke="midnightblue" points="461.7,-215.05 470.93,-220.25 466.96,-210.43 461.7,-215.05"/>
</g>
<!-- Node50 -->
<g id="node12" class="node">
<title>Node50</title>
<g id="a_node12"><a xlink:href="../../df/dd5/ios_8h.html#ae661b435df22f8e8e643817f4f915123" target="_top" xlink:title=" ">
<polygon fill="white" stroke="black" points="348,-360.5 348,-381.5 380,-381.5 380,-360.5 348,-360.5"/>
<text text-anchor="middle" x="364" y="-367.9" font-family="Helvetica,sans-Serif" font-size="12.00">oct</text>
</a>
</g>
</g>
<!-- Node1&#45;&gt;Node50 -->
<g id="edge11" class="edge">
<title>Node1&#45;&gt;Node50</title>
<path fill="none" stroke="midnightblue" d="M470.42,-250.94C457.34,-276.56 431.83,-321.29 400,-351 394.27,-356.35 386.85,-360.85 380.33,-364.21"/>
<polygon fill="midnightblue" stroke="midnightblue" points="473.63,-252.33 474.96,-241.82 467.37,-249.21 473.63,-252.33"/>
</g>
<!-- Node51 -->
<g id="node13" class="node">
<title>Node51</title>
<g id="a_node13"><a xlink:href="../../df/dd5/ios_8h.html#aee80fd600c5c58a2bebbd48afdcf8280" target="_top" xlink:title=" ">
<polygon fill="white" stroke="black" points="344.5,-80.5 344.5,-101.5 383.5,-101.5 383.5,-80.5 344.5,-80.5"/>
<text text-anchor="middle" x="364" y="-87.9" font-family="Helvetica,sans-Serif" font-size="12.00">right</text>
</a>
</g>
</g>
<!-- Node1&#45;&gt;Node51 -->
<g id="edge13" class="edge">
<title>Node1&#45;&gt;Node51</title>
<path fill="none" stroke="midnightblue" d="M470.42,-211.06C457.34,-185.44 431.83,-140.71 400,-111 395.19,-106.51 389.19,-102.62 383.53,-99.5"/>
<polygon fill="midnightblue" stroke="midnightblue" points="467.37,-212.79 474.96,-220.18 473.63,-209.67 467.37,-212.79"/>
</g>
<!-- Node52 -->
<g id="node14" class="node">
<title>Node52</title>
<g id="a_node14"><a xlink:href="../../df/dd5/ios_8h.html#a73159e1398939807aeae6015dd86f2f4" target="_top" xlink:title=" ">
<polygon fill="white" stroke="black" points="329,-280.5 329,-301.5 399,-301.5 399,-280.5 329,-280.5"/>
<text text-anchor="middle" x="364" y="-287.9" font-family="Helvetica,sans-Serif" font-size="12.00">showbase</text>
</a>
</g>
</g>
<!-- Node1&#45;&gt;Node52 -->
<g id="edge15" class="edge">
<title>Node1&#45;&gt;Node52</title>
<path fill="none" stroke="midnightblue" d="M450.83,-246.22C430.41,-256.87 403.65,-270.83 385.48,-280.32"/>
<polygon fill="midnightblue" stroke="midnightblue" points="452.46,-249.32 459.71,-241.59 449.22,-243.11 452.46,-249.32"/>
</g>
<!-- Node53 -->
<g id="node15" class="node">
<title>Node53</title>
<g id="a_node15"><a xlink:href="../../df/dd5/ios_8h.html#a322f5897ace09768cd782f0c8f222770" target="_top" xlink:title=" ">
<polygon fill="white" stroke="black" points="329.5,-40.5 329.5,-61.5 398.5,-61.5 398.5,-40.5 329.5,-40.5"/>
<text text-anchor="middle" x="364" y="-47.9" font-family="Helvetica,sans-Serif" font-size="12.00">showpoint</text>
</a>
</g>
</g>
<!-- Node1&#45;&gt;Node53 -->
<g id="edge17" class="edge">
<title>Node1&#45;&gt;Node53</title>
<path fill="none" stroke="midnightblue" d="M474.08,-210.58C463.7,-177.76 439.5,-112.76 400,-71 396.63,-67.44 392.49,-64.33 388.25,-61.7"/>
<polygon fill="midnightblue" stroke="midnightblue" points="470.8,-211.85 477.07,-220.39 477.5,-209.81 470.8,-211.85"/>
</g>
<!-- Node54 -->
<g id="node16" class="node">
<title>Node54</title>
<g id="a_node16"><a xlink:href="../../df/dd5/ios_8h.html#a80798554dbfece679adb0e05eb855943" target="_top" xlink:title=" ">
<polygon fill="white" stroke="black" points="332.5,-240.5 332.5,-261.5 395.5,-261.5 395.5,-240.5 332.5,-240.5"/>
<text text-anchor="middle" x="364" y="-247.9" font-family="Helvetica,sans-Serif" font-size="12.00">showpos</text>
</a>
</g>
</g>
<!-- Node1&#45;&gt;Node54 -->
<g id="edge18" class="edge">
<title>Node1&#45;&gt;Node54</title>
<path fill="none" stroke="midnightblue" d="M425.97,-240.4C415.56,-242.21 404.99,-244.04 395.65,-245.67"/>
<polygon fill="midnightblue" stroke="midnightblue" points="426.61,-243.84 435.87,-238.68 425.42,-236.94 426.61,-243.84"/>
</g>
<!-- Node55 -->
<g id="node17" class="node">
<title>Node55</title>
<g id="a_node17"><a xlink:href="../../df/dd5/ios_8h.html#a972282e5d9d894f61c8a54423858c0a4" target="_top" xlink:title=" ">
<polygon fill="white" stroke="black" points="337.5,-0.5 337.5,-21.5 390.5,-21.5 390.5,-0.5 337.5,-0.5"/>
<text text-anchor="middle" x="364" y="-7.9" font-family="Helvetica,sans-Serif" font-size="12.00">skipws</text>
</a>
</g>
</g>
<!-- Node1&#45;&gt;Node55 -->
<g id="edge20" class="edge">
<title>Node1&#45;&gt;Node55</title>
<path fill="none" stroke="midnightblue" d="M476.39,-210.19C468.67,-170.99 447.24,-85.29 400,-31 396.88,-27.41 392.94,-24.32 388.85,-21.71"/>
<polygon fill="midnightblue" stroke="midnightblue" points="472.98,-210.96 478.25,-220.15 479.86,-209.68 472.98,-210.96"/>
</g>
<!-- Node56 -->
<g id="node18" class="node">
<title>Node56</title>
<g id="a_node18"><a xlink:href="../../df/dd5/ios_8h.html#af5d5e1a0effa1b500bb882feed5a2061" target="_top" xlink:title=" ">
<polygon fill="white" stroke="black" points="328,-200.5 328,-221.5 400,-221.5 400,-200.5 328,-200.5"/>
<text text-anchor="middle" x="364" y="-207.9" font-family="Helvetica,sans-Serif" font-size="12.00">uppercase</text>
</a>
</g>
</g>
<!-- Node1&#45;&gt;Node56 -->
<g id="edge21" class="edge">
<title>Node1&#45;&gt;Node56</title>
<path fill="none" stroke="midnightblue" d="M425.79,-221.57C417.12,-220.06 408.35,-218.54 400.28,-217.13"/>
<polygon fill="midnightblue" stroke="midnightblue" points="425.42,-225.06 435.87,-223.32 426.61,-218.16 425.42,-225.06"/>
</g>
<!-- Node5 -->
<g id="node5" class="node">
<title>Node5</title>
<g id="a_node5"><a xlink:href="../../d4/dc1/classios__base.html#a19ffb796cb95d3744d9bc7739939acf2" target="_top" xlink:title=" ">
<polygon fill="white" stroke="black" points="155,-330.5 155,-351.5 292,-351.5 292,-330.5 155,-330.5"/>
<text text-anchor="middle" x="223.5" y="-337.9" font-family="Helvetica,sans-Serif" font-size="12.00">ios_base::flagsToBase</text>
</a>
</g>
</g>
<!-- Node4&#45;&gt;Node5 -->
<g id="edge4" class="edge">
<title>Node4&#45;&gt;Node5</title>
<path fill="none" stroke="midnightblue" d="M336.06,-332.95C323.44,-333.86 307.77,-334.99 292.2,-336.11"/>
<polygon fill="midnightblue" stroke="midnightblue" points="336.57,-336.42 346.29,-332.21 336.07,-329.44 336.57,-336.42"/>
</g>
<!-- Node8 -->
<g id="node7" class="node">
<title>Node8</title>
<g id="a_node7"><a xlink:href="../../d0/d43/classostream.html#a007a7b9de35b4a63c602f8d8f589d8b1" target="_top" xlink:title=" ">
<polygon fill="white" stroke="black" points="171,-270.5 171,-291.5 276,-291.5 276,-270.5 171,-270.5"/>
<text text-anchor="middle" x="223.5" y="-277.9" font-family="Helvetica,sans-Serif" font-size="12.00">ostream::putNum</text>
</a>
</g>
</g>
<!-- Node4&#45;&gt;Node8 -->
<g id="edge6" class="edge">
<title>Node4&#45;&gt;Node8</title>
<path fill="none" stroke="midnightblue" d="M336.87,-321.57C313.15,-313 278.2,-300.38 253.59,-291.5"/>
<polygon fill="midnightblue" stroke="midnightblue" points="335.7,-324.87 346.29,-324.97 338.08,-318.28 335.7,-324.87"/>
</g>
<!-- Node6 -->
<g id="node6" class="node">
<title>Node6</title>
<g id="a_node6"><a xlink:href="../../d0/d43/classostream.html#a2620fcbd24176bb159f22e1f054ec3f9" target="_top" xlink:title=" ">
<polygon fill="white" stroke="red" points="7,-330.5 7,-351.5 112,-351.5 112,-330.5 7,-330.5"/>
<text text-anchor="middle" x="59.5" y="-337.9" font-family="Helvetica,sans-Serif" font-size="12.00">ostream::putNum</text>
</a>
</g>
</g>
<!-- Node5&#45;&gt;Node6 -->
<g id="edge5" class="edge">
<title>Node5&#45;&gt;Node6</title>
<path fill="none" stroke="midnightblue" d="M144.67,-341C133.66,-341 122.57,-341 112.22,-341"/>
<polygon fill="midnightblue" stroke="midnightblue" points="144.74,-344.5 154.74,-341 144.74,-337.5 144.74,-344.5"/>
</g>
<!-- Node11 -->
<g id="node10" class="node">
<title>Node11</title>
<g id="a_node10"><a xlink:href="../../de/d22/upcase_8cpp.html#ad530d8c884214dce68a3e55efae606fd" target="_top" xlink:title=" ">
<polygon fill="white" stroke="black" points="180,-100.5 180,-121.5 267,-121.5 267,-100.5 180,-100.5"/>
<text text-anchor="middle" x="223.5" y="-107.9" font-family="Helvetica,sans-Serif" font-size="12.00">searchPair16</text>
</a>
</g>
</g>
<!-- Node10&#45;&gt;Node11 -->
<g id="edge9" class="edge">
<title>Node10&#45;&gt;Node11</title>
<path fill="none" stroke="midnightblue" d="M337.91,-127.38C318.24,-124.54 290.42,-120.52 267.26,-117.17"/>
<polygon fill="midnightblue" stroke="midnightblue" points="337.52,-130.86 347.91,-128.82 338.52,-123.93 337.52,-130.86"/>
</g>
<!-- Node12 -->
<g id="node11" class="node">
<title>Node12</title>
<g id="a_node11"><a xlink:href="../../de/d22/upcase_8cpp.html#a21b6d308ac42097fe276a6cb2f392818" target="_top" xlink:title=" ">
<polygon fill="white" stroke="red" points="26,-100.5 26,-121.5 93,-121.5 93,-100.5 26,-100.5"/>
<text text-anchor="middle" x="59.5" y="-107.9" font-family="Helvetica,sans-Serif" font-size="12.00">toUpcase</text>
</a>
</g>
</g>
<!-- Node11&#45;&gt;Node12 -->
<g id="edge10" class="edge">
<title>Node11&#45;&gt;Node12</title>
<path fill="none" stroke="midnightblue" d="M169.76,-111C144.49,-111 115.02,-111 93.06,-111"/>
<polygon fill="midnightblue" stroke="midnightblue" points="169.94,-114.5 179.94,-111 169.94,-107.5 169.94,-114.5"/>
</g>
<!-- Node50&#45;&gt;Node5 -->
<g id="edge12" class="edge">
<title>Node50&#45;&gt;Node5</title>
<path fill="none" stroke="midnightblue" d="M337.9,-365.56C319.85,-361.65 294.94,-356.26 273.06,-351.52"/>
<polygon fill="midnightblue" stroke="midnightblue" points="337.4,-369.04 347.91,-367.73 338.88,-362.19 337.4,-369.04"/>
</g>
<!-- Node51&#45;&gt;Node11 -->
<g id="edge14" class="edge">
<title>Node51&#45;&gt;Node11</title>
<path fill="none" stroke="midnightblue" d="M334.27,-95.15C314.83,-97.96 288.83,-101.71 267.01,-104.86"/>
<polygon fill="midnightblue" stroke="midnightblue" points="334.92,-98.59 344.32,-93.7 333.92,-91.66 334.92,-98.59"/>
</g>
<!-- Node52&#45;&gt;Node8 -->
<g id="edge16" class="edge">
<title>Node52&#45;&gt;Node8</title>
<path fill="none" stroke="midnightblue" d="M318.73,-287.8C305.18,-286.82 290.15,-285.74 276.15,-284.73"/>
<polygon fill="midnightblue" stroke="midnightblue" points="318.54,-291.3 328.76,-288.53 319.04,-284.32 318.54,-291.3"/>
</g>
<!-- Node54&#45;&gt;Node8 -->
<g id="edge19" class="edge">
<title>Node54&#45;&gt;Node8</title>
<path fill="none" stroke="midnightblue" d="M322.48,-259.78C307.02,-263.13 289.24,-266.98 273.1,-270.47"/>
<polygon fill="midnightblue" stroke="midnightblue" points="323.23,-263.2 332.26,-257.66 321.75,-256.35 323.23,-263.2"/>
</g>
<!-- Node56&#45;&gt;Node8 -->
<g id="edge24" class="edge">
<title>Node56&#45;&gt;Node8</title>
<path fill="none" stroke="midnightblue" d="M332.77,-226.28C306.28,-239.67 268.49,-258.77 245.28,-270.5"/>
<polygon fill="midnightblue" stroke="midnightblue" points="334.62,-229.27 341.96,-221.63 331.46,-223.02 334.62,-229.27"/>
</g>
<!-- Node57 -->
<g id="node19" class="node">
<title>Node57</title>
<g id="a_node19"><a xlink:href="../../d0/d43/classostream.html#ac8258022104445b4815b1620627c8aff" target="_top" xlink:title=" ">
<polygon fill="white" stroke="black" points="171,-200.5 171,-221.5 276,-221.5 276,-200.5 171,-200.5"/>
<text text-anchor="middle" x="223.5" y="-207.9" font-family="Helvetica,sans-Serif" font-size="12.00">ostream::fmtNum</text>
</a>
</g>
</g>
<!-- Node56&#45;&gt;Node57 -->
<g id="edge22" class="edge">
<title>Node56&#45;&gt;Node57</title>
<path fill="none" stroke="midnightblue" d="M317.44,-211C304.25,-211 289.75,-211 276.22,-211"/>
<polygon fill="midnightblue" stroke="midnightblue" points="317.69,-214.5 327.69,-211 317.69,-207.5 317.69,-214.5"/>
</g>
<!-- Node58 -->
<g id="node20" class="node">
<title>Node58</title>
<g id="a_node20"><a xlink:href="../../d0/d43/classostream.html#a3a77bc22bce5cf5d09f2d3816a11dd18" target="_top" xlink:title=" ">
<polygon fill="white" stroke="black" points="0,-200.5 0,-221.5 119,-221.5 119,-200.5 0,-200.5"/>
<text text-anchor="middle" x="59.5" y="-207.9" font-family="Helvetica,sans-Serif" font-size="12.00">ostream::putDouble</text>
</a>
</g>
</g>
<!-- Node57&#45;&gt;Node58 -->
<g id="edge23" class="edge">
<title>Node57&#45;&gt;Node58</title>
<path fill="none" stroke="midnightblue" d="M160.55,-211C146.92,-211 132.52,-211 119.03,-211"/>
<polygon fill="midnightblue" stroke="midnightblue" points="160.8,-214.5 170.8,-211 160.8,-207.5 160.8,-214.5"/>
</g>
</g>
</svg>
        <g id="navigator" transform="translate(0 0)" fill="#404254">
                <rect fill="#f2f5e9" fill-opacity="0.5" stroke="#606060" stroke-width=".5" x="0" y="0" width="60" height="60"/>
                <use id="zoomplus" xlink:href="#zoomPlus" x="17" y="9" onmousedown="handleZoom(evt,'in')"/>
                <use id="zoomminus" xlink:href="#zoomMin" x="42" y="9" onmousedown="handleZoom(evt,'out')"/>
                <use id="reset" xlink:href="#resetDef" x="30" y="36" onmousedown="handleReset()"/>
                <g id="arrowUp" xlink:href="#dirArrow" transform="translate(30 24)" onmousedown="handlePan(0,-1)">
                  <use xlink:href="#rim" fill="#404040">
                        <set attributeName="fill" to="#808080" begin="arrowUp.mouseover" end="arrowUp.mouseout"/>
                  </use>
                  <path fill="none" stroke="white" stroke-width="1.5" d="M0,-3.0v7 M-2.5,-0.5L0,-3.0L2.5,-0.5"/>
                </g>
                <g id="arrowRight" xlink:href="#dirArrow" transform="rotate(90) translate(36 -43)" onmousedown="handlePan(1,0)">
                  <use xlink:href="#rim" fill="#404040">
                        <set attributeName="fill" to="#808080" begin="arrowRight.mouseover" end="arrowRight.mouseout"/>
                  </use>
                  <path fill="none" stroke="white" stroke-width="1.5" d="M0,-3.0v7 M-2.5,-0.5L0,-3.0L2.5,-0.5"/>
                </g>
                <g id="arrowDown" xlink:href="#dirArrow" transform="rotate(180) translate(-30 -48)" onmousedown="handlePan(0,1)">
                  <use xlink:href="#rim" fill="#404040">
                        <set attributeName="fill" to="#808080" begin="arrowDown.mouseover" end="arrowDown.mouseout"/>
                  </use>
                  <path fill="none" stroke="white" stroke-width="1.5" d="M0,-3.0v7 M-2.5,-0.5L0,-3.0L2.5,-0.5"/>
                </g>
                <g id="arrowLeft" xlink:href="#dirArrow" transform="rotate(270) translate(-36 17)" onmousedown="handlePan(-1,0)">
                  <use xlink:href="#rim" fill="#404040">
                        <set attributeName="fill" to="#808080" begin="arrowLeft.mouseover" end="arrowLeft.mouseout"/>
                  </use>
                  <path fill="none" stroke="white" stroke-width="1.5" d="M0,-3.0v7 M-2.5,-0.5L0,-3.0L2.5,-0.5"/>
                </g>
        </g>
        <svg viewBox="0 0 15 15" width="100%" height="30px" preserveAspectRatio="xMaxYMin meet">
         <g id="arrow_out" transform="scale(0.3 0.3)">
          <a xlink:href="classios__base_ab5db835cb45bba7684ebf72d9a3cccb4_icgraph_org.svg" target="_base">
           <rect id="button" ry="5" rx="5" y="6" x="6" height="38" width="38"
                fill="#f2f5e9" fill-opacity="0.5" stroke="#606060" stroke-width="1.0"/>
           <path id="arrow"
             d="M 11.500037,31.436501 C 11.940474,20.09759 22.043105,11.32322 32.158766,21.979434 L 37.068811,17.246167 C 37.068811,17.246167 37.088388,32 37.088388,32 L 22.160133,31.978069 C 22.160133,31.978069 26.997745,27.140456 26.997745,27.140456 C 18.528582,18.264221 13.291696,25.230495 11.500037,31.436501 z"
             style="fill:#404040;"/>
          </a>
         </g>
        </svg>
</svg>
