<?xml version="1.0" encoding="UTF-8" standalone="no"?>
<!DOCTYPE svg PUBLIC "-//W3C//DTD SVG 1.1//EN"
 "http://www.w3.org/Graphics/SVG/1.1/DTD/svg11.dtd">
<!-- Generated by graphviz version 2.47.3 (20210619.1520)
 -->
<!-- Title: FatPartition::init Pages: 1 -->
<svg width="349pt" height="28pt"
 viewBox="0.00 0.00 349.00 28.00" xmlns="http://www.w3.org/2000/svg" xmlns:xlink="http://www.w3.org/1999/xlink">
<g id="graph0" class="graph" transform="scale(1 1) rotate(0) translate(4 24)">
<title>FatPartition::init</title>
<polygon fill="white" stroke="transparent" points="-4,4 -4,-24 345,-24 345,4 -4,4"/>
<!-- Node1 -->
<g id="node1" class="node">
<title>Node1</title>
<g id="a_node1"><a xlink:title=" ">
<polygon fill="#bfbfbf" stroke="black" points="255,-0.5 255,-19.5 341,-19.5 341,-0.5 255,-0.5"/>
<text text-anchor="middle" x="298" y="-7.5" font-family="Helvetica,sans-Serif" font-size="10.00">FatPartition::init</text>
</a>
</g>
</g>
<!-- Node2 -->
<g id="node2" class="node">
<title>Node2</title>
<g id="a_node2"><a xlink:href="../../d9/d27/class_fat_volume.html#af3a219ea89bbbf310a61115c9a3d221a" target="_top" xlink:title=" ">
<polygon fill="white" stroke="black" points="126,-0.5 126,-19.5 219,-19.5 219,-0.5 126,-0.5"/>
<text text-anchor="middle" x="172.5" y="-7.5" font-family="Helvetica,sans-Serif" font-size="10.00">FatVolume::begin</text>
</a>
</g>
</g>
<!-- Node1&#45;&gt;Node2 -->
<g id="edge1" class="edge">
<title>Node1&#45;&gt;Node2</title>
<path fill="none" stroke="midnightblue" d="M244.7,-10C236.25,-10 227.55,-10 219.27,-10"/>
<polygon fill="midnightblue" stroke="midnightblue" points="244.84,-13.5 254.84,-10 244.84,-6.5 244.84,-13.5"/>
</g>
<!-- Node3 -->
<g id="node3" class="node">
<title>Node3</title>
<g id="a_node3"><a xlink:href="../../df/dd9/class_fs_volume.html#ae587e7c114b0af86ec0b2927300133b0" target="_top" xlink:title=" ">
<polygon fill="white" stroke="black" points="0,-0.5 0,-19.5 90,-19.5 90,-0.5 0,-0.5"/>
<text text-anchor="middle" x="45" y="-7.5" font-family="Helvetica,sans-Serif" font-size="10.00">FsVolume::begin</text>
</a>
</g>
</g>
<!-- Node2&#45;&gt;Node3 -->
<g id="edge2" class="edge">
<title>Node2&#45;&gt;Node3</title>
<path fill="none" stroke="midnightblue" d="M115.58,-10C107.06,-10 98.38,-10 90.16,-10"/>
<polygon fill="midnightblue" stroke="midnightblue" points="115.84,-13.5 125.84,-10 115.84,-6.5 115.84,-13.5"/>
</g>
</g>
</svg>
