<?xml version="1.0" encoding="UTF-8" standalone="no"?>
<!DOCTYPE svg PUBLIC "-//W3C//DTD SVG 1.1//EN"
 "http://www.w3.org/Graphics/SVG/1.1/DTD/svg11.dtd">
<!-- Generated by graphviz version 2.47.3 (20210619.1520)
 -->
<!-- Title: controlButton.h Pages: 1 -->
<!--zoomable 378 -->
<svg id="main" version="1.1" xmlns="http://www.w3.org/2000/svg" xmlns:xlink="http://www.w3.org/1999/xlink" xml:space="preserve" onload="init(evt)">
<style type="text/css"><![CDATA[
.edge:hover path { stroke: red; }
.edge:hover polygon { stroke: red; fill: red; }
]]></style>
<script type="text/javascript"><![CDATA[
var edges = document.getElementsByTagName('g');
if (edges && edges.length) {
  for (var i=0;i<edges.length;i++) {
    if (edges[i].id.substr(0,4)=='edge') {
      edges[i].setAttribute('class','edge');
    }
  }
}
]]></script>
        <defs>
                <circle id="rim" cx="0" cy="0" r="7"/>
                <circle id="rim2" cx="0" cy="0" r="3.5"/>
                <g id="zoomPlus">
                        <use xlink:href="#rim" fill="#404040">
                                <set attributeName="fill" to="#808080" begin="zoomplus.mouseover" end="zoomplus.mouseout"/>
                        </use>
                        <path d="M-4,0h8M0,-4v8" fill="none" stroke="white" stroke-width="1.5" pointer-events="none"/>
                </g>
                <g id="zoomMin">
                        <use xlink:href="#rim" fill="#404040">
                                <set attributeName="fill" to="#808080" begin="zoomminus.mouseover" end="zoomminus.mouseout"/>
                        </use>
                        <path d="M-4,0h8" fill="none" stroke="white" stroke-width="1.5" pointer-events="none"/>
                </g>
                <g id="dirArrow">
                        <path fill="none" stroke="white" stroke-width="1.5" d="M0,-3.0v7 M-2.5,-0.5L0,-3.0L2.5,-0.5"/>
                </g>
               <g id="resetDef">
                       <use xlink:href="#rim2" fill="#404040">
                               <set attributeName="fill" to="#808080" begin="reset.mouseover" end="reset.mouseout"/>
                       </use>
               </g>
        </defs>

<script type="text/javascript">
var viewWidth = 1065;
var viewHeight = 378;
var sectionId = 'dynsection-0';
</script>
<script xlink:href="../../svgpan.js"/>
<svg id="graph" class="graph">
<g id="viewport">
<title>controlButton.h</title>
<!-- Node1 -->
<g id="node1" class="node">
<title>Node1</title>
<g id="a_node1"><a xlink:title=" ">
<polygon fill="#bfbfbf" stroke="black" points="752,-348.5 752,-369.5 845,-369.5 845,-348.5 752,-348.5"/>
<text text-anchor="middle" x="798.5" y="-355.9" font-family="Helvetica,sans-Serif" font-size="12.00">controlButton.h</text>
</a>
</g>
</g>
<!-- Node2 -->
<g id="node2" class="node">
<title>Node2</title>
<g id="a_node2"><a xlink:href="../../df/d72/_app_manager_8h.html" target="_top" xlink:title=" ">
<polygon fill="none" stroke="black" points="494.5,-290.5 494.5,-311.5 588.5,-311.5 588.5,-290.5 494.5,-290.5"/>
<text text-anchor="middle" x="541.5" y="-297.9" font-family="Helvetica,sans-Serif" font-size="12.00">AppManager.h</text>
</a>
</g>
</g>
<!-- Node1&#45;&gt;Node2 -->
<g id="edge1" class="edge">
<title>Node1&#45;&gt;Node2</title>
<path fill="none" stroke="midnightblue" d="M754.61,-348.44C710.54,-338.83 642.55,-324.02 595.26,-313.72"/>
<polygon fill="midnightblue" stroke="midnightblue" points="595.72,-310.23 585.21,-311.52 594.23,-317.07 595.72,-310.23"/>
</g>
<!-- Node4 -->
<g id="node4" class="node">
<title>Node4</title>
<g id="a_node4"><a xlink:href="../../d8/d2c/globaldefs_8h.html" target="_top" xlink:title=" ">
<polygon fill="none" stroke="black" points="644.5,-58.5 644.5,-79.5 724.5,-79.5 724.5,-58.5 644.5,-58.5"/>
<text text-anchor="middle" x="684.5" y="-65.9" font-family="Helvetica,sans-Serif" font-size="12.00">globaldefs.h</text>
</a>
</g>
</g>
<!-- Node1&#45;&gt;Node4 -->
<g id="edge38" class="edge">
<title>Node1&#45;&gt;Node4</title>
<path fill="none" stroke="midnightblue" d="M845.22,-357.55C919.57,-354.09 1056.5,-335.33 1056.5,-244 1056.5,-244 1056.5,-244 1056.5,-184 1056.5,-117.47 836.24,-85.83 734.69,-74.77"/>
<polygon fill="midnightblue" stroke="midnightblue" points="734.98,-71.29 724.66,-73.71 734.24,-78.25 734.98,-71.29"/>
</g>
<!-- Node3 -->
<g id="node3" class="node">
<title>Node3</title>
<g id="a_node3"><a xlink:title=" ">
<polygon fill="none" stroke="#bfbfbf" points="651.5,-0.5 651.5,-21.5 717.5,-21.5 717.5,-0.5 651.5,-0.5"/>
<text text-anchor="middle" x="684.5" y="-7.9" font-family="Helvetica,sans-Serif" font-size="12.00">Arduino.h</text>
</a>
</g>
</g>
<!-- Node2&#45;&gt;Node3 -->
<g id="edge2" class="edge">
<title>Node2&#45;&gt;Node3</title>
<path fill="none" stroke="midnightblue" d="M588.54,-298.71C708.88,-294.12 1018.5,-273.81 1018.5,-186 1018.5,-186 1018.5,-186 1018.5,-126 1018.5,-65.23 817.98,-30.19 727.68,-17.49"/>
<polygon fill="midnightblue" stroke="midnightblue" points="728.13,-14.02 717.75,-16.13 727.17,-20.96 728.13,-14.02"/>
</g>
<!-- Node2&#45;&gt;Node4 -->
<g id="edge3" class="edge">
<title>Node2&#45;&gt;Node4</title>
<path fill="none" stroke="midnightblue" d="M588.75,-300.46C655.57,-299.59 780.47,-292.34 878.5,-254 920.41,-237.61 940.7,-235.91 961.5,-196 1008.64,-105.55 827.14,-79.86 735.05,-72.7"/>
<polygon fill="midnightblue" stroke="midnightblue" points="735.04,-69.19 724.82,-71.95 734.53,-76.17 735.04,-69.19"/>
</g>
<!-- Node5 -->
<g id="node5" class="node">
<title>Node5</title>
<g id="a_node5"><a xlink:href="../../de/d10/_h_s_i_8h.html" target="_top" xlink:title=" ">
<polygon fill="none" stroke="black" points="260.5,-58.5 260.5,-79.5 304.5,-79.5 304.5,-58.5 260.5,-58.5"/>
<text text-anchor="middle" x="282.5" y="-65.9" font-family="Helvetica,sans-Serif" font-size="12.00">HSI.h</text>
</a>
</g>
</g>
<!-- Node2&#45;&gt;Node5 -->
<g id="edge5" class="edge">
<title>Node2&#45;&gt;Node5</title>
<path fill="none" stroke="midnightblue" d="M494.49,-296.99C433.56,-292.09 332.08,-280.16 306.5,-254 263.03,-209.54 271.47,-127.51 278.25,-89.85"/>
<polygon fill="midnightblue" stroke="midnightblue" points="281.76,-90.16 280.24,-79.68 274.89,-88.82 281.76,-90.16"/>
</g>
<!-- Node6 -->
<g id="node6" class="node">
<title>Node6</title>
<g id="a_node6"><a xlink:href="../../d1/d4e/touch_8h.html" target="_top" xlink:title=" ">
<polygon fill="none" stroke="black" points="151,-232.5 151,-253.5 204,-253.5 204,-232.5 151,-232.5"/>
<text text-anchor="middle" x="177.5" y="-239.9" font-family="Helvetica,sans-Serif" font-size="12.00">touch.h</text>
</a>
</g>
</g>
<!-- Node2&#45;&gt;Node6 -->
<g id="edge6" class="edge">
<title>Node2&#45;&gt;Node6</title>
<path fill="none" stroke="midnightblue" d="M494.29,-292.74C420.88,-281.44 280.93,-259.91 214.4,-249.68"/>
<polygon fill="midnightblue" stroke="midnightblue" points="214.79,-246.2 204.38,-248.13 213.73,-253.11 214.79,-246.2"/>
</g>
<!-- Node8 -->
<g id="node8" class="node">
<title>Node8</title>
<g id="a_node8"><a xlink:href="../../d3/ddb/_analog_inputs_8h.html" target="_top" xlink:title=" ">
<polygon fill="none" stroke="black" points="315.5,-232.5 315.5,-253.5 407.5,-253.5 407.5,-232.5 315.5,-232.5"/>
<text text-anchor="middle" x="361.5" y="-239.9" font-family="Helvetica,sans-Serif" font-size="12.00">AnalogInputs.h</text>
</a>
</g>
</g>
<!-- Node2&#45;&gt;Node8 -->
<g id="edge8" class="edge">
<title>Node2&#45;&gt;Node8</title>
<path fill="none" stroke="midnightblue" d="M510.56,-290.37C480.5,-281.02 434.7,-266.77 401.8,-256.54"/>
<polygon fill="midnightblue" stroke="midnightblue" points="402.63,-253.13 392.04,-253.5 400.55,-259.81 402.63,-253.13"/>
</g>
<!-- Node23 -->
<g id="node10" class="node">
<title>Node23</title>
<g id="a_node10"><a xlink:href="../../d2/dda/_i_l_i9341__t3___e_r_i_s_8h.html" target="_top" xlink:title=" ">
<polygon fill="none" stroke="black" points="128.5,-58.5 128.5,-79.5 242.5,-79.5 242.5,-58.5 128.5,-58.5"/>
<text text-anchor="middle" x="185.5" y="-65.9" font-family="Helvetica,sans-Serif" font-size="12.00">ILI9341_t3_ERIS.h</text>
</a>
</g>
</g>
<!-- Node2&#45;&gt;Node23 -->
<g id="edge12" class="edge">
<title>Node2&#45;&gt;Node23</title>
<path fill="none" stroke="midnightblue" d="M494.19,-297.85C402.53,-293.16 204.21,-280.24 141.5,-254 97.37,-235.53 50,-217.68 69.5,-174 87.63,-133.39 130.32,-102.05 158.54,-84.82"/>
<polygon fill="midnightblue" stroke="midnightblue" points="160.68,-87.62 167.51,-79.52 157.12,-81.6 160.68,-87.62"/>
</g>
<!-- Node28 -->
<g id="node15" class="node">
<title>Node28</title>
<g id="a_node15"><a xlink:href="../../db/dc8/_audio_director_8h.html" target="_top" xlink:title=" ">
<polygon fill="none" stroke="black" points="492.5,-232.5 492.5,-253.5 590.5,-253.5 590.5,-232.5 492.5,-232.5"/>
<text text-anchor="middle" x="541.5" y="-239.9" font-family="Helvetica,sans-Serif" font-size="12.00">AudioDirector.h</text>
</a>
</g>
</g>
<!-- Node2&#45;&gt;Node28 -->
<g id="edge17" class="edge">
<title>Node2&#45;&gt;Node28</title>
<path fill="none" stroke="midnightblue" d="M541.5,-290.25C541.5,-282.94 541.5,-272.69 541.5,-263.7"/>
<polygon fill="midnightblue" stroke="midnightblue" points="545,-263.64 541.5,-253.64 538,-263.64 545,-263.64"/>
</g>
<!-- Node30 -->
<g id="node18" class="node">
<title>Node30</title>
<g id="a_node18"><a xlink:href="../../d9/d3e/_app_base_class_8h.html" target="_top" xlink:title=" ">
<polygon fill="none" stroke="red" points="407,-116.5 407,-137.5 512,-137.5 512,-116.5 407,-116.5"/>
<text text-anchor="middle" x="459.5" y="-123.9" font-family="Helvetica,sans-Serif" font-size="12.00">AppBaseClass.h</text>
</a>
</g>
</g>
<!-- Node2&#45;&gt;Node30 -->
<g id="edge32" class="edge">
<title>Node2&#45;&gt;Node30</title>
<path fill="none" stroke="midnightblue" d="M523.41,-290.38C510.24,-282.41 493.08,-269.83 483.5,-254 463.31,-220.64 459.51,-173.97 459.13,-147.81"/>
<polygon fill="midnightblue" stroke="midnightblue" points="462.63,-147.65 459.14,-137.65 455.63,-147.64 462.63,-147.65"/>
</g>
<!-- Node33 -->
<g id="node19" class="node">
<title>Node33</title>
<g id="a_node19"><a xlink:href="../../dd/df4/svc_data_dictionary_8h.html" target="_top" xlink:title="Data Dictionary service provides an interface to a data dictionary service the service shall provide ...">
<polygon fill="none" stroke="black" points="748,-232.5 748,-253.5 869,-253.5 869,-232.5 748,-232.5"/>
<text text-anchor="middle" x="808.5" y="-239.9" font-family="Helvetica,sans-Serif" font-size="12.00">svcDataDictionary.h</text>
</a>
</g>
</g>
<!-- Node2&#45;&gt;Node33 -->
<g id="edge33" class="edge">
<title>Node2&#45;&gt;Node33</title>
<path fill="none" stroke="midnightblue" d="M587.1,-290.44C633.08,-280.79 704.11,-265.89 753.26,-255.59"/>
<polygon fill="midnightblue" stroke="midnightblue" points="754.02,-259 763.09,-253.52 752.59,-252.15 754.02,-259"/>
</g>
<!-- Node4&#45;&gt;Node3 -->
<g id="edge4" class="edge">
<title>Node4&#45;&gt;Node3</title>
<path fill="none" stroke="midnightblue" d="M684.5,-58.25C684.5,-50.94 684.5,-40.69 684.5,-31.7"/>
<polygon fill="midnightblue" stroke="midnightblue" points="688,-31.64 684.5,-21.64 681,-31.64 688,-31.64"/>
</g>
<!-- Node7 -->
<g id="node7" class="node">
<title>Node7</title>
<g id="a_node7"><a xlink:title=" ">
<polygon fill="none" stroke="#bfbfbf" points="79,-174.5 79,-195.5 228,-195.5 228,-174.5 79,-174.5"/>
<text text-anchor="middle" x="153.5" y="-181.9" font-family="Helvetica,sans-Serif" font-size="12.00">XPT2046_Touchscreen.h</text>
</a>
</g>
</g>
<!-- Node6&#45;&gt;Node7 -->
<g id="edge7" class="edge">
<title>Node6&#45;&gt;Node7</title>
<path fill="none" stroke="midnightblue" d="M173.32,-232.25C170.12,-224.78 165.6,-214.24 161.69,-205.11"/>
<polygon fill="midnightblue" stroke="midnightblue" points="164.79,-203.46 157.63,-195.64 158.35,-206.21 164.79,-203.46"/>
</g>
<!-- Node8&#45;&gt;Node3 -->
<g id="edge9" class="edge">
<title>Node8&#45;&gt;Node3</title>
<path fill="none" stroke="midnightblue" d="M357.31,-232.48C352.01,-219.08 344.41,-194.02 351.5,-174 362.58,-142.73 371.7,-135.56 398.5,-116 473.98,-60.91 581.69,-32.3 641.06,-19.87"/>
<polygon fill="midnightblue" stroke="midnightblue" points="642.11,-23.23 651.21,-17.81 640.72,-16.37 642.11,-23.23"/>
</g>
<!-- Node8&#45;&gt;Node5 -->
<g id="edge11" class="edge">
<title>Node8&#45;&gt;Node5</title>
<path fill="none" stroke="midnightblue" d="M349.64,-232.21C339.95,-223.61 326.58,-210.27 318.5,-196 298.98,-161.51 289.35,-115.61 285.2,-89.8"/>
<polygon fill="midnightblue" stroke="midnightblue" points="288.64,-89.14 283.7,-79.77 281.71,-90.17 288.64,-89.14"/>
</g>
<!-- Node9 -->
<g id="node9" class="node">
<title>Node9</title>
<g id="a_node9"><a xlink:href="../../d2/ded/eris_audio_8h.html" target="_top" xlink:title="audio block class extentions (note: autogenerated code)">
<polygon fill="none" stroke="red" points="360.5,-174.5 360.5,-195.5 436.5,-195.5 436.5,-174.5 360.5,-174.5"/>
<text text-anchor="middle" x="398.5" y="-181.9" font-family="Helvetica,sans-Serif" font-size="12.00">erisAudio.h</text>
</a>
</g>
</g>
<!-- Node8&#45;&gt;Node9 -->
<g id="edge10" class="edge">
<title>Node8&#45;&gt;Node9</title>
<path fill="none" stroke="midnightblue" d="M367.94,-232.25C373.04,-224.54 380.29,-213.56 386.45,-204.23"/>
<polygon fill="midnightblue" stroke="midnightblue" points="389.54,-205.92 392.13,-195.64 383.7,-202.06 389.54,-205.92"/>
</g>
<!-- Node24 -->
<g id="node11" class="node">
<title>Node24</title>
<g id="a_node11"><a xlink:title=" ">
<polygon fill="none" stroke="#bfbfbf" points="249.5,-0.5 249.5,-21.5 335.5,-21.5 335.5,-0.5 249.5,-0.5"/>
<text text-anchor="middle" x="292.5" y="-7.9" font-family="Helvetica,sans-Serif" font-size="12.00">ILI9341_t3n.h</text>
</a>
</g>
</g>
<!-- Node23&#45;&gt;Node24 -->
<g id="edge13" class="edge">
<title>Node23&#45;&gt;Node24</title>
<path fill="none" stroke="midnightblue" d="M204.14,-58.25C220.94,-49.45 245.86,-36.41 264.96,-26.41"/>
<polygon fill="midnightblue" stroke="midnightblue" points="266.84,-29.38 274.08,-21.64 263.59,-23.18 266.84,-29.38"/>
</g>
<!-- Node25 -->
<g id="node12" class="node">
<title>Node25</title>
<g id="a_node12"><a xlink:title=" ">
<polygon fill="none" stroke="#bfbfbf" points="0,-0.5 0,-21.5 121,-21.5 121,-0.5 0,-0.5"/>
<text text-anchor="middle" x="60.5" y="-7.9" font-family="Helvetica,sans-Serif" font-size="12.00">SdCard/SdioCard.h</text>
</a>
</g>
</g>
<!-- Node23&#45;&gt;Node25 -->
<g id="edge14" class="edge">
<title>Node23&#45;&gt;Node25</title>
<path fill="none" stroke="midnightblue" d="M164.01,-58.37C143.86,-49.34 113.51,-35.75 90.88,-25.61"/>
<polygon fill="midnightblue" stroke="midnightblue" points="92.26,-22.4 81.71,-21.5 89.4,-28.78 92.26,-22.4"/>
</g>
<!-- Node26 -->
<g id="node13" class="node">
<title>Node26</title>
<g id="a_node13"><a xlink:title=" ">
<polygon fill="none" stroke="#bfbfbf" points="139.5,-0.5 139.5,-21.5 231.5,-21.5 231.5,-0.5 139.5,-0.5"/>
<text text-anchor="middle" x="185.5" y="-7.9" font-family="Helvetica,sans-Serif" font-size="12.00">SdFatConfig.h</text>
</a>
</g>
</g>
<!-- Node23&#45;&gt;Node26 -->
<g id="edge15" class="edge">
<title>Node23&#45;&gt;Node26</title>
<path fill="none" stroke="midnightblue" d="M185.5,-58.25C185.5,-50.94 185.5,-40.69 185.5,-31.7"/>
<polygon fill="midnightblue" stroke="midnightblue" points="189,-31.64 185.5,-21.64 182,-31.64 189,-31.64"/>
</g>
<!-- Node27 -->
<g id="node14" class="node">
<title>Node27</title>
<g id="a_node14"><a xlink:title=" ">
<polygon fill="none" stroke="#bfbfbf" points="451.5,-0.5 451.5,-21.5 509.5,-21.5 509.5,-0.5 451.5,-0.5"/>
<text text-anchor="middle" x="480.5" y="-7.9" font-family="Helvetica,sans-Serif" font-size="12.00">SdFat.h</text>
</a>
</g>
</g>
<!-- Node23&#45;&gt;Node27 -->
<g id="edge16" class="edge">
<title>Node23&#45;&gt;Node27</title>
<path fill="none" stroke="midnightblue" d="M235.88,-58.44C294.04,-47.4 388.47,-29.47 441.38,-19.43"/>
<polygon fill="midnightblue" stroke="midnightblue" points="442.22,-22.83 451.39,-17.53 440.91,-15.95 442.22,-22.83"/>
</g>
<!-- Node28&#45;&gt;Node4 -->
<g id="edge18" class="edge">
<title>Node28&#45;&gt;Node4</title>
<path fill="none" stroke="midnightblue" d="M542.37,-232.48C544.01,-218.63 548.54,-192.54 560.5,-174 585.78,-134.79 630.43,-102.7 658.69,-84.98"/>
<polygon fill="midnightblue" stroke="midnightblue" points="660.54,-87.95 667.24,-79.74 656.88,-81.98 660.54,-87.95"/>
</g>
<!-- Node28&#45;&gt;Node9 -->
<g id="edge20" class="edge">
<title>Node28&#45;&gt;Node9</title>
<path fill="none" stroke="midnightblue" d="M516.92,-232.37C493.55,-223.22 458.21,-209.38 432.22,-199.21"/>
<polygon fill="midnightblue" stroke="midnightblue" points="433.35,-195.89 422.76,-195.5 430.8,-202.41 433.35,-195.89"/>
</g>
<!-- Node13 -->
<g id="node16" class="node">
<title>Node13</title>
<g id="a_node16"><a xlink:title=" ">
<polygon fill="none" stroke="#bfbfbf" points="743.5,-116.5 743.5,-137.5 797.5,-137.5 797.5,-116.5 743.5,-116.5"/>
<text text-anchor="middle" x="770.5" y="-123.9" font-family="Helvetica,sans-Serif" font-size="12.00">string.h</text>
</a>
</g>
</g>
<!-- Node28&#45;&gt;Node13 -->
<g id="edge19" class="edge">
<title>Node28&#45;&gt;Node13</title>
<path fill="none" stroke="midnightblue" d="M590.8,-237.06C645.39,-230.61 728.71,-217.53 751.5,-196 764.55,-183.67 768.89,-163.19 770.21,-147.93"/>
<polygon fill="midnightblue" stroke="midnightblue" points="773.7,-148.09 770.72,-137.92 766.71,-147.73 773.7,-148.09"/>
</g>
<!-- Node29 -->
<g id="node17" class="node">
<title>Node29</title>
<g id="a_node17"><a xlink:href="../../db/db5/svc_serial_command_interface_8h.html" target="_top" xlink:title=" ">
<polygon fill="none" stroke="red" points="569,-174.5 569,-195.5 742,-195.5 742,-174.5 569,-174.5"/>
<text text-anchor="middle" x="655.5" y="-181.9" font-family="Helvetica,sans-Serif" font-size="12.00">svcSerialCommandInterface.h</text>
</a>
</g>
</g>
<!-- Node28&#45;&gt;Node29 -->
<g id="edge21" class="edge">
<title>Node28&#45;&gt;Node29</title>
<path fill="none" stroke="midnightblue" d="M561.1,-232.37C579.23,-223.46 606.41,-210.11 626.96,-200.02"/>
<polygon fill="midnightblue" stroke="midnightblue" points="628.73,-203.05 636.16,-195.5 625.64,-196.77 628.73,-203.05"/>
</g>
<!-- Node29&#45;&gt;Node2 -->
<g id="edge24" class="edge">
<title>Node29&#45;&gt;Node2</title>
<path fill="none" stroke="midnightblue" d="M648.48,-195.78C638.41,-209.5 618.93,-234.93 599.5,-254 588.39,-264.91 574.81,-275.79 563.58,-284.23"/>
<polygon fill="midnightblue" stroke="midnightblue" points="561.51,-281.41 555.54,-290.17 565.66,-287.05 561.51,-281.41"/>
</g>
<!-- Node29&#45;&gt;Node4 -->
<g id="edge22" class="edge">
<title>Node29&#45;&gt;Node4</title>
<path fill="none" stroke="midnightblue" d="M657.97,-174.28C662.72,-155.6 673.21,-114.37 679.48,-89.72"/>
<polygon fill="midnightblue" stroke="midnightblue" points="682.96,-90.25 682.03,-79.69 676.18,-88.52 682.96,-90.25"/>
</g>
<!-- Node29&#45;&gt;Node27 -->
<g id="edge31" class="edge">
<title>Node29&#45;&gt;Node27</title>
<path fill="none" stroke="midnightblue" d="M645.59,-174.26C616.95,-146.11 533.84,-64.42 497.66,-28.87"/>
<polygon fill="midnightblue" stroke="midnightblue" points="499.89,-26.15 490.3,-21.63 494.98,-31.14 499.89,-26.15"/>
</g>
<!-- Node29&#45;&gt;Node13 -->
<g id="edge23" class="edge">
<title>Node29&#45;&gt;Node13</title>
<path fill="none" stroke="midnightblue" d="M675.27,-174.37C693.65,-165.42 721.23,-151.99 741.99,-141.88"/>
<polygon fill="midnightblue" stroke="midnightblue" points="743.53,-145.03 750.99,-137.5 740.47,-138.73 743.53,-145.03"/>
</g>
<!-- Node29&#45;&gt;Node30 -->
<g id="edge25" class="edge">
<title>Node29&#45;&gt;Node30</title>
<path fill="none" stroke="midnightblue" d="M621.81,-174.37C588.79,-164.94 538.34,-150.53 502.46,-140.27"/>
<polygon fill="midnightblue" stroke="midnightblue" points="503.33,-136.88 492.75,-137.5 501.41,-143.61 503.33,-136.88"/>
</g>
<!-- Node30&#45;&gt;Node3 -->
<g id="edge27" class="edge">
<title>Node30&#45;&gt;Node3</title>
<path fill="none" stroke="midnightblue" d="M478.3,-116.48C517.92,-96.4 610.18,-49.65 656.67,-26.1"/>
<polygon fill="midnightblue" stroke="midnightblue" points="658.26,-29.22 665.6,-21.58 655.1,-22.97 658.26,-29.22"/>
</g>
<!-- Node30&#45;&gt;Node4 -->
<g id="edge26" class="edge">
<title>Node30&#45;&gt;Node4</title>
<path fill="none" stroke="midnightblue" d="M497.92,-116.44C536.19,-106.91 595.03,-92.27 636.38,-81.98"/>
<polygon fill="midnightblue" stroke="midnightblue" points="637.38,-85.34 646.24,-79.52 635.69,-78.54 637.38,-85.34"/>
</g>
<!-- Node30&#45;&gt;Node5 -->
<g id="edge28" class="edge">
<title>Node30&#45;&gt;Node5</title>
<path fill="none" stroke="midnightblue" d="M429.07,-116.37C397.14,-106.27 347.16,-90.46 314.61,-80.16"/>
<polygon fill="midnightblue" stroke="midnightblue" points="315.29,-76.7 304.7,-77.02 313.18,-83.38 315.29,-76.7"/>
</g>
<!-- Node30&#45;&gt;Node23 -->
<g id="edge29" class="edge">
<title>Node30&#45;&gt;Node23</title>
<path fill="none" stroke="midnightblue" d="M412.71,-116.44C365.52,-106.79 292.63,-91.89 242.19,-81.59"/>
<polygon fill="midnightblue" stroke="midnightblue" points="242.6,-78.1 232.1,-79.52 241.19,-84.96 242.6,-78.1"/>
</g>
<!-- Node30&#45;&gt;Node28 -->
<g id="edge30" class="edge">
<title>Node30&#45;&gt;Node28</title>
<path fill="none" stroke="midnightblue" d="M466.47,-137.69C480.2,-156.77 510.9,-199.45 528.48,-223.89"/>
<polygon fill="midnightblue" stroke="midnightblue" points="525.83,-226.21 534.51,-232.28 531.51,-222.12 525.83,-226.21"/>
</g>
<!-- Node33&#45;&gt;Node3 -->
<g id="edge34" class="edge">
<title>Node33&#45;&gt;Node3</title>
<path fill="none" stroke="midnightblue" d="M810.93,-232.23C815.88,-210.22 825.15,-155.58 806.5,-116 787.02,-74.65 742.32,-43.56 712.78,-26.57"/>
<polygon fill="midnightblue" stroke="midnightblue" points="714.22,-23.36 703.78,-21.56 710.81,-29.48 714.22,-23.36"/>
</g>
<!-- Node33&#45;&gt;Node13 -->
<g id="edge35" class="edge">
<title>Node33&#45;&gt;Node13</title>
<path fill="none" stroke="midnightblue" d="M805.26,-232.28C799.01,-213.52 785.17,-172 776.96,-147.38"/>
<polygon fill="midnightblue" stroke="midnightblue" points="780.21,-146.07 773.73,-137.69 773.57,-148.29 780.21,-146.07"/>
</g>
<!-- Node33&#45;&gt;Node29 -->
<g id="edge37" class="edge">
<title>Node33&#45;&gt;Node29</title>
<path fill="none" stroke="midnightblue" d="M782.2,-232.37C757.09,-223.18 719.06,-209.26 691.21,-199.07"/>
<polygon fill="midnightblue" stroke="midnightblue" points="692.05,-195.65 681.46,-195.5 689.65,-202.23 692.05,-195.65"/>
</g>
<!-- Node14 -->
<g id="node20" class="node">
<title>Node14</title>
<g id="a_node20"><a xlink:title=" ">
<polygon fill="none" stroke="#bfbfbf" points="874.5,-174.5 874.5,-195.5 952.5,-195.5 952.5,-174.5 874.5,-174.5"/>
<text text-anchor="middle" x="913.5" y="-181.9" font-family="Helvetica,sans-Serif" font-size="12.00">arm_math.h</text>
</a>
</g>
</g>
<!-- Node33&#45;&gt;Node14 -->
<g id="edge36" class="edge">
<title>Node33&#45;&gt;Node14</title>
<path fill="none" stroke="midnightblue" d="M826.79,-232.25C843.28,-223.45 867.74,-210.41 886.48,-200.41"/>
<polygon fill="midnightblue" stroke="midnightblue" points="888.24,-203.44 895.42,-195.64 884.95,-197.26 888.24,-203.44"/>
</g>
</g>
</svg>
        <g id="navigator" transform="translate(0 0)" fill="#404254">
                <rect fill="#f2f5e9" fill-opacity="0.5" stroke="#606060" stroke-width=".5" x="0" y="0" width="60" height="60"/>
                <use id="zoomplus" xlink:href="#zoomPlus" x="17" y="9" onmousedown="handleZoom(evt,'in')"/>
                <use id="zoomminus" xlink:href="#zoomMin" x="42" y="9" onmousedown="handleZoom(evt,'out')"/>
                <use id="reset" xlink:href="#resetDef" x="30" y="36" onmousedown="handleReset()"/>
                <g id="arrowUp" xlink:href="#dirArrow" transform="translate(30 24)" onmousedown="handlePan(0,-1)">
                  <use xlink:href="#rim" fill="#404040">
                        <set attributeName="fill" to="#808080" begin="arrowUp.mouseover" end="arrowUp.mouseout"/>
                  </use>
                  <path fill="none" stroke="white" stroke-width="1.5" d="M0,-3.0v7 M-2.5,-0.5L0,-3.0L2.5,-0.5"/>
                </g>
                <g id="arrowRight" xlink:href="#dirArrow" transform="rotate(90) translate(36 -43)" onmousedown="handlePan(1,0)">
                  <use xlink:href="#rim" fill="#404040">
                        <set attributeName="fill" to="#808080" begin="arrowRight.mouseover" end="arrowRight.mouseout"/>
                  </use>
                  <path fill="none" stroke="white" stroke-width="1.5" d="M0,-3.0v7 M-2.5,-0.5L0,-3.0L2.5,-0.5"/>
                </g>
                <g id="arrowDown" xlink:href="#dirArrow" transform="rotate(180) translate(-30 -48)" onmousedown="handlePan(0,1)">
                  <use xlink:href="#rim" fill="#404040">
                        <set attributeName="fill" to="#808080" begin="arrowDown.mouseover" end="arrowDown.mouseout"/>
                  </use>
                  <path fill="none" stroke="white" stroke-width="1.5" d="M0,-3.0v7 M-2.5,-0.5L0,-3.0L2.5,-0.5"/>
                </g>
                <g id="arrowLeft" xlink:href="#dirArrow" transform="rotate(270) translate(-36 17)" onmousedown="handlePan(-1,0)">
                  <use xlink:href="#rim" fill="#404040">
                        <set attributeName="fill" to="#808080" begin="arrowLeft.mouseover" end="arrowLeft.mouseout"/>
                  </use>
                  <path fill="none" stroke="white" stroke-width="1.5" d="M0,-3.0v7 M-2.5,-0.5L0,-3.0L2.5,-0.5"/>
                </g>
        </g>
        <svg viewBox="0 0 15 15" width="100%" height="30px" preserveAspectRatio="xMaxYMin meet">
         <g id="arrow_out" transform="scale(0.3 0.3)">
          <a xlink:href="control_button_8h__incl_org.svg" target="_base">
           <rect id="button" ry="5" rx="5" y="6" x="6" height="38" width="38"
                fill="#f2f5e9" fill-opacity="0.5" stroke="#606060" stroke-width="1.0"/>
           <path id="arrow"
             d="M 11.500037,31.436501 C 11.940474,20.09759 22.043105,11.32322 32.158766,21.979434 L 37.068811,17.246167 C 37.068811,17.246167 37.088388,32 37.088388,32 L 22.160133,31.978069 C 22.160133,31.978069 26.997745,27.140456 26.997745,27.140456 C 18.528582,18.264221 13.291696,25.230495 11.500037,31.436501 z"
             style="fill:#404040;"/>
          </a>
         </g>
        </svg>
</svg>
