<?xml version="1.0" encoding="UTF-8" standalone="no"?>
<!DOCTYPE svg PUBLIC "-//W3C//DTD SVG 1.1//EN"
 "http://www.w3.org/Graphics/SVG/1.1/DTD/svg11.dtd">
<!-- Generated by graphviz version 2.47.3 (20210619.1520)
 -->
<!-- Title: svcSerialCommandInterface.h Pages: 1 -->
<svg width="1006pt" height="320pt"
 viewBox="0.00 0.00 1006.19 320.00" xmlns="http://www.w3.org/2000/svg" xmlns:xlink="http://www.w3.org/1999/xlink">
<g id="graph0" class="graph" transform="scale(1 1) rotate(0) translate(4 316)">
<title>svcSerialCommandInterface.h</title>
<!-- Node1 -->
<g id="node1" class="node">
<title>Node1</title>
<g id="a_node1"><a xlink:title=" ">
<polygon fill="#bfbfbf" stroke="black" points="641.89,-290.5 641.89,-311.5 814.89,-311.5 814.89,-290.5 641.89,-290.5"/>
<text text-anchor="middle" x="728.39" y="-297.9" font-family="Helvetica,sans-Serif" font-size="12.00">svcSerialCommandInterface.h</text>
</a>
</g>
</g>
<!-- Node2 -->
<g id="node2" class="node">
<title>Node2</title>
<g id="a_node2"><a xlink:href="../../d8/d2c/globaldefs_8h.html" target="_top" xlink:title=" ">
<polygon fill="none" stroke="black" points="35.39,-58.5 35.39,-79.5 115.39,-79.5 115.39,-58.5 35.39,-58.5"/>
<text text-anchor="middle" x="75.39" y="-65.9" font-family="Helvetica,sans-Serif" font-size="12.00">globaldefs.h</text>
</a>
</g>
</g>
<!-- Node1&#45;&gt;Node2 -->
<g id="edge1" class="edge">
<title>Node1&#45;&gt;Node2</title>
<path fill="none" stroke="midnightblue" d="M641.69,-295.94C480.59,-286.92 142.79,-260.68 47.39,-196 14.32,-173.58 -12.47,-151.23 6.39,-116 13.84,-102.08 27.57,-91.64 40.83,-84.26"/>
<polygon fill="midnightblue" stroke="midnightblue" points="42.56,-87.31 49.86,-79.63 39.36,-81.08 42.56,-87.31"/>
</g>
<!-- Node4 -->
<g id="node4" class="node">
<title>Node4</title>
<g id="a_node4"><a xlink:title=" ">
<polygon fill="none" stroke="#bfbfbf" points="831.39,-58.5 831.39,-79.5 885.39,-79.5 885.39,-58.5 831.39,-58.5"/>
<text text-anchor="middle" x="858.39" y="-65.9" font-family="Helvetica,sans-Serif" font-size="12.00">string.h</text>
</a>
</g>
</g>
<!-- Node1&#45;&gt;Node4 -->
<g id="edge3" class="edge">
<title>Node1&#45;&gt;Node4</title>
<path fill="none" stroke="midnightblue" d="M814.92,-295.64C880.49,-286.91 964.4,-262.51 995.39,-196 1007.42,-170.17 974.51,-117.14 973.39,-116 952.46,-94.7 920.4,-82.97 895.44,-76.7"/>
<polygon fill="midnightblue" stroke="midnightblue" points="896.11,-73.26 885.57,-74.41 894.52,-80.08 896.11,-73.26"/>
</g>
<!-- Node5 -->
<g id="node5" class="node">
<title>Node5</title>
<g id="a_node5"><a xlink:href="../../df/d72/_app_manager_8h.html" target="_top" xlink:title=" ">
<polygon fill="none" stroke="black" points="542.39,-232.5 542.39,-253.5 636.39,-253.5 636.39,-232.5 542.39,-232.5"/>
<text text-anchor="middle" x="589.39" y="-239.9" font-family="Helvetica,sans-Serif" font-size="12.00">AppManager.h</text>
</a>
</g>
</g>
<!-- Node1&#45;&gt;Node5 -->
<g id="edge4" class="edge">
<title>Node1&#45;&gt;Node5</title>
<path fill="none" stroke="midnightblue" d="M704.49,-290.37C681.88,-281.26 647.73,-267.51 622.5,-257.34"/>
<polygon fill="midnightblue" stroke="midnightblue" points="623.55,-253.99 612.97,-253.5 620.94,-260.48 623.55,-253.99"/>
</g>
<!-- Node27 -->
<g id="node15" class="node">
<title>Node27</title>
<g id="a_node15"><a xlink:title=" ">
<polygon fill="none" stroke="#bfbfbf" points="636.39,-58.5 636.39,-79.5 694.39,-79.5 694.39,-58.5 636.39,-58.5"/>
<text text-anchor="middle" x="665.39" y="-65.9" font-family="Helvetica,sans-Serif" font-size="12.00">SdFat.h</text>
</a>
</g>
</g>
<!-- Node1&#45;&gt;Node27 -->
<g id="edge37" class="edge">
<title>Node1&#45;&gt;Node27</title>
<path fill="none" stroke="midnightblue" d="M734.4,-290.26C746.88,-268.75 773.15,-215.8 757.39,-174 743.36,-136.8 709.22,-104.37 686.7,-86"/>
<polygon fill="midnightblue" stroke="midnightblue" points="688.72,-83.13 678.71,-79.66 684.38,-88.62 688.72,-83.13"/>
</g>
<!-- Node29 -->
<g id="node17" class="node">
<title>Node29</title>
<g id="a_node17"><a xlink:href="../../d9/d3e/_app_base_class_8h.html" target="_top" xlink:title=" ">
<polygon fill="none" stroke="black" points="56.89,-174.5 56.89,-195.5 161.89,-195.5 161.89,-174.5 56.89,-174.5"/>
<text text-anchor="middle" x="109.39" y="-181.9" font-family="Helvetica,sans-Serif" font-size="12.00">AppBaseClass.h</text>
</a>
</g>
</g>
<!-- Node1&#45;&gt;Node29 -->
<g id="edge36" class="edge">
<title>Node1&#45;&gt;Node29</title>
<path fill="none" stroke="midnightblue" d="M643.42,-290.48C576.13,-282.4 479.89,-269.64 396.39,-254 310.39,-237.89 211.33,-212.99 154.96,-198.22"/>
<polygon fill="midnightblue" stroke="midnightblue" points="155.51,-194.74 144.95,-195.58 153.73,-201.51 155.51,-194.74"/>
</g>
<!-- Node32 -->
<g id="node21" class="node">
<title>Node32</title>
<g id="a_node21"><a xlink:title=" ">
<polygon fill="none" stroke="#bfbfbf" points="847.39,-232.5 847.39,-253.5 897.39,-253.5 897.39,-232.5 847.39,-232.5"/>
<text text-anchor="middle" x="872.39" y="-239.9" font-family="Helvetica,sans-Serif" font-size="12.00">Print.h</text>
</a>
</g>
</g>
<!-- Node1&#45;&gt;Node32 -->
<g id="edge38" class="edge">
<title>Node1&#45;&gt;Node32</title>
<path fill="none" stroke="midnightblue" d="M753.14,-290.37C776.67,-281.22 812.25,-267.38 838.43,-257.21"/>
<polygon fill="midnightblue" stroke="midnightblue" points="839.9,-260.39 847.95,-253.5 837.37,-253.86 839.9,-260.39"/>
</g>
<!-- Node3 -->
<g id="node3" class="node">
<title>Node3</title>
<g id="a_node3"><a xlink:title=" ">
<polygon fill="none" stroke="#bfbfbf" points="711.39,-0.5 711.39,-21.5 777.39,-21.5 777.39,-0.5 711.39,-0.5"/>
<text text-anchor="middle" x="744.39" y="-7.9" font-family="Helvetica,sans-Serif" font-size="12.00">Arduino.h</text>
</a>
</g>
</g>
<!-- Node2&#45;&gt;Node3 -->
<g id="edge2" class="edge">
<title>Node2&#45;&gt;Node3</title>
<path fill="none" stroke="midnightblue" d="M115.43,-59.4C118.45,-58.88 121.46,-58.41 124.39,-58 339.68,-28.17 599.9,-16.81 701.15,-13.31"/>
<polygon fill="midnightblue" stroke="midnightblue" points="701.42,-16.81 711.29,-12.97 701.18,-9.81 701.42,-16.81"/>
</g>
<!-- Node5&#45;&gt;Node2 -->
<g id="edge6" class="edge">
<title>Node5&#45;&gt;Node2</title>
<path fill="none" stroke="midnightblue" d="M546.94,-232.48C508.32,-223.63 449.8,-209.79 399.39,-196 314.22,-172.71 290.34,-173.24 209.39,-138 191.49,-130.21 188.64,-125.11 171.39,-116 149.72,-104.56 124.74,-92.63 105.69,-83.78"/>
<polygon fill="midnightblue" stroke="midnightblue" points="107.14,-80.6 96.59,-79.58 104.21,-86.95 107.14,-80.6"/>
</g>
<!-- Node5&#45;&gt;Node3 -->
<g id="edge5" class="edge">
<title>Node5&#45;&gt;Node3</title>
<path fill="none" stroke="midnightblue" d="M636.77,-235.49C681.14,-228.31 742.76,-215.17 757.39,-196 794.87,-146.88 768.46,-67.27 753.18,-31.04"/>
<polygon fill="midnightblue" stroke="midnightblue" points="756.28,-29.4 749.06,-21.65 749.88,-32.22 756.28,-29.4"/>
</g>
<!-- Node6 -->
<g id="node6" class="node">
<title>Node6</title>
<g id="a_node6"><a xlink:href="../../de/d10/_h_s_i_8h.html" target="_top" xlink:title=" ">
<polygon fill="none" stroke="black" points="634.39,-116.5 634.39,-137.5 678.39,-137.5 678.39,-116.5 634.39,-116.5"/>
<text text-anchor="middle" x="656.39" y="-123.9" font-family="Helvetica,sans-Serif" font-size="12.00">HSI.h</text>
</a>
</g>
</g>
<!-- Node5&#45;&gt;Node6 -->
<g id="edge7" class="edge">
<title>Node5&#45;&gt;Node6</title>
<path fill="none" stroke="midnightblue" d="M595.1,-232.28C606.27,-213.27 631.19,-170.88 645.57,-146.4"/>
<polygon fill="midnightblue" stroke="midnightblue" points="648.64,-148.09 650.69,-137.69 642.6,-144.54 648.64,-148.09"/>
</g>
<!-- Node7 -->
<g id="node7" class="node">
<title>Node7</title>
<g id="a_node7"><a xlink:href="../../d1/d4e/touch_8h.html" target="_top" xlink:title=" ">
<polygon fill="none" stroke="black" points="532.89,-174.5 532.89,-195.5 585.89,-195.5 585.89,-174.5 532.89,-174.5"/>
<text text-anchor="middle" x="559.39" y="-181.9" font-family="Helvetica,sans-Serif" font-size="12.00">touch.h</text>
</a>
</g>
</g>
<!-- Node5&#45;&gt;Node7 -->
<g id="edge8" class="edge">
<title>Node5&#45;&gt;Node7</title>
<path fill="none" stroke="midnightblue" d="M584.16,-232.25C580.07,-224.62 574.27,-213.79 569.31,-204.53"/>
<polygon fill="midnightblue" stroke="midnightblue" points="572.36,-202.8 564.55,-195.64 566.19,-206.11 572.36,-202.8"/>
</g>
<!-- Node9 -->
<g id="node9" class="node">
<title>Node9</title>
<g id="a_node9"><a xlink:href="../../d3/ddb/_analog_inputs_8h.html" target="_top" xlink:title=" ">
<polygon fill="none" stroke="black" points="656.39,-174.5 656.39,-195.5 748.39,-195.5 748.39,-174.5 656.39,-174.5"/>
<text text-anchor="middle" x="702.39" y="-181.9" font-family="Helvetica,sans-Serif" font-size="12.00">AnalogInputs.h</text>
</a>
</g>
</g>
<!-- Node5&#45;&gt;Node9 -->
<g id="edge10" class="edge">
<title>Node5&#45;&gt;Node9</title>
<path fill="none" stroke="midnightblue" d="M608.81,-232.37C626.79,-223.46 653.73,-210.11 674.09,-200.02"/>
<polygon fill="midnightblue" stroke="midnightblue" points="675.81,-203.08 683.21,-195.5 672.7,-196.81 675.81,-203.08"/>
</g>
<!-- Node23 -->
<g id="node11" class="node">
<title>Node23</title>
<g id="a_node11"><a xlink:href="../../d2/dda/_i_l_i9341__t3___e_r_i_s_8h.html" target="_top" xlink:title=" ">
<polygon fill="none" stroke="black" points="218.39,-116.5 218.39,-137.5 332.39,-137.5 332.39,-116.5 218.39,-116.5"/>
<text text-anchor="middle" x="275.39" y="-123.9" font-family="Helvetica,sans-Serif" font-size="12.00">ILI9341_t3_ERIS.h</text>
</a>
</g>
</g>
<!-- Node5&#45;&gt;Node23 -->
<g id="edge14" class="edge">
<title>Node5&#45;&gt;Node23</title>
<path fill="none" stroke="midnightblue" d="M563.15,-232.48C507.05,-212.11 375.32,-164.28 311.41,-141.08"/>
<polygon fill="midnightblue" stroke="midnightblue" points="312.36,-137.7 301.76,-137.58 309.97,-144.28 312.36,-137.7"/>
</g>
<!-- Node28 -->
<g id="node16" class="node">
<title>Node28</title>
<g id="a_node16"><a xlink:href="../../db/dc8/_audio_director_8h.html" target="_top" xlink:title=" ">
<polygon fill="none" stroke="black" points="350.39,-116.5 350.39,-137.5 448.39,-137.5 448.39,-116.5 350.39,-116.5"/>
<text text-anchor="middle" x="399.39" y="-123.9" font-family="Helvetica,sans-Serif" font-size="12.00">AudioDirector.h</text>
</a>
</g>
</g>
<!-- Node5&#45;&gt;Node28 -->
<g id="edge19" class="edge">
<title>Node5&#45;&gt;Node28</title>
<path fill="none" stroke="midnightblue" d="M573.51,-232.48C540.4,-212.61 463.76,-166.63 424.12,-142.84"/>
<polygon fill="midnightblue" stroke="midnightblue" points="425.72,-139.72 415.35,-137.58 422.12,-145.72 425.72,-139.72"/>
</g>
<!-- Node5&#45;&gt;Node29 -->
<g id="edge24" class="edge">
<title>Node5&#45;&gt;Node29</title>
<path fill="none" stroke="midnightblue" d="M542.24,-237.33C465.48,-229.59 308.74,-213.24 176.39,-196 174.93,-195.81 173.45,-195.61 171.97,-195.42"/>
<polygon fill="midnightblue" stroke="midnightblue" points="172.41,-191.94 162.03,-194.05 171.46,-198.88 172.41,-191.94"/>
</g>
<!-- Node31 -->
<g id="node19" class="node">
<title>Node31</title>
<g id="a_node19"><a xlink:href="../../dd/df4/svc_data_dictionary_8h.html" target="_top" xlink:title="Data Dictionary service provides an interface to a data dictionary service the service shall provide ...">
<polygon fill="none" stroke="black" points="864.89,-174.5 864.89,-195.5 985.89,-195.5 985.89,-174.5 864.89,-174.5"/>
<text text-anchor="middle" x="925.39" y="-181.9" font-family="Helvetica,sans-Serif" font-size="12.00">svcDataDictionary.h</text>
</a>
</g>
</g>
<!-- Node5&#45;&gt;Node31 -->
<g id="edge31" class="edge">
<title>Node5&#45;&gt;Node31</title>
<path fill="none" stroke="midnightblue" d="M636.46,-234.15C694.15,-224.54 792.31,-208.18 857.99,-197.23"/>
<polygon fill="midnightblue" stroke="midnightblue" points="858.95,-200.62 868.24,-195.52 857.8,-193.72 858.95,-200.62"/>
</g>
<!-- Node8 -->
<g id="node8" class="node">
<title>Node8</title>
<g id="a_node8"><a xlink:title=" ">
<polygon fill="none" stroke="#bfbfbf" points="466.89,-116.5 466.89,-137.5 615.89,-137.5 615.89,-116.5 466.89,-116.5"/>
<text text-anchor="middle" x="541.39" y="-123.9" font-family="Helvetica,sans-Serif" font-size="12.00">XPT2046_Touchscreen.h</text>
</a>
</g>
</g>
<!-- Node7&#45;&gt;Node8 -->
<g id="edge9" class="edge">
<title>Node7&#45;&gt;Node8</title>
<path fill="none" stroke="midnightblue" d="M556.25,-174.25C553.88,-166.86 550.54,-156.47 547.62,-147.41"/>
<polygon fill="midnightblue" stroke="midnightblue" points="550.88,-146.09 544.49,-137.64 544.21,-148.23 550.88,-146.09"/>
</g>
<!-- Node9&#45;&gt;Node3 -->
<g id="edge11" class="edge">
<title>Node9&#45;&gt;Node3</title>
<path fill="none" stroke="midnightblue" d="M704.76,-174.26C711.46,-146.82 730.59,-68.51 739.59,-31.64"/>
<polygon fill="midnightblue" stroke="midnightblue" points="743.06,-32.18 742.03,-21.63 736.26,-30.52 743.06,-32.18"/>
</g>
<!-- Node9&#45;&gt;Node6 -->
<g id="edge13" class="edge">
<title>Node9&#45;&gt;Node6</title>
<path fill="none" stroke="midnightblue" d="M694.37,-174.25C687.91,-166.38 678.65,-155.1 670.89,-145.65"/>
<polygon fill="midnightblue" stroke="midnightblue" points="673.36,-143.15 664.31,-137.64 667.95,-147.59 673.36,-143.15"/>
</g>
<!-- Node10 -->
<g id="node10" class="node">
<title>Node10</title>
<g id="a_node10"><a xlink:href="../../d2/ded/eris_audio_8h.html" target="_top" xlink:title="audio block class extentions (note: autogenerated code)">
<polygon fill="none" stroke="red" points="498.39,-58.5 498.39,-79.5 574.39,-79.5 574.39,-58.5 498.39,-58.5"/>
<text text-anchor="middle" x="536.39" y="-65.9" font-family="Helvetica,sans-Serif" font-size="12.00">erisAudio.h</text>
</a>
</g>
</g>
<!-- Node9&#45;&gt;Node10 -->
<g id="edge12" class="edge">
<title>Node9&#45;&gt;Node10</title>
<path fill="none" stroke="midnightblue" d="M703.09,-174.29C703.6,-159.71 702.32,-132.16 687.39,-116 661.17,-87.64 618.06,-76.56 584.6,-72.34"/>
<polygon fill="midnightblue" stroke="midnightblue" points="584.88,-68.85 574.55,-71.23 584.11,-75.8 584.88,-68.85"/>
</g>
<!-- Node24 -->
<g id="node12" class="node">
<title>Node24</title>
<g id="a_node12"><a xlink:title=" ">
<polygon fill="none" stroke="#bfbfbf" points="243.39,-58.5 243.39,-79.5 329.39,-79.5 329.39,-58.5 243.39,-58.5"/>
<text text-anchor="middle" x="286.39" y="-65.9" font-family="Helvetica,sans-Serif" font-size="12.00">ILI9341_t3n.h</text>
</a>
</g>
</g>
<!-- Node23&#45;&gt;Node24 -->
<g id="edge15" class="edge">
<title>Node23&#45;&gt;Node24</title>
<path fill="none" stroke="midnightblue" d="M277.3,-116.25C278.74,-108.94 280.75,-98.69 282.52,-89.7"/>
<polygon fill="midnightblue" stroke="midnightblue" points="286,-90.13 284.49,-79.64 279.13,-88.78 286,-90.13"/>
</g>
<!-- Node25 -->
<g id="node13" class="node">
<title>Node25</title>
<g id="a_node13"><a xlink:title=" ">
<polygon fill="none" stroke="#bfbfbf" points="347.89,-58.5 347.89,-79.5 468.89,-79.5 468.89,-58.5 347.89,-58.5"/>
<text text-anchor="middle" x="408.39" y="-65.9" font-family="Helvetica,sans-Serif" font-size="12.00">SdCard/SdioCard.h</text>
</a>
</g>
</g>
<!-- Node23&#45;&gt;Node25 -->
<g id="edge16" class="edge">
<title>Node23&#45;&gt;Node25</title>
<path fill="none" stroke="midnightblue" d="M298.25,-116.37C319.79,-107.3 352.27,-93.63 376.38,-83.48"/>
<polygon fill="midnightblue" stroke="midnightblue" points="377.96,-86.61 385.82,-79.5 375.25,-80.16 377.96,-86.61"/>
</g>
<!-- Node26 -->
<g id="node14" class="node">
<title>Node26</title>
<g id="a_node14"><a xlink:title=" ">
<polygon fill="none" stroke="#bfbfbf" points="133.39,-58.5 133.39,-79.5 225.39,-79.5 225.39,-58.5 133.39,-58.5"/>
<text text-anchor="middle" x="179.39" y="-65.9" font-family="Helvetica,sans-Serif" font-size="12.00">SdFatConfig.h</text>
</a>
</g>
</g>
<!-- Node23&#45;&gt;Node26 -->
<g id="edge17" class="edge">
<title>Node23&#45;&gt;Node26</title>
<path fill="none" stroke="midnightblue" d="M258.66,-116.25C243.8,-107.57 221.84,-94.76 204.8,-84.82"/>
<polygon fill="midnightblue" stroke="midnightblue" points="206.32,-81.66 195.92,-79.64 202.79,-87.7 206.32,-81.66"/>
</g>
<!-- Node23&#45;&gt;Node27 -->
<g id="edge18" class="edge">
<title>Node23&#45;&gt;Node27</title>
<path fill="none" stroke="midnightblue" d="M332.62,-117.29C335.58,-116.85 338.52,-116.42 341.39,-116 444.21,-100.91 565.51,-83.9 626.39,-75.42"/>
<polygon fill="midnightblue" stroke="midnightblue" points="626.91,-78.88 636.33,-74.03 625.94,-71.95 626.91,-78.88"/>
</g>
<!-- Node28&#45;&gt;Node1 -->
<g id="edge23" class="edge">
<title>Node28&#45;&gt;Node1</title>
<path fill="none" stroke="midnightblue" d="M406.62,-137.67C424.98,-161.46 476,-223.16 533.39,-254 565.04,-271.01 602.9,-281.78 636.8,-288.58"/>
<polygon fill="midnightblue" stroke="midnightblue" points="636.23,-292.04 646.71,-290.48 637.55,-285.16 636.23,-292.04"/>
</g>
<!-- Node28&#45;&gt;Node2 -->
<g id="edge20" class="edge">
<title>Node28&#45;&gt;Node2</title>
<path fill="none" stroke="midnightblue" d="M350.34,-117.52C347.31,-117 344.31,-116.49 341.39,-116 248.1,-100.22 222.17,-97.92 125.38,-80.14"/>
<polygon fill="midnightblue" stroke="midnightblue" points="125.94,-76.68 115.47,-78.31 124.67,-83.56 125.94,-76.68"/>
</g>
<!-- Node28&#45;&gt;Node4 -->
<g id="edge21" class="edge">
<title>Node28&#45;&gt;Node4</title>
<path fill="none" stroke="midnightblue" d="M448.61,-117.45C451.92,-116.94 455.2,-116.45 458.39,-116 591.36,-97.1 750.05,-80.66 820.95,-73.63"/>
<polygon fill="midnightblue" stroke="midnightblue" points="821.55,-77.09 831.16,-72.62 820.87,-70.12 821.55,-77.09"/>
</g>
<!-- Node28&#45;&gt;Node10 -->
<g id="edge22" class="edge">
<title>Node28&#45;&gt;Node10</title>
<path fill="none" stroke="midnightblue" d="M422.94,-116.37C445.22,-107.26 478.88,-93.51 503.75,-83.34"/>
<polygon fill="midnightblue" stroke="midnightblue" points="505.21,-86.52 513.14,-79.5 502.56,-80.05 505.21,-86.52"/>
</g>
<!-- Node29&#45;&gt;Node2 -->
<g id="edge25" class="edge">
<title>Node29&#45;&gt;Node2</title>
<path fill="none" stroke="midnightblue" d="M65.9,-174.4C46.31,-167.67 25.01,-156.45 13.39,-138 0.52,-117.56 24.47,-97.55 46.24,-84.59"/>
<polygon fill="midnightblue" stroke="midnightblue" points="48.01,-87.6 55.01,-79.65 44.58,-81.5 48.01,-87.6"/>
</g>
<!-- Node29&#45;&gt;Node3 -->
<g id="edge26" class="edge">
<title>Node29&#45;&gt;Node3</title>
<path fill="none" stroke="midnightblue" d="M60.42,-174.44C40.1,-167.8 18.48,-156.65 6.39,-138 -8.25,-115.44 15.43,-66.35 26.39,-58 79.99,-17.14 553.64,-12.48 700.89,-12.02"/>
<polygon fill="midnightblue" stroke="midnightblue" points="701.33,-15.52 711.33,-12 701.32,-8.52 701.33,-15.52"/>
</g>
<!-- Node29&#45;&gt;Node6 -->
<g id="edge27" class="edge">
<title>Node29&#45;&gt;Node6</title>
<path fill="none" stroke="midnightblue" d="M161.94,-183.17C254.13,-180.88 450.89,-172.27 624.38,-137.8"/>
<polygon fill="midnightblue" stroke="midnightblue" points="625.08,-141.23 634.19,-135.81 623.7,-134.36 625.08,-141.23"/>
</g>
<!-- Node29&#45;&gt;Node23 -->
<g id="edge28" class="edge">
<title>Node29&#45;&gt;Node23</title>
<path fill="none" stroke="midnightblue" d="M137.92,-174.37C165.41,-165.1 207.15,-151.02 237.43,-140.8"/>
<polygon fill="midnightblue" stroke="midnightblue" points="238.86,-144.01 247.22,-137.5 236.63,-137.38 238.86,-144.01"/>
</g>
<!-- Node29&#45;&gt;Node28 -->
<g id="edge30" class="edge">
<title>Node29&#45;&gt;Node28</title>
<path fill="none" stroke="midnightblue" d="M158.91,-174.44C209.06,-164.75 286.65,-149.77 340.06,-139.46"/>
<polygon fill="midnightblue" stroke="midnightblue" points="340.91,-142.86 350.07,-137.52 339.58,-135.98 340.91,-142.86"/>
</g>
<!-- Node30 -->
<g id="node18" class="node">
<title>Node30</title>
<g id="a_node18"><a xlink:title=" ">
<polygon fill="none" stroke="#bfbfbf" points="22.39,-116.5 22.39,-137.5 162.39,-137.5 162.39,-116.5 22.39,-116.5"/>
<text text-anchor="middle" x="92.39" y="-123.9" font-family="Helvetica,sans-Serif" font-size="12.00">ili9341_t3n_font_Arial.h</text>
</a>
</g>
</g>
<!-- Node29&#45;&gt;Node30 -->
<g id="edge29" class="edge">
<title>Node29&#45;&gt;Node30</title>
<path fill="none" stroke="midnightblue" d="M106.42,-174.25C104.18,-166.86 101.03,-156.47 98.28,-147.41"/>
<polygon fill="midnightblue" stroke="midnightblue" points="101.57,-146.19 95.31,-137.64 94.87,-148.23 101.57,-146.19"/>
</g>
<!-- Node31&#45;&gt;Node1 -->
<g id="edge35" class="edge">
<title>Node31&#45;&gt;Node1</title>
<path fill="none" stroke="midnightblue" d="M925.53,-195.85C925.2,-210.6 922.31,-238.38 906.39,-254 884.68,-275.28 854.49,-287.1 825.14,-293.54"/>
<polygon fill="midnightblue" stroke="midnightblue" points="824.34,-290.13 815.22,-295.53 825.72,-296.99 824.34,-290.13"/>
</g>
<!-- Node31&#45;&gt;Node3 -->
<g id="edge32" class="edge">
<title>Node31&#45;&gt;Node3</title>
<path fill="none" stroke="midnightblue" d="M940.5,-174.44C958.49,-161.78 984.74,-138.43 973.39,-116 938.75,-47.61 843.91,-24.11 787.74,-16.09"/>
<polygon fill="midnightblue" stroke="midnightblue" points="788.09,-12.61 777.72,-14.77 787.18,-19.55 788.09,-12.61"/>
</g>
<!-- Node31&#45;&gt;Node4 -->
<g id="edge33" class="edge">
<title>Node31&#45;&gt;Node4</title>
<path fill="none" stroke="midnightblue" d="M911.65,-174.17C900.83,-165.74 886.16,-152.66 877.39,-138 868.54,-123.23 863.68,-104.2 861.1,-90.03"/>
<polygon fill="midnightblue" stroke="midnightblue" points="864.51,-89.2 859.48,-79.88 857.6,-90.3 864.51,-89.2"/>
</g>
<!-- Node14 -->
<g id="node20" class="node">
<title>Node14</title>
<g id="a_node20"><a xlink:title=" ">
<polygon fill="none" stroke="#bfbfbf" points="886.39,-116.5 886.39,-137.5 964.39,-137.5 964.39,-116.5 886.39,-116.5"/>
<text text-anchor="middle" x="925.39" y="-123.9" font-family="Helvetica,sans-Serif" font-size="12.00">arm_math.h</text>
</a>
</g>
</g>
<!-- Node31&#45;&gt;Node14 -->
<g id="edge34" class="edge">
<title>Node31&#45;&gt;Node14</title>
<path fill="none" stroke="midnightblue" d="M925.39,-174.25C925.39,-166.94 925.39,-156.69 925.39,-147.7"/>
<polygon fill="midnightblue" stroke="midnightblue" points="928.89,-147.64 925.39,-137.64 921.89,-147.64 928.89,-147.64"/>
</g>
</g>
</svg>
