<?xml version="1.0" encoding="UTF-8" standalone="no"?>
<!DOCTYPE svg PUBLIC "-//W3C//DTD SVG 1.1//EN"
 "http://www.w3.org/Graphics/SVG/1.1/DTD/svg11.dtd">
<!-- Generated by graphviz version 2.47.3 (20210619.1520)
 -->
<!-- Title: eris_analyze_fft1024.h Pages: 1 -->
<svg width="623pt" height="146pt"
 viewBox="0.00 0.00 623.00 146.00" xmlns="http://www.w3.org/2000/svg" xmlns:xlink="http://www.w3.org/1999/xlink">
<g id="graph0" class="graph" transform="scale(1 1) rotate(0) translate(4 142)">
<title>eris_analyze_fft1024.h</title>
<!-- Node1 -->
<g id="node1" class="node">
<title>Node1</title>
<g id="a_node1"><a xlink:title=" ">
<polygon fill="#bfbfbf" stroke="black" points="225,-116.5 225,-137.5 359,-137.5 359,-116.5 225,-116.5"/>
<text text-anchor="middle" x="292" y="-123.9" font-family="Helvetica,sans-Serif" font-size="12.00">eris_analyze_fft1024.h</text>
</a>
</g>
</g>
<!-- Node2 -->
<g id="node2" class="node">
<title>Node2</title>
<g id="a_node2"><a xlink:title=" ">
<polygon fill="none" stroke="#bfbfbf" points="0,-58.5 0,-79.5 66,-79.5 66,-58.5 0,-58.5"/>
<text text-anchor="middle" x="33" y="-65.9" font-family="Helvetica,sans-Serif" font-size="12.00">Arduino.h</text>
</a>
</g>
</g>
<!-- Node1&#45;&gt;Node2 -->
<g id="edge1" class="edge">
<title>Node1&#45;&gt;Node2</title>
<path fill="none" stroke="midnightblue" d="M246.02,-116.47C204.39,-107.78 141.12,-94.43 76.31,-80.04"/>
<polygon fill="midnightblue" stroke="midnightblue" points="76.84,-76.57 66.32,-77.81 75.32,-83.4 76.84,-76.57"/>
</g>
<!-- Node3 -->
<g id="node3" class="node">
<title>Node3</title>
<g id="a_node3"><a xlink:href="../../df/d6c/_audio_stream_8h.html" target="_top" xlink:title=" ">
<polygon fill="none" stroke="black" points="84.5,-58.5 84.5,-79.5 179.5,-79.5 179.5,-58.5 84.5,-58.5"/>
<text text-anchor="middle" x="132" y="-65.9" font-family="Helvetica,sans-Serif" font-size="12.00">AudioStream.h</text>
</a>
</g>
</g>
<!-- Node1&#45;&gt;Node3 -->
<g id="edge2" class="edge">
<title>Node1&#45;&gt;Node3</title>
<path fill="none" stroke="midnightblue" d="M264.5,-116.37C238.12,-107.14 198.11,-93.14 168.96,-82.94"/>
<polygon fill="midnightblue" stroke="midnightblue" points="169.74,-79.5 159.15,-79.5 167.43,-86.11 169.74,-79.5"/>
</g>
<!-- Node6 -->
<g id="node6" class="node">
<title>Node6</title>
<g id="a_node6"><a xlink:title=" ">
<polygon fill="none" stroke="#bfbfbf" points="198,-58.5 198,-79.5 276,-79.5 276,-58.5 198,-58.5"/>
<text text-anchor="middle" x="237" y="-65.9" font-family="Helvetica,sans-Serif" font-size="12.00">arm_math.h</text>
</a>
</g>
</g>
<!-- Node1&#45;&gt;Node6 -->
<g id="edge5" class="edge">
<title>Node1&#45;&gt;Node6</title>
<path fill="none" stroke="midnightblue" d="M282.42,-116.25C274.45,-108.14 262.94,-96.41 253.49,-86.79"/>
<polygon fill="midnightblue" stroke="midnightblue" points="255.97,-84.32 246.47,-79.64 250.98,-89.23 255.97,-84.32"/>
</g>
<!-- Node7 -->
<g id="node7" class="node">
<title>Node7</title>
<g id="a_node7"><a xlink:title=" ">
<polygon fill="none" stroke="#bfbfbf" points="294.5,-58.5 294.5,-79.5 401.5,-79.5 401.5,-58.5 294.5,-58.5"/>
<text text-anchor="middle" x="348" y="-65.9" font-family="Helvetica,sans-Serif" font-size="12.00">analyze_fft1024.h</text>
</a>
</g>
</g>
<!-- Node1&#45;&gt;Node7 -->
<g id="edge6" class="edge">
<title>Node1&#45;&gt;Node7</title>
<path fill="none" stroke="midnightblue" d="M301.75,-116.25C309.86,-108.14 321.59,-96.41 331.21,-86.79"/>
<polygon fill="midnightblue" stroke="midnightblue" points="333.76,-89.19 338.36,-79.64 328.81,-84.24 333.76,-89.19"/>
</g>
<!-- Node8 -->
<g id="node8" class="node">
<title>Node8</title>
<g id="a_node8"><a xlink:title=" ">
<polygon fill="none" stroke="#bfbfbf" points="419.5,-58.5 419.5,-79.5 472.5,-79.5 472.5,-58.5 419.5,-58.5"/>
<text text-anchor="middle" x="446" y="-65.9" font-family="Helvetica,sans-Serif" font-size="12.00">stdlib.h</text>
</a>
</g>
</g>
<!-- Node1&#45;&gt;Node8 -->
<g id="edge7" class="edge">
<title>Node1&#45;&gt;Node8</title>
<path fill="none" stroke="midnightblue" d="M318.47,-116.37C343.86,-107.14 382.36,-93.14 410.42,-82.94"/>
<polygon fill="midnightblue" stroke="midnightblue" points="411.67,-86.21 419.87,-79.5 409.28,-79.63 411.67,-86.21"/>
</g>
<!-- Node9 -->
<g id="node9" class="node">
<title>Node9</title>
<g id="a_node9"><a xlink:href="../../da/d3d/data__windows__f32_8h.html" target="_top" xlink:title=" ">
<polygon fill="none" stroke="black" points="491,-58.5 491,-79.5 615,-79.5 615,-58.5 491,-58.5"/>
<text text-anchor="middle" x="553" y="-65.9" font-family="Helvetica,sans-Serif" font-size="12.00">data_windows_f32.h</text>
</a>
</g>
</g>
<!-- Node1&#45;&gt;Node9 -->
<g id="edge8" class="edge">
<title>Node1&#45;&gt;Node9</title>
<path fill="none" stroke="midnightblue" d="M336.57,-116.44C381.43,-106.81 450.66,-91.96 498.7,-81.65"/>
<polygon fill="midnightblue" stroke="midnightblue" points="499.57,-85.04 508.61,-79.52 498.1,-78.2 499.57,-85.04"/>
</g>
<!-- Node4 -->
<g id="node4" class="node">
<title>Node4</title>
<g id="a_node4"><a xlink:title=" ">
<polygon fill="none" stroke="#bfbfbf" points="70.5,-0.5 70.5,-21.5 121.5,-21.5 121.5,-0.5 70.5,-0.5"/>
<text text-anchor="middle" x="96" y="-7.9" font-family="Helvetica,sans-Serif" font-size="12.00">stdio.h</text>
</a>
</g>
</g>
<!-- Node3&#45;&gt;Node4 -->
<g id="edge3" class="edge">
<title>Node3&#45;&gt;Node4</title>
<path fill="none" stroke="midnightblue" d="M125.73,-58.25C120.77,-50.54 113.72,-39.56 107.72,-30.23"/>
<polygon fill="midnightblue" stroke="midnightblue" points="110.55,-28.16 102.2,-21.64 104.66,-31.95 110.55,-28.16"/>
</g>
<!-- Node5 -->
<g id="node5" class="node">
<title>Node5</title>
<g id="a_node5"><a xlink:title=" ">
<polygon fill="none" stroke="#bfbfbf" points="140,-0.5 140,-21.5 194,-21.5 194,-0.5 140,-0.5"/>
<text text-anchor="middle" x="167" y="-7.9" font-family="Helvetica,sans-Serif" font-size="12.00">string.h</text>
</a>
</g>
</g>
<!-- Node3&#45;&gt;Node5 -->
<g id="edge4" class="edge">
<title>Node3&#45;&gt;Node5</title>
<path fill="none" stroke="midnightblue" d="M138.1,-58.25C142.91,-50.54 149.78,-39.56 155.6,-30.23"/>
<polygon fill="midnightblue" stroke="midnightblue" points="158.64,-31.98 160.97,-21.64 152.71,-28.27 158.64,-31.98"/>
</g>
</g>
</svg>
