<?xml version="1.0" encoding="UTF-8" standalone="no"?>
<!DOCTYPE svg PUBLIC "-//W3C//DTD SVG 1.1//EN"
 "http://www.w3.org/Graphics/SVG/1.1/DTD/svg11.dtd">
<!-- Generated by graphviz version 2.47.3 (20210619.1520)
 -->
<!-- Title: AppManager::getAppByName Pages: 1 -->
<svg width="1757pt" height="1469pt"
 viewBox="0.00 0.00 1757.00 1469.30" xmlns="http://www.w3.org/2000/svg" xmlns:xlink="http://www.w3.org/1999/xlink">
<g id="graph0" class="graph" transform="scale(1 1) rotate(0) translate(4 1465.3)">
<title>AppManager::getAppByName</title>
<!-- Node1 -->
<g id="node1" class="node">
<title>Node1</title>
<g id="a_node1"><a xlink:title="Get the App pointer By Name. Returns NULL if not found.">
<polygon fill="#bfbfbf" stroke="black" points="1493,-727.8 1493,-755.8 1749,-755.8 1749,-727.8 1493,-727.8"/>
<text text-anchor="middle" x="1621" y="-737.4" font-family="Helvetica,sans-Serif" font-size="18.00">AppManager::getAppByName</text>
</a>
</g>
</g>
<!-- Node2 -->
<g id="node2" class="node">
<title>Node2</title>
<g id="a_node2"><a xlink:href="../../d7/d7e/_app_wren_8cpp_af75d96be639ca6825082ffa47934be07.html#af75d96be639ca6825082ffa47934be07" target="_top" xlink:title="AudioDirector callback for wren.">
<polygon fill="none" stroke="black" points="1137.5,-1432.8 1137.5,-1460.8 1397.5,-1460.8 1397.5,-1432.8 1137.5,-1432.8"/>
<text text-anchor="middle" x="1267.5" y="-1442.4" font-family="Helvetica,sans-Serif" font-size="18.00">audioDirectorConnectCallback</text>
</a>
</g>
</g>
<!-- Node1&#45;&gt;Node2 -->
<g id="edge1" class="edge">
<title>Node1&#45;&gt;Node2</title>
<path fill="none" stroke="midnightblue" d="M1617.84,-766.04C1607.46,-876.76 1558.95,-1332.78 1457,-1423.8 1440.4,-1438.62 1419.45,-1447.22 1397.59,-1451.86"/>
<polygon fill="midnightblue" stroke="midnightblue" points="1621.34,-766.17 1618.77,-755.89 1614.37,-765.52 1621.34,-766.17"/>
</g>
<!-- Node10 -->
<g id="node10" class="node">
<title>Node10</title>
<g id="a_node10"><a xlink:href="../../d7/d7e/_app_wren_8cpp_a58685c4e3619dc6ddfdfaeb04f8c95fc.html#a58685c4e3619dc6ddfdfaeb04f8c95fc" target="_top" xlink:title="AudioDirector callback for wren.">
<polygon fill="none" stroke="black" points="1116.5,-1385.8 1116.5,-1413.8 1418.5,-1413.8 1418.5,-1385.8 1116.5,-1385.8"/>
<text text-anchor="middle" x="1267.5" y="-1395.4" font-family="Helvetica,sans-Serif" font-size="18.00">audioDirectorDisconnectAllCallback</text>
</a>
</g>
</g>
<!-- Node1&#45;&gt;Node10 -->
<g id="edge9" class="edge">
<title>Node1&#45;&gt;Node10</title>
<path fill="none" stroke="midnightblue" d="M1617.38,-766.06C1605.44,-872.07 1552.52,-1292.94 1457,-1376.8 1445.85,-1386.59 1432.8,-1393.64 1418.85,-1398.63"/>
<polygon fill="midnightblue" stroke="midnightblue" points="1620.87,-766.35 1618.5,-756.02 1613.92,-765.57 1620.87,-766.35"/>
</g>
<!-- Node11 -->
<g id="node11" class="node">
<title>Node11</title>
<g id="a_node11"><a xlink:href="../../d7/d7e/_app_wren_8cpp_af49d4fea05c06629b1d47f199557ba3b.html#af49d4fea05c06629b1d47f199557ba3b" target="_top" xlink:title="AudioDirector callback for wren.">
<polygon fill="none" stroke="black" points="1126.5,-1338.8 1126.5,-1366.8 1408.5,-1366.8 1408.5,-1338.8 1126.5,-1338.8"/>
<text text-anchor="middle" x="1267.5" y="-1348.4" font-family="Helvetica,sans-Serif" font-size="18.00">audioDirectorDisconnectCallback</text>
</a>
</g>
</g>
<!-- Node1&#45;&gt;Node11 -->
<g id="edge11" class="edge">
<title>Node1&#45;&gt;Node11</title>
<path fill="none" stroke="midnightblue" d="M1616.84,-766.19C1603.21,-867.48 1546.08,-1253.1 1457,-1329.8 1443.13,-1341.74 1426.42,-1349.58 1408.75,-1354.54"/>
<polygon fill="midnightblue" stroke="midnightblue" points="1620.34,-766.41 1618.19,-756.03 1613.4,-765.49 1620.34,-766.41"/>
</g>
<!-- Node12 -->
<g id="node12" class="node">
<title>Node12</title>
<g id="a_node12"><a xlink:href="../../d7/d7e/_app_wren_8cpp_a98ace48ec64b40d94ef90ead80202fe6.html#a98ace48ec64b40d94ef90ead80202fe6" target="_top" xlink:title="AudioDirector callback for wren.">
<polygon fill="none" stroke="black" points="1107.5,-1291.8 1107.5,-1319.8 1427.5,-1319.8 1427.5,-1291.8 1107.5,-1291.8"/>
<text text-anchor="middle" x="1267.5" y="-1301.4" font-family="Helvetica,sans-Serif" font-size="18.00">audioDirectorGetFunctionListCallback</text>
</a>
</g>
</g>
<!-- Node1&#45;&gt;Node12 -->
<g id="edge13" class="edge">
<title>Node1&#45;&gt;Node12</title>
<path fill="none" stroke="midnightblue" d="M1616.24,-766.08C1600.88,-862.06 1539.74,-1213.14 1457,-1282.8 1448.17,-1290.23 1438.24,-1296.06 1427.66,-1300.59"/>
<polygon fill="midnightblue" stroke="midnightblue" points="1619.75,-766.34 1617.85,-755.91 1612.83,-765.24 1619.75,-766.34"/>
</g>
<!-- Node13 -->
<g id="node13" class="node">
<title>Node13</title>
<g id="a_node13"><a xlink:href="../../d7/d7e/_app_wren_8cpp_a093f575263c798226deb95a936a89536.html#a093f575263c798226deb95a936a89536" target="_top" xlink:title="AudioDirector callback for wren.">
<polygon fill="none" stroke="black" points="1078,-1244.8 1078,-1272.8 1457,-1272.8 1457,-1244.8 1078,-1244.8"/>
<text text-anchor="middle" x="1267.5" y="-1254.4" font-family="Helvetica,sans-Serif" font-size="18.00">audioDirectorGetTypeInstanceCountCallback</text>
</a>
</g>
</g>
<!-- Node1&#45;&gt;Node13 -->
<g id="edge15" class="edge">
<title>Node1&#45;&gt;Node13</title>
<path fill="none" stroke="midnightblue" d="M1620.35,-766.4C1620.05,-848.19 1607.08,-1112.75 1457,-1235.8 1453.05,-1239.04 1448.88,-1241.97 1444.55,-1244.62"/>
<polygon fill="midnightblue" stroke="midnightblue" points="1623.85,-766.1 1620.32,-756.11 1616.85,-766.12 1623.85,-766.1"/>
</g>
<!-- Node14 -->
<g id="node14" class="node">
<title>Node14</title>
<g id="a_node14"><a xlink:href="../../d7/d7e/_app_wren_8cpp_a9f19e01e623473e844c775643b773231.html#a9f19e01e623473e844c775643b773231" target="_top" xlink:title="AudioDirector callback for wren.">
<polygon fill="none" stroke="black" points="1122.5,-1197.8 1122.5,-1225.8 1412.5,-1225.8 1412.5,-1197.8 1122.5,-1197.8"/>
<text text-anchor="middle" x="1267.5" y="-1207.4" font-family="Helvetica,sans-Serif" font-size="18.00">audioDirectorGetTypeListCallback</text>
</a>
</g>
</g>
<!-- Node1&#45;&gt;Node14 -->
<g id="edge17" class="edge">
<title>Node1&#45;&gt;Node14</title>
<path fill="none" stroke="midnightblue" d="M1619.41,-766.11C1616.13,-842.54 1594.78,-1079.35 1457,-1188.8 1443.96,-1199.15 1428.73,-1206.32 1412.69,-1211.15"/>
<polygon fill="midnightblue" stroke="midnightblue" points="1622.91,-766.15 1619.78,-756.03 1615.92,-765.9 1622.91,-766.15"/>
</g>
<!-- Node15 -->
<g id="node15" class="node">
<title>Node15</title>
<g id="a_node15"><a xlink:href="../../d7/d7e/_app_wren_8cpp_a8b7abca12ebc0b6eb21b5af397b17648.html#a8b7abca12ebc0b6eb21b5af397b17648" target="_top" xlink:title="VM callback for extention method.">
<polygon fill="none" stroke="black" points="1214,-1150.8 1214,-1178.8 1321,-1178.8 1321,-1150.8 1214,-1150.8"/>
<text text-anchor="middle" x="1267.5" y="-1160.4" font-family="Helvetica,sans-Serif" font-size="18.00">bltCallback</text>
</a>
</g>
</g>
<!-- Node1&#45;&gt;Node15 -->
<g id="edge19" class="edge">
<title>Node1&#45;&gt;Node15</title>
<path fill="none" stroke="midnightblue" d="M1618.25,-766.38C1611.72,-837.77 1582.26,-1046.05 1457,-1141.8 1418.63,-1171.13 1362.44,-1174.42 1321.4,-1171.87"/>
<polygon fill="midnightblue" stroke="midnightblue" points="1621.76,-766.4 1619.11,-756.14 1614.78,-765.81 1621.76,-766.4"/>
</g>
<!-- Node16 -->
<g id="node16" class="node">
<title>Node16</title>
<g id="a_node16"><a xlink:href="../../d7/d7e/_app_wren_8cpp_a16b4da7165c003f4b9a70869b7828084.html#a16b4da7165c003f4b9a70869b7828084" target="_top" xlink:title="VM callback for extention method.">
<polygon fill="none" stroke="black" points="1193,-1103.8 1193,-1131.8 1342,-1131.8 1342,-1103.8 1193,-1103.8"/>
<text text-anchor="middle" x="1267.5" y="-1113.4" font-family="Helvetica,sans-Serif" font-size="18.00">drawFillCallback</text>
</a>
</g>
</g>
<!-- Node1&#45;&gt;Node16 -->
<g id="edge21" class="edge">
<title>Node1&#45;&gt;Node16</title>
<path fill="none" stroke="midnightblue" d="M1616.85,-766.13C1606.98,-831.63 1570.19,-1012.3 1457,-1094.8 1424.36,-1118.59 1379.8,-1124.87 1342.19,-1124.96"/>
<polygon fill="midnightblue" stroke="midnightblue" points="1620.36,-766.35 1618.31,-755.96 1613.43,-765.36 1620.36,-766.35"/>
</g>
<!-- Node17 -->
<g id="node17" class="node">
<title>Node17</title>
<g id="a_node17"><a xlink:href="../../d7/d7e/_app_wren_8cpp_a1f62a053a4e57d9fb4db0f1eb831fe27.html#a1f62a053a4e57d9fb4db0f1eb831fe27" target="_top" xlink:title="VM callback for extention method.">
<polygon fill="none" stroke="black" points="1188,-1056.8 1188,-1084.8 1347,-1084.8 1347,-1056.8 1188,-1056.8"/>
<text text-anchor="middle" x="1267.5" y="-1066.4" font-family="Helvetica,sans-Serif" font-size="18.00">drawLineCallback</text>
</a>
</g>
</g>
<!-- Node1&#45;&gt;Node17 -->
<g id="edge23" class="edge">
<title>Node1&#45;&gt;Node17</title>
<path fill="none" stroke="midnightblue" d="M1615.05,-766.11C1601.56,-825.54 1558.16,-978.39 1457,-1047.8 1425.33,-1069.53 1383.45,-1076.24 1347.21,-1077.11"/>
<polygon fill="midnightblue" stroke="midnightblue" points="1618.51,-766.66 1617.23,-756.14 1611.68,-765.16 1618.51,-766.66"/>
</g>
<!-- Node18 -->
<g id="node18" class="node">
<title>Node18</title>
<g id="a_node18"><a xlink:href="../../d7/d7e/_app_wren_8cpp_ad76d44200b483213c78a903735937d55.html#ad76d44200b483213c78a903735937d55" target="_top" xlink:title="Get the Focus Callback object.AppWren exported method which can be called from within a Wren VM insta...">
<polygon fill="none" stroke="black" points="1187,-1009.8 1187,-1037.8 1348,-1037.8 1348,-1009.8 1187,-1009.8"/>
<text text-anchor="middle" x="1267.5" y="-1019.4" font-family="Helvetica,sans-Serif" font-size="18.00">getFocusCallback</text>
</a>
</g>
</g>
<!-- Node1&#45;&gt;Node18 -->
<g id="edge25" class="edge">
<title>Node1&#45;&gt;Node18</title>
<path fill="none" stroke="midnightblue" d="M1612.83,-765.59C1595.62,-818.15 1546.61,-943.96 1457,-1000.8 1425.12,-1021.02 1384.05,-1027.75 1348.39,-1029.02"/>
<polygon fill="midnightblue" stroke="midnightblue" points="1616.24,-766.41 1615.93,-755.82 1609.57,-764.29 1616.24,-766.41"/>
</g>
<!-- Node19 -->
<g id="node19" class="node">
<title>Node19</title>
<g id="a_node19"><a xlink:href="../../d7/d7e/_app_wren_8cpp_afe23afa4404b8c417f9e67bd9ac974c1.html#afe23afa4404b8c417f9e67bd9ac974c1" target="_top" xlink:title="VM callback for extention method.">
<polygon fill="none" stroke="black" points="1192.5,-962.8 1192.5,-990.8 1342.5,-990.8 1342.5,-962.8 1192.5,-962.8"/>
<text text-anchor="middle" x="1267.5" y="-972.4" font-family="Helvetica,sans-Serif" font-size="18.00">getPixelCallback</text>
</a>
</g>
</g>
<!-- Node1&#45;&gt;Node19 -->
<g id="edge27" class="edge">
<title>Node1&#45;&gt;Node19</title>
<path fill="none" stroke="midnightblue" d="M1609.66,-765.34C1588.42,-810.6 1535.17,-909.21 1457,-953.8 1422.78,-973.32 1379.43,-979.63 1342.94,-980.8"/>
<polygon fill="midnightblue" stroke="midnightblue" points="1612.94,-766.58 1613.93,-756.03 1606.58,-763.66 1612.94,-766.58"/>
</g>
<!-- Node20 -->
<g id="node20" class="node">
<title>Node20</title>
<g id="a_node20"><a xlink:href="../../d7/d7e/_app_wren_8cpp_a2469bc30d12bb4b85e4a318a873ec7be.html#a2469bc30d12bb4b85e4a318a873ec7be" target="_top" xlink:title="Get the Source For Module object requested by the Wren VM.">
<polygon fill="none" stroke="black" points="1175,-210.8 1175,-238.8 1360,-238.8 1360,-210.8 1175,-210.8"/>
<text text-anchor="middle" x="1267.5" y="-220.4" font-family="Helvetica,sans-Serif" font-size="18.00">getSourceForModule</text>
</a>
</g>
</g>
<!-- Node1&#45;&gt;Node20 -->
<g id="edge29" class="edge">
<title>Node1&#45;&gt;Node20</title>
<path fill="none" stroke="midnightblue" d="M1620.31,-717.27C1619.87,-635.74 1606.52,-371.97 1457,-248.8 1430.39,-226.88 1394.1,-218.86 1360.46,-217.04"/>
<polygon fill="midnightblue" stroke="midnightblue" points="1616.81,-717.53 1620.3,-727.53 1623.81,-717.54 1616.81,-717.53"/>
</g>
<!-- Node22 -->
<g id="node22" class="node">
<title>Node22</title>
<g id="a_node22"><a xlink:href="../../d7/d7e/_app_wren_8cpp_ac2d17abd6b82fc40c0f2425cef003f08.html#ac2d17abd6b82fc40c0f2425cef003f08" target="_top" xlink:title="VM callback for extention method.">
<polygon fill="none" stroke="black" points="1182.5,-915.8 1182.5,-943.8 1352.5,-943.8 1352.5,-915.8 1182.5,-915.8"/>
<text text-anchor="middle" x="1267.5" y="-925.4" font-family="Helvetica,sans-Serif" font-size="18.00">loadImageCallback</text>
</a>
</g>
</g>
<!-- Node1&#45;&gt;Node22 -->
<g id="edge32" class="edge">
<title>Node1&#45;&gt;Node22</title>
<path fill="none" stroke="midnightblue" d="M1605.27,-764.53C1579.94,-801.47 1524.31,-873.75 1457,-906.8 1425.04,-922.49 1386.5,-929.04 1352.61,-931.36"/>
<polygon fill="midnightblue" stroke="midnightblue" points="1608.37,-766.19 1611.05,-755.94 1602.56,-762.28 1608.37,-766.19"/>
</g>
<!-- Node23 -->
<g id="node23" class="node">
<title>Node23</title>
<g id="a_node23"><a xlink:href="../../d7/d7e/_app_wren_8cpp_af6333a4f51f95873539f5053e80c1104.html#af6333a4f51f95873539f5053e80c1104" target="_top" xlink:title="VM callback for extention method.">
<polygon fill="none" stroke="black" points="1151,-868.8 1151,-896.8 1384,-896.8 1384,-868.8 1151,-868.8"/>
<text text-anchor="middle" x="1267.5" y="-878.4" font-family="Helvetica,sans-Serif" font-size="18.00">loadImageSurfaceCallback</text>
</a>
</g>
</g>
<!-- Node1&#45;&gt;Node23 -->
<g id="edge34" class="edge">
<title>Node1&#45;&gt;Node23</title>
<path fill="none" stroke="midnightblue" d="M1598.26,-763.25C1568.92,-790.74 1513.78,-837.51 1457,-859.8 1434.29,-868.71 1408.96,-874.39 1384.42,-877.97"/>
<polygon fill="midnightblue" stroke="midnightblue" points="1601,-765.47 1605.82,-756.04 1596.17,-760.4 1601,-765.47"/>
</g>
<!-- Node24 -->
<g id="node24" class="node">
<title>Node24</title>
<g id="a_node24"><a xlink:href="../../d7/d7e/_app_wren_8cpp_a085afb683548c1082208ee513452dd24.html#a085afb683548c1082208ee513452dd24" target="_top" xlink:title="callback function for the VM to indicate to the system that it&#39;s ok to release any memory allocated d...">
<polygon fill="none" stroke="black" points="1173.5,-163.8 1173.5,-191.8 1361.5,-191.8 1361.5,-163.8 1173.5,-163.8"/>
<text text-anchor="middle" x="1267.5" y="-173.4" font-family="Helvetica,sans-Serif" font-size="18.00">loadModuleComplete</text>
</a>
</g>
</g>
<!-- Node1&#45;&gt;Node24 -->
<g id="edge36" class="edge">
<title>Node1&#45;&gt;Node24</title>
<path fill="none" stroke="midnightblue" d="M1616.23,-717.57C1600.8,-621.82 1539.43,-271.53 1457,-201.8 1430.93,-179.75 1395.13,-171.6 1361.73,-169.72"/>
<polygon fill="midnightblue" stroke="midnightblue" points="1612.81,-718.39 1617.84,-727.72 1619.72,-717.29 1612.81,-718.39"/>
</g>
<!-- Node25 -->
<g id="node25" class="node">
<title>Node25</title>
<g id="a_node25"><a xlink:href="../../d7/d7e/_app_wren_8cpp_a0631bad43a765513733dbc934ebc5620.html#a0631bad43a765513733dbc934ebc5620" target="_top" xlink:title="VM callback for extention method.">
<polygon fill="none" stroke="black" points="1206.5,-821.8 1206.5,-849.8 1328.5,-849.8 1328.5,-821.8 1206.5,-821.8"/>
<text text-anchor="middle" x="1267.5" y="-831.4" font-family="Helvetica,sans-Serif" font-size="18.00">printCallback</text>
</a>
</g>
</g>
<!-- Node1&#45;&gt;Node25 -->
<g id="edge38" class="edge">
<title>Node1&#45;&gt;Node25</title>
<path fill="none" stroke="midnightblue" d="M1585,-760.59C1552.71,-777.06 1502.94,-800.28 1457,-812.8 1415.01,-824.24 1366.21,-830 1328.78,-832.89"/>
<polygon fill="midnightblue" stroke="midnightblue" points="1586.76,-763.62 1594.04,-755.93 1583.54,-757.4 1586.76,-763.62"/>
</g>
<!-- Node26 -->
<g id="node26" class="node">
<title>Node26</title>
<g id="a_node26"><a xlink:href="../../da/d96/class_app_manager_a648bf66164619cfcc0f0b41e7b3a022f.html#a648bf66164619cfcc0f0b41e7b3a022f" target="_top" xlink:title="prints out some stats in JSON format to the serial port">
<polygon fill="none" stroke="black" points="1164,-116.8 1164,-144.8 1371,-144.8 1371,-116.8 1164,-116.8"/>
<text text-anchor="middle" x="1267.5" y="-126.4" font-family="Helvetica,sans-Serif" font-size="18.00">AppManager::printStats</text>
</a>
</g>
</g>
<!-- Node1&#45;&gt;Node26 -->
<g id="edge40" class="edge">
<title>Node1&#45;&gt;Node26</title>
<path fill="none" stroke="midnightblue" d="M1616.82,-717.46C1603.12,-616.39 1545.75,-231.59 1457,-154.8 1433.55,-134.51 1401.91,-125.88 1371.25,-123.09"/>
<polygon fill="midnightblue" stroke="midnightblue" points="1613.38,-718.15 1618.18,-727.59 1620.32,-717.22 1613.38,-718.15"/>
</g>
<!-- Node27 -->
<g id="node27" class="node">
<title>Node27</title>
<g id="a_node27"><a xlink:href="../../d2/da8/class_svc_serial_command_interface_af993c07bcbc2bdb566c5660eeb31f1ca.html#af993c07bcbc2bdb566c5660eeb31f1ca" target="_top" xlink:title="update loop">
<polygon fill="none" stroke="black" points="731,-112.8 731,-140.8 1042,-140.8 1042,-112.8 731,-112.8"/>
<text text-anchor="middle" x="886.5" y="-122.4" font-family="Helvetica,sans-Serif" font-size="18.00">SvcSerialCommandInterface::update</text>
</a>
</g>
</g>
<!-- Node1&#45;&gt;Node27 -->
<g id="edge66" class="edge">
<title>Node1&#45;&gt;Node27</title>
<path fill="none" stroke="midnightblue" d="M1617.65,-717.63C1606.76,-611.13 1557.4,-185.65 1457,-107.8 1382.1,-49.72 1100.24,-89.23 963.22,-112.78"/>
<polygon fill="midnightblue" stroke="midnightblue" points="1614.18,-718.1 1618.66,-727.7 1621.15,-717.4 1614.18,-718.1"/>
</g>
<!-- Node28 -->
<g id="node28" class="node">
<title>Node28</title>
<g id="a_node28"><a xlink:href="../../d7/d7e/_app_wren_8cpp_a25d25f1406cc969202b654e1b0ff5eec.html#a25d25f1406cc969202b654e1b0ff5eec" target="_top" xlink:title="AppWren exported method which can be called from within a Wren VM instance.">
<polygon fill="none" stroke="black" points="1167.5,-774.8 1167.5,-802.8 1367.5,-802.8 1367.5,-774.8 1167.5,-774.8"/>
<text text-anchor="middle" x="1267.5" y="-784.4" font-family="Helvetica,sans-Serif" font-size="18.00">releasePopUpCallback</text>
</a>
</g>
</g>
<!-- Node1&#45;&gt;Node28 -->
<g id="edge42" class="edge">
<title>Node1&#45;&gt;Node28</title>
<path fill="none" stroke="midnightblue" d="M1517.33,-757.31C1497.34,-760.22 1476.52,-763.17 1457,-765.8 1428.08,-769.69 1396.63,-773.64 1367.86,-777.14"/>
<polygon fill="midnightblue" stroke="midnightblue" points="1518,-760.75 1527.39,-755.84 1516.99,-753.82 1518,-760.75"/>
</g>
<!-- Node29 -->
<g id="node29" class="node">
<title>Node29</title>
<g id="a_node29"><a xlink:href="../../d7/d7e/_app_wren_8cpp_a8156eadb16530b87de97824abd487921.html#a8156eadb16530b87de97824abd487921" target="_top" xlink:title="AppWren exported method which can be called from within a Wren VM instance.">
<polygon fill="none" stroke="black" points="1166,-727.8 1166,-755.8 1369,-755.8 1369,-727.8 1166,-727.8"/>
<text text-anchor="middle" x="1267.5" y="-737.4" font-family="Helvetica,sans-Serif" font-size="18.00">requestPopUpCallback</text>
</a>
</g>
</g>
<!-- Node1&#45;&gt;Node29 -->
<g id="edge44" class="edge">
<title>Node1&#45;&gt;Node29</title>
<path fill="none" stroke="midnightblue" d="M1482.52,-741.8C1444.69,-741.8 1404.36,-741.8 1369.03,-741.8"/>
<polygon fill="midnightblue" stroke="midnightblue" points="1482.6,-745.3 1492.6,-741.8 1482.6,-738.3 1482.6,-745.3"/>
</g>
<!-- Node30 -->
<g id="node30" class="node">
<title>Node30</title>
<g id="a_node30"><a xlink:href="../../d7/d7e/_app_wren_8cpp_a6f9be9275117d2c40ad5806defa0841e.html#a6f9be9275117d2c40ad5806defa0841e" target="_top" xlink:title="restartVM callback for wren">
<polygon fill="none" stroke="black" points="1186,-680.8 1186,-708.8 1349,-708.8 1349,-680.8 1186,-680.8"/>
<text text-anchor="middle" x="1267.5" y="-690.4" font-family="Helvetica,sans-Serif" font-size="18.00">restartVMCallback</text>
</a>
</g>
</g>
<!-- Node1&#45;&gt;Node30 -->
<g id="edge46" class="edge">
<title>Node1&#45;&gt;Node30</title>
<path fill="none" stroke="midnightblue" d="M1512.06,-726.36C1493.69,-723.79 1474.8,-721.19 1457,-718.8 1421.69,-714.06 1382.62,-709.05 1349.25,-704.84"/>
<polygon fill="midnightblue" stroke="midnightblue" points="1511.81,-729.86 1522.2,-727.78 1512.78,-722.92 1511.81,-729.86"/>
</g>
<!-- Node31 -->
<g id="node31" class="node">
<title>Node31</title>
<g id="a_node31"><a xlink:href="../../d7/d7e/_app_wren_8cpp_a7d888714ebd3a2befec867833015d7f2.html#a7d888714ebd3a2befec867833015d7f2" target="_top" xlink:title="AppWren exported method which can be called from within a Wren VM instance.">
<polygon fill="none" stroke="black" points="1175.5,-633.8 1175.5,-661.8 1359.5,-661.8 1359.5,-633.8 1175.5,-633.8"/>
<text text-anchor="middle" x="1267.5" y="-643.4" font-family="Helvetica,sans-Serif" font-size="18.00">returnFocusCallback</text>
</a>
</g>
</g>
<!-- Node1&#45;&gt;Node31 -->
<g id="edge48" class="edge">
<title>Node1&#45;&gt;Node31</title>
<path fill="none" stroke="midnightblue" d="M1584.67,-723.2C1552.33,-707.02 1502.7,-684.26 1457,-671.8 1425.81,-663.3 1390.87,-657.79 1359.63,-654.22"/>
<polygon fill="midnightblue" stroke="midnightblue" points="1583.22,-726.39 1593.72,-727.78 1586.38,-720.14 1583.22,-726.39"/>
</g>
<!-- Node32 -->
<g id="node32" class="node">
<title>Node32</title>
<g id="a_node32"><a xlink:href="../../d7/d7e/_app_wren_8cpp_a5a2a584aa9624610a07f621a52c2cd4c.html#a5a2a584aa9624610a07f621a52c2cd4c" target="_top" xlink:title="AppWren exported method which can be called from within a Wren VM instance.">
<polygon fill="none" stroke="black" points="1168.5,-586.8 1168.5,-614.8 1366.5,-614.8 1366.5,-586.8 1168.5,-586.8"/>
<text text-anchor="middle" x="1267.5" y="-596.4" font-family="Helvetica,sans-Serif" font-size="18.00">sendMessageCallback</text>
</a>
</g>
</g>
<!-- Node1&#45;&gt;Node32 -->
<g id="edge50" class="edge">
<title>Node1&#45;&gt;Node32</title>
<path fill="none" stroke="midnightblue" d="M1598.2,-720.58C1568.81,-693.37 1513.6,-647.05 1457,-624.8 1428.75,-613.69 1396.47,-607.47 1366.69,-604.05"/>
<polygon fill="midnightblue" stroke="midnightblue" points="1596.1,-723.41 1605.79,-727.71 1600.9,-718.31 1596.1,-723.41"/>
</g>
<!-- Node33 -->
<g id="node33" class="node">
<title>Node33</title>
<g id="a_node33"><a xlink:href="../../d7/d7e/_app_wren_8cpp_ac544ec6ebbf44fc70c8321cfa9b72ff7.html#ac544ec6ebbf44fc70c8321cfa9b72ff7" target="_top" xlink:title="VM callback for extention method.">
<polygon fill="none" stroke="black" points="1185.5,-539.8 1185.5,-567.8 1349.5,-567.8 1349.5,-539.8 1185.5,-539.8"/>
<text text-anchor="middle" x="1267.5" y="-549.4" font-family="Helvetica,sans-Serif" font-size="18.00">setCursorCallback</text>
</a>
</g>
</g>
<!-- Node1&#45;&gt;Node33 -->
<g id="edge52" class="edge">
<title>Node1&#45;&gt;Node33</title>
<path fill="none" stroke="midnightblue" d="M1605.22,-719.25C1579.81,-682.58 1524.06,-610.82 1457,-577.8 1424.15,-561.62 1384.35,-554.96 1349.8,-552.61"/>
<polygon fill="midnightblue" stroke="midnightblue" points="1602.5,-721.47 1611.01,-727.77 1608.28,-717.53 1602.5,-721.47"/>
</g>
<!-- Node34 -->
<g id="node34" class="node">
<title>Node34</title>
<g id="a_node34"><a xlink:href="../../d7/d7e/_app_wren_8cpp_a1af842755d61bd4e87bf767b1a64116e.html#a1af842755d61bd4e87bf767b1a64116e" target="_top" xlink:title="Set the Dimension Callback object. AppWren exported method which can be called from within a Wren VM ...">
<polygon fill="none" stroke="black" points="1170,-492.8 1170,-520.8 1365,-520.8 1365,-492.8 1170,-492.8"/>
<text text-anchor="middle" x="1267.5" y="-502.4" font-family="Helvetica,sans-Serif" font-size="18.00">setDimensionCallback</text>
</a>
</g>
</g>
<!-- Node1&#45;&gt;Node34 -->
<g id="edge54" class="edge">
<title>Node1&#45;&gt;Node34</title>
<path fill="none" stroke="midnightblue" d="M1609.61,-718.4C1588.27,-673.42 1534.87,-575.37 1457,-530.8 1429.51,-515.07 1396.13,-507.76 1365.15,-504.77"/>
<polygon fill="midnightblue" stroke="midnightblue" points="1606.52,-720.05 1613.9,-727.65 1612.87,-717.11 1606.52,-720.05"/>
</g>
<!-- Node35 -->
<g id="node35" class="node">
<title>Node35</title>
<g id="a_node35"><a xlink:href="../../d7/d7e/_app_wren_8cpp_ab1db7563238658e013cce74318dcb63a.html#ab1db7563238658e013cce74318dcb63a" target="_top" xlink:title="VM callback for extention method.">
<polygon fill="none" stroke="black" points="1193,-445.8 1193,-473.8 1342,-473.8 1342,-445.8 1193,-445.8"/>
<text text-anchor="middle" x="1267.5" y="-455.4" font-family="Helvetica,sans-Serif" font-size="18.00">setPixelCallback</text>
</a>
</g>
</g>
<!-- Node1&#45;&gt;Node35 -->
<g id="edge56" class="edge">
<title>Node1&#45;&gt;Node35</title>
<path fill="none" stroke="midnightblue" d="M1612.65,-717.76C1595.23,-665.26 1546.06,-540.5 1457,-483.8 1423.33,-462.36 1379.38,-455.82 1342.38,-454.9"/>
<polygon fill="midnightblue" stroke="midnightblue" points="1609.41,-719.09 1615.81,-727.54 1616.07,-716.94 1609.41,-719.09"/>
</g>
<!-- Node36 -->
<g id="node36" class="node">
<title>Node36</title>
<g id="a_node36"><a xlink:href="../../d7/d7e/_app_wren_8cpp_adf638e5457d5fe7abf8a52f9ab3476ab.html#adf638e5457d5fe7abf8a52f9ab3476ab" target="_top" xlink:title="AppWren exported method which can be called from within a Wren VM instance.">
<polygon fill="none" stroke="black" points="1180.5,-398.8 1180.5,-426.8 1354.5,-426.8 1354.5,-398.8 1180.5,-398.8"/>
<text text-anchor="middle" x="1267.5" y="-408.4" font-family="Helvetica,sans-Serif" font-size="18.00">setPositionCallback</text>
</a>
</g>
</g>
<!-- Node1&#45;&gt;Node36 -->
<g id="edge58" class="edge">
<title>Node1&#45;&gt;Node36</title>
<path fill="none" stroke="midnightblue" d="M1615,-717.6C1601.4,-658.43 1557.76,-506.23 1457,-436.8 1427.53,-416.49 1389.17,-409.08 1354.77,-407.29"/>
<polygon fill="midnightblue" stroke="midnightblue" points="1611.62,-718.52 1617.2,-727.52 1618.46,-717 1611.62,-718.52"/>
</g>
<!-- Node37 -->
<g id="node37" class="node">
<title>Node37</title>
<g id="a_node37"><a xlink:href="../../d7/d7e/_app_wren_8cpp_a4759cb1820df2bb8b51e7233b65097c7.html#a4759cb1820df2bb8b51e7233b65097c7" target="_top" xlink:title="VM callback for extention method.">
<polygon fill="none" stroke="black" points="1174,-351.8 1174,-379.8 1361,-379.8 1361,-351.8 1174,-351.8"/>
<text text-anchor="middle" x="1267.5" y="-361.4" font-family="Helvetica,sans-Serif" font-size="18.00">setTextColorCallback</text>
</a>
</g>
</g>
<!-- Node1&#45;&gt;Node37 -->
<g id="edge60" class="edge">
<title>Node1&#45;&gt;Node37</title>
<path fill="none" stroke="midnightblue" d="M1616.81,-717.57C1606.81,-652.33 1569.76,-472.34 1457,-389.8 1429.71,-369.83 1394.06,-362 1361.11,-359.79"/>
<polygon fill="midnightblue" stroke="midnightblue" points="1613.38,-718.3 1618.28,-727.7 1620.3,-717.3 1613.38,-718.3"/>
</g>
<!-- Node38 -->
<g id="node38" class="node">
<title>Node38</title>
<g id="a_node38"><a xlink:href="../../d7/d7e/_app_wren_8cpp_a8b6665e4ce88da8beffe58df7644ce3f.html#a8b6665e4ce88da8beffe58df7644ce3f" target="_top" xlink:title="Set the Widget Dimension Callback object. AppWren exported method which can be called from within a W...">
<polygon fill="none" stroke="black" points="1141.5,-304.8 1141.5,-332.8 1393.5,-332.8 1393.5,-304.8 1141.5,-304.8"/>
<text text-anchor="middle" x="1267.5" y="-314.4" font-family="Helvetica,sans-Serif" font-size="18.00">setWidgetDimensionCallback</text>
</a>
</g>
</g>
<!-- Node1&#45;&gt;Node38 -->
<g id="edge62" class="edge">
<title>Node1&#45;&gt;Node38</title>
<path fill="none" stroke="midnightblue" d="M1618.2,-717.31C1611.55,-646.18 1581.79,-438.61 1457,-342.8 1438.81,-328.84 1416.61,-320.68 1393.91,-316.22"/>
<polygon fill="midnightblue" stroke="midnightblue" points="1614.73,-717.85 1619.08,-727.51 1621.71,-717.25 1614.73,-717.85"/>
</g>
<!-- Node39 -->
<g id="node39" class="node">
<title>Node39</title>
<g id="a_node39"><a xlink:href="../../d7/d7e/_app_wren_8cpp_a6fe5cd9f6d4f102b8f94385f4291222d.html#a6fe5cd9f6d4f102b8f94385f4291222d" target="_top" xlink:title="Set the Widget Position Callback object. AppWren exported method which can be called from within a Wr...">
<polygon fill="none" stroke="black" points="1152,-257.8 1152,-285.8 1383,-285.8 1383,-257.8 1152,-257.8"/>
<text text-anchor="middle" x="1267.5" y="-267.4" font-family="Helvetica,sans-Serif" font-size="18.00">setWidgetPositionCallback</text>
</a>
</g>
</g>
<!-- Node1&#45;&gt;Node39 -->
<g id="edge64" class="edge">
<title>Node1&#45;&gt;Node39</title>
<path fill="none" stroke="midnightblue" d="M1619.37,-717.57C1615.95,-641.4 1594.27,-405.34 1457,-295.8 1436.11,-279.13 1409.57,-270.61 1383.05,-266.74"/>
<polygon fill="midnightblue" stroke="midnightblue" points="1615.87,-717.76 1619.75,-727.62 1622.87,-717.49 1615.87,-717.76"/>
</g>
<!-- Node40 -->
<g id="node40" class="node">
<title>Node40</title>
<g id="a_node40"><a xlink:href="../../d7/d7e/_app_wren_8cpp_ad0c26c660738b28a098f1400caef81e2.html#ad0c26c660738b28a098f1400caef81e2" target="_top" xlink:title="write function system callback for the Wren VM. Stdout/Stderr is Serial">
<polygon fill="none" stroke="black" points="848.5,-48.8 848.5,-76.8 924.5,-76.8 924.5,-48.8 848.5,-48.8"/>
<text text-anchor="middle" x="886.5" y="-58.4" font-family="Helvetica,sans-Serif" font-size="18.00">writeFn</text>
</a>
</g>
</g>
<!-- Node1&#45;&gt;Node40 -->
<g id="edge67" class="edge">
<title>Node1&#45;&gt;Node40</title>
<path fill="none" stroke="midnightblue" d="M1617.93,-717.45C1608.01,-607.32 1561.49,-157.5 1457,-73.8 1297.24,54.18 1023.49,-17.61 924.55,-49.79"/>
<polygon fill="midnightblue" stroke="midnightblue" points="1614.45,-717.92 1618.82,-727.57 1621.43,-717.3 1614.45,-717.92"/>
</g>
<!-- Node3 -->
<g id="node3" class="node">
<title>Node3</title>
<g id="a_node3"><a xlink:href="../../d7/d7e/_app_wren_8cpp_afe955d602a19a51c186913d9dc8ff707.html#afe955d602a19a51c186913d9dc8ff707" target="_top" xlink:title="callback function for Wren to request an exported function bindings">
<polygon fill="none" stroke="black" points="800,-821.8 800,-849.8 973,-849.8 973,-821.8 800,-821.8"/>
<text text-anchor="middle" x="886.5" y="-831.4" font-family="Helvetica,sans-Serif" font-size="18.00">bindForeignMethod</text>
</a>
</g>
</g>
<!-- Node2&#45;&gt;Node3 -->
<g id="edge2" class="edge">
<title>Node2&#45;&gt;Node3</title>
<path fill="none" stroke="midnightblue" d="M1127.3,-1448.15C1109.35,-1443.28 1092.27,-1435.57 1078,-1423.8 889.64,-1268.51 885.61,-924.86 887.05,-850.26"/>
<polygon fill="midnightblue" stroke="midnightblue" points="1126.82,-1451.63 1137.36,-1450.57 1128.46,-1444.83 1126.82,-1451.63"/>
</g>
<!-- Node4 -->
<g id="node4" class="node">
<title>Node4</title>
<g id="a_node4"><a xlink:href="../../d0/da0/class_app_wren_a0b139e8eac17bd02ffaff68532c3e4fc.html#a0b139e8eac17bd02ffaff68532c3e4fc" target="_top" xlink:title="start the VM">
<polygon fill="none" stroke="black" points="531,-167.8 531,-195.8 695,-195.8 695,-167.8 531,-167.8"/>
<text text-anchor="middle" x="613" y="-177.4" font-family="Helvetica,sans-Serif" font-size="18.00">AppWren::startVM</text>
</a>
</g>
</g>
<!-- Node3&#45;&gt;Node4 -->
<g id="edge3" class="edge">
<title>Node3&#45;&gt;Node4</title>
<path fill="none" stroke="midnightblue" d="M875.64,-812.05C831.7,-706.21 654.38,-279.06 619.85,-195.88"/>
<polygon fill="midnightblue" stroke="midnightblue" points="872.51,-813.64 879.58,-821.53 878.98,-810.95 872.51,-813.64"/>
</g>
<!-- Node5 -->
<g id="node5" class="node">
<title>Node5</title>
<g id="a_node5"><a xlink:href="../../d0/da0/class_app_wren_aedf9a5e77ba482fde47e52125e9ca292.html#aedf9a5e77ba482fde47e52125e9ca292" target="_top" xlink:title="shutsdown then starts the VM">
<polygon fill="none" stroke="black" points="295.5,-191.8 295.5,-219.8 474.5,-219.8 474.5,-191.8 295.5,-191.8"/>
<text text-anchor="middle" x="385" y="-201.4" font-family="Helvetica,sans-Serif" font-size="18.00">AppWren::restartVM</text>
</a>
</g>
</g>
<!-- Node4&#45;&gt;Node5 -->
<g id="edge4" class="edge">
<title>Node4&#45;&gt;Node5</title>
<path fill="none" stroke="midnightblue" d="M520.37,-191.53C505.25,-193.13 489.62,-194.79 474.58,-196.39"/>
<polygon fill="midnightblue" stroke="midnightblue" points="521.15,-194.97 530.73,-190.43 520.41,-188 521.15,-194.97"/>
</g>
<!-- Node8 -->
<g id="node8" class="node">
<title>Node8</title>
<g id="a_node8"><a xlink:href="../../d0/da0/class_app_wren_aeb6716ec79e8c30f26c0b9009e750e4c.html#aeb6716ec79e8c30f26c0b9009e750e4c" target="_top" xlink:title="start, load and configure the handles of the VM">
<polygon fill="none" stroke="black" points="275,-144.8 275,-172.8 495,-172.8 495,-144.8 275,-144.8"/>
<text text-anchor="middle" x="385" y="-154.4" font-family="Helvetica,sans-Serif" font-size="18.00">AppWren::vmConstructor</text>
</a>
</g>
</g>
<!-- Node4&#45;&gt;Node8 -->
<g id="edge7" class="edge">
<title>Node4&#45;&gt;Node8</title>
<path fill="none" stroke="midnightblue" d="M520.63,-172.5C512.28,-171.65 503.77,-170.78 495.28,-169.92"/>
<polygon fill="midnightblue" stroke="midnightblue" points="520.43,-176 530.73,-173.53 521.13,-169.03 520.43,-176"/>
</g>
<!-- Node6 -->
<g id="node6" class="node">
<title>Node6</title>
<g id="a_node6"><a xlink:href="../../d0/da0/class_app_wren_aaa5357f4f5b7d4ffdd9f804e95d4a8e9.html#aaa5357f4f5b7d4ffdd9f804e95d4a8e9" target="_top" xlink:title="handles messages from other sw components">
<polygon fill="none" stroke="black" points="0,-238.8 0,-266.8 239,-266.8 239,-238.8 0,-238.8"/>
<text text-anchor="middle" x="119.5" y="-248.4" font-family="Helvetica,sans-Serif" font-size="18.00">AppWren::messageHandler</text>
</a>
</g>
</g>
<!-- Node5&#45;&gt;Node6 -->
<g id="edge5" class="edge">
<title>Node5&#45;&gt;Node6</title>
<path fill="none" stroke="midnightblue" d="M295.33,-221.61C264.22,-227.16 229.5,-233.36 199.25,-238.75"/>
<polygon fill="midnightblue" stroke="midnightblue" points="296.07,-225.04 305.3,-219.84 294.84,-218.15 296.07,-225.04"/>
</g>
<!-- Node7 -->
<g id="node7" class="node">
<title>Node7</title>
<g id="a_node7"><a xlink:href="../../d0/da0/class_app_wren_a14a1f7886fa9338a1eedebf1d0c6768e.html#a14a1f7886fa9338a1eedebf1d0c6768e" target="_top" xlink:title="class specific update implementation">
<polygon fill="none" stroke="black" points="42,-191.8 42,-219.8 197,-219.8 197,-191.8 42,-191.8"/>
<text text-anchor="middle" x="119.5" y="-201.4" font-family="Helvetica,sans-Serif" font-size="18.00">AppWren::render</text>
</a>
</g>
</g>
<!-- Node5&#45;&gt;Node7 -->
<g id="edge6" class="edge">
<title>Node5&#45;&gt;Node7</title>
<path fill="none" stroke="midnightblue" d="M284.97,-205.8C255.88,-205.8 224.52,-205.8 197.07,-205.8"/>
<polygon fill="midnightblue" stroke="midnightblue" points="285.16,-209.3 295.16,-205.8 285.16,-202.3 285.16,-209.3"/>
</g>
<!-- Node9 -->
<g id="node9" class="node">
<title>Node9</title>
<g id="a_node9"><a xlink:href="../../d0/da0/class_app_wren_aa63148d0906a6b5eabbba7058f568eae.html#aa63148d0906a6b5eabbba7058f568eae" target="_top" xlink:title=" ">
<polygon fill="none" stroke="black" points="30,-144.8 30,-172.8 209,-172.8 209,-144.8 30,-144.8"/>
<text text-anchor="middle" x="119.5" y="-154.4" font-family="Helvetica,sans-Serif" font-size="18.00">AppWren::AppWren</text>
</a>
</g>
</g>
<!-- Node8&#45;&gt;Node9 -->
<g id="edge8" class="edge">
<title>Node8&#45;&gt;Node9</title>
<path fill="none" stroke="midnightblue" d="M264.84,-158.8C246.07,-158.8 226.95,-158.8 209.03,-158.8"/>
<polygon fill="midnightblue" stroke="midnightblue" points="264.92,-162.3 274.92,-158.8 264.92,-155.3 264.92,-162.3"/>
</g>
<!-- Node10&#45;&gt;Node3 -->
<g id="edge10" class="edge">
<title>Node10&#45;&gt;Node3</title>
<path fill="none" stroke="midnightblue" d="M1106.52,-1393.63C1096.3,-1389.28 1086.66,-1383.75 1078,-1376.8 902.18,-1235.54 888.35,-920.74 887.5,-850.07"/>
<polygon fill="midnightblue" stroke="midnightblue" points="1105.47,-1396.97 1116.06,-1397.3 1107.98,-1390.44 1105.47,-1396.97"/>
</g>
<!-- Node11&#45;&gt;Node3 -->
<g id="edge12" class="edge">
<title>Node11&#45;&gt;Node3</title>
<path fill="none" stroke="midnightblue" d="M1116.6,-1350.04C1102.69,-1345.33 1089.51,-1338.77 1078,-1329.8 914.88,-1202.65 891.34,-917.4 888.03,-850.18"/>
<polygon fill="midnightblue" stroke="midnightblue" points="1115.75,-1353.44 1126.33,-1353.01 1117.79,-1346.74 1115.75,-1353.44"/>
</g>
<!-- Node12&#45;&gt;Node3 -->
<g id="edge14" class="edge">
<title>Node12&#45;&gt;Node3</title>
<path fill="none" stroke="midnightblue" d="M1098.16,-1295.04C1091.07,-1291.59 1084.3,-1287.53 1078,-1282.8 927.3,-1169.5 894.54,-913.32 888.64,-850.1"/>
<polygon fill="midnightblue" stroke="midnightblue" points="1096.74,-1298.24 1107.3,-1299.1 1099.59,-1291.85 1096.74,-1298.24"/>
</g>
<!-- Node13&#45;&gt;Node3 -->
<g id="edge16" class="edge">
<title>Node13&#45;&gt;Node3</title>
<path fill="none" stroke="midnightblue" d="M1083.21,-1239.34C1081.44,-1238.21 1079.71,-1237.03 1078,-1235.8 939.41,-1136.04 897.93,-908.5 889.35,-849.81"/>
<polygon fill="midnightblue" stroke="midnightblue" points="1081.88,-1242.62 1092.28,-1244.65 1085.42,-1236.58 1081.88,-1242.62"/>
</g>
<!-- Node14&#45;&gt;Node3 -->
<g id="edge18" class="edge">
<title>Node14&#45;&gt;Node3</title>
<path fill="none" stroke="midnightblue" d="M1112.37,-1205.75C1100.18,-1201.52 1088.53,-1195.98 1078,-1188.8 951.73,-1102.66 901.94,-904.72 890.31,-850.03"/>
<polygon fill="midnightblue" stroke="midnightblue" points="1111.66,-1209.19 1122.25,-1208.86 1113.76,-1202.52 1111.66,-1209.19"/>
</g>
<!-- Node15&#45;&gt;Node3 -->
<g id="edge20" class="edge">
<title>Node15&#45;&gt;Node3</title>
<path fill="none" stroke="midnightblue" d="M1203.47,-1170.3C1164.48,-1170.67 1115,-1165.39 1078,-1141.8 963.5,-1068.78 906.24,-899.68 891.44,-849.86"/>
<polygon fill="midnightblue" stroke="midnightblue" points="1203.73,-1173.79 1213.65,-1170.07 1203.57,-1166.8 1203.73,-1173.79"/>
</g>
<!-- Node16&#45;&gt;Node3 -->
<g id="edge22" class="edge">
<title>Node16&#45;&gt;Node3</title>
<path fill="none" stroke="midnightblue" d="M1182.74,-1121.73C1148.28,-1119.88 1109.22,-1113.05 1078,-1094.8 975.12,-1034.65 911.34,-894.69 893,-849.87"/>
<polygon fill="midnightblue" stroke="midnightblue" points="1182.67,-1125.23 1192.8,-1122.14 1182.95,-1118.24 1182.67,-1125.23"/>
</g>
<!-- Node17&#45;&gt;Node3 -->
<g id="edge24" class="edge">
<title>Node17&#45;&gt;Node3</title>
<path fill="none" stroke="midnightblue" d="M1177.56,-1072.8C1144.74,-1070.31 1108.21,-1063.53 1078,-1047.8 986.49,-1000.15 917.68,-889.49 895.29,-850.06"/>
<polygon fill="midnightblue" stroke="midnightblue" points="1177.42,-1076.3 1187.62,-1073.44 1177.86,-1069.31 1177.42,-1076.3"/>
</g>
<!-- Node18&#45;&gt;Node3 -->
<g id="edge26" class="edge">
<title>Node18&#45;&gt;Node3</title>
<path fill="none" stroke="midnightblue" d="M1176.4,-1023.57C1144.24,-1020.74 1108.46,-1014.31 1078,-1000.8 997.21,-964.95 925.31,-882.94 898.57,-849.94"/>
<polygon fill="midnightblue" stroke="midnightblue" points="1176.47,-1027.09 1186.71,-1024.37 1177.01,-1020.11 1176.47,-1027.09"/>
</g>
<!-- Node19&#45;&gt;Node3 -->
<g id="edge28" class="edge">
<title>Node19&#45;&gt;Node3</title>
<path fill="none" stroke="midnightblue" d="M1182.18,-974.3C1148.98,-971.32 1110.98,-965.39 1078,-953.8 1007.9,-929.16 936.36,-875.6 904.55,-849.99"/>
<polygon fill="midnightblue" stroke="midnightblue" points="1182.06,-977.8 1192.32,-975.13 1182.64,-970.83 1182.06,-977.8"/>
</g>
<!-- Node21 -->
<g id="node21" class="node">
<title>Node21</title>
<g id="a_node21"><a xlink:href="../../d7/d7e/_app_wren_8cpp_a8862be3048f99b67cf6ccc12d2c2ae74.html#a8862be3048f99b67cf6ccc12d2c2ae74" target="_top" xlink:title="callback for the VM to request a module be loaded from the filesystem">
<polygon fill="none" stroke="black" points="831.5,-167.8 831.5,-195.8 941.5,-195.8 941.5,-167.8 831.5,-167.8"/>
<text text-anchor="middle" x="886.5" y="-177.4" font-family="Helvetica,sans-Serif" font-size="18.00">loadModule</text>
</a>
</g>
</g>
<!-- Node20&#45;&gt;Node21 -->
<g id="edge30" class="edge">
<title>Node20&#45;&gt;Node21</title>
<path fill="none" stroke="midnightblue" d="M1164.77,-213.26C1092.94,-205.11 999.51,-194.51 941.53,-187.93"/>
<polygon fill="midnightblue" stroke="midnightblue" points="1164.42,-216.74 1174.75,-214.39 1165.21,-209.78 1164.42,-216.74"/>
</g>
<!-- Node21&#45;&gt;Node4 -->
<g id="edge31" class="edge">
<title>Node21&#45;&gt;Node4</title>
<path fill="none" stroke="midnightblue" d="M820.88,-181.8C783.23,-181.8 735.42,-181.8 695.24,-181.8"/>
<polygon fill="midnightblue" stroke="midnightblue" points="821.21,-185.3 831.21,-181.8 821.21,-178.3 821.21,-185.3"/>
</g>
<!-- Node22&#45;&gt;Node3 -->
<g id="edge33" class="edge">
<title>Node22&#45;&gt;Node3</title>
<path fill="none" stroke="midnightblue" d="M1172.08,-922.68C1141.76,-919.22 1108.22,-914.16 1078,-906.8 1020.05,-892.67 955.59,-866.25 918.47,-849.93"/>
<polygon fill="midnightblue" stroke="midnightblue" points="1171.9,-926.18 1182.22,-923.79 1172.66,-919.22 1171.9,-926.18"/>
</g>
<!-- Node23&#45;&gt;Node3 -->
<g id="edge35" class="edge">
<title>Node23&#45;&gt;Node3</title>
<path fill="none" stroke="midnightblue" d="M1141.14,-867.57C1120.06,-864.99 1098.41,-862.33 1078,-859.8 1043.76,-855.55 1006.07,-850.82 973.31,-846.68"/>
<polygon fill="midnightblue" stroke="midnightblue" points="1140.75,-871.05 1151.1,-868.79 1141.6,-864.1 1140.75,-871.05"/>
</g>
<!-- Node24&#45;&gt;Node21 -->
<g id="edge37" class="edge">
<title>Node24&#45;&gt;Node21</title>
<path fill="none" stroke="midnightblue" d="M1162.9,-178.89C1091.38,-179.65 999.14,-180.62 941.65,-181.23"/>
<polygon fill="midnightblue" stroke="midnightblue" points="1163.34,-182.39 1173.3,-178.78 1163.26,-175.39 1163.34,-182.39"/>
</g>
<!-- Node25&#45;&gt;Node3 -->
<g id="edge39" class="edge">
<title>Node25&#45;&gt;Node3</title>
<path fill="none" stroke="midnightblue" d="M1196.21,-835.8C1133.24,-835.8 1040.68,-835.8 973.35,-835.8"/>
<polygon fill="midnightblue" stroke="midnightblue" points="1196.45,-839.3 1206.45,-835.8 1196.45,-832.3 1196.45,-839.3"/>
</g>
<!-- Node26&#45;&gt;Node27 -->
<g id="edge41" class="edge">
<title>Node26&#45;&gt;Node27</title>
<path fill="none" stroke="midnightblue" d="M1153.7,-129.61C1118.69,-129.24 1079.48,-128.82 1042.14,-128.43"/>
<polygon fill="midnightblue" stroke="midnightblue" points="1153.9,-133.11 1163.94,-129.72 1153.97,-126.11 1153.9,-133.11"/>
</g>
<!-- Node28&#45;&gt;Node3 -->
<g id="edge43" class="edge">
<title>Node28&#45;&gt;Node3</title>
<path fill="none" stroke="midnightblue" d="M1157.38,-802.33C1098.82,-809.59 1027.67,-818.42 973.14,-825.18"/>
<polygon fill="midnightblue" stroke="midnightblue" points="1157.92,-805.79 1167.42,-801.09 1157.06,-798.84 1157.92,-805.79"/>
</g>
<!-- Node29&#45;&gt;Node3 -->
<g id="edge45" class="edge">
<title>Node29&#45;&gt;Node3</title>
<path fill="none" stroke="midnightblue" d="M1155.78,-751.66C1130.04,-755.12 1102.9,-759.72 1078,-765.8 1020.32,-779.88 956.04,-805.75 918.84,-821.79"/>
<polygon fill="midnightblue" stroke="midnightblue" points="1156.48,-755.1 1165.95,-750.35 1155.58,-748.16 1156.48,-755.1"/>
</g>
<!-- Node30&#45;&gt;Node3 -->
<g id="edge47" class="edge">
<title>Node30&#45;&gt;Node3</title>
<path fill="none" stroke="midnightblue" d="M1175.77,-698.54C1144.16,-701.87 1108.88,-707.92 1078,-718.8 1008.08,-743.43 936.45,-796.44 904.58,-821.76"/>
<polygon fill="midnightblue" stroke="midnightblue" points="1176.29,-702 1185.9,-697.55 1175.61,-695.04 1176.29,-702"/>
</g>
<!-- Node31&#45;&gt;Node3 -->
<g id="edge49" class="edge">
<title>Node31&#45;&gt;Node3</title>
<path fill="none" stroke="midnightblue" d="M1165.2,-649.82C1136.1,-653.26 1104.96,-659.8 1078,-671.8 997.46,-707.64 925.41,-789.03 898.6,-821.77"/>
<polygon fill="midnightblue" stroke="midnightblue" points="1165.82,-653.27 1175.39,-648.73 1165.08,-646.31 1165.82,-653.27"/>
</g>
<!-- Node32&#45;&gt;Node3 -->
<g id="edge51" class="edge">
<title>Node32&#45;&gt;Node3</title>
<path fill="none" stroke="midnightblue" d="M1158.11,-601.46C1130.8,-605.09 1102.35,-612.08 1078,-624.8 986.8,-672.45 917.79,-782.45 895.32,-821.62"/>
<polygon fill="midnightblue" stroke="midnightblue" points="1158.6,-604.92 1168.11,-600.26 1157.77,-597.97 1158.6,-604.92"/>
</g>
<!-- Node33&#45;&gt;Node3 -->
<g id="edge53" class="edge">
<title>Node33&#45;&gt;Node3</title>
<path fill="none" stroke="midnightblue" d="M1175.39,-550.92C1142.81,-553.5 1107.01,-560.77 1078,-577.8 975.72,-637.82 911.76,-776.57 893.16,-821.49"/>
<polygon fill="midnightblue" stroke="midnightblue" points="1175.64,-554.41 1185.39,-550.26 1175.18,-547.42 1175.64,-554.41"/>
</g>
<!-- Node34&#45;&gt;Node3 -->
<g id="edge55" class="edge">
<title>Node34&#45;&gt;Node3</title>
<path fill="none" stroke="midnightblue" d="M1159.89,-504.16C1131.53,-507.63 1102.11,-515.36 1078,-530.8 964.17,-603.69 906.63,-771.43 891.58,-821.46"/>
<polygon fill="midnightblue" stroke="midnightblue" points="1160.29,-507.64 1169.87,-503.1 1159.55,-500.67 1160.29,-507.64"/>
</g>
<!-- Node35&#45;&gt;Node3 -->
<g id="edge57" class="edge">
<title>Node35&#45;&gt;Node3</title>
<path fill="none" stroke="midnightblue" d="M1182.7,-454.25C1147.69,-455.83 1108.22,-463.09 1078,-483.8 952.18,-570.01 902.07,-767.16 890.34,-821.63"/>
<polygon fill="midnightblue" stroke="midnightblue" points="1183.03,-457.74 1192.92,-453.94 1182.82,-450.75 1183.03,-457.74"/>
</g>
<!-- Node36&#45;&gt;Node3 -->
<g id="edge59" class="edge">
<title>Node36&#45;&gt;Node3</title>
<path fill="none" stroke="midnightblue" d="M1170.01,-407.26C1138.21,-409.84 1104.29,-417.79 1078,-436.8 940.21,-536.42 898.25,-762.35 889.44,-821.44"/>
<polygon fill="midnightblue" stroke="midnightblue" points="1170.49,-410.74 1180.24,-406.61 1170.04,-403.76 1170.49,-410.74"/>
</g>
<!-- Node37&#45;&gt;Node3 -->
<g id="edge61" class="edge">
<title>Node37&#45;&gt;Node3</title>
<path fill="none" stroke="midnightblue" d="M1163.44,-360.2C1133.44,-363.25 1102.24,-371.49 1078,-389.8 927.84,-503.22 894.67,-758.54 888.67,-821.54"/>
<polygon fill="midnightblue" stroke="midnightblue" points="1163.89,-363.67 1173.56,-359.35 1163.31,-356.7 1163.89,-363.67"/>
</g>
<!-- Node38&#45;&gt;Node3 -->
<g id="edge63" class="edge">
<title>Node38&#45;&gt;Node3</title>
<path fill="none" stroke="midnightblue" d="M1131.5,-318.03C1112.15,-322.82 1093.55,-330.62 1078,-342.8 915.45,-470.09 891.48,-754.46 888.05,-821.46"/>
<polygon fill="midnightblue" stroke="midnightblue" points="1132.36,-321.42 1141.37,-315.85 1130.85,-314.59 1132.36,-321.42"/>
</g>
<!-- Node39&#45;&gt;Node3 -->
<g id="edge65" class="edge">
<title>Node39&#45;&gt;Node3</title>
<path fill="none" stroke="midnightblue" d="M1141.89,-268.26C1118.76,-272.72 1096.19,-281.11 1078,-295.8 902.79,-437.23 888.49,-751.11 887.53,-821.57"/>
<polygon fill="midnightblue" stroke="midnightblue" points="1142.54,-271.7 1151.82,-266.58 1141.38,-264.79 1142.54,-271.7"/>
</g>
<!-- Node40&#45;&gt;Node4 -->
<g id="edge68" class="edge">
<title>Node40&#45;&gt;Node4</title>
<path fill="none" stroke="midnightblue" d="M838.24,-71.13C806.93,-77.66 765.43,-88.27 731,-103.8 692.72,-121.06 653.07,-150.34 631.16,-167.69"/>
<polygon fill="midnightblue" stroke="midnightblue" points="839.33,-74.48 848.44,-69.08 837.95,-67.62 839.33,-74.48"/>
</g>
</g>
</svg>
