<?xml version="1.0" encoding="UTF-8" standalone="no"?>
<!DOCTYPE svg PUBLIC "-//W3C//DTD SVG 1.1//EN"
 "http://www.w3.org/Graphics/SVG/1.1/DTD/svg11.dtd">
<!-- Generated by graphviz version 2.47.3 (20210619.1520)
 -->
<!-- Title: AppManager::getFocus Pages: 1 -->
<svg width="416pt" height="30pt"
 viewBox="0.00 0.00 416.00 30.00" xmlns="http://www.w3.org/2000/svg" xmlns:xlink="http://www.w3.org/1999/xlink">
<g id="graph0" class="graph" transform="scale(1 1) rotate(0) translate(4 26)">
<title>AppManager::getFocus</title>
<polygon fill="white" stroke="transparent" points="-4,4 -4,-26 412,-26 412,4 -4,4"/>
<!-- Node1 -->
<g id="node1" class="node">
<title>Node1</title>
<g id="a_node1"><a xlink:title=" ">
<polygon fill="#bfbfbf" stroke="black" points="268,-0.5 268,-21.5 408,-21.5 408,-0.5 268,-0.5"/>
<text text-anchor="middle" x="338" y="-7.9" font-family="Helvetica,sans-Serif" font-size="12.00">AppManager::getFocus</text>
</a>
</g>
</g>
<!-- Node2 -->
<g id="node2" class="node">
<title>Node2</title>
<g id="a_node2"><a xlink:href="../../db/d69/class_app_base_class.html#afcd9194843e5eb3f6140e28cc3c9e8f9" target="_top" xlink:title=" ">
<polygon fill="white" stroke="black" points="81,-0.5 81,-21.5 232,-21.5 232,-0.5 81,-0.5"/>
<text text-anchor="middle" x="156.5" y="-7.9" font-family="Helvetica,sans-Serif" font-size="12.00">AppBaseClass::getFocus</text>
</a>
</g>
</g>
<!-- Node1&#45;&gt;Node2 -->
<g id="edge1" class="edge">
<title>Node1&#45;&gt;Node2</title>
<path fill="none" stroke="midnightblue" d="M257.65,-11C249.21,-11 240.65,-11 232.27,-11"/>
<polygon fill="midnightblue" stroke="midnightblue" points="257.86,-14.5 267.86,-11 257.86,-7.5 257.86,-14.5"/>
</g>
<!-- Node3 -->
<g id="node3" class="node">
<title>Node3</title>
<g id="a_node3"><a xlink:href="../../df/d0a/main_8cpp.html#a4fc01d736fe50cf5b977f755b675f11d" target="_top" xlink:title=" ">
<polygon fill="white" stroke="black" points="0,-0.5 0,-21.5 45,-21.5 45,-0.5 0,-0.5"/>
<text text-anchor="middle" x="22.5" y="-7.9" font-family="Helvetica,sans-Serif" font-size="12.00">setup</text>
</a>
</g>
</g>
<!-- Node2&#45;&gt;Node3 -->
<g id="edge2" class="edge">
<title>Node2&#45;&gt;Node3</title>
<path fill="none" stroke="midnightblue" d="M70.38,-11C61.1,-11 52.37,-11 45.02,-11"/>
<polygon fill="midnightblue" stroke="midnightblue" points="70.63,-14.5 80.63,-11 70.63,-7.5 70.63,-14.5"/>
</g>
</g>
</svg>
