<?xml version="1.0" encoding="UTF-8" standalone="no"?>
<!DOCTYPE svg PUBLIC "-//W3C//DTD SVG 1.1//EN"
 "http://www.w3.org/Graphics/SVG/1.1/DTD/svg11.dtd">
<!-- Generated by graphviz version 2.47.3 (20210619.1520)
 -->
<!-- Title: AppManager::update Pages: 1 -->
<!--zoomable 1563 -->
<svg id="main" version="1.1" xmlns="http://www.w3.org/2000/svg" xmlns:xlink="http://www.w3.org/1999/xlink" xml:space="preserve" onload="init(evt)">
<style type="text/css"><![CDATA[
.edge:hover path { stroke: red; }
.edge:hover polygon { stroke: red; fill: red; }
]]></style>
<script type="text/javascript"><![CDATA[
var edges = document.getElementsByTagName('g');
if (edges && edges.length) {
  for (var i=0;i<edges.length;i++) {
    if (edges[i].id.substr(0,4)=='edge') {
      edges[i].setAttribute('class','edge');
    }
  }
}
]]></script>
        <defs>
                <circle id="rim" cx="0" cy="0" r="7"/>
                <circle id="rim2" cx="0" cy="0" r="3.5"/>
                <g id="zoomPlus">
                        <use xlink:href="#rim" fill="#404040">
                                <set attributeName="fill" to="#808080" begin="zoomplus.mouseover" end="zoomplus.mouseout"/>
                        </use>
                        <path d="M-4,0h8M0,-4v8" fill="none" stroke="white" stroke-width="1.5" pointer-events="none"/>
                </g>
                <g id="zoomMin">
                        <use xlink:href="#rim" fill="#404040">
                                <set attributeName="fill" to="#808080" begin="zoomminus.mouseover" end="zoomminus.mouseout"/>
                        </use>
                        <path d="M-4,0h8" fill="none" stroke="white" stroke-width="1.5" pointer-events="none"/>
                </g>
                <g id="dirArrow">
                        <path fill="none" stroke="white" stroke-width="1.5" d="M0,-3.0v7 M-2.5,-0.5L0,-3.0L2.5,-0.5"/>
                </g>
               <g id="resetDef">
                       <use xlink:href="#rim2" fill="#404040">
                               <set attributeName="fill" to="#808080" begin="reset.mouseover" end="reset.mouseout"/>
                       </use>
               </g>
        </defs>

<script type="text/javascript">
var viewWidth = 1429;
var viewHeight = 1563;
var sectionId = 'dynsection-0';
</script>
<script xlink:href="../../svgpan.js"/>
<svg id="graph" class="graph">
<g id="viewport">
<title>AppManager::update</title>
<!-- Node1 -->
<g id="node1" class="node">
<title>Node1</title>
<g id="a_node1"><a xlink:title="this is the main update loop for ErisCore">
<polygon fill="#bfbfbf" stroke="black" points="0,-752.5 0,-780.5 186,-780.5 186,-752.5 0,-752.5"/>
<text text-anchor="middle" x="93" y="-762.1" font-family="Helvetica,sans-Serif" font-size="18.00">AppManager::update</text>
</a>
</g>
</g>
<!-- Node2 -->
<g id="node2" class="node">
<title>Node2</title>
<g id="a_node2"><a xlink:href="../../d8/d5a/class_i_l_i9341__t3___e_r_i_s_acaa55520092d6b9974963132c366b458.html#acaa55520092d6b9974963132c366b458" target="_top" xlink:title="renders an image chunk using the information provided by Animation parameter This function is used to...">
<polygon fill="none" stroke="black" points="222,-1479.5 222,-1507.5 595,-1507.5 595,-1479.5 222,-1479.5"/>
<text text-anchor="middle" x="408.5" y="-1489.1" font-family="Helvetica,sans-Serif" font-size="18.00">ILI9341_t3_ERIS::bltSDAnimationFullScreen</text>
</a>
</g>
</g>
<!-- Node1&#45;&gt;Node2 -->
<g id="edge1" class="edge">
<title>Node1&#45;&gt;Node2</title>
<path fill="none" stroke="midnightblue" d="M94.38,-780.7C97.15,-871.61 117.04,-1371.31 222,-1470.5 222.96,-1471.41 223.94,-1472.29 224.93,-1473.16"/>
<polygon fill="midnightblue" stroke="midnightblue" points="222.81,-1475.94 232.85,-1479.34 227.12,-1470.43 222.81,-1475.94"/>
</g>
<!-- Node5 -->
<g id="node5" class="node">
<title>Node5</title>
<g id="a_node5"><a xlink:href="../../d8/d5a/class_i_l_i9341__t3___e_r_i_s_a99cda068bb048ccd5bcb41f47bb8043b.html#a99cda068bb048ccd5bcb41f47bb8043b" target="_top" xlink:title="tft busy check">
<polygon fill="none" stroke="black" points="308.5,-1432.5 308.5,-1460.5 508.5,-1460.5 508.5,-1432.5 308.5,-1432.5"/>
<text text-anchor="middle" x="408.5" y="-1442.1" font-family="Helvetica,sans-Serif" font-size="18.00">ILI9341_t3_ERIS::busy</text>
</a>
</g>
</g>
<!-- Node1&#45;&gt;Node5 -->
<g id="edge4" class="edge">
<title>Node1&#45;&gt;Node5</title>
<path fill="none" stroke="midnightblue" d="M94.58,-780.6C98.45,-867.67 123.55,-1331.63 222,-1423.5 242.5,-1442.63 270.28,-1451.46 298.11,-1454.78"/>
<polygon fill="midnightblue" stroke="midnightblue" points="298.06,-1458.29 308.35,-1455.76 298.73,-1451.32 298.06,-1458.29"/>
</g>
<!-- Node7 -->
<g id="node7" class="node">
<title>Node7</title>
<g id="a_node7"><a xlink:href="../../dc/d40/_app_manager_8cpp_a5db3dd95011fd6a678ae291290091314.html#a5db3dd95011fd6a678ae291290091314" target="_top" xlink:title=" ">
<polygon fill="none" stroke="black" points="380.5,-1385.5 380.5,-1413.5 436.5,-1413.5 436.5,-1385.5 380.5,-1385.5"/>
<text text-anchor="middle" x="408.5" y="-1395.1" font-family="Helvetica,sans-Serif" font-size="18.00">draw</text>
</a>
</g>
</g>
<!-- Node1&#45;&gt;Node7 -->
<g id="edge6" class="edge">
<title>Node1&#45;&gt;Node7</title>
<path fill="none" stroke="midnightblue" d="M94.81,-780.67C99.88,-864.22 130.11,-1291.98 222,-1376.5 261.85,-1413.16 328.56,-1411.8 370.19,-1406.41"/>
<polygon fill="midnightblue" stroke="midnightblue" points="370.79,-1409.86 380.2,-1404.97 369.8,-1402.93 370.79,-1409.86"/>
</g>
<!-- Node8 -->
<g id="node8" class="node">
<title>Node8</title>
<g id="a_node8"><a xlink:href="../../d5/d8f/class_analog_inputs_a841715bbe640f97b8af098bc49addb1b.html#a841715bbe640f97b8af098bc49addb1b" target="_top" xlink:title=" ">
<polygon fill="none" stroke="black" points="304,-1338.5 304,-1366.5 513,-1366.5 513,-1338.5 304,-1338.5"/>
<text text-anchor="middle" x="408.5" y="-1348.1" font-family="Helvetica,sans-Serif" font-size="18.00">AnalogInputs::freadAN1</text>
</a>
</g>
</g>
<!-- Node1&#45;&gt;Node8 -->
<g id="edge7" class="edge">
<title>Node1&#45;&gt;Node8</title>
<path fill="none" stroke="midnightblue" d="M95.07,-780.61C101.39,-860.2 136.6,-1252.26 222,-1329.5 241.63,-1347.26 267.59,-1356.03 293.85,-1359.75"/>
<polygon fill="midnightblue" stroke="midnightblue" points="293.57,-1363.24 303.91,-1360.93 294.39,-1356.29 293.57,-1363.24"/>
</g>
<!-- Node9 -->
<g id="node9" class="node">
<title>Node9</title>
<g id="a_node9"><a xlink:href="../../d5/d8f/class_analog_inputs_a439396954deb373b44721ee3337cd4bd.html#a439396954deb373b44721ee3337cd4bd" target="_top" xlink:title=" ">
<polygon fill="none" stroke="black" points="304,-1291.5 304,-1319.5 513,-1319.5 513,-1291.5 304,-1291.5"/>
<text text-anchor="middle" x="408.5" y="-1301.1" font-family="Helvetica,sans-Serif" font-size="18.00">AnalogInputs::freadAN2</text>
</a>
</g>
</g>
<!-- Node1&#45;&gt;Node9 -->
<g id="edge8" class="edge">
<title>Node1&#45;&gt;Node9</title>
<path fill="none" stroke="midnightblue" d="M95.38,-780.66C103.07,-856.37 143.11,-1212.53 222,-1282.5 241.7,-1299.97 267.54,-1308.68 293.66,-1312.42"/>
<polygon fill="midnightblue" stroke="midnightblue" points="293.33,-1315.9 303.67,-1313.62 294.16,-1308.95 293.33,-1315.9"/>
</g>
<!-- Node10 -->
<g id="node10" class="node">
<title>Node10</title>
<g id="a_node10"><a xlink:href="../../d5/d8f/class_analog_inputs_a81e4a78e333e018d3ce8f43b3aa3898e.html#a81e4a78e333e018d3ce8f43b3aa3898e" target="_top" xlink:title=" ">
<polygon fill="none" stroke="black" points="304,-1244.5 304,-1272.5 513,-1272.5 513,-1244.5 304,-1244.5"/>
<text text-anchor="middle" x="408.5" y="-1254.1" font-family="Helvetica,sans-Serif" font-size="18.00">AnalogInputs::freadAN3</text>
</a>
</g>
</g>
<!-- Node1&#45;&gt;Node10 -->
<g id="edge9" class="edge">
<title>Node1&#45;&gt;Node10</title>
<path fill="none" stroke="midnightblue" d="M95.77,-780.78C104.95,-852.53 149.59,-1172.78 222,-1235.5 241.9,-1252.74 267.82,-1261.36 293.94,-1265.1"/>
<polygon fill="midnightblue" stroke="midnightblue" points="293.61,-1268.58 303.95,-1266.3 294.44,-1261.63 293.61,-1268.58"/>
</g>
<!-- Node11 -->
<g id="node11" class="node">
<title>Node11</title>
<g id="a_node11"><a xlink:href="../../d5/d8f/class_analog_inputs_ae65bcbe3b2732be513304ab59102b699.html#ae65bcbe3b2732be513304ab59102b699" target="_top" xlink:title=" ">
<polygon fill="none" stroke="black" points="304,-1197.5 304,-1225.5 513,-1225.5 513,-1197.5 304,-1197.5"/>
<text text-anchor="middle" x="408.5" y="-1207.1" font-family="Helvetica,sans-Serif" font-size="18.00">AnalogInputs::freadAN4</text>
</a>
</g>
</g>
<!-- Node1&#45;&gt;Node11 -->
<g id="edge10" class="edge">
<title>Node1&#45;&gt;Node11</title>
<path fill="none" stroke="midnightblue" d="M96.21,-780.68C106.95,-847.82 155.97,-1132.9 222,-1188.5 242.03,-1205.37 267.86,-1213.88 293.85,-1217.64"/>
<polygon fill="midnightblue" stroke="midnightblue" points="293.46,-1221.12 303.81,-1218.86 294.3,-1214.17 293.46,-1221.12"/>
</g>
<!-- Node12 -->
<g id="node12" class="node">
<title>Node12</title>
<g id="a_node12"><a xlink:href="../../da/d96/class_app_manager_a9853cc712c3a2efca6a982937cc97c44.html#a9853cc712c3a2efca6a982937cc97c44" target="_top" xlink:title="provides an interface for apps to request another app object by id">
<polygon fill="none" stroke="black" points="314.5,-1150.5 314.5,-1178.5 502.5,-1178.5 502.5,-1150.5 314.5,-1150.5"/>
<text text-anchor="middle" x="408.5" y="-1160.1" font-family="Helvetica,sans-Serif" font-size="18.00">AppManager::getApp</text>
</a>
</g>
</g>
<!-- Node1&#45;&gt;Node12 -->
<g id="edge11" class="edge">
<title>Node1&#45;&gt;Node12</title>
<path fill="none" stroke="midnightblue" d="M93.91,-780.61C94.4,-836.75 104.3,-1045.81 222,-1141.5 244.86,-1160.09 274.84,-1168.38 304.01,-1171.35"/>
<polygon fill="midnightblue" stroke="midnightblue" points="304.03,-1174.86 314.29,-1172.18 304.6,-1167.88 304.03,-1174.86"/>
</g>
<!-- Node13 -->
<g id="node13" class="node">
<title>Node13</title>
<g id="a_node13"><a xlink:href="../../d4/d7c/class_animation_a723e7fb6343df5e6a97cfcc3311bc513.html#a723e7fb6343df5e6a97cfcc3311bc513" target="_top" xlink:title=" ">
<polygon fill="none" stroke="black" points="272,-1103.5 272,-1131.5 545,-1131.5 545,-1103.5 272,-1103.5"/>
<text text-anchor="middle" x="408.5" y="-1113.1" font-family="Helvetica,sans-Serif" font-size="18.00">Animation::getNextFrameChunk</text>
</a>
</g>
</g>
<!-- Node1&#45;&gt;Node13 -->
<g id="edge12" class="edge">
<title>Node1&#45;&gt;Node13</title>
<path fill="none" stroke="midnightblue" d="M94.67,-780.63C97.95,-832.36 116.81,-1012.69 222,-1094.5 233.98,-1103.82 247.77,-1110.5 262.31,-1115.19"/>
<polygon fill="midnightblue" stroke="midnightblue" points="261.38,-1118.57 271.96,-1118 263.34,-1111.85 261.38,-1118.57"/>
</g>
<!-- Node14 -->
<g id="node14" class="node">
<title>Node14</title>
<g id="a_node14"><a xlink:href="../../d1/dff/class_touch_ad082601c945a7a700dc1afbc97f69c7b.html#ad082601c945a7a700dc1afbc97f69c7b" target="_top" xlink:title=" ">
<polygon fill="none" stroke="black" points="336.5,-1056.5 336.5,-1084.5 480.5,-1084.5 480.5,-1056.5 336.5,-1056.5"/>
<text text-anchor="middle" x="408.5" y="-1066.1" font-family="Helvetica,sans-Serif" font-size="18.00">Touch::getPoint</text>
</a>
</g>
</g>
<!-- Node1&#45;&gt;Node14 -->
<g id="edge13" class="edge">
<title>Node1&#45;&gt;Node14</title>
<path fill="none" stroke="midnightblue" d="M95.93,-780.81C103.01,-827.1 131.95,-973.74 222,-1041.5 251.39,-1063.62 290.92,-1071.87 325.94,-1074.19"/>
<polygon fill="midnightblue" stroke="midnightblue" points="326,-1077.69 336.16,-1074.71 326.35,-1070.7 326,-1077.69"/>
</g>
<!-- Node15 -->
<g id="node15" class="node">
<title>Node15</title>
<g id="a_node15"><a xlink:href="../../dc/d43/class_svc_data_dictionary_aab72733da062e89f277308ca64daf300.html#aab72733da062e89f277308ca64daf300" target="_top" xlink:title="increments the value of a global record &#160;creates a new record if one does not exist and &#160;initalizes i...">
<polygon fill="none" stroke="black" points="631,-1026.5 631,-1054.5 884,-1054.5 884,-1026.5 631,-1026.5"/>
<text text-anchor="middle" x="757.5" y="-1036.1" font-family="Helvetica,sans-Serif" font-size="18.00">SvcDataDictionary::increment</text>
</a>
</g>
</g>
<!-- Node1&#45;&gt;Node15 -->
<g id="edge14" class="edge">
<title>Node1&#45;&gt;Node15</title>
<path fill="none" stroke="midnightblue" d="M96.77,-780.51C105.92,-822.59 139.41,-948.27 222,-1001.5 285.66,-1042.53 484.52,-1047.14 620.87,-1045.07"/>
<polygon fill="midnightblue" stroke="midnightblue" points="621.04,-1048.57 630.98,-1044.9 620.93,-1041.57 621.04,-1048.57"/>
</g>
<!-- Node19 -->
<g id="node19" class="node">
<title>Node19</title>
<g id="a_node19"><a xlink:href="../../d4/d7c/class_animation_a74a3bca95fe6f9bed1673bba9631cedd.html#a74a3bca95fe6f9bed1673bba9631cedd" target="_top" xlink:title=" ">
<polygon fill="none" stroke="black" points="284.5,-846.5 284.5,-874.5 532.5,-874.5 532.5,-846.5 284.5,-846.5"/>
<text text-anchor="middle" x="408.5" y="-856.1" font-family="Helvetica,sans-Serif" font-size="18.00">Animation::isFrameComplete</text>
</a>
</g>
</g>
<!-- Node1&#45;&gt;Node19 -->
<g id="edge19" class="edge">
<title>Node1&#45;&gt;Node19</title>
<path fill="none" stroke="midnightblue" d="M113.72,-780.62C137.96,-797.2 180.92,-824.12 222,-837.5 238.66,-842.93 256.55,-847.09 274.4,-850.28"/>
<polygon fill="midnightblue" stroke="midnightblue" points="273.87,-853.74 284.31,-851.95 275.03,-846.83 273.87,-853.74"/>
</g>
<!-- Node20 -->
<g id="node20" class="node">
<title>Node20</title>
<g id="a_node20"><a xlink:href="../../db/d69/class_app_base_class_a9690562f1ed92ae4544190d68be66c1e.html#a9690562f1ed92ae4544190d68be66c1e" target="_top" xlink:title="Event handler for analog 1 event.">
<polygon fill="none" stroke="black" points="293,-799.5 293,-827.5 524,-827.5 524,-799.5 293,-799.5"/>
<text text-anchor="middle" x="408.5" y="-809.1" font-family="Helvetica,sans-Serif" font-size="18.00">AppBaseClass::onAnalog1</text>
</a>
</g>
</g>
<!-- Node1&#45;&gt;Node20 -->
<g id="edge20" class="edge">
<title>Node1&#45;&gt;Node20</title>
<path fill="none" stroke="midnightblue" d="M164.62,-780.55C183.24,-784.04 203.35,-787.6 222,-790.5 241.57,-793.54 262.34,-796.44 282.64,-799.09"/>
<polygon fill="midnightblue" stroke="midnightblue" points="282.19,-802.57 292.56,-800.38 283.09,-795.62 282.19,-802.57"/>
</g>
<!-- Node21 -->
<g id="node21" class="node">
<title>Node21</title>
<g id="a_node21"><a xlink:href="../../db/d69/class_app_base_class_accc379f5b1f582928d1c29608b5546a2.html#accc379f5b1f582928d1c29608b5546a2" target="_top" xlink:title="Event handler for analog 2 event.">
<polygon fill="none" stroke="black" points="293,-752.5 293,-780.5 524,-780.5 524,-752.5 293,-752.5"/>
<text text-anchor="middle" x="408.5" y="-762.1" font-family="Helvetica,sans-Serif" font-size="18.00">AppBaseClass::onAnalog2</text>
</a>
</g>
</g>
<!-- Node1&#45;&gt;Node21 -->
<g id="edge21" class="edge">
<title>Node1&#45;&gt;Node21</title>
<path fill="none" stroke="midnightblue" d="M186.36,-766.5C216.43,-766.5 250.33,-766.5 282.38,-766.5"/>
<polygon fill="midnightblue" stroke="midnightblue" points="282.72,-770 292.72,-766.5 282.72,-763 282.72,-770"/>
</g>
<!-- Node22 -->
<g id="node22" class="node">
<title>Node22</title>
<g id="a_node22"><a xlink:href="../../db/d69/class_app_base_class_a8dcf375c6659741078b08b90ad500090.html#a8dcf375c6659741078b08b90ad500090" target="_top" xlink:title="Event handler for analog 3 event.">
<polygon fill="none" stroke="black" points="293,-705.5 293,-733.5 524,-733.5 524,-705.5 293,-705.5"/>
<text text-anchor="middle" x="408.5" y="-715.1" font-family="Helvetica,sans-Serif" font-size="18.00">AppBaseClass::onAnalog3</text>
</a>
</g>
</g>
<!-- Node1&#45;&gt;Node22 -->
<g id="edge22" class="edge">
<title>Node1&#45;&gt;Node22</title>
<path fill="none" stroke="midnightblue" d="M168.69,-752.44C186.15,-749.33 204.71,-746.17 222,-743.5 241.58,-740.48 262.37,-737.53 282.67,-734.8"/>
<polygon fill="midnightblue" stroke="midnightblue" points="283.14,-738.26 292.59,-733.47 282.21,-731.33 283.14,-738.26"/>
</g>
<!-- Node23 -->
<g id="node23" class="node">
<title>Node23</title>
<g id="a_node23"><a xlink:href="../../db/d69/class_app_base_class_aef1d60f75d914b3a7abd0d44b0c266c3.html#aef1d60f75d914b3a7abd0d44b0c266c3" target="_top" xlink:title="Event handler for analog 4 event.">
<polygon fill="none" stroke="black" points="293,-658.5 293,-686.5 524,-686.5 524,-658.5 293,-658.5"/>
<text text-anchor="middle" x="408.5" y="-668.1" font-family="Helvetica,sans-Serif" font-size="18.00">AppBaseClass::onAnalog4</text>
</a>
</g>
</g>
<!-- Node1&#45;&gt;Node23 -->
<g id="edge23" class="edge">
<title>Node1&#45;&gt;Node23</title>
<path fill="none" stroke="midnightblue" d="M114.2,-752.33C138.55,-736.01 181.3,-709.74 222,-696.5 241.24,-690.24 262.1,-685.61 282.66,-682.18"/>
<polygon fill="midnightblue" stroke="midnightblue" points="283.38,-685.61 292.72,-680.59 282.29,-678.69 283.38,-685.61"/>
</g>
<!-- Node24 -->
<g id="node24" class="node">
<title>Node24</title>
<g id="a_node24"><a xlink:href="../../db/d69/class_app_base_class_a53c663808513ec64776645ee98da4a1f.html#a53c663808513ec64776645ee98da4a1f" target="_top" xlink:title="Event handler called when the app gains focus.">
<polygon fill="none" stroke="black" points="301,-611.5 301,-639.5 516,-639.5 516,-611.5 301,-611.5"/>
<text text-anchor="middle" x="408.5" y="-621.1" font-family="Helvetica,sans-Serif" font-size="18.00">AppBaseClass::onFocus</text>
</a>
</g>
</g>
<!-- Node1&#45;&gt;Node24 -->
<g id="edge24" class="edge">
<title>Node1&#45;&gt;Node24</title>
<path fill="none" stroke="midnightblue" d="M104.48,-752.38C124.26,-726.92 169.84,-673.71 222,-649.5 243.26,-639.63 267.28,-633.42 290.82,-629.59"/>
<polygon fill="midnightblue" stroke="midnightblue" points="291.49,-633.02 300.86,-628.09 290.46,-626.1 291.49,-633.02"/>
</g>
<!-- Node25 -->
<g id="node25" class="node">
<title>Node25</title>
<g id="a_node25"><a xlink:href="../../db/d69/class_app_base_class_a3937393335f8a7eab2ec16697925d93d.html#a3937393335f8a7eab2ec16697925d93d" target="_top" xlink:title="Event handler called when the app loses focus.">
<polygon fill="none" stroke="black" points="284.5,-564.5 284.5,-592.5 532.5,-592.5 532.5,-564.5 284.5,-564.5"/>
<text text-anchor="middle" x="408.5" y="-574.1" font-family="Helvetica,sans-Serif" font-size="18.00">AppBaseClass::onFocusLost</text>
</a>
</g>
</g>
<!-- Node1&#45;&gt;Node25 -->
<g id="edge25" class="edge">
<title>Node1&#45;&gt;Node25</title>
<path fill="none" stroke="midnightblue" d="M100.45,-752.02C116,-719.06 158.94,-638.47 222,-602.5 238.02,-593.36 256.06,-587.1 274.44,-582.88"/>
<polygon fill="midnightblue" stroke="midnightblue" points="275.3,-586.28 284.37,-580.8 273.87,-579.43 275.3,-586.28"/>
</g>
<!-- Node26 -->
<g id="node26" class="node">
<title>Node26</title>
<g id="a_node26"><a xlink:href="../../db/d69/class_app_base_class_a7a29247639ea02c3b279587104737133.html#a7a29247639ea02c3b279587104737133" target="_top" xlink:title="Event handler called on touch.">
<polygon fill="none" stroke="black" points="301,-517.5 301,-545.5 516,-545.5 516,-517.5 301,-517.5"/>
<text text-anchor="middle" x="408.5" y="-527.1" font-family="Helvetica,sans-Serif" font-size="18.00">AppBaseClass::onTouch</text>
</a>
</g>
</g>
<!-- Node1&#45;&gt;Node26 -->
<g id="edge26" class="edge">
<title>Node1&#45;&gt;Node26</title>
<path fill="none" stroke="midnightblue" d="M97.85,-752.44C109.31,-713.55 147.13,-604.24 222,-555.5 242.33,-542.26 266.59,-534.71 290.76,-530.65"/>
<polygon fill="midnightblue" stroke="midnightblue" points="291.36,-534.1 300.73,-529.16 290.33,-527.17 291.36,-534.1"/>
</g>
<!-- Node27 -->
<g id="node27" class="node">
<title>Node27</title>
<g id="a_node27"><a xlink:href="../../db/d69/class_app_base_class_a4a8e8cf977e759105dd3774056ffd5b1.html#a4a8e8cf977e759105dd3774056ffd5b1" target="_top" xlink:title="Event handler for touch drag.">
<polygon fill="none" stroke="black" points="281.5,-470.5 281.5,-498.5 535.5,-498.5 535.5,-470.5 281.5,-470.5"/>
<text text-anchor="middle" x="408.5" y="-480.1" font-family="Helvetica,sans-Serif" font-size="18.00">AppBaseClass::onTouchDrag</text>
</a>
</g>
</g>
<!-- Node1&#45;&gt;Node27 -->
<g id="edge27" class="edge">
<title>Node1&#45;&gt;Node27</title>
<path fill="none" stroke="midnightblue" d="M96.28,-752.34C104.26,-707.88 135.29,-570.33 222,-508.5 236.72,-498 253.82,-490.93 271.56,-486.3"/>
<polygon fill="midnightblue" stroke="midnightblue" points="272.53,-489.67 281.47,-483.97 270.93,-482.85 272.53,-489.67"/>
</g>
<!-- Node28 -->
<g id="node28" class="node">
<title>Node28</title>
<g id="a_node28"><a xlink:href="../../db/d69/class_app_base_class_ad759e79954ed91d52567d885622585be.html#ad759e79954ed91d52567d885622585be" target="_top" xlink:title="Event handler for touch release.">
<polygon fill="none" stroke="black" points="268,-423.5 268,-451.5 549,-451.5 549,-423.5 268,-423.5"/>
<text text-anchor="middle" x="408.5" y="-433.1" font-family="Helvetica,sans-Serif" font-size="18.00">AppBaseClass::onTouchRelease</text>
</a>
</g>
</g>
<!-- Node1&#45;&gt;Node28 -->
<g id="edge28" class="edge">
<title>Node1&#45;&gt;Node28</title>
<path fill="none" stroke="midnightblue" d="M95.14,-752.34C99.93,-702.89 123.11,-536.84 222,-461.5 232.91,-453.19 245.27,-446.96 258.31,-442.37"/>
<polygon fill="midnightblue" stroke="midnightblue" points="259.45,-445.68 267.91,-439.3 257.32,-439.01 259.45,-445.68"/>
</g>
<!-- Node29 -->
<g id="node29" class="node">
<title>Node29</title>
<g id="a_node29"><a xlink:href="../../dc/d43/class_svc_data_dictionary_ac24fc984a57549307f64a4e2979c1718.html#ac24fc984a57549307f64a4e2979c1718" target="_top" xlink:title="returns the int32_t value of the record">
<polygon fill="none" stroke="black" points="927,-893.5 927,-921.5 1136,-921.5 1136,-893.5 927,-893.5"/>
<text text-anchor="middle" x="1031.5" y="-903.1" font-family="Helvetica,sans-Serif" font-size="18.00">SvcDataDictionary::read</text>
</a>
</g>
</g>
<!-- Node1&#45;&gt;Node29 -->
<g id="edge29" class="edge">
<title>Node1&#45;&gt;Node29</title>
<path fill="none" stroke="midnightblue" d="M103.92,-780.83C123.13,-807.18 168.25,-862.62 222,-884.5 344.5,-934.37 724.51,-923.3 916.71,-913.97"/>
<polygon fill="midnightblue" stroke="midnightblue" points="917.03,-917.46 926.85,-913.47 916.69,-910.47 917.03,-917.46"/>
</g>
<!-- Node30 -->
<g id="node30" class="node">
<title>Node30</title>
<g id="a_node30"><a xlink:href="../../d5/d8f/class_analog_inputs_ab91223bd7cab41c1d65df46acd585686.html#ab91223bd7cab41c1d65df46acd585686" target="_top" xlink:title=" ">
<polygon fill="none" stroke="black" points="307,-376.5 307,-404.5 510,-404.5 510,-376.5 307,-376.5"/>
<text text-anchor="middle" x="408.5" y="-386.1" font-family="Helvetica,sans-Serif" font-size="18.00">AnalogInputs::readAN1</text>
</a>
</g>
</g>
<!-- Node1&#45;&gt;Node30 -->
<g id="edge31" class="edge">
<title>Node1&#45;&gt;Node30</title>
<path fill="none" stroke="midnightblue" d="M94.28,-752.15C96.2,-697.84 110.85,-503.53 222,-414.5 243.01,-397.67 269.87,-389.22 296.59,-385.49"/>
<polygon fill="midnightblue" stroke="midnightblue" points="297.28,-388.94 306.8,-384.29 296.46,-381.98 297.28,-388.94"/>
</g>
<!-- Node31 -->
<g id="node31" class="node">
<title>Node31</title>
<g id="a_node31"><a xlink:href="../../d5/d8f/class_analog_inputs_af25b231016ad4f7a4711d6bdb472d313.html#af25b231016ad4f7a4711d6bdb472d313" target="_top" xlink:title=" ">
<polygon fill="none" stroke="black" points="307,-329.5 307,-357.5 510,-357.5 510,-329.5 307,-329.5"/>
<text text-anchor="middle" x="408.5" y="-339.1" font-family="Helvetica,sans-Serif" font-size="18.00">AnalogInputs::readAN2</text>
</a>
</g>
</g>
<!-- Node1&#45;&gt;Node31 -->
<g id="edge32" class="edge">
<title>Node1&#45;&gt;Node31</title>
<path fill="none" stroke="midnightblue" d="M93.6,-752.33C92.8,-694 98.19,-470.63 222,-367.5 242.8,-350.18 269.72,-341.59 296.57,-337.89"/>
<polygon fill="midnightblue" stroke="midnightblue" points="297.31,-341.32 306.84,-336.7 296.51,-334.37 297.31,-341.32"/>
</g>
<!-- Node32 -->
<g id="node32" class="node">
<title>Node32</title>
<g id="a_node32"><a xlink:href="../../d5/d8f/class_analog_inputs_ade4d04a3b2269587914d433a7f27ea11.html#ade4d04a3b2269587914d433a7f27ea11" target="_top" xlink:title=" ">
<polygon fill="none" stroke="black" points="307,-282.5 307,-310.5 510,-310.5 510,-282.5 307,-282.5"/>
<text text-anchor="middle" x="408.5" y="-292.1" font-family="Helvetica,sans-Serif" font-size="18.00">AnalogInputs::readAN3</text>
</a>
</g>
</g>
<!-- Node1&#45;&gt;Node32 -->
<g id="edge33" class="edge">
<title>Node1&#45;&gt;Node32</title>
<path fill="none" stroke="midnightblue" d="M95.95,-752.47C105.86,-683.34 152.81,-379.97 222,-320.5 242.73,-302.69 269.88,-293.99 296.98,-290.34"/>
<polygon fill="midnightblue" stroke="midnightblue" points="297.41,-293.82 306.96,-289.22 296.63,-286.86 297.41,-293.82"/>
</g>
<!-- Node33 -->
<g id="node33" class="node">
<title>Node33</title>
<g id="a_node33"><a xlink:href="../../d5/d8f/class_analog_inputs_a377de243cab0ee18857220e7b1d5fc33.html#a377de243cab0ee18857220e7b1d5fc33" target="_top" xlink:title=" ">
<polygon fill="none" stroke="black" points="307,-235.5 307,-263.5 510,-263.5 510,-235.5 307,-235.5"/>
<text text-anchor="middle" x="408.5" y="-245.1" font-family="Helvetica,sans-Serif" font-size="18.00">AnalogInputs::readAN4</text>
</a>
</g>
</g>
<!-- Node1&#45;&gt;Node33 -->
<g id="edge34" class="edge">
<title>Node1&#45;&gt;Node33</title>
<path fill="none" stroke="midnightblue" d="M95.55,-752.49C103.93,-679.14 146.39,-340.18 222,-273.5 242.5,-255.42 269.57,-246.64 296.67,-242.99"/>
<polygon fill="midnightblue" stroke="midnightblue" points="297.1,-246.46 306.65,-241.87 296.32,-239.51 297.1,-246.46"/>
</g>
<!-- Node34 -->
<g id="node34" class="node">
<title>Node34</title>
<g id="a_node34"><a xlink:href="../../db/d69/class_app_base_class_ab0a89f68cc5889c6679e46563d78da03.html#ab0a89f68cc5889c6679e46563d78da03" target="_top" xlink:title="render loop">
<polygon fill="none" stroke="black" points="310,-188.5 310,-216.5 507,-216.5 507,-188.5 310,-188.5"/>
<text text-anchor="middle" x="408.5" y="-198.1" font-family="Helvetica,sans-Serif" font-size="18.00">AppBaseClass::render</text>
</a>
</g>
</g>
<!-- Node1&#45;&gt;Node34 -->
<g id="edge35" class="edge">
<title>Node1&#45;&gt;Node34</title>
<path fill="none" stroke="midnightblue" d="M95.21,-752.47C102.21,-674.99 139.95,-300.42 222,-226.5 243.15,-207.44 271.57,-198.63 299.79,-195.27"/>
<polygon fill="midnightblue" stroke="midnightblue" points="300.14,-198.75 309.76,-194.3 299.47,-191.78 300.14,-198.75"/>
</g>
<!-- Node35 -->
<g id="node35" class="node">
<title>Node35</title>
<g id="a_node35"><a xlink:href="../../da/d96/class_app_manager_abe1aaa39fc99564c257c256f5df6aec4.html#abe1aaa39fc99564c257c256f5df6aec4" target="_top" xlink:title="provides an interface for apps to request cpu freq change note: this is only a request....">
<polygon fill="none" stroke="black" points="261,-932.5 261,-960.5 556,-960.5 556,-932.5 261,-932.5"/>
<text text-anchor="middle" x="408.5" y="-942.1" font-family="Helvetica,sans-Serif" font-size="18.00">AppManager::requestArmSetClock</text>
</a>
</g>
</g>
<!-- Node1&#45;&gt;Node35 -->
<g id="edge36" class="edge">
<title>Node1&#45;&gt;Node35</title>
<path fill="none" stroke="midnightblue" d="M101.34,-780.65C118.1,-811.35 162.36,-884.03 222,-917.5 231.16,-922.64 240.94,-926.94 251.06,-930.54"/>
<polygon fill="midnightblue" stroke="midnightblue" points="250.26,-933.96 260.85,-933.78 252.45,-927.31 250.26,-933.96"/>
</g>
<!-- Node37 -->
<g id="node37" class="node">
<title>Node37</title>
<g id="a_node37"><a xlink:href="../../dc/d43/class_svc_data_dictionary_abcac7202c3bd21801ab64e48eee44056.html#abcac7202c3bd21801ab64e48eee44056" target="_top" xlink:title="update the value of an owned record &#160;creates a new record if one does not exist and &#160;initalizes its v...">
<polygon fill="none" stroke="black" points="642.5,-979.5 642.5,-1007.5 872.5,-1007.5 872.5,-979.5 642.5,-979.5"/>
<text text-anchor="middle" x="757.5" y="-989.1" font-family="Helvetica,sans-Serif" font-size="18.00">SvcDataDictionary::update</text>
</a>
</g>
</g>
<!-- Node1&#45;&gt;Node37 -->
<g id="edge46" class="edge">
<title>Node1&#45;&gt;Node37</title>
<path fill="none" stroke="midnightblue" d="M97.88,-780.72C109.31,-819.43 146.82,-926.78 222,-970.5 289.12,-1009.53 496.55,-1007.39 632.39,-1001.21"/>
<polygon fill="midnightblue" stroke="midnightblue" points="632.62,-1004.7 642.45,-1000.74 632.3,-997.71 632.62,-1004.7"/>
</g>
<!-- Node38 -->
<g id="node38" class="node">
<title>Node38</title>
<g id="a_node38"><a xlink:href="../../d1/dff/class_touch_aa8ae1714beea43a9ecc2bb4fe603263e.html#aa8ae1714beea43a9ecc2bb4fe603263e" target="_top" xlink:title=" ">
<polygon fill="none" stroke="black" points="337,-141.5 337,-169.5 480,-169.5 480,-141.5 337,-141.5"/>
<text text-anchor="middle" x="408.5" y="-151.1" font-family="Helvetica,sans-Serif" font-size="18.00">Touch::touched</text>
</a>
</g>
</g>
<!-- Node1&#45;&gt;Node38 -->
<g id="edge41" class="edge">
<title>Node1&#45;&gt;Node38</title>
<path fill="none" stroke="midnightblue" d="M94.94,-752.34C100.65,-670.68 133.52,-260.68 222,-179.5 249.78,-154.02 290.51,-146.71 326.73,-146.33"/>
<polygon fill="midnightblue" stroke="midnightblue" points="326.79,-149.83 336.81,-146.4 326.84,-142.83 326.79,-149.83"/>
</g>
<!-- Node39 -->
<g id="node39" class="node">
<title>Node39</title>
<g id="a_node39"><a xlink:href="../../d5/d8f/class_analog_inputs_a0de9a56bcfaa560efb631be277ea8502.html#a0de9a56bcfaa560efb631be277ea8502" target="_top" xlink:title="update returns true if a change is detected; false otherwise update is rate limited....">
<polygon fill="none" stroke="black" points="313.5,-94.5 313.5,-122.5 503.5,-122.5 503.5,-94.5 313.5,-94.5"/>
<text text-anchor="middle" x="408.5" y="-104.1" font-family="Helvetica,sans-Serif" font-size="18.00">AnalogInputs::update</text>
</a>
</g>
</g>
<!-- Node1&#45;&gt;Node39 -->
<g id="edge42" class="edge">
<title>Node1&#45;&gt;Node39</title>
<path fill="none" stroke="midnightblue" d="M94.68,-752.32C99.12,-666.75 126.65,-219.91 222,-131.5 243.71,-111.37 273.51,-102.67 302.88,-99.8"/>
<polygon fill="midnightblue" stroke="midnightblue" points="303.52,-103.26 313.23,-99.02 303,-96.28 303.52,-103.26"/>
</g>
<!-- Node40 -->
<g id="node40" class="node">
<title>Node40</title>
<g id="a_node40"><a xlink:href="../../db/d69/class_app_base_class_a0c2ee195056463d26b529f8c5218e8b9.html#a0c2ee195056463d26b529f8c5218e8b9" target="_top" xlink:title="update loop">
<polygon fill="none" stroke="black" points="308,-47.5 308,-75.5 509,-75.5 509,-47.5 308,-47.5"/>
<text text-anchor="middle" x="408.5" y="-57.1" font-family="Helvetica,sans-Serif" font-size="18.00">AppBaseClass::update</text>
</a>
</g>
</g>
<!-- Node1&#45;&gt;Node40 -->
<g id="edge43" class="edge">
<title>Node1&#45;&gt;Node40</title>
<path fill="none" stroke="midnightblue" d="M94.47,-752.45C97.73,-663.6 120.05,-180.3 222,-84.5 242.32,-65.4 269.91,-56.53 297.59,-53.18"/>
<polygon fill="midnightblue" stroke="midnightblue" points="298.17,-56.64 307.78,-52.19 297.49,-49.67 298.17,-56.64"/>
</g>
<!-- Node41 -->
<g id="node41" class="node">
<title>Node41</title>
<g id="a_node41"><a xlink:href="../../d1/dff/class_touch_a1fce6af123e6ed7b49f20a51b2a37d5a.html#a1fce6af123e6ed7b49f20a51b2a37d5a" target="_top" xlink:title=" ">
<polygon fill="none" stroke="black" points="341.5,-0.5 341.5,-28.5 475.5,-28.5 475.5,-0.5 341.5,-0.5"/>
<text text-anchor="middle" x="408.5" y="-10.1" font-family="Helvetica,sans-Serif" font-size="18.00">Touch::update</text>
</a>
</g>
</g>
<!-- Node1&#45;&gt;Node41 -->
<g id="edge44" class="edge">
<title>Node1&#45;&gt;Node41</title>
<path fill="none" stroke="midnightblue" d="M94.29,-752.4C96.47,-659.93 113.51,-140.65 222,-37.5 250.48,-10.42 293.54,-3.81 331,-4.37"/>
<polygon fill="midnightblue" stroke="midnightblue" points="331.29,-7.88 341.4,-4.71 331.51,-0.89 331.29,-7.88"/>
</g>
<!-- Node3 -->
<g id="node3" class="node">
<title>Node3</title>
<g id="a_node3"><a xlink:href="../../d4/d7c/class_animation_a1335e53d40b9068999c5e2a03722db83.html#a1335e53d40b9068999c5e2a03722db83" target="_top" xlink:title=" ">
<polygon fill="none" stroke="black" points="653,-1526.5 653,-1554.5 862,-1554.5 862,-1526.5 653,-1526.5"/>
<text text-anchor="middle" x="757.5" y="-1536.1" font-family="Helvetica,sans-Serif" font-size="18.00">Animation::getFileName</text>
</a>
</g>
</g>
<!-- Node2&#45;&gt;Node3 -->
<g id="edge2" class="edge">
<title>Node2&#45;&gt;Node3</title>
<path fill="none" stroke="midnightblue" d="M513.14,-1507.54C554.09,-1513.08 601.28,-1519.48 643.13,-1525.15"/>
<polygon fill="midnightblue" stroke="midnightblue" points="642.71,-1528.62 653.09,-1526.49 643.65,-1521.68 642.71,-1528.62"/>
</g>
<!-- Node4 -->
<g id="node4" class="node">
<title>Node4</title>
<g id="a_node4"><a xlink:href="../../d4/d7c/class_animation_ae19aa3ff603adae2590d52041422c0c8.html#ae19aa3ff603adae2590d52041422c0c8" target="_top" xlink:title=" ">
<polygon fill="none" stroke="black" points="672.5,-1479.5 672.5,-1507.5 842.5,-1507.5 842.5,-1479.5 672.5,-1479.5"/>
<text text-anchor="middle" x="757.5" y="-1489.1" font-family="Helvetica,sans-Serif" font-size="18.00">Animation::getPath</text>
</a>
</g>
</g>
<!-- Node2&#45;&gt;Node4 -->
<g id="edge3" class="edge">
<title>Node2&#45;&gt;Node4</title>
<path fill="none" stroke="midnightblue" d="M595.19,-1493.5C618.32,-1493.5 641.15,-1493.5 662.04,-1493.5"/>
<polygon fill="midnightblue" stroke="midnightblue" points="662.13,-1497 672.13,-1493.5 662.13,-1490 662.13,-1497"/>
</g>
<!-- Node6 -->
<g id="node6" class="node">
<title>Node6</title>
<g id="a_node6"><a xlink:href="../../d2/dda/_i_l_i9341__t3___e_r_i_s_8h_ae07cd862ac00b225d04bbd47df672f0b.html#ae07cd862ac00b225d04bbd47df672f0b" target="_top" xlink:title=" ">
<polygon fill="none" stroke="black" points="725,-1432.5 725,-1460.5 790,-1460.5 790,-1432.5 725,-1432.5"/>
<text text-anchor="middle" x="757.5" y="-1442.1" font-family="Helvetica,sans-Serif" font-size="18.00">_busy</text>
</a>
</g>
</g>
<!-- Node5&#45;&gt;Node6 -->
<g id="edge5" class="edge">
<title>Node5&#45;&gt;Node6</title>
<path fill="none" stroke="midnightblue" d="M508.94,-1446.5C576.99,-1446.5 663.77,-1446.5 714.43,-1446.5"/>
<polygon fill="midnightblue" stroke="midnightblue" points="714.68,-1450 724.68,-1446.5 714.68,-1443 714.68,-1450"/>
</g>
<!-- Node16 -->
<g id="node16" class="node">
<title>Node16</title>
<g id="a_node16"><a xlink:href="../../dc/d43/class_svc_data_dictionary_a3b09dc582adbb4d5c6f99f6e983a81f1.html#a3b09dc582adbb4d5c6f99f6e983a81f1" target="_top" xlink:title="create a record with ownership">
<polygon fill="none" stroke="black" points="920,-983.5 920,-1011.5 1143,-1011.5 1143,-983.5 920,-983.5"/>
<text text-anchor="middle" x="1031.5" y="-993.1" font-family="Helvetica,sans-Serif" font-size="18.00">SvcDataDictionary::create</text>
</a>
</g>
</g>
<!-- Node15&#45;&gt;Node16 -->
<g id="edge15" class="edge">
<title>Node15&#45;&gt;Node16</title>
<path fill="none" stroke="midnightblue" d="M847.19,-1026.48C874.25,-1022.2 904.17,-1017.47 931.85,-1013.1"/>
<polygon fill="midnightblue" stroke="midnightblue" points="932.6,-1016.52 941.93,-1011.5 931.51,-1009.61 932.6,-1016.52"/>
</g>
<!-- Node18 -->
<g id="node18" class="node">
<title>Node18</title>
<g id="a_node18"><a xlink:href="../../dc/d43/class_svc_data_dictionary_ae2f81369b9db1eb6558036740fb1986c.html#ae2f81369b9db1eb6558036740fb1986c" target="_top" xlink:title="hashing function used to accelerate searches">
<polygon fill="none" stroke="black" points="1193.5,-940.5 1193.5,-968.5 1406.5,-968.5 1406.5,-940.5 1193.5,-940.5"/>
<text text-anchor="middle" x="1300" y="-950.1" font-family="Helvetica,sans-Serif" font-size="18.00">SvcDataDictionary::hash</text>
</a>
</g>
</g>
<!-- Node15&#45;&gt;Node18 -->
<g id="edge18" class="edge">
<title>Node15&#45;&gt;Node18</title>
<path fill="none" stroke="midnightblue" d="M839.39,-1054.53C920.6,-1064.63 1047.11,-1069.2 1143,-1021.5 1165.32,-1010.4 1157.57,-991.22 1179,-978.5 1182.7,-976.3 1186.57,-974.31 1190.55,-972.49"/>
<polygon fill="midnightblue" stroke="midnightblue" points="1192.13,-975.62 1200.02,-968.56 1189.45,-969.15 1192.13,-975.62"/>
</g>
<!-- Node17 -->
<g id="node17" class="node">
<title>Node17</title>
<g id="a_node17"><a xlink:href="../../dc/d43/class_svc_data_dictionary_a7c7bd48b97fbcf18ef64337e12022619.html#a7c7bd48b97fbcf18ef64337e12022619" target="_top" xlink:title=" ">
<polygon fill="none" stroke="black" points="1179,-987.5 1179,-1015.5 1421,-1015.5 1421,-987.5 1179,-987.5"/>
<text text-anchor="middle" x="1300" y="-997.1" font-family="Helvetica,sans-Serif" font-size="18.00">SvcDataDictionary::copyKey</text>
</a>
</g>
</g>
<!-- Node16&#45;&gt;Node17 -->
<g id="edge16" class="edge">
<title>Node16&#45;&gt;Node17</title>
<path fill="none" stroke="midnightblue" d="M1143.2,-999.16C1151.63,-999.29 1160.19,-999.42 1168.72,-999.54"/>
<polygon fill="midnightblue" stroke="midnightblue" points="1168.68,-1003.04 1178.73,-999.69 1168.78,-996.04 1168.68,-1003.04"/>
</g>
<!-- Node16&#45;&gt;Node18 -->
<g id="edge17" class="edge">
<title>Node16&#45;&gt;Node18</title>
<path fill="none" stroke="midnightblue" d="M1119.39,-983.48C1145.91,-979.2 1175.22,-974.47 1202.34,-970.1"/>
<polygon fill="midnightblue" stroke="midnightblue" points="1202.91,-973.55 1212.22,-968.5 1201.79,-966.64 1202.91,-973.55"/>
</g>
<!-- Node29&#45;&gt;Node18 -->
<g id="edge30" class="edge">
<title>Node29&#45;&gt;Node18</title>
<path fill="none" stroke="midnightblue" d="M1112.1,-921.54C1142.68,-926.93 1177.8,-933.12 1209.27,-938.68"/>
<polygon fill="midnightblue" stroke="midnightblue" points="1208.9,-942.16 1219.35,-940.45 1210.11,-935.27 1208.9,-942.16"/>
</g>
<!-- Node36 -->
<g id="node36" class="node">
<title>Node36</title>
<g id="a_node36"><a xlink:href="../../dc/d40/_app_manager_8cpp_a01f554db1c07c31f60f5167060279699.html#a01f554db1c07c31f60f5167060279699" target="_top" xlink:title=" ">
<polygon fill="none" stroke="black" points="691.5,-932.5 691.5,-960.5 823.5,-960.5 823.5,-932.5 691.5,-932.5"/>
<text text-anchor="middle" x="757.5" y="-942.1" font-family="Helvetica,sans-Serif" font-size="18.00">set_arm_clock</text>
</a>
</g>
</g>
<!-- Node35&#45;&gt;Node36 -->
<g id="edge37" class="edge">
<title>Node35&#45;&gt;Node36</title>
<path fill="none" stroke="midnightblue" d="M556.16,-946.5C599.27,-946.5 644.65,-946.5 681.3,-946.5"/>
<polygon fill="midnightblue" stroke="midnightblue" points="681.39,-950 691.39,-946.5 681.39,-943 681.39,-950"/>
</g>
<!-- Node35&#45;&gt;Node37 -->
<g id="edge38" class="edge">
<title>Node35&#45;&gt;Node37</title>
<path fill="none" stroke="midnightblue" d="M513.14,-960.54C554.09,-966.08 601.28,-972.48 643.13,-978.15"/>
<polygon fill="midnightblue" stroke="midnightblue" points="642.71,-981.62 653.09,-979.49 643.65,-974.68 642.71,-981.62"/>
</g>
<!-- Node37&#45;&gt;Node16 -->
<g id="edge39" class="edge">
<title>Node37&#45;&gt;Node16</title>
<path fill="none" stroke="midnightblue" d="M872.67,-995.18C884.82,-995.36 897.22,-995.54 909.44,-995.72"/>
<polygon fill="midnightblue" stroke="midnightblue" points="909.62,-999.22 919.67,-995.87 909.72,-992.22 909.62,-999.22"/>
</g>
<!-- Node37&#45;&gt;Node18 -->
<g id="edge40" class="edge">
<title>Node37&#45;&gt;Node18</title>
<path fill="none" stroke="midnightblue" d="M869.61,-979.48C886.47,-977.62 903.68,-975.89 920,-974.5 1008.1,-967 1107.97,-961.87 1183.07,-958.68"/>
<polygon fill="midnightblue" stroke="midnightblue" points="1183.66,-962.16 1193.5,-958.25 1183.36,-955.17 1183.66,-962.16"/>
</g>
<!-- Node42 -->
<g id="node42" class="node">
<title>Node42</title>
<g id="a_node42"><a xlink:href="../../db/dfc/touch_8cpp_acaa1eab013111acf9a269f11a7105c1d.html#acaa1eab013111acf9a269f11a7105c1d" target="_top" xlink:title=" ">
<polygon fill="none" stroke="black" points="704,-0.5 704,-28.5 811,-28.5 811,-0.5 704,-0.5"/>
<text text-anchor="middle" x="757.5" y="-10.1" font-family="Helvetica,sans-Serif" font-size="18.00">besttwoavg</text>
</a>
</g>
</g>
<!-- Node41&#45;&gt;Node42 -->
<g id="edge45" class="edge">
<title>Node41&#45;&gt;Node42</title>
<path fill="none" stroke="midnightblue" d="M475.58,-14.5C538.32,-14.5 631.95,-14.5 693.61,-14.5"/>
<polygon fill="midnightblue" stroke="midnightblue" points="693.98,-18 703.98,-14.5 693.98,-11 693.98,-18"/>
</g>
</g>
</svg>
        <g id="navigator" transform="translate(0 0)" fill="#404254">
                <rect fill="#f2f5e9" fill-opacity="0.5" stroke="#606060" stroke-width=".5" x="0" y="0" width="60" height="60"/>
                <use id="zoomplus" xlink:href="#zoomPlus" x="17" y="9" onmousedown="handleZoom(evt,'in')"/>
                <use id="zoomminus" xlink:href="#zoomMin" x="42" y="9" onmousedown="handleZoom(evt,'out')"/>
                <use id="reset" xlink:href="#resetDef" x="30" y="36" onmousedown="handleReset()"/>
                <g id="arrowUp" xlink:href="#dirArrow" transform="translate(30 24)" onmousedown="handlePan(0,-1)">
                  <use xlink:href="#rim" fill="#404040">
                        <set attributeName="fill" to="#808080" begin="arrowUp.mouseover" end="arrowUp.mouseout"/>
                  </use>
                  <path fill="none" stroke="white" stroke-width="1.5" d="M0,-3.0v7 M-2.5,-0.5L0,-3.0L2.5,-0.5"/>
                </g>
                <g id="arrowRight" xlink:href="#dirArrow" transform="rotate(90) translate(36 -43)" onmousedown="handlePan(1,0)">
                  <use xlink:href="#rim" fill="#404040">
                        <set attributeName="fill" to="#808080" begin="arrowRight.mouseover" end="arrowRight.mouseout"/>
                  </use>
                  <path fill="none" stroke="white" stroke-width="1.5" d="M0,-3.0v7 M-2.5,-0.5L0,-3.0L2.5,-0.5"/>
                </g>
                <g id="arrowDown" xlink:href="#dirArrow" transform="rotate(180) translate(-30 -48)" onmousedown="handlePan(0,1)">
                  <use xlink:href="#rim" fill="#404040">
                        <set attributeName="fill" to="#808080" begin="arrowDown.mouseover" end="arrowDown.mouseout"/>
                  </use>
                  <path fill="none" stroke="white" stroke-width="1.5" d="M0,-3.0v7 M-2.5,-0.5L0,-3.0L2.5,-0.5"/>
                </g>
                <g id="arrowLeft" xlink:href="#dirArrow" transform="rotate(270) translate(-36 17)" onmousedown="handlePan(-1,0)">
                  <use xlink:href="#rim" fill="#404040">
                        <set attributeName="fill" to="#808080" begin="arrowLeft.mouseover" end="arrowLeft.mouseout"/>
                  </use>
                  <path fill="none" stroke="white" stroke-width="1.5" d="M0,-3.0v7 M-2.5,-0.5L0,-3.0L2.5,-0.5"/>
                </g>
        </g>
        <svg viewBox="0 0 15 15" width="100%" height="30px" preserveAspectRatio="xMaxYMin meet">
         <g id="arrow_out" transform="scale(0.3 0.3)">
          <a xlink:href="class_app_manager_ab4352bf5559866e77c333e74af7c2210_ab4352bf5559866e77c333e74af7c2210_cgraph_org.svg" target="_base">
           <rect id="button" ry="5" rx="5" y="6" x="6" height="38" width="38"
                fill="#f2f5e9" fill-opacity="0.5" stroke="#606060" stroke-width="1.0"/>
           <path id="arrow"
             d="M 11.500037,31.436501 C 11.940474,20.09759 22.043105,11.32322 32.158766,21.979434 L 37.068811,17.246167 C 37.068811,17.246167 37.088388,32 37.088388,32 L 22.160133,31.978069 C 22.160133,31.978069 26.997745,27.140456 26.997745,27.140456 C 18.528582,18.264221 13.291696,25.230495 11.500037,31.436501 z"
             style="fill:#404040;"/>
          </a>
         </g>
        </svg>
</svg>
