<?xml version="1.0" encoding="UTF-8" standalone="no"?>
<!DOCTYPE svg PUBLIC "-//W3C//DTD SVG 1.1//EN"
 "http://www.w3.org/Graphics/SVG/1.1/DTD/svg11.dtd">
<!-- Generated by graphviz version 2.47.3 (20210619.1520)
 -->
<!-- Title: StreamFile::position Pages: 1 -->
<svg width="534pt" height="43pt"
 viewBox="0.00 0.00 534.00 43.00" xmlns="http://www.w3.org/2000/svg" xmlns:xlink="http://www.w3.org/1999/xlink">
<g id="graph0" class="graph" transform="scale(1 1) rotate(0) translate(4 39)">
<title>StreamFile::position</title>
<polygon fill="white" stroke="transparent" points="-4,4 -4,-39 530,-39 530,4 -4,4"/>
<!-- Node1 -->
<g id="node1" class="node">
<title>Node1</title>
<g id="a_node1"><a xlink:title=" ">
<polygon fill="#bfbfbf" stroke="black" points="404,-7 404,-28 526,-28 526,-7 404,-7"/>
<text text-anchor="middle" x="465" y="-14.4" font-family="Helvetica,sans-Serif" font-size="12.00">StreamFile::position</text>
</a>
</g>
</g>
<!-- Node2 -->
<g id="node2" class="node">
<title>Node2</title>
<g id="a_node2"><a xlink:href="../../d2/da8/class_svc_serial_command_interface.html#add54582c8a1dae31f0d69bea84c65c84" target="_top" xlink:title=" ">
<polygon fill="white" stroke="black" points="202,-0.5 202,-34.5 368,-34.5 368,-0.5 202,-0.5"/>
<text text-anchor="start" x="210" y="-20.9" font-family="Helvetica,sans-Serif" font-size="12.00">SvcSerialCommandInterface</text>
<text text-anchor="middle" x="285" y="-7.9" font-family="Helvetica,sans-Serif" font-size="12.00">::streamHandler</text>
</a>
</g>
</g>
<!-- Node1&#45;&gt;Node2 -->
<g id="edge1" class="edge">
<title>Node1&#45;&gt;Node2</title>
<path fill="none" stroke="midnightblue" d="M393.7,-17.5C385.36,-17.5 376.79,-17.5 368.3,-17.5"/>
<polygon fill="midnightblue" stroke="midnightblue" points="393.74,-21 403.74,-17.5 393.74,-14 393.74,-21"/>
</g>
<!-- Node3 -->
<g id="node3" class="node">
<title>Node3</title>
<g id="a_node3"><a xlink:href="../../d2/da8/class_svc_serial_command_interface.html#a6d455ea6d7ca58624ccc6ce5fd43d2c5" target="_top" xlink:title=" ">
<polygon fill="white" stroke="black" points="0,-0.5 0,-34.5 166,-34.5 166,-0.5 0,-0.5"/>
<text text-anchor="start" x="8" y="-20.9" font-family="Helvetica,sans-Serif" font-size="12.00">SvcSerialCommandInterface</text>
<text text-anchor="middle" x="83" y="-7.9" font-family="Helvetica,sans-Serif" font-size="12.00">::updateRT</text>
</a>
</g>
</g>
<!-- Node2&#45;&gt;Node3 -->
<g id="edge2" class="edge">
<title>Node2&#45;&gt;Node3</title>
<path fill="none" stroke="midnightblue" d="M191.53,-17.5C183.09,-17.5 174.57,-17.5 166.22,-17.5"/>
<polygon fill="midnightblue" stroke="midnightblue" points="191.79,-21 201.79,-17.5 191.79,-14 191.79,-21"/>
</g>
</g>
</svg>
