<?xml version="1.0" encoding="UTF-8" standalone="no"?>
<!DOCTYPE svg PUBLIC "-//W3C//DTD SVG 1.1//EN"
 "http://www.w3.org/Graphics/SVG/1.1/DTD/svg11.dtd">
<!-- Generated by graphviz version 2.47.3 (20210619.1520)
 -->
<!-- Title: istream Pages: 1 -->
<svg width="253pt" height="262pt"
 viewBox="0.00 0.00 253.00 262.00" xmlns="http://www.w3.org/2000/svg" xmlns:xlink="http://www.w3.org/1999/xlink">
<g id="graph0" class="graph" transform="scale(1 1) rotate(0) translate(4 258)">
<title>istream</title>
<polygon fill="white" stroke="transparent" points="-4,4 -4,-258 249,-258 249,4 -4,4"/>
<!-- Node1 -->
<g id="node1" class="node">
<title>Node1</title>
<g id="a_node1"><a xlink:title="Input Stream.">
<polygon fill="#bfbfbf" stroke="black" points="107,-116.5 107,-137.5 163,-137.5 163,-116.5 107,-116.5"/>
<text text-anchor="middle" x="135" y="-123.9" font-family="Helvetica,sans-Serif" font-size="12.00">istream</text>
</a>
</g>
</g>
<!-- Node4 -->
<g id="node4" class="node">
<title>Node4</title>
<g id="a_node4"><a xlink:href="../../d0/d91/classibufstream.html" target="_top" xlink:title="parse a char string">
<polygon fill="white" stroke="black" points="16.5,-58.5 16.5,-79.5 87.5,-79.5 87.5,-58.5 16.5,-58.5"/>
<text text-anchor="middle" x="52" y="-65.9" font-family="Helvetica,sans-Serif" font-size="12.00">ibufstream</text>
</a>
</g>
</g>
<!-- Node1&#45;&gt;Node4 -->
<g id="edge3" class="edge">
<title>Node1&#45;&gt;Node4</title>
<path fill="none" stroke="midnightblue" d="M112.01,-110.49C97.37,-100.61 78.86,-88.12 66.29,-79.64"/>
<polygon fill="midnightblue" stroke="midnightblue" points="110.3,-113.55 120.54,-116.25 114.21,-107.75 110.3,-113.55"/>
</g>
<!-- Node6 -->
<g id="node6" class="node">
<title>Node6</title>
<g id="a_node6"><a xlink:href="../../d0/d68/classifstream.html" target="_top" xlink:title="file input stream.">
<polygon fill="white" stroke="black" points="105.5,-58.5 105.5,-79.5 164.5,-79.5 164.5,-58.5 105.5,-58.5"/>
<text text-anchor="middle" x="135" y="-65.9" font-family="Helvetica,sans-Serif" font-size="12.00">ifstream</text>
</a>
</g>
</g>
<!-- Node1&#45;&gt;Node6 -->
<g id="edge5" class="edge">
<title>Node1&#45;&gt;Node6</title>
<path fill="none" stroke="midnightblue" d="M135,-106.16C135,-97.16 135,-86.92 135,-79.64"/>
<polygon fill="midnightblue" stroke="midnightblue" points="131.5,-106.25 135,-116.25 138.5,-106.25 131.5,-106.25"/>
</g>
<!-- Node7 -->
<g id="node7" class="node">
<title>Node7</title>
<g id="a_node7"><a xlink:href="../../d1/d31/classiostream.html" target="_top" xlink:title="Input/Output stream.">
<polygon fill="white" stroke="black" points="183,-58.5 183,-79.5 245,-79.5 245,-58.5 183,-58.5"/>
<text text-anchor="middle" x="214" y="-65.9" font-family="Helvetica,sans-Serif" font-size="12.00">iostream</text>
</a>
</g>
</g>
<!-- Node1&#45;&gt;Node7 -->
<g id="edge6" class="edge">
<title>Node1&#45;&gt;Node7</title>
<path fill="none" stroke="midnightblue" d="M157.28,-110.21C171.15,-100.37 188.55,-88.04 200.4,-79.64"/>
<polygon fill="midnightblue" stroke="midnightblue" points="154.89,-107.61 148.76,-116.25 158.94,-113.32 154.89,-107.61"/>
</g>
<!-- Node2 -->
<g id="node2" class="node">
<title>Node2</title>
<g id="a_node2"><a xlink:href="../../df/d02/classios.html" target="_top" xlink:title="Error and state information for all streams.">
<polygon fill="white" stroke="black" points="119,-174.5 119,-195.5 151,-195.5 151,-174.5 119,-174.5"/>
<text text-anchor="middle" x="135" y="-181.9" font-family="Helvetica,sans-Serif" font-size="12.00">ios</text>
</a>
</g>
</g>
<!-- Node2&#45;&gt;Node1 -->
<g id="edge1" class="edge">
<title>Node2&#45;&gt;Node1</title>
<path fill="none" stroke="midnightblue" d="M135,-164.16C135,-155.16 135,-144.92 135,-137.64"/>
<polygon fill="midnightblue" stroke="midnightblue" points="131.5,-164.25 135,-174.25 138.5,-164.25 131.5,-164.25"/>
</g>
<!-- Node3 -->
<g id="node3" class="node">
<title>Node3</title>
<g id="a_node3"><a xlink:href="../../d4/dc1/classios__base.html" target="_top" xlink:title="Base class for all streams.">
<polygon fill="white" stroke="black" points="102.5,-232.5 102.5,-253.5 167.5,-253.5 167.5,-232.5 102.5,-232.5"/>
<text text-anchor="middle" x="135" y="-239.9" font-family="Helvetica,sans-Serif" font-size="12.00">ios_base</text>
</a>
</g>
</g>
<!-- Node3&#45;&gt;Node2 -->
<g id="edge2" class="edge">
<title>Node3&#45;&gt;Node2</title>
<path fill="none" stroke="midnightblue" d="M135,-222.16C135,-213.16 135,-202.92 135,-195.64"/>
<polygon fill="midnightblue" stroke="midnightblue" points="131.5,-222.25 135,-232.25 138.5,-222.25 131.5,-222.25"/>
</g>
<!-- Node5 -->
<g id="node5" class="node">
<title>Node5</title>
<g id="a_node5"><a xlink:href="../../d2/d74/class_arduino_in_stream.html" target="_top" xlink:title="Input stream for Arduino Stream objects.">
<polygon fill="white" stroke="black" points="0,-0.5 0,-21.5 104,-21.5 104,-0.5 0,-0.5"/>
<text text-anchor="middle" x="52" y="-7.9" font-family="Helvetica,sans-Serif" font-size="12.00">ArduinoInStream</text>
</a>
</g>
</g>
<!-- Node4&#45;&gt;Node5 -->
<g id="edge4" class="edge">
<title>Node4&#45;&gt;Node5</title>
<path fill="none" stroke="midnightblue" d="M52,-48.16C52,-39.16 52,-28.92 52,-21.64"/>
<polygon fill="midnightblue" stroke="midnightblue" points="48.5,-48.25 52,-58.25 55.5,-48.25 48.5,-48.25"/>
</g>
<!-- Node8 -->
<g id="node8" class="node">
<title>Node8</title>
<g id="a_node8"><a xlink:href="../../d7/df9/classfstream.html" target="_top" xlink:title="file input/output stream.">
<polygon fill="white" stroke="black" points="186,-0.5 186,-21.5 242,-21.5 242,-0.5 186,-0.5"/>
<text text-anchor="middle" x="214" y="-7.9" font-family="Helvetica,sans-Serif" font-size="12.00">fstream</text>
</a>
</g>
</g>
<!-- Node7&#45;&gt;Node8 -->
<g id="edge7" class="edge">
<title>Node7&#45;&gt;Node8</title>
<path fill="none" stroke="midnightblue" d="M214,-48.16C214,-39.16 214,-28.92 214,-21.64"/>
<polygon fill="midnightblue" stroke="midnightblue" points="210.5,-48.25 214,-58.25 217.5,-48.25 210.5,-48.25"/>
</g>
</g>
</svg>
