<?xml version="1.0" encoding="UTF-8" standalone="no"?>
<!DOCTYPE svg PUBLIC "-//W3C//DTD SVG 1.1//EN"
 "http://www.w3.org/Graphics/SVG/1.1/DTD/svg11.dtd">
<!-- Generated by graphviz version 2.47.3 (20210619.1520)
 -->
<!-- Title: fstream Pages: 1 -->
<svg width="273pt" height="262pt"
 viewBox="0.00 0.00 273.00 262.00" xmlns="http://www.w3.org/2000/svg" xmlns:xlink="http://www.w3.org/1999/xlink">
<g id="graph0" class="graph" transform="scale(1 1) rotate(0) translate(4 258)">
<title>fstream</title>
<polygon fill="white" stroke="transparent" points="-4,4 -4,-258 269,-258 269,4 -4,4"/>
<!-- Node1 -->
<g id="node1" class="node">
<title>Node1</title>
<g id="a_node1"><a xlink:title="file input/output stream.">
<polygon fill="#bfbfbf" stroke="black" points="79.5,-0.5 79.5,-21.5 135.5,-21.5 135.5,-0.5 79.5,-0.5"/>
<text text-anchor="middle" x="107.5" y="-7.9" font-family="Helvetica,sans-Serif" font-size="12.00">fstream</text>
</a>
</g>
</g>
<!-- Node2 -->
<g id="node2" class="node">
<title>Node2</title>
<g id="a_node2"><a xlink:href="../../d1/d31/classiostream.html" target="_top" xlink:title="Input/Output stream.">
<polygon fill="white" stroke="black" points="128.5,-58.5 128.5,-79.5 190.5,-79.5 190.5,-58.5 128.5,-58.5"/>
<text text-anchor="middle" x="159.5" y="-65.9" font-family="Helvetica,sans-Serif" font-size="12.00">iostream</text>
</a>
</g>
</g>
<!-- Node2&#45;&gt;Node1 -->
<g id="edge1" class="edge">
<title>Node2&#45;&gt;Node1</title>
<path fill="none" stroke="midnightblue" d="M143.52,-50.79C134.62,-41.21 123.88,-29.64 116.45,-21.64"/>
<polygon fill="midnightblue" stroke="midnightblue" points="141.07,-53.3 150.44,-58.25 146.2,-48.54 141.07,-53.3"/>
</g>
<!-- Node3 -->
<g id="node3" class="node">
<title>Node3</title>
<g id="a_node3"><a xlink:href="../../d4/d07/classistream.html" target="_top" xlink:title="Input Stream.">
<polygon fill="white" stroke="black" points="131.5,-116.5 131.5,-137.5 187.5,-137.5 187.5,-116.5 131.5,-116.5"/>
<text text-anchor="middle" x="159.5" y="-123.9" font-family="Helvetica,sans-Serif" font-size="12.00">istream</text>
</a>
</g>
</g>
<!-- Node3&#45;&gt;Node2 -->
<g id="edge2" class="edge">
<title>Node3&#45;&gt;Node2</title>
<path fill="none" stroke="midnightblue" d="M159.5,-106.16C159.5,-97.16 159.5,-86.92 159.5,-79.64"/>
<polygon fill="midnightblue" stroke="midnightblue" points="156,-106.25 159.5,-116.25 163,-106.25 156,-106.25"/>
</g>
<!-- Node4 -->
<g id="node4" class="node">
<title>Node4</title>
<g id="a_node4"><a xlink:href="../../df/d02/classios.html" target="_top" xlink:title="Error and state information for all streams.">
<polygon fill="white" stroke="black" points="143.5,-174.5 143.5,-195.5 175.5,-195.5 175.5,-174.5 143.5,-174.5"/>
<text text-anchor="middle" x="159.5" y="-181.9" font-family="Helvetica,sans-Serif" font-size="12.00">ios</text>
</a>
</g>
</g>
<!-- Node4&#45;&gt;Node3 -->
<g id="edge3" class="edge">
<title>Node4&#45;&gt;Node3</title>
<path fill="none" stroke="midnightblue" d="M159.5,-164.16C159.5,-155.16 159.5,-144.92 159.5,-137.64"/>
<polygon fill="midnightblue" stroke="midnightblue" points="156,-164.25 159.5,-174.25 163,-164.25 156,-164.25"/>
</g>
<!-- Node6 -->
<g id="node6" class="node">
<title>Node6</title>
<g id="a_node6"><a xlink:href="../../d0/d43/classostream.html" target="_top" xlink:title="Output Stream.">
<polygon fill="white" stroke="black" points="206,-116.5 206,-137.5 265,-137.5 265,-116.5 206,-116.5"/>
<text text-anchor="middle" x="235.5" y="-123.9" font-family="Helvetica,sans-Serif" font-size="12.00">ostream</text>
</a>
</g>
</g>
<!-- Node4&#45;&gt;Node6 -->
<g id="edge6" class="edge">
<title>Node4&#45;&gt;Node6</title>
<path fill="none" stroke="midnightblue" d="M180.93,-168.21C194.28,-158.37 211.02,-146.04 222.41,-137.64"/>
<polygon fill="midnightblue" stroke="midnightblue" points="178.71,-165.5 172.74,-174.25 182.86,-171.13 178.71,-165.5"/>
</g>
<!-- Node7 -->
<g id="node7" class="node">
<title>Node7</title>
<g id="a_node7"><a xlink:href="../../d3/dc7/class_stream_base_class.html" target="_top" xlink:title="base type for FAT and exFAT streams">
<polygon fill="white" stroke="black" points="0,-116.5 0,-137.5 113,-137.5 113,-116.5 0,-116.5"/>
<text text-anchor="middle" x="56.5" y="-123.9" font-family="Helvetica,sans-Serif" font-size="12.00">StreamBaseClass</text>
</a>
</g>
</g>
<!-- Node4&#45;&gt;Node7 -->
<g id="edge9" class="edge">
<title>Node4&#45;&gt;Node7</title>
<path fill="none" stroke="midnightblue" d="M134.57,-170.45C115.91,-160.3 90.85,-146.67 74.21,-137.63"/>
<polygon fill="midnightblue" stroke="midnightblue" points="132.95,-173.55 143.41,-175.25 136.29,-167.4 132.95,-173.55"/>
</g>
<!-- Node5 -->
<g id="node5" class="node">
<title>Node5</title>
<g id="a_node5"><a xlink:href="../../d4/dc1/classios__base.html" target="_top" xlink:title="Base class for all streams.">
<polygon fill="white" stroke="black" points="127,-232.5 127,-253.5 192,-253.5 192,-232.5 127,-232.5"/>
<text text-anchor="middle" x="159.5" y="-239.9" font-family="Helvetica,sans-Serif" font-size="12.00">ios_base</text>
</a>
</g>
</g>
<!-- Node5&#45;&gt;Node4 -->
<g id="edge4" class="edge">
<title>Node5&#45;&gt;Node4</title>
<path fill="none" stroke="midnightblue" d="M159.5,-222.16C159.5,-213.16 159.5,-202.92 159.5,-195.64"/>
<polygon fill="midnightblue" stroke="midnightblue" points="156,-222.25 159.5,-232.25 163,-222.25 156,-222.25"/>
</g>
<!-- Node6&#45;&gt;Node2 -->
<g id="edge5" class="edge">
<title>Node6&#45;&gt;Node2</title>
<path fill="none" stroke="midnightblue" d="M214.07,-110.21C200.72,-100.37 183.98,-88.04 172.59,-79.64"/>
<polygon fill="midnightblue" stroke="midnightblue" points="212.14,-113.13 222.26,-116.25 216.29,-107.5 212.14,-113.13"/>
</g>
<!-- Node7&#45;&gt;Node1 -->
<g id="edge7" class="edge">
<title>Node7&#45;&gt;Node1</title>
<path fill="none" stroke="#8b1a1a" d="M65.04,-106.91C76.04,-82.33 94.74,-40.52 103.16,-21.69"/>
<polygon fill="#8b1a1a" stroke="#8b1a1a" points="61.74,-105.72 60.85,-116.28 68.13,-108.58 61.74,-105.72"/>
</g>
<!-- Node8 -->
<g id="node8" class="node">
<title>Node8</title>
<g id="a_node8"><a xlink:title=" ">
<polygon fill="white" stroke="#bfbfbf" points="5.5,-174.5 5.5,-195.5 107.5,-195.5 107.5,-174.5 5.5,-174.5"/>
<text text-anchor="middle" x="56.5" y="-181.9" font-family="Helvetica,sans-Serif" font-size="12.00">StreamBaseFile</text>
</a>
</g>
</g>
<!-- Node8&#45;&gt;Node7 -->
<g id="edge8" class="edge">
<title>Node8&#45;&gt;Node7</title>
<path fill="none" stroke="darkgreen" d="M56.5,-164.16C56.5,-155.16 56.5,-144.92 56.5,-137.64"/>
<polygon fill="darkgreen" stroke="darkgreen" points="53,-164.25 56.5,-174.25 60,-164.25 53,-164.25"/>
</g>
</g>
</svg>
