<?xml version="1.0" encoding="UTF-8" standalone="no"?>
<!DOCTYPE svg PUBLIC "-//W3C//DTD SVG 1.1//EN"
 "http://www.w3.org/Graphics/SVG/1.1/DTD/svg11.dtd">
<!-- Generated by graphviz version 2.47.3 (20210619.1520)
 -->
<!-- Title: SdSpiCard.h Pages: 1 -->
<svg width="491pt" height="494pt"
 viewBox="0.00 0.00 490.50 494.00" xmlns="http://www.w3.org/2000/svg" xmlns:xlink="http://www.w3.org/1999/xlink">
<g id="graph0" class="graph" transform="scale(1 1) rotate(0) translate(4 490)">
<title>SdSpiCard.h</title>
<polygon fill="white" stroke="transparent" points="-4,4 -4,-490 486.5,-490 486.5,4 -4,4"/>
<!-- Node1 -->
<g id="node1" class="node">
<title>Node1</title>
<g id="a_node1"><a xlink:title="SdSpiCard class for V2 SD/SDHC cards.">
<polygon fill="#bfbfbf" stroke="black" points="80.5,-464.5 80.5,-485.5 165.5,-485.5 165.5,-464.5 80.5,-464.5"/>
<text text-anchor="middle" x="123" y="-471.9" font-family="Helvetica,sans-Serif" font-size="12.00">SdSpiCard.h</text>
</a>
</g>
</g>
<!-- Node2 -->
<g id="node2" class="node">
<title>Node2</title>
<g id="a_node2"><a xlink:href="../../db/d31/_sd_card_8h.html" target="_top" xlink:title=" ">
<polygon fill="white" stroke="black" points="39.5,-406.5 39.5,-427.5 106.5,-427.5 106.5,-406.5 39.5,-406.5"/>
<text text-anchor="middle" x="73" y="-413.9" font-family="Helvetica,sans-Serif" font-size="12.00">SdCard.h</text>
</a>
</g>
</g>
<!-- Node1&#45;&gt;Node2 -->
<g id="edge1" class="edge">
<title>Node1&#45;&gt;Node2</title>
<path fill="none" stroke="midnightblue" d="M107.38,-456.5C98.87,-446.98 88.68,-435.56 81.61,-427.64"/>
<polygon fill="midnightblue" stroke="midnightblue" points="105.02,-459.12 114.29,-464.25 110.24,-454.46 105.02,-459.12"/>
</g>
<!-- Node74 -->
<g id="node17" class="node">
<title>Node74</title>
<g id="a_node17"><a xlink:href="../../d0/d78/_sd_spi_card_8cpp.html" target="_top" xlink:title=" ">
<polygon fill="white" stroke="black" points="125,-406.5 125,-427.5 223,-427.5 223,-406.5 125,-406.5"/>
<text text-anchor="middle" x="174" y="-413.9" font-family="Helvetica,sans-Serif" font-size="12.00">SdSpiCard.cpp</text>
</a>
</g>
</g>
<!-- Node1&#45;&gt;Node74 -->
<g id="edge22" class="edge">
<title>Node1&#45;&gt;Node74</title>
<path fill="none" stroke="midnightblue" d="M138.67,-456.79C147.4,-447.21 157.94,-435.64 165.22,-427.64"/>
<polygon fill="midnightblue" stroke="midnightblue" points="136.03,-454.5 131.88,-464.25 141.2,-459.21 136.03,-454.5"/>
</g>
<!-- Node3 -->
<g id="node3" class="node">
<title>Node3</title>
<g id="a_node3"><a xlink:href="../../d7/df6/_block_device_8h.html" target="_top" xlink:title=" ">
<polygon fill="white" stroke="black" points="152,-348.5 152,-369.5 244,-369.5 244,-348.5 152,-348.5"/>
<text text-anchor="middle" x="198" y="-355.9" font-family="Helvetica,sans-Serif" font-size="12.00">BlockDevice.h</text>
</a>
</g>
</g>
<!-- Node2&#45;&gt;Node3 -->
<g id="edge2" class="edge">
<title>Node2&#45;&gt;Node3</title>
<path fill="none" stroke="midnightblue" d="M103.7,-402.25C126.4,-392.08 156.73,-378.49 176.79,-369.5"/>
<polygon fill="midnightblue" stroke="midnightblue" points="102.18,-399.09 94.49,-406.37 105.05,-405.48 102.18,-399.09"/>
</g>
<!-- Node35 -->
<g id="node10" class="node">
<title>Node35</title>
<g id="a_node10"><a xlink:href="../../d5/ddc/_sd_fat_8h.html" target="_top" xlink:title="main SdFs include file.">
<polygon fill="white" stroke="red" points="153,-0.5 153,-21.5 211,-21.5 211,-0.5 153,-0.5"/>
<text text-anchor="middle" x="182" y="-7.9" font-family="Helvetica,sans-Serif" font-size="12.00">SdFat.h</text>
</a>
</g>
</g>
<!-- Node2&#45;&gt;Node35 -->
<g id="edge21" class="edge">
<title>Node2&#45;&gt;Node35</title>
<path fill="none" stroke="midnightblue" d="M53.86,-399.61C32.23,-379.16 0,-341.98 0,-302 0,-302 0,-302 0,-126 0,-54.79 101.31,-26.38 152.76,-16.54"/>
<polygon fill="midnightblue" stroke="midnightblue" points="51.52,-402.22 61.27,-406.37 56.24,-397.04 51.52,-402.22"/>
</g>
<!-- Node4 -->
<g id="node4" class="node">
<title>Node4</title>
<g id="a_node4"><a xlink:href="../../d1/d0d/_fs_cache_8h.html" target="_top" xlink:title="Common cache code for exFAT and FAT.">
<polygon fill="white" stroke="black" points="110,-290.5 110,-311.5 184,-311.5 184,-290.5 110,-290.5"/>
<text text-anchor="middle" x="147" y="-297.9" font-family="Helvetica,sans-Serif" font-size="12.00">FsCache.h</text>
</a>
</g>
</g>
<!-- Node3&#45;&gt;Node4 -->
<g id="edge3" class="edge">
<title>Node3&#45;&gt;Node4</title>
<path fill="none" stroke="midnightblue" d="M182.33,-340.79C173.6,-331.21 163.06,-319.64 155.78,-311.64"/>
<polygon fill="midnightblue" stroke="midnightblue" points="179.8,-343.21 189.12,-348.25 184.97,-338.5 179.8,-343.21"/>
</g>
<!-- Node6 -->
<g id="node6" class="node">
<title>Node6</title>
<g id="a_node6"><a xlink:href="../../d7/dc8/_ex_fat_partition_8h.html" target="_top" xlink:title="ExFatPartition include file.">
<polygon fill="white" stroke="black" points="276,-232.5 276,-253.5 376,-253.5 376,-232.5 276,-232.5"/>
<text text-anchor="middle" x="326" y="-239.9" font-family="Helvetica,sans-Serif" font-size="12.00">ExFatPartition.h</text>
</a>
</g>
</g>
<!-- Node3&#45;&gt;Node6 -->
<g id="edge17" class="edge">
<title>Node3&#45;&gt;Node6</title>
<path fill="none" stroke="midnightblue" d="M251.3,-345.22C270.5,-338.24 290.89,-327.7 305,-312 320.03,-295.28 324.3,-267.96 325.52,-253.57"/>
<polygon fill="midnightblue" stroke="midnightblue" points="250.06,-341.95 241.7,-348.46 252.3,-348.58 250.06,-341.95"/>
</g>
<!-- Node59 -->
<g id="node11" class="node">
<title>Node59</title>
<g id="a_node11"><a xlink:href="../../db/dd3/_fat_partition_8h.html" target="_top" xlink:title="FatPartition class.">
<polygon fill="white" stroke="black" points="28,-232.5 28,-253.5 114,-253.5 114,-232.5 28,-232.5"/>
<text text-anchor="middle" x="71" y="-239.9" font-family="Helvetica,sans-Serif" font-size="12.00">FatPartition.h</text>
</a>
</g>
</g>
<!-- Node3&#45;&gt;Node59 -->
<g id="edge20" class="edge">
<title>Node3&#45;&gt;Node59</title>
<path fill="none" stroke="midnightblue" d="M154.47,-344.99C136.09,-337.71 115.61,-327.02 101,-312 84.62,-295.17 76.37,-267.9 72.97,-253.54"/>
<polygon fill="midnightblue" stroke="midnightblue" points="153.26,-348.27 163.85,-348.49 155.7,-341.71 153.26,-348.27"/>
</g>
<!-- Node72 -->
<g id="node15" class="node">
<title>Node72</title>
<g id="a_node15"><a xlink:href="../../d8/d58/_ex_fat_formatter_8h.html" target="_top" xlink:title=" ">
<polygon fill="white" stroke="black" points="375.5,-174.5 375.5,-195.5 482.5,-195.5 482.5,-174.5 375.5,-174.5"/>
<text text-anchor="middle" x="429" y="-181.9" font-family="Helvetica,sans-Serif" font-size="12.00">ExFatFormatter.h</text>
</a>
</g>
</g>
<!-- Node3&#45;&gt;Node72 -->
<g id="edge15" class="edge">
<title>Node3&#45;&gt;Node72</title>
<path fill="none" stroke="midnightblue" d="M247.69,-345.6C272.4,-338.12 302.01,-327.07 326,-312 374.81,-281.34 411.23,-219.53 424.02,-195.69"/>
<polygon fill="midnightblue" stroke="midnightblue" points="246.41,-342.33 237.79,-348.5 248.37,-349.05 246.41,-342.33"/>
</g>
<!-- Node73 -->
<g id="node16" class="node">
<title>Node73</title>
<g id="a_node16"><a xlink:href="../../d8/d20/_fat_formatter_8h.html" target="_top" xlink:title=" ">
<polygon fill="white" stroke="black" points="202,-290.5 202,-311.5 296,-311.5 296,-290.5 202,-290.5"/>
<text text-anchor="middle" x="249" y="-297.9" font-family="Helvetica,sans-Serif" font-size="12.00">FatFormatter.h</text>
</a>
</g>
</g>
<!-- Node3&#45;&gt;Node73 -->
<g id="edge18" class="edge">
<title>Node3&#45;&gt;Node73</title>
<path fill="none" stroke="midnightblue" d="M213.67,-340.79C222.4,-331.21 232.94,-319.64 240.22,-311.64"/>
<polygon fill="midnightblue" stroke="midnightblue" points="211.03,-338.5 206.88,-348.25 216.2,-343.21 211.03,-338.5"/>
</g>
<!-- Node5 -->
<g id="node5" class="node">
<title>Node5</title>
<g id="a_node5"><a xlink:href="../../d0/d75/_fs_cache_8cpp.html" target="_top" xlink:title=" ">
<polygon fill="white" stroke="black" points="132.5,-232.5 132.5,-253.5 219.5,-253.5 219.5,-232.5 132.5,-232.5"/>
<text text-anchor="middle" x="176" y="-239.9" font-family="Helvetica,sans-Serif" font-size="12.00">FsCache.cpp</text>
</a>
</g>
</g>
<!-- Node4&#45;&gt;Node5 -->
<g id="edge4" class="edge">
<title>Node4&#45;&gt;Node5</title>
<path fill="none" stroke="midnightblue" d="M156.66,-281.34C161.47,-272.06 167.07,-261.24 171.01,-253.64"/>
<polygon fill="midnightblue" stroke="midnightblue" points="153.54,-279.76 152.05,-290.25 159.76,-282.98 153.54,-279.76"/>
</g>
<!-- Node4&#45;&gt;Node6 -->
<g id="edge5" class="edge">
<title>Node4&#45;&gt;Node6</title>
<path fill="none" stroke="midnightblue" d="M187.52,-287.32C220.35,-277.05 265.88,-262.81 295.63,-253.5"/>
<polygon fill="midnightblue" stroke="midnightblue" points="186.27,-284.05 177.77,-290.37 188.36,-290.73 186.27,-284.05"/>
</g>
<!-- Node4&#45;&gt;Node59 -->
<g id="edge10" class="edge">
<title>Node4&#45;&gt;Node59</title>
<path fill="none" stroke="midnightblue" d="M125.57,-284.21C112.22,-274.37 95.48,-262.04 84.09,-253.64"/>
<polygon fill="midnightblue" stroke="midnightblue" points="123.64,-287.13 133.76,-290.25 127.79,-281.5 123.64,-287.13"/>
</g>
<!-- Node7 -->
<g id="node7" class="node">
<title>Node7</title>
<g id="a_node7"><a xlink:href="../../dd/ddc/_ex_fat_file_8h.html" target="_top" xlink:title="ExFatFile class.">
<polygon fill="white" stroke="black" points="281,-174.5 281,-195.5 357,-195.5 357,-174.5 281,-174.5"/>
<text text-anchor="middle" x="319" y="-181.9" font-family="Helvetica,sans-Serif" font-size="12.00">ExFatFile.h</text>
</a>
</g>
</g>
<!-- Node6&#45;&gt;Node7 -->
<g id="edge6" class="edge">
<title>Node6&#45;&gt;Node7</title>
<path fill="none" stroke="midnightblue" d="M323.52,-222.16C322.39,-213.16 321.11,-202.92 320.21,-195.64"/>
<polygon fill="midnightblue" stroke="midnightblue" points="320.07,-222.76 324.78,-232.25 327.01,-221.89 320.07,-222.76"/>
</g>
<!-- Node8 -->
<g id="node8" class="node">
<title>Node8</title>
<g id="a_node8"><a xlink:href="../../d6/d68/_ex_fat_volume_8h.html" target="_top" xlink:title=" ">
<polygon fill="white" stroke="red" points="276,-116.5 276,-137.5 372,-137.5 372,-116.5 276,-116.5"/>
<text text-anchor="middle" x="324" y="-123.9" font-family="Helvetica,sans-Serif" font-size="12.00">ExFatVolume.h</text>
</a>
</g>
</g>
<!-- Node7&#45;&gt;Node8 -->
<g id="edge7" class="edge">
<title>Node7&#45;&gt;Node8</title>
<path fill="none" stroke="midnightblue" d="M320.77,-164.16C321.58,-155.16 322.49,-144.92 323.14,-137.64"/>
<polygon fill="midnightblue" stroke="midnightblue" points="317.27,-163.97 319.87,-174.25 324.25,-164.6 317.27,-163.97"/>
</g>
<!-- Node9 -->
<g id="node9" class="node">
<title>Node9</title>
<g id="a_node9"><a xlink:href="../../d8/d23/_ex_fat_lib_8h.html" target="_top" xlink:title=" ">
<polygon fill="white" stroke="red" points="287.5,-58.5 287.5,-79.5 360.5,-79.5 360.5,-58.5 287.5,-58.5"/>
<text text-anchor="middle" x="324" y="-65.9" font-family="Helvetica,sans-Serif" font-size="12.00">ExFatLib.h</text>
</a>
</g>
</g>
<!-- Node8&#45;&gt;Node9 -->
<g id="edge8" class="edge">
<title>Node8&#45;&gt;Node9</title>
<path fill="none" stroke="midnightblue" d="M324,-106.16C324,-97.16 324,-86.92 324,-79.64"/>
<polygon fill="midnightblue" stroke="midnightblue" points="320.5,-106.25 324,-116.25 327.5,-106.25 320.5,-106.25"/>
</g>
<!-- Node9&#45;&gt;Node35 -->
<g id="edge9" class="edge">
<title>Node9&#45;&gt;Node35</title>
<path fill="none" stroke="midnightblue" d="M290.16,-54.65C264.26,-44.44 229.19,-30.61 206.09,-21.5"/>
<polygon fill="midnightblue" stroke="midnightblue" points="289,-57.96 299.59,-58.37 291.57,-51.45 289,-57.96"/>
</g>
<!-- Node60 -->
<g id="node12" class="node">
<title>Node60</title>
<g id="a_node12"><a xlink:href="../../d6/d7b/_fat_file_8h.html" target="_top" xlink:title="FatFile class.">
<polygon fill="white" stroke="black" points="67,-174.5 67,-195.5 129,-195.5 129,-174.5 67,-174.5"/>
<text text-anchor="middle" x="98" y="-181.9" font-family="Helvetica,sans-Serif" font-size="12.00">FatFile.h</text>
</a>
</g>
</g>
<!-- Node59&#45;&gt;Node60 -->
<g id="edge11" class="edge">
<title>Node59&#45;&gt;Node60</title>
<path fill="none" stroke="midnightblue" d="M80.14,-223.04C84.58,-213.83 89.73,-203.16 93.35,-195.64"/>
<polygon fill="midnightblue" stroke="midnightblue" points="76.89,-221.72 75.7,-232.25 83.2,-224.76 76.89,-221.72"/>
</g>
<!-- Node61 -->
<g id="node13" class="node">
<title>Node61</title>
<g id="a_node13"><a xlink:href="../../da/d0b/_fat_volume_8h.html" target="_top" xlink:title="FatVolume class.">
<polygon fill="white" stroke="black" points="83.5,-116.5 83.5,-137.5 166.5,-137.5 166.5,-116.5 83.5,-116.5"/>
<text text-anchor="middle" x="125" y="-123.9" font-family="Helvetica,sans-Serif" font-size="12.00">FatVolume.h</text>
</a>
</g>
</g>
<!-- Node60&#45;&gt;Node61 -->
<g id="edge12" class="edge">
<title>Node60&#45;&gt;Node61</title>
<path fill="none" stroke="midnightblue" d="M107.14,-165.04C111.58,-155.83 116.73,-145.16 120.35,-137.64"/>
<polygon fill="midnightblue" stroke="midnightblue" points="103.89,-163.72 102.7,-174.25 110.2,-166.76 103.89,-163.72"/>
</g>
<!-- Node62 -->
<g id="node14" class="node">
<title>Node62</title>
<g id="a_node14"><a xlink:href="../../de/dfa/_fat_lib_8h.html" target="_top" xlink:title=" ">
<polygon fill="white" stroke="red" points="152.5,-58.5 152.5,-79.5 211.5,-79.5 211.5,-58.5 152.5,-58.5"/>
<text text-anchor="middle" x="182" y="-65.9" font-family="Helvetica,sans-Serif" font-size="12.00">FatLib.h</text>
</a>
</g>
</g>
<!-- Node61&#45;&gt;Node62 -->
<g id="edge13" class="edge">
<title>Node61&#45;&gt;Node62</title>
<path fill="none" stroke="midnightblue" d="M142.23,-109.08C152.03,-99.44 163.96,-87.72 172.19,-79.64"/>
<polygon fill="midnightblue" stroke="midnightblue" points="139.61,-106.74 134.93,-116.25 144.51,-111.73 139.61,-106.74"/>
</g>
<!-- Node62&#45;&gt;Node35 -->
<g id="edge14" class="edge">
<title>Node62&#45;&gt;Node35</title>
<path fill="none" stroke="midnightblue" d="M182,-48.16C182,-39.16 182,-28.92 182,-21.64"/>
<polygon fill="midnightblue" stroke="midnightblue" points="178.5,-48.25 182,-58.25 185.5,-48.25 178.5,-48.25"/>
</g>
<!-- Node72&#45;&gt;Node9 -->
<g id="edge16" class="edge">
<title>Node72&#45;&gt;Node9</title>
<path fill="none" stroke="midnightblue" d="M417.77,-165.24C408.76,-150.97 395.29,-131.25 381,-116 367.78,-101.9 350.16,-88.33 338.03,-79.63"/>
<polygon fill="midnightblue" stroke="midnightblue" points="415.02,-167.46 423.25,-174.13 420.98,-163.79 415.02,-167.46"/>
</g>
<!-- Node73&#45;&gt;Node62 -->
<g id="edge19" class="edge">
<title>Node73&#45;&gt;Node62</title>
<path fill="none" stroke="midnightblue" d="M243.33,-280.53C229.59,-233.37 194.91,-114.33 184.81,-79.63"/>
<polygon fill="midnightblue" stroke="midnightblue" points="240.05,-281.79 246.21,-290.41 246.77,-279.83 240.05,-281.79"/>
</g>
</g>
</svg>
