<?xml version="1.0" encoding="UTF-8" standalone="no"?>
<!DOCTYPE svg PUBLIC "-//W3C//DTD SVG 1.1//EN"
 "http://www.w3.org/Graphics/SVG/1.1/DTD/svg11.dtd">
<!-- Generated by graphviz version 2.47.3 (20210619.1520)
 -->
<!-- Title: D:/brian/Dev/Eris/ERISCore/lib/Audio/eris_analyze_fft1024.h Pages: 1 -->
<svg width="623pt" height="172pt"
 viewBox="0.00 0.00 623.00 172.00" xmlns="http://www.w3.org/2000/svg" xmlns:xlink="http://www.w3.org/1999/xlink">
<g id="graph0" class="graph" transform="scale(1 1) rotate(0) translate(4 168)">
<title>D:/brian/Dev/Eris/ERISCore/lib/Audio/eris_analyze_fft1024.h</title>
<polygon fill="white" stroke="transparent" points="-4,4 -4,-168 619,-168 619,4 -4,4"/>
<!-- Node1 -->
<g id="node1" class="node">
<title>Node1</title>
<g id="a_node1"><a xlink:title=" ">
<polygon fill="#bfbfbf" stroke="black" points="211,-116.5 211,-163.5 373,-163.5 373,-116.5 211,-116.5"/>
<text text-anchor="start" x="219" y="-149.9" font-family="Helvetica,sans-Serif" font-size="12.00">D:/brian/Dev/Eris/ERISCore</text>
<text text-anchor="start" x="219" y="-136.9" font-family="Helvetica,sans-Serif" font-size="12.00">/lib/Audio/eris_analyze</text>
<text text-anchor="middle" x="292" y="-123.9" font-family="Helvetica,sans-Serif" font-size="12.00">_fft1024.h</text>
</a>
</g>
</g>
<!-- Node2 -->
<g id="node2" class="node">
<title>Node2</title>
<g id="a_node2"><a xlink:title=" ">
<polygon fill="white" stroke="#bfbfbf" points="0,-58.5 0,-79.5 66,-79.5 66,-58.5 0,-58.5"/>
<text text-anchor="middle" x="33" y="-65.9" font-family="Helvetica,sans-Serif" font-size="12.00">Arduino.h</text>
</a>
</g>
</g>
<!-- Node1&#45;&gt;Node2 -->
<g id="edge1" class="edge">
<title>Node1&#45;&gt;Node2</title>
<path fill="none" stroke="midnightblue" d="M210.76,-117.36C166.15,-105.47 112.62,-91.21 76.04,-81.46"/>
<polygon fill="midnightblue" stroke="midnightblue" points="76.75,-78.03 66.19,-78.84 74.95,-84.8 76.75,-78.03"/>
</g>
<!-- Node3 -->
<g id="node3" class="node">
<title>Node3</title>
<g id="a_node3"><a xlink:href="../../df/d6c/_audio_stream_8h.html" target="_top" xlink:title=" ">
<polygon fill="white" stroke="black" points="84.5,-58.5 84.5,-79.5 179.5,-79.5 179.5,-58.5 84.5,-58.5"/>
<text text-anchor="middle" x="132" y="-65.9" font-family="Helvetica,sans-Serif" font-size="12.00">AudioStream.h</text>
</a>
</g>
</g>
<!-- Node1&#45;&gt;Node3 -->
<g id="edge2" class="edge">
<title>Node1&#45;&gt;Node3</title>
<path fill="none" stroke="midnightblue" d="M239.61,-116.41C214.48,-105.57 185.2,-92.94 163.53,-83.6"/>
<polygon fill="midnightblue" stroke="midnightblue" points="164.73,-80.3 154.16,-79.56 161.95,-86.73 164.73,-80.3"/>
</g>
<!-- Node6 -->
<g id="node6" class="node">
<title>Node6</title>
<g id="a_node6"><a xlink:title=" ">
<polygon fill="white" stroke="#bfbfbf" points="198,-58.5 198,-79.5 276,-79.5 276,-58.5 198,-58.5"/>
<text text-anchor="middle" x="237" y="-65.9" font-family="Helvetica,sans-Serif" font-size="12.00">arm_math.h</text>
</a>
</g>
</g>
<!-- Node1&#45;&gt;Node6 -->
<g id="edge5" class="edge">
<title>Node1&#45;&gt;Node6</title>
<path fill="none" stroke="midnightblue" d="M273.99,-116.41C266.57,-107.09 258.09,-96.46 251.12,-87.72"/>
<polygon fill="midnightblue" stroke="midnightblue" points="253.73,-85.37 244.76,-79.74 248.26,-89.74 253.73,-85.37"/>
</g>
<!-- Node7 -->
<g id="node7" class="node">
<title>Node7</title>
<g id="a_node7"><a xlink:title=" ">
<polygon fill="white" stroke="#bfbfbf" points="294.5,-58.5 294.5,-79.5 401.5,-79.5 401.5,-58.5 294.5,-58.5"/>
<text text-anchor="middle" x="348" y="-65.9" font-family="Helvetica,sans-Serif" font-size="12.00">analyze_fft1024.h</text>
</a>
</g>
</g>
<!-- Node1&#45;&gt;Node7 -->
<g id="edge6" class="edge">
<title>Node1&#45;&gt;Node7</title>
<path fill="none" stroke="midnightblue" d="M310.34,-116.41C317.9,-107.09 326.53,-96.46 333.62,-87.72"/>
<polygon fill="midnightblue" stroke="midnightblue" points="336.51,-89.71 340.1,-79.74 331.08,-85.29 336.51,-89.71"/>
</g>
<!-- Node8 -->
<g id="node8" class="node">
<title>Node8</title>
<g id="a_node8"><a xlink:title=" ">
<polygon fill="white" stroke="#bfbfbf" points="419.5,-58.5 419.5,-79.5 472.5,-79.5 472.5,-58.5 419.5,-58.5"/>
<text text-anchor="middle" x="446" y="-65.9" font-family="Helvetica,sans-Serif" font-size="12.00">stdlib.h</text>
</a>
</g>
</g>
<!-- Node1&#45;&gt;Node8 -->
<g id="edge7" class="edge">
<title>Node1&#45;&gt;Node8</title>
<path fill="none" stroke="midnightblue" d="M342.43,-116.41C366.51,-105.62 394.54,-93.06 415.37,-83.73"/>
<polygon fill="midnightblue" stroke="midnightblue" points="416.98,-86.84 424.67,-79.56 414.12,-80.45 416.98,-86.84"/>
</g>
<!-- Node9 -->
<g id="node9" class="node">
<title>Node9</title>
<g id="a_node9"><a xlink:href="../../da/d3d/data__windows__f32_8h.html" target="_top" xlink:title=" ">
<polygon fill="white" stroke="black" points="491,-58.5 491,-79.5 615,-79.5 615,-58.5 491,-58.5"/>
<text text-anchor="middle" x="553" y="-65.9" font-family="Helvetica,sans-Serif" font-size="12.00">data_windows_f32.h</text>
</a>
</g>
</g>
<!-- Node1&#45;&gt;Node9 -->
<g id="edge8" class="edge">
<title>Node1&#45;&gt;Node9</title>
<path fill="none" stroke="midnightblue" d="M373.15,-117.55C417.2,-105.9 470.03,-91.93 507,-82.16"/>
<polygon fill="midnightblue" stroke="midnightblue" points="508.21,-85.46 516.99,-79.52 506.42,-78.69 508.21,-85.46"/>
</g>
<!-- Node4 -->
<g id="node4" class="node">
<title>Node4</title>
<g id="a_node4"><a xlink:title=" ">
<polygon fill="white" stroke="#bfbfbf" points="70.5,-0.5 70.5,-21.5 121.5,-21.5 121.5,-0.5 70.5,-0.5"/>
<text text-anchor="middle" x="96" y="-7.9" font-family="Helvetica,sans-Serif" font-size="12.00">stdio.h</text>
</a>
</g>
</g>
<!-- Node3&#45;&gt;Node4 -->
<g id="edge3" class="edge">
<title>Node3&#45;&gt;Node4</title>
<path fill="none" stroke="midnightblue" d="M125.73,-58.25C120.77,-50.54 113.72,-39.56 107.72,-30.23"/>
<polygon fill="midnightblue" stroke="midnightblue" points="110.55,-28.16 102.2,-21.64 104.66,-31.95 110.55,-28.16"/>
</g>
<!-- Node5 -->
<g id="node5" class="node">
<title>Node5</title>
<g id="a_node5"><a xlink:title=" ">
<polygon fill="white" stroke="#bfbfbf" points="140,-0.5 140,-21.5 194,-21.5 194,-0.5 140,-0.5"/>
<text text-anchor="middle" x="167" y="-7.9" font-family="Helvetica,sans-Serif" font-size="12.00">string.h</text>
</a>
</g>
</g>
<!-- Node3&#45;&gt;Node5 -->
<g id="edge4" class="edge">
<title>Node3&#45;&gt;Node5</title>
<path fill="none" stroke="midnightblue" d="M138.1,-58.25C142.91,-50.54 149.78,-39.56 155.6,-30.23"/>
<polygon fill="midnightblue" stroke="midnightblue" points="158.64,-31.98 160.97,-21.64 152.71,-28.27 158.64,-31.98"/>
</g>
</g>
</svg>
