<?xml version="1.0" encoding="UTF-8" standalone="no"?>
<!DOCTYPE svg PUBLIC "-//W3C//DTD SVG 1.1//EN"
 "http://www.w3.org/Graphics/SVG/1.1/DTD/svg11.dtd">
<!-- Generated by graphviz version 2.47.3 (20210619.1520)
 -->
<!-- Title: D:/brian/Dev/Eris/ERISCore/lib/Audio/eris_analyze_fft1024.h Pages: 1 -->
<svg width="550pt" height="162pt"
 viewBox="0.00 0.00 550.00 162.00" xmlns="http://www.w3.org/2000/svg" xmlns:xlink="http://www.w3.org/1999/xlink">
<g id="graph0" class="graph" transform="scale(1 1) rotate(0) translate(4 158)">
<title>D:/brian/Dev/Eris/ERISCore/lib/Audio/eris_analyze_fft1024.h</title>
<polygon fill="white" stroke="transparent" points="-4,4 -4,-158 546,-158 546,4 -4,4"/>
<!-- Node1 -->
<g id="node1" class="node">
<title>Node1</title>
<g id="a_node1"><a xlink:title=" ">
<polygon fill="#bfbfbf" stroke="black" points="191.5,-112.5 191.5,-153.5 326.5,-153.5 326.5,-112.5 191.5,-112.5"/>
<text text-anchor="start" x="199.5" y="-141.5" font-family="Helvetica,sans-Serif" font-size="10.00">D:/brian/Dev/Eris/ERISCore</text>
<text text-anchor="start" x="199.5" y="-130.5" font-family="Helvetica,sans-Serif" font-size="10.00">/lib/Audio/eris_analyze</text>
<text text-anchor="middle" x="259" y="-119.5" font-family="Helvetica,sans-Serif" font-size="10.00">_fft1024.h</text>
</a>
</g>
</g>
<!-- Node2 -->
<g id="node2" class="node">
<title>Node2</title>
<g id="a_node2"><a xlink:title=" ">
<polygon fill="white" stroke="#bfbfbf" points="0,-56.5 0,-75.5 58,-75.5 58,-56.5 0,-56.5"/>
<text text-anchor="middle" x="29" y="-63.5" font-family="Helvetica,sans-Serif" font-size="10.00">Arduino.h</text>
</a>
</g>
</g>
<!-- Node1&#45;&gt;Node2 -->
<g id="edge1" class="edge">
<title>Node1&#45;&gt;Node2</title>
<path fill="none" stroke="midnightblue" d="M191.24,-112.85C151.13,-101.51 101.74,-87.56 68.06,-78.04"/>
<polygon fill="midnightblue" stroke="midnightblue" points="68.72,-74.59 58.14,-75.24 66.82,-81.32 68.72,-74.59"/>
</g>
<!-- Node3 -->
<g id="node3" class="node">
<title>Node3</title>
<g id="a_node3"><a xlink:href="../../df/d6c/_audio_stream_8h.html" target="_top" xlink:title=" ">
<polygon fill="white" stroke="black" points="76.5,-56.5 76.5,-75.5 157.5,-75.5 157.5,-56.5 76.5,-56.5"/>
<text text-anchor="middle" x="117" y="-63.5" font-family="Helvetica,sans-Serif" font-size="10.00">AudioStream.h</text>
</a>
</g>
</g>
<!-- Node1&#45;&gt;Node3 -->
<g id="edge2" class="edge">
<title>Node1&#45;&gt;Node3</title>
<path fill="none" stroke="midnightblue" d="M216.4,-112.5C193.37,-101.96 165.57,-89.23 145.23,-79.92"/>
<polygon fill="midnightblue" stroke="midnightblue" points="146.45,-76.63 135.9,-75.65 143.54,-83 146.45,-76.63"/>
</g>
<!-- Node6 -->
<g id="node6" class="node">
<title>Node6</title>
<g id="a_node6"><a xlink:title=" ">
<polygon fill="white" stroke="#bfbfbf" points="176,-56.5 176,-75.5 244,-75.5 244,-56.5 176,-56.5"/>
<text text-anchor="middle" x="210" y="-63.5" font-family="Helvetica,sans-Serif" font-size="10.00">arm_math.h</text>
</a>
</g>
</g>
<!-- Node1&#45;&gt;Node6 -->
<g id="edge5" class="edge">
<title>Node1&#45;&gt;Node6</title>
<path fill="none" stroke="midnightblue" d="M244.3,-112.5C237.44,-103.39 229.35,-92.66 222.75,-83.91"/>
<polygon fill="midnightblue" stroke="midnightblue" points="225.34,-81.53 216.52,-75.65 219.75,-85.74 225.34,-81.53"/>
</g>
<!-- Node7 -->
<g id="node7" class="node">
<title>Node7</title>
<g id="a_node7"><a xlink:title=" ">
<polygon fill="white" stroke="#bfbfbf" points="262,-56.5 262,-75.5 354,-75.5 354,-56.5 262,-56.5"/>
<text text-anchor="middle" x="308" y="-63.5" font-family="Helvetica,sans-Serif" font-size="10.00">analyze_fft1024.h</text>
</a>
</g>
</g>
<!-- Node1&#45;&gt;Node7 -->
<g id="edge6" class="edge">
<title>Node1&#45;&gt;Node7</title>
<path fill="none" stroke="midnightblue" d="M273.7,-112.5C280.56,-103.39 288.65,-92.66 295.25,-83.91"/>
<polygon fill="midnightblue" stroke="midnightblue" points="298.25,-85.74 301.48,-75.65 292.66,-81.53 298.25,-85.74"/>
</g>
<!-- Node8 -->
<g id="node8" class="node">
<title>Node8</title>
<g id="a_node8"><a xlink:title=" ">
<polygon fill="white" stroke="#bfbfbf" points="372,-56.5 372,-75.5 420,-75.5 420,-56.5 372,-56.5"/>
<text text-anchor="middle" x="396" y="-63.5" font-family="Helvetica,sans-Serif" font-size="10.00">stdlib.h</text>
</a>
</g>
</g>
<!-- Node1&#45;&gt;Node8 -->
<g id="edge7" class="edge">
<title>Node1&#45;&gt;Node8</title>
<path fill="none" stroke="midnightblue" d="M300.1,-112.5C322.22,-102.01 348.9,-89.35 368.49,-80.05"/>
<polygon fill="midnightblue" stroke="midnightblue" points="370.23,-83.1 377.76,-75.65 367.23,-76.78 370.23,-83.1"/>
</g>
<!-- Node9 -->
<g id="node9" class="node">
<title>Node9</title>
<g id="a_node9"><a xlink:href="../../da/d3d/data__windows__f32_8h.html" target="_top" xlink:title=" ">
<polygon fill="white" stroke="black" points="438,-56.5 438,-75.5 542,-75.5 542,-56.5 438,-56.5"/>
<text text-anchor="middle" x="490" y="-63.5" font-family="Helvetica,sans-Serif" font-size="10.00">data_windows_f32.h</text>
</a>
</g>
</g>
<!-- Node1&#45;&gt;Node9 -->
<g id="edge8" class="edge">
<title>Node1&#45;&gt;Node9</title>
<path fill="none" stroke="midnightblue" d="M326.75,-112.94C366.68,-101.7 415.86,-87.86 449.74,-78.33"/>
<polygon fill="midnightblue" stroke="midnightblue" points="451.06,-81.59 459.74,-75.51 449.16,-74.85 451.06,-81.59"/>
</g>
<!-- Node4 -->
<g id="node4" class="node">
<title>Node4</title>
<g id="a_node4"><a xlink:title=" ">
<polygon fill="white" stroke="#bfbfbf" points="61,-0.5 61,-19.5 107,-19.5 107,-0.5 61,-0.5"/>
<text text-anchor="middle" x="84" y="-7.5" font-family="Helvetica,sans-Serif" font-size="10.00">stdio.h</text>
</a>
</g>
</g>
<!-- Node3&#45;&gt;Node4 -->
<g id="edge3" class="edge">
<title>Node3&#45;&gt;Node4</title>
<path fill="none" stroke="midnightblue" d="M111.55,-56.08C106.99,-48.61 100.33,-37.72 94.71,-28.52"/>
<polygon fill="midnightblue" stroke="midnightblue" points="97.55,-26.46 89.35,-19.75 91.58,-30.11 97.55,-26.46"/>
</g>
<!-- Node5 -->
<g id="node5" class="node">
<title>Node5</title>
<g id="a_node5"><a xlink:title=" ">
<polygon fill="white" stroke="#bfbfbf" points="125.5,-0.5 125.5,-19.5 174.5,-19.5 174.5,-0.5 125.5,-0.5"/>
<text text-anchor="middle" x="150" y="-7.5" font-family="Helvetica,sans-Serif" font-size="10.00">string.h</text>
</a>
</g>
</g>
<!-- Node3&#45;&gt;Node5 -->
<g id="edge4" class="edge">
<title>Node3&#45;&gt;Node5</title>
<path fill="none" stroke="midnightblue" d="M122.45,-56.08C127.01,-48.61 133.67,-37.72 139.29,-28.52"/>
<polygon fill="midnightblue" stroke="midnightblue" points="142.42,-30.11 144.65,-19.75 136.45,-26.46 142.42,-30.11"/>
</g>
</g>
</svg>
