<?xml version="1.0" encoding="UTF-8" standalone="no"?>
<!DOCTYPE svg PUBLIC "-//W3C//DTD SVG 1.1//EN"
 "http://www.w3.org/Graphics/SVG/1.1/DTD/svg11.dtd">
<!-- Generated by graphviz version 2.47.3 (20210619.1520)
 -->
<!-- Title: FatFile::getSFN Pages: 1 -->
<svg width="809pt" height="165pt"
 viewBox="0.00 0.00 809.00 165.08" xmlns="http://www.w3.org/2000/svg" xmlns:xlink="http://www.w3.org/1999/xlink">
<g id="graph0" class="graph" transform="scale(1 1) rotate(0) translate(4 161.08)">
<title>FatFile::getSFN</title>
<polygon fill="white" stroke="transparent" points="-4,4 -4,-161.08 805,-161.08 805,4 -4,4"/>
<!-- Node1 -->
<g id="node1" class="node">
<title>Node1</title>
<g id="a_node1"><a xlink:title=" ">
<polygon fill="#bfbfbf" stroke="black" points="701,-100.5 701,-121.5 801,-121.5 801,-100.5 701,-100.5"/>
<text text-anchor="middle" x="751" y="-107.9" font-family="Helvetica,sans-Serif" font-size="12.00">FatFile::getSFN</text>
</a>
</g>
</g>
<!-- Node2 -->
<g id="node2" class="node">
<title>Node2</title>
<g id="a_node2"><a xlink:href="../../d3/d51/class_fat_file.html#a0313d518970d1438d5cad721720cc109" target="_top" xlink:title=" ">
<polygon fill="white" stroke="black" points="401.5,-120.5 401.5,-141.5 508.5,-141.5 508.5,-120.5 401.5,-120.5"/>
<text text-anchor="middle" x="455" y="-127.9" font-family="Helvetica,sans-Serif" font-size="12.00">FatFile::getName</text>
</a>
</g>
</g>
<!-- Node1&#45;&gt;Node2 -->
<g id="edge1" class="edge">
<title>Node1&#45;&gt;Node2</title>
<path fill="none" stroke="midnightblue" d="M724.31,-126.74C707.98,-135.8 686.02,-146.3 665,-151 605.95,-164.2 535.6,-151.87 493.44,-141.57"/>
<polygon fill="midnightblue" stroke="midnightblue" points="726.29,-129.64 733.22,-121.63 722.81,-123.57 726.29,-129.64"/>
</g>
<!-- Node4 -->
<g id="node4" class="node">
<title>Node4</title>
<g id="a_node4"><a xlink:href="../../d3/d51/class_fat_file.html#abf906ba7948cf1331d80e530bacea489" target="_top" xlink:title=" ">
<polygon fill="white" stroke="black" points="551,-120.5 551,-141.5 665,-141.5 665,-120.5 551,-120.5"/>
<text text-anchor="middle" x="608" y="-127.9" font-family="Helvetica,sans-Serif" font-size="12.00">FatFile::getName7</text>
</a>
</g>
</g>
<!-- Node1&#45;&gt;Node4 -->
<g id="edge3" class="edge">
<title>Node1&#45;&gt;Node4</title>
<path fill="none" stroke="midnightblue" d="M690.6,-119.43C682.21,-120.62 673.61,-121.84 665.28,-123.02"/>
<polygon fill="midnightblue" stroke="midnightblue" points="691.28,-122.86 700.69,-118 690.29,-115.93 691.28,-122.86"/>
</g>
<!-- Node5 -->
<g id="node5" class="node">
<title>Node5</title>
<g id="a_node5"><a xlink:href="../../d3/d51/class_fat_file.html#a2369692e7bc19a68ac106fd7499a2910" target="_top" xlink:title=" ">
<polygon fill="white" stroke="black" points="551,-80.5 551,-101.5 665,-101.5 665,-80.5 551,-80.5"/>
<text text-anchor="middle" x="608" y="-87.9" font-family="Helvetica,sans-Serif" font-size="12.00">FatFile::getName8</text>
</a>
</g>
</g>
<!-- Node1&#45;&gt;Node5 -->
<g id="edge5" class="edge">
<title>Node1&#45;&gt;Node5</title>
<path fill="none" stroke="midnightblue" d="M690.6,-102.57C682.21,-101.38 673.61,-100.16 665.28,-98.98"/>
<polygon fill="midnightblue" stroke="midnightblue" points="690.29,-106.07 700.69,-104 691.28,-99.14 690.29,-106.07"/>
</g>
<!-- Node6 -->
<g id="node6" class="node">
<title>Node6</title>
<g id="a_node6"><a xlink:href="../../d3/d51/class_fat_file.html#a791cd7aade71f609aab62ec018aea3c0" target="_top" xlink:title=" ">
<polygon fill="white" stroke="black" points="555,-40.5 555,-61.5 661,-61.5 661,-40.5 555,-40.5"/>
<text text-anchor="middle" x="608" y="-47.9" font-family="Helvetica,sans-Serif" font-size="12.00">FatFile::printSFN</text>
</a>
</g>
</g>
<!-- Node1&#45;&gt;Node6 -->
<g id="edge7" class="edge">
<title>Node1&#45;&gt;Node6</title>
<path fill="none" stroke="midnightblue" d="M719.53,-95.78C703.47,-87.99 683.35,-78.57 665,-71 657.08,-67.73 648.41,-64.48 640.31,-61.58"/>
<polygon fill="midnightblue" stroke="midnightblue" points="718.43,-99.14 728.95,-100.4 721.5,-92.85 718.43,-99.14"/>
</g>
<!-- Node3 -->
<g id="node3" class="node">
<title>Node3</title>
<g id="a_node3"><a xlink:href="../../d7/d76/class_fs_base_file.html#ad2099dbe6bb8f61e1bf933d8e97b2d86" target="_top" xlink:title=" ">
<polygon fill="white" stroke="black" points="228,-120.5 228,-141.5 359,-141.5 359,-120.5 228,-120.5"/>
<text text-anchor="middle" x="293.5" y="-127.9" font-family="Helvetica,sans-Serif" font-size="12.00">FsBaseFile::getName</text>
</a>
</g>
</g>
<!-- Node2&#45;&gt;Node3 -->
<g id="edge2" class="edge">
<title>Node2&#45;&gt;Node3</title>
<path fill="none" stroke="midnightblue" d="M391.33,-131C380.73,-131 369.71,-131 359.07,-131"/>
<polygon fill="midnightblue" stroke="midnightblue" points="391.33,-134.5 401.33,-131 391.33,-127.5 391.33,-134.5"/>
</g>
<!-- Node4&#45;&gt;Node2 -->
<g id="edge4" class="edge">
<title>Node4&#45;&gt;Node2</title>
<path fill="none" stroke="midnightblue" d="M540.65,-131C529.98,-131 519.07,-131 508.77,-131"/>
<polygon fill="midnightblue" stroke="midnightblue" points="540.77,-134.5 550.77,-131 540.77,-127.5 540.77,-134.5"/>
</g>
<!-- Node5&#45;&gt;Node2 -->
<g id="edge6" class="edge">
<title>Node5&#45;&gt;Node2</title>
<path fill="none" stroke="midnightblue" d="M557.44,-104.13C537.4,-109.44 514.58,-115.48 495.67,-120.49"/>
<polygon fill="midnightblue" stroke="midnightblue" points="558.56,-107.45 567.33,-101.51 556.76,-100.69 558.56,-107.45"/>
</g>
<!-- Node7 -->
<g id="node7" class="node">
<title>Node7</title>
<g id="a_node7"><a xlink:href="../../d3/d51/class_fat_file.html#afe18a787fb8640e2d2483370c770f82f" target="_top" xlink:title=" ">
<polygon fill="white" stroke="black" points="237,-40.5 237,-61.5 350,-61.5 350,-40.5 237,-40.5"/>
<text text-anchor="middle" x="293.5" y="-47.9" font-family="Helvetica,sans-Serif" font-size="12.00">FatFile::printName</text>
</a>
</g>
</g>
<!-- Node6&#45;&gt;Node7 -->
<g id="edge8" class="edge">
<title>Node6&#45;&gt;Node7</title>
<path fill="none" stroke="midnightblue" d="M557.31,-63.84C543.69,-66.8 528.86,-69.51 515,-71 461.97,-76.7 448.08,-76.23 395,-71 376.06,-69.13 355.39,-65.33 337.75,-61.54"/>
<polygon fill="midnightblue" stroke="midnightblue" points="558.47,-67.16 567.45,-61.54 556.93,-60.33 558.47,-67.16"/>
</g>
<!-- Node10 -->
<g id="node10" class="node">
<title>Node10</title>
<g id="a_node10"><a xlink:href="../../d3/d51/class_fat_file.html#a35dedc90d44758d10d967785dc14da2b" target="_top" xlink:title=" ">
<polygon fill="white" stroke="black" points="395,-40.5 395,-61.5 515,-61.5 515,-40.5 395,-40.5"/>
<text text-anchor="middle" x="455" y="-47.9" font-family="Helvetica,sans-Serif" font-size="12.00">FatFile::printName7</text>
</a>
</g>
</g>
<!-- Node6&#45;&gt;Node10 -->
<g id="edge12" class="edge">
<title>Node6&#45;&gt;Node10</title>
<path fill="none" stroke="midnightblue" d="M544.56,-51C534.79,-51 524.71,-51 515.02,-51"/>
<polygon fill="midnightblue" stroke="midnightblue" points="544.61,-54.5 554.61,-51 544.61,-47.5 544.61,-54.5"/>
</g>
<!-- Node11 -->
<g id="node11" class="node">
<title>Node11</title>
<g id="a_node11"><a xlink:href="../../d3/d51/class_fat_file.html#a508c86ed62a34a920574dd270dc64322" target="_top" xlink:title=" ">
<polygon fill="white" stroke="black" points="395,-0.5 395,-21.5 515,-21.5 515,-0.5 395,-0.5"/>
<text text-anchor="middle" x="455" y="-7.9" font-family="Helvetica,sans-Serif" font-size="12.00">FatFile::printName8</text>
</a>
</g>
</g>
<!-- Node6&#45;&gt;Node11 -->
<g id="edge14" class="edge">
<title>Node6&#45;&gt;Node11</title>
<path fill="none" stroke="midnightblue" d="M557.44,-37.87C537.4,-32.56 514.58,-26.52 495.67,-21.51"/>
<polygon fill="midnightblue" stroke="midnightblue" points="556.76,-41.31 567.33,-40.49 558.56,-34.55 556.76,-41.31"/>
</g>
<!-- Node8 -->
<g id="node8" class="node">
<title>Node8</title>
<g id="a_node8"><a xlink:href="../../d3/d51/class_fat_file.html#a60ab9d16bcc778150a364c26de467de1" target="_top" xlink:title=" ">
<polygon fill="white" stroke="black" points="124,-40.5 124,-61.5 192,-61.5 192,-40.5 124,-40.5"/>
<text text-anchor="middle" x="158" y="-47.9" font-family="Helvetica,sans-Serif" font-size="12.00">FatFile::ls</text>
</a>
</g>
</g>
<!-- Node7&#45;&gt;Node8 -->
<g id="edge9" class="edge">
<title>Node7&#45;&gt;Node8</title>
<path fill="none" stroke="midnightblue" d="M226.64,-51C214.66,-51 202.65,-51 192.14,-51"/>
<polygon fill="midnightblue" stroke="midnightblue" points="226.66,-54.5 236.66,-51 226.66,-47.5 226.66,-54.5"/>
</g>
<!-- Node8&#45;&gt;Node8 -->
<g id="edge11" class="edge">
<title>Node8&#45;&gt;Node8</title>
<path fill="none" stroke="midnightblue" d="M179.01,-71.43C177.39,-76.35 170.39,-80 158,-80 138.18,-80 132.15,-70.65 139.89,-61.71"/>
<polygon fill="midnightblue" stroke="midnightblue" points="182.32,-70.29 176.11,-61.71 175.61,-72.29 182.32,-70.29"/>
</g>
<!-- Node9 -->
<g id="node9" class="node">
<title>Node9</title>
<g id="a_node9"><a xlink:href="../../d9/d27/class_fat_volume.html#ae40964f357cfff4208812344a0e6f26f" target="_top" xlink:title=" ">
<polygon fill="white" stroke="black" points="0,-40.5 0,-61.5 88,-61.5 88,-40.5 0,-40.5"/>
<text text-anchor="middle" x="44" y="-47.9" font-family="Helvetica,sans-Serif" font-size="12.00">FatVolume::ls</text>
</a>
</g>
</g>
<!-- Node8&#45;&gt;Node9 -->
<g id="edge10" class="edge">
<title>Node8&#45;&gt;Node9</title>
<path fill="none" stroke="midnightblue" d="M113.5,-51C105.24,-51 96.6,-51 88.35,-51"/>
<polygon fill="midnightblue" stroke="midnightblue" points="113.7,-54.5 123.7,-51 113.7,-47.5 113.7,-54.5"/>
</g>
<!-- Node10&#45;&gt;Node7 -->
<g id="edge13" class="edge">
<title>Node10&#45;&gt;Node7</title>
<path fill="none" stroke="midnightblue" d="M384.26,-51C372.88,-51 361.23,-51 350.24,-51"/>
<polygon fill="midnightblue" stroke="midnightblue" points="384.61,-54.5 394.61,-51 384.61,-47.5 384.61,-54.5"/>
</g>
<!-- Node11&#45;&gt;Node7 -->
<g id="edge15" class="edge">
<title>Node11&#45;&gt;Node7</title>
<path fill="none" stroke="midnightblue" d="M402.23,-23.98C380.92,-29.33 356.56,-35.44 336.4,-40.49"/>
<polygon fill="midnightblue" stroke="midnightblue" points="403.25,-27.34 412.09,-21.51 401.54,-20.55 403.25,-27.34"/>
</g>
</g>
</svg>
