<?xml version="1.0" encoding="UTF-8" standalone="no"?>
<!DOCTYPE svg PUBLIC "-//W3C//DTD SVG 1.1//EN"
 "http://www.w3.org/Graphics/SVG/1.1/DTD/svg11.dtd">
<!-- Generated by graphviz version 2.47.3 (20210619.1520)
 -->
<!-- Title: FatFile::readDirCache Pages: 1 -->
<!--zoomable 446 -->
<svg id="main" version="1.1" xmlns="http://www.w3.org/2000/svg" xmlns:xlink="http://www.w3.org/1999/xlink" xml:space="preserve" onload="init(evt)">
<style type="text/css"><![CDATA[
.edge:hover path { stroke: red; }
.edge:hover polygon { stroke: red; fill: red; }
]]></style>
<script type="text/javascript"><![CDATA[
var edges = document.getElementsByTagName('g');
if (edges && edges.length) {
  for (var i=0;i<edges.length;i++) {
    if (edges[i].id.substr(0,4)=='edge') {
      edges[i].setAttribute('class','edge');
    }
  }
}
]]></script>
        <defs>
                <circle id="rim" cx="0" cy="0" r="7"/>
                <circle id="rim2" cx="0" cy="0" r="3.5"/>
                <g id="zoomPlus">
                        <use xlink:href="#rim" fill="#404040">
                                <set attributeName="fill" to="#808080" begin="zoomplus.mouseover" end="zoomplus.mouseout"/>
                        </use>
                        <path d="M-4,0h8M0,-4v8" fill="none" stroke="white" stroke-width="1.5" pointer-events="none"/>
                </g>
                <g id="zoomMin">
                        <use xlink:href="#rim" fill="#404040">
                                <set attributeName="fill" to="#808080" begin="zoomminus.mouseover" end="zoomminus.mouseout"/>
                        </use>
                        <path d="M-4,0h8" fill="none" stroke="white" stroke-width="1.5" pointer-events="none"/>
                </g>
                <g id="dirArrow">
                        <path fill="none" stroke="white" stroke-width="1.5" d="M0,-3.0v7 M-2.5,-0.5L0,-3.0L2.5,-0.5"/>
                </g>
               <g id="resetDef">
                       <use xlink:href="#rim2" fill="#404040">
                               <set attributeName="fill" to="#808080" begin="reset.mouseover" end="reset.mouseout"/>
                       </use>
               </g>
        </defs>

<script type="text/javascript">
var viewWidth = 721;
var viewHeight = 446;
var sectionId = 'dynsection-127';
</script>
<script xlink:href="../../svgpan.js"/>
<svg id="graph" class="graph">
<g id="viewport">
<title>FatFile::readDirCache</title>
<polygon fill="white" stroke="transparent" points="-4,4 -4,-442 717,-442 717,4 -4,4"/>
<!-- Node1 -->
<g id="node1" class="node">
<title>Node1</title>
<g id="a_node1"><a xlink:title=" ">
<polygon fill="#bfbfbf" stroke="black" points="579,-178.5 579,-199.5 713,-199.5 713,-178.5 579,-178.5"/>
<text text-anchor="middle" x="646" y="-185.9" font-family="Helvetica,sans-Serif" font-size="12.00">FatFile::readDirCache</text>
</a>
</g>
</g>
<!-- Node2 -->
<g id="node2" class="node">
<title>Node2</title>
<g id="a_node2"><a xlink:href="../../d3/d51/class_fat_file.html#a1edf82f8818d33a8f29cf623e80f3aee" target="_top" xlink:title=" ">
<polygon fill="white" stroke="black" points="435,-316.5 435,-337.5 542,-337.5 542,-316.5 435,-316.5"/>
<text text-anchor="middle" x="488.5" y="-323.9" font-family="Helvetica,sans-Serif" font-size="12.00">FatFile::cacheDir</text>
</a>
</g>
</g>
<!-- Node1&#45;&gt;Node2 -->
<g id="edge1" class="edge">
<title>Node1&#45;&gt;Node2</title>
<path fill="none" stroke="midnightblue" d="M625.52,-206.29C592.99,-235.16 528.56,-292.34 501.7,-316.17"/>
<polygon fill="midnightblue" stroke="midnightblue" points="627.9,-208.85 633.06,-199.6 623.25,-203.62 627.9,-208.85"/>
</g>
<!-- Node13 -->
<g id="node11" class="node">
<title>Node13</title>
<g id="a_node11"><a xlink:href="../../d3/d51/class_fat_file.html#aefd095e898758e6008f33cca17e92b72" target="_top" xlink:title=" ">
<polygon fill="white" stroke="black" points="445.5,-218.5 445.5,-239.5 531.5,-239.5 531.5,-218.5 445.5,-218.5"/>
<text text-anchor="middle" x="488.5" y="-225.9" font-family="Helvetica,sans-Serif" font-size="12.00">FatFile::open</text>
</a>
</g>
</g>
<!-- Node1&#45;&gt;Node13 -->
<g id="edge13" class="edge">
<title>Node1&#45;&gt;Node13</title>
<path fill="none" stroke="midnightblue" d="M594.24,-202.06C573.54,-207.38 549.92,-213.46 530.35,-218.49"/>
<polygon fill="midnightblue" stroke="midnightblue" points="595.33,-205.39 604.14,-199.51 593.59,-198.61 595.33,-205.39"/>
</g>
<!-- Node14 -->
<g id="node12" class="node">
<title>Node14</title>
<g id="a_node12"><a xlink:href="../../d3/d51/class_fat_file.html#acda9b1bf547d43e183e657bee053a48d" target="_top" xlink:title=" ">
<polygon fill="white" stroke="black" points="434,-178.5 434,-199.5 543,-199.5 543,-178.5 434,-178.5"/>
<text text-anchor="middle" x="488.5" y="-185.9" font-family="Helvetica,sans-Serif" font-size="12.00">FatFile::openNext</text>
</a>
</g>
</g>
<!-- Node1&#45;&gt;Node14 -->
<g id="edge14" class="edge">
<title>Node1&#45;&gt;Node14</title>
<path fill="none" stroke="midnightblue" d="M568.51,-189C559.89,-189 551.24,-189 543,-189"/>
<polygon fill="midnightblue" stroke="midnightblue" points="568.6,-192.5 578.6,-189 568.6,-185.5 568.6,-192.5"/>
</g>
<!-- Node18 -->
<g id="node16" class="node">
<title>Node18</title>
<g id="a_node16"><a xlink:href="../../d3/d51/class_fat_file.html#a9515bac181d33e7f0125e88fa2ccd283" target="_top" xlink:title=" ">
<polygon fill="white" stroke="black" points="445.5,-83.5 445.5,-104.5 531.5,-104.5 531.5,-83.5 445.5,-83.5"/>
<text text-anchor="middle" x="488.5" y="-90.9" font-family="Helvetica,sans-Serif" font-size="12.00">FatFile::rmdir</text>
</a>
</g>
</g>
<!-- Node1&#45;&gt;Node18 -->
<g id="edge20" class="edge">
<title>Node1&#45;&gt;Node18</title>
<path fill="none" stroke="midnightblue" d="M619,-173.11C587.14,-153.65 534.07,-121.23 506.81,-104.58"/>
<polygon fill="midnightblue" stroke="midnightblue" points="617.41,-176.24 627.76,-178.47 621.06,-170.27 617.41,-176.24"/>
</g>
<!-- Node21 -->
<g id="node19" class="node">
<title>Node21</title>
<g id="a_node19"><a xlink:href="../../d3/d51/class_fat_file.html#ac780a80526f86d3def701ecdc99d8bfe" target="_top" xlink:title=" ">
<polygon fill="white" stroke="black" points="278.5,-0.5 278.5,-21.5 384.5,-21.5 384.5,-0.5 278.5,-0.5"/>
<text text-anchor="middle" x="331.5" y="-7.9" font-family="Helvetica,sans-Serif" font-size="12.00">FatFile::rmRfStar</text>
</a>
</g>
</g>
<!-- Node1&#45;&gt;Node21 -->
<g id="edge25" class="edge">
<title>Node1&#45;&gt;Node21</title>
<path fill="none" stroke="midnightblue" d="M633.04,-169.88C616.09,-144.32 582.67,-99.32 543,-74 494.28,-42.91 429.5,-26.55 384.74,-18.38"/>
<polygon fill="midnightblue" stroke="midnightblue" points="630.15,-171.85 638.52,-178.34 636.02,-168.05 630.15,-171.85"/>
</g>
<!-- Node3 -->
<g id="node3" class="node">
<title>Node3</title>
<g id="a_node3"><a xlink:href="../../d3/d51/class_fat_file.html#abf906ba7948cf1331d80e530bacea489" target="_top" xlink:title=" ">
<polygon fill="white" stroke="black" points="274.5,-416.5 274.5,-437.5 388.5,-437.5 388.5,-416.5 274.5,-416.5"/>
<text text-anchor="middle" x="331.5" y="-423.9" font-family="Helvetica,sans-Serif" font-size="12.00">FatFile::getName7</text>
</a>
</g>
</g>
<!-- Node2&#45;&gt;Node3 -->
<g id="edge2" class="edge">
<title>Node2&#45;&gt;Node3</title>
<path fill="none" stroke="midnightblue" d="M471.57,-345.26C454.9,-363.33 427.13,-390.59 398,-407 391.37,-410.73 383.96,-413.85 376.58,-416.43"/>
<polygon fill="midnightblue" stroke="midnightblue" points="474.32,-347.45 478.42,-337.68 469.12,-342.76 474.32,-347.45"/>
</g>
<!-- Node6 -->
<g id="node5" class="node">
<title>Node6</title>
<g id="a_node5"><a xlink:href="../../d3/d51/class_fat_file.html#a2369692e7bc19a68ac106fd7499a2910" target="_top" xlink:title=" ">
<polygon fill="white" stroke="black" points="274.5,-376.5 274.5,-397.5 388.5,-397.5 388.5,-376.5 274.5,-376.5"/>
<text text-anchor="middle" x="331.5" y="-383.9" font-family="Helvetica,sans-Serif" font-size="12.00">FatFile::getName8</text>
</a>
</g>
</g>
<!-- Node2&#45;&gt;Node6 -->
<g id="edge4" class="edge">
<title>Node2&#45;&gt;Node6</title>
<path fill="none" stroke="midnightblue" d="M456.3,-342.09C439.28,-350.03 417.72,-359.62 398,-367 388.98,-370.38 379.11,-373.62 369.83,-376.47"/>
<polygon fill="midnightblue" stroke="midnightblue" points="458.2,-345.06 465.75,-337.63 455.21,-338.73 458.2,-345.06"/>
</g>
<!-- Node7 -->
<g id="node6" class="node">
<title>Node7</title>
<g id="a_node6"><a xlink:href="../../d3/d51/class_fat_file.html#ab44920bb9cd5414b8e69c9dc4343394a" target="_top" xlink:title=" ">
<polygon fill="white" stroke="black" points="288.5,-256.5 288.5,-277.5 374.5,-277.5 374.5,-256.5 288.5,-256.5"/>
<text text-anchor="middle" x="331.5" y="-263.9" font-family="Helvetica,sans-Serif" font-size="12.00">FatFile::open</text>
</a>
</g>
</g>
<!-- Node2&#45;&gt;Node7 -->
<g id="edge6" class="edge">
<title>Node2&#45;&gt;Node7</title>
<path fill="none" stroke="midnightblue" d="M456.3,-311.91C439.28,-303.97 417.72,-294.38 398,-287 388.98,-283.62 379.11,-280.38 369.83,-277.53"/>
<polygon fill="midnightblue" stroke="midnightblue" points="455.21,-315.27 465.75,-316.37 458.2,-308.94 455.21,-315.27"/>
</g>
<!-- Node8 -->
<g id="node7" class="node">
<title>Node8</title>
<g id="a_node7"><a xlink:href="../../d3/d51/class_fat_file.html#a35dedc90d44758d10d967785dc14da2b" target="_top" xlink:title=" ">
<polygon fill="white" stroke="black" points="271.5,-336.5 271.5,-357.5 391.5,-357.5 391.5,-336.5 271.5,-336.5"/>
<text text-anchor="middle" x="331.5" y="-343.9" font-family="Helvetica,sans-Serif" font-size="12.00">FatFile::printName7</text>
</a>
</g>
</g>
<!-- Node2&#45;&gt;Node8 -->
<g id="edge7" class="edge">
<title>Node2&#45;&gt;Node8</title>
<path fill="none" stroke="midnightblue" d="M424.35,-335.15C413.51,-336.55 402.28,-338 391.55,-339.38"/>
<polygon fill="midnightblue" stroke="midnightblue" points="425.12,-338.58 434.59,-333.83 424.23,-331.64 425.12,-338.58"/>
</g>
<!-- Node12 -->
<g id="node10" class="node">
<title>Node12</title>
<g id="a_node10"><a xlink:href="../../d3/d51/class_fat_file.html#a508c86ed62a34a920574dd270dc64322" target="_top" xlink:title=" ">
<polygon fill="white" stroke="black" points="271.5,-296.5 271.5,-317.5 391.5,-317.5 391.5,-296.5 271.5,-296.5"/>
<text text-anchor="middle" x="331.5" y="-303.9" font-family="Helvetica,sans-Serif" font-size="12.00">FatFile::printName8</text>
</a>
</g>
</g>
<!-- Node2&#45;&gt;Node12 -->
<g id="edge11" class="edge">
<title>Node2&#45;&gt;Node12</title>
<path fill="none" stroke="midnightblue" d="M424.35,-318.85C413.51,-317.45 402.28,-316 391.55,-314.62"/>
<polygon fill="midnightblue" stroke="midnightblue" points="424.23,-322.36 434.59,-320.17 425.12,-315.42 424.23,-322.36"/>
</g>
<!-- Node4 -->
<g id="node4" class="node">
<title>Node4</title>
<g id="a_node4"><a xlink:href="../../d3/d51/class_fat_file.html#a0313d518970d1438d5cad721720cc109" target="_top" xlink:title=" ">
<polygon fill="white" stroke="red" points="113,-396.5 113,-417.5 220,-417.5 220,-396.5 113,-396.5"/>
<text text-anchor="middle" x="166.5" y="-403.9" font-family="Helvetica,sans-Serif" font-size="12.00">FatFile::getName</text>
</a>
</g>
</g>
<!-- Node3&#45;&gt;Node4 -->
<g id="edge3" class="edge">
<title>Node3&#45;&gt;Node4</title>
<path fill="none" stroke="midnightblue" d="M264.35,-418.88C249.63,-417.08 234.22,-415.19 220.13,-413.46"/>
<polygon fill="midnightblue" stroke="midnightblue" points="264.05,-422.37 274.4,-420.12 264.91,-415.43 264.05,-422.37"/>
</g>
<!-- Node6&#45;&gt;Node4 -->
<g id="edge5" class="edge">
<title>Node6&#45;&gt;Node4</title>
<path fill="none" stroke="midnightblue" d="M264.35,-395.12C249.63,-396.92 234.22,-398.81 220.13,-400.54"/>
<polygon fill="midnightblue" stroke="midnightblue" points="264.91,-398.57 274.4,-393.88 264.05,-391.63 264.91,-398.57"/>
</g>
<!-- Node9 -->
<g id="node8" class="node">
<title>Node9</title>
<g id="a_node8"><a xlink:href="../../d3/d51/class_fat_file.html#afe18a787fb8640e2d2483370c770f82f" target="_top" xlink:title=" ">
<polygon fill="white" stroke="black" points="110,-296.5 110,-317.5 223,-317.5 223,-296.5 110,-296.5"/>
<text text-anchor="middle" x="166.5" y="-303.9" font-family="Helvetica,sans-Serif" font-size="12.00">FatFile::printName</text>
</a>
</g>
</g>
<!-- Node8&#45;&gt;Node9 -->
<g id="edge8" class="edge">
<title>Node8&#45;&gt;Node9</title>
<path fill="none" stroke="midnightblue" d="M277.89,-334.09C256.04,-328.73 231.02,-322.59 210.32,-317.51"/>
<polygon fill="midnightblue" stroke="midnightblue" points="277.13,-337.51 287.67,-336.49 278.8,-330.71 277.13,-337.51"/>
</g>
<!-- Node10 -->
<g id="node9" class="node">
<title>Node10</title>
<g id="a_node9"><a xlink:href="../../d3/d51/class_fat_file.html#a60ab9d16bcc778150a364c26de467de1" target="_top" xlink:title=" ">
<polygon fill="white" stroke="red" points="0,-256.5 0,-277.5 68,-277.5 68,-256.5 0,-256.5"/>
<text text-anchor="middle" x="34" y="-263.9" font-family="Helvetica,sans-Serif" font-size="12.00">FatFile::ls</text>
</a>
</g>
</g>
<!-- Node9&#45;&gt;Node10 -->
<g id="edge9" class="edge">
<title>Node9&#45;&gt;Node10</title>
<path fill="none" stroke="midnightblue" d="M121.28,-293.45C103.9,-288.12 84.29,-282.11 68.16,-277.16"/>
<polygon fill="midnightblue" stroke="midnightblue" points="120.63,-296.91 131.21,-296.49 122.68,-290.21 120.63,-296.91"/>
</g>
<!-- Node10&#45;&gt;Node10 -->
<g id="edge10" class="edge">
<title>Node10&#45;&gt;Node10</title>
<path fill="none" stroke="midnightblue" d="M58.33,-287.43C56.45,-292.35 48.34,-296 34,-296 11.05,-296 4.06,-286.65 13.03,-277.71"/>
<polygon fill="midnightblue" stroke="midnightblue" points="61.54,-286.02 54.97,-277.71 54.93,-288.3 61.54,-286.02"/>
</g>
<!-- Node12&#45;&gt;Node9 -->
<g id="edge12" class="edge">
<title>Node12&#45;&gt;Node9</title>
<path fill="none" stroke="midnightblue" d="M261.15,-307C248.49,-307 235.43,-307 223.24,-307"/>
<polygon fill="midnightblue" stroke="midnightblue" points="261.19,-310.5 271.19,-307 261.19,-303.5 261.19,-310.5"/>
</g>
<!-- Node14&#45;&gt;Node7 -->
<g id="edge16" class="edge">
<title>Node14&#45;&gt;Node7</title>
<path fill="none" stroke="midnightblue" d="M443.95,-203.63C440.5,-205.28 437.14,-207.07 434,-209 415.49,-220.34 416.47,-230.59 398,-242 388.58,-247.82 377.58,-252.66 367.31,-256.48"/>
<polygon fill="midnightblue" stroke="midnightblue" points="445.43,-206.81 453.19,-199.59 442.62,-200.39 445.43,-206.81"/>
</g>
<!-- Node14&#45;&gt;Node10 -->
<g id="edge15" class="edge">
<title>Node14&#45;&gt;Node10</title>
<path fill="none" stroke="midnightblue" d="M433.04,-201.73C421.5,-204.27 409.37,-206.82 398,-209 277.02,-232.16 132.14,-253.36 68.15,-262.4"/>
<polygon fill="midnightblue" stroke="midnightblue" points="434,-205.1 443,-199.51 432.48,-198.27 434,-205.1"/>
</g>
<!-- Node15 -->
<g id="node13" class="node">
<title>Node15</title>
<g id="a_node13"><a xlink:href="../../d7/d76/class_fs_base_file.html#acb9b1075f4db76fa7e0521c9aff9c3df" target="_top" xlink:title=" ">
<polygon fill="white" stroke="black" points="265,-178.5 265,-199.5 398,-199.5 398,-178.5 265,-178.5"/>
<text text-anchor="middle" x="331.5" y="-185.9" font-family="Helvetica,sans-Serif" font-size="12.00">FsBaseFile::openNext</text>
</a>
</g>
</g>
<!-- Node14&#45;&gt;Node15 -->
<g id="edge17" class="edge">
<title>Node14&#45;&gt;Node15</title>
<path fill="none" stroke="midnightblue" d="M423.63,-189C415.24,-189 406.63,-189 398.21,-189"/>
<polygon fill="midnightblue" stroke="midnightblue" points="423.72,-192.5 433.72,-189 423.72,-185.5 423.72,-192.5"/>
</g>
<!-- Node17 -->
<g id="node15" class="node">
<title>Node17</title>
<g id="a_node15"><a xlink:href="../../df/dfc/class_file32.html#adc01f4a1ebc44ef36f3ffb8295c8d779" target="_top" xlink:title=" ">
<polygon fill="white" stroke="black" points="269,-138.5 269,-159.5 394,-159.5 394,-138.5 269,-138.5"/>
<text text-anchor="middle" x="331.5" y="-145.9" font-family="Helvetica,sans-Serif" font-size="12.00">File32::openNextFile</text>
</a>
</g>
</g>
<!-- Node14&#45;&gt;Node17 -->
<g id="edge19" class="edge">
<title>Node14&#45;&gt;Node17</title>
<path fill="none" stroke="midnightblue" d="M436.91,-175.94C416.27,-170.62 392.72,-164.54 373.22,-159.51"/>
<polygon fill="midnightblue" stroke="midnightblue" points="436.22,-179.38 446.78,-178.49 437.97,-172.6 436.22,-179.38"/>
</g>
<!-- Node16 -->
<g id="node14" class="node">
<title>Node16</title>
<g id="a_node14"><a xlink:href="../../d4/da1/class_fs_file.html#ab2f85961e3831d0d654da862becb7433" target="_top" xlink:title=" ">
<polygon fill="white" stroke="black" points="104,-178.5 104,-199.5 229,-199.5 229,-178.5 104,-178.5"/>
<text text-anchor="middle" x="166.5" y="-185.9" font-family="Helvetica,sans-Serif" font-size="12.00">FsFile::openNextFile</text>
</a>
</g>
</g>
<!-- Node15&#45;&gt;Node16 -->
<g id="edge18" class="edge">
<title>Node15&#45;&gt;Node16</title>
<path fill="none" stroke="midnightblue" d="M254.39,-189C245.91,-189 237.36,-189 229.09,-189"/>
<polygon fill="midnightblue" stroke="midnightblue" points="254.67,-192.5 264.67,-189 254.67,-185.5 254.67,-192.5"/>
</g>
<!-- Node19 -->
<g id="node17" class="node">
<title>Node19</title>
<g id="a_node17"><a xlink:href="../../d7/d76/class_fs_base_file.html#ac47870fd89b0849cda33f2780918a286" target="_top" xlink:title=" ">
<polygon fill="white" stroke="black" points="276.5,-98.5 276.5,-119.5 386.5,-119.5 386.5,-98.5 276.5,-98.5"/>
<text text-anchor="middle" x="331.5" y="-105.9" font-family="Helvetica,sans-Serif" font-size="12.00">FsBaseFile::rmdir</text>
</a>
</g>
</g>
<!-- Node18&#45;&gt;Node19 -->
<g id="edge21" class="edge">
<title>Node18&#45;&gt;Node19</title>
<path fill="none" stroke="midnightblue" d="M435.15,-99.07C419.57,-100.57 402.46,-102.23 386.75,-103.75"/>
<polygon fill="midnightblue" stroke="midnightblue" points="435.53,-102.55 445.15,-98.1 434.85,-95.58 435.53,-102.55"/>
</g>
<!-- Node20 -->
<g id="node18" class="node">
<title>Node20</title>
<g id="a_node18"><a xlink:href="../../d9/d27/class_fat_volume.html#af1181990bcece7dbb7d19293dd4fe11a" target="_top" xlink:title=" ">
<polygon fill="white" stroke="black" points="278,-58.5 278,-79.5 385,-79.5 385,-58.5 278,-58.5"/>
<text text-anchor="middle" x="331.5" y="-65.9" font-family="Helvetica,sans-Serif" font-size="12.00">FatVolume::rmdir</text>
</a>
</g>
</g>
<!-- Node18&#45;&gt;Node20 -->
<g id="edge22" class="edge">
<title>Node18&#45;&gt;Node20</title>
<path fill="none" stroke="midnightblue" d="M434.85,-85.51C418.77,-82.92 401.11,-80.07 385.04,-77.47"/>
<polygon fill="midnightblue" stroke="midnightblue" points="434.72,-89.03 445.15,-87.17 435.83,-82.12 434.72,-89.03"/>
</g>
<!-- Node18&#45;&gt;Node21 -->
<g id="edge23" class="edge">
<title>Node18&#45;&gt;Node21</title>
<path fill="none" stroke="midnightblue" d="M458.88,-78.67C427.96,-62.12 379.51,-36.17 352.46,-21.69"/>
<polygon fill="midnightblue" stroke="midnightblue" points="457.4,-81.85 467.87,-83.49 460.71,-75.68 457.4,-81.85"/>
</g>
<!-- Node21&#45;&gt;Node21 -->
<g id="edge24" class="edge">
<title>Node21&#45;&gt;Node21</title>
<path fill="none" stroke="midnightblue" d="M360.4,-31.06C358.51,-36.16 348.87,-40 331.5,-40 304.38,-40 296.12,-30.65 306.71,-21.71"/>
<polygon fill="midnightblue" stroke="midnightblue" points="363.52,-29.45 356.29,-21.71 357.11,-32.27 363.52,-29.45"/>
</g>
</g>
</svg>
        <g id="navigator" transform="translate(0 0)" fill="#404254">
                <rect fill="#f2f5e9" fill-opacity="0.5" stroke="#606060" stroke-width=".5" x="0" y="0" width="60" height="60"/>
                <use id="zoomplus" xlink:href="#zoomPlus" x="17" y="9" onmousedown="handleZoom(evt,'in')"/>
                <use id="zoomminus" xlink:href="#zoomMin" x="42" y="9" onmousedown="handleZoom(evt,'out')"/>
                <use id="reset" xlink:href="#resetDef" x="30" y="36" onmousedown="handleReset()"/>
                <g id="arrowUp" xlink:href="#dirArrow" transform="translate(30 24)" onmousedown="handlePan(0,-1)">
                  <use xlink:href="#rim" fill="#404040">
                        <set attributeName="fill" to="#808080" begin="arrowUp.mouseover" end="arrowUp.mouseout"/>
                  </use>
                  <path fill="none" stroke="white" stroke-width="1.5" d="M0,-3.0v7 M-2.5,-0.5L0,-3.0L2.5,-0.5"/>
                </g>
                <g id="arrowRight" xlink:href="#dirArrow" transform="rotate(90) translate(36 -43)" onmousedown="handlePan(1,0)">
                  <use xlink:href="#rim" fill="#404040">
                        <set attributeName="fill" to="#808080" begin="arrowRight.mouseover" end="arrowRight.mouseout"/>
                  </use>
                  <path fill="none" stroke="white" stroke-width="1.5" d="M0,-3.0v7 M-2.5,-0.5L0,-3.0L2.5,-0.5"/>
                </g>
                <g id="arrowDown" xlink:href="#dirArrow" transform="rotate(180) translate(-30 -48)" onmousedown="handlePan(0,1)">
                  <use xlink:href="#rim" fill="#404040">
                        <set attributeName="fill" to="#808080" begin="arrowDown.mouseover" end="arrowDown.mouseout"/>
                  </use>
                  <path fill="none" stroke="white" stroke-width="1.5" d="M0,-3.0v7 M-2.5,-0.5L0,-3.0L2.5,-0.5"/>
                </g>
                <g id="arrowLeft" xlink:href="#dirArrow" transform="rotate(270) translate(-36 17)" onmousedown="handlePan(-1,0)">
                  <use xlink:href="#rim" fill="#404040">
                        <set attributeName="fill" to="#808080" begin="arrowLeft.mouseover" end="arrowLeft.mouseout"/>
                  </use>
                  <path fill="none" stroke="white" stroke-width="1.5" d="M0,-3.0v7 M-2.5,-0.5L0,-3.0L2.5,-0.5"/>
                </g>
        </g>
        <svg viewBox="0 0 15 15" width="100%" height="30px" preserveAspectRatio="xMaxYMin meet">
         <g id="arrow_out" transform="scale(0.3 0.3)">
          <a xlink:href="class_fat_file_a07d137a7ff48af119d039d1e7ab8337a_icgraph_org.svg" target="_base">
           <rect id="button" ry="5" rx="5" y="6" x="6" height="38" width="38"
                fill="#f2f5e9" fill-opacity="0.5" stroke="#606060" stroke-width="1.0"/>
           <path id="arrow"
             d="M 11.500037,31.436501 C 11.940474,20.09759 22.043105,11.32322 32.158766,21.979434 L 37.068811,17.246167 C 37.068811,17.246167 37.088388,32 37.088388,32 L 22.160133,31.978069 C 22.160133,31.978069 26.997745,27.140456 26.997745,27.140456 C 18.528582,18.264221 13.291696,25.230495 11.500037,31.436501 z"
             style="fill:#404040;"/>
          </a>
         </g>
        </svg>
</svg>
