<?xml version="1.0" encoding="UTF-8" standalone="no"?>
<!DOCTYPE svg PUBLIC "-//W3C//DTD SVG 1.1//EN"
 "http://www.w3.org/Graphics/SVG/1.1/DTD/svg11.dtd">
<!-- Generated by graphviz version 2.47.3 (20210619.1520)
 -->
<!-- Title: FatFile::getAccessDateTime Pages: 1 -->
<!--zoomable 266 -->
<svg id="main" version="1.1" xmlns="http://www.w3.org/2000/svg" xmlns:xlink="http://www.w3.org/1999/xlink" xml:space="preserve" onload="init(evt)">
<style type="text/css"><![CDATA[
.edge:hover path { stroke: red; }
.edge:hover polygon { stroke: red; fill: red; }
]]></style>
<script type="text/javascript"><![CDATA[
var edges = document.getElementsByTagName('g');
if (edges && edges.length) {
  for (var i=0;i<edges.length;i++) {
    if (edges[i].id.substr(0,4)=='edge') {
      edges[i].setAttribute('class','edge');
    }
  }
}
]]></script>
        <defs>
                <circle id="rim" cx="0" cy="0" r="7"/>
                <circle id="rim2" cx="0" cy="0" r="3.5"/>
                <g id="zoomPlus">
                        <use xlink:href="#rim" fill="#404040">
                                <set attributeName="fill" to="#808080" begin="zoomplus.mouseover" end="zoomplus.mouseout"/>
                        </use>
                        <path d="M-4,0h8M0,-4v8" fill="none" stroke="white" stroke-width="1.5" pointer-events="none"/>
                </g>
                <g id="zoomMin">
                        <use xlink:href="#rim" fill="#404040">
                                <set attributeName="fill" to="#808080" begin="zoomminus.mouseover" end="zoomminus.mouseout"/>
                        </use>
                        <path d="M-4,0h8" fill="none" stroke="white" stroke-width="1.5" pointer-events="none"/>
                </g>
                <g id="dirArrow">
                        <path fill="none" stroke="white" stroke-width="1.5" d="M0,-3.0v7 M-2.5,-0.5L0,-3.0L2.5,-0.5"/>
                </g>
               <g id="resetDef">
                       <use xlink:href="#rim2" fill="#404040">
                               <set attributeName="fill" to="#808080" begin="reset.mouseover" end="reset.mouseout"/>
                       </use>
               </g>
        </defs>

<script type="text/javascript">
var viewWidth = 1481;
var viewHeight = 266;
var sectionId = 'dynsection-42';
</script>
<script xlink:href="../../svgpan.js"/>
<svg id="graph" class="graph">
<g id="viewport">
<title>FatFile::getAccessDateTime</title>
<polygon fill="white" stroke="transparent" points="-4,4 -4,-262 1477,-262 1477,4 -4,4"/>
<!-- Node1 -->
<g id="node1" class="node">
<title>Node1</title>
<g id="a_node1"><a xlink:title=" ">
<polygon fill="#bfbfbf" stroke="black" points="0,-129.5 0,-150.5 167,-150.5 167,-129.5 0,-129.5"/>
<text text-anchor="middle" x="83.5" y="-136.9" font-family="Helvetica,sans-Serif" font-size="12.00">FatFile::getAccessDateTime</text>
</a>
</g>
</g>
<!-- Node2 -->
<g id="node2" class="node">
<title>Node2</title>
<g id="a_node2"><a xlink:href="../../d3/d51/class_fat_file.html#a5d085c695e920b658a1505e480bc467f" target="_top" xlink:title=" ">
<polygon fill="white" stroke="black" points="203,-129.5 203,-150.5 343,-150.5 343,-129.5 203,-129.5"/>
<text text-anchor="middle" x="273" y="-136.9" font-family="Helvetica,sans-Serif" font-size="12.00">FatFile::getAccessDate</text>
</a>
</g>
</g>
<!-- Node1&#45;&gt;Node2 -->
<g id="edge1" class="edge">
<title>Node1&#45;&gt;Node2</title>
<path fill="none" stroke="midnightblue" d="M167.01,-140C175.53,-140 184.18,-140 192.67,-140"/>
<polygon fill="midnightblue" stroke="midnightblue" points="192.92,-143.5 202.92,-140 192.92,-136.5 192.92,-143.5"/>
</g>
<!-- Node3 -->
<g id="node3" class="node">
<title>Node3</title>
<g id="a_node3"><a xlink:href="../../d3/d51/class_fat_file.html#a2f4e9ab3056125b07f15d14ca26d5346" target="_top" xlink:title=" ">
<polygon fill="white" stroke="black" points="379,-149.5 379,-170.5 478,-170.5 478,-149.5 379,-149.5"/>
<text text-anchor="middle" x="428.5" y="-156.9" font-family="Helvetica,sans-Serif" font-size="12.00">FatFile::dirEntry</text>
</a>
</g>
</g>
<!-- Node2&#45;&gt;Node3 -->
<g id="edge2" class="edge">
<title>Node2&#45;&gt;Node3</title>
<path fill="none" stroke="midnightblue" d="M343.12,-149.01C351.72,-150.13 360.44,-151.26 368.86,-152.36"/>
<polygon fill="midnightblue" stroke="midnightblue" points="368.58,-155.85 378.95,-153.67 369.49,-148.91 368.58,-155.85"/>
</g>
<!-- Node39 -->
<g id="node16" class="node">
<title>Node39</title>
<g id="a_node16"><a xlink:href="../../d1/db3/_fs_structs_8h.html#a89aef4aa8e8032eab2982d660e7b8a81" target="_top" xlink:title=" ">
<polygon fill="white" stroke="black" points="398.5,-109.5 398.5,-130.5 458.5,-130.5 458.5,-109.5 398.5,-109.5"/>
<text text-anchor="middle" x="428.5" y="-116.9" font-family="Helvetica,sans-Serif" font-size="12.00">getLe16</text>
</a>
</g>
</g>
<!-- Node2&#45;&gt;Node39 -->
<g id="edge18" class="edge">
<title>Node2&#45;&gt;Node39</title>
<path fill="none" stroke="midnightblue" d="M343.12,-130.99C358.59,-128.98 374.48,-126.91 388.24,-125.12"/>
<polygon fill="midnightblue" stroke="midnightblue" points="388.84,-128.57 398.3,-123.8 387.93,-121.63 388.84,-128.57"/>
</g>
<!-- Node4 -->
<g id="node4" class="node">
<title>Node4</title>
<g id="a_node4"><a xlink:href="../../d3/d51/class_fat_file.html#a1de799df045e4f60e9ebbcd6d341f9a8" target="_top" xlink:title=" ">
<polygon fill="white" stroke="black" points="633,-198.5 633,-219.5 766,-219.5 766,-198.5 633,-198.5"/>
<text text-anchor="middle" x="699.5" y="-205.9" font-family="Helvetica,sans-Serif" font-size="12.00">FatFile::cacheDirEntry</text>
</a>
</g>
</g>
<!-- Node3&#45;&gt;Node4 -->
<g id="edge3" class="edge">
<title>Node3&#45;&gt;Node4</title>
<path fill="none" stroke="midnightblue" d="M478.21,-168.87C520.9,-176.65 583.38,-188.03 630.9,-196.69"/>
<polygon fill="midnightblue" stroke="midnightblue" points="630.34,-200.14 640.8,-198.49 631.59,-193.25 630.34,-200.14"/>
</g>
<!-- Node33 -->
<g id="node10" class="node">
<title>Node33</title>
<g id="a_node10"><a xlink:href="../../d3/d51/class_fat_file.html#a67f3dc4896c542d695e11aac927f585e" target="_top" xlink:title=" ">
<polygon fill="white" stroke="black" points="514,-120.5 514,-141.5 597,-141.5 597,-120.5 514,-120.5"/>
<text text-anchor="middle" x="555.5" y="-127.9" font-family="Helvetica,sans-Serif" font-size="12.00">FatFile::sync</text>
</a>
</g>
</g>
<!-- Node3&#45;&gt;Node33 -->
<g id="edge10" class="edge">
<title>Node3&#45;&gt;Node33</title>
<path fill="none" stroke="midnightblue" d="M474.98,-149.45C484.41,-147.26 494.4,-144.94 504,-142.72"/>
<polygon fill="midnightblue" stroke="midnightblue" points="504.86,-146.11 513.81,-140.44 503.28,-139.29 504.86,-146.11"/>
</g>
<!-- Node5 -->
<g id="node5" class="node">
<title>Node5</title>
<g id="a_node5"><a xlink:href="../../d0/d12/class_fat_partition.html#a4ecb12682599d63c7e765d31ca8e1de6" target="_top" xlink:title=" ">
<polygon fill="white" stroke="black" points="802,-198.5 802,-219.5 986,-219.5 986,-198.5 802,-198.5"/>
<text text-anchor="middle" x="894" y="-205.9" font-family="Helvetica,sans-Serif" font-size="12.00">FatPartition::dataCachePrepare</text>
</a>
</g>
</g>
<!-- Node4&#45;&gt;Node5 -->
<g id="edge4" class="edge">
<title>Node4&#45;&gt;Node5</title>
<path fill="none" stroke="midnightblue" d="M766.21,-209C774.43,-209 782.98,-209 791.59,-209"/>
<polygon fill="midnightblue" stroke="midnightblue" points="791.7,-212.5 801.7,-209 791.7,-205.5 791.7,-212.5"/>
</g>
<!-- Node6 -->
<g id="node6" class="node">
<title>Node6</title>
<g id="a_node6"><a xlink:href="../../d3/d77/class_fs_cache.html#a8c11f064a2ce0a380f522392f09d63cb" target="_top" xlink:title=" ">
<polygon fill="white" stroke="black" points="1022,-197.5 1022,-218.5 1134,-218.5 1134,-197.5 1022,-197.5"/>
<text text-anchor="middle" x="1078" y="-204.9" font-family="Helvetica,sans-Serif" font-size="12.00">FsCache::prepare</text>
</a>
</g>
</g>
<!-- Node5&#45;&gt;Node6 -->
<g id="edge5" class="edge">
<title>Node5&#45;&gt;Node6</title>
<path fill="none" stroke="midnightblue" d="M986.27,-208.5C994.75,-208.45 1003.23,-208.41 1011.41,-208.36"/>
<polygon fill="midnightblue" stroke="midnightblue" points="1011.61,-211.86 1021.59,-208.3 1011.57,-204.86 1011.61,-211.86"/>
</g>
<!-- Node7 -->
<g id="node7" class="node">
<title>Node7</title>
<g id="a_node7"><a xlink:href="../../d5/d4b/class_shared_spi_card.html#a61d86f4092f8ddbc7339d7cbcf6f70c0" target="_top" xlink:title=" ">
<polygon fill="white" stroke="red" points="1170,-236.5 1170,-257.5 1334,-257.5 1334,-236.5 1170,-236.5"/>
<text text-anchor="middle" x="1252" y="-243.9" font-family="Helvetica,sans-Serif" font-size="12.00">SharedSpiCard::readSector</text>
</a>
</g>
</g>
<!-- Node6&#45;&gt;Node7 -->
<g id="edge6" class="edge">
<title>Node6&#45;&gt;Node7</title>
<path fill="none" stroke="midnightblue" d="M1125.55,-218.55C1146.77,-223.37 1172.09,-229.11 1194.4,-234.17"/>
<polygon fill="midnightblue" stroke="midnightblue" points="1193.89,-237.64 1204.42,-236.44 1195.44,-230.81 1193.89,-237.64"/>
</g>
<!-- Node29 -->
<g id="node8" class="node">
<title>Node29</title>
<g id="a_node8"><a xlink:href="../../d3/d77/class_fs_cache.html#a5b90e145400de8687d9f34536b134130" target="_top" xlink:title=" ">
<polygon fill="white" stroke="black" points="1370,-177.5 1370,-198.5 1473,-198.5 1473,-177.5 1370,-177.5"/>
<text text-anchor="middle" x="1421.5" y="-184.9" font-family="Helvetica,sans-Serif" font-size="12.00">FsCache::sector</text>
</a>
</g>
</g>
<!-- Node6&#45;&gt;Node29 -->
<g id="edge7" class="edge">
<title>Node6&#45;&gt;Node29</title>
<path fill="none" stroke="midnightblue" d="M1134.25,-204.76C1195.94,-201.15 1295.5,-195.32 1359.45,-191.58"/>
<polygon fill="midnightblue" stroke="midnightblue" points="1360.01,-195.05 1369.79,-190.97 1359.6,-188.06 1360.01,-195.05"/>
</g>
<!-- Node30 -->
<g id="node9" class="node">
<title>Node30</title>
<g id="a_node9"><a xlink:href="../../d3/d77/class_fs_cache.html#a5a2c8fb432d7b7590ebb43200ca21893" target="_top" xlink:title=" ">
<polygon fill="white" stroke="red" points="1205,-158.5 1205,-179.5 1299,-179.5 1299,-158.5 1205,-158.5"/>
<text text-anchor="middle" x="1252" y="-165.9" font-family="Helvetica,sans-Serif" font-size="12.00">FsCache::sync</text>
</a>
</g>
</g>
<!-- Node6&#45;&gt;Node30 -->
<g id="edge8" class="edge">
<title>Node6&#45;&gt;Node30</title>
<path fill="none" stroke="midnightblue" d="M1125.55,-197.45C1146.86,-192.61 1172.29,-186.85 1194.67,-181.77"/>
<polygon fill="midnightblue" stroke="midnightblue" points="1195.74,-185.12 1204.72,-179.49 1194.19,-178.29 1195.74,-185.12"/>
</g>
<!-- Node30&#45;&gt;Node29 -->
<g id="edge9" class="edge">
<title>Node30&#45;&gt;Node29</title>
<path fill="none" stroke="midnightblue" d="M1299.21,-174.24C1317.93,-176.37 1339.81,-178.85 1359.79,-181.11"/>
<polygon fill="midnightblue" stroke="midnightblue" points="1359.4,-184.59 1369.73,-182.24 1360.19,-177.64 1359.4,-184.59"/>
</g>
<!-- Node33&#45;&gt;Node4 -->
<g id="edge11" class="edge">
<title>Node33&#45;&gt;Node4</title>
<path fill="none" stroke="midnightblue" d="M569.69,-141.62C584.46,-153.14 609.42,-171.57 633,-184 640.42,-187.92 648.6,-191.53 656.59,-194.73"/>
<polygon fill="midnightblue" stroke="midnightblue" points="655.58,-198.1 666.17,-198.42 658.09,-191.56 655.58,-198.1"/>
</g>
<!-- Node34 -->
<g id="node11" class="node">
<title>Node34</title>
<g id="a_node11"><a xlink:href="../../d0/d12/class_fat_partition.html#a38b128efffc3ea109f514b84582d406f" target="_top" xlink:title=" ">
<polygon fill="white" stroke="black" points="824,-158.5 824,-179.5 964,-179.5 964,-158.5 824,-158.5"/>
<text text-anchor="middle" x="894" y="-165.9" font-family="Helvetica,sans-Serif" font-size="12.00">FatPartition::cacheSync</text>
</a>
</g>
</g>
<!-- Node33&#45;&gt;Node34 -->
<g id="edge12" class="edge">
<title>Node33&#45;&gt;Node34</title>
<path fill="none" stroke="midnightblue" d="M591.24,-141.55C604.23,-145.1 619.18,-148.74 633,-151 693.17,-160.86 762.05,-165.33 813.78,-167.35"/>
<polygon fill="midnightblue" stroke="midnightblue" points="813.77,-170.85 823.89,-167.72 814.03,-163.85 813.77,-170.85"/>
</g>
<!-- Node35 -->
<g id="node12" class="node">
<title>Node35</title>
<g id="a_node12"><a xlink:href="../../d3/d51/class_fat_file.html#acc5a87da1a5c8cb9758bfeaa7ae47b57" target="_top" xlink:title=" ">
<polygon fill="white" stroke="black" points="655.5,-120.5 655.5,-141.5 743.5,-141.5 743.5,-120.5 655.5,-120.5"/>
<text text-anchor="middle" x="699.5" y="-127.9" font-family="Helvetica,sans-Serif" font-size="12.00">FatFile::isFile</text>
</a>
</g>
</g>
<!-- Node33&#45;&gt;Node35 -->
<g id="edge14" class="edge">
<title>Node33&#45;&gt;Node35</title>
<path fill="none" stroke="midnightblue" d="M597.19,-131C612.12,-131 629.24,-131 645.11,-131"/>
<polygon fill="midnightblue" stroke="midnightblue" points="645.32,-134.5 655.32,-131 645.32,-127.5 645.32,-134.5"/>
</g>
<!-- Node36 -->
<g id="node13" class="node">
<title>Node36</title>
<g id="a_node13"><a xlink:href="../../d3/d51/class_fat_file.html#a8b8a2850c086d3ce79bee64a23fbf7a6" target="_top" xlink:title=" ">
<polygon fill="white" stroke="black" points="651,-80.5 651,-101.5 748,-101.5 748,-80.5 651,-80.5"/>
<text text-anchor="middle" x="699.5" y="-87.9" font-family="Helvetica,sans-Serif" font-size="12.00">FatFile::isOpen</text>
</a>
</g>
</g>
<!-- Node33&#45;&gt;Node36 -->
<g id="edge15" class="edge">
<title>Node33&#45;&gt;Node36</title>
<path fill="none" stroke="midnightblue" d="M593.81,-120.49C611.36,-115.55 632.49,-109.59 651.16,-104.34"/>
<polygon fill="midnightblue" stroke="midnightblue" points="652.27,-107.66 660.95,-101.58 650.37,-100.92 652.27,-107.66"/>
</g>
<!-- Node37 -->
<g id="node14" class="node">
<title>Node37</title>
<g id="a_node14"><a xlink:href="../../d1/db3/_fs_structs_8h.html#a2a47595a3bb5c1f0f67d4f3dddac0a0e" target="_top" xlink:title=" ">
<polygon fill="white" stroke="black" points="670,-40.5 670,-61.5 729,-61.5 729,-40.5 670,-40.5"/>
<text text-anchor="middle" x="699.5" y="-47.9" font-family="Helvetica,sans-Serif" font-size="12.00">setLe16</text>
</a>
</g>
</g>
<!-- Node33&#45;&gt;Node37 -->
<g id="edge16" class="edge">
<title>Node33&#45;&gt;Node37</title>
<path fill="none" stroke="midnightblue" d="M567.49,-120.2C581.57,-106.9 607.26,-84.42 633,-71 641.44,-66.6 651,-62.99 660.17,-60.12"/>
<polygon fill="midnightblue" stroke="midnightblue" points="661.26,-63.45 669.88,-57.28 659.3,-56.73 661.26,-63.45"/>
</g>
<!-- Node38 -->
<g id="node15" class="node">
<title>Node38</title>
<g id="a_node15"><a xlink:href="../../d1/db3/_fs_structs_8h.html#a294114e9924b0436c1d110e692bef464" target="_top" xlink:title=" ">
<polygon fill="white" stroke="black" points="670,-0.5 670,-21.5 729,-21.5 729,-0.5 670,-0.5"/>
<text text-anchor="middle" x="699.5" y="-7.9" font-family="Helvetica,sans-Serif" font-size="12.00">setLe32</text>
</a>
</g>
</g>
<!-- Node33&#45;&gt;Node38 -->
<g id="edge17" class="edge">
<title>Node33&#45;&gt;Node38</title>
<path fill="none" stroke="midnightblue" d="M561.82,-120.18C572.47,-99.68 598.35,-55.07 633,-31 640.96,-25.47 650.49,-21.44 659.79,-18.5"/>
<polygon fill="midnightblue" stroke="midnightblue" points="661.01,-21.8 669.7,-15.73 659.12,-15.05 661.01,-21.8"/>
</g>
<!-- Node34&#45;&gt;Node30 -->
<g id="edge13" class="edge">
<title>Node34&#45;&gt;Node30</title>
<path fill="none" stroke="midnightblue" d="M964.06,-169C1031.29,-169 1132.21,-169 1194.71,-169"/>
<polygon fill="midnightblue" stroke="midnightblue" points="1194.78,-172.5 1204.78,-169 1194.78,-165.5 1194.78,-172.5"/>
</g>
</g>
</svg>
        <g id="navigator" transform="translate(0 0)" fill="#404254">
                <rect fill="#f2f5e9" fill-opacity="0.5" stroke="#606060" stroke-width=".5" x="0" y="0" width="60" height="60"/>
                <use id="zoomplus" xlink:href="#zoomPlus" x="17" y="9" onmousedown="handleZoom(evt,'in')"/>
                <use id="zoomminus" xlink:href="#zoomMin" x="42" y="9" onmousedown="handleZoom(evt,'out')"/>
                <use id="reset" xlink:href="#resetDef" x="30" y="36" onmousedown="handleReset()"/>
                <g id="arrowUp" xlink:href="#dirArrow" transform="translate(30 24)" onmousedown="handlePan(0,-1)">
                  <use xlink:href="#rim" fill="#404040">
                        <set attributeName="fill" to="#808080" begin="arrowUp.mouseover" end="arrowUp.mouseout"/>
                  </use>
                  <path fill="none" stroke="white" stroke-width="1.5" d="M0,-3.0v7 M-2.5,-0.5L0,-3.0L2.5,-0.5"/>
                </g>
                <g id="arrowRight" xlink:href="#dirArrow" transform="rotate(90) translate(36 -43)" onmousedown="handlePan(1,0)">
                  <use xlink:href="#rim" fill="#404040">
                        <set attributeName="fill" to="#808080" begin="arrowRight.mouseover" end="arrowRight.mouseout"/>
                  </use>
                  <path fill="none" stroke="white" stroke-width="1.5" d="M0,-3.0v7 M-2.5,-0.5L0,-3.0L2.5,-0.5"/>
                </g>
                <g id="arrowDown" xlink:href="#dirArrow" transform="rotate(180) translate(-30 -48)" onmousedown="handlePan(0,1)">
                  <use xlink:href="#rim" fill="#404040">
                        <set attributeName="fill" to="#808080" begin="arrowDown.mouseover" end="arrowDown.mouseout"/>
                  </use>
                  <path fill="none" stroke="white" stroke-width="1.5" d="M0,-3.0v7 M-2.5,-0.5L0,-3.0L2.5,-0.5"/>
                </g>
                <g id="arrowLeft" xlink:href="#dirArrow" transform="rotate(270) translate(-36 17)" onmousedown="handlePan(-1,0)">
                  <use xlink:href="#rim" fill="#404040">
                        <set attributeName="fill" to="#808080" begin="arrowLeft.mouseover" end="arrowLeft.mouseout"/>
                  </use>
                  <path fill="none" stroke="white" stroke-width="1.5" d="M0,-3.0v7 M-2.5,-0.5L0,-3.0L2.5,-0.5"/>
                </g>
        </g>
        <svg viewBox="0 0 15 15" width="100%" height="30px" preserveAspectRatio="xMaxYMin meet">
         <g id="arrow_out" transform="scale(0.3 0.3)">
          <a xlink:href="class_fat_file_af70c42baeb45e0d7047ae63de568d0d2_cgraph_org.svg" target="_base">
           <rect id="button" ry="5" rx="5" y="6" x="6" height="38" width="38"
                fill="#f2f5e9" fill-opacity="0.5" stroke="#606060" stroke-width="1.0"/>
           <path id="arrow"
             d="M 11.500037,31.436501 C 11.940474,20.09759 22.043105,11.32322 32.158766,21.979434 L 37.068811,17.246167 C 37.068811,17.246167 37.088388,32 37.088388,32 L 22.160133,31.978069 C 22.160133,31.978069 26.997745,27.140456 26.997745,27.140456 C 18.528582,18.264221 13.291696,25.230495 11.500037,31.436501 z"
             style="fill:#404040;"/>
          </a>
         </g>
        </svg>
</svg>
