<?xml version="1.0" encoding="UTF-8" standalone="no"?>
<!DOCTYPE svg PUBLIC "-//W3C//DTD SVG 1.1//EN"
 "http://www.w3.org/Graphics/SVG/1.1/DTD/svg11.dtd">
<!-- Generated by graphviz version 2.47.3 (20210619.1520)
 -->
<!-- Title: FatFile::fileSize Pages: 1 -->
<!--zoomable 139 -->
<svg id="main" version="1.1" xmlns="http://www.w3.org/2000/svg" xmlns:xlink="http://www.w3.org/1999/xlink" xml:space="preserve" onload="init(evt)">
<style type="text/css"><![CDATA[
.edge:hover path { stroke: red; }
.edge:hover polygon { stroke: red; fill: red; }
]]></style>
<script type="text/javascript"><![CDATA[
var edges = document.getElementsByTagName('g');
if (edges && edges.length) {
  for (var i=0;i<edges.length;i++) {
    if (edges[i].id.substr(0,4)=='edge') {
      edges[i].setAttribute('class','edge');
    }
  }
}
]]></script>
        <defs>
                <circle id="rim" cx="0" cy="0" r="7"/>
                <circle id="rim2" cx="0" cy="0" r="3.5"/>
                <g id="zoomPlus">
                        <use xlink:href="#rim" fill="#404040">
                                <set attributeName="fill" to="#808080" begin="zoomplus.mouseover" end="zoomplus.mouseout"/>
                        </use>
                        <path d="M-4,0h8M0,-4v8" fill="none" stroke="white" stroke-width="1.5" pointer-events="none"/>
                </g>
                <g id="zoomMin">
                        <use xlink:href="#rim" fill="#404040">
                                <set attributeName="fill" to="#808080" begin="zoomminus.mouseover" end="zoomminus.mouseout"/>
                        </use>
                        <path d="M-4,0h8" fill="none" stroke="white" stroke-width="1.5" pointer-events="none"/>
                </g>
                <g id="dirArrow">
                        <path fill="none" stroke="white" stroke-width="1.5" d="M0,-3.0v7 M-2.5,-0.5L0,-3.0L2.5,-0.5"/>
                </g>
               <g id="resetDef">
                       <use xlink:href="#rim2" fill="#404040">
                               <set attributeName="fill" to="#808080" begin="reset.mouseover" end="reset.mouseout"/>
                       </use>
               </g>
        </defs>

<script type="text/javascript">
var viewWidth = 612;
var viewHeight = 139;
var sectionId = 'dynsection-34';
</script>
<script xlink:href="../../svgpan.js"/>
<svg id="graph" class="graph">
<g id="viewport">
<title>FatFile::fileSize</title>
<polygon fill="white" stroke="transparent" points="-4,4 -4,-135 608,-135 608,4 -4,4"/>
<!-- Node1 -->
<g id="node1" class="node">
<title>Node1</title>
<g id="a_node1"><a xlink:title=" ">
<polygon fill="#bfbfbf" stroke="black" points="506,-40.5 506,-61.5 604,-61.5 604,-40.5 506,-40.5"/>
<text text-anchor="middle" x="555" y="-47.9" font-family="Helvetica,sans-Serif" font-size="12.00">FatFile::fileSize</text>
</a>
</g>
</g>
<!-- Node2 -->
<g id="node2" class="node">
<title>Node2</title>
<g id="a_node2"><a xlink:href="../../d3/d51/class_fat_file.html#ac304e37e45f3871395780021bf84cea1" target="_top" xlink:title=" ">
<polygon fill="white" stroke="black" points="348,-80.5 348,-101.5 467,-101.5 467,-80.5 348,-80.5"/>
<text text-anchor="middle" x="407.5" y="-87.9" font-family="Helvetica,sans-Serif" font-size="12.00">FatFile::available32</text>
</a>
</g>
</g>
<!-- Node1&#45;&gt;Node2 -->
<g id="edge1" class="edge">
<title>Node1&#45;&gt;Node2</title>
<path fill="none" stroke="midnightblue" d="M505.98,-64.2C486.73,-69.49 464.86,-75.5 446.73,-80.49"/>
<polygon fill="midnightblue" stroke="midnightblue" points="507.06,-67.54 515.77,-61.51 505.2,-60.79 507.06,-67.54"/>
</g>
<!-- Node6 -->
<g id="node6" class="node">
<title>Node6</title>
<g id="a_node6"><a xlink:href="../../d7/d76/class_fs_base_file.html#ae9650edc87d2e52c47da3b72242a2fa2" target="_top" xlink:title=" ">
<polygon fill="white" stroke="black" points="346.5,-40.5 346.5,-61.5 468.5,-61.5 468.5,-40.5 346.5,-40.5"/>
<text text-anchor="middle" x="407.5" y="-47.9" font-family="Helvetica,sans-Serif" font-size="12.00">FsBaseFile::fileSize</text>
</a>
</g>
</g>
<!-- Node1&#45;&gt;Node6 -->
<g id="edge5" class="edge">
<title>Node1&#45;&gt;Node6</title>
<path fill="none" stroke="midnightblue" d="M495.69,-51C486.81,-51 477.62,-51 468.69,-51"/>
<polygon fill="midnightblue" stroke="midnightblue" points="495.95,-54.5 505.95,-51 495.95,-47.5 495.95,-54.5"/>
</g>
<!-- Node7 -->
<g id="node7" class="node">
<title>Node7</title>
<g id="a_node7"><a xlink:href="../../d3/d51/class_fat_file.html#a12a5d2de2737c201aa39ca1bd2ab9c47" target="_top" xlink:title=" ">
<polygon fill="white" stroke="black" points="345,-0.5 345,-21.5 470,-21.5 470,-0.5 345,-0.5"/>
<text text-anchor="middle" x="407.5" y="-7.9" font-family="Helvetica,sans-Serif" font-size="12.00">FatFile::printFileSize</text>
</a>
</g>
</g>
<!-- Node1&#45;&gt;Node7 -->
<g id="edge6" class="edge">
<title>Node1&#45;&gt;Node7</title>
<path fill="none" stroke="midnightblue" d="M505.98,-37.8C486.73,-32.51 464.86,-26.5 446.73,-21.51"/>
<polygon fill="midnightblue" stroke="midnightblue" points="505.2,-41.21 515.77,-40.49 507.06,-34.46 505.2,-41.21"/>
</g>
<!-- Node3 -->
<g id="node3" class="node">
<title>Node3</title>
<g id="a_node3"><a xlink:href="../../d3/d51/class_fat_file.html#a7b3cb9982c0e8e6e627f28d8ee552446" target="_top" xlink:title=" ">
<polygon fill="white" stroke="black" points="184.5,-109.5 184.5,-130.5 290.5,-130.5 290.5,-109.5 184.5,-109.5"/>
<text text-anchor="middle" x="237.5" y="-116.9" font-family="Helvetica,sans-Serif" font-size="12.00">FatFile::available</text>
</a>
</g>
</g>
<!-- Node2&#45;&gt;Node3 -->
<g id="edge2" class="edge">
<title>Node2&#45;&gt;Node3</title>
<path fill="none" stroke="midnightblue" d="M337.54,-102.9C321.82,-105.62 305.37,-108.46 290.5,-111.02"/>
<polygon fill="midnightblue" stroke="midnightblue" points="338.48,-106.29 347.74,-101.14 337.29,-99.39 338.48,-106.29"/>
</g>
<!-- Node5 -->
<g id="node5" class="node">
<title>Node5</title>
<g id="a_node5"><a xlink:href="../../d7/d76/class_fs_base_file.html#a51ef5e33a8d4c9db1a5b212e15fb7da4" target="_top" xlink:title=" ">
<polygon fill="white" stroke="black" points="166,-69.5 166,-90.5 309,-90.5 309,-69.5 166,-69.5"/>
<text text-anchor="middle" x="237.5" y="-76.9" font-family="Helvetica,sans-Serif" font-size="12.00">FsBaseFile::available64</text>
</a>
</g>
</g>
<!-- Node2&#45;&gt;Node5 -->
<g id="edge4" class="edge">
<title>Node2&#45;&gt;Node5</title>
<path fill="none" stroke="midnightblue" d="M337.64,-86.49C328.21,-85.87 318.52,-85.24 309.06,-84.62"/>
<polygon fill="midnightblue" stroke="midnightblue" points="337.53,-89.99 347.74,-87.15 337.99,-83.01 337.53,-89.99"/>
</g>
<!-- Node4 -->
<g id="node4" class="node">
<title>Node4</title>
<g id="a_node4"><a xlink:href="../../d7/d76/class_fs_base_file.html#aac7a88177eec39ec7d4709ae861d5296" target="_top" xlink:title=" ">
<polygon fill="white" stroke="black" points="0,-109.5 0,-130.5 130,-130.5 130,-109.5 0,-109.5"/>
<text text-anchor="middle" x="65" y="-116.9" font-family="Helvetica,sans-Serif" font-size="12.00">FsBaseFile::available</text>
</a>
</g>
</g>
<!-- Node3&#45;&gt;Node4 -->
<g id="edge3" class="edge">
<title>Node3&#45;&gt;Node4</title>
<path fill="none" stroke="midnightblue" d="M174.16,-120C159.81,-120 144.52,-120 130.1,-120"/>
<polygon fill="midnightblue" stroke="midnightblue" points="174.42,-123.5 184.42,-120 174.42,-116.5 174.42,-123.5"/>
</g>
<!-- Node8 -->
<g id="node8" class="node">
<title>Node8</title>
<g id="a_node8"><a xlink:href="../../d3/d51/class_fat_file.html#a60ab9d16bcc778150a364c26de467de1" target="_top" xlink:title=" ">
<polygon fill="white" stroke="black" points="203.5,-0.5 203.5,-21.5 271.5,-21.5 271.5,-0.5 203.5,-0.5"/>
<text text-anchor="middle" x="237.5" y="-7.9" font-family="Helvetica,sans-Serif" font-size="12.00">FatFile::ls</text>
</a>
</g>
</g>
<!-- Node7&#45;&gt;Node8 -->
<g id="edge7" class="edge">
<title>Node7&#45;&gt;Node8</title>
<path fill="none" stroke="midnightblue" d="M334.62,-11C312.78,-11 289.81,-11 271.8,-11"/>
<polygon fill="midnightblue" stroke="midnightblue" points="334.9,-14.5 344.9,-11 334.9,-7.5 334.9,-14.5"/>
</g>
<!-- Node8&#45;&gt;Node8 -->
<g id="edge9" class="edge">
<title>Node8&#45;&gt;Node8</title>
<path fill="none" stroke="midnightblue" d="M269.13,-30.68C267.44,-35.97 256.89,-40 237.5,-40 207.95,-40 198.95,-30.65 210.49,-21.71"/>
<polygon fill="midnightblue" stroke="midnightblue" points="272.2,-29 264.51,-21.71 265.98,-32.2 272.2,-29"/>
</g>
<!-- Node9 -->
<g id="node9" class="node">
<title>Node9</title>
<g id="a_node9"><a xlink:href="../../d9/d27/class_fat_volume.html#ae40964f357cfff4208812344a0e6f26f" target="_top" xlink:title=" ">
<polygon fill="white" stroke="black" points="21,-0.5 21,-21.5 109,-21.5 109,-0.5 21,-0.5"/>
<text text-anchor="middle" x="65" y="-7.9" font-family="Helvetica,sans-Serif" font-size="12.00">FatVolume::ls</text>
</a>
</g>
</g>
<!-- Node8&#45;&gt;Node9 -->
<g id="edge8" class="edge">
<title>Node8&#45;&gt;Node9</title>
<path fill="none" stroke="midnightblue" d="M193.02,-11C167.31,-11 134.88,-11 109.22,-11"/>
<polygon fill="midnightblue" stroke="midnightblue" points="193.22,-14.5 203.22,-11 193.22,-7.5 193.22,-14.5"/>
</g>
</g>
</svg>
        <g id="navigator" transform="translate(0 0)" fill="#404254">
                <rect fill="#f2f5e9" fill-opacity="0.5" stroke="#606060" stroke-width=".5" x="0" y="0" width="60" height="60"/>
                <use id="zoomplus" xlink:href="#zoomPlus" x="17" y="9" onmousedown="handleZoom(evt,'in')"/>
                <use id="zoomminus" xlink:href="#zoomMin" x="42" y="9" onmousedown="handleZoom(evt,'out')"/>
                <use id="reset" xlink:href="#resetDef" x="30" y="36" onmousedown="handleReset()"/>
                <g id="arrowUp" xlink:href="#dirArrow" transform="translate(30 24)" onmousedown="handlePan(0,-1)">
                  <use xlink:href="#rim" fill="#404040">
                        <set attributeName="fill" to="#808080" begin="arrowUp.mouseover" end="arrowUp.mouseout"/>
                  </use>
                  <path fill="none" stroke="white" stroke-width="1.5" d="M0,-3.0v7 M-2.5,-0.5L0,-3.0L2.5,-0.5"/>
                </g>
                <g id="arrowRight" xlink:href="#dirArrow" transform="rotate(90) translate(36 -43)" onmousedown="handlePan(1,0)">
                  <use xlink:href="#rim" fill="#404040">
                        <set attributeName="fill" to="#808080" begin="arrowRight.mouseover" end="arrowRight.mouseout"/>
                  </use>
                  <path fill="none" stroke="white" stroke-width="1.5" d="M0,-3.0v7 M-2.5,-0.5L0,-3.0L2.5,-0.5"/>
                </g>
                <g id="arrowDown" xlink:href="#dirArrow" transform="rotate(180) translate(-30 -48)" onmousedown="handlePan(0,1)">
                  <use xlink:href="#rim" fill="#404040">
                        <set attributeName="fill" to="#808080" begin="arrowDown.mouseover" end="arrowDown.mouseout"/>
                  </use>
                  <path fill="none" stroke="white" stroke-width="1.5" d="M0,-3.0v7 M-2.5,-0.5L0,-3.0L2.5,-0.5"/>
                </g>
                <g id="arrowLeft" xlink:href="#dirArrow" transform="rotate(270) translate(-36 17)" onmousedown="handlePan(-1,0)">
                  <use xlink:href="#rim" fill="#404040">
                        <set attributeName="fill" to="#808080" begin="arrowLeft.mouseover" end="arrowLeft.mouseout"/>
                  </use>
                  <path fill="none" stroke="white" stroke-width="1.5" d="M0,-3.0v7 M-2.5,-0.5L0,-3.0L2.5,-0.5"/>
                </g>
        </g>
        <svg viewBox="0 0 15 15" width="100%" height="30px" preserveAspectRatio="xMaxYMin meet">
         <g id="arrow_out" transform="scale(0.3 0.3)">
          <a xlink:href="class_fat_file_a874940574b9c99e763526465adf8dc28_icgraph_org.svg" target="_base">
           <rect id="button" ry="5" rx="5" y="6" x="6" height="38" width="38"
                fill="#f2f5e9" fill-opacity="0.5" stroke="#606060" stroke-width="1.0"/>
           <path id="arrow"
             d="M 11.500037,31.436501 C 11.940474,20.09759 22.043105,11.32322 32.158766,21.979434 L 37.068811,17.246167 C 37.068811,17.246167 37.088388,32 37.088388,32 L 22.160133,31.978069 C 22.160133,31.978069 26.997745,27.140456 26.997745,27.140456 C 18.528582,18.264221 13.291696,25.230495 11.500037,31.436501 z"
             style="fill:#404040;"/>
          </a>
         </g>
        </svg>
</svg>
