<?xml version="1.0" encoding="UTF-8" standalone="no"?>
<!DOCTYPE svg PUBLIC "-//W3C//DTD SVG 1.1//EN"
 "http://www.w3.org/Graphics/SVG/1.1/DTD/svg11.dtd">
<!-- Generated by graphviz version 2.47.3 (20210619.1520)
 -->
<!-- Title: FatFile::getAccessDate Pages: 1 -->
<svg width="798pt" height="230pt"
 viewBox="0.00 0.00 798.00 230.00" xmlns="http://www.w3.org/2000/svg" xmlns:xlink="http://www.w3.org/1999/xlink">
<g id="graph0" class="graph" transform="scale(1 1) rotate(0) translate(4 226)">
<title>FatFile::getAccessDate</title>
<polygon fill="white" stroke="transparent" points="-4,4 -4,-226 794,-226 794,4 -4,4"/>
<!-- Node1 -->
<g id="node1" class="node">
<title>Node1</title>
<g id="a_node1"><a xlink:title=" ">
<polygon fill="#bfbfbf" stroke="black" points="0,-130.5 0,-151.5 140,-151.5 140,-130.5 0,-130.5"/>
<text text-anchor="middle" x="70" y="-137.9" font-family="Helvetica,sans-Serif" font-size="12.00">FatFile::getAccessDate</text>
</a>
</g>
</g>
<!-- Node2 -->
<g id="node2" class="node">
<title>Node2</title>
<g id="a_node2"><a xlink:href="../../d3/d51/class_fat_file.html#a2f4e9ab3056125b07f15d14ca26d5346" target="_top" xlink:title=" ">
<polygon fill="white" stroke="black" points="176,-150.5 176,-171.5 275,-171.5 275,-150.5 176,-150.5"/>
<text text-anchor="middle" x="225.5" y="-157.9" font-family="Helvetica,sans-Serif" font-size="12.00">FatFile::dirEntry</text>
</a>
</g>
</g>
<!-- Node1&#45;&gt;Node2 -->
<g id="edge1" class="edge">
<title>Node1&#45;&gt;Node2</title>
<path fill="none" stroke="midnightblue" d="M140.12,-150.01C148.72,-151.13 157.44,-152.26 165.86,-153.36"/>
<polygon fill="midnightblue" stroke="midnightblue" points="165.58,-156.85 175.95,-154.67 166.49,-149.91 165.58,-156.85"/>
</g>
<!-- Node38 -->
<g id="node11" class="node">
<title>Node38</title>
<g id="a_node11"><a xlink:href="../../d1/db3/_fs_structs_8h.html#a89aef4aa8e8032eab2982d660e7b8a81" target="_top" xlink:title=" ">
<polygon fill="white" stroke="black" points="195.5,-110.5 195.5,-131.5 255.5,-131.5 255.5,-110.5 195.5,-110.5"/>
<text text-anchor="middle" x="225.5" y="-117.9" font-family="Helvetica,sans-Serif" font-size="12.00">getLe16</text>
</a>
</g>
</g>
<!-- Node1&#45;&gt;Node38 -->
<g id="edge11" class="edge">
<title>Node1&#45;&gt;Node38</title>
<path fill="none" stroke="midnightblue" d="M140.12,-131.99C155.59,-129.98 171.48,-127.91 185.24,-126.12"/>
<polygon fill="midnightblue" stroke="midnightblue" points="185.84,-129.57 195.3,-124.8 184.93,-122.63 185.84,-129.57"/>
</g>
<!-- Node3 -->
<g id="node3" class="node">
<title>Node3</title>
<g id="a_node3"><a xlink:href="../../d3/d51/class_fat_file.html#a1de799df045e4f60e9ebbcd6d341f9a8" target="_top" xlink:title=" ">
<polygon fill="white" stroke="black" points="433.5,-200.5 433.5,-221.5 566.5,-221.5 566.5,-200.5 433.5,-200.5"/>
<text text-anchor="middle" x="500" y="-207.9" font-family="Helvetica,sans-Serif" font-size="12.00">FatFile::cacheDirEntry</text>
</a>
</g>
</g>
<!-- Node2&#45;&gt;Node3 -->
<g id="edge2" class="edge">
<title>Node2&#45;&gt;Node3</title>
<path fill="none" stroke="midnightblue" d="M275.22,-169.94C318.81,-177.94 383.13,-189.74 431.64,-198.64"/>
<polygon fill="midnightblue" stroke="midnightblue" points="431.27,-202.13 441.74,-200.49 432.53,-195.25 431.27,-202.13"/>
</g>
<!-- Node32 -->
<g id="node5" class="node">
<title>Node32</title>
<g id="a_node5"><a xlink:href="../../d3/d51/class_fat_file.html#a67f3dc4896c542d695e11aac927f585e" target="_top" xlink:title=" ">
<polygon fill="white" stroke="black" points="311,-120.5 311,-141.5 394,-141.5 394,-120.5 311,-120.5"/>
<text text-anchor="middle" x="352.5" y="-127.9" font-family="Helvetica,sans-Serif" font-size="12.00">FatFile::sync</text>
</a>
</g>
</g>
<!-- Node2&#45;&gt;Node32 -->
<g id="edge4" class="edge">
<title>Node2&#45;&gt;Node32</title>
<path fill="none" stroke="midnightblue" d="M270.57,-150.42C280.38,-148.07 290.85,-145.56 300.89,-143.15"/>
<polygon fill="midnightblue" stroke="midnightblue" points="301.85,-146.52 310.75,-140.78 300.21,-139.71 301.85,-146.52"/>
</g>
<!-- Node4 -->
<g id="node4" class="node">
<title>Node4</title>
<g id="a_node4"><a xlink:href="../../d0/d12/class_fat_partition.html#a4ecb12682599d63c7e765d31ca8e1de6" target="_top" xlink:title=" ">
<polygon fill="white" stroke="red" points="606,-200.5 606,-221.5 790,-221.5 790,-200.5 606,-200.5"/>
<text text-anchor="middle" x="698" y="-207.9" font-family="Helvetica,sans-Serif" font-size="12.00">FatPartition::dataCachePrepare</text>
</a>
</g>
</g>
<!-- Node3&#45;&gt;Node4 -->
<g id="edge3" class="edge">
<title>Node3&#45;&gt;Node4</title>
<path fill="none" stroke="midnightblue" d="M566.54,-211C575.87,-211 585.65,-211 595.47,-211"/>
<polygon fill="midnightblue" stroke="midnightblue" points="595.71,-214.5 605.71,-211 595.71,-207.5 595.71,-214.5"/>
</g>
<!-- Node32&#45;&gt;Node3 -->
<g id="edge5" class="edge">
<title>Node32&#45;&gt;Node3</title>
<path fill="none" stroke="midnightblue" d="M364.46,-141.86C378.51,-155.23 404.16,-177.76 430,-191 434.28,-193.2 438.84,-195.18 443.5,-196.98"/>
<polygon fill="midnightblue" stroke="midnightblue" points="442.54,-200.35 453.13,-200.39 444.88,-193.75 442.54,-200.35"/>
</g>
<!-- Node33 -->
<g id="node6" class="node">
<title>Node33</title>
<g id="a_node6"><a xlink:href="../../d0/d12/class_fat_partition.html#a38b128efffc3ea109f514b84582d406f" target="_top" xlink:title=" ">
<polygon fill="white" stroke="red" points="430,-160.5 430,-181.5 570,-181.5 570,-160.5 430,-160.5"/>
<text text-anchor="middle" x="500" y="-167.9" font-family="Helvetica,sans-Serif" font-size="12.00">FatPartition::cacheSync</text>
</a>
</g>
</g>
<!-- Node32&#45;&gt;Node33 -->
<g id="edge6" class="edge">
<title>Node32&#45;&gt;Node33</title>
<path fill="none" stroke="midnightblue" d="M391.73,-141.51C409.87,-146.5 431.74,-152.51 450.98,-157.8"/>
<polygon fill="midnightblue" stroke="midnightblue" points="450.2,-161.22 460.77,-160.49 452.06,-154.47 450.2,-161.22"/>
</g>
<!-- Node34 -->
<g id="node7" class="node">
<title>Node34</title>
<g id="a_node7"><a xlink:href="../../d3/d51/class_fat_file.html#acc5a87da1a5c8cb9758bfeaa7ae47b57" target="_top" xlink:title=" ">
<polygon fill="white" stroke="black" points="456,-120.5 456,-141.5 544,-141.5 544,-120.5 456,-120.5"/>
<text text-anchor="middle" x="500" y="-127.9" font-family="Helvetica,sans-Serif" font-size="12.00">FatFile::isFile</text>
</a>
</g>
</g>
<!-- Node32&#45;&gt;Node34 -->
<g id="edge7" class="edge">
<title>Node32&#45;&gt;Node34</title>
<path fill="none" stroke="midnightblue" d="M394.03,-131C409.98,-131 428.51,-131 445.53,-131"/>
<polygon fill="midnightblue" stroke="midnightblue" points="445.89,-134.5 455.89,-131 445.89,-127.5 445.89,-134.5"/>
</g>
<!-- Node35 -->
<g id="node8" class="node">
<title>Node35</title>
<g id="a_node8"><a xlink:href="../../d3/d51/class_fat_file.html#a8b8a2850c086d3ce79bee64a23fbf7a6" target="_top" xlink:title=" ">
<polygon fill="white" stroke="black" points="451.5,-80.5 451.5,-101.5 548.5,-101.5 548.5,-80.5 451.5,-80.5"/>
<text text-anchor="middle" x="500" y="-87.9" font-family="Helvetica,sans-Serif" font-size="12.00">FatFile::isOpen</text>
</a>
</g>
</g>
<!-- Node32&#45;&gt;Node35 -->
<g id="edge8" class="edge">
<title>Node32&#45;&gt;Node35</title>
<path fill="none" stroke="midnightblue" d="M391.73,-120.49C409.87,-115.5 431.74,-109.49 450.98,-104.2"/>
<polygon fill="midnightblue" stroke="midnightblue" points="452.06,-107.53 460.77,-101.51 450.2,-100.78 452.06,-107.53"/>
</g>
<!-- Node36 -->
<g id="node9" class="node">
<title>Node36</title>
<g id="a_node9"><a xlink:href="../../d1/db3/_fs_structs_8h.html#a2a47595a3bb5c1f0f67d4f3dddac0a0e" target="_top" xlink:title=" ">
<polygon fill="white" stroke="black" points="470.5,-40.5 470.5,-61.5 529.5,-61.5 529.5,-40.5 470.5,-40.5"/>
<text text-anchor="middle" x="500" y="-47.9" font-family="Helvetica,sans-Serif" font-size="12.00">setLe16</text>
</a>
</g>
</g>
<!-- Node32&#45;&gt;Node36 -->
<g id="edge9" class="edge">
<title>Node32&#45;&gt;Node36</title>
<path fill="none" stroke="midnightblue" d="M364.46,-120.14C378.51,-106.77 404.16,-84.24 430,-71 439.41,-66.18 450.15,-62.36 460.31,-59.4"/>
<polygon fill="midnightblue" stroke="midnightblue" points="461.46,-62.72 470.2,-56.73 459.64,-55.96 461.46,-62.72"/>
</g>
<!-- Node37 -->
<g id="node10" class="node">
<title>Node37</title>
<g id="a_node10"><a xlink:href="../../d1/db3/_fs_structs_8h.html#a294114e9924b0436c1d110e692bef464" target="_top" xlink:title=" ">
<polygon fill="white" stroke="black" points="470.5,-0.5 470.5,-21.5 529.5,-21.5 529.5,-0.5 470.5,-0.5"/>
<text text-anchor="middle" x="500" y="-7.9" font-family="Helvetica,sans-Serif" font-size="12.00">setLe32</text>
</a>
</g>
</g>
<!-- Node32&#45;&gt;Node37 -->
<g id="edge10" class="edge">
<title>Node32&#45;&gt;Node37</title>
<path fill="none" stroke="midnightblue" d="M358.63,-120.46C369.11,-100.02 395,-54.94 430,-31 439.05,-24.81 450.02,-20.51 460.52,-17.54"/>
<polygon fill="midnightblue" stroke="midnightblue" points="461.53,-20.9 470.38,-15.07 459.83,-14.11 461.53,-20.9"/>
</g>
</g>
</svg>
