<?xml version="1.0" encoding="UTF-8" standalone="no"?>
<!DOCTYPE svg PUBLIC "-//W3C//DTD SVG 1.1//EN"
 "http://www.w3.org/Graphics/SVG/1.1/DTD/svg11.dtd">
<!-- Generated by graphviz version 2.47.3 (20210619.1520)
 -->
<!-- Title: FatFile::truncate Pages: 1 -->
<svg width="834pt" height="613pt"
 viewBox="0.00 0.00 834.00 613.00" xmlns="http://www.w3.org/2000/svg" xmlns:xlink="http://www.w3.org/1999/xlink">
<g id="graph0" class="graph" transform="scale(1 1) rotate(0) translate(4 609)">
<title>FatFile::truncate</title>
<polygon fill="white" stroke="transparent" points="-4,4 -4,-609 830,-609 830,4 -4,4"/>
<!-- Node1 -->
<g id="node1" class="node">
<title>Node1</title>
<g id="a_node1"><a xlink:title=" ">
<polygon fill="#bfbfbf" stroke="black" points="0,-195.5 0,-216.5 101,-216.5 101,-195.5 0,-195.5"/>
<text text-anchor="middle" x="50.5" y="-202.9" font-family="Helvetica,sans-Serif" font-size="12.00">FatFile::truncate</text>
</a>
</g>
</g>
<!-- Node2 -->
<g id="node2" class="node">
<title>Node2</title>
<g id="a_node2"><a xlink:href="../../d3/d51/class_fat_file.html#ab067190d25733ed7e697d9890f61fd7a" target="_top" xlink:title=" ">
<polygon fill="white" stroke="black" points="292.5,-256.5 292.5,-277.5 395.5,-277.5 395.5,-256.5 292.5,-256.5"/>
<text text-anchor="middle" x="344" y="-263.9" font-family="Helvetica,sans-Serif" font-size="12.00">FatFile::seekSet</text>
</a>
</g>
</g>
<!-- Node1&#45;&gt;Node2 -->
<g id="edge1" class="edge">
<title>Node1&#45;&gt;Node2</title>
<path fill="none" stroke="midnightblue" d="M101.28,-216.42C151.39,-226.9 228.73,-243.09 282.38,-254.32"/>
<polygon fill="midnightblue" stroke="midnightblue" points="281.94,-257.8 292.45,-256.42 283.38,-250.95 281.94,-257.8"/>
</g>
<!-- Node15 -->
<g id="node15" class="node">
<title>Node15</title>
<g id="a_node15"><a xlink:href="../../d3/d51/class_fat_file.html#a7dda881dac19ea2aa9b2e85a229a98d7" target="_top" xlink:title=" ">
<polygon fill="white" stroke="black" points="137,-176.5 137,-197.5 238,-197.5 238,-176.5 137,-176.5"/>
<text text-anchor="middle" x="187.5" y="-183.9" font-family="Helvetica,sans-Serif" font-size="12.00">FatFile::truncate</text>
</a>
</g>
</g>
<!-- Node1&#45;&gt;Node15 -->
<g id="edge14" class="edge">
<title>Node1&#45;&gt;Node15</title>
<path fill="none" stroke="midnightblue" d="M101,-199.03C109.33,-197.86 118.06,-196.63 126.61,-195.43"/>
<polygon fill="midnightblue" stroke="midnightblue" points="127.14,-198.89 136.55,-194.03 126.16,-191.96 127.14,-198.89"/>
</g>
<!-- Node3 -->
<g id="node3" class="node">
<title>Node3</title>
<g id="a_node3"><a xlink:href="../../d0/d12/class_fat_partition.html#a2ea0ef5944df052c41613d2934f54e2b" target="_top" xlink:title=" ">
<polygon fill="white" stroke="black" points="450,-357 450,-391 617,-391 617,-357 450,-357"/>
<text text-anchor="start" x="458" y="-377.4" font-family="Helvetica,sans-Serif" font-size="12.00">FatPartition::bytesPerCluster</text>
<text text-anchor="middle" x="533.5" y="-364.4" font-family="Helvetica,sans-Serif" font-size="12.00">Shift</text>
</a>
</g>
</g>
<!-- Node2&#45;&gt;Node3 -->
<g id="edge2" class="edge">
<title>Node2&#45;&gt;Node3</title>
<path fill="none" stroke="midnightblue" d="M356.39,-277.77C374.76,-294.64 412.67,-327.39 450,-347 454.2,-349.21 458.61,-351.28 463.12,-353.21"/>
<polygon fill="midnightblue" stroke="midnightblue" points="461.9,-356.49 472.48,-357 464.53,-350.01 461.9,-356.49"/>
</g>
<!-- Node4 -->
<g id="node4" class="node">
<title>Node4</title>
<g id="a_node4"><a xlink:href="../../d0/d12/class_fat_partition.html#a1440b49fb2ddf01cc9635cfe83dcc0c8" target="_top" xlink:title=" ">
<polygon fill="white" stroke="black" points="476,-503.5 476,-524.5 591,-524.5 591,-503.5 476,-503.5"/>
<text text-anchor="middle" x="533.5" y="-510.9" font-family="Helvetica,sans-Serif" font-size="12.00">FatPartition::fatGet</text>
</a>
</g>
</g>
<!-- Node2&#45;&gt;Node4 -->
<g id="edge3" class="edge">
<title>Node2&#45;&gt;Node4</title>
<path fill="none" stroke="midnightblue" d="M349.8,-277.55C370.07,-322.02 447.67,-492.08 450,-494 454.86,-497.99 460.39,-501.21 466.23,-503.8"/>
<polygon fill="midnightblue" stroke="midnightblue" points="465.03,-507.08 475.62,-507.37 467.52,-500.54 465.03,-507.08"/>
</g>
<!-- Node10 -->
<g id="node10" class="node">
<title>Node10</title>
<g id="a_node10"><a xlink:href="../../d3/d51/class_fat_file.html#acc5a87da1a5c8cb9758bfeaa7ae47b57" target="_top" xlink:title=" ">
<polygon fill="white" stroke="black" points="489.5,-196.5 489.5,-217.5 577.5,-217.5 577.5,-196.5 489.5,-196.5"/>
<text text-anchor="middle" x="533.5" y="-203.9" font-family="Helvetica,sans-Serif" font-size="12.00">FatFile::isFile</text>
</a>
</g>
</g>
<!-- Node2&#45;&gt;Node10 -->
<g id="edge9" class="edge">
<title>Node2&#45;&gt;Node10</title>
<path fill="none" stroke="midnightblue" d="M370.15,-256.39C391.22,-247.75 422.24,-235.61 450,-227 459.5,-224.05 469.73,-221.27 479.64,-218.77"/>
<polygon fill="midnightblue" stroke="midnightblue" points="480.53,-222.15 489.4,-216.36 478.85,-215.35 480.53,-222.15"/>
</g>
<!-- Node11 -->
<g id="node11" class="node">
<title>Node11</title>
<g id="a_node11"><a xlink:href="../../d3/d51/class_fat_file.html#a8b8a2850c086d3ce79bee64a23fbf7a6" target="_top" xlink:title=" ">
<polygon fill="white" stroke="black" points="485,-156.5 485,-177.5 582,-177.5 582,-156.5 485,-156.5"/>
<text text-anchor="middle" x="533.5" y="-163.9" font-family="Helvetica,sans-Serif" font-size="12.00">FatFile::isOpen</text>
</a>
</g>
</g>
<!-- Node2&#45;&gt;Node11 -->
<g id="edge10" class="edge">
<title>Node2&#45;&gt;Node11</title>
<path fill="none" stroke="midnightblue" d="M355.63,-256.44C373.52,-239.25 411.52,-205.33 450,-187 457.83,-183.27 466.42,-180.2 475.01,-177.68"/>
<polygon fill="midnightblue" stroke="midnightblue" points="475.92,-181.06 484.66,-175.06 474.09,-174.3 475.92,-181.06"/>
</g>
<!-- Node12 -->
<g id="node12" class="node">
<title>Node12</title>
<g id="a_node12"><a xlink:href="../../d3/d51/class_fat_file.html#a8fda8004720ec4cc55710869dbb52e35" target="_top" xlink:title=" ">
<polygon fill="white" stroke="black" points="480,-316.5 480,-337.5 587,-337.5 587,-316.5 480,-316.5"/>
<text text-anchor="middle" x="533.5" y="-323.9" font-family="Helvetica,sans-Serif" font-size="12.00">FatFile::isRoot32</text>
</a>
</g>
</g>
<!-- Node2&#45;&gt;Node12 -->
<g id="edge11" class="edge">
<title>Node2&#45;&gt;Node12</title>
<path fill="none" stroke="midnightblue" d="M370.15,-277.61C391.22,-286.25 422.24,-298.39 450,-307 457.99,-309.48 466.5,-311.84 474.9,-314.02"/>
<polygon fill="midnightblue" stroke="midnightblue" points="474.12,-317.43 484.67,-316.49 475.83,-310.65 474.12,-317.43"/>
</g>
<!-- Node13 -->
<g id="node13" class="node">
<title>Node13</title>
<g id="a_node13"><a xlink:href="../../d3/d51/class_fat_file.html#a0cc65089f7ce6c1ff92edbf0bff59dee" target="_top" xlink:title=" ">
<polygon fill="white" stroke="black" points="472.5,-276.5 472.5,-297.5 594.5,-297.5 594.5,-276.5 472.5,-276.5"/>
<text text-anchor="middle" x="533.5" y="-283.9" font-family="Helvetica,sans-Serif" font-size="12.00">FatFile::isRootFixed</text>
</a>
</g>
</g>
<!-- Node2&#45;&gt;Node13 -->
<g id="edge12" class="edge">
<title>Node2&#45;&gt;Node13</title>
<path fill="none" stroke="midnightblue" d="M395.74,-272.41C416.24,-274.6 440.25,-277.16 462.38,-279.52"/>
<polygon fill="midnightblue" stroke="midnightblue" points="462.08,-283.01 472.39,-280.59 462.82,-276.05 462.08,-283.01"/>
</g>
<!-- Node14 -->
<g id="node14" class="node">
<title>Node14</title>
<g id="a_node14"><a xlink:href="../../d0/d12/class_fat_partition.html#a5d005e0f6fd4b84da8a5ebdea03aaf85" target="_top" xlink:title=" ">
<polygon fill="white" stroke="black" points="461.5,-236.5 461.5,-257.5 605.5,-257.5 605.5,-236.5 461.5,-236.5"/>
<text text-anchor="middle" x="533.5" y="-243.9" font-family="Helvetica,sans-Serif" font-size="12.00">FatPartition::rootDirStart</text>
</a>
</g>
</g>
<!-- Node2&#45;&gt;Node14 -->
<g id="edge13" class="edge">
<title>Node2&#45;&gt;Node14</title>
<path fill="none" stroke="midnightblue" d="M395.74,-261.59C412.84,-259.76 432.38,-257.68 451.23,-255.67"/>
<polygon fill="midnightblue" stroke="midnightblue" points="451.73,-259.13 461.31,-254.59 450.99,-252.17 451.73,-259.13"/>
</g>
<!-- Node5 -->
<g id="node5" class="node">
<title>Node5</title>
<g id="a_node5"><a xlink:href="../../d0/d12/class_fat_partition.html#ab66fe5983e740eb910826e1baa9c87f5" target="_top" xlink:title=" ">
<polygon fill="white" stroke="black" points="653,-463.5 653,-484.5 826,-484.5 826,-463.5 653,-463.5"/>
<text text-anchor="middle" x="739.5" y="-470.9" font-family="Helvetica,sans-Serif" font-size="12.00">FatPartition::fatCachePrepare</text>
</a>
</g>
</g>
<!-- Node4&#45;&gt;Node5 -->
<g id="edge4" class="edge">
<title>Node4&#45;&gt;Node5</title>
<path fill="none" stroke="midnightblue" d="M588.1,-503.49C614.7,-498.27 647.02,-491.94 674.87,-486.48"/>
<polygon fill="midnightblue" stroke="midnightblue" points="675.77,-489.87 684.91,-484.51 674.42,-483 675.77,-489.87"/>
</g>
<!-- Node6 -->
<g id="node6" class="node">
<title>Node6</title>
<g id="a_node6"><a xlink:href="../../d0/d12/class_fat_partition.html#ad45c276232d7093b82f1075e8c488bac" target="_top" xlink:title=" ">
<polygon fill="white" stroke="black" points="678.5,-423.5 678.5,-444.5 800.5,-444.5 800.5,-423.5 678.5,-423.5"/>
<text text-anchor="middle" x="739.5" y="-430.9" font-family="Helvetica,sans-Serif" font-size="12.00">FatPartition::fatType</text>
</a>
</g>
</g>
<!-- Node4&#45;&gt;Node6 -->
<g id="edge5" class="edge">
<title>Node4&#45;&gt;Node6</title>
<path fill="none" stroke="midnightblue" d="M591.31,-505.02C600.27,-502.27 609.15,-498.68 617,-494 637.54,-481.75 632.41,-466.17 653,-454 657.84,-451.14 663.06,-448.69 668.45,-446.59"/>
<polygon fill="midnightblue" stroke="midnightblue" points="669.99,-449.76 678.29,-443.17 667.69,-443.14 669.99,-449.76"/>
</g>
<!-- Node7 -->
<g id="node7" class="node">
<title>Node7</title>
<g id="a_node7"><a xlink:href="../../d1/db3/_fs_structs_8h.html#a89aef4aa8e8032eab2982d660e7b8a81" target="_top" xlink:title=" ">
<polygon fill="white" stroke="black" points="709.5,-583.5 709.5,-604.5 769.5,-604.5 769.5,-583.5 709.5,-583.5"/>
<text text-anchor="middle" x="739.5" y="-590.9" font-family="Helvetica,sans-Serif" font-size="12.00">getLe16</text>
</a>
</g>
</g>
<!-- Node4&#45;&gt;Node7 -->
<g id="edge6" class="edge">
<title>Node4&#45;&gt;Node7</title>
<path fill="none" stroke="midnightblue" d="M551.97,-524.53C574.58,-537.75 615.51,-560.35 653,-574 667.78,-579.38 684.54,-583.68 699.28,-586.88"/>
<polygon fill="midnightblue" stroke="midnightblue" points="698.6,-590.32 709.11,-588.93 700.03,-583.46 698.6,-590.32"/>
</g>
<!-- Node8 -->
<g id="node8" class="node">
<title>Node8</title>
<g id="a_node8"><a xlink:href="../../d1/db3/_fs_structs_8h.html#a07fdcae728ab56cd53f71c6c17b1889c" target="_top" xlink:title=" ">
<polygon fill="white" stroke="black" points="709.5,-543.5 709.5,-564.5 769.5,-564.5 769.5,-543.5 709.5,-543.5"/>
<text text-anchor="middle" x="739.5" y="-550.9" font-family="Helvetica,sans-Serif" font-size="12.00">getLe32</text>
</a>
</g>
</g>
<!-- Node4&#45;&gt;Node8 -->
<g id="edge7" class="edge">
<title>Node4&#45;&gt;Node8</title>
<path fill="none" stroke="midnightblue" d="M588.1,-524.51C622.99,-531.35 667.72,-540.12 699.31,-546.31"/>
<polygon fill="midnightblue" stroke="midnightblue" points="698.99,-549.82 709.48,-548.31 700.34,-542.95 698.99,-549.82"/>
</g>
<!-- Node9 -->
<g id="node9" class="node">
<title>Node9</title>
<g id="a_node9"><a xlink:href="../../d0/d12/class_fat_partition.html#aaa16ebfce14bbbde1bae82061ad66e0e" target="_top" xlink:title=" ">
<polygon fill="white" stroke="black" points="680,-503.5 680,-524.5 799,-524.5 799,-503.5 680,-503.5"/>
<text text-anchor="middle" x="739.5" y="-510.9" font-family="Helvetica,sans-Serif" font-size="12.00">FatPartition::isEOC</text>
</a>
</g>
</g>
<!-- Node4&#45;&gt;Node9 -->
<g id="edge8" class="edge">
<title>Node4&#45;&gt;Node9</title>
<path fill="none" stroke="midnightblue" d="M591.05,-514C615.41,-514 644.12,-514 669.7,-514"/>
<polygon fill="midnightblue" stroke="midnightblue" points="669.7,-517.5 679.7,-514 669.7,-510.5 669.7,-517.5"/>
</g>
<!-- Node15&#45;&gt;Node4 -->
<g id="edge15" class="edge">
<title>Node15&#45;&gt;Node4</title>
<path fill="none" stroke="midnightblue" d="M188.32,-197.55C188.22,-238.19 193.61,-385.9 274,-459 325.88,-506.17 407.94,-516.63 465.66,-517.39"/>
<polygon fill="midnightblue" stroke="midnightblue" points="465.77,-520.89 475.78,-517.43 465.79,-513.89 465.77,-520.89"/>
</g>
<!-- Node16 -->
<g id="node16" class="node">
<title>Node16</title>
<g id="a_node16"><a xlink:href="../../d0/d12/class_fat_partition.html#a88fc3df4331a720ed8c0679f0ff525fe" target="_top" xlink:title=" ">
<polygon fill="white" stroke="black" points="274,-116.5 274,-137.5 414,-137.5 414,-116.5 274,-116.5"/>
<text text-anchor="middle" x="344" y="-123.9" font-family="Helvetica,sans-Serif" font-size="12.00">FatPartition::fatPutEOC</text>
</a>
</g>
</g>
<!-- Node15&#45;&gt;Node16 -->
<g id="edge16" class="edge">
<title>Node15&#45;&gt;Node16</title>
<path fill="none" stroke="midnightblue" d="M208.85,-176.38C225.93,-167.74 251.15,-155.6 274,-147 279.98,-144.75 286.32,-142.6 292.65,-140.6"/>
<polygon fill="midnightblue" stroke="midnightblue" points="293.98,-143.86 302.52,-137.59 291.93,-137.16 293.98,-143.86"/>
</g>
<!-- Node17 -->
<g id="node17" class="node">
<title>Node17</title>
<g id="a_node17"><a xlink:href="../../d0/d12/class_fat_partition.html#a5a28c1b85462f00bef1640c445764492" target="_top" xlink:title=" ">
<polygon fill="white" stroke="black" points="277,-428.5 277,-449.5 411,-449.5 411,-428.5 277,-428.5"/>
<text text-anchor="middle" x="344" y="-435.9" font-family="Helvetica,sans-Serif" font-size="12.00">FatPartition::freeChain</text>
</a>
</g>
</g>
<!-- Node15&#45;&gt;Node17 -->
<g id="edge17" class="edge">
<title>Node15&#45;&gt;Node17</title>
<path fill="none" stroke="midnightblue" d="M194.94,-197.51C218.55,-236.01 300.54,-369.75 331.26,-419.85"/>
<polygon fill="midnightblue" stroke="midnightblue" points="328.32,-421.75 336.53,-428.45 334.29,-418.09 328.32,-421.75"/>
</g>
<!-- Node22 -->
<g id="node22" class="node">
<title>Node22</title>
<g id="a_node22"><a xlink:href="../../d3/d51/class_fat_file.html#aa484d5b2b147c5f3fe0e26b6eaf11ffc" target="_top" xlink:title=" ">
<polygon fill="white" stroke="black" points="288,-76.5 288,-97.5 400,-97.5 400,-76.5 288,-76.5"/>
<text text-anchor="middle" x="344" y="-83.9" font-family="Helvetica,sans-Serif" font-size="12.00">FatFile::isWritable</text>
</a>
</g>
</g>
<!-- Node15&#45;&gt;Node22 -->
<g id="edge25" class="edge">
<title>Node15&#45;&gt;Node22</title>
<path fill="none" stroke="midnightblue" d="M197.04,-176.24C211.22,-159.09 241.31,-125.59 274,-107 277.72,-104.88 281.68,-102.98 285.76,-101.26"/>
<polygon fill="midnightblue" stroke="midnightblue" points="287.3,-104.42 295.4,-97.59 284.81,-97.87 287.3,-104.42"/>
</g>
<!-- Node23 -->
<g id="node23" class="node">
<title>Node23</title>
<g id="a_node23"><a xlink:href="../../d3/d51/class_fat_file.html#a67f3dc4896c542d695e11aac927f585e" target="_top" xlink:title=" ">
<polygon fill="white" stroke="black" points="302.5,-156.5 302.5,-177.5 385.5,-177.5 385.5,-156.5 302.5,-156.5"/>
<text text-anchor="middle" x="344" y="-163.9" font-family="Helvetica,sans-Serif" font-size="12.00">FatFile::sync</text>
</a>
</g>
</g>
<!-- Node15&#45;&gt;Node23 -->
<g id="edge26" class="edge">
<title>Node15&#45;&gt;Node23</title>
<path fill="none" stroke="midnightblue" d="M238.24,-180.56C255.56,-178.32 275.02,-175.8 292.42,-173.55"/>
<polygon fill="midnightblue" stroke="midnightblue" points="292.92,-177.01 302.39,-172.26 292.02,-170.07 292.92,-177.01"/>
</g>
<!-- Node17&#45;&gt;Node4 -->
<g id="edge18" class="edge">
<title>Node17&#45;&gt;Node4</title>
<path fill="none" stroke="midnightblue" d="M362.22,-449.71C382.54,-461.94 417.65,-481.82 450,-494 456.49,-496.44 463.37,-498.66 470.3,-500.66"/>
<polygon fill="midnightblue" stroke="midnightblue" points="469.85,-504.17 480.42,-503.43 471.7,-497.41 469.85,-504.17"/>
</g>
<!-- Node18 -->
<g id="node18" class="node">
<title>Node18</title>
<g id="a_node18"><a xlink:href="../../d0/d12/class_fat_partition.html#a5f9aaea22ba30caad191066604c6fc4b" target="_top" xlink:title=" ">
<polygon fill="white" stroke="black" points="477,-463.5 477,-484.5 590,-484.5 590,-463.5 477,-463.5"/>
<text text-anchor="middle" x="533.5" y="-470.9" font-family="Helvetica,sans-Serif" font-size="12.00">FatPartition::fatPut</text>
</a>
</g>
</g>
<!-- Node17&#45;&gt;Node18 -->
<g id="edge19" class="edge">
<title>Node17&#45;&gt;Node18</title>
<path fill="none" stroke="midnightblue" d="M401.26,-449.5C421.93,-453.36 445.51,-457.76 466.94,-461.76"/>
<polygon fill="midnightblue" stroke="midnightblue" points="466.46,-465.23 476.93,-463.63 467.74,-458.35 466.46,-465.23"/>
</g>
<!-- Node21 -->
<g id="node21" class="node">
<title>Node21</title>
<g id="a_node21"><a xlink:href="../../d0/d12/class_fat_partition.html#a4df8a4126da97468950ed4e25d8fda33" target="_top" xlink:title=" ">
<polygon fill="white" stroke="black" points="461.5,-410 461.5,-444 605.5,-444 605.5,-410 461.5,-410"/>
<text text-anchor="start" x="469.5" y="-430.4" font-family="Helvetica,sans-Serif" font-size="12.00">FatPartition::updateFree</text>
<text text-anchor="middle" x="533.5" y="-417.4" font-family="Helvetica,sans-Serif" font-size="12.00">ClusterCount</text>
</a>
</g>
</g>
<!-- Node17&#45;&gt;Node21 -->
<g id="edge24" class="edge">
<title>Node17&#45;&gt;Node21</title>
<path fill="none" stroke="midnightblue" d="M411.11,-434.77C424.04,-433.94 437.75,-433.06 451.12,-432.21"/>
<polygon fill="midnightblue" stroke="midnightblue" points="451.51,-435.69 461.26,-431.56 451.06,-428.71 451.51,-435.69"/>
</g>
<!-- Node18&#45;&gt;Node5 -->
<g id="edge20" class="edge">
<title>Node18&#45;&gt;Node5</title>
<path fill="none" stroke="midnightblue" d="M590.24,-474C606.49,-474 624.73,-474 642.71,-474"/>
<polygon fill="midnightblue" stroke="midnightblue" points="642.95,-477.5 652.95,-474 642.95,-470.5 642.95,-477.5"/>
</g>
<!-- Node18&#45;&gt;Node6 -->
<g id="edge21" class="edge">
<title>Node18&#45;&gt;Node6</title>
<path fill="none" stroke="midnightblue" d="M588.1,-463.49C614.7,-458.27 647.02,-451.94 674.87,-446.48"/>
<polygon fill="midnightblue" stroke="midnightblue" points="675.77,-449.87 684.91,-444.51 674.42,-443 675.77,-449.87"/>
</g>
<!-- Node19 -->
<g id="node19" class="node">
<title>Node19</title>
<g id="a_node19"><a xlink:href="../../d1/db3/_fs_structs_8h.html#a2a47595a3bb5c1f0f67d4f3dddac0a0e" target="_top" xlink:title=" ">
<polygon fill="white" stroke="black" points="710,-317.5 710,-338.5 769,-338.5 769,-317.5 710,-317.5"/>
<text text-anchor="middle" x="739.5" y="-324.9" font-family="Helvetica,sans-Serif" font-size="12.00">setLe16</text>
</a>
</g>
</g>
<!-- Node18&#45;&gt;Node19 -->
<g id="edge22" class="edge">
<title>Node18&#45;&gt;Node19</title>
<path fill="none" stroke="midnightblue" d="M590.01,-465.41C599.41,-462.61 608.77,-458.91 617,-454 637.54,-441.75 636.56,-431.37 653,-414 675.71,-389.99 702.71,-363.1 720.21,-345.88"/>
<polygon fill="midnightblue" stroke="midnightblue" points="722.84,-348.19 727.53,-338.69 717.94,-343.2 722.84,-348.19"/>
</g>
<!-- Node20 -->
<g id="node20" class="node">
<title>Node20</title>
<g id="a_node20"><a xlink:href="../../d1/db3/_fs_structs_8h.html#a294114e9924b0436c1d110e692bef464" target="_top" xlink:title=" ">
<polygon fill="white" stroke="black" points="710,-145.5 710,-166.5 769,-166.5 769,-145.5 710,-145.5"/>
<text text-anchor="middle" x="739.5" y="-152.9" font-family="Helvetica,sans-Serif" font-size="12.00">setLe32</text>
</a>
</g>
</g>
<!-- Node18&#45;&gt;Node20 -->
<g id="edge23" class="edge">
<title>Node18&#45;&gt;Node20</title>
<path fill="none" stroke="midnightblue" d="M590.29,-469.2C600.21,-466.07 609.69,-461.28 617,-454 664.35,-406.84 628.39,-370.14 653,-308 673.03,-257.42 707.07,-202.96 725.58,-174.98"/>
<polygon fill="midnightblue" stroke="midnightblue" points="728.56,-176.81 731.22,-166.56 722.75,-172.92 728.56,-176.81"/>
</g>
<!-- Node23&#45;&gt;Node10 -->
<g id="edge29" class="edge">
<title>Node23&#45;&gt;Node10</title>
<path fill="none" stroke="midnightblue" d="M385.68,-175.68C413.17,-181.54 449.72,-189.34 479.48,-195.69"/>
<polygon fill="midnightblue" stroke="midnightblue" points="478.77,-199.12 489.29,-197.78 480.24,-192.27 478.77,-199.12"/>
</g>
<!-- Node23&#45;&gt;Node11 -->
<g id="edge30" class="edge">
<title>Node23&#45;&gt;Node11</title>
<path fill="none" stroke="midnightblue" d="M385.68,-167C411.68,-167 445.79,-167 474.59,-167"/>
<polygon fill="midnightblue" stroke="midnightblue" points="474.94,-170.5 484.94,-167 474.94,-163.5 474.94,-170.5"/>
</g>
<!-- Node23&#45;&gt;Node19 -->
<g id="edge31" class="edge">
<title>Node23&#45;&gt;Node19</title>
<path fill="none" stroke="midnightblue" d="M385.63,-157.41C405,-153.32 428.57,-149.02 450,-147 523.89,-140.03 551.5,-112.08 617,-147 650.38,-164.8 705.73,-265.19 728.37,-308.31"/>
<polygon fill="midnightblue" stroke="midnightblue" points="725.32,-310.03 733.04,-317.28 731.53,-306.8 725.32,-310.03"/>
</g>
<!-- Node23&#45;&gt;Node20 -->
<g id="edge32" class="edge">
<title>Node23&#45;&gt;Node20</title>
<path fill="none" stroke="midnightblue" d="M385.66,-158.57C395.3,-155.68 405.3,-151.89 414,-147 432.92,-136.37 429.77,-121.87 450,-114 538.59,-79.54 652.47,-118.25 706.85,-141.31"/>
<polygon fill="midnightblue" stroke="midnightblue" points="705.73,-144.64 716.3,-145.42 708.52,-138.22 705.73,-144.64"/>
</g>
<!-- Node24 -->
<g id="node24" class="node">
<title>Node24</title>
<g id="a_node24"><a xlink:href="../../d3/d51/class_fat_file.html#a1de799df045e4f60e9ebbcd6d341f9a8" target="_top" xlink:title=" ">
<polygon fill="white" stroke="red" points="467,-40.5 467,-61.5 600,-61.5 600,-40.5 467,-40.5"/>
<text text-anchor="middle" x="533.5" y="-47.9" font-family="Helvetica,sans-Serif" font-size="12.00">FatFile::cacheDirEntry</text>
</a>
</g>
</g>
<!-- Node23&#45;&gt;Node24 -->
<g id="edge27" class="edge">
<title>Node23&#45;&gt;Node24</title>
<path fill="none" stroke="midnightblue" d="M385.66,-161.1C395.73,-158.13 405.93,-153.68 414,-147 441.25,-124.43 422.89,-98.74 450,-76 454.89,-71.9 460.44,-68.47 466.3,-65.6"/>
<polygon fill="midnightblue" stroke="midnightblue" points="467.91,-68.72 475.7,-61.54 465.13,-62.29 467.91,-68.72"/>
</g>
<!-- Node53 -->
<g id="node25" class="node">
<title>Node53</title>
<g id="a_node25"><a xlink:href="../../d0/d12/class_fat_partition.html#a38b128efffc3ea109f514b84582d406f" target="_top" xlink:title=" ">
<polygon fill="white" stroke="red" points="463.5,-0.5 463.5,-21.5 603.5,-21.5 603.5,-0.5 463.5,-0.5"/>
<text text-anchor="middle" x="533.5" y="-7.9" font-family="Helvetica,sans-Serif" font-size="12.00">FatPartition::cacheSync</text>
</a>
</g>
</g>
<!-- Node23&#45;&gt;Node53 -->
<g id="edge28" class="edge">
<title>Node23&#45;&gt;Node53</title>
<path fill="none" stroke="midnightblue" d="M385.74,-162.19C396.05,-159.24 406.34,-154.51 414,-147 452.53,-109.19 410.64,-67.95 450,-31 451.49,-29.6 453.06,-28.29 454.7,-27.07"/>
<polygon fill="midnightblue" stroke="midnightblue" points="456.75,-29.92 463.4,-21.67 453.06,-23.97 456.75,-29.92"/>
</g>
</g>
</svg>
