<?xml version="1.0" encoding="UTF-8" standalone="no"?>
<!DOCTYPE svg PUBLIC "-//W3C//DTD SVG 1.1//EN"
 "http://www.w3.org/Graphics/SVG/1.1/DTD/svg11.dtd">
<!-- Generated by graphviz version 2.47.3 (20210619.1520)
 -->
<!-- Title: FatFile::openCluster Pages: 1 -->
<svg width="602pt" height="150pt"
 viewBox="0.00 0.00 602.00 150.00" xmlns="http://www.w3.org/2000/svg" xmlns:xlink="http://www.w3.org/1999/xlink">
<g id="graph0" class="graph" transform="scale(1 1) rotate(0) translate(4 146)">
<title>FatFile::openCluster</title>
<polygon fill="white" stroke="transparent" points="-4,4 -4,-146 598,-146 598,4 -4,4"/>
<!-- Node1 -->
<g id="node1" class="node">
<title>Node1</title>
<g id="a_node1"><a xlink:title=" ">
<polygon fill="#bfbfbf" stroke="black" points="472,-60.5 472,-81.5 594,-81.5 594,-60.5 472,-60.5"/>
<text text-anchor="middle" x="533" y="-67.9" font-family="Helvetica,sans-Serif" font-size="12.00">FatFile::openCluster</text>
</a>
</g>
</g>
<!-- Node2 -->
<g id="node2" class="node">
<title>Node2</title>
<g id="a_node2"><a xlink:href="../../d3/d51/class_fat_file.html#abf906ba7948cf1331d80e530bacea489" target="_top" xlink:title=" ">
<polygon fill="white" stroke="black" points="319,-120.5 319,-141.5 433,-141.5 433,-120.5 319,-120.5"/>
<text text-anchor="middle" x="376" y="-127.9" font-family="Helvetica,sans-Serif" font-size="12.00">FatFile::getName7</text>
</a>
</g>
</g>
<!-- Node1&#45;&gt;Node2 -->
<g id="edge1" class="edge">
<title>Node1&#45;&gt;Node2</title>
<path fill="none" stroke="midnightblue" d="M498.35,-85.68C480.03,-93.5 456.91,-103.11 436,-111 427.4,-114.25 418,-117.54 409.29,-120.49"/>
<polygon fill="midnightblue" stroke="midnightblue" points="499.91,-88.82 507.72,-81.65 497.15,-82.39 499.91,-88.82"/>
</g>
<!-- Node5 -->
<g id="node5" class="node">
<title>Node5</title>
<g id="a_node5"><a xlink:href="../../d3/d51/class_fat_file.html#a2369692e7bc19a68ac106fd7499a2910" target="_top" xlink:title=" ">
<polygon fill="white" stroke="black" points="319,-80.5 319,-101.5 433,-101.5 433,-80.5 319,-80.5"/>
<text text-anchor="middle" x="376" y="-87.9" font-family="Helvetica,sans-Serif" font-size="12.00">FatFile::getName8</text>
</a>
</g>
</g>
<!-- Node1&#45;&gt;Node5 -->
<g id="edge4" class="edge">
<title>Node1&#45;&gt;Node5</title>
<path fill="none" stroke="midnightblue" d="M461.43,-80.11C451.95,-81.33 442.33,-82.57 433.15,-83.75"/>
<polygon fill="midnightblue" stroke="midnightblue" points="462.16,-83.54 471.63,-78.79 461.26,-76.6 462.16,-83.54"/>
</g>
<!-- Node6 -->
<g id="node6" class="node">
<title>Node6</title>
<g id="a_node6"><a xlink:href="../../d3/d51/class_fat_file.html#a35dedc90d44758d10d967785dc14da2b" target="_top" xlink:title=" ">
<polygon fill="white" stroke="black" points="316,-40.5 316,-61.5 436,-61.5 436,-40.5 316,-40.5"/>
<text text-anchor="middle" x="376" y="-47.9" font-family="Helvetica,sans-Serif" font-size="12.00">FatFile::printName7</text>
</a>
</g>
</g>
<!-- Node1&#45;&gt;Node6 -->
<g id="edge6" class="edge">
<title>Node1&#45;&gt;Node6</title>
<path fill="none" stroke="midnightblue" d="M461.7,-61.93C453.17,-60.83 444.53,-59.71 436.19,-58.64"/>
<polygon fill="midnightblue" stroke="midnightblue" points="461.26,-65.4 471.63,-63.21 462.16,-58.46 461.26,-65.4"/>
</g>
<!-- Node10 -->
<g id="node9" class="node">
<title>Node10</title>
<g id="a_node9"><a xlink:href="../../d3/d51/class_fat_file.html#a508c86ed62a34a920574dd270dc64322" target="_top" xlink:title=" ">
<polygon fill="white" stroke="black" points="316,-0.5 316,-21.5 436,-21.5 436,-0.5 316,-0.5"/>
<text text-anchor="middle" x="376" y="-7.9" font-family="Helvetica,sans-Serif" font-size="12.00">FatFile::printName8</text>
</a>
</g>
</g>
<!-- Node1&#45;&gt;Node10 -->
<g id="edge10" class="edge">
<title>Node1&#45;&gt;Node10</title>
<path fill="none" stroke="midnightblue" d="M498.35,-56.32C480.03,-48.5 456.91,-38.89 436,-31 427.4,-27.75 418,-24.46 409.29,-21.51"/>
<polygon fill="midnightblue" stroke="midnightblue" points="497.15,-59.61 507.72,-60.35 499.91,-53.18 497.15,-59.61"/>
</g>
<!-- Node3 -->
<g id="node3" class="node">
<title>Node3</title>
<g id="a_node3"><a xlink:href="../../d3/d51/class_fat_file.html#a0313d518970d1438d5cad721720cc109" target="_top" xlink:title=" ">
<polygon fill="white" stroke="black" points="170,-94.5 170,-115.5 277,-115.5 277,-94.5 170,-94.5"/>
<text text-anchor="middle" x="223.5" y="-101.9" font-family="Helvetica,sans-Serif" font-size="12.00">FatFile::getName</text>
</a>
</g>
</g>
<!-- Node2&#45;&gt;Node3 -->
<g id="edge2" class="edge">
<title>Node2&#45;&gt;Node3</title>
<path fill="none" stroke="midnightblue" d="M308.87,-119.58C298.24,-117.74 287.36,-115.86 277.1,-114.09"/>
<polygon fill="midnightblue" stroke="midnightblue" points="308.51,-123.07 318.96,-121.32 309.7,-116.17 308.51,-123.07"/>
</g>
<!-- Node4 -->
<g id="node4" class="node">
<title>Node4</title>
<g id="a_node4"><a xlink:href="../../d7/d76/class_fs_base_file.html#ad2099dbe6bb8f61e1bf933d8e97b2d86" target="_top" xlink:title=" ">
<polygon fill="white" stroke="black" points="0,-94.5 0,-115.5 131,-115.5 131,-94.5 0,-94.5"/>
<text text-anchor="middle" x="65.5" y="-101.9" font-family="Helvetica,sans-Serif" font-size="12.00">FsBaseFile::getName</text>
</a>
</g>
</g>
<!-- Node3&#45;&gt;Node4 -->
<g id="edge3" class="edge">
<title>Node3&#45;&gt;Node4</title>
<path fill="none" stroke="midnightblue" d="M159.65,-105C150.27,-105 140.58,-105 131.16,-105"/>
<polygon fill="midnightblue" stroke="midnightblue" points="159.69,-108.5 169.69,-105 159.69,-101.5 159.69,-108.5"/>
</g>
<!-- Node5&#45;&gt;Node3 -->
<g id="edge5" class="edge">
<title>Node5&#45;&gt;Node3</title>
<path fill="none" stroke="midnightblue" d="M308.87,-97.15C298.24,-98.14 287.36,-99.15 277.1,-100.11"/>
<polygon fill="midnightblue" stroke="midnightblue" points="309.33,-100.62 318.96,-96.21 308.68,-93.65 309.33,-100.62"/>
</g>
<!-- Node7 -->
<g id="node7" class="node">
<title>Node7</title>
<g id="a_node7"><a xlink:href="../../d3/d51/class_fat_file.html#afe18a787fb8640e2d2483370c770f82f" target="_top" xlink:title=" ">
<polygon fill="white" stroke="black" points="167,-25.5 167,-46.5 280,-46.5 280,-25.5 167,-25.5"/>
<text text-anchor="middle" x="223.5" y="-32.9" font-family="Helvetica,sans-Serif" font-size="12.00">FatFile::printName</text>
</a>
</g>
</g>
<!-- Node6&#45;&gt;Node7 -->
<g id="edge7" class="edge">
<title>Node6&#45;&gt;Node7</title>
<path fill="none" stroke="midnightblue" d="M305.98,-44.12C297.42,-43.27 288.76,-42.4 280.43,-41.57"/>
<polygon fill="midnightblue" stroke="midnightblue" points="305.65,-47.61 315.95,-45.11 306.35,-40.64 305.65,-47.61"/>
</g>
<!-- Node8 -->
<g id="node8" class="node">
<title>Node8</title>
<g id="a_node8"><a xlink:href="../../d3/d51/class_fat_file.html#a60ab9d16bcc778150a364c26de467de1" target="_top" xlink:title=" ">
<polygon fill="white" stroke="red" points="31.5,-25.5 31.5,-46.5 99.5,-46.5 99.5,-25.5 31.5,-25.5"/>
<text text-anchor="middle" x="65.5" y="-32.9" font-family="Helvetica,sans-Serif" font-size="12.00">FatFile::ls</text>
</a>
</g>
</g>
<!-- Node7&#45;&gt;Node8 -->
<g id="edge8" class="edge">
<title>Node7&#45;&gt;Node8</title>
<path fill="none" stroke="midnightblue" d="M156.51,-36C136.93,-36 116.32,-36 99.77,-36"/>
<polygon fill="midnightblue" stroke="midnightblue" points="156.62,-39.5 166.62,-36 156.62,-32.5 156.62,-39.5"/>
</g>
<!-- Node8&#45;&gt;Node8 -->
<g id="edge9" class="edge">
<title>Node8&#45;&gt;Node8</title>
<path fill="none" stroke="midnightblue" d="M94.77,-56.06C92.85,-61.16 83.09,-65 65.5,-65 38.04,-65 29.67,-55.65 40.4,-46.71"/>
<polygon fill="midnightblue" stroke="midnightblue" points="97.87,-54.42 90.6,-46.71 91.48,-57.27 97.87,-54.42"/>
</g>
<!-- Node10&#45;&gt;Node7 -->
<g id="edge11" class="edge">
<title>Node10&#45;&gt;Node7</title>
<path fill="none" stroke="midnightblue" d="M305.98,-22.47C297.42,-23.89 288.76,-25.33 280.43,-26.71"/>
<polygon fill="midnightblue" stroke="midnightblue" points="306.66,-25.9 315.95,-20.81 305.51,-18.99 306.66,-25.9"/>
</g>
</g>
</svg>
