<?xml version="1.0" encoding="UTF-8" standalone="no"?>
<!DOCTYPE svg PUBLIC "-//W3C//DTD SVG 1.1//EN"
 "http://www.w3.org/Graphics/SVG/1.1/DTD/svg11.dtd">
<!-- Generated by graphviz version 2.47.3 (20210619.1520)
 -->
<!-- Title: FatFile::getModifyDateTime Pages: 1 -->
<!--zoomable 230 -->
<svg id="main" version="1.1" xmlns="http://www.w3.org/2000/svg" xmlns:xlink="http://www.w3.org/1999/xlink" xml:space="preserve" onload="init(evt)">
<style type="text/css"><![CDATA[
.edge:hover path { stroke: red; }
.edge:hover polygon { stroke: red; fill: red; }
]]></style>
<script type="text/javascript"><![CDATA[
var edges = document.getElementsByTagName('g');
if (edges && edges.length) {
  for (var i=0;i<edges.length;i++) {
    if (edges[i].id.substr(0,4)=='edge') {
      edges[i].setAttribute('class','edge');
    }
  }
}
]]></script>
        <defs>
                <circle id="rim" cx="0" cy="0" r="7"/>
                <circle id="rim2" cx="0" cy="0" r="3.5"/>
                <g id="zoomPlus">
                        <use xlink:href="#rim" fill="#404040">
                                <set attributeName="fill" to="#808080" begin="zoomplus.mouseover" end="zoomplus.mouseout"/>
                        </use>
                        <path d="M-4,0h8M0,-4v8" fill="none" stroke="white" stroke-width="1.5" pointer-events="none"/>
                </g>
                <g id="zoomMin">
                        <use xlink:href="#rim" fill="#404040">
                                <set attributeName="fill" to="#808080" begin="zoomminus.mouseover" end="zoomminus.mouseout"/>
                        </use>
                        <path d="M-4,0h8" fill="none" stroke="white" stroke-width="1.5" pointer-events="none"/>
                </g>
                <g id="dirArrow">
                        <path fill="none" stroke="white" stroke-width="1.5" d="M0,-3.0v7 M-2.5,-0.5L0,-3.0L2.5,-0.5"/>
                </g>
               <g id="resetDef">
                       <use xlink:href="#rim2" fill="#404040">
                               <set attributeName="fill" to="#808080" begin="reset.mouseover" end="reset.mouseout"/>
                       </use>
               </g>
        </defs>

<script type="text/javascript">
var viewWidth = 820;
var viewHeight = 230;
var sectionId = 'dynsection-49';
</script>
<script xlink:href="../../svgpan.js"/>
<svg id="graph" class="graph">
<g id="viewport">
<title>FatFile::getModifyDateTime</title>
<polygon fill="white" stroke="transparent" points="-4,4 -4,-226 816,-226 816,4 -4,4"/>
<!-- Node1 -->
<g id="node1" class="node">
<title>Node1</title>
<g id="a_node1"><a xlink:title=" ">
<polygon fill="#bfbfbf" stroke="black" points="0,-130.5 0,-151.5 162,-151.5 162,-130.5 0,-130.5"/>
<text text-anchor="middle" x="81" y="-137.9" font-family="Helvetica,sans-Serif" font-size="12.00">FatFile::getModifyDateTime</text>
</a>
</g>
</g>
<!-- Node2 -->
<g id="node2" class="node">
<title>Node2</title>
<g id="a_node2"><a xlink:href="../../d3/d51/class_fat_file.html#a2f4e9ab3056125b07f15d14ca26d5346" target="_top" xlink:title=" ">
<polygon fill="white" stroke="black" points="198,-150.5 198,-171.5 297,-171.5 297,-150.5 198,-150.5"/>
<text text-anchor="middle" x="247.5" y="-157.9" font-family="Helvetica,sans-Serif" font-size="12.00">FatFile::dirEntry</text>
</a>
</g>
</g>
<!-- Node1&#45;&gt;Node2 -->
<g id="edge1" class="edge">
<title>Node1&#45;&gt;Node2</title>
<path fill="none" stroke="midnightblue" d="M162.32,-150.77C170.81,-151.8 179.32,-152.83 187.5,-153.83"/>
<polygon fill="midnightblue" stroke="midnightblue" points="187.31,-157.33 197.66,-155.06 188.16,-150.38 187.31,-157.33"/>
</g>
<!-- Node38 -->
<g id="node11" class="node">
<title>Node38</title>
<g id="a_node11"><a xlink:href="../../d1/db3/_fs_structs_8h.html#a89aef4aa8e8032eab2982d660e7b8a81" target="_top" xlink:title=" ">
<polygon fill="white" stroke="black" points="217.5,-110.5 217.5,-131.5 277.5,-131.5 277.5,-110.5 217.5,-110.5"/>
<text text-anchor="middle" x="247.5" y="-117.9" font-family="Helvetica,sans-Serif" font-size="12.00">getLe16</text>
</a>
</g>
</g>
<!-- Node1&#45;&gt;Node38 -->
<g id="edge11" class="edge">
<title>Node1&#45;&gt;Node38</title>
<path fill="none" stroke="midnightblue" d="M162.32,-131.23C178.05,-129.32 193.87,-127.4 207.49,-125.74"/>
<polygon fill="midnightblue" stroke="midnightblue" points="207.92,-129.22 217.43,-124.53 207.08,-122.27 207.92,-129.22"/>
</g>
<!-- Node3 -->
<g id="node3" class="node">
<title>Node3</title>
<g id="a_node3"><a xlink:href="../../d3/d51/class_fat_file.html#a1de799df045e4f60e9ebbcd6d341f9a8" target="_top" xlink:title=" ">
<polygon fill="white" stroke="black" points="455.5,-200.5 455.5,-221.5 588.5,-221.5 588.5,-200.5 455.5,-200.5"/>
<text text-anchor="middle" x="522" y="-207.9" font-family="Helvetica,sans-Serif" font-size="12.00">FatFile::cacheDirEntry</text>
</a>
</g>
</g>
<!-- Node2&#45;&gt;Node3 -->
<g id="edge2" class="edge">
<title>Node2&#45;&gt;Node3</title>
<path fill="none" stroke="midnightblue" d="M297.22,-169.94C340.81,-177.94 405.13,-189.74 453.64,-198.64"/>
<polygon fill="midnightblue" stroke="midnightblue" points="453.27,-202.13 463.74,-200.49 454.53,-195.25 453.27,-202.13"/>
</g>
<!-- Node32 -->
<g id="node5" class="node">
<title>Node32</title>
<g id="a_node5"><a xlink:href="../../d3/d51/class_fat_file.html#a67f3dc4896c542d695e11aac927f585e" target="_top" xlink:title=" ">
<polygon fill="white" stroke="black" points="333,-120.5 333,-141.5 416,-141.5 416,-120.5 333,-120.5"/>
<text text-anchor="middle" x="374.5" y="-127.9" font-family="Helvetica,sans-Serif" font-size="12.00">FatFile::sync</text>
</a>
</g>
</g>
<!-- Node2&#45;&gt;Node32 -->
<g id="edge4" class="edge">
<title>Node2&#45;&gt;Node32</title>
<path fill="none" stroke="midnightblue" d="M292.57,-150.42C302.38,-148.07 312.85,-145.56 322.89,-143.15"/>
<polygon fill="midnightblue" stroke="midnightblue" points="323.85,-146.52 332.75,-140.78 322.21,-139.71 323.85,-146.52"/>
</g>
<!-- Node4 -->
<g id="node4" class="node">
<title>Node4</title>
<g id="a_node4"><a xlink:href="../../d0/d12/class_fat_partition.html#a4ecb12682599d63c7e765d31ca8e1de6" target="_top" xlink:title=" ">
<polygon fill="white" stroke="red" points="628,-200.5 628,-221.5 812,-221.5 812,-200.5 628,-200.5"/>
<text text-anchor="middle" x="720" y="-207.9" font-family="Helvetica,sans-Serif" font-size="12.00">FatPartition::dataCachePrepare</text>
</a>
</g>
</g>
<!-- Node3&#45;&gt;Node4 -->
<g id="edge3" class="edge">
<title>Node3&#45;&gt;Node4</title>
<path fill="none" stroke="midnightblue" d="M588.54,-211C597.87,-211 607.65,-211 617.47,-211"/>
<polygon fill="midnightblue" stroke="midnightblue" points="617.71,-214.5 627.71,-211 617.71,-207.5 617.71,-214.5"/>
</g>
<!-- Node32&#45;&gt;Node3 -->
<g id="edge5" class="edge">
<title>Node32&#45;&gt;Node3</title>
<path fill="none" stroke="midnightblue" d="M386.46,-141.86C400.51,-155.23 426.16,-177.76 452,-191 456.28,-193.2 460.84,-195.18 465.5,-196.98"/>
<polygon fill="midnightblue" stroke="midnightblue" points="464.54,-200.35 475.13,-200.39 466.88,-193.75 464.54,-200.35"/>
</g>
<!-- Node33 -->
<g id="node6" class="node">
<title>Node33</title>
<g id="a_node6"><a xlink:href="../../d0/d12/class_fat_partition.html#a38b128efffc3ea109f514b84582d406f" target="_top" xlink:title=" ">
<polygon fill="white" stroke="red" points="452,-160.5 452,-181.5 592,-181.5 592,-160.5 452,-160.5"/>
<text text-anchor="middle" x="522" y="-167.9" font-family="Helvetica,sans-Serif" font-size="12.00">FatPartition::cacheSync</text>
</a>
</g>
</g>
<!-- Node32&#45;&gt;Node33 -->
<g id="edge6" class="edge">
<title>Node32&#45;&gt;Node33</title>
<path fill="none" stroke="midnightblue" d="M413.73,-141.51C431.87,-146.5 453.74,-152.51 472.98,-157.8"/>
<polygon fill="midnightblue" stroke="midnightblue" points="472.2,-161.22 482.77,-160.49 474.06,-154.47 472.2,-161.22"/>
</g>
<!-- Node34 -->
<g id="node7" class="node">
<title>Node34</title>
<g id="a_node7"><a xlink:href="../../d3/d51/class_fat_file.html#acc5a87da1a5c8cb9758bfeaa7ae47b57" target="_top" xlink:title=" ">
<polygon fill="white" stroke="black" points="478,-120.5 478,-141.5 566,-141.5 566,-120.5 478,-120.5"/>
<text text-anchor="middle" x="522" y="-127.9" font-family="Helvetica,sans-Serif" font-size="12.00">FatFile::isFile</text>
</a>
</g>
</g>
<!-- Node32&#45;&gt;Node34 -->
<g id="edge7" class="edge">
<title>Node32&#45;&gt;Node34</title>
<path fill="none" stroke="midnightblue" d="M416.03,-131C431.98,-131 450.51,-131 467.53,-131"/>
<polygon fill="midnightblue" stroke="midnightblue" points="467.89,-134.5 477.89,-131 467.89,-127.5 467.89,-134.5"/>
</g>
<!-- Node35 -->
<g id="node8" class="node">
<title>Node35</title>
<g id="a_node8"><a xlink:href="../../d3/d51/class_fat_file.html#a8b8a2850c086d3ce79bee64a23fbf7a6" target="_top" xlink:title=" ">
<polygon fill="white" stroke="black" points="473.5,-80.5 473.5,-101.5 570.5,-101.5 570.5,-80.5 473.5,-80.5"/>
<text text-anchor="middle" x="522" y="-87.9" font-family="Helvetica,sans-Serif" font-size="12.00">FatFile::isOpen</text>
</a>
</g>
</g>
<!-- Node32&#45;&gt;Node35 -->
<g id="edge8" class="edge">
<title>Node32&#45;&gt;Node35</title>
<path fill="none" stroke="midnightblue" d="M413.73,-120.49C431.87,-115.5 453.74,-109.49 472.98,-104.2"/>
<polygon fill="midnightblue" stroke="midnightblue" points="474.06,-107.53 482.77,-101.51 472.2,-100.78 474.06,-107.53"/>
</g>
<!-- Node36 -->
<g id="node9" class="node">
<title>Node36</title>
<g id="a_node9"><a xlink:href="../../d1/db3/_fs_structs_8h.html#a2a47595a3bb5c1f0f67d4f3dddac0a0e" target="_top" xlink:title=" ">
<polygon fill="white" stroke="black" points="492.5,-40.5 492.5,-61.5 551.5,-61.5 551.5,-40.5 492.5,-40.5"/>
<text text-anchor="middle" x="522" y="-47.9" font-family="Helvetica,sans-Serif" font-size="12.00">setLe16</text>
</a>
</g>
</g>
<!-- Node32&#45;&gt;Node36 -->
<g id="edge9" class="edge">
<title>Node32&#45;&gt;Node36</title>
<path fill="none" stroke="midnightblue" d="M386.46,-120.14C400.51,-106.77 426.16,-84.24 452,-71 461.41,-66.18 472.15,-62.36 482.31,-59.4"/>
<polygon fill="midnightblue" stroke="midnightblue" points="483.46,-62.72 492.2,-56.73 481.64,-55.96 483.46,-62.72"/>
</g>
<!-- Node37 -->
<g id="node10" class="node">
<title>Node37</title>
<g id="a_node10"><a xlink:href="../../d1/db3/_fs_structs_8h.html#a294114e9924b0436c1d110e692bef464" target="_top" xlink:title=" ">
<polygon fill="white" stroke="black" points="492.5,-0.5 492.5,-21.5 551.5,-21.5 551.5,-0.5 492.5,-0.5"/>
<text text-anchor="middle" x="522" y="-7.9" font-family="Helvetica,sans-Serif" font-size="12.00">setLe32</text>
</a>
</g>
</g>
<!-- Node32&#45;&gt;Node37 -->
<g id="edge10" class="edge">
<title>Node32&#45;&gt;Node37</title>
<path fill="none" stroke="midnightblue" d="M380.63,-120.46C391.11,-100.02 417,-54.94 452,-31 461.05,-24.81 472.02,-20.51 482.52,-17.54"/>
<polygon fill="midnightblue" stroke="midnightblue" points="483.53,-20.9 492.38,-15.07 481.83,-14.11 483.53,-20.9"/>
</g>
</g>
</svg>
        <g id="navigator" transform="translate(0 0)" fill="#404254">
                <rect fill="#f2f5e9" fill-opacity="0.5" stroke="#606060" stroke-width=".5" x="0" y="0" width="60" height="60"/>
                <use id="zoomplus" xlink:href="#zoomPlus" x="17" y="9" onmousedown="handleZoom(evt,'in')"/>
                <use id="zoomminus" xlink:href="#zoomMin" x="42" y="9" onmousedown="handleZoom(evt,'out')"/>
                <use id="reset" xlink:href="#resetDef" x="30" y="36" onmousedown="handleReset()"/>
                <g id="arrowUp" xlink:href="#dirArrow" transform="translate(30 24)" onmousedown="handlePan(0,-1)">
                  <use xlink:href="#rim" fill="#404040">
                        <set attributeName="fill" to="#808080" begin="arrowUp.mouseover" end="arrowUp.mouseout"/>
                  </use>
                  <path fill="none" stroke="white" stroke-width="1.5" d="M0,-3.0v7 M-2.5,-0.5L0,-3.0L2.5,-0.5"/>
                </g>
                <g id="arrowRight" xlink:href="#dirArrow" transform="rotate(90) translate(36 -43)" onmousedown="handlePan(1,0)">
                  <use xlink:href="#rim" fill="#404040">
                        <set attributeName="fill" to="#808080" begin="arrowRight.mouseover" end="arrowRight.mouseout"/>
                  </use>
                  <path fill="none" stroke="white" stroke-width="1.5" d="M0,-3.0v7 M-2.5,-0.5L0,-3.0L2.5,-0.5"/>
                </g>
                <g id="arrowDown" xlink:href="#dirArrow" transform="rotate(180) translate(-30 -48)" onmousedown="handlePan(0,1)">
                  <use xlink:href="#rim" fill="#404040">
                        <set attributeName="fill" to="#808080" begin="arrowDown.mouseover" end="arrowDown.mouseout"/>
                  </use>
                  <path fill="none" stroke="white" stroke-width="1.5" d="M0,-3.0v7 M-2.5,-0.5L0,-3.0L2.5,-0.5"/>
                </g>
                <g id="arrowLeft" xlink:href="#dirArrow" transform="rotate(270) translate(-36 17)" onmousedown="handlePan(-1,0)">
                  <use xlink:href="#rim" fill="#404040">
                        <set attributeName="fill" to="#808080" begin="arrowLeft.mouseover" end="arrowLeft.mouseout"/>
                  </use>
                  <path fill="none" stroke="white" stroke-width="1.5" d="M0,-3.0v7 M-2.5,-0.5L0,-3.0L2.5,-0.5"/>
                </g>
        </g>
        <svg viewBox="0 0 15 15" width="100%" height="30px" preserveAspectRatio="xMaxYMin meet">
         <g id="arrow_out" transform="scale(0.3 0.3)">
          <a xlink:href="class_fat_file_a28537b48ed2cb886c5f22984d07492b7_cgraph_org.svg" target="_base">
           <rect id="button" ry="5" rx="5" y="6" x="6" height="38" width="38"
                fill="#f2f5e9" fill-opacity="0.5" stroke="#606060" stroke-width="1.0"/>
           <path id="arrow"
             d="M 11.500037,31.436501 C 11.940474,20.09759 22.043105,11.32322 32.158766,21.979434 L 37.068811,17.246167 C 37.068811,17.246167 37.088388,32 37.088388,32 L 22.160133,31.978069 C 22.160133,31.978069 26.997745,27.140456 26.997745,27.140456 C 18.528582,18.264221 13.291696,25.230495 11.500037,31.436501 z"
             style="fill:#404040;"/>
          </a>
         </g>
        </svg>
</svg>
