<?xml version="1.0" encoding="UTF-8" standalone="no"?>
<!DOCTYPE svg PUBLIC "-//W3C//DTD SVG 1.1//EN"
 "http://www.w3.org/Graphics/SVG/1.1/DTD/svg11.dtd">
<!-- Generated by graphviz version 2.47.3 (20210619.1520)
 -->
<!-- Title: FsName::getch Pages: 1 -->
<svg width="621pt" height="110pt"
 viewBox="0.00 0.00 621.00 110.00" xmlns="http://www.w3.org/2000/svg" xmlns:xlink="http://www.w3.org/1999/xlink">
<g id="graph0" class="graph" transform="scale(1 1) rotate(0) translate(4 106)">
<title>FsName::getch</title>
<polygon fill="white" stroke="transparent" points="-4,4 -4,-106 617,-106 617,4 -4,4"/>
<!-- Node1 -->
<g id="node1" class="node">
<title>Node1</title>
<g id="a_node1"><a xlink:title=" ">
<polygon fill="#bfbfbf" stroke="black" points="517,-60.5 517,-81.5 613,-81.5 613,-60.5 517,-60.5"/>
<text text-anchor="middle" x="565" y="-67.9" font-family="Helvetica,sans-Serif" font-size="12.00">FsName::getch</text>
</a>
</g>
</g>
<!-- Node2 -->
<g id="node2" class="node">
<title>Node2</title>
<g id="a_node2"><a xlink:href="../../d5/d14/class_ex_fat_file.html#a54fa75eed5679805815d20b1a604ef29" target="_top" xlink:title=" ">
<polygon fill="white" stroke="black" points="353,-40.5 353,-61.5 480,-61.5 480,-40.5 353,-40.5"/>
<text text-anchor="middle" x="416.5" y="-47.9" font-family="Helvetica,sans-Serif" font-size="12.00">ExFatFile::cmpName</text>
</a>
</g>
</g>
<!-- Node1&#45;&gt;Node2 -->
<g id="edge1" class="edge">
<title>Node1&#45;&gt;Node2</title>
<path fill="none" stroke="midnightblue" d="M506.75,-63.18C498,-61.99 488.93,-60.75 480.07,-59.54"/>
<polygon fill="midnightblue" stroke="midnightblue" points="506.46,-66.68 516.84,-64.56 507.41,-59.74 506.46,-66.68"/>
</g>
<!-- Node31 -->
<g id="node7" class="node">
<title>Node31</title>
<g id="a_node7"><a xlink:href="../../d5/d14/class_ex_fat_file.html#a73b44815e009bc85e6e46064f3cfac91" target="_top" xlink:title=" ">
<polygon fill="white" stroke="black" points="352,-80.5 352,-101.5 481,-101.5 481,-80.5 352,-80.5"/>
<text text-anchor="middle" x="416.5" y="-87.9" font-family="Helvetica,sans-Serif" font-size="12.00">ExFatFile::hashName</text>
</a>
</g>
</g>
<!-- Node1&#45;&gt;Node31 -->
<g id="edge6" class="edge">
<title>Node1&#45;&gt;Node31</title>
<path fill="none" stroke="midnightblue" d="M506.76,-78.81C498.36,-79.96 489.66,-81.15 481.13,-82.31"/>
<polygon fill="midnightblue" stroke="midnightblue" points="507.41,-82.26 516.84,-77.44 506.46,-75.32 507.41,-82.26"/>
</g>
<!-- Node3 -->
<g id="node3" class="node">
<title>Node3</title>
<g id="a_node3"><a xlink:href="../../d5/d14/class_ex_fat_file.html#a531de6eac70b708a3fefd96e25506016" target="_top" xlink:title=" ">
<polygon fill="white" stroke="black" points="169,-40.5 169,-61.5 305,-61.5 305,-40.5 169,-40.5"/>
<text text-anchor="middle" x="237" y="-47.9" font-family="Helvetica,sans-Serif" font-size="12.00">ExFatFile::openPrivate</text>
</a>
</g>
</g>
<!-- Node2&#45;&gt;Node3 -->
<g id="edge2" class="edge">
<title>Node2&#45;&gt;Node3</title>
<path fill="none" stroke="midnightblue" d="M342.62,-51C330.22,-51 317.38,-51 305.14,-51"/>
<polygon fill="midnightblue" stroke="midnightblue" points="342.92,-54.5 352.92,-51 342.92,-47.5 342.92,-54.5"/>
</g>
<!-- Node4 -->
<g id="node4" class="node">
<title>Node4</title>
<g id="a_node4"><a xlink:href="../../d5/d14/class_ex_fat_file.html#ad9ca8c5ba1de8965e65b9f25f31baeff" target="_top" xlink:title=" ">
<polygon fill="white" stroke="red" points="10,-40.5 10,-61.5 112,-61.5 112,-40.5 10,-40.5"/>
<text text-anchor="middle" x="61" y="-47.9" font-family="Helvetica,sans-Serif" font-size="12.00">ExFatFile::mkdir</text>
</a>
</g>
</g>
<!-- Node3&#45;&gt;Node4 -->
<g id="edge3" class="edge">
<title>Node3&#45;&gt;Node4</title>
<path fill="none" stroke="midnightblue" d="M158.47,-51C142.73,-51 126.57,-51 112.09,-51"/>
<polygon fill="midnightblue" stroke="midnightblue" points="158.73,-54.5 168.73,-51 158.73,-47.5 158.73,-54.5"/>
</g>
<!-- Node7 -->
<g id="node5" class="node">
<title>Node7</title>
<g id="a_node5"><a xlink:href="../../d5/d14/class_ex_fat_file.html#a354ba015486119b46be89b10ef200d27" target="_top" xlink:title=" ">
<polygon fill="white" stroke="red" points="11.5,-80.5 11.5,-101.5 110.5,-101.5 110.5,-80.5 11.5,-80.5"/>
<text text-anchor="middle" x="61" y="-87.9" font-family="Helvetica,sans-Serif" font-size="12.00">ExFatFile::open</text>
</a>
</g>
</g>
<!-- Node3&#45;&gt;Node7 -->
<g id="edge4" class="edge">
<title>Node3&#45;&gt;Node7</title>
<path fill="none" stroke="midnightblue" d="M180.47,-63.77C157,-69.16 130,-75.37 107.71,-80.49"/>
<polygon fill="midnightblue" stroke="midnightblue" points="181.32,-67.16 190.28,-61.51 179.75,-60.34 181.32,-67.16"/>
</g>
<!-- Node23 -->
<g id="node6" class="node">
<title>Node23</title>
<g id="a_node6"><a xlink:href="../../d5/d14/class_ex_fat_file.html#a3ea80d4e3dd4340c2d282097ad12c249" target="_top" xlink:title=" ">
<polygon fill="white" stroke="red" points="0,-0.5 0,-21.5 122,-21.5 122,-0.5 0,-0.5"/>
<text text-anchor="middle" x="61" y="-7.9" font-family="Helvetica,sans-Serif" font-size="12.00">ExFatFile::openNext</text>
</a>
</g>
</g>
<!-- Node3&#45;&gt;Node23 -->
<g id="edge5" class="edge">
<title>Node3&#45;&gt;Node23</title>
<path fill="none" stroke="midnightblue" d="M180.47,-38.23C157,-32.84 130,-26.63 107.71,-21.51"/>
<polygon fill="midnightblue" stroke="midnightblue" points="179.75,-41.66 190.28,-40.49 181.32,-34.84 179.75,-41.66"/>
</g>
<!-- Node32 -->
<g id="node8" class="node">
<title>Node32</title>
<g id="a_node8"><a xlink:href="../../d5/d14/class_ex_fat_file.html#a2f4dcc1eba01055754bae58b5348d8cc" target="_top" xlink:title=" ">
<polygon fill="white" stroke="black" points="158,-80.5 158,-101.5 316,-101.5 316,-80.5 158,-80.5"/>
<text text-anchor="middle" x="237" y="-87.9" font-family="Helvetica,sans-Serif" font-size="12.00">ExFatFile::parsePathName</text>
</a>
</g>
</g>
<!-- Node31&#45;&gt;Node32 -->
<g id="edge7" class="edge">
<title>Node31&#45;&gt;Node32</title>
<path fill="none" stroke="midnightblue" d="M341.69,-91C333.21,-91 324.54,-91 316.01,-91"/>
<polygon fill="midnightblue" stroke="midnightblue" points="341.92,-94.5 351.92,-91 341.92,-87.5 341.92,-94.5"/>
</g>
<!-- Node32&#45;&gt;Node4 -->
<g id="edge8" class="edge">
<title>Node32&#45;&gt;Node4</title>
<path fill="none" stroke="midnightblue" d="M180.47,-78.23C157,-72.84 130,-66.63 107.71,-61.51"/>
<polygon fill="midnightblue" stroke="midnightblue" points="179.75,-81.66 190.28,-80.49 181.32,-74.84 179.75,-81.66"/>
</g>
<!-- Node32&#45;&gt;Node7 -->
<g id="edge9" class="edge">
<title>Node32&#45;&gt;Node7</title>
<path fill="none" stroke="midnightblue" d="M147.7,-91C134.95,-91 122.24,-91 110.66,-91"/>
<polygon fill="midnightblue" stroke="midnightblue" points="147.91,-94.5 157.91,-91 147.91,-87.5 147.91,-94.5"/>
</g>
</g>
</svg>
