<?xml version="1.0" encoding="UTF-8" standalone="no"?>
<!DOCTYPE svg PUBLIC "-//W3C//DTD SVG 1.1//EN"
 "http://www.w3.org/Graphics/SVG/1.1/DTD/svg11.dtd">
<!-- Generated by graphviz version 2.47.3 (20210619.1520)
 -->
<!-- Title: ERISCore/lib/Audio/eris_analyze_scope.h Pages: 1 -->
<svg width="358pt" height="167pt"
 viewBox="0.00 0.00 358.00 167.00" xmlns="http://www.w3.org/2000/svg" xmlns:xlink="http://www.w3.org/1999/xlink">
<g id="graph0" class="graph" transform="scale(1 1) rotate(0) translate(4 163)">
<title>ERISCore/lib/Audio/eris_analyze_scope.h</title>
<!-- Node1 -->
<g id="node1" class="node">
<title>Node1</title>
<g id="a_node1"><a xlink:title=" ">
<polygon fill="#bfbfbf" stroke="black" points="0,-130.5 0,-158.5 350,-158.5 350,-130.5 0,-130.5"/>
<text text-anchor="middle" x="175" y="-140.1" font-family="Helvetica,sans-Serif" font-size="18.00">ERISCore/lib/Audio/eris_analyze_scope.h</text>
</a>
</g>
</g>
<!-- Node2 -->
<g id="node2" class="node">
<title>Node2</title>
<g id="a_node2"><a xlink:title=" ">
<polygon fill="none" stroke="#bfbfbf" points="60.5,-65.5 60.5,-93.5 155.5,-93.5 155.5,-65.5 60.5,-65.5"/>
<text text-anchor="middle" x="108" y="-75.1" font-family="Helvetica,sans-Serif" font-size="18.00">Arduino.h</text>
</a>
</g>
</g>
<!-- Node1&#45;&gt;Node2 -->
<g id="edge1" class="edge">
<title>Node1&#45;&gt;Node2</title>
<path fill="none" stroke="midnightblue" d="M161.12,-130.45C151.95,-121.83 139.77,-110.37 129.38,-100.6"/>
<polygon fill="midnightblue" stroke="midnightblue" points="131.55,-97.84 121.86,-93.54 126.75,-102.94 131.55,-97.84"/>
</g>
<!-- Node3 -->
<g id="node3" class="node">
<title>Node3</title>
<g id="a_node3"><a xlink:href="../../df/d6c/_audio_stream_8h.html" target="_top" xlink:title=" ">
<polygon fill="none" stroke="black" points="174,-65.5 174,-93.5 310,-93.5 310,-65.5 174,-65.5"/>
<text text-anchor="middle" x="242" y="-75.1" font-family="Helvetica,sans-Serif" font-size="18.00">AudioStream.h</text>
</a>
</g>
</g>
<!-- Node1&#45;&gt;Node3 -->
<g id="edge2" class="edge">
<title>Node1&#45;&gt;Node3</title>
<path fill="none" stroke="midnightblue" d="M188.88,-130.45C198.05,-121.83 210.23,-110.37 220.62,-100.6"/>
<polygon fill="midnightblue" stroke="midnightblue" points="223.25,-102.94 228.14,-93.54 218.45,-97.84 223.25,-102.94"/>
</g>
<!-- Node4 -->
<g id="node4" class="node">
<title>Node4</title>
<g id="a_node4"><a xlink:title=" ">
<polygon fill="none" stroke="#bfbfbf" points="160.5,-0.5 160.5,-28.5 231.5,-28.5 231.5,-0.5 160.5,-0.5"/>
<text text-anchor="middle" x="196" y="-10.1" font-family="Helvetica,sans-Serif" font-size="18.00">stdio.h</text>
</a>
</g>
</g>
<!-- Node3&#45;&gt;Node4 -->
<g id="edge3" class="edge">
<title>Node3&#45;&gt;Node4</title>
<path fill="none" stroke="midnightblue" d="M232.47,-65.45C226.42,-57.17 218.46,-46.27 211.52,-36.76"/>
<polygon fill="midnightblue" stroke="midnightblue" points="214.24,-34.55 205.52,-28.54 208.59,-38.68 214.24,-34.55"/>
</g>
<!-- Node5 -->
<g id="node5" class="node">
<title>Node5</title>
<g id="a_node5"><a xlink:title=" ">
<polygon fill="none" stroke="#bfbfbf" points="249.5,-0.5 249.5,-28.5 326.5,-28.5 326.5,-0.5 249.5,-0.5"/>
<text text-anchor="middle" x="288" y="-10.1" font-family="Helvetica,sans-Serif" font-size="18.00">string.h</text>
</a>
</g>
</g>
<!-- Node3&#45;&gt;Node5 -->
<g id="edge4" class="edge">
<title>Node3&#45;&gt;Node5</title>
<path fill="none" stroke="midnightblue" d="M251.53,-65.45C257.58,-57.17 265.54,-46.27 272.48,-36.76"/>
<polygon fill="midnightblue" stroke="midnightblue" points="275.41,-38.68 278.48,-28.54 269.76,-34.55 275.41,-38.68"/>
</g>
</g>
</svg>
