<?xml version="1.0" encoding="UTF-8" standalone="no"?>
<!DOCTYPE svg PUBLIC "-//W3C//DTD SVG 1.1//EN"
 "http://www.w3.org/Graphics/SVG/1.1/DTD/svg11.dtd">
<!-- Generated by graphviz version 2.47.3 (20210619.1520)
 -->
<!-- Title: FatFile::printFileSize Pages: 1 -->
<svg width="235pt" height="66pt"
 viewBox="0.00 0.00 235.00 66.00" xmlns="http://www.w3.org/2000/svg" xmlns:xlink="http://www.w3.org/1999/xlink">
<g id="graph0" class="graph" transform="scale(1 1) rotate(0) translate(4 62)">
<title>FatFile::printFileSize</title>
<polygon fill="white" stroke="transparent" points="-4,4 -4,-62 231,-62 231,4 -4,4"/>
<!-- Node1 -->
<g id="node1" class="node">
<title>Node1</title>
<g id="a_node1"><a xlink:title=" ">
<polygon fill="#bfbfbf" stroke="black" points="0,-19.5 0,-38.5 107,-38.5 107,-19.5 0,-19.5"/>
<text text-anchor="middle" x="53.5" y="-26.5" font-family="Helvetica,sans-Serif" font-size="10.00">FatFile::printFileSize</text>
</a>
</g>
</g>
<!-- Node2 -->
<g id="node2" class="node">
<title>Node2</title>
<g id="a_node2"><a xlink:href="../../d3/d51/class_fat_file.html#a874940574b9c99e763526465adf8dc28" target="_top" xlink:title=" ">
<polygon fill="white" stroke="black" points="143,-38.5 143,-57.5 227,-57.5 227,-38.5 143,-38.5"/>
<text text-anchor="middle" x="185" y="-45.5" font-family="Helvetica,sans-Serif" font-size="10.00">FatFile::fileSize</text>
</a>
</g>
</g>
<!-- Node1&#45;&gt;Node2 -->
<g id="edge1" class="edge">
<title>Node1&#45;&gt;Node2</title>
<path fill="none" stroke="midnightblue" d="M107.17,-36.73C115.64,-37.97 124.38,-39.25 132.81,-40.49"/>
<polygon fill="midnightblue" stroke="midnightblue" points="132.49,-43.98 142.89,-41.97 133.51,-37.05 132.49,-43.98"/>
</g>
<!-- Node3 -->
<g id="node3" class="node">
<title>Node3</title>
<g id="a_node3"><a xlink:href="../../d8/d73/_fmt_number_8cpp.html#aa87498a09d9a7d0480d5144c240e38f7" target="_top" xlink:title=" ">
<polygon fill="white" stroke="black" points="153.5,-0.5 153.5,-19.5 216.5,-19.5 216.5,-0.5 153.5,-0.5"/>
<text text-anchor="middle" x="185" y="-7.5" font-family="Helvetica,sans-Serif" font-size="10.00">fmtBase10</text>
</a>
</g>
</g>
<!-- Node1&#45;&gt;Node3 -->
<g id="edge2" class="edge">
<title>Node1&#45;&gt;Node3</title>
<path fill="none" stroke="midnightblue" d="M107.17,-21.27C119.18,-19.51 131.77,-17.66 143.19,-15.99"/>
<polygon fill="midnightblue" stroke="midnightblue" points="143.92,-19.42 153.31,-14.5 142.91,-12.49 143.92,-19.42"/>
</g>
</g>
</svg>
