<?xml version="1.0" encoding="UTF-8" standalone="no"?>
<!DOCTYPE svg PUBLIC "-//W3C//DTD SVG 1.1//EN"
 "http://www.w3.org/Graphics/SVG/1.1/DTD/svg11.dtd">
<!-- Generated by graphviz version 2.47.3 (20210619.1520)
 -->
<!-- Title: FatFile::open Pages: 1 -->
<svg width="528pt" height="458pt"
 viewBox="0.00 0.00 528.00 458.00" xmlns="http://www.w3.org/2000/svg" xmlns:xlink="http://www.w3.org/1999/xlink">
<g id="graph0" class="graph" transform="scale(1 1) rotate(0) translate(4 454)">
<title>FatFile::open</title>
<polygon fill="white" stroke="transparent" points="-4,4 -4,-454 524,-454 524,4 -4,4"/>
<!-- Node1 -->
<g id="node1" class="node">
<title>Node1</title>
<g id="a_node1"><a xlink:title=" ">
<polygon fill="#bfbfbf" stroke="black" points="0,-173.5 0,-192.5 74,-192.5 74,-173.5 0,-173.5"/>
<text text-anchor="middle" x="37" y="-180.5" font-family="Helvetica,sans-Serif" font-size="10.00">FatFile::open</text>
</a>
</g>
</g>
<!-- Node2 -->
<g id="node2" class="node">
<title>Node2</title>
<g id="a_node2"><a xlink:href="../../d3/d51/class_fat_file.html#afd16af325e0642e4bff6430b7d8bb18b" target="_top" xlink:title=" ">
<polygon fill="white" stroke="black" points="119,-268.5 119,-287.5 195,-287.5 195,-268.5 119,-268.5"/>
<text text-anchor="middle" x="157" y="-275.5" font-family="Helvetica,sans-Serif" font-size="10.00">FatFile::close</text>
</a>
</g>
</g>
<!-- Node1&#45;&gt;Node2 -->
<g id="edge1" class="edge">
<title>Node1&#45;&gt;Node2</title>
<path fill="none" stroke="midnightblue" d="M50.18,-192.81C70.52,-209.18 111.55,-242.21 136.12,-261.99"/>
<polygon fill="midnightblue" stroke="midnightblue" points="134.07,-264.84 144.06,-268.39 138.46,-259.39 134.07,-264.84"/>
</g>
<!-- Node12 -->
<g id="node12" class="node">
<title>Node12</title>
<g id="a_node12"><a xlink:href="../../d3/d51/class_fat_file.html#ae5ec24d4a94d3780384d3f2b731c7eb9" target="_top" xlink:title=" ">
<polygon fill="white" stroke="black" points="114,-211.5 114,-230.5 200,-230.5 200,-211.5 114,-211.5"/>
<text text-anchor="middle" x="157" y="-218.5" font-family="Helvetica,sans-Serif" font-size="10.00">FatFile::dirIndex</text>
</a>
</g>
</g>
<!-- Node1&#45;&gt;Node12 -->
<g id="edge11" class="edge">
<title>Node1&#45;&gt;Node12</title>
<path fill="none" stroke="midnightblue" d="M67.78,-192.59C82.59,-197.36 100.69,-203.19 116.63,-208.32"/>
<polygon fill="midnightblue" stroke="midnightblue" points="115.64,-211.68 126.23,-211.41 117.79,-205.02 115.64,-211.68"/>
</g>
<!-- Node13 -->
<g id="node13" class="node">
<title>Node13</title>
<g id="a_node13"><a xlink:href="../../d3/d51/class_fat_file.html#acda9b1bf547d43e183e657bee053a48d" target="_top" xlink:title=" ">
<polygon fill="white" stroke="black" points="110,-173.5 110,-192.5 204,-192.5 204,-173.5 110,-173.5"/>
<text text-anchor="middle" x="157" y="-180.5" font-family="Helvetica,sans-Serif" font-size="10.00">FatFile::openNext</text>
</a>
</g>
</g>
<!-- Node1&#45;&gt;Node13 -->
<g id="edge12" class="edge">
<title>Node1&#45;&gt;Node13</title>
<path fill="none" stroke="midnightblue" d="M74.05,-183C82.13,-183 90.9,-183 99.59,-183"/>
<polygon fill="midnightblue" stroke="midnightblue" points="99.72,-186.5 109.72,-183 99.72,-179.5 99.72,-186.5"/>
</g>
<!-- Node17 -->
<g id="node17" class="node">
<title>Node17</title>
<g id="a_node17"><a xlink:href="../../d3/d51/class_fat_file.html#a5aac6e0b3cb08fc8b8668e916a8b0ca5" target="_top" xlink:title=" ">
<polygon fill="white" stroke="black" points="117,-135.5 117,-154.5 197,-154.5 197,-135.5 117,-135.5"/>
<text text-anchor="middle" x="157" y="-142.5" font-family="Helvetica,sans-Serif" font-size="10.00">FatFile::rewind</text>
</a>
</g>
</g>
<!-- Node1&#45;&gt;Node17 -->
<g id="edge17" class="edge">
<title>Node1&#45;&gt;Node17</title>
<path fill="none" stroke="midnightblue" d="M67.78,-173.41C82.59,-168.64 100.69,-162.81 116.63,-157.68"/>
<polygon fill="midnightblue" stroke="midnightblue" points="117.79,-160.98 126.23,-154.59 115.64,-154.32 117.79,-160.98"/>
</g>
<!-- Node18 -->
<g id="node18" class="node">
<title>Node18</title>
<g id="a_node18"><a xlink:href="../../d3/d51/class_fat_file.html#ab067190d25733ed7e697d9890f61fd7a" target="_top" xlink:title=" ">
<polygon fill="white" stroke="black" points="246,-88.5 246,-107.5 335,-107.5 335,-88.5 246,-88.5"/>
<text text-anchor="middle" x="290.5" y="-95.5" font-family="Helvetica,sans-Serif" font-size="10.00">FatFile::seekSet</text>
</a>
</g>
</g>
<!-- Node1&#45;&gt;Node18 -->
<g id="edge18" class="edge">
<title>Node1&#45;&gt;Node18</title>
<path fill="none" stroke="midnightblue" d="M47.17,-173.07C59.9,-159.97 84.29,-137.24 110,-126 149.89,-108.56 198.94,-101.79 235.68,-99.25"/>
<polygon fill="midnightblue" stroke="midnightblue" points="235.93,-102.74 245.7,-98.64 235.51,-95.75 235.93,-102.74"/>
</g>
<!-- Node3 -->
<g id="node3" class="node">
<title>Node3</title>
<g id="a_node3"><a xlink:href="../../d3/d51/class_fat_file.html#a67f3dc4896c542d695e11aac927f585e" target="_top" xlink:title=" ">
<polygon fill="white" stroke="black" points="253.5,-278.5 253.5,-297.5 327.5,-297.5 327.5,-278.5 253.5,-278.5"/>
<text text-anchor="middle" x="290.5" y="-285.5" font-family="Helvetica,sans-Serif" font-size="10.00">FatFile::sync</text>
</a>
</g>
</g>
<!-- Node2&#45;&gt;Node3 -->
<g id="edge2" class="edge">
<title>Node2&#45;&gt;Node3</title>
<path fill="none" stroke="midnightblue" d="M195.33,-280.84C210.28,-281.98 227.66,-283.3 243.38,-284.49"/>
<polygon fill="midnightblue" stroke="midnightblue" points="243.2,-287.99 253.44,-285.26 243.73,-281.01 243.2,-287.99"/>
</g>
<!-- Node4 -->
<g id="node4" class="node">
<title>Node4</title>
<g id="a_node4"><a xlink:href="../../d3/d51/class_fat_file.html#a49f8a32fb375d562158172b5fb65243d" target="_top" xlink:title=" ">
<polygon fill="white" stroke="black" points="402.5,-430.5 402.5,-449.5 494.5,-449.5 494.5,-430.5 402.5,-430.5"/>
<text text-anchor="middle" x="448.5" y="-437.5" font-family="Helvetica,sans-Serif" font-size="10.00">FatFile::isArchive</text>
</a>
</g>
</g>
<!-- Node3&#45;&gt;Node4 -->
<g id="edge3" class="edge">
<title>Node3&#45;&gt;Node4</title>
<path fill="none" stroke="midnightblue" d="M294.92,-297.78C304.07,-322.48 331.58,-387.79 377,-421 381.79,-424.5 387.18,-427.35 392.79,-429.68"/>
<polygon fill="midnightblue" stroke="midnightblue" points="391.79,-433.04 402.38,-433.13 394.15,-426.45 391.79,-433.04"/>
</g>
<!-- Node5 -->
<g id="node5" class="node">
<title>Node5</title>
<g id="a_node5"><a xlink:href="../../d3/d51/class_fat_file.html#acc5a87da1a5c8cb9758bfeaa7ae47b57" target="_top" xlink:title=" ">
<polygon fill="white" stroke="black" points="410.5,-202.5 410.5,-221.5 486.5,-221.5 486.5,-202.5 410.5,-202.5"/>
<text text-anchor="middle" x="448.5" y="-209.5" font-family="Helvetica,sans-Serif" font-size="10.00">FatFile::isFile</text>
</a>
</g>
</g>
<!-- Node3&#45;&gt;Node5 -->
<g id="edge4" class="edge">
<title>Node3&#45;&gt;Node5</title>
<path fill="none" stroke="midnightblue" d="M322.66,-278.48C328.99,-275.89 335.41,-272.74 341,-269 360.34,-256.07 357.02,-242.92 377,-231 384.28,-226.66 392.56,-223.29 400.83,-220.68"/>
<polygon fill="midnightblue" stroke="midnightblue" points="401.8,-224.04 410.47,-217.95 399.89,-217.31 401.8,-224.04"/>
</g>
<!-- Node6 -->
<g id="node6" class="node">
<title>Node6</title>
<g id="a_node6"><a xlink:href="../../d3/d51/class_fat_file.html#ae216b4a2bc44a9cfb88478fa051a1fd8" target="_top" xlink:title=" ">
<polygon fill="white" stroke="black" points="403.5,-392.5 403.5,-411.5 493.5,-411.5 493.5,-392.5 403.5,-392.5"/>
<text text-anchor="middle" x="448.5" y="-399.5" font-family="Helvetica,sans-Serif" font-size="10.00">FatFile::isHidden</text>
</a>
</g>
</g>
<!-- Node3&#45;&gt;Node6 -->
<g id="edge5" class="edge">
<title>Node3&#45;&gt;Node6</title>
<path fill="none" stroke="midnightblue" d="M297.47,-297.76C309.82,-317.09 340.13,-360.36 377,-383 382.12,-386.14 387.76,-388.78 393.56,-390.98"/>
<polygon fill="midnightblue" stroke="midnightblue" points="392.79,-394.41 403.39,-394.29 395.03,-387.78 392.79,-394.41"/>
</g>
<!-- Node7 -->
<g id="node7" class="node">
<title>Node7</title>
<g id="a_node7"><a xlink:href="../../d3/d51/class_fat_file.html#a8b8a2850c086d3ce79bee64a23fbf7a6" target="_top" xlink:title=" ">
<polygon fill="white" stroke="black" points="407,-164.5 407,-183.5 490,-183.5 490,-164.5 407,-164.5"/>
<text text-anchor="middle" x="448.5" y="-171.5" font-family="Helvetica,sans-Serif" font-size="10.00">FatFile::isOpen</text>
</a>
</g>
</g>
<!-- Node3&#45;&gt;Node7 -->
<g id="edge6" class="edge">
<title>Node3&#45;&gt;Node7</title>
<path fill="none" stroke="midnightblue" d="M326.48,-278.49C331.75,-275.99 336.81,-272.88 341,-269 368.41,-243.59 348.31,-216.96 377,-193 382.82,-188.14 389.77,-184.51 397,-181.81"/>
<polygon fill="midnightblue" stroke="midnightblue" points="398.48,-185.01 406.96,-178.67 396.37,-178.34 398.48,-185.01"/>
</g>
<!-- Node8 -->
<g id="node8" class="node">
<title>Node8</title>
<g id="a_node8"><a xlink:href="../../d3/d51/class_fat_file.html#abaf639ec8f86f34aeb7e6b3615526f0b" target="_top" xlink:title=" ">
<polygon fill="white" stroke="black" points="397,-354.5 397,-373.5 500,-373.5 500,-354.5 397,-354.5"/>
<text text-anchor="middle" x="448.5" y="-361.5" font-family="Helvetica,sans-Serif" font-size="10.00">FatFile::isReadOnly</text>
</a>
</g>
</g>
<!-- Node3&#45;&gt;Node8 -->
<g id="edge7" class="edge">
<title>Node3&#45;&gt;Node8</title>
<path fill="none" stroke="midnightblue" d="M303.22,-297.64C319.05,-310.21 348.57,-332.11 377,-345 382.25,-347.38 387.86,-349.52 393.54,-351.42"/>
<polygon fill="midnightblue" stroke="midnightblue" points="392.51,-354.76 403.1,-354.4 394.6,-348.08 392.51,-354.76"/>
</g>
<!-- Node9 -->
<g id="node9" class="node">
<title>Node9</title>
<g id="a_node9"><a xlink:href="../../d3/d51/class_fat_file.html#a48087bdeb6b94fc27e0f74c3d90af5a9" target="_top" xlink:title=" ">
<polygon fill="white" stroke="black" points="401.5,-316.5 401.5,-335.5 495.5,-335.5 495.5,-316.5 401.5,-316.5"/>
<text text-anchor="middle" x="448.5" y="-323.5" font-family="Helvetica,sans-Serif" font-size="10.00">FatFile::isSystem</text>
</a>
</g>
</g>
<!-- Node3&#45;&gt;Node9 -->
<g id="edge8" class="edge">
<title>Node3&#45;&gt;Node9</title>
<path fill="none" stroke="midnightblue" d="M327.68,-296.81C348.69,-301.93 375.46,-308.45 398.35,-314.03"/>
<polygon fill="midnightblue" stroke="midnightblue" points="397.69,-317.47 408.24,-316.44 399.35,-310.67 397.69,-317.47"/>
</g>
<!-- Node10 -->
<g id="node10" class="node">
<title>Node10</title>
<g id="a_node10"><a xlink:href="../../d1/db3/_fs_structs_8h.html#a2a47595a3bb5c1f0f67d4f3dddac0a0e" target="_top" xlink:title=" ">
<polygon fill="white" stroke="black" points="423,-278.5 423,-297.5 474,-297.5 474,-278.5 423,-278.5"/>
<text text-anchor="middle" x="448.5" y="-285.5" font-family="Helvetica,sans-Serif" font-size="10.00">setLe16</text>
</a>
</g>
</g>
<!-- Node3&#45;&gt;Node10 -->
<g id="edge9" class="edge">
<title>Node3&#45;&gt;Node10</title>
<path fill="none" stroke="midnightblue" d="M327.68,-288C353.2,-288 387.19,-288 412.45,-288"/>
<polygon fill="midnightblue" stroke="midnightblue" points="412.7,-291.5 422.7,-288 412.7,-284.5 412.7,-291.5"/>
</g>
<!-- Node11 -->
<g id="node11" class="node">
<title>Node11</title>
<g id="a_node11"><a xlink:href="../../d1/db3/_fs_structs_8h.html#a294114e9924b0436c1d110e692bef464" target="_top" xlink:title=" ">
<polygon fill="white" stroke="black" points="423,-240.5 423,-259.5 474,-259.5 474,-240.5 423,-240.5"/>
<text text-anchor="middle" x="448.5" y="-247.5" font-family="Helvetica,sans-Serif" font-size="10.00">setLe32</text>
</a>
</g>
</g>
<!-- Node3&#45;&gt;Node11 -->
<g id="edge10" class="edge">
<title>Node3&#45;&gt;Node11</title>
<path fill="none" stroke="midnightblue" d="M327.68,-279.19C353.31,-272.94 387.5,-264.62 412.79,-258.45"/>
<polygon fill="midnightblue" stroke="midnightblue" points="413.81,-261.81 422.7,-256.04 412.15,-255.01 413.81,-261.81"/>
</g>
<!-- Node13&#45;&gt;Node7 -->
<g id="edge16" class="edge">
<title>Node13&#45;&gt;Node7</title>
<path fill="none" stroke="midnightblue" d="M204.19,-181.56C256.68,-179.93 342.1,-177.28 396.5,-175.59"/>
<polygon fill="midnightblue" stroke="midnightblue" points="396.73,-179.08 406.62,-175.27 396.52,-172.08 396.73,-179.08"/>
</g>
<!-- Node14 -->
<g id="node14" class="node">
<title>Node14</title>
<g id="a_node14"><a xlink:href="../../d3/d51/class_fat_file.html#a97e0620949f97e9b9c91ed1094d728aa" target="_top" xlink:title=" ">
<polygon fill="white" stroke="black" points="240,-126.5 240,-145.5 341,-145.5 341,-126.5 240,-126.5"/>
<text text-anchor="middle" x="290.5" y="-133.5" font-family="Helvetica,sans-Serif" font-size="10.00">FatFile::curPosition</text>
</a>
</g>
</g>
<!-- Node13&#45;&gt;Node14 -->
<g id="edge13" class="edge">
<title>Node13&#45;&gt;Node14</title>
<path fill="none" stroke="midnightblue" d="M184.61,-173.49C204.27,-166.46 231.26,-156.82 252.94,-149.07"/>
<polygon fill="midnightblue" stroke="midnightblue" points="254.24,-152.32 262.48,-145.66 251.88,-145.73 254.24,-152.32"/>
</g>
<!-- Node15 -->
<g id="node15" class="node">
<title>Node15</title>
<g id="a_node15"><a xlink:href="../../d3/d51/class_fat_file.html#ad0dbbd083180f44c7a3ce7124d4ce19c" target="_top" xlink:title=" ">
<polygon fill="white" stroke="black" points="247,-240.5 247,-259.5 334,-259.5 334,-240.5 247,-240.5"/>
<text text-anchor="middle" x="290.5" y="-247.5" font-family="Helvetica,sans-Serif" font-size="10.00">FatFile::getError</text>
</a>
</g>
</g>
<!-- Node13&#45;&gt;Node15 -->
<g id="edge14" class="edge">
<title>Node13&#45;&gt;Node15</title>
<path fill="none" stroke="midnightblue" d="M184.9,-192.6C191.33,-195.3 198.05,-198.48 204,-202 221.68,-212.47 222.19,-220.75 240,-231 243.4,-232.96 247.05,-234.79 250.76,-236.49"/>
<polygon fill="midnightblue" stroke="midnightblue" points="249.44,-239.73 260.01,-240.41 252.17,-233.29 249.44,-239.73"/>
</g>
<!-- Node16 -->
<g id="node16" class="node">
<title>Node16</title>
<g id="a_node16"><a xlink:href="../../d3/d51/class_fat_file.html#a933360b20b496421b2bd9ee7a95563a6" target="_top" xlink:title=" ">
<polygon fill="white" stroke="black" points="254.5,-202.5 254.5,-221.5 326.5,-221.5 326.5,-202.5 254.5,-202.5"/>
<text text-anchor="middle" x="290.5" y="-209.5" font-family="Helvetica,sans-Serif" font-size="10.00">FatFile::isDir</text>
</a>
</g>
</g>
<!-- Node13&#45;&gt;Node16 -->
<g id="edge15" class="edge">
<title>Node13&#45;&gt;Node16</title>
<path fill="none" stroke="midnightblue" d="M201.42,-192.58C215.27,-195.63 230.61,-199.01 244.56,-202.09"/>
<polygon fill="midnightblue" stroke="midnightblue" points="243.92,-205.53 254.43,-204.27 245.42,-198.7 243.92,-205.53"/>
</g>
<!-- Node18&#45;&gt;Node5 -->
<g id="edge20" class="edge">
<title>Node18&#45;&gt;Node5</title>
<path fill="none" stroke="midnightblue" d="M326.48,-107.51C331.75,-110.01 336.81,-113.12 341,-117 368.41,-142.41 348.31,-169.04 377,-193 383.71,-198.61 391.93,-202.57 400.35,-205.37"/>
<polygon fill="midnightblue" stroke="midnightblue" points="399.68,-208.82 410.25,-208.15 401.57,-202.08 399.68,-208.82"/>
</g>
<!-- Node18&#45;&gt;Node7 -->
<g id="edge21" class="edge">
<title>Node18&#45;&gt;Node7</title>
<path fill="none" stroke="midnightblue" d="M322.62,-107.58C328.95,-110.17 335.39,-113.3 341,-117 360.16,-129.63 357.29,-142.25 377,-154 383.24,-157.72 390.19,-160.77 397.24,-163.27"/>
<polygon fill="midnightblue" stroke="midnightblue" points="396.26,-166.64 406.85,-166.35 398.4,-159.97 396.26,-166.64"/>
</g>
<!-- Node19 -->
<g id="node19" class="node">
<title>Node19</title>
<g id="a_node19"><a xlink:href="../../d0/d12/class_fat_partition.html#aaf43a09e71689c257f4b189ee307db4f" target="_top" xlink:title=" ">
<polygon fill="white" stroke="black" points="377,-115 377,-145 520,-145 520,-115 377,-115"/>
<text text-anchor="start" x="385" y="-133" font-family="Helvetica,sans-Serif" font-size="10.00">FatPartition::bytesPerCluster</text>
<text text-anchor="middle" x="448.5" y="-122" font-family="Helvetica,sans-Serif" font-size="10.00">Shift</text>
</a>
</g>
</g>
<!-- Node18&#45;&gt;Node19 -->
<g id="edge19" class="edge">
<title>Node18&#45;&gt;Node19</title>
<path fill="none" stroke="midnightblue" d="M335.37,-107C345.24,-109.02 356.01,-111.23 366.85,-113.46"/>
<polygon fill="midnightblue" stroke="midnightblue" points="366.31,-116.92 376.81,-115.5 367.71,-110.06 366.31,-116.92"/>
</g>
<!-- Node20 -->
<g id="node20" class="node">
<title>Node20</title>
<g id="a_node20"><a xlink:href="../../d3/d51/class_fat_file.html#a8fda8004720ec4cc55710869dbb52e35" target="_top" xlink:title=" ">
<polygon fill="white" stroke="black" points="403,-76.5 403,-95.5 494,-95.5 494,-76.5 403,-76.5"/>
<text text-anchor="middle" x="448.5" y="-83.5" font-family="Helvetica,sans-Serif" font-size="10.00">FatFile::isRoot32</text>
</a>
</g>
</g>
<!-- Node18&#45;&gt;Node20 -->
<g id="edge22" class="edge">
<title>Node18&#45;&gt;Node20</title>
<path fill="none" stroke="midnightblue" d="M335.37,-94.63C353.16,-93.26 373.91,-91.66 392.68,-90.22"/>
<polygon fill="midnightblue" stroke="midnightblue" points="393.17,-93.69 402.88,-89.43 392.64,-86.71 393.17,-93.69"/>
</g>
<!-- Node21 -->
<g id="node21" class="node">
<title>Node21</title>
<g id="a_node21"><a xlink:href="../../d3/d51/class_fat_file.html#a0cc65089f7ce6c1ff92edbf0bff59dee" target="_top" xlink:title=" ">
<polygon fill="white" stroke="black" points="396.5,-38.5 396.5,-57.5 500.5,-57.5 500.5,-38.5 396.5,-38.5"/>
<text text-anchor="middle" x="448.5" y="-45.5" font-family="Helvetica,sans-Serif" font-size="10.00">FatFile::isRootFixed</text>
</a>
</g>
</g>
<!-- Node18&#45;&gt;Node21 -->
<g id="edge23" class="edge">
<title>Node18&#45;&gt;Node21</title>
<path fill="none" stroke="midnightblue" d="M316.01,-88.49C333,-82.05 356.22,-73.55 377,-67 384.31,-64.69 392.11,-62.42 399.74,-60.28"/>
<polygon fill="midnightblue" stroke="midnightblue" points="400.92,-63.59 409.64,-57.57 399.07,-56.84 400.92,-63.59"/>
</g>
<!-- Node22 -->
<g id="node22" class="node">
<title>Node22</title>
<g id="a_node22"><a xlink:href="../../d0/d12/class_fat_partition.html#a5d005e0f6fd4b84da8a5ebdea03aaf85" target="_top" xlink:title=" ">
<polygon fill="white" stroke="black" points="387.5,-0.5 387.5,-19.5 509.5,-19.5 509.5,-0.5 387.5,-0.5"/>
<text text-anchor="middle" x="448.5" y="-7.5" font-family="Helvetica,sans-Serif" font-size="10.00">FatPartition::rootDirStart</text>
</a>
</g>
</g>
<!-- Node18&#45;&gt;Node22 -->
<g id="edge24" class="edge">
<title>Node18&#45;&gt;Node22</title>
<path fill="none" stroke="midnightblue" d="M300.56,-88.48C315.24,-73.61 345.73,-44.93 377,-29 381.54,-26.69 386.4,-24.63 391.36,-22.81"/>
<polygon fill="midnightblue" stroke="midnightblue" points="392.59,-26.09 400.96,-19.59 390.37,-19.45 392.59,-26.09"/>
</g>
</g>
</svg>
