<?xml version="1.0" encoding="UTF-8" standalone="no"?>
<!DOCTYPE svg PUBLIC "-//W3C//DTD SVG 1.1//EN"
 "http://www.w3.org/Graphics/SVG/1.1/DTD/svg11.dtd">
<!-- Generated by graphviz version 2.47.3 (20210619.1520)
 -->
<!-- Title: FatFile::remove Pages: 1 -->
<svg width="402pt" height="230pt"
 viewBox="0.00 0.00 402.00 229.50" xmlns="http://www.w3.org/2000/svg" xmlns:xlink="http://www.w3.org/1999/xlink">
<g id="graph0" class="graph" transform="scale(1 1) rotate(0) translate(4 225.5)">
<title>FatFile::remove</title>
<polygon fill="white" stroke="transparent" points="-4,4 -4,-225.5 398,-225.5 398,4 -4,4"/>
<!-- Node1 -->
<g id="node1" class="node">
<title>Node1</title>
<g id="a_node1"><a xlink:title=" ">
<polygon fill="#bfbfbf" stroke="black" points="0,-133.5 0,-152.5 83,-152.5 83,-133.5 0,-133.5"/>
<text text-anchor="middle" x="41.5" y="-140.5" font-family="Helvetica,sans-Serif" font-size="10.00">FatFile::remove</text>
</a>
</g>
</g>
<!-- Node2 -->
<g id="node2" class="node">
<title>Node2</title>
<g id="a_node2"><a xlink:href="../../d3/d51/class_fat_file.html#af8f456ab790e818bfdd225cf6ffd40f3" target="_top" xlink:title=" ">
<polygon fill="white" stroke="black" points="128,-171.5 128,-190.5 206,-190.5 206,-171.5 128,-171.5"/>
<text text-anchor="middle" x="167" y="-178.5" font-family="Helvetica,sans-Serif" font-size="10.00">FatFile::isLFN</text>
</a>
</g>
</g>
<!-- Node1&#45;&gt;Node2 -->
<g id="edge1" class="edge">
<title>Node1&#45;&gt;Node2</title>
<path fill="none" stroke="midnightblue" d="M73.66,-152.59C89.31,-157.4 108.47,-163.3 125.27,-168.47"/>
<polygon fill="midnightblue" stroke="midnightblue" points="124.26,-171.82 134.85,-171.41 126.32,-165.13 124.26,-171.82"/>
</g>
<!-- Node3 -->
<g id="node3" class="node">
<title>Node3</title>
<g id="a_node3"><a xlink:href="../../d3/d51/class_fat_file.html#aa484d5b2b147c5f3fe0e26b6eaf11ffc" target="_top" xlink:title=" ">
<polygon fill="white" stroke="black" points="119,-133.5 119,-152.5 215,-152.5 215,-133.5 119,-133.5"/>
<text text-anchor="middle" x="167" y="-140.5" font-family="Helvetica,sans-Serif" font-size="10.00">FatFile::isWritable</text>
</a>
</g>
</g>
<!-- Node1&#45;&gt;Node3 -->
<g id="edge2" class="edge">
<title>Node1&#45;&gt;Node3</title>
<path fill="none" stroke="midnightblue" d="M83.28,-143C91.46,-143 100.2,-143 108.82,-143"/>
<polygon fill="midnightblue" stroke="midnightblue" points="108.84,-146.5 118.84,-143 108.84,-139.5 108.84,-146.5"/>
</g>
<!-- Node4 -->
<g id="node4" class="node">
<title>Node4</title>
<g id="a_node4"><a xlink:href="../../d3/d51/class_fat_file.html#ab067190d25733ed7e697d9890f61fd7a" target="_top" xlink:title=" ">
<polygon fill="white" stroke="black" points="122.5,-95.5 122.5,-114.5 211.5,-114.5 211.5,-95.5 122.5,-95.5"/>
<text text-anchor="middle" x="167" y="-102.5" font-family="Helvetica,sans-Serif" font-size="10.00">FatFile::seekSet</text>
</a>
</g>
</g>
<!-- Node1&#45;&gt;Node4 -->
<g id="edge3" class="edge">
<title>Node1&#45;&gt;Node4</title>
<path fill="none" stroke="midnightblue" d="M73.66,-133.41C89.31,-128.6 108.47,-122.7 125.27,-117.53"/>
<polygon fill="midnightblue" stroke="midnightblue" points="126.32,-120.87 134.85,-114.59 124.26,-114.18 126.32,-120.87"/>
</g>
<!-- Node5 -->
<g id="node5" class="node">
<title>Node5</title>
<g id="a_node5"><a xlink:href="../../d0/d12/class_fat_partition.html#aaf43a09e71689c257f4b189ee307db4f" target="_top" xlink:title=" ">
<polygon fill="white" stroke="black" points="251,-191 251,-221 394,-221 394,-191 251,-191"/>
<text text-anchor="start" x="259" y="-209" font-family="Helvetica,sans-Serif" font-size="10.00">FatPartition::bytesPerCluster</text>
<text text-anchor="middle" x="322.5" y="-198" font-family="Helvetica,sans-Serif" font-size="10.00">Shift</text>
</a>
</g>
</g>
<!-- Node4&#45;&gt;Node5 -->
<g id="edge4" class="edge">
<title>Node4&#45;&gt;Node5</title>
<path fill="none" stroke="midnightblue" d="M199.87,-114.71C205.26,-117.21 210.54,-120.28 215,-124 238,-143.21 227.59,-162.3 251,-181 253.09,-182.67 255.29,-184.23 257.59,-185.69"/>
<polygon fill="midnightblue" stroke="midnightblue" points="256.36,-189.01 266.79,-190.84 259.77,-182.9 256.36,-189.01"/>
</g>
<!-- Node6 -->
<g id="node6" class="node">
<title>Node6</title>
<g id="a_node6"><a xlink:href="../../d3/d51/class_fat_file.html#acc5a87da1a5c8cb9758bfeaa7ae47b57" target="_top" xlink:title=" ">
<polygon fill="white" stroke="black" points="284.5,-152.5 284.5,-171.5 360.5,-171.5 360.5,-152.5 284.5,-152.5"/>
<text text-anchor="middle" x="322.5" y="-159.5" font-family="Helvetica,sans-Serif" font-size="10.00">FatFile::isFile</text>
</a>
</g>
</g>
<!-- Node4&#45;&gt;Node6 -->
<g id="edge5" class="edge">
<title>Node4&#45;&gt;Node6</title>
<path fill="none" stroke="midnightblue" d="M193.08,-114.59C200.23,-117.47 207.98,-120.74 215,-124 231.41,-131.62 234.16,-136.38 251,-143 258.55,-145.97 266.73,-148.64 274.75,-150.97"/>
<polygon fill="midnightblue" stroke="midnightblue" points="273.84,-154.35 284.41,-153.66 275.71,-147.61 273.84,-154.35"/>
</g>
<!-- Node7 -->
<g id="node7" class="node">
<title>Node7</title>
<g id="a_node7"><a xlink:href="../../d3/d51/class_fat_file.html#a8b8a2850c086d3ce79bee64a23fbf7a6" target="_top" xlink:title=" ">
<polygon fill="white" stroke="black" points="281,-114.5 281,-133.5 364,-133.5 364,-114.5 281,-114.5"/>
<text text-anchor="middle" x="322.5" y="-121.5" font-family="Helvetica,sans-Serif" font-size="10.00">FatFile::isOpen</text>
</a>
</g>
</g>
<!-- Node4&#45;&gt;Node7 -->
<g id="edge6" class="edge">
<title>Node4&#45;&gt;Node7</title>
<path fill="none" stroke="midnightblue" d="M211.58,-110.39C230.06,-112.68 251.72,-115.36 270.9,-117.74"/>
<polygon fill="midnightblue" stroke="midnightblue" points="270.62,-121.23 280.98,-118.98 271.48,-114.28 270.62,-121.23"/>
</g>
<!-- Node8 -->
<g id="node8" class="node">
<title>Node8</title>
<g id="a_node8"><a xlink:href="../../d3/d51/class_fat_file.html#a8fda8004720ec4cc55710869dbb52e35" target="_top" xlink:title=" ">
<polygon fill="white" stroke="black" points="277,-76.5 277,-95.5 368,-95.5 368,-76.5 277,-76.5"/>
<text text-anchor="middle" x="322.5" y="-83.5" font-family="Helvetica,sans-Serif" font-size="10.00">FatFile::isRoot32</text>
</a>
</g>
</g>
<!-- Node4&#45;&gt;Node8 -->
<g id="edge7" class="edge">
<title>Node4&#45;&gt;Node8</title>
<path fill="none" stroke="midnightblue" d="M211.58,-99.61C228.7,-97.49 248.55,-95.03 266.63,-92.79"/>
<polygon fill="midnightblue" stroke="midnightblue" points="267.25,-96.24 276.75,-91.54 266.39,-89.29 267.25,-96.24"/>
</g>
<!-- Node9 -->
<g id="node9" class="node">
<title>Node9</title>
<g id="a_node9"><a xlink:href="../../d3/d51/class_fat_file.html#a0cc65089f7ce6c1ff92edbf0bff59dee" target="_top" xlink:title=" ">
<polygon fill="white" stroke="black" points="270.5,-38.5 270.5,-57.5 374.5,-57.5 374.5,-38.5 270.5,-38.5"/>
<text text-anchor="middle" x="322.5" y="-45.5" font-family="Helvetica,sans-Serif" font-size="10.00">FatFile::isRootFixed</text>
</a>
</g>
</g>
<!-- Node4&#45;&gt;Node9 -->
<g id="edge8" class="edge">
<title>Node4&#45;&gt;Node9</title>
<path fill="none" stroke="midnightblue" d="M186.42,-95.49C203,-87.2 228.19,-75.23 251,-67 257.57,-64.63 264.58,-62.4 271.53,-60.36"/>
<polygon fill="midnightblue" stroke="midnightblue" points="272.94,-63.6 281.62,-57.51 271.04,-56.86 272.94,-63.6"/>
</g>
<!-- Node10 -->
<g id="node10" class="node">
<title>Node10</title>
<g id="a_node10"><a xlink:href="../../d0/d12/class_fat_partition.html#a5d005e0f6fd4b84da8a5ebdea03aaf85" target="_top" xlink:title=" ">
<polygon fill="white" stroke="black" points="261.5,-0.5 261.5,-19.5 383.5,-19.5 383.5,-0.5 261.5,-0.5"/>
<text text-anchor="middle" x="322.5" y="-7.5" font-family="Helvetica,sans-Serif" font-size="10.00">FatPartition::rootDirStart</text>
</a>
</g>
</g>
<!-- Node4&#45;&gt;Node10 -->
<g id="edge9" class="edge">
<title>Node4&#45;&gt;Node10</title>
<path fill="none" stroke="midnightblue" d="M175.86,-95.25C189.45,-79.03 218.98,-46.59 251,-29 255.16,-26.72 259.6,-24.7 264.17,-22.91"/>
<polygon fill="midnightblue" stroke="midnightblue" points="265.38,-26.19 273.64,-19.56 263.05,-19.59 265.38,-26.19"/>
</g>
</g>
</svg>
