<?xml version="1.0" encoding="UTF-8" standalone="no"?>
<!DOCTYPE svg PUBLIC "-//W3C//DTD SVG 1.1//EN"
 "http://www.w3.org/Graphics/SVG/1.1/DTD/svg11.dtd">
<!-- Generated by graphviz version 2.47.3 (20210619.1520)
 -->
<!-- Title: FatFile::write Pages: 1 -->
<svg width="401pt" height="66pt"
 viewBox="0.00 0.00 401.00 66.00" xmlns="http://www.w3.org/2000/svg" xmlns:xlink="http://www.w3.org/1999/xlink">
<g id="graph0" class="graph" transform="scale(1 1) rotate(0) translate(4 62)">
<title>FatFile::write</title>
<polygon fill="white" stroke="transparent" points="-4,4 -4,-62 397,-62 397,4 -4,4"/>
<!-- Node1 -->
<g id="node1" class="node">
<title>Node1</title>
<g id="a_node1"><a xlink:title=" ">
<polygon fill="#bfbfbf" stroke="black" points="320,-19.5 320,-38.5 393,-38.5 393,-19.5 320,-19.5"/>
<text text-anchor="middle" x="356.5" y="-26.5" font-family="Helvetica,sans-Serif" font-size="10.00">FatFile::write</text>
</a>
</g>
</g>
<!-- Node2 -->
<g id="node2" class="node">
<title>Node2</title>
<g id="a_node2"><a xlink:href="../../d3/dc7/class_stream_base_class.html#ab977b356d28e6f6ac71d913a80b5af6a" target="_top" xlink:title=" ">
<polygon fill="white" stroke="black" points="162,-19.5 162,-38.5 284,-38.5 284,-19.5 162,-19.5"/>
<text text-anchor="middle" x="223" y="-26.5" font-family="Helvetica,sans-Serif" font-size="10.00">StreamBaseClass::write</text>
</a>
</g>
</g>
<!-- Node1&#45;&gt;Node2 -->
<g id="edge1" class="edge">
<title>Node1&#45;&gt;Node2</title>
<path fill="none" stroke="midnightblue" d="M309.75,-29C301.5,-29 292.78,-29 284.19,-29"/>
<polygon fill="midnightblue" stroke="midnightblue" points="309.91,-32.5 319.91,-29 309.91,-25.5 309.91,-32.5"/>
</g>
<!-- Node3 -->
<g id="node3" class="node">
<title>Node3</title>
<g id="a_node3"><a xlink:href="../../d3/dc7/class_stream_base_class.html#a4ed3159dab346275537ebbfa8eb2b81a" target="_top" xlink:title=" ">
<polygon fill="white" stroke="black" points="0.5,-38.5 0.5,-57.5 125.5,-57.5 125.5,-38.5 0.5,-38.5"/>
<text text-anchor="middle" x="63" y="-45.5" font-family="Helvetica,sans-Serif" font-size="10.00">StreamBaseClass::putch</text>
</a>
</g>
</g>
<!-- Node2&#45;&gt;Node3 -->
<g id="edge2" class="edge">
<title>Node2&#45;&gt;Node3</title>
<path fill="none" stroke="midnightblue" d="M151.69,-37.45C142.99,-38.5 134.15,-39.56 125.59,-40.59"/>
<polygon fill="midnightblue" stroke="midnightblue" points="152.31,-40.91 161.82,-36.24 151.47,-33.96 152.31,-40.91"/>
</g>
<!-- Node4 -->
<g id="node4" class="node">
<title>Node4</title>
<g id="a_node4"><a xlink:href="../../d3/dc7/class_stream_base_class.html#a8b39f32bfb5a8cc93be3d1541f7f1901" target="_top" xlink:title=" ">
<polygon fill="white" stroke="black" points="0,-0.5 0,-19.5 126,-19.5 126,-0.5 0,-0.5"/>
<text text-anchor="middle" x="63" y="-7.5" font-family="Helvetica,sans-Serif" font-size="10.00">StreamBaseClass::putstr</text>
</a>
</g>
</g>
<!-- Node2&#45;&gt;Node4 -->
<g id="edge3" class="edge">
<title>Node2&#45;&gt;Node4</title>
<path fill="none" stroke="midnightblue" d="M151.84,-20.56C143.27,-19.53 134.56,-18.48 126.11,-17.47"/>
<polygon fill="midnightblue" stroke="midnightblue" points="151.47,-24.04 161.82,-21.76 152.31,-17.09 151.47,-24.04"/>
</g>
</g>
</svg>
