<?xml version="1.0" encoding="UTF-8" standalone="no"?>
<!DOCTYPE svg PUBLIC "-//W3C//DTD SVG 1.1//EN"
 "http://www.w3.org/Graphics/SVG/1.1/DTD/svg11.dtd">
<!-- Generated by graphviz version 2.47.3 (20210619.1520)
 -->
<!-- Title: FatFile::ls Pages: 1 -->
<svg width="686pt" height="607pt"
 viewBox="0.00 0.00 686.00 607.00" xmlns="http://www.w3.org/2000/svg" xmlns:xlink="http://www.w3.org/1999/xlink">
<g id="graph0" class="graph" transform="scale(1 1) rotate(0) translate(4 603)">
<title>FatFile::ls</title>
<polygon fill="white" stroke="transparent" points="-4,4 -4,-603 682,-603 682,4 -4,4"/>
<!-- Node1 -->
<g id="node1" class="node">
<title>Node1</title>
<g id="a_node1"><a xlink:title=" ">
<polygon fill="#bfbfbf" stroke="black" points="0,-228.5 0,-247.5 60,-247.5 60,-228.5 0,-228.5"/>
<text text-anchor="middle" x="30" y="-235.5" font-family="Helvetica,sans-Serif" font-size="10.00">FatFile::ls</text>
</a>
</g>
</g>
<!-- Node1&#45;&gt;Node1 -->
<g id="edge14" class="edge">
<title>Node1&#45;&gt;Node1</title>
<path fill="none" stroke="midnightblue" d="M9.04,-247.76C-1.16,-256.57 5.83,-266 30,-266 45.49,-266 53.92,-262.13 55.3,-257.03"/>
<polygon fill="midnightblue" stroke="midnightblue" points="58.37,-255.33 50.96,-247.76 52.03,-258.3 58.37,-255.33"/>
</g>
<!-- Node2 -->
<g id="node2" class="node">
<title>Node2</title>
<g id="a_node2"><a xlink:href="../../d3/d51/class_fat_file.html#afd16af325e0642e4bff6430b7d8bb18b" target="_top" xlink:title=" ">
<polygon fill="white" stroke="black" points="128.5,-190.5 128.5,-209.5 204.5,-209.5 204.5,-190.5 128.5,-190.5"/>
<text text-anchor="middle" x="166.5" y="-197.5" font-family="Helvetica,sans-Serif" font-size="10.00">FatFile::close</text>
</a>
</g>
</g>
<!-- Node1&#45;&gt;Node2 -->
<g id="edge1" class="edge">
<title>Node1&#45;&gt;Node2</title>
<path fill="none" stroke="midnightblue" d="M60.18,-229.75C78.24,-224.65 101.76,-218.01 122,-212.29"/>
<polygon fill="midnightblue" stroke="midnightblue" points="122.95,-215.66 131.63,-209.57 121.05,-208.92 122.95,-215.66"/>
</g>
<!-- Node6 -->
<g id="node6" class="node">
<title>Node6</title>
<g id="a_node6"><a xlink:href="../../d3/d51/class_fat_file.html#ae216b4a2bc44a9cfb88478fa051a1fd8" target="_top" xlink:title=" ">
<polygon fill="white" stroke="black" points="561.5,-266.5 561.5,-285.5 651.5,-285.5 651.5,-266.5 561.5,-266.5"/>
<text text-anchor="middle" x="606.5" y="-273.5" font-family="Helvetica,sans-Serif" font-size="10.00">FatFile::isHidden</text>
</a>
</g>
</g>
<!-- Node1&#45;&gt;Node6 -->
<g id="edge13" class="edge">
<title>Node1&#45;&gt;Node6</title>
<path fill="none" stroke="midnightblue" d="M60.38,-239.36C119.69,-242.18 257.98,-249.03 374,-257 434.59,-261.16 504.02,-267 550.91,-271.11"/>
<polygon fill="midnightblue" stroke="midnightblue" points="550.88,-274.62 561.15,-272.01 551.49,-267.65 550.88,-274.62"/>
</g>
<!-- Node12 -->
<g id="node12" class="node">
<title>Node12</title>
<g id="a_node12"><a xlink:href="../../d3/d51/class_fat_file.html#ad0dbbd083180f44c7a3ce7124d4ce19c" target="_top" xlink:title=" ">
<polygon fill="white" stroke="black" points="280,-380.5 280,-399.5 367,-399.5 367,-380.5 280,-380.5"/>
<text text-anchor="middle" x="323.5" y="-387.5" font-family="Helvetica,sans-Serif" font-size="10.00">FatFile::getError</text>
</a>
</g>
</g>
<!-- Node1&#45;&gt;Node12 -->
<g id="edge11" class="edge">
<title>Node1&#45;&gt;Node12</title>
<path fill="none" stroke="midnightblue" d="M34.74,-247.52C42.83,-266.82 63.86,-310.61 96,-333 148.02,-369.25 221,-382.49 269.93,-387.29"/>
<polygon fill="midnightblue" stroke="midnightblue" points="269.71,-390.79 279.99,-388.2 270.34,-383.82 269.71,-390.79"/>
</g>
<!-- Node13 -->
<g id="node13" class="node">
<title>Node13</title>
<g id="a_node13"><a xlink:href="../../d3/d51/class_fat_file.html#a933360b20b496421b2bd9ee7a95563a6" target="_top" xlink:title=" ">
<polygon fill="white" stroke="black" points="287.5,-266.5 287.5,-285.5 359.5,-285.5 359.5,-266.5 287.5,-266.5"/>
<text text-anchor="middle" x="323.5" y="-273.5" font-family="Helvetica,sans-Serif" font-size="10.00">FatFile::isDir</text>
</a>
</g>
</g>
<!-- Node1&#45;&gt;Node13 -->
<g id="edge12" class="edge">
<title>Node1&#45;&gt;Node13</title>
<path fill="none" stroke="midnightblue" d="M60.32,-245.01C71.44,-247.49 84.26,-250.12 96,-252 158.49,-262.01 231.36,-268.88 277.22,-272.63"/>
<polygon fill="midnightblue" stroke="midnightblue" points="277.18,-276.14 287.43,-273.45 277.74,-269.16 277.18,-276.14"/>
</g>
<!-- Node14 -->
<g id="node14" class="node">
<title>Node14</title>
<g id="a_node14"><a xlink:href="../../d3/d51/class_fat_file.html#acda9b1bf547d43e183e657bee053a48d" target="_top" xlink:title=" ">
<polygon fill="white" stroke="black" points="119.5,-304.5 119.5,-323.5 213.5,-323.5 213.5,-304.5 119.5,-304.5"/>
<text text-anchor="middle" x="166.5" y="-311.5" font-family="Helvetica,sans-Serif" font-size="10.00">FatFile::openNext</text>
</a>
</g>
</g>
<!-- Node1&#45;&gt;Node14 -->
<g id="edge15" class="edge">
<title>Node1&#45;&gt;Node14</title>
<path fill="none" stroke="midnightblue" d="M40.79,-247.65C52.88,-259.1 74.48,-278.14 96,-290 103.63,-294.21 112.14,-297.88 120.51,-301"/>
<polygon fill="midnightblue" stroke="midnightblue" points="119.62,-304.39 130.21,-304.41 121.94,-297.79 119.62,-304.39"/>
</g>
<!-- Node16 -->
<g id="node16" class="node">
<title>Node16</title>
<g id="a_node16"><a xlink:href="../../d3/d51/class_fat_file.html#a12a5d2de2737c201aa39ca1bd2ab9c47" target="_top" xlink:title=" ">
<polygon fill="white" stroke="black" points="113,-57.5 113,-76.5 220,-76.5 220,-57.5 113,-57.5"/>
<text text-anchor="middle" x="166.5" y="-64.5" font-family="Helvetica,sans-Serif" font-size="10.00">FatFile::printFileSize</text>
</a>
</g>
</g>
<!-- Node1&#45;&gt;Node16 -->
<g id="edge20" class="edge">
<title>Node1&#45;&gt;Node16</title>
<path fill="none" stroke="midnightblue" d="M35.02,-228.4C43.93,-207.82 66.9,-158.47 96,-124 109.5,-108 127.94,-93.12 142.43,-82.57"/>
<polygon fill="midnightblue" stroke="midnightblue" points="144.73,-85.23 150.87,-76.6 140.68,-79.52 144.73,-85.23"/>
</g>
<!-- Node19 -->
<g id="node19" class="node">
<title>Node19</title>
<g id="a_node19"><a xlink:href="../../d3/d51/class_fat_file.html#a43c8a1cabcae673e43c590f5db44c65a" target="_top" xlink:title=" ">
<polygon fill="white" stroke="black" points="96,-133.5 96,-152.5 237,-152.5 237,-133.5 96,-133.5"/>
<text text-anchor="middle" x="166.5" y="-140.5" font-family="Helvetica,sans-Serif" font-size="10.00">FatFile::printModifyDateTime</text>
</a>
</g>
</g>
<!-- Node1&#45;&gt;Node19 -->
<g id="edge23" class="edge">
<title>Node1&#45;&gt;Node19</title>
<path fill="none" stroke="midnightblue" d="M40.57,-228.39C52.77,-216.44 74.84,-195.79 96,-181 108.57,-172.21 123.39,-163.86 136.1,-157.24"/>
<polygon fill="midnightblue" stroke="midnightblue" points="138.02,-160.2 145.34,-152.54 134.84,-153.96 138.02,-160.2"/>
</g>
<!-- Node25 -->
<g id="node25" class="node">
<title>Node25</title>
<g id="a_node25"><a xlink:href="../../d3/d51/class_fat_file.html#afe18a787fb8640e2d2483370c770f82f" target="_top" xlink:title=" ">
<polygon fill="white" stroke="black" points="118,-427.5 118,-446.5 215,-446.5 215,-427.5 118,-427.5"/>
<text text-anchor="middle" x="166.5" y="-434.5" font-family="Helvetica,sans-Serif" font-size="10.00">FatFile::printName</text>
</a>
</g>
</g>
<!-- Node1&#45;&gt;Node25 -->
<g id="edge30" class="edge">
<title>Node1&#45;&gt;Node25</title>
<path fill="none" stroke="midnightblue" d="M32.9,-247.88C38.42,-274.31 56.61,-347.77 96,-394 106.15,-405.91 120.44,-415.53 133.43,-422.63"/>
<polygon fill="midnightblue" stroke="midnightblue" points="132.09,-425.88 142.58,-427.35 135.3,-419.66 132.09,-425.88"/>
</g>
<!-- Node35 -->
<g id="node35" class="node">
<title>Node35</title>
<g id="a_node35"><a xlink:href="../../d3/d51/class_fat_file.html#a5aac6e0b3cb08fc8b8668e916a8b0ca5" target="_top" xlink:title=" ">
<polygon fill="white" stroke="black" points="126.5,-19.5 126.5,-38.5 206.5,-38.5 206.5,-19.5 126.5,-19.5"/>
<text text-anchor="middle" x="166.5" y="-26.5" font-family="Helvetica,sans-Serif" font-size="10.00">FatFile::rewind</text>
</a>
</g>
</g>
<!-- Node1&#45;&gt;Node35 -->
<g id="edge43" class="edge">
<title>Node1&#45;&gt;Node35</title>
<path fill="none" stroke="midnightblue" d="M31.28,-228.46C32.73,-197.53 41.62,-99.07 96,-48 101.83,-42.52 109.09,-38.59 116.7,-35.79"/>
<polygon fill="midnightblue" stroke="midnightblue" points="117.91,-39.07 126.44,-32.79 115.86,-32.38 117.91,-39.07"/>
</g>
<!-- Node3 -->
<g id="node3" class="node">
<title>Node3</title>
<g id="a_node3"><a xlink:href="../../d3/d51/class_fat_file.html#a67f3dc4896c542d695e11aac927f585e" target="_top" xlink:title=" ">
<polygon fill="white" stroke="black" points="417.5,-190.5 417.5,-209.5 491.5,-209.5 491.5,-190.5 417.5,-190.5"/>
<text text-anchor="middle" x="454.5" y="-197.5" font-family="Helvetica,sans-Serif" font-size="10.00">FatFile::sync</text>
</a>
</g>
</g>
<!-- Node2&#45;&gt;Node3 -->
<g id="edge2" class="edge">
<title>Node2&#45;&gt;Node3</title>
<path fill="none" stroke="midnightblue" d="M204.6,-200C256.53,-200 350.86,-200 407.29,-200"/>
<polygon fill="midnightblue" stroke="midnightblue" points="407.37,-203.5 417.37,-200 407.37,-196.5 407.37,-203.5"/>
</g>
<!-- Node4 -->
<g id="node4" class="node">
<title>Node4</title>
<g id="a_node4"><a xlink:href="../../d3/d51/class_fat_file.html#a49f8a32fb375d562158172b5fb65243d" target="_top" xlink:title=" ">
<polygon fill="white" stroke="black" points="560.5,-114.5 560.5,-133.5 652.5,-133.5 652.5,-114.5 560.5,-114.5"/>
<text text-anchor="middle" x="606.5" y="-121.5" font-family="Helvetica,sans-Serif" font-size="10.00">FatFile::isArchive</text>
</a>
</g>
</g>
<!-- Node3&#45;&gt;Node4 -->
<g id="edge3" class="edge">
<title>Node3&#45;&gt;Node4</title>
<path fill="none" stroke="midnightblue" d="M466.27,-190.32C480.85,-177.69 508.14,-155.73 535,-143 539.94,-140.66 545.22,-138.57 550.57,-136.71"/>
<polygon fill="midnightblue" stroke="midnightblue" points="551.8,-139.99 560.26,-133.61 549.66,-133.32 551.8,-139.99"/>
</g>
<!-- Node5 -->
<g id="node5" class="node">
<title>Node5</title>
<g id="a_node5"><a xlink:href="../../d3/d51/class_fat_file.html#acc5a87da1a5c8cb9758bfeaa7ae47b57" target="_top" xlink:title=" ">
<polygon fill="white" stroke="black" points="568.5,-377.5 568.5,-396.5 644.5,-396.5 644.5,-377.5 568.5,-377.5"/>
<text text-anchor="middle" x="606.5" y="-384.5" font-family="Helvetica,sans-Serif" font-size="10.00">FatFile::isFile</text>
</a>
</g>
</g>
<!-- Node3&#45;&gt;Node5 -->
<g id="edge4" class="edge">
<title>Node3&#45;&gt;Node5</title>
<path fill="none" stroke="midnightblue" d="M457.16,-209.7C462.62,-238.52 482.75,-324.35 535,-368 541.71,-373.61 549.93,-377.57 558.35,-380.37"/>
<polygon fill="midnightblue" stroke="midnightblue" points="557.68,-383.82 568.25,-383.16 559.57,-377.08 557.68,-383.82"/>
</g>
<!-- Node3&#45;&gt;Node6 -->
<g id="edge5" class="edge">
<title>Node3&#45;&gt;Node6</title>
<path fill="none" stroke="midnightblue" d="M475.15,-209.57C482.84,-213.63 491.58,-218.67 499,-224 516.63,-236.67 515.98,-246.54 535,-257 540.2,-259.86 545.84,-262.3 551.61,-264.39"/>
<polygon fill="midnightblue" stroke="midnightblue" points="550.77,-267.8 561.36,-267.59 552.95,-261.15 550.77,-267.8"/>
</g>
<!-- Node7 -->
<g id="node7" class="node">
<title>Node7</title>
<g id="a_node7"><a xlink:href="../../d3/d51/class_fat_file.html#a8b8a2850c086d3ce79bee64a23fbf7a6" target="_top" xlink:title=" ">
<polygon fill="white" stroke="black" points="565,-339.5 565,-358.5 648,-358.5 648,-339.5 565,-339.5"/>
<text text-anchor="middle" x="606.5" y="-346.5" font-family="Helvetica,sans-Serif" font-size="10.00">FatFile::isOpen</text>
</a>
</g>
</g>
<!-- Node3&#45;&gt;Node7 -->
<g id="edge6" class="edge">
<title>Node3&#45;&gt;Node7</title>
<path fill="none" stroke="midnightblue" d="M462.54,-209.77C475.68,-227.69 505.33,-266.59 535,-295 549.94,-309.31 568.58,-323.45 582.94,-333.67"/>
<polygon fill="midnightblue" stroke="midnightblue" points="581.06,-336.62 591.26,-339.49 585.08,-330.89 581.06,-336.62"/>
</g>
<!-- Node8 -->
<g id="node8" class="node">
<title>Node8</title>
<g id="a_node8"><a xlink:href="../../d3/d51/class_fat_file.html#abaf639ec8f86f34aeb7e6b3615526f0b" target="_top" xlink:title=" ">
<polygon fill="white" stroke="black" points="555,-76.5 555,-95.5 658,-95.5 658,-76.5 555,-76.5"/>
<text text-anchor="middle" x="606.5" y="-83.5" font-family="Helvetica,sans-Serif" font-size="10.00">FatFile::isReadOnly</text>
</a>
</g>
</g>
<!-- Node3&#45;&gt;Node8 -->
<g id="edge7" class="edge">
<title>Node3&#45;&gt;Node8</title>
<path fill="none" stroke="midnightblue" d="M460.87,-190.24C472.03,-170.88 499.66,-127.58 535,-105 538.33,-102.87 541.89,-100.98 545.59,-99.3"/>
<polygon fill="midnightblue" stroke="midnightblue" points="546.99,-102.51 554.97,-95.54 544.38,-96.01 546.99,-102.51"/>
</g>
<!-- Node9 -->
<g id="node9" class="node">
<title>Node9</title>
<g id="a_node9"><a xlink:href="../../d3/d51/class_fat_file.html#a48087bdeb6b94fc27e0f74c3d90af5a9" target="_top" xlink:title=" ">
<polygon fill="white" stroke="black" points="559.5,-228.5 559.5,-247.5 653.5,-247.5 653.5,-228.5 559.5,-228.5"/>
<text text-anchor="middle" x="606.5" y="-235.5" font-family="Helvetica,sans-Serif" font-size="10.00">FatFile::isSystem</text>
</a>
</g>
</g>
<!-- Node3&#45;&gt;Node9 -->
<g id="edge8" class="edge">
<title>Node3&#45;&gt;Node9</title>
<path fill="none" stroke="midnightblue" d="M491.81,-209.2C511.72,-214.24 536.64,-220.56 558.07,-225.98"/>
<polygon fill="midnightblue" stroke="midnightblue" points="557.4,-229.43 567.96,-228.49 559.12,-222.64 557.4,-229.43"/>
</g>
<!-- Node10 -->
<g id="node10" class="node">
<title>Node10</title>
<g id="a_node10"><a xlink:href="../../d1/db3/_fs_structs_8h.html#a2a47595a3bb5c1f0f67d4f3dddac0a0e" target="_top" xlink:title=" ">
<polygon fill="white" stroke="black" points="581,-190.5 581,-209.5 632,-209.5 632,-190.5 581,-190.5"/>
<text text-anchor="middle" x="606.5" y="-197.5" font-family="Helvetica,sans-Serif" font-size="10.00">setLe16</text>
</a>
</g>
</g>
<!-- Node3&#45;&gt;Node10 -->
<g id="edge9" class="edge">
<title>Node3&#45;&gt;Node10</title>
<path fill="none" stroke="midnightblue" d="M491.81,-200C515.72,-200 546.86,-200 570.5,-200"/>
<polygon fill="midnightblue" stroke="midnightblue" points="570.78,-203.5 580.78,-200 570.78,-196.5 570.78,-203.5"/>
</g>
<!-- Node11 -->
<g id="node11" class="node">
<title>Node11</title>
<g id="a_node11"><a xlink:href="../../d1/db3/_fs_structs_8h.html#a294114e9924b0436c1d110e692bef464" target="_top" xlink:title=" ">
<polygon fill="white" stroke="black" points="581,-152.5 581,-171.5 632,-171.5 632,-152.5 581,-152.5"/>
<text text-anchor="middle" x="606.5" y="-159.5" font-family="Helvetica,sans-Serif" font-size="10.00">setLe32</text>
</a>
</g>
</g>
<!-- Node3&#45;&gt;Node11 -->
<g id="edge10" class="edge">
<title>Node3&#45;&gt;Node11</title>
<path fill="none" stroke="midnightblue" d="M491.81,-190.8C515.83,-184.72 547.14,-176.79 570.82,-170.79"/>
<polygon fill="midnightblue" stroke="midnightblue" points="571.94,-174.11 580.78,-168.26 570.22,-167.33 571.94,-174.11"/>
</g>
<!-- Node14&#45;&gt;Node7 -->
<g id="edge19" class="edge">
<title>Node14&#45;&gt;Node7</title>
<path fill="none" stroke="midnightblue" d="M213.01,-323.53C231.54,-327.06 253.21,-330.75 273,-333 372.48,-344.3 489.58,-347.63 554.9,-348.61"/>
<polygon fill="midnightblue" stroke="midnightblue" points="554.88,-352.11 564.93,-348.75 554.98,-345.11 554.88,-352.11"/>
</g>
<!-- Node14&#45;&gt;Node12 -->
<g id="edge17" class="edge">
<title>Node14&#45;&gt;Node12</title>
<path fill="none" stroke="midnightblue" d="M186.93,-323.62C208.08,-334.09 242.91,-351.29 273,-366 279.57,-369.21 286.64,-372.65 293.32,-375.89"/>
<polygon fill="midnightblue" stroke="midnightblue" points="292.21,-379.24 302.73,-380.45 295.26,-372.94 292.21,-379.24"/>
</g>
<!-- Node14&#45;&gt;Node13 -->
<g id="edge18" class="edge">
<title>Node14&#45;&gt;Node13</title>
<path fill="none" stroke="midnightblue" d="M206.61,-304.41C228.16,-299.13 254.99,-292.55 277.41,-287.05"/>
<polygon fill="midnightblue" stroke="midnightblue" points="278.49,-290.39 287.37,-284.61 276.82,-283.59 278.49,-290.39"/>
</g>
<!-- Node15 -->
<g id="node15" class="node">
<title>Node15</title>
<g id="a_node15"><a xlink:href="../../d3/d51/class_fat_file.html#a97e0620949f97e9b9c91ed1094d728aa" target="_top" xlink:title=" ">
<polygon fill="white" stroke="black" points="273,-304.5 273,-323.5 374,-323.5 374,-304.5 273,-304.5"/>
<text text-anchor="middle" x="323.5" y="-311.5" font-family="Helvetica,sans-Serif" font-size="10.00">FatFile::curPosition</text>
</a>
</g>
</g>
<!-- Node14&#45;&gt;Node15 -->
<g id="edge16" class="edge">
<title>Node14&#45;&gt;Node15</title>
<path fill="none" stroke="midnightblue" d="M213.59,-314C228.88,-314 246.15,-314 262.35,-314"/>
<polygon fill="midnightblue" stroke="midnightblue" points="262.81,-317.5 272.81,-314 262.81,-310.5 262.81,-317.5"/>
</g>
<!-- Node17 -->
<g id="node17" class="node">
<title>Node17</title>
<g id="a_node17"><a xlink:href="../../d3/d51/class_fat_file.html#a874940574b9c99e763526465adf8dc28" target="_top" xlink:title=" ">
<polygon fill="white" stroke="black" points="281.5,-38.5 281.5,-57.5 365.5,-57.5 365.5,-38.5 281.5,-38.5"/>
<text text-anchor="middle" x="323.5" y="-45.5" font-family="Helvetica,sans-Serif" font-size="10.00">FatFile::fileSize</text>
</a>
</g>
</g>
<!-- Node16&#45;&gt;Node17 -->
<g id="edge21" class="edge">
<title>Node16&#45;&gt;Node17</title>
<path fill="none" stroke="midnightblue" d="M220.41,-60.51C236.67,-58.52 254.54,-56.33 270.72,-54.35"/>
<polygon fill="midnightblue" stroke="midnightblue" points="271.58,-57.77 281.08,-53.08 270.72,-50.82 271.58,-57.77"/>
</g>
<!-- Node18 -->
<g id="node18" class="node">
<title>Node18</title>
<g id="a_node18"><a xlink:href="../../d8/d73/_fmt_number_8cpp.html#aa87498a09d9a7d0480d5144c240e38f7" target="_top" xlink:title=" ">
<polygon fill="white" stroke="black" points="292,-0.5 292,-19.5 355,-19.5 355,-0.5 292,-0.5"/>
<text text-anchor="middle" x="323.5" y="-7.5" font-family="Helvetica,sans-Serif" font-size="10.00">fmtBase10</text>
</a>
</g>
</g>
<!-- Node16&#45;&gt;Node18 -->
<g id="edge22" class="edge">
<title>Node16&#45;&gt;Node18</title>
<path fill="none" stroke="midnightblue" d="M208.41,-57.42C217.93,-54.75 227.93,-51.58 237,-48 253.83,-41.35 256.53,-36.48 273,-29 277.22,-27.09 281.69,-25.19 286.15,-23.38"/>
<polygon fill="midnightblue" stroke="midnightblue" points="287.78,-26.5 295.8,-19.58 285.21,-19.99 287.78,-26.5"/>
</g>
<!-- Node20 -->
<g id="node20" class="node">
<title>Node20</title>
<g id="a_node20"><a xlink:href="../../d3/d51/class_fat_file.html#a2f4e9ab3056125b07f15d14ca26d5346" target="_top" xlink:title=" ">
<polygon fill="white" stroke="black" points="280.5,-152.5 280.5,-171.5 366.5,-171.5 366.5,-152.5 280.5,-152.5"/>
<text text-anchor="middle" x="323.5" y="-159.5" font-family="Helvetica,sans-Serif" font-size="10.00">FatFile::dirEntry</text>
</a>
</g>
</g>
<!-- Node19&#45;&gt;Node20 -->
<g id="edge24" class="edge">
<title>Node19&#45;&gt;Node20</title>
<path fill="none" stroke="midnightblue" d="M237.29,-151.56C248.26,-152.9 259.44,-154.27 269.93,-155.56"/>
<polygon fill="midnightblue" stroke="midnightblue" points="269.81,-159.07 280.16,-156.81 270.66,-152.12 269.81,-159.07"/>
</g>
<!-- Node21 -->
<g id="node21" class="node">
<title>Node21</title>
<g id="a_node21"><a xlink:href="../../d5/dce/_fs_date_time_8cpp.html#a8eed4f2175da7c12f53ed62fccda5b12" target="_top" xlink:title=" ">
<polygon fill="white" stroke="black" points="280.5,-76.5 280.5,-95.5 366.5,-95.5 366.5,-76.5 280.5,-76.5"/>
<text text-anchor="middle" x="323.5" y="-83.5" font-family="Helvetica,sans-Serif" font-size="10.00">fsPrintDateTime</text>
</a>
</g>
</g>
<!-- Node19&#45;&gt;Node21 -->
<g id="edge26" class="edge">
<title>Node19&#45;&gt;Node21</title>
<path fill="none" stroke="midnightblue" d="M193.44,-133.46C219.04,-124.05 258.36,-109.59 286.88,-99.1"/>
<polygon fill="midnightblue" stroke="midnightblue" points="288.29,-102.31 296.47,-95.57 285.88,-95.74 288.29,-102.31"/>
</g>
<!-- Node24 -->
<g id="node24" class="node">
<title>Node24</title>
<g id="a_node24"><a xlink:href="../../d1/db3/_fs_structs_8h.html#a89aef4aa8e8032eab2982d660e7b8a81" target="_top" xlink:title=" ">
<polygon fill="white" stroke="black" points="298,-114.5 298,-133.5 349,-133.5 349,-114.5 298,-114.5"/>
<text text-anchor="middle" x="323.5" y="-121.5" font-family="Helvetica,sans-Serif" font-size="10.00">getLe16</text>
</a>
</g>
</g>
<!-- Node19&#45;&gt;Node24 -->
<g id="edge29" class="edge">
<title>Node19&#45;&gt;Node24</title>
<path fill="none" stroke="midnightblue" d="M237.29,-134.44C254.75,-132.3 272.73,-130.1 287.66,-128.27"/>
<polygon fill="midnightblue" stroke="midnightblue" points="288.43,-131.7 297.93,-127.01 287.58,-124.75 288.43,-131.7"/>
</g>
<!-- Node20&#45;&gt;Node3 -->
<g id="edge25" class="edge">
<title>Node20&#45;&gt;Node3</title>
<path fill="none" stroke="midnightblue" d="M357.05,-171.59C373.4,-176.4 393.41,-182.3 410.96,-187.47"/>
<polygon fill="midnightblue" stroke="midnightblue" points="410.38,-190.95 420.96,-190.41 412.35,-184.23 410.38,-190.95"/>
</g>
<!-- Node22 -->
<g id="node22" class="node">
<title>Node22</title>
<g id="a_node22"><a xlink:href="../../d5/dce/_fs_date_time_8cpp.html#a95582e36f7568be5d5d1c39a27f63e8f" target="_top" xlink:title=" ">
<polygon fill="white" stroke="black" points="423.5,-95.5 423.5,-114.5 485.5,-114.5 485.5,-95.5 423.5,-95.5"/>
<text text-anchor="middle" x="454.5" y="-102.5" font-family="Helvetica,sans-Serif" font-size="10.00">fsFmtDate</text>
</a>
</g>
</g>
<!-- Node21&#45;&gt;Node22 -->
<g id="edge27" class="edge">
<title>Node21&#45;&gt;Node22</title>
<path fill="none" stroke="midnightblue" d="M366.74,-92.22C381.78,-94.44 398.67,-96.92 413.52,-99.11"/>
<polygon fill="midnightblue" stroke="midnightblue" points="413.02,-102.58 423.43,-100.57 414.04,-95.65 413.02,-102.58"/>
</g>
<!-- Node23 -->
<g id="node23" class="node">
<title>Node23</title>
<g id="a_node23"><a xlink:href="../../d5/dce/_fs_date_time_8cpp.html#a88c788d558abbf5171901005b8df8ef0" target="_top" xlink:title=" ">
<polygon fill="white" stroke="black" points="423.5,-57.5 423.5,-76.5 485.5,-76.5 485.5,-57.5 423.5,-57.5"/>
<text text-anchor="middle" x="454.5" y="-64.5" font-family="Helvetica,sans-Serif" font-size="10.00">fsFmtTime</text>
</a>
</g>
</g>
<!-- Node21&#45;&gt;Node23 -->
<g id="edge28" class="edge">
<title>Node21&#45;&gt;Node23</title>
<path fill="none" stroke="midnightblue" d="M366.74,-79.78C381.78,-77.56 398.67,-75.08 413.52,-72.89"/>
<polygon fill="midnightblue" stroke="midnightblue" points="414.04,-76.35 423.43,-71.43 413.02,-69.42 414.04,-76.35"/>
</g>
<!-- Node26 -->
<g id="node26" class="node">
<title>Node26</title>
<g id="a_node26"><a xlink:href="../../d3/d51/class_fat_file.html#af8f456ab790e818bfdd225cf6ffd40f3" target="_top" xlink:title=" ">
<polygon fill="white" stroke="black" points="284.5,-456.5 284.5,-475.5 362.5,-475.5 362.5,-456.5 284.5,-456.5"/>
<text text-anchor="middle" x="323.5" y="-463.5" font-family="Helvetica,sans-Serif" font-size="10.00">FatFile::isLFN</text>
</a>
</g>
</g>
<!-- Node25&#45;&gt;Node26 -->
<g id="edge31" class="edge">
<title>Node25&#45;&gt;Node26</title>
<path fill="none" stroke="midnightblue" d="M215.27,-445.94C234.12,-449.46 255.74,-453.51 274.6,-457.04"/>
<polygon fill="midnightblue" stroke="midnightblue" points="274,-460.49 284.47,-458.88 275.28,-453.61 274,-460.49"/>
</g>
<!-- Node27 -->
<g id="node27" class="node">
<title>Node27</title>
<g id="a_node27"><a xlink:href="../../d3/d51/class_fat_file.html#a791cd7aade71f609aab62ec018aea3c0" target="_top" xlink:title=" ">
<polygon fill="white" stroke="black" points="278,-418.5 278,-437.5 369,-437.5 369,-418.5 278,-418.5"/>
<text text-anchor="middle" x="323.5" y="-425.5" font-family="Helvetica,sans-Serif" font-size="10.00">FatFile::printSFN</text>
</a>
</g>
</g>
<!-- Node25&#45;&gt;Node27 -->
<g id="edge32" class="edge">
<title>Node25&#45;&gt;Node27</title>
<path fill="none" stroke="midnightblue" d="M215.27,-434.23C231.77,-433.27 250.39,-432.19 267.43,-431.2"/>
<polygon fill="midnightblue" stroke="midnightblue" points="268.02,-434.67 277.8,-430.6 267.61,-427.68 268.02,-434.67"/>
</g>
<!-- Node30 -->
<g id="node30" class="node">
<title>Node30</title>
<g id="a_node30"><a xlink:href="../../d3/d51/class_fat_file.html#ab067190d25733ed7e697d9890f61fd7a" target="_top" xlink:title=" ">
<polygon fill="white" stroke="black" points="410,-494.5 410,-513.5 499,-513.5 499,-494.5 410,-494.5"/>
<text text-anchor="middle" x="454.5" y="-501.5" font-family="Helvetica,sans-Serif" font-size="10.00">FatFile::seekSet</text>
</a>
</g>
</g>
<!-- Node25&#45;&gt;Node30 -->
<g id="edge36" class="edge">
<title>Node25&#45;&gt;Node30</title>
<path fill="none" stroke="midnightblue" d="M184.04,-446.57C204.3,-457.79 239.99,-476.01 273,-485 314.51,-496.31 363.08,-500.96 399.37,-502.84"/>
<polygon fill="midnightblue" stroke="midnightblue" points="399.59,-506.35 409.74,-503.31 399.92,-499.36 399.59,-506.35"/>
</g>
<!-- Node28 -->
<g id="node28" class="node">
<title>Node28</title>
<g id="a_node28"><a xlink:href="../../d3/d51/class_fat_file.html#aba30e92a66f8e0d2f815c85662772a58" target="_top" xlink:title=" ">
<polygon fill="white" stroke="black" points="411.5,-415.5 411.5,-434.5 497.5,-434.5 497.5,-415.5 411.5,-415.5"/>
<text text-anchor="middle" x="454.5" y="-422.5" font-family="Helvetica,sans-Serif" font-size="10.00">FatFile::getSFN</text>
</a>
</g>
</g>
<!-- Node27&#45;&gt;Node28 -->
<g id="edge33" class="edge">
<title>Node27&#45;&gt;Node28</title>
<path fill="none" stroke="midnightblue" d="M369.26,-426.96C379.62,-426.72 390.74,-426.46 401.4,-426.21"/>
<polygon fill="midnightblue" stroke="midnightblue" points="401.51,-429.71 411.43,-425.98 401.35,-422.71 401.51,-429.71"/>
</g>
<!-- Node28&#45;&gt;Node7 -->
<g id="edge34" class="edge">
<title>Node28&#45;&gt;Node7</title>
<path fill="none" stroke="midnightblue" d="M466.27,-415.32C480.85,-402.69 508.14,-380.73 535,-368 541.23,-365.05 548,-362.49 554.8,-360.29"/>
<polygon fill="midnightblue" stroke="midnightblue" points="556.13,-363.55 564.71,-357.33 554.13,-356.84 556.13,-363.55"/>
</g>
<!-- Node29 -->
<g id="node29" class="node">
<title>Node29</title>
<g id="a_node29"><a xlink:href="../../d3/d51/class_fat_file.html#a03421a0c28649332f55e6ca06d3aeedb" target="_top" xlink:title=" ">
<polygon fill="white" stroke="black" points="566.5,-415.5 566.5,-434.5 646.5,-434.5 646.5,-415.5 566.5,-415.5"/>
<text text-anchor="middle" x="606.5" y="-422.5" font-family="Helvetica,sans-Serif" font-size="10.00">FatFile::isRoot</text>
</a>
</g>
</g>
<!-- Node28&#45;&gt;Node29 -->
<g id="edge35" class="edge">
<title>Node28&#45;&gt;Node29</title>
<path fill="none" stroke="midnightblue" d="M497.68,-425C515.89,-425 537.31,-425 556.24,-425"/>
<polygon fill="midnightblue" stroke="midnightblue" points="556.46,-428.5 566.46,-425 556.46,-421.5 556.46,-428.5"/>
</g>
<!-- Node30&#45;&gt;Node5 -->
<g id="edge38" class="edge">
<title>Node30&#45;&gt;Node5</title>
<path fill="none" stroke="midnightblue" d="M462.14,-494.37C477.67,-472.1 516.45,-418.06 535,-406 542.1,-401.38 550.31,-397.88 558.55,-395.23"/>
<polygon fill="midnightblue" stroke="midnightblue" points="559.52,-398.59 568.17,-392.49 557.6,-391.86 559.52,-398.59"/>
</g>
<!-- Node30&#45;&gt;Node7 -->
<g id="edge39" class="edge">
<title>Node30&#45;&gt;Node7</title>
<path fill="none" stroke="midnightblue" d="M463.48,-494.2C472.69,-482.63 487.98,-462.6 499,-444 518.05,-411.84 506.31,-391.96 535,-368 540.82,-363.14 547.77,-359.51 555,-356.81"/>
<polygon fill="midnightblue" stroke="midnightblue" points="556.48,-360.01 564.96,-353.67 554.37,-353.34 556.48,-360.01"/>
</g>
<!-- Node31 -->
<g id="node31" class="node">
<title>Node31</title>
<g id="a_node31"><a xlink:href="../../d0/d12/class_fat_partition.html#aaf43a09e71689c257f4b189ee307db4f" target="_top" xlink:title=" ">
<polygon fill="white" stroke="black" points="535,-492 535,-522 678,-522 678,-492 535,-492"/>
<text text-anchor="start" x="543" y="-510" font-family="Helvetica,sans-Serif" font-size="10.00">FatPartition::bytesPerCluster</text>
<text text-anchor="middle" x="606.5" y="-499" font-family="Helvetica,sans-Serif" font-size="10.00">Shift</text>
</a>
</g>
</g>
<!-- Node30&#45;&gt;Node31 -->
<g id="edge37" class="edge">
<title>Node30&#45;&gt;Node31</title>
<path fill="none" stroke="midnightblue" d="M499.29,-504.88C507.31,-505.04 515.9,-505.21 524.61,-505.38"/>
<polygon fill="midnightblue" stroke="midnightblue" points="524.78,-508.89 534.85,-505.59 524.92,-501.89 524.78,-508.89"/>
</g>
<!-- Node32 -->
<g id="node32" class="node">
<title>Node32</title>
<g id="a_node32"><a xlink:href="../../d3/d51/class_fat_file.html#a8fda8004720ec4cc55710869dbb52e35" target="_top" xlink:title=" ">
<polygon fill="white" stroke="black" points="561,-453.5 561,-472.5 652,-472.5 652,-453.5 561,-453.5"/>
<text text-anchor="middle" x="606.5" y="-460.5" font-family="Helvetica,sans-Serif" font-size="10.00">FatFile::isRoot32</text>
</a>
</g>
</g>
<!-- Node30&#45;&gt;Node32 -->
<g id="edge40" class="edge">
<title>Node30&#45;&gt;Node32</title>
<path fill="none" stroke="midnightblue" d="M490.29,-494.49C511.32,-488.74 538.35,-481.35 560.94,-475.18"/>
<polygon fill="midnightblue" stroke="midnightblue" points="561.92,-478.54 570.64,-472.53 560.07,-471.79 561.92,-478.54"/>
</g>
<!-- Node33 -->
<g id="node33" class="node">
<title>Node33</title>
<g id="a_node33"><a xlink:href="../../d3/d51/class_fat_file.html#a0cc65089f7ce6c1ff92edbf0bff59dee" target="_top" xlink:title=" ">
<polygon fill="white" stroke="black" points="554.5,-579.5 554.5,-598.5 658.5,-598.5 658.5,-579.5 554.5,-579.5"/>
<text text-anchor="middle" x="606.5" y="-586.5" font-family="Helvetica,sans-Serif" font-size="10.00">FatFile::isRootFixed</text>
</a>
</g>
</g>
<!-- Node30&#45;&gt;Node33 -->
<g id="edge41" class="edge">
<title>Node30&#45;&gt;Node33</title>
<path fill="none" stroke="midnightblue" d="M464.32,-513.59C478.06,-527.96 506.01,-554.98 535,-570 539.53,-572.35 544.37,-574.42 549.32,-576.26"/>
<polygon fill="midnightblue" stroke="midnightblue" points="548.32,-579.62 558.92,-579.5 550.56,-572.98 548.32,-579.62"/>
</g>
<!-- Node34 -->
<g id="node34" class="node">
<title>Node34</title>
<g id="a_node34"><a xlink:href="../../d0/d12/class_fat_partition.html#a5d005e0f6fd4b84da8a5ebdea03aaf85" target="_top" xlink:title=" ">
<polygon fill="white" stroke="black" points="545.5,-541.5 545.5,-560.5 667.5,-560.5 667.5,-541.5 545.5,-541.5"/>
<text text-anchor="middle" x="606.5" y="-548.5" font-family="Helvetica,sans-Serif" font-size="10.00">FatPartition::rootDirStart</text>
</a>
</g>
</g>
<!-- Node30&#45;&gt;Node34 -->
<g id="edge42" class="edge">
<title>Node30&#45;&gt;Node34</title>
<path fill="none" stroke="midnightblue" d="M481.11,-513.57C496.61,-519.23 516.83,-526.36 535,-532 542.49,-534.32 550.48,-536.64 558.29,-538.8"/>
<polygon fill="midnightblue" stroke="midnightblue" points="557.46,-542.21 568.03,-541.46 559.3,-535.45 557.46,-542.21"/>
</g>
</g>
</svg>
