<?xml version="1.0" encoding="UTF-8" standalone="no"?>
<!DOCTYPE svg PUBLIC "-//W3C//DTD SVG 1.1//EN"
 "http://www.w3.org/Graphics/SVG/1.1/DTD/svg11.dtd">
<!-- Generated by graphviz version 2.47.3 (20210619.1520)
 -->
<!-- Title: ExFatFormatter::writeUpcase Pages: 1 -->
<svg width="1428pt" height="271pt"
 viewBox="0.00 0.00 1428.00 271.00" xmlns="http://www.w3.org/2000/svg" xmlns:xlink="http://www.w3.org/1999/xlink">
<g id="graph0" class="graph" transform="scale(1 1) rotate(0) translate(4 267)">
<title>ExFatFormatter::writeUpcase</title>
<polygon fill="white" stroke="transparent" points="-4,4 -4,-267 1424,-267 1424,4 -4,4"/>
<!-- Node1 -->
<g id="node1" class="node">
<title>Node1</title>
<g id="a_node1"><a xlink:title=" ">
<polygon fill="#bfbfbf" stroke="black" points="0,-82.5 0,-103.5 170,-103.5 170,-82.5 0,-82.5"/>
<text text-anchor="middle" x="85" y="-89.9" font-family="Helvetica,sans-Serif" font-size="12.00">ExFatFormatter::writeUpcase</text>
</a>
</g>
</g>
<!-- Node2 -->
<g id="node2" class="node">
<title>Node2</title>
<g id="a_node2"><a xlink:href="../../dc/d53/class_ex_fat_formatter.html#afe28856bff293f522f6d98d2167a840b" target="_top" xlink:title=" ">
<polygon fill="white" stroke="black" points="424.5,-126.5 424.5,-147.5 592.5,-147.5 592.5,-126.5 424.5,-126.5"/>
<text text-anchor="middle" x="508.5" y="-133.9" font-family="Helvetica,sans-Serif" font-size="12.00">ExFatFormatter::syncUpcase</text>
</a>
</g>
</g>
<!-- Node1&#45;&gt;Node2 -->
<g id="edge1" class="edge">
<title>Node1&#45;&gt;Node2</title>
<path fill="none" stroke="midnightblue" d="M125.15,-103.53C148.46,-109.36 178.72,-116.19 206,-120 275.33,-129.69 354.36,-133.89 414.11,-135.7"/>
<polygon fill="midnightblue" stroke="midnightblue" points="414.19,-139.2 424.28,-135.99 414.38,-132.21 414.19,-139.2"/>
</g>
<!-- Node25 -->
<g id="node11" class="node">
<title>Node25</title>
<g id="a_node11"><a xlink:href="../../de/d22/upcase_8cpp.html#a21b6d308ac42097fe276a6cb2f392818" target="_top" xlink:title=" ">
<polygon fill="white" stroke="black" points="257.5,-35.5 257.5,-56.5 324.5,-56.5 324.5,-35.5 257.5,-35.5"/>
<text text-anchor="middle" x="291" y="-42.9" font-family="Helvetica,sans-Serif" font-size="12.00">toUpcase</text>
</a>
</g>
</g>
<!-- Node1&#45;&gt;Node25 -->
<g id="edge16" class="edge">
<title>Node1&#45;&gt;Node25</title>
<path fill="none" stroke="midnightblue" d="M131.78,-82.45C166.38,-74.48 213.53,-63.62 247.34,-55.83"/>
<polygon fill="midnightblue" stroke="midnightblue" points="248.42,-59.17 257.38,-53.52 246.85,-52.35 248.42,-59.17"/>
</g>
<!-- Node30 -->
<g id="node15" class="node">
<title>Node30</title>
<g id="a_node15"><a xlink:href="../../dc/d53/class_ex_fat_formatter.html#aaf9dfc42fecb86a51dc6871ca5e4097d" target="_top" xlink:title=" ">
<polygon fill="white" stroke="black" points="206,-76 206,-110 376,-110 376,-76 206,-76"/>
<text text-anchor="start" x="214" y="-96.4" font-family="Helvetica,sans-Serif" font-size="12.00">ExFatFormatter::writeUpcase</text>
<text text-anchor="middle" x="291" y="-83.4" font-family="Helvetica,sans-Serif" font-size="12.00">Unicode</text>
</a>
</g>
</g>
<!-- Node1&#45;&gt;Node30 -->
<g id="edge20" class="edge">
<title>Node1&#45;&gt;Node30</title>
<path fill="none" stroke="midnightblue" d="M170.15,-93C178.5,-93 187.02,-93 195.46,-93"/>
<polygon fill="midnightblue" stroke="midnightblue" points="195.71,-96.5 205.71,-93 195.71,-89.5 195.71,-96.5"/>
</g>
<!-- Node3 -->
<g id="node3" class="node">
<title>Node3</title>
<g id="a_node3"><a xlink:href="../../d5/d4b/class_shared_spi_card.html#adf2ce56ca0a56fe841fbdf75f7f3faee" target="_top" xlink:title=" ">
<polygon fill="white" stroke="black" points="641,-125.5 641,-146.5 805,-146.5 805,-125.5 641,-125.5"/>
<text text-anchor="middle" x="723" y="-132.9" font-family="Helvetica,sans-Serif" font-size="12.00">SharedSpiCard::writeSector</text>
</a>
</g>
</g>
<!-- Node2&#45;&gt;Node3 -->
<g id="edge2" class="edge">
<title>Node2&#45;&gt;Node3</title>
<path fill="none" stroke="midnightblue" d="M592.57,-136.61C605.06,-136.55 618,-136.49 630.66,-136.43"/>
<polygon fill="midnightblue" stroke="midnightblue" points="630.75,-139.93 640.73,-136.38 630.71,-132.93 630.75,-139.93"/>
</g>
<!-- Node4 -->
<g id="node4" class="node">
<title>Node4</title>
<g id="a_node4"><a xlink:href="../../d5/d4b/class_shared_spi_card.html#adda33199753fc2aec74fe317cbaabc06" target="_top" xlink:title=" ">
<polygon fill="white" stroke="red" points="841,-203.5 841,-224.5 1024,-224.5 1024,-203.5 841,-203.5"/>
<text text-anchor="middle" x="932.5" y="-210.9" font-family="Helvetica,sans-Serif" font-size="12.00">SharedSpiCard::cardCommand</text>
</a>
</g>
</g>
<!-- Node3&#45;&gt;Node4 -->
<g id="edge3" class="edge">
<title>Node3&#45;&gt;Node4</title>
<path fill="none" stroke="midnightblue" d="M744.73,-146.58C767.8,-158.08 806.4,-176.47 841,-189 852.85,-193.29 865.8,-197.27 878.1,-200.74"/>
<polygon fill="midnightblue" stroke="midnightblue" points="877.23,-204.13 887.8,-203.4 879.08,-197.38 877.23,-204.13"/>
</g>
<!-- Node5 -->
<g id="node5" class="node">
<title>Node5</title>
<g id="a_node5"><a xlink:href="../../d5/d4b/class_shared_spi_card.html#a08363209d938db87521cca6a84146041" target="_top" xlink:title=" ">
<polygon fill="white" stroke="red" points="1256,-203.5 1256,-224.5 1420,-224.5 1420,-203.5 1256,-203.5"/>
<text text-anchor="middle" x="1338" y="-210.9" font-family="Helvetica,sans-Serif" font-size="12.00">SharedSpiCard::spiReceive</text>
</a>
</g>
</g>
<!-- Node3&#45;&gt;Node5 -->
<g id="edge8" class="edge">
<title>Node3&#45;&gt;Node5</title>
<path fill="none" stroke="midnightblue" d="M732.22,-146.7C749.54,-168.24 792.19,-216.26 841,-234 997.76,-290.98 1200.99,-250.37 1290.83,-227.17"/>
<polygon fill="midnightblue" stroke="midnightblue" points="1291.92,-230.5 1300.7,-224.57 1290.14,-223.73 1291.92,-230.5"/>
</g>
<!-- Node22 -->
<g id="node6" class="node">
<title>Node22</title>
<g id="a_node6"><a xlink:href="../../d5/d4b/class_shared_spi_card.html#ab3468397bb3b12d29dd2f31e45b3dcaf" target="_top" xlink:title=" ">
<polygon fill="white" stroke="black" points="1060,-164.5 1060,-185.5 1220,-185.5 1220,-164.5 1060,-164.5"/>
<text text-anchor="middle" x="1140" y="-171.9" font-family="Helvetica,sans-Serif" font-size="12.00">SharedSpiCard::waitReady</text>
</a>
</g>
</g>
<!-- Node3&#45;&gt;Node22 -->
<g id="edge11" class="edge">
<title>Node3&#45;&gt;Node22</title>
<path fill="none" stroke="midnightblue" d="M778.29,-146.51C797.98,-149.99 820.43,-153.59 841,-156 910.85,-164.17 990.35,-169.02 1049.65,-171.77"/>
<polygon fill="midnightblue" stroke="midnightblue" points="1049.59,-175.27 1059.74,-172.23 1049.91,-168.28 1049.59,-175.27"/>
</g>
<!-- Node16 -->
<g id="node7" class="node">
<title>Node16</title>
<g id="a_node7"><a xlink:href="../../d5/d4b/class_shared_spi_card.html#a747c3f0b962098cf0c097f3c4c2b4fd4" target="_top" xlink:title=" ">
<polygon fill="white" stroke="black" points="1075,-115.5 1075,-136.5 1205,-136.5 1205,-115.5 1075,-115.5"/>
<text text-anchor="middle" x="1140" y="-122.9" font-family="Helvetica,sans-Serif" font-size="12.00">SharedSpiCard::error</text>
</a>
</g>
</g>
<!-- Node3&#45;&gt;Node16 -->
<g id="edge7" class="edge">
<title>Node3&#45;&gt;Node16</title>
<path fill="none" stroke="midnightblue" d="M774.44,-125.46C794.99,-121.66 819.03,-117.86 841,-116 917.06,-109.55 1004.38,-113.85 1064.75,-118.65"/>
<polygon fill="midnightblue" stroke="midnightblue" points="1064.69,-122.16 1074.94,-119.49 1065.26,-115.18 1064.69,-122.16"/>
</g>
<!-- Node17 -->
<g id="node8" class="node">
<title>Node17</title>
<g id="a_node8"><a xlink:href="../../d5/d4b/class_shared_spi_card.html#a0f511c39c50055a4fc97e720933aee3a" target="_top" xlink:title=" ">
<polygon fill="white" stroke="red" points="1067,-57.5 1067,-78.5 1213,-78.5 1213,-57.5 1067,-57.5"/>
<text text-anchor="middle" x="1140" y="-64.9" font-family="Helvetica,sans-Serif" font-size="12.00">SharedSpiCard::spiStop</text>
</a>
</g>
</g>
<!-- Node3&#45;&gt;Node17 -->
<g id="edge9" class="edge">
<title>Node3&#45;&gt;Node17</title>
<path fill="none" stroke="midnightblue" d="M763.59,-125.47C786.15,-119.73 815.03,-112.84 841,-108 913.4,-94.51 996.51,-83.74 1056.54,-76.79"/>
<polygon fill="midnightblue" stroke="midnightblue" points="1057.18,-80.24 1066.72,-75.62 1056.38,-73.29 1057.18,-80.24"/>
</g>
<!-- Node23 -->
<g id="node9" class="node">
<title>Node23</title>
<g id="a_node9"><a xlink:href="../../d5/d4b/class_shared_spi_card.html#a7dac2190763d7b4b72163ed7131e8a87" target="_top" xlink:title=" ">
<polygon fill="white" stroke="black" points="869,-9.5 869,-30.5 996,-30.5 996,-9.5 869,-9.5"/>
<text text-anchor="middle" x="932.5" y="-16.9" font-family="Helvetica,sans-Serif" font-size="12.00">SharedSpiCard::type</text>
</a>
</g>
</g>
<!-- Node3&#45;&gt;Node23 -->
<g id="edge10" class="edge">
<title>Node3&#45;&gt;Node23</title>
<path fill="none" stroke="midnightblue" d="M785.09,-125.4C792.25,-122.48 799.1,-118.75 805,-114 831.95,-92.32 814.1,-66.74 841,-45 846.45,-40.59 852.62,-36.96 859.12,-33.97"/>
<polygon fill="midnightblue" stroke="midnightblue" points="860.88,-37.03 868.83,-30.03 858.25,-30.55 860.88,-37.03"/>
</g>
<!-- Node24 -->
<g id="node10" class="node">
<title>Node24</title>
<g id="a_node10"><a xlink:href="../../d5/d4b/class_shared_spi_card.html#a5b6d7ad34f56d0d6a6c5059d920499ba" target="_top" xlink:title=" ">
<polygon fill="white" stroke="black" points="855,-125.5 855,-146.5 1010,-146.5 1010,-125.5 855,-125.5"/>
<text text-anchor="middle" x="932.5" y="-132.9" font-family="Helvetica,sans-Serif" font-size="12.00">SharedSpiCard::writeData</text>
</a>
</g>
</g>
<!-- Node3&#45;&gt;Node24 -->
<g id="edge12" class="edge">
<title>Node3&#45;&gt;Node24</title>
<path fill="none" stroke="midnightblue" d="M805.12,-136C818.03,-136 831.44,-136 844.48,-136"/>
<polygon fill="midnightblue" stroke="midnightblue" points="844.85,-139.5 854.85,-136 844.85,-132.5 844.85,-139.5"/>
</g>
<!-- Node4&#45;&gt;Node5 -->
<g id="edge4" class="edge">
<title>Node4&#45;&gt;Node5</title>
<path fill="none" stroke="midnightblue" d="M1024.05,-214C1090.25,-214 1179.66,-214 1245.97,-214"/>
<polygon fill="midnightblue" stroke="midnightblue" points="1245.99,-217.5 1255.99,-214 1245.99,-210.5 1245.99,-217.5"/>
</g>
<!-- Node4&#45;&gt;Node22 -->
<g id="edge5" class="edge">
<title>Node4&#45;&gt;Node22</title>
<path fill="none" stroke="midnightblue" d="M988.84,-203.5C1014.99,-198.53 1046.39,-192.58 1073.7,-187.39"/>
<polygon fill="midnightblue" stroke="midnightblue" points="1074.39,-190.82 1083.56,-185.52 1073.08,-183.95 1074.39,-190.82"/>
</g>
<!-- Node22&#45;&gt;Node5 -->
<g id="edge6" class="edge">
<title>Node22&#45;&gt;Node5</title>
<path fill="none" stroke="midnightblue" d="M1193.78,-185.5C1218.51,-190.42 1248.15,-196.32 1274.03,-201.47"/>
<polygon fill="midnightblue" stroke="midnightblue" points="1273.63,-204.96 1284.12,-203.48 1275,-198.09 1273.63,-204.96"/>
</g>
<!-- Node24&#45;&gt;Node22 -->
<g id="edge15" class="edge">
<title>Node24&#45;&gt;Node22</title>
<path fill="none" stroke="midnightblue" d="M988.84,-146.5C1014.99,-151.47 1046.39,-157.42 1073.7,-162.61"/>
<polygon fill="midnightblue" stroke="midnightblue" points="1073.08,-166.05 1083.56,-164.48 1074.39,-159.18 1073.08,-166.05"/>
</g>
<!-- Node24&#45;&gt;Node16 -->
<g id="edge13" class="edge">
<title>Node24&#45;&gt;Node16</title>
<path fill="none" stroke="midnightblue" d="M1010.02,-132.28C1027.86,-131.41 1046.83,-130.49 1064.57,-129.62"/>
<polygon fill="midnightblue" stroke="midnightblue" points="1065.05,-133.1 1074.86,-129.12 1064.71,-126.11 1065.05,-133.1"/>
</g>
<!-- Node24&#45;&gt;Node17 -->
<g id="edge14" class="edge">
<title>Node24&#45;&gt;Node17</title>
<path fill="none" stroke="midnightblue" d="M965.61,-125.38C1001.05,-113.65 1058.22,-94.73 1097.15,-81.85"/>
<polygon fill="midnightblue" stroke="midnightblue" points="1098.72,-85.01 1107.12,-78.55 1096.52,-78.37 1098.72,-85.01"/>
</g>
<!-- Node26 -->
<g id="node12" class="node">
<title>Node26</title>
<g id="a_node12"><a xlink:href="../../de/d22/upcase_8cpp.html#ad530d8c884214dce68a3e55efae606fd" target="_top" xlink:title=" ">
<polygon fill="white" stroke="black" points="465,-35.5 465,-56.5 552,-56.5 552,-35.5 465,-35.5"/>
<text text-anchor="middle" x="508.5" y="-42.9" font-family="Helvetica,sans-Serif" font-size="12.00">searchPair16</text>
</a>
</g>
</g>
<!-- Node25&#45;&gt;Node26 -->
<g id="edge17" class="edge">
<title>Node25&#45;&gt;Node26</title>
<path fill="none" stroke="midnightblue" d="M324.73,-46C359.25,-46 414.16,-46 454.79,-46"/>
<polygon fill="midnightblue" stroke="midnightblue" points="454.79,-49.5 464.79,-46 454.79,-42.5 454.79,-49.5"/>
</g>
<!-- Node27 -->
<g id="node13" class="node">
<title>Node27</title>
<g id="a_node13"><a xlink:href="../../df/dd5/ios_8h.html#a24a80a73f0a0d2d72d1cb74f49ff4759" target="_top" xlink:title=" ">
<polygon fill="white" stroke="red" points="707,-40.5 707,-61.5 739,-61.5 739,-40.5 707,-40.5"/>
<text text-anchor="middle" x="723" y="-47.9" font-family="Helvetica,sans-Serif" font-size="12.00">left</text>
</a>
</g>
</g>
<!-- Node26&#45;&gt;Node27 -->
<g id="edge18" class="edge">
<title>Node26&#45;&gt;Node27</title>
<path fill="none" stroke="midnightblue" d="M552.25,-47.01C595.52,-48.02 661,-49.56 696.66,-50.4"/>
<polygon fill="midnightblue" stroke="midnightblue" points="696.64,-53.9 706.72,-50.64 696.8,-46.91 696.64,-53.9"/>
</g>
<!-- Node29 -->
<g id="node14" class="node">
<title>Node29</title>
<g id="a_node14"><a xlink:href="../../df/dd5/ios_8h.html#aee80fd600c5c58a2bebbd48afdcf8280" target="_top" xlink:title=" ">
<polygon fill="white" stroke="red" points="703.5,-0.5 703.5,-21.5 742.5,-21.5 742.5,-0.5 703.5,-0.5"/>
<text text-anchor="middle" x="723" y="-7.9" font-family="Helvetica,sans-Serif" font-size="12.00">right</text>
</a>
</g>
</g>
<!-- Node26&#45;&gt;Node29 -->
<g id="edge19" class="edge">
<title>Node26&#45;&gt;Node29</title>
<path fill="none" stroke="midnightblue" d="M552.25,-38.96C594.27,-32.04 657.24,-21.67 693.5,-15.69"/>
<polygon fill="midnightblue" stroke="midnightblue" points="694.12,-19.14 703.42,-14.06 692.98,-12.23 694.12,-19.14"/>
</g>
<!-- Node31 -->
<g id="node16" class="node">
<title>Node31</title>
<g id="a_node16"><a xlink:href="../../dc/d53/class_ex_fat_formatter.html#a759ad08a74b8256217d2a5cc87b4dd8b" target="_top" xlink:title=" ">
<polygon fill="white" stroke="black" points="412,-83.5 412,-104.5 605,-104.5 605,-83.5 412,-83.5"/>
<text text-anchor="middle" x="508.5" y="-90.9" font-family="Helvetica,sans-Serif" font-size="12.00">ExFatFormatter::writeUpcaseByte</text>
</a>
</g>
</g>
<!-- Node30&#45;&gt;Node31 -->
<g id="edge21" class="edge">
<title>Node30&#45;&gt;Node31</title>
<path fill="none" stroke="midnightblue" d="M376.24,-93.39C384.64,-93.43 393.24,-93.47 401.83,-93.51"/>
<polygon fill="midnightblue" stroke="midnightblue" points="401.86,-97.01 411.88,-93.56 401.9,-90.01 401.86,-97.01"/>
</g>
<!-- Node31&#45;&gt;Node3 -->
<g id="edge23" class="edge">
<title>Node31&#45;&gt;Node3</title>
<path fill="none" stroke="midnightblue" d="M562.85,-104.54C591.9,-110.29 628.03,-117.43 658.52,-123.45"/>
<polygon fill="midnightblue" stroke="midnightblue" points="658.14,-126.95 668.63,-125.45 659.5,-120.08 658.14,-126.95"/>
</g>
<!-- Node32 -->
<g id="node17" class="node">
<title>Node32</title>
<g id="a_node17"><a xlink:href="../../d1/db3/_fs_structs_8h.html#a7837ee2f48056071f5919515498d705b" target="_top" xlink:title=" ">
<polygon fill="white" stroke="black" points="672.5,-83.5 672.5,-104.5 773.5,-104.5 773.5,-83.5 672.5,-83.5"/>
<text text-anchor="middle" x="723" y="-90.9" font-family="Helvetica,sans-Serif" font-size="12.00">exFatChecksum</text>
</a>
</g>
</g>
<!-- Node31&#45;&gt;Node32 -->
<g id="edge22" class="edge">
<title>Node31&#45;&gt;Node32</title>
<path fill="none" stroke="midnightblue" d="M605.18,-94C624.61,-94 644.52,-94 662.27,-94"/>
<polygon fill="midnightblue" stroke="midnightblue" points="662.45,-97.5 672.45,-94 662.45,-90.5 662.45,-97.5"/>
</g>
</g>
</svg>
