<?xml version="1.0" encoding="UTF-8" standalone="no"?>
<!DOCTYPE svg PUBLIC "-//W3C//DTD SVG 1.1//EN"
 "http://www.w3.org/Graphics/SVG/1.1/DTD/svg11.dtd">
<!-- Generated by graphviz version 2.47.3 (20210619.1520)
 -->
<!-- Title: ExFatFormatter::writeUpcaseByte Pages: 1 -->
<!--zoomable 306 -->
<svg id="main" version="1.1" xmlns="http://www.w3.org/2000/svg" xmlns:xlink="http://www.w3.org/1999/xlink" xml:space="preserve" onload="init(evt)">
<style type="text/css"><![CDATA[
.edge:hover path { stroke: red; }
.edge:hover polygon { stroke: red; fill: red; }
]]></style>
<script type="text/javascript"><![CDATA[
var edges = document.getElementsByTagName('g');
if (edges && edges.length) {
  for (var i=0;i<edges.length;i++) {
    if (edges[i].id.substr(0,4)=='edge') {
      edges[i].setAttribute('class','edge');
    }
  }
}
]]></script>
        <defs>
                <circle id="rim" cx="0" cy="0" r="7"/>
                <circle id="rim2" cx="0" cy="0" r="3.5"/>
                <g id="zoomPlus">
                        <use xlink:href="#rim" fill="#404040">
                                <set attributeName="fill" to="#808080" begin="zoomplus.mouseover" end="zoomplus.mouseout"/>
                        </use>
                        <path d="M-4,0h8M0,-4v8" fill="none" stroke="white" stroke-width="1.5" pointer-events="none"/>
                </g>
                <g id="zoomMin">
                        <use xlink:href="#rim" fill="#404040">
                                <set attributeName="fill" to="#808080" begin="zoomminus.mouseover" end="zoomminus.mouseout"/>
                        </use>
                        <path d="M-4,0h8" fill="none" stroke="white" stroke-width="1.5" pointer-events="none"/>
                </g>
                <g id="dirArrow">
                        <path fill="none" stroke="white" stroke-width="1.5" d="M0,-3.0v7 M-2.5,-0.5L0,-3.0L2.5,-0.5"/>
                </g>
               <g id="resetDef">
                       <use xlink:href="#rim2" fill="#404040">
                               <set attributeName="fill" to="#808080" begin="reset.mouseover" end="reset.mouseout"/>
                       </use>
               </g>
        </defs>

<script type="text/javascript">
var viewWidth = 1021;
var viewHeight = 306;
var sectionId = 'dynsection-7';
</script>
<script xlink:href="../../svgpan.js"/>
<svg id="graph" class="graph">
<g id="viewport">
<title>ExFatFormatter::writeUpcaseByte</title>
<polygon fill="white" stroke="transparent" points="-4,4 -4,-302.16 1017,-302.16 1017,4 -4,4"/>
<!-- Node1 -->
<g id="node1" class="node">
<title>Node1</title>
<g id="a_node1"><a xlink:title=" ">
<polygon fill="#bfbfbf" stroke="black" points="0,-137.5 0,-158.5 193,-158.5 193,-137.5 0,-137.5"/>
<text text-anchor="middle" x="96.5" y="-144.9" font-family="Helvetica,sans-Serif" font-size="12.00">ExFatFormatter::writeUpcaseByte</text>
</a>
</g>
</g>
<!-- Node2 -->
<g id="node2" class="node">
<title>Node2</title>
<g id="a_node2"><a xlink:href="../../d1/db3/_fs_structs_8h.html#a7837ee2f48056071f5919515498d705b" target="_top" xlink:title=" ">
<polygon fill="white" stroke="black" points="260.5,-157.5 260.5,-178.5 361.5,-178.5 361.5,-157.5 260.5,-157.5"/>
<text text-anchor="middle" x="311" y="-164.9" font-family="Helvetica,sans-Serif" font-size="12.00">exFatChecksum</text>
</a>
</g>
</g>
<!-- Node1&#45;&gt;Node2 -->
<g id="edge1" class="edge">
<title>Node1&#45;&gt;Node2</title>
<path fill="none" stroke="midnightblue" d="M193.18,-157.01C212.61,-158.83 232.52,-160.71 250.27,-162.38"/>
<polygon fill="midnightblue" stroke="midnightblue" points="250.17,-165.88 260.45,-163.34 250.82,-158.91 250.17,-165.88"/>
</g>
<!-- Node3 -->
<g id="node3" class="node">
<title>Node3</title>
<g id="a_node3"><a xlink:href="../../d5/d4b/class_shared_spi_card.html#adf2ce56ca0a56fe841fbdf75f7f3faee" target="_top" xlink:title=" ">
<polygon fill="white" stroke="black" points="229,-117.5 229,-138.5 393,-138.5 393,-117.5 229,-117.5"/>
<text text-anchor="middle" x="311" y="-124.9" font-family="Helvetica,sans-Serif" font-size="12.00">SharedSpiCard::writeSector</text>
</a>
</g>
</g>
<!-- Node1&#45;&gt;Node3 -->
<g id="edge2" class="edge">
<title>Node1&#45;&gt;Node3</title>
<path fill="none" stroke="midnightblue" d="M193.18,-138.99C201.64,-138.2 210.19,-137.39 218.61,-136.6"/>
<polygon fill="midnightblue" stroke="midnightblue" points="219.18,-140.06 228.81,-135.64 218.52,-133.09 219.18,-140.06"/>
</g>
<!-- Node4 -->
<g id="node4" class="node">
<title>Node4</title>
<g id="a_node4"><a xlink:href="../../d5/d4b/class_shared_spi_card.html#adda33199753fc2aec74fe317cbaabc06" target="_top" xlink:title=" ">
<polygon fill="white" stroke="black" points="429,-195.5 429,-216.5 612,-216.5 612,-195.5 429,-195.5"/>
<text text-anchor="middle" x="520.5" y="-202.9" font-family="Helvetica,sans-Serif" font-size="12.00">SharedSpiCard::cardCommand</text>
</a>
</g>
</g>
<!-- Node3&#45;&gt;Node4 -->
<g id="edge3" class="edge">
<title>Node3&#45;&gt;Node4</title>
<path fill="none" stroke="midnightblue" d="M369.92,-138.63C377.91,-141.14 385.82,-144.22 393,-148 411.94,-157.97 410.25,-169.68 429,-180 438.01,-184.96 448.05,-189.05 458.08,-192.4"/>
<polygon fill="midnightblue" stroke="midnightblue" points="457.07,-195.75 467.66,-195.39 459.15,-189.07 457.07,-195.75"/>
</g>
<!-- Node5 -->
<g id="node5" class="node">
<title>Node5</title>
<g id="a_node5"><a xlink:href="../../d5/d4b/class_shared_spi_card.html#a08363209d938db87521cca6a84146041" target="_top" xlink:title=" ">
<polygon fill="white" stroke="red" points="849,-275.5 849,-296.5 1013,-296.5 1013,-275.5 849,-275.5"/>
<text text-anchor="middle" x="931" y="-282.9" font-family="Helvetica,sans-Serif" font-size="12.00">SharedSpiCard::spiReceive</text>
</a>
</g>
</g>
<!-- Node3&#45;&gt;Node5 -->
<g id="edge12" class="edge">
<title>Node3&#45;&gt;Node5</title>
<path fill="none" stroke="midnightblue" d="M377.74,-138.62C383.23,-141.14 388.42,-144.22 393,-148 422.44,-172.31 400.13,-201.01 429,-226 505.77,-292.45 547.52,-276.4 648,-291 711.18,-300.18 783.16,-298.71 838.58,-295.06"/>
<polygon fill="midnightblue" stroke="midnightblue" points="838.99,-298.54 848.73,-294.35 838.51,-291.56 838.99,-298.54"/>
</g>
<!-- Node22 -->
<g id="node9" class="node">
<title>Node22</title>
<g id="a_node9"><a xlink:href="../../d5/d4b/class_shared_spi_card.html#ab3468397bb3b12d29dd2f31e45b3dcaf" target="_top" xlink:title=" ">
<polygon fill="white" stroke="black" points="650.5,-118.5 650.5,-139.5 810.5,-139.5 810.5,-118.5 650.5,-118.5"/>
<text text-anchor="middle" x="730.5" y="-125.9" font-family="Helvetica,sans-Serif" font-size="12.00">SharedSpiCard::waitReady</text>
</a>
</g>
</g>
<!-- Node3&#45;&gt;Node22 -->
<g id="edge16" class="edge">
<title>Node3&#45;&gt;Node22</title>
<path fill="none" stroke="midnightblue" d="M388.98,-138.53C402.3,-139.98 416.03,-141.23 429,-142 510.19,-146.84 530.79,-146.48 612,-142 621.1,-141.5 630.59,-140.78 640.05,-139.93"/>
<polygon fill="midnightblue" stroke="midnightblue" points="640.65,-143.39 650.28,-138.97 639.99,-136.42 640.65,-143.39"/>
</g>
<!-- Node16 -->
<g id="node10" class="node">
<title>Node16</title>
<g id="a_node10"><a xlink:href="../../d5/d4b/class_shared_spi_card.html#a747c3f0b962098cf0c097f3c4c2b4fd4" target="_top" xlink:title=" ">
<polygon fill="white" stroke="black" points="665.5,-78.5 665.5,-99.5 795.5,-99.5 795.5,-78.5 665.5,-78.5"/>
<text text-anchor="middle" x="730.5" y="-85.9" font-family="Helvetica,sans-Serif" font-size="12.00">SharedSpiCard::error</text>
</a>
</g>
</g>
<!-- Node3&#45;&gt;Node16 -->
<g id="edge11" class="edge">
<title>Node3&#45;&gt;Node16</title>
<path fill="none" stroke="midnightblue" d="M393.06,-125.18C453.54,-122.51 538.13,-117.6 612,-109 629.27,-106.99 647.86,-104.14 665.04,-101.23"/>
<polygon fill="midnightblue" stroke="midnightblue" points="665.72,-104.66 674.97,-99.51 664.52,-97.77 665.72,-104.66"/>
</g>
<!-- Node17 -->
<g id="node11" class="node">
<title>Node17</title>
<g id="a_node11"><a xlink:href="../../d5/d4b/class_shared_spi_card.html#a0f511c39c50055a4fc97e720933aee3a" target="_top" xlink:title=" ">
<polygon fill="white" stroke="red" points="657.5,-38.5 657.5,-59.5 803.5,-59.5 803.5,-38.5 657.5,-38.5"/>
<text text-anchor="middle" x="730.5" y="-45.9" font-family="Helvetica,sans-Serif" font-size="12.00">SharedSpiCard::spiStop</text>
</a>
</g>
</g>
<!-- Node3&#45;&gt;Node17 -->
<g id="edge13" class="edge">
<title>Node3&#45;&gt;Node17</title>
<path fill="none" stroke="midnightblue" d="M327.82,-117.41C349.56,-103.48 390.38,-79.55 429,-69 500.87,-49.36 585.85,-45.39 647.06,-45.73"/>
<polygon fill="midnightblue" stroke="midnightblue" points="647.41,-49.23 657.44,-45.83 647.47,-42.23 647.41,-49.23"/>
</g>
<!-- Node23 -->
<g id="node12" class="node">
<title>Node23</title>
<g id="a_node12"><a xlink:href="../../d5/d4b/class_shared_spi_card.html#a7dac2190763d7b4b72163ed7131e8a87" target="_top" xlink:title=" ">
<polygon fill="white" stroke="black" points="457,-0.5 457,-21.5 584,-21.5 584,-0.5 457,-0.5"/>
<text text-anchor="middle" x="520.5" y="-7.9" font-family="Helvetica,sans-Serif" font-size="12.00">SharedSpiCard::type</text>
</a>
</g>
</g>
<!-- Node3&#45;&gt;Node23 -->
<g id="edge15" class="edge">
<title>Node3&#45;&gt;Node23</title>
<path fill="none" stroke="midnightblue" d="M322.58,-117.22C341.96,-98.1 385.18,-58.14 429,-36 437.95,-31.48 447.82,-27.69 457.65,-24.53"/>
<polygon fill="midnightblue" stroke="midnightblue" points="458.87,-27.82 467.44,-21.59 456.86,-21.12 458.87,-27.82"/>
</g>
<!-- Node24 -->
<g id="node13" class="node">
<title>Node24</title>
<g id="a_node13"><a xlink:href="../../d5/d4b/class_shared_spi_card.html#a5b6d7ad34f56d0d6a6c5059d920499ba" target="_top" xlink:title=" ">
<polygon fill="white" stroke="black" points="443,-78.5 443,-99.5 598,-99.5 598,-78.5 443,-78.5"/>
<text text-anchor="middle" x="520.5" y="-85.9" font-family="Helvetica,sans-Serif" font-size="12.00">SharedSpiCard::writeData</text>
</a>
</g>
</g>
<!-- Node3&#45;&gt;Node24 -->
<g id="edge17" class="edge">
<title>Node3&#45;&gt;Node24</title>
<path fill="none" stroke="midnightblue" d="M367.88,-117.5C394.29,-112.53 425.99,-106.58 453.57,-101.39"/>
<polygon fill="midnightblue" stroke="midnightblue" points="454.34,-104.81 463.52,-99.52 453.05,-97.93 454.34,-104.81"/>
</g>
<!-- Node4&#45;&gt;Node5 -->
<g id="edge4" class="edge">
<title>Node4&#45;&gt;Node5</title>
<path fill="none" stroke="midnightblue" d="M538.28,-216.69C561.78,-231.04 606.28,-255.98 648,-267 710.19,-283.43 782.64,-288.02 838.52,-288.58"/>
<polygon fill="midnightblue" stroke="midnightblue" points="838.74,-292.08 848.76,-288.64 838.78,-285.08 838.74,-292.08"/>
</g>
<!-- Node7 -->
<g id="node6" class="node">
<title>Node7</title>
<g id="a_node6"><a xlink:href="../../d5/d4b/class_shared_spi_card.html#ab311b9ad8a250f06afbe091f7abb118b" target="_top" xlink:title=" ">
<polygon fill="white" stroke="red" points="856.5,-158.5 856.5,-179.5 1005.5,-179.5 1005.5,-158.5 856.5,-158.5"/>
<text text-anchor="middle" x="931" y="-165.9" font-family="Helvetica,sans-Serif" font-size="12.00">SharedSpiCard::spiSend</text>
</a>
</g>
</g>
<!-- Node4&#45;&gt;Node7 -->
<g id="edge5" class="edge">
<title>Node4&#45;&gt;Node7</title>
<path fill="none" stroke="midnightblue" d="M612.32,-203.3C669.95,-200.94 746.01,-196.65 813,-189 830.29,-187.02 848.9,-184.18 866.08,-181.25"/>
<polygon fill="midnightblue" stroke="midnightblue" points="866.76,-184.68 876.01,-179.52 865.55,-177.79 866.76,-184.68"/>
</g>
<!-- Node9 -->
<g id="node7" class="node">
<title>Node9</title>
<g id="a_node7"><a xlink:href="../../d5/d4b/class_shared_spi_card.html#aef2dfa72e8d5643c90720f9f8c6a4254" target="_top" xlink:title=" ">
<polygon fill="white" stroke="red" points="657.5,-158.5 657.5,-179.5 803.5,-179.5 803.5,-158.5 657.5,-158.5"/>
<text text-anchor="middle" x="730.5" y="-165.9" font-family="Helvetica,sans-Serif" font-size="12.00">SharedSpiCard::spiStart</text>
</a>
</g>
</g>
<!-- Node4&#45;&gt;Node9 -->
<g id="edge6" class="edge">
<title>Node4&#45;&gt;Node9</title>
<path fill="none" stroke="midnightblue" d="M580.55,-195.5C605.36,-191.08 634.4,-185.92 660.21,-181.33"/>
<polygon fill="midnightblue" stroke="midnightblue" points="661.07,-184.73 670.3,-179.53 659.85,-177.84 661.07,-184.73"/>
</g>
<!-- Node14 -->
<g id="node8" class="node">
<title>Node14</title>
<g id="a_node8"><a xlink:href="../../d5/d4b/class_shared_spi_card.html#a2f181b3d6f27413a0f5ee883dfd94d87" target="_top" xlink:title=" ">
<polygon fill="white" stroke="red" points="648,-236.5 648,-257.5 813,-257.5 813,-236.5 648,-236.5"/>
<text text-anchor="middle" x="730.5" y="-243.9" font-family="Helvetica,sans-Serif" font-size="12.00">SharedSpiCard::syncDevice</text>
</a>
</g>
</g>
<!-- Node4&#45;&gt;Node14 -->
<g id="edge8" class="edge">
<title>Node4&#45;&gt;Node14</title>
<path fill="none" stroke="midnightblue" d="M574.8,-216.51C602.57,-221.98 636.74,-228.72 665.9,-234.46"/>
<polygon fill="midnightblue" stroke="midnightblue" points="665.49,-237.95 675.98,-236.45 666.85,-231.08 665.49,-237.95"/>
</g>
<!-- Node4&#45;&gt;Node22 -->
<g id="edge9" class="edge">
<title>Node4&#45;&gt;Node22</title>
<path fill="none" stroke="midnightblue" d="M572.8,-195.4C586.02,-191.57 599.92,-186.53 612,-180 630.58,-169.96 629.23,-158.67 648,-149 652.5,-146.68 657.28,-144.63 662.18,-142.8"/>
<polygon fill="midnightblue" stroke="midnightblue" points="663.36,-146.1 671.7,-139.57 661.11,-139.47 663.36,-146.1"/>
</g>
<!-- Node9&#45;&gt;Node7 -->
<g id="edge7" class="edge">
<title>Node9&#45;&gt;Node7</title>
<path fill="none" stroke="midnightblue" d="M803.72,-169C817.55,-169 832.13,-169 846.29,-169"/>
<polygon fill="midnightblue" stroke="midnightblue" points="846.5,-172.5 856.5,-169 846.5,-165.5 846.5,-172.5"/>
</g>
<!-- Node22&#45;&gt;Node5 -->
<g id="edge10" class="edge">
<title>Node22&#45;&gt;Node5</title>
<path fill="none" stroke="midnightblue" d="M792.84,-139.58C799.91,-142.09 806.8,-145.18 813,-149 819.5,-153.01 884.2,-230.67 914.5,-267.24"/>
<polygon fill="midnightblue" stroke="midnightblue" points="912,-269.72 921.08,-275.19 917.4,-265.25 912,-269.72"/>
</g>
<!-- Node17&#45;&gt;Node7 -->
<g id="edge14" class="edge">
<title>Node17&#45;&gt;Node7</title>
<path fill="none" stroke="midnightblue" d="M789.28,-59.6C797.47,-62.12 805.61,-65.21 813,-69 854.08,-90.07 893,-128.25 913.97,-150.85"/>
<polygon fill="midnightblue" stroke="midnightblue" points="911.53,-153.37 920.85,-158.41 916.71,-148.66 911.53,-153.37"/>
</g>
<!-- Node24&#45;&gt;Node22 -->
<g id="edge20" class="edge">
<title>Node24&#45;&gt;Node22</title>
<path fill="none" stroke="midnightblue" d="M576.15,-99.51C603.39,-104.75 636.51,-111.12 664.99,-116.59"/>
<polygon fill="midnightblue" stroke="midnightblue" points="664.37,-120.04 674.85,-118.49 665.7,-113.17 664.37,-120.04"/>
</g>
<!-- Node24&#45;&gt;Node16 -->
<g id="edge18" class="edge">
<title>Node24&#45;&gt;Node16</title>
<path fill="none" stroke="midnightblue" d="M598.07,-89C616.73,-89 636.67,-89 655.23,-89"/>
<polygon fill="midnightblue" stroke="midnightblue" points="655.38,-92.5 665.38,-89 655.38,-85.5 655.38,-92.5"/>
</g>
<!-- Node24&#45;&gt;Node17 -->
<g id="edge19" class="edge">
<title>Node24&#45;&gt;Node17</title>
<path fill="none" stroke="midnightblue" d="M576.15,-78.49C603.39,-73.25 636.51,-66.88 664.99,-61.41"/>
<polygon fill="midnightblue" stroke="midnightblue" points="665.7,-64.83 674.85,-59.51 664.37,-57.96 665.7,-64.83"/>
</g>
</g>
</svg>
        <g id="navigator" transform="translate(0 0)" fill="#404254">
                <rect fill="#f2f5e9" fill-opacity="0.5" stroke="#606060" stroke-width=".5" x="0" y="0" width="60" height="60"/>
                <use id="zoomplus" xlink:href="#zoomPlus" x="17" y="9" onmousedown="handleZoom(evt,'in')"/>
                <use id="zoomminus" xlink:href="#zoomMin" x="42" y="9" onmousedown="handleZoom(evt,'out')"/>
                <use id="reset" xlink:href="#resetDef" x="30" y="36" onmousedown="handleReset()"/>
                <g id="arrowUp" xlink:href="#dirArrow" transform="translate(30 24)" onmousedown="handlePan(0,-1)">
                  <use xlink:href="#rim" fill="#404040">
                        <set attributeName="fill" to="#808080" begin="arrowUp.mouseover" end="arrowUp.mouseout"/>
                  </use>
                  <path fill="none" stroke="white" stroke-width="1.5" d="M0,-3.0v7 M-2.5,-0.5L0,-3.0L2.5,-0.5"/>
                </g>
                <g id="arrowRight" xlink:href="#dirArrow" transform="rotate(90) translate(36 -43)" onmousedown="handlePan(1,0)">
                  <use xlink:href="#rim" fill="#404040">
                        <set attributeName="fill" to="#808080" begin="arrowRight.mouseover" end="arrowRight.mouseout"/>
                  </use>
                  <path fill="none" stroke="white" stroke-width="1.5" d="M0,-3.0v7 M-2.5,-0.5L0,-3.0L2.5,-0.5"/>
                </g>
                <g id="arrowDown" xlink:href="#dirArrow" transform="rotate(180) translate(-30 -48)" onmousedown="handlePan(0,1)">
                  <use xlink:href="#rim" fill="#404040">
                        <set attributeName="fill" to="#808080" begin="arrowDown.mouseover" end="arrowDown.mouseout"/>
                  </use>
                  <path fill="none" stroke="white" stroke-width="1.5" d="M0,-3.0v7 M-2.5,-0.5L0,-3.0L2.5,-0.5"/>
                </g>
                <g id="arrowLeft" xlink:href="#dirArrow" transform="rotate(270) translate(-36 17)" onmousedown="handlePan(-1,0)">
                  <use xlink:href="#rim" fill="#404040">
                        <set attributeName="fill" to="#808080" begin="arrowLeft.mouseover" end="arrowLeft.mouseout"/>
                  </use>
                  <path fill="none" stroke="white" stroke-width="1.5" d="M0,-3.0v7 M-2.5,-0.5L0,-3.0L2.5,-0.5"/>
                </g>
        </g>
        <svg viewBox="0 0 15 15" width="100%" height="30px" preserveAspectRatio="xMaxYMin meet">
         <g id="arrow_out" transform="scale(0.3 0.3)">
          <a xlink:href="class_ex_fat_formatter_a759ad08a74b8256217d2a5cc87b4dd8b_cgraph_org.svg" target="_base">
           <rect id="button" ry="5" rx="5" y="6" x="6" height="38" width="38"
                fill="#f2f5e9" fill-opacity="0.5" stroke="#606060" stroke-width="1.0"/>
           <path id="arrow"
             d="M 11.500037,31.436501 C 11.940474,20.09759 22.043105,11.32322 32.158766,21.979434 L 37.068811,17.246167 C 37.068811,17.246167 37.088388,32 37.088388,32 L 22.160133,31.978069 C 22.160133,31.978069 26.997745,27.140456 26.997745,27.140456 C 18.528582,18.264221 13.291696,25.230495 11.500037,31.436501 z"
             style="fill:#404040;"/>
          </a>
         </g>
        </svg>
</svg>
