<?xml version="1.0" encoding="UTF-8" standalone="no"?>
<!DOCTYPE svg PUBLIC "-//W3C//DTD SVG 1.1//EN"
 "http://www.w3.org/Graphics/SVG/1.1/DTD/svg11.dtd">
<!-- Generated by graphviz version 2.47.3 (20210619.1520)
 -->
<!-- Title: ExFatFormatter::format Pages: 1 -->
<svg width="1610pt" height="432pt"
 viewBox="0.00 0.00 1610.00 432.32" xmlns="http://www.w3.org/2000/svg" xmlns:xlink="http://www.w3.org/1999/xlink">
<g id="graph0" class="graph" transform="scale(1 1) rotate(0) translate(4 428.32)">
<title>ExFatFormatter::format</title>
<polygon fill="white" stroke="transparent" points="-4,4 -4,-428.32 1606,-428.32 1606,4 -4,4"/>
<!-- Node1 -->
<g id="node1" class="node">
<title>Node1</title>
<g id="a_node1"><a xlink:title=" ">
<polygon fill="#bfbfbf" stroke="black" points="0,-119.5 0,-140.5 137,-140.5 137,-119.5 0,-119.5"/>
<text text-anchor="middle" x="68.5" y="-126.9" font-family="Helvetica,sans-Serif" font-size="12.00">ExFatFormatter::format</text>
</a>
</g>
</g>
<!-- Node2 -->
<g id="node2" class="node">
<title>Node2</title>
<g id="a_node2"><a xlink:href="../../d1/db3/_fs_structs_8h.html#a7837ee2f48056071f5919515498d705b" target="_top" xlink:title=" ">
<polygon fill="white" stroke="black" points="850,-142.5 850,-163.5 951,-163.5 951,-142.5 850,-142.5"/>
<text text-anchor="middle" x="900.5" y="-149.9" font-family="Helvetica,sans-Serif" font-size="12.00">exFatChecksum</text>
</a>
</g>
</g>
<!-- Node1&#45;&gt;Node2 -->
<g id="edge1" class="edge">
<title>Node1&#45;&gt;Node2</title>
<path fill="none" stroke="midnightblue" d="M137.07,-131.87C295.52,-136.26 688.96,-147.17 839.55,-151.34"/>
<polygon fill="midnightblue" stroke="midnightblue" points="839.87,-154.85 849.97,-151.63 840.07,-147.85 839.87,-154.85"/>
</g>
<!-- Node3 -->
<g id="node3" class="node">
<title>Node3</title>
<g id="a_node3"><a xlink:href="../../d5/d4b/class_shared_spi_card.html#ae005ead6dfdd65718da5a035dca82b39" target="_top" xlink:title=" ">
<polygon fill="white" stroke="black" points="380,-292.5 380,-313.5 548,-313.5 548,-292.5 380,-292.5"/>
<text text-anchor="middle" x="464" y="-299.9" font-family="Helvetica,sans-Serif" font-size="12.00">SharedSpiCard::sectorCount</text>
</a>
</g>
</g>
<!-- Node1&#45;&gt;Node3 -->
<g id="edge2" class="edge">
<title>Node1&#45;&gt;Node3</title>
<path fill="none" stroke="midnightblue" d="M79.31,-140.79C96.57,-159.14 134.2,-196.54 173,-218 241.06,-255.64 327.55,-278.19 388.29,-290.5"/>
<polygon fill="midnightblue" stroke="midnightblue" points="387.7,-293.96 398.19,-292.47 389.06,-287.09 387.7,-293.96"/>
</g>
<!-- Node27 -->
<g id="node12" class="node">
<title>Node27</title>
<g id="a_node12"><a xlink:href="../../d1/db3/_fs_structs_8h.html#a2a47595a3bb5c1f0f67d4f3dddac0a0e" target="_top" xlink:title=" ">
<polygon fill="white" stroke="black" points="228.5,-80.5 228.5,-101.5 287.5,-101.5 287.5,-80.5 228.5,-80.5"/>
<text text-anchor="middle" x="258" y="-87.9" font-family="Helvetica,sans-Serif" font-size="12.00">setLe16</text>
</a>
</g>
</g>
<!-- Node1&#45;&gt;Node27 -->
<g id="edge12" class="edge">
<title>Node1&#45;&gt;Node27</title>
<path fill="none" stroke="midnightblue" d="M120.24,-119.45C151.15,-113.02 190.02,-104.93 218.42,-99.03"/>
<polygon fill="midnightblue" stroke="midnightblue" points="219.29,-102.42 228.37,-96.96 217.87,-95.56 219.29,-102.42"/>
</g>
<!-- Node28 -->
<g id="node13" class="node">
<title>Node28</title>
<g id="a_node13"><a xlink:href="../../d1/db3/_fs_structs_8h.html#a294114e9924b0436c1d110e692bef464" target="_top" xlink:title=" ">
<polygon fill="white" stroke="black" points="228.5,-40.5 228.5,-61.5 287.5,-61.5 287.5,-40.5 228.5,-40.5"/>
<text text-anchor="middle" x="258" y="-47.9" font-family="Helvetica,sans-Serif" font-size="12.00">setLe32</text>
</a>
</g>
</g>
<!-- Node1&#45;&gt;Node28 -->
<g id="edge13" class="edge">
<title>Node1&#45;&gt;Node28</title>
<path fill="none" stroke="midnightblue" d="M84.93,-119.33C104.56,-106.2 139.91,-84.06 173,-71 187.36,-65.33 203.77,-60.99 218.24,-57.82"/>
<polygon fill="midnightblue" stroke="midnightblue" points="219.3,-61.17 228.39,-55.72 217.88,-54.32 219.3,-61.17"/>
</g>
<!-- Node29 -->
<g id="node14" class="node">
<title>Node29</title>
<g id="a_node14"><a xlink:href="../../d1/db3/_fs_structs_8h.html#a3b3f9b76206e0f840e2620a4a6589d88" target="_top" xlink:title=" ">
<polygon fill="white" stroke="black" points="228.5,-0.5 228.5,-21.5 287.5,-21.5 287.5,-0.5 228.5,-0.5"/>
<text text-anchor="middle" x="258" y="-7.9" font-family="Helvetica,sans-Serif" font-size="12.00">setLe64</text>
</a>
</g>
</g>
<!-- Node1&#45;&gt;Node29 -->
<g id="edge14" class="edge">
<title>Node1&#45;&gt;Node29</title>
<path fill="none" stroke="midnightblue" d="M77.32,-119.45C93.04,-99.02 130.63,-54.06 173,-31 186.91,-23.43 203.64,-18.7 218.5,-15.76"/>
<polygon fill="midnightblue" stroke="midnightblue" points="219.19,-19.19 228.42,-13.99 217.97,-12.3 219.19,-19.19"/>
</g>
<!-- Node30 -->
<g id="node15" class="node">
<title>Node30</title>
<g id="a_node15"><a xlink:href="../../d5/d4b/class_shared_spi_card.html#adf2ce56ca0a56fe841fbdf75f7f3faee" target="_top" xlink:title=" ">
<polygon fill="white" stroke="black" points="818.5,-217.5 818.5,-238.5 982.5,-238.5 982.5,-217.5 818.5,-217.5"/>
<text text-anchor="middle" x="900.5" y="-224.9" font-family="Helvetica,sans-Serif" font-size="12.00">SharedSpiCard::writeSector</text>
</a>
</g>
</g>
<!-- Node1&#45;&gt;Node30 -->
<g id="edge15" class="edge">
<title>Node1&#45;&gt;Node30</title>
<path fill="none" stroke="midnightblue" d="M74.85,-140.83C87.93,-166.19 124.1,-229.8 173,-263 251.89,-316.57 284.6,-309.53 379,-323 554.56,-348.05 610.34,-380.77 778,-323 822.16,-307.79 862.55,-269.2 883.81,-246.15"/>
<polygon fill="midnightblue" stroke="midnightblue" points="886.41,-248.49 890.5,-238.71 881.21,-243.81 886.41,-248.49"/>
</g>
<!-- Node33 -->
<g id="node18" class="node">
<title>Node33</title>
<g id="a_node18"><a xlink:href="../../dc/d53/class_ex_fat_formatter.html#a031db750beded781b5e5573558aa3612" target="_top" xlink:title=" ">
<polygon fill="white" stroke="black" points="173,-187.5 173,-208.5 343,-208.5 343,-187.5 173,-187.5"/>
<text text-anchor="middle" x="258" y="-194.9" font-family="Helvetica,sans-Serif" font-size="12.00">ExFatFormatter::writeUpcase</text>
</a>
</g>
</g>
<!-- Node1&#45;&gt;Node33 -->
<g id="edge26" class="edge">
<title>Node1&#45;&gt;Node33</title>
<path fill="none" stroke="midnightblue" d="M98.8,-140.62C130.99,-152.3 182.85,-171.11 218.36,-183.99"/>
<polygon fill="midnightblue" stroke="midnightblue" points="217.31,-187.33 227.91,-187.45 219.7,-180.75 217.31,-187.33"/>
</g>
<!-- Node4 -->
<g id="node4" class="node">
<title>Node4</title>
<g id="a_node4"><a xlink:href="../../d5/d4b/class_shared_spi_card.html#aa28eccbfb63a43aada4ec199da69a38c" target="_top" xlink:title=" ">
<polygon fill="white" stroke="black" points="604,-370.5 604,-391.5 759,-391.5 759,-370.5 604,-370.5"/>
<text text-anchor="middle" x="681.5" y="-377.9" font-family="Helvetica,sans-Serif" font-size="12.00">SharedSpiCard::readCSD</text>
</a>
</g>
</g>
<!-- Node3&#45;&gt;Node4 -->
<g id="edge3" class="edge">
<title>Node3&#45;&gt;Node4</title>
<path fill="none" stroke="midnightblue" d="M494.06,-313.52C532.22,-327.33 599.33,-351.62 641.77,-366.98"/>
<polygon fill="midnightblue" stroke="midnightblue" points="640.61,-370.29 651.21,-370.4 643,-363.7 640.61,-370.29"/>
</g>
<!-- Node26 -->
<g id="node11" class="node">
<title>Node26</title>
<g id="a_node11"><a xlink:href="../../d2/db6/_sd_card_info_8h.html#a74fdb2782b0db8bcf0fcd3dbccbaff01" target="_top" xlink:title=" ">
<polygon fill="white" stroke="black" points="630.5,-292.5 630.5,-313.5 732.5,-313.5 732.5,-292.5 630.5,-292.5"/>
<text text-anchor="middle" x="681.5" y="-299.9" font-family="Helvetica,sans-Serif" font-size="12.00">sdCardCapacity</text>
</a>
</g>
</g>
<!-- Node3&#45;&gt;Node26 -->
<g id="edge11" class="edge">
<title>Node3&#45;&gt;Node26</title>
<path fill="none" stroke="midnightblue" d="M548.01,-303C572.07,-303 597.87,-303 620.25,-303"/>
<polygon fill="midnightblue" stroke="midnightblue" points="620.28,-306.5 630.28,-303 620.28,-299.5 620.28,-306.5"/>
</g>
<!-- Node5 -->
<g id="node5" class="node">
<title>Node5</title>
<g id="a_node5"><a xlink:href="../../d5/d4b/class_shared_spi_card.html#a9107af8380369d08cd2db4824a8aceda" target="_top" xlink:title=" ">
<polygon fill="white" stroke="red" points="814,-364.5 814,-385.5 987,-385.5 987,-364.5 814,-364.5"/>
<text text-anchor="middle" x="900.5" y="-371.9" font-family="Helvetica,sans-Serif" font-size="12.00">SharedSpiCard::readRegister</text>
</a>
</g>
</g>
<!-- Node4&#45;&gt;Node5 -->
<g id="edge4" class="edge">
<title>Node4&#45;&gt;Node5</title>
<path fill="none" stroke="midnightblue" d="M759.01,-378.88C773.38,-378.49 788.58,-378.07 803.46,-377.66"/>
<polygon fill="midnightblue" stroke="midnightblue" points="803.8,-381.15 813.7,-377.37 803.61,-374.15 803.8,-381.15"/>
</g>
<!-- Node6 -->
<g id="node6" class="node">
<title>Node6</title>
<g id="a_node6"><a xlink:href="../../d5/d4b/class_shared_spi_card.html#adda33199753fc2aec74fe317cbaabc06" target="_top" xlink:title=" ">
<polygon fill="white" stroke="red" points="1023,-237.5 1023,-258.5 1206,-258.5 1206,-237.5 1023,-237.5"/>
<text text-anchor="middle" x="1114.5" y="-244.9" font-family="Helvetica,sans-Serif" font-size="12.00">SharedSpiCard::cardCommand</text>
</a>
</g>
</g>
<!-- Node5&#45;&gt;Node6 -->
<g id="edge5" class="edge">
<title>Node5&#45;&gt;Node6</title>
<path fill="none" stroke="midnightblue" d="M919.21,-364.39C956.47,-342.07 1043.12,-290.16 1087.01,-263.87"/>
<polygon fill="midnightblue" stroke="midnightblue" points="1088.91,-266.81 1095.69,-258.67 1085.31,-260.81 1088.91,-266.81"/>
</g>
<!-- Node18 -->
<g id="node9" class="node">
<title>Node18</title>
<g id="a_node9"><a xlink:href="../../d5/d4b/class_shared_spi_card.html#a747c3f0b962098cf0c097f3c4c2b4fd4" target="_top" xlink:title=" ">
<polygon fill="white" stroke="black" points="1257,-315.5 1257,-336.5 1387,-336.5 1387,-315.5 1257,-315.5"/>
<text text-anchor="middle" x="1322" y="-322.9" font-family="Helvetica,sans-Serif" font-size="12.00">SharedSpiCard::error</text>
</a>
</g>
</g>
<!-- Node5&#45;&gt;Node18 -->
<g id="edge9" class="edge">
<title>Node5&#45;&gt;Node18</title>
<path fill="none" stroke="midnightblue" d="M987.02,-368.63C1048.16,-363.65 1132.32,-355.9 1206,-346 1222.13,-343.83 1239.46,-341.06 1255.65,-338.27"/>
<polygon fill="midnightblue" stroke="midnightblue" points="1256.32,-341.7 1265.57,-336.53 1255.11,-334.81 1256.32,-341.7"/>
</g>
<!-- Node19 -->
<g id="node10" class="node">
<title>Node19</title>
<g id="a_node10"><a xlink:href="../../d5/d4b/class_shared_spi_card.html#a0f511c39c50055a4fc97e720933aee3a" target="_top" xlink:title=" ">
<polygon fill="white" stroke="red" points="1249,-392.5 1249,-413.5 1395,-413.5 1395,-392.5 1249,-392.5"/>
<text text-anchor="middle" x="1322" y="-399.9" font-family="Helvetica,sans-Serif" font-size="12.00">SharedSpiCard::spiStop</text>
</a>
</g>
</g>
<!-- Node5&#45;&gt;Node19 -->
<g id="edge10" class="edge">
<title>Node5&#45;&gt;Node19</title>
<path fill="none" stroke="midnightblue" d="M924.64,-385.6C948.64,-395.97 987.56,-411.05 1023,-417 1099.41,-429.83 1188.28,-422.89 1248.95,-414.9"/>
<polygon fill="midnightblue" stroke="midnightblue" points="1249.75,-418.32 1259.19,-413.5 1248.81,-411.38 1249.75,-418.32"/>
</g>
<!-- Node7 -->
<g id="node7" class="node">
<title>Node7</title>
<g id="a_node7"><a xlink:href="../../d5/d4b/class_shared_spi_card.html#a08363209d938db87521cca6a84146041" target="_top" xlink:title=" ">
<polygon fill="white" stroke="red" points="1438,-198.5 1438,-219.5 1602,-219.5 1602,-198.5 1438,-198.5"/>
<text text-anchor="middle" x="1520" y="-205.9" font-family="Helvetica,sans-Serif" font-size="12.00">SharedSpiCard::spiReceive</text>
</a>
</g>
</g>
<!-- Node6&#45;&gt;Node7 -->
<g id="edge6" class="edge">
<title>Node6&#45;&gt;Node7</title>
<path fill="none" stroke="midnightblue" d="M1206.04,-244.39C1262.53,-241.54 1336.66,-236.73 1402,-229 1419.11,-226.98 1437.52,-224.14 1454.56,-221.24"/>
<polygon fill="midnightblue" stroke="midnightblue" points="1455.15,-224.69 1464.41,-219.53 1453.96,-217.79 1455.15,-224.69"/>
</g>
<!-- Node24 -->
<g id="node8" class="node">
<title>Node24</title>
<g id="a_node8"><a xlink:href="../../d5/d4b/class_shared_spi_card.html#ab3468397bb3b12d29dd2f31e45b3dcaf" target="_top" xlink:title=" ">
<polygon fill="white" stroke="black" points="1242,-198.5 1242,-219.5 1402,-219.5 1402,-198.5 1242,-198.5"/>
<text text-anchor="middle" x="1322" y="-205.9" font-family="Helvetica,sans-Serif" font-size="12.00">SharedSpiCard::waitReady</text>
</a>
</g>
</g>
<!-- Node6&#45;&gt;Node24 -->
<g id="edge7" class="edge">
<title>Node6&#45;&gt;Node24</title>
<path fill="none" stroke="midnightblue" d="M1170.84,-237.5C1196.99,-232.53 1228.39,-226.58 1255.7,-221.39"/>
<polygon fill="midnightblue" stroke="midnightblue" points="1256.39,-224.82 1265.56,-219.52 1255.08,-217.95 1256.39,-224.82"/>
</g>
<!-- Node24&#45;&gt;Node7 -->
<g id="edge8" class="edge">
<title>Node24&#45;&gt;Node7</title>
<path fill="none" stroke="midnightblue" d="M1402.16,-209C1410.63,-209 1419.3,-209 1427.9,-209"/>
<polygon fill="midnightblue" stroke="midnightblue" points="1427.95,-212.5 1437.95,-209 1427.95,-205.5 1427.95,-212.5"/>
</g>
<!-- Node30&#45;&gt;Node6 -->
<g id="edge16" class="edge">
<title>Node30&#45;&gt;Node6</title>
<path fill="none" stroke="midnightblue" d="M982.56,-235.65C992.46,-236.58 1002.68,-237.54 1012.83,-238.5"/>
<polygon fill="midnightblue" stroke="midnightblue" points="1012.66,-242 1022.94,-239.46 1013.31,-235.03 1012.66,-242"/>
</g>
<!-- Node30&#45;&gt;Node7 -->
<g id="edge18" class="edge">
<title>Node30&#45;&gt;Node7</title>
<path fill="none" stroke="midnightblue" d="M920.11,-217.42C943.32,-204.88 984.65,-184.72 1023,-177 1181.18,-145.15 1372.91,-176.9 1464.79,-196.33"/>
<polygon fill="midnightblue" stroke="midnightblue" points="1464.18,-199.78 1474.69,-198.46 1465.65,-192.94 1464.18,-199.78"/>
</g>
<!-- Node30&#45;&gt;Node24 -->
<g id="edge21" class="edge">
<title>Node30&#45;&gt;Node24</title>
<path fill="none" stroke="midnightblue" d="M926.05,-217.35C950.19,-207.49 988.35,-193.56 1023,-188 1103.31,-175.12 1125,-180.66 1206,-188 1225.1,-189.73 1245.77,-193.04 1264.25,-196.54"/>
<polygon fill="midnightblue" stroke="midnightblue" points="1263.78,-200.01 1274.26,-198.49 1265.12,-193.14 1263.78,-200.01"/>
</g>
<!-- Node30&#45;&gt;Node18 -->
<g id="edge17" class="edge">
<title>Node30&#45;&gt;Node18</title>
<path fill="none" stroke="midnightblue" d="M930.16,-238.57C954.59,-247.31 990.77,-259.59 1023,-268 1065.32,-279.04 1177.99,-300.14 1252.02,-313.61"/>
<polygon fill="midnightblue" stroke="midnightblue" points="1251.74,-317.12 1262.2,-315.46 1252.99,-310.23 1251.74,-317.12"/>
</g>
<!-- Node30&#45;&gt;Node19 -->
<g id="edge19" class="edge">
<title>Node30&#45;&gt;Node19</title>
<path fill="none" stroke="midnightblue" d="M908.91,-238.57C926.02,-262.1 970.83,-318.85 1023,-346 1090.39,-381.07 1176.43,-394.72 1238.71,-399.95"/>
<polygon fill="midnightblue" stroke="midnightblue" points="1238.65,-403.45 1248.89,-400.75 1239.19,-396.48 1238.65,-403.45"/>
</g>
<!-- Node31 -->
<g id="node16" class="node">
<title>Node31</title>
<g id="a_node16"><a xlink:href="../../d5/d4b/class_shared_spi_card.html#a7dac2190763d7b4b72163ed7131e8a87" target="_top" xlink:title=" ">
<polygon fill="white" stroke="black" points="1051,-197.5 1051,-218.5 1178,-218.5 1178,-197.5 1051,-197.5"/>
<text text-anchor="middle" x="1114.5" y="-204.9" font-family="Helvetica,sans-Serif" font-size="12.00">SharedSpiCard::type</text>
</a>
</g>
</g>
<!-- Node30&#45;&gt;Node31 -->
<g id="edge20" class="edge">
<title>Node30&#45;&gt;Node31</title>
<path fill="none" stroke="midnightblue" d="M982.56,-220.35C1001.78,-218.54 1022.16,-216.62 1040.97,-214.84"/>
<polygon fill="midnightblue" stroke="midnightblue" points="1041.32,-218.32 1050.95,-213.9 1040.67,-211.36 1041.32,-218.32"/>
</g>
<!-- Node32 -->
<g id="node17" class="node">
<title>Node32</title>
<g id="a_node17"><a xlink:href="../../d5/d4b/class_shared_spi_card.html#a5b6d7ad34f56d0d6a6c5059d920499ba" target="_top" xlink:title=" ">
<polygon fill="white" stroke="black" points="1037,-315.5 1037,-336.5 1192,-336.5 1192,-315.5 1037,-315.5"/>
<text text-anchor="middle" x="1114.5" y="-322.9" font-family="Helvetica,sans-Serif" font-size="12.00">SharedSpiCard::writeData</text>
</a>
</g>
</g>
<!-- Node30&#45;&gt;Node32 -->
<g id="edge22" class="edge">
<title>Node30&#45;&gt;Node32</title>
<path fill="none" stroke="midnightblue" d="M916.13,-238.6C938.28,-254.22 982.07,-283.44 1023,-301 1033.43,-305.47 1044.88,-309.36 1056.02,-312.65"/>
<polygon fill="midnightblue" stroke="midnightblue" points="1055.12,-316.04 1065.7,-315.39 1057.03,-309.3 1055.12,-316.04"/>
</g>
<!-- Node32&#45;&gt;Node24 -->
<g id="edge25" class="edge">
<title>Node32&#45;&gt;Node24</title>
<path fill="none" stroke="midnightblue" d="M1134.1,-315.41C1170.46,-294.71 1251.1,-248.8 1293.59,-224.61"/>
<polygon fill="midnightblue" stroke="midnightblue" points="1295.34,-227.64 1302.29,-219.65 1291.87,-221.56 1295.34,-227.64"/>
</g>
<!-- Node32&#45;&gt;Node18 -->
<g id="edge23" class="edge">
<title>Node32&#45;&gt;Node18</title>
<path fill="none" stroke="midnightblue" d="M1192.02,-326C1209.86,-326 1228.83,-326 1246.57,-326"/>
<polygon fill="midnightblue" stroke="midnightblue" points="1246.86,-329.5 1256.86,-326 1246.86,-322.5 1246.86,-329.5"/>
</g>
<!-- Node32&#45;&gt;Node19 -->
<g id="edge24" class="edge">
<title>Node32&#45;&gt;Node19</title>
<path fill="none" stroke="midnightblue" d="M1143.64,-336.55C1179.9,-350.13 1243.04,-373.79 1283.38,-388.9"/>
<polygon fill="midnightblue" stroke="midnightblue" points="1282.28,-392.23 1292.87,-392.46 1284.73,-385.67 1282.28,-392.23"/>
</g>
<!-- Node34 -->
<g id="node19" class="node">
<title>Node34</title>
<g id="a_node19"><a xlink:href="../../dc/d53/class_ex_fat_formatter.html#afe28856bff293f522f6d98d2167a840b" target="_top" xlink:title=" ">
<polygon fill="white" stroke="black" points="380,-212.5 380,-233.5 548,-233.5 548,-212.5 380,-212.5"/>
<text text-anchor="middle" x="464" y="-219.9" font-family="Helvetica,sans-Serif" font-size="12.00">ExFatFormatter::syncUpcase</text>
</a>
</g>
</g>
<!-- Node33&#45;&gt;Node34 -->
<g id="edge27" class="edge">
<title>Node33&#45;&gt;Node34</title>
<path fill="none" stroke="midnightblue" d="M343.15,-208.31C351.92,-209.39 360.88,-210.49 369.74,-211.57"/>
<polygon fill="midnightblue" stroke="midnightblue" points="369.35,-215.05 379.7,-212.79 370.2,-208.1 369.35,-215.05"/>
</g>
<!-- Node35 -->
<g id="node20" class="node">
<title>Node35</title>
<g id="a_node20"><a xlink:href="../../de/d22/upcase_8cpp.html#a21b6d308ac42097fe276a6cb2f392818" target="_top" xlink:title=" ">
<polygon fill="white" stroke="black" points="430.5,-252.5 430.5,-273.5 497.5,-273.5 497.5,-252.5 430.5,-252.5"/>
<text text-anchor="middle" x="464" y="-259.9" font-family="Helvetica,sans-Serif" font-size="12.00">toUpcase</text>
</a>
</g>
</g>
<!-- Node33&#45;&gt;Node35 -->
<g id="edge29" class="edge">
<title>Node33&#45;&gt;Node35</title>
<path fill="none" stroke="midnightblue" d="M284.43,-208.6C308.5,-218.37 345.8,-232.87 379,-243 392.37,-247.08 407.14,-250.84 420.52,-253.97"/>
<polygon fill="midnightblue" stroke="midnightblue" points="419.91,-257.42 430.44,-256.24 421.47,-250.6 419.91,-257.42"/>
</g>
<!-- Node40 -->
<g id="node22" class="node">
<title>Node40</title>
<g id="a_node22"><a xlink:href="../../dc/d53/class_ex_fat_formatter.html#aaf9dfc42fecb86a51dc6871ca5e4097d" target="_top" xlink:title=" ">
<polygon fill="white" stroke="black" points="379,-159 379,-193 549,-193 549,-159 379,-159"/>
<text text-anchor="start" x="387" y="-179.4" font-family="Helvetica,sans-Serif" font-size="12.00">ExFatFormatter::writeUpcase</text>
<text text-anchor="middle" x="464" y="-166.4" font-family="Helvetica,sans-Serif" font-size="12.00">Unicode</text>
</a>
</g>
</g>
<!-- Node33&#45;&gt;Node40 -->
<g id="edge31" class="edge">
<title>Node33&#45;&gt;Node40</title>
<path fill="none" stroke="midnightblue" d="M343.15,-188.92C351.59,-188.01 360.2,-187.09 368.74,-186.17"/>
<polygon fill="midnightblue" stroke="midnightblue" points="369.14,-189.64 378.71,-185.09 368.39,-182.68 369.14,-189.64"/>
</g>
<!-- Node34&#45;&gt;Node30 -->
<g id="edge28" class="edge">
<title>Node34&#45;&gt;Node30</title>
<path fill="none" stroke="midnightblue" d="M548.01,-223.96C622.38,-224.81 731.28,-226.06 808.11,-226.95"/>
<polygon fill="midnightblue" stroke="midnightblue" points="808.22,-230.45 818.26,-227.07 808.3,-223.45 808.22,-230.45"/>
</g>
<!-- Node36 -->
<g id="node21" class="node">
<title>Node36</title>
<g id="a_node21"><a xlink:href="../../de/d22/upcase_8cpp.html#ad530d8c884214dce68a3e55efae606fd" target="_top" xlink:title=" ">
<polygon fill="white" stroke="red" points="638,-252.5 638,-273.5 725,-273.5 725,-252.5 638,-252.5"/>
<text text-anchor="middle" x="681.5" y="-259.9" font-family="Helvetica,sans-Serif" font-size="12.00">searchPair16</text>
</a>
</g>
</g>
<!-- Node35&#45;&gt;Node36 -->
<g id="edge30" class="edge">
<title>Node35&#45;&gt;Node36</title>
<path fill="none" stroke="midnightblue" d="M497.73,-263C532.25,-263 587.16,-263 627.79,-263"/>
<polygon fill="midnightblue" stroke="midnightblue" points="627.79,-266.5 637.79,-263 627.79,-259.5 627.79,-266.5"/>
</g>
<!-- Node41 -->
<g id="node23" class="node">
<title>Node41</title>
<g id="a_node23"><a xlink:href="../../dc/d53/class_ex_fat_formatter.html#a759ad08a74b8256217d2a5cc87b4dd8b" target="_top" xlink:title=" ">
<polygon fill="white" stroke="black" points="585,-165.5 585,-186.5 778,-186.5 778,-165.5 585,-165.5"/>
<text text-anchor="middle" x="681.5" y="-172.9" font-family="Helvetica,sans-Serif" font-size="12.00">ExFatFormatter::writeUpcaseByte</text>
</a>
</g>
</g>
<!-- Node40&#45;&gt;Node41 -->
<g id="edge32" class="edge">
<title>Node40&#45;&gt;Node41</title>
<path fill="none" stroke="midnightblue" d="M549.24,-176C557.64,-176 566.24,-176 574.83,-176"/>
<polygon fill="midnightblue" stroke="midnightblue" points="574.88,-179.5 584.88,-176 574.88,-172.5 574.88,-179.5"/>
</g>
<!-- Node41&#45;&gt;Node2 -->
<g id="edge33" class="edge">
<title>Node41&#45;&gt;Node2</title>
<path fill="none" stroke="midnightblue" d="M778.31,-165.84C799.29,-163.62 820.91,-161.33 839.98,-159.31"/>
<polygon fill="midnightblue" stroke="midnightblue" points="840.42,-162.78 850,-158.25 839.68,-155.82 840.42,-162.78"/>
</g>
<!-- Node41&#45;&gt;Node30 -->
<g id="edge34" class="edge">
<title>Node41&#45;&gt;Node30</title>
<path fill="none" stroke="midnightblue" d="M726.41,-186.52C760.83,-194.77 808.87,-206.28 845.61,-215.09"/>
<polygon fill="midnightblue" stroke="midnightblue" points="845.11,-218.57 855.65,-217.49 846.74,-211.76 845.11,-218.57"/>
</g>
</g>
</svg>
