<?xml version="1.0" encoding="UTF-8" standalone="no"?>
<!DOCTYPE svg PUBLIC "-//W3C//DTD SVG 1.1//EN"
 "http://www.w3.org/Graphics/SVG/1.1/DTD/svg11.dtd">
<!-- Generated by graphviz version 2.47.3 (20210619.1520)
 -->
<!-- Title: svcDataDictionary.cpp Pages: 1 -->
<svg width="436pt" height="378pt"
 viewBox="0.00 0.00 436.00 378.00" xmlns="http://www.w3.org/2000/svg" xmlns:xlink="http://www.w3.org/1999/xlink">
<g id="graph0" class="graph" transform="scale(1 1) rotate(0) translate(4 374)">
<title>svcDataDictionary.cpp</title>
<!-- Node1 -->
<g id="node1" class="node">
<title>Node1</title>
<g id="a_node1"><a xlink:title="Data Dictionary service provides an interface to a data dictionary service the service shall provide ...">
<polygon fill="#bfbfbf" stroke="black" points="140,-348.5 140,-369.5 274,-369.5 274,-348.5 140,-348.5"/>
<text text-anchor="middle" x="207" y="-355.9" font-family="Helvetica,sans-Serif" font-size="12.00">svcDataDictionary.cpp</text>
</a>
</g>
</g>
<!-- Node2 -->
<g id="node2" class="node">
<title>Node2</title>
<g id="a_node2"><a xlink:href="../../dd/df4/svc_data_dictionary_8h.html" target="_top" xlink:title="Data Dictionary service provides an interface to a data dictionary service the service shall provide ...">
<polygon fill="none" stroke="black" points="146.5,-290.5 146.5,-311.5 267.5,-311.5 267.5,-290.5 146.5,-290.5"/>
<text text-anchor="middle" x="207" y="-297.9" font-family="Helvetica,sans-Serif" font-size="12.00">svcDataDictionary.h</text>
</a>
</g>
</g>
<!-- Node1&#45;&gt;Node2 -->
<g id="edge1" class="edge">
<title>Node1&#45;&gt;Node2</title>
<path fill="none" stroke="midnightblue" d="M207,-348.25C207,-340.94 207,-330.69 207,-321.7"/>
<polygon fill="midnightblue" stroke="midnightblue" points="210.5,-321.64 207,-311.64 203.5,-321.64 210.5,-321.64"/>
</g>
<!-- Node3 -->
<g id="node3" class="node">
<title>Node3</title>
<g id="a_node3"><a xlink:title=" ">
<polygon fill="none" stroke="#bfbfbf" points="77,-0.5 77,-21.5 143,-21.5 143,-0.5 77,-0.5"/>
<text text-anchor="middle" x="110" y="-7.9" font-family="Helvetica,sans-Serif" font-size="12.00">Arduino.h</text>
</a>
</g>
</g>
<!-- Node2&#45;&gt;Node3 -->
<g id="edge2" class="edge">
<title>Node2&#45;&gt;Node3</title>
<path fill="none" stroke="midnightblue" d="M146.29,-292.53C85.21,-281.23 0,-253.39 0,-186 0,-186 0,-186 0,-126 0,-79.57 47.84,-44.79 80.43,-26.5"/>
<polygon fill="midnightblue" stroke="midnightblue" points="82.43,-29.4 89.57,-21.57 79.1,-23.24 82.43,-29.4"/>
</g>
<!-- Node4 -->
<g id="node4" class="node">
<title>Node4</title>
<g id="a_node4"><a xlink:title=" ">
<polygon fill="none" stroke="#bfbfbf" points="360,-174.5 360,-195.5 414,-195.5 414,-174.5 360,-174.5"/>
<text text-anchor="middle" x="387" y="-181.9" font-family="Helvetica,sans-Serif" font-size="12.00">string.h</text>
</a>
</g>
</g>
<!-- Node2&#45;&gt;Node4 -->
<g id="edge3" class="edge">
<title>Node2&#45;&gt;Node4</title>
<path fill="none" stroke="midnightblue" d="M230.69,-290.49C250.64,-282.06 279.57,-268.81 303,-254 327.31,-238.63 352.62,-217.29 369.02,-202.64"/>
<polygon fill="midnightblue" stroke="midnightblue" points="371.67,-204.96 376.73,-195.65 366.97,-199.77 371.67,-204.96"/>
</g>
<!-- Node5 -->
<g id="node5" class="node">
<title>Node5</title>
<g id="a_node5"><a xlink:title=" ">
<polygon fill="none" stroke="#bfbfbf" points="350,-232.5 350,-253.5 428,-253.5 428,-232.5 350,-232.5"/>
<text text-anchor="middle" x="389" y="-239.9" font-family="Helvetica,sans-Serif" font-size="12.00">arm_math.h</text>
</a>
</g>
</g>
<!-- Node2&#45;&gt;Node5 -->
<g id="edge4" class="edge">
<title>Node2&#45;&gt;Node5</title>
<path fill="none" stroke="midnightblue" d="M238.29,-290.37C268.68,-281.02 314.99,-266.77 348.25,-256.54"/>
<polygon fill="midnightblue" stroke="midnightblue" points="349.59,-259.79 358.12,-253.5 347.53,-253.1 349.59,-259.79"/>
</g>
<!-- Node6 -->
<g id="node6" class="node">
<title>Node6</title>
<g id="a_node6"><a xlink:href="../../db/db5/svc_serial_command_interface_8h.html" target="_top" xlink:title=" ">
<polygon fill="none" stroke="black" points="120.5,-232.5 120.5,-253.5 293.5,-253.5 293.5,-232.5 120.5,-232.5"/>
<text text-anchor="middle" x="207" y="-239.9" font-family="Helvetica,sans-Serif" font-size="12.00">svcSerialCommandInterface.h</text>
</a>
</g>
</g>
<!-- Node2&#45;&gt;Node6 -->
<g id="edge5" class="edge">
<title>Node2&#45;&gt;Node6</title>
<path fill="none" stroke="midnightblue" d="M207,-290.25C207,-282.94 207,-272.69 207,-263.7"/>
<polygon fill="midnightblue" stroke="midnightblue" points="210.5,-263.64 207,-253.64 203.5,-263.64 210.5,-263.64"/>
</g>
<!-- Node6&#45;&gt;Node4 -->
<g id="edge8" class="edge">
<title>Node6&#45;&gt;Node4</title>
<path fill="none" stroke="midnightblue" d="M237.94,-232.37C269.1,-222.68 317.15,-207.73 350.23,-197.44"/>
<polygon fill="midnightblue" stroke="midnightblue" points="351.47,-200.72 359.98,-194.41 349.4,-194.03 351.47,-200.72"/>
</g>
<!-- Node7 -->
<g id="node7" class="node">
<title>Node7</title>
<g id="a_node7"><a xlink:href="../../d8/d2c/globaldefs_8h.html" target="_top" xlink:title=" ">
<polygon fill="none" stroke="black" points="106,-58.5 106,-79.5 186,-79.5 186,-58.5 106,-58.5"/>
<text text-anchor="middle" x="146" y="-65.9" font-family="Helvetica,sans-Serif" font-size="12.00">globaldefs.h</text>
</a>
</g>
</g>
<!-- Node6&#45;&gt;Node7 -->
<g id="edge6" class="edge">
<title>Node6&#45;&gt;Node7</title>
<path fill="none" stroke="midnightblue" d="M196.57,-232.46C187.79,-223.82 175.64,-210.28 169,-196 152.73,-161.03 147.95,-115.61 146.56,-89.95"/>
<polygon fill="midnightblue" stroke="midnightblue" points="150.04,-89.51 146.13,-79.66 143.05,-89.8 150.04,-89.51"/>
</g>
<!-- Node8 -->
<g id="node8" class="node">
<title>Node8</title>
<g id="a_node8"><a xlink:href="../../df/d72/_app_manager_8h.html" target="_top" xlink:title=" ">
<polygon fill="none" stroke="red" points="28,-174.5 28,-195.5 122,-195.5 122,-174.5 28,-174.5"/>
<text text-anchor="middle" x="75" y="-181.9" font-family="Helvetica,sans-Serif" font-size="12.00">AppManager.h</text>
</a>
</g>
</g>
<!-- Node6&#45;&gt;Node8 -->
<g id="edge9" class="edge">
<title>Node6&#45;&gt;Node8</title>
<path fill="none" stroke="midnightblue" d="M184.31,-232.37C162.93,-223.3 130.69,-209.63 106.76,-199.48"/>
<polygon fill="midnightblue" stroke="midnightblue" points="107.97,-196.18 97.4,-195.5 105.23,-202.63 107.97,-196.18"/>
</g>
<!-- Node31 -->
<g id="node9" class="node">
<title>Node31</title>
<g id="a_node9"><a xlink:href="../../d9/d3e/_app_base_class_8h.html" target="_top" xlink:title=" ">
<polygon fill="none" stroke="red" points="178.5,-116.5 178.5,-137.5 283.5,-137.5 283.5,-116.5 178.5,-116.5"/>
<text text-anchor="middle" x="231" y="-123.9" font-family="Helvetica,sans-Serif" font-size="12.00">AppBaseClass.h</text>
</a>
</g>
</g>
<!-- Node6&#45;&gt;Node31 -->
<g id="edge16" class="edge">
<title>Node6&#45;&gt;Node31</title>
<path fill="none" stroke="midnightblue" d="M258.46,-232.45C279.04,-225.84 300.73,-214.7 313,-196 328.22,-172.8 297.43,-153.44 269.34,-141.38"/>
<polygon fill="midnightblue" stroke="midnightblue" points="270.57,-138.1 259.99,-137.58 267.93,-144.59 270.57,-138.1"/>
</g>
<!-- Node29 -->
<g id="node10" class="node">
<title>Node29</title>
<g id="a_node10"><a xlink:title=" ">
<polygon fill="none" stroke="#bfbfbf" points="178,-174.5 178,-195.5 236,-195.5 236,-174.5 178,-174.5"/>
<text text-anchor="middle" x="207" y="-181.9" font-family="Helvetica,sans-Serif" font-size="12.00">SdFat.h</text>
</a>
</g>
</g>
<!-- Node6&#45;&gt;Node29 -->
<g id="edge17" class="edge">
<title>Node6&#45;&gt;Node29</title>
<path fill="none" stroke="midnightblue" d="M207,-232.25C207,-224.94 207,-214.69 207,-205.7"/>
<polygon fill="midnightblue" stroke="midnightblue" points="210.5,-205.64 207,-195.64 203.5,-205.64 210.5,-205.64"/>
</g>
<!-- Node33 -->
<g id="node11" class="node">
<title>Node33</title>
<g id="a_node11"><a xlink:title=" ">
<polygon fill="none" stroke="#bfbfbf" points="254,-174.5 254,-195.5 304,-195.5 304,-174.5 254,-174.5"/>
<text text-anchor="middle" x="279" y="-181.9" font-family="Helvetica,sans-Serif" font-size="12.00">Print.h</text>
</a>
</g>
</g>
<!-- Node6&#45;&gt;Node33 -->
<g id="edge18" class="edge">
<title>Node6&#45;&gt;Node33</title>
<path fill="none" stroke="midnightblue" d="M219.54,-232.25C230.28,-223.89 245.95,-211.71 258.5,-201.94"/>
<polygon fill="midnightblue" stroke="midnightblue" points="260.86,-204.54 266.6,-195.64 256.56,-199.02 260.86,-204.54"/>
</g>
<!-- Node7&#45;&gt;Node3 -->
<g id="edge7" class="edge">
<title>Node7&#45;&gt;Node3</title>
<path fill="none" stroke="midnightblue" d="M139.73,-58.25C134.77,-50.54 127.72,-39.56 121.72,-30.23"/>
<polygon fill="midnightblue" stroke="midnightblue" points="124.55,-28.16 116.2,-21.64 118.66,-31.95 124.55,-28.16"/>
</g>
<!-- Node8&#45;&gt;Node2 -->
<g id="edge15" class="edge">
<title>Node8&#45;&gt;Node2</title>
<path fill="none" stroke="midnightblue" d="M77.89,-195.54C82.67,-209.89 93.47,-237.16 111,-254 126.32,-268.72 147.24,-279.5 165.64,-286.9"/>
<polygon fill="midnightblue" stroke="midnightblue" points="164.4,-290.17 174.99,-290.47 166.9,-283.63 164.4,-290.17"/>
</g>
<!-- Node8&#45;&gt;Node3 -->
<g id="edge10" class="edge">
<title>Node8&#45;&gt;Node3</title>
<path fill="none" stroke="midnightblue" d="M76.33,-174.45C79.33,-153.32 87.18,-101.08 97,-58 99,-49.22 101.64,-39.63 104.02,-31.48"/>
<polygon fill="midnightblue" stroke="midnightblue" points="107.4,-32.38 106.92,-21.8 100.7,-30.37 107.4,-32.38"/>
</g>
<!-- Node8&#45;&gt;Node7 -->
<g id="edge11" class="edge">
<title>Node8&#45;&gt;Node7</title>
<path fill="none" stroke="midnightblue" d="M81.05,-174.28C92.9,-155.27 119.3,-112.88 134.54,-88.4"/>
<polygon fill="midnightblue" stroke="midnightblue" points="137.65,-90.03 139.96,-79.69 131.7,-86.33 137.65,-90.03"/>
</g>
<!-- Node8&#45;&gt;Node31 -->
<g id="edge12" class="edge">
<title>Node8&#45;&gt;Node31</title>
<path fill="none" stroke="midnightblue" d="M101.82,-174.37C127.53,-165.14 166.54,-151.14 194.96,-140.94"/>
<polygon fill="midnightblue" stroke="midnightblue" points="196.3,-144.17 204.53,-137.5 193.94,-137.59 196.3,-144.17"/>
</g>
<!-- Node31&#45;&gt;Node3 -->
<g id="edge14" class="edge">
<title>Node31&#45;&gt;Node3</title>
<path fill="none" stroke="midnightblue" d="M227.84,-116.09C222.85,-101.76 211.92,-75.08 195,-58 181.28,-44.15 162.5,-33.4 146.08,-25.78"/>
<polygon fill="midnightblue" stroke="midnightblue" points="147.31,-22.5 136.75,-21.66 144.48,-28.9 147.31,-22.5"/>
</g>
<!-- Node31&#45;&gt;Node7 -->
<g id="edge13" class="edge">
<title>Node31&#45;&gt;Node7</title>
<path fill="none" stroke="midnightblue" d="M216.19,-116.25C203.27,-107.73 184.31,-95.24 169.34,-85.38"/>
<polygon fill="midnightblue" stroke="midnightblue" points="170.91,-82.22 160.64,-79.64 167.06,-88.07 170.91,-82.22"/>
</g>
</g>
</svg>
