<?xml version="1.0" encoding="UTF-8" standalone="no"?>
<!DOCTYPE svg PUBLIC "-//W3C//DTD SVG 1.1//EN"
 "http://www.w3.org/Graphics/SVG/1.1/DTD/svg11.dtd">
<!-- Generated by graphviz version 2.47.3 (20210619.1520)
 -->
<!-- Title: erisAudioSynthWaveformModulated Pages: 1 -->
<!--zoomable 1315 -->
<svg id="main" version="1.1" xmlns="http://www.w3.org/2000/svg" xmlns:xlink="http://www.w3.org/1999/xlink" xml:space="preserve" onload="init(evt)">
<style type="text/css"><![CDATA[
.edge:hover path { stroke: red; }
.edge:hover polygon { stroke: red; fill: red; }
]]></style>
<script type="text/javascript"><![CDATA[
var edges = document.getElementsByTagName('g');
if (edges && edges.length) {
  for (var i=0;i<edges.length;i++) {
    if (edges[i].id.substr(0,4)=='edge') {
      edges[i].setAttribute('class','edge');
    }
  }
}
]]></script>
        <defs>
                <circle id="rim" cx="0" cy="0" r="7"/>
                <circle id="rim2" cx="0" cy="0" r="3.5"/>
                <g id="zoomPlus">
                        <use xlink:href="#rim" fill="#404040">
                                <set attributeName="fill" to="#808080" begin="zoomplus.mouseover" end="zoomplus.mouseout"/>
                        </use>
                        <path d="M-4,0h8M0,-4v8" fill="none" stroke="white" stroke-width="1.5" pointer-events="none"/>
                </g>
                <g id="zoomMin">
                        <use xlink:href="#rim" fill="#404040">
                                <set attributeName="fill" to="#808080" begin="zoomminus.mouseover" end="zoomminus.mouseout"/>
                        </use>
                        <path d="M-4,0h8" fill="none" stroke="white" stroke-width="1.5" pointer-events="none"/>
                </g>
                <g id="dirArrow">
                        <path fill="none" stroke="white" stroke-width="1.5" d="M0,-3.0v7 M-2.5,-0.5L0,-3.0L2.5,-0.5"/>
                </g>
               <g id="resetDef">
                       <use xlink:href="#rim2" fill="#404040">
                               <set attributeName="fill" to="#808080" begin="reset.mouseover" end="reset.mouseout"/>
                       </use>
               </g>
        </defs>

<script type="text/javascript">
var viewWidth = 1457;
var viewHeight = 1315;
var sectionId = 'dynsection-1';
</script>
<script xlink:href="../../svgpan.js"/>
<svg id="graph" class="graph">
<g id="viewport">
<title>erisAudioSynthWaveformModulated</title>
<!-- Node1 -->
<g id="node1" class="node">
<title>Node1</title>
<g id="a_node1"><a xlink:title=" ">
<polygon fill="#bfbfbf" stroke="black" points="1036.1,-0.5 1036.1,-96.5 1326.1,-96.5 1326.1,-0.5 1036.1,-0.5"/>
<text text-anchor="middle" x="1181.1" y="-79.7" font-family="Helvetica,sans-Serif" font-size="16.00">erisAudioSynthWaveformModulated</text>
<polyline fill="none" stroke="black" points="1036.1,-70.5 1326.1,-70.5 "/>
<text text-anchor="middle" x="1181.1" y="-53.7" font-family="Helvetica,sans-Serif" font-size="16.00"> </text>
<polyline fill="none" stroke="black" points="1036.1,-44.5 1326.1,-44.5 "/>
<text text-anchor="start" x="1044.1" y="-27.7" font-family="Helvetica,sans-Serif" font-size="16.00">+ erisAudioSynthWaveformModulated()</text>
<text text-anchor="start" x="1044.1" y="-9.7" font-family="Helvetica,sans-Serif" font-size="16.00">+ void update()</text>
</a>
</g>
</g>
<!-- Node2 -->
<g id="node2" class="node">
<title>Node2</title>
<g id="a_node2"><a xlink:href="../../d9/d43/class_audio_synth_waveform_modulated.html" target="_top" xlink:title=" ">
<polygon fill="none" stroke="black" points="1026.1,-134.5 1026.1,-410.5 1336.1,-410.5 1336.1,-134.5 1026.1,-134.5"/>
<text text-anchor="middle" x="1181.1" y="-393.7" font-family="Helvetica,sans-Serif" font-size="16.00">AudioSynthWaveformModulated</text>
<polyline fill="none" stroke="black" points="1026.1,-384.5 1336.1,-384.5 "/>
<text text-anchor="middle" x="1181.1" y="-367.7" font-family="Helvetica,sans-Serif" font-size="16.00"> </text>
<polyline fill="none" stroke="black" points="1026.1,-358.5 1336.1,-358.5 "/>
<text text-anchor="start" x="1034.1" y="-341.7" font-family="Helvetica,sans-Serif" font-size="16.00">+ AudioSynthWaveformModulated(void)</text>
<text text-anchor="start" x="1034.1" y="-323.7" font-family="Helvetica,sans-Serif" font-size="16.00">+ void amplitude(float n)</text>
<text text-anchor="start" x="1034.1" y="-305.7" font-family="Helvetica,sans-Serif" font-size="16.00">+ void arbitraryWaveform(const int16</text>
<text text-anchor="start" x="1034.1" y="-287.7" font-family="Helvetica,sans-Serif" font-size="16.00">_t *data, float maxFreq)</text>
<text text-anchor="start" x="1034.1" y="-269.7" font-family="Helvetica,sans-Serif" font-size="16.00">+ void begin(float t_amp, float t_freq,</text>
<text text-anchor="start" x="1034.1" y="-251.7" font-family="Helvetica,sans-Serif" font-size="16.00"> short t_type)</text>
<text text-anchor="start" x="1034.1" y="-233.7" font-family="Helvetica,sans-Serif" font-size="16.00">+ void begin(short t_type)</text>
<text text-anchor="start" x="1034.1" y="-215.7" font-family="Helvetica,sans-Serif" font-size="16.00">+ void frequency(float freq)</text>
<text text-anchor="start" x="1034.1" y="-197.7" font-family="Helvetica,sans-Serif" font-size="16.00">+ void frequencyModulation(float octaves)</text>
<text text-anchor="start" x="1034.1" y="-179.7" font-family="Helvetica,sans-Serif" font-size="16.00">+ void offset(float n)</text>
<text text-anchor="start" x="1034.1" y="-161.7" font-family="Helvetica,sans-Serif" font-size="16.00">+ void phaseModulation(float degrees)</text>
<text text-anchor="start" x="1034.1" y="-143.7" font-family="Helvetica,sans-Serif" font-size="16.00">+ virtual void update(void)</text>
</a>
</g>
</g>
<!-- Node2&#45;&gt;Node1 -->
<g id="edge1" class="edge">
<title>Node2&#45;&gt;Node1</title>
<path fill="none" stroke="midnightblue" d="M1181.1,-124.18C1181.1,-114.52 1181.1,-105.27 1181.1,-96.78"/>
<polygon fill="none" stroke="midnightblue" points="1177.6,-124.38 1181.1,-134.38 1184.6,-124.38 1177.6,-124.38"/>
</g>
<!-- Node3 -->
<g id="node3" class="node">
<title>Node3</title>
<g id="a_node3"><a xlink:href="../../d5/d96/class_audio_stream.html" target="_top" xlink:title=" ">
<polygon fill="none" stroke="black" points="143.6,-483.5 143.6,-921.5 474.6,-921.5 474.6,-483.5 143.6,-483.5"/>
<text text-anchor="middle" x="309.1" y="-904.7" font-family="Helvetica,sans-Serif" font-size="16.00">AudioStream</text>
<polyline fill="none" stroke="black" points="143.6,-895.5 474.6,-895.5 "/>
<text text-anchor="middle" x="309.1" y="-878.7" font-family="Helvetica,sans-Serif" font-size="16.00"> </text>
<polyline fill="none" stroke="black" points="143.6,-869.5 474.6,-869.5 "/>
<text text-anchor="start" x="151.6" y="-852.7" font-family="Helvetica,sans-Serif" font-size="16.00">+ AudioStream()</text>
<text text-anchor="start" x="151.6" y="-834.7" font-family="Helvetica,sans-Serif" font-size="16.00">+ AudioStream(unsigned char ninput,</text>
<text text-anchor="start" x="151.6" y="-816.7" font-family="Helvetica,sans-Serif" font-size="16.00"> audio_block_t **iqueue)</text>
<text text-anchor="start" x="151.6" y="-798.7" font-family="Helvetica,sans-Serif" font-size="16.00">+ bool isActive(void)</text>
<text text-anchor="start" x="151.6" y="-780.7" font-family="Helvetica,sans-Serif" font-size="16.00">+ int processorUsage(void)</text>
<text text-anchor="start" x="151.6" y="-762.7" font-family="Helvetica,sans-Serif" font-size="16.00">+ int processorUsageMax(void)</text>
<text text-anchor="start" x="151.6" y="-744.7" font-family="Helvetica,sans-Serif" font-size="16.00">+ void processorUsageMaxReset(void)</text>
<text text-anchor="start" x="151.6" y="-726.7" font-family="Helvetica,sans-Serif" font-size="16.00">+ static void initialize_memory(audio</text>
<text text-anchor="start" x="151.6" y="-708.7" font-family="Helvetica,sans-Serif" font-size="16.00">_block_t *data, unsigned int num)</text>
<text text-anchor="start" x="151.6" y="-690.7" font-family="Helvetica,sans-Serif" font-size="16.00"># audio_block_t * receiveReadOnly(unsigned</text>
<text text-anchor="start" x="151.6" y="-672.7" font-family="Helvetica,sans-Serif" font-size="16.00"> int index=0)</text>
<text text-anchor="start" x="151.6" y="-654.7" font-family="Helvetica,sans-Serif" font-size="16.00"># audio_block_t * receiveWritable(unsigned</text>
<text text-anchor="start" x="151.6" y="-636.7" font-family="Helvetica,sans-Serif" font-size="16.00"> int index=0)</text>
<text text-anchor="start" x="151.6" y="-618.7" font-family="Helvetica,sans-Serif" font-size="16.00"># void transmit(audio_block_t *block,</text>
<text text-anchor="start" x="151.6" y="-600.7" font-family="Helvetica,sans-Serif" font-size="16.00"> unsigned char index=0)</text>
<text text-anchor="start" x="151.6" y="-582.7" font-family="Helvetica,sans-Serif" font-size="16.00"># static audio_block_t * allocate(void)</text>
<text text-anchor="start" x="151.6" y="-564.7" font-family="Helvetica,sans-Serif" font-size="16.00"># static void release(audio_block_t *block)</text>
<text text-anchor="start" x="151.6" y="-546.7" font-family="Helvetica,sans-Serif" font-size="16.00"># static void update_all(void)</text>
<text text-anchor="start" x="151.6" y="-528.7" font-family="Helvetica,sans-Serif" font-size="16.00"># static bool update_setup(void)</text>
<text text-anchor="start" x="151.6" y="-510.7" font-family="Helvetica,sans-Serif" font-size="16.00"># static void update_stop(void)</text>
<text text-anchor="start" x="151.6" y="-492.7" font-family="Helvetica,sans-Serif" font-size="16.00">&#45; virtual void update(void)=0</text>
</a>
</g>
</g>
<!-- Node3&#45;&gt;Node2 -->
<g id="edge2" class="edge">
<title>Node3&#45;&gt;Node2</title>
<path fill="none" stroke="midnightblue" d="M483.33,-557.62C520.53,-530.7 560.56,-504.35 600.1,-483 737.14,-409.01 905.71,-351.54 1025.91,-315.66"/>
<polygon fill="none" stroke="midnightblue" points="480.96,-555.02 474.95,-563.74 485.09,-560.68 480.96,-555.02"/>
</g>
<!-- Node3&#45;&gt;Node3 -->
<g id="edge13" class="edge">
<title>Node3&#45;&gt;Node3</title>
<path fill="none" stroke="#404040" d="M474.8,-736.68C485.88,-728.78 492.6,-717.38 492.6,-702.5 492.6,-692.27 489.42,-683.68 483.84,-676.75"/>
<polygon fill="none" stroke="#404040" points="483.57,-676.5 476.46,-675.33 474.8,-668.32 481.92,-669.49 483.57,-676.5"/>
<text text-anchor="middle" x="539.1" y="-707.7" font-family="Helvetica,sans-Serif" font-size="16.00"> &#45;first_update</text>
<text text-anchor="middle" x="539.1" y="-689.7" font-family="Helvetica,sans-Serif" font-size="16.00">&#45;next_update</text>
</g>
<!-- Node4 -->
<g id="node4" class="node">
<title>Node4</title>
<g id="a_node4"><a xlink:href="../../d2/d7c/class_audio_connection.html" target="_top" xlink:title=" ">
<polygon fill="none" stroke="black" points="139.1,-134.5 139.1,-410.5 477.1,-410.5 477.1,-134.5 139.1,-134.5"/>
<text text-anchor="middle" x="308.1" y="-393.7" font-family="Helvetica,sans-Serif" font-size="16.00">AudioConnection</text>
<polyline fill="none" stroke="black" points="139.1,-384.5 477.1,-384.5 "/>
<text text-anchor="middle" x="308.1" y="-367.7" font-family="Helvetica,sans-Serif" font-size="16.00"> </text>
<polyline fill="none" stroke="black" points="139.1,-358.5 477.1,-358.5 "/>
<text text-anchor="start" x="147.1" y="-341.7" font-family="Helvetica,sans-Serif" font-size="16.00">+ AudioConnection(AudioStream *source,</text>
<text text-anchor="start" x="147.1" y="-323.7" font-family="Helvetica,sans-Serif" font-size="16.00"> AudioStream *destination)</text>
<text text-anchor="start" x="147.1" y="-305.7" font-family="Helvetica,sans-Serif" font-size="16.00">+ AudioConnection(AudioStream *source,</text>
<text text-anchor="start" x="147.1" y="-287.7" font-family="Helvetica,sans-Serif" font-size="16.00"> unsigned char sourceOutput, AudioStream</text>
<text text-anchor="start" x="147.1" y="-269.7" font-family="Helvetica,sans-Serif" font-size="16.00"> *destination, unsigned char destinationInput)</text>
<text text-anchor="start" x="147.1" y="-251.7" font-family="Helvetica,sans-Serif" font-size="16.00">+ ~AudioConnection()</text>
<text text-anchor="start" x="147.1" y="-233.7" font-family="Helvetica,sans-Serif" font-size="16.00">+ void connect(void)</text>
<text text-anchor="start" x="147.1" y="-215.7" font-family="Helvetica,sans-Serif" font-size="16.00">+ bool disconnect(void)</text>
<text text-anchor="start" x="147.1" y="-197.7" font-family="Helvetica,sans-Serif" font-size="16.00">+ bool reconnect(void)</text>
<text text-anchor="start" x="147.1" y="-179.7" font-family="Helvetica,sans-Serif" font-size="16.00">+ bool rewire(AudioStream *psource,</text>
<text text-anchor="start" x="147.1" y="-161.7" font-family="Helvetica,sans-Serif" font-size="16.00"> unsigned char sourceOutput, AudioStream</text>
<text text-anchor="start" x="147.1" y="-143.7" font-family="Helvetica,sans-Serif" font-size="16.00"> *pdestination, unsigned char destinationInput)</text>
</a>
</g>
</g>
<!-- Node3&#45;&gt;Node4 -->
<g id="edge7" class="edge">
<title>Node3&#45;&gt;Node4</title>
<path fill="none" stroke="#404040" d="M268.74,-483.34C268.36,-464.97 269.02,-446.67 271.1,-429 271.34,-426.92 271.6,-424.82 271.88,-422.71"/>
<polygon fill="none" stroke="#404040" points="271.92,-422.43 268.83,-415.92 273.65,-410.55 276.75,-417.07 271.92,-422.43"/>
<text text-anchor="middle" x="294.1" y="-452.2" font-family="Helvetica,sans-Serif" font-size="16.00"> +pDst</text>
<text text-anchor="middle" x="294.1" y="-434.2" font-family="Helvetica,sans-Serif" font-size="16.00">+pSrc</text>
</g>
<!-- Node4&#45;&gt;Node3 -->
<g id="edge3" class="edge">
<title>Node4&#45;&gt;Node3</title>
<path fill="none" stroke="#404040" d="M320.2,-410.83C320.55,-416.97 320.85,-423.05 321.1,-429 321.67,-442.77 321.96,-456.93 322.02,-471.21"/>
<polygon fill="none" stroke="#404040" points="322.02,-471.24 326.02,-477.24 322.02,-483.24 318.02,-477.23 322.02,-471.24"/>
<text text-anchor="middle" x="379.6" y="-443.2" font-family="Helvetica,sans-Serif" font-size="16.00"> &#45;destination_list</text>
</g>
<!-- Node4&#45;&gt;Node4 -->
<g id="edge4" class="edge">
<title>Node4&#45;&gt;Node4</title>
<path fill="none" stroke="#404040" d="M477.24,-293.37C488.36,-288.52 495.1,-281.56 495.1,-272.5 495.1,-266.83 492.47,-261.99 487.78,-257.97"/>
<polygon fill="none" stroke="#404040" points="487.52,-257.82 480.32,-258.15 477.24,-251.63 484.45,-251.3 487.52,-257.82"/>
<text text-anchor="middle" x="536.1" y="-268.7" font-family="Helvetica,sans-Serif" font-size="16.00"> +next_dest</text>
</g>
<!-- Node5 -->
<g id="node5" class="node">
<title>Node5</title>
<g id="a_node5"><a xlink:title=" ">
<polygon fill="none" stroke="#bfbfbf" points="52.6,-1036 52.6,-1114 99.6,-1114 99.6,-1036 52.6,-1036"/>
<text text-anchor="middle" x="76.1" y="-1097.2" font-family="Helvetica,sans-Serif" font-size="16.00">char</text>
<polyline fill="none" stroke="#bfbfbf" points="52.6,-1088 99.6,-1088 "/>
<text text-anchor="middle" x="76.1" y="-1071.2" font-family="Helvetica,sans-Serif" font-size="16.00"> </text>
<polyline fill="none" stroke="#bfbfbf" points="52.6,-1062 99.6,-1062 "/>
<text text-anchor="middle" x="76.1" y="-1045.2" font-family="Helvetica,sans-Serif" font-size="16.00"> </text>
</a>
</g>
</g>
<!-- Node5&#45;&gt;Node3 -->
<g id="edge8" class="edge">
<title>Node5&#45;&gt;Node3</title>
<path fill="none" stroke="#404040" d="M77.29,-1035.77C79.78,-1007.38 86.66,-968.75 105.1,-940 112.3,-928.78 119.46,-931.21 129.1,-922 131.05,-920.14 132.99,-918.26 134.94,-916.35"/>
<polygon fill="none" stroke="#404040" points="134.94,-916.35 136.38,-909.29 143.46,-907.9 142.02,-914.97 134.94,-916.35"/>
<text text-anchor="middle" x="151.6" y="-981.2" font-family="Helvetica,sans-Serif" font-size="16.00"> #num_inputs</text>
<text text-anchor="middle" x="151.6" y="-963.2" font-family="Helvetica,sans-Serif" font-size="16.00">+category</text>
<text text-anchor="middle" x="151.6" y="-945.2" font-family="Helvetica,sans-Serif" font-size="16.00">+shortName</text>
</g>
<!-- Node5&#45;&gt;Node4 -->
<g id="edge5" class="edge">
<title>Node5&#45;&gt;Node4</title>
<path fill="none" stroke="#404040" d="M62.01,-1035.92C28.3,-938.2 -47.64,-672.91 44.1,-483 63.61,-442.62 95.1,-407.63 129.65,-378.44"/>
<polygon fill="none" stroke="#404040" points="129.72,-378.38 131.81,-371.48 138.98,-370.75 136.89,-377.65 129.72,-378.38"/>
<text text-anchor="middle" x="89.1" y="-707.7" font-family="Helvetica,sans-Serif" font-size="16.00"> +dest_index</text>
<text text-anchor="middle" x="89.1" y="-689.7" font-family="Helvetica,sans-Serif" font-size="16.00">+src_index</text>
</g>
<!-- Node6 -->
<g id="node6" class="node">
<title>Node6</title>
<g id="a_node6"><a xlink:title=" ">
<polygon fill="none" stroke="#bfbfbf" points="582.1,-1036 582.1,-1114 628.1,-1114 628.1,-1036 582.1,-1036"/>
<text text-anchor="middle" x="605.1" y="-1097.2" font-family="Helvetica,sans-Serif" font-size="16.00">bool</text>
<polyline fill="none" stroke="#bfbfbf" points="582.1,-1088 628.1,-1088 "/>
<text text-anchor="middle" x="605.1" y="-1071.2" font-family="Helvetica,sans-Serif" font-size="16.00"> </text>
<polyline fill="none" stroke="#bfbfbf" points="582.1,-1062 628.1,-1062 "/>
<text text-anchor="middle" x="605.1" y="-1045.2" font-family="Helvetica,sans-Serif" font-size="16.00"> </text>
</a>
</g>
</g>
<!-- Node6&#45;&gt;Node3 -->
<g id="edge11" class="edge">
<title>Node6&#45;&gt;Node3</title>
<path fill="none" stroke="#404040" d="M586.09,-1035.71C579.92,-1026.68 572.25,-1017.96 563.1,-1012 525.24,-987.38 498.41,-1022.15 463.1,-994 442.7,-977.74 451.54,-963.44 440.1,-940 438.91,-937.56 437.7,-935.11 436.48,-932.65"/>
<polygon fill="none" stroke="#404040" points="436.43,-932.54 430.17,-928.96 431.07,-921.8 437.33,-925.39 436.43,-932.54"/>
<text text-anchor="middle" x="529.6" y="-972.2" font-family="Helvetica,sans-Serif" font-size="16.00"> #active</text>
<text text-anchor="middle" x="529.6" y="-954.2" font-family="Helvetica,sans-Serif" font-size="16.00">&#45;update_scheduled</text>
</g>
<!-- Node6&#45;&gt;Node4 -->
<g id="edge6" class="edge">
<title>Node6&#45;&gt;Node4</title>
<path fill="none" stroke="#404040" d="M608.71,-1035.78C618.92,-920.69 644.14,-579.44 594.1,-483 569.84,-436.24 529.84,-397.33 487.33,-366.25"/>
<polygon fill="none" stroke="#404040" points="487.12,-366.1 479.91,-365.87 477.35,-359.13 484.56,-359.36 487.12,-366.1"/>
<text text-anchor="middle" x="676.1" y="-698.7" font-family="Helvetica,sans-Serif" font-size="16.00"> +isConnected</text>
</g>
<!-- Node7 -->
<g id="node7" class="node">
<title>Node7</title>
<g id="a_node7"><a xlink:title=" ">
<polygon fill="none" stroke="#bfbfbf" points="355.6,-1228.5 355.6,-1306.5 428.6,-1306.5 428.6,-1228.5 355.6,-1228.5"/>
<text text-anchor="middle" x="392.1" y="-1289.7" font-family="Helvetica,sans-Serif" font-size="16.00">uint16_t</text>
<polyline fill="none" stroke="#bfbfbf" points="355.6,-1280.5 428.6,-1280.5 "/>
<text text-anchor="middle" x="392.1" y="-1263.7" font-family="Helvetica,sans-Serif" font-size="16.00"> </text>
<polyline fill="none" stroke="#bfbfbf" points="355.6,-1254.5 428.6,-1254.5 "/>
<text text-anchor="middle" x="392.1" y="-1237.7" font-family="Helvetica,sans-Serif" font-size="16.00"> </text>
</a>
</g>
</g>
<!-- Node7&#45;&gt;Node3 -->
<g id="edge9" class="edge">
<title>Node7&#45;&gt;Node3</title>
<path fill="none" stroke="#404040" d="M355.58,-1250.52C315.38,-1230.68 252.9,-1192.64 226.1,-1138 195.21,-1075.02 196.92,-1001.67 211.92,-933.36"/>
<polygon fill="none" stroke="#404040" points="211.94,-933.25 209.4,-926.51 214.65,-921.56 217.19,-928.31 211.94,-933.25"/>
<text text-anchor="middle" x="316.6" y="-1125.2" font-family="Helvetica,sans-Serif" font-size="16.00"> +cpu_cycles</text>
<text text-anchor="middle" x="316.6" y="-1107.2" font-family="Helvetica,sans-Serif" font-size="16.00">+cpu_cycles_max</text>
<text text-anchor="middle" x="316.6" y="-1089.2" font-family="Helvetica,sans-Serif" font-size="16.00">+cpu_cycles_total</text>
<text text-anchor="middle" x="316.6" y="-1071.2" font-family="Helvetica,sans-Serif" font-size="16.00">+cpu_cycles_total_max</text>
<text text-anchor="middle" x="316.6" y="-1053.2" font-family="Helvetica,sans-Serif" font-size="16.00">+memory_used</text>
<text text-anchor="middle" x="316.6" y="-1035.2" font-family="Helvetica,sans-Serif" font-size="16.00">+memory_used_max</text>
<text text-anchor="middle" x="316.6" y="-1017.2" font-family="Helvetica,sans-Serif" font-size="16.00">&#45;memory_pool_first_mask</text>
</g>
<!-- Node10 -->
<g id="node10" class="node">
<title>Node10</title>
<g id="a_node10"><a xlink:href="../../de/dd6/structaudio__block__struct.html" target="_top" xlink:title=" ">
<polygon fill="none" stroke="black" points="696.1,-1036 696.1,-1114 844.1,-1114 844.1,-1036 696.1,-1036"/>
<text text-anchor="middle" x="770.1" y="-1097.2" font-family="Helvetica,sans-Serif" font-size="16.00">audio_block_struct</text>
<polyline fill="none" stroke="black" points="696.1,-1088 844.1,-1088 "/>
<text text-anchor="middle" x="770.1" y="-1071.2" font-family="Helvetica,sans-Serif" font-size="16.00"> </text>
<polyline fill="none" stroke="black" points="696.1,-1062 844.1,-1062 "/>
<text text-anchor="middle" x="770.1" y="-1045.2" font-family="Helvetica,sans-Serif" font-size="16.00"> </text>
</a>
</g>
</g>
<!-- Node7&#45;&gt;Node10 -->
<g id="edge15" class="edge">
<title>Node7&#45;&gt;Node10</title>
<path fill="none" stroke="#404040" d="M428.69,-1248.06C487.44,-1218.45 604.36,-1159.53 684.88,-1118.95"/>
<polygon fill="none" stroke="#404040" points="685.27,-1118.75 688.83,-1112.48 695.98,-1113.35 692.43,-1119.62 685.27,-1118.75"/>
<text text-anchor="middle" x="681.1" y="-1179.2" font-family="Helvetica,sans-Serif" font-size="16.00"> +memory_pool_index</text>
</g>
<!-- Node8 -->
<g id="node8" class="node">
<title>Node8</title>
<g id="a_node8"><a xlink:title=" ">
<polygon fill="none" stroke="#bfbfbf" points="1026.6,-1036 1026.6,-1114 1099.6,-1114 1099.6,-1036 1026.6,-1036"/>
<text text-anchor="middle" x="1063.1" y="-1097.2" font-family="Helvetica,sans-Serif" font-size="16.00">uint32_t</text>
<polyline fill="none" stroke="#bfbfbf" points="1026.6,-1088 1099.6,-1088 "/>
<text text-anchor="middle" x="1063.1" y="-1071.2" font-family="Helvetica,sans-Serif" font-size="16.00"> </text>
<polyline fill="none" stroke="#bfbfbf" points="1026.6,-1062 1099.6,-1062 "/>
<text text-anchor="middle" x="1063.1" y="-1045.2" font-family="Helvetica,sans-Serif" font-size="16.00"> </text>
</a>
</g>
</g>
<!-- Node8&#45;&gt;Node2 -->
<g id="edge19" class="edge">
<title>Node8&#45;&gt;Node2</title>
<path fill="none" stroke="#404040" d="M1062.89,-1035.86C1063.06,-941.22 1067.81,-688.41 1110.1,-483 1114.2,-463.1 1119.63,-442.47 1125.68,-422.28"/>
<polygon fill="none" stroke="#404040" points="1125.69,-422.25 1123.62,-415.34 1129.2,-410.77 1131.27,-417.68 1125.69,-422.25"/>
<text text-anchor="middle" x="1181.1" y="-725.7" font-family="Helvetica,sans-Serif" font-size="16.00"> &#45;modulation_factor</text>
<text text-anchor="middle" x="1181.1" y="-707.7" font-family="Helvetica,sans-Serif" font-size="16.00">&#45;phase_accumulator</text>
<text text-anchor="middle" x="1181.1" y="-689.7" font-family="Helvetica,sans-Serif" font-size="16.00">&#45;phase_increment</text>
<text text-anchor="middle" x="1181.1" y="-671.7" font-family="Helvetica,sans-Serif" font-size="16.00">&#45;phasedata</text>
</g>
<!-- Node8&#45;&gt;Node3 -->
<g id="edge10" class="edge">
<title>Node8&#45;&gt;Node3</title>
<path fill="none" stroke="#404040" d="M1026.36,-1060.15C985.68,-1044.66 918.31,-1018.51 861.1,-994 808.45,-971.45 799.16,-955.74 744.1,-940 682.08,-922.28 659.89,-946.18 600.1,-922 560.21,-905.87 520.96,-882.87 484.81,-857.78"/>
<polygon fill="none" stroke="#404040" points="484.51,-857.57 477.3,-857.38 474.71,-850.65 481.91,-850.84 484.51,-857.57"/>
<text text-anchor="middle" x="971.6" y="-963.2" font-family="Helvetica,sans-Serif" font-size="16.00"> &#45;memory_pool_available_mask</text>
</g>
<!-- Node9 -->
<g id="node9" class="node">
<title>Node9</title>
<g id="a_node9"><a xlink:title=" ">
<polygon fill="none" stroke="#bfbfbf" points="738.1,-1228.5 738.1,-1306.5 802.1,-1306.5 802.1,-1228.5 738.1,-1228.5"/>
<text text-anchor="middle" x="770.1" y="-1289.7" font-family="Helvetica,sans-Serif" font-size="16.00">uint8_t</text>
<polyline fill="none" stroke="#bfbfbf" points="738.1,-1280.5 802.1,-1280.5 "/>
<text text-anchor="middle" x="770.1" y="-1263.7" font-family="Helvetica,sans-Serif" font-size="16.00"> </text>
<polyline fill="none" stroke="#bfbfbf" points="738.1,-1254.5 802.1,-1254.5 "/>
<text text-anchor="middle" x="770.1" y="-1237.7" font-family="Helvetica,sans-Serif" font-size="16.00"> </text>
</a>
</g>
</g>
<!-- Node9&#45;&gt;Node2 -->
<g id="edge20" class="edge">
<title>Node9&#45;&gt;Node2</title>
<path fill="none" stroke="#404040" d="M802.15,-1264.58C872.73,-1259.73 1038.71,-1244.85 1081.1,-1210 1180.67,-1128.12 1091.33,-1026.3 1187.1,-940 1209.37,-919.93 1233.95,-945.86 1252.1,-922 1311.16,-844.36 1267.97,-579.26 1252.1,-483 1248.82,-463.12 1243.91,-442.6 1238.16,-422.52"/>
<polygon fill="none" stroke="#404040" points="1238.09,-422.27 1232.55,-417.65 1234.69,-410.76 1240.23,-415.38 1238.09,-422.27"/>
<text text-anchor="middle" x="1249.1" y="-972.2" font-family="Helvetica,sans-Serif" font-size="16.00"> &#45;modulation_type</text>
<text text-anchor="middle" x="1249.1" y="-954.2" font-family="Helvetica,sans-Serif" font-size="16.00">&#45;tone_type</text>
</g>
<!-- Node9&#45;&gt;Node3 -->
<g id="edge12" class="edge">
<title>Node9&#45;&gt;Node3</title>
<path fill="none" stroke="#404040" d="M738.07,-1265.52C686.92,-1262.68 585.02,-1251.78 511.1,-1210 472.78,-1188.34 464.88,-1176.25 443.1,-1138 414.28,-1087.39 423.92,-1067.76 407.1,-1012 399.39,-986.46 391.18,-959.78 382.9,-933.26"/>
<polygon fill="none" stroke="#404040" points="382.81,-932.96 377.2,-928.43 379.23,-921.51 384.83,-926.04 382.81,-932.96"/>
<text text-anchor="middle" x="508.1" y="-1098.2" font-family="Helvetica,sans-Serif" font-size="16.00"> #numConnections</text>
<text text-anchor="middle" x="508.1" y="-1080.2" font-family="Helvetica,sans-Serif" font-size="16.00">+instance</text>
<text text-anchor="middle" x="508.1" y="-1062.2" font-family="Helvetica,sans-Serif" font-size="16.00">+unum_inputs</text>
<text text-anchor="middle" x="508.1" y="-1044.2" font-family="Helvetica,sans-Serif" font-size="16.00">+unum_outputs</text>
</g>
<!-- Node9&#45;&gt;Node10 -->
<g id="edge16" class="edge">
<title>Node9&#45;&gt;Node10</title>
<path fill="none" stroke="#404040" d="M770.1,-1228.41C770.1,-1199.08 770.1,-1158.27 770.1,-1126.26"/>
<polygon fill="none" stroke="#404040" points="770.1,-1126.03 766.1,-1120.03 770.1,-1114.03 774.1,-1120.03 770.1,-1126.03"/>
<text text-anchor="middle" x="810.6" y="-1197.2" font-family="Helvetica,sans-Serif" font-size="16.00"> +padding</text>
<text text-anchor="middle" x="810.6" y="-1179.2" font-family="Helvetica,sans-Serif" font-size="16.00">+ref_count</text>
<text text-anchor="middle" x="810.6" y="-1161.2" font-family="Helvetica,sans-Serif" font-size="16.00">+reserved1</text>
</g>
<!-- Node10&#45;&gt;Node2 -->
<g id="edge22" class="edge">
<title>Node10&#45;&gt;Node2</title>
<path fill="none" stroke="#404040" d="M844.18,-1068.07C893.84,-1059.79 955.84,-1040.19 988.1,-994 1001.84,-974.32 1002.13,-959.47 988.1,-940 973.31,-919.48 948.89,-942.52 934.1,-922 820.01,-763.72 852.11,-660.05 934.1,-483 952.67,-442.89 983.13,-407.66 1016.42,-378.09"/>
<polygon fill="none" stroke="#404040" points="1016.8,-377.76 1018.72,-370.81 1025.88,-369.91 1023.96,-376.86 1016.8,-377.76"/>
<text text-anchor="middle" x="997.6" y="-698.7" font-family="Helvetica,sans-Serif" font-size="16.00"> &#45;inputQueueArray</text>
</g>
<!-- Node10&#45;&gt;Node3 -->
<g id="edge14" class="edge">
<title>Node10&#45;&gt;Node3</title>
<path fill="none" stroke="#404040" d="M701.21,-1035.84C681.82,-1023.65 661.34,-1009.32 644.1,-994 620.95,-973.44 622,-961.88 600.1,-940 564.38,-904.33 523.61,-868.57 484.12,-836.05"/>
<polygon fill="none" stroke="#404040" points="483.93,-835.9 476.75,-835.19 474.65,-828.3 481.82,-829 483.93,-835.9"/>
<text text-anchor="middle" x="694.1" y="-972.2" font-family="Helvetica,sans-Serif" font-size="16.00"> &#45;inputQueue</text>
<text text-anchor="middle" x="694.1" y="-954.2" font-family="Helvetica,sans-Serif" font-size="16.00">&#45;memory_pool</text>
</g>
<!-- Node11 -->
<g id="node11" class="node">
<title>Node11</title>
<g id="a_node11"><a xlink:title=" ">
<polygon fill="none" stroke="#bfbfbf" points="1124.6,-1228.5 1124.6,-1306.5 1189.6,-1306.5 1189.6,-1228.5 1124.6,-1228.5"/>
<text text-anchor="middle" x="1157.1" y="-1289.7" font-family="Helvetica,sans-Serif" font-size="16.00">int16_t</text>
<polyline fill="none" stroke="#bfbfbf" points="1124.6,-1280.5 1189.6,-1280.5 "/>
<text text-anchor="middle" x="1157.1" y="-1263.7" font-family="Helvetica,sans-Serif" font-size="16.00"> </text>
<polyline fill="none" stroke="#bfbfbf" points="1124.6,-1254.5 1189.6,-1254.5 "/>
<text text-anchor="middle" x="1157.1" y="-1237.7" font-family="Helvetica,sans-Serif" font-size="16.00"> </text>
</a>
</g>
</g>
<!-- Node11&#45;&gt;Node2 -->
<g id="edge21" class="edge">
<title>Node11&#45;&gt;Node2</title>
<path fill="none" stroke="#404040" d="M1189.65,-1229.7C1194.73,-1223.31 1199.73,-1216.6 1204.1,-1210 1263.63,-1119.97 1289.72,-1098.91 1315.1,-994 1331.88,-924.64 1415.09,-839.56 1280.1,-429 1279.35,-426.72 1278.56,-424.44 1277.73,-422.16"/>
<polygon fill="none" stroke="#404040" points="1277.65,-421.97 1271.74,-417.84 1273.28,-410.8 1279.19,-414.93 1277.65,-421.97"/>
<text text-anchor="middle" x="1375.6" y="-981.2" font-family="Helvetica,sans-Serif" font-size="16.00"> &#45;arbdata</text>
<text text-anchor="middle" x="1375.6" y="-963.2" font-family="Helvetica,sans-Serif" font-size="16.00">&#45;sample</text>
<text text-anchor="middle" x="1375.6" y="-945.2" font-family="Helvetica,sans-Serif" font-size="16.00">&#45;tone_offset</text>
</g>
<!-- Node11&#45;&gt;Node10 -->
<g id="edge17" class="edge">
<title>Node11&#45;&gt;Node10</title>
<path fill="none" stroke="#404040" d="M1124.44,-1250.42C1065.6,-1221.46 940.08,-1159.67 855.36,-1117.97"/>
<polygon fill="none" stroke="#404040" points="855.23,-1117.91 848.08,-1118.85 844.46,-1112.61 851.61,-1111.67 855.23,-1117.91"/>
<text text-anchor="middle" x="1054.6" y="-1179.2" font-family="Helvetica,sans-Serif" font-size="16.00"> +data</text>
</g>
<!-- Node12 -->
<g id="node12" class="node">
<title>Node12</title>
<g id="a_node12"><a xlink:title=" ">
<polygon fill="none" stroke="#bfbfbf" points="1365.6,-663.5 1365.6,-741.5 1430.6,-741.5 1430.6,-663.5 1365.6,-663.5"/>
<text text-anchor="middle" x="1398.1" y="-724.7" font-family="Helvetica,sans-Serif" font-size="16.00">int32_t</text>
<polyline fill="none" stroke="#bfbfbf" points="1365.6,-715.5 1430.6,-715.5 "/>
<text text-anchor="middle" x="1398.1" y="-698.7" font-family="Helvetica,sans-Serif" font-size="16.00"> </text>
<polyline fill="none" stroke="#bfbfbf" points="1365.6,-689.5 1430.6,-689.5 "/>
<text text-anchor="middle" x="1398.1" y="-672.7" font-family="Helvetica,sans-Serif" font-size="16.00"> </text>
</a>
</g>
</g>
<!-- Node12&#45;&gt;Node2 -->
<g id="edge18" class="edge">
<title>Node12&#45;&gt;Node2</title>
<path fill="none" stroke="#404040" d="M1399.09,-663.3C1398.91,-608.16 1392.44,-504.61 1351.1,-429 1348.62,-424.46 1345.95,-419.98 1343.13,-415.57"/>
<polygon fill="none" stroke="#404040" points="1342.97,-415.35 1336.3,-412.61 1336.26,-405.4 1342.93,-408.13 1342.97,-415.35"/>
<text text-anchor="middle" x="1408.1" y="-443.2" font-family="Helvetica,sans-Serif" font-size="16.00"> &#45;magnitude</text>
</g>
</g>
</svg>
        <g id="navigator" transform="translate(0 0)" fill="#404254">
                <rect fill="#f2f5e9" fill-opacity="0.5" stroke="#606060" stroke-width=".5" x="0" y="0" width="60" height="60"/>
                <use id="zoomplus" xlink:href="#zoomPlus" x="17" y="9" onmousedown="handleZoom(evt,'in')"/>
                <use id="zoomminus" xlink:href="#zoomMin" x="42" y="9" onmousedown="handleZoom(evt,'out')"/>
                <use id="reset" xlink:href="#resetDef" x="30" y="36" onmousedown="handleReset()"/>
                <g id="arrowUp" xlink:href="#dirArrow" transform="translate(30 24)" onmousedown="handlePan(0,-1)">
                  <use xlink:href="#rim" fill="#404040">
                        <set attributeName="fill" to="#808080" begin="arrowUp.mouseover" end="arrowUp.mouseout"/>
                  </use>
                  <path fill="none" stroke="white" stroke-width="1.5" d="M0,-3.0v7 M-2.5,-0.5L0,-3.0L2.5,-0.5"/>
                </g>
                <g id="arrowRight" xlink:href="#dirArrow" transform="rotate(90) translate(36 -43)" onmousedown="handlePan(1,0)">
                  <use xlink:href="#rim" fill="#404040">
                        <set attributeName="fill" to="#808080" begin="arrowRight.mouseover" end="arrowRight.mouseout"/>
                  </use>
                  <path fill="none" stroke="white" stroke-width="1.5" d="M0,-3.0v7 M-2.5,-0.5L0,-3.0L2.5,-0.5"/>
                </g>
                <g id="arrowDown" xlink:href="#dirArrow" transform="rotate(180) translate(-30 -48)" onmousedown="handlePan(0,1)">
                  <use xlink:href="#rim" fill="#404040">
                        <set attributeName="fill" to="#808080" begin="arrowDown.mouseover" end="arrowDown.mouseout"/>
                  </use>
                  <path fill="none" stroke="white" stroke-width="1.5" d="M0,-3.0v7 M-2.5,-0.5L0,-3.0L2.5,-0.5"/>
                </g>
                <g id="arrowLeft" xlink:href="#dirArrow" transform="rotate(270) translate(-36 17)" onmousedown="handlePan(-1,0)">
                  <use xlink:href="#rim" fill="#404040">
                        <set attributeName="fill" to="#808080" begin="arrowLeft.mouseover" end="arrowLeft.mouseout"/>
                  </use>
                  <path fill="none" stroke="white" stroke-width="1.5" d="M0,-3.0v7 M-2.5,-0.5L0,-3.0L2.5,-0.5"/>
                </g>
        </g>
        <svg viewBox="0 0 15 15" width="100%" height="30px" preserveAspectRatio="xMaxYMin meet">
         <g id="arrow_out" transform="scale(0.3 0.3)">
          <a xlink:href="classeris_audio_synth_waveform_modulated__coll__graph_org.svg" target="_base">
           <rect id="button" ry="5" rx="5" y="6" x="6" height="38" width="38"
                fill="#f2f5e9" fill-opacity="0.5" stroke="#606060" stroke-width="1.0"/>
           <path id="arrow"
             d="M 11.500037,31.436501 C 11.940474,20.09759 22.043105,11.32322 32.158766,21.979434 L 37.068811,17.246167 C 37.068811,17.246167 37.088388,32 37.088388,32 L 22.160133,31.978069 C 22.160133,31.978069 26.997745,27.140456 26.997745,27.140456 C 18.528582,18.264221 13.291696,25.230495 11.500037,31.436501 z"
             style="fill:#404040;"/>
          </a>
         </g>
        </svg>
</svg>
