<?xml version="1.0" encoding="UTF-8" standalone="no"?>
<!DOCTYPE svg PUBLIC "-//W3C//DTD SVG 1.1//EN"
 "http://www.w3.org/Graphics/SVG/1.1/DTD/svg11.dtd">
<!-- Generated by graphviz version 2.47.3 (20210619.1520)
 -->
<!-- Title: StdioStream::print Pages: 1 -->
<svg width="372pt" height="28pt"
 viewBox="0.00 0.00 372.00 28.00" xmlns="http://www.w3.org/2000/svg" xmlns:xlink="http://www.w3.org/1999/xlink">
<g id="graph0" class="graph" transform="scale(1 1) rotate(0) translate(4 24)">
<title>StdioStream::print</title>
<polygon fill="white" stroke="transparent" points="-4,4 -4,-24 368,-24 368,4 -4,4"/>
<!-- Node1 -->
<g id="node1" class="node">
<title>Node1</title>
<g id="a_node1"><a xlink:title=" ">
<polygon fill="#bfbfbf" stroke="black" points="0,-0.5 0,-19.5 95,-19.5 95,-0.5 0,-0.5"/>
<text text-anchor="middle" x="47.5" y="-7.5" font-family="Helvetica,sans-Serif" font-size="10.00">StdioStream::print</text>
</a>
</g>
</g>
<!-- Node2 -->
<g id="node2" class="node">
<title>Node2</title>
<g id="a_node2"><a xlink:href="../../d2/de6/class_stdio_stream.html#a6adea52f55ef7d97cdb54e9e11fc2daa" target="_top" xlink:title=" ">
<polygon fill="white" stroke="black" points="131,-0.5 131,-19.5 229,-19.5 229,-0.5 131,-0.5"/>
<text text-anchor="middle" x="180" y="-7.5" font-family="Helvetica,sans-Serif" font-size="10.00">StdioStream::fputs</text>
</a>
</g>
</g>
<!-- Node1&#45;&gt;Node2 -->
<g id="edge1" class="edge">
<title>Node1&#45;&gt;Node2</title>
<path fill="none" stroke="midnightblue" d="M95.24,-10C103.46,-10 112.1,-10 120.59,-10"/>
<polygon fill="midnightblue" stroke="midnightblue" points="120.82,-13.5 130.82,-10 120.82,-6.5 120.82,-13.5"/>
</g>
<!-- Node3 -->
<g id="node3" class="node">
<title>Node3</title>
<g id="a_node3"><a xlink:href="../../d2/de6/class_stdio_stream.html#ad79465afb52579cbc801f4585c3f9c25" target="_top" xlink:title=" ">
<polygon fill="white" stroke="black" points="265,-0.5 265,-19.5 364,-19.5 364,-0.5 265,-0.5"/>
<text text-anchor="middle" x="314.5" y="-7.5" font-family="Helvetica,sans-Serif" font-size="10.00">StdioStream::fwrite</text>
</a>
</g>
</g>
<!-- Node2&#45;&gt;Node3 -->
<g id="edge2" class="edge">
<title>Node2&#45;&gt;Node3</title>
<path fill="none" stroke="midnightblue" d="M229.21,-10C237.42,-10 246.02,-10 254.47,-10"/>
<polygon fill="midnightblue" stroke="midnightblue" points="254.66,-13.5 264.66,-10 254.66,-6.5 254.66,-13.5"/>
</g>
</g>
</svg>
