<?xml version="1.0" encoding="UTF-8" standalone="no"?>
<!DOCTYPE svg PUBLIC "-//W3C//DTD SVG 1.1//EN"
 "http://www.w3.org/Graphics/SVG/1.1/DTD/svg11.dtd">
<!-- Generated by graphviz version 2.47.3 (20210619.1520)
 -->
<!-- Title: AudioDirector::AudioDirector Pages: 1 -->
<svg width="574pt" height="125pt"
 viewBox="0.00 0.00 574.00 125.00" xmlns="http://www.w3.org/2000/svg" xmlns:xlink="http://www.w3.org/1999/xlink">
<g id="graph0" class="graph" transform="scale(1 1) rotate(0) translate(4 121)">
<title>AudioDirector::AudioDirector</title>
<!-- Node1 -->
<g id="node1" class="node">
<title>Node1</title>
<g id="a_node1"><a xlink:title=" ">
<polygon fill="#bfbfbf" stroke="black" points="0,-45.5 0,-71.5 216,-71.5 216,-45.5 0,-45.5"/>
<text text-anchor="middle" x="108" y="-54.7" font-family="Helvetica,sans-Serif" font-size="16.00">AudioDirector::AudioDirector</text>
</a>
</g>
</g>
<!-- Node2 -->
<g id="node2" class="node">
<title>Node2</title>
<g id="a_node2"><a xlink:href="../../d8/d1c/class_audio_director_aad97af621b2072f1246526f2afb0e0ff.html#aad97af621b2072f1246526f2afb0e0ff" target="_top" xlink:title=" ">
<polygon fill="none" stroke="black" points="279.5,-90.5 279.5,-116.5 538.5,-116.5 538.5,-90.5 279.5,-90.5"/>
<text text-anchor="middle" x="409" y="-99.7" font-family="Helvetica,sans-Serif" font-size="16.00">AudioDirector::addAudioStreamObj</text>
</a>
</g>
</g>
<!-- Node1&#45;&gt;Node2 -->
<g id="edge1" class="edge">
<title>Node1&#45;&gt;Node2</title>
<path fill="none" stroke="midnightblue" d="M188.38,-71.55C209.08,-74.87 231.36,-78.39 252,-81.5 268.62,-84.01 286.24,-86.58 303.44,-89.04"/>
<polygon fill="midnightblue" stroke="midnightblue" points="303.11,-92.53 313.5,-90.47 304.09,-85.6 303.11,-92.53"/>
</g>
<!-- Node3 -->
<g id="node3" class="node">
<title>Node3</title>
<g id="a_node3"><a xlink:href="../../d8/d1c/class_audio_director_a1da47d92a4ceddb2844cf690e395caff.html#a1da47d92a4ceddb2844cf690e395caff" target="_top" xlink:title=" ">
<polygon fill="none" stroke="black" points="272.5,-45.5 272.5,-71.5 545.5,-71.5 545.5,-45.5 272.5,-45.5"/>
<text text-anchor="middle" x="409" y="-54.7" font-family="Helvetica,sans-Serif" font-size="16.00">AudioDirector::generateCategoryList</text>
</a>
</g>
</g>
<!-- Node1&#45;&gt;Node3 -->
<g id="edge2" class="edge">
<title>Node1&#45;&gt;Node3</title>
<path fill="none" stroke="midnightblue" d="M216.1,-58.5C231.08,-58.5 246.69,-58.5 262.24,-58.5"/>
<polygon fill="midnightblue" stroke="midnightblue" points="262.44,-62 272.44,-58.5 262.44,-55 262.44,-62"/>
</g>
<!-- Node4 -->
<g id="node4" class="node">
<title>Node4</title>
<g id="a_node4"><a xlink:href="../../d8/d1c/class_audio_director_a578f1deac0695f2db3ba245aaedc62df.html#a578f1deac0695f2db3ba245aaedc62df" target="_top" xlink:title=" ">
<polygon fill="none" stroke="black" points="252,-0.5 252,-26.5 566,-26.5 566,-0.5 252,-0.5"/>
<text text-anchor="middle" x="409" y="-9.7" font-family="Helvetica,sans-Serif" font-size="16.00">AudioDirector::getAudioStreamObjByName</text>
</a>
</g>
</g>
<!-- Node1&#45;&gt;Node4 -->
<g id="edge3" class="edge">
<title>Node1&#45;&gt;Node4</title>
<path fill="none" stroke="midnightblue" d="M192.92,-45.5C212.32,-42.52 232.87,-39.38 252,-36.5 270.36,-33.73 289.94,-30.82 308.8,-28.03"/>
<polygon fill="midnightblue" stroke="midnightblue" points="309.51,-31.46 318.89,-26.54 308.49,-24.54 309.51,-31.46"/>
</g>
</g>
</svg>
