<?xml version="1.0" encoding="UTF-8" standalone="no"?>
<!DOCTYPE svg PUBLIC "-//W3C//DTD SVG 1.1//EN"
 "http://www.w3.org/Graphics/SVG/1.1/DTD/svg11.dtd">
<!-- Generated by graphviz version 2.47.3 (20210619.1520)
 -->
<!-- Title: ERISCore/lib/SdFat&#45;master/src/ExFatLib/ExFatConfig.h Pages: 1 -->
<!--zoomable 618 -->
<svg id="main" version="1.1" xmlns="http://www.w3.org/2000/svg" xmlns:xlink="http://www.w3.org/1999/xlink" xml:space="preserve" onload="init(evt)">
<style type="text/css"><![CDATA[
.edge:hover path { stroke: red; }
.edge:hover polygon { stroke: red; fill: red; }
]]></style>
<script type="text/javascript"><![CDATA[
var edges = document.getElementsByTagName('g');
if (edges && edges.length) {
  for (var i=0;i<edges.length;i++) {
    if (edges[i].id.substr(0,4)=='edge') {
      edges[i].setAttribute('class','edge');
    }
  }
}
]]></script>
        <defs>
                <circle id="rim" cx="0" cy="0" r="7"/>
                <circle id="rim2" cx="0" cy="0" r="3.5"/>
                <g id="zoomPlus">
                        <use xlink:href="#rim" fill="#404040">
                                <set attributeName="fill" to="#808080" begin="zoomplus.mouseover" end="zoomplus.mouseout"/>
                        </use>
                        <path d="M-4,0h8M0,-4v8" fill="none" stroke="white" stroke-width="1.5" pointer-events="none"/>
                </g>
                <g id="zoomMin">
                        <use xlink:href="#rim" fill="#404040">
                                <set attributeName="fill" to="#808080" begin="zoomminus.mouseover" end="zoomminus.mouseout"/>
                        </use>
                        <path d="M-4,0h8" fill="none" stroke="white" stroke-width="1.5" pointer-events="none"/>
                </g>
                <g id="dirArrow">
                        <path fill="none" stroke="white" stroke-width="1.5" d="M0,-3.0v7 M-2.5,-0.5L0,-3.0L2.5,-0.5"/>
                </g>
               <g id="resetDef">
                       <use xlink:href="#rim2" fill="#404040">
                               <set attributeName="fill" to="#808080" begin="reset.mouseover" end="reset.mouseout"/>
                       </use>
               </g>
        </defs>

<script type="text/javascript">
var viewWidth = 1535;
var viewHeight = 618;
var sectionId = 'dynsection-1';
</script>
<script xlink:href="../../svgpan.js"/>
<svg id="graph" class="graph">
<g id="viewport">
<title>ERISCore/lib/SdFat&#45;master/src/ExFatLib/ExFatConfig.h</title>
<polygon fill="white" stroke="transparent" points="-4,4 -4,-614 1531,-614 1531,4 -4,4"/>
<!-- Node1 -->
<g id="node1" class="node">
<title>Node1</title>
<g id="a_node1"><a xlink:title=" ">
<polygon fill="#bfbfbf" stroke="black" points="831,-562.5 831,-609.5 956,-609.5 956,-562.5 831,-562.5"/>
<text text-anchor="start" x="839" y="-595.9" font-family="Helvetica,sans-Serif" font-size="12.00">ERISCore/lib/SdFat</text>
<text text-anchor="start" x="839" y="-582.9" font-family="Helvetica,sans-Serif" font-size="12.00">&#45;master/src/ExFatLib</text>
<text text-anchor="middle" x="893.5" y="-569.9" font-family="Helvetica,sans-Serif" font-size="12.00">/ExFatConfig.h</text>
</a>
</g>
</g>
<!-- Node2 -->
<g id="node2" class="node">
<title>Node2</title>
<g id="a_node2"><a xlink:href="../../d7/dc8/_ex_fat_partition_8h.html" target="_top" xlink:title="ExFatPartition include file.">
<polygon fill="white" stroke="black" points="831,-478.5 831,-525.5 956,-525.5 956,-478.5 831,-478.5"/>
<text text-anchor="start" x="839" y="-511.9" font-family="Helvetica,sans-Serif" font-size="12.00">ERISCore/lib/SdFat</text>
<text text-anchor="start" x="839" y="-498.9" font-family="Helvetica,sans-Serif" font-size="12.00">&#45;master/src/ExFatLib</text>
<text text-anchor="middle" x="893.5" y="-485.9" font-family="Helvetica,sans-Serif" font-size="12.00">/ExFatPartition.h</text>
</a>
</g>
</g>
<!-- Node1&#45;&gt;Node2 -->
<g id="edge1" class="edge">
<title>Node1&#45;&gt;Node2</title>
<path fill="none" stroke="midnightblue" d="M893.5,-552.11C893.5,-543.26 893.5,-533.88 893.5,-525.72"/>
<polygon fill="midnightblue" stroke="midnightblue" points="890,-552.16 893.5,-562.16 897,-552.16 890,-552.16"/>
</g>
<!-- Node3 -->
<g id="node3" class="node">
<title>Node3</title>
<g id="a_node3"><a xlink:href="../../dd/ddc/_ex_fat_file_8h.html" target="_top" xlink:title="ExFatFile class.">
<polygon fill="white" stroke="black" points="831,-394.5 831,-441.5 956,-441.5 956,-394.5 831,-394.5"/>
<text text-anchor="start" x="839" y="-427.9" font-family="Helvetica,sans-Serif" font-size="12.00">ERISCore/lib/SdFat</text>
<text text-anchor="start" x="839" y="-414.9" font-family="Helvetica,sans-Serif" font-size="12.00">&#45;master/src/ExFatLib</text>
<text text-anchor="middle" x="893.5" y="-401.9" font-family="Helvetica,sans-Serif" font-size="12.00">/ExFatFile.h</text>
</a>
</g>
</g>
<!-- Node2&#45;&gt;Node3 -->
<g id="edge2" class="edge">
<title>Node2&#45;&gt;Node3</title>
<path fill="none" stroke="midnightblue" d="M893.5,-468.11C893.5,-459.26 893.5,-449.88 893.5,-441.72"/>
<polygon fill="midnightblue" stroke="midnightblue" points="890,-468.16 893.5,-478.16 897,-468.16 890,-468.16"/>
</g>
<!-- Node4 -->
<g id="node4" class="node">
<title>Node4</title>
<g id="a_node4"><a xlink:href="../../d6/d68/_ex_fat_volume_8h.html" target="_top" xlink:title=" ">
<polygon fill="white" stroke="black" points="831,-310.5 831,-357.5 956,-357.5 956,-310.5 831,-310.5"/>
<text text-anchor="start" x="839" y="-343.9" font-family="Helvetica,sans-Serif" font-size="12.00">ERISCore/lib/SdFat</text>
<text text-anchor="start" x="839" y="-330.9" font-family="Helvetica,sans-Serif" font-size="12.00">&#45;master/src/ExFatLib</text>
<text text-anchor="middle" x="893.5" y="-317.9" font-family="Helvetica,sans-Serif" font-size="12.00">/ExFatVolume.h</text>
</a>
</g>
</g>
<!-- Node3&#45;&gt;Node4 -->
<g id="edge3" class="edge">
<title>Node3&#45;&gt;Node4</title>
<path fill="none" stroke="midnightblue" d="M893.5,-384.11C893.5,-375.26 893.5,-365.88 893.5,-357.72"/>
<polygon fill="midnightblue" stroke="midnightblue" points="890,-384.16 893.5,-394.16 897,-384.16 890,-384.16"/>
</g>
<!-- Node5 -->
<g id="node5" class="node">
<title>Node5</title>
<g id="a_node5"><a xlink:href="../../d8/d23/_ex_fat_lib_8h.html" target="_top" xlink:title=" ">
<polygon fill="white" stroke="black" points="786,-226.5 786,-273.5 911,-273.5 911,-226.5 786,-226.5"/>
<text text-anchor="start" x="794" y="-259.9" font-family="Helvetica,sans-Serif" font-size="12.00">ERISCore/lib/SdFat</text>
<text text-anchor="start" x="794" y="-246.9" font-family="Helvetica,sans-Serif" font-size="12.00">&#45;master/src/ExFatLib</text>
<text text-anchor="middle" x="848.5" y="-233.9" font-family="Helvetica,sans-Serif" font-size="12.00">/ExFatLib.h</text>
</a>
</g>
</g>
<!-- Node4&#45;&gt;Node5 -->
<g id="edge4" class="edge">
<title>Node4&#45;&gt;Node5</title>
<path fill="none" stroke="midnightblue" d="M876.08,-301.26C871.04,-292.08 865.64,-282.24 860.97,-273.72"/>
<polygon fill="midnightblue" stroke="midnightblue" points="873.09,-303.08 880.96,-310.16 879.22,-299.71 873.09,-303.08"/>
</g>
<!-- Node12 -->
<g id="node12" class="node">
<title>Node12</title>
<g id="a_node12"><a xlink:href="../../da/dc3/_ex_fat_dbg_8cpp.html" target="_top" xlink:title=" ">
<polygon fill="white" stroke="black" points="1402,-142.5 1402,-189.5 1527,-189.5 1527,-142.5 1402,-142.5"/>
<text text-anchor="start" x="1410" y="-175.9" font-family="Helvetica,sans-Serif" font-size="12.00">ERISCore/lib/SdFat</text>
<text text-anchor="start" x="1410" y="-162.9" font-family="Helvetica,sans-Serif" font-size="12.00">&#45;master/src/ExFatLib</text>
<text text-anchor="middle" x="1464.5" y="-149.9" font-family="Helvetica,sans-Serif" font-size="12.00">/ExFatDbg.cpp</text>
</a>
</g>
</g>
<!-- Node4&#45;&gt;Node12 -->
<g id="edge19" class="edge">
<title>Node4&#45;&gt;Node12</title>
<path fill="none" stroke="midnightblue" d="M965.97,-312.23C1062.3,-284.57 1237.81,-234.02 1387.5,-190 1392.18,-188.62 1397.03,-187.19 1401.9,-185.75"/>
<polygon fill="midnightblue" stroke="midnightblue" points="964.97,-308.88 956.32,-315 966.9,-315.6 964.97,-308.88"/>
</g>
<!-- Node6 -->
<g id="node6" class="node">
<title>Node6</title>
<g id="a_node6"><a xlink:href="../../d6/dac/_ex_fat_formatter_8cpp.html" target="_top" xlink:title=" ">
<polygon fill="white" stroke="black" points="0,-142.5 0,-189.5 125,-189.5 125,-142.5 0,-142.5"/>
<text text-anchor="start" x="8" y="-175.9" font-family="Helvetica,sans-Serif" font-size="12.00">ERISCore/lib/SdFat</text>
<text text-anchor="start" x="8" y="-162.9" font-family="Helvetica,sans-Serif" font-size="12.00">&#45;master/src/ExFatLib</text>
<text text-anchor="middle" x="62.5" y="-149.9" font-family="Helvetica,sans-Serif" font-size="12.00">/ExFatFormatter.cpp</text>
</a>
</g>
</g>
<!-- Node5&#45;&gt;Node6 -->
<g id="edge5" class="edge">
<title>Node5&#45;&gt;Node6</title>
<path fill="none" stroke="midnightblue" d="M775.41,-248.51C645.14,-246.41 364.77,-236.35 133.5,-190 130.71,-189.44 127.87,-188.81 125.01,-188.12"/>
<polygon fill="midnightblue" stroke="midnightblue" points="775.61,-252.01 785.66,-248.66 775.71,-245.01 775.61,-252.01"/>
</g>
<!-- Node7 -->
<g id="node7" class="node">
<title>Node7</title>
<g id="a_node7"><a xlink:href="../../d2/df9/_ex_fat_partition_8cpp.html" target="_top" xlink:title=" ">
<polygon fill="white" stroke="black" points="143,-142.5 143,-189.5 268,-189.5 268,-142.5 143,-142.5"/>
<text text-anchor="start" x="151" y="-175.9" font-family="Helvetica,sans-Serif" font-size="12.00">ERISCore/lib/SdFat</text>
<text text-anchor="start" x="151" y="-162.9" font-family="Helvetica,sans-Serif" font-size="12.00">&#45;master/src/ExFatLib</text>
<text text-anchor="middle" x="205.5" y="-149.9" font-family="Helvetica,sans-Serif" font-size="12.00">/ExFatPartition.cpp</text>
</a>
</g>
</g>
<!-- Node5&#45;&gt;Node7 -->
<g id="edge6" class="edge">
<title>Node5&#45;&gt;Node7</title>
<path fill="none" stroke="midnightblue" d="M775.35,-246.38C665.83,-241.35 453.22,-227.3 276.5,-190 273.71,-189.41 270.88,-188.75 268.03,-188.04"/>
<polygon fill="midnightblue" stroke="midnightblue" points="775.48,-249.89 785.62,-246.84 775.79,-242.89 775.48,-249.89"/>
</g>
<!-- Node8 -->
<g id="node8" class="node">
<title>Node8</title>
<g id="a_node8"><a xlink:href="../../d3/d2b/_ex_fat_file_print_8cpp.html" target="_top" xlink:title=" ">
<polygon fill="white" stroke="black" points="286,-142.5 286,-189.5 411,-189.5 411,-142.5 286,-142.5"/>
<text text-anchor="start" x="294" y="-175.9" font-family="Helvetica,sans-Serif" font-size="12.00">ERISCore/lib/SdFat</text>
<text text-anchor="start" x="294" y="-162.9" font-family="Helvetica,sans-Serif" font-size="12.00">&#45;master/src/ExFatLib</text>
<text text-anchor="middle" x="348.5" y="-149.9" font-family="Helvetica,sans-Serif" font-size="12.00">/ExFatFilePrint.cpp</text>
</a>
</g>
</g>
<!-- Node5&#45;&gt;Node8 -->
<g id="edge7" class="edge">
<title>Node5&#45;&gt;Node8</title>
<path fill="none" stroke="midnightblue" d="M775.54,-242.92C689.6,-234.86 542.92,-218.24 419.5,-190 416.72,-189.36 413.9,-188.67 411.05,-187.93"/>
<polygon fill="midnightblue" stroke="midnightblue" points="775.43,-246.43 785.71,-243.87 776.08,-239.46 775.43,-246.43"/>
</g>
<!-- Node9 -->
<g id="node9" class="node">
<title>Node9</title>
<g id="a_node9"><a xlink:href="../../d8/d04/_ex_fat_name_8cpp.html" target="_top" xlink:title=" ">
<polygon fill="white" stroke="black" points="429,-142.5 429,-189.5 554,-189.5 554,-142.5 429,-142.5"/>
<text text-anchor="start" x="437" y="-175.9" font-family="Helvetica,sans-Serif" font-size="12.00">ERISCore/lib/SdFat</text>
<text text-anchor="start" x="437" y="-162.9" font-family="Helvetica,sans-Serif" font-size="12.00">&#45;master/src/ExFatLib</text>
<text text-anchor="middle" x="491.5" y="-149.9" font-family="Helvetica,sans-Serif" font-size="12.00">/ExFatName.cpp</text>
</a>
</g>
</g>
<!-- Node5&#45;&gt;Node9 -->
<g id="edge8" class="edge">
<title>Node5&#45;&gt;Node9</title>
<path fill="none" stroke="midnightblue" d="M775.65,-236.26C717.54,-225.55 634.29,-208.97 562.5,-190 559.74,-189.27 556.94,-188.5 554.11,-187.69"/>
<polygon fill="midnightblue" stroke="midnightblue" points="775.37,-239.76 785.83,-238.12 776.63,-232.88 775.37,-239.76"/>
</g>
<!-- Node10 -->
<g id="node10" class="node">
<title>Node10</title>
<g id="a_node10"><a xlink:href="../../db/d4e/_ex_fat_file_write_8cpp.html" target="_top" xlink:title=" ">
<polygon fill="white" stroke="black" points="572,-142.5 572,-189.5 697,-189.5 697,-142.5 572,-142.5"/>
<text text-anchor="start" x="580" y="-175.9" font-family="Helvetica,sans-Serif" font-size="12.00">ERISCore/lib/SdFat</text>
<text text-anchor="start" x="580" y="-162.9" font-family="Helvetica,sans-Serif" font-size="12.00">&#45;master/src/ExFatLib</text>
<text text-anchor="middle" x="634.5" y="-149.9" font-family="Helvetica,sans-Serif" font-size="12.00">/ExFatFileWrite.cpp</text>
</a>
</g>
</g>
<!-- Node5&#45;&gt;Node10 -->
<g id="edge9" class="edge">
<title>Node5&#45;&gt;Node10</title>
<path fill="none" stroke="midnightblue" d="M780.07,-222.78C752.21,-212.1 720.32,-199.88 693.5,-189.61"/>
<polygon fill="midnightblue" stroke="midnightblue" points="779.15,-226.17 789.74,-226.48 781.65,-219.64 779.15,-226.17"/>
</g>
<!-- Node11 -->
<g id="node11" class="node">
<title>Node11</title>
<g id="a_node11"><a xlink:href="../../dc/d94/_ex_fat_volume_8cpp.html" target="_top" xlink:title=" ">
<polygon fill="white" stroke="black" points="715,-142.5 715,-189.5 840,-189.5 840,-142.5 715,-142.5"/>
<text text-anchor="start" x="723" y="-175.9" font-family="Helvetica,sans-Serif" font-size="12.00">ERISCore/lib/SdFat</text>
<text text-anchor="start" x="723" y="-162.9" font-family="Helvetica,sans-Serif" font-size="12.00">&#45;master/src/ExFatLib</text>
<text text-anchor="middle" x="777.5" y="-149.9" font-family="Helvetica,sans-Serif" font-size="12.00">/ExFatVolume.cpp</text>
</a>
</g>
</g>
<!-- Node5&#45;&gt;Node11 -->
<g id="edge10" class="edge">
<title>Node5&#45;&gt;Node11</title>
<path fill="none" stroke="midnightblue" d="M822.01,-218.41C813.78,-208.9 804.85,-198.59 797.17,-189.72"/>
<polygon fill="midnightblue" stroke="midnightblue" points="819.53,-220.89 828.72,-226.16 824.82,-216.31 819.53,-220.89"/>
</g>
<!-- Node5&#45;&gt;Node12 -->
<g id="edge11" class="edge">
<title>Node5&#45;&gt;Node12</title>
<path fill="none" stroke="midnightblue" d="M921.41,-245.22C1025.61,-238.87 1222.76,-223.33 1387.5,-190 1392.15,-189.06 1396.92,-187.96 1401.7,-186.77"/>
<polygon fill="midnightblue" stroke="midnightblue" points="921.09,-241.73 911.31,-245.82 921.5,-248.72 921.09,-241.73"/>
</g>
<!-- Node13 -->
<g id="node13" class="node">
<title>Node13</title>
<g id="a_node13"><a xlink:href="../../d4/d74/_ex_fat_file_8cpp.html" target="_top" xlink:title=" ">
<polygon fill="white" stroke="black" points="858,-142.5 858,-189.5 983,-189.5 983,-142.5 858,-142.5"/>
<text text-anchor="start" x="866" y="-175.9" font-family="Helvetica,sans-Serif" font-size="12.00">ERISCore/lib/SdFat</text>
<text text-anchor="start" x="866" y="-162.9" font-family="Helvetica,sans-Serif" font-size="12.00">&#45;master/src/ExFatLib</text>
<text text-anchor="middle" x="920.5" y="-149.9" font-family="Helvetica,sans-Serif" font-size="12.00">/ExFatFile.cpp</text>
</a>
</g>
</g>
<!-- Node5&#45;&gt;Node13 -->
<g id="edge12" class="edge">
<title>Node5&#45;&gt;Node13</title>
<path fill="none" stroke="midnightblue" d="M875.36,-218.41C883.71,-208.9 892.76,-198.59 900.55,-189.72"/>
<polygon fill="midnightblue" stroke="midnightblue" points="872.52,-216.33 868.56,-226.16 877.78,-220.95 872.52,-216.33"/>
</g>
<!-- Node14 -->
<g id="node14" class="node">
<title>Node14</title>
<g id="a_node14"><a xlink:href="../../d3/ddb/_fs_file_8h.html" target="_top" xlink:title="FsBaseFile include file.">
<polygon fill="white" stroke="black" points="1001,-149 1001,-183 1154,-183 1154,-149 1001,-149"/>
<text text-anchor="start" x="1009" y="-169.4" font-family="Helvetica,sans-Serif" font-size="12.00">ERISCore/lib/SdFat</text>
<text text-anchor="middle" x="1077.5" y="-156.4" font-family="Helvetica,sans-Serif" font-size="12.00">&#45;master/src/FsLib/FsFile.h</text>
</a>
</g>
</g>
<!-- Node5&#45;&gt;Node14 -->
<g id="edge13" class="edge">
<title>Node5&#45;&gt;Node14</title>
<path fill="none" stroke="midnightblue" d="M920.75,-223.13C957.47,-209.98 1000.95,-194.41 1032.79,-183.01"/>
<polygon fill="midnightblue" stroke="midnightblue" points="919.31,-219.93 911.08,-226.59 921.67,-226.52 919.31,-219.93"/>
</g>
<!-- Node31 -->
<g id="node16" class="node">
<title>Node31</title>
<g id="a_node16"><a xlink:href="../../d5/ddc/_sd_fat_8h.html" target="_top" xlink:title="main SdFs include file.">
<polygon fill="white" stroke="red" points="1255.5,-0.5 1255.5,-34.5 1375.5,-34.5 1375.5,-0.5 1255.5,-0.5"/>
<text text-anchor="start" x="1263.5" y="-20.9" font-family="Helvetica,sans-Serif" font-size="12.00">ERISCore/lib/SdFat</text>
<text text-anchor="middle" x="1315.5" y="-7.9" font-family="Helvetica,sans-Serif" font-size="12.00">&#45;master/src/SdFat.h</text>
</a>
</g>
</g>
<!-- Node5&#45;&gt;Node31 -->
<g id="edge18" class="edge">
<title>Node5&#45;&gt;Node31</title>
<path fill="none" stroke="midnightblue" d="M921.2,-241.76C1059.26,-227.84 1346.37,-198.01 1353.5,-190 1393.34,-145.24 1349.63,-68.15 1327.16,-34.73"/>
<polygon fill="midnightblue" stroke="midnightblue" points="920.72,-238.29 911.12,-242.77 921.42,-245.25 920.72,-238.29"/>
</g>
<!-- Node48 -->
<g id="node17" class="node">
<title>Node48</title>
<g id="a_node17"><a xlink:href="../../db/d47/_fs_volume_8h.html" target="_top" xlink:title="FsVolume include file.">
<polygon fill="white" stroke="black" points="1172,-149 1172,-183 1345,-183 1345,-149 1172,-149"/>
<text text-anchor="start" x="1180" y="-169.4" font-family="Helvetica,sans-Serif" font-size="12.00">ERISCore/lib/SdFat</text>
<text text-anchor="middle" x="1258.5" y="-156.4" font-family="Helvetica,sans-Serif" font-size="12.00">&#45;master/src/FsLib/FsVolume.h</text>
</a>
</g>
</g>
<!-- Node5&#45;&gt;Node48 -->
<g id="edge16" class="edge">
<title>Node5&#45;&gt;Node48</title>
<path fill="none" stroke="midnightblue" d="M921.2,-236.39C984.97,-225.08 1080.12,-207.6 1162.5,-190 1172.56,-187.85 1183.17,-185.45 1193.53,-183.02"/>
<polygon fill="midnightblue" stroke="midnightblue" points="920.47,-232.96 911.24,-238.15 921.69,-239.86 920.47,-232.96"/>
</g>
<!-- Node15 -->
<g id="node15" class="node">
<title>Node15</title>
<g id="a_node15"><a xlink:href="../../d3/d27/_fs_lib_8h.html" target="_top" xlink:title="FsLib include file.">
<polygon fill="white" stroke="red" points="1183.5,-71.5 1183.5,-105.5 1333.5,-105.5 1333.5,-71.5 1183.5,-71.5"/>
<text text-anchor="start" x="1191.5" y="-91.9" font-family="Helvetica,sans-Serif" font-size="12.00">ERISCore/lib/SdFat</text>
<text text-anchor="middle" x="1258.5" y="-78.9" font-family="Helvetica,sans-Serif" font-size="12.00">&#45;master/src/FsLib/FsLib.h</text>
</a>
</g>
</g>
<!-- Node14&#45;&gt;Node15 -->
<g id="edge14" class="edge">
<title>Node14&#45;&gt;Node15</title>
<path fill="none" stroke="midnightblue" d="M1125.18,-145.11C1154.72,-132.79 1192.17,-117.17 1219.86,-105.62"/>
<polygon fill="midnightblue" stroke="midnightblue" points="1123.77,-141.91 1115.89,-148.99 1126.46,-148.37 1123.77,-141.91"/>
</g>
<!-- Node15&#45;&gt;Node31 -->
<g id="edge15" class="edge">
<title>Node15&#45;&gt;Node31</title>
<path fill="none" stroke="midnightblue" d="M1278.27,-63.56C1286.09,-54.1 1294.88,-43.46 1301.96,-34.9"/>
<polygon fill="midnightblue" stroke="midnightblue" points="1275.39,-61.56 1271.72,-71.5 1280.79,-66.02 1275.39,-61.56"/>
</g>
<!-- Node48&#45;&gt;Node15 -->
<g id="edge17" class="edge">
<title>Node48&#45;&gt;Node15</title>
<path fill="none" stroke="midnightblue" d="M1258.5,-138.66C1258.5,-127.71 1258.5,-115.34 1258.5,-105.75"/>
<polygon fill="midnightblue" stroke="midnightblue" points="1255,-138.99 1258.5,-148.99 1262,-138.99 1255,-138.99"/>
</g>
</g>
</svg>
        <g id="navigator" transform="translate(0 0)" fill="#404254">
                <rect fill="#f2f5e9" fill-opacity="0.5" stroke="#606060" stroke-width=".5" x="0" y="0" width="60" height="60"/>
                <use id="zoomplus" xlink:href="#zoomPlus" x="17" y="9" onmousedown="handleZoom(evt,'in')"/>
                <use id="zoomminus" xlink:href="#zoomMin" x="42" y="9" onmousedown="handleZoom(evt,'out')"/>
                <use id="reset" xlink:href="#resetDef" x="30" y="36" onmousedown="handleReset()"/>
                <g id="arrowUp" xlink:href="#dirArrow" transform="translate(30 24)" onmousedown="handlePan(0,-1)">
                  <use xlink:href="#rim" fill="#404040">
                        <set attributeName="fill" to="#808080" begin="arrowUp.mouseover" end="arrowUp.mouseout"/>
                  </use>
                  <path fill="none" stroke="white" stroke-width="1.5" d="M0,-3.0v7 M-2.5,-0.5L0,-3.0L2.5,-0.5"/>
                </g>
                <g id="arrowRight" xlink:href="#dirArrow" transform="rotate(90) translate(36 -43)" onmousedown="handlePan(1,0)">
                  <use xlink:href="#rim" fill="#404040">
                        <set attributeName="fill" to="#808080" begin="arrowRight.mouseover" end="arrowRight.mouseout"/>
                  </use>
                  <path fill="none" stroke="white" stroke-width="1.5" d="M0,-3.0v7 M-2.5,-0.5L0,-3.0L2.5,-0.5"/>
                </g>
                <g id="arrowDown" xlink:href="#dirArrow" transform="rotate(180) translate(-30 -48)" onmousedown="handlePan(0,1)">
                  <use xlink:href="#rim" fill="#404040">
                        <set attributeName="fill" to="#808080" begin="arrowDown.mouseover" end="arrowDown.mouseout"/>
                  </use>
                  <path fill="none" stroke="white" stroke-width="1.5" d="M0,-3.0v7 M-2.5,-0.5L0,-3.0L2.5,-0.5"/>
                </g>
                <g id="arrowLeft" xlink:href="#dirArrow" transform="rotate(270) translate(-36 17)" onmousedown="handlePan(-1,0)">
                  <use xlink:href="#rim" fill="#404040">
                        <set attributeName="fill" to="#808080" begin="arrowLeft.mouseover" end="arrowLeft.mouseout"/>
                  </use>
                  <path fill="none" stroke="white" stroke-width="1.5" d="M0,-3.0v7 M-2.5,-0.5L0,-3.0L2.5,-0.5"/>
                </g>
        </g>
        <svg viewBox="0 0 15 15" width="100%" height="30px" preserveAspectRatio="xMaxYMin meet">
         <g id="arrow_out" transform="scale(0.3 0.3)">
          <a xlink:href="_ex_fat_config_8h__dep__incl_org.svg" target="_base">
           <rect id="button" ry="5" rx="5" y="6" x="6" height="38" width="38"
                fill="#f2f5e9" fill-opacity="0.5" stroke="#606060" stroke-width="1.0"/>
           <path id="arrow"
             d="M 11.500037,31.436501 C 11.940474,20.09759 22.043105,11.32322 32.158766,21.979434 L 37.068811,17.246167 C 37.068811,17.246167 37.088388,32 37.088388,32 L 22.160133,31.978069 C 22.160133,31.978069 26.997745,27.140456 26.997745,27.140456 C 18.528582,18.264221 13.291696,25.230495 11.500037,31.436501 z"
             style="fill:#404040;"/>
          </a>
         </g>
        </svg>
</svg>
