<?xml version="1.0" encoding="UTF-8" standalone="no"?>
<!DOCTYPE svg PUBLIC "-//W3C//DTD SVG 1.1//EN"
 "http://www.w3.org/Graphics/SVG/1.1/DTD/svg11.dtd">
<!-- Generated by graphviz version 2.47.3 (20210619.1520)
 -->
<!-- Title: FsVolume::blocksPerCluster Pages: 1 -->
<svg width="498pt" height="88pt"
 viewBox="0.00 0.00 498.00 88.00" xmlns="http://www.w3.org/2000/svg" xmlns:xlink="http://www.w3.org/1999/xlink">
<g id="graph0" class="graph" transform="scale(1 1) rotate(0) translate(4 84)">
<title>FsVolume::blocksPerCluster</title>
<polygon fill="white" stroke="transparent" points="-4,4 -4,-84 494,-84 494,4 -4,4"/>
<!-- Node1 -->
<g id="node1" class="node">
<title>Node1</title>
<g id="a_node1"><a xlink:title=" ">
<polygon fill="#bfbfbf" stroke="black" points="0,-30 0,-49 141,-49 141,-30 0,-30"/>
<text text-anchor="middle" x="70.5" y="-37" font-family="Helvetica,sans-Serif" font-size="10.00">FsVolume::blocksPerCluster</text>
</a>
</g>
</g>
<!-- Node2 -->
<g id="node2" class="node">
<title>Node2</title>
<g id="a_node2"><a xlink:href="../../df/dd9/class_fs_volume.html#acf62acd37d3f59dedd3e34b3e7d64da0" target="_top" xlink:title=" ">
<polygon fill="white" stroke="black" points="177,-30 177,-49 322,-49 322,-30 177,-30"/>
<text text-anchor="middle" x="249.5" y="-37" font-family="Helvetica,sans-Serif" font-size="10.00">FsVolume::sectorsPerCluster</text>
</a>
</g>
</g>
<!-- Node1&#45;&gt;Node2 -->
<g id="edge1" class="edge">
<title>Node1&#45;&gt;Node2</title>
<path fill="none" stroke="midnightblue" d="M141.2,-39.5C149.52,-39.5 158.08,-39.5 166.55,-39.5"/>
<polygon fill="midnightblue" stroke="midnightblue" points="166.83,-43 176.83,-39.5 166.83,-36 166.83,-43"/>
</g>
<!-- Node3 -->
<g id="node3" class="node">
<title>Node3</title>
<g id="a_node3"><a xlink:href="../../d4/de9/class_ex_fat_partition.html#aaa7306ac8ff29f50ec4d919ccaff10d7" target="_top" xlink:title=" ">
<polygon fill="white" stroke="black" points="358,-49.5 358,-79.5 490,-79.5 490,-49.5 358,-49.5"/>
<text text-anchor="start" x="366" y="-67.5" font-family="Helvetica,sans-Serif" font-size="10.00">ExFatPartition::sectorsPer</text>
<text text-anchor="middle" x="424" y="-56.5" font-family="Helvetica,sans-Serif" font-size="10.00">Cluster</text>
</a>
</g>
</g>
<!-- Node2&#45;&gt;Node3 -->
<g id="edge2" class="edge">
<title>Node2&#45;&gt;Node3</title>
<path fill="none" stroke="midnightblue" d="M316.21,-49.02C326.52,-50.52 337.26,-52.07 347.77,-53.6"/>
<polygon fill="midnightblue" stroke="midnightblue" points="347.36,-57.07 357.76,-55.05 348.37,-50.15 347.36,-57.07"/>
</g>
<!-- Node4 -->
<g id="node4" class="node">
<title>Node4</title>
<g id="a_node4"><a xlink:href="../../d0/d12/class_fat_partition.html#a836546c368e6ffe117e6ab8775d23eba" target="_top" xlink:title=" ">
<polygon fill="white" stroke="black" points="364,-0.5 364,-30.5 484,-30.5 484,-0.5 364,-0.5"/>
<text text-anchor="start" x="372" y="-18.5" font-family="Helvetica,sans-Serif" font-size="10.00">FatPartition::sectorsPer</text>
<text text-anchor="middle" x="424" y="-7.5" font-family="Helvetica,sans-Serif" font-size="10.00">Cluster</text>
</a>
</g>
</g>
<!-- Node2&#45;&gt;Node4 -->
<g id="edge3" class="edge">
<title>Node2&#45;&gt;Node4</title>
<path fill="none" stroke="midnightblue" d="M319.17,-29.95C330.58,-28.36 342.42,-26.71 353.84,-25.12"/>
<polygon fill="midnightblue" stroke="midnightblue" points="354.33,-28.59 363.75,-23.74 353.36,-21.66 354.33,-28.59"/>
</g>
</g>
</svg>
