<?xml version="1.0" encoding="UTF-8" standalone="no"?>
<!DOCTYPE svg PUBLIC "-//W3C//DTD SVG 1.1//EN"
 "http://www.w3.org/Graphics/SVG/1.1/DTD/svg11.dtd">
<!-- Generated by graphviz version 2.47.3 (20210619.1520)
 -->
<!-- Title: cpplint.IsDerivedFunction Pages: 1 -->
<svg width="585pt" height="95pt"
 viewBox="0.00 0.00 585.00 94.80" xmlns="http://www.w3.org/2000/svg" xmlns:xlink="http://www.w3.org/1999/xlink">
<g id="graph0" class="graph" transform="scale(1 1) rotate(0) translate(4 90.8)">
<title>cpplint.IsDerivedFunction</title>
<polygon fill="white" stroke="transparent" points="-4,4 -4,-90.8 581,-90.8 581,4 -4,4"/>
<!-- Node1 -->
<g id="node1" class="node">
<title>Node1</title>
<g id="a_node1"><a xlink:title=" ">
<polygon fill="#bfbfbf" stroke="black" points="0,-17.8 0,-36.8 125,-36.8 125,-17.8 0,-17.8"/>
<text text-anchor="middle" x="62.5" y="-24.8" font-family="Helvetica,sans-Serif" font-size="10.00">cpplint.IsDerivedFunction</text>
</a>
</g>
</g>
<!-- Node2 -->
<g id="node2" class="node">
<title>Node2</title>
<g id="a_node2"><a xlink:href="../../d3/d23/namespacecpplint.html#af254258f584f59c87fcfd755e3c9017a" target="_top" xlink:title=" ">
<polygon fill="white" stroke="black" points="161,-55.8 161,-74.8 283,-74.8 283,-55.8 161,-55.8"/>
<text text-anchor="middle" x="222" y="-62.8" font-family="Helvetica,sans-Serif" font-size="10.00">cpplint.CloseExpression</text>
</a>
</g>
</g>
<!-- Node1&#45;&gt;Node2 -->
<g id="edge1" class="edge">
<title>Node1&#45;&gt;Node2</title>
<path fill="none" stroke="midnightblue" d="M103.24,-36.89C124.03,-41.9 149.66,-48.09 171.7,-53.4"/>
<polygon fill="midnightblue" stroke="midnightblue" points="171,-56.84 181.54,-55.78 172.64,-50.03 171,-56.84"/>
</g>
<!-- Node4 -->
<g id="node4" class="node">
<title>Node4</title>
<g id="a_node4"><a xlink:href="../../d3/d23/namespacecpplint.html#a75eae6bb88590e904f751502c8ee4bab" target="_top" xlink:title=" ">
<polygon fill="white" stroke="black" points="498,-20.8 498,-39.8 577,-39.8 577,-20.8 498,-20.8"/>
<text text-anchor="middle" x="537.5" y="-27.8" font-family="Helvetica,sans-Serif" font-size="10.00">cpplint.Search</text>
</a>
</g>
</g>
<!-- Node1&#45;&gt;Node4 -->
<g id="edge6" class="edge">
<title>Node1&#45;&gt;Node4</title>
<path fill="none" stroke="midnightblue" d="M120.58,-17.78C198.24,-6.38 341.35,9.14 462,-8.3 474.93,-10.17 488.74,-13.77 500.92,-17.53"/>
<polygon fill="midnightblue" stroke="midnightblue" points="500.11,-20.95 510.71,-20.69 502.26,-14.29 500.11,-20.95"/>
</g>
<!-- Node5 -->
<g id="node5" class="node">
<title>Node5</title>
<g id="a_node5"><a xlink:href="../../d3/d23/namespacecpplint.html#a73ac2ecfcd9c52b4a3755176c68dea7e" target="_top" xlink:title=" ">
<polygon fill="white" stroke="black" points="353,-17.8 353,-36.8 428,-36.8 428,-17.8 353,-17.8"/>
<text text-anchor="middle" x="390.5" y="-24.8" font-family="Helvetica,sans-Serif" font-size="10.00">cpplint.Match</text>
</a>
</g>
</g>
<!-- Node1&#45;&gt;Node5 -->
<g id="edge5" class="edge">
<title>Node1&#45;&gt;Node5</title>
<path fill="none" stroke="midnightblue" d="M125.2,-27.3C188.46,-27.3 285.43,-27.3 342.65,-27.3"/>
<polygon fill="midnightblue" stroke="midnightblue" points="342.86,-30.8 352.86,-27.3 342.86,-23.8 342.86,-30.8"/>
</g>
<!-- Node3 -->
<g id="node3" class="node">
<title>Node3</title>
<g id="a_node3"><a xlink:href="../../d3/d23/namespacecpplint.html#a6e623c46c1ae3bf650454744a693a633" target="_top" xlink:title=" ">
<polygon fill="white" stroke="black" points="319,-56.3 319,-86.3 462,-86.3 462,-56.3 319,-56.3"/>
<text text-anchor="start" x="327" y="-74.3" font-family="Helvetica,sans-Serif" font-size="10.00">cpplint.FindEndOfExpression</text>
<text text-anchor="middle" x="390.5" y="-63.3" font-family="Helvetica,sans-Serif" font-size="10.00">InLine</text>
</a>
</g>
</g>
<!-- Node2&#45;&gt;Node3 -->
<g id="edge2" class="edge">
<title>Node2&#45;&gt;Node3</title>
<path fill="none" stroke="midnightblue" d="M283.11,-67.47C291.48,-67.77 300.19,-68.08 308.86,-68.39"/>
<polygon fill="midnightblue" stroke="midnightblue" points="308.88,-71.9 318.99,-68.76 309.13,-64.9 308.88,-71.9"/>
</g>
<!-- Node2&#45;&gt;Node5 -->
<g id="edge4" class="edge">
<title>Node2&#45;&gt;Node5</title>
<path fill="none" stroke="midnightblue" d="M265.01,-55.71C288.81,-50.28 318.61,-43.48 343.09,-37.89"/>
<polygon fill="midnightblue" stroke="midnightblue" points="343.91,-41.3 352.88,-35.66 342.35,-34.47 343.91,-41.3"/>
</g>
<!-- Node3&#45;&gt;Node4 -->
<g id="edge3" class="edge">
<title>Node3&#45;&gt;Node4</title>
<path fill="none" stroke="midnightblue" d="M444.67,-56.27C460.58,-51.77 477.83,-46.89 493.04,-42.59"/>
<polygon fill="midnightblue" stroke="midnightblue" points="494.04,-45.94 502.71,-39.85 492.13,-39.21 494.04,-45.94"/>
</g>
</g>
</svg>
