<?xml version="1.0" encoding="UTF-8" standalone="no"?>
<!DOCTYPE svg PUBLIC "-//W3C//DTD SVG 1.1//EN"
 "http://www.w3.org/Graphics/SVG/1.1/DTD/svg11.dtd">
<!-- Generated by graphviz version 2.47.3 (20210619.1520)
 -->
<!-- Title: SdSpiDriverBareUno::transfer Pages: 1 -->
<svg width="300pt" height="96pt"
 viewBox="0.00 0.00 300.00 96.00" xmlns="http://www.w3.org/2000/svg" xmlns:xlink="http://www.w3.org/1999/xlink">
<g id="graph0" class="graph" transform="scale(1 1) rotate(0) translate(4 92)">
<title>SdSpiDriverBareUno::transfer</title>
<polygon fill="white" stroke="transparent" points="-4,4 -4,-92 296,-92 296,4 -4,4"/>
<!-- Node1 -->
<g id="node1" class="node">
<title>Node1</title>
<g id="a_node1"><a xlink:title=" ">
<polygon fill="#bfbfbf" stroke="black" points="164,-26.5 164,-60.5 292,-60.5 292,-26.5 164,-26.5"/>
<text text-anchor="start" x="172" y="-46.9" font-family="Helvetica,sans-Serif" font-size="12.00">SdSpiDriverBareUno</text>
<text text-anchor="middle" x="228" y="-33.9" font-family="Helvetica,sans-Serif" font-size="12.00">::transfer</text>
</a>
</g>
</g>
<!-- Node2 -->
<g id="node2" class="node">
<title>Node2</title>
<g id="a_node2"><a xlink:href="../../dd/d8c/class_sd_spi_driver_bare_uno.html#ad445af894cff57ad60fc2e8bea8b617b" target="_top" xlink:title=" ">
<polygon fill="white" stroke="black" points="0,-53.5 0,-87.5 128,-87.5 128,-53.5 0,-53.5"/>
<text text-anchor="start" x="8" y="-73.9" font-family="Helvetica,sans-Serif" font-size="12.00">SdSpiDriverBareUno</text>
<text text-anchor="middle" x="64" y="-60.9" font-family="Helvetica,sans-Serif" font-size="12.00">::receive</text>
</a>
</g>
</g>
<!-- Node1&#45;&gt;Node2 -->
<g id="edge1" class="edge">
<title>Node1&#45;&gt;Node2</title>
<path fill="none" stroke="midnightblue" d="M153.91,-55.68C145.32,-57.11 136.62,-58.56 128.19,-59.97"/>
<polygon fill="midnightblue" stroke="midnightblue" points="154.61,-59.11 163.9,-54.02 153.46,-52.21 154.61,-59.11"/>
</g>
<!-- Node3 -->
<g id="node3" class="node">
<title>Node3</title>
<g id="a_node3"><a xlink:href="../../dd/d8c/class_sd_spi_driver_bare_uno.html#a012666ce7273e5e242901b7190fac163" target="_top" xlink:title=" ">
<polygon fill="white" stroke="black" points="0,-0.5 0,-34.5 128,-34.5 128,-0.5 0,-0.5"/>
<text text-anchor="start" x="8" y="-20.9" font-family="Helvetica,sans-Serif" font-size="12.00">SdSpiDriverBareUno</text>
<text text-anchor="middle" x="64" y="-7.9" font-family="Helvetica,sans-Serif" font-size="12.00">::send</text>
</a>
</g>
</g>
<!-- Node1&#45;&gt;Node3 -->
<g id="edge2" class="edge">
<title>Node1&#45;&gt;Node3</title>
<path fill="none" stroke="midnightblue" d="M153.91,-31.77C145.32,-30.39 136.62,-28.99 128.19,-27.64"/>
<polygon fill="midnightblue" stroke="midnightblue" points="153.47,-35.24 163.9,-33.37 154.58,-28.33 153.47,-35.24"/>
</g>
</g>
</svg>
