<?xml version="1.0" encoding="UTF-8" standalone="no"?>
<!DOCTYPE svg PUBLIC "-//W3C//DTD SVG 1.1//EN"
 "http://www.w3.org/Graphics/SVG/1.1/DTD/svg11.dtd">
<!-- Generated by graphviz version 2.47.3 (20210619.1520)
 -->
<!-- Title: erisAudioFilterStateVariable Pages: 1 -->
<svg width="358pt" height="238pt"
 viewBox="0.00 0.00 357.50 238.00" xmlns="http://www.w3.org/2000/svg" xmlns:xlink="http://www.w3.org/1999/xlink">
<g id="graph0" class="graph" transform="scale(1 1) rotate(0) translate(4 234)">
<title>erisAudioFilterStateVariable</title>
<!-- Node1 -->
<g id="node1" class="node">
<title>Node1</title>
<g id="a_node1"><a xlink:title=" ">
<polygon fill="#bfbfbf" stroke="black" points="41.5,-0.5 41.5,-96.5 277.5,-96.5 277.5,-0.5 41.5,-0.5"/>
<text text-anchor="middle" x="159.5" y="-79.7" font-family="Helvetica,sans-Serif" font-size="16.00">erisAudioFilterStateVariable</text>
<polyline fill="none" stroke="black" points="41.5,-70.5 277.5,-70.5 "/>
<text text-anchor="middle" x="159.5" y="-53.7" font-family="Helvetica,sans-Serif" font-size="16.00"> </text>
<polyline fill="none" stroke="black" points="41.5,-44.5 277.5,-44.5 "/>
<text text-anchor="start" x="49.5" y="-27.7" font-family="Helvetica,sans-Serif" font-size="16.00">+ erisAudioFilterStateVariable()</text>
<text text-anchor="start" x="49.5" y="-9.7" font-family="Helvetica,sans-Serif" font-size="16.00">+ void update()</text>
</a>
</g>
</g>
<!-- Node2 -->
<g id="node2" class="node">
<title>Node2</title>
<g id="a_node2"><a xlink:href="../../d7/df5/class_audio_filter_state_variable.html" target="_top" xlink:title=" ">
<polygon fill="none" stroke="black" points="0,-151.5 0,-229.5 185,-229.5 185,-151.5 0,-151.5"/>
<text text-anchor="middle" x="92.5" y="-212.7" font-family="Helvetica,sans-Serif" font-size="16.00">AudioFilterStateVariable</text>
<polyline fill="none" stroke="black" points="0,-203.5 185,-203.5 "/>
<text text-anchor="middle" x="92.5" y="-186.7" font-family="Helvetica,sans-Serif" font-size="16.00"> </text>
<polyline fill="none" stroke="black" points="0,-177.5 185,-177.5 "/>
<text text-anchor="middle" x="92.5" y="-160.7" font-family="Helvetica,sans-Serif" font-size="16.00"> </text>
</a>
</g>
</g>
<!-- Node2&#45;&gt;Node1 -->
<g id="edge1" class="edge">
<title>Node2&#45;&gt;Node1</title>
<path fill="none" stroke="midnightblue" d="M115.28,-141.9C122.26,-127.31 129.94,-111.27 136.91,-96.7"/>
<polygon fill="none" stroke="midnightblue" points="111.97,-140.71 110.81,-151.24 118.28,-143.74 111.97,-140.71"/>
</g>
<!-- Node3 -->
<g id="node3" class="node">
<title>Node3</title>
<g id="a_node3"><a xlink:title=" ">
<polygon fill="none" stroke="#bfbfbf" points="203,-151.5 203,-229.5 250,-229.5 250,-151.5 203,-151.5"/>
<text text-anchor="middle" x="226.5" y="-212.7" font-family="Helvetica,sans-Serif" font-size="16.00">char</text>
<polyline fill="none" stroke="#bfbfbf" points="203,-203.5 250,-203.5 "/>
<text text-anchor="middle" x="226.5" y="-186.7" font-family="Helvetica,sans-Serif" font-size="16.00"> </text>
<polyline fill="none" stroke="#bfbfbf" points="203,-177.5 250,-177.5 "/>
<text text-anchor="middle" x="226.5" y="-160.7" font-family="Helvetica,sans-Serif" font-size="16.00"> </text>
</a>
</g>
</g>
<!-- Node3&#45;&gt;Node1 -->
<g id="edge2" class="edge">
<title>Node3&#45;&gt;Node1</title>
<path fill="none" stroke="#404040" d="M208.19,-151.24C201.77,-137.83 194.4,-122.43 187.38,-107.75"/>
<polygon fill="none" stroke="#404040" points="187.27,-107.53 181.07,-103.84 182.09,-96.7 188.29,-100.39 187.27,-107.53"/>
<text text-anchor="middle" x="274" y="-120.2" font-family="Helvetica,sans-Serif" font-size="16.00"> +short_name_lookup</text>
</g>
</g>
</svg>
