<?xml version="1.0" encoding="UTF-8" standalone="no"?>
<!DOCTYPE svg PUBLIC "-//W3C//DTD SVG 1.1//EN"
 "http://www.w3.org/Graphics/SVG/1.1/DTD/svg11.dtd">
<!-- Generated by graphviz version 2.47.3 (20210619.1520)
 -->
<!-- Title: UserFunctions.cpp Pages: 1 -->
<svg width="136pt" height="146pt"
 viewBox="0.00 0.00 136.00 146.00" xmlns="http://www.w3.org/2000/svg" xmlns:xlink="http://www.w3.org/1999/xlink">
<g id="graph0" class="graph" transform="scale(1 1) rotate(0) translate(4 142)">
<title>UserFunctions.cpp</title>
<polygon fill="white" stroke="transparent" points="-4,4 -4,-142 132,-142 132,4 -4,4"/>
<!-- Node1 -->
<g id="node1" class="node">
<title>Node1</title>
<g id="a_node1"><a xlink:title=" ">
<polygon fill="#bfbfbf" stroke="black" points="12,-116.5 12,-137.5 126,-137.5 126,-116.5 12,-116.5"/>
<text text-anchor="middle" x="69" y="-123.9" font-family="Helvetica,sans-Serif" font-size="12.00">UserFunctions.cpp</text>
</a>
</g>
</g>
<!-- Node2 -->
<g id="node2" class="node">
<title>Node2</title>
<g id="a_node2"><a xlink:href="../../d2/d96/_low_latency_logger_a_d_x_l345_2_user_types_8h.html" target="_top" xlink:title=" ">
<polygon fill="white" stroke="black" points="28,-58.5 28,-79.5 110,-79.5 110,-58.5 28,-58.5"/>
<text text-anchor="middle" x="69" y="-65.9" font-family="Helvetica,sans-Serif" font-size="12.00">UserTypes.h</text>
</a>
</g>
</g>
<!-- Node1&#45;&gt;Node2 -->
<g id="edge1" class="edge">
<title>Node1&#45;&gt;Node2</title>
<path fill="none" stroke="midnightblue" d="M69,-116.25C69,-108.94 69,-98.69 69,-89.7"/>
<polygon fill="midnightblue" stroke="midnightblue" points="72.5,-89.64 69,-79.64 65.5,-89.64 72.5,-89.64"/>
</g>
<!-- Node3 -->
<g id="node3" class="node">
<title>Node3</title>
<g id="a_node3"><a xlink:title=" ">
<polygon fill="white" stroke="#bfbfbf" points="0,-0.5 0,-21.5 66,-21.5 66,-0.5 0,-0.5"/>
<text text-anchor="middle" x="33" y="-7.9" font-family="Helvetica,sans-Serif" font-size="12.00">Arduino.h</text>
</a>
</g>
</g>
<!-- Node2&#45;&gt;Node3 -->
<g id="edge2" class="edge">
<title>Node2&#45;&gt;Node3</title>
<path fill="none" stroke="midnightblue" d="M62.73,-58.25C57.77,-50.54 50.72,-39.56 44.72,-30.23"/>
<polygon fill="midnightblue" stroke="midnightblue" points="47.55,-28.16 39.2,-21.64 41.66,-31.95 47.55,-28.16"/>
</g>
<!-- Node4 -->
<g id="node4" class="node">
<title>Node4</title>
<g id="a_node4"><a xlink:title=" ">
<polygon fill="white" stroke="#bfbfbf" points="84,-0.5 84,-21.5 128,-21.5 128,-0.5 84,-0.5"/>
<text text-anchor="middle" x="106" y="-7.9" font-family="Helvetica,sans-Serif" font-size="12.00">SPI.h</text>
</a>
</g>
</g>
<!-- Node2&#45;&gt;Node4 -->
<g id="edge3" class="edge">
<title>Node2&#45;&gt;Node4</title>
<path fill="none" stroke="midnightblue" d="M75.44,-58.25C80.54,-50.54 87.79,-39.56 93.95,-30.23"/>
<polygon fill="midnightblue" stroke="midnightblue" points="97.04,-31.92 99.63,-21.64 91.2,-28.06 97.04,-31.92"/>
</g>
</g>
</svg>
