<?xml version="1.0" encoding="UTF-8" standalone="no"?>
<!DOCTYPE svg PUBLIC "-//W3C//DTD SVG 1.1//EN"
 "http://www.w3.org/Graphics/SVG/1.1/DTD/svg11.dtd">
<!-- Generated by graphviz version 2.47.3 (20210619.1520)
 -->
<!-- Title: fsPrintDateTime Pages: 1 -->
<svg width="464pt" height="150pt"
 viewBox="0.00 0.00 464.00 150.00" xmlns="http://www.w3.org/2000/svg" xmlns:xlink="http://www.w3.org/1999/xlink">
<g id="graph0" class="graph" transform="scale(1 1) rotate(0) translate(4 146)">
<title>fsPrintDateTime</title>
<polygon fill="white" stroke="transparent" points="-4,4 -4,-146 460,-146 460,4 -4,4"/>
<!-- Node1 -->
<g id="node1" class="node">
<title>Node1</title>
<g id="a_node1"><a xlink:title=" ">
<polygon fill="#bfbfbf" stroke="black" points="0,-60.5 0,-81.5 101,-81.5 101,-60.5 0,-60.5"/>
<text text-anchor="middle" x="50.5" y="-67.9" font-family="Helvetica,sans-Serif" font-size="12.00">fsPrintDateTime</text>
</a>
</g>
</g>
<!-- Node2 -->
<g id="node2" class="node">
<title>Node2</title>
<g id="a_node2"><a xlink:href="../../d5/dce/_fs_date_time_8cpp.html#a95582e36f7568be5d5d1c39a27f63e8f" target="_top" xlink:title=" ">
<polygon fill="white" stroke="black" points="152,-120.5 152,-141.5 223,-141.5 223,-120.5 152,-120.5"/>
<text text-anchor="middle" x="187.5" y="-127.9" font-family="Helvetica,sans-Serif" font-size="12.00">fsFmtDate</text>
</a>
</g>
</g>
<!-- Node1&#45;&gt;Node2 -->
<g id="edge1" class="edge">
<title>Node1&#45;&gt;Node2</title>
<path fill="none" stroke="midnightblue" d="M73.14,-81.52C90.34,-89.78 115.06,-101.45 137,-111 141.22,-112.84 145.68,-114.72 150.11,-116.55"/>
<polygon fill="midnightblue" stroke="midnightblue" points="149.09,-119.92 159.67,-120.47 151.74,-113.44 149.09,-119.92"/>
</g>
<!-- Node5 -->
<g id="node5" class="node">
<title>Node5</title>
<g id="a_node5"><a xlink:href="../../d5/dce/_fs_date_time_8cpp.html#a88c788d558abbf5171901005b8df8ef0" target="_top" xlink:title=" ">
<polygon fill="white" stroke="black" points="151.5,-80.5 151.5,-101.5 223.5,-101.5 223.5,-80.5 151.5,-80.5"/>
<text text-anchor="middle" x="187.5" y="-87.9" font-family="Helvetica,sans-Serif" font-size="12.00">fsFmtTime</text>
</a>
</g>
</g>
<!-- Node1&#45;&gt;Node5 -->
<g id="edge4" class="edge">
<title>Node1&#45;&gt;Node5</title>
<path fill="none" stroke="midnightblue" d="M101,-78.33C114.18,-80.29 128.35,-82.39 141.29,-84.3"/>
<polygon fill="midnightblue" stroke="midnightblue" points="140.96,-87.79 151.36,-85.79 141.98,-80.87 140.96,-87.79"/>
</g>
<!-- Node6 -->
<g id="node6" class="node">
<title>Node6</title>
<g id="a_node6"><a xlink:href="../../d5/dce/_fs_date_time_8cpp.html#a43ea8da07460cf695967c90097d9e598" target="_top" xlink:title=" ">
<polygon fill="white" stroke="black" points="138.5,-40.5 138.5,-61.5 236.5,-61.5 236.5,-40.5 138.5,-40.5"/>
<text text-anchor="middle" x="187.5" y="-47.9" font-family="Helvetica,sans-Serif" font-size="12.00">fsFmtTimeZone</text>
</a>
</g>
</g>
<!-- Node1&#45;&gt;Node6 -->
<g id="edge6" class="edge">
<title>Node1&#45;&gt;Node6</title>
<path fill="none" stroke="midnightblue" d="M101,-63.67C109.86,-62.35 119.16,-60.98 128.24,-59.63"/>
<polygon fill="midnightblue" stroke="midnightblue" points="128.98,-63.06 138.35,-58.13 127.95,-56.14 128.98,-63.06"/>
</g>
<!-- Node7 -->
<g id="node7" class="node">
<title>Node7</title>
<g id="a_node7"><a xlink:href="../../da/db3/class_print_basic.html#afdd5b2ee779058e5b7741c6e46f63f06" target="_top" xlink:title=" ">
<polygon fill="white" stroke="black" points="137,-0.5 137,-21.5 238,-21.5 238,-0.5 137,-0.5"/>
<text text-anchor="middle" x="187.5" y="-7.9" font-family="Helvetica,sans-Serif" font-size="12.00">PrintBasic::write</text>
</a>
</g>
</g>
<!-- Node1&#45;&gt;Node7 -->
<g id="edge8" class="edge">
<title>Node1&#45;&gt;Node7</title>
<path fill="none" stroke="midnightblue" d="M73.14,-60.48C90.34,-52.22 115.06,-40.55 137,-31 141.22,-29.16 145.68,-27.28 150.11,-25.45"/>
<polygon fill="midnightblue" stroke="midnightblue" points="151.74,-28.56 159.67,-21.53 149.09,-22.08 151.74,-28.56"/>
</g>
<!-- Node3 -->
<g id="node3" class="node">
<title>Node3</title>
<g id="a_node3"><a xlink:href="../../d5/dce/_fs_date_time_8cpp.html#ad019b0c1af292474528fc7b42e3da7ac" target="_top" xlink:title=" ">
<polygon fill="white" stroke="black" points="274,-80.5 274,-101.5 346,-101.5 346,-80.5 274,-80.5"/>
<text text-anchor="middle" x="310" y="-87.9" font-family="Helvetica,sans-Serif" font-size="12.00">fsFmtField</text>
</a>
</g>
</g>
<!-- Node2&#45;&gt;Node3 -->
<g id="edge2" class="edge">
<title>Node2&#45;&gt;Node3</title>
<path fill="none" stroke="midnightblue" d="M220.16,-120.49C234.57,-115.71 251.83,-109.98 267.29,-104.85"/>
<polygon fill="midnightblue" stroke="midnightblue" points="268.75,-108.05 277.13,-101.58 266.54,-101.41 268.75,-108.05"/>
</g>
<!-- Node4 -->
<g id="node4" class="node">
<title>Node4</title>
<g id="a_node4"><a xlink:href="../../d8/d73/_fmt_number_8cpp.html#aa87498a09d9a7d0480d5144c240e38f7" target="_top" xlink:title=" ">
<polygon fill="white" stroke="black" points="382,-80.5 382,-101.5 456,-101.5 456,-80.5 382,-80.5"/>
<text text-anchor="middle" x="419" y="-87.9" font-family="Helvetica,sans-Serif" font-size="12.00">fmtBase10</text>
</a>
</g>
</g>
<!-- Node3&#45;&gt;Node4 -->
<g id="edge3" class="edge">
<title>Node3&#45;&gt;Node4</title>
<path fill="none" stroke="midnightblue" d="M346.04,-91C354.18,-91 362.98,-91 371.53,-91"/>
<polygon fill="midnightblue" stroke="midnightblue" points="371.78,-94.5 381.78,-91 371.78,-87.5 371.78,-94.5"/>
</g>
<!-- Node5&#45;&gt;Node3 -->
<g id="edge5" class="edge">
<title>Node5&#45;&gt;Node3</title>
<path fill="none" stroke="midnightblue" d="M223.68,-91C236.18,-91 250.42,-91 263.65,-91"/>
<polygon fill="midnightblue" stroke="midnightblue" points="263.99,-94.5 273.99,-91 263.99,-87.5 263.99,-94.5"/>
</g>
<!-- Node6&#45;&gt;Node3 -->
<g id="edge7" class="edge">
<title>Node6&#45;&gt;Node3</title>
<path fill="none" stroke="midnightblue" d="M220.16,-61.51C234.57,-66.29 251.83,-72.02 267.29,-77.15"/>
<polygon fill="midnightblue" stroke="midnightblue" points="266.54,-80.59 277.13,-80.42 268.75,-73.95 266.54,-80.59"/>
</g>
</g>
</svg>
