<?xml version="1.0" encoding="UTF-8" standalone="no"?>
<!DOCTYPE svg PUBLIC "-//W3C//DTD SVG 1.1//EN"
 "http://www.w3.org/Graphics/SVG/1.1/DTD/svg11.dtd">
<!-- Generated by graphviz version 2.47.3 (20210619.1520)
 -->
<!-- Title: PCM1863.h Pages: 1 -->
<svg width="204pt" height="88pt"
 viewBox="0.00 0.00 204.00 88.00" xmlns="http://www.w3.org/2000/svg" xmlns:xlink="http://www.w3.org/1999/xlink">
<g id="graph0" class="graph" transform="scale(1 1) rotate(0) translate(4 84)">
<title>PCM1863.h</title>
<polygon fill="white" stroke="transparent" points="-4,4 -4,-84 200,-84 200,4 -4,4"/>
<!-- Node1 -->
<g id="node1" class="node">
<title>Node1</title>
<g id="a_node1"><a xlink:title=" ">
<polygon fill="#bfbfbf" stroke="black" points="66,-58.5 66,-79.5 146,-79.5 146,-58.5 66,-58.5"/>
<text text-anchor="middle" x="106" y="-65.9" font-family="Helvetica,sans-Serif" font-size="12.00">PCM1863.h</text>
</a>
</g>
</g>
<!-- Node2 -->
<g id="node2" class="node">
<title>Node2</title>
<g id="a_node2"><a xlink:title=" ">
<polygon fill="white" stroke="#bfbfbf" points="0,-0.5 0,-21.5 66,-21.5 66,-0.5 0,-0.5"/>
<text text-anchor="middle" x="33" y="-7.9" font-family="Helvetica,sans-Serif" font-size="12.00">Arduino.h</text>
</a>
</g>
</g>
<!-- Node1&#45;&gt;Node2 -->
<g id="edge1" class="edge">
<title>Node1&#45;&gt;Node2</title>
<path fill="none" stroke="midnightblue" d="M93.28,-58.25C82.4,-49.89 66.51,-37.71 53.78,-27.94"/>
<polygon fill="midnightblue" stroke="midnightblue" points="55.63,-24.95 45.57,-21.64 51.37,-30.51 55.63,-24.95"/>
</g>
<!-- Node3 -->
<g id="node3" class="node">
<title>Node3</title>
<g id="a_node3"><a xlink:href="../../de/d10/_h_s_i_8h.html" target="_top" xlink:title=" ">
<polygon fill="white" stroke="black" points="84,-0.5 84,-21.5 128,-21.5 128,-0.5 84,-0.5"/>
<text text-anchor="middle" x="106" y="-7.9" font-family="Helvetica,sans-Serif" font-size="12.00">HSI.h</text>
</a>
</g>
</g>
<!-- Node1&#45;&gt;Node3 -->
<g id="edge2" class="edge">
<title>Node1&#45;&gt;Node3</title>
<path fill="none" stroke="midnightblue" d="M106,-58.25C106,-50.94 106,-40.69 106,-31.7"/>
<polygon fill="midnightblue" stroke="midnightblue" points="109.5,-31.64 106,-21.64 102.5,-31.64 109.5,-31.64"/>
</g>
<!-- Node4 -->
<g id="node4" class="node">
<title>Node4</title>
<g id="a_node4"><a xlink:title=" ">
<polygon fill="white" stroke="#bfbfbf" points="146,-0.5 146,-21.5 196,-21.5 196,-0.5 146,-0.5"/>
<text text-anchor="middle" x="171" y="-7.9" font-family="Helvetica,sans-Serif" font-size="12.00">Wire.h</text>
</a>
</g>
</g>
<!-- Node1&#45;&gt;Node4 -->
<g id="edge3" class="edge">
<title>Node1&#45;&gt;Node4</title>
<path fill="none" stroke="midnightblue" d="M117.32,-58.25C126.92,-49.97 140.89,-37.94 152.17,-28.22"/>
<polygon fill="midnightblue" stroke="midnightblue" points="154.52,-30.82 159.81,-21.64 149.95,-25.52 154.52,-30.82"/>
</g>
</g>
</svg>
