<?xml version="1.0" encoding="UTF-8" standalone="no"?>
<!DOCTYPE svg PUBLIC "-//W3C//DTD SVG 1.1//EN"
 "http://www.w3.org/Graphics/SVG/1.1/DTD/svg11.dtd">
<!-- Generated by graphviz version 2.47.3 (20210619.1520)
 -->
<!-- Title: unoPinMode Pages: 1 -->
<svg width="310pt" height="49pt"
 viewBox="0.00 0.00 310.00 49.00" xmlns="http://www.w3.org/2000/svg" xmlns:xlink="http://www.w3.org/1999/xlink">
<g id="graph0" class="graph" transform="scale(1 1) rotate(0) translate(4 45)">
<title>unoPinMode</title>
<polygon fill="white" stroke="transparent" points="-4,4 -4,-45 306,-45 306,4 -4,4"/>
<!-- Node1 -->
<g id="node1" class="node">
<title>Node1</title>
<g id="a_node1"><a xlink:title=" ">
<polygon fill="#bfbfbf" stroke="black" points="0,-19.5 0,-40.5 83,-40.5 83,-19.5 0,-19.5"/>
<text text-anchor="middle" x="41.5" y="-26.9" font-family="Helvetica,sans-Serif" font-size="12.00">unoPinMode</text>
</a>
</g>
</g>
<!-- Node2 -->
<g id="node2" class="node">
<title>Node2</title>
<g id="a_node2"><a xlink:href="../../da/dd5/_sd_spi_bare_uno_driver_8h.html#ae5b9fccefe396ed911ec41fdd1a9e260" target="_top" xlink:title=" ">
<polygon fill="white" stroke="black" points="252,-19.5 252,-40.5 302,-40.5 302,-19.5 252,-19.5"/>
<text text-anchor="middle" x="277" y="-26.9" font-family="Helvetica,sans-Serif" font-size="12.00">unoBit</text>
</a>
</g>
</g>
<!-- Node1&#45;&gt;Node2 -->
<g id="edge1" class="edge">
<title>Node1&#45;&gt;Node2</title>
<path fill="none" stroke="midnightblue" d="M83.39,-30.63C94.91,-30.78 107.44,-30.92 119,-31 162.11,-31.28 172.89,-31.36 216,-31 224.28,-30.93 233.2,-30.81 241.56,-30.67"/>
<polygon fill="midnightblue" stroke="midnightblue" points="241.83,-34.17 251.77,-30.5 241.71,-27.17 241.83,-34.17"/>
</g>
<!-- Node3 -->
<g id="node3" class="node">
<title>Node3</title>
<g id="a_node3"><a xlink:href="../../da/dd5/_sd_spi_bare_uno_driver_8h.html#a49578525a0181431dd606a7b20b53c55" target="_top" xlink:title=" ">
<polygon fill="white" stroke="black" points="119,-0.5 119,-21.5 216,-21.5 216,-0.5 119,-0.5"/>
<text text-anchor="middle" x="167.5" y="-7.9" font-family="Helvetica,sans-Serif" font-size="12.00">unoDigitalWrite</text>
</a>
</g>
</g>
<!-- Node1&#45;&gt;Node3 -->
<g id="edge2" class="edge">
<title>Node1&#45;&gt;Node3</title>
<path fill="none" stroke="midnightblue" d="M83.1,-23.78C91.33,-22.52 100.12,-21.17 108.81,-19.84"/>
<polygon fill="midnightblue" stroke="midnightblue" points="109.55,-23.27 118.91,-18.29 108.49,-16.35 109.55,-23.27"/>
</g>
<!-- Node3&#45;&gt;Node2 -->
<g id="edge3" class="edge">
<title>Node3&#45;&gt;Node2</title>
<path fill="none" stroke="midnightblue" d="M216.28,-19.44C224.95,-20.98 233.84,-22.55 242.01,-23.99"/>
<polygon fill="midnightblue" stroke="midnightblue" points="241.46,-27.45 251.92,-25.74 242.68,-20.56 241.46,-27.45"/>
</g>
</g>
</svg>
