<?xml version="1.0" encoding="UTF-8" standalone="no"?>
<!DOCTYPE svg PUBLIC "-//W3C//DTD SVG 1.1//EN"
 "http://www.w3.org/Graphics/SVG/1.1/DTD/svg11.dtd">
<!-- Generated by graphviz version 2.47.3 (20210619.1520)
 -->
<!-- Title: ERISCore/lib/SdFat&#45;master/src/SdCard/SdCardInterface.h Pages: 1 -->
<svg width="2378pt" height="908pt"
 viewBox="0.00 0.00 2377.50 908.00" xmlns="http://www.w3.org/2000/svg" xmlns:xlink="http://www.w3.org/1999/xlink">
<g id="graph0" class="graph" transform="scale(1 1) rotate(0) translate(4 904)">
<title>ERISCore/lib/SdFat&#45;master/src/SdCard/SdCardInterface.h</title>
<polygon fill="white" stroke="transparent" points="-4,4 -4,-904 2373.5,-904 2373.5,4 -4,4"/>
<!-- Node1 -->
<g id="node1" class="node">
<title>Node1</title>
<g id="a_node1"><a xlink:title=" ">
<polygon fill="#bfbfbf" stroke="black" points="1433.5,-865.5 1433.5,-899.5 1650.5,-899.5 1650.5,-865.5 1433.5,-865.5"/>
<text text-anchor="start" x="1441.5" y="-885.9" font-family="Helvetica,sans-Serif" font-size="12.00">ERISCore/lib/SdFat</text>
<text text-anchor="middle" x="1542" y="-872.9" font-family="Helvetica,sans-Serif" font-size="12.00">&#45;master/src/SdCard/SdCardInterface.h</text>
</a>
</g>
</g>
<!-- Node2 -->
<g id="node2" class="node">
<title>Node2</title>
<g id="a_node2"><a xlink:href="../../d5/d3e/_sdio_card_8h.html" target="_top" xlink:title=" ">
<polygon fill="white" stroke="black" points="1349,-794.5 1349,-828.5 1531,-828.5 1531,-794.5 1349,-794.5"/>
<text text-anchor="start" x="1357" y="-814.9" font-family="Helvetica,sans-Serif" font-size="12.00">ERISCore/lib/SdFat</text>
<text text-anchor="middle" x="1440" y="-801.9" font-family="Helvetica,sans-Serif" font-size="12.00">&#45;master/src/SdCard/SdioCard.h</text>
</a>
</g>
</g>
<!-- Node1&#45;&gt;Node2 -->
<g id="edge1" class="edge">
<title>Node1&#45;&gt;Node2</title>
<path fill="none" stroke="midnightblue" d="M1509.91,-859.79C1495.01,-849.71 1477.6,-837.93 1463.88,-828.66"/>
<polygon fill="midnightblue" stroke="midnightblue" points="1508.1,-862.79 1518.34,-865.5 1512.02,-856.99 1508.1,-862.79"/>
</g>
<!-- Node69 -->
<g id="node32" class="node">
<title>Node69</title>
<g id="a_node32"><a xlink:href="../../d8/daa/_sd_spi_card_8h.html" target="_top" xlink:title="SdSpiCard class for V2 SD/SDHC cards.">
<polygon fill="white" stroke="black" points="1549.5,-794.5 1549.5,-828.5 1740.5,-828.5 1740.5,-794.5 1549.5,-794.5"/>
<text text-anchor="start" x="1557.5" y="-814.9" font-family="Helvetica,sans-Serif" font-size="12.00">ERISCore/lib/SdFat</text>
<text text-anchor="middle" x="1645" y="-801.9" font-family="Helvetica,sans-Serif" font-size="12.00">&#45;master/src/SdCard/SdSpiCard.h</text>
</a>
</g>
</g>
<!-- Node1&#45;&gt;Node69 -->
<g id="edge51" class="edge">
<title>Node1&#45;&gt;Node69</title>
<path fill="none" stroke="midnightblue" d="M1574.41,-859.79C1589.45,-849.71 1607.03,-837.93 1620.88,-828.66"/>
<polygon fill="midnightblue" stroke="midnightblue" points="1572.25,-857.02 1565.89,-865.5 1576.15,-862.84 1572.25,-857.02"/>
</g>
<!-- Node3 -->
<g id="node3" class="node">
<title>Node3</title>
<g id="a_node3"><a xlink:href="../../d2/dda/_i_l_i9341__t3___e_r_i_s_8h.html" target="_top" xlink:title=" ">
<polygon fill="white" stroke="black" points="1242.5,-329.5 1242.5,-363.5 1393.5,-363.5 1393.5,-329.5 1242.5,-329.5"/>
<text text-anchor="start" x="1250.5" y="-349.9" font-family="Helvetica,sans-Serif" font-size="12.00">ERISCore/include/ILI9341</text>
<text text-anchor="middle" x="1318" y="-336.9" font-family="Helvetica,sans-Serif" font-size="12.00">_t3_ERIS.h</text>
</a>
</g>
</g>
<!-- Node2&#45;&gt;Node3 -->
<g id="edge2" class="edge">
<title>Node2&#45;&gt;Node3</title>
<path fill="none" stroke="midnightblue" d="M1420.68,-786.04C1401.52,-759.28 1375,-714.32 1375,-670.5 1375,-670.5 1375,-670.5 1375,-507 1375,-451.72 1344.26,-391.61 1327.93,-363.58"/>
<polygon fill="midnightblue" stroke="midnightblue" points="1418.09,-788.43 1426.85,-794.39 1423.72,-784.27 1418.09,-788.43"/>
</g>
<!-- Node12 -->
<g id="node12" class="node">
<title>Node12</title>
<g id="a_node12"><a xlink:href="../../d6/dd8/_eris_core_8cpp.html" target="_top" xlink:title=" ">
<polygon fill="white" stroke="black" points="907.5,-0.5 907.5,-21.5 1068.5,-21.5 1068.5,-0.5 907.5,-0.5"/>
<text text-anchor="middle" x="988" y="-7.9" font-family="Helvetica,sans-Serif" font-size="12.00">ERISCore/src/ErisCore.cpp</text>
</a>
</g>
</g>
<!-- Node2&#45;&gt;Node12 -->
<g id="edge30" class="edge">
<title>Node2&#45;&gt;Node12</title>
<path fill="none" stroke="midnightblue" d="M1440,-783.89C1440,-755.73 1440,-709.98 1440,-670.5 1440,-670.5 1440,-670.5 1440,-507 1440,-338.97 1544.45,-265.88 1447,-129 1403.42,-67.79 1188.15,-34.35 1068.53,-20.22"/>
<polygon fill="midnightblue" stroke="midnightblue" points="1436.5,-784.12 1440,-794.12 1443.5,-784.12 1436.5,-784.12"/>
</g>
<!-- Node19 -->
<g id="node19" class="node">
<title>Node19</title>
<g id="a_node19"><a xlink:href="../../db/d31/_sd_card_8h.html" target="_top" xlink:title=" ">
<polygon fill="white" stroke="black" points="1468.5,-723.5 1468.5,-757.5 1641.5,-757.5 1641.5,-723.5 1468.5,-723.5"/>
<text text-anchor="start" x="1476.5" y="-743.9" font-family="Helvetica,sans-Serif" font-size="12.00">ERISCore/lib/SdFat</text>
<text text-anchor="middle" x="1555" y="-730.9" font-family="Helvetica,sans-Serif" font-size="12.00">&#45;master/src/SdCard/SdCard.h</text>
</a>
</g>
</g>
<!-- Node2&#45;&gt;Node19 -->
<g id="edge31" class="edge">
<title>Node2&#45;&gt;Node19</title>
<path fill="none" stroke="midnightblue" d="M1475.71,-789.07C1492.62,-778.93 1512.46,-767.02 1528.07,-757.66"/>
<polygon fill="midnightblue" stroke="midnightblue" points="1473.45,-786.35 1466.67,-794.5 1477.05,-792.35 1473.45,-786.35"/>
</g>
<!-- Node4 -->
<g id="node4" class="node">
<title>Node4</title>
<g id="a_node4"><a xlink:href="../../dc/d40/_app_manager_8cpp.html" target="_top" xlink:title=" ">
<polygon fill="white" stroke="black" points="0,-136 0,-157 182,-157 182,-136 0,-136"/>
<text text-anchor="middle" x="91" y="-143.4" font-family="Helvetica,sans-Serif" font-size="12.00">ERISCore/src/AppManager.cpp</text>
</a>
</g>
</g>
<!-- Node3&#45;&gt;Node4 -->
<g id="edge3" class="edge">
<title>Node3&#45;&gt;Node4</title>
<path fill="none" stroke="midnightblue" d="M1232.14,-334.73C1153.83,-324.68 1034.99,-308.91 932,-293 631.8,-246.63 273.1,-181.22 142.09,-157"/>
<polygon fill="midnightblue" stroke="midnightblue" points="1232.08,-338.25 1242.44,-336.04 1232.97,-331.3 1232.08,-338.25"/>
</g>
<!-- Node5 -->
<g id="node5" class="node">
<title>Node5</title>
<g id="a_node5"><a xlink:href="../../d4/df8/_i_l_i9341__t3___e_r_i_s_8cpp.html" target="_top" xlink:title=" ">
<polygon fill="white" stroke="black" points="1258,-258.5 1258,-292.5 1388,-292.5 1388,-258.5 1258,-258.5"/>
<text text-anchor="start" x="1266" y="-278.9" font-family="Helvetica,sans-Serif" font-size="12.00">ERISCore/src/ILI9341</text>
<text text-anchor="middle" x="1323" y="-265.9" font-family="Helvetica,sans-Serif" font-size="12.00">_t3_ERIS.cpp</text>
</a>
</g>
</g>
<!-- Node3&#45;&gt;Node5 -->
<g id="edge4" class="edge">
<title>Node3&#45;&gt;Node5</title>
<path fill="none" stroke="midnightblue" d="M1319.9,-319.25C1320.54,-310.39 1321.24,-300.77 1321.81,-292.9"/>
<polygon fill="midnightblue" stroke="midnightblue" points="1316.39,-319.27 1319.16,-329.5 1323.37,-319.78 1316.39,-319.27"/>
</g>
<!-- Node6 -->
<g id="node6" class="node">
<title>Node6</title>
<g id="a_node6"><a xlink:href="../../d9/d3e/_app_base_class_8h.html" target="_top" xlink:title=" ">
<polygon fill="white" stroke="black" points="1078,-258.5 1078,-292.5 1240,-292.5 1240,-258.5 1078,-258.5"/>
<text text-anchor="start" x="1086" y="-278.9" font-family="Helvetica,sans-Serif" font-size="12.00">ERISCore/include/AppBase</text>
<text text-anchor="middle" x="1159" y="-265.9" font-family="Helvetica,sans-Serif" font-size="12.00">Class.h</text>
</a>
</g>
</g>
<!-- Node3&#45;&gt;Node6 -->
<g id="edge5" class="edge">
<title>Node3&#45;&gt;Node6</title>
<path fill="none" stroke="midnightblue" d="M1271.81,-325.45C1247.68,-314.98 1218.56,-302.35 1195.95,-292.54"/>
<polygon fill="midnightblue" stroke="midnightblue" points="1270.56,-328.73 1281.12,-329.5 1273.34,-322.3 1270.56,-328.73"/>
</g>
<!-- Node8 -->
<g id="node8" class="node">
<title>Node8</title>
<g id="a_node8"><a xlink:href="../../df/d72/_app_manager_8h.html" target="_top" xlink:title=" ">
<polygon fill="white" stroke="black" points="672,-200.5 672,-221.5 862,-221.5 862,-200.5 672,-200.5"/>
<text text-anchor="middle" x="767" y="-207.9" font-family="Helvetica,sans-Serif" font-size="12.00">ERISCore/include/AppManager.h</text>
</a>
</g>
</g>
<!-- Node3&#45;&gt;Node8 -->
<g id="edge29" class="edge">
<title>Node3&#45;&gt;Node8</title>
<path fill="none" stroke="midnightblue" d="M1232.24,-328.61C1184.11,-318.84 1123.05,-305.94 1069,-293 970.81,-269.5 855.88,-237.39 800.37,-221.59"/>
<polygon fill="midnightblue" stroke="midnightblue" points="1231.81,-332.1 1242.3,-330.65 1233.2,-325.24 1231.81,-332.1"/>
</g>
<!-- Node7 -->
<g id="node7" class="node">
<title>Node7</title>
<g id="a_node7"><a xlink:href="../../d4/db1/_app_base_class_8cpp.html" target="_top" xlink:title=" ">
<polygon fill="white" stroke="black" points="1062,-136 1062,-157 1256,-157 1256,-136 1062,-136"/>
<text text-anchor="middle" x="1159" y="-143.4" font-family="Helvetica,sans-Serif" font-size="12.00">ERISCore/src/AppBaseClass.cpp</text>
</a>
</g>
</g>
<!-- Node6&#45;&gt;Node7 -->
<g id="edge6" class="edge">
<title>Node6&#45;&gt;Node7</title>
<path fill="none" stroke="midnightblue" d="M1159,-248.05C1159,-219.79 1159,-176.49 1159,-157.27"/>
<polygon fill="midnightblue" stroke="midnightblue" points="1155.5,-248.42 1159,-258.42 1162.5,-248.42 1155.5,-248.42"/>
</g>
<!-- Node6&#45;&gt;Node8 -->
<g id="edge7" class="edge">
<title>Node6&#45;&gt;Node8</title>
<path fill="none" stroke="midnightblue" d="M1067.5,-259.91C993.26,-248.07 890.76,-231.73 826.71,-221.52"/>
<polygon fill="midnightblue" stroke="midnightblue" points="1067.35,-263.43 1077.78,-261.55 1068.45,-256.52 1067.35,-263.43"/>
</g>
<!-- Node16 -->
<g id="node16" class="node">
<title>Node16</title>
<g id="a_node16"><a xlink:href="../../db/d6b/app_serial_command_interface_8h.html" target="_top" xlink:title=" ">
<polygon fill="white" stroke="black" points="1274,-129.5 1274,-163.5 1438,-163.5 1438,-129.5 1274,-129.5"/>
<text text-anchor="start" x="1282" y="-149.9" font-family="Helvetica,sans-Serif" font-size="12.00">ERISCore/include/appSerial</text>
<text text-anchor="middle" x="1356" y="-136.9" font-family="Helvetica,sans-Serif" font-size="12.00">CommandInterface.h</text>
</a>
</g>
</g>
<!-- Node6&#45;&gt;Node16 -->
<g id="edge28" class="edge">
<title>Node6&#45;&gt;Node16</title>
<path fill="none" stroke="midnightblue" d="M1192.4,-252.97C1231.61,-227.69 1295.75,-186.34 1330.94,-163.65"/>
<polygon fill="midnightblue" stroke="midnightblue" points="1190.46,-250.06 1183.95,-258.42 1194.25,-255.94 1190.46,-250.06"/>
</g>
<!-- Node8&#45;&gt;Node4 -->
<g id="edge10" class="edge">
<title>Node8&#45;&gt;Node4</title>
<path fill="none" stroke="midnightblue" d="M661.63,-203.9C546.86,-196.7 358.01,-183.23 196,-164 179.87,-162.09 162.43,-159.54 146.47,-157.02"/>
<polygon fill="midnightblue" stroke="midnightblue" points="661.61,-207.41 671.81,-204.54 662.05,-200.42 661.61,-207.41"/>
</g>
<!-- Node8&#45;&gt;Node7 -->
<g id="edge8" class="edge">
<title>Node8&#45;&gt;Node7</title>
<path fill="none" stroke="midnightblue" d="M837.22,-198.8C911.96,-186.89 1028.94,-168.24 1099.36,-157.01"/>
<polygon fill="midnightblue" stroke="midnightblue" points="836.29,-195.41 826.96,-200.44 837.39,-202.32 836.29,-195.41"/>
</g>
<!-- Node9 -->
<g id="node9" class="node">
<title>Node9</title>
<g id="a_node9"><a xlink:href="../../d6/d0f/app_serial_command_interface_8cpp.html" target="_top" xlink:title=" ">
<polygon fill="white" stroke="black" points="984.5,-58.5 984.5,-92.5 1181.5,-92.5 1181.5,-58.5 984.5,-58.5"/>
<text text-anchor="start" x="992.5" y="-78.9" font-family="Helvetica,sans-Serif" font-size="12.00">ERISCore/src/appSerialCommand</text>
<text text-anchor="middle" x="1083" y="-65.9" font-family="Helvetica,sans-Serif" font-size="12.00">Interface.cpp</text>
</a>
</g>
</g>
<!-- Node8&#45;&gt;Node9 -->
<g id="edge9" class="edge">
<title>Node8&#45;&gt;Node9</title>
<path fill="none" stroke="midnightblue" d="M863.99,-199.17C922.22,-191.31 989.76,-179.36 1015,-164 1043.43,-146.69 1064.49,-112.82 1075.16,-92.67"/>
<polygon fill="midnightblue" stroke="midnightblue" points="863.44,-195.72 853.99,-200.5 864.36,-202.66 863.44,-195.72"/>
</g>
<!-- Node10 -->
<g id="node10" class="node">
<title>Node10</title>
<g id="a_node10"><a xlink:href="../../d8/d1f/app_scope_8h.html" target="_top" xlink:title=" ">
<polygon fill="white" stroke="black" points="276,-136 276,-157 452,-157 452,-136 276,-136"/>
<text text-anchor="middle" x="364" y="-143.4" font-family="Helvetica,sans-Serif" font-size="12.00">ERISCore/include/appScope.h</text>
</a>
</g>
</g>
<!-- Node8&#45;&gt;Node10 -->
<g id="edge11" class="edge">
<title>Node8&#45;&gt;Node10</title>
<path fill="none" stroke="midnightblue" d="M693.64,-198.97C632.68,-189.76 543.66,-176.22 466,-164 451.82,-161.77 436.55,-159.32 422.24,-157.01"/>
<polygon fill="midnightblue" stroke="midnightblue" points="693.15,-202.44 703.56,-200.47 694.19,-195.51 693.15,-202.44"/>
</g>
<!-- Node11 -->
<g id="node11" class="node">
<title>Node11</title>
<g id="a_node11"><a xlink:href="../../d9/db6/_app_audio_to_polyphonic_8h.html" target="_top" xlink:title="Application Example.">
<polygon fill="white" stroke="black" points="611.5,-58.5 611.5,-92.5 776.5,-92.5 776.5,-58.5 611.5,-58.5"/>
<text text-anchor="start" x="619.5" y="-78.9" font-family="Helvetica,sans-Serif" font-size="12.00">ERISCore/include/AppAudio</text>
<text text-anchor="middle" x="694" y="-65.9" font-family="Helvetica,sans-Serif" font-size="12.00">ToPolyphonic.h</text>
</a>
</g>
</g>
<!-- Node8&#45;&gt;Node11 -->
<g id="edge27" class="edge">
<title>Node8&#45;&gt;Node11</title>
<path fill="none" stroke="midnightblue" d="M661.94,-205.56C596.14,-200.31 519.98,-188.89 499,-164 488.97,-152.11 489.54,-141.35 499,-129 513.1,-110.6 564.67,-97.2 611.24,-88.54"/>
<polygon fill="midnightblue" stroke="midnightblue" points="661.74,-209.05 671.98,-206.31 662.27,-202.07 661.74,-209.05"/>
</g>
<!-- Node13 -->
<g id="node13" class="node">
<title>Node13</title>
<g id="a_node13"><a xlink:href="../../d4/d75/app_c_q_t_8h.html" target="_top" xlink:title=" ">
<polygon fill="white" stroke="black" points="508.5,-136 508.5,-157 675.5,-157 675.5,-136 508.5,-136"/>
<text text-anchor="middle" x="592" y="-143.4" font-family="Helvetica,sans-Serif" font-size="12.00">ERISCore/include/appCQT.h</text>
</a>
</g>
</g>
<!-- Node8&#45;&gt;Node13 -->
<g id="edge14" class="edge">
<title>Node8&#45;&gt;Node13</title>
<path fill="none" stroke="midnightblue" d="M730.21,-196.86C696.85,-184.95 648.49,-167.67 618.7,-157.04"/>
<polygon fill="midnightblue" stroke="midnightblue" points="729.45,-200.3 740.04,-200.37 731.8,-193.71 729.45,-200.3"/>
</g>
<!-- Node14 -->
<g id="node14" class="node">
<title>Node14</title>
<g id="a_node14"><a xlink:href="../../dc/ddf/control_button_8h.html" target="_top" xlink:title=" ">
<polygon fill="white" stroke="black" points="693.5,-129.5 693.5,-163.5 840.5,-163.5 840.5,-129.5 693.5,-129.5"/>
<text text-anchor="start" x="701.5" y="-149.9" font-family="Helvetica,sans-Serif" font-size="12.00">ERISCore/include/control</text>
<text text-anchor="middle" x="767" y="-136.9" font-family="Helvetica,sans-Serif" font-size="12.00">Button.h</text>
</a>
</g>
</g>
<!-- Node8&#45;&gt;Node14 -->
<g id="edge16" class="edge">
<title>Node8&#45;&gt;Node14</title>
<path fill="none" stroke="midnightblue" d="M767,-190.07C767,-181.58 767,-171.8 767,-163.76"/>
<polygon fill="midnightblue" stroke="midnightblue" points="763.5,-190.23 767,-200.23 770.5,-190.23 763.5,-190.23"/>
</g>
<!-- Node15 -->
<g id="node15" class="node">
<title>Node15</title>
<g id="a_node15"><a xlink:href="../../dd/d93/app_reprogram_8h.html" target="_top" xlink:title=" ">
<polygon fill="white" stroke="black" points="128.5,-65 128.5,-86 329.5,-86 329.5,-65 128.5,-65"/>
<text text-anchor="middle" x="229" y="-72.4" font-family="Helvetica,sans-Serif" font-size="12.00">ERISCore/include/appReprogram.h</text>
</a>
</g>
</g>
<!-- Node8&#45;&gt;Node15 -->
<g id="edge18" class="edge">
<title>Node8&#45;&gt;Node15</title>
<path fill="none" stroke="midnightblue" d="M661.98,-206.93C520.73,-201.85 283.63,-189.6 253,-164 229.67,-144.5 227.88,-104.67 228.41,-86.25"/>
<polygon fill="midnightblue" stroke="midnightblue" points="661.86,-210.43 671.98,-207.28 662.11,-203.43 661.86,-210.43"/>
</g>
<!-- Node8&#45;&gt;Node16 -->
<g id="edge20" class="edge">
<title>Node8&#45;&gt;Node16</title>
<path fill="none" stroke="midnightblue" d="M872.49,-202.94C973.51,-195.55 1130.05,-182.43 1265,-164 1267.86,-163.61 1270.77,-163.19 1273.71,-162.75"/>
<polygon fill="midnightblue" stroke="midnightblue" points="872.01,-199.47 862.29,-203.68 872.51,-206.45 872.01,-199.47"/>
</g>
<!-- Node17 -->
<g id="node17" class="node">
<title>Node17</title>
<g id="a_node17"><a xlink:href="../../d3/d0e/app_template_8h.html" target="_top" xlink:title=" ">
<polygon fill="white" stroke="black" points="384.5,-65 384.5,-86 575.5,-86 575.5,-65 384.5,-65"/>
<text text-anchor="middle" x="480" y="-72.4" font-family="Helvetica,sans-Serif" font-size="12.00">ERISCore/include/appTemplate.h</text>
</a>
</g>
</g>
<!-- Node8&#45;&gt;Node17 -->
<g id="edge23" class="edge">
<title>Node8&#45;&gt;Node17</title>
<path fill="none" stroke="midnightblue" d="M661.7,-207.73C522.88,-203.62 293.04,-192.55 267,-164 225.78,-118.81 309.91,-96.38 384.29,-85.65"/>
<polygon fill="midnightblue" stroke="midnightblue" points="661.85,-211.23 671.95,-208.02 662.06,-204.23 661.85,-211.23"/>
</g>
<!-- Node18 -->
<g id="node18" class="node">
<title>Node18</title>
<g id="a_node18"><a xlink:href="../../d4/d50/control_slider_8h.html" target="_top" xlink:title=" ">
<polygon fill="white" stroke="black" points="858.5,-129.5 858.5,-163.5 1005.5,-163.5 1005.5,-129.5 858.5,-129.5"/>
<text text-anchor="start" x="866.5" y="-149.9" font-family="Helvetica,sans-Serif" font-size="12.00">ERISCore/include/control</text>
<text text-anchor="middle" x="932" y="-136.9" font-family="Helvetica,sans-Serif" font-size="12.00">Slider.h</text>
</a>
</g>
</g>
<!-- Node8&#45;&gt;Node18 -->
<g id="edge25" class="edge">
<title>Node8&#45;&gt;Node18</title>
<path fill="none" stroke="midnightblue" d="M802.07,-196.71C827.64,-187.03 862.4,-173.86 889.53,-163.59"/>
<polygon fill="midnightblue" stroke="midnightblue" points="800.53,-193.56 792.42,-200.37 803.01,-200.1 800.53,-193.56"/>
</g>
<!-- Node10&#45;&gt;Node11 -->
<g id="edge12" class="edge">
<title>Node10&#45;&gt;Node11</title>
<path fill="none" stroke="midnightblue" d="M419.65,-133.86C473.89,-122.52 556.8,-105.19 617.28,-92.54"/>
<polygon fill="midnightblue" stroke="midnightblue" points="418.61,-130.51 409.54,-135.98 420.04,-137.36 418.61,-130.51"/>
</g>
<!-- Node11&#45;&gt;Node12 -->
<g id="edge13" class="edge">
<title>Node11&#45;&gt;Node12</title>
<path fill="none" stroke="midnightblue" d="M779.16,-56.4C832.71,-45.01 899.63,-30.79 943.07,-21.55"/>
<polygon fill="midnightblue" stroke="midnightblue" points="778.38,-52.98 769.33,-58.49 779.84,-59.83 778.38,-52.98"/>
</g>
<!-- Node13&#45;&gt;Node11 -->
<g id="edge15" class="edge">
<title>Node13&#45;&gt;Node11</title>
<path fill="none" stroke="midnightblue" d="M614.67,-130.16C631.14,-119.02 653.4,-103.97 670.14,-92.64"/>
<polygon fill="midnightblue" stroke="midnightblue" points="612.5,-127.4 606.18,-135.91 616.43,-133.2 612.5,-127.4"/>
</g>
<!-- Node14&#45;&gt;Node11 -->
<g id="edge17" class="edge">
<title>Node14&#45;&gt;Node11</title>
<path fill="none" stroke="midnightblue" d="M742.53,-122.37C732.21,-112.62 720.45,-101.5 711.09,-92.66"/>
<polygon fill="midnightblue" stroke="midnightblue" points="740.4,-125.17 750.07,-129.5 745.21,-120.08 740.4,-125.17"/>
</g>
<!-- Node15&#45;&gt;Node12 -->
<g id="edge19" class="edge">
<title>Node15&#45;&gt;Node12</title>
<path fill="none" stroke="midnightblue" d="M318.47,-63.85C337.14,-61.78 356.7,-59.72 375,-58 565.46,-40.1 789.74,-24.71 907.1,-17.1"/>
<polygon fill="midnightblue" stroke="midnightblue" points="318.05,-60.37 308.51,-64.97 318.83,-67.33 318.05,-60.37"/>
</g>
<!-- Node16&#45;&gt;Node9 -->
<g id="edge21" class="edge">
<title>Node16&#45;&gt;Node9</title>
<path fill="none" stroke="midnightblue" d="M1282.94,-127.03C1240.38,-116.28 1187.24,-102.85 1146.45,-92.54"/>
<polygon fill="midnightblue" stroke="midnightblue" points="1282.13,-130.44 1292.68,-129.5 1283.84,-123.65 1282.13,-130.44"/>
</g>
<!-- Node16&#45;&gt;Node12 -->
<g id="edge22" class="edge">
<title>Node16&#45;&gt;Node12</title>
<path fill="none" stroke="midnightblue" d="M1322.04,-124.04C1289.52,-104.35 1238.52,-75.63 1191,-58 1144.92,-40.91 1090.51,-28.99 1049.62,-21.58"/>
<polygon fill="midnightblue" stroke="midnightblue" points="1320.34,-127.11 1330.7,-129.34 1324,-121.14 1320.34,-127.11"/>
</g>
<!-- Node17&#45;&gt;Node12 -->
<g id="edge24" class="edge">
<title>Node17&#45;&gt;Node12</title>
<path fill="none" stroke="midnightblue" d="M559.27,-63.59C573.49,-61.69 588.18,-59.76 602,-58 707.44,-44.59 829.25,-30.27 907.37,-21.23"/>
<polygon fill="midnightblue" stroke="midnightblue" points="558.46,-60.17 549.01,-64.97 559.39,-67.11 558.46,-60.17"/>
</g>
<!-- Node18&#45;&gt;Node11 -->
<g id="edge26" class="edge">
<title>Node18&#45;&gt;Node11</title>
<path fill="none" stroke="midnightblue" d="M867.13,-126.69C830.23,-116 784.5,-102.74 749.31,-92.54"/>
<polygon fill="midnightblue" stroke="midnightblue" points="866.22,-130.07 876.8,-129.5 868.17,-123.35 866.22,-130.07"/>
</g>
<!-- Node20 -->
<g id="node20" class="node">
<title>Node20</title>
<g id="a_node20"><a xlink:href="../../d7/df6/_block_device_8h.html" target="_top" xlink:title=" ">
<polygon fill="white" stroke="black" points="1722.5,-652.5 1722.5,-686.5 1923.5,-686.5 1923.5,-652.5 1722.5,-652.5"/>
<text text-anchor="start" x="1730.5" y="-672.9" font-family="Helvetica,sans-Serif" font-size="12.00">ERISCore/lib/SdFat</text>
<text text-anchor="middle" x="1823" y="-659.9" font-family="Helvetica,sans-Serif" font-size="12.00">&#45;master/src/common/BlockDevice.h</text>
</a>
</g>
</g>
<!-- Node19&#45;&gt;Node20 -->
<g id="edge32" class="edge">
<title>Node19&#45;&gt;Node20</title>
<path fill="none" stroke="midnightblue" d="M1626.99,-720.97C1668.72,-710.22 1720.75,-696.83 1760.72,-686.54"/>
<polygon fill="midnightblue" stroke="midnightblue" points="1625.97,-717.61 1617.16,-723.5 1627.72,-724.39 1625.97,-717.61"/>
</g>
<!-- Node52 -->
<g id="node29" class="node">
<title>Node52</title>
<g id="a_node29"><a xlink:href="../../d5/ddc/_sd_fat_8h.html" target="_top" xlink:title="main SdFs include file.">
<polygon fill="white" stroke="black" points="1468,-407 1468,-441 1588,-441 1588,-407 1468,-407"/>
<text text-anchor="start" x="1476" y="-427.4" font-family="Helvetica,sans-Serif" font-size="12.00">ERISCore/lib/SdFat</text>
<text text-anchor="middle" x="1528" y="-414.4" font-family="Helvetica,sans-Serif" font-size="12.00">&#45;master/src/SdFat.h</text>
</a>
</g>
</g>
<!-- Node19&#45;&gt;Node52 -->
<g id="edge50" class="edge">
<title>Node19&#45;&gt;Node52</title>
<path fill="none" stroke="midnightblue" d="M1542.73,-713.86C1531.54,-689.32 1515.51,-650.97 1507,-616 1498.12,-579.52 1500,-569.49 1498,-532 1496.86,-510.7 1493.03,-504.75 1498,-484 1501.7,-468.58 1510.12,-452.64 1517.11,-441.22"/>
<polygon fill="midnightblue" stroke="midnightblue" points="1539.66,-715.57 1547.04,-723.17 1546.02,-712.63 1539.66,-715.57"/>
</g>
<!-- Node21 -->
<g id="node21" class="node">
<title>Node21</title>
<g id="a_node21"><a xlink:href="../../d1/d0d/_fs_cache_8h.html" target="_top" xlink:title="Common cache code for exFAT and FAT.">
<polygon fill="white" stroke="black" points="1945.5,-575 1945.5,-609 2128.5,-609 2128.5,-575 1945.5,-575"/>
<text text-anchor="start" x="1953.5" y="-595.4" font-family="Helvetica,sans-Serif" font-size="12.00">ERISCore/lib/SdFat</text>
<text text-anchor="middle" x="2037" y="-582.4" font-family="Helvetica,sans-Serif" font-size="12.00">&#45;master/src/common/FsCache.h</text>
</a>
</g>
</g>
<!-- Node20&#45;&gt;Node21 -->
<g id="edge33" class="edge">
<title>Node20&#45;&gt;Node21</title>
<path fill="none" stroke="midnightblue" d="M1878.01,-649.09C1913.15,-636.7 1958.16,-620.82 1991.31,-609.12"/>
<polygon fill="midnightblue" stroke="midnightblue" points="1876.65,-645.86 1868.38,-652.49 1878.98,-652.46 1876.65,-645.86"/>
</g>
<!-- Node23 -->
<g id="node23" class="node">
<title>Node23</title>
<g id="a_node23"><a xlink:href="../../d7/dc8/_ex_fat_partition_8h.html" target="_top" xlink:title="ExFatPartition include file.">
<polygon fill="white" stroke="black" points="1826.5,-484.5 1826.5,-531.5 1951.5,-531.5 1951.5,-484.5 1826.5,-484.5"/>
<text text-anchor="start" x="1834.5" y="-517.9" font-family="Helvetica,sans-Serif" font-size="12.00">ERISCore/lib/SdFat</text>
<text text-anchor="start" x="1834.5" y="-504.9" font-family="Helvetica,sans-Serif" font-size="12.00">&#45;master/src/ExFatLib</text>
<text text-anchor="middle" x="1889" y="-491.9" font-family="Helvetica,sans-Serif" font-size="12.00">/ExFatPartition.h</text>
</a>
</g>
</g>
<!-- Node20&#45;&gt;Node23 -->
<g id="edge45" class="edge">
<title>Node20&#45;&gt;Node23</title>
<path fill="none" stroke="midnightblue" d="M1845.81,-644.71C1852.88,-636.22 1860.1,-626.21 1865,-616 1878.1,-588.71 1884.19,-554.05 1886.92,-531.69"/>
<polygon fill="midnightblue" stroke="midnightblue" points="1843.08,-642.51 1839.15,-652.35 1848.36,-647.11 1843.08,-642.51"/>
</g>
<!-- Node54 -->
<g id="node25" class="node">
<title>Node54</title>
<g id="a_node25"><a xlink:href="../../db/dd3/_fat_partition_8h.html" target="_top" xlink:title="FatPartition class.">
<polygon fill="white" stroke="black" points="2184.5,-491 2184.5,-525 2369.5,-525 2369.5,-491 2184.5,-491"/>
<text text-anchor="start" x="2192.5" y="-511.4" font-family="Helvetica,sans-Serif" font-size="12.00">ERISCore/lib/SdFat</text>
<text text-anchor="middle" x="2277" y="-498.4" font-family="Helvetica,sans-Serif" font-size="12.00">&#45;master/src/FatLib/FatPartition.h</text>
</a>
</g>
</g>
<!-- Node20&#45;&gt;Node54 -->
<g id="edge49" class="edge">
<title>Node20&#45;&gt;Node54</title>
<path fill="none" stroke="midnightblue" d="M1933.96,-663.27C1996.08,-657.13 2073.72,-643.99 2138,-616 2188.82,-593.88 2237.63,-549.13 2261.61,-525.11"/>
<polygon fill="midnightblue" stroke="midnightblue" points="1933.37,-659.81 1923.74,-664.24 1934.02,-666.78 1933.37,-659.81"/>
</g>
<!-- Node67 -->
<g id="node27" class="node">
<title>Node67</title>
<g id="a_node27"><a xlink:href="../../d8/d58/_ex_fat_formatter_8h.html" target="_top" xlink:title=" ">
<polygon fill="white" stroke="black" points="1515.5,-568.5 1515.5,-615.5 1640.5,-615.5 1640.5,-568.5 1515.5,-568.5"/>
<text text-anchor="start" x="1523.5" y="-601.9" font-family="Helvetica,sans-Serif" font-size="12.00">ERISCore/lib/SdFat</text>
<text text-anchor="start" x="1523.5" y="-588.9" font-family="Helvetica,sans-Serif" font-size="12.00">&#45;master/src/ExFatLib</text>
<text text-anchor="middle" x="1578" y="-575.9" font-family="Helvetica,sans-Serif" font-size="12.00">/ExFatFormatter.h</text>
</a>
</g>
</g>
<!-- Node20&#45;&gt;Node67 -->
<g id="edge39" class="edge">
<title>Node20&#45;&gt;Node67</title>
<path fill="none" stroke="midnightblue" d="M1761.41,-649.52C1724.55,-638.16 1677.81,-623.76 1640.75,-612.34"/>
<polygon fill="midnightblue" stroke="midnightblue" points="1760.45,-652.89 1771.04,-652.49 1762.52,-646.2 1760.45,-652.89"/>
</g>
<!-- Node68 -->
<g id="node30" class="node">
<title>Node68</title>
<g id="a_node30"><a xlink:href="../../d8/d20/_fat_formatter_8h.html" target="_top" xlink:title=" ">
<polygon fill="white" stroke="black" points="1664,-575 1664,-609 1856,-609 1856,-575 1664,-575"/>
<text text-anchor="start" x="1672" y="-595.4" font-family="Helvetica,sans-Serif" font-size="12.00">ERISCore/lib/SdFat</text>
<text text-anchor="middle" x="1760" y="-582.4" font-family="Helvetica,sans-Serif" font-size="12.00">&#45;master/src/FatLib/FatFormatter.h</text>
</a>
</g>
</g>
<!-- Node20&#45;&gt;Node68 -->
<g id="edge46" class="edge">
<title>Node20&#45;&gt;Node68</title>
<path fill="none" stroke="midnightblue" d="M1803,-644.53C1793.4,-633.03 1782.15,-619.54 1773.56,-609.25"/>
<polygon fill="midnightblue" stroke="midnightblue" points="1800.55,-647.05 1809.64,-652.49 1805.92,-642.57 1800.55,-647.05"/>
</g>
<!-- Node22 -->
<g id="node22" class="node">
<title>Node22</title>
<g id="a_node22"><a xlink:href="../../d0/d75/_fs_cache_8cpp.html" target="_top" xlink:title=" ">
<polygon fill="white" stroke="black" points="1969.5,-491 1969.5,-525 2166.5,-525 2166.5,-491 1969.5,-491"/>
<text text-anchor="start" x="1977.5" y="-511.4" font-family="Helvetica,sans-Serif" font-size="12.00">ERISCore/lib/SdFat</text>
<text text-anchor="middle" x="2068" y="-498.4" font-family="Helvetica,sans-Serif" font-size="12.00">&#45;master/src/common/FsCache.cpp</text>
</a>
</g>
</g>
<!-- Node21&#45;&gt;Node22 -->
<g id="edge34" class="edge">
<title>Node21&#45;&gt;Node22</title>
<path fill="none" stroke="midnightblue" d="M2046.7,-565.34C2051.67,-552.21 2057.56,-536.61 2061.89,-525.17"/>
<polygon fill="midnightblue" stroke="midnightblue" points="2043.39,-564.21 2043.12,-574.8 2049.93,-566.68 2043.39,-564.21"/>
</g>
<!-- Node21&#45;&gt;Node23 -->
<g id="edge35" class="edge">
<title>Node21&#45;&gt;Node23</title>
<path fill="none" stroke="midnightblue" d="M1999.08,-569.99C1977.9,-558.26 1951.49,-543.62 1929.85,-531.63"/>
<polygon fill="midnightblue" stroke="midnightblue" points="1997.67,-573.21 2008.11,-574.99 2001.06,-567.09 1997.67,-573.21"/>
</g>
<!-- Node21&#45;&gt;Node54 -->
<g id="edge37" class="edge">
<title>Node21&#45;&gt;Node54</title>
<path fill="none" stroke="midnightblue" d="M2093.54,-571.68C2135.04,-557.5 2190.76,-538.47 2229.86,-525.1"/>
<polygon fill="midnightblue" stroke="midnightblue" points="2092.18,-568.45 2083.84,-574.99 2094.44,-575.07 2092.18,-568.45"/>
</g>
<!-- Node24 -->
<g id="node24" class="node">
<title>Node24</title>
<g id="a_node24"><a xlink:href="../../dd/ddc/_ex_fat_file_8h.html" target="_top" xlink:title="ExFatFile class.">
<polygon fill="white" stroke="red" points="1826.5,-400.5 1826.5,-447.5 1951.5,-447.5 1951.5,-400.5 1826.5,-400.5"/>
<text text-anchor="start" x="1834.5" y="-433.9" font-family="Helvetica,sans-Serif" font-size="12.00">ERISCore/lib/SdFat</text>
<text text-anchor="start" x="1834.5" y="-420.9" font-family="Helvetica,sans-Serif" font-size="12.00">&#45;master/src/ExFatLib</text>
<text text-anchor="middle" x="1889" y="-407.9" font-family="Helvetica,sans-Serif" font-size="12.00">/ExFatFile.h</text>
</a>
</g>
</g>
<!-- Node23&#45;&gt;Node24 -->
<g id="edge36" class="edge">
<title>Node23&#45;&gt;Node24</title>
<path fill="none" stroke="midnightblue" d="M1889,-474.11C1889,-465.26 1889,-455.88 1889,-447.72"/>
<polygon fill="midnightblue" stroke="midnightblue" points="1885.5,-474.16 1889,-484.16 1892.5,-474.16 1885.5,-474.16"/>
</g>
<!-- Node55 -->
<g id="node26" class="node">
<title>Node55</title>
<g id="a_node26"><a xlink:href="../../d6/d7b/_fat_file_8h.html" target="_top" xlink:title="FatFile class.">
<polygon fill="white" stroke="red" points="2196.5,-407 2196.5,-441 2357.5,-441 2357.5,-407 2196.5,-407"/>
<text text-anchor="start" x="2204.5" y="-427.4" font-family="Helvetica,sans-Serif" font-size="12.00">ERISCore/lib/SdFat</text>
<text text-anchor="middle" x="2277" y="-414.4" font-family="Helvetica,sans-Serif" font-size="12.00">&#45;master/src/FatLib/FatFile.h</text>
</a>
</g>
</g>
<!-- Node54&#45;&gt;Node55 -->
<g id="edge38" class="edge">
<title>Node54&#45;&gt;Node55</title>
<path fill="none" stroke="midnightblue" d="M2277,-480.57C2277,-467.6 2277,-452.39 2277,-441.17"/>
<polygon fill="midnightblue" stroke="midnightblue" points="2273.5,-480.8 2277,-490.8 2280.5,-480.8 2273.5,-480.8"/>
</g>
<!-- Node26 -->
<g id="node28" class="node">
<title>Node26</title>
<g id="a_node28"><a xlink:href="../../d8/d23/_ex_fat_lib_8h.html" target="_top" xlink:title=" ">
<polygon fill="white" stroke="red" points="1506.5,-484.5 1506.5,-531.5 1631.5,-531.5 1631.5,-484.5 1506.5,-484.5"/>
<text text-anchor="start" x="1514.5" y="-517.9" font-family="Helvetica,sans-Serif" font-size="12.00">ERISCore/lib/SdFat</text>
<text text-anchor="start" x="1514.5" y="-504.9" font-family="Helvetica,sans-Serif" font-size="12.00">&#45;master/src/ExFatLib</text>
<text text-anchor="middle" x="1569" y="-491.9" font-family="Helvetica,sans-Serif" font-size="12.00">/ExFatLib.h</text>
</a>
</g>
</g>
<!-- Node67&#45;&gt;Node26 -->
<g id="edge40" class="edge">
<title>Node67&#45;&gt;Node26</title>
<path fill="none" stroke="midnightblue" d="M1574.39,-558.11C1573.42,-549.26 1572.39,-539.88 1571.49,-531.72"/>
<polygon fill="midnightblue" stroke="midnightblue" points="1570.92,-558.6 1575.49,-568.16 1577.88,-557.84 1570.92,-558.6"/>
</g>
<!-- Node26&#45;&gt;Node52 -->
<g id="edge41" class="edge">
<title>Node26&#45;&gt;Node52</title>
<path fill="none" stroke="midnightblue" d="M1553.07,-475.15C1547.27,-463.54 1540.95,-450.91 1536.11,-441.23"/>
<polygon fill="midnightblue" stroke="midnightblue" points="1549.98,-476.78 1557.58,-484.16 1556.24,-473.65 1549.98,-476.78"/>
</g>
<!-- Node52&#45;&gt;Node3 -->
<g id="edge42" class="edge">
<title>Node52&#45;&gt;Node3</title>
<path fill="none" stroke="midnightblue" d="M1474.02,-403.59C1439.54,-391.2 1395.37,-375.32 1362.83,-363.62"/>
<polygon fill="midnightblue" stroke="midnightblue" points="1472.87,-406.9 1483.46,-406.99 1475.24,-400.31 1472.87,-406.9"/>
</g>
<!-- Node52&#45;&gt;Node12 -->
<g id="edge43" class="edge">
<title>Node52&#45;&gt;Node12</title>
<path fill="none" stroke="midnightblue" d="M1521.14,-397.09C1514.05,-367.98 1504,-319.19 1504,-276.5 1504,-276.5 1504,-276.5 1504,-145.5 1504,-105.17 1510.89,-83.92 1480,-58 1449.24,-32.18 1200.25,-19.52 1068.74,-14.59"/>
<polygon fill="midnightblue" stroke="midnightblue" points="1517.77,-398.03 1523.6,-406.88 1524.56,-396.33 1517.77,-398.03"/>
</g>
<!-- Node52&#45;&gt;Node16 -->
<g id="edge44" class="edge">
<title>Node52&#45;&gt;Node16</title>
<path fill="none" stroke="midnightblue" d="M1511.82,-398.1C1505.04,-387.6 1497.09,-375.23 1490,-364 1442.92,-289.43 1387.84,-199.6 1365.82,-163.59"/>
<polygon fill="midnightblue" stroke="midnightblue" points="1509.06,-400.28 1517.44,-406.77 1514.94,-396.48 1509.06,-400.28"/>
</g>
<!-- Node57 -->
<g id="node31" class="node">
<title>Node57</title>
<g id="a_node31"><a xlink:href="../../de/dfa/_fat_lib_8h.html" target="_top" xlink:title=" ">
<polygon fill="white" stroke="red" points="1650,-491 1650,-525 1808,-525 1808,-491 1650,-491"/>
<text text-anchor="start" x="1658" y="-511.4" font-family="Helvetica,sans-Serif" font-size="12.00">ERISCore/lib/SdFat</text>
<text text-anchor="middle" x="1729" y="-498.4" font-family="Helvetica,sans-Serif" font-size="12.00">&#45;master/src/FatLib/FatLib.h</text>
</a>
</g>
</g>
<!-- Node68&#45;&gt;Node57 -->
<g id="edge47" class="edge">
<title>Node68&#45;&gt;Node57</title>
<path fill="none" stroke="midnightblue" d="M1750.3,-565.34C1745.33,-552.21 1739.44,-536.61 1735.11,-525.17"/>
<polygon fill="midnightblue" stroke="midnightblue" points="1747.07,-566.68 1753.88,-574.8 1753.61,-564.21 1747.07,-566.68"/>
</g>
<!-- Node57&#45;&gt;Node52 -->
<g id="edge48" class="edge">
<title>Node57&#45;&gt;Node52</title>
<path fill="none" stroke="midnightblue" d="M1680.33,-487.14C1645.71,-473.02 1599.81,-454.3 1567.48,-441.1"/>
<polygon fill="midnightblue" stroke="midnightblue" points="1679.19,-490.46 1689.77,-490.99 1681.83,-483.98 1679.19,-490.46"/>
</g>
<!-- Node69&#45;&gt;Node19 -->
<g id="edge52" class="edge">
<title>Node69&#45;&gt;Node19</title>
<path fill="none" stroke="midnightblue" d="M1615.94,-788.22C1602.96,-778.27 1587.95,-766.76 1576.07,-757.66"/>
<polygon fill="midnightblue" stroke="midnightblue" points="1614.06,-791.19 1624.13,-794.5 1618.32,-785.63 1614.06,-791.19"/>
</g>
<!-- Node70 -->
<g id="node33" class="node">
<title>Node70</title>
<g id="a_node33"><a xlink:href="../../d0/d78/_sd_spi_card_8cpp.html" target="_top" xlink:title=" ">
<polygon fill="white" stroke="black" points="1660,-723.5 1660,-757.5 1864,-757.5 1864,-723.5 1660,-723.5"/>
<text text-anchor="start" x="1668" y="-743.9" font-family="Helvetica,sans-Serif" font-size="12.00">ERISCore/lib/SdFat</text>
<text text-anchor="middle" x="1762" y="-730.9" font-family="Helvetica,sans-Serif" font-size="12.00">&#45;master/src/SdCard/SdSpiCard.cpp</text>
</a>
</g>
</g>
<!-- Node69&#45;&gt;Node70 -->
<g id="edge53" class="edge">
<title>Node69&#45;&gt;Node70</title>
<path fill="none" stroke="midnightblue" d="M1680.86,-789.35C1698.16,-779.15 1718.58,-767.11 1734.61,-757.66"/>
<polygon fill="midnightblue" stroke="midnightblue" points="1678.97,-786.4 1672.14,-794.5 1682.53,-792.43 1678.97,-786.4"/>
</g>
</g>
</svg>
