<?xml version="1.0" encoding="UTF-8" standalone="no"?>
<!DOCTYPE svg PUBLIC "-//W3C//DTD SVG 1.1//EN"
 "http://www.w3.org/Graphics/SVG/1.1/DTD/svg11.dtd">
<!-- Generated by graphviz version 2.47.3 (20210619.1520)
 -->
<!-- Title: SdBase::errorHalt Pages: 1 -->
<svg width="620pt" height="190pt"
 viewBox="0.00 0.00 620.00 190.00" xmlns="http://www.w3.org/2000/svg" xmlns:xlink="http://www.w3.org/1999/xlink">
<g id="graph0" class="graph" transform="scale(1 1) rotate(0) translate(4 186)">
<title>SdBase::errorHalt</title>
<polygon fill="white" stroke="transparent" points="-4,4 -4,-186 616,-186 616,4 -4,4"/>
<!-- Node1 -->
<g id="node1" class="node">
<title>Node1</title>
<g id="a_node1"><a xlink:title=" ">
<polygon fill="#bfbfbf" stroke="black" points="0,-80.5 0,-101.5 110,-101.5 110,-80.5 0,-80.5"/>
<text text-anchor="middle" x="55" y="-87.9" font-family="Helvetica,sans-Serif" font-size="12.00">SdBase::errorHalt</text>
</a>
</g>
</g>
<!-- Node2 -->
<g id="node2" class="node">
<title>Node2</title>
<g id="a_node2"><a xlink:href="../../df/dba/class_sys_call.html#a9b1ef8900e97f572ca561760b4dd4191" target="_top" xlink:title=" ">
<polygon fill="white" stroke="black" points="173,-159.5 173,-180.5 253,-180.5 253,-159.5 173,-159.5"/>
<text text-anchor="middle" x="213" y="-166.9" font-family="Helvetica,sans-Serif" font-size="12.00">SysCall::halt</text>
</a>
</g>
</g>
<!-- Node1&#45;&gt;Node2 -->
<g id="edge1" class="edge">
<title>Node1&#45;&gt;Node2</title>
<path fill="none" stroke="midnightblue" d="M72.16,-101.56C89.85,-112.88 119.27,-130.96 146,-144 154.54,-148.16 163.92,-152.18 172.86,-155.75"/>
<polygon fill="midnightblue" stroke="midnightblue" points="171.74,-159.07 182.33,-159.45 174.29,-152.55 171.74,-159.07"/>
</g>
<!-- Node4 -->
<g id="node4" class="node">
<title>Node4</title>
<g id="a_node4"><a xlink:href="../../da/db3/class_print_basic.html#a65247e790e6f8e209eb68a797bf96add" target="_top" xlink:title=" ">
<polygon fill="white" stroke="black" points="346,-120.5 346,-141.5 445,-141.5 445,-120.5 346,-120.5"/>
<text text-anchor="middle" x="395.5" y="-127.9" font-family="Helvetica,sans-Serif" font-size="12.00">PrintBasic::print</text>
</a>
</g>
</g>
<!-- Node1&#45;&gt;Node4 -->
<g id="edge3" class="edge">
<title>Node1&#45;&gt;Node4</title>
<path fill="none" stroke="midnightblue" d="M97.9,-101.57C112.98,-105.04 130.17,-108.62 146,-111 210.47,-120.71 285.1,-125.92 335.62,-128.56"/>
<polygon fill="midnightblue" stroke="midnightblue" points="335.54,-132.06 345.7,-129.07 335.89,-125.07 335.54,-132.06"/>
</g>
<!-- Node6 -->
<g id="node6" class="node">
<title>Node6</title>
<g id="a_node6"><a xlink:href="../../da/db3/class_print_basic.html#af89079da3793cc7778b6b8adb46e1fde" target="_top" xlink:title=" ">
<polygon fill="white" stroke="black" points="159.5,-80.5 159.5,-101.5 266.5,-101.5 266.5,-80.5 159.5,-80.5"/>
<text text-anchor="middle" x="213" y="-87.9" font-family="Helvetica,sans-Serif" font-size="12.00">PrintBasic::println</text>
</a>
</g>
</g>
<!-- Node1&#45;&gt;Node6 -->
<g id="edge5" class="edge">
<title>Node1&#45;&gt;Node6</title>
<path fill="none" stroke="midnightblue" d="M110.12,-91C122.69,-91 136.18,-91 149.09,-91"/>
<polygon fill="midnightblue" stroke="midnightblue" points="149.29,-94.5 159.29,-91 149.29,-87.5 149.29,-94.5"/>
</g>
<!-- Node8 -->
<g id="node8" class="node">
<title>Node8</title>
<g id="a_node8"><a xlink:href="../../de/d8b/class_sd_base.html#af2bb8fea732f9272a2e98772fbcc4595" target="_top" xlink:title=" ">
<polygon fill="white" stroke="black" points="146,-40.5 146,-61.5 280,-61.5 280,-40.5 146,-40.5"/>
<text text-anchor="middle" x="213" y="-47.9" font-family="Helvetica,sans-Serif" font-size="12.00">SdBase::sdErrorCode</text>
</a>
</g>
</g>
<!-- Node1&#45;&gt;Node8 -->
<g id="edge9" class="edge">
<title>Node1&#45;&gt;Node8</title>
<path fill="none" stroke="midnightblue" d="M96.99,-80.49C116.61,-75.46 140.31,-69.38 161.08,-64.06"/>
<polygon fill="midnightblue" stroke="midnightblue" points="162.2,-67.38 171.02,-61.51 160.46,-60.6 162.2,-67.38"/>
</g>
<!-- Node10 -->
<g id="node10" class="node">
<title>Node10</title>
<g id="a_node10"><a xlink:href="../../de/d8b/class_sd_base.html#a5f8f363b6c23f1d8bfeb858c946f1994" target="_top" xlink:title=" ">
<polygon fill="white" stroke="black" points="148,-0.5 148,-21.5 278,-21.5 278,-0.5 148,-0.5"/>
<text text-anchor="middle" x="213" y="-7.9" font-family="Helvetica,sans-Serif" font-size="12.00">SdBase::sdErrorData</text>
</a>
</g>
</g>
<!-- Node1&#45;&gt;Node10 -->
<g id="edge11" class="edge">
<title>Node1&#45;&gt;Node10</title>
<path fill="none" stroke="midnightblue" d="M69.28,-80.31C86.2,-67.13 116.79,-44.79 146,-31 150.68,-28.79 155.67,-26.75 160.72,-24.9"/>
<polygon fill="midnightblue" stroke="midnightblue" points="162.14,-28.11 170.46,-21.55 159.86,-21.49 162.14,-28.11"/>
</g>
<!-- Node3 -->
<g id="node3" class="node">
<title>Node3</title>
<g id="a_node3"><a xlink:href="../../df/dba/class_sys_call.html#a2219ba5ea8e411b022a3a00df5f380e0" target="_top" xlink:title=" ">
<polygon fill="white" stroke="black" points="352.5,-160.5 352.5,-181.5 438.5,-181.5 438.5,-160.5 352.5,-160.5"/>
<text text-anchor="middle" x="395.5" y="-167.9" font-family="Helvetica,sans-Serif" font-size="12.00">SysCall::yield</text>
</a>
</g>
</g>
<!-- Node2&#45;&gt;Node3 -->
<g id="edge2" class="edge">
<title>Node2&#45;&gt;Node3</title>
<path fill="none" stroke="midnightblue" d="M253.17,-170.22C279.21,-170.36 313.71,-170.55 342.1,-170.71"/>
<polygon fill="midnightblue" stroke="midnightblue" points="342.24,-174.21 352.26,-170.77 342.28,-167.21 342.24,-174.21"/>
</g>
<!-- Node5 -->
<g id="node5" class="node">
<title>Node5</title>
<g id="a_node5"><a xlink:href="../../da/db3/class_print_basic.html#afdd5b2ee779058e5b7741c6e46f63f06" target="_top" xlink:title=" ">
<polygon fill="white" stroke="black" points="511,-100.5 511,-121.5 612,-121.5 612,-100.5 511,-100.5"/>
<text text-anchor="middle" x="561.5" y="-107.9" font-family="Helvetica,sans-Serif" font-size="12.00">PrintBasic::write</text>
</a>
</g>
</g>
<!-- Node4&#45;&gt;Node5 -->
<g id="edge4" class="edge">
<title>Node4&#45;&gt;Node5</title>
<path fill="none" stroke="midnightblue" d="M445.26,-125.05C462.71,-122.93 482.57,-120.5 500.84,-118.28"/>
<polygon fill="midnightblue" stroke="midnightblue" points="501.29,-121.75 510.79,-117.06 500.44,-114.8 501.29,-121.75"/>
</g>
<!-- Node6&#45;&gt;Node4 -->
<g id="edge6" class="edge">
<title>Node6&#45;&gt;Node4</title>
<path fill="none" stroke="midnightblue" d="M261.42,-101.51C284.65,-106.66 312.8,-112.9 337.22,-118.31"/>
<polygon fill="midnightblue" stroke="midnightblue" points="336.56,-121.74 347.08,-120.49 338.07,-114.91 336.56,-121.74"/>
</g>
<!-- Node7 -->
<g id="node7" class="node">
<title>Node7</title>
<g id="a_node7"><a xlink:href="../../da/db3/class_print_basic.html#a9ac86fd20911ebda9877289484b2a924" target="_top" xlink:title=" ">
<polygon fill="white" stroke="black" points="342,-80.5 342,-101.5 449,-101.5 449,-80.5 342,-80.5"/>
<text text-anchor="middle" x="395.5" y="-87.9" font-family="Helvetica,sans-Serif" font-size="12.00">PrintBasic::println</text>
</a>
</g>
</g>
<!-- Node6&#45;&gt;Node7 -->
<g id="edge7" class="edge">
<title>Node6&#45;&gt;Node7</title>
<path fill="none" stroke="midnightblue" d="M266.69,-91C286.99,-91 310.38,-91 331.55,-91"/>
<polygon fill="midnightblue" stroke="midnightblue" points="331.74,-94.5 341.74,-91 331.74,-87.5 331.74,-94.5"/>
</g>
<!-- Node7&#45;&gt;Node5 -->
<g id="edge8" class="edge">
<title>Node7&#45;&gt;Node5</title>
<path fill="none" stroke="midnightblue" d="M449.29,-97.44C465.66,-99.43 483.8,-101.65 500.61,-103.7"/>
<polygon fill="midnightblue" stroke="midnightblue" points="500.52,-107.21 510.87,-104.95 501.37,-100.26 500.52,-107.21"/>
</g>
<!-- Node9 -->
<g id="node9" class="node">
<title>Node9</title>
<g id="a_node9"><a xlink:href="../../d5/d4b/class_shared_spi_card.html#aff338a5cece6d38c50f9516e6c31c0f6" target="_top" xlink:title=" ">
<polygon fill="white" stroke="black" points="316,-40.5 316,-61.5 475,-61.5 475,-40.5 316,-40.5"/>
<text text-anchor="middle" x="395.5" y="-47.9" font-family="Helvetica,sans-Serif" font-size="12.00">SharedSpiCard::errorCode</text>
</a>
</g>
</g>
<!-- Node8&#45;&gt;Node9 -->
<g id="edge10" class="edge">
<title>Node8&#45;&gt;Node9</title>
<path fill="none" stroke="midnightblue" d="M280.19,-51C288.5,-51 297.11,-51 305.71,-51"/>
<polygon fill="midnightblue" stroke="midnightblue" points="305.77,-54.5 315.77,-51 305.77,-47.5 305.77,-54.5"/>
</g>
<!-- Node11 -->
<g id="node11" class="node">
<title>Node11</title>
<g id="a_node11"><a xlink:href="../../d5/d4b/class_shared_spi_card.html#a3ae2be970123e148f1d35f61ac56984f" target="_top" xlink:title=" ">
<polygon fill="white" stroke="black" points="318,-0.5 318,-21.5 473,-21.5 473,-0.5 318,-0.5"/>
<text text-anchor="middle" x="395.5" y="-7.9" font-family="Helvetica,sans-Serif" font-size="12.00">SharedSpiCard::errorData</text>
</a>
</g>
</g>
<!-- Node10&#45;&gt;Node11 -->
<g id="edge12" class="edge">
<title>Node10&#45;&gt;Node11</title>
<path fill="none" stroke="midnightblue" d="M278.15,-11C287.7,-11 297.67,-11 307.6,-11"/>
<polygon fill="midnightblue" stroke="midnightblue" points="307.9,-14.5 317.9,-11 307.9,-7.5 307.9,-14.5"/>
</g>
</g>
</svg>
