<?xml version="1.0" encoding="UTF-8" standalone="no"?>
<!DOCTYPE svg PUBLIC "-//W3C//DTD SVG 1.1//EN"
 "http://www.w3.org/Graphics/SVG/1.1/DTD/svg11.dtd">
<!-- Generated by graphviz version 2.47.3 (20210619.1520)
 -->
<!-- Title: BlockDevice.h Pages: 1 -->
<!--zoomable 378 -->
<svg id="main" version="1.1" xmlns="http://www.w3.org/2000/svg" xmlns:xlink="http://www.w3.org/1999/xlink" xml:space="preserve" onload="init(evt)">
<style type="text/css"><![CDATA[
.edge:hover path { stroke: red; }
.edge:hover polygon { stroke: red; fill: red; }
]]></style>
<script type="text/javascript"><![CDATA[
var edges = document.getElementsByTagName('g');
if (edges && edges.length) {
  for (var i=0;i<edges.length;i++) {
    if (edges[i].id.substr(0,4)=='edge') {
      edges[i].setAttribute('class','edge');
    }
  }
}
]]></script>
        <defs>
                <circle id="rim" cx="0" cy="0" r="7"/>
                <circle id="rim2" cx="0" cy="0" r="3.5"/>
                <g id="zoomPlus">
                        <use xlink:href="#rim" fill="#404040">
                                <set attributeName="fill" to="#808080" begin="zoomplus.mouseover" end="zoomplus.mouseout"/>
                        </use>
                        <path d="M-4,0h8M0,-4v8" fill="none" stroke="white" stroke-width="1.5" pointer-events="none"/>
                </g>
                <g id="zoomMin">
                        <use xlink:href="#rim" fill="#404040">
                                <set attributeName="fill" to="#808080" begin="zoomminus.mouseover" end="zoomminus.mouseout"/>
                        </use>
                        <path d="M-4,0h8" fill="none" stroke="white" stroke-width="1.5" pointer-events="none"/>
                </g>
                <g id="dirArrow">
                        <path fill="none" stroke="white" stroke-width="1.5" d="M0,-3.0v7 M-2.5,-0.5L0,-3.0L2.5,-0.5"/>
                </g>
               <g id="resetDef">
                       <use xlink:href="#rim2" fill="#404040">
                               <set attributeName="fill" to="#808080" begin="reset.mouseover" end="reset.mouseout"/>
                       </use>
               </g>
        </defs>

<script type="text/javascript">
var viewWidth = 2250;
var viewHeight = 378;
var sectionId = 'dynsection-1';
</script>
<script xlink:href="../../svgpan.js"/>
<svg id="graph" class="graph">
<g id="viewport">
<title>BlockDevice.h</title>
<polygon fill="white" stroke="transparent" points="-4,4 -4,-374 2246,-374 2246,4 -4,4"/>
<!-- Node1 -->
<g id="node1" class="node">
<title>Node1</title>
<g id="a_node1"><a xlink:title=" ">
<polygon fill="#bfbfbf" stroke="black" points="1145,-348.5 1145,-369.5 1237,-369.5 1237,-348.5 1145,-348.5"/>
<text text-anchor="middle" x="1191" y="-355.9" font-family="Helvetica,sans-Serif" font-size="12.00">BlockDevice.h</text>
</a>
</g>
</g>
<!-- Node2 -->
<g id="node2" class="node">
<title>Node2</title>
<g id="a_node2"><a xlink:href="../../d1/d0d/_fs_cache_8h.html" target="_top" xlink:title="Common cache code for exFAT and FAT.">
<polygon fill="white" stroke="black" points="1045,-290.5 1045,-311.5 1119,-311.5 1119,-290.5 1045,-290.5"/>
<text text-anchor="middle" x="1082" y="-297.9" font-family="Helvetica,sans-Serif" font-size="12.00">FsCache.h</text>
</a>
</g>
</g>
<!-- Node1&#45;&gt;Node2 -->
<g id="edge1" class="edge">
<title>Node1&#45;&gt;Node2</title>
<path fill="none" stroke="midnightblue" d="M1162.97,-343.6C1143.43,-333.56 1117.89,-320.44 1100.77,-311.64"/>
<polygon fill="midnightblue" stroke="midnightblue" points="1161.52,-346.79 1172.01,-348.25 1164.72,-340.56 1161.52,-346.79"/>
</g>
<!-- Node4 -->
<g id="node4" class="node">
<title>Node4</title>
<g id="a_node4"><a xlink:href="../../d7/dc8/_ex_fat_partition_8h.html" target="_top" xlink:title="ExFatPartition include file.">
<polygon fill="white" stroke="black" points="930,-232.5 930,-253.5 1030,-253.5 1030,-232.5 930,-232.5"/>
<text text-anchor="middle" x="980" y="-239.9" font-family="Helvetica,sans-Serif" font-size="12.00">ExFatPartition.h</text>
</a>
</g>
</g>
<!-- Node1&#45;&gt;Node4 -->
<g id="edge37" class="edge">
<title>Node1&#45;&gt;Node4</title>
<path fill="none" stroke="midnightblue" d="M1135.07,-349.7C1103.96,-343.13 1065.67,-331.66 1036,-312 1012.8,-296.63 994.28,-268.74 985.52,-253.91"/>
<polygon fill="midnightblue" stroke="midnightblue" points="1134.4,-353.13 1144.89,-351.66 1135.77,-346.27 1134.4,-353.13"/>
</g>
<!-- Node55 -->
<g id="node19" class="node">
<title>Node55</title>
<g id="a_node19"><a xlink:href="../../db/dd3/_fat_partition_8h.html" target="_top" xlink:title="FatPartition class.">
<polygon fill="white" stroke="black" points="1230,-232.5 1230,-253.5 1316,-253.5 1316,-232.5 1230,-232.5"/>
<text text-anchor="middle" x="1273" y="-239.9" font-family="Helvetica,sans-Serif" font-size="12.00">FatPartition.h</text>
</a>
</g>
</g>
<!-- Node1&#45;&gt;Node55 -->
<g id="edge40" class="edge">
<title>Node1&#45;&gt;Node55</title>
<path fill="none" stroke="midnightblue" d="M1218.93,-343.33C1231.3,-335.54 1245.06,-324.9 1254,-312 1266.57,-293.87 1270.86,-267.62 1272.29,-253.63"/>
<polygon fill="midnightblue" stroke="midnightblue" points="1217.05,-340.37 1210.24,-348.49 1220.63,-346.39 1217.05,-340.37"/>
</g>
<!-- Node68 -->
<g id="node32" class="node">
<title>Node68</title>
<g id="a_node32"><a xlink:href="../../d8/d58/_ex_fat_formatter_8h.html" target="_top" xlink:title=" ">
<polygon fill="white" stroke="black" points="1137.5,-290.5 1137.5,-311.5 1244.5,-311.5 1244.5,-290.5 1137.5,-290.5"/>
<text text-anchor="middle" x="1191" y="-297.9" font-family="Helvetica,sans-Serif" font-size="12.00">ExFatFormatter.h</text>
</a>
</g>
</g>
<!-- Node1&#45;&gt;Node68 -->
<g id="edge35" class="edge">
<title>Node1&#45;&gt;Node68</title>
<path fill="none" stroke="midnightblue" d="M1191,-338.16C1191,-329.16 1191,-318.92 1191,-311.64"/>
<polygon fill="midnightblue" stroke="midnightblue" points="1187.5,-338.25 1191,-348.25 1194.5,-338.25 1187.5,-338.25"/>
</g>
<!-- Node69 -->
<g id="node33" class="node">
<title>Node69</title>
<g id="a_node33"><a xlink:href="../../d8/d20/_fat_formatter_8h.html" target="_top" xlink:title=" ">
<polygon fill="white" stroke="black" points="1380,-174.5 1380,-195.5 1474,-195.5 1474,-174.5 1380,-174.5"/>
<text text-anchor="middle" x="1427" y="-181.9" font-family="Helvetica,sans-Serif" font-size="12.00">FatFormatter.h</text>
</a>
</g>
</g>
<!-- Node1&#45;&gt;Node69 -->
<g id="edge38" class="edge">
<title>Node1&#45;&gt;Node69</title>
<path fill="none" stroke="midnightblue" d="M1219.09,-343.81C1235.27,-335.25 1255.75,-323.76 1273,-312 1330.37,-272.88 1392.59,-217.52 1416.67,-195.53"/>
<polygon fill="midnightblue" stroke="midnightblue" points="1217.37,-340.76 1210.12,-348.49 1220.61,-346.97 1217.37,-340.76"/>
</g>
<!-- Node3 -->
<g id="node3" class="node">
<title>Node3</title>
<g id="a_node3"><a xlink:href="../../d0/d75/_fs_cache_8cpp.html" target="_top" xlink:title=" ">
<polygon fill="white" stroke="black" points="1048.5,-232.5 1048.5,-253.5 1135.5,-253.5 1135.5,-232.5 1048.5,-232.5"/>
<text text-anchor="middle" x="1092" y="-239.9" font-family="Helvetica,sans-Serif" font-size="12.00">FsCache.cpp</text>
</a>
</g>
</g>
<!-- Node2&#45;&gt;Node3 -->
<g id="edge2" class="edge">
<title>Node2&#45;&gt;Node3</title>
<path fill="none" stroke="midnightblue" d="M1085.54,-280.16C1087.15,-271.16 1088.98,-260.92 1090.28,-253.64"/>
<polygon fill="midnightblue" stroke="midnightblue" points="1082.05,-279.79 1083.74,-290.25 1088.95,-281.02 1082.05,-279.79"/>
</g>
<!-- Node2&#45;&gt;Node4 -->
<g id="edge3" class="edge">
<title>Node2&#45;&gt;Node4</title>
<path fill="none" stroke="midnightblue" d="M1055.27,-285.32C1037.05,-275.32 1013.44,-262.36 997.56,-253.64"/>
<polygon fill="midnightblue" stroke="midnightblue" points="1053.78,-288.5 1064.23,-290.25 1057.15,-282.36 1053.78,-288.5"/>
</g>
<!-- Node2&#45;&gt;Node55 -->
<g id="edge19" class="edge">
<title>Node2&#45;&gt;Node55</title>
<path fill="none" stroke="midnightblue" d="M1124.78,-287.46C1159.84,-277.18 1208.71,-262.85 1240.59,-253.5"/>
<polygon fill="midnightblue" stroke="midnightblue" points="1123.45,-284.2 1114.83,-290.37 1125.41,-290.92 1123.45,-284.2"/>
</g>
<!-- Node5 -->
<g id="node5" class="node">
<title>Node5</title>
<g id="a_node5"><a xlink:href="../../dd/ddc/_ex_fat_file_8h.html" target="_top" xlink:title="ExFatFile class.">
<polygon fill="white" stroke="black" points="763,-174.5 763,-195.5 839,-195.5 839,-174.5 763,-174.5"/>
<text text-anchor="middle" x="801" y="-181.9" font-family="Helvetica,sans-Serif" font-size="12.00">ExFatFile.h</text>
</a>
</g>
</g>
<!-- Node4&#45;&gt;Node5 -->
<g id="edge4" class="edge">
<title>Node4&#45;&gt;Node5</title>
<path fill="none" stroke="midnightblue" d="M939.48,-229.32C906.65,-219.05 861.12,-204.81 831.37,-195.5"/>
<polygon fill="midnightblue" stroke="midnightblue" points="938.64,-232.73 949.23,-232.37 940.73,-226.05 938.64,-232.73"/>
</g>
<!-- Node6 -->
<g id="node6" class="node">
<title>Node6</title>
<g id="a_node6"><a xlink:href="../../d6/d68/_ex_fat_volume_8h.html" target="_top" xlink:title=" ">
<polygon fill="white" stroke="black" points="663,-116.5 663,-137.5 759,-137.5 759,-116.5 663,-116.5"/>
<text text-anchor="middle" x="711" y="-123.9" font-family="Helvetica,sans-Serif" font-size="12.00">ExFatVolume.h</text>
</a>
</g>
</g>
<!-- Node5&#45;&gt;Node6 -->
<g id="edge5" class="edge">
<title>Node5&#45;&gt;Node6</title>
<path fill="none" stroke="midnightblue" d="M776.52,-168.77C760.57,-158.85 740.25,-146.2 726.5,-137.64"/>
<polygon fill="midnightblue" stroke="midnightblue" points="774.98,-171.93 785.32,-174.25 778.68,-165.99 774.98,-171.93"/>
</g>
<!-- Node7 -->
<g id="node7" class="node">
<title>Node7</title>
<g id="a_node7"><a xlink:href="../../d8/d23/_ex_fat_lib_8h.html" target="_top" xlink:title=" ">
<polygon fill="white" stroke="black" points="674.5,-58.5 674.5,-79.5 747.5,-79.5 747.5,-58.5 674.5,-58.5"/>
<text text-anchor="middle" x="711" y="-65.9" font-family="Helvetica,sans-Serif" font-size="12.00">ExFatLib.h</text>
</a>
</g>
</g>
<!-- Node6&#45;&gt;Node7 -->
<g id="edge6" class="edge">
<title>Node6&#45;&gt;Node7</title>
<path fill="none" stroke="midnightblue" d="M711,-106.16C711,-97.16 711,-86.92 711,-79.64"/>
<polygon fill="midnightblue" stroke="midnightblue" points="707.5,-106.25 711,-116.25 714.5,-106.25 707.5,-106.25"/>
</g>
<!-- Node14 -->
<g id="node14" class="node">
<title>Node14</title>
<g id="a_node14"><a xlink:href="../../da/dc3/_ex_fat_dbg_8cpp.html" target="_top" xlink:title=" ">
<polygon fill="white" stroke="black" points="0,-0.5 0,-21.5 92,-21.5 92,-0.5 0,-0.5"/>
<text text-anchor="middle" x="46" y="-7.9" font-family="Helvetica,sans-Serif" font-size="12.00">ExFatDbg.cpp</text>
</a>
</g>
</g>
<!-- Node6&#45;&gt;Node14 -->
<g id="edge18" class="edge">
<title>Node6&#45;&gt;Node14</title>
<path fill="none" stroke="midnightblue" d="M652.64,-116.27C544,-98.11 303.43,-57.66 101,-22 98.13,-21.49 95.18,-20.97 92.21,-20.44"/>
<polygon fill="midnightblue" stroke="midnightblue" points="652.29,-119.76 662.73,-117.96 653.45,-112.86 652.29,-119.76"/>
</g>
<!-- Node8 -->
<g id="node8" class="node">
<title>Node8</title>
<g id="a_node8"><a xlink:href="../../dc/d94/_ex_fat_volume_8cpp.html" target="_top" xlink:title=" ">
<polygon fill="white" stroke="black" points="512,-0.5 512,-21.5 622,-21.5 622,-0.5 512,-0.5"/>
<text text-anchor="middle" x="567" y="-7.9" font-family="Helvetica,sans-Serif" font-size="12.00">ExFatVolume.cpp</text>
</a>
</g>
</g>
<!-- Node7&#45;&gt;Node8 -->
<g id="edge7" class="edge">
<title>Node7&#45;&gt;Node8</title>
<path fill="none" stroke="midnightblue" d="M676.68,-54.65C650.42,-44.44 614.85,-30.61 591.43,-21.5"/>
<polygon fill="midnightblue" stroke="midnightblue" points="675.66,-58.01 686.25,-58.37 678.19,-51.49 675.66,-58.01"/>
</g>
<!-- Node9 -->
<g id="node9" class="node">
<title>Node9</title>
<g id="a_node9"><a xlink:href="../../d8/d04/_ex_fat_name_8cpp.html" target="_top" xlink:title=" ">
<polygon fill="white" stroke="black" points="640.5,-0.5 640.5,-21.5 741.5,-21.5 741.5,-0.5 640.5,-0.5"/>
<text text-anchor="middle" x="691" y="-7.9" font-family="Helvetica,sans-Serif" font-size="12.00">ExFatName.cpp</text>
</a>
</g>
</g>
<!-- Node7&#45;&gt;Node9 -->
<g id="edge8" class="edge">
<title>Node7&#45;&gt;Node9</title>
<path fill="none" stroke="midnightblue" d="M704.12,-48.75C700.86,-39.61 697.1,-29.08 694.44,-21.64"/>
<polygon fill="midnightblue" stroke="midnightblue" points="700.86,-50.01 707.52,-58.25 707.45,-47.65 700.86,-50.01"/>
</g>
<!-- Node10 -->
<g id="node10" class="node">
<title>Node10</title>
<g id="a_node10"><a xlink:href="../../d4/d74/_ex_fat_file_8cpp.html" target="_top" xlink:title=" ">
<polygon fill="white" stroke="black" points="759.5,-0.5 759.5,-21.5 848.5,-21.5 848.5,-0.5 759.5,-0.5"/>
<text text-anchor="middle" x="804" y="-7.9" font-family="Helvetica,sans-Serif" font-size="12.00">ExFatFile.cpp</text>
</a>
</g>
</g>
<!-- Node7&#45;&gt;Node10 -->
<g id="edge9" class="edge">
<title>Node7&#45;&gt;Node10</title>
<path fill="none" stroke="midnightblue" d="M735.83,-53.05C752.38,-43.08 773.64,-30.28 787.99,-21.64"/>
<polygon fill="midnightblue" stroke="midnightblue" points="733.96,-50.09 727.2,-58.25 737.57,-56.09 733.96,-50.09"/>
</g>
<!-- Node11 -->
<g id="node11" class="node">
<title>Node11</title>
<g id="a_node11"><a xlink:href="../../db/d4e/_ex_fat_file_write_8cpp.html" target="_top" xlink:title=" ">
<polygon fill="white" stroke="black" points="866.5,-0.5 866.5,-21.5 983.5,-21.5 983.5,-0.5 866.5,-0.5"/>
<text text-anchor="middle" x="925" y="-7.9" font-family="Helvetica,sans-Serif" font-size="12.00">ExFatFileWrite.cpp</text>
</a>
</g>
</g>
<!-- Node7&#45;&gt;Node11 -->
<g id="edge10" class="edge">
<title>Node7&#45;&gt;Node11</title>
<path fill="none" stroke="midnightblue" d="M757.68,-55.79C797.04,-45.48 852.59,-30.95 888.69,-21.5"/>
<polygon fill="midnightblue" stroke="midnightblue" points="756.58,-52.46 747.79,-58.37 758.35,-59.23 756.58,-52.46"/>
</g>
<!-- Node12 -->
<g id="node12" class="node">
<title>Node12</title>
<g id="a_node12"><a xlink:href="../../d2/df9/_ex_fat_partition_8cpp.html" target="_top" xlink:title=" ">
<polygon fill="white" stroke="black" points="110.5,-0.5 110.5,-21.5 223.5,-21.5 223.5,-0.5 110.5,-0.5"/>
<text text-anchor="middle" x="167" y="-7.9" font-family="Helvetica,sans-Serif" font-size="12.00">ExFatPartition.cpp</text>
</a>
</g>
</g>
<!-- Node7&#45;&gt;Node12 -->
<g id="edge11" class="edge">
<title>Node7&#45;&gt;Node12</title>
<path fill="none" stroke="midnightblue" d="M664.06,-64.38C578.16,-57.57 389.97,-41.72 232,-22 229.28,-21.66 226.5,-21.3 223.69,-20.92"/>
<polygon fill="midnightblue" stroke="midnightblue" points="664.02,-67.89 674.26,-65.19 664.57,-60.91 664.02,-67.89"/>
</g>
<!-- Node13 -->
<g id="node13" class="node">
<title>Node13</title>
<g id="a_node13"><a xlink:href="../../d6/dac/_ex_fat_formatter_8cpp.html" target="_top" xlink:title=" ">
<polygon fill="white" stroke="black" points="241.5,-0.5 241.5,-21.5 362.5,-21.5 362.5,-0.5 241.5,-0.5"/>
<text text-anchor="middle" x="302" y="-7.9" font-family="Helvetica,sans-Serif" font-size="12.00">ExFatFormatter.cpp</text>
</a>
</g>
</g>
<!-- Node7&#45;&gt;Node13 -->
<g id="edge12" class="edge">
<title>Node7&#45;&gt;Node13</title>
<path fill="none" stroke="midnightblue" d="M664.24,-61.82C598.67,-53.11 475.71,-36.67 371,-22 368.24,-21.61 365.42,-21.22 362.58,-20.81"/>
<polygon fill="midnightblue" stroke="midnightblue" points="663.88,-65.3 674.26,-63.14 664.8,-58.36 663.88,-65.3"/>
</g>
<!-- Node7&#45;&gt;Node14 -->
<g id="edge13" class="edge">
<title>Node7&#45;&gt;Node14</title>
<path fill="none" stroke="midnightblue" d="M664.42,-66.15C562.13,-61.73 310.29,-48.84 101,-22 98.11,-21.63 95.15,-21.21 92.16,-20.75"/>
<polygon fill="midnightblue" stroke="midnightblue" points="664.28,-69.65 674.42,-66.58 664.58,-62.65 664.28,-69.65"/>
</g>
<!-- Node15 -->
<g id="node15" class="node">
<title>Node15</title>
<g id="a_node15"><a xlink:href="../../d3/d2b/_ex_fat_file_print_8cpp.html" target="_top" xlink:title=" ">
<polygon fill="white" stroke="black" points="380.5,-0.5 380.5,-21.5 493.5,-21.5 493.5,-0.5 380.5,-0.5"/>
<text text-anchor="middle" x="437" y="-7.9" font-family="Helvetica,sans-Serif" font-size="12.00">ExFatFilePrint.cpp</text>
</a>
</g>
</g>
<!-- Node7&#45;&gt;Node15 -->
<g id="edge14" class="edge">
<title>Node7&#45;&gt;Node15</title>
<path fill="none" stroke="midnightblue" d="M664.34,-58.46C613.89,-48.15 533.93,-31.81 483.52,-21.51"/>
<polygon fill="midnightblue" stroke="midnightblue" points="663.83,-61.93 674.33,-60.51 665.23,-55.07 663.83,-61.93"/>
</g>
<!-- Node16 -->
<g id="node16" class="node">
<title>Node16</title>
<g id="a_node16"><a xlink:href="../../d3/ddb/_fs_file_8h.html" target="_top" xlink:title="FsBaseFile include file.">
<polygon fill="white" stroke="red" points="1001.5,-0.5 1001.5,-21.5 1060.5,-21.5 1060.5,-0.5 1001.5,-0.5"/>
<text text-anchor="middle" x="1031" y="-7.9" font-family="Helvetica,sans-Serif" font-size="12.00">FsFile.h</text>
</a>
</g>
</g>
<!-- Node7&#45;&gt;Node16 -->
<g id="edge15" class="edge">
<title>Node7&#45;&gt;Node16</title>
<path fill="none" stroke="midnightblue" d="M757.52,-61.68C813.45,-53.78 910.01,-39.19 992,-22 995.01,-21.37 998.14,-20.66 1001.25,-19.92"/>
<polygon fill="midnightblue" stroke="midnightblue" points="756.98,-58.22 747.57,-63.07 757.96,-65.15 756.98,-58.22"/>
</g>
<!-- Node54 -->
<g id="node17" class="node">
<title>Node54</title>
<g id="a_node17"><a xlink:href="../../db/d47/_fs_volume_8h.html" target="_top" xlink:title="FsVolume include file.">
<polygon fill="white" stroke="red" points="1078.5,-0.5 1078.5,-21.5 1157.5,-21.5 1157.5,-0.5 1078.5,-0.5"/>
<text text-anchor="middle" x="1118" y="-7.9" font-family="Helvetica,sans-Serif" font-size="12.00">FsVolume.h</text>
</a>
</g>
</g>
<!-- Node7&#45;&gt;Node54 -->
<g id="edge16" class="edge">
<title>Node7&#45;&gt;Node54</title>
<path fill="none" stroke="midnightblue" d="M757.76,-63.1C826.28,-55.67 957.87,-40.45 1069,-22 1072.08,-21.49 1075.27,-20.92 1078.47,-20.33"/>
<polygon fill="midnightblue" stroke="midnightblue" points="757.29,-59.63 747.72,-64.18 758.04,-66.59 757.29,-59.63"/>
</g>
<!-- Node33 -->
<g id="node18" class="node">
<title>Node33</title>
<g id="a_node18"><a xlink:href="../../d5/ddc/_sd_fat_8h.html" target="_top" xlink:title="main SdFs include file.">
<polygon fill="white" stroke="red" points="1176,-0.5 1176,-21.5 1234,-21.5 1234,-0.5 1176,-0.5"/>
<text text-anchor="middle" x="1205" y="-7.9" font-family="Helvetica,sans-Serif" font-size="12.00">SdFat.h</text>
</a>
</g>
</g>
<!-- Node7&#45;&gt;Node33 -->
<g id="edge17" class="edge">
<title>Node7&#45;&gt;Node33</title>
<path fill="none" stroke="midnightblue" d="M757.73,-65.71C840.69,-61.1 1018.89,-48.79 1167,-22 1169.82,-21.49 1172.74,-20.88 1175.64,-20.21"/>
<polygon fill="midnightblue" stroke="midnightblue" points="757.42,-62.22 747.62,-66.26 757.8,-69.21 757.42,-62.22"/>
</g>
<!-- Node56 -->
<g id="node20" class="node">
<title>Node56</title>
<g id="a_node20"><a xlink:href="../../d6/d7b/_fat_file_8h.html" target="_top" xlink:title="FatFile class.">
<polygon fill="white" stroke="black" points="1282,-174.5 1282,-195.5 1344,-195.5 1344,-174.5 1282,-174.5"/>
<text text-anchor="middle" x="1313" y="-181.9" font-family="Helvetica,sans-Serif" font-size="12.00">FatFile.h</text>
</a>
</g>
</g>
<!-- Node55&#45;&gt;Node56 -->
<g id="edge20" class="edge">
<title>Node55&#45;&gt;Node56</title>
<path fill="none" stroke="midnightblue" d="M1285.91,-223.92C1292.63,-214.52 1300.57,-203.4 1306.11,-195.64"/>
<polygon fill="midnightblue" stroke="midnightblue" points="1282.93,-222.07 1279.97,-232.25 1288.63,-226.14 1282.93,-222.07"/>
</g>
<!-- Node57 -->
<g id="node21" class="node">
<title>Node57</title>
<g id="a_node21"><a xlink:href="../../da/d0b/_fat_volume_8h.html" target="_top" xlink:title="FatVolume class.">
<polygon fill="white" stroke="black" points="1283.5,-116.5 1283.5,-137.5 1366.5,-137.5 1366.5,-116.5 1283.5,-116.5"/>
<text text-anchor="middle" x="1325" y="-123.9" font-family="Helvetica,sans-Serif" font-size="12.00">FatVolume.h</text>
</a>
</g>
</g>
<!-- Node56&#45;&gt;Node57 -->
<g id="edge21" class="edge">
<title>Node56&#45;&gt;Node57</title>
<path fill="none" stroke="midnightblue" d="M1317.19,-164.45C1319.13,-155.38 1321.36,-145 1322.93,-137.64"/>
<polygon fill="midnightblue" stroke="midnightblue" points="1313.76,-163.73 1315.09,-174.25 1320.61,-165.2 1313.76,-163.73"/>
</g>
<!-- Node58 -->
<g id="node22" class="node">
<title>Node58</title>
<g id="a_node22"><a xlink:href="../../de/dfa/_fat_lib_8h.html" target="_top" xlink:title=" ">
<polygon fill="white" stroke="black" points="1443.5,-58.5 1443.5,-79.5 1502.5,-79.5 1502.5,-58.5 1443.5,-58.5"/>
<text text-anchor="middle" x="1473" y="-65.9" font-family="Helvetica,sans-Serif" font-size="12.00">FatLib.h</text>
</a>
</g>
</g>
<!-- Node57&#45;&gt;Node58 -->
<g id="edge22" class="edge">
<title>Node57&#45;&gt;Node58</title>
<path fill="none" stroke="midnightblue" d="M1359.92,-112.79C1386.94,-102.56 1423.71,-88.65 1447.89,-79.5"/>
<polygon fill="midnightblue" stroke="midnightblue" points="1358.56,-109.56 1350.44,-116.37 1361.03,-116.11 1358.56,-109.56"/>
</g>
<!-- Node58&#45;&gt;Node16 -->
<g id="edge31" class="edge">
<title>Node58&#45;&gt;Node16</title>
<path fill="none" stroke="midnightblue" d="M1433.29,-65.38C1360.56,-60.17 1201.26,-46.8 1069,-22 1066.32,-21.5 1063.55,-20.91 1060.78,-20.27"/>
<polygon fill="midnightblue" stroke="midnightblue" points="1433.16,-68.88 1443.38,-66.09 1433.65,-61.9 1433.16,-68.88"/>
</g>
<!-- Node58&#45;&gt;Node54 -->
<g id="edge33" class="edge">
<title>Node58&#45;&gt;Node54</title>
<path fill="none" stroke="midnightblue" d="M1433.46,-62.73C1375.04,-54.79 1262.31,-38.88 1167,-22 1163.92,-21.45 1160.74,-20.87 1157.55,-20.25"/>
<polygon fill="midnightblue" stroke="midnightblue" points="1433,-66.2 1443.38,-64.07 1433.94,-59.26 1433,-66.2"/>
</g>
<!-- Node58&#45;&gt;Node33 -->
<g id="edge34" class="edge">
<title>Node58&#45;&gt;Node33</title>
<path fill="none" stroke="midnightblue" d="M1433.62,-60.87C1387.7,-52.38 1309.58,-37.4 1243,-22 1240.08,-21.32 1237.03,-20.58 1234,-19.82"/>
<polygon fill="midnightblue" stroke="midnightblue" points="1433,-64.31 1443.47,-62.68 1434.27,-57.43 1433,-64.31"/>
</g>
<!-- Node59 -->
<g id="node23" class="node">
<title>Node59</title>
<g id="a_node23"><a xlink:href="../../dd/df4/_fat_volume_8cpp.html" target="_top" xlink:title=" ">
<polygon fill="white" stroke="black" points="1602,-0.5 1602,-21.5 1698,-21.5 1698,-0.5 1602,-0.5"/>
<text text-anchor="middle" x="1650" y="-7.9" font-family="Helvetica,sans-Serif" font-size="12.00">FatVolume.cpp</text>
</a>
</g>
</g>
<!-- Node58&#45;&gt;Node59 -->
<g id="edge23" class="edge">
<title>Node58&#45;&gt;Node59</title>
<path fill="none" stroke="midnightblue" d="M1512.24,-55.59C1544.65,-45.33 1590.01,-30.98 1619.68,-21.59"/>
<polygon fill="midnightblue" stroke="midnightblue" points="1511.1,-52.27 1502.63,-58.63 1513.22,-58.95 1511.1,-52.27"/>
</g>
<!-- Node60 -->
<g id="node24" class="node">
<title>Node60</title>
<g id="a_node24"><a xlink:href="../../db/d91/_fat_file_print_8cpp.html" target="_top" xlink:title=" ">
<polygon fill="white" stroke="black" points="1716,-0.5 1716,-21.5 1816,-21.5 1816,-0.5 1716,-0.5"/>
<text text-anchor="middle" x="1766" y="-7.9" font-family="Helvetica,sans-Serif" font-size="12.00">FatFilePrint.cpp</text>
</a>
</g>
</g>
<!-- Node58&#45;&gt;Node60 -->
<g id="edge24" class="edge">
<title>Node58&#45;&gt;Node60</title>
<path fill="none" stroke="midnightblue" d="M1512.7,-60.41C1565.5,-50.32 1658.83,-32.48 1716.26,-21.51"/>
<polygon fill="midnightblue" stroke="midnightblue" points="1511.87,-57.01 1502.71,-62.32 1513.19,-63.88 1511.87,-57.01"/>
</g>
<!-- Node61 -->
<g id="node25" class="node">
<title>Node61</title>
<g id="a_node25"><a xlink:href="../../d5/d96/_fat_dbg_8cpp.html" target="_top" xlink:title=" ">
<polygon fill="white" stroke="black" points="1834.5,-0.5 1834.5,-21.5 1913.5,-21.5 1913.5,-0.5 1834.5,-0.5"/>
<text text-anchor="middle" x="1874" y="-7.9" font-family="Helvetica,sans-Serif" font-size="12.00">FatDbg.cpp</text>
</a>
</g>
</g>
<!-- Node58&#45;&gt;Node61 -->
<g id="edge25" class="edge">
<title>Node58&#45;&gt;Node61</title>
<path fill="none" stroke="midnightblue" d="M1513.06,-63.71C1578.52,-56.48 1712.43,-40.82 1825,-22 1828.08,-21.48 1831.27,-20.92 1834.46,-20.32"/>
<polygon fill="midnightblue" stroke="midnightblue" points="1512.33,-60.27 1502.77,-64.84 1513.1,-67.22 1512.33,-60.27"/>
</g>
<!-- Node62 -->
<g id="node26" class="node">
<title>Node62</title>
<g id="a_node26"><a xlink:href="../../d2/dcc/_fat_file_8cpp.html" target="_top" xlink:title=" ">
<polygon fill="white" stroke="black" points="1932,-0.5 1932,-21.5 2008,-21.5 2008,-0.5 1932,-0.5"/>
<text text-anchor="middle" x="1970" y="-7.9" font-family="Helvetica,sans-Serif" font-size="12.00">FatFile.cpp</text>
</a>
</g>
</g>
<!-- Node58&#45;&gt;Node62 -->
<g id="edge26" class="edge">
<title>Node58&#45;&gt;Node62</title>
<path fill="none" stroke="midnightblue" d="M1513.06,-65.36C1591.89,-59.85 1772.58,-45.62 1923,-22 1925.88,-21.55 1928.86,-21.03 1931.84,-20.48"/>
<polygon fill="midnightblue" stroke="midnightblue" points="1512.36,-61.9 1502.63,-66.08 1512.84,-68.88 1512.36,-61.9"/>
</g>
<!-- Node63 -->
<g id="node27" class="node">
<title>Node63</title>
<g id="a_node27"><a xlink:href="../../d6/d63/_fat_file_l_f_n_8cpp.html" target="_top" xlink:title=" ">
<polygon fill="white" stroke="black" points="2026,-0.5 2026,-21.5 2124,-21.5 2124,-0.5 2026,-0.5"/>
<text text-anchor="middle" x="2075" y="-7.9" font-family="Helvetica,sans-Serif" font-size="12.00">FatFileLFN.cpp</text>
</a>
</g>
</g>
<!-- Node58&#45;&gt;Node63 -->
<g id="edge27" class="edge">
<title>Node58&#45;&gt;Node63</title>
<path fill="none" stroke="midnightblue" d="M1512.61,-65.83C1602.53,-60.64 1828.9,-46.12 2017,-22 2019.94,-21.62 2022.96,-21.2 2026,-20.75"/>
<polygon fill="midnightblue" stroke="midnightblue" points="1512.36,-62.34 1502.58,-66.4 1512.76,-69.32 1512.36,-62.34"/>
</g>
<!-- Node64 -->
<g id="node28" class="node">
<title>Node64</title>
<g id="a_node28"><a xlink:href="../../dc/dd7/_fat_file_s_f_n_8cpp.html" target="_top" xlink:title=" ">
<polygon fill="white" stroke="black" points="2142,-0.5 2142,-21.5 2242,-21.5 2242,-0.5 2142,-0.5"/>
<text text-anchor="middle" x="2192" y="-7.9" font-family="Helvetica,sans-Serif" font-size="12.00">FatFileSFN.cpp</text>
</a>
</g>
</g>
<!-- Node58&#45;&gt;Node64 -->
<g id="edge28" class="edge">
<title>Node58&#45;&gt;Node64</title>
<path fill="none" stroke="midnightblue" d="M1512.95,-66.59C1615.96,-62.64 1898.92,-49.93 2133,-22 2135.89,-21.66 2138.85,-21.27 2141.84,-20.85"/>
<polygon fill="midnightblue" stroke="midnightblue" points="1512.56,-63.1 1502.7,-66.97 1512.82,-70.09 1512.56,-63.1"/>
</g>
<!-- Node65 -->
<g id="node29" class="node">
<title>Node65</title>
<g id="a_node29"><a xlink:href="../../dc/d9e/_fat_name_8cpp.html" target="_top" xlink:title=" ">
<polygon fill="white" stroke="black" points="1252,-0.5 1252,-21.5 1340,-21.5 1340,-0.5 1252,-0.5"/>
<text text-anchor="middle" x="1296" y="-7.9" font-family="Helvetica,sans-Serif" font-size="12.00">FatName.cpp</text>
</a>
</g>
</g>
<!-- Node58&#45;&gt;Node65 -->
<g id="edge29" class="edge">
<title>Node58&#45;&gt;Node65</title>
<path fill="none" stroke="midnightblue" d="M1433.76,-55.59C1401.35,-45.33 1355.99,-30.98 1326.32,-21.59"/>
<polygon fill="midnightblue" stroke="midnightblue" points="1432.78,-58.95 1443.37,-58.63 1434.9,-52.27 1432.78,-58.95"/>
</g>
<!-- Node66 -->
<g id="node30" class="node">
<title>Node66</title>
<g id="a_node30"><a xlink:href="../../db/dc9/_fat_formatter_8cpp.html" target="_top" xlink:title=" ">
<polygon fill="white" stroke="black" points="1358.5,-0.5 1358.5,-21.5 1465.5,-21.5 1465.5,-0.5 1358.5,-0.5"/>
<text text-anchor="middle" x="1412" y="-7.9" font-family="Helvetica,sans-Serif" font-size="12.00">FatFormatter.cpp</text>
</a>
</g>
</g>
<!-- Node58&#45;&gt;Node66 -->
<g id="edge30" class="edge">
<title>Node58&#45;&gt;Node66</title>
<path fill="none" stroke="midnightblue" d="M1454.88,-51.36C1444.32,-41.67 1431.39,-29.8 1422.5,-21.64"/>
<polygon fill="midnightblue" stroke="midnightblue" points="1452.64,-54.06 1462.37,-58.25 1457.38,-48.9 1452.64,-54.06"/>
</g>
<!-- Node67 -->
<g id="node31" class="node">
<title>Node67</title>
<g id="a_node31"><a xlink:href="../../d5/d8b/_fat_partition_8cpp.html" target="_top" xlink:title=" ">
<polygon fill="white" stroke="black" points="1484,-0.5 1484,-21.5 1584,-21.5 1584,-0.5 1484,-0.5"/>
<text text-anchor="middle" x="1534" y="-7.9" font-family="Helvetica,sans-Serif" font-size="12.00">FatPartition.cpp</text>
</a>
</g>
</g>
<!-- Node58&#45;&gt;Node67 -->
<g id="edge32" class="edge">
<title>Node58&#45;&gt;Node67</title>
<path fill="none" stroke="midnightblue" d="M1491.12,-51.36C1501.68,-41.67 1514.61,-29.8 1523.5,-21.64"/>
<polygon fill="midnightblue" stroke="midnightblue" points="1488.62,-48.9 1483.63,-58.25 1493.36,-54.06 1488.62,-48.9"/>
</g>
<!-- Node68&#45;&gt;Node7 -->
<g id="edge36" class="edge">
<title>Node68&#45;&gt;Node7</title>
<path fill="none" stroke="midnightblue" d="M1182.12,-281.27C1174.07,-266.11 1160.9,-245.17 1144,-232 1018.33,-134.06 827.22,-90.61 747.7,-76.02"/>
<polygon fill="midnightblue" stroke="midnightblue" points="1179.03,-282.91 1186.65,-290.26 1185.28,-279.76 1179.03,-282.91"/>
</g>
<!-- Node69&#45;&gt;Node58 -->
<g id="edge39" class="edge">
<title>Node69&#45;&gt;Node58</title>
<path fill="none" stroke="midnightblue" d="M1434.7,-164.91C1444.62,-140.33 1461.49,-98.52 1469.09,-79.69"/>
<polygon fill="midnightblue" stroke="midnightblue" points="1431.42,-163.7 1430.92,-174.28 1437.91,-166.32 1431.42,-163.7"/>
</g>
</g>
</svg>
        <g id="navigator" transform="translate(0 0)" fill="#404254">
                <rect fill="#f2f5e9" fill-opacity="0.5" stroke="#606060" stroke-width=".5" x="0" y="0" width="60" height="60"/>
                <use id="zoomplus" xlink:href="#zoomPlus" x="17" y="9" onmousedown="handleZoom(evt,'in')"/>
                <use id="zoomminus" xlink:href="#zoomMin" x="42" y="9" onmousedown="handleZoom(evt,'out')"/>
                <use id="reset" xlink:href="#resetDef" x="30" y="36" onmousedown="handleReset()"/>
                <g id="arrowUp" xlink:href="#dirArrow" transform="translate(30 24)" onmousedown="handlePan(0,-1)">
                  <use xlink:href="#rim" fill="#404040">
                        <set attributeName="fill" to="#808080" begin="arrowUp.mouseover" end="arrowUp.mouseout"/>
                  </use>
                  <path fill="none" stroke="white" stroke-width="1.5" d="M0,-3.0v7 M-2.5,-0.5L0,-3.0L2.5,-0.5"/>
                </g>
                <g id="arrowRight" xlink:href="#dirArrow" transform="rotate(90) translate(36 -43)" onmousedown="handlePan(1,0)">
                  <use xlink:href="#rim" fill="#404040">
                        <set attributeName="fill" to="#808080" begin="arrowRight.mouseover" end="arrowRight.mouseout"/>
                  </use>
                  <path fill="none" stroke="white" stroke-width="1.5" d="M0,-3.0v7 M-2.5,-0.5L0,-3.0L2.5,-0.5"/>
                </g>
                <g id="arrowDown" xlink:href="#dirArrow" transform="rotate(180) translate(-30 -48)" onmousedown="handlePan(0,1)">
                  <use xlink:href="#rim" fill="#404040">
                        <set attributeName="fill" to="#808080" begin="arrowDown.mouseover" end="arrowDown.mouseout"/>
                  </use>
                  <path fill="none" stroke="white" stroke-width="1.5" d="M0,-3.0v7 M-2.5,-0.5L0,-3.0L2.5,-0.5"/>
                </g>
                <g id="arrowLeft" xlink:href="#dirArrow" transform="rotate(270) translate(-36 17)" onmousedown="handlePan(-1,0)">
                  <use xlink:href="#rim" fill="#404040">
                        <set attributeName="fill" to="#808080" begin="arrowLeft.mouseover" end="arrowLeft.mouseout"/>
                  </use>
                  <path fill="none" stroke="white" stroke-width="1.5" d="M0,-3.0v7 M-2.5,-0.5L0,-3.0L2.5,-0.5"/>
                </g>
        </g>
        <svg viewBox="0 0 15 15" width="100%" height="30px" preserveAspectRatio="xMaxYMin meet">
         <g id="arrow_out" transform="scale(0.3 0.3)">
          <a xlink:href="_block_device_8h__dep__incl_org.svg" target="_base">
           <rect id="button" ry="5" rx="5" y="6" x="6" height="38" width="38"
                fill="#f2f5e9" fill-opacity="0.5" stroke="#606060" stroke-width="1.0"/>
           <path id="arrow"
             d="M 11.500037,31.436501 C 11.940474,20.09759 22.043105,11.32322 32.158766,21.979434 L 37.068811,17.246167 C 37.068811,17.246167 37.088388,32 37.088388,32 L 22.160133,31.978069 C 22.160133,31.978069 26.997745,27.140456 26.997745,27.140456 C 18.528582,18.264221 13.291696,25.230495 11.500037,31.436501 z"
             style="fill:#404040;"/>
          </a>
         </g>
        </svg>
</svg>
