<?xml version="1.0" encoding="UTF-8" standalone="no"?>
<!DOCTYPE svg PUBLIC "-//W3C//DTD SVG 1.1//EN"
 "http://www.w3.org/Graphics/SVG/1.1/DTD/svg11.dtd">
<!-- Generated by graphviz version 2.47.3 (20210619.1520)
 -->
<!-- Title: ERISCore/lib/SdFat&#45;master/src/SdCard/SdioCard.h Pages: 1 -->
<!--zoomable 1076 -->
<svg id="main" version="1.1" xmlns="http://www.w3.org/2000/svg" xmlns:xlink="http://www.w3.org/1999/xlink" xml:space="preserve" onload="init(evt)">
<style type="text/css"><![CDATA[
.edge:hover path { stroke: red; }
.edge:hover polygon { stroke: red; fill: red; }
]]></style>
<script type="text/javascript"><![CDATA[
var edges = document.getElementsByTagName('g');
if (edges && edges.length) {
  for (var i=0;i<edges.length;i++) {
    if (edges[i].id.substr(0,4)=='edge') {
      edges[i].setAttribute('class','edge');
    }
  }
}
]]></script>
        <defs>
                <circle id="rim" cx="0" cy="0" r="7"/>
                <circle id="rim2" cx="0" cy="0" r="3.5"/>
                <g id="zoomPlus">
                        <use xlink:href="#rim" fill="#404040">
                                <set attributeName="fill" to="#808080" begin="zoomplus.mouseover" end="zoomplus.mouseout"/>
                        </use>
                        <path d="M-4,0h8M0,-4v8" fill="none" stroke="white" stroke-width="1.5" pointer-events="none"/>
                </g>
                <g id="zoomMin">
                        <use xlink:href="#rim" fill="#404040">
                                <set attributeName="fill" to="#808080" begin="zoomminus.mouseover" end="zoomminus.mouseout"/>
                        </use>
                        <path d="M-4,0h8" fill="none" stroke="white" stroke-width="1.5" pointer-events="none"/>
                </g>
                <g id="dirArrow">
                        <path fill="none" stroke="white" stroke-width="1.5" d="M0,-3.0v7 M-2.5,-0.5L0,-3.0L2.5,-0.5"/>
                </g>
               <g id="resetDef">
                       <use xlink:href="#rim2" fill="#404040">
                               <set attributeName="fill" to="#808080" begin="reset.mouseover" end="reset.mouseout"/>
                       </use>
               </g>
        </defs>

<script type="text/javascript">
var viewWidth = 1719;
var viewHeight = 1076;
var sectionId = 'dynsection-1';
</script>
<script xlink:href="../../svgpan.js"/>
<svg id="graph" class="graph">
<g id="viewport">
<title>ERISCore/lib/SdFat&#45;master/src/SdCard/SdioCard.h</title>
<polygon fill="white" stroke="transparent" points="-4,4 -4,-1072 1715,-1072 1715,4 -4,4"/>
<!-- Node1 -->
<g id="node1" class="node">
<title>Node1</title>
<g id="a_node1"><a xlink:title=" ">
<polygon fill="#bfbfbf" stroke="black" points="439,-1033.5 439,-1067.5 621,-1067.5 621,-1033.5 439,-1033.5"/>
<text text-anchor="start" x="447" y="-1053.9" font-family="Helvetica,sans-Serif" font-size="12.00">ERISCore/lib/SdFat</text>
<text text-anchor="middle" x="530" y="-1040.9" font-family="Helvetica,sans-Serif" font-size="12.00">&#45;master/src/SdCard/SdioCard.h</text>
</a>
</g>
</g>
<!-- Node2 -->
<g id="node2" class="node">
<title>Node2</title>
<g id="a_node2"><a xlink:href="../../d2/dda/_i_l_i9341__t3___e_r_i_s_8h.html" target="_top" xlink:title=" ">
<polygon fill="white" stroke="black" points="639.5,-329.5 639.5,-363.5 790.5,-363.5 790.5,-329.5 639.5,-329.5"/>
<text text-anchor="start" x="647.5" y="-349.9" font-family="Helvetica,sans-Serif" font-size="12.00">ERISCore/include/ILI9341</text>
<text text-anchor="middle" x="715" y="-336.9" font-family="Helvetica,sans-Serif" font-size="12.00">_t3_ERIS.h</text>
</a>
</g>
</g>
<!-- Node1&#45;&gt;Node2 -->
<g id="edge1" class="edge">
<title>Node1&#45;&gt;Node2</title>
<path fill="none" stroke="midnightblue" d="M594.95,-1029.98C648.25,-1009.48 715,-971.43 715,-909.5 715,-909.5 715,-909.5 715,-494 715,-446.69 715,-390.79 715,-363.76"/>
<polygon fill="midnightblue" stroke="midnightblue" points="593.66,-1026.73 585.51,-1033.49 596.1,-1033.29 593.66,-1026.73"/>
</g>
<!-- Node7 -->
<g id="node7" class="node">
<title>Node7</title>
<g id="a_node7"><a xlink:href="../../d6/dd8/_eris_core_8cpp.html" target="_top" xlink:title=" ">
<polygon fill="white" stroke="black" points="392.5,-0.5 392.5,-21.5 553.5,-21.5 553.5,-0.5 392.5,-0.5"/>
<text text-anchor="middle" x="473" y="-7.9" font-family="Helvetica,sans-Serif" font-size="12.00">ERISCore/src/ErisCore.cpp</text>
</a>
</g>
</g>
<!-- Node1&#45;&gt;Node7 -->
<g id="edge29" class="edge">
<title>Node1&#45;&gt;Node7</title>
<path fill="none" stroke="midnightblue" d="M428.48,-1043.34C274.59,-1031.17 0,-997.18 0,-909.5 0,-909.5 0,-909.5 0,-145.5 0,-64.92 257.47,-30.57 392.49,-18.1"/>
<polygon fill="midnightblue" stroke="midnightblue" points="428.65,-1046.86 438.89,-1044.14 429.19,-1039.88 428.65,-1046.86"/>
</g>
<!-- Node18 -->
<g id="node18" class="node">
<title>Node18</title>
<g id="a_node18"><a xlink:href="../../db/d31/_sd_card_8h.html" target="_top" xlink:title=" ">
<polygon fill="white" stroke="black" points="443.5,-962.5 443.5,-996.5 616.5,-996.5 616.5,-962.5 443.5,-962.5"/>
<text text-anchor="start" x="451.5" y="-982.9" font-family="Helvetica,sans-Serif" font-size="12.00">ERISCore/lib/SdFat</text>
<text text-anchor="middle" x="530" y="-969.9" font-family="Helvetica,sans-Serif" font-size="12.00">&#45;master/src/SdCard/SdCard.h</text>
</a>
</g>
</g>
<!-- Node1&#45;&gt;Node18 -->
<g id="edge30" class="edge">
<title>Node1&#45;&gt;Node18</title>
<path fill="none" stroke="midnightblue" d="M530,-1023.25C530,-1014.39 530,-1004.77 530,-996.9"/>
<polygon fill="midnightblue" stroke="midnightblue" points="526.5,-1023.5 530,-1033.5 533.5,-1023.5 526.5,-1023.5"/>
</g>
<!-- Node3 -->
<g id="node3" class="node">
<title>Node3</title>
<g id="a_node3"><a xlink:href="../../d9/d3e/_app_base_class_8h.html" target="_top" xlink:title=" ">
<polygon fill="white" stroke="black" points="470,-258.5 470,-292.5 632,-292.5 632,-258.5 470,-258.5"/>
<text text-anchor="start" x="478" y="-278.9" font-family="Helvetica,sans-Serif" font-size="12.00">ERISCore/include/AppBase</text>
<text text-anchor="middle" x="551" y="-265.9" font-family="Helvetica,sans-Serif" font-size="12.00">Class.h</text>
</a>
</g>
</g>
<!-- Node2&#45;&gt;Node3 -->
<g id="edge2" class="edge">
<title>Node2&#45;&gt;Node3</title>
<path fill="none" stroke="midnightblue" d="M667.68,-325.59C642.74,-315.1 612.54,-302.39 589.11,-292.54"/>
<polygon fill="midnightblue" stroke="midnightblue" points="666.39,-328.84 676.96,-329.5 669.1,-322.39 666.39,-328.84"/>
</g>
<!-- Node4 -->
<g id="node4" class="node">
<title>Node4</title>
<g id="a_node4"><a xlink:href="../../df/d72/_app_manager_8h.html" target="_top" xlink:title=" ">
<polygon fill="white" stroke="black" points="713,-200.5 713,-221.5 903,-221.5 903,-200.5 713,-200.5"/>
<text text-anchor="middle" x="808" y="-207.9" font-family="Helvetica,sans-Serif" font-size="12.00">ERISCore/include/AppManager.h</text>
</a>
</g>
</g>
<!-- Node2&#45;&gt;Node4 -->
<g id="edge26" class="edge">
<title>Node2&#45;&gt;Node4</title>
<path fill="none" stroke="midnightblue" d="M756.41,-323.84C768.53,-315.66 780.72,-305.31 789,-293 804.07,-270.59 807.26,-237.7 807.89,-221.6"/>
<polygon fill="midnightblue" stroke="midnightblue" points="754.22,-321.08 747.66,-329.4 757.98,-326.99 754.22,-321.08"/>
</g>
<!-- Node16 -->
<g id="node16" class="node">
<title>Node16</title>
<g id="a_node16"><a xlink:href="../../dc/d40/_app_manager_8cpp.html" target="_top" xlink:title=" ">
<polygon fill="white" stroke="black" points="1529,-136 1529,-157 1711,-157 1711,-136 1529,-136"/>
<text text-anchor="middle" x="1620" y="-143.4" font-family="Helvetica,sans-Serif" font-size="12.00">ERISCore/src/AppManager.cpp</text>
</a>
</g>
</g>
<!-- Node2&#45;&gt;Node16 -->
<g id="edge28" class="edge">
<title>Node2&#45;&gt;Node16</title>
<path fill="none" stroke="midnightblue" d="M798.09,-327.32C985.32,-286.36 1434.88,-188 1576.51,-157.02"/>
<polygon fill="midnightblue" stroke="midnightblue" points="797.31,-323.91 788.29,-329.46 798.81,-330.75 797.31,-323.91"/>
</g>
<!-- Node17 -->
<g id="node17" class="node">
<title>Node17</title>
<g id="a_node17"><a xlink:href="../../d4/df8/_i_l_i9341__t3___e_r_i_s_8cpp.html" target="_top" xlink:title=" ">
<polygon fill="white" stroke="black" points="650,-258.5 650,-292.5 780,-292.5 780,-258.5 650,-258.5"/>
<text text-anchor="start" x="658" y="-278.9" font-family="Helvetica,sans-Serif" font-size="12.00">ERISCore/src/ILI9341</text>
<text text-anchor="middle" x="715" y="-265.9" font-family="Helvetica,sans-Serif" font-size="12.00">_t3_ERIS.cpp</text>
</a>
</g>
</g>
<!-- Node2&#45;&gt;Node17 -->
<g id="edge27" class="edge">
<title>Node2&#45;&gt;Node17</title>
<path fill="none" stroke="midnightblue" d="M715,-319.25C715,-310.39 715,-300.77 715,-292.9"/>
<polygon fill="midnightblue" stroke="midnightblue" points="711.5,-319.5 715,-329.5 718.5,-319.5 711.5,-319.5"/>
</g>
<!-- Node3&#45;&gt;Node4 -->
<g id="edge3" class="edge">
<title>Node3&#45;&gt;Node4</title>
<path fill="none" stroke="midnightblue" d="M626.61,-256.11C673.22,-244.78 731.07,-230.71 768.73,-221.55"/>
<polygon fill="midnightblue" stroke="midnightblue" points="625.74,-252.72 616.85,-258.49 627.39,-259.52 625.74,-252.72"/>
</g>
<!-- Node5 -->
<g id="node5" class="node">
<title>Node5</title>
<g id="a_node5"><a xlink:href="../../db/d6b/app_serial_command_interface_8h.html" target="_top" xlink:title=" ">
<polygon fill="white" stroke="black" points="272,-129.5 272,-163.5 436,-163.5 436,-129.5 272,-129.5"/>
<text text-anchor="start" x="280" y="-149.9" font-family="Helvetica,sans-Serif" font-size="12.00">ERISCore/include/appSerial</text>
<text text-anchor="middle" x="354" y="-136.9" font-family="Helvetica,sans-Serif" font-size="12.00">CommandInterface.h</text>
</a>
</g>
</g>
<!-- Node3&#45;&gt;Node5 -->
<g id="edge24" class="edge">
<title>Node3&#45;&gt;Node5</title>
<path fill="none" stroke="midnightblue" d="M517.6,-252.97C478.39,-227.69 414.25,-186.34 379.06,-163.65"/>
<polygon fill="midnightblue" stroke="midnightblue" points="515.75,-255.94 526.05,-258.42 519.54,-250.06 515.75,-255.94"/>
</g>
<!-- Node15 -->
<g id="node15" class="node">
<title>Node15</title>
<g id="a_node15"><a xlink:href="../../d4/db1/_app_base_class_8cpp.html" target="_top" xlink:title=" ">
<polygon fill="white" stroke="black" points="454,-136 454,-157 648,-157 648,-136 454,-136"/>
<text text-anchor="middle" x="551" y="-143.4" font-family="Helvetica,sans-Serif" font-size="12.00">ERISCore/src/AppBaseClass.cpp</text>
</a>
</g>
</g>
<!-- Node3&#45;&gt;Node15 -->
<g id="edge25" class="edge">
<title>Node3&#45;&gt;Node15</title>
<path fill="none" stroke="midnightblue" d="M551,-248.05C551,-219.79 551,-176.49 551,-157.27"/>
<polygon fill="midnightblue" stroke="midnightblue" points="547.5,-248.42 551,-258.42 554.5,-248.42 547.5,-248.42"/>
</g>
<!-- Node4&#45;&gt;Node5 -->
<g id="edge4" class="edge">
<title>Node4&#45;&gt;Node5</title>
<path fill="none" stroke="midnightblue" d="M712.6,-199.32C639.28,-190.77 535.55,-177.94 445,-164 442.14,-163.56 439.24,-163.1 436.31,-162.63"/>
<polygon fill="midnightblue" stroke="midnightblue" points="712.4,-202.82 722.74,-200.5 713.21,-195.87 712.4,-202.82"/>
</g>
<!-- Node6 -->
<g id="node6" class="node">
<title>Node6</title>
<g id="a_node6"><a xlink:href="../../d6/d0f/app_serial_command_interface_8cpp.html" target="_top" xlink:title=" ">
<polygon fill="white" stroke="black" points="332.5,-58.5 332.5,-92.5 529.5,-92.5 529.5,-58.5 332.5,-58.5"/>
<text text-anchor="start" x="340.5" y="-78.9" font-family="Helvetica,sans-Serif" font-size="12.00">ERISCore/src/appSerialCommand</text>
<text text-anchor="middle" x="431" y="-65.9" font-family="Helvetica,sans-Serif" font-size="12.00">Interface.cpp</text>
</a>
</g>
</g>
<!-- Node4&#45;&gt;Node6 -->
<g id="edge21" class="edge">
<title>Node4&#45;&gt;Node6</title>
<path fill="none" stroke="midnightblue" d="M774.38,-196.52C754.36,-188.05 728.71,-176.4 707,-164 683.45,-150.54 681.77,-140.05 657,-129 631.66,-117.7 568.16,-103.36 514.9,-92.52"/>
<polygon fill="midnightblue" stroke="midnightblue" points="773.14,-199.8 783.71,-200.42 775.83,-193.34 773.14,-199.8"/>
</g>
<!-- Node8 -->
<g id="node8" class="node">
<title>Node8</title>
<g id="a_node8"><a xlink:href="../../d8/d1f/app_scope_8h.html" target="_top" xlink:title=" ">
<polygon fill="white" stroke="black" points="1004,-136 1004,-157 1180,-157 1180,-136 1004,-136"/>
<text text-anchor="middle" x="1092" y="-143.4" font-family="Helvetica,sans-Serif" font-size="12.00">ERISCore/include/appScope.h</text>
</a>
</g>
</g>
<!-- Node4&#45;&gt;Node8 -->
<g id="edge7" class="edge">
<title>Node4&#45;&gt;Node8</title>
<path fill="none" stroke="midnightblue" d="M861.54,-198.22C915.68,-186.3 998.35,-168.11 1048.56,-157.06"/>
<polygon fill="midnightblue" stroke="midnightblue" points="860.46,-194.87 851.44,-200.44 861.96,-201.71 860.46,-194.87"/>
</g>
<!-- Node9 -->
<g id="node9" class="node">
<title>Node9</title>
<g id="a_node9"><a xlink:href="../../d2/d6c/app_example_8h.html" target="_top" xlink:title="Application Example.">
<polygon fill="white" stroke="black" points="987,-65 987,-86 1175,-86 1175,-65 987,-65"/>
<text text-anchor="middle" x="1081" y="-72.4" font-family="Helvetica,sans-Serif" font-size="12.00">ERISCore/include/appExample.h</text>
</a>
</g>
</g>
<!-- Node4&#45;&gt;Node9 -->
<g id="edge22" class="edge">
<title>Node4&#45;&gt;Node9</title>
<path fill="none" stroke="midnightblue" d="M867.66,-198.04C895.95,-190.79 929.5,-179.82 957,-164 976.9,-152.55 976.67,-142.83 995,-129 1017.35,-112.15 1045.35,-95.85 1063.22,-86"/>
<polygon fill="midnightblue" stroke="midnightblue" points="866.76,-194.66 857.89,-200.45 868.44,-201.46 866.76,-194.66"/>
</g>
<!-- Node10 -->
<g id="node10" class="node">
<title>Node10</title>
<g id="a_node10"><a xlink:href="../../d4/d50/control_slider_8h.html" target="_top" xlink:title=" ">
<polygon fill="white" stroke="black" points="1198.5,-129.5 1198.5,-163.5 1345.5,-163.5 1345.5,-129.5 1198.5,-129.5"/>
<text text-anchor="start" x="1206.5" y="-149.9" font-family="Helvetica,sans-Serif" font-size="12.00">ERISCore/include/control</text>
<text text-anchor="middle" x="1272" y="-136.9" font-family="Helvetica,sans-Serif" font-size="12.00">Slider.h</text>
</a>
</g>
</g>
<!-- Node4&#45;&gt;Node10 -->
<g id="edge10" class="edge">
<title>Node4&#45;&gt;Node10</title>
<path fill="none" stroke="midnightblue" d="M913.15,-199.48C989.83,-191.28 1096.12,-178.82 1189,-164 1192.05,-163.51 1195.15,-163 1198.29,-162.46"/>
<polygon fill="midnightblue" stroke="midnightblue" points="912.58,-196.02 903.01,-200.56 913.32,-202.98 912.58,-196.02"/>
</g>
<!-- Node11 -->
<g id="node11" class="node">
<title>Node11</title>
<g id="a_node11"><a xlink:href="../../d3/d0e/app_template_8h.html" target="_top" xlink:title=" ">
<polygon fill="white" stroke="black" points="547.5,-65 547.5,-86 738.5,-86 738.5,-65 547.5,-65"/>
<text text-anchor="middle" x="643" y="-72.4" font-family="Helvetica,sans-Serif" font-size="12.00">ERISCore/include/appTemplate.h</text>
</a>
</g>
</g>
<!-- Node4&#45;&gt;Node11 -->
<g id="edge12" class="edge">
<title>Node4&#45;&gt;Node11</title>
<path fill="none" stroke="midnightblue" d="M788.13,-193.92C753.4,-165.83 682.71,-108.63 654.76,-86.01"/>
<polygon fill="midnightblue" stroke="midnightblue" points="786.16,-196.83 796.13,-200.4 790.56,-191.39 786.16,-196.83"/>
</g>
<!-- Node12 -->
<g id="node12" class="node">
<title>Node12</title>
<g id="a_node12"><a xlink:href="../../dc/ddf/control_button_8h.html" target="_top" xlink:title=" ">
<polygon fill="white" stroke="black" points="1363.5,-129.5 1363.5,-163.5 1510.5,-163.5 1510.5,-129.5 1363.5,-129.5"/>
<text text-anchor="start" x="1371.5" y="-149.9" font-family="Helvetica,sans-Serif" font-size="12.00">ERISCore/include/control</text>
<text text-anchor="middle" x="1437" y="-136.9" font-family="Helvetica,sans-Serif" font-size="12.00">Button.h</text>
</a>
</g>
</g>
<!-- Node4&#45;&gt;Node12 -->
<g id="edge14" class="edge">
<title>Node4&#45;&gt;Node12</title>
<path fill="none" stroke="midnightblue" d="M913.38,-204.73C1023.83,-198.37 1202.2,-185.72 1355,-164 1357.73,-163.61 1360.51,-163.19 1363.31,-162.74"/>
<polygon fill="midnightblue" stroke="midnightblue" points="913.02,-201.25 903.24,-205.31 913.42,-208.24 913.02,-201.25"/>
</g>
<!-- Node13 -->
<g id="node13" class="node">
<title>Node13</title>
<g id="a_node13"><a xlink:href="../../dd/d93/app_reprogram_8h.html" target="_top" xlink:title=" ">
<polygon fill="white" stroke="black" points="756.5,-65 756.5,-86 957.5,-86 957.5,-65 756.5,-65"/>
<text text-anchor="middle" x="857" y="-72.4" font-family="Helvetica,sans-Serif" font-size="12.00">ERISCore/include/appReprogram.h</text>
</a>
</g>
</g>
<!-- Node4&#45;&gt;Node13 -->
<g id="edge16" class="edge">
<title>Node4&#45;&gt;Node13</title>
<path fill="none" stroke="midnightblue" d="M789.77,-193.09C782.44,-185.08 774.83,-174.88 771,-164 765.83,-149.33 763.39,-142.57 771,-129 782.9,-107.8 807.23,-94.14 826.99,-86.09"/>
<polygon fill="midnightblue" stroke="midnightblue" points="787.35,-195.63 796.85,-200.33 792.36,-190.73 787.35,-195.63"/>
</g>
<!-- Node14 -->
<g id="node14" class="node">
<title>Node14</title>
<g id="a_node14"><a xlink:href="../../d4/d75/app_c_q_t_8h.html" target="_top" xlink:title=" ">
<polygon fill="white" stroke="black" points="780.5,-136 780.5,-157 947.5,-157 947.5,-136 780.5,-136"/>
<text text-anchor="middle" x="864" y="-143.4" font-family="Helvetica,sans-Serif" font-size="12.00">ERISCore/include/appCQT.h</text>
</a>
</g>
</g>
<!-- Node4&#45;&gt;Node14 -->
<g id="edge18" class="edge">
<title>Node4&#45;&gt;Node14</title>
<path fill="none" stroke="midnightblue" d="M823.57,-192.62C833.74,-181.27 846.67,-166.85 855.13,-157.4"/>
<polygon fill="midnightblue" stroke="midnightblue" points="820.82,-190.45 816.75,-200.23 826.03,-195.12 820.82,-190.45"/>
</g>
<!-- Node4&#45;&gt;Node15 -->
<g id="edge20" class="edge">
<title>Node4&#45;&gt;Node15</title>
<path fill="none" stroke="midnightblue" d="M758.94,-198.07C709.93,-186.15 635.56,-168.06 590.31,-157.06"/>
<polygon fill="midnightblue" stroke="midnightblue" points="758.14,-201.48 768.69,-200.44 759.8,-194.68 758.14,-201.48"/>
</g>
<!-- Node4&#45;&gt;Node16 -->
<g id="edge23" class="edge">
<title>Node4&#45;&gt;Node16</title>
<path fill="none" stroke="midnightblue" d="M913.52,-206.45C1052.78,-201.02 1305.39,-188.58 1520,-164 1535.82,-162.19 1552.95,-159.6 1568.49,-157"/>
<polygon fill="midnightblue" stroke="midnightblue" points="913.14,-202.96 903.28,-206.84 913.41,-209.96 913.14,-202.96"/>
</g>
<!-- Node5&#45;&gt;Node6 -->
<g id="edge5" class="edge">
<title>Node5&#45;&gt;Node6</title>
<path fill="none" stroke="midnightblue" d="M379.5,-122.65C390.45,-112.83 403,-101.59 412.97,-92.66"/>
<polygon fill="midnightblue" stroke="midnightblue" points="376.97,-120.22 371.86,-129.5 381.64,-125.43 376.97,-120.22"/>
</g>
<!-- Node5&#45;&gt;Node7 -->
<g id="edge6" class="edge">
<title>Node5&#45;&gt;Node7</title>
<path fill="none" stroke="midnightblue" d="M333.74,-121.02C320.9,-102.38 309.1,-76.79 323,-58 339.27,-35.99 365.89,-24.17 392.22,-17.93"/>
<polygon fill="midnightblue" stroke="midnightblue" points="331.08,-123.32 339.82,-129.31 336.73,-119.18 331.08,-123.32"/>
</g>
<!-- Node8&#45;&gt;Node9 -->
<g id="edge8" class="edge">
<title>Node8&#45;&gt;Node9</title>
<path fill="none" stroke="midnightblue" d="M1088.89,-125.98C1086.8,-112.91 1084.15,-96.28 1082.52,-86.01"/>
<polygon fill="midnightblue" stroke="midnightblue" points="1085.44,-126.58 1090.47,-135.91 1092.35,-125.48 1085.44,-126.58"/>
</g>
<!-- Node9&#45;&gt;Node7 -->
<g id="edge9" class="edge">
<title>Node9&#45;&gt;Node7</title>
<path fill="none" stroke="midnightblue" d="M1009.19,-63.54C995.22,-61.57 980.66,-59.62 967,-58 821.59,-40.72 651.46,-26.1 553.56,-18.24"/>
<polygon fill="midnightblue" stroke="midnightblue" points="1008.85,-67.03 1019.25,-64.98 1009.84,-60.1 1008.85,-67.03"/>
</g>
<!-- Node10&#45;&gt;Node9 -->
<g id="edge11" class="edge">
<title>Node10&#45;&gt;Node9</title>
<path fill="none" stroke="midnightblue" d="M1218.26,-126.08C1182.06,-113.01 1135.9,-96.33 1107.41,-86.04"/>
<polygon fill="midnightblue" stroke="midnightblue" points="1217.11,-129.39 1227.7,-129.5 1219.48,-122.81 1217.11,-129.39"/>
</g>
<!-- Node11&#45;&gt;Node7 -->
<g id="edge13" class="edge">
<title>Node11&#45;&gt;Node7</title>
<path fill="none" stroke="midnightblue" d="M607.26,-61.36C574.86,-49.45 527.87,-32.17 498.94,-21.54"/>
<polygon fill="midnightblue" stroke="midnightblue" points="606.22,-64.71 616.81,-64.87 608.63,-58.14 606.22,-64.71"/>
</g>
<!-- Node12&#45;&gt;Node9 -->
<g id="edge15" class="edge">
<title>Node12&#45;&gt;Node9</title>
<path fill="none" stroke="midnightblue" d="M1353.38,-128.69C1270.21,-112.39 1184.43,-96.05 1131.53,-86.04"/>
<polygon fill="midnightblue" stroke="midnightblue" points="1352.76,-132.14 1363.25,-130.63 1354.11,-125.27 1352.76,-132.14"/>
</g>
<!-- Node13&#45;&gt;Node7 -->
<g id="edge17" class="edge">
<title>Node13&#45;&gt;Node7</title>
<path fill="none" stroke="midnightblue" d="M788.21,-63.3C715,-51.39 600.4,-32.74 531.42,-21.51"/>
<polygon fill="midnightblue" stroke="midnightblue" points="787.83,-66.79 798.26,-64.94 788.95,-59.88 787.83,-66.79"/>
</g>
<!-- Node14&#45;&gt;Node9 -->
<g id="edge19" class="edge">
<title>Node14&#45;&gt;Node9</title>
<path fill="none" stroke="midnightblue" d="M903.92,-132.81C946.45,-119.28 1012.83,-98.18 1051.08,-86.01"/>
<polygon fill="midnightblue" stroke="midnightblue" points="902.64,-129.54 894.17,-135.91 904.76,-136.21 902.64,-129.54"/>
</g>
<!-- Node19 -->
<g id="node19" class="node">
<title>Node19</title>
<g id="a_node19"><a xlink:href="../../d7/df6/_block_device_8h.html" target="_top" xlink:title=" ">
<polygon fill="white" stroke="black" points="291.5,-891.5 291.5,-925.5 492.5,-925.5 492.5,-891.5 291.5,-891.5"/>
<text text-anchor="start" x="299.5" y="-911.9" font-family="Helvetica,sans-Serif" font-size="12.00">ERISCore/lib/SdFat</text>
<text text-anchor="middle" x="392" y="-898.9" font-family="Helvetica,sans-Serif" font-size="12.00">&#45;master/src/common/BlockDevice.h</text>
</a>
</g>
</g>
<!-- Node18&#45;&gt;Node19 -->
<g id="edge31" class="edge">
<title>Node18&#45;&gt;Node19</title>
<path fill="none" stroke="midnightblue" d="M488.83,-957.91C468.19,-947.59 443.56,-935.28 424.31,-925.66"/>
<polygon fill="midnightblue" stroke="midnightblue" points="487.48,-961.15 497.99,-962.5 490.61,-954.89 487.48,-961.15"/>
</g>
<!-- Node51 -->
<g id="node26" class="node">
<title>Node51</title>
<g id="a_node26"><a xlink:href="../../d5/ddc/_sd_fat_8h.html" target="_top" xlink:title="main SdFs include file.">
<polygon fill="white" stroke="black" points="364,-400.5 364,-434.5 484,-434.5 484,-400.5 364,-400.5"/>
<text text-anchor="start" x="372" y="-420.9" font-family="Helvetica,sans-Serif" font-size="12.00">ERISCore/lib/SdFat</text>
<text text-anchor="middle" x="424" y="-407.9" font-family="Helvetica,sans-Serif" font-size="12.00">&#45;master/src/SdFat.h</text>
</a>
</g>
</g>
<!-- Node18&#45;&gt;Node51 -->
<g id="edge53" class="edge">
<title>Node18&#45;&gt;Node51</title>
<path fill="none" stroke="midnightblue" d="M574.55,-957.55C617.81,-933.77 677,-890.53 677,-832 677,-832 677,-832 677,-578 677,-487.26 559.11,-446.08 484.28,-429.08"/>
<polygon fill="midnightblue" stroke="midnightblue" points="572.76,-954.54 565.58,-962.33 576.06,-960.72 572.76,-954.54"/>
</g>
<!-- Node20 -->
<g id="node20" class="node">
<title>Node20</title>
<g id="a_node20"><a xlink:href="../../d1/d0d/_fs_cache_8h.html" target="_top" xlink:title="Common cache code for exFAT and FAT.">
<polygon fill="white" stroke="black" points="231.5,-814 231.5,-848 414.5,-848 414.5,-814 231.5,-814"/>
<text text-anchor="start" x="239.5" y="-834.4" font-family="Helvetica,sans-Serif" font-size="12.00">ERISCore/lib/SdFat</text>
<text text-anchor="middle" x="323" y="-821.4" font-family="Helvetica,sans-Serif" font-size="12.00">&#45;master/src/common/FsCache.h</text>
</a>
</g>
</g>
<!-- Node19&#45;&gt;Node20 -->
<g id="edge32" class="edge">
<title>Node19&#45;&gt;Node20</title>
<path fill="none" stroke="midnightblue" d="M370.4,-883.87C359.82,-872.29 347.35,-858.64 337.85,-848.25"/>
<polygon fill="midnightblue" stroke="midnightblue" points="368.04,-886.47 377.37,-891.49 373.2,-881.75 368.04,-886.47"/>
</g>
<!-- Node22 -->
<g id="node22" class="node">
<title>Node22</title>
<g id="a_node22"><a xlink:href="../../d7/dc8/_ex_fat_partition_8h.html" target="_top" xlink:title="ExFatPartition include file.">
<polygon fill="white" stroke="black" points="523.5,-723.5 523.5,-770.5 648.5,-770.5 648.5,-723.5 523.5,-723.5"/>
<text text-anchor="start" x="531.5" y="-756.9" font-family="Helvetica,sans-Serif" font-size="12.00">ERISCore/lib/SdFat</text>
<text text-anchor="start" x="531.5" y="-743.9" font-family="Helvetica,sans-Serif" font-size="12.00">&#45;master/src/ExFatLib</text>
<text text-anchor="middle" x="586" y="-730.9" font-family="Helvetica,sans-Serif" font-size="12.00">/ExFatPartition.h</text>
</a>
</g>
</g>
<!-- Node19&#45;&gt;Node22 -->
<g id="edge49" class="edge">
<title>Node19&#45;&gt;Node22</title>
<path fill="none" stroke="midnightblue" d="M502.55,-893.55C526.35,-885.69 549.33,-873.58 566,-855 586.7,-831.93 589.08,-794.51 588.13,-770.59"/>
<polygon fill="midnightblue" stroke="midnightblue" points="501.22,-890.3 492.68,-896.57 503.27,-896.99 501.22,-890.3"/>
</g>
<!-- Node53 -->
<g id="node27" class="node">
<title>Node53</title>
<g id="a_node27"><a xlink:href="../../db/dd3/_fat_partition_8h.html" target="_top" xlink:title="FatPartition class.">
<polygon fill="white" stroke="black" points="66.5,-730 66.5,-764 251.5,-764 251.5,-730 66.5,-730"/>
<text text-anchor="start" x="74.5" y="-750.4" font-family="Helvetica,sans-Serif" font-size="12.00">ERISCore/lib/SdFat</text>
<text text-anchor="middle" x="159" y="-737.4" font-family="Helvetica,sans-Serif" font-size="12.00">&#45;master/src/FatLib/FatPartition.h</text>
</a>
</g>
</g>
<!-- Node19&#45;&gt;Node53 -->
<g id="edge52" class="edge">
<title>Node19&#45;&gt;Node53</title>
<path fill="none" stroke="midnightblue" d="M287.34,-888.39C264.19,-880.72 240.95,-869.99 222,-855 191.56,-830.93 172.78,-787.81 164.31,-764.33"/>
<polygon fill="midnightblue" stroke="midnightblue" points="286.29,-891.73 296.88,-891.39 288.39,-885.06 286.29,-891.73"/>
</g>
<!-- Node66 -->
<g id="node31" class="node">
<title>Node66</title>
<g id="a_node31"><a xlink:href="../../d8/d58/_ex_fat_formatter_8h.html" target="_top" xlink:title=" ">
<polygon fill="white" stroke="black" points="432.5,-807.5 432.5,-854.5 557.5,-854.5 557.5,-807.5 432.5,-807.5"/>
<text text-anchor="start" x="440.5" y="-840.9" font-family="Helvetica,sans-Serif" font-size="12.00">ERISCore/lib/SdFat</text>
<text text-anchor="start" x="440.5" y="-827.9" font-family="Helvetica,sans-Serif" font-size="12.00">&#45;master/src/ExFatLib</text>
<text text-anchor="middle" x="495" y="-814.9" font-family="Helvetica,sans-Serif" font-size="12.00">/ExFatFormatter.h</text>
</a>
</g>
</g>
<!-- Node19&#45;&gt;Node66 -->
<g id="edge47" class="edge">
<title>Node19&#45;&gt;Node66</title>
<path fill="none" stroke="midnightblue" d="M422.16,-885.39C435.39,-875.69 450.9,-864.33 464.2,-854.58"/>
<polygon fill="midnightblue" stroke="midnightblue" points="419.84,-882.75 413.84,-891.49 423.98,-888.4 419.84,-882.75"/>
</g>
<!-- Node67 -->
<g id="node32" class="node">
<title>Node67</title>
<g id="a_node32"><a xlink:href="../../d8/d20/_fat_formatter_8h.html" target="_top" xlink:title=" ">
<polygon fill="white" stroke="black" points="28,-646 28,-680 220,-680 220,-646 28,-646"/>
<text text-anchor="start" x="36" y="-666.4" font-family="Helvetica,sans-Serif" font-size="12.00">ERISCore/lib/SdFat</text>
<text text-anchor="middle" x="124" y="-653.4" font-family="Helvetica,sans-Serif" font-size="12.00">&#45;master/src/FatLib/FatFormatter.h</text>
</a>
</g>
</g>
<!-- Node19&#45;&gt;Node67 -->
<g id="edge50" class="edge">
<title>Node19&#45;&gt;Node67</title>
<path fill="none" stroke="midnightblue" d="M281.02,-898.02C200.87,-884.36 99.54,-851.21 57,-771 47,-752.15 48.22,-742.44 57,-723 65.11,-705.06 81.66,-690.4 96.28,-680.18"/>
<polygon fill="midnightblue" stroke="midnightblue" points="280.75,-901.52 291.18,-899.67 281.87,-894.61 280.75,-901.52"/>
</g>
<!-- Node21 -->
<g id="node21" class="node">
<title>Node21</title>
<g id="a_node21"><a xlink:href="../../d0/d75/_fs_cache_8cpp.html" target="_top" xlink:title=" ">
<polygon fill="white" stroke="black" points="269.5,-730 269.5,-764 466.5,-764 466.5,-730 269.5,-730"/>
<text text-anchor="start" x="277.5" y="-750.4" font-family="Helvetica,sans-Serif" font-size="12.00">ERISCore/lib/SdFat</text>
<text text-anchor="middle" x="368" y="-737.4" font-family="Helvetica,sans-Serif" font-size="12.00">&#45;master/src/common/FsCache.cpp</text>
</a>
</g>
</g>
<!-- Node20&#45;&gt;Node21 -->
<g id="edge33" class="edge">
<title>Node20&#45;&gt;Node21</title>
<path fill="none" stroke="midnightblue" d="M336.87,-804.73C344.12,-791.51 352.78,-775.73 359.13,-764.17"/>
<polygon fill="midnightblue" stroke="midnightblue" points="333.63,-803.35 331.89,-813.8 339.77,-806.72 333.63,-803.35"/>
</g>
<!-- Node20&#45;&gt;Node22 -->
<g id="edge34" class="edge">
<title>Node20&#45;&gt;Node22</title>
<path fill="none" stroke="midnightblue" d="M384.11,-810.95C425.87,-797.93 481.07,-780.71 523.2,-767.58"/>
<polygon fill="midnightblue" stroke="midnightblue" points="382.84,-807.68 374.33,-813.99 384.92,-814.36 382.84,-807.68"/>
</g>
<!-- Node20&#45;&gt;Node53 -->
<g id="edge42" class="edge">
<title>Node20&#45;&gt;Node53</title>
<path fill="none" stroke="midnightblue" d="M281.83,-809.41C253.77,-795.38 217.14,-777.07 191.21,-764.1"/>
<polygon fill="midnightblue" stroke="midnightblue" points="280.48,-812.65 290.99,-813.99 283.61,-806.39 280.48,-812.65"/>
</g>
<!-- Node23 -->
<g id="node23" class="node">
<title>Node23</title>
<g id="a_node23"><a xlink:href="../../dd/ddc/_ex_fat_file_8h.html" target="_top" xlink:title="ExFatFile class.">
<polygon fill="white" stroke="black" points="523.5,-639.5 523.5,-686.5 648.5,-686.5 648.5,-639.5 523.5,-639.5"/>
<text text-anchor="start" x="531.5" y="-672.9" font-family="Helvetica,sans-Serif" font-size="12.00">ERISCore/lib/SdFat</text>
<text text-anchor="start" x="531.5" y="-659.9" font-family="Helvetica,sans-Serif" font-size="12.00">&#45;master/src/ExFatLib</text>
<text text-anchor="middle" x="586" y="-646.9" font-family="Helvetica,sans-Serif" font-size="12.00">/ExFatFile.h</text>
</a>
</g>
</g>
<!-- Node22&#45;&gt;Node23 -->
<g id="edge35" class="edge">
<title>Node22&#45;&gt;Node23</title>
<path fill="none" stroke="midnightblue" d="M586,-713.11C586,-704.26 586,-694.88 586,-686.72"/>
<polygon fill="midnightblue" stroke="midnightblue" points="582.5,-713.16 586,-723.16 589.5,-713.16 582.5,-713.16"/>
</g>
<!-- Node24 -->
<g id="node24" class="node">
<title>Node24</title>
<g id="a_node24"><a xlink:href="../../d6/d68/_ex_fat_volume_8h.html" target="_top" xlink:title=" ">
<polygon fill="white" stroke="red" points="523.5,-555.5 523.5,-602.5 648.5,-602.5 648.5,-555.5 523.5,-555.5"/>
<text text-anchor="start" x="531.5" y="-588.9" font-family="Helvetica,sans-Serif" font-size="12.00">ERISCore/lib/SdFat</text>
<text text-anchor="start" x="531.5" y="-575.9" font-family="Helvetica,sans-Serif" font-size="12.00">&#45;master/src/ExFatLib</text>
<text text-anchor="middle" x="586" y="-562.9" font-family="Helvetica,sans-Serif" font-size="12.00">/ExFatVolume.h</text>
</a>
</g>
</g>
<!-- Node23&#45;&gt;Node24 -->
<g id="edge36" class="edge">
<title>Node23&#45;&gt;Node24</title>
<path fill="none" stroke="midnightblue" d="M586,-629.11C586,-620.26 586,-610.88 586,-602.72"/>
<polygon fill="midnightblue" stroke="midnightblue" points="582.5,-629.16 586,-639.16 589.5,-629.16 582.5,-629.16"/>
</g>
<!-- Node25 -->
<g id="node25" class="node">
<title>Node25</title>
<g id="a_node25"><a xlink:href="../../d8/d23/_ex_fat_lib_8h.html" target="_top" xlink:title=" ">
<polygon fill="white" stroke="red" points="432.5,-471.5 432.5,-518.5 557.5,-518.5 557.5,-471.5 432.5,-471.5"/>
<text text-anchor="start" x="440.5" y="-504.9" font-family="Helvetica,sans-Serif" font-size="12.00">ERISCore/lib/SdFat</text>
<text text-anchor="start" x="440.5" y="-491.9" font-family="Helvetica,sans-Serif" font-size="12.00">&#45;master/src/ExFatLib</text>
<text text-anchor="middle" x="495" y="-478.9" font-family="Helvetica,sans-Serif" font-size="12.00">/ExFatLib.h</text>
</a>
</g>
</g>
<!-- Node24&#45;&gt;Node25 -->
<g id="edge37" class="edge">
<title>Node24&#45;&gt;Node25</title>
<path fill="none" stroke="midnightblue" d="M553,-548.26C542.19,-538.52 530.35,-527.86 520.21,-518.72"/>
<polygon fill="midnightblue" stroke="midnightblue" points="550.88,-551.06 560.65,-555.16 555.57,-545.86 550.88,-551.06"/>
</g>
<!-- Node25&#45;&gt;Node51 -->
<g id="edge38" class="edge">
<title>Node25&#45;&gt;Node51</title>
<path fill="none" stroke="midnightblue" d="M466.7,-463.9C457.31,-453.92 447.21,-443.18 439.2,-434.66"/>
<polygon fill="midnightblue" stroke="midnightblue" points="464.3,-466.46 473.7,-471.35 469.4,-461.66 464.3,-466.46"/>
</g>
<!-- Node51&#45;&gt;Node2 -->
<g id="edge39" class="edge">
<title>Node51&#45;&gt;Node2</title>
<path fill="none" stroke="midnightblue" d="M494.29,-399.83C540.8,-388.8 601.45,-374.42 647.4,-363.53"/>
<polygon fill="midnightblue" stroke="midnightblue" points="493.22,-396.49 484.3,-402.2 494.83,-403.3 493.22,-396.49"/>
</g>
<!-- Node51&#45;&gt;Node5 -->
<g id="edge40" class="edge">
<title>Node51&#45;&gt;Node5</title>
<path fill="none" stroke="midnightblue" d="M417.23,-390.48C402.92,-335.5 369.96,-208.84 358.24,-163.78"/>
<polygon fill="midnightblue" stroke="midnightblue" points="413.93,-391.68 419.83,-400.48 420.7,-389.92 413.93,-391.68"/>
</g>
<!-- Node51&#45;&gt;Node7 -->
<g id="edge41" class="edge">
<title>Node51&#45;&gt;Node7</title>
<path fill="none" stroke="midnightblue" d="M361.44,-396.73C309.47,-375.94 244,-337.62 244,-276.5 244,-276.5 244,-276.5 244,-145.5 244,-68.99 340.58,-35.55 408.3,-21.51"/>
<polygon fill="midnightblue" stroke="midnightblue" points="360.38,-400.07 370.97,-400.41 362.9,-393.54 360.38,-400.07"/>
</g>
<!-- Node54 -->
<g id="node28" class="node">
<title>Node54</title>
<g id="a_node28"><a xlink:href="../../d6/d7b/_fat_file_8h.html" target="_top" xlink:title="FatFile class.">
<polygon fill="white" stroke="black" points="238.5,-646 238.5,-680 399.5,-680 399.5,-646 238.5,-646"/>
<text text-anchor="start" x="246.5" y="-666.4" font-family="Helvetica,sans-Serif" font-size="12.00">ERISCore/lib/SdFat</text>
<text text-anchor="middle" x="319" y="-653.4" font-family="Helvetica,sans-Serif" font-size="12.00">&#45;master/src/FatLib/FatFile.h</text>
</a>
</g>
</g>
<!-- Node53&#45;&gt;Node54 -->
<g id="edge43" class="edge">
<title>Node53&#45;&gt;Node54</title>
<path fill="none" stroke="midnightblue" d="M199.17,-725.41C226.54,-711.38 262.28,-693.07 287.58,-680.1"/>
<polygon fill="midnightblue" stroke="midnightblue" points="197.53,-722.32 190.23,-729.99 200.73,-728.55 197.53,-722.32"/>
</g>
<!-- Node55 -->
<g id="node29" class="node">
<title>Node55</title>
<g id="a_node29"><a xlink:href="../../da/d0b/_fat_volume_8h.html" target="_top" xlink:title="FatVolume class.">
<polygon fill="white" stroke="black" points="228.5,-562 228.5,-596 409.5,-596 409.5,-562 228.5,-562"/>
<text text-anchor="start" x="236.5" y="-582.4" font-family="Helvetica,sans-Serif" font-size="12.00">ERISCore/lib/SdFat</text>
<text text-anchor="middle" x="319" y="-569.4" font-family="Helvetica,sans-Serif" font-size="12.00">&#45;master/src/FatLib/FatVolume.h</text>
</a>
</g>
</g>
<!-- Node54&#45;&gt;Node55 -->
<g id="edge44" class="edge">
<title>Node54&#45;&gt;Node55</title>
<path fill="none" stroke="midnightblue" d="M319,-635.57C319,-622.6 319,-607.39 319,-596.17"/>
<polygon fill="midnightblue" stroke="midnightblue" points="315.5,-635.8 319,-645.8 322.5,-635.8 315.5,-635.8"/>
</g>
<!-- Node56 -->
<g id="node30" class="node">
<title>Node56</title>
<g id="a_node30"><a xlink:href="../../de/dfa/_fat_lib_8h.html" target="_top" xlink:title=" ">
<polygon fill="white" stroke="red" points="240,-478 240,-512 398,-512 398,-478 240,-478"/>
<text text-anchor="start" x="248" y="-498.4" font-family="Helvetica,sans-Serif" font-size="12.00">ERISCore/lib/SdFat</text>
<text text-anchor="middle" x="319" y="-485.4" font-family="Helvetica,sans-Serif" font-size="12.00">&#45;master/src/FatLib/FatLib.h</text>
</a>
</g>
</g>
<!-- Node55&#45;&gt;Node56 -->
<g id="edge45" class="edge">
<title>Node55&#45;&gt;Node56</title>
<path fill="none" stroke="midnightblue" d="M319,-551.57C319,-538.6 319,-523.39 319,-512.17"/>
<polygon fill="midnightblue" stroke="midnightblue" points="315.5,-551.8 319,-561.8 322.5,-551.8 315.5,-551.8"/>
</g>
<!-- Node56&#45;&gt;Node51 -->
<g id="edge46" class="edge">
<title>Node56&#45;&gt;Node51</title>
<path fill="none" stroke="midnightblue" d="M349.56,-472.02C366.13,-460.11 386.26,-445.64 401.4,-434.75"/>
<polygon fill="midnightblue" stroke="midnightblue" points="347.34,-469.31 341.27,-477.99 351.43,-474.99 347.34,-469.31"/>
</g>
<!-- Node66&#45;&gt;Node25 -->
<g id="edge48" class="edge">
<title>Node66&#45;&gt;Node25</title>
<path fill="none" stroke="midnightblue" d="M495,-797.23C495,-729.72 495,-576.6 495,-518.73"/>
<polygon fill="midnightblue" stroke="midnightblue" points="491.5,-797.31 495,-807.31 498.5,-797.31 491.5,-797.31"/>
</g>
<!-- Node67&#45;&gt;Node56 -->
<g id="edge51" class="edge">
<title>Node67&#45;&gt;Node56</title>
<path fill="none" stroke="midnightblue" d="M142.14,-637.47C160,-614.4 188.9,-579.78 219,-555 239.54,-538.09 265.49,-522.93 285.8,-512.21"/>
<polygon fill="midnightblue" stroke="midnightblue" points="139.14,-635.63 135.86,-645.71 144.71,-639.88 139.14,-635.63"/>
</g>
</g>
</svg>
        <g id="navigator" transform="translate(0 0)" fill="#404254">
                <rect fill="#f2f5e9" fill-opacity="0.5" stroke="#606060" stroke-width=".5" x="0" y="0" width="60" height="60"/>
                <use id="zoomplus" xlink:href="#zoomPlus" x="17" y="9" onmousedown="handleZoom(evt,'in')"/>
                <use id="zoomminus" xlink:href="#zoomMin" x="42" y="9" onmousedown="handleZoom(evt,'out')"/>
                <use id="reset" xlink:href="#resetDef" x="30" y="36" onmousedown="handleReset()"/>
                <g id="arrowUp" xlink:href="#dirArrow" transform="translate(30 24)" onmousedown="handlePan(0,-1)">
                  <use xlink:href="#rim" fill="#404040">
                        <set attributeName="fill" to="#808080" begin="arrowUp.mouseover" end="arrowUp.mouseout"/>
                  </use>
                  <path fill="none" stroke="white" stroke-width="1.5" d="M0,-3.0v7 M-2.5,-0.5L0,-3.0L2.5,-0.5"/>
                </g>
                <g id="arrowRight" xlink:href="#dirArrow" transform="rotate(90) translate(36 -43)" onmousedown="handlePan(1,0)">
                  <use xlink:href="#rim" fill="#404040">
                        <set attributeName="fill" to="#808080" begin="arrowRight.mouseover" end="arrowRight.mouseout"/>
                  </use>
                  <path fill="none" stroke="white" stroke-width="1.5" d="M0,-3.0v7 M-2.5,-0.5L0,-3.0L2.5,-0.5"/>
                </g>
                <g id="arrowDown" xlink:href="#dirArrow" transform="rotate(180) translate(-30 -48)" onmousedown="handlePan(0,1)">
                  <use xlink:href="#rim" fill="#404040">
                        <set attributeName="fill" to="#808080" begin="arrowDown.mouseover" end="arrowDown.mouseout"/>
                  </use>
                  <path fill="none" stroke="white" stroke-width="1.5" d="M0,-3.0v7 M-2.5,-0.5L0,-3.0L2.5,-0.5"/>
                </g>
                <g id="arrowLeft" xlink:href="#dirArrow" transform="rotate(270) translate(-36 17)" onmousedown="handlePan(-1,0)">
                  <use xlink:href="#rim" fill="#404040">
                        <set attributeName="fill" to="#808080" begin="arrowLeft.mouseover" end="arrowLeft.mouseout"/>
                  </use>
                  <path fill="none" stroke="white" stroke-width="1.5" d="M0,-3.0v7 M-2.5,-0.5L0,-3.0L2.5,-0.5"/>
                </g>
        </g>
        <svg viewBox="0 0 15 15" width="100%" height="30px" preserveAspectRatio="xMaxYMin meet">
         <g id="arrow_out" transform="scale(0.3 0.3)">
          <a xlink:href="_sdio_card_8h__dep__incl_org.svg" target="_base">
           <rect id="button" ry="5" rx="5" y="6" x="6" height="38" width="38"
                fill="#f2f5e9" fill-opacity="0.5" stroke="#606060" stroke-width="1.0"/>
           <path id="arrow"
             d="M 11.500037,31.436501 C 11.940474,20.09759 22.043105,11.32322 32.158766,21.979434 L 37.068811,17.246167 C 37.068811,17.246167 37.088388,32 37.088388,32 L 22.160133,31.978069 C 22.160133,31.978069 26.997745,27.140456 26.997745,27.140456 C 18.528582,18.264221 13.291696,25.230495 11.500037,31.436501 z"
             style="fill:#404040;"/>
          </a>
         </g>
        </svg>
</svg>
