<?xml version="1.0" encoding="UTF-8" standalone="no"?>
<!DOCTYPE svg PUBLIC "-//W3C//DTD SVG 1.1//EN"
 "http://www.w3.org/Graphics/SVG/1.1/DTD/svg11.dtd">
<!-- Generated by graphviz version 2.47.3 (20210619.1520)
 -->
<!-- Title: pointer_container Pages: 1 -->
<svg width="457pt" height="198pt"
 viewBox="0.00 0.00 457.00 198.00" xmlns="http://www.w3.org/2000/svg" xmlns:xlink="http://www.w3.org/1999/xlink">
<g id="graph0" class="graph" transform="scale(1 1) rotate(0) translate(4 194)">
<title>pointer_container</title>
<!-- Node1 -->
<g id="node1" class="node">
<title>Node1</title>
<g id="a_node1"><a xlink:title=" ">
<polygon fill="#bfbfbf" stroke="black" points="155.5,-0.5 155.5,-63.5 262.5,-63.5 262.5,-0.5 155.5,-0.5"/>
<text text-anchor="middle" x="209" y="-49.9" font-family="Helvetica,sans-Serif" font-size="12.00">pointer_container</text>
<polyline fill="none" stroke="black" points="155.5,-42.5 262.5,-42.5 "/>
<text text-anchor="middle" x="209" y="-28.9" font-family="Helvetica,sans-Serif" font-size="12.00"> </text>
<polyline fill="none" stroke="black" points="155.5,-21.5 262.5,-21.5 "/>
<text text-anchor="middle" x="209" y="-7.9" font-family="Helvetica,sans-Serif" font-size="12.00"> </text>
</a>
</g>
</g>
<!-- Node2 -->
<g id="node2" class="node">
<title>Node2</title>
<g id="a_node2"><a xlink:title=" ">
<polygon fill="none" stroke="#bfbfbf" points="0,-126.5 0,-189.5 58,-189.5 58,-126.5 0,-126.5"/>
<text text-anchor="middle" x="29" y="-175.9" font-family="Helvetica,sans-Serif" font-size="12.00">uint16_t</text>
<polyline fill="none" stroke="#bfbfbf" points="0,-168.5 58,-168.5 "/>
<text text-anchor="middle" x="29" y="-154.9" font-family="Helvetica,sans-Serif" font-size="12.00"> </text>
<polyline fill="none" stroke="#bfbfbf" points="0,-147.5 58,-147.5 "/>
<text text-anchor="middle" x="29" y="-133.9" font-family="Helvetica,sans-Serif" font-size="12.00"> </text>
</a>
</g>
</g>
<!-- Node2&#45;&gt;Node1 -->
<g id="edge1" class="edge">
<title>Node2&#45;&gt;Node1</title>
<path fill="none" stroke="#404040" d="M33.1,-126.14C36.6,-111.03 43.06,-93.64 55,-82 78.68,-58.92 113.2,-46.71 143.55,-40.24"/>
<polygon fill="none" stroke="#404040" points="143.6,-40.23 148.74,-35.17 155.39,-37.96 150.25,-43.03 143.6,-40.23"/>
<text text-anchor="middle" x="90" y="-91.9" font-family="Helvetica,sans-Serif" font-size="12.00"> +puint16_val</text>
</g>
<!-- Node3 -->
<g id="node3" class="node">
<title>Node3</title>
<g id="a_node3"><a xlink:title=" ">
<polygon fill="none" stroke="#bfbfbf" points="96,-126.5 96,-189.5 148,-189.5 148,-126.5 96,-126.5"/>
<text text-anchor="middle" x="122" y="-175.9" font-family="Helvetica,sans-Serif" font-size="12.00">int32_t</text>
<polyline fill="none" stroke="#bfbfbf" points="96,-168.5 148,-168.5 "/>
<text text-anchor="middle" x="122" y="-154.9" font-family="Helvetica,sans-Serif" font-size="12.00"> </text>
<polyline fill="none" stroke="#bfbfbf" points="96,-147.5 148,-147.5 "/>
<text text-anchor="middle" x="122" y="-133.9" font-family="Helvetica,sans-Serif" font-size="12.00"> </text>
</a>
</g>
</g>
<!-- Node3&#45;&gt;Node1 -->
<g id="edge2" class="edge">
<title>Node3&#45;&gt;Node1</title>
<path fill="none" stroke="#404040" d="M124.9,-126.17C127.43,-111.78 132.16,-95 141,-82 143.36,-78.53 146.06,-75.21 148.98,-72.07"/>
<polygon fill="none" stroke="#404040" points="149.08,-71.97 150.63,-64.93 157.73,-63.65 156.18,-70.7 149.08,-71.97"/>
<text text-anchor="middle" x="173" y="-91.9" font-family="Helvetica,sans-Serif" font-size="12.00"> +pint32_val</text>
</g>
<!-- Node4 -->
<g id="node4" class="node">
<title>Node4</title>
<g id="a_node4"><a xlink:title=" ">
<polygon fill="none" stroke="#bfbfbf" points="180,-126.5 180,-189.5 238,-189.5 238,-126.5 180,-126.5"/>
<text text-anchor="middle" x="209" y="-175.9" font-family="Helvetica,sans-Serif" font-size="12.00">uint32_t</text>
<polyline fill="none" stroke="#bfbfbf" points="180,-168.5 238,-168.5 "/>
<text text-anchor="middle" x="209" y="-154.9" font-family="Helvetica,sans-Serif" font-size="12.00"> </text>
<polyline fill="none" stroke="#bfbfbf" points="180,-147.5 238,-147.5 "/>
<text text-anchor="middle" x="209" y="-133.9" font-family="Helvetica,sans-Serif" font-size="12.00"> </text>
</a>
</g>
</g>
<!-- Node4&#45;&gt;Node1 -->
<g id="edge3" class="edge">
<title>Node4&#45;&gt;Node1</title>
<path fill="none" stroke="#404040" d="M209,-126.35C209,-111.15 209,-92.53 209,-75.94"/>
<polygon fill="none" stroke="#404040" points="209,-75.73 205,-69.73 209,-63.73 213,-69.73 209,-75.73"/>
<text text-anchor="middle" x="244" y="-91.9" font-family="Helvetica,sans-Serif" font-size="12.00"> +puint32_val</text>
</g>
<!-- Node5 -->
<g id="node5" class="node">
<title>Node5</title>
<g id="a_node5"><a xlink:title=" ">
<polygon fill="none" stroke="#bfbfbf" points="276,-126.5 276,-189.5 328,-189.5 328,-126.5 276,-126.5"/>
<text text-anchor="middle" x="302" y="-175.9" font-family="Helvetica,sans-Serif" font-size="12.00">int16_t</text>
<polyline fill="none" stroke="#bfbfbf" points="276,-168.5 328,-168.5 "/>
<text text-anchor="middle" x="302" y="-154.9" font-family="Helvetica,sans-Serif" font-size="12.00"> </text>
<polyline fill="none" stroke="#bfbfbf" points="276,-147.5 328,-147.5 "/>
<text text-anchor="middle" x="302" y="-133.9" font-family="Helvetica,sans-Serif" font-size="12.00"> </text>
</a>
</g>
</g>
<!-- Node5&#45;&gt;Node1 -->
<g id="edge4" class="edge">
<title>Node5&#45;&gt;Node1</title>
<path fill="none" stroke="#404040" d="M297.89,-126.43C294.79,-111.92 289.38,-94.98 280,-82 277.39,-78.39 274.43,-74.96 271.23,-71.71"/>
<polygon fill="none" stroke="#404040" points="271.16,-71.64 264.03,-70.55 262.3,-63.55 269.42,-64.64 271.16,-71.64"/>
<text text-anchor="middle" x="324" y="-91.9" font-family="Helvetica,sans-Serif" font-size="12.00"> +pint16_val</text>
</g>
<!-- Node6 -->
<g id="node6" class="node">
<title>Node6</title>
<g id="a_node6"><a xlink:title=" ">
<polygon fill="none" stroke="#bfbfbf" points="358,-126.5 358,-189.5 420,-189.5 420,-126.5 358,-126.5"/>
<text text-anchor="middle" x="389" y="-175.9" font-family="Helvetica,sans-Serif" font-size="12.00">float32_t</text>
<polyline fill="none" stroke="#bfbfbf" points="358,-168.5 420,-168.5 "/>
<text text-anchor="middle" x="389" y="-154.9" font-family="Helvetica,sans-Serif" font-size="12.00"> </text>
<polyline fill="none" stroke="#bfbfbf" points="358,-147.5 420,-147.5 "/>
<text text-anchor="middle" x="389" y="-133.9" font-family="Helvetica,sans-Serif" font-size="12.00"> </text>
</a>
</g>
</g>
<!-- Node6&#45;&gt;Node1 -->
<g id="edge5" class="edge">
<title>Node6&#45;&gt;Node1</title>
<path fill="none" stroke="#404040" d="M383.65,-126.49C379.54,-111.29 372.37,-93.71 360,-82 336.86,-60.11 303.84,-47.99 274.57,-41.29"/>
<polygon fill="none" stroke="#404040" points="274.47,-41.27 267.78,-43.96 262.73,-38.82 269.42,-36.13 274.47,-41.27"/>
<text text-anchor="middle" x="412.5" y="-98.4" font-family="Helvetica,sans-Serif" font-size="12.00"> +pfloat16_val</text>
<text text-anchor="middle" x="412.5" y="-85.4" font-family="Helvetica,sans-Serif" font-size="12.00">+pfloat32_val</text>
</g>
</g>
</svg>
