<?xml version="1.0" encoding="UTF-8" standalone="no"?>
<!DOCTYPE svg PUBLIC "-//W3C//DTD SVG 1.1//EN"
 "http://www.w3.org/Graphics/SVG/1.1/DTD/svg11.dtd">
<!-- Generated by graphviz version 2.47.3 (20210619.1520)
 -->
<!-- Title: SdSpiDriver.h Pages: 1 -->
<svg width="1452pt" height="378pt"
 viewBox="0.00 0.00 1452.00 378.00" xmlns="http://www.w3.org/2000/svg" xmlns:xlink="http://www.w3.org/1999/xlink">
<g id="graph0" class="graph" transform="scale(1 1) rotate(0) translate(4 374)">
<title>SdSpiDriver.h</title>
<polygon fill="white" stroke="transparent" points="-4,4 -4,-374 1448,-374 1448,4 -4,4"/>
<!-- Node1 -->
<g id="node1" class="node">
<title>Node1</title>
<g id="a_node1"><a xlink:title="SpiDriver classes.">
<polygon fill="#bfbfbf" stroke="black" points="834,-348.5 834,-369.5 924,-369.5 924,-348.5 834,-348.5"/>
<text text-anchor="middle" x="879" y="-355.9" font-family="Helvetica,sans-Serif" font-size="12.00">SdSpiDriver.h</text>
</a>
</g>
</g>
<!-- Node2 -->
<g id="node2" class="node">
<title>Node2</title>
<g id="a_node2"><a xlink:href="../../d8/daa/_sd_spi_card_8h.html" target="_top" xlink:title="SdSpiCard class for V2 SD/SDHC cards.">
<polygon fill="white" stroke="black" points="303.5,-290.5 303.5,-311.5 388.5,-311.5 388.5,-290.5 303.5,-290.5"/>
<text text-anchor="middle" x="346" y="-297.9" font-family="Helvetica,sans-Serif" font-size="12.00">SdSpiCard.h</text>
</a>
</g>
</g>
<!-- Node1&#45;&gt;Node2 -->
<g id="edge1" class="edge">
<title>Node1&#45;&gt;Node2</title>
<path fill="none" stroke="midnightblue" d="M823.52,-354.41C733.79,-348.21 551.36,-334.03 398,-312 394.91,-311.56 391.72,-311.05 388.51,-310.52"/>
<polygon fill="midnightblue" stroke="midnightblue" points="823.52,-357.92 833.74,-355.11 824,-350.93 823.52,-357.92"/>
</g>
<!-- Node76 -->
<g id="node17" class="node">
<title>Node76</title>
<g id="a_node17"><a xlink:href="../../d3/de0/_sd_spi_particle_8cpp.html" target="_top" xlink:title=" ">
<polygon fill="white" stroke="black" points="407,-290.5 407,-311.5 519,-311.5 519,-290.5 407,-290.5"/>
<text text-anchor="middle" x="463" y="-297.9" font-family="Helvetica,sans-Serif" font-size="12.00">SdSpiParticle.cpp</text>
</a>
</g>
</g>
<!-- Node1&#45;&gt;Node76 -->
<g id="edge20" class="edge">
<title>Node1&#45;&gt;Node76</title>
<path fill="none" stroke="midnightblue" d="M823.73,-351.08C754.71,-342.35 633.04,-326.72 529,-312 525.79,-311.55 522.49,-311.07 519.16,-310.59"/>
<polygon fill="midnightblue" stroke="midnightblue" points="823.57,-354.59 833.93,-352.36 824.45,-347.64 823.57,-354.59"/>
</g>
<!-- Node77 -->
<g id="node18" class="node">
<title>Node77</title>
<g id="a_node18"><a xlink:href="../../d6/df3/_sd_spi_artemis_8cpp.html" target="_top" xlink:title=" ">
<polygon fill="white" stroke="black" points="537.5,-290.5 537.5,-311.5 650.5,-311.5 650.5,-290.5 537.5,-290.5"/>
<text text-anchor="middle" x="594" y="-297.9" font-family="Helvetica,sans-Serif" font-size="12.00">SdSpiArtemis.cpp</text>
</a>
</g>
</g>
<!-- Node1&#45;&gt;Node77 -->
<g id="edge21" class="edge">
<title>Node1&#45;&gt;Node77</title>
<path fill="none" stroke="midnightblue" d="M824.02,-347.2C771.51,-336.88 693.11,-321.47 642.77,-311.58"/>
<polygon fill="midnightblue" stroke="midnightblue" points="823.35,-350.63 833.84,-349.13 824.7,-343.76 823.35,-350.63"/>
</g>
<!-- Node78 -->
<g id="node19" class="node">
<title>Node78</title>
<g id="a_node19"><a xlink:href="../../dd/db4/_sd_spi_s_t_m32_core_8cpp.html" target="_top" xlink:title=" ">
<polygon fill="white" stroke="black" points="668.5,-290.5 668.5,-311.5 805.5,-311.5 805.5,-290.5 668.5,-290.5"/>
<text text-anchor="middle" x="737" y="-297.9" font-family="Helvetica,sans-Serif" font-size="12.00">SdSpiSTM32Core.cpp</text>
</a>
</g>
</g>
<!-- Node1&#45;&gt;Node78 -->
<g id="edge22" class="edge">
<title>Node1&#45;&gt;Node78</title>
<path fill="none" stroke="midnightblue" d="M845.16,-344.65C819.26,-334.44 784.19,-320.61 761.09,-311.5"/>
<polygon fill="midnightblue" stroke="midnightblue" points="844,-347.96 854.59,-348.37 846.57,-341.45 844,-347.96"/>
</g>
<!-- Node79 -->
<g id="node20" class="node">
<title>Node79</title>
<g id="a_node20"><a xlink:href="../../d8/d87/_sd_spi_s_t_m32_8cpp.html" target="_top" xlink:title=" ">
<polygon fill="white" stroke="black" points="824,-290.5 824,-311.5 934,-311.5 934,-290.5 824,-290.5"/>
<text text-anchor="middle" x="879" y="-297.9" font-family="Helvetica,sans-Serif" font-size="12.00">SdSpiSTM32.cpp</text>
</a>
</g>
</g>
<!-- Node1&#45;&gt;Node79 -->
<g id="edge23" class="edge">
<title>Node1&#45;&gt;Node79</title>
<path fill="none" stroke="midnightblue" d="M879,-338.16C879,-329.16 879,-318.92 879,-311.64"/>
<polygon fill="midnightblue" stroke="midnightblue" points="875.5,-338.25 879,-348.25 882.5,-338.25 875.5,-338.25"/>
</g>
<!-- Node80 -->
<g id="node21" class="node">
<title>Node80</title>
<g id="a_node21"><a xlink:href="../../d8/d8f/_sd_spi_chip_select_8cpp.html" target="_top" xlink:title=" ">
<polygon fill="white" stroke="black" points="952,-290.5 952,-311.5 1082,-311.5 1082,-290.5 952,-290.5"/>
<text text-anchor="middle" x="1017" y="-297.9" font-family="Helvetica,sans-Serif" font-size="12.00">SdSpiChipSelect.cpp</text>
</a>
</g>
</g>
<!-- Node1&#45;&gt;Node80 -->
<g id="edge24" class="edge">
<title>Node1&#45;&gt;Node80</title>
<path fill="none" stroke="midnightblue" d="M912.22,-344.52C937.35,-334.32 971.24,-320.57 993.59,-311.5"/>
<polygon fill="midnightblue" stroke="midnightblue" points="910.67,-341.37 902.72,-348.37 913.31,-347.86 910.67,-341.37"/>
</g>
<!-- Node81 -->
<g id="node22" class="node">
<title>Node81</title>
<g id="a_node22"><a xlink:href="../../d8/d65/_sd_spi_teensy3_8cpp.html" target="_top" xlink:title=" ">
<polygon fill="white" stroke="black" points="1100,-290.5 1100,-311.5 1216,-311.5 1216,-290.5 1100,-290.5"/>
<text text-anchor="middle" x="1158" y="-297.9" font-family="Helvetica,sans-Serif" font-size="12.00">SdSpiTeensy3.cpp</text>
</a>
</g>
</g>
<!-- Node1&#45;&gt;Node81 -->
<g id="edge25" class="edge">
<title>Node1&#45;&gt;Node81</title>
<path fill="none" stroke="midnightblue" d="M934.1,-346.94C985.61,-336.6 1061.73,-321.32 1110.59,-311.51"/>
<polygon fill="midnightblue" stroke="midnightblue" points="933.25,-343.54 924.14,-348.94 934.63,-350.4 933.25,-343.54"/>
</g>
<!-- Node82 -->
<g id="node23" class="node">
<title>Node82</title>
<g id="a_node23"><a xlink:href="../../db/d4e/_sd_spi_e_s_p_8cpp.html" target="_top" xlink:title=" ">
<polygon fill="white" stroke="black" points="1234.5,-290.5 1234.5,-311.5 1331.5,-311.5 1331.5,-290.5 1234.5,-290.5"/>
<text text-anchor="middle" x="1283" y="-297.9" font-family="Helvetica,sans-Serif" font-size="12.00">SdSpiESP.cpp</text>
</a>
</g>
</g>
<!-- Node1&#45;&gt;Node82 -->
<g id="edge26" class="edge">
<title>Node1&#45;&gt;Node82</title>
<path fill="none" stroke="midnightblue" d="M934.26,-351.32C1002.63,-342.9 1122.58,-327.63 1225,-312 1228.03,-311.54 1231.15,-311.05 1234.29,-310.54"/>
<polygon fill="midnightblue" stroke="midnightblue" points="933.64,-347.87 924.14,-352.56 934.5,-354.82 933.64,-347.87"/>
</g>
<!-- Node83 -->
<g id="node24" class="node">
<title>Node83</title>
<g id="a_node24"><a xlink:href="../../de/daa/_sd_spi_due_8cpp.html" target="_top" xlink:title=" ">
<polygon fill="white" stroke="black" points="1350,-290.5 1350,-311.5 1444,-311.5 1444,-290.5 1350,-290.5"/>
<text text-anchor="middle" x="1397" y="-297.9" font-family="Helvetica,sans-Serif" font-size="12.00">SdSpiDue.cpp</text>
</a>
</g>
</g>
<!-- Node1&#45;&gt;Node83 -->
<g id="edge27" class="edge">
<title>Node1&#45;&gt;Node83</title>
<path fill="none" stroke="midnightblue" d="M934.21,-353.89C1021.03,-347.12 1194.66,-332.32 1341,-312 1343.93,-311.59 1346.95,-311.14 1349.99,-310.67"/>
<polygon fill="midnightblue" stroke="midnightblue" points="933.76,-350.42 924.06,-354.68 934.3,-357.4 933.76,-350.42"/>
</g>
<!-- Node3 -->
<g id="node3" class="node">
<title>Node3</title>
<g id="a_node3"><a xlink:href="../../d0/d78/_sd_spi_card_8cpp.html" target="_top" xlink:title=" ">
<polygon fill="white" stroke="black" points="247,-232.5 247,-253.5 345,-253.5 345,-232.5 247,-232.5"/>
<text text-anchor="middle" x="296" y="-239.9" font-family="Helvetica,sans-Serif" font-size="12.00">SdSpiCard.cpp</text>
</a>
</g>
</g>
<!-- Node2&#45;&gt;Node3 -->
<g id="edge2" class="edge">
<title>Node2&#45;&gt;Node3</title>
<path fill="none" stroke="midnightblue" d="M330.38,-282.5C321.87,-272.98 311.68,-261.56 304.61,-253.64"/>
<polygon fill="midnightblue" stroke="midnightblue" points="328.02,-285.12 337.29,-290.25 333.24,-280.46 328.02,-285.12"/>
</g>
<!-- Node4 -->
<g id="node4" class="node">
<title>Node4</title>
<g id="a_node4"><a xlink:href="../../db/d31/_sd_card_8h.html" target="_top" xlink:title=" ">
<polygon fill="white" stroke="black" points="363.5,-232.5 363.5,-253.5 430.5,-253.5 430.5,-232.5 363.5,-232.5"/>
<text text-anchor="middle" x="397" y="-239.9" font-family="Helvetica,sans-Serif" font-size="12.00">SdCard.h</text>
</a>
</g>
</g>
<!-- Node2&#45;&gt;Node4 -->
<g id="edge3" class="edge">
<title>Node2&#45;&gt;Node4</title>
<path fill="none" stroke="midnightblue" d="M361.67,-282.79C370.4,-273.21 380.94,-261.64 388.22,-253.64"/>
<polygon fill="midnightblue" stroke="midnightblue" points="359.03,-280.5 354.88,-290.25 364.2,-285.21 359.03,-280.5"/>
</g>
<!-- Node5 -->
<g id="node5" class="node">
<title>Node5</title>
<g id="a_node5"><a xlink:href="../../d7/df6/_block_device_8h.html" target="_top" xlink:title=" ">
<polygon fill="white" stroke="black" points="234,-174.5 234,-195.5 326,-195.5 326,-174.5 234,-174.5"/>
<text text-anchor="middle" x="280" y="-181.9" font-family="Helvetica,sans-Serif" font-size="12.00">BlockDevice.h</text>
</a>
</g>
</g>
<!-- Node4&#45;&gt;Node5 -->
<g id="edge4" class="edge">
<title>Node4&#45;&gt;Node5</title>
<path fill="none" stroke="midnightblue" d="M367.7,-227.97C346.51,-217.83 318.46,-204.41 299.85,-195.5"/>
<polygon fill="midnightblue" stroke="midnightblue" points="366.36,-231.21 376.89,-232.37 369.38,-224.9 366.36,-231.21"/>
</g>
<!-- Node37 -->
<g id="node14" class="node">
<title>Node37</title>
<g id="a_node14"><a xlink:href="../../d5/ddc/_sd_fat_8h.html" target="_top" xlink:title="main SdFs include file.">
<polygon fill="white" stroke="red" points="420,-0.5 420,-21.5 478,-21.5 478,-0.5 420,-0.5"/>
<text text-anchor="middle" x="449" y="-7.9" font-family="Helvetica,sans-Serif" font-size="12.00">SdFat.h</text>
</a>
</g>
</g>
<!-- Node4&#45;&gt;Node37 -->
<g id="edge19" class="edge">
<title>Node4&#45;&gt;Node37</title>
<path fill="none" stroke="midnightblue" d="M419.95,-226.32C444.12,-208.26 480.75,-176.14 496,-138 502.91,-120.72 494.39,-72.3 488,-58 481.59,-43.66 469.31,-30.33 460.23,-21.75"/>
<polygon fill="midnightblue" stroke="midnightblue" points="417.71,-223.62 411.67,-232.32 421.82,-229.29 417.71,-223.62"/>
</g>
<!-- Node6 -->
<g id="node6" class="node">
<title>Node6</title>
<g id="a_node6"><a xlink:href="../../d1/d0d/_fs_cache_8h.html" target="_top" xlink:title="Common cache code for exFAT and FAT.">
<polygon fill="white" stroke="black" points="131,-116.5 131,-137.5 205,-137.5 205,-116.5 131,-116.5"/>
<text text-anchor="middle" x="168" y="-123.9" font-family="Helvetica,sans-Serif" font-size="12.00">FsCache.h</text>
</a>
</g>
</g>
<!-- Node5&#45;&gt;Node6 -->
<g id="edge5" class="edge">
<title>Node5&#45;&gt;Node6</title>
<path fill="none" stroke="midnightblue" d="M251.67,-169.84C231.43,-159.71 204.74,-146.37 187,-137.5"/>
<polygon fill="midnightblue" stroke="midnightblue" points="250.24,-173.03 260.75,-174.37 253.37,-166.77 250.24,-173.03"/>
</g>
<!-- Node8 -->
<g id="node8" class="node">
<title>Node8</title>
<g id="a_node8"><a xlink:href="../../d7/dc8/_ex_fat_partition_8h.html" target="_top" xlink:title="ExFatPartition include file.">
<polygon fill="white" stroke="black" points="0,-58.5 0,-79.5 100,-79.5 100,-58.5 0,-58.5"/>
<text text-anchor="middle" x="50" y="-65.9" font-family="Helvetica,sans-Serif" font-size="12.00">ExFatPartition.h</text>
</a>
</g>
</g>
<!-- Node5&#45;&gt;Node8 -->
<g id="edge17" class="edge">
<title>Node5&#45;&gt;Node8</title>
<path fill="none" stroke="midnightblue" d="M223.9,-174.43C192.48,-167.45 153.43,-156 122,-138 94.84,-122.45 69.91,-94.64 57.76,-79.86"/>
<polygon fill="midnightblue" stroke="midnightblue" points="223.3,-177.88 233.81,-176.54 224.75,-171.03 223.3,-177.88"/>
</g>
<!-- Node61 -->
<g id="node10" class="node">
<title>Node61</title>
<g id="a_node10"><a xlink:href="../../db/dd3/_fat_partition_8h.html" target="_top" xlink:title="FatPartition class.">
<polygon fill="white" stroke="black" points="224,-58.5 224,-79.5 310,-79.5 310,-58.5 224,-58.5"/>
<text text-anchor="middle" x="267" y="-65.9" font-family="Helvetica,sans-Serif" font-size="12.00">FatPartition.h</text>
</a>
</g>
</g>
<!-- Node5&#45;&gt;Node61 -->
<g id="edge18" class="edge">
<title>Node5&#45;&gt;Node61</title>
<path fill="none" stroke="midnightblue" d="M268.74,-165.33C264.48,-157.23 260.14,-147.45 258,-138 253.36,-117.56 259.36,-93.08 263.55,-79.78"/>
<polygon fill="midnightblue" stroke="midnightblue" points="265.79,-167.24 273.74,-174.24 271.9,-163.81 265.79,-167.24"/>
</g>
<!-- Node74 -->
<g id="node12" class="node">
<title>Node74</title>
<g id="a_node12"><a xlink:href="../../d8/d58/_ex_fat_formatter_8h.html" target="_top" xlink:title=" ">
<polygon fill="white" stroke="black" points="267.5,-116.5 267.5,-137.5 374.5,-137.5 374.5,-116.5 267.5,-116.5"/>
<text text-anchor="middle" x="321" y="-123.9" font-family="Helvetica,sans-Serif" font-size="12.00">ExFatFormatter.h</text>
</a>
</g>
</g>
<!-- Node5&#45;&gt;Node74 -->
<g id="edge11" class="edge">
<title>Node5&#45;&gt;Node74</title>
<path fill="none" stroke="midnightblue" d="M293.24,-165.92C300.12,-156.52 308.26,-145.4 313.94,-137.64"/>
<polygon fill="midnightblue" stroke="midnightblue" points="290.23,-164.11 287.14,-174.25 295.87,-168.24 290.23,-164.11"/>
</g>
<!-- Node75 -->
<g id="node15" class="node">
<title>Node75</title>
<g id="a_node15"><a xlink:href="../../d8/d20/_fat_formatter_8h.html" target="_top" xlink:title=" ">
<polygon fill="white" stroke="black" points="393,-116.5 393,-137.5 487,-137.5 487,-116.5 393,-116.5"/>
<text text-anchor="middle" x="440" y="-123.9" font-family="Helvetica,sans-Serif" font-size="12.00">FatFormatter.h</text>
</a>
</g>
</g>
<!-- Node5&#45;&gt;Node75 -->
<g id="edge14" class="edge">
<title>Node5&#45;&gt;Node75</title>
<path fill="none" stroke="midnightblue" d="M316.98,-171.06C346.26,-160.81 386.49,-146.73 412.85,-137.5"/>
<polygon fill="midnightblue" stroke="midnightblue" points="315.79,-167.77 307.5,-174.37 318.1,-174.37 315.79,-167.77"/>
</g>
<!-- Node7 -->
<g id="node7" class="node">
<title>Node7</title>
<g id="a_node7"><a xlink:href="../../d0/d75/_fs_cache_8cpp.html" target="_top" xlink:title=" ">
<polygon fill="white" stroke="black" points="118.5,-58.5 118.5,-79.5 205.5,-79.5 205.5,-58.5 118.5,-58.5"/>
<text text-anchor="middle" x="162" y="-65.9" font-family="Helvetica,sans-Serif" font-size="12.00">FsCache.cpp</text>
</a>
</g>
</g>
<!-- Node6&#45;&gt;Node7 -->
<g id="edge6" class="edge">
<title>Node6&#45;&gt;Node7</title>
<path fill="none" stroke="midnightblue" d="M165.87,-106.16C164.91,-97.16 163.81,-86.92 163.03,-79.64"/>
<polygon fill="midnightblue" stroke="midnightblue" points="162.41,-106.68 166.95,-116.25 169.37,-105.93 162.41,-106.68"/>
</g>
<!-- Node6&#45;&gt;Node8 -->
<g id="edge7" class="edge">
<title>Node6&#45;&gt;Node8</title>
<path fill="none" stroke="midnightblue" d="M138.45,-111.97C117.08,-101.83 88.79,-88.41 70.02,-79.5"/>
<polygon fill="midnightblue" stroke="midnightblue" points="137.18,-115.25 147.72,-116.37 140.18,-108.92 137.18,-115.25"/>
</g>
<!-- Node6&#45;&gt;Node61 -->
<g id="edge9" class="edge">
<title>Node6&#45;&gt;Node61</title>
<path fill="none" stroke="midnightblue" d="M194.44,-111.05C212.05,-101.08 234.68,-88.28 249.95,-79.64"/>
<polygon fill="midnightblue" stroke="midnightblue" points="192.23,-108.28 185.24,-116.25 195.67,-114.37 192.23,-108.28"/>
</g>
<!-- Node9 -->
<g id="node9" class="node">
<title>Node9</title>
<g id="a_node9"><a xlink:href="../../dd/ddc/_ex_fat_file_8h.html" target="_top" xlink:title="ExFatFile class.">
<polygon fill="white" stroke="red" points="12,-0.5 12,-21.5 88,-21.5 88,-0.5 12,-0.5"/>
<text text-anchor="middle" x="50" y="-7.9" font-family="Helvetica,sans-Serif" font-size="12.00">ExFatFile.h</text>
</a>
</g>
</g>
<!-- Node8&#45;&gt;Node9 -->
<g id="edge8" class="edge">
<title>Node8&#45;&gt;Node9</title>
<path fill="none" stroke="midnightblue" d="M50,-48.16C50,-39.16 50,-28.92 50,-21.64"/>
<polygon fill="midnightblue" stroke="midnightblue" points="46.5,-48.25 50,-58.25 53.5,-48.25 46.5,-48.25"/>
</g>
<!-- Node62 -->
<g id="node11" class="node">
<title>Node62</title>
<g id="a_node11"><a xlink:href="../../d6/d7b/_fat_file_8h.html" target="_top" xlink:title="FatFile class.">
<polygon fill="white" stroke="red" points="236,-0.5 236,-21.5 298,-21.5 298,-0.5 236,-0.5"/>
<text text-anchor="middle" x="267" y="-7.9" font-family="Helvetica,sans-Serif" font-size="12.00">FatFile.h</text>
</a>
</g>
</g>
<!-- Node61&#45;&gt;Node62 -->
<g id="edge10" class="edge">
<title>Node61&#45;&gt;Node62</title>
<path fill="none" stroke="midnightblue" d="M267,-48.16C267,-39.16 267,-28.92 267,-21.64"/>
<polygon fill="midnightblue" stroke="midnightblue" points="263.5,-48.25 267,-58.25 270.5,-48.25 263.5,-48.25"/>
</g>
<!-- Node11 -->
<g id="node13" class="node">
<title>Node11</title>
<g id="a_node13"><a xlink:href="../../d8/d23/_ex_fat_lib_8h.html" target="_top" xlink:title=" ">
<polygon fill="white" stroke="red" points="328.5,-58.5 328.5,-79.5 401.5,-79.5 401.5,-58.5 328.5,-58.5"/>
<text text-anchor="middle" x="365" y="-65.9" font-family="Helvetica,sans-Serif" font-size="12.00">ExFatLib.h</text>
</a>
</g>
</g>
<!-- Node74&#45;&gt;Node11 -->
<g id="edge12" class="edge">
<title>Node74&#45;&gt;Node11</title>
<path fill="none" stroke="midnightblue" d="M334.98,-108.21C342.41,-98.75 351.27,-87.48 357.42,-79.64"/>
<polygon fill="midnightblue" stroke="midnightblue" points="332.09,-106.22 328.66,-116.25 337.59,-110.54 332.09,-106.22"/>
</g>
<!-- Node11&#45;&gt;Node37 -->
<g id="edge13" class="edge">
<title>Node11&#45;&gt;Node37</title>
<path fill="none" stroke="midnightblue" d="M388.26,-52.49C403.09,-42.61 421.82,-30.12 434.54,-21.64"/>
<polygon fill="midnightblue" stroke="midnightblue" points="386.01,-49.79 379.63,-58.25 389.89,-55.61 386.01,-49.79"/>
</g>
<!-- Node64 -->
<g id="node16" class="node">
<title>Node64</title>
<g id="a_node16"><a xlink:href="../../de/dfa/_fat_lib_8h.html" target="_top" xlink:title=" ">
<polygon fill="white" stroke="red" points="419.5,-58.5 419.5,-79.5 478.5,-79.5 478.5,-58.5 419.5,-58.5"/>
<text text-anchor="middle" x="449" y="-65.9" font-family="Helvetica,sans-Serif" font-size="12.00">FatLib.h</text>
</a>
</g>
</g>
<!-- Node75&#45;&gt;Node64 -->
<g id="edge15" class="edge">
<title>Node75&#45;&gt;Node64</title>
<path fill="none" stroke="midnightblue" d="M443.19,-106.16C444.64,-97.16 446.28,-86.92 447.45,-79.64"/>
<polygon fill="midnightblue" stroke="midnightblue" points="439.7,-105.82 441.57,-116.25 446.61,-106.93 439.7,-105.82"/>
</g>
<!-- Node64&#45;&gt;Node37 -->
<g id="edge16" class="edge">
<title>Node64&#45;&gt;Node37</title>
<path fill="none" stroke="midnightblue" d="M449,-48.16C449,-39.16 449,-28.92 449,-21.64"/>
<polygon fill="midnightblue" stroke="midnightblue" points="445.5,-48.25 449,-58.25 452.5,-48.25 445.5,-48.25"/>
</g>
</g>
</svg>
