<?xml version="1.0" encoding="UTF-8" standalone="no"?>
<!DOCTYPE svg PUBLIC "-//W3C//DTD SVG 1.1//EN"
 "http://www.w3.org/Graphics/SVG/1.1/DTD/svg11.dtd">
<!-- Generated by graphviz version 2.47.3 (20210619.1520)
 -->
<!-- Title: tft Pages: 1 -->
<svg width="341pt" height="350pt"
 viewBox="0.00 0.00 341.00 350.00" xmlns="http://www.w3.org/2000/svg" xmlns:xlink="http://www.w3.org/1999/xlink">
<g id="graph0" class="graph" transform="scale(1 1) rotate(0) translate(4 346)">
<title>tft</title>
<polygon fill="white" stroke="transparent" points="-4,4 -4,-346 337,-346 337,4 -4,4"/>
<!-- Node1 -->
<g id="node1" class="node">
<title>Node1</title>
<g id="a_node1"><a xlink:title=" ">
<polygon fill="#bfbfbf" stroke="black" points="304,-160.5 304,-181.5 333,-181.5 333,-160.5 304,-160.5"/>
<text text-anchor="middle" x="318.5" y="-167.9" font-family="Helvetica,sans-Serif" font-size="12.00">tft</text>
</a>
</g>
</g>
<!-- Node2 -->
<g id="node2" class="node">
<title>Node2</title>
<g id="a_node2"><a xlink:href="../../dd/da5/class_my_app_example.html#a9113a6d8c69d8dacf810449d732d6c5e" target="_top" xlink:title=" ">
<polygon fill="white" stroke="black" points="97,-320.5 97,-341.5 246,-341.5 246,-320.5 97,-320.5"/>
<text text-anchor="middle" x="171.5" y="-327.9" font-family="Helvetica,sans-Serif" font-size="12.00">MyAppExample::onTouch</text>
</a>
</g>
</g>
<!-- Node1&#45;&gt;Node2 -->
<g id="edge1" class="edge">
<title>Node1&#45;&gt;Node2</title>
<path fill="none" stroke="midnightblue" d="M316.32,-191.75C313.4,-222.58 303.25,-280.16 268,-311 261.63,-316.58 254.1,-320.74 246.11,-323.82"/>
<polygon fill="midnightblue" stroke="midnightblue" points="319.82,-191.94 317.1,-181.7 312.84,-191.39 319.82,-191.94"/>
</g>
<!-- Node3 -->
<g id="node3" class="node">
<title>Node3</title>
<g id="a_node3"><a xlink:href="../../dd/da5/class_my_app_example.html#ad79c94d0e20305799c8631bcd618b18e" target="_top" xlink:title=" ">
<polygon fill="white" stroke="black" points="83.5,-280.5 83.5,-301.5 259.5,-301.5 259.5,-280.5 83.5,-280.5"/>
<text text-anchor="middle" x="171.5" y="-287.9" font-family="Helvetica,sans-Serif" font-size="12.00">MyAppExample::onTouchDrag</text>
</a>
</g>
</g>
<!-- Node1&#45;&gt;Node3 -->
<g id="edge2" class="edge">
<title>Node1&#45;&gt;Node3</title>
<path fill="none" stroke="midnightblue" d="M313.04,-191.48C306.93,-214.47 293.65,-251.14 268,-271 263.18,-274.73 257.82,-277.81 252.18,-280.35"/>
<polygon fill="midnightblue" stroke="midnightblue" points="316.45,-192.25 315.43,-181.71 309.65,-190.59 316.45,-192.25"/>
</g>
<!-- Node4 -->
<g id="node4" class="node">
<title>Node4</title>
<g id="a_node4"><a xlink:href="../../dd/da5/class_my_app_example.html#a571482dbb24fc7951840cbf819bb3ca3" target="_top" xlink:title=" ">
<polygon fill="white" stroke="black" points="75,-240.5 75,-261.5 268,-261.5 268,-240.5 75,-240.5"/>
<text text-anchor="middle" x="171.5" y="-247.9" font-family="Helvetica,sans-Serif" font-size="12.00">MyAppExample::onTouchRelease</text>
</a>
</g>
</g>
<!-- Node1&#45;&gt;Node4 -->
<g id="edge3" class="edge">
<title>Node1&#45;&gt;Node4</title>
<path fill="none" stroke="midnightblue" d="M306.44,-190.37C297.73,-203.86 284.34,-221.12 268,-231 261.77,-234.77 254.93,-237.83 247.88,-240.33"/>
<polygon fill="midnightblue" stroke="midnightblue" points="309.47,-192.14 311.71,-181.78 303.5,-188.48 309.47,-192.14"/>
</g>
<!-- Node5 -->
<g id="node5" class="node">
<title>Node5</title>
<g id="a_node5"><a xlink:href="../../d2/d92/class_app_button.html#a32a41fe46125c49b1bd985958804bfa0" target="_top" xlink:title=" ">
<polygon fill="white" stroke="black" points="115,-200.5 115,-221.5 228,-221.5 228,-200.5 115,-200.5"/>
<text text-anchor="middle" x="171.5" y="-207.9" font-family="Helvetica,sans-Serif" font-size="12.00">AppButton::update</text>
</a>
</g>
</g>
<!-- Node1&#45;&gt;Node5 -->
<g id="edge4" class="edge">
<title>Node1&#45;&gt;Node5</title>
<path fill="none" stroke="midnightblue" d="M294.52,-181.27C286.27,-184.7 276.83,-188.32 268,-191 255.28,-194.87 241.38,-198.25 228.22,-201.07"/>
<polygon fill="midnightblue" stroke="midnightblue" points="296.05,-184.43 303.87,-177.27 293.3,-177.99 296.05,-184.43"/>
</g>
<!-- Node6 -->
<g id="node6" class="node">
<title>Node6</title>
<g id="a_node6"><a xlink:href="../../d4/dde/class_app_c_q_t.html#a0e1d9e850811f24577f20ac1900dd4f8" target="_top" xlink:title=" ">
<polygon fill="white" stroke="black" points="119,-160.5 119,-181.5 224,-181.5 224,-160.5 119,-160.5"/>
<text text-anchor="middle" x="171.5" y="-167.9" font-family="Helvetica,sans-Serif" font-size="12.00">AppCQT::update</text>
</a>
</g>
</g>
<!-- Node1&#45;&gt;Node6 -->
<g id="edge5" class="edge">
<title>Node1&#45;&gt;Node6</title>
<path fill="none" stroke="midnightblue" d="M293.82,-171C275.03,-171 248.05,-171 224.31,-171"/>
<polygon fill="midnightblue" stroke="midnightblue" points="293.86,-174.5 303.86,-171 293.86,-167.5 293.86,-174.5"/>
</g>
<!-- Node7 -->
<g id="node7" class="node">
<title>Node7</title>
<g id="a_node7"><a xlink:href="../../dd/da5/class_my_app_example.html#a85d334b7ccd2035b491b13d81350fea1" target="_top" xlink:title=" ">
<polygon fill="white" stroke="black" points="101,-120.5 101,-141.5 242,-141.5 242,-120.5 101,-120.5"/>
<text text-anchor="middle" x="171.5" y="-127.9" font-family="Helvetica,sans-Serif" font-size="12.00">MyAppExample::update</text>
</a>
</g>
</g>
<!-- Node1&#45;&gt;Node7 -->
<g id="edge6" class="edge">
<title>Node1&#45;&gt;Node7</title>
<path fill="none" stroke="midnightblue" d="M294.52,-160.73C286.27,-157.3 276.83,-153.68 268,-151 256.17,-147.4 243.32,-144.23 231,-141.53"/>
<polygon fill="midnightblue" stroke="midnightblue" points="293.3,-164.01 303.87,-164.73 296.05,-157.57 293.3,-164.01"/>
</g>
<!-- Node8 -->
<g id="node8" class="node">
<title>Node8</title>
<g id="a_node8"><a xlink:href="../../da/d96/class_app_manager.html#ab4352bf5559866e77c333e74af7c2210" target="_top" xlink:title=" ">
<polygon fill="white" stroke="black" points="108,-80.5 108,-101.5 235,-101.5 235,-80.5 108,-80.5"/>
<text text-anchor="middle" x="171.5" y="-87.9" font-family="Helvetica,sans-Serif" font-size="12.00">AppManager::update</text>
</a>
</g>
</g>
<!-- Node1&#45;&gt;Node8 -->
<g id="edge7" class="edge">
<title>Node1&#45;&gt;Node8</title>
<path fill="none" stroke="midnightblue" d="M306.44,-151.63C297.73,-138.14 284.34,-120.88 268,-111 258.07,-105 246.62,-100.77 235.17,-97.81"/>
<polygon fill="midnightblue" stroke="midnightblue" points="303.5,-153.52 311.71,-160.22 309.47,-149.86 303.5,-153.52"/>
</g>
<!-- Node10 -->
<g id="node10" class="node">
<title>Node10</title>
<g id="a_node10"><a xlink:href="../../d8/dbe/class_app_scope.html#afea80e94624d9ed8ce80c36021000c65" target="_top" xlink:title=" ">
<polygon fill="white" stroke="black" points="114,-40.5 114,-61.5 229,-61.5 229,-40.5 114,-40.5"/>
<text text-anchor="middle" x="171.5" y="-47.9" font-family="Helvetica,sans-Serif" font-size="12.00">AppScope::update</text>
</a>
</g>
</g>
<!-- Node1&#45;&gt;Node10 -->
<g id="edge9" class="edge">
<title>Node1&#45;&gt;Node10</title>
<path fill="none" stroke="midnightblue" d="M313.04,-150.52C306.93,-127.53 293.65,-90.86 268,-71 256.88,-62.39 242.94,-57.26 229.16,-54.26"/>
<polygon fill="midnightblue" stroke="midnightblue" points="309.65,-151.41 315.43,-160.29 316.45,-149.75 309.65,-151.41"/>
</g>
<!-- Node11 -->
<g id="node11" class="node">
<title>Node11</title>
<g id="a_node11"><a xlink:href="../../de/d35/class_app_slider.html#aa3a66c33b438ce3d6f89fef4270a2f35" target="_top" xlink:title=" ">
<polygon fill="white" stroke="black" points="116,-0.5 116,-21.5 227,-21.5 227,-0.5 116,-0.5"/>
<text text-anchor="middle" x="171.5" y="-7.9" font-family="Helvetica,sans-Serif" font-size="12.00">AppSlider::update</text>
</a>
</g>
</g>
<!-- Node1&#45;&gt;Node11 -->
<g id="edge10" class="edge">
<title>Node1&#45;&gt;Node11</title>
<path fill="none" stroke="midnightblue" d="M316.32,-150.25C313.4,-119.42 303.25,-61.84 268,-31 256.78,-21.19 241.99,-15.75 227.41,-12.85"/>
<polygon fill="midnightblue" stroke="midnightblue" points="312.84,-150.61 317.1,-160.3 319.82,-150.06 312.84,-150.61"/>
</g>
<!-- Node9 -->
<g id="node9" class="node">
<title>Node9</title>
<g id="a_node9"><a xlink:href="../../df/d0a/main_8cpp.html#a0b33edabd7f1c4e4a0bf32c67269be2f" target="_top" xlink:title=" ">
<polygon fill="white" stroke="black" points="0,-80.5 0,-101.5 39,-101.5 39,-80.5 0,-80.5"/>
<text text-anchor="middle" x="19.5" y="-87.9" font-family="Helvetica,sans-Serif" font-size="12.00">loop</text>
</a>
</g>
</g>
<!-- Node8&#45;&gt;Node9 -->
<g id="edge8" class="edge">
<title>Node8&#45;&gt;Node9</title>
<path fill="none" stroke="midnightblue" d="M97.54,-91C75.94,-91 54.12,-91 39.24,-91"/>
<polygon fill="midnightblue" stroke="midnightblue" points="97.76,-94.5 107.76,-91 97.76,-87.5 97.76,-94.5"/>
</g>
</g>
</svg>
