<?xml version="1.0" encoding="UTF-8" standalone="no"?>
<!DOCTYPE svg PUBLIC "-//W3C//DTD SVG 1.1//EN"
 "http://www.w3.org/Graphics/SVG/1.1/DTD/svg11.dtd">
<!-- Generated by graphviz version 2.47.3 (20210619.1520)
 -->
<!-- Title: D:/brian/Dev/Eris/ERISCore/lib/Audio/AudioStream.h Pages: 1 -->
<!--zoomable 424 -->
<svg id="main" version="1.1" xmlns="http://www.w3.org/2000/svg" xmlns:xlink="http://www.w3.org/1999/xlink" xml:space="preserve" onload="init(evt)">
<style type="text/css"><![CDATA[
.edge:hover path { stroke: red; }
.edge:hover polygon { stroke: red; fill: red; }
]]></style>
<script type="text/javascript"><![CDATA[
var edges = document.getElementsByTagName('g');
if (edges && edges.length) {
  for (var i=0;i<edges.length;i++) {
    if (edges[i].id.substr(0,4)=='edge') {
      edges[i].setAttribute('class','edge');
    }
  }
}
]]></script>
        <defs>
                <circle id="rim" cx="0" cy="0" r="7"/>
                <circle id="rim2" cx="0" cy="0" r="3.5"/>
                <g id="zoomPlus">
                        <use xlink:href="#rim" fill="#404040">
                                <set attributeName="fill" to="#808080" begin="zoomplus.mouseover" end="zoomplus.mouseout"/>
                        </use>
                        <path d="M-4,0h8M0,-4v8" fill="none" stroke="white" stroke-width="1.5" pointer-events="none"/>
                </g>
                <g id="zoomMin">
                        <use xlink:href="#rim" fill="#404040">
                                <set attributeName="fill" to="#808080" begin="zoomminus.mouseover" end="zoomminus.mouseout"/>
                        </use>
                        <path d="M-4,0h8" fill="none" stroke="white" stroke-width="1.5" pointer-events="none"/>
                </g>
                <g id="dirArrow">
                        <path fill="none" stroke="white" stroke-width="1.5" d="M0,-3.0v7 M-2.5,-0.5L0,-3.0L2.5,-0.5"/>
                </g>
               <g id="resetDef">
                       <use xlink:href="#rim2" fill="#404040">
                               <set attributeName="fill" to="#808080" begin="reset.mouseover" end="reset.mouseout"/>
                       </use>
               </g>
        </defs>

<script type="text/javascript">
var viewWidth = 749;
var viewHeight = 424;
var sectionId = 'dynsection-1';
</script>
<script xlink:href="../../svgpan.js"/>
<svg id="graph" class="graph">
<g id="viewport">
<title>D:/brian/Dev/Eris/ERISCore/lib/Audio/AudioStream.h</title>
<polygon fill="white" stroke="transparent" points="-4,4 -4,-420 744.5,-420 744.5,4 -4,4"/>
<!-- Node1 -->
<g id="node1" class="node">
<title>Node1</title>
<g id="a_node1"><a xlink:title=" ">
<polygon fill="#bfbfbf" stroke="black" points="270,-381.5 270,-415.5 432,-415.5 432,-381.5 270,-381.5"/>
<text text-anchor="start" x="278" y="-401.9" font-family="Helvetica,sans-Serif" font-size="12.00">D:/brian/Dev/Eris/ERISCore</text>
<text text-anchor="middle" x="351" y="-388.9" font-family="Helvetica,sans-Serif" font-size="12.00">/lib/Audio/AudioStream.h</text>
</a>
</g>
</g>
<!-- Node2 -->
<g id="node2" class="node">
<title>Node2</title>
<g id="a_node2"><a xlink:href="../../d3/d7e/_audio_stream_8cpp.html" target="_top" xlink:title=" ">
<polygon fill="white" stroke="black" points="0,-304 0,-338 162,-338 162,-304 0,-304"/>
<text text-anchor="start" x="8" y="-324.4" font-family="Helvetica,sans-Serif" font-size="12.00">D:/brian/Dev/Eris/ERISCore</text>
<text text-anchor="middle" x="81" y="-311.4" font-family="Helvetica,sans-Serif" font-size="12.00">/lib/Audio/AudioStream.cpp</text>
</a>
</g>
</g>
<!-- Node1&#45;&gt;Node2 -->
<g id="edge1" class="edge">
<title>Node1&#45;&gt;Node2</title>
<path fill="none" stroke="midnightblue" d="M283.85,-378.72C239.21,-366.24 181.19,-350.02 138.64,-338.12"/>
<polygon fill="midnightblue" stroke="midnightblue" points="283.17,-382.17 293.74,-381.49 285.05,-375.42 283.17,-382.17"/>
</g>
<!-- Node3 -->
<g id="node3" class="node">
<title>Node3</title>
<g id="a_node3"><a xlink:href="../../d4/dfc/eris__analyze__fft1024_8h.html" target="_top" xlink:title=" ">
<polygon fill="white" stroke="black" points="180,-297.5 180,-344.5 342,-344.5 342,-297.5 180,-297.5"/>
<text text-anchor="start" x="188" y="-330.9" font-family="Helvetica,sans-Serif" font-size="12.00">D:/brian/Dev/Eris/ERISCore</text>
<text text-anchor="start" x="188" y="-317.9" font-family="Helvetica,sans-Serif" font-size="12.00">/lib/Audio/eris_analyze</text>
<text text-anchor="middle" x="261" y="-304.9" font-family="Helvetica,sans-Serif" font-size="12.00">_fft1024.h</text>
</a>
</g>
</g>
<!-- Node1&#45;&gt;Node3 -->
<g id="edge2" class="edge">
<title>Node1&#45;&gt;Node3</title>
<path fill="none" stroke="midnightblue" d="M323.98,-374.84C312.57,-365.26 299.31,-354.14 287.91,-344.58"/>
<polygon fill="midnightblue" stroke="midnightblue" points="322,-377.74 331.91,-381.49 326.5,-372.38 322,-377.74"/>
</g>
<!-- Node21 -->
<g id="node9" class="node">
<title>Node21</title>
<g id="a_node9"><a xlink:href="../../d8/dc5/eris__analyze__scope_8h.html" target="_top" xlink:title=" ">
<polygon fill="white" stroke="black" points="360,-297.5 360,-344.5 522,-344.5 522,-297.5 360,-297.5"/>
<text text-anchor="start" x="368" y="-330.9" font-family="Helvetica,sans-Serif" font-size="12.00">D:/brian/Dev/Eris/ERISCore</text>
<text text-anchor="start" x="368" y="-317.9" font-family="Helvetica,sans-Serif" font-size="12.00">/lib/Audio/eris_analyze</text>
<text text-anchor="middle" x="441" y="-304.9" font-family="Helvetica,sans-Serif" font-size="12.00">_scope.h</text>
</a>
</g>
</g>
<!-- Node1&#45;&gt;Node21 -->
<g id="edge9" class="edge">
<title>Node1&#45;&gt;Node21</title>
<path fill="none" stroke="midnightblue" d="M378.02,-374.84C389.43,-365.26 402.69,-354.14 414.09,-344.58"/>
<polygon fill="midnightblue" stroke="midnightblue" points="375.5,-372.38 370.09,-381.49 380,-377.74 375.5,-372.38"/>
</g>
<!-- Node23 -->
<g id="node11" class="node">
<title>Node23</title>
<g id="a_node11"><a xlink:href="../../de/db5/eris__synth__waveform_8h.html" target="_top" xlink:title=" ">
<polygon fill="white" stroke="black" points="553.5,-304 553.5,-338 740.5,-338 740.5,-304 553.5,-304"/>
<text text-anchor="start" x="561.5" y="-324.4" font-family="Helvetica,sans-Serif" font-size="12.00">D:/brian/Dev/Eris/ERISCore</text>
<text text-anchor="middle" x="647" y="-311.4" font-family="Helvetica,sans-Serif" font-size="12.00">/lib/Audio/eris_synth_waveform.h</text>
</a>
</g>
</g>
<!-- Node1&#45;&gt;Node23 -->
<g id="edge12" class="edge">
<title>Node1&#45;&gt;Node23</title>
<path fill="none" stroke="midnightblue" d="M423.71,-378.95C472.86,-366.42 537.11,-350.03 584.06,-338.05"/>
<polygon fill="midnightblue" stroke="midnightblue" points="422.6,-375.63 413.77,-381.49 424.33,-382.41 422.6,-375.63"/>
</g>
<!-- Node4 -->
<g id="node4" class="node">
<title>Node4</title>
<g id="a_node4"><a xlink:href="../../db/dc8/_audio_director_8h.html" target="_top" xlink:title=" ">
<polygon fill="white" stroke="black" points="324,-142.5 324,-176.5 486,-176.5 486,-142.5 324,-142.5"/>
<text text-anchor="start" x="332" y="-162.9" font-family="Helvetica,sans-Serif" font-size="12.00">D:/brian/Dev/Eris/ERISCore</text>
<text text-anchor="middle" x="405" y="-149.9" font-family="Helvetica,sans-Serif" font-size="12.00">/include/AudioDirector.h</text>
</a>
</g>
</g>
<!-- Node3&#45;&gt;Node4 -->
<g id="edge3" class="edge">
<title>Node3&#45;&gt;Node4</title>
<path fill="none" stroke="midnightblue" d="M199.56,-291.66C188.1,-283.45 177.64,-273.3 171,-261 160.86,-242.23 157.67,-229.65 171,-213 190.09,-189.15 264.19,-175.39 323.96,-167.99"/>
<polygon fill="midnightblue" stroke="midnightblue" points="197.78,-294.68 208.05,-297.3 201.65,-288.85 197.78,-294.68"/>
</g>
<!-- Node20 -->
<g id="node8" class="node">
<title>Node20</title>
<g id="a_node8"><a xlink:href="../../d7/d78/eris__analyze__fft1024_8cpp.html" target="_top" xlink:title=" ">
<polygon fill="white" stroke="black" points="180,-213.5 180,-260.5 342,-260.5 342,-213.5 180,-213.5"/>
<text text-anchor="start" x="188" y="-246.9" font-family="Helvetica,sans-Serif" font-size="12.00">D:/brian/Dev/Eris/ERISCore</text>
<text text-anchor="start" x="188" y="-233.9" font-family="Helvetica,sans-Serif" font-size="12.00">/lib/Audio/eris_analyze</text>
<text text-anchor="middle" x="261" y="-220.9" font-family="Helvetica,sans-Serif" font-size="12.00">_fft1024.cpp</text>
</a>
</g>
</g>
<!-- Node3&#45;&gt;Node20 -->
<g id="edge8" class="edge">
<title>Node3&#45;&gt;Node20</title>
<path fill="none" stroke="midnightblue" d="M261,-287.11C261,-278.26 261,-268.88 261,-260.72"/>
<polygon fill="midnightblue" stroke="midnightblue" points="257.5,-287.16 261,-297.16 264.5,-287.16 257.5,-287.16"/>
</g>
<!-- Node5 -->
<g id="node5" class="node">
<title>Node5</title>
<g id="a_node5"><a xlink:href="../../d9/d3e/_app_base_class_8h.html" target="_top" xlink:title=" ">
<polygon fill="white" stroke="red" points="233,-71.5 233,-105.5 395,-105.5 395,-71.5 233,-71.5"/>
<text text-anchor="start" x="241" y="-91.9" font-family="Helvetica,sans-Serif" font-size="12.00">D:/brian/Dev/Eris/ERISCore</text>
<text text-anchor="middle" x="314" y="-78.9" font-family="Helvetica,sans-Serif" font-size="12.00">/include/AppBaseClass.h</text>
</a>
</g>
</g>
<!-- Node4&#45;&gt;Node5 -->
<g id="edge4" class="edge">
<title>Node4&#45;&gt;Node5</title>
<path fill="none" stroke="midnightblue" d="M375.62,-136.22C362.5,-126.27 347.32,-114.76 335.31,-105.66"/>
<polygon fill="midnightblue" stroke="midnightblue" points="373.81,-139.24 383.89,-142.5 378.04,-133.67 373.81,-139.24"/>
</g>
<!-- Node6 -->
<g id="node6" class="node">
<title>Node6</title>
<g id="a_node6"><a xlink:href="../../df/d72/_app_manager_8h.html" target="_top" xlink:title=" ">
<polygon fill="white" stroke="red" points="342,-0.5 342,-34.5 504,-34.5 504,-0.5 342,-0.5"/>
<text text-anchor="start" x="350" y="-20.9" font-family="Helvetica,sans-Serif" font-size="12.00">D:/brian/Dev/Eris/ERISCore</text>
<text text-anchor="middle" x="423" y="-7.9" font-family="Helvetica,sans-Serif" font-size="12.00">/include/AppManager.h</text>
</a>
</g>
</g>
<!-- Node4&#45;&gt;Node6 -->
<g id="edge6" class="edge">
<title>Node4&#45;&gt;Node6</title>
<path fill="none" stroke="midnightblue" d="M408.36,-132.35C412.04,-103.74 417.82,-58.77 420.9,-34.8"/>
<polygon fill="midnightblue" stroke="midnightblue" points="404.87,-132.08 407.06,-142.44 411.81,-132.97 404.87,-132.08"/>
</g>
<!-- Node19 -->
<g id="node7" class="node">
<title>Node19</title>
<g id="a_node7"><a xlink:href="../../d1/d2c/_audio_director_8cpp.html" target="_top" xlink:title=" ">
<polygon fill="white" stroke="black" points="451,-71.5 451,-105.5 613,-105.5 613,-71.5 451,-71.5"/>
<text text-anchor="start" x="459" y="-91.9" font-family="Helvetica,sans-Serif" font-size="12.00">D:/brian/Dev/Eris/ERISCore</text>
<text text-anchor="middle" x="532" y="-78.9" font-family="Helvetica,sans-Serif" font-size="12.00">/src/AudioDirector.cpp</text>
</a>
</g>
</g>
<!-- Node4&#45;&gt;Node19 -->
<g id="edge7" class="edge">
<title>Node4&#45;&gt;Node19</title>
<path fill="none" stroke="midnightblue" d="M443.41,-137.63C462.29,-127.37 484.71,-115.2 502.26,-105.66"/>
<polygon fill="midnightblue" stroke="midnightblue" points="441.57,-134.65 434.46,-142.5 444.91,-140.8 441.57,-134.65"/>
</g>
<!-- Node5&#45;&gt;Node6 -->
<g id="edge5" class="edge">
<title>Node5&#45;&gt;Node6</title>
<path fill="none" stroke="midnightblue" d="M347.85,-66.07C363.87,-55.93 382.68,-44.02 397.48,-34.66"/>
<polygon fill="midnightblue" stroke="midnightblue" points="345.86,-63.19 339.28,-71.5 349.6,-69.11 345.86,-63.19"/>
</g>
<!-- Node21&#45;&gt;Node4 -->
<g id="edge10" class="edge">
<title>Node21&#45;&gt;Node4</title>
<path fill="none" stroke="midnightblue" d="M407.26,-290.01C399.83,-281.46 392.99,-271.56 389,-261 378.26,-232.57 389.17,-196.98 397.49,-176.68"/>
<polygon fill="midnightblue" stroke="midnightblue" points="404.81,-292.52 414.18,-297.47 409.94,-287.76 404.81,-292.52"/>
</g>
<!-- Node22 -->
<g id="node10" class="node">
<title>Node22</title>
<g id="a_node10"><a xlink:href="../../d4/d9a/eris__analyze__scope_8cpp.html" target="_top" xlink:title=" ">
<polygon fill="white" stroke="black" points="398,-213.5 398,-260.5 560,-260.5 560,-213.5 398,-213.5"/>
<text text-anchor="start" x="406" y="-246.9" font-family="Helvetica,sans-Serif" font-size="12.00">D:/brian/Dev/Eris/ERISCore</text>
<text text-anchor="start" x="406" y="-233.9" font-family="Helvetica,sans-Serif" font-size="12.00">/lib/Audio/eris_analyze</text>
<text text-anchor="middle" x="479" y="-220.9" font-family="Helvetica,sans-Serif" font-size="12.00">_scope.cpp</text>
</a>
</g>
</g>
<!-- Node21&#45;&gt;Node22 -->
<g id="edge11" class="edge">
<title>Node21&#45;&gt;Node22</title>
<path fill="none" stroke="midnightblue" d="M455.84,-287.98C460.06,-278.87 464.57,-269.15 468.47,-260.72"/>
<polygon fill="midnightblue" stroke="midnightblue" points="452.61,-286.61 451.59,-297.16 458.97,-289.56 452.61,-286.61"/>
</g>
<!-- Node24 -->
<g id="node12" class="node">
<title>Node24</title>
<g id="a_node12"><a xlink:href="../../d2/ded/eris_audio_8h.html" target="_top" xlink:title="audio block class extentions (note: autogenerated code)">
<polygon fill="white" stroke="black" points="578,-220 578,-254 740,-254 740,-220 578,-220"/>
<text text-anchor="start" x="586" y="-240.4" font-family="Helvetica,sans-Serif" font-size="12.00">D:/brian/Dev/Eris/ERISCore</text>
<text text-anchor="middle" x="659" y="-227.4" font-family="Helvetica,sans-Serif" font-size="12.00">/include/erisAudio.h</text>
</a>
</g>
</g>
<!-- Node23&#45;&gt;Node24 -->
<g id="edge13" class="edge">
<title>Node23&#45;&gt;Node24</title>
<path fill="none" stroke="midnightblue" d="M650.87,-293.57C652.77,-280.6 654.99,-265.39 656.63,-254.17"/>
<polygon fill="midnightblue" stroke="midnightblue" points="647.36,-293.4 649.37,-303.8 654.28,-294.41 647.36,-293.4"/>
</g>
<!-- Node24&#45;&gt;Node4 -->
<g id="edge16" class="edge">
<title>Node24&#45;&gt;Node4</title>
<path fill="none" stroke="midnightblue" d="M595.3,-217.07C553.38,-204.6 499.08,-188.47 459.23,-176.62"/>
<polygon fill="midnightblue" stroke="midnightblue" points="594.55,-220.49 605.13,-219.99 596.54,-213.78 594.55,-220.49"/>
</g>
<!-- Node25 -->
<g id="node13" class="node">
<title>Node25</title>
<g id="a_node13"><a xlink:href="../../d3/ddb/_analog_inputs_8h.html" target="_top" xlink:title=" ">
<polygon fill="white" stroke="red" points="573,-142.5 573,-176.5 735,-176.5 735,-142.5 573,-142.5"/>
<text text-anchor="start" x="581" y="-162.9" font-family="Helvetica,sans-Serif" font-size="12.00">D:/brian/Dev/Eris/ERISCore</text>
<text text-anchor="middle" x="654" y="-149.9" font-family="Helvetica,sans-Serif" font-size="12.00">/include/AnalogInputs.h</text>
</a>
</g>
</g>
<!-- Node24&#45;&gt;Node25 -->
<g id="edge14" class="edge">
<title>Node24&#45;&gt;Node25</title>
<path fill="none" stroke="midnightblue" d="M657.28,-210C656.55,-198.97 655.72,-186.44 655.08,-176.75"/>
<polygon fill="midnightblue" stroke="midnightblue" points="653.79,-210.24 657.94,-219.99 660.77,-209.78 653.79,-210.24"/>
</g>
<!-- Node25&#45;&gt;Node6 -->
<g id="edge15" class="edge">
<title>Node25&#45;&gt;Node6</title>
<path fill="none" stroke="midnightblue" d="M650.96,-132.38C647.31,-112.82 639.35,-86.81 622,-71 590.18,-42 544.22,-28.67 504.49,-22.68"/>
<polygon fill="midnightblue" stroke="midnightblue" points="647.53,-133.15 652.57,-142.47 654.45,-132.05 647.53,-133.15"/>
</g>
</g>
</svg>
        <g id="navigator" transform="translate(0 0)" fill="#404254">
                <rect fill="#f2f5e9" fill-opacity="0.5" stroke="#606060" stroke-width=".5" x="0" y="0" width="60" height="60"/>
                <use id="zoomplus" xlink:href="#zoomPlus" x="17" y="9" onmousedown="handleZoom(evt,'in')"/>
                <use id="zoomminus" xlink:href="#zoomMin" x="42" y="9" onmousedown="handleZoom(evt,'out')"/>
                <use id="reset" xlink:href="#resetDef" x="30" y="36" onmousedown="handleReset()"/>
                <g id="arrowUp" xlink:href="#dirArrow" transform="translate(30 24)" onmousedown="handlePan(0,-1)">
                  <use xlink:href="#rim" fill="#404040">
                        <set attributeName="fill" to="#808080" begin="arrowUp.mouseover" end="arrowUp.mouseout"/>
                  </use>
                  <path fill="none" stroke="white" stroke-width="1.5" d="M0,-3.0v7 M-2.5,-0.5L0,-3.0L2.5,-0.5"/>
                </g>
                <g id="arrowRight" xlink:href="#dirArrow" transform="rotate(90) translate(36 -43)" onmousedown="handlePan(1,0)">
                  <use xlink:href="#rim" fill="#404040">
                        <set attributeName="fill" to="#808080" begin="arrowRight.mouseover" end="arrowRight.mouseout"/>
                  </use>
                  <path fill="none" stroke="white" stroke-width="1.5" d="M0,-3.0v7 M-2.5,-0.5L0,-3.0L2.5,-0.5"/>
                </g>
                <g id="arrowDown" xlink:href="#dirArrow" transform="rotate(180) translate(-30 -48)" onmousedown="handlePan(0,1)">
                  <use xlink:href="#rim" fill="#404040">
                        <set attributeName="fill" to="#808080" begin="arrowDown.mouseover" end="arrowDown.mouseout"/>
                  </use>
                  <path fill="none" stroke="white" stroke-width="1.5" d="M0,-3.0v7 M-2.5,-0.5L0,-3.0L2.5,-0.5"/>
                </g>
                <g id="arrowLeft" xlink:href="#dirArrow" transform="rotate(270) translate(-36 17)" onmousedown="handlePan(-1,0)">
                  <use xlink:href="#rim" fill="#404040">
                        <set attributeName="fill" to="#808080" begin="arrowLeft.mouseover" end="arrowLeft.mouseout"/>
                  </use>
                  <path fill="none" stroke="white" stroke-width="1.5" d="M0,-3.0v7 M-2.5,-0.5L0,-3.0L2.5,-0.5"/>
                </g>
        </g>
        <svg viewBox="0 0 15 15" width="100%" height="30px" preserveAspectRatio="xMaxYMin meet">
         <g id="arrow_out" transform="scale(0.3 0.3)">
          <a xlink:href="_audio_stream_8h__dep__incl_org.svg" target="_base">
           <rect id="button" ry="5" rx="5" y="6" x="6" height="38" width="38"
                fill="#f2f5e9" fill-opacity="0.5" stroke="#606060" stroke-width="1.0"/>
           <path id="arrow"
             d="M 11.500037,31.436501 C 11.940474,20.09759 22.043105,11.32322 32.158766,21.979434 L 37.068811,17.246167 C 37.068811,17.246167 37.088388,32 37.088388,32 L 22.160133,31.978069 C 22.160133,31.978069 26.997745,27.140456 26.997745,27.140456 C 18.528582,18.264221 13.291696,25.230495 11.500037,31.436501 z"
             style="fill:#404040;"/>
          </a>
         </g>
        </svg>
</svg>
