<?xml version="1.0" encoding="UTF-8" standalone="no"?>
<!DOCTYPE svg PUBLIC "-//W3C//DTD SVG 1.1//EN"
 "http://www.w3.org/Graphics/SVG/1.1/DTD/svg11.dtd">
<!-- Generated by graphviz version 2.47.3 (20210619.1520)
 -->
<!-- Title: ERISCore/lib/Audio/AudioStream.h Pages: 1 -->
<svg width="1446pt" height="572pt"
 viewBox="0.00 0.00 1446.00 572.00" xmlns="http://www.w3.org/2000/svg" xmlns:xlink="http://www.w3.org/1999/xlink">
<g id="graph0" class="graph" transform="scale(1 1) rotate(0) translate(4 568)">
<title>ERISCore/lib/Audio/AudioStream.h</title>
<polygon fill="white" stroke="transparent" points="-4,4 -4,-568 1442,-568 1442,4 -4,4"/>
<!-- Node1 -->
<g id="node1" class="node">
<title>Node1</title>
<g id="a_node1"><a xlink:title=" ">
<polygon fill="#bfbfbf" stroke="black" points="884.5,-529.5 884.5,-563.5 1003.5,-563.5 1003.5,-529.5 884.5,-529.5"/>
<text text-anchor="start" x="892.5" y="-549.9" font-family="Helvetica,sans-Serif" font-size="12.00">ERISCore/lib/Audio</text>
<text text-anchor="middle" x="944" y="-536.9" font-family="Helvetica,sans-Serif" font-size="12.00">/AudioStream.h</text>
</a>
</g>
</g>
<!-- Node2 -->
<g id="node2" class="node">
<title>Node2</title>
<g id="a_node2"><a xlink:href="../../d2/ded/eris_audio_8h.html" target="_top" xlink:title="audio block class extentions (note: autogenerated code)">
<polygon fill="white" stroke="black" points="769,-394 769,-415 941,-415 941,-394 769,-394"/>
<text text-anchor="middle" x="855" y="-401.4" font-family="Helvetica,sans-Serif" font-size="12.00">ERISCore/include/erisAudio.h</text>
</a>
</g>
</g>
<!-- Node1&#45;&gt;Node2 -->
<g id="edge1" class="edge">
<title>Node1&#45;&gt;Node2</title>
<path fill="none" stroke="midnightblue" d="M874.22,-539.02C844.1,-532.35 811.57,-519.11 793,-493 783.99,-480.32 786.46,-472.11 793,-458 801.9,-438.81 821.65,-424.08 836.49,-415.18"/>
<polygon fill="midnightblue" stroke="midnightblue" points="873.83,-542.51 884.32,-541.03 875.2,-535.64 873.83,-542.51"/>
</g>
<!-- Node20 -->
<g id="node20" class="node">
<title>Node20</title>
<g id="a_node20"><a xlink:href="../../d3/d7e/_audio_stream_8cpp.html" target="_top" xlink:title=" ">
<polygon fill="white" stroke="black" points="1250.5,-458.5 1250.5,-492.5 1369.5,-492.5 1369.5,-458.5 1250.5,-458.5"/>
<text text-anchor="start" x="1258.5" y="-478.9" font-family="Helvetica,sans-Serif" font-size="12.00">ERISCore/lib/Audio</text>
<text text-anchor="middle" x="1310" y="-465.9" font-family="Helvetica,sans-Serif" font-size="12.00">/AudioStream.cpp</text>
</a>
</g>
</g>
<!-- Node1&#45;&gt;Node20 -->
<g id="edge32" class="edge">
<title>Node1&#45;&gt;Node20</title>
<path fill="none" stroke="midnightblue" d="M1013.79,-534.5C1074.33,-524.64 1164.23,-509.27 1242,-493 1244.73,-492.43 1247.53,-491.83 1250.34,-491.2"/>
<polygon fill="midnightblue" stroke="midnightblue" points="1012.89,-531.09 1003.58,-536.15 1014.01,-538 1012.89,-531.09"/>
</g>
<!-- Node21 -->
<g id="node21" class="node">
<title>Node21</title>
<g id="a_node21"><a xlink:href="../../d8/dc5/eris__analyze__scope_8h.html" target="_top" xlink:title=" ">
<polygon fill="white" stroke="black" points="612.5,-458.5 612.5,-492.5 745.5,-492.5 745.5,-458.5 612.5,-458.5"/>
<text text-anchor="start" x="620.5" y="-478.9" font-family="Helvetica,sans-Serif" font-size="12.00">ERISCore/lib/Audio</text>
<text text-anchor="middle" x="679" y="-465.9" font-family="Helvetica,sans-Serif" font-size="12.00">/eris_analyze_scope.h</text>
</a>
</g>
</g>
<!-- Node1&#45;&gt;Node21 -->
<g id="edge33" class="edge">
<title>Node1&#45;&gt;Node21</title>
<path fill="none" stroke="midnightblue" d="M874.45,-527.39C833.02,-516.6 780.89,-503.03 740.89,-492.61"/>
<polygon fill="midnightblue" stroke="midnightblue" points="873.64,-530.8 884.2,-529.93 875.4,-524.02 873.64,-530.8"/>
</g>
<!-- Node23 -->
<g id="node23" class="node">
<title>Node23</title>
<g id="a_node23"><a xlink:href="../../d4/dd6/eris__mixer__ext_8h.html" target="_top" xlink:title=" ">
<polygon fill="white" stroke="black" points="958.5,-458.5 958.5,-492.5 1077.5,-492.5 1077.5,-458.5 958.5,-458.5"/>
<text text-anchor="start" x="966.5" y="-478.9" font-family="Helvetica,sans-Serif" font-size="12.00">ERISCore/lib/Audio</text>
<text text-anchor="middle" x="1018" y="-465.9" font-family="Helvetica,sans-Serif" font-size="12.00">/eris_mixer_ext.h</text>
</a>
</g>
</g>
<!-- Node1&#45;&gt;Node23 -->
<g id="edge36" class="edge">
<title>Node1&#45;&gt;Node23</title>
<path fill="none" stroke="midnightblue" d="M968.5,-522.65C979.03,-512.83 991.09,-501.59 1000.67,-492.66"/>
<polygon fill="midnightblue" stroke="midnightblue" points="966.09,-520.12 961.16,-529.5 970.86,-525.24 966.09,-520.12"/>
</g>
<!-- Node25 -->
<g id="node25" class="node">
<title>Node25</title>
<g id="a_node25"><a xlink:href="../../de/db5/eris__synth__waveform_8h.html" target="_top" xlink:title=" ">
<polygon fill="white" stroke="black" points="802,-458.5 802,-492.5 940,-492.5 940,-458.5 802,-458.5"/>
<text text-anchor="start" x="810" y="-478.9" font-family="Helvetica,sans-Serif" font-size="12.00">ERISCore/lib/Audio</text>
<text text-anchor="middle" x="871" y="-465.9" font-family="Helvetica,sans-Serif" font-size="12.00">/eris_synth_waveform.h</text>
</a>
</g>
</g>
<!-- Node1&#45;&gt;Node25 -->
<g id="edge39" class="edge">
<title>Node1&#45;&gt;Node25</title>
<path fill="none" stroke="midnightblue" d="M919.53,-522.37C909.21,-512.62 897.45,-501.5 888.09,-492.66"/>
<polygon fill="midnightblue" stroke="midnightblue" points="917.4,-525.17 927.07,-529.5 922.21,-520.08 917.4,-525.17"/>
</g>
<!-- Node26 -->
<g id="node26" class="node">
<title>Node26</title>
<g id="a_node26"><a xlink:href="../../d4/dfc/eris__analyze__fft1024_8h.html" target="_top" xlink:title=" ">
<polygon fill="white" stroke="black" points="1095.5,-458.5 1095.5,-492.5 1232.5,-492.5 1232.5,-458.5 1095.5,-458.5"/>
<text text-anchor="start" x="1103.5" y="-478.9" font-family="Helvetica,sans-Serif" font-size="12.00">ERISCore/lib/Audio</text>
<text text-anchor="middle" x="1164" y="-465.9" font-family="Helvetica,sans-Serif" font-size="12.00">/eris_analyze_fft1024.h</text>
</a>
</g>
</g>
<!-- Node1&#45;&gt;Node26 -->
<g id="edge41" class="edge">
<title>Node1&#45;&gt;Node26</title>
<path fill="none" stroke="midnightblue" d="M1004.83,-526.42C1038.79,-515.77 1080.62,-502.65 1112.87,-492.54"/>
<polygon fill="midnightblue" stroke="midnightblue" points="1003.52,-523.16 995.03,-529.5 1005.61,-529.84 1003.52,-523.16"/>
</g>
<!-- Node3 -->
<g id="node3" class="node">
<title>Node3</title>
<g id="a_node3"><a xlink:href="../../d3/ddb/_analog_inputs_8h.html" target="_top" xlink:title=" ">
<polygon fill="white" stroke="black" points="632,-265 632,-286 820,-286 820,-265 632,-265"/>
<text text-anchor="middle" x="726" y="-272.4" font-family="Helvetica,sans-Serif" font-size="12.00">ERISCore/include/AnalogInputs.h</text>
</a>
</g>
</g>
<!-- Node2&#45;&gt;Node3 -->
<g id="edge2" class="edge">
<title>Node2&#45;&gt;Node3</title>
<path fill="none" stroke="midnightblue" d="M838,-386.77C810.64,-359.83 757.67,-307.68 735.81,-286.16"/>
<polygon fill="midnightblue" stroke="midnightblue" points="835.72,-389.43 845.3,-393.95 840.63,-384.44 835.72,-389.43"/>
</g>
<!-- Node17 -->
<g id="node17" class="node">
<title>Node17</title>
<g id="a_node17"><a xlink:href="../../db/dc8/_audio_director_8h.html" target="_top" xlink:title=" ">
<polygon fill="white" stroke="black" points="833,-329.5 833,-350.5 1027,-350.5 1027,-329.5 833,-329.5"/>
<text text-anchor="middle" x="930" y="-336.9" font-family="Helvetica,sans-Serif" font-size="12.00">ERISCore/include/AudioDirector.h</text>
</a>
</g>
</g>
<!-- Node2&#45;&gt;Node17 -->
<g id="edge25" class="edge">
<title>Node2&#45;&gt;Node17</title>
<path fill="none" stroke="midnightblue" d="M874.67,-387.11C888.47,-375.61 906.46,-360.62 918.12,-350.9"/>
<polygon fill="midnightblue" stroke="midnightblue" points="872.16,-384.64 866.72,-393.73 876.64,-390.02 872.16,-384.64"/>
</g>
<!-- Node4 -->
<g id="node4" class="node">
<title>Node4</title>
<g id="a_node4"><a xlink:href="../../df/d72/_app_manager_8h.html" target="_top" xlink:title=" ">
<polygon fill="white" stroke="black" points="692,-200.5 692,-221.5 882,-221.5 882,-200.5 692,-200.5"/>
<text text-anchor="middle" x="787" y="-207.9" font-family="Helvetica,sans-Serif" font-size="12.00">ERISCore/include/AppManager.h</text>
</a>
</g>
</g>
<!-- Node3&#45;&gt;Node4 -->
<g id="edge3" class="edge">
<title>Node3&#45;&gt;Node4</title>
<path fill="none" stroke="midnightblue" d="M742.64,-257.45C753.77,-246.05 768.03,-231.44 777.33,-221.9"/>
<polygon fill="midnightblue" stroke="midnightblue" points="740.01,-255.13 735.53,-264.73 745.02,-260.02 740.01,-255.13"/>
</g>
<!-- Node16 -->
<g id="node16" class="node">
<title>Node16</title>
<g id="a_node16"><a xlink:href="../../dc/d40/_app_manager_8cpp.html" target="_top" xlink:title=" ">
<polygon fill="white" stroke="black" points="0,-136 0,-157 182,-157 182,-136 0,-136"/>
<text text-anchor="middle" x="91" y="-143.4" font-family="Helvetica,sans-Serif" font-size="12.00">ERISCore/src/AppManager.cpp</text>
</a>
</g>
</g>
<!-- Node3&#45;&gt;Node16 -->
<g id="edge24" class="edge">
<title>Node3&#45;&gt;Node16</title>
<path fill="none" stroke="midnightblue" d="M668.2,-262.94C543.98,-238.1 253.57,-180.01 138.85,-157.07"/>
<polygon fill="midnightblue" stroke="midnightblue" points="667.78,-266.43 678.27,-264.95 669.15,-259.56 667.78,-266.43"/>
</g>
<!-- Node5 -->
<g id="node5" class="node">
<title>Node5</title>
<g id="a_node5"><a xlink:href="../../db/d6b/app_serial_command_interface_8h.html" target="_top" xlink:title=" ">
<polygon fill="white" stroke="black" points="1062,-129.5 1062,-163.5 1226,-163.5 1226,-129.5 1062,-129.5"/>
<text text-anchor="start" x="1070" y="-149.9" font-family="Helvetica,sans-Serif" font-size="12.00">ERISCore/include/appSerial</text>
<text text-anchor="middle" x="1144" y="-136.9" font-family="Helvetica,sans-Serif" font-size="12.00">CommandInterface.h</text>
</a>
</g>
</g>
<!-- Node4&#45;&gt;Node5 -->
<g id="edge4" class="edge">
<title>Node4&#45;&gt;Node5</title>
<path fill="none" stroke="midnightblue" d="M851.55,-198.7C910.5,-188.38 997.96,-173.07 1061.88,-161.88"/>
<polygon fill="midnightblue" stroke="midnightblue" points="850.86,-195.27 841.61,-200.44 852.06,-202.16 850.86,-195.27"/>
</g>
<!-- Node6 -->
<g id="node6" class="node">
<title>Node6</title>
<g id="a_node6"><a xlink:href="../../d6/d0f/app_serial_command_interface_8cpp.html" target="_top" xlink:title=" ">
<polygon fill="white" stroke="black" points="926.5,-58.5 926.5,-92.5 1123.5,-92.5 1123.5,-58.5 926.5,-58.5"/>
<text text-anchor="start" x="934.5" y="-78.9" font-family="Helvetica,sans-Serif" font-size="12.00">ERISCore/src/appSerialCommand</text>
<text text-anchor="middle" x="1025" y="-65.9" font-family="Helvetica,sans-Serif" font-size="12.00">Interface.cpp</text>
</a>
</g>
</g>
<!-- Node4&#45;&gt;Node6 -->
<g id="edge21" class="edge">
<title>Node4&#45;&gt;Node6</title>
<path fill="none" stroke="midnightblue" d="M877.09,-198.93C924.86,-191.38 977.26,-179.84 995,-164 1015.6,-145.6 1022.06,-112.43 1024.08,-92.64"/>
<polygon fill="midnightblue" stroke="midnightblue" points="876.33,-195.51 866.98,-200.48 877.4,-202.43 876.33,-195.51"/>
</g>
<!-- Node8 -->
<g id="node8" class="node">
<title>Node8</title>
<g id="a_node8"><a xlink:href="../../d8/d1f/app_scope_8h.html" target="_top" xlink:title=" ">
<polygon fill="white" stroke="black" points="276,-136 276,-157 452,-157 452,-136 276,-136"/>
<text text-anchor="middle" x="364" y="-143.4" font-family="Helvetica,sans-Serif" font-size="12.00">ERISCore/include/appScope.h</text>
</a>
</g>
</g>
<!-- Node4&#45;&gt;Node8 -->
<g id="edge7" class="edge">
<title>Node4&#45;&gt;Node8</title>
<path fill="none" stroke="midnightblue" d="M705.44,-199.14C639.44,-190.2 544.13,-176.93 461,-164 447.16,-161.85 432.23,-159.38 418.34,-157.02"/>
<polygon fill="midnightblue" stroke="midnightblue" points="704.99,-202.61 715.37,-200.49 705.93,-195.68 704.99,-202.61"/>
</g>
<!-- Node9 -->
<g id="node9" class="node">
<title>Node9</title>
<g id="a_node9"><a xlink:href="../../d2/d6c/app_example_8h.html" target="_top" xlink:title="Application Example.">
<polygon fill="white" stroke="black" points="467,-65 467,-86 655,-86 655,-65 467,-65"/>
<text text-anchor="middle" x="561" y="-72.4" font-family="Helvetica,sans-Serif" font-size="12.00">ERISCore/include/appExample.h</text>
</a>
</g>
</g>
<!-- Node4&#45;&gt;Node9 -->
<g id="edge22" class="edge">
<title>Node4&#45;&gt;Node9</title>
<path fill="none" stroke="midnightblue" d="M681.79,-208.14C537.92,-204.49 294.4,-193.93 267,-164 256.5,-152.53 257.01,-140.93 267,-129 280.48,-112.9 394.63,-96.15 476.65,-86.02"/>
<polygon fill="midnightblue" stroke="midnightblue" points="681.89,-211.65 691.97,-208.39 682.06,-204.65 681.89,-211.65"/>
</g>
<!-- Node10 -->
<g id="node10" class="node">
<title>Node10</title>
<g id="a_node10"><a xlink:href="../../d4/d50/control_slider_8h.html" target="_top" xlink:title=" ">
<polygon fill="white" stroke="black" points="470.5,-129.5 470.5,-163.5 617.5,-163.5 617.5,-129.5 470.5,-129.5"/>
<text text-anchor="start" x="478.5" y="-149.9" font-family="Helvetica,sans-Serif" font-size="12.00">ERISCore/include/control</text>
<text text-anchor="middle" x="544" y="-136.9" font-family="Helvetica,sans-Serif" font-size="12.00">Slider.h</text>
</a>
</g>
</g>
<!-- Node4&#45;&gt;Node10 -->
<g id="edge10" class="edge">
<title>Node4&#45;&gt;Node10</title>
<path fill="none" stroke="midnightblue" d="M740.05,-197.93C702.1,-188.16 648.32,-174.33 606.68,-163.62"/>
<polygon fill="midnightblue" stroke="midnightblue" points="739.27,-201.34 749.83,-200.44 741.02,-194.56 739.27,-201.34"/>
</g>
<!-- Node11 -->
<g id="node11" class="node">
<title>Node11</title>
<g id="a_node11"><a xlink:href="../../d3/d0e/app_template_8h.html" target="_top" xlink:title=" ">
<polygon fill="white" stroke="black" points="691.5,-65 691.5,-86 882.5,-86 882.5,-65 691.5,-65"/>
<text text-anchor="middle" x="787" y="-72.4" font-family="Helvetica,sans-Serif" font-size="12.00">ERISCore/include/appTemplate.h</text>
</a>
</g>
</g>
<!-- Node4&#45;&gt;Node11 -->
<g id="edge12" class="edge">
<title>Node4&#45;&gt;Node11</title>
<path fill="none" stroke="midnightblue" d="M877.67,-198.84C920.12,-191.57 964.15,-180.33 977,-164 1011.75,-119.83 935.06,-97.09 868.96,-86.01"/>
<polygon fill="midnightblue" stroke="midnightblue" points="877.1,-195.39 867.8,-200.47 878.24,-202.29 877.1,-195.39"/>
</g>
<!-- Node12 -->
<g id="node12" class="node">
<title>Node12</title>
<g id="a_node12"><a xlink:href="../../dc/ddf/control_button_8h.html" target="_top" xlink:title=" ">
<polygon fill="white" stroke="black" points="635.5,-129.5 635.5,-163.5 782.5,-163.5 782.5,-129.5 635.5,-129.5"/>
<text text-anchor="start" x="643.5" y="-149.9" font-family="Helvetica,sans-Serif" font-size="12.00">ERISCore/include/control</text>
<text text-anchor="middle" x="709" y="-136.9" font-family="Helvetica,sans-Serif" font-size="12.00">Button.h</text>
</a>
</g>
</g>
<!-- Node4&#45;&gt;Node12 -->
<g id="edge14" class="edge">
<title>Node4&#45;&gt;Node12</title>
<path fill="none" stroke="midnightblue" d="M766.93,-193.92C755.27,-184.58 740.63,-172.85 728.99,-163.51"/>
<polygon fill="midnightblue" stroke="midnightblue" points="764.82,-196.71 774.81,-200.23 769.2,-191.25 764.82,-196.71"/>
</g>
<!-- Node13 -->
<g id="node13" class="node">
<title>Node13</title>
<g id="a_node13"><a xlink:href="../../dd/d93/app_reprogram_8h.html" target="_top" xlink:title=" ">
<polygon fill="white" stroke="black" points="187.5,-65 187.5,-86 388.5,-86 388.5,-65 187.5,-65"/>
<text text-anchor="middle" x="288" y="-72.4" font-family="Helvetica,sans-Serif" font-size="12.00">ERISCore/include/appReprogram.h</text>
</a>
</g>
</g>
<!-- Node4&#45;&gt;Node13 -->
<g id="edge16" class="edge">
<title>Node4&#45;&gt;Node13</title>
<path fill="none" stroke="midnightblue" d="M681.36,-208.35C534.7,-204.94 284.11,-194.66 256,-164 235.12,-141.23 263.21,-103.73 278.82,-86.15"/>
<polygon fill="midnightblue" stroke="midnightblue" points="681.66,-211.86 691.74,-208.58 681.82,-204.86 681.66,-211.86"/>
</g>
<!-- Node14 -->
<g id="node14" class="node">
<title>Node14</title>
<g id="a_node14"><a xlink:href="../../d4/d75/app_c_q_t_8h.html" target="_top" xlink:title=" ">
<polygon fill="white" stroke="black" points="800.5,-136 800.5,-157 967.5,-157 967.5,-136 800.5,-136"/>
<text text-anchor="middle" x="884" y="-143.4" font-family="Helvetica,sans-Serif" font-size="12.00">ERISCore/include/appCQT.h</text>
</a>
</g>
</g>
<!-- Node4&#45;&gt;Node14 -->
<g id="edge18" class="edge">
<title>Node4&#45;&gt;Node14</title>
<path fill="none" stroke="midnightblue" d="M811,-194.54C829.13,-182.85 853.47,-167.17 868.95,-157.2"/>
<polygon fill="midnightblue" stroke="midnightblue" points="808.67,-191.88 802.16,-200.23 812.46,-197.76 808.67,-191.88"/>
</g>
<!-- Node15 -->
<g id="node15" class="node">
<title>Node15</title>
<g id="a_node15"><a xlink:href="../../d4/db1/_app_base_class_8cpp.html" target="_top" xlink:title=" ">
<polygon fill="white" stroke="black" points="1244,-136 1244,-157 1438,-157 1438,-136 1244,-136"/>
<text text-anchor="middle" x="1341" y="-143.4" font-family="Helvetica,sans-Serif" font-size="12.00">ERISCore/src/AppBaseClass.cpp</text>
</a>
</g>
</g>
<!-- Node4&#45;&gt;Node15 -->
<g id="edge20" class="edge">
<title>Node4&#45;&gt;Node15</title>
<path fill="none" stroke="midnightblue" d="M892.46,-200.73C983.36,-192.38 1118.03,-179.1 1235,-164 1250.7,-161.97 1267.66,-159.47 1283.31,-157.04"/>
<polygon fill="midnightblue" stroke="midnightblue" points="892.06,-197.26 882.43,-201.65 892.7,-204.23 892.06,-197.26"/>
</g>
<!-- Node4&#45;&gt;Node16 -->
<g id="edge23" class="edge">
<title>Node4&#45;&gt;Node16</title>
<path fill="none" stroke="midnightblue" d="M681.69,-204.3C563.31,-197.3 365.46,-183.88 196,-164 179.78,-162.1 162.23,-159.54 146.2,-157"/>
<polygon fill="midnightblue" stroke="midnightblue" points="681.65,-207.8 691.84,-204.89 682.06,-200.81 681.65,-207.8"/>
</g>
<!-- Node5&#45;&gt;Node6 -->
<g id="edge5" class="edge">
<title>Node5&#45;&gt;Node6</title>
<path fill="none" stroke="midnightblue" d="M1107.53,-124.35C1089.94,-114.15 1069.17,-102.11 1052.86,-92.66"/>
<polygon fill="midnightblue" stroke="midnightblue" points="1105.99,-127.51 1116.4,-129.5 1109.5,-121.45 1105.99,-127.51"/>
</g>
<!-- Node7 -->
<g id="node7" class="node">
<title>Node7</title>
<g id="a_node7"><a xlink:href="../../d6/dd8/_eris_core_8cpp.html" target="_top" xlink:title=" ">
<polygon fill="white" stroke="black" points="610.5,-0.5 610.5,-21.5 771.5,-21.5 771.5,-0.5 610.5,-0.5"/>
<text text-anchor="middle" x="691" y="-7.9" font-family="Helvetica,sans-Serif" font-size="12.00">ERISCore/src/ErisCore.cpp</text>
</a>
</g>
</g>
<!-- Node5&#45;&gt;Node7 -->
<g id="edge6" class="edge">
<title>Node5&#45;&gt;Node7</title>
<path fill="none" stroke="midnightblue" d="M1148.53,-119.22C1150.29,-99.58 1148.88,-73.54 1133,-58 1107.74,-33.28 892.16,-20.38 771.68,-15.04"/>
<polygon fill="midnightblue" stroke="midnightblue" points="1145.03,-119.02 1147.3,-129.37 1151.98,-119.86 1145.03,-119.02"/>
</g>
<!-- Node8&#45;&gt;Node9 -->
<g id="edge8" class="edge">
<title>Node8&#45;&gt;Node9</title>
<path fill="none" stroke="midnightblue" d="M401.22,-132.46C439.87,-118.93 499.4,-98.07 533.84,-86.01"/>
<polygon fill="midnightblue" stroke="midnightblue" points="399.67,-129.3 391.39,-135.91 401.99,-135.9 399.67,-129.3"/>
</g>
<!-- Node9&#45;&gt;Node7 -->
<g id="edge9" class="edge">
<title>Node9&#45;&gt;Node7</title>
<path fill="none" stroke="midnightblue" d="M590.28,-60.42C614.96,-48.56 649.61,-31.9 671.16,-21.54"/>
<polygon fill="midnightblue" stroke="midnightblue" points="588.52,-57.38 581.03,-64.87 591.56,-63.69 588.52,-57.38"/>
</g>
<!-- Node10&#45;&gt;Node9 -->
<g id="edge11" class="edge">
<title>Node10&#45;&gt;Node9</title>
<path fill="none" stroke="midnightblue" d="M550.35,-119.74C553.23,-108.05 556.46,-94.93 558.6,-86.24"/>
<polygon fill="midnightblue" stroke="midnightblue" points="546.94,-118.95 547.94,-129.5 553.73,-120.62 546.94,-118.95"/>
</g>
<!-- Node11&#45;&gt;Node7 -->
<g id="edge13" class="edge">
<title>Node11&#45;&gt;Node7</title>
<path fill="none" stroke="midnightblue" d="M763.25,-59.04C745.3,-47.35 721.21,-31.67 705.89,-21.7"/>
<polygon fill="midnightblue" stroke="midnightblue" points="761.71,-62.21 772,-64.73 765.53,-56.35 761.71,-62.21"/>
</g>
<!-- Node12&#45;&gt;Node9 -->
<g id="edge15" class="edge">
<title>Node12&#45;&gt;Node9</title>
<path fill="none" stroke="midnightblue" d="M665.56,-125.25C637.79,-112.3 603.07,-96.12 581.46,-86.04"/>
<polygon fill="midnightblue" stroke="midnightblue" points="664.13,-128.44 674.67,-129.5 667.09,-122.1 664.13,-128.44"/>
</g>
<!-- Node13&#45;&gt;Node7 -->
<g id="edge17" class="edge">
<title>Node13&#45;&gt;Node7</title>
<path fill="none" stroke="midnightblue" d="M359.72,-63.38C436.53,-51.46 557.14,-32.76 629.69,-21.51"/>
<polygon fill="midnightblue" stroke="midnightblue" points="358.99,-59.95 349.65,-64.94 360.06,-66.87 358.99,-59.95"/>
</g>
<!-- Node14&#45;&gt;Node9 -->
<g id="edge19" class="edge">
<title>Node14&#45;&gt;Node9</title>
<path fill="none" stroke="midnightblue" d="M829.29,-133.81C766.29,-120.36 664.02,-98.51 605.63,-86.03"/>
<polygon fill="midnightblue" stroke="midnightblue" points="828.92,-137.31 839.43,-135.98 830.38,-130.47 828.92,-137.31"/>
</g>
<!-- Node17&#45;&gt;Node4 -->
<g id="edge30" class="edge">
<title>Node17&#45;&gt;Node4</title>
<path fill="none" stroke="midnightblue" d="M907.15,-323.65C894.88,-315.08 879.71,-303.95 867,-293 839.45,-269.26 810.17,-237.8 795.89,-221.98"/>
<polygon fill="midnightblue" stroke="midnightblue" points="905.27,-326.6 915.49,-329.39 909.24,-320.84 905.27,-326.6"/>
</g>
<!-- Node18 -->
<g id="node18" class="node">
<title>Node18</title>
<g id="a_node18"><a xlink:href="../../d9/d3e/_app_base_class_8h.html" target="_top" xlink:title=" ">
<polygon fill="white" stroke="black" points="876,-258.5 876,-292.5 1038,-292.5 1038,-258.5 876,-258.5"/>
<text text-anchor="start" x="884" y="-278.9" font-family="Helvetica,sans-Serif" font-size="12.00">ERISCore/include/AppBase</text>
<text text-anchor="middle" x="957" y="-265.9" font-family="Helvetica,sans-Serif" font-size="12.00">Class.h</text>
</a>
</g>
</g>
<!-- Node17&#45;&gt;Node18 -->
<g id="edge26" class="edge">
<title>Node17&#45;&gt;Node18</title>
<path fill="none" stroke="midnightblue" d="M938.24,-319.92C941.99,-311.24 946.38,-301.07 949.98,-292.76"/>
<polygon fill="midnightblue" stroke="midnightblue" points="934.97,-318.67 934.22,-329.23 941.4,-321.44 934.97,-318.67"/>
</g>
<!-- Node19 -->
<g id="node19" class="node">
<title>Node19</title>
<g id="a_node19"><a xlink:href="../../d1/d2c/_audio_director_8cpp.html" target="_top" xlink:title=" ">
<polygon fill="white" stroke="black" points="1056.5,-265 1056.5,-286 1243.5,-286 1243.5,-265 1056.5,-265"/>
<text text-anchor="middle" x="1150" y="-272.4" font-family="Helvetica,sans-Serif" font-size="12.00">ERISCore/src/AudioDirector.cpp</text>
</a>
</g>
</g>
<!-- Node17&#45;&gt;Node19 -->
<g id="edge31" class="edge">
<title>Node17&#45;&gt;Node19</title>
<path fill="none" stroke="midnightblue" d="M973.57,-326.62C1015.55,-314.69 1078.18,-296.9 1116.43,-286.04"/>
<polygon fill="midnightblue" stroke="midnightblue" points="972.56,-323.27 963.89,-329.37 974.47,-330.01 972.56,-323.27"/>
</g>
<!-- Node18&#45;&gt;Node4 -->
<g id="edge27" class="edge">
<title>Node18&#45;&gt;Node4</title>
<path fill="none" stroke="midnightblue" d="M903.68,-254.9C873.53,-243.81 837.19,-230.45 813.16,-221.62"/>
<polygon fill="midnightblue" stroke="midnightblue" points="902.63,-258.24 913.22,-258.4 905.04,-251.67 902.63,-258.24"/>
</g>
<!-- Node18&#45;&gt;Node5 -->
<g id="edge28" class="edge">
<title>Node18&#45;&gt;Node5</title>
<path fill="none" stroke="midnightblue" d="M989.17,-252.65C1026.43,-227.34 1086.95,-186.25 1120.21,-163.65"/>
<polygon fill="midnightblue" stroke="midnightblue" points="986.99,-249.9 980.68,-258.42 990.92,-255.69 986.99,-249.9"/>
</g>
<!-- Node18&#45;&gt;Node15 -->
<g id="edge29" class="edge">
<title>Node18&#45;&gt;Node15</title>
<path fill="none" stroke="midnightblue" d="M1015.21,-255.25C1098.6,-227.67 1248.93,-177.95 1311.96,-157.11"/>
<polygon fill="midnightblue" stroke="midnightblue" points="1014.03,-251.95 1005.63,-258.42 1016.23,-258.6 1014.03,-251.95"/>
</g>
<!-- Node21&#45;&gt;Node2 -->
<g id="edge34" class="edge">
<title>Node21&#45;&gt;Node2</title>
<path fill="none" stroke="midnightblue" d="M729.38,-454.75C762.6,-441.73 804.63,-425.25 830.67,-415.04"/>
<polygon fill="midnightblue" stroke="midnightblue" points="727.85,-451.59 719.82,-458.5 730.41,-458.11 727.85,-451.59"/>
</g>
<!-- Node22 -->
<g id="node22" class="node">
<title>Node22</title>
<g id="a_node22"><a xlink:href="../../d4/d9a/eris__analyze__scope_8cpp.html" target="_top" xlink:title=" ">
<polygon fill="white" stroke="black" points="605,-387.5 605,-421.5 751,-421.5 751,-387.5 605,-387.5"/>
<text text-anchor="start" x="613" y="-407.9" font-family="Helvetica,sans-Serif" font-size="12.00">ERISCore/lib/Audio</text>
<text text-anchor="middle" x="678" y="-394.9" font-family="Helvetica,sans-Serif" font-size="12.00">/eris_analyze_scope.cpp</text>
</a>
</g>
</g>
<!-- Node21&#45;&gt;Node22 -->
<g id="edge35" class="edge">
<title>Node21&#45;&gt;Node22</title>
<path fill="none" stroke="midnightblue" d="M678.62,-448.25C678.49,-439.39 678.35,-429.77 678.24,-421.9"/>
<polygon fill="midnightblue" stroke="midnightblue" points="675.12,-448.55 678.77,-458.5 682.12,-448.45 675.12,-448.55"/>
</g>
<!-- Node23&#45;&gt;Node2 -->
<g id="edge37" class="edge">
<title>Node23&#45;&gt;Node2</title>
<path fill="none" stroke="midnightblue" d="M970.95,-454.58C940.24,-441.58 901.54,-425.2 877.54,-415.04"/>
<polygon fill="midnightblue" stroke="midnightblue" points="969.62,-457.82 980.19,-458.5 972.35,-451.38 969.62,-457.82"/>
</g>
<!-- Node24 -->
<g id="node24" class="node">
<title>Node24</title>
<g id="a_node24"><a xlink:href="../../db/d39/eris__mixer__ext_8cpp.html" target="_top" xlink:title=" ">
<polygon fill="white" stroke="black" points="959.5,-387.5 959.5,-421.5 1078.5,-421.5 1078.5,-387.5 959.5,-387.5"/>
<text text-anchor="start" x="967.5" y="-407.9" font-family="Helvetica,sans-Serif" font-size="12.00">ERISCore/lib/Audio</text>
<text text-anchor="middle" x="1019" y="-394.9" font-family="Helvetica,sans-Serif" font-size="12.00">/eris_mixer_ext.cpp</text>
</a>
</g>
</g>
<!-- Node23&#45;&gt;Node24 -->
<g id="edge38" class="edge">
<title>Node23&#45;&gt;Node24</title>
<path fill="none" stroke="midnightblue" d="M1018.38,-448.25C1018.51,-439.39 1018.65,-429.77 1018.76,-421.9"/>
<polygon fill="midnightblue" stroke="midnightblue" points="1014.88,-448.45 1018.23,-458.5 1021.88,-448.55 1014.88,-448.45"/>
</g>
<!-- Node25&#45;&gt;Node2 -->
<g id="edge40" class="edge">
<title>Node25&#45;&gt;Node2</title>
<path fill="none" stroke="midnightblue" d="M865.03,-448.74C862.32,-437.05 859.27,-423.93 857.26,-415.24"/>
<polygon fill="midnightblue" stroke="midnightblue" points="861.62,-449.55 867.29,-458.5 868.44,-447.96 861.62,-449.55"/>
</g>
<!-- Node26&#45;&gt;Node2 -->
<g id="edge42" class="edge">
<title>Node26&#45;&gt;Node2</title>
<path fill="none" stroke="midnightblue" d="M1085.65,-457.01C1025.98,-443.68 946.09,-425.84 897.7,-415.04"/>
<polygon fill="midnightblue" stroke="midnightblue" points="1084.9,-460.42 1095.42,-459.19 1086.43,-453.59 1084.9,-460.42"/>
</g>
<!-- Node27 -->
<g id="node27" class="node">
<title>Node27</title>
<g id="a_node27"><a xlink:href="../../d7/d78/eris__analyze__fft1024_8cpp.html" target="_top" xlink:title=" ">
<polygon fill="white" stroke="black" points="1097,-387.5 1097,-421.5 1247,-421.5 1247,-387.5 1097,-387.5"/>
<text text-anchor="start" x="1105" y="-407.9" font-family="Helvetica,sans-Serif" font-size="12.00">ERISCore/lib/Audio</text>
<text text-anchor="middle" x="1172" y="-394.9" font-family="Helvetica,sans-Serif" font-size="12.00">/eris_analyze_fft1024.cpp</text>
</a>
</g>
</g>
<!-- Node26&#45;&gt;Node27 -->
<g id="edge43" class="edge">
<title>Node26&#45;&gt;Node27</title>
<path fill="none" stroke="midnightblue" d="M1167.01,-448.54C1168.05,-439.6 1169.18,-429.85 1170.1,-421.9"/>
<polygon fill="midnightblue" stroke="midnightblue" points="1163.53,-448.16 1165.86,-458.5 1170.48,-448.97 1163.53,-448.16"/>
</g>
</g>
</svg>
