<?xml version="1.0" encoding="UTF-8" standalone="no"?>
<!DOCTYPE svg PUBLIC "-//W3C//DTD SVG 1.1//EN"
 "http://www.w3.org/Graphics/SVG/1.1/DTD/svg11.dtd">
<!-- Generated by graphviz version 2.47.3 (20210619.1520)
 -->
<!-- Title: ExFatFile::remove Pages: 1 -->
<svg width="541pt" height="199pt"
 viewBox="0.00 0.00 541.00 199.00" xmlns="http://www.w3.org/2000/svg" xmlns:xlink="http://www.w3.org/1999/xlink">
<g id="graph0" class="graph" transform="scale(1 1) rotate(0) translate(4 195)">
<title>ExFatFile::remove</title>
<polygon fill="white" stroke="transparent" points="-4,4 -4,-195 537,-195 537,4 -4,4"/>
<!-- Node1 -->
<g id="node1" class="node">
<title>Node1</title>
<g id="a_node1"><a xlink:title=" ">
<polygon fill="#bfbfbf" stroke="black" points="438,-95.5 438,-114.5 533,-114.5 533,-95.5 438,-95.5"/>
<text text-anchor="middle" x="485.5" y="-102.5" font-family="Helvetica,sans-Serif" font-size="10.00">ExFatFile::remove</text>
</a>
</g>
</g>
<!-- Node2 -->
<g id="node2" class="node">
<title>Node2</title>
<g id="a_node2"><a xlink:href="../../d7/d76/class_fs_base_file.html#a8d21f9df86e846e34c3bb11cf7db21bc" target="_top" xlink:title=" ">
<polygon fill="white" stroke="black" points="294,-171.5 294,-190.5 397,-190.5 397,-171.5 294,-171.5"/>
<text text-anchor="middle" x="345.5" y="-178.5" font-family="Helvetica,sans-Serif" font-size="10.00">FsBaseFile::remove</text>
</a>
</g>
</g>
<!-- Node1&#45;&gt;Node2 -->
<g id="edge1" class="edge">
<title>Node1&#45;&gt;Node2</title>
<path fill="none" stroke="midnightblue" d="M464.73,-120.98C448.6,-133.43 424.82,-150.49 402,-162 394.91,-165.58 386.98,-168.74 379.4,-171.41"/>
<polygon fill="midnightblue" stroke="midnightblue" points="467.15,-123.53 472.85,-114.6 462.83,-118.02 467.15,-123.53"/>
</g>
<!-- Node3 -->
<g id="node3" class="node">
<title>Node3</title>
<g id="a_node3"><a xlink:href="../../d5/d14/class_ex_fat_file.html#ad10417a851dba3d40a78eb2c0eb11fff" target="_top" xlink:title=" ">
<polygon fill="white" stroke="black" points="298,-133.5 298,-152.5 393,-152.5 393,-133.5 298,-133.5"/>
<text text-anchor="middle" x="345.5" y="-140.5" font-family="Helvetica,sans-Serif" font-size="10.00">ExFatFile::remove</text>
</a>
</g>
</g>
<!-- Node1&#45;&gt;Node3 -->
<g id="edge2" class="edge">
<title>Node1&#45;&gt;Node3</title>
<path fill="none" stroke="midnightblue" d="M440.03,-117.25C421.01,-122.48 399.12,-128.51 381.31,-133.41"/>
<polygon fill="midnightblue" stroke="midnightblue" points="440.96,-120.62 449.68,-114.59 439.11,-113.87 440.96,-120.62"/>
</g>
<!-- Node4 -->
<g id="node4" class="node">
<title>Node4</title>
<g id="a_node4"><a xlink:href="../../da/d35/class_ex_fat_volume.html#a58061d05f5dc5a52706cdd61a1a86e80" target="_top" xlink:title=" ">
<polygon fill="white" stroke="black" points="289,-95.5 289,-114.5 402,-114.5 402,-95.5 289,-95.5"/>
<text text-anchor="middle" x="345.5" y="-102.5" font-family="Helvetica,sans-Serif" font-size="10.00">ExFatVolume::remove</text>
</a>
</g>
</g>
<!-- Node1&#45;&gt;Node4 -->
<g id="edge3" class="edge">
<title>Node1&#45;&gt;Node4</title>
<path fill="none" stroke="midnightblue" d="M427.69,-105C419.28,-105 410.63,-105 402.24,-105"/>
<polygon fill="midnightblue" stroke="midnightblue" points="427.78,-108.5 437.78,-105 427.78,-101.5 427.78,-108.5"/>
</g>
<!-- Node6 -->
<g id="node6" class="node">
<title>Node6</title>
<g id="a_node6"><a xlink:href="../../d5/d14/class_ex_fat_file.html#aea570a3b6afbe633d874803b137a46b8" target="_top" xlink:title=" ">
<polygon fill="white" stroke="black" points="297,-57.5 297,-76.5 394,-76.5 394,-57.5 297,-57.5"/>
<text text-anchor="middle" x="345.5" y="-64.5" font-family="Helvetica,sans-Serif" font-size="10.00">ExFatFile::rename</text>
</a>
</g>
</g>
<!-- Node1&#45;&gt;Node6 -->
<g id="edge5" class="edge">
<title>Node1&#45;&gt;Node6</title>
<path fill="none" stroke="midnightblue" d="M440.03,-92.75C421.01,-87.52 399.12,-81.49 381.31,-76.59"/>
<polygon fill="midnightblue" stroke="midnightblue" points="439.11,-96.13 449.68,-95.41 440.96,-89.38 439.11,-96.13"/>
</g>
<!-- Node7 -->
<g id="node7" class="node">
<title>Node7</title>
<g id="a_node7"><a xlink:href="../../d5/d14/class_ex_fat_file.html#a0165e0fde12a53e419bd92cd37f9cfed" target="_top" xlink:title=" ">
<polygon fill="white" stroke="black" points="302.5,-19.5 302.5,-38.5 388.5,-38.5 388.5,-19.5 302.5,-19.5"/>
<text text-anchor="middle" x="345.5" y="-26.5" font-family="Helvetica,sans-Serif" font-size="10.00">ExFatFile::rmdir</text>
</a>
</g>
</g>
<!-- Node1&#45;&gt;Node7 -->
<g id="edge6" class="edge">
<title>Node1&#45;&gt;Node7</title>
<path fill="none" stroke="midnightblue" d="M464.73,-89.02C448.6,-76.57 424.82,-59.51 402,-48 394.91,-44.42 386.98,-41.26 379.4,-38.59"/>
<polygon fill="midnightblue" stroke="midnightblue" points="462.83,-91.98 472.85,-95.4 467.15,-86.47 462.83,-91.98"/>
</g>
<!-- Node5 -->
<g id="node5" class="node">
<title>Node5</title>
<g id="a_node5"><a xlink:href="../../da/d35/class_ex_fat_volume.html#adc22ad4ce966654944b18d31fc6ac5ee" target="_top" xlink:title=" ">
<polygon fill="white" stroke="black" points="140,-95.5 140,-114.5 253,-114.5 253,-95.5 140,-95.5"/>
<text text-anchor="middle" x="196.5" y="-102.5" font-family="Helvetica,sans-Serif" font-size="10.00">ExFatVolume::remove</text>
</a>
</g>
</g>
<!-- Node4&#45;&gt;Node5 -->
<g id="edge4" class="edge">
<title>Node4&#45;&gt;Node5</title>
<path fill="none" stroke="midnightblue" d="M278.92,-105C270.32,-105 261.57,-105 253.15,-105"/>
<polygon fill="midnightblue" stroke="midnightblue" points="278.93,-108.5 288.93,-105 278.93,-101.5 278.93,-108.5"/>
</g>
<!-- Node8 -->
<g id="node8" class="node">
<title>Node8</title>
<g id="a_node8"><a xlink:href="../../d7/d76/class_fs_base_file.html#ac47870fd89b0849cda33f2780918a286" target="_top" xlink:title=" ">
<polygon fill="white" stroke="black" points="149.5,-38.5 149.5,-57.5 243.5,-57.5 243.5,-38.5 149.5,-38.5"/>
<text text-anchor="middle" x="196.5" y="-45.5" font-family="Helvetica,sans-Serif" font-size="10.00">FsBaseFile::rmdir</text>
</a>
</g>
</g>
<!-- Node7&#45;&gt;Node8 -->
<g id="edge7" class="edge">
<title>Node7&#45;&gt;Node8</title>
<path fill="none" stroke="midnightblue" d="M292.22,-35.76C276.4,-37.8 259.15,-40.03 243.75,-42.02"/>
<polygon fill="midnightblue" stroke="midnightblue" points="292.91,-39.2 302.38,-34.44 292.01,-32.26 292.91,-39.2"/>
</g>
<!-- Node9 -->
<g id="node9" class="node">
<title>Node9</title>
<g id="a_node9"><a xlink:href="../../da/d35/class_ex_fat_volume.html#ab9e3e7d9538c905ca60b834e244943ee" target="_top" xlink:title=" ">
<polygon fill="white" stroke="black" points="144.5,-0.5 144.5,-19.5 248.5,-19.5 248.5,-0.5 144.5,-0.5"/>
<text text-anchor="middle" x="196.5" y="-7.5" font-family="Helvetica,sans-Serif" font-size="10.00">ExFatVolume::rmdir</text>
</a>
</g>
</g>
<!-- Node7&#45;&gt;Node9 -->
<g id="edge8" class="edge">
<title>Node7&#45;&gt;Node9</title>
<path fill="none" stroke="midnightblue" d="M292.31,-22.25C278.16,-20.43 262.86,-18.45 248.77,-16.63"/>
<polygon fill="midnightblue" stroke="midnightblue" points="292.01,-25.74 302.38,-23.56 292.91,-18.8 292.01,-25.74"/>
</g>
<!-- Node10 -->
<g id="node10" class="node">
<title>Node10</title>
<g id="a_node10"><a xlink:href="../../da/d35/class_ex_fat_volume.html#af0adfad817e085d676479fefbb343197" target="_top" xlink:title=" ">
<polygon fill="white" stroke="black" points="0,-0.5 0,-19.5 104,-19.5 104,-0.5 0,-0.5"/>
<text text-anchor="middle" x="52" y="-7.5" font-family="Helvetica,sans-Serif" font-size="10.00">ExFatVolume::rmdir</text>
</a>
</g>
</g>
<!-- Node9&#45;&gt;Node10 -->
<g id="edge9" class="edge">
<title>Node9&#45;&gt;Node10</title>
<path fill="none" stroke="midnightblue" d="M134.16,-10C124.16,-10 113.89,-10 104.17,-10"/>
<polygon fill="midnightblue" stroke="midnightblue" points="134.46,-13.5 144.46,-10 134.46,-6.5 134.46,-13.5"/>
</g>
</g>
</svg>
