<?xml version="1.0" encoding="UTF-8" standalone="no"?>
<!DOCTYPE svg PUBLIC "-//W3C//DTD SVG 1.1//EN"
 "http://www.w3.org/Graphics/SVG/1.1/DTD/svg11.dtd">
<!-- Generated by graphviz version 2.47.3 (20210619.1520)
 -->
<!-- Title: ExFatFile::openNext Pages: 1 -->
<svg width="406pt" height="161pt"
 viewBox="0.00 0.00 406.00 161.00" xmlns="http://www.w3.org/2000/svg" xmlns:xlink="http://www.w3.org/1999/xlink">
<g id="graph0" class="graph" transform="scale(1 1) rotate(0) translate(4 157)">
<title>ExFatFile::openNext</title>
<polygon fill="white" stroke="transparent" points="-4,4 -4,-157 402,-157 402,4 -4,4"/>
<!-- Node1 -->
<g id="node1" class="node">
<title>Node1</title>
<g id="a_node1"><a xlink:title=" ">
<polygon fill="#bfbfbf" stroke="black" points="292,-57.5 292,-76.5 398,-76.5 398,-57.5 292,-57.5"/>
<text text-anchor="middle" x="345" y="-64.5" font-family="Helvetica,sans-Serif" font-size="10.00">ExFatFile::openNext</text>
</a>
</g>
</g>
<!-- Node2 -->
<g id="node2" class="node">
<title>Node2</title>
<g id="a_node2"><a xlink:href="../../d5/d14/class_ex_fat_file.html#aa0e074c891f3db5ea2ebd491667b03a6" target="_top" xlink:title=" ">
<polygon fill="white" stroke="black" points="163.5,-114.5 163.5,-133.5 235.5,-133.5 235.5,-114.5 163.5,-114.5"/>
<text text-anchor="middle" x="199.5" y="-121.5" font-family="Helvetica,sans-Serif" font-size="10.00">ExFatFile::ls</text>
</a>
</g>
</g>
<!-- Node1&#45;&gt;Node2 -->
<g id="edge1" class="edge">
<title>Node1&#45;&gt;Node2</title>
<path fill="none" stroke="midnightblue" d="M313.85,-80.71C296.97,-88.21 275.46,-97.48 256,-105 247.55,-108.27 238.26,-111.56 229.75,-114.46"/>
<polygon fill="midnightblue" stroke="midnightblue" points="315.51,-83.8 323.21,-76.52 312.65,-77.41 315.51,-83.8"/>
</g>
<!-- Node5 -->
<g id="node5" class="node">
<title>Node5</title>
<g id="a_node5"><a xlink:href="../../d5/d14/class_ex_fat_file.html#a414b64dc30551e05dcc46f04e0f6413a" target="_top" xlink:title=" ">
<polygon fill="white" stroke="black" points="156.5,-76.5 156.5,-95.5 242.5,-95.5 242.5,-76.5 156.5,-76.5"/>
<text text-anchor="middle" x="199.5" y="-83.5" font-family="Helvetica,sans-Serif" font-size="10.00">ExFatFile::open</text>
</a>
</g>
</g>
<!-- Node1&#45;&gt;Node5 -->
<g id="edge4" class="edge">
<title>Node1&#45;&gt;Node5</title>
<path fill="none" stroke="midnightblue" d="M281.78,-75.24C268.53,-76.99 254.85,-78.8 242.57,-80.43"/>
<polygon fill="midnightblue" stroke="midnightblue" points="282.33,-78.7 291.79,-73.91 281.41,-71.76 282.33,-78.7"/>
</g>
<!-- Node6 -->
<g id="node6" class="node">
<title>Node6</title>
<g id="a_node6"><a xlink:href="../../d7/d76/class_fs_base_file.html#acb9b1075f4db76fa7e0521c9aff9c3df" target="_top" xlink:title=" ">
<polygon fill="white" stroke="black" points="143,-38.5 143,-57.5 256,-57.5 256,-38.5 143,-38.5"/>
<text text-anchor="middle" x="199.5" y="-45.5" font-family="Helvetica,sans-Serif" font-size="10.00">FsBaseFile::openNext</text>
</a>
</g>
</g>
<!-- Node1&#45;&gt;Node6 -->
<g id="edge5" class="edge">
<title>Node1&#45;&gt;Node6</title>
<path fill="none" stroke="midnightblue" d="M281.63,-58.74C273.2,-57.63 264.6,-56.49 256.3,-55.39"/>
<polygon fill="midnightblue" stroke="midnightblue" points="281.41,-62.24 291.79,-60.09 282.33,-55.3 281.41,-62.24"/>
</g>
<!-- Node8 -->
<g id="node8" class="node">
<title>Node8</title>
<g id="a_node8"><a xlink:href="../../db/d75/class_ex_file.html#ac33383190264a3b74434877f0ff7e6d6" target="_top" xlink:title=" ">
<polygon fill="white" stroke="black" points="146,-0.5 146,-19.5 253,-19.5 253,-0.5 146,-0.5"/>
<text text-anchor="middle" x="199.5" y="-7.5" font-family="Helvetica,sans-Serif" font-size="10.00">ExFile::openNextFile</text>
</a>
</g>
</g>
<!-- Node1&#45;&gt;Node8 -->
<g id="edge7" class="edge">
<title>Node1&#45;&gt;Node8</title>
<path fill="none" stroke="midnightblue" d="M313.85,-53.29C296.97,-45.79 275.46,-36.52 256,-29 247.55,-25.73 238.26,-22.44 229.75,-19.54"/>
<polygon fill="midnightblue" stroke="midnightblue" points="312.65,-56.59 323.21,-57.48 315.51,-50.2 312.65,-56.59"/>
</g>
<!-- Node3 -->
<g id="node3" class="node">
<title>Node3</title>
<g id="a_node3"><a xlink:href="../../d5/d14/class_ex_fat_file.html#a09f8beb55f939874e93c1df6c8a046d4" target="_top" xlink:title=" ">
<polygon fill="white" stroke="black" points="17.5,-133.5 17.5,-152.5 89.5,-152.5 89.5,-133.5 17.5,-133.5"/>
<text text-anchor="middle" x="53.5" y="-140.5" font-family="Helvetica,sans-Serif" font-size="10.00">ExFatFile::ls</text>
</a>
</g>
</g>
<!-- Node2&#45;&gt;Node3 -->
<g id="edge2" class="edge">
<title>Node2&#45;&gt;Node3</title>
<path fill="none" stroke="midnightblue" d="M153.23,-129.97C132.78,-132.67 108.97,-135.81 89.86,-138.33"/>
<polygon fill="midnightblue" stroke="midnightblue" points="153.82,-133.43 163.27,-128.65 152.9,-126.49 153.82,-133.43"/>
</g>
<!-- Node4 -->
<g id="node4" class="node">
<title>Node4</title>
<g id="a_node4"><a xlink:href="../../da/d35/class_ex_fat_volume.html#abe1e8cad0a5922984b28edfd987bc856" target="_top" xlink:title=" ">
<polygon fill="white" stroke="black" points="9,-95.5 9,-114.5 98,-114.5 98,-95.5 9,-95.5"/>
<text text-anchor="middle" x="53.5" y="-102.5" font-family="Helvetica,sans-Serif" font-size="10.00">ExFatVolume::ls</text>
</a>
</g>
</g>
<!-- Node2&#45;&gt;Node4 -->
<g id="edge3" class="edge">
<title>Node2&#45;&gt;Node4</title>
<path fill="none" stroke="midnightblue" d="M153.24,-118.03C135.64,-115.71 115.56,-113.06 98.12,-110.76"/>
<polygon fill="midnightblue" stroke="midnightblue" points="152.9,-121.51 163.27,-119.35 153.82,-114.57 152.9,-121.51"/>
</g>
<!-- Node7 -->
<g id="node7" class="node">
<title>Node7</title>
<g id="a_node7"><a xlink:href="../../d4/da1/class_fs_file.html#ab2f85961e3831d0d654da862becb7433" target="_top" xlink:title=" ">
<polygon fill="white" stroke="black" points="0,-38.5 0,-57.5 107,-57.5 107,-38.5 0,-38.5"/>
<text text-anchor="middle" x="53.5" y="-45.5" font-family="Helvetica,sans-Serif" font-size="10.00">FsFile::openNextFile</text>
</a>
</g>
</g>
<!-- Node6&#45;&gt;Node7 -->
<g id="edge6" class="edge">
<title>Node6&#45;&gt;Node7</title>
<path fill="none" stroke="midnightblue" d="M132.55,-48C124.05,-48 115.44,-48 107.19,-48"/>
<polygon fill="midnightblue" stroke="midnightblue" points="132.83,-51.5 142.83,-48 132.83,-44.5 132.83,-51.5"/>
</g>
</g>
</svg>
