<?xml version="1.0" encoding="UTF-8" standalone="no"?>
<!DOCTYPE svg PUBLIC "-//W3C//DTD SVG 1.1//EN"
 "http://www.w3.org/Graphics/SVG/1.1/DTD/svg11.dtd">
<!-- Generated by graphviz version 2.47.3 (20210619.1520)
 -->
<!-- Title: ExFatFile::printField Pages: 1 -->
<svg width="233pt" height="66pt"
 viewBox="0.00 0.00 233.00 66.00" xmlns="http://www.w3.org/2000/svg" xmlns:xlink="http://www.w3.org/1999/xlink">
<g id="graph0" class="graph" transform="scale(1 1) rotate(0) translate(4 62)">
<title>ExFatFile::printField</title>
<polygon fill="white" stroke="transparent" points="-4,4 -4,-62 229,-62 229,4 -4,4"/>
<!-- Node1 -->
<g id="node1" class="node">
<title>Node1</title>
<g id="a_node1"><a xlink:title=" ">
<polygon fill="#bfbfbf" stroke="black" points="0,-19.5 0,-38.5 104,-38.5 104,-19.5 0,-19.5"/>
<text text-anchor="middle" x="52" y="-26.5" font-family="Helvetica,sans-Serif" font-size="10.00">ExFatFile::printField</text>
</a>
</g>
</g>
<!-- Node2 -->
<g id="node2" class="node">
<title>Node2</title>
<g id="a_node2"><a xlink:href="../../d8/d73/_fmt_number_8cpp.html#a29e6f245d52c13dc1b1d0ed44eac22b0" target="_top" xlink:title=" ">
<polygon fill="white" stroke="black" points="152.5,-38.5 152.5,-57.5 212.5,-57.5 212.5,-38.5 152.5,-38.5"/>
<text text-anchor="middle" x="182.5" y="-45.5" font-family="Helvetica,sans-Serif" font-size="10.00">fmtDouble</text>
</a>
</g>
</g>
<!-- Node1&#45;&gt;Node2 -->
<g id="edge1" class="edge">
<title>Node1&#45;&gt;Node2</title>
<path fill="none" stroke="midnightblue" d="M104.16,-36.56C116.82,-38.44 130.2,-40.41 142.2,-42.19"/>
<polygon fill="midnightblue" stroke="midnightblue" points="141.94,-45.69 152.34,-43.69 142.96,-38.76 141.94,-45.69"/>
</g>
<!-- Node3 -->
<g id="node3" class="node">
<title>Node3</title>
<g id="a_node3"><a xlink:href="../../d5/d14/class_ex_fat_file.html#a6fb2905a5e363554a5118b5d1322cd87" target="_top" xlink:title=" ">
<polygon fill="white" stroke="black" points="140,-0.5 140,-19.5 225,-19.5 225,-0.5 140,-0.5"/>
<text text-anchor="middle" x="182.5" y="-7.5" font-family="Helvetica,sans-Serif" font-size="10.00">ExFatFile::write</text>
</a>
</g>
</g>
<!-- Node1&#45;&gt;Node3 -->
<g id="edge2" class="edge">
<title>Node1&#45;&gt;Node3</title>
<path fill="none" stroke="midnightblue" d="M104.16,-21.44C112.52,-20.2 121.18,-18.92 129.56,-17.68"/>
<polygon fill="midnightblue" stroke="midnightblue" points="130.22,-21.12 139.6,-16.2 129.19,-14.2 130.22,-21.12"/>
</g>
</g>
</svg>
