<?xml version="1.0" encoding="UTF-8" standalone="no"?>
<!DOCTYPE svg PUBLIC "-//W3C//DTD SVG 1.1//EN"
 "http://www.w3.org/Graphics/SVG/1.1/DTD/svg11.dtd">
<!-- Generated by graphviz version 2.47.3 (20210619.1520)
 -->
<!-- Title: ExFatFile::isDir Pages: 1 -->
<!--zoomable 712 -->
<svg id="main" version="1.1" xmlns="http://www.w3.org/2000/svg" xmlns:xlink="http://www.w3.org/1999/xlink" xml:space="preserve" onload="init(evt)">
<style type="text/css"><![CDATA[
.edge:hover path { stroke: red; }
.edge:hover polygon { stroke: red; fill: red; }
]]></style>
<script type="text/javascript"><![CDATA[
var edges = document.getElementsByTagName('g');
if (edges && edges.length) {
  for (var i=0;i<edges.length;i++) {
    if (edges[i].id.substr(0,4)=='edge') {
      edges[i].setAttribute('class','edge');
    }
  }
}
]]></script>
        <defs>
                <circle id="rim" cx="0" cy="0" r="7"/>
                <circle id="rim2" cx="0" cy="0" r="3.5"/>
                <g id="zoomPlus">
                        <use xlink:href="#rim" fill="#404040">
                                <set attributeName="fill" to="#808080" begin="zoomplus.mouseover" end="zoomplus.mouseout"/>
                        </use>
                        <path d="M-4,0h8M0,-4v8" fill="none" stroke="white" stroke-width="1.5" pointer-events="none"/>
                </g>
                <g id="zoomMin">
                        <use xlink:href="#rim" fill="#404040">
                                <set attributeName="fill" to="#808080" begin="zoomminus.mouseover" end="zoomminus.mouseout"/>
                        </use>
                        <path d="M-4,0h8" fill="none" stroke="white" stroke-width="1.5" pointer-events="none"/>
                </g>
                <g id="dirArrow">
                        <path fill="none" stroke="white" stroke-width="1.5" d="M0,-3.0v7 M-2.5,-0.5L0,-3.0L2.5,-0.5"/>
                </g>
               <g id="resetDef">
                       <use xlink:href="#rim2" fill="#404040">
                               <set attributeName="fill" to="#808080" begin="reset.mouseover" end="reset.mouseout"/>
                       </use>
               </g>
        </defs>

<script type="text/javascript">
var viewWidth = 684;
var viewHeight = 712;
var sectionId = 'dynsection-26';
</script>
<script xlink:href="../../svgpan.js"/>
<svg id="graph" class="graph">
<g id="viewport">
<title>ExFatFile::isDir</title>
<polygon fill="white" stroke="transparent" points="-4,4 -4,-708 680,-708 680,4 -4,4"/>
<!-- Node1 -->
<g id="node1" class="node">
<title>Node1</title>
<g id="a_node1"><a xlink:title=" ">
<polygon fill="#bfbfbf" stroke="black" points="592,-152.5 592,-171.5 676,-171.5 676,-152.5 592,-152.5"/>
<text text-anchor="middle" x="634" y="-159.5" font-family="Helvetica,sans-Serif" font-size="10.00">ExFatFile::isDir</text>
</a>
</g>
</g>
<!-- Node2 -->
<g id="node2" class="node">
<title>Node2</title>
<g id="a_node2"><a xlink:href="../../da/d35/class_ex_fat_volume.html#a4e0a0e838088f31b15a36925f21c314c" target="_top" xlink:title=" ">
<polygon fill="white" stroke="black" points="303,-684.5 303,-703.5 406,-703.5 406,-684.5 303,-684.5"/>
<text text-anchor="middle" x="354.5" y="-691.5" font-family="Helvetica,sans-Serif" font-size="10.00">ExFatVolume::chdir</text>
</a>
</g>
</g>
<!-- Node1&#45;&gt;Node2 -->
<g id="edge1" class="edge">
<title>Node1&#45;&gt;Node2</title>
<path fill="none" stroke="midnightblue" d="M633.04,-181.92C632.34,-240.64 624.3,-416.69 556,-540 513.81,-616.18 488.82,-630.45 414,-675 407.67,-678.77 400.5,-681.89 393.41,-684.43"/>
<polygon fill="midnightblue" stroke="midnightblue" points="636.54,-181.81 633.1,-171.79 629.54,-181.77 636.54,-181.81"/>
</g>
<!-- Node3 -->
<g id="node3" class="node">
<title>Node3</title>
<g id="a_node3"><a xlink:href="../../d7/d76/class_fs_base_file.html#ae93db43779d54734855005116244f6aa" target="_top" xlink:title=" ">
<polygon fill="white" stroke="black" points="457,-152.5 457,-171.5 549,-171.5 549,-152.5 457,-152.5"/>
<text text-anchor="middle" x="503" y="-159.5" font-family="Helvetica,sans-Serif" font-size="10.00">FsBaseFile::isDir</text>
</a>
</g>
</g>
<!-- Node1&#45;&gt;Node3 -->
<g id="edge2" class="edge">
<title>Node1&#45;&gt;Node3</title>
<path fill="none" stroke="midnightblue" d="M581.73,-162C571,-162 559.75,-162 549.25,-162"/>
<polygon fill="midnightblue" stroke="midnightblue" points="581.83,-165.5 591.83,-162 581.83,-158.5 581.83,-165.5"/>
</g>
<!-- Node5 -->
<g id="node5" class="node">
<title>Node5</title>
<g id="a_node5"><a xlink:href="../../d5/d14/class_ex_fat_file.html#aa0e074c891f3db5ea2ebd491667b03a6" target="_top" xlink:title=" ">
<polygon fill="white" stroke="black" points="318.5,-114.5 318.5,-133.5 390.5,-133.5 390.5,-114.5 318.5,-114.5"/>
<text text-anchor="middle" x="354.5" y="-121.5" font-family="Helvetica,sans-Serif" font-size="10.00">ExFatFile::ls</text>
</a>
</g>
</g>
<!-- Node1&#45;&gt;Node5 -->
<g id="edge4" class="edge">
<title>Node1&#45;&gt;Node5</title>
<path fill="none" stroke="midnightblue" d="M589.08,-149.98C578.33,-147.36 566.8,-144.83 556,-143 498.6,-133.25 431.06,-128.15 390.84,-125.77"/>
<polygon fill="midnightblue" stroke="midnightblue" points="588.56,-153.46 599.11,-152.49 590.26,-146.67 588.56,-153.46"/>
</g>
<!-- Node8 -->
<g id="node8" class="node">
<title>Node8</title>
<g id="a_node8"><a xlink:href="../../d5/d14/class_ex_fat_file.html#a3a393624d52854e74bf385c9e513a86d" target="_top" xlink:title=" ">
<polygon fill="white" stroke="black" points="310,-646.5 310,-665.5 399,-665.5 399,-646.5 310,-646.5"/>
<text text-anchor="middle" x="354.5" y="-653.5" font-family="Helvetica,sans-Serif" font-size="10.00">ExFatFile::mkdir</text>
</a>
</g>
</g>
<!-- Node1&#45;&gt;Node8 -->
<g id="edge7" class="edge">
<title>Node1&#45;&gt;Node8</title>
<path fill="none" stroke="midnightblue" d="M630.3,-181.71C623.22,-229.32 601.47,-353.54 556,-447 509.88,-541.8 499.71,-575.62 414,-637 408.62,-640.85 402.41,-643.96 396.09,-646.45"/>
<polygon fill="midnightblue" stroke="midnightblue" points="633.8,-181.96 631.75,-171.56 626.87,-180.96 633.8,-181.96"/>
</g>
<!-- Node12 -->
<g id="node12" class="node">
<title>Node12</title>
<g id="a_node12"><a xlink:href="../../d5/d14/class_ex_fat_file.html#ad0be05c5c7092317089872778052cbd7" target="_top" xlink:title=" ">
<polygon fill="white" stroke="black" points="460,-418.5 460,-437.5 546,-437.5 546,-418.5 460,-418.5"/>
<text text-anchor="middle" x="503" y="-425.5" font-family="Helvetica,sans-Serif" font-size="10.00">ExFatFile::open</text>
</a>
</g>
</g>
<!-- Node1&#45;&gt;Node12 -->
<g id="edge11" class="edge">
<title>Node1&#45;&gt;Node12</title>
<path fill="none" stroke="midnightblue" d="M623.79,-180.99C598.31,-233.53 527.49,-379.57 508.65,-418.41"/>
<polygon fill="midnightblue" stroke="midnightblue" points="627.04,-182.31 628.26,-171.78 620.74,-179.25 627.04,-182.31"/>
</g>
<!-- Node32 -->
<g id="node32" class="node">
<title>Node32</title>
<g id="a_node32"><a xlink:href="../../d5/d14/class_ex_fat_file.html#a3ea80d4e3dd4340c2d282097ad12c249" target="_top" xlink:title=" ">
<polygon fill="white" stroke="black" points="450,-76.5 450,-95.5 556,-95.5 556,-76.5 450,-76.5"/>
<text text-anchor="middle" x="503" y="-83.5" font-family="Helvetica,sans-Serif" font-size="10.00">ExFatFile::openNext</text>
</a>
</g>
</g>
<!-- Node1&#45;&gt;Node32 -->
<g id="edge33" class="edge">
<title>Node1&#45;&gt;Node32</title>
<path fill="none" stroke="midnightblue" d="M611.89,-146.38C596.74,-135.52 575.62,-121.06 556,-110 546.64,-104.73 535.93,-99.63 526.66,-95.5"/>
<polygon fill="midnightblue" stroke="midnightblue" points="609.91,-149.27 620.06,-152.31 614.02,-143.61 609.91,-149.27"/>
</g>
<!-- Node37 -->
<g id="node37" class="node">
<title>Node37</title>
<g id="a_node37"><a xlink:href="../../d5/d14/class_ex_fat_file.html#a5ae5477efe55179cf07e173c62654313" target="_top" xlink:title=" ">
<polygon fill="white" stroke="black" points="461.5,-38.5 461.5,-57.5 544.5,-57.5 544.5,-38.5 461.5,-38.5"/>
<text text-anchor="middle" x="503" y="-45.5" font-family="Helvetica,sans-Serif" font-size="10.00">ExFatFile::read</text>
</a>
</g>
</g>
<!-- Node1&#45;&gt;Node37 -->
<g id="edge39" class="edge">
<title>Node1&#45;&gt;Node37</title>
<path fill="none" stroke="midnightblue" d="M622.51,-143.8C609.43,-122.61 585.22,-87.86 556,-67 550.68,-63.2 544.52,-60.08 538.34,-57.55"/>
<polygon fill="midnightblue" stroke="midnightblue" points="619.57,-145.71 627.71,-152.49 625.57,-142.11 619.57,-145.71"/>
</g>
<!-- Node4 -->
<g id="node4" class="node">
<title>Node4</title>
<g id="a_node4"><a xlink:href="../../d7/d76/class_fs_base_file.html#aa564175ba0065803013338d89510ea81" target="_top" xlink:title=" ">
<polygon fill="white" stroke="black" points="295,-152.5 295,-171.5 414,-171.5 414,-152.5 295,-152.5"/>
<text text-anchor="middle" x="354.5" y="-159.5" font-family="Helvetica,sans-Serif" font-size="10.00">FsBaseFile::isDirectory</text>
</a>
</g>
</g>
<!-- Node3&#45;&gt;Node4 -->
<g id="edge3" class="edge">
<title>Node3&#45;&gt;Node4</title>
<path fill="none" stroke="midnightblue" d="M446.78,-162C436.07,-162 424.81,-162 414,-162"/>
<polygon fill="midnightblue" stroke="midnightblue" points="446.85,-165.5 456.85,-162 446.85,-158.5 446.85,-165.5"/>
</g>
<!-- Node6 -->
<g id="node6" class="node">
<title>Node6</title>
<g id="a_node6"><a xlink:href="../../d5/d14/class_ex_fat_file.html#a09f8beb55f939874e93c1df6c8a046d4" target="_top" xlink:title=" ">
<polygon fill="white" stroke="black" points="164.5,-133.5 164.5,-152.5 236.5,-152.5 236.5,-133.5 164.5,-133.5"/>
<text text-anchor="middle" x="200.5" y="-140.5" font-family="Helvetica,sans-Serif" font-size="10.00">ExFatFile::ls</text>
</a>
</g>
</g>
<!-- Node5&#45;&gt;Node6 -->
<g id="edge5" class="edge">
<title>Node5&#45;&gt;Node6</title>
<path fill="none" stroke="midnightblue" d="M308.07,-129.68C285.17,-132.54 257.82,-135.96 236.56,-138.62"/>
<polygon fill="midnightblue" stroke="midnightblue" points="308.76,-133.12 318.25,-128.41 307.89,-126.17 308.76,-133.12"/>
</g>
<!-- Node7 -->
<g id="node7" class="node">
<title>Node7</title>
<g id="a_node7"><a xlink:href="../../da/d35/class_ex_fat_volume.html#abe1e8cad0a5922984b28edfd987bc856" target="_top" xlink:title=" ">
<polygon fill="white" stroke="black" points="156,-95.5 156,-114.5 245,-114.5 245,-95.5 156,-95.5"/>
<text text-anchor="middle" x="200.5" y="-102.5" font-family="Helvetica,sans-Serif" font-size="10.00">ExFatVolume::ls</text>
</a>
</g>
</g>
<!-- Node5&#45;&gt;Node7 -->
<g id="edge6" class="edge">
<title>Node5&#45;&gt;Node7</title>
<path fill="none" stroke="midnightblue" d="M308.18,-118.33C288.27,-115.85 264.99,-112.94 245.26,-110.47"/>
<polygon fill="midnightblue" stroke="midnightblue" points="307.89,-121.83 318.25,-119.59 308.76,-114.88 307.89,-121.83"/>
</g>
<!-- Node9 -->
<g id="node9" class="node">
<title>Node9</title>
<g id="a_node9"><a xlink:href="../../da/d35/class_ex_fat_volume.html#a407b93b16554b26ff52f7b762a9217aa" target="_top" xlink:title=" ">
<polygon fill="white" stroke="black" points="147.5,-665.5 147.5,-684.5 253.5,-684.5 253.5,-665.5 147.5,-665.5"/>
<text text-anchor="middle" x="200.5" y="-672.5" font-family="Helvetica,sans-Serif" font-size="10.00">ExFatVolume::mkdir</text>
</a>
</g>
</g>
<!-- Node8&#45;&gt;Node9 -->
<g id="edge8" class="edge">
<title>Node8&#45;&gt;Node9</title>
<path fill="none" stroke="midnightblue" d="M299.81,-662.71C284.83,-664.58 268.58,-666.62 253.68,-668.48"/>
<polygon fill="midnightblue" stroke="midnightblue" points="300.45,-666.16 309.94,-661.44 299.59,-659.21 300.45,-666.16"/>
</g>
<!-- Node11 -->
<g id="node11" class="node">
<title>Node11</title>
<g id="a_node11"><a xlink:href="../../d7/d76/class_fs_base_file.html#a8b7aa7f2c63882e483336dfe12ef6800" target="_top" xlink:title=" ">
<polygon fill="white" stroke="black" points="152.5,-627.5 152.5,-646.5 248.5,-646.5 248.5,-627.5 152.5,-627.5"/>
<text text-anchor="middle" x="200.5" y="-634.5" font-family="Helvetica,sans-Serif" font-size="10.00">FsBaseFile::mkdir</text>
</a>
</g>
</g>
<!-- Node8&#45;&gt;Node11 -->
<g id="edge10" class="edge">
<title>Node8&#45;&gt;Node11</title>
<path fill="none" stroke="midnightblue" d="M299.77,-649.28C283.05,-647.19 264.75,-644.91 248.52,-642.88"/>
<polygon fill="midnightblue" stroke="midnightblue" points="299.59,-652.79 309.94,-650.56 300.45,-645.84 299.59,-652.79"/>
</g>
<!-- Node10 -->
<g id="node10" class="node">
<title>Node10</title>
<g id="a_node10"><a xlink:href="../../da/d35/class_ex_fat_volume.html#a0f4cf7e2853225380574724314327597" target="_top" xlink:title=" ">
<polygon fill="white" stroke="black" points="0,-665.5 0,-684.5 106,-684.5 106,-665.5 0,-665.5"/>
<text text-anchor="middle" x="53" y="-672.5" font-family="Helvetica,sans-Serif" font-size="10.00">ExFatVolume::mkdir</text>
</a>
</g>
</g>
<!-- Node9&#45;&gt;Node10 -->
<g id="edge9" class="edge">
<title>Node9&#45;&gt;Node10</title>
<path fill="none" stroke="midnightblue" d="M137.19,-675C126.88,-675 116.28,-675 106.24,-675"/>
<polygon fill="midnightblue" stroke="midnightblue" points="137.38,-678.5 147.38,-675 137.38,-671.5 137.38,-678.5"/>
</g>
<!-- Node12&#45;&gt;Node2 -->
<g id="edge12" class="edge">
<title>Node12&#45;&gt;Node2</title>
<path fill="none" stroke="midnightblue" d="M500.7,-447.85C496.59,-494.3 479.9,-610.94 414,-675 410.02,-678.87 405.24,-681.95 400.15,-684.41"/>
<polygon fill="midnightblue" stroke="midnightblue" points="504.21,-447.87 501.5,-437.63 497.23,-447.33 504.21,-447.87"/>
</g>
<!-- Node12&#45;&gt;Node8 -->
<g id="edge18" class="edge">
<title>Node12&#45;&gt;Node8</title>
<path fill="none" stroke="midnightblue" d="M493.5,-446.95C483.05,-470.36 464.87,-511.47 450,-547 433.37,-586.74 445.46,-607.57 414,-637 409.71,-641.01 404.57,-644.18 399.13,-646.68"/>
<polygon fill="midnightblue" stroke="midnightblue" points="496.83,-448.08 497.72,-437.52 490.44,-445.22 496.83,-448.08"/>
</g>
<!-- Node13 -->
<g id="node13" class="node">
<title>Node13</title>
<g id="a_node13"><a xlink:href="../../d5/d14/class_ex_fat_file.html#a22a717ddc6d2004c540c67a14264d9dd" target="_top" xlink:title=" ">
<polygon fill="white" stroke="black" points="309,-266.5 309,-285.5 400,-285.5 400,-266.5 309,-266.5"/>
<text text-anchor="middle" x="354.5" y="-273.5" font-family="Helvetica,sans-Serif" font-size="10.00">ExFatFile::exists</text>
</a>
</g>
</g>
<!-- Node12&#45;&gt;Node13 -->
<g id="edge13" class="edge">
<title>Node12&#45;&gt;Node13</title>
<path fill="none" stroke="midnightblue" d="M494.37,-409.01C481.84,-380.2 454.24,-325.6 414,-295 408.9,-291.12 402.98,-288.02 396.9,-285.54"/>
<polygon fill="midnightblue" stroke="midnightblue" points="491.19,-410.49 498.29,-418.36 497.65,-407.78 491.19,-410.49"/>
</g>
<!-- Node15 -->
<g id="node15" class="node">
<title>Node15</title>
<g id="a_node15"><a xlink:href="../../da/d35/class_ex_fat_volume.html#a7fdcdffb720a1cca5cfa73f4cfa281df" target="_top" xlink:title=" ">
<polygon fill="white" stroke="black" points="300.5,-228.5 300.5,-247.5 408.5,-247.5 408.5,-228.5 300.5,-228.5"/>
<text text-anchor="middle" x="354.5" y="-235.5" font-family="Helvetica,sans-Serif" font-size="10.00">ExFatVolume::exists</text>
</a>
</g>
</g>
<!-- Node12&#45;&gt;Node15 -->
<g id="edge15" class="edge">
<title>Node12&#45;&gt;Node15</title>
<path fill="none" stroke="midnightblue" d="M497.16,-408.18C487.49,-372.69 462.42,-298.18 414,-257 409.44,-253.13 404.08,-250.04 398.49,-247.58"/>
<polygon fill="midnightblue" stroke="midnightblue" points="493.87,-409.44 499.77,-418.24 500.65,-407.68 493.87,-409.44"/>
</g>
<!-- Node17 -->
<g id="node17" class="node">
<title>Node17</title>
<g id="a_node17"><a xlink:href="../../da/d35/class_ex_fat_volume.html#aad2de66514174edb37b0fe7e44b33abf" target="_top" xlink:title=" ">
<polygon fill="white" stroke="black" points="310,-190.5 310,-209.5 399,-209.5 399,-190.5 310,-190.5"/>
<text text-anchor="middle" x="354.5" y="-197.5" font-family="Helvetica,sans-Serif" font-size="10.00">ExFatVolume::ls</text>
</a>
</g>
</g>
<!-- Node12&#45;&gt;Node17 -->
<g id="edge17" class="edge">
<title>Node12&#45;&gt;Node17</title>
<path fill="none" stroke="midnightblue" d="M499.23,-408.14C492.42,-366.9 471.09,-271.46 414,-219 409.68,-215.03 404.51,-211.88 399.06,-209.4"/>
<polygon fill="midnightblue" stroke="midnightblue" points="495.77,-408.69 500.75,-418.04 502.69,-407.63 495.77,-408.69"/>
</g>
<!-- Node18 -->
<g id="node18" class="node">
<title>Node18</title>
<g id="a_node18"><a xlink:href="../../d5/d14/class_ex_fat_file.html#a32be0584c62b9eba57f386b03e350e43" target="_top" xlink:title=" ">
<polygon fill="white" stroke="black" points="311.5,-608.5 311.5,-627.5 397.5,-627.5 397.5,-608.5 311.5,-608.5"/>
<text text-anchor="middle" x="354.5" y="-615.5" font-family="Helvetica,sans-Serif" font-size="10.00">ExFatFile::open</text>
</a>
</g>
</g>
<!-- Node12&#45;&gt;Node18 -->
<g id="edge19" class="edge">
<title>Node12&#45;&gt;Node18</title>
<path fill="none" stroke="midnightblue" d="M494.44,-446.89C478.16,-486.75 439.21,-577.55 414,-599 409.2,-603.08 403.51,-606.29 397.58,-608.81"/>
<polygon fill="midnightblue" stroke="midnightblue" points="497.73,-448.09 498.24,-437.51 491.24,-445.47 497.73,-448.09"/>
</g>
<!-- Node19 -->
<g id="node19" class="node">
<title>Node19</title>
<g id="a_node19"><a xlink:href="../../da/d35/class_ex_fat_volume.html#a9686979b368d287b5bdde9f8824609f9" target="_top" xlink:title=" ">
<polygon fill="white" stroke="black" points="303,-570.5 303,-589.5 406,-589.5 406,-570.5 303,-570.5"/>
<text text-anchor="middle" x="354.5" y="-577.5" font-family="Helvetica,sans-Serif" font-size="10.00">ExFatVolume::open</text>
</a>
</g>
</g>
<!-- Node12&#45;&gt;Node19 -->
<g id="edge20" class="edge">
<title>Node12&#45;&gt;Node19</title>
<path fill="none" stroke="midnightblue" d="M494.37,-446.99C481.84,-475.8 454.24,-530.4 414,-561 408.9,-564.88 402.98,-567.98 396.9,-570.46"/>
<polygon fill="midnightblue" stroke="midnightblue" points="497.65,-448.22 498.29,-437.64 491.19,-445.51 497.65,-448.22"/>
</g>
<!-- Node21 -->
<g id="node21" class="node">
<title>Node21</title>
<g id="a_node21"><a xlink:href="../../d7/d76/class_fs_base_file.html#a9786eb47f5d001e89ff291c271517547" target="_top" xlink:title=" ">
<polygon fill="white" stroke="black" points="308,-532.5 308,-551.5 401,-551.5 401,-532.5 308,-532.5"/>
<text text-anchor="middle" x="354.5" y="-539.5" font-family="Helvetica,sans-Serif" font-size="10.00">FsBaseFile::open</text>
</a>
</g>
</g>
<!-- Node12&#45;&gt;Node21 -->
<g id="edge22" class="edge">
<title>Node12&#45;&gt;Node21</title>
<path fill="none" stroke="midnightblue" d="M489.74,-446.04C474.4,-467.33 446.17,-502.43 414,-523 408.06,-526.8 401.3,-529.9 394.53,-532.41"/>
<polygon fill="midnightblue" stroke="midnightblue" points="492.8,-447.78 495.68,-437.59 487.07,-443.76 492.8,-447.78"/>
</g>
<!-- Node22 -->
<g id="node22" class="node">
<title>Node22</title>
<g id="a_node22"><a xlink:href="../../d5/d14/class_ex_fat_file.html#ad10417a851dba3d40a78eb2c0eb11fff" target="_top" xlink:title=" ">
<polygon fill="white" stroke="black" points="307,-494.5 307,-513.5 402,-513.5 402,-494.5 307,-494.5"/>
<text text-anchor="middle" x="354.5" y="-501.5" font-family="Helvetica,sans-Serif" font-size="10.00">ExFatFile::remove</text>
</a>
</g>
</g>
<!-- Node12&#45;&gt;Node22 -->
<g id="edge23" class="edge">
<title>Node12&#45;&gt;Node22</title>
<path fill="none" stroke="midnightblue" d="M481.28,-443.65C463.99,-456.14 438.35,-473.4 414,-485 406.48,-488.58 398.11,-491.74 390.11,-494.41"/>
<polygon fill="midnightblue" stroke="midnightblue" points="483.51,-446.35 489.5,-437.61 479.37,-440.71 483.51,-446.35"/>
</g>
<!-- Node23 -->
<g id="node23" class="node">
<title>Node23</title>
<g id="a_node23"><a xlink:href="../../da/d35/class_ex_fat_volume.html#a58061d05f5dc5a52706cdd61a1a86e80" target="_top" xlink:title=" ">
<polygon fill="white" stroke="black" points="298,-456.5 298,-475.5 411,-475.5 411,-456.5 298,-456.5"/>
<text text-anchor="middle" x="354.5" y="-463.5" font-family="Helvetica,sans-Serif" font-size="10.00">ExFatVolume::remove</text>
</a>
</g>
</g>
<!-- Node12&#45;&gt;Node23 -->
<g id="edge24" class="edge">
<title>Node12&#45;&gt;Node23</title>
<path fill="none" stroke="midnightblue" d="M455.3,-440.11C434.9,-445.4 411.32,-451.52 392.2,-456.48"/>
<polygon fill="midnightblue" stroke="midnightblue" points="456.23,-443.49 465.03,-437.59 454.47,-436.71 456.23,-443.49"/>
</g>
<!-- Node25 -->
<g id="node25" class="node">
<title>Node25</title>
<g id="a_node25"><a xlink:href="../../da/d35/class_ex_fat_volume.html#a8dcd1b108167803a24f7314f5fce6bc4" target="_top" xlink:title=" ">
<polygon fill="white" stroke="black" points="297.5,-418.5 297.5,-437.5 411.5,-437.5 411.5,-418.5 297.5,-418.5"/>
<text text-anchor="middle" x="354.5" y="-425.5" font-family="Helvetica,sans-Serif" font-size="10.00">ExFatVolume::rename</text>
</a>
</g>
</g>
<!-- Node12&#45;&gt;Node25 -->
<g id="edge26" class="edge">
<title>Node12&#45;&gt;Node25</title>
<path fill="none" stroke="midnightblue" d="M449.54,-428C437.26,-428 424.13,-428 411.69,-428"/>
<polygon fill="midnightblue" stroke="midnightblue" points="449.63,-431.5 459.63,-428 449.63,-424.5 449.63,-431.5"/>
</g>
<!-- Node27 -->
<g id="node27" class="node">
<title>Node27</title>
<g id="a_node27"><a xlink:href="../../d5/d14/class_ex_fat_file.html#aea570a3b6afbe633d874803b137a46b8" target="_top" xlink:title=" ">
<polygon fill="white" stroke="black" points="306,-380.5 306,-399.5 403,-399.5 403,-380.5 306,-380.5"/>
<text text-anchor="middle" x="354.5" y="-387.5" font-family="Helvetica,sans-Serif" font-size="10.00">ExFatFile::rename</text>
</a>
</g>
</g>
<!-- Node12&#45;&gt;Node27 -->
<g id="edge28" class="edge">
<title>Node12&#45;&gt;Node27</title>
<path fill="none" stroke="midnightblue" d="M455.3,-415.89C434.9,-410.6 411.32,-404.48 392.2,-399.52"/>
<polygon fill="midnightblue" stroke="midnightblue" points="454.47,-419.29 465.03,-418.41 456.23,-412.51 454.47,-419.29"/>
</g>
<!-- Node28 -->
<g id="node28" class="node">
<title>Node28</title>
<g id="a_node28"><a xlink:href="../../da/d35/class_ex_fat_volume.html#ab9e3e7d9538c905ca60b834e244943ee" target="_top" xlink:title=" ">
<polygon fill="white" stroke="black" points="302.5,-342.5 302.5,-361.5 406.5,-361.5 406.5,-342.5 302.5,-342.5"/>
<text text-anchor="middle" x="354.5" y="-349.5" font-family="Helvetica,sans-Serif" font-size="10.00">ExFatVolume::rmdir</text>
</a>
</g>
</g>
<!-- Node12&#45;&gt;Node28 -->
<g id="edge29" class="edge">
<title>Node12&#45;&gt;Node28</title>
<path fill="none" stroke="midnightblue" d="M481.28,-412.35C463.99,-399.86 438.35,-382.6 414,-371 406.48,-367.42 398.11,-364.26 390.11,-361.59"/>
<polygon fill="midnightblue" stroke="midnightblue" points="479.37,-415.29 489.5,-418.39 483.51,-409.65 479.37,-415.29"/>
</g>
<!-- Node30 -->
<g id="node30" class="node">
<title>Node30</title>
<g id="a_node30"><a xlink:href="../../da/d35/class_ex_fat_volume.html#ae5cbcdd7907a882b4686cb3ba7e85bcc" target="_top" xlink:title=" ">
<polygon fill="white" stroke="black" points="296,-304.5 296,-323.5 413,-323.5 413,-304.5 296,-304.5"/>
<text text-anchor="middle" x="354.5" y="-311.5" font-family="Helvetica,sans-Serif" font-size="10.00">ExFatVolume::truncate</text>
</a>
</g>
</g>
<!-- Node12&#45;&gt;Node30 -->
<g id="edge31" class="edge">
<title>Node12&#45;&gt;Node30</title>
<path fill="none" stroke="midnightblue" d="M489.74,-409.96C474.4,-388.67 446.17,-353.57 414,-333 408.06,-329.2 401.3,-326.1 394.53,-323.59"/>
<polygon fill="midnightblue" stroke="midnightblue" points="487.07,-412.24 495.68,-418.41 492.8,-408.22 487.07,-412.24"/>
</g>
<!-- Node14 -->
<g id="node14" class="node">
<title>Node14</title>
<g id="a_node14"><a xlink:href="../../d7/d76/class_fs_base_file.html#a76aea9766ffeae5454381a0704e62505" target="_top" xlink:title=" ">
<polygon fill="white" stroke="black" points="151.5,-266.5 151.5,-285.5 249.5,-285.5 249.5,-266.5 151.5,-266.5"/>
<text text-anchor="middle" x="200.5" y="-273.5" font-family="Helvetica,sans-Serif" font-size="10.00">FsBaseFile::exists</text>
</a>
</g>
</g>
<!-- Node13&#45;&gt;Node14 -->
<g id="edge14" class="edge">
<title>Node13&#45;&gt;Node14</title>
<path fill="none" stroke="midnightblue" d="M298.45,-276C282.49,-276 265.18,-276 249.67,-276"/>
<polygon fill="midnightblue" stroke="midnightblue" points="298.72,-279.5 308.72,-276 298.72,-272.5 298.72,-279.5"/>
</g>
<!-- Node16 -->
<g id="node16" class="node">
<title>Node16</title>
<g id="a_node16"><a xlink:href="../../da/d35/class_ex_fat_volume.html#af705d3a2434d64efebaa5b3615131dc5" target="_top" xlink:title=" ">
<polygon fill="white" stroke="black" points="146.5,-228.5 146.5,-247.5 254.5,-247.5 254.5,-228.5 146.5,-228.5"/>
<text text-anchor="middle" x="200.5" y="-235.5" font-family="Helvetica,sans-Serif" font-size="10.00">ExFatVolume::exists</text>
</a>
</g>
</g>
<!-- Node15&#45;&gt;Node16 -->
<g id="edge16" class="edge">
<title>Node15&#45;&gt;Node16</title>
<path fill="none" stroke="midnightblue" d="M290.1,-238C278.3,-238 266.09,-238 254.63,-238"/>
<polygon fill="midnightblue" stroke="midnightblue" points="290.34,-241.5 300.34,-238 290.34,-234.5 290.34,-241.5"/>
</g>
<!-- Node20 -->
<g id="node20" class="node">
<title>Node20</title>
<g id="a_node20"><a xlink:href="../../da/d35/class_ex_fat_volume.html#a29b670f7086e74ad5c50ecdad2e72d5b" target="_top" xlink:title=" ">
<polygon fill="white" stroke="black" points="149,-570.5 149,-589.5 252,-589.5 252,-570.5 149,-570.5"/>
<text text-anchor="middle" x="200.5" y="-577.5" font-family="Helvetica,sans-Serif" font-size="10.00">ExFatVolume::open</text>
</a>
</g>
</g>
<!-- Node19&#45;&gt;Node20 -->
<g id="edge21" class="edge">
<title>Node19&#45;&gt;Node20</title>
<path fill="none" stroke="midnightblue" d="M292.75,-580C279.29,-580 265.16,-580 252.15,-580"/>
<polygon fill="midnightblue" stroke="midnightblue" points="292.89,-583.5 302.89,-580 292.89,-576.5 292.89,-583.5"/>
</g>
<!-- Node24 -->
<g id="node24" class="node">
<title>Node24</title>
<g id="a_node24"><a xlink:href="../../da/d35/class_ex_fat_volume.html#adc22ad4ce966654944b18d31fc6ac5ee" target="_top" xlink:title=" ">
<polygon fill="white" stroke="black" points="144,-456.5 144,-475.5 257,-475.5 257,-456.5 144,-456.5"/>
<text text-anchor="middle" x="200.5" y="-463.5" font-family="Helvetica,sans-Serif" font-size="10.00">ExFatVolume::remove</text>
</a>
</g>
</g>
<!-- Node23&#45;&gt;Node24 -->
<g id="edge25" class="edge">
<title>Node23&#45;&gt;Node24</title>
<path fill="none" stroke="midnightblue" d="M287.71,-466C277.55,-466 267.14,-466 257.23,-466"/>
<polygon fill="midnightblue" stroke="midnightblue" points="287.76,-469.5 297.76,-466 287.76,-462.5 287.76,-469.5"/>
</g>
<!-- Node26 -->
<g id="node26" class="node">
<title>Node26</title>
<g id="a_node26"><a xlink:href="../../da/d35/class_ex_fat_volume.html#a1396c06f6c5e138889125d2f62cdbdcb" target="_top" xlink:title=" ">
<polygon fill="white" stroke="black" points="143.5,-418.5 143.5,-437.5 257.5,-437.5 257.5,-418.5 143.5,-418.5"/>
<text text-anchor="middle" x="200.5" y="-425.5" font-family="Helvetica,sans-Serif" font-size="10.00">ExFatVolume::rename</text>
</a>
</g>
</g>
<!-- Node25&#45;&gt;Node26 -->
<g id="edge27" class="edge">
<title>Node25&#45;&gt;Node26</title>
<path fill="none" stroke="midnightblue" d="M287.19,-428C277.35,-428 267.29,-428 257.69,-428"/>
<polygon fill="midnightblue" stroke="midnightblue" points="287.33,-431.5 297.33,-428 287.33,-424.5 287.33,-431.5"/>
</g>
<!-- Node29 -->
<g id="node29" class="node">
<title>Node29</title>
<g id="a_node29"><a xlink:href="../../da/d35/class_ex_fat_volume.html#af0adfad817e085d676479fefbb343197" target="_top" xlink:title=" ">
<polygon fill="white" stroke="black" points="148.5,-342.5 148.5,-361.5 252.5,-361.5 252.5,-342.5 148.5,-342.5"/>
<text text-anchor="middle" x="200.5" y="-349.5" font-family="Helvetica,sans-Serif" font-size="10.00">ExFatVolume::rmdir</text>
</a>
</g>
</g>
<!-- Node28&#45;&gt;Node29 -->
<g id="edge30" class="edge">
<title>Node28&#45;&gt;Node29</title>
<path fill="none" stroke="midnightblue" d="M292.12,-352C279.02,-352 265.33,-352 252.66,-352"/>
<polygon fill="midnightblue" stroke="midnightblue" points="292.46,-355.5 302.46,-352 292.46,-348.5 292.46,-355.5"/>
</g>
<!-- Node31 -->
<g id="node31" class="node">
<title>Node31</title>
<g id="a_node31"><a xlink:href="../../da/d35/class_ex_fat_volume.html#ae6d409b7f24593dca7aae70513e18b70" target="_top" xlink:title=" ">
<polygon fill="white" stroke="black" points="142,-304.5 142,-323.5 259,-323.5 259,-304.5 142,-304.5"/>
<text text-anchor="middle" x="200.5" y="-311.5" font-family="Helvetica,sans-Serif" font-size="10.00">ExFatVolume::truncate</text>
</a>
</g>
</g>
<!-- Node30&#45;&gt;Node31 -->
<g id="edge32" class="edge">
<title>Node30&#45;&gt;Node31</title>
<path fill="none" stroke="midnightblue" d="M285.43,-314C276.68,-314 267.8,-314 259.24,-314"/>
<polygon fill="midnightblue" stroke="midnightblue" points="285.6,-317.5 295.6,-314 285.6,-310.5 285.6,-317.5"/>
</g>
<!-- Node32&#45;&gt;Node5 -->
<g id="edge34" class="edge">
<title>Node32&#45;&gt;Node5</title>
<path fill="none" stroke="midnightblue" d="M455.08,-98.17C434.18,-103.59 409.99,-109.86 390.69,-114.87"/>
<polygon fill="midnightblue" stroke="midnightblue" points="456.23,-101.49 465.03,-95.59 454.47,-94.71 456.23,-101.49"/>
</g>
<!-- Node33 -->
<g id="node33" class="node">
<title>Node33</title>
<g id="a_node33"><a xlink:href="../../d5/d14/class_ex_fat_file.html#a414b64dc30551e05dcc46f04e0f6413a" target="_top" xlink:title=" ">
<polygon fill="white" stroke="black" points="311.5,-76.5 311.5,-95.5 397.5,-95.5 397.5,-76.5 311.5,-76.5"/>
<text text-anchor="middle" x="354.5" y="-83.5" font-family="Helvetica,sans-Serif" font-size="10.00">ExFatFile::open</text>
</a>
</g>
</g>
<!-- Node32&#45;&gt;Node33 -->
<g id="edge35" class="edge">
<title>Node32&#45;&gt;Node33</title>
<path fill="none" stroke="midnightblue" d="M439.75,-86C425.59,-86 410.86,-86 397.75,-86"/>
<polygon fill="midnightblue" stroke="midnightblue" points="439.94,-89.5 449.94,-86 439.94,-82.5 439.94,-89.5"/>
</g>
<!-- Node34 -->
<g id="node34" class="node">
<title>Node34</title>
<g id="a_node34"><a xlink:href="../../d7/d76/class_fs_base_file.html#acb9b1075f4db76fa7e0521c9aff9c3df" target="_top" xlink:title=" ">
<polygon fill="white" stroke="black" points="298,-38.5 298,-57.5 411,-57.5 411,-38.5 298,-38.5"/>
<text text-anchor="middle" x="354.5" y="-45.5" font-family="Helvetica,sans-Serif" font-size="10.00">FsBaseFile::openNext</text>
</a>
</g>
</g>
<!-- Node32&#45;&gt;Node34 -->
<g id="edge36" class="edge">
<title>Node32&#45;&gt;Node34</title>
<path fill="none" stroke="midnightblue" d="M455.3,-73.89C434.9,-68.6 411.32,-62.48 392.2,-57.52"/>
<polygon fill="midnightblue" stroke="midnightblue" points="454.47,-77.29 465.03,-76.41 456.23,-70.51 454.47,-77.29"/>
</g>
<!-- Node36 -->
<g id="node36" class="node">
<title>Node36</title>
<g id="a_node36"><a xlink:href="../../db/d75/class_ex_file.html#ac33383190264a3b74434877f0ff7e6d6" target="_top" xlink:title=" ">
<polygon fill="white" stroke="black" points="301,-0.5 301,-19.5 408,-19.5 408,-0.5 301,-0.5"/>
<text text-anchor="middle" x="354.5" y="-7.5" font-family="Helvetica,sans-Serif" font-size="10.00">ExFile::openNextFile</text>
</a>
</g>
</g>
<!-- Node32&#45;&gt;Node36 -->
<g id="edge38" class="edge">
<title>Node32&#45;&gt;Node36</title>
<path fill="none" stroke="midnightblue" d="M459.37,-72.31C456.1,-70.7 452.94,-68.93 450,-67 430.56,-54.22 433.67,-41.42 414,-29 407.95,-25.18 401.06,-22.06 394.18,-19.53"/>
<polygon fill="midnightblue" stroke="midnightblue" points="458.15,-75.6 468.72,-76.45 460.98,-69.2 458.15,-75.6"/>
</g>
<!-- Node35 -->
<g id="node35" class="node">
<title>Node35</title>
<g id="a_node35"><a xlink:href="../../d4/da1/class_fs_file.html#ab2f85961e3831d0d654da862becb7433" target="_top" xlink:title=" ">
<polygon fill="white" stroke="black" points="147,-38.5 147,-57.5 254,-57.5 254,-38.5 147,-38.5"/>
<text text-anchor="middle" x="200.5" y="-45.5" font-family="Helvetica,sans-Serif" font-size="10.00">FsFile::openNextFile</text>
</a>
</g>
</g>
<!-- Node34&#45;&gt;Node35 -->
<g id="edge37" class="edge">
<title>Node34&#45;&gt;Node35</title>
<path fill="none" stroke="midnightblue" d="M287.62,-48C276.44,-48 264.97,-48 254.2,-48"/>
<polygon fill="midnightblue" stroke="midnightblue" points="287.76,-51.5 297.76,-48 287.76,-44.5 287.76,-51.5"/>
</g>
</g>
</svg>
        <g id="navigator" transform="translate(0 0)" fill="#404254">
                <rect fill="#f2f5e9" fill-opacity="0.5" stroke="#606060" stroke-width=".5" x="0" y="0" width="60" height="60"/>
                <use id="zoomplus" xlink:href="#zoomPlus" x="17" y="9" onmousedown="handleZoom(evt,'in')"/>
                <use id="zoomminus" xlink:href="#zoomMin" x="42" y="9" onmousedown="handleZoom(evt,'out')"/>
                <use id="reset" xlink:href="#resetDef" x="30" y="36" onmousedown="handleReset()"/>
                <g id="arrowUp" xlink:href="#dirArrow" transform="translate(30 24)" onmousedown="handlePan(0,-1)">
                  <use xlink:href="#rim" fill="#404040">
                        <set attributeName="fill" to="#808080" begin="arrowUp.mouseover" end="arrowUp.mouseout"/>
                  </use>
                  <path fill="none" stroke="white" stroke-width="1.5" d="M0,-3.0v7 M-2.5,-0.5L0,-3.0L2.5,-0.5"/>
                </g>
                <g id="arrowRight" xlink:href="#dirArrow" transform="rotate(90) translate(36 -43)" onmousedown="handlePan(1,0)">
                  <use xlink:href="#rim" fill="#404040">
                        <set attributeName="fill" to="#808080" begin="arrowRight.mouseover" end="arrowRight.mouseout"/>
                  </use>
                  <path fill="none" stroke="white" stroke-width="1.5" d="M0,-3.0v7 M-2.5,-0.5L0,-3.0L2.5,-0.5"/>
                </g>
                <g id="arrowDown" xlink:href="#dirArrow" transform="rotate(180) translate(-30 -48)" onmousedown="handlePan(0,1)">
                  <use xlink:href="#rim" fill="#404040">
                        <set attributeName="fill" to="#808080" begin="arrowDown.mouseover" end="arrowDown.mouseout"/>
                  </use>
                  <path fill="none" stroke="white" stroke-width="1.5" d="M0,-3.0v7 M-2.5,-0.5L0,-3.0L2.5,-0.5"/>
                </g>
                <g id="arrowLeft" xlink:href="#dirArrow" transform="rotate(270) translate(-36 17)" onmousedown="handlePan(-1,0)">
                  <use xlink:href="#rim" fill="#404040">
                        <set attributeName="fill" to="#808080" begin="arrowLeft.mouseover" end="arrowLeft.mouseout"/>
                  </use>
                  <path fill="none" stroke="white" stroke-width="1.5" d="M0,-3.0v7 M-2.5,-0.5L0,-3.0L2.5,-0.5"/>
                </g>
        </g>
        <svg viewBox="0 0 15 15" width="100%" height="30px" preserveAspectRatio="xMaxYMin meet">
         <g id="arrow_out" transform="scale(0.3 0.3)">
          <a xlink:href="class_ex_fat_file_ad0a3687bd95bed5b216651335e66b500_icgraph_org.svg" target="_base">
           <rect id="button" ry="5" rx="5" y="6" x="6" height="38" width="38"
                fill="#f2f5e9" fill-opacity="0.5" stroke="#606060" stroke-width="1.0"/>
           <path id="arrow"
             d="M 11.500037,31.436501 C 11.940474,20.09759 22.043105,11.32322 32.158766,21.979434 L 37.068811,17.246167 C 37.068811,17.246167 37.088388,32 37.088388,32 L 22.160133,31.978069 C 22.160133,31.978069 26.997745,27.140456 26.997745,27.140456 C 18.528582,18.264221 13.291696,25.230495 11.500037,31.436501 z"
             style="fill:#404040;"/>
          </a>
         </g>
        </svg>
</svg>
