<?xml version="1.0" encoding="UTF-8" standalone="no"?>
<!DOCTYPE svg PUBLIC "-//W3C//DTD SVG 1.1//EN"
 "http://www.w3.org/Graphics/SVG/1.1/DTD/svg11.dtd">
<!-- Generated by graphviz version 2.47.3 (20210619.1520)
 -->
<!-- Title: ExFatFile::peek Pages: 1 -->
<svg width="274pt" height="110pt"
 viewBox="0.00 0.00 274.00 110.00" xmlns="http://www.w3.org/2000/svg" xmlns:xlink="http://www.w3.org/1999/xlink">
<g id="graph0" class="graph" transform="scale(1 1) rotate(0) translate(4 106)">
<title>ExFatFile::peek</title>
<polygon fill="white" stroke="transparent" points="-4,4 -4,-106 270,-106 270,4 -4,4"/>
<!-- Node1 -->
<g id="node1" class="node">
<title>Node1</title>
<g id="a_node1"><a xlink:title=" ">
<polygon fill="#bfbfbf" stroke="black" points="0,-40.5 0,-61.5 99,-61.5 99,-40.5 0,-40.5"/>
<text text-anchor="middle" x="49.5" y="-47.9" font-family="Helvetica,sans-Serif" font-size="12.00">ExFatFile::peek</text>
</a>
</g>
</g>
<!-- Node2 -->
<g id="node2" class="node">
<title>Node2</title>
<g id="a_node2"><a xlink:href="../../d5/d14/class_ex_fat_file.html#a2b43d98cc3c98c1024371a423d19dda3" target="_top" xlink:title=" ">
<polygon fill="white" stroke="black" points="138,-80.5 138,-101.5 263,-101.5 263,-80.5 138,-80.5"/>
<text text-anchor="middle" x="200.5" y="-87.9" font-family="Helvetica,sans-Serif" font-size="12.00">ExFatFile::curCluster</text>
</a>
</g>
</g>
<!-- Node1&#45;&gt;Node2 -->
<g id="edge1" class="edge">
<title>Node1&#45;&gt;Node2</title>
<path fill="none" stroke="midnightblue" d="M89.65,-61.51C108.31,-66.52 130.82,-72.56 150.6,-77.87"/>
<polygon fill="midnightblue" stroke="midnightblue" points="149.79,-81.28 160.36,-80.49 151.6,-74.52 149.79,-81.28"/>
</g>
<!-- Node3 -->
<g id="node3" class="node">
<title>Node3</title>
<g id="a_node3"><a xlink:href="../../d5/d14/class_ex_fat_file.html#ab49396aad3f6500aa19f75490dc26719" target="_top" xlink:title=" ">
<polygon fill="white" stroke="black" points="135,-40.5 135,-61.5 266,-61.5 266,-40.5 135,-40.5"/>
<text text-anchor="middle" x="200.5" y="-47.9" font-family="Helvetica,sans-Serif" font-size="12.00">ExFatFile::curPosition</text>
</a>
</g>
</g>
<!-- Node1&#45;&gt;Node3 -->
<g id="edge2" class="edge">
<title>Node1&#45;&gt;Node3</title>
<path fill="none" stroke="midnightblue" d="M99.29,-51C107.46,-51 116.11,-51 124.76,-51"/>
<polygon fill="midnightblue" stroke="midnightblue" points="124.88,-54.5 134.88,-51 124.88,-47.5 124.88,-54.5"/>
</g>
<!-- Node4 -->
<g id="node4" class="node">
<title>Node4</title>
<g id="a_node4"><a xlink:href="../../d5/d14/class_ex_fat_file.html#a77f4fea0aae0c8bae926fdfbba260a55" target="_top" xlink:title=" ">
<polygon fill="white" stroke="black" points="152,-0.5 152,-21.5 249,-21.5 249,-0.5 152,-0.5"/>
<text text-anchor="middle" x="200.5" y="-7.9" font-family="Helvetica,sans-Serif" font-size="12.00">ExFatFile::read</text>
</a>
</g>
</g>
<!-- Node1&#45;&gt;Node4 -->
<g id="edge3" class="edge">
<title>Node1&#45;&gt;Node4</title>
<path fill="none" stroke="midnightblue" d="M89.65,-40.49C108.31,-35.48 130.82,-29.44 150.6,-24.13"/>
<polygon fill="midnightblue" stroke="midnightblue" points="151.6,-27.48 160.36,-21.51 149.79,-20.72 151.6,-27.48"/>
</g>
</g>
</svg>
