<?xml version="1.0" encoding="UTF-8" standalone="no"?>
<!DOCTYPE svg PUBLIC "-//W3C//DTD SVG 1.1//EN"
 "http://www.w3.org/Graphics/SVG/1.1/DTD/svg11.dtd">
<!-- Generated by graphviz version 2.47.3 (20210619.1520)
 -->
<!-- Title: ExFatFile::truncate Pages: 1 -->
<svg width="1374pt" height="528pt"
 viewBox="0.00 0.00 1374.00 527.57" xmlns="http://www.w3.org/2000/svg" xmlns:xlink="http://www.w3.org/1999/xlink">
<g id="graph0" class="graph" transform="scale(1 1) rotate(0) translate(4 523.57)">
<title>ExFatFile::truncate</title>
<polygon fill="white" stroke="transparent" points="-4,4 -4,-523.57 1370,-523.57 1370,4 -4,4"/>
<!-- Node1 -->
<g id="node1" class="node">
<title>Node1</title>
<g id="a_node1"><a xlink:title=" ">
<polygon fill="#bfbfbf" stroke="black" points="0,-350.5 0,-371.5 114,-371.5 114,-350.5 0,-350.5"/>
<text text-anchor="middle" x="57" y="-357.9" font-family="Helvetica,sans-Serif" font-size="12.00">ExFatFile::truncate</text>
</a>
</g>
</g>
<!-- Node2 -->
<g id="node2" class="node">
<title>Node2</title>
<g id="a_node2"><a xlink:href="../../d4/de9/class_ex_fat_partition.html#a19a01c982116361a61079865e28ccabc" target="_top" xlink:title=" ">
<polygon fill="white" stroke="black" points="334,-487.5 334,-508.5 501,-508.5 501,-487.5 334,-487.5"/>
<text text-anchor="middle" x="417.5" y="-494.9" font-family="Helvetica,sans-Serif" font-size="12.00">ExFatPartition::bitmapModify</text>
</a>
</g>
</g>
<!-- Node1&#45;&gt;Node2 -->
<g id="edge1" class="edge">
<title>Node1&#45;&gt;Node2</title>
<path fill="none" stroke="midnightblue" d="M61.62,-371.8C71.16,-398.27 99.73,-466.16 150,-493 216.67,-528.6 306.75,-520.81 363.23,-510.5"/>
<polygon fill="midnightblue" stroke="midnightblue" points="364.21,-513.88 373.37,-508.56 362.89,-507 364.21,-513.88"/>
</g>
<!-- Node31 -->
<g id="node6" class="node">
<title>Node31</title>
<g id="a_node6"><a xlink:href="../../d4/de9/class_ex_fat_partition.html#aedaebff39e7cbae66f226e9c7593b5b6" target="_top" xlink:title=" ">
<polygon fill="white" stroke="black" points="152.5,-449 152.5,-483 295.5,-483 295.5,-449 152.5,-449"/>
<text text-anchor="start" x="160.5" y="-469.4" font-family="Helvetica,sans-Serif" font-size="12.00">ExFatPartition::bytesPer</text>
<text text-anchor="middle" x="224" y="-456.4" font-family="Helvetica,sans-Serif" font-size="12.00">ClusterShift</text>
</a>
</g>
</g>
<!-- Node1&#45;&gt;Node31 -->
<g id="edge5" class="edge">
<title>Node1&#45;&gt;Node31</title>
<path fill="none" stroke="midnightblue" d="M69.48,-371.73C86.21,-386.99 118.73,-415.17 150,-434 156.19,-437.73 162.9,-441.27 169.65,-444.54"/>
<polygon fill="midnightblue" stroke="midnightblue" points="168.3,-447.77 178.84,-448.83 171.26,-441.43 168.3,-447.77"/>
</g>
<!-- Node32 -->
<g id="node7" class="node">
<title>Node32</title>
<g id="a_node7"><a xlink:href="../../d4/de9/class_ex_fat_partition.html#a0ab58594882246621e1601aafc6190fb" target="_top" xlink:title=" ">
<polygon fill="white" stroke="black" points="353.5,-410.5 353.5,-431.5 481.5,-431.5 481.5,-410.5 353.5,-410.5"/>
<text text-anchor="middle" x="417.5" y="-417.9" font-family="Helvetica,sans-Serif" font-size="12.00">ExFatPartition::fatGet</text>
</a>
</g>
</g>
<!-- Node1&#45;&gt;Node32 -->
<g id="edge6" class="edge">
<title>Node1&#45;&gt;Node32</title>
<path fill="none" stroke="midnightblue" d="M77.07,-371.56C95.23,-381.05 123.63,-394.48 150,-401 214,-416.83 289.05,-421.25 343.18,-422.05"/>
<polygon fill="midnightblue" stroke="midnightblue" points="343.34,-425.55 353.37,-422.16 343.41,-418.55 343.34,-425.55"/>
</g>
<!-- Node35 -->
<g id="node10" class="node">
<title>Node35</title>
<g id="a_node10"><a xlink:href="../../d4/de9/class_ex_fat_partition.html#ad342fd89d83c53623723b77b4bf0c2c4" target="_top" xlink:title=" ">
<polygon fill="white" stroke="black" points="354,-352.5 354,-373.5 481,-373.5 481,-352.5 354,-352.5"/>
<text text-anchor="middle" x="417.5" y="-359.9" font-family="Helvetica,sans-Serif" font-size="12.00">ExFatPartition::fatPut</text>
</a>
</g>
</g>
<!-- Node1&#45;&gt;Node35 -->
<g id="edge10" class="edge">
<title>Node1&#45;&gt;Node35</title>
<path fill="none" stroke="midnightblue" d="M114.25,-360.73C162.89,-360.56 235.09,-360.47 298,-361 312.71,-361.12 328.45,-361.33 343.49,-361.57"/>
<polygon fill="midnightblue" stroke="midnightblue" points="343.72,-365.08 353.77,-361.74 343.83,-358.08 343.72,-365.08"/>
</g>
<!-- Node37 -->
<g id="node12" class="node">
<title>Node37</title>
<g id="a_node12"><a xlink:href="../../d4/de9/class_ex_fat_partition.html#a6c700044f654d6f519646ba7e93d9252" target="_top" xlink:title=" ">
<polygon fill="white" stroke="black" points="150,-370.5 150,-391.5 298,-391.5 298,-370.5 150,-370.5"/>
<text text-anchor="middle" x="224" y="-377.9" font-family="Helvetica,sans-Serif" font-size="12.00">ExFatPartition::freeChain</text>
</a>
</g>
</g>
<!-- Node1&#45;&gt;Node37 -->
<g id="edge13" class="edge">
<title>Node1&#45;&gt;Node37</title>
<path fill="none" stroke="midnightblue" d="M114.32,-367.83C122.51,-368.82 131.08,-369.86 139.66,-370.9"/>
<polygon fill="midnightblue" stroke="midnightblue" points="139.37,-374.39 149.72,-372.12 140.21,-367.44 139.37,-374.39"/>
</g>
<!-- Node38 -->
<g id="node13" class="node">
<title>Node38</title>
<g id="a_node13"><a xlink:href="../../d5/d14/class_ex_fat_file.html#a7a167102bd47b7cf91167b69f8cc57d1" target="_top" xlink:title=" ">
<polygon fill="white" stroke="black" points="544,-292.5 544,-313.5 685,-313.5 685,-292.5 544,-292.5"/>
<text text-anchor="middle" x="614.5" y="-299.9" font-family="Helvetica,sans-Serif" font-size="12.00">ExFatFile::isContiguous</text>
</a>
</g>
</g>
<!-- Node1&#45;&gt;Node38 -->
<g id="edge17" class="edge">
<title>Node1&#45;&gt;Node38</title>
<path fill="none" stroke="midnightblue" d="M114.06,-355.15C213.27,-344.79 420.01,-323.2 533.93,-311.31"/>
<polygon fill="midnightblue" stroke="midnightblue" points="534.4,-314.78 543.98,-310.26 533.67,-307.82 534.4,-314.78"/>
</g>
<!-- Node39 -->
<g id="node14" class="node">
<title>Node39</title>
<g id="a_node14"><a xlink:href="../../d5/d14/class_ex_fat_file.html#a04d1c43e80743f8c1a51b64062ce16dd" target="_top" xlink:title=" ">
<polygon fill="white" stroke="black" points="161.5,-254.5 161.5,-275.5 286.5,-275.5 286.5,-254.5 161.5,-254.5"/>
<text text-anchor="middle" x="224" y="-261.9" font-family="Helvetica,sans-Serif" font-size="12.00">ExFatFile::isWritable</text>
</a>
</g>
</g>
<!-- Node1&#45;&gt;Node39 -->
<g id="edge18" class="edge">
<title>Node1&#45;&gt;Node39</title>
<path fill="none" stroke="midnightblue" d="M69.05,-350.49C85.53,-335.32 118.02,-307.21 150,-290 157.8,-285.8 166.44,-282.11 174.97,-278.93"/>
<polygon fill="midnightblue" stroke="midnightblue" points="176.23,-282.2 184.49,-275.57 173.9,-275.6 176.23,-282.2"/>
</g>
<!-- Node40 -->
<g id="node15" class="node">
<title>Node40</title>
<g id="a_node15"><a xlink:href="../../d5/d14/class_ex_fat_file.html#a2cb3638069afd2d01b79e5dff1a66f55" target="_top" xlink:title=" ">
<polygon fill="white" stroke="black" points="176,-185.5 176,-206.5 272,-206.5 272,-185.5 176,-185.5"/>
<text text-anchor="middle" x="224" y="-192.9" font-family="Helvetica,sans-Serif" font-size="12.00">ExFatFile::sync</text>
</a>
</g>
</g>
<!-- Node1&#45;&gt;Node40 -->
<g id="edge19" class="edge">
<title>Node1&#45;&gt;Node40</title>
<path fill="none" stroke="midnightblue" d="M64.91,-350.17C79.07,-328.51 113.18,-279.01 150,-245 163.61,-232.43 180.73,-220.76 194.97,-211.96"/>
<polygon fill="midnightblue" stroke="midnightblue" points="197.08,-214.78 203.85,-206.62 193.47,-208.78 197.08,-214.78"/>
</g>
<!-- Node3 -->
<g id="node3" class="node">
<title>Node3</title>
<g id="a_node3"><a xlink:href="../../d4/de9/class_ex_fat_partition.html#af6a074aca1ec6fca48ce17216832f829" target="_top" xlink:title=" ">
<polygon fill="white" stroke="black" points="921,-449 921,-483 1088,-483 1088,-449 921,-449"/>
<text text-anchor="start" x="929" y="-469.4" font-family="Helvetica,sans-Serif" font-size="12.00">ExFatPartition::bitmapCache</text>
<text text-anchor="middle" x="1004.5" y="-456.4" font-family="Helvetica,sans-Serif" font-size="12.00">Prepare</text>
</a>
</g>
</g>
<!-- Node2&#45;&gt;Node3 -->
<g id="edge2" class="edge">
<title>Node2&#45;&gt;Node3</title>
<path fill="none" stroke="midnightblue" d="M501.1,-494.15C594.36,-489.71 750.62,-481.99 885,-474 893.36,-473.5 902.05,-472.96 910.75,-472.4"/>
<polygon fill="midnightblue" stroke="midnightblue" points="911.2,-475.88 920.96,-471.74 910.75,-468.9 911.2,-475.88"/>
</g>
<!-- Node4 -->
<g id="node4" class="node">
<title>Node4</title>
<g id="a_node4"><a xlink:href="../../d3/d77/class_fs_cache.html#a8c11f064a2ce0a380f522392f09d63cb" target="_top" xlink:title=" ">
<polygon fill="white" stroke="red" points="1124,-371.5 1124,-392.5 1236,-392.5 1236,-371.5 1124,-371.5"/>
<text text-anchor="middle" x="1180" y="-378.9" font-family="Helvetica,sans-Serif" font-size="12.00">FsCache::prepare</text>
</a>
</g>
</g>
<!-- Node3&#45;&gt;Node4 -->
<g id="edge3" class="edge">
<title>Node3&#45;&gt;Node4</title>
<path fill="none" stroke="midnightblue" d="M1041.03,-448.8C1072.52,-433.55 1118.04,-411.52 1148.06,-396.98"/>
<polygon fill="midnightblue" stroke="midnightblue" points="1149.75,-400.05 1157.22,-392.54 1146.7,-393.75 1149.75,-400.05"/>
</g>
<!-- Node28 -->
<g id="node5" class="node">
<title>Node28</title>
<g id="a_node5"><a xlink:href="../../d3/d77/class_fs_cache.html#a5a2c8fb432d7b7590ebb43200ca21893" target="_top" xlink:title=" ">
<polygon fill="white" stroke="red" points="1272,-185.5 1272,-206.5 1366,-206.5 1366,-185.5 1272,-185.5"/>
<text text-anchor="middle" x="1319" y="-192.9" font-family="Helvetica,sans-Serif" font-size="12.00">FsCache::sync</text>
</a>
</g>
</g>
<!-- Node4&#45;&gt;Node28 -->
<g id="edge4" class="edge">
<title>Node4&#45;&gt;Node28</title>
<path fill="none" stroke="midnightblue" d="M1188.76,-371.47C1210.98,-341.3 1275.09,-254.25 1303.8,-215.27"/>
<polygon fill="midnightblue" stroke="midnightblue" points="1306.87,-217.01 1309.99,-206.88 1301.24,-212.86 1306.87,-217.01"/>
</g>
<!-- Node33 -->
<g id="node8" class="node">
<title>Node33</title>
<g id="a_node8"><a xlink:href="../../d4/de9/class_ex_fat_partition.html#a119f5be5695880d2a16f1c0b3c3ff369" target="_top" xlink:title=" ">
<polygon fill="white" stroke="black" points="927,-365 927,-399 1082,-399 1082,-365 927,-365"/>
<text text-anchor="start" x="935" y="-385.4" font-family="Helvetica,sans-Serif" font-size="12.00">ExFatPartition::dataCache</text>
<text text-anchor="middle" x="1004.5" y="-372.4" font-family="Helvetica,sans-Serif" font-size="12.00">Prepare</text>
</a>
</g>
</g>
<!-- Node32&#45;&gt;Node33 -->
<g id="edge7" class="edge">
<title>Node32&#45;&gt;Node33</title>
<path fill="none" stroke="midnightblue" d="M469.59,-431.54C490.4,-435.34 514.75,-439.14 537,-441 605.65,-446.75 623.41,-447.44 692,-441 771.85,-433.5 861.71,-415.43 924.32,-401.24"/>
<polygon fill="midnightblue" stroke="midnightblue" points="925.16,-404.64 934.13,-399 923.6,-397.82 925.16,-404.64"/>
</g>
<!-- Node34 -->
<g id="node9" class="node">
<title>Node34</title>
<g id="a_node9"><a xlink:href="../../d1/db3/_fs_structs_8h.html#a07fdcae728ab56cd53f71c6c17b1889c" target="_top" xlink:title=" ">
<polygon fill="white" stroke="black" points="584.5,-410.5 584.5,-431.5 644.5,-431.5 644.5,-410.5 584.5,-410.5"/>
<text text-anchor="middle" x="614.5" y="-417.9" font-family="Helvetica,sans-Serif" font-size="12.00">getLe32</text>
</a>
</g>
</g>
<!-- Node32&#45;&gt;Node34 -->
<g id="edge9" class="edge">
<title>Node32&#45;&gt;Node34</title>
<path fill="none" stroke="midnightblue" d="M481.54,-421C512.09,-421 547.82,-421 574.39,-421"/>
<polygon fill="midnightblue" stroke="midnightblue" points="574.46,-424.5 584.46,-421 574.46,-417.5 574.46,-424.5"/>
</g>
<!-- Node33&#45;&gt;Node4 -->
<g id="edge8" class="edge">
<title>Node33&#45;&gt;Node4</title>
<path fill="none" stroke="midnightblue" d="M1082.1,-382C1092.66,-382 1103.41,-382 1113.74,-382"/>
<polygon fill="midnightblue" stroke="midnightblue" points="1113.89,-385.5 1123.89,-382 1113.89,-378.5 1113.89,-385.5"/>
</g>
<!-- Node35&#45;&gt;Node33 -->
<g id="edge11" class="edge">
<title>Node35&#45;&gt;Node33</title>
<path fill="none" stroke="midnightblue" d="M481.11,-365.03C585.93,-368.44 797.17,-375.3 916.42,-379.17"/>
<polygon fill="midnightblue" stroke="midnightblue" points="916.5,-382.68 926.61,-379.5 916.73,-375.68 916.5,-382.68"/>
</g>
<!-- Node36 -->
<g id="node11" class="node">
<title>Node36</title>
<g id="a_node11"><a xlink:href="../../d1/db3/_fs_structs_8h.html#a294114e9924b0436c1d110e692bef464" target="_top" xlink:title=" ">
<polygon fill="white" stroke="black" points="585,-332.5 585,-353.5 644,-353.5 644,-332.5 585,-332.5"/>
<text text-anchor="middle" x="614.5" y="-339.9" font-family="Helvetica,sans-Serif" font-size="12.00">setLe32</text>
</a>
</g>
</g>
<!-- Node35&#45;&gt;Node36 -->
<g id="edge12" class="edge">
<title>Node35&#45;&gt;Node36</title>
<path fill="none" stroke="midnightblue" d="M481,-356.59C511.79,-353.43 547.93,-349.72 574.69,-346.98"/>
<polygon fill="midnightblue" stroke="midnightblue" points="575.22,-350.44 584.81,-345.94 574.51,-343.48 575.22,-350.44"/>
</g>
<!-- Node37&#45;&gt;Node2 -->
<g id="edge14" class="edge">
<title>Node37&#45;&gt;Node2</title>
<path fill="none" stroke="midnightblue" d="M242.33,-391.59C276.07,-412.2 350.74,-457.82 390.46,-482.09"/>
<polygon fill="midnightblue" stroke="midnightblue" points="388.71,-485.12 399.07,-487.35 392.36,-479.15 388.71,-485.12"/>
</g>
<!-- Node37&#45;&gt;Node32 -->
<g id="edge15" class="edge">
<title>Node37&#45;&gt;Node32</title>
<path fill="none" stroke="midnightblue" d="M275.31,-391.51C300.07,-396.68 330.09,-402.95 356.08,-408.38"/>
<polygon fill="midnightblue" stroke="midnightblue" points="355.69,-411.87 366.19,-410.49 357.12,-405.02 355.69,-411.87"/>
</g>
<!-- Node37&#45;&gt;Node35 -->
<g id="edge16" class="edge">
<title>Node37&#45;&gt;Node35</title>
<path fill="none" stroke="midnightblue" d="M298.22,-374.12C313.15,-372.71 328.85,-371.24 343.76,-369.84"/>
<polygon fill="midnightblue" stroke="midnightblue" points="344.31,-373.3 353.94,-368.88 343.65,-366.33 344.31,-373.3"/>
</g>
<!-- Node41 -->
<g id="node16" class="node">
<title>Node41</title>
<g id="a_node16"><a xlink:href="../../d4/de9/class_ex_fat_partition.html#aee39febe9dcca2566535c7ef540c4928" target="_top" xlink:title=" ">
<polygon fill="white" stroke="black" points="537.5,-0.5 537.5,-21.5 691.5,-21.5 691.5,-0.5 537.5,-0.5"/>
<text text-anchor="middle" x="614.5" y="-7.9" font-family="Helvetica,sans-Serif" font-size="12.00">ExFatPartition::cacheSync</text>
</a>
</g>
</g>
<!-- Node40&#45;&gt;Node41 -->
<g id="edge20" class="edge">
<title>Node40&#45;&gt;Node41</title>
<path fill="none" stroke="midnightblue" d="M241.59,-185.44C287.12,-156.87 418.51,-77.11 537,-31 543.19,-28.59 549.77,-26.38 556.37,-24.38"/>
<polygon fill="midnightblue" stroke="midnightblue" points="557.39,-27.73 566.03,-21.59 555.45,-21 557.39,-27.73"/>
</g>
<!-- Node43 -->
<g id="node18" class="node">
<title>Node43</title>
<g id="a_node18"><a xlink:href="../../d5/d14/class_ex_fat_file.html#a804c34bbe3ebefe2b6c1d77ff8d49a35" target="_top" xlink:title=" ">
<polygon fill="white" stroke="black" points="362.5,-205.5 362.5,-226.5 472.5,-226.5 472.5,-205.5 362.5,-205.5"/>
<text text-anchor="middle" x="417.5" y="-212.9" font-family="Helvetica,sans-Serif" font-size="12.00">ExFatFile::isOpen</text>
</a>
</g>
</g>
<!-- Node40&#45;&gt;Node43 -->
<g id="edge23" class="edge">
<title>Node40&#45;&gt;Node43</title>
<path fill="none" stroke="midnightblue" d="M272.34,-200.94C296.39,-203.46 325.98,-206.55 352.07,-209.27"/>
<polygon fill="midnightblue" stroke="midnightblue" points="351.95,-212.78 362.26,-210.34 352.68,-205.82 351.95,-212.78"/>
</g>
<!-- Node44 -->
<g id="node19" class="node">
<title>Node44</title>
<g id="a_node19"><a xlink:href="../../d5/d14/class_ex_fat_file.html#a9a3f0b900a29d08ffa3d73383107605a" target="_top" xlink:title=" ">
<polygon fill="white" stroke="black" points="361.5,-165.5 361.5,-186.5 473.5,-186.5 473.5,-165.5 361.5,-165.5"/>
<text text-anchor="middle" x="417.5" y="-172.9" font-family="Helvetica,sans-Serif" font-size="12.00">ExFatFile::syncDir</text>
</a>
</g>
</g>
<!-- Node40&#45;&gt;Node44 -->
<g id="edge24" class="edge">
<title>Node40&#45;&gt;Node44</title>
<path fill="none" stroke="midnightblue" d="M272.34,-191.06C296.1,-188.57 325.26,-185.53 351.12,-182.83"/>
<polygon fill="midnightblue" stroke="midnightblue" points="351.64,-186.29 361.22,-181.77 350.91,-179.33 351.64,-186.29"/>
</g>
<!-- Node41&#45;&gt;Node28 -->
<g id="edge21" class="edge">
<title>Node41&#45;&gt;Node28</title>
<path fill="none" stroke="midnightblue" d="M691.58,-10.41C746.04,-11.42 820.78,-15.76 885,-30 1042.64,-64.96 1219.05,-147.03 1288.06,-180.94"/>
<polygon fill="midnightblue" stroke="midnightblue" points="1286.56,-184.1 1297.07,-185.39 1289.66,-177.82 1286.56,-184.1"/>
</g>
<!-- Node42 -->
<g id="node17" class="node">
<title>Node42</title>
<g id="a_node17"><a xlink:href="../../d4/de9/class_ex_fat_partition.html#a29829c123c7f9be897913fb5eebec9c6" target="_top" xlink:title=" ">
<polygon fill="white" stroke="red" points="728,-39.5 728,-60.5 885,-60.5 885,-39.5 728,-39.5"/>
<text text-anchor="middle" x="806.5" y="-46.9" font-family="Helvetica,sans-Serif" font-size="12.00">ExFatPartition::syncDevice</text>
</a>
</g>
</g>
<!-- Node41&#45;&gt;Node42 -->
<g id="edge22" class="edge">
<title>Node41&#45;&gt;Node42</title>
<path fill="none" stroke="midnightblue" d="M666.67,-21.5C690.53,-26.4 719.11,-32.27 744.13,-37.4"/>
<polygon fill="midnightblue" stroke="midnightblue" points="743.74,-40.9 754.24,-39.48 745.15,-34.04 743.74,-40.9"/>
</g>
<!-- Node44&#45;&gt;Node36 -->
<g id="edge34" class="edge">
<title>Node44&#45;&gt;Node36</title>
<path fill="none" stroke="midnightblue" d="M473.67,-180.87C483.76,-183.97 493.46,-188.74 501,-196 543.27,-236.68 495.09,-281.94 537,-323 547,-332.8 561.18,-337.96 574.61,-340.63"/>
<polygon fill="midnightblue" stroke="midnightblue" points="574.24,-344.12 584.66,-342.22 575.33,-337.2 574.24,-344.12"/>
</g>
<!-- Node44&#45;&gt;Node38 -->
<g id="edge32" class="edge">
<title>Node44&#45;&gt;Node38</title>
<path fill="none" stroke="midnightblue" d="M473.89,-181.84C483.72,-184.88 493.28,-189.39 501,-196 532.79,-223.22 505.46,-255.5 537,-283 538.77,-284.54 540.64,-285.96 542.59,-287.28"/>
<polygon fill="midnightblue" stroke="midnightblue" points="541.18,-290.5 551.61,-292.38 544.63,-284.41 541.18,-290.5"/>
</g>
<!-- Node44&#45;&gt;Node41 -->
<g id="edge25" class="edge">
<title>Node44&#45;&gt;Node41</title>
<path fill="none" stroke="midnightblue" d="M429.62,-165.49C446.17,-149.56 477.81,-117.99 501,-88 519.33,-64.3 512.82,-48.69 537,-31 539.52,-29.15 542.2,-27.48 544.99,-25.96"/>
<polygon fill="midnightblue" stroke="midnightblue" points="546.65,-29.04 554.2,-21.61 543.66,-22.71 546.65,-29.04"/>
</g>
<!-- Node45 -->
<g id="node20" class="node">
<title>Node45</title>
<g id="a_node20"><a xlink:href="../../d4/de9/class_ex_fat_partition.html#adb86b17a83782e598fad9a0e80d61ea5" target="_top" xlink:title=" ">
<polygon fill="white" stroke="red" points="537,-159 537,-193 692,-193 692,-159 537,-159"/>
<text text-anchor="start" x="545" y="-179.4" font-family="Helvetica,sans-Serif" font-size="12.00">ExFatPartition::dataCache</text>
<text text-anchor="middle" x="614.5" y="-166.4" font-family="Helvetica,sans-Serif" font-size="12.00">Dirty</text>
</a>
</g>
</g>
<!-- Node44&#45;&gt;Node45 -->
<g id="edge26" class="edge">
<title>Node44&#45;&gt;Node45</title>
<path fill="none" stroke="midnightblue" d="M473.6,-176C490.06,-176 508.52,-176 526.49,-176"/>
<polygon fill="midnightblue" stroke="midnightblue" points="526.71,-179.5 536.71,-176 526.71,-172.5 526.71,-179.5"/>
</g>
<!-- Node47 -->
<g id="node21" class="node">
<title>Node47</title>
<g id="a_node21"><a xlink:href="../../d4/de9/class_ex_fat_partition.html#a854529565ac49818bce4c3b2ceefedee" target="_top" xlink:title=" ">
<polygon fill="white" stroke="red" points="734,-119.5 734,-140.5 879,-140.5 879,-119.5 734,-119.5"/>
<text text-anchor="middle" x="806.5" y="-126.9" font-family="Helvetica,sans-Serif" font-size="12.00">ExFatPartition::dirCache</text>
</a>
</g>
</g>
<!-- Node44&#45;&gt;Node47 -->
<g id="edge27" class="edge">
<title>Node44&#45;&gt;Node47</title>
<path fill="none" stroke="midnightblue" d="M457.71,-165.47C480.66,-159.71 510.28,-152.96 537,-149 599.32,-139.75 670.46,-134.97 723.85,-132.52"/>
<polygon fill="midnightblue" stroke="midnightblue" points="724.11,-136.02 733.95,-132.08 723.8,-129.02 724.11,-136.02"/>
</g>
<!-- Node49 -->
<g id="node22" class="node">
<title>Node49</title>
<g id="a_node22"><a xlink:href="../../d5/d14/class_ex_fat_file.html#aacf9671d6788b7fff5ef2edd95b52008" target="_top" xlink:title=" ">
<polygon fill="white" stroke="red" points="554,-80.5 554,-101.5 675,-101.5 675,-80.5 554,-80.5"/>
<text text-anchor="middle" x="614.5" y="-87.9" font-family="Helvetica,sans-Serif" font-size="12.00">ExFatFile::dirCache</text>
</a>
</g>
</g>
<!-- Node44&#45;&gt;Node49 -->
<g id="edge29" class="edge">
<title>Node44&#45;&gt;Node49</title>
<path fill="none" stroke="midnightblue" d="M437.37,-165.31C460.41,-152.53 500.78,-130.99 537,-116 546.78,-111.95 557.48,-108.11 567.69,-104.71"/>
<polygon fill="midnightblue" stroke="midnightblue" points="568.86,-108.01 577.28,-101.59 566.69,-101.35 568.86,-108.01"/>
</g>
<!-- Node51 -->
<g id="node23" class="node">
<title>Node51</title>
<g id="a_node23"><a xlink:href="../../db/d4e/_ex_fat_file_write_8cpp.html#ad3d375d301d34bd68a264f5ca8d1e4c4" target="_top" xlink:title=" ">
<polygon fill="white" stroke="black" points="556,-40.5 556,-61.5 673,-61.5 673,-40.5 556,-40.5"/>
<text text-anchor="middle" x="614.5" y="-47.9" font-family="Helvetica,sans-Serif" font-size="12.00">exFatDirChecksum</text>
</a>
</g>
</g>
<!-- Node44&#45;&gt;Node51 -->
<g id="edge31" class="edge">
<title>Node44&#45;&gt;Node51</title>
<path fill="none" stroke="midnightblue" d="M427.42,-165.26C445.71,-143.95 489.72,-96.24 537,-71 541.24,-68.74 545.76,-66.72 550.39,-64.92"/>
<polygon fill="midnightblue" stroke="midnightblue" points="551.74,-68.15 560.01,-61.53 549.42,-61.55 551.74,-68.15"/>
</g>
<!-- Node52 -->
<g id="node24" class="node">
<title>Node52</title>
<g id="a_node24"><a xlink:href="../../d1/db3/_fs_structs_8h.html#a2a47595a3bb5c1f0f67d4f3dddac0a0e" target="_top" xlink:title=" ">
<polygon fill="white" stroke="black" points="585,-252.5 585,-273.5 644,-273.5 644,-252.5 585,-252.5"/>
<text text-anchor="middle" x="614.5" y="-259.9" font-family="Helvetica,sans-Serif" font-size="12.00">setLe16</text>
</a>
</g>
</g>
<!-- Node44&#45;&gt;Node52 -->
<g id="edge33" class="edge">
<title>Node44&#45;&gt;Node52</title>
<path fill="none" stroke="midnightblue" d="M473.91,-183.92C483.42,-186.79 492.85,-190.69 501,-196 523.05,-210.36 515.08,-228.44 537,-243 548.19,-250.43 562,-255.11 574.79,-258.04"/>
<polygon fill="midnightblue" stroke="midnightblue" points="574.27,-261.51 584.77,-260.04 575.65,-254.64 574.27,-261.51"/>
</g>
<!-- Node53 -->
<g id="node25" class="node">
<title>Node53</title>
<g id="a_node25"><a xlink:href="../../d1/db3/_fs_structs_8h.html#a3b3f9b76206e0f840e2620a4a6589d88" target="_top" xlink:title=" ">
<polygon fill="white" stroke="black" points="585,-212.5 585,-233.5 644,-233.5 644,-212.5 585,-212.5"/>
<text text-anchor="middle" x="614.5" y="-219.9" font-family="Helvetica,sans-Serif" font-size="12.00">setLe64</text>
</a>
</g>
</g>
<!-- Node44&#45;&gt;Node53 -->
<g id="edge35" class="edge">
<title>Node44&#45;&gt;Node53</title>
<path fill="none" stroke="midnightblue" d="M462.26,-186.55C496.1,-194.7 542.51,-205.89 574.96,-213.71"/>
<polygon fill="midnightblue" stroke="midnightblue" points="574.43,-217.18 584.97,-216.12 576.07,-210.38 574.43,-217.18"/>
</g>
<!-- Node47&#45;&gt;Node33 -->
<g id="edge28" class="edge">
<title>Node47&#45;&gt;Node33</title>
<path fill="none" stroke="midnightblue" d="M815.67,-140.51C844.49,-177.56 941.87,-302.77 983.91,-356.82"/>
<polygon fill="midnightblue" stroke="midnightblue" points="981.26,-359.11 990.16,-364.85 986.79,-354.81 981.26,-359.11"/>
</g>
<!-- Node49&#45;&gt;Node47 -->
<g id="edge30" class="edge">
<title>Node49&#45;&gt;Node47</title>
<path fill="none" stroke="midnightblue" d="M666.67,-101.5C690.53,-106.4 719.11,-112.27 744.13,-117.4"/>
<polygon fill="midnightblue" stroke="midnightblue" points="743.74,-120.9 754.24,-119.48 745.15,-114.04 743.74,-120.9"/>
</g>
</g>
</svg>
