<?xml version="1.0" encoding="UTF-8" standalone="no"?>
<!DOCTYPE svg PUBLIC "-//W3C//DTD SVG 1.1//EN"
 "http://www.w3.org/Graphics/SVG/1.1/DTD/svg11.dtd">
<!-- Generated by graphviz version 2.47.3 (20210619.1520)
 -->
<!-- Title: ExFatFile::dirCache Pages: 1 -->
<svg width="1305pt" height="868pt"
 viewBox="0.00 0.00 1305.00 868.00" xmlns="http://www.w3.org/2000/svg" xmlns:xlink="http://www.w3.org/1999/xlink">
<g id="graph0" class="graph" transform="scale(1 1) rotate(0) translate(4 864)">
<title>ExFatFile::dirCache</title>
<polygon fill="white" stroke="transparent" points="-4,4 -4,-864 1301,-864 1301,4 -4,4"/>
<!-- Node1 -->
<g id="node1" class="node">
<title>Node1</title>
<g id="a_node1"><a xlink:title=" ">
<polygon fill="#bfbfbf" stroke="black" points="1176,-328.5 1176,-349.5 1297,-349.5 1297,-328.5 1176,-328.5"/>
<text text-anchor="middle" x="1236.5" y="-335.9" font-family="Helvetica,sans-Serif" font-size="12.00">ExFatFile::dirCache</text>
</a>
</g>
</g>
<!-- Node2 -->
<g id="node2" class="node">
<title>Node2</title>
<g id="a_node2"><a xlink:href="../../d5/d14/class_ex_fat_file.html#afbe8f284b94342d34cc52910a42c2fce" target="_top" xlink:title=" ">
<polygon fill="white" stroke="black" points="1009,-476.5 1009,-497.5 1137,-497.5 1137,-476.5 1009,-476.5"/>
<text text-anchor="middle" x="1073" y="-483.9" font-family="Helvetica,sans-Serif" font-size="12.00">ExFatFile::getName7</text>
</a>
</g>
</g>
<!-- Node1&#45;&gt;Node2 -->
<g id="edge1" class="edge">
<title>Node1&#45;&gt;Node2</title>
<path fill="none" stroke="midnightblue" d="M1225.81,-359.03C1211.13,-387.26 1180.62,-438.48 1140,-467 1134.61,-470.78 1128.49,-473.86 1122.2,-476.37"/>
<polygon fill="midnightblue" stroke="midnightblue" points="1229.11,-360.26 1230.49,-349.75 1222.86,-357.1 1229.11,-360.26"/>
</g>
<!-- Node5 -->
<g id="node5" class="node">
<title>Node5</title>
<g id="a_node5"><a xlink:href="../../d5/d14/class_ex_fat_file.html#ab25875a3e7752f597393825c6dfe0075" target="_top" xlink:title=" ">
<polygon fill="white" stroke="black" points="1009,-436.5 1009,-457.5 1137,-457.5 1137,-436.5 1009,-436.5"/>
<text text-anchor="middle" x="1073" y="-443.9" font-family="Helvetica,sans-Serif" font-size="12.00">ExFatFile::getName8</text>
</a>
</g>
</g>
<!-- Node1&#45;&gt;Node5 -->
<g id="edge4" class="edge">
<title>Node1&#45;&gt;Node5</title>
<path fill="none" stroke="midnightblue" d="M1220.24,-357.32C1202.77,-377.17 1172.37,-408.49 1140,-427 1133.45,-430.74 1126.13,-433.86 1118.81,-436.42"/>
<polygon fill="midnightblue" stroke="midnightblue" points="1223.03,-359.44 1226.9,-349.58 1217.72,-354.88 1223.03,-359.44"/>
</g>
<!-- Node6 -->
<g id="node6" class="node">
<title>Node6</title>
<g id="a_node6"><a xlink:href="../../d5/d14/class_ex_fat_file.html#a531de6eac70b708a3fefd96e25506016" target="_top" xlink:title=" ">
<polygon fill="white" stroke="black" points="489,-434.5 489,-455.5 625,-455.5 625,-434.5 489,-434.5"/>
<text text-anchor="middle" x="557" y="-441.9" font-family="Helvetica,sans-Serif" font-size="12.00">ExFatFile::openPrivate</text>
</a>
</g>
</g>
<!-- Node1&#45;&gt;Node6 -->
<g id="edge6" class="edge">
<title>Node1&#45;&gt;Node6</title>
<path fill="none" stroke="midnightblue" d="M1165.73,-345.14C1057.07,-355.43 841.2,-378.75 661,-416 637.35,-420.89 611.16,-428.29 591.11,-434.39"/>
<polygon fill="midnightblue" stroke="midnightblue" points="1166.27,-348.61 1175.9,-344.19 1165.62,-341.64 1166.27,-348.61"/>
</g>
<!-- Node34 -->
<g id="node34" class="node">
<title>Node34</title>
<g id="a_node34"><a xlink:href="../../d5/d14/class_ex_fat_file.html#ac89fd267991bfce2b4315e92fe54156f" target="_top" xlink:title=" ">
<polygon fill="white" stroke="black" points="1006,-162.5 1006,-183.5 1140,-183.5 1140,-162.5 1006,-162.5"/>
<text text-anchor="middle" x="1073" y="-169.9" font-family="Helvetica,sans-Serif" font-size="12.00">ExFatFile::printName7</text>
</a>
</g>
</g>
<!-- Node1&#45;&gt;Node34 -->
<g id="edge34" class="edge">
<title>Node1&#45;&gt;Node34</title>
<path fill="none" stroke="midnightblue" d="M1227.71,-318.87C1214.48,-287.34 1184.65,-226.44 1140,-193 1134.92,-189.2 1129.12,-186.11 1123.1,-183.61"/>
<polygon fill="midnightblue" stroke="midnightblue" points="1224.56,-320.41 1231.56,-328.36 1231.04,-317.77 1224.56,-320.41"/>
</g>
<!-- Node36 -->
<g id="node36" class="node">
<title>Node36</title>
<g id="a_node36"><a xlink:href="../../d5/d14/class_ex_fat_file.html#a5f46ba9982e0aed9697d8ead1aac3fff" target="_top" xlink:title=" ">
<polygon fill="white" stroke="black" points="1006,-202.5 1006,-223.5 1140,-223.5 1140,-202.5 1006,-202.5"/>
<text text-anchor="middle" x="1073" y="-209.9" font-family="Helvetica,sans-Serif" font-size="12.00">ExFatFile::printName8</text>
</a>
</g>
</g>
<!-- Node1&#45;&gt;Node36 -->
<g id="edge37" class="edge">
<title>Node1&#45;&gt;Node36</title>
<path fill="none" stroke="midnightblue" d="M1222.08,-320.32C1205.19,-297.99 1174.22,-260.8 1140,-238 1131.13,-232.09 1120.66,-227.31 1110.71,-223.57"/>
<polygon fill="midnightblue" stroke="midnightblue" points="1219.27,-322.4 1228.04,-328.35 1224.9,-318.23 1219.27,-322.4"/>
</g>
<!-- Node37 -->
<g id="node37" class="node">
<title>Node37</title>
<g id="a_node37"><a xlink:href="../../d5/d14/class_ex_fat_file.html#a8e88c8e79551a72cc98310038514c47a" target="_top" xlink:title=" ">
<polygon fill="white" stroke="black" points="336,-240.5 336,-261.5 448,-261.5 448,-240.5 336,-240.5"/>
<text text-anchor="middle" x="392" y="-247.9" font-family="Helvetica,sans-Serif" font-size="12.00">ExFatFile::remove</text>
</a>
</g>
</g>
<!-- Node1&#45;&gt;Node37 -->
<g id="edge39" class="edge">
<title>Node1&#45;&gt;Node37</title>
<path fill="none" stroke="midnightblue" d="M1202.8,-324.27C1144.65,-299.45 1018.88,-252 907.5,-252 907.5,-252 907.5,-252 733,-252 632.5,-252 515.3,-251.56 448.06,-251.26"/>
<polygon fill="midnightblue" stroke="midnightblue" points="1201.63,-327.57 1212.2,-328.33 1204.41,-321.15 1201.63,-327.57"/>
</g>
<!-- Node41 -->
<g id="node41" class="node">
<title>Node41</title>
<g id="a_node41"><a xlink:href="../../d5/d14/class_ex_fat_file.html#a9a3f0b900a29d08ffa3d73383107605a" target="_top" xlink:title=" ">
<polygon fill="white" stroke="black" points="1017,-396.5 1017,-417.5 1129,-417.5 1129,-396.5 1017,-396.5"/>
<text text-anchor="middle" x="1073" y="-403.9" font-family="Helvetica,sans-Serif" font-size="12.00">ExFatFile::syncDir</text>
</a>
</g>
</g>
<!-- Node1&#45;&gt;Node41 -->
<g id="edge47" class="edge">
<title>Node1&#45;&gt;Node41</title>
<path fill="none" stroke="midnightblue" d="M1203.76,-353.88C1185.28,-362.39 1161.46,-373.11 1140,-382 1128,-386.97 1114.62,-392.11 1103.06,-396.43"/>
<polygon fill="midnightblue" stroke="midnightblue" points="1205.3,-357.02 1212.9,-349.64 1202.36,-350.67 1205.3,-357.02"/>
</g>
<!-- Node63 -->
<g id="node49" class="node">
<title>Node63</title>
<g id="a_node49"><a xlink:href="../../d5/d14/class_ex_fat_file.html#a6d3ab10983e206401ebd5c24a1c46174" target="_top" xlink:title=" ">
<polygon fill="white" stroke="black" points="670,-280.5 670,-301.5 798,-301.5 798,-280.5 670,-280.5"/>
<text text-anchor="middle" x="734" y="-287.9" font-family="Helvetica,sans-Serif" font-size="12.00">ExFatFile::timestamp</text>
</a>
</g>
</g>
<!-- Node1&#45;&gt;Node63 -->
<g id="edge66" class="edge">
<title>Node1&#45;&gt;Node63</title>
<path fill="none" stroke="midnightblue" d="M1165.55,-332.29C1067.85,-322.92 891.97,-306.05 798.09,-297.05"/>
<polygon fill="midnightblue" stroke="midnightblue" points="1165.34,-335.79 1175.63,-333.26 1166,-328.82 1165.34,-335.79"/>
</g>
<!-- Node3 -->
<g id="node3" class="node">
<title>Node3</title>
<g id="a_node3"><a xlink:href="../../d5/d14/class_ex_fat_file.html#a21881cab4d01235c97aa591e12485998" target="_top" xlink:title=" ">
<polygon fill="white" stroke="black" points="846,-476.5 846,-497.5 967,-497.5 967,-476.5 846,-476.5"/>
<text text-anchor="middle" x="906.5" y="-483.9" font-family="Helvetica,sans-Serif" font-size="12.00">ExFatFile::getName</text>
</a>
</g>
</g>
<!-- Node2&#45;&gt;Node3 -->
<g id="edge2" class="edge">
<title>Node2&#45;&gt;Node3</title>
<path fill="none" stroke="midnightblue" d="M998.82,-487C988.25,-487 977.48,-487 967.22,-487"/>
<polygon fill="midnightblue" stroke="midnightblue" points="998.87,-490.5 1008.87,-487 998.87,-483.5 998.87,-490.5"/>
</g>
<!-- Node4 -->
<g id="node4" class="node">
<title>Node4</title>
<g id="a_node4"><a xlink:href="../../d7/d76/class_fs_base_file.html#ad2099dbe6bb8f61e1bf933d8e97b2d86" target="_top" xlink:title=" ">
<polygon fill="white" stroke="black" points="668.5,-670.5 668.5,-691.5 799.5,-691.5 799.5,-670.5 668.5,-670.5"/>
<text text-anchor="middle" x="734" y="-677.9" font-family="Helvetica,sans-Serif" font-size="12.00">FsBaseFile::getName</text>
</a>
</g>
</g>
<!-- Node3&#45;&gt;Node4 -->
<g id="edge3" class="edge">
<title>Node3&#45;&gt;Node4</title>
<path fill="none" stroke="midnightblue" d="M898.88,-507.57C886.47,-542.92 856.43,-615.32 807,-656 799.44,-662.22 790.23,-666.94 780.97,-670.49"/>
<polygon fill="midnightblue" stroke="midnightblue" points="902.27,-508.46 902.16,-497.86 895.64,-506.21 902.27,-508.46"/>
</g>
<!-- Node5&#45;&gt;Node3 -->
<g id="edge5" class="edge">
<title>Node5&#45;&gt;Node3</title>
<path fill="none" stroke="midnightblue" d="M1018.9,-459.91C996.86,-465.27 971.6,-471.41 950.72,-476.49"/>
<polygon fill="midnightblue" stroke="midnightblue" points="1019.89,-463.27 1028.78,-457.51 1018.24,-456.47 1019.89,-463.27"/>
</g>
<!-- Node7 -->
<g id="node7" class="node">
<title>Node7</title>
<g id="a_node7"><a xlink:href="../../d5/d14/class_ex_fat_file.html#ad9ca8c5ba1de8965e65b9f25f31baeff" target="_top" xlink:title=" ">
<polygon fill="white" stroke="black" points="341,-628.5 341,-649.5 443,-649.5 443,-628.5 341,-628.5"/>
<text text-anchor="middle" x="392" y="-635.9" font-family="Helvetica,sans-Serif" font-size="12.00">ExFatFile::mkdir</text>
</a>
</g>
</g>
<!-- Node6&#45;&gt;Node7 -->
<g id="edge7" class="edge">
<title>Node6&#45;&gt;Node7</title>
<path fill="none" stroke="midnightblue" d="M540.38,-463.59C506.85,-503.49 428.88,-596.3 402.17,-628.09"/>
<polygon fill="midnightblue" stroke="midnightblue" points="543.25,-465.61 547,-455.71 537.89,-461.11 543.25,-465.61"/>
</g>
<!-- Node10 -->
<g id="node10" class="node">
<title>Node10</title>
<g id="a_node10"><a xlink:href="../../d5/d14/class_ex_fat_file.html#a354ba015486119b46be89b10ef200d27" target="_top" xlink:title=" ">
<polygon fill="white" stroke="black" points="342.5,-483.5 342.5,-504.5 441.5,-504.5 441.5,-483.5 342.5,-483.5"/>
<text text-anchor="middle" x="392" y="-490.9" font-family="Helvetica,sans-Serif" font-size="12.00">ExFatFile::open</text>
</a>
</g>
</g>
<!-- Node6&#45;&gt;Node10 -->
<g id="edge10" class="edge">
<title>Node6&#45;&gt;Node10</title>
<path fill="none" stroke="midnightblue" d="M511.34,-458.42C485.16,-466.3 452.54,-476.1 428.19,-483.42"/>
<polygon fill="midnightblue" stroke="midnightblue" points="512.46,-461.74 521.03,-455.51 510.45,-455.04 512.46,-461.74"/>
</g>
<!-- Node26 -->
<g id="node26" class="node">
<title>Node26</title>
<g id="a_node26"><a xlink:href="../../d5/d14/class_ex_fat_file.html#a3ea80d4e3dd4340c2d282097ad12c249" target="_top" xlink:title=" ">
<polygon fill="white" stroke="black" points="331,-80.5 331,-101.5 453,-101.5 453,-80.5 331,-80.5"/>
<text text-anchor="middle" x="392" y="-87.9" font-family="Helvetica,sans-Serif" font-size="12.00">ExFatFile::openNext</text>
</a>
</g>
</g>
<!-- Node6&#45;&gt;Node26 -->
<g id="edge26" class="edge">
<title>Node6&#45;&gt;Node26</title>
<path fill="none" stroke="midnightblue" d="M549.33,-424.8C534.42,-380.61 496.32,-272.44 453,-187 436.56,-154.57 412.55,-118.88 400.49,-101.57"/>
<polygon fill="midnightblue" stroke="midnightblue" points="546.04,-426.01 552.53,-434.38 552.68,-423.79 546.04,-426.01"/>
</g>
<!-- Node8 -->
<g id="node8" class="node">
<title>Node8</title>
<g id="a_node8"><a xlink:href="../../da/d35/class_ex_fat_volume.html#abb00cfff7943fe637a99b292798865e0" target="_top" xlink:title=" ">
<polygon fill="white" stroke="black" points="167,-798.5 167,-819.5 289,-819.5 289,-798.5 167,-798.5"/>
<text text-anchor="middle" x="228" y="-805.9" font-family="Helvetica,sans-Serif" font-size="12.00">ExFatVolume::mkdir</text>
</a>
</g>
</g>
<!-- Node7&#45;&gt;Node8 -->
<g id="edge8" class="edge">
<title>Node7&#45;&gt;Node8</title>
<path fill="none" stroke="midnightblue" d="M334.99,-655.31C333.58,-656.46 332.25,-657.69 331,-659 289.72,-702.47 336.88,-746.1 295,-789 291.24,-792.86 286.76,-795.97 281.93,-798.49"/>
<polygon fill="midnightblue" stroke="midnightblue" points="337.28,-658 343.73,-649.59 333.44,-652.14 337.28,-658"/>
</g>
<!-- Node9 -->
<g id="node9" class="node">
<title>Node9</title>
<g id="a_node9"><a xlink:href="../../d7/d76/class_fs_base_file.html#a8b7aa7f2c63882e483336dfe12ef6800" target="_top" xlink:title=" ">
<polygon fill="white" stroke="black" points="171.5,-838.5 171.5,-859.5 284.5,-859.5 284.5,-838.5 171.5,-838.5"/>
<text text-anchor="middle" x="228" y="-845.9" font-family="Helvetica,sans-Serif" font-size="12.00">FsBaseFile::mkdir</text>
</a>
</g>
</g>
<!-- Node7&#45;&gt;Node9 -->
<g id="edge9" class="edge">
<title>Node7&#45;&gt;Node9</title>
<path fill="none" stroke="midnightblue" d="M334.8,-655.29C333.45,-656.44 332.18,-657.68 331,-659 279.56,-716.61 347.23,-772.1 295,-829 291.52,-832.79 287.34,-835.88 282.81,-838.38"/>
<polygon fill="midnightblue" stroke="midnightblue" points="336.93,-658.07 343.2,-649.53 332.97,-652.3 336.93,-658.07"/>
</g>
<!-- Node11 -->
<g id="node11" class="node">
<title>Node11</title>
<g id="a_node11"><a xlink:href="../../d5/d14/class_ex_fat_file.html#ab1be7938b64f74a51581f4839fefed4b" target="_top" xlink:title=" ">
<polygon fill="white" stroke="black" points="166.5,-400.5 166.5,-421.5 289.5,-421.5 289.5,-400.5 166.5,-400.5"/>
<text text-anchor="middle" x="228" y="-407.9" font-family="Helvetica,sans-Serif" font-size="12.00">ExFatFile::ExFatFile</text>
</a>
</g>
</g>
<!-- Node10&#45;&gt;Node11 -->
<g id="edge11" class="edge">
<title>Node10&#45;&gt;Node11</title>
<path fill="none" stroke="midnightblue" d="M369.26,-477.12C350.47,-463.18 322.12,-443.69 295,-431 287.3,-427.4 278.79,-424.26 270.52,-421.6"/>
<polygon fill="midnightblue" stroke="midnightblue" points="367.34,-480.05 377.43,-483.27 371.55,-474.46 367.34,-480.05"/>
</g>
<!-- Node12 -->
<g id="node12" class="node">
<title>Node12</title>
<g id="a_node12"><a xlink:href="../../da/d35/class_ex_fat_volume.html#a0f9c04da8382686190df76ff957e9a19" target="_top" xlink:title=" ">
<polygon fill="white" stroke="black" points="168.5,-360.5 168.5,-381.5 287.5,-381.5 287.5,-360.5 168.5,-360.5"/>
<text text-anchor="middle" x="228" y="-367.9" font-family="Helvetica,sans-Serif" font-size="12.00">ExFatVolume::chdir</text>
</a>
</g>
</g>
<!-- Node10&#45;&gt;Node12 -->
<g id="edge12" class="edge">
<title>Node10&#45;&gt;Node12</title>
<path fill="none" stroke="midnightblue" d="M378.09,-474.9C361.49,-451.76 330.53,-413.15 295,-391 288.9,-387.2 282.04,-384.08 275.1,-381.54"/>
<polygon fill="midnightblue" stroke="midnightblue" points="375.31,-477.03 383.92,-483.22 381.05,-473.02 375.31,-477.03"/>
</g>
<!-- Node13 -->
<g id="node13" class="node">
<title>Node13</title>
<g id="a_node13"><a xlink:href="../../d5/d14/class_ex_fat_file.html#a32df2d7ac56a76a647cedf4192ac9abe" target="_top" xlink:title=" ">
<polygon fill="white" stroke="black" points="176.5,-518.5 176.5,-539.5 279.5,-539.5 279.5,-518.5 176.5,-518.5"/>
<text text-anchor="middle" x="228" y="-525.9" font-family="Helvetica,sans-Serif" font-size="12.00">ExFatFile::exists</text>
</a>
</g>
</g>
<!-- Node10&#45;&gt;Node13 -->
<g id="edge13" class="edge">
<title>Node10&#45;&gt;Node13</title>
<path fill="none" stroke="midnightblue" d="M332.61,-506.61C314.66,-510.49 295.09,-514.72 277.85,-518.45"/>
<polygon fill="midnightblue" stroke="midnightblue" points="333.36,-510.03 342.39,-504.5 331.88,-503.19 333.36,-510.03"/>
</g>
<!-- Node15 -->
<g id="node15" class="node">
<title>Node15</title>
<g id="a_node15"><a xlink:href="../../da/d35/class_ex_fat_volume.html#a5e2e029b02d3c98bc0b8fcbdab566af6" target="_top" xlink:title=" ">
<polygon fill="white" stroke="black" points="166.5,-718.5 166.5,-739.5 289.5,-739.5 289.5,-718.5 166.5,-718.5"/>
<text text-anchor="middle" x="228" y="-725.9" font-family="Helvetica,sans-Serif" font-size="12.00">ExFatVolume::exists</text>
</a>
</g>
</g>
<!-- Node10&#45;&gt;Node15 -->
<g id="edge15" class="edge">
<title>Node10&#45;&gt;Node15</title>
<path fill="none" stroke="midnightblue" d="M343.85,-509.61C338.99,-512.76 334.54,-516.52 331,-521 278.27,-587.76 351.92,-645.77 295,-709 291.56,-712.83 287.41,-715.93 282.89,-718.45"/>
<polygon fill="midnightblue" stroke="midnightblue" points="345.89,-512.48 352.95,-504.57 342.5,-506.35 345.89,-512.48"/>
</g>
<!-- Node16 -->
<g id="node16" class="node">
<title>Node16</title>
<g id="a_node16"><a xlink:href="../../da/d35/class_ex_fat_volume.html#a2e44d5d26a25d610c4b0d97fa5b1f505" target="_top" xlink:title=" ">
<polygon fill="white" stroke="black" points="177.5,-678.5 177.5,-699.5 278.5,-699.5 278.5,-678.5 177.5,-678.5"/>
<text text-anchor="middle" x="228" y="-685.9" font-family="Helvetica,sans-Serif" font-size="12.00">ExFatVolume::ls</text>
</a>
</g>
</g>
<!-- Node10&#45;&gt;Node16 -->
<g id="edge16" class="edge">
<title>Node10&#45;&gt;Node16</title>
<path fill="none" stroke="midnightblue" d="M344.62,-509.43C339.51,-512.62 334.79,-516.44 331,-521 287.74,-573.07 341.52,-619.82 295,-669 290.47,-673.78 284.85,-677.44 278.8,-680.22"/>
<polygon fill="midnightblue" stroke="midnightblue" points="346.37,-512.46 353.51,-504.62 343.05,-506.3 346.37,-512.46"/>
</g>
<!-- Node17 -->
<g id="node17" class="node">
<title>Node17</title>
<g id="a_node17"><a xlink:href="../../d5/d14/class_ex_fat_file.html#aaf738b1f00b8ae1664020f238c1a9a48" target="_top" xlink:title=" ">
<polygon fill="white" stroke="black" points="178.5,-638.5 178.5,-659.5 277.5,-659.5 277.5,-638.5 178.5,-638.5"/>
<text text-anchor="middle" x="228" y="-645.9" font-family="Helvetica,sans-Serif" font-size="12.00">ExFatFile::open</text>
</a>
</g>
</g>
<!-- Node10&#45;&gt;Node17 -->
<g id="edge17" class="edge">
<title>Node10&#45;&gt;Node17</title>
<path fill="none" stroke="midnightblue" d="M345.95,-509.15C340.41,-512.42 335.22,-516.33 331,-521 297.08,-558.54 331.27,-593.72 295,-629 290.11,-633.76 284.12,-637.39 277.77,-640.16"/>
<polygon fill="midnightblue" stroke="midnightblue" points="347.58,-512.25 354.85,-504.55 344.36,-506.03 347.58,-512.25"/>
</g>
<!-- Node18 -->
<g id="node18" class="node">
<title>Node18</title>
<g id="a_node18"><a xlink:href="../../da/d35/class_ex_fat_volume.html#ae5d8f37ac6505471ef78fb4db518fb8b" target="_top" xlink:title=" ">
<polygon fill="white" stroke="black" points="168.5,-598.5 168.5,-619.5 287.5,-619.5 287.5,-598.5 168.5,-598.5"/>
<text text-anchor="middle" x="228" y="-605.9" font-family="Helvetica,sans-Serif" font-size="12.00">ExFatVolume::open</text>
</a>
</g>
</g>
<!-- Node10&#45;&gt;Node18 -->
<g id="edge18" class="edge">
<title>Node10&#45;&gt;Node18</title>
<path fill="none" stroke="midnightblue" d="M348.07,-509.03C341.91,-512.36 335.98,-516.33 331,-521 306.06,-544.39 321.39,-567.26 295,-589 290.38,-592.81 285.05,-595.89 279.45,-598.38"/>
<polygon fill="midnightblue" stroke="midnightblue" points="349.72,-512.12 357.18,-504.6 346.66,-505.83 349.72,-512.12"/>
</g>
<!-- Node19 -->
<g id="node19" class="node">
<title>Node19</title>
<g id="a_node19"><a xlink:href="../../d7/d76/class_fs_base_file.html#a9786eb47f5d001e89ff291c271517547" target="_top" xlink:title=" ">
<polygon fill="white" stroke="black" points="173,-558.5 173,-579.5 283,-579.5 283,-558.5 173,-558.5"/>
<text text-anchor="middle" x="228" y="-565.9" font-family="Helvetica,sans-Serif" font-size="12.00">FsBaseFile::open</text>
</a>
</g>
</g>
<!-- Node10&#45;&gt;Node19 -->
<g id="edge19" class="edge">
<title>Node10&#45;&gt;Node19</title>
<path fill="none" stroke="midnightblue" d="M354.81,-508.61C346.79,-512.3 338.46,-516.51 331,-521 313.63,-531.46 313,-539.68 295,-549 287.88,-552.69 279.96,-555.81 272.15,-558.42"/>
<polygon fill="midnightblue" stroke="midnightblue" points="356.31,-511.77 364.03,-504.51 353.47,-505.37 356.31,-511.77"/>
</g>
<!-- Node20 -->
<g id="node20" class="node">
<title>Node20</title>
<g id="a_node20"><a xlink:href="../../d5/d14/class_ex_fat_file.html#a145a2fa9269876bae17a44569b4625fb" target="_top" xlink:title=" ">
<polygon fill="white" stroke="black" points="172,-280.5 172,-301.5 284,-301.5 284,-280.5 172,-280.5"/>
<text text-anchor="middle" x="228" y="-287.9" font-family="Helvetica,sans-Serif" font-size="12.00">ExFatFile::remove</text>
</a>
</g>
</g>
<!-- Node10&#45;&gt;Node20 -->
<g id="edge20" class="edge">
<title>Node10&#45;&gt;Node20</title>
<path fill="none" stroke="midnightblue" d="M385.96,-473.66C375.55,-435.92 348.1,-354.91 295,-311 290.39,-307.19 285.06,-304.1 279.47,-301.6"/>
<polygon fill="midnightblue" stroke="midnightblue" points="382.62,-474.72 388.55,-483.5 389.39,-472.93 382.62,-474.72"/>
</g>
<!-- Node21 -->
<g id="node21" class="node">
<title>Node21</title>
<g id="a_node21"><a xlink:href="../../da/d35/class_ex_fat_volume.html#ac4d15484d30dd40ecdb4d331d29534d9" target="_top" xlink:title=" ">
<polygon fill="white" stroke="black" points="162,-240.5 162,-261.5 294,-261.5 294,-240.5 162,-240.5"/>
<text text-anchor="middle" x="228" y="-247.9" font-family="Helvetica,sans-Serif" font-size="12.00">ExFatVolume::remove</text>
</a>
</g>
</g>
<!-- Node10&#45;&gt;Node21 -->
<g id="edge21" class="edge">
<title>Node10&#45;&gt;Node21</title>
<path fill="none" stroke="midnightblue" d="M388.01,-473.27C380.58,-429.37 357.16,-326.55 295,-271 290.71,-267.17 285.72,-264.07 280.42,-261.57"/>
<polygon fill="midnightblue" stroke="midnightblue" points="384.58,-473.99 389.6,-483.32 391.49,-472.89 384.58,-473.99"/>
</g>
<!-- Node22 -->
<g id="node22" class="node">
<title>Node22</title>
<g id="a_node22"><a xlink:href="../../da/d35/class_ex_fat_volume.html#a6a31fd969e29608509e75adbf46fcd5d" target="_top" xlink:title=" ">
<polygon fill="white" stroke="black" points="161.5,-440.5 161.5,-461.5 294.5,-461.5 294.5,-440.5 161.5,-440.5"/>
<text text-anchor="middle" x="228" y="-447.9" font-family="Helvetica,sans-Serif" font-size="12.00">ExFatVolume::rename</text>
</a>
</g>
</g>
<!-- Node10&#45;&gt;Node22 -->
<g id="edge22" class="edge">
<title>Node10&#45;&gt;Node22</title>
<path fill="none" stroke="midnightblue" d="M341.64,-480.9C318.29,-474.7 290.77,-467.4 268.78,-461.56"/>
<polygon fill="midnightblue" stroke="midnightblue" points="340.81,-484.3 351.37,-483.48 342.6,-477.53 340.81,-484.3"/>
</g>
<!-- Node23 -->
<g id="node23" class="node">
<title>Node23</title>
<g id="a_node23"><a xlink:href="../../d5/d14/class_ex_fat_file.html#a707e3a4139319fb5d4e31d591b3c5b77" target="_top" xlink:title=" ">
<polygon fill="white" stroke="black" points="171.5,-320.5 171.5,-341.5 284.5,-341.5 284.5,-320.5 171.5,-320.5"/>
<text text-anchor="middle" x="228" y="-327.9" font-family="Helvetica,sans-Serif" font-size="12.00">ExFatFile::rename</text>
</a>
</g>
</g>
<!-- Node10&#45;&gt;Node23 -->
<g id="edge23" class="edge">
<title>Node10&#45;&gt;Node23</title>
<path fill="none" stroke="midnightblue" d="M382.83,-473.83C369.24,-442.81 339.06,-383.59 295,-351 289.8,-347.15 283.86,-344.04 277.72,-341.52"/>
<polygon fill="midnightblue" stroke="midnightblue" points="379.67,-475.35 386.8,-483.19 386.11,-472.61 379.67,-475.35"/>
</g>
<!-- Node24 -->
<g id="node24" class="node">
<title>Node24</title>
<g id="a_node24"><a xlink:href="../../da/d35/class_ex_fat_volume.html#afaa44ad57398f8c293b9a35aa150ce75" target="_top" xlink:title=" ">
<polygon fill="white" stroke="black" points="2.5,-339.5 2.5,-360.5 122.5,-360.5 122.5,-339.5 2.5,-339.5"/>
<text text-anchor="middle" x="62.5" y="-346.9" font-family="Helvetica,sans-Serif" font-size="12.00">ExFatVolume::rmdir</text>
</a>
</g>
</g>
<!-- Node10&#45;&gt;Node24 -->
<g id="edge24" class="edge">
<title>Node10&#45;&gt;Node24</title>
<path fill="none" stroke="midnightblue" d="M331.97,-500.2C283.22,-502.6 213.72,-499.53 161,-471 113.31,-445.19 80.4,-385.32 68.46,-360.78"/>
<polygon fill="midnightblue" stroke="midnightblue" points="332.27,-503.69 342.05,-499.62 331.86,-496.7 332.27,-503.69"/>
</g>
<!-- Node25 -->
<g id="node25" class="node">
<title>Node25</title>
<g id="a_node25"><a xlink:href="../../da/d35/class_ex_fat_volume.html#a1af3c481f14ff2d390aabe6226658b01" target="_top" xlink:title=" ">
<polygon fill="white" stroke="black" points="161,-758.5 161,-779.5 295,-779.5 295,-758.5 161,-758.5"/>
<text text-anchor="middle" x="228" y="-765.9" font-family="Helvetica,sans-Serif" font-size="12.00">ExFatVolume::truncate</text>
</a>
</g>
</g>
<!-- Node10&#45;&gt;Node25 -->
<g id="edge25" class="edge">
<title>Node10&#45;&gt;Node25</title>
<path fill="none" stroke="midnightblue" d="M343.53,-509.61C338.76,-512.76 334.42,-516.52 331,-521 268.73,-602.53 362.38,-671.64 295,-749 291.7,-752.79 287.7,-755.88 283.33,-758.39"/>
<polygon fill="midnightblue" stroke="midnightblue" points="345.47,-512.54 352.47,-504.59 342.04,-506.44 345.47,-512.54"/>
</g>
<!-- Node14 -->
<g id="node14" class="node">
<title>Node14</title>
<g id="a_node14"><a xlink:href="../../d7/d76/class_fs_base_file.html#a76aea9766ffeae5454381a0704e62505" target="_top" xlink:title=" ">
<polygon fill="white" stroke="black" points="6,-518.5 6,-539.5 119,-539.5 119,-518.5 6,-518.5"/>
<text text-anchor="middle" x="62.5" y="-525.9" font-family="Helvetica,sans-Serif" font-size="12.00">FsBaseFile::exists</text>
</a>
</g>
</g>
<!-- Node13&#45;&gt;Node14 -->
<g id="edge14" class="edge">
<title>Node13&#45;&gt;Node14</title>
<path fill="none" stroke="midnightblue" d="M165.77,-529C150.47,-529 134.15,-529 119.14,-529"/>
<polygon fill="midnightblue" stroke="midnightblue" points="166.16,-532.5 176.16,-529 166.16,-525.5 166.16,-532.5"/>
</g>
<!-- Node27 -->
<g id="node27" class="node">
<title>Node27</title>
<g id="a_node27"><a xlink:href="../../d5/d14/class_ex_fat_file.html#aa0e074c891f3db5ea2ebd491667b03a6" target="_top" xlink:title=" ">
<polygon fill="white" stroke="black" points="187.5,-120.5 187.5,-141.5 268.5,-141.5 268.5,-120.5 187.5,-120.5"/>
<text text-anchor="middle" x="228" y="-127.9" font-family="Helvetica,sans-Serif" font-size="12.00">ExFatFile::ls</text>
</a>
</g>
</g>
<!-- Node26&#45;&gt;Node27 -->
<g id="edge27" class="edge">
<title>Node26&#45;&gt;Node27</title>
<path fill="none" stroke="midnightblue" d="M338.58,-103.94C315.81,-109.56 289.59,-116.04 268.5,-121.25"/>
<polygon fill="midnightblue" stroke="midnightblue" points="339.57,-107.3 348.44,-101.51 337.89,-100.51 339.57,-107.3"/>
</g>
<!-- Node30 -->
<g id="node30" class="node">
<title>Node30</title>
<g id="a_node30"><a xlink:href="../../d5/d14/class_ex_fat_file.html#a414b64dc30551e05dcc46f04e0f6413a" target="_top" xlink:title=" ">
<polygon fill="white" stroke="black" points="178.5,-0.5 178.5,-21.5 277.5,-21.5 277.5,-0.5 178.5,-0.5"/>
<text text-anchor="middle" x="228" y="-7.9" font-family="Helvetica,sans-Serif" font-size="12.00">ExFatFile::open</text>
</a>
</g>
</g>
<!-- Node26&#45;&gt;Node30 -->
<g id="edge30" class="edge">
<title>Node26&#45;&gt;Node30</title>
<path fill="none" stroke="midnightblue" d="M368.48,-74.53C349.61,-61.32 321.57,-43.07 295,-31 287.04,-27.38 278.26,-24.21 269.76,-21.51"/>
<polygon fill="midnightblue" stroke="midnightblue" points="366.54,-77.44 376.72,-80.38 370.59,-71.73 366.54,-77.44"/>
</g>
<!-- Node31 -->
<g id="node31" class="node">
<title>Node31</title>
<g id="a_node31"><a xlink:href="../../d7/d76/class_fs_base_file.html#acb9b1075f4db76fa7e0521c9aff9c3df" target="_top" xlink:title=" ">
<polygon fill="white" stroke="black" points="161.5,-40.5 161.5,-61.5 294.5,-61.5 294.5,-40.5 161.5,-40.5"/>
<text text-anchor="middle" x="228" y="-47.9" font-family="Helvetica,sans-Serif" font-size="12.00">FsBaseFile::openNext</text>
</a>
</g>
</g>
<!-- Node26&#45;&gt;Node31 -->
<g id="edge31" class="edge">
<title>Node26&#45;&gt;Node31</title>
<path fill="none" stroke="midnightblue" d="M338.71,-78.09C317,-72.73 292.13,-66.59 271.56,-61.51"/>
<polygon fill="midnightblue" stroke="midnightblue" points="337.89,-81.49 348.44,-80.49 339.57,-74.7 337.89,-81.49"/>
</g>
<!-- Node33 -->
<g id="node33" class="node">
<title>Node33</title>
<g id="a_node33"><a xlink:href="../../db/d75/class_ex_file.html#ac33383190264a3b74434877f0ff7e6d6" target="_top" xlink:title=" ">
<polygon fill="white" stroke="black" points="165.5,-80.5 165.5,-101.5 290.5,-101.5 290.5,-80.5 165.5,-80.5"/>
<text text-anchor="middle" x="228" y="-87.9" font-family="Helvetica,sans-Serif" font-size="12.00">ExFile::openNextFile</text>
</a>
</g>
</g>
<!-- Node26&#45;&gt;Node33 -->
<g id="edge33" class="edge">
<title>Node26&#45;&gt;Node33</title>
<path fill="none" stroke="midnightblue" d="M320.46,-91C310.56,-91 300.45,-91 290.73,-91"/>
<polygon fill="midnightblue" stroke="midnightblue" points="320.68,-94.5 330.68,-91 320.68,-87.5 320.68,-94.5"/>
</g>
<!-- Node28 -->
<g id="node28" class="node">
<title>Node28</title>
<g id="a_node28"><a xlink:href="../../d5/d14/class_ex_fat_file.html#a09f8beb55f939874e93c1df6c8a046d4" target="_top" xlink:title=" ">
<polygon fill="white" stroke="black" points="22,-120.5 22,-141.5 103,-141.5 103,-120.5 22,-120.5"/>
<text text-anchor="middle" x="62.5" y="-127.9" font-family="Helvetica,sans-Serif" font-size="12.00">ExFatFile::ls</text>
</a>
</g>
</g>
<!-- Node27&#45;&gt;Node28 -->
<g id="edge28" class="edge">
<title>Node27&#45;&gt;Node28</title>
<path fill="none" stroke="midnightblue" d="M177.21,-131C153.5,-131 125.54,-131 103.28,-131"/>
<polygon fill="midnightblue" stroke="midnightblue" points="177.42,-134.5 187.42,-131 177.42,-127.5 177.42,-134.5"/>
</g>
<!-- Node29 -->
<g id="node29" class="node">
<title>Node29</title>
<g id="a_node29"><a xlink:href="../../da/d35/class_ex_fat_volume.html#abe1e8cad0a5922984b28edfd987bc856" target="_top" xlink:title=" ">
<polygon fill="white" stroke="black" points="12,-80.5 12,-101.5 113,-101.5 113,-80.5 12,-80.5"/>
<text text-anchor="middle" x="62.5" y="-87.9" font-family="Helvetica,sans-Serif" font-size="12.00">ExFatVolume::ls</text>
</a>
</g>
</g>
<!-- Node27&#45;&gt;Node29 -->
<g id="edge29" class="edge">
<title>Node27&#45;&gt;Node29</title>
<path fill="none" stroke="midnightblue" d="M177.64,-118.92C154.95,-113.37 128.29,-106.85 106.44,-101.51"/>
<polygon fill="midnightblue" stroke="midnightblue" points="176.88,-122.34 187.42,-121.32 178.54,-115.54 176.88,-122.34"/>
</g>
<!-- Node32 -->
<g id="node32" class="node">
<title>Node32</title>
<g id="a_node32"><a xlink:href="../../d4/da1/class_fs_file.html#ab2f85961e3831d0d654da862becb7433" target="_top" xlink:title=" ">
<polygon fill="white" stroke="black" points="0,-40.5 0,-61.5 125,-61.5 125,-40.5 0,-40.5"/>
<text text-anchor="middle" x="62.5" y="-47.9" font-family="Helvetica,sans-Serif" font-size="12.00">FsFile::openNextFile</text>
</a>
</g>
</g>
<!-- Node31&#45;&gt;Node32 -->
<g id="edge32" class="edge">
<title>Node31&#45;&gt;Node32</title>
<path fill="none" stroke="midnightblue" d="M151.23,-51C142.48,-51 133.63,-51 125.1,-51"/>
<polygon fill="midnightblue" stroke="midnightblue" points="151.44,-54.5 161.44,-51 151.44,-47.5 151.44,-54.5"/>
</g>
<!-- Node35 -->
<g id="node35" class="node">
<title>Node35</title>
<g id="a_node35"><a xlink:href="../../d5/d14/class_ex_fat_file.html#a095c0a865e5e5b6463c3dc0c90680635" target="_top" xlink:title=" ">
<polygon fill="white" stroke="black" points="843,-162.5 843,-183.5 970,-183.5 970,-162.5 843,-162.5"/>
<text text-anchor="middle" x="906.5" y="-169.9" font-family="Helvetica,sans-Serif" font-size="12.00">ExFatFile::printName</text>
</a>
</g>
</g>
<!-- Node34&#45;&gt;Node35 -->
<g id="edge35" class="edge">
<title>Node34&#45;&gt;Node35</title>
<path fill="none" stroke="midnightblue" d="M995.35,-173C986.92,-173 978.42,-173 970.19,-173"/>
<polygon fill="midnightblue" stroke="midnightblue" points="995.57,-176.5 1005.57,-173 995.57,-169.5 995.57,-176.5"/>
</g>
<!-- Node35&#45;&gt;Node27 -->
<g id="edge36" class="edge">
<title>Node35&#45;&gt;Node27</title>
<path fill="none" stroke="midnightblue" d="M832.39,-168.46C689.84,-159.61 379.1,-140.32 268.81,-133.47"/>
<polygon fill="midnightblue" stroke="midnightblue" points="832.57,-171.98 842.77,-169.11 833,-164.99 832.57,-171.98"/>
</g>
<!-- Node36&#45;&gt;Node35 -->
<g id="edge38" class="edge">
<title>Node36&#45;&gt;Node35</title>
<path fill="none" stroke="midnightblue" d="M1018.9,-200.09C996.86,-194.73 971.6,-188.59 950.72,-183.51"/>
<polygon fill="midnightblue" stroke="midnightblue" points="1018.24,-203.53 1028.78,-202.49 1019.89,-196.73 1018.24,-203.53"/>
</g>
<!-- Node37&#45;&gt;Node20 -->
<g id="edge41" class="edge">
<title>Node37&#45;&gt;Node20</title>
<path fill="none" stroke="midnightblue" d="M338.71,-263.91C317,-269.27 292.13,-275.41 271.56,-280.49"/>
<polygon fill="midnightblue" stroke="midnightblue" points="339.57,-267.3 348.44,-261.51 337.89,-260.51 339.57,-267.3"/>
</g>
<!-- Node37&#45;&gt;Node21 -->
<g id="edge42" class="edge">
<title>Node37&#45;&gt;Node21</title>
<path fill="none" stroke="midnightblue" d="M325.5,-251C315.15,-251 304.45,-251 294.11,-251"/>
<polygon fill="midnightblue" stroke="midnightblue" points="325.7,-254.5 335.7,-251 325.7,-247.5 325.7,-254.5"/>
</g>
<!-- Node37&#45;&gt;Node23 -->
<g id="edge43" class="edge">
<title>Node37&#45;&gt;Node23</title>
<path fill="none" stroke="midnightblue" d="M368.48,-267.47C349.61,-280.68 321.57,-298.93 295,-311 287.04,-314.62 278.26,-317.79 269.76,-320.49"/>
<polygon fill="midnightblue" stroke="midnightblue" points="370.59,-270.27 376.72,-261.62 366.54,-264.56 370.59,-270.27"/>
</g>
<!-- Node38 -->
<g id="node38" class="node">
<title>Node38</title>
<g id="a_node38"><a xlink:href="../../d7/d76/class_fs_base_file.html#a8d21f9df86e846e34c3bb11cf7db21bc" target="_top" xlink:title=" ">
<polygon fill="white" stroke="black" points="167,-200.5 167,-221.5 289,-221.5 289,-200.5 167,-200.5"/>
<text text-anchor="middle" x="228" y="-207.9" font-family="Helvetica,sans-Serif" font-size="12.00">FsBaseFile::remove</text>
</a>
</g>
</g>
<!-- Node37&#45;&gt;Node38 -->
<g id="edge40" class="edge">
<title>Node37&#45;&gt;Node38</title>
<path fill="none" stroke="midnightblue" d="M338.71,-238.09C317,-232.73 292.13,-226.59 271.56,-221.51"/>
<polygon fill="midnightblue" stroke="midnightblue" points="337.89,-241.49 348.44,-240.49 339.57,-234.7 337.89,-241.49"/>
</g>
<!-- Node39 -->
<g id="node39" class="node">
<title>Node39</title>
<g id="a_node39"><a xlink:href="../../d5/d14/class_ex_fat_file.html#a0165e0fde12a53e419bd92cd37f9cfed" target="_top" xlink:title=" ">
<polygon fill="white" stroke="black" points="178,-160.5 178,-181.5 278,-181.5 278,-160.5 178,-160.5"/>
<text text-anchor="middle" x="228" y="-167.9" font-family="Helvetica,sans-Serif" font-size="12.00">ExFatFile::rmdir</text>
</a>
</g>
</g>
<!-- Node37&#45;&gt;Node39 -->
<g id="edge44" class="edge">
<title>Node37&#45;&gt;Node39</title>
<path fill="none" stroke="midnightblue" d="M364.08,-235.22C353.67,-229.02 341.72,-221.78 331,-215 314.75,-204.72 312.39,-199.21 295,-191 287.31,-187.37 278.81,-184.22 270.54,-181.55"/>
<polygon fill="midnightblue" stroke="midnightblue" points="362.36,-238.27 372.75,-240.35 365.93,-232.24 362.36,-238.27"/>
</g>
<!-- Node39&#45;&gt;Node24 -->
<g id="edge46" class="edge">
<title>Node39&#45;&gt;Node24</title>
<path fill="none" stroke="midnightblue" d="M168.77,-185.88C166.04,-187.42 163.43,-189.12 161,-191 107.94,-231.96 76.94,-310.64 67.02,-339.26"/>
<polygon fill="midnightblue" stroke="midnightblue" points="170.34,-189 177.79,-181.47 167.27,-182.71 170.34,-189"/>
</g>
<!-- Node40 -->
<g id="node40" class="node">
<title>Node40</title>
<g id="a_node40"><a xlink:href="../../d7/d76/class_fs_base_file.html#ac47870fd89b0849cda33f2780918a286" target="_top" xlink:title=" ">
<polygon fill="white" stroke="black" points="7.5,-160.5 7.5,-181.5 117.5,-181.5 117.5,-160.5 7.5,-160.5"/>
<text text-anchor="middle" x="62.5" y="-167.9" font-family="Helvetica,sans-Serif" font-size="12.00">FsBaseFile::rmdir</text>
</a>
</g>
</g>
<!-- Node39&#45;&gt;Node40 -->
<g id="edge45" class="edge">
<title>Node39&#45;&gt;Node40</title>
<path fill="none" stroke="midnightblue" d="M167.92,-171C151.51,-171 133.78,-171 117.66,-171"/>
<polygon fill="midnightblue" stroke="midnightblue" points="167.94,-174.5 177.94,-171 167.94,-167.5 167.94,-174.5"/>
</g>
<!-- Node42 -->
<g id="node42" class="node">
<title>Node42</title>
<g id="a_node42"><a xlink:href="../../d5/d14/class_ex_fat_file.html#a2cb3638069afd2d01b79e5dff1a66f55" target="_top" xlink:title=" ">
<polygon fill="white" stroke="black" points="858.5,-435.5 858.5,-456.5 954.5,-456.5 954.5,-435.5 858.5,-435.5"/>
<text text-anchor="middle" x="906.5" y="-442.9" font-family="Helvetica,sans-Serif" font-size="12.00">ExFatFile::sync</text>
</a>
</g>
</g>
<!-- Node41&#45;&gt;Node42 -->
<g id="edge48" class="edge">
<title>Node41&#45;&gt;Node42</title>
<path fill="none" stroke="midnightblue" d="M1017.62,-419.89C996.35,-424.94 972.26,-430.65 952.05,-435.44"/>
<polygon fill="midnightblue" stroke="midnightblue" points="1018.56,-423.27 1027.48,-417.55 1016.95,-416.46 1018.56,-423.27"/>
</g>
<!-- Node42&#45;&gt;Node6 -->
<g id="edge59" class="edge">
<title>Node42&#45;&gt;Node6</title>
<path fill="none" stroke="midnightblue" d="M855.65,-433.25C840.17,-429.86 822.98,-426.68 807,-425 742.47,-418.2 725.59,-418.79 661,-425 641.6,-426.87 620.42,-430.67 602.34,-434.46"/>
<polygon fill="midnightblue" stroke="midnightblue" points="855.02,-436.7 865.55,-435.49 856.57,-429.87 855.02,-436.7"/>
</g>
<!-- Node42&#45;&gt;Node23 -->
<g id="edge61" class="edge">
<title>Node42&#45;&gt;Node23</title>
<path fill="none" stroke="midnightblue" d="M865.22,-432.24C847.52,-426.58 826.39,-420.35 807,-416 617.73,-373.51 388.67,-347.07 284.9,-336.41"/>
<polygon fill="midnightblue" stroke="midnightblue" points="864.61,-435.72 875.2,-435.49 866.77,-429.07 864.61,-435.72"/>
</g>
<!-- Node43 -->
<g id="node43" class="node">
<title>Node43</title>
<g id="a_node43"><a xlink:href="../../d5/d14/class_ex_fat_file.html#abfbf7534ac962c1572da8615dc0c518f" target="_top" xlink:title=" ">
<polygon fill="white" stroke="black" points="661,-474.5 661,-495.5 807,-495.5 807,-474.5 661,-474.5"/>
<text text-anchor="middle" x="734" y="-481.9" font-family="Helvetica,sans-Serif" font-size="12.00">ExFatFile::addDirCluster</text>
</a>
</g>
</g>
<!-- Node42&#45;&gt;Node43 -->
<g id="edge49" class="edge">
<title>Node42&#45;&gt;Node43</title>
<path fill="none" stroke="midnightblue" d="M849.43,-458.82C827.32,-463.88 802.22,-469.62 781.18,-474.44"/>
<polygon fill="midnightblue" stroke="midnightblue" points="850.39,-462.2 859.36,-456.55 848.83,-455.37 850.39,-462.2"/>
</g>
<!-- Node44 -->
<g id="node44" class="node">
<title>Node44</title>
<g id="a_node44"><a xlink:href="../../d5/d14/class_ex_fat_file.html#aa6b349f3c48566b9a43cdbcd5912a1ec" target="_top" xlink:title=" ">
<polygon fill="white" stroke="black" points="506,-580.5 506,-601.5 608,-601.5 608,-580.5 506,-580.5"/>
<text text-anchor="middle" x="557" y="-587.9" font-family="Helvetica,sans-Serif" font-size="12.00">ExFatFile::mkdir</text>
</a>
</g>
</g>
<!-- Node42&#45;&gt;Node44 -->
<g id="edge58" class="edge">
<title>Node42&#45;&gt;Node44</title>
<path fill="none" stroke="midnightblue" d="M849.16,-461.7C846.95,-463.3 844.89,-465.06 843,-467 804.78,-506.31 850.67,-551.84 807,-585 744.15,-632.72 644.36,-615.45 592.25,-601.6"/>
<polygon fill="midnightblue" stroke="midnightblue" points="851.41,-464.43 858.22,-456.31 847.83,-458.42 851.41,-464.43"/>
</g>
<!-- Node45 -->
<g id="node45" class="node">
<title>Node45</title>
<g id="a_node45"><a xlink:href="../../d5/d14/class_ex_fat_file.html#a7ba9e04099bdf8fd34220ebfdde72867" target="_top" xlink:title=" ">
<polygon fill="white" stroke="red" points="506.5,-628.5 506.5,-649.5 607.5,-649.5 607.5,-628.5 506.5,-628.5"/>
<text text-anchor="middle" x="557" y="-635.9" font-family="Helvetica,sans-Serif" font-size="12.00">ExFatFile::close</text>
</a>
</g>
</g>
<!-- Node42&#45;&gt;Node45 -->
<g id="edge52" class="edge">
<title>Node42&#45;&gt;Node45</title>
<path fill="none" stroke="midnightblue" d="M849.62,-461.13C847.23,-462.88 845,-464.83 843,-467 797.48,-516.52 857.78,-569.88 807,-614 752.23,-661.59 662.96,-657.73 607.5,-649.29"/>
<polygon fill="midnightblue" stroke="midnightblue" points="851.51,-464.08 858.3,-455.94 847.92,-458.07 851.51,-464.08"/>
</g>
<!-- Node61 -->
<g id="node47" class="node">
<title>Node61</title>
<g id="a_node47"><a xlink:href="../../d5/d14/class_ex_fat_file.html#ab16f38103a13394bffd8aa5be830c4fe" target="_top" xlink:title=" ">
<polygon fill="white" stroke="black" points="686,-554.5 686,-575.5 782,-575.5 782,-554.5 686,-554.5"/>
<text text-anchor="middle" x="734" y="-561.9" font-family="Helvetica,sans-Serif" font-size="12.00">ExFatFile::flush</text>
</a>
</g>
</g>
<!-- Node42&#45;&gt;Node61 -->
<g id="edge57" class="edge">
<title>Node42&#45;&gt;Node61</title>
<path fill="none" stroke="midnightblue" d="M850.5,-461.37C847.83,-463.06 845.31,-464.93 843,-467 814.58,-492.5 836.09,-520.27 807,-545 799.88,-551.05 791.08,-555.28 782.09,-558.23"/>
<polygon fill="midnightblue" stroke="midnightblue" points="852.25,-464.4 859.4,-456.59 848.93,-458.24 852.25,-464.4"/>
</g>
<!-- Node62 -->
<g id="node48" class="node">
<title>Node62</title>
<g id="a_node48"><a xlink:href="../../d5/d14/class_ex_fat_file.html#a35a5093014e80965e49c84b61780556f" target="_top" xlink:title=" ">
<polygon fill="white" stroke="black" points="668,-514.5 668,-535.5 800,-535.5 800,-514.5 668,-514.5"/>
<text text-anchor="middle" x="734" y="-521.9" font-family="Helvetica,sans-Serif" font-size="12.00">ExFatFile::preAllocate</text>
</a>
</g>
</g>
<!-- Node42&#45;&gt;Node62 -->
<g id="edge60" class="edge">
<title>Node42&#45;&gt;Node62</title>
<path fill="none" stroke="midnightblue" d="M855.12,-460.46C850.89,-462.4 846.79,-464.58 843,-467 823.39,-479.52 826.93,-493.01 807,-505 800.66,-508.81 793.58,-511.92 786.4,-514.44"/>
<polygon fill="midnightblue" stroke="midnightblue" points="856.61,-463.63 864.5,-456.56 853.92,-457.17 856.61,-463.63"/>
</g>
<!-- Node42&#45;&gt;Node63 -->
<g id="edge62" class="edge">
<title>Node42&#45;&gt;Node63</title>
<path fill="none" stroke="midnightblue" d="M895.46,-426.26C880.11,-397.94 848.19,-345.92 807,-316 798.54,-309.86 788.45,-305.12 778.53,-301.52"/>
<polygon fill="midnightblue" stroke="midnightblue" points="892.43,-428 900.19,-435.21 898.62,-424.73 892.43,-428"/>
</g>
<!-- Node64 -->
<g id="node50" class="node">
<title>Node64</title>
<g id="a_node50"><a xlink:href="../../d5/d14/class_ex_fat_file.html#aca37955d3c7cce40f7f9e1ea078e5636" target="_top" xlink:title=" ">
<polygon fill="white" stroke="red" points="677,-434.5 677,-455.5 791,-455.5 791,-434.5 677,-434.5"/>
<text text-anchor="middle" x="734" y="-441.9" font-family="Helvetica,sans-Serif" font-size="12.00">ExFatFile::truncate</text>
</a>
</g>
</g>
<!-- Node42&#45;&gt;Node64 -->
<g id="edge63" class="edge">
<title>Node42&#45;&gt;Node64</title>
<path fill="none" stroke="midnightblue" d="M848.46,-445.67C830.04,-445.56 809.64,-445.44 791.27,-445.33"/>
<polygon fill="midnightblue" stroke="midnightblue" points="848.44,-449.17 858.46,-445.72 848.48,-442.17 848.44,-449.17"/>
</g>
<!-- Node43&#45;&gt;Node6 -->
<g id="edge51" class="edge">
<title>Node43&#45;&gt;Node6</title>
<path fill="none" stroke="midnightblue" d="M677.15,-472.23C653.55,-466.84 626.39,-460.63 603.98,-455.51"/>
<polygon fill="midnightblue" stroke="midnightblue" points="676.49,-475.67 687.02,-474.49 678.05,-468.85 676.49,-475.67"/>
</g>
<!-- Node43&#45;&gt;Node44 -->
<g id="edge50" class="edge">
<title>Node43&#45;&gt;Node44</title>
<path fill="none" stroke="midnightblue" d="M670.88,-499.49C667.44,-501.14 664.12,-502.97 661,-505 639.84,-518.8 643.95,-532.29 625,-549 610.79,-561.53 592.43,-572.75 578.52,-580.44"/>
<polygon fill="midnightblue" stroke="midnightblue" points="672.36,-502.67 680.22,-495.56 669.64,-496.22 672.36,-502.67"/>
</g>
<!-- Node45&#45;&gt;Node7 -->
<g id="edge55" class="edge">
<title>Node45&#45;&gt;Node7</title>
<path fill="none" stroke="midnightblue" d="M496.13,-639C478.69,-639 459.82,-639 443.05,-639"/>
<polygon fill="midnightblue" stroke="midnightblue" points="496.21,-642.5 506.21,-639 496.21,-635.5 496.21,-642.5"/>
</g>
<!-- Node45&#45;&gt;Node10 -->
<g id="edge56" class="edge">
<title>Node45&#45;&gt;Node10</title>
<path fill="none" stroke="midnightblue" d="M512.67,-624.56C504.41,-620.81 496.13,-616.3 489,-611 447.26,-579.94 412.66,-526.94 399.12,-504.51"/>
<polygon fill="midnightblue" stroke="midnightblue" points="511.35,-627.8 521.92,-628.46 514.07,-621.35 511.35,-627.8"/>
</g>
<!-- Node45&#45;&gt;Node27 -->
<g id="edge54" class="edge">
<title>Node45&#45;&gt;Node27</title>
<path fill="none" stroke="midnightblue" d="M502.51,-623.38C497.32,-620.02 492.64,-615.94 489,-611 388.41,-474.39 548.55,-371.18 453,-231 441.92,-214.74 313.26,-158.33 295,-151 286.33,-147.52 276.82,-144.31 267.78,-141.52"/>
<polygon fill="midnightblue" stroke="midnightblue" points="501.18,-626.64 511.63,-628.38 504.55,-620.5 501.18,-626.64"/>
</g>
<!-- Node46 -->
<g id="node46" class="node">
<title>Node46</title>
<g id="a_node46"><a xlink:href="../../da/d35/class_ex_fat_volume.html#abdc1addfc9474bf42cab31bcb49b4b65" target="_top" xlink:title=" ">
<polygon fill="white" stroke="red" points="332.5,-668.5 332.5,-689.5 451.5,-689.5 451.5,-668.5 332.5,-668.5"/>
<text text-anchor="middle" x="392" y="-675.9" font-family="Helvetica,sans-Serif" font-size="12.00">ExFatVolume::chdir</text>
</a>
</g>
</g>
<!-- Node45&#45;&gt;Node46 -->
<g id="edge53" class="edge">
<title>Node45&#45;&gt;Node46</title>
<path fill="none" stroke="midnightblue" d="M503.39,-651.91C481.54,-657.27 456.52,-663.41 435.82,-668.49"/>
<polygon fill="midnightblue" stroke="midnightblue" points="504.3,-655.29 513.17,-649.51 502.63,-648.49 504.3,-655.29"/>
</g>
<!-- Node64&#45;&gt;Node6 -->
<g id="edge64" class="edge">
<title>Node64&#45;&gt;Node6</title>
<path fill="none" stroke="midnightblue" d="M666.5,-445C652.99,-445 638.76,-445 625.23,-445"/>
<polygon fill="midnightblue" stroke="midnightblue" points="666.67,-448.5 676.67,-445 666.67,-441.5 666.67,-448.5"/>
</g>
<!-- Node64&#45;&gt;Node25 -->
<g id="edge65" class="edge">
<title>Node64&#45;&gt;Node25</title>
<path fill="none" stroke="midnightblue" d="M680.66,-458.44C673.99,-460.47 667.3,-462.67 661,-465 509.17,-521.07 435.53,-495.44 331,-619 292.28,-664.77 336.88,-706.1 295,-749 291.24,-752.86 286.76,-755.97 281.93,-758.49"/>
<polygon fill="midnightblue" stroke="midnightblue" points="681.76,-461.76 690.37,-455.58 679.79,-455.05 681.76,-461.76"/>
</g>
</g>
</svg>
