<?xml version="1.0" encoding="UTF-8" standalone="no"?>
<!DOCTYPE svg PUBLIC "-//W3C//DTD SVG 1.1//EN"
 "http://www.w3.org/Graphics/SVG/1.1/DTD/svg11.dtd">
<!-- Generated by graphviz version 2.47.3 (20210619.1520)
 -->
<!-- Title: ExFatFile::getName8 Pages: 1 -->
<!--zoomable 346 -->
<svg id="main" version="1.1" xmlns="http://www.w3.org/2000/svg" xmlns:xlink="http://www.w3.org/1999/xlink" xml:space="preserve" onload="init(evt)">
<style type="text/css"><![CDATA[
.edge:hover path { stroke: red; }
.edge:hover polygon { stroke: red; fill: red; }
]]></style>
<script type="text/javascript"><![CDATA[
var edges = document.getElementsByTagName('g');
if (edges && edges.length) {
  for (var i=0;i<edges.length;i++) {
    if (edges[i].id.substr(0,4)=='edge') {
      edges[i].setAttribute('class','edge');
    }
  }
}
]]></script>
        <defs>
                <circle id="rim" cx="0" cy="0" r="7"/>
                <circle id="rim2" cx="0" cy="0" r="3.5"/>
                <g id="zoomPlus">
                        <use xlink:href="#rim" fill="#404040">
                                <set attributeName="fill" to="#808080" begin="zoomplus.mouseover" end="zoomplus.mouseout"/>
                        </use>
                        <path d="M-4,0h8M0,-4v8" fill="none" stroke="white" stroke-width="1.5" pointer-events="none"/>
                </g>
                <g id="zoomMin">
                        <use xlink:href="#rim" fill="#404040">
                                <set attributeName="fill" to="#808080" begin="zoomminus.mouseover" end="zoomminus.mouseout"/>
                        </use>
                        <path d="M-4,0h8" fill="none" stroke="white" stroke-width="1.5" pointer-events="none"/>
                </g>
                <g id="dirArrow">
                        <path fill="none" stroke="white" stroke-width="1.5" d="M0,-3.0v7 M-2.5,-0.5L0,-3.0L2.5,-0.5"/>
                </g>
               <g id="resetDef">
                       <use xlink:href="#rim2" fill="#404040">
                               <set attributeName="fill" to="#808080" begin="reset.mouseover" end="reset.mouseout"/>
                       </use>
               </g>
        </defs>

<script type="text/javascript">
var viewWidth = 870;
var viewHeight = 346;
var sectionId = 'dynsection-45';
</script>
<script xlink:href="../../svgpan.js"/>
<svg id="graph" class="graph">
<g id="viewport">
<title>ExFatFile::getName8</title>
<polygon fill="white" stroke="transparent" points="-4,4 -4,-341.5 866,-341.5 866,4 -4,4"/>
<!-- Node1 -->
<g id="node1" class="node">
<title>Node1</title>
<g id="a_node1"><a xlink:title=" ">
<polygon fill="#bfbfbf" stroke="black" points="0,-140.5 0,-161.5 128,-161.5 128,-140.5 0,-140.5"/>
<text text-anchor="middle" x="64" y="-147.9" font-family="Helvetica,sans-Serif" font-size="12.00">ExFatFile::getName8</text>
</a>
</g>
</g>
<!-- Node2 -->
<g id="node2" class="node">
<title>Node2</title>
<g id="a_node2"><a xlink:href="../../db/d68/namespace_fs_utf.html#ae3e939e5e8a23e88ae79df962658294d" target="_top" xlink:title=" ">
<polygon fill="white" stroke="black" points="185,-280.5 185,-301.5 278,-301.5 278,-280.5 185,-280.5"/>
<text text-anchor="middle" x="231.5" y="-287.9" font-family="Helvetica,sans-Serif" font-size="12.00">FsUtf::cpToMb</text>
</a>
</g>
</g>
<!-- Node1&#45;&gt;Node2 -->
<g id="edge1" class="edge">
<title>Node1&#45;&gt;Node2</title>
<path fill="none" stroke="midnightblue" d="M70.88,-161.77C84.24,-185.24 119.24,-241.25 164,-271 167.56,-273.36 171.41,-275.46 175.39,-277.31"/>
<polygon fill="midnightblue" stroke="midnightblue" points="174.31,-280.65 184.89,-281.21 176.96,-274.17 174.31,-280.65"/>
</g>
<!-- Node3 -->
<g id="node3" class="node">
<title>Node3</title>
<g id="a_node3"><a xlink:href="../../d5/d14/class_ex_fat_file.html#aacf9671d6788b7fff5ef2edd95b52008" target="_top" xlink:title=" ">
<polygon fill="white" stroke="black" points="171,-240.5 171,-261.5 292,-261.5 292,-240.5 171,-240.5"/>
<text text-anchor="middle" x="231.5" y="-247.9" font-family="Helvetica,sans-Serif" font-size="12.00">ExFatFile::dirCache</text>
</a>
</g>
</g>
<!-- Node1&#45;&gt;Node3 -->
<g id="edge2" class="edge">
<title>Node1&#45;&gt;Node3</title>
<path fill="none" stroke="midnightblue" d="M75.28,-161.64C92.25,-178.63 127.85,-211.91 164,-231 168.18,-233.21 172.63,-235.21 177.19,-237.01"/>
<polygon fill="midnightblue" stroke="midnightblue" points="176.01,-240.31 186.61,-240.44 178.41,-233.73 176.01,-240.31"/>
</g>
<!-- Node38 -->
<g id="node10" class="node">
<title>Node38</title>
<g id="a_node10"><a xlink:href="../../d1/db3/_fs_structs_8h.html#a89aef4aa8e8032eab2982d660e7b8a81" target="_top" xlink:title=" ">
<polygon fill="white" stroke="black" points="201.5,-200.5 201.5,-221.5 261.5,-221.5 261.5,-200.5 201.5,-200.5"/>
<text text-anchor="middle" x="231.5" y="-207.9" font-family="Helvetica,sans-Serif" font-size="12.00">getLe16</text>
</a>
</g>
</g>
<!-- Node1&#45;&gt;Node38 -->
<g id="edge10" class="edge">
<title>Node1&#45;&gt;Node38</title>
<path fill="none" stroke="midnightblue" d="M89.58,-161.66C109.47,-170.11 138.29,-181.96 164,-191 172.85,-194.11 182.47,-197.18 191.57,-199.95"/>
<polygon fill="midnightblue" stroke="midnightblue" points="190.6,-203.31 201.18,-202.81 192.6,-196.6 190.6,-203.31"/>
</g>
<!-- Node39 -->
<g id="node11" class="node">
<title>Node39</title>
<g id="a_node11"><a xlink:href="../../db/d68/namespace_fs_utf.html#a57c68964f6a1ca905bb103ad5dc65f0b" target="_top" xlink:title=" ">
<polygon fill="white" stroke="black" points="164,-160.5 164,-181.5 299,-181.5 299,-160.5 164,-160.5"/>
<text text-anchor="middle" x="231.5" y="-167.9" font-family="Helvetica,sans-Serif" font-size="12.00">FsUtf::isHighSurrogate</text>
</a>
</g>
</g>
<!-- Node1&#45;&gt;Node39 -->
<g id="edge11" class="edge">
<title>Node1&#45;&gt;Node39</title>
<path fill="none" stroke="midnightblue" d="M128.04,-158.62C136.44,-159.63 145.14,-160.68 153.74,-161.72"/>
<polygon fill="midnightblue" stroke="midnightblue" points="153.43,-165.21 163.78,-162.94 154.27,-158.26 153.43,-165.21"/>
</g>
<!-- Node40 -->
<g id="node12" class="node">
<title>Node40</title>
<g id="a_node12"><a xlink:href="../../db/d68/namespace_fs_utf.html#ac0bcc5e1a0b3abbcda4a61d06896b680" target="_top" xlink:title=" ">
<polygon fill="white" stroke="black" points="165,-120.5 165,-141.5 298,-141.5 298,-120.5 165,-120.5"/>
<text text-anchor="middle" x="231.5" y="-127.9" font-family="Helvetica,sans-Serif" font-size="12.00">FsUtf::isLowSurrogate</text>
</a>
</g>
</g>
<!-- Node1&#45;&gt;Node40 -->
<g id="edge12" class="edge">
<title>Node1&#45;&gt;Node40</title>
<path fill="none" stroke="midnightblue" d="M128.04,-143.38C136.8,-142.32 145.88,-141.23 154.84,-140.14"/>
<polygon fill="midnightblue" stroke="midnightblue" points="155.38,-143.6 164.89,-138.93 154.54,-136.65 155.38,-143.6"/>
</g>
<!-- Node41 -->
<g id="node13" class="node">
<title>Node41</title>
<g id="a_node13"><a xlink:href="../../d5/d14/class_ex_fat_file.html#a804c34bbe3ebefe2b6c1d77ff8d49a35" target="_top" xlink:title=" ">
<polygon fill="white" stroke="black" points="176.5,-80.5 176.5,-101.5 286.5,-101.5 286.5,-80.5 176.5,-80.5"/>
<text text-anchor="middle" x="231.5" y="-87.9" font-family="Helvetica,sans-Serif" font-size="12.00">ExFatFile::isOpen</text>
</a>
</g>
</g>
<!-- Node1&#45;&gt;Node41 -->
<g id="edge13" class="edge">
<title>Node1&#45;&gt;Node41</title>
<path fill="none" stroke="midnightblue" d="M89.58,-140.34C109.47,-131.89 138.29,-120.04 164,-111 170.34,-108.77 177.08,-106.56 183.73,-104.47"/>
<polygon fill="midnightblue" stroke="midnightblue" points="184.84,-107.79 193.37,-101.51 182.78,-101.1 184.84,-107.79"/>
</g>
<!-- Node42 -->
<g id="node14" class="node">
<title>Node42</title>
<g id="a_node14"><a xlink:href="../../db/d68/namespace_fs_utf.html#a9abb800aeefa768c3e20c250bf410a44" target="_top" xlink:title=" ">
<polygon fill="white" stroke="black" points="176,-40.5 176,-61.5 287,-61.5 287,-40.5 176,-40.5"/>
<text text-anchor="middle" x="231.5" y="-47.9" font-family="Helvetica,sans-Serif" font-size="12.00">FsUtf::isSurrogate</text>
</a>
</g>
</g>
<!-- Node1&#45;&gt;Node42 -->
<g id="edge14" class="edge">
<title>Node1&#45;&gt;Node42</title>
<path fill="none" stroke="midnightblue" d="M75.28,-140.36C92.25,-123.37 127.85,-90.09 164,-71 168.18,-68.79 172.63,-66.79 177.19,-64.99"/>
<polygon fill="midnightblue" stroke="midnightblue" points="178.41,-68.27 186.61,-61.56 176.01,-61.69 178.41,-68.27"/>
</g>
<!-- Node43 -->
<g id="node15" class="node">
<title>Node43</title>
<g id="a_node15"><a xlink:href="../../db/d68/namespace_fs_utf.html#adc4af21ab4808816c022cc8288ab7573" target="_top" xlink:title=" ">
<polygon fill="white" stroke="black" points="182,-0.5 182,-21.5 281,-21.5 281,-0.5 182,-0.5"/>
<text text-anchor="middle" x="231.5" y="-7.9" font-family="Helvetica,sans-Serif" font-size="12.00">FsUtf::u16ToCp</text>
</a>
</g>
</g>
<!-- Node1&#45;&gt;Node43 -->
<g id="edge15" class="edge">
<title>Node1&#45;&gt;Node43</title>
<path fill="none" stroke="midnightblue" d="M70.88,-140.23C84.24,-116.76 119.24,-60.75 164,-31 166.95,-29.04 170.1,-27.26 173.37,-25.66"/>
<polygon fill="midnightblue" stroke="midnightblue" points="175.01,-28.76 182.8,-21.57 172.23,-22.34 175.01,-28.76"/>
</g>
<!-- Node4 -->
<g id="node4" class="node">
<title>Node4</title>
<g id="a_node4"><a xlink:href="../../d4/de9/class_ex_fat_partition.html#a854529565ac49818bce4c3b2ceefedee" target="_top" xlink:title=" ">
<polygon fill="white" stroke="black" points="335,-263.5 335,-284.5 480,-284.5 480,-263.5 335,-263.5"/>
<text text-anchor="middle" x="407.5" y="-270.9" font-family="Helvetica,sans-Serif" font-size="12.00">ExFatPartition::dirCache</text>
</a>
</g>
</g>
<!-- Node3&#45;&gt;Node4 -->
<g id="edge3" class="edge">
<title>Node3&#45;&gt;Node4</title>
<path fill="none" stroke="midnightblue" d="M292.38,-258.92C302.84,-260.3 313.89,-261.76 324.82,-263.2"/>
<polygon fill="midnightblue" stroke="midnightblue" points="324.43,-266.68 334.8,-264.52 325.35,-259.74 324.43,-266.68"/>
</g>
<!-- Node34 -->
<g id="node7" class="node">
<title>Node34</title>
<g id="a_node7"><a xlink:href="../../d4/de9/class_ex_fat_partition.html#aeaceb6c3560f8d372b71b99e3b544610" target="_top" xlink:title=" ">
<polygon fill="white" stroke="black" points="338.5,-217.5 338.5,-238.5 476.5,-238.5 476.5,-217.5 338.5,-217.5"/>
<text text-anchor="middle" x="407.5" y="-224.9" font-family="Helvetica,sans-Serif" font-size="12.00">ExFatPartition::dirSeek</text>
</a>
</g>
</g>
<!-- Node3&#45;&gt;Node34 -->
<g id="edge6" class="edge">
<title>Node3&#45;&gt;Node34</title>
<path fill="none" stroke="midnightblue" d="M292.38,-243.08C303.98,-241.55 316.29,-239.92 328.37,-238.33"/>
<polygon fill="midnightblue" stroke="midnightblue" points="328.99,-241.78 338.44,-237 328.07,-234.84 328.99,-241.78"/>
</g>
<!-- Node5 -->
<g id="node5" class="node">
<title>Node5</title>
<g id="a_node5"><a xlink:href="../../d4/de9/class_ex_fat_partition.html#a80c3935eee856eaa3938e80a32139722" target="_top" xlink:title=" ">
<polygon fill="white" stroke="black" points="516,-303 516,-337 671,-337 671,-303 516,-303"/>
<text text-anchor="start" x="524" y="-323.4" font-family="Helvetica,sans-Serif" font-size="12.00">ExFatPartition::clusterStart</text>
<text text-anchor="middle" x="593.5" y="-310.4" font-family="Helvetica,sans-Serif" font-size="12.00">Sector</text>
</a>
</g>
</g>
<!-- Node4&#45;&gt;Node5 -->
<g id="edge4" class="edge">
<title>Node4&#45;&gt;Node5</title>
<path fill="none" stroke="midnightblue" d="M450.71,-284.55C469.58,-289.27 492.43,-294.98 514.24,-300.43"/>
<polygon fill="midnightblue" stroke="midnightblue" points="513.61,-303.89 524.16,-302.92 515.31,-297.09 513.61,-303.89"/>
</g>
<!-- Node6 -->
<g id="node6" class="node">
<title>Node6</title>
<g id="a_node6"><a xlink:href="../../d4/de9/class_ex_fat_partition.html#a119f5be5695880d2a16f1c0b3c3ff369" target="_top" xlink:title=" ">
<polygon fill="white" stroke="red" points="707,-210 707,-244 862,-244 862,-210 707,-210"/>
<text text-anchor="start" x="715" y="-230.4" font-family="Helvetica,sans-Serif" font-size="12.00">ExFatPartition::dataCache</text>
<text text-anchor="middle" x="784.5" y="-217.4" font-family="Helvetica,sans-Serif" font-size="12.00">Prepare</text>
</a>
</g>
</g>
<!-- Node4&#45;&gt;Node6 -->
<g id="edge5" class="edge">
<title>Node4&#45;&gt;Node6</title>
<path fill="none" stroke="midnightblue" d="M480.18,-272.13C533.17,-269.94 606.93,-265.21 671,-255 684.75,-252.81 699.29,-249.75 713.19,-246.47"/>
<polygon fill="midnightblue" stroke="midnightblue" points="714.28,-249.8 723.17,-244.04 712.63,-243 714.28,-249.8"/>
</g>
<!-- Node35 -->
<g id="node8" class="node">
<title>Node35</title>
<g id="a_node8"><a xlink:href="../../d4/de9/class_ex_fat_partition.html#aedaebff39e7cbae66f226e9c7593b5b6" target="_top" xlink:title=" ">
<polygon fill="white" stroke="black" points="522,-211 522,-245 665,-245 665,-211 522,-211"/>
<text text-anchor="start" x="530" y="-231.4" font-family="Helvetica,sans-Serif" font-size="12.00">ExFatPartition::bytesPer</text>
<text text-anchor="middle" x="593.5" y="-218.4" font-family="Helvetica,sans-Serif" font-size="12.00">ClusterShift</text>
</a>
</g>
</g>
<!-- Node34&#45;&gt;Node35 -->
<g id="edge7" class="edge">
<title>Node34&#45;&gt;Node35</title>
<path fill="none" stroke="midnightblue" d="M476.75,-228C488.14,-228 500.06,-228 511.72,-228"/>
<polygon fill="midnightblue" stroke="midnightblue" points="511.9,-231.5 521.9,-228 511.9,-224.5 511.9,-231.5"/>
</g>
<!-- Node36 -->
<g id="node9" class="node">
<title>Node36</title>
<g id="a_node9"><a xlink:href="../../d4/de9/class_ex_fat_partition.html#a0ab58594882246621e1601aafc6190fb" target="_top" xlink:title=" ">
<polygon fill="white" stroke="red" points="529.5,-170.5 529.5,-191.5 657.5,-191.5 657.5,-170.5 529.5,-170.5"/>
<text text-anchor="middle" x="593.5" y="-177.9" font-family="Helvetica,sans-Serif" font-size="12.00">ExFatPartition::fatGet</text>
</a>
</g>
</g>
<!-- Node34&#45;&gt;Node36 -->
<g id="edge8" class="edge">
<title>Node34&#45;&gt;Node36</title>
<path fill="none" stroke="midnightblue" d="M449.79,-217.45C476.9,-210.53 512.55,-201.42 541.43,-194.04"/>
<polygon fill="midnightblue" stroke="midnightblue" points="542.52,-197.38 551.34,-191.51 540.79,-190.6 542.52,-197.38"/>
</g>
<!-- Node36&#45;&gt;Node6 -->
<g id="edge9" class="edge">
<title>Node36&#45;&gt;Node6</title>
<path fill="none" stroke="midnightblue" d="M637.86,-191.55C657.32,-196.29 680.92,-202.03 703.41,-207.51"/>
<polygon fill="midnightblue" stroke="midnightblue" points="702.76,-210.95 713.3,-209.92 704.42,-204.15 702.76,-210.95"/>
</g>
</g>
</svg>
        <g id="navigator" transform="translate(0 0)" fill="#404254">
                <rect fill="#f2f5e9" fill-opacity="0.5" stroke="#606060" stroke-width=".5" x="0" y="0" width="60" height="60"/>
                <use id="zoomplus" xlink:href="#zoomPlus" x="17" y="9" onmousedown="handleZoom(evt,'in')"/>
                <use id="zoomminus" xlink:href="#zoomMin" x="42" y="9" onmousedown="handleZoom(evt,'out')"/>
                <use id="reset" xlink:href="#resetDef" x="30" y="36" onmousedown="handleReset()"/>
                <g id="arrowUp" xlink:href="#dirArrow" transform="translate(30 24)" onmousedown="handlePan(0,-1)">
                  <use xlink:href="#rim" fill="#404040">
                        <set attributeName="fill" to="#808080" begin="arrowUp.mouseover" end="arrowUp.mouseout"/>
                  </use>
                  <path fill="none" stroke="white" stroke-width="1.5" d="M0,-3.0v7 M-2.5,-0.5L0,-3.0L2.5,-0.5"/>
                </g>
                <g id="arrowRight" xlink:href="#dirArrow" transform="rotate(90) translate(36 -43)" onmousedown="handlePan(1,0)">
                  <use xlink:href="#rim" fill="#404040">
                        <set attributeName="fill" to="#808080" begin="arrowRight.mouseover" end="arrowRight.mouseout"/>
                  </use>
                  <path fill="none" stroke="white" stroke-width="1.5" d="M0,-3.0v7 M-2.5,-0.5L0,-3.0L2.5,-0.5"/>
                </g>
                <g id="arrowDown" xlink:href="#dirArrow" transform="rotate(180) translate(-30 -48)" onmousedown="handlePan(0,1)">
                  <use xlink:href="#rim" fill="#404040">
                        <set attributeName="fill" to="#808080" begin="arrowDown.mouseover" end="arrowDown.mouseout"/>
                  </use>
                  <path fill="none" stroke="white" stroke-width="1.5" d="M0,-3.0v7 M-2.5,-0.5L0,-3.0L2.5,-0.5"/>
                </g>
                <g id="arrowLeft" xlink:href="#dirArrow" transform="rotate(270) translate(-36 17)" onmousedown="handlePan(-1,0)">
                  <use xlink:href="#rim" fill="#404040">
                        <set attributeName="fill" to="#808080" begin="arrowLeft.mouseover" end="arrowLeft.mouseout"/>
                  </use>
                  <path fill="none" stroke="white" stroke-width="1.5" d="M0,-3.0v7 M-2.5,-0.5L0,-3.0L2.5,-0.5"/>
                </g>
        </g>
        <svg viewBox="0 0 15 15" width="100%" height="30px" preserveAspectRatio="xMaxYMin meet">
         <g id="arrow_out" transform="scale(0.3 0.3)">
          <a xlink:href="class_ex_fat_file_ab25875a3e7752f597393825c6dfe0075_cgraph_org.svg" target="_base">
           <rect id="button" ry="5" rx="5" y="6" x="6" height="38" width="38"
                fill="#f2f5e9" fill-opacity="0.5" stroke="#606060" stroke-width="1.0"/>
           <path id="arrow"
             d="M 11.500037,31.436501 C 11.940474,20.09759 22.043105,11.32322 32.158766,21.979434 L 37.068811,17.246167 C 37.068811,17.246167 37.088388,32 37.088388,32 L 22.160133,31.978069 C 22.160133,31.978069 26.997745,27.140456 26.997745,27.140456 C 18.528582,18.264221 13.291696,25.230495 11.500037,31.436501 z"
             style="fill:#404040;"/>
          </a>
         </g>
        </svg>
</svg>
