<?xml version="1.0" encoding="UTF-8" standalone="no"?>
<!DOCTYPE svg PUBLIC "-//W3C//DTD SVG 1.1//EN"
 "http://www.w3.org/Graphics/SVG/1.1/DTD/svg11.dtd">
<!-- Generated by graphviz version 2.47.3 (20210619.1520)
 -->
<!-- Title: ExFatFile::getCreateDateTime Pages: 1 -->
<svg width="1655pt" height="333pt"
 viewBox="0.00 0.00 1655.00 332.59" xmlns="http://www.w3.org/2000/svg" xmlns:xlink="http://www.w3.org/1999/xlink">
<g id="graph0" class="graph" transform="scale(1 1) rotate(0) translate(4 328.59)">
<title>ExFatFile::getCreateDateTime</title>
<polygon fill="white" stroke="transparent" points="-4,4 -4,-328.59 1651,-328.59 1651,4 -4,4"/>
<!-- Node1 -->
<g id="node1" class="node">
<title>Node1</title>
<g id="a_node1"><a xlink:title=" ">
<polygon fill="#bfbfbf" stroke="black" points="0,-142.09 0,-163.09 177,-163.09 177,-142.09 0,-142.09"/>
<text text-anchor="middle" x="88.5" y="-149.49" font-family="Helvetica,sans-Serif" font-size="12.00">ExFatFile::getCreateDateTime</text>
</a>
</g>
</g>
<!-- Node2 -->
<g id="node2" class="node">
<title>Node2</title>
<g id="a_node2"><a xlink:href="../../d4/de9/class_ex_fat_partition.html#a854529565ac49818bce4c3b2ceefedee" target="_top" xlink:title=" ">
<polygon fill="white" stroke="black" points="213,-162.09 213,-183.09 358,-183.09 358,-162.09 213,-162.09"/>
<text text-anchor="middle" x="285.5" y="-169.49" font-family="Helvetica,sans-Serif" font-size="12.00">ExFatPartition::dirCache</text>
</a>
</g>
</g>
<!-- Node1&#45;&gt;Node2 -->
<g id="edge1" class="edge">
<title>Node1&#45;&gt;Node2</title>
<path fill="none" stroke="midnightblue" d="M177.02,-161.57C185.51,-162.44 194.11,-163.32 202.54,-164.18"/>
<polygon fill="midnightblue" stroke="midnightblue" points="202.43,-167.69 212.74,-165.23 203.15,-160.73 202.43,-167.69"/>
</g>
<!-- Node32 -->
<g id="node21" class="node">
<title>Node32</title>
<g id="a_node21"><a xlink:href="../../d1/db3/_fs_structs_8h.html#a89aef4aa8e8032eab2982d660e7b8a81" target="_top" xlink:title=" ">
<polygon fill="white" stroke="black" points="255.5,-122.09 255.5,-143.09 315.5,-143.09 315.5,-122.09 255.5,-122.09"/>
<text text-anchor="middle" x="285.5" y="-129.49" font-family="Helvetica,sans-Serif" font-size="12.00">getLe16</text>
</a>
</g>
</g>
<!-- Node1&#45;&gt;Node32 -->
<g id="edge33" class="edge">
<title>Node1&#45;&gt;Node32</title>
<path fill="none" stroke="midnightblue" d="M177.02,-143.61C200.88,-141.17 225.54,-138.64 245.22,-136.62"/>
<polygon fill="midnightblue" stroke="midnightblue" points="245.72,-140.09 255.31,-135.58 245,-133.12 245.72,-140.09"/>
</g>
<!-- Node3 -->
<g id="node3" class="node">
<title>Node3</title>
<g id="a_node3"><a xlink:href="../../d4/de9/class_ex_fat_partition.html#a80c3935eee856eaa3938e80a32139722" target="_top" xlink:title=" ">
<polygon fill="white" stroke="black" points="394,-181.59 394,-215.59 549,-215.59 549,-181.59 394,-181.59"/>
<text text-anchor="start" x="402" y="-201.99" font-family="Helvetica,sans-Serif" font-size="12.00">ExFatPartition::clusterStart</text>
<text text-anchor="middle" x="471.5" y="-188.99" font-family="Helvetica,sans-Serif" font-size="12.00">Sector</text>
</a>
</g>
</g>
<!-- Node2&#45;&gt;Node3 -->
<g id="edge2" class="edge">
<title>Node2&#45;&gt;Node3</title>
<path fill="none" stroke="midnightblue" d="M358.17,-182.72C366.58,-183.91 375.23,-185.13 383.82,-186.34"/>
<polygon fill="midnightblue" stroke="midnightblue" points="383.47,-189.83 393.86,-187.76 384.45,-182.9 383.47,-189.83"/>
</g>
<!-- Node4 -->
<g id="node4" class="node">
<title>Node4</title>
<g id="a_node4"><a xlink:href="../../d4/de9/class_ex_fat_partition.html#a119f5be5695880d2a16f1c0b3c3ff369" target="_top" xlink:title=" ">
<polygon fill="white" stroke="black" points="394,-128.59 394,-162.59 549,-162.59 549,-128.59 394,-128.59"/>
<text text-anchor="start" x="402" y="-148.99" font-family="Helvetica,sans-Serif" font-size="12.00">ExFatPartition::dataCache</text>
<text text-anchor="middle" x="471.5" y="-135.99" font-family="Helvetica,sans-Serif" font-size="12.00">Prepare</text>
</a>
</g>
</g>
<!-- Node2&#45;&gt;Node4 -->
<g id="edge3" class="edge">
<title>Node2&#45;&gt;Node4</title>
<path fill="none" stroke="midnightblue" d="M358.17,-162.07C366.58,-160.84 375.23,-159.57 383.82,-158.31"/>
<polygon fill="midnightblue" stroke="midnightblue" points="384.47,-161.75 393.86,-156.84 383.46,-154.83 384.47,-161.75"/>
</g>
<!-- Node5 -->
<g id="node5" class="node">
<title>Node5</title>
<g id="a_node5"><a xlink:href="../../d3/d77/class_fs_cache.html#a8c11f064a2ce0a380f522392f09d63cb" target="_top" xlink:title=" ">
<polygon fill="white" stroke="black" points="585,-135.09 585,-156.09 697,-156.09 697,-135.09 585,-135.09"/>
<text text-anchor="middle" x="641" y="-142.49" font-family="Helvetica,sans-Serif" font-size="12.00">FsCache::prepare</text>
</a>
</g>
</g>
<!-- Node4&#45;&gt;Node5 -->
<g id="edge4" class="edge">
<title>Node4&#45;&gt;Node5</title>
<path fill="none" stroke="midnightblue" d="M549.39,-145.59C557.73,-145.59 566.17,-145.59 574.36,-145.59"/>
<polygon fill="midnightblue" stroke="midnightblue" points="574.58,-149.09 584.58,-145.59 574.58,-142.09 574.58,-149.09"/>
</g>
<!-- Node6 -->
<g id="node6" class="node">
<title>Node6</title>
<g id="a_node6"><a xlink:href="../../d5/d4b/class_shared_spi_card.html#a61d86f4092f8ddbc7339d7cbcf6f70c0" target="_top" xlink:title=" ">
<polygon fill="white" stroke="black" points="863,-195.09 863,-216.09 1027,-216.09 1027,-195.09 863,-195.09"/>
<text text-anchor="middle" x="945" y="-202.49" font-family="Helvetica,sans-Serif" font-size="12.00">SharedSpiCard::readSector</text>
</a>
</g>
</g>
<!-- Node5&#45;&gt;Node6 -->
<g id="edge5" class="edge">
<title>Node5&#45;&gt;Node6</title>
<path fill="none" stroke="midnightblue" d="M688.71,-156.13C702.91,-159.26 718.58,-162.64 733,-165.59 780.75,-175.36 834.75,-185.58 876.17,-193.25"/>
<polygon fill="midnightblue" stroke="midnightblue" points="875.68,-196.72 886.15,-195.09 876.95,-189.83 875.68,-196.72"/>
</g>
<!-- Node28 -->
<g id="node17" class="node">
<title>Node28</title>
<g id="a_node17"><a xlink:href="../../d3/d77/class_fs_cache.html#a5b90e145400de8687d9f34536b134130" target="_top" xlink:title=" ">
<polygon fill="white" stroke="black" points="893.5,-96.09 893.5,-117.09 996.5,-117.09 996.5,-96.09 893.5,-96.09"/>
<text text-anchor="middle" x="945" y="-103.49" font-family="Helvetica,sans-Serif" font-size="12.00">FsCache::sector</text>
</a>
</g>
</g>
<!-- Node5&#45;&gt;Node28 -->
<g id="edge19" class="edge">
<title>Node5&#45;&gt;Node28</title>
<path fill="none" stroke="midnightblue" d="M684.84,-135.01C699.98,-131.58 717.17,-128.03 733,-125.59 783.37,-117.82 841.04,-112.89 883.34,-110.01"/>
<polygon fill="midnightblue" stroke="midnightblue" points="883.73,-113.49 893.48,-109.34 883.27,-106.51 883.73,-113.49"/>
</g>
<!-- Node29 -->
<g id="node18" class="node">
<title>Node29</title>
<g id="a_node18"><a xlink:href="../../d3/d77/class_fs_cache.html#a5a2c8fb432d7b7590ebb43200ca21893" target="_top" xlink:title=" ">
<polygon fill="white" stroke="black" points="733,-135.09 733,-156.09 827,-156.09 827,-135.09 733,-135.09"/>
<text text-anchor="middle" x="780" y="-142.49" font-family="Helvetica,sans-Serif" font-size="12.00">FsCache::sync</text>
</a>
</g>
</g>
<!-- Node5&#45;&gt;Node29 -->
<g id="edge20" class="edge">
<title>Node5&#45;&gt;Node29</title>
<path fill="none" stroke="midnightblue" d="M697.33,-145.59C705.67,-145.59 714.28,-145.59 722.65,-145.59"/>
<polygon fill="midnightblue" stroke="midnightblue" points="722.69,-149.09 732.69,-145.59 722.69,-142.09 722.69,-149.09"/>
</g>
<!-- Node7 -->
<g id="node7" class="node">
<title>Node7</title>
<g id="a_node7"><a xlink:href="../../d5/d4b/class_shared_spi_card.html#adda33199753fc2aec74fe317cbaabc06" target="_top" xlink:title=" ">
<polygon fill="white" stroke="black" points="1063,-263.09 1063,-284.09 1246,-284.09 1246,-263.09 1063,-263.09"/>
<text text-anchor="middle" x="1154.5" y="-270.49" font-family="Helvetica,sans-Serif" font-size="12.00">SharedSpiCard::cardCommand</text>
</a>
</g>
</g>
<!-- Node6&#45;&gt;Node7 -->
<g id="edge6" class="edge">
<title>Node6&#45;&gt;Node7</title>
<path fill="none" stroke="midnightblue" d="M972.73,-216.13C996.31,-225.26 1031.68,-238.53 1063,-248.59 1075.74,-252.68 1089.61,-256.72 1102.58,-260.32"/>
<polygon fill="midnightblue" stroke="midnightblue" points="1101.72,-263.71 1112.29,-262.98 1103.57,-256.96 1101.72,-263.71"/>
</g>
<!-- Node19 -->
<g id="node13" class="node">
<title>Node19</title>
<g id="a_node13"><a xlink:href="../../d5/d4b/class_shared_spi_card.html#a747c3f0b962098cf0c097f3c4c2b4fd4" target="_top" xlink:title=" ">
<polygon fill="white" stroke="black" points="1299.5,-67.09 1299.5,-88.09 1429.5,-88.09 1429.5,-67.09 1299.5,-67.09"/>
<text text-anchor="middle" x="1364.5" y="-74.49" font-family="Helvetica,sans-Serif" font-size="12.00">SharedSpiCard::error</text>
</a>
</g>
</g>
<!-- Node6&#45;&gt;Node19 -->
<g id="edge14" class="edge">
<title>Node6&#45;&gt;Node19</title>
<path fill="none" stroke="midnightblue" d="M979.7,-194.98C995.53,-188.69 1013.77,-179.4 1027,-166.59 1051.85,-142.53 1034.03,-116.49 1063,-97.59 1098.93,-74.14 1212.31,-72.54 1289.06,-74.41"/>
<polygon fill="midnightblue" stroke="midnightblue" points="1289.08,-77.91 1299.17,-74.68 1289.26,-70.91 1289.08,-77.91"/>
</g>
<!-- Node26 -->
<g id="node14" class="node">
<title>Node26</title>
<g id="a_node14"><a xlink:href="../../d5/d4b/class_shared_spi_card.html#abeae3cdc162f24c2d450abe4e1ed8340" target="_top" xlink:title=" ">
<polygon fill="white" stroke="black" points="1077,-303.09 1077,-324.09 1232,-324.09 1232,-303.09 1077,-303.09"/>
<text text-anchor="middle" x="1154.5" y="-310.49" font-family="Helvetica,sans-Serif" font-size="12.00">SharedSpiCard::readData</text>
</a>
</g>
</g>
<!-- Node6&#45;&gt;Node26 -->
<g id="edge15" class="edge">
<title>Node6&#45;&gt;Node26</title>
<path fill="none" stroke="midnightblue" d="M956.57,-216.1C975.93,-234.71 1019.13,-273.41 1063,-293.59 1068.34,-296.05 1073.99,-298.21 1079.77,-300.11"/>
<polygon fill="midnightblue" stroke="midnightblue" points="1078.98,-303.53 1089.57,-303.07 1081.01,-296.83 1078.98,-303.53"/>
</g>
<!-- Node20 -->
<g id="node15" class="node">
<title>Node20</title>
<g id="a_node15"><a xlink:href="../../d5/d4b/class_shared_spi_card.html#a0f511c39c50055a4fc97e720933aee3a" target="_top" xlink:title=" ">
<polygon fill="white" stroke="red" points="1291.5,-147.09 1291.5,-168.09 1437.5,-168.09 1437.5,-147.09 1291.5,-147.09"/>
<text text-anchor="middle" x="1364.5" y="-154.49" font-family="Helvetica,sans-Serif" font-size="12.00">SharedSpiCard::spiStop</text>
</a>
</g>
</g>
<!-- Node6&#45;&gt;Node20 -->
<g id="edge16" class="edge">
<title>Node6&#45;&gt;Node20</title>
<path fill="none" stroke="midnightblue" d="M984.07,-216.12C1042.64,-230.31 1157.36,-250.07 1246,-215.59 1266.23,-207.72 1263.16,-193.37 1282,-182.59 1289.65,-178.21 1298.16,-174.52 1306.7,-171.42"/>
<polygon fill="midnightblue" stroke="midnightblue" points="1307.97,-174.69 1316.33,-168.18 1305.73,-168.06 1307.97,-174.69"/>
</g>
<!-- Node27 -->
<g id="node16" class="node">
<title>Node27</title>
<g id="a_node16"><a xlink:href="../../d5/d4b/class_shared_spi_card.html#a7dac2190763d7b4b72163ed7131e8a87" target="_top" xlink:title=" ">
<polygon fill="white" stroke="black" points="1091,-185.09 1091,-206.09 1218,-206.09 1218,-185.09 1091,-185.09"/>
<text text-anchor="middle" x="1154.5" y="-192.49" font-family="Helvetica,sans-Serif" font-size="12.00">SharedSpiCard::type</text>
</a>
</g>
</g>
<!-- Node6&#45;&gt;Node27 -->
<g id="edge18" class="edge">
<title>Node6&#45;&gt;Node27</title>
<path fill="none" stroke="midnightblue" d="M1027.12,-201.68C1044.79,-200.83 1063.38,-199.93 1080.71,-199.1"/>
<polygon fill="midnightblue" stroke="midnightblue" points="1080.93,-202.59 1090.75,-198.61 1080.59,-195.6 1080.93,-202.59"/>
</g>
<!-- Node8 -->
<g id="node8" class="node">
<title>Node8</title>
<g id="a_node8"><a xlink:href="../../d5/d4b/class_shared_spi_card.html#a08363209d938db87521cca6a84146041" target="_top" xlink:title=" ">
<polygon fill="white" stroke="red" points="1483,-107.09 1483,-128.09 1647,-128.09 1647,-107.09 1483,-107.09"/>
<text text-anchor="middle" x="1565" y="-114.49" font-family="Helvetica,sans-Serif" font-size="12.00">SharedSpiCard::spiReceive</text>
</a>
</g>
</g>
<!-- Node7&#45;&gt;Node8 -->
<g id="edge7" class="edge">
<title>Node7&#45;&gt;Node8</title>
<path fill="none" stroke="midnightblue" d="M1189.87,-263.01C1256.13,-242.49 1399.26,-197.55 1447,-177.59 1478.47,-164.43 1513.06,-146.2 1536.41,-133.29"/>
<polygon fill="midnightblue" stroke="midnightblue" points="1538.35,-136.21 1545.38,-128.29 1534.94,-130.1 1538.35,-136.21"/>
</g>
<!-- Node10 -->
<g id="node9" class="node">
<title>Node10</title>
<g id="a_node9"><a xlink:href="../../d5/d4b/class_shared_spi_card.html#ab311b9ad8a250f06afbe091f7abb118b" target="_top" xlink:title=" ">
<polygon fill="white" stroke="red" points="1490.5,-224.09 1490.5,-245.09 1639.5,-245.09 1639.5,-224.09 1490.5,-224.09"/>
<text text-anchor="middle" x="1565" y="-231.49" font-family="Helvetica,sans-Serif" font-size="12.00">SharedSpiCard::spiSend</text>
</a>
</g>
</g>
<!-- Node7&#45;&gt;Node10 -->
<g id="edge8" class="edge">
<title>Node7&#45;&gt;Node10</title>
<path fill="none" stroke="midnightblue" d="M1214.88,-263.08C1236.01,-259.64 1260.02,-256.06 1282,-253.59 1348.33,-246.13 1423.8,-241.23 1479.96,-238.28"/>
<polygon fill="midnightblue" stroke="midnightblue" points="1480.41,-241.76 1490.21,-237.75 1480.05,-234.77 1480.41,-241.76"/>
</g>
<!-- Node12 -->
<g id="node10" class="node">
<title>Node12</title>
<g id="a_node10"><a xlink:href="../../d5/d4b/class_shared_spi_card.html#aef2dfa72e8d5643c90720f9f8c6a4254" target="_top" xlink:title=" ">
<polygon fill="white" stroke="red" points="1291.5,-303.09 1291.5,-324.09 1437.5,-324.09 1437.5,-303.09 1291.5,-303.09"/>
<text text-anchor="middle" x="1364.5" y="-310.49" font-family="Helvetica,sans-Serif" font-size="12.00">SharedSpiCard::spiStart</text>
</a>
</g>
</g>
<!-- Node7&#45;&gt;Node12 -->
<g id="edge9" class="edge">
<title>Node7&#45;&gt;Node12</title>
<path fill="none" stroke="midnightblue" d="M1210.15,-284.1C1237.39,-289.34 1270.51,-295.71 1298.99,-301.18"/>
<polygon fill="midnightblue" stroke="midnightblue" points="1298.37,-304.63 1308.85,-303.08 1299.7,-297.76 1298.37,-304.63"/>
</g>
<!-- Node17 -->
<g id="node11" class="node">
<title>Node17</title>
<g id="a_node11"><a xlink:href="../../d5/d4b/class_shared_spi_card.html#a2f181b3d6f27413a0f5ee883dfd94d87" target="_top" xlink:title=" ">
<polygon fill="white" stroke="red" points="1282,-263.09 1282,-284.09 1447,-284.09 1447,-263.09 1282,-263.09"/>
<text text-anchor="middle" x="1364.5" y="-270.49" font-family="Helvetica,sans-Serif" font-size="12.00">SharedSpiCard::syncDevice</text>
</a>
</g>
</g>
<!-- Node7&#45;&gt;Node17 -->
<g id="edge11" class="edge">
<title>Node7&#45;&gt;Node17</title>
<path fill="none" stroke="midnightblue" d="M1246.13,-273.59C1254.7,-273.59 1263.4,-273.59 1271.99,-273.59"/>
<polygon fill="midnightblue" stroke="midnightblue" points="1272,-277.09 1282,-273.59 1272,-270.09 1272,-277.09"/>
</g>
<!-- Node25 -->
<g id="node12" class="node">
<title>Node25</title>
<g id="a_node12"><a xlink:href="../../d5/d4b/class_shared_spi_card.html#ab3468397bb3b12d29dd2f31e45b3dcaf" target="_top" xlink:title=" ">
<polygon fill="white" stroke="black" points="1284.5,-107.09 1284.5,-128.09 1444.5,-128.09 1444.5,-107.09 1284.5,-107.09"/>
<text text-anchor="middle" x="1364.5" y="-114.49" font-family="Helvetica,sans-Serif" font-size="12.00">SharedSpiCard::waitReady</text>
</a>
</g>
</g>
<!-- Node7&#45;&gt;Node25 -->
<g id="edge12" class="edge">
<title>Node7&#45;&gt;Node25</title>
<path fill="none" stroke="midnightblue" d="M1179.34,-263.05C1199.33,-253.2 1227.49,-236.84 1246,-215.59 1271.08,-186.8 1252.54,-161.88 1282,-137.59 1284.02,-135.93 1286.15,-134.4 1288.38,-133"/>
<polygon fill="midnightblue" stroke="midnightblue" points="1290.2,-135.99 1297.35,-128.17 1286.89,-129.82 1290.2,-135.99"/>
</g>
<!-- Node12&#45;&gt;Node10 -->
<g id="edge10" class="edge">
<title>Node12&#45;&gt;Node10</title>
<path fill="none" stroke="midnightblue" d="M1416.04,-303.08C1426.41,-300.4 1437.16,-297.23 1447,-293.59 1479.26,-281.67 1514.22,-263.26 1537.44,-250.17"/>
<polygon fill="midnightblue" stroke="midnightblue" points="1539.38,-253.1 1546.33,-245.1 1535.91,-247.02 1539.38,-253.1"/>
</g>
<!-- Node25&#45;&gt;Node8 -->
<g id="edge13" class="edge">
<title>Node25&#45;&gt;Node8</title>
<path fill="none" stroke="midnightblue" d="M1444.52,-117.59C1453.81,-117.59 1463.35,-117.59 1472.79,-117.59"/>
<polygon fill="midnightblue" stroke="midnightblue" points="1472.98,-121.09 1482.98,-117.59 1472.97,-114.09 1472.98,-121.09"/>
</g>
<!-- Node20&#45;&gt;Node10 -->
<g id="edge17" class="edge">
<title>Node20&#45;&gt;Node10</title>
<path fill="none" stroke="midnightblue" d="M1392.68,-168.14C1427.63,-181.69 1488.43,-205.28 1527.41,-220.4"/>
<polygon fill="midnightblue" stroke="midnightblue" points="1526.24,-223.7 1536.83,-224.05 1528.77,-217.17 1526.24,-223.7"/>
</g>
<!-- Node29&#45;&gt;Node28 -->
<g id="edge21" class="edge">
<title>Node29&#45;&gt;Node28</title>
<path fill="none" stroke="midnightblue" d="M825.11,-135.04C845.13,-130.25 869,-124.54 890.08,-119.49"/>
<polygon fill="midnightblue" stroke="midnightblue" points="890.94,-122.88 899.85,-117.15 889.31,-116.08 890.94,-122.88"/>
</g>
<!-- Node30 -->
<g id="node19" class="node">
<title>Node30</title>
<g id="a_node19"><a xlink:href="../../d5/d4b/class_shared_spi_card.html#adf2ce56ca0a56fe841fbdf75f7f3faee" target="_top" xlink:title=" ">
<polygon fill="white" stroke="black" points="863,-136.09 863,-157.09 1027,-157.09 1027,-136.09 863,-136.09"/>
<text text-anchor="middle" x="945" y="-143.49" font-family="Helvetica,sans-Serif" font-size="12.00">SharedSpiCard::writeSector</text>
</a>
</g>
</g>
<!-- Node29&#45;&gt;Node30 -->
<g id="edge22" class="edge">
<title>Node29&#45;&gt;Node30</title>
<path fill="none" stroke="midnightblue" d="M827.27,-145.87C835.26,-145.92 843.8,-145.98 852.49,-146.03"/>
<polygon fill="midnightblue" stroke="midnightblue" points="852.72,-149.53 862.75,-146.09 852.77,-142.53 852.72,-149.53"/>
</g>
<!-- Node30&#45;&gt;Node7 -->
<g id="edge23" class="edge">
<title>Node30&#45;&gt;Node7</title>
<path fill="none" stroke="midnightblue" d="M972.04,-157.17C988.36,-164.27 1009.54,-174.36 1027,-185.59 1044.52,-196.86 1046.2,-203.28 1063,-215.59 1083.73,-230.78 1108.35,-246.42 1126.68,-257.62"/>
<polygon fill="midnightblue" stroke="midnightblue" points="1125.01,-260.7 1135.37,-262.89 1128.64,-254.71 1125.01,-260.7"/>
</g>
<!-- Node30&#45;&gt;Node8 -->
<g id="edge25" class="edge">
<title>Node30&#45;&gt;Node8</title>
<path fill="none" stroke="midnightblue" d="M1011.72,-135.94C1017.21,-133.44 1022.41,-130.36 1027,-126.59 1056.19,-102.61 1031.13,-69.87 1063,-49.59 1207.02,42.06 1281.89,-14.23 1447,-57.59 1481.35,-66.61 1517.16,-86.82 1539.97,-101.3"/>
<polygon fill="midnightblue" stroke="midnightblue" points="1538.32,-104.4 1548.62,-106.91 1542.13,-98.53 1538.32,-104.4"/>
</g>
<!-- Node30&#45;&gt;Node25 -->
<g id="edge28" class="edge">
<title>Node30&#45;&gt;Node25</title>
<path fill="none" stroke="midnightblue" d="M1002.47,-136.03C1010.91,-133.49 1019.34,-130.39 1027,-126.59 1045.41,-117.47 1043.62,-104.42 1063,-97.59 1139.7,-70.54 1164.96,-90.74 1246,-97.59 1264.62,-99.16 1284.71,-102.11 1302.94,-105.28"/>
<polygon fill="midnightblue" stroke="midnightblue" points="1302.38,-108.73 1312.84,-107.05 1303.62,-101.84 1302.38,-108.73"/>
</g>
<!-- Node30&#45;&gt;Node19 -->
<g id="edge24" class="edge">
<title>Node30&#45;&gt;Node19</title>
<path fill="none" stroke="midnightblue" d="M1007.55,-136.07C1014.4,-133.56 1021.04,-130.45 1027,-126.59 1048.79,-112.48 1039.72,-92.08 1063,-80.59 1142.44,-41.39 1248.7,-52.87 1311.25,-65.05"/>
<polygon fill="midnightblue" stroke="midnightblue" points="1310.78,-68.52 1321.28,-67.08 1312.17,-61.66 1310.78,-68.52"/>
</g>
<!-- Node30&#45;&gt;Node20 -->
<g id="edge26" class="edge">
<title>Node30&#45;&gt;Node20</title>
<path fill="none" stroke="midnightblue" d="M1027.49,-148.74C1100.7,-150.67 1207.67,-153.48 1281.14,-155.42"/>
<polygon fill="midnightblue" stroke="midnightblue" points="1281.19,-158.92 1291.28,-155.69 1281.37,-151.93 1281.19,-158.92"/>
</g>
<!-- Node30&#45;&gt;Node27 -->
<g id="edge27" class="edge">
<title>Node30&#45;&gt;Node27</title>
<path fill="none" stroke="midnightblue" d="M990.51,-157.1C1022.13,-164.57 1064.79,-174.64 1098.54,-182.61"/>
<polygon fill="midnightblue" stroke="midnightblue" points="1098.17,-186.12 1108.7,-185.01 1099.77,-179.31 1098.17,-186.12"/>
</g>
<!-- Node31 -->
<g id="node20" class="node">
<title>Node31</title>
<g id="a_node20"><a xlink:href="../../d5/d4b/class_shared_spi_card.html#a5b6d7ad34f56d0d6a6c5059d920499ba" target="_top" xlink:title=" ">
<polygon fill="white" stroke="black" points="1077,-107.09 1077,-128.09 1232,-128.09 1232,-107.09 1077,-107.09"/>
<text text-anchor="middle" x="1154.5" y="-114.49" font-family="Helvetica,sans-Serif" font-size="12.00">SharedSpiCard::writeData</text>
</a>
</g>
</g>
<!-- Node30&#45;&gt;Node31 -->
<g id="edge29" class="edge">
<title>Node30&#45;&gt;Node31</title>
<path fill="none" stroke="midnightblue" d="M1021.21,-136.08C1036.43,-133.95 1052.54,-131.7 1068.08,-129.53"/>
<polygon fill="midnightblue" stroke="midnightblue" points="1068.78,-132.96 1078.2,-128.11 1067.81,-126.03 1068.78,-132.96"/>
</g>
<!-- Node31&#45;&gt;Node25 -->
<g id="edge32" class="edge">
<title>Node31&#45;&gt;Node25</title>
<path fill="none" stroke="midnightblue" d="M1232.07,-117.59C1245.77,-117.59 1260.15,-117.59 1274.18,-117.59"/>
<polygon fill="midnightblue" stroke="midnightblue" points="1274.31,-121.09 1284.31,-117.59 1274.31,-114.09 1274.31,-121.09"/>
</g>
<!-- Node31&#45;&gt;Node19 -->
<g id="edge30" class="edge">
<title>Node31&#45;&gt;Node19</title>
<path fill="none" stroke="midnightblue" d="M1210.15,-107.08C1237.39,-101.84 1270.51,-95.47 1298.99,-90"/>
<polygon fill="midnightblue" stroke="midnightblue" points="1299.7,-93.42 1308.85,-88.1 1298.37,-86.55 1299.7,-93.42"/>
</g>
<!-- Node31&#45;&gt;Node20 -->
<g id="edge31" class="edge">
<title>Node31&#45;&gt;Node20</title>
<path fill="none" stroke="midnightblue" d="M1210.15,-128.1C1237.39,-133.34 1270.51,-139.71 1298.99,-145.18"/>
<polygon fill="midnightblue" stroke="midnightblue" points="1298.37,-148.63 1308.85,-147.08 1299.7,-141.76 1298.37,-148.63"/>
</g>
</g>
</svg>
