<?xml version="1.0" encoding="UTF-8" standalone="no"?>
<!DOCTYPE svg PUBLIC "-//W3C//DTD SVG 1.1//EN"
 "http://www.w3.org/Graphics/SVG/1.1/DTD/svg11.dtd">
<!-- Generated by graphviz version 2.47.3 (20210619.1520)
 -->
<!-- Title: ExFatFile::cmpName Pages: 1 -->
<!--zoomable 208 -->
<svg id="main" version="1.1" xmlns="http://www.w3.org/2000/svg" xmlns:xlink="http://www.w3.org/1999/xlink" xml:space="preserve" onload="init(evt)">
<style type="text/css"><![CDATA[
.edge:hover path { stroke: red; }
.edge:hover polygon { stroke: red; fill: red; }
]]></style>
<script type="text/javascript"><![CDATA[
var edges = document.getElementsByTagName('g');
if (edges && edges.length) {
  for (var i=0;i<edges.length;i++) {
    if (edges[i].id.substr(0,4)=='edge') {
      edges[i].setAttribute('class','edge');
    }
  }
}
]]></script>
        <defs>
                <circle id="rim" cx="0" cy="0" r="7"/>
                <circle id="rim2" cx="0" cy="0" r="3.5"/>
                <g id="zoomPlus">
                        <use xlink:href="#rim" fill="#404040">
                                <set attributeName="fill" to="#808080" begin="zoomplus.mouseover" end="zoomplus.mouseout"/>
                        </use>
                        <path d="M-4,0h8M0,-4v8" fill="none" stroke="white" stroke-width="1.5" pointer-events="none"/>
                </g>
                <g id="zoomMin">
                        <use xlink:href="#rim" fill="#404040">
                                <set attributeName="fill" to="#808080" begin="zoomminus.mouseover" end="zoomminus.mouseout"/>
                        </use>
                        <path d="M-4,0h8" fill="none" stroke="white" stroke-width="1.5" pointer-events="none"/>
                </g>
                <g id="dirArrow">
                        <path fill="none" stroke="white" stroke-width="1.5" d="M0,-3.0v7 M-2.5,-0.5L0,-3.0L2.5,-0.5"/>
                </g>
               <g id="resetDef">
                       <use xlink:href="#rim2" fill="#404040">
                               <set attributeName="fill" to="#808080" begin="reset.mouseover" end="reset.mouseout"/>
                       </use>
               </g>
        </defs>

<script type="text/javascript">
var viewWidth = 604;
var viewHeight = 208;
var sectionId = 'dynsection-14';
</script>
<script xlink:href="../../svgpan.js"/>
<svg id="graph" class="graph">
<g id="viewport">
<title>ExFatFile::cmpName</title>
<polygon fill="white" stroke="transparent" points="-4,4 -4,-203.85 600,-203.85 600,4 -4,4"/>
<!-- Node1 -->
<g id="node1" class="node">
<title>Node1</title>
<g id="a_node1"><a xlink:title=" ">
<polygon fill="#bfbfbf" stroke="black" points="0,-100.5 0,-121.5 127,-121.5 127,-100.5 0,-100.5"/>
<text text-anchor="middle" x="63.5" y="-107.9" font-family="Helvetica,sans-Serif" font-size="12.00">ExFatFile::cmpName</text>
</a>
</g>
</g>
<!-- Node2 -->
<g id="node2" class="node">
<title>Node2</title>
<g id="a_node2"><a xlink:href="../../d8/dcc/class_fs_name.html#a01cb0315615451977881ba3511dbcae6" target="_top" xlink:title=" ">
<polygon fill="white" stroke="black" points="297,-160.5 297,-181.5 395,-181.5 395,-160.5 297,-160.5"/>
<text text-anchor="middle" x="346" y="-167.9" font-family="Helvetica,sans-Serif" font-size="12.00">FsName::atEnd</text>
</a>
</g>
</g>
<!-- Node1&#45;&gt;Node2 -->
<g id="edge1" class="edge">
<title>Node1&#45;&gt;Node2</title>
<path fill="none" stroke="midnightblue" d="M73.15,-121.71C88.77,-140.11 123.76,-177.07 163,-191 210.85,-207.98 269.84,-195.99 307.44,-184.56"/>
<polygon fill="midnightblue" stroke="midnightblue" points="308.51,-187.9 316.99,-181.54 306.4,-181.22 308.51,-187.9"/>
</g>
<!-- Node3 -->
<g id="node3" class="node">
<title>Node3</title>
<g id="a_node3"><a xlink:href="../../d8/dcc/class_fs_name.html#a7c414c913fbdc66f6e669231849ce5cb" target="_top" xlink:title=" ">
<polygon fill="white" stroke="black" points="163,-160.5 163,-181.5 261,-181.5 261,-160.5 163,-160.5"/>
<text text-anchor="middle" x="212" y="-167.9" font-family="Helvetica,sans-Serif" font-size="12.00">FsName::get16</text>
</a>
</g>
</g>
<!-- Node1&#45;&gt;Node3 -->
<g id="edge2" class="edge">
<title>Node1&#45;&gt;Node3</title>
<path fill="none" stroke="midnightblue" d="M90.35,-121.59C113.95,-131.25 149.06,-145.63 175.32,-156.39"/>
<polygon fill="midnightblue" stroke="midnightblue" points="174.33,-159.76 184.91,-160.32 176.98,-153.29 174.33,-159.76"/>
</g>
<!-- Node4 -->
<g id="node4" class="node">
<title>Node4</title>
<g id="a_node4"><a xlink:href="../../d8/dcc/class_fs_name.html#a52ccb710e9a8f5af1b61b299b67bad0a" target="_top" xlink:title=" ">
<polygon fill="white" stroke="black" points="164,-120.5 164,-141.5 260,-141.5 260,-120.5 164,-120.5"/>
<text text-anchor="middle" x="212" y="-127.9" font-family="Helvetica,sans-Serif" font-size="12.00">FsName::getch</text>
</a>
</g>
</g>
<!-- Node1&#45;&gt;Node4 -->
<g id="edge4" class="edge">
<title>Node1&#45;&gt;Node4</title>
<path fill="none" stroke="midnightblue" d="M127.05,-119.54C135.89,-120.75 144.93,-121.98 153.66,-123.17"/>
<polygon fill="midnightblue" stroke="midnightblue" points="153.34,-126.66 163.72,-124.55 154.29,-119.73 153.34,-126.66"/>
</g>
<!-- Node5 -->
<g id="node5" class="node">
<title>Node5</title>
<g id="a_node5"><a xlink:href="../../d1/db3/_fs_structs_8h.html#a89aef4aa8e8032eab2982d660e7b8a81" target="_top" xlink:title=" ">
<polygon fill="white" stroke="black" points="182,-80.5 182,-101.5 242,-101.5 242,-80.5 182,-80.5"/>
<text text-anchor="middle" x="212" y="-87.9" font-family="Helvetica,sans-Serif" font-size="12.00">getLe16</text>
</a>
</g>
</g>
<!-- Node1&#45;&gt;Node5 -->
<g id="edge6" class="edge">
<title>Node1&#45;&gt;Node5</title>
<path fill="none" stroke="midnightblue" d="M127.05,-102.46C142.18,-100.4 157.92,-98.25 171.63,-96.37"/>
<polygon fill="midnightblue" stroke="midnightblue" points="172.24,-99.82 181.68,-95 171.29,-92.89 172.24,-99.82"/>
</g>
<!-- Node6 -->
<g id="node6" class="node">
<title>Node6</title>
<g id="a_node6"><a xlink:href="../../de/d22/upcase_8cpp.html#a21b6d308ac42097fe276a6cb2f392818" target="_top" xlink:title=" ">
<polygon fill="white" stroke="black" points="178.5,-40.5 178.5,-61.5 245.5,-61.5 245.5,-40.5 178.5,-40.5"/>
<text text-anchor="middle" x="212" y="-47.9" font-family="Helvetica,sans-Serif" font-size="12.00">toUpcase</text>
</a>
</g>
</g>
<!-- Node1&#45;&gt;Node6 -->
<g id="edge7" class="edge">
<title>Node1&#45;&gt;Node6</title>
<path fill="none" stroke="midnightblue" d="M90.35,-100.41C113.95,-90.75 149.06,-76.37 175.32,-65.61"/>
<polygon fill="midnightblue" stroke="midnightblue" points="176.98,-68.71 184.91,-61.68 174.33,-62.24 176.98,-68.71"/>
</g>
<!-- Node11 -->
<g id="node11" class="node">
<title>Node11</title>
<g id="a_node11"><a xlink:href="../../d8/d04/_ex_fat_name_8cpp.html#adcee0d90a56333557fa3bbb169cfdde8" target="_top" xlink:title=" ">
<polygon fill="white" stroke="black" points="182.5,-0.5 182.5,-21.5 241.5,-21.5 241.5,-0.5 182.5,-0.5"/>
<text text-anchor="middle" x="212" y="-7.9" font-family="Helvetica,sans-Serif" font-size="12.00">toUpper</text>
</a>
</g>
</g>
<!-- Node1&#45;&gt;Node11 -->
<g id="edge13" class="edge">
<title>Node1&#45;&gt;Node11</title>
<path fill="none" stroke="midnightblue" d="M75.52,-100.24C92.93,-83.67 128.39,-51.67 163,-31 166.21,-29.08 169.64,-27.26 173.13,-25.55"/>
<polygon fill="midnightblue" stroke="midnightblue" points="174.77,-28.65 182.42,-21.32 171.87,-22.28 174.77,-28.65"/>
</g>
<!-- Node3&#45;&gt;Node2 -->
<g id="edge3" class="edge">
<title>Node3&#45;&gt;Node2</title>
<path fill="none" stroke="midnightblue" d="M261.03,-171C269.31,-171 278,-171 286.52,-171"/>
<polygon fill="midnightblue" stroke="midnightblue" points="286.79,-174.5 296.79,-171 286.79,-167.5 286.79,-174.5"/>
</g>
<!-- Node4&#45;&gt;Node2 -->
<g id="edge5" class="edge">
<title>Node4&#45;&gt;Node2</title>
<path fill="none" stroke="midnightblue" d="M247.68,-141.51C263.77,-146.39 283.1,-152.24 300.27,-157.45"/>
<polygon fill="midnightblue" stroke="midnightblue" points="299.51,-160.87 310.09,-160.42 301.54,-154.17 299.51,-160.87"/>
</g>
<!-- Node7 -->
<g id="node7" class="node">
<title>Node7</title>
<g id="a_node7"><a xlink:href="../../de/d22/upcase_8cpp.html#ad530d8c884214dce68a3e55efae606fd" target="_top" xlink:title=" ">
<polygon fill="white" stroke="black" points="302.5,-40.5 302.5,-61.5 389.5,-61.5 389.5,-40.5 302.5,-40.5"/>
<text text-anchor="middle" x="346" y="-47.9" font-family="Helvetica,sans-Serif" font-size="12.00">searchPair16</text>
</a>
</g>
</g>
<!-- Node6&#45;&gt;Node7 -->
<g id="edge8" class="edge">
<title>Node6&#45;&gt;Node7</title>
<path fill="none" stroke="midnightblue" d="M245.63,-51C259.66,-51 276.42,-51 292.14,-51"/>
<polygon fill="midnightblue" stroke="midnightblue" points="292.28,-54.5 302.28,-51 292.28,-47.5 292.28,-54.5"/>
</g>
<!-- Node8 -->
<g id="node8" class="node">
<title>Node8</title>
<g id="a_node8"><a xlink:href="../../df/dd5/ios_8h.html#a24a80a73f0a0d2d72d1cb74f49ff4759" target="_top" xlink:title=" ">
<polygon fill="white" stroke="black" points="434.5,-60.5 434.5,-81.5 466.5,-81.5 466.5,-60.5 434.5,-60.5"/>
<text text-anchor="middle" x="450.5" y="-67.9" font-family="Helvetica,sans-Serif" font-size="12.00">left</text>
</a>
</g>
</g>
<!-- Node7&#45;&gt;Node8 -->
<g id="edge9" class="edge">
<title>Node7&#45;&gt;Node8</title>
<path fill="none" stroke="midnightblue" d="M389.58,-59.31C401.34,-61.6 413.72,-64.02 424.16,-66.06"/>
<polygon fill="midnightblue" stroke="midnightblue" points="423.74,-69.54 434.22,-68.02 425.08,-62.67 423.74,-69.54"/>
</g>
<!-- Node10 -->
<g id="node10" class="node">
<title>Node10</title>
<g id="a_node10"><a xlink:href="../../df/dd5/ios_8h.html#aee80fd600c5c58a2bebbd48afdcf8280" target="_top" xlink:title=" ">
<polygon fill="white" stroke="black" points="431,-20.5 431,-41.5 470,-41.5 470,-20.5 431,-20.5"/>
<text text-anchor="middle" x="450.5" y="-27.9" font-family="Helvetica,sans-Serif" font-size="12.00">right</text>
</a>
</g>
</g>
<!-- Node7&#45;&gt;Node10 -->
<g id="edge11" class="edge">
<title>Node7&#45;&gt;Node10</title>
<path fill="none" stroke="midnightblue" d="M389.58,-42.69C400.16,-40.63 411.25,-38.46 420.98,-36.57"/>
<polygon fill="midnightblue" stroke="midnightblue" points="421.76,-39.98 430.9,-34.63 420.41,-33.11 421.76,-39.98"/>
</g>
<!-- Node9 -->
<g id="node9" class="node">
<title>Node9</title>
<g id="a_node9"><a xlink:href="../../d4/dc1/classios__base.html#ab5db835cb45bba7684ebf72d9a3cccb4" target="_top" xlink:title=" ">
<polygon fill="white" stroke="black" points="506,-40.5 506,-61.5 596,-61.5 596,-40.5 506,-40.5"/>
<text text-anchor="middle" x="551" y="-47.9" font-family="Helvetica,sans-Serif" font-size="12.00">ios_base::setf</text>
</a>
</g>
</g>
<!-- Node8&#45;&gt;Node9 -->
<g id="edge10" class="edge">
<title>Node8&#45;&gt;Node9</title>
<path fill="none" stroke="midnightblue" d="M466.89,-67.88C474.93,-66.24 485.3,-64.14 495.97,-61.97"/>
<polygon fill="midnightblue" stroke="midnightblue" points="496.69,-65.4 505.79,-59.98 495.3,-58.54 496.69,-65.4"/>
</g>
<!-- Node10&#45;&gt;Node9 -->
<g id="edge12" class="edge">
<title>Node10&#45;&gt;Node9</title>
<path fill="none" stroke="midnightblue" d="M470.03,-34.76C477.48,-36.27 486.49,-38.1 495.73,-39.98"/>
<polygon fill="midnightblue" stroke="midnightblue" points="495.3,-43.47 505.8,-42.03 496.7,-36.61 495.3,-43.47"/>
</g>
</g>
</svg>
        <g id="navigator" transform="translate(0 0)" fill="#404254">
                <rect fill="#f2f5e9" fill-opacity="0.5" stroke="#606060" stroke-width=".5" x="0" y="0" width="60" height="60"/>
                <use id="zoomplus" xlink:href="#zoomPlus" x="17" y="9" onmousedown="handleZoom(evt,'in')"/>
                <use id="zoomminus" xlink:href="#zoomMin" x="42" y="9" onmousedown="handleZoom(evt,'out')"/>
                <use id="reset" xlink:href="#resetDef" x="30" y="36" onmousedown="handleReset()"/>
                <g id="arrowUp" xlink:href="#dirArrow" transform="translate(30 24)" onmousedown="handlePan(0,-1)">
                  <use xlink:href="#rim" fill="#404040">
                        <set attributeName="fill" to="#808080" begin="arrowUp.mouseover" end="arrowUp.mouseout"/>
                  </use>
                  <path fill="none" stroke="white" stroke-width="1.5" d="M0,-3.0v7 M-2.5,-0.5L0,-3.0L2.5,-0.5"/>
                </g>
                <g id="arrowRight" xlink:href="#dirArrow" transform="rotate(90) translate(36 -43)" onmousedown="handlePan(1,0)">
                  <use xlink:href="#rim" fill="#404040">
                        <set attributeName="fill" to="#808080" begin="arrowRight.mouseover" end="arrowRight.mouseout"/>
                  </use>
                  <path fill="none" stroke="white" stroke-width="1.5" d="M0,-3.0v7 M-2.5,-0.5L0,-3.0L2.5,-0.5"/>
                </g>
                <g id="arrowDown" xlink:href="#dirArrow" transform="rotate(180) translate(-30 -48)" onmousedown="handlePan(0,1)">
                  <use xlink:href="#rim" fill="#404040">
                        <set attributeName="fill" to="#808080" begin="arrowDown.mouseover" end="arrowDown.mouseout"/>
                  </use>
                  <path fill="none" stroke="white" stroke-width="1.5" d="M0,-3.0v7 M-2.5,-0.5L0,-3.0L2.5,-0.5"/>
                </g>
                <g id="arrowLeft" xlink:href="#dirArrow" transform="rotate(270) translate(-36 17)" onmousedown="handlePan(-1,0)">
                  <use xlink:href="#rim" fill="#404040">
                        <set attributeName="fill" to="#808080" begin="arrowLeft.mouseover" end="arrowLeft.mouseout"/>
                  </use>
                  <path fill="none" stroke="white" stroke-width="1.5" d="M0,-3.0v7 M-2.5,-0.5L0,-3.0L2.5,-0.5"/>
                </g>
        </g>
        <svg viewBox="0 0 15 15" width="100%" height="30px" preserveAspectRatio="xMaxYMin meet">
         <g id="arrow_out" transform="scale(0.3 0.3)">
          <a xlink:href="class_ex_fat_file_a54fa75eed5679805815d20b1a604ef29_cgraph_org.svg" target="_base">
           <rect id="button" ry="5" rx="5" y="6" x="6" height="38" width="38"
                fill="#f2f5e9" fill-opacity="0.5" stroke="#606060" stroke-width="1.0"/>
           <path id="arrow"
             d="M 11.500037,31.436501 C 11.940474,20.09759 22.043105,11.32322 32.158766,21.979434 L 37.068811,17.246167 C 37.068811,17.246167 37.088388,32 37.088388,32 L 22.160133,31.978069 C 22.160133,31.978069 26.997745,27.140456 26.997745,27.140456 C 18.528582,18.264221 13.291696,25.230495 11.500037,31.436501 z"
             style="fill:#404040;"/>
          </a>
         </g>
        </svg>
</svg>
