<?xml version="1.0" encoding="UTF-8" standalone="no"?>
<!DOCTYPE svg PUBLIC "-//W3C//DTD SVG 1.1//EN"
 "http://www.w3.org/Graphics/SVG/1.1/DTD/svg11.dtd">
<!-- Generated by graphviz version 2.47.3 (20210619.1520)
 -->
<!-- Title: ExFatFile::close Pages: 1 -->
<!--zoomable 1111 -->
<svg id="main" version="1.1" xmlns="http://www.w3.org/2000/svg" xmlns:xlink="http://www.w3.org/1999/xlink" xml:space="preserve" onload="init(evt)">
<style type="text/css"><![CDATA[
.edge:hover path { stroke: red; }
.edge:hover polygon { stroke: red; fill: red; }
]]></style>
<script type="text/javascript"><![CDATA[
var edges = document.getElementsByTagName('g');
if (edges && edges.length) {
  for (var i=0;i<edges.length;i++) {
    if (edges[i].id.substr(0,4)=='edge') {
      edges[i].setAttribute('class','edge');
    }
  }
}
]]></script>
        <defs>
                <circle id="rim" cx="0" cy="0" r="7"/>
                <circle id="rim2" cx="0" cy="0" r="3.5"/>
                <g id="zoomPlus">
                        <use xlink:href="#rim" fill="#404040">
                                <set attributeName="fill" to="#808080" begin="zoomplus.mouseover" end="zoomplus.mouseout"/>
                        </use>
                        <path d="M-4,0h8M0,-4v8" fill="none" stroke="white" stroke-width="1.5" pointer-events="none"/>
                </g>
                <g id="zoomMin">
                        <use xlink:href="#rim" fill="#404040">
                                <set attributeName="fill" to="#808080" begin="zoomminus.mouseover" end="zoomminus.mouseout"/>
                        </use>
                        <path d="M-4,0h8" fill="none" stroke="white" stroke-width="1.5" pointer-events="none"/>
                </g>
                <g id="dirArrow">
                        <path fill="none" stroke="white" stroke-width="1.5" d="M0,-3.0v7 M-2.5,-0.5L0,-3.0L2.5,-0.5"/>
                </g>
               <g id="resetDef">
                       <use xlink:href="#rim2" fill="#404040">
                               <set attributeName="fill" to="#808080" begin="reset.mouseover" end="reset.mouseout"/>
                       </use>
               </g>
        </defs>

<script type="text/javascript">
var viewWidth = 772;
var viewHeight = 1111;
var sectionId = 'dynsection-13';
</script>
<script xlink:href="../../svgpan.js"/>
<svg id="graph" class="graph">
<g id="viewport">
<title>ExFatFile::close</title>
<polygon fill="white" stroke="transparent" points="-4,4 -4,-1107 768,-1107 768,4 -4,4"/>
<!-- Node1 -->
<g id="node1" class="node">
<title>Node1</title>
<g id="a_node1"><a xlink:title=" ">
<polygon fill="#bfbfbf" stroke="black" points="663,-807.5 663,-828.5 764,-828.5 764,-807.5 663,-807.5"/>
<text text-anchor="middle" x="713.5" y="-814.9" font-family="Helvetica,sans-Serif" font-size="12.00">ExFatFile::close</text>
</a>
</g>
</g>
<!-- Node2 -->
<g id="node2" class="node">
<title>Node2</title>
<g id="a_node2"><a xlink:href="../../da/d35/class_ex_fat_volume.html#abdc1addfc9474bf42cab31bcb49b4b65" target="_top" xlink:title=" ">
<polygon fill="white" stroke="black" points="508,-1061.5 508,-1082.5 627,-1082.5 627,-1061.5 508,-1061.5"/>
<text text-anchor="middle" x="567.5" y="-1068.9" font-family="Helvetica,sans-Serif" font-size="12.00">ExFatVolume::chdir</text>
</a>
</g>
</g>
<!-- Node1&#45;&gt;Node2 -->
<g id="edge1" class="edge">
<title>Node1&#45;&gt;Node2</title>
<path fill="none" stroke="midnightblue" d="M708.45,-838.8C699.66,-879.58 675.59,-971.37 627,-1032 617.07,-1044.39 602.3,-1054.45 590.08,-1061.38"/>
<polygon fill="midnightblue" stroke="midnightblue" points="711.89,-839.43 710.49,-828.93 705.04,-838.01 711.89,-839.43"/>
</g>
<!-- Node5 -->
<g id="node5" class="node">
<title>Node5</title>
<g id="a_node5"><a xlink:href="../../d7/d76/class_fs_base_file.html#aa669c695a839e68e417fb15eebe3de13" target="_top" xlink:title=" ">
<polygon fill="white" stroke="black" points="512,-807.5 512,-828.5 623,-828.5 623,-807.5 512,-807.5"/>
<text text-anchor="middle" x="567.5" y="-814.9" font-family="Helvetica,sans-Serif" font-size="12.00">FsBaseFile::close</text>
</a>
</g>
</g>
<!-- Node1&#45;&gt;Node5 -->
<g id="edge4" class="edge">
<title>Node1&#45;&gt;Node5</title>
<path fill="none" stroke="midnightblue" d="M652.82,-818C642.97,-818 632.8,-818 623.08,-818"/>
<polygon fill="midnightblue" stroke="midnightblue" points="652.94,-821.5 662.94,-818 652.94,-814.5 652.94,-821.5"/>
</g>
<!-- Node21 -->
<g id="node21" class="node">
<title>Node21</title>
<g id="a_node21"><a xlink:href="../../d5/d14/class_ex_fat_file.html#aa0e074c891f3db5ea2ebd491667b03a6" target="_top" xlink:title=" ">
<polygon fill="white" stroke="black" points="527,-40.5 527,-61.5 608,-61.5 608,-40.5 527,-40.5"/>
<text text-anchor="middle" x="567.5" y="-47.9" font-family="Helvetica,sans-Serif" font-size="12.00">ExFatFile::ls</text>
</a>
</g>
</g>
<!-- Node1&#45;&gt;Node21 -->
<g id="edge20" class="edge">
<title>Node1&#45;&gt;Node21</title>
<path fill="none" stroke="midnightblue" d="M708.79,-797.25C697.05,-731.71 659.57,-523.29 627,-351 605.56,-237.59 578.32,-100.34 570.62,-61.62"/>
<polygon fill="midnightblue" stroke="midnightblue" points="705.41,-798.24 710.62,-807.47 712.3,-797.01 705.41,-798.24"/>
</g>
<!-- Node24 -->
<g id="node24" class="node">
<title>Node24</title>
<g id="a_node24"><a xlink:href="../../d5/d14/class_ex_fat_file.html#ad9ca8c5ba1de8965e65b9f25f31baeff" target="_top" xlink:title=" ">
<polygon fill="white" stroke="black" points="516.5,-1001.5 516.5,-1022.5 618.5,-1022.5 618.5,-1001.5 516.5,-1001.5"/>
<text text-anchor="middle" x="567.5" y="-1008.9" font-family="Helvetica,sans-Serif" font-size="12.00">ExFatFile::mkdir</text>
</a>
</g>
</g>
<!-- Node1&#45;&gt;Node24 -->
<g id="edge23" class="edge">
<title>Node1&#45;&gt;Node24</title>
<path fill="none" stroke="midnightblue" d="M698.51,-836.84C668.79,-876.88 600.15,-969.36 576.6,-1001.09"/>
<polygon fill="midnightblue" stroke="midnightblue" points="701.4,-838.82 704.55,-828.71 695.78,-834.65 701.4,-838.82"/>
</g>
<!-- Node26 -->
<g id="node26" class="node">
<title>Node26</title>
<g id="a_node26"><a xlink:href="../../d5/d14/class_ex_fat_file.html#a354ba015486119b46be89b10ef200d27" target="_top" xlink:title=" ">
<polygon fill="white" stroke="black" points="518,-360.5 518,-381.5 617,-381.5 617,-360.5 518,-360.5"/>
<text text-anchor="middle" x="567.5" y="-367.9" font-family="Helvetica,sans-Serif" font-size="12.00">ExFatFile::open</text>
</a>
</g>
</g>
<!-- Node1&#45;&gt;Node26 -->
<g id="edge26" class="edge">
<title>Node1&#45;&gt;Node26</title>
<path fill="none" stroke="midnightblue" d="M705.98,-797.77C680.86,-719.77 590.74,-440.04 571.95,-381.71"/>
<polygon fill="midnightblue" stroke="midnightblue" points="702.68,-798.95 709.08,-807.39 709.35,-796.8 702.68,-798.95"/>
</g>
<!-- Node3 -->
<g id="node3" class="node">
<title>Node3</title>
<g id="a_node3"><a xlink:href="../../da/d35/class_ex_fat_volume.html#ade318d2517a1bd3abe56e9e530fdcd78" target="_top" xlink:title=" ">
<polygon fill="white" stroke="black" points="314.5,-1081.5 314.5,-1102.5 436.5,-1102.5 436.5,-1081.5 314.5,-1081.5"/>
<text text-anchor="middle" x="375.5" y="-1088.9" font-family="Helvetica,sans-Serif" font-size="12.00">ExFatVolume::begin</text>
</a>
</g>
</g>
<!-- Node2&#45;&gt;Node3 -->
<g id="edge2" class="edge">
<title>Node2&#45;&gt;Node3</title>
<path fill="none" stroke="midnightblue" d="M497.92,-1079.22C477.83,-1081.33 456.02,-1083.63 436.5,-1085.68"/>
<polygon fill="midnightblue" stroke="midnightblue" points="498.36,-1082.69 507.94,-1078.16 497.63,-1075.73 498.36,-1082.69"/>
</g>
<!-- Node4 -->
<g id="node4" class="node">
<title>Node4</title>
<g id="a_node4"><a xlink:href="../../df/dd9/class_fs_volume.html#ae587e7c114b0af86ec0b2927300133b0" target="_top" xlink:title=" ">
<polygon fill="white" stroke="black" points="106.5,-1081.5 106.5,-1102.5 211.5,-1102.5 211.5,-1081.5 106.5,-1081.5"/>
<text text-anchor="middle" x="159" y="-1088.9" font-family="Helvetica,sans-Serif" font-size="12.00">FsVolume::begin</text>
</a>
</g>
</g>
<!-- Node3&#45;&gt;Node4 -->
<g id="edge3" class="edge">
<title>Node3&#45;&gt;Node4</title>
<path fill="none" stroke="midnightblue" d="M304.4,-1092C274.18,-1092 239.46,-1092 211.65,-1092"/>
<polygon fill="midnightblue" stroke="midnightblue" points="304.46,-1095.5 314.46,-1092 304.46,-1088.5 304.46,-1095.5"/>
</g>
<!-- Node6 -->
<g id="node6" class="node">
<title>Node6</title>
<g id="a_node6"><a xlink:href="../../d7/d76/class_fs_base_file.html#ab148c0eb86197666a251a2f0a15f2a02" target="_top" xlink:title=" ">
<polygon fill="white" stroke="black" points="300,-827.5 300,-848.5 451,-848.5 451,-827.5 300,-827.5"/>
<text text-anchor="middle" x="375.5" y="-834.9" font-family="Helvetica,sans-Serif" font-size="12.00">FsBaseFile::~FsBaseFile</text>
</a>
</g>
</g>
<!-- Node5&#45;&gt;Node6 -->
<g id="edge5" class="edge">
<title>Node5&#45;&gt;Node6</title>
<path fill="none" stroke="midnightblue" d="M501.41,-824.85C485.27,-826.55 467.86,-828.38 451.31,-830.13"/>
<polygon fill="midnightblue" stroke="midnightblue" points="502.22,-828.29 511.8,-823.76 501.49,-821.32 502.22,-828.29"/>
</g>
<!-- Node7 -->
<g id="node7" class="node">
<title>Node7</title>
<g id="a_node7"><a xlink:href="../../d8/d5a/class_i_l_i9341__t3___e_r_i_s.html#a62cbbd94867557ffbe8d9a2c832c8716" target="_top" xlink:title=" ">
<polygon fill="white" stroke="black" points="305.5,-787.5 305.5,-808.5 445.5,-808.5 445.5,-787.5 305.5,-787.5"/>
<text text-anchor="middle" x="375.5" y="-794.9" font-family="Helvetica,sans-Serif" font-size="12.00">ILI9341_t3_ERIS::bltSD</text>
</a>
</g>
</g>
<!-- Node5&#45;&gt;Node7 -->
<g id="edge6" class="edge">
<title>Node5&#45;&gt;Node7</title>
<path fill="none" stroke="midnightblue" d="M501.68,-811.18C483.64,-809.28 463.99,-807.21 445.71,-805.29"/>
<polygon fill="midnightblue" stroke="midnightblue" points="501.49,-814.68 511.8,-812.24 502.22,-807.71 501.49,-814.68"/>
</g>
<!-- Node9 -->
<g id="node9" class="node">
<title>Node9</title>
<g id="a_node9"><a xlink:href="../../d8/d5a/class_i_l_i9341__t3___e_r_i_s.html#acaa55520092d6b9974963132c366b458" target="_top" xlink:title=" ">
<polygon fill="white" stroke="black" points="279,-734 279,-768 472,-768 472,-734 279,-734"/>
<text text-anchor="start" x="287" y="-754.4" font-family="Helvetica,sans-Serif" font-size="12.00">ILI9341_t3_ERIS::bltSDAnimation</text>
<text text-anchor="middle" x="375.5" y="-741.4" font-family="Helvetica,sans-Serif" font-size="12.00">FullScreen</text>
</a>
</g>
</g>
<!-- Node5&#45;&gt;Node9 -->
<g id="edge8" class="edge">
<title>Node5&#45;&gt;Node9</title>
<path fill="none" stroke="midnightblue" d="M534.4,-803.24C516.3,-795.21 493.13,-785.43 472,-778 462.08,-774.52 451.47,-771.16 441.06,-768.07"/>
<polygon fill="midnightblue" stroke="midnightblue" points="533.34,-806.59 543.9,-807.49 536.2,-800.21 533.34,-806.59"/>
</g>
<!-- Node12 -->
<g id="node12" class="node">
<title>Node12</title>
<g id="a_node12"><a xlink:href="../../d8/d5a/class_i_l_i9341__t3___e_r_i_s.html#a6efb6ee1407d55e237e86b7557d89b75" target="_top" xlink:title=" ">
<polygon fill="white" stroke="black" points="296.5,-681 296.5,-715 454.5,-715 454.5,-681 296.5,-681"/>
<text text-anchor="start" x="304.5" y="-701.4" font-family="Helvetica,sans-Serif" font-size="12.00">ILI9341_t3_ERIS::bltSDFull</text>
<text text-anchor="middle" x="375.5" y="-688.4" font-family="Helvetica,sans-Serif" font-size="12.00">Screen</text>
</a>
</g>
</g>
<!-- Node5&#45;&gt;Node12 -->
<g id="edge11" class="edge">
<title>Node5&#45;&gt;Node12</title>
<path fill="none" stroke="midnightblue" d="M552.49,-799.43C535.64,-778.36 505.41,-744.42 472,-725 465.45,-721.19 458.32,-717.89 451.02,-715.04"/>
<polygon fill="midnightblue" stroke="midnightblue" points="549.75,-801.61 558.67,-807.33 555.27,-797.3 549.75,-801.61"/>
</g>
<!-- Node13 -->
<g id="node13" class="node">
<title>Node13</title>
<g id="a_node13"><a xlink:href="../../d7/d76/class_fs_base_file.html#a8b7aa7f2c63882e483336dfe12ef6800" target="_top" xlink:title=" ">
<polygon fill="white" stroke="black" points="319,-1001.5 319,-1022.5 432,-1022.5 432,-1001.5 319,-1001.5"/>
<text text-anchor="middle" x="375.5" y="-1008.9" font-family="Helvetica,sans-Serif" font-size="12.00">FsBaseFile::mkdir</text>
</a>
</g>
</g>
<!-- Node5&#45;&gt;Node13 -->
<g id="edge12" class="edge">
<title>Node5&#45;&gt;Node13</title>
<path fill="none" stroke="midnightblue" d="M561.39,-838.77C551.16,-875.79 524.48,-952.94 472,-992 460.59,-1000.5 446.38,-1005.57 432.44,-1008.55"/>
<polygon fill="midnightblue" stroke="midnightblue" points="564.89,-839.22 564.05,-828.66 558.12,-837.44 564.89,-839.22"/>
</g>
<!-- Node14 -->
<g id="node14" class="node">
<title>Node14</title>
<g id="a_node14"><a xlink:href="../../d7/d76/class_fs_base_file.html#a9786eb47f5d001e89ff291c271517547" target="_top" xlink:title=" ">
<polygon fill="white" stroke="black" points="320.5,-600.5 320.5,-621.5 430.5,-621.5 430.5,-600.5 320.5,-600.5"/>
<text text-anchor="middle" x="375.5" y="-607.9" font-family="Helvetica,sans-Serif" font-size="12.00">FsBaseFile::open</text>
</a>
</g>
</g>
<!-- Node5&#45;&gt;Node14 -->
<g id="edge13" class="edge">
<title>Node5&#45;&gt;Node14</title>
<path fill="none" stroke="midnightblue" d="M562.32,-797.59C553.22,-758.65 527.8,-673.83 472,-631 460.18,-621.92 445.2,-616.72 430.63,-613.81"/>
<polygon fill="midnightblue" stroke="midnightblue" points="558.93,-798.48 564.51,-807.49 565.77,-796.97 558.93,-798.48"/>
</g>
<!-- Node15 -->
<g id="node15" class="node">
<title>Node15</title>
<g id="a_node15"><a xlink:href="../../d7/d76/class_fs_base_file.html#acb9b1075f4db76fa7e0521c9aff9c3df" target="_top" xlink:title=" ">
<polygon fill="white" stroke="black" points="309,-640.5 309,-661.5 442,-661.5 442,-640.5 309,-640.5"/>
<text text-anchor="middle" x="375.5" y="-647.9" font-family="Helvetica,sans-Serif" font-size="12.00">FsBaseFile::openNext</text>
</a>
</g>
</g>
<!-- Node5&#45;&gt;Node15 -->
<g id="edge14" class="edge">
<title>Node5&#45;&gt;Node15</title>
<path fill="none" stroke="midnightblue" d="M559.15,-797.46C546.55,-765.35 517.7,-703.69 472,-672 463.07,-665.81 452.64,-661.4 442.01,-658.27"/>
<polygon fill="midnightblue" stroke="midnightblue" points="555.99,-799.01 562.8,-807.13 562.54,-796.53 555.99,-799.01"/>
</g>
<!-- Node17 -->
<g id="node17" class="node">
<title>Node17</title>
<g id="a_node17"><a xlink:href="../../d7/d76/class_fs_base_file.html#a0b4574665073272dd811224df9f0e23c" target="_top" xlink:title=" ">
<polygon fill="white" stroke="black" points="308.5,-961.5 308.5,-982.5 442.5,-982.5 442.5,-961.5 308.5,-961.5"/>
<text text-anchor="middle" x="375.5" y="-968.9" font-family="Helvetica,sans-Serif" font-size="12.00">FsBaseFile::openRoot</text>
</a>
</g>
</g>
<!-- Node5&#45;&gt;Node17 -->
<g id="edge16" class="edge">
<title>Node5&#45;&gt;Node17</title>
<path fill="none" stroke="midnightblue" d="M558.14,-838.19C544.66,-868.07 515.2,-923.61 472,-952 463.22,-957.77 453.1,-961.92 442.79,-964.89"/>
<polygon fill="midnightblue" stroke="midnightblue" points="561.45,-839.34 562.24,-828.77 555.04,-836.54 561.45,-839.34"/>
</g>
<!-- Node18 -->
<g id="node18" class="node">
<title>Node18</title>
<g id="a_node18"><a xlink:href="../../d7/d76/class_fs_base_file.html#ae4f6d168072bb4f2a61976f621659d20" target="_top" xlink:title=" ">
<polygon fill="white" stroke="black" points="308.5,-921.5 308.5,-942.5 442.5,-942.5 442.5,-921.5 308.5,-921.5"/>
<text text-anchor="middle" x="375.5" y="-928.9" font-family="Helvetica,sans-Serif" font-size="12.00">FsBaseFile::operator=</text>
</a>
</g>
</g>
<!-- Node5&#45;&gt;Node18 -->
<g id="edge17" class="edge">
<title>Node5&#45;&gt;Node18</title>
<path fill="none" stroke="midnightblue" d="M553.03,-836.85C536.49,-858.52 506.37,-893.46 472,-912 462.98,-916.86 452.89,-920.55 442.74,-923.33"/>
<polygon fill="midnightblue" stroke="midnightblue" points="555.91,-838.85 559.07,-828.73 550.29,-834.67 555.91,-838.85"/>
</g>
<!-- Node19 -->
<g id="node19" class="node">
<title>Node19</title>
<g id="a_node19"><a xlink:href="../../d9/dad/class_app_serial_command_interface.html#af56b3d04970b89ffc7cb21e0466fa456" target="_top" xlink:title=" ">
<polygon fill="white" stroke="black" points="291.5,-868 291.5,-902 459.5,-902 459.5,-868 291.5,-868"/>
<text text-anchor="start" x="299.5" y="-888.4" font-family="Helvetica,sans-Serif" font-size="12.00">AppSerialCommandInterface</text>
<text text-anchor="middle" x="375.5" y="-875.4" font-family="Helvetica,sans-Serif" font-size="12.00">::streamHandler</text>
</a>
</g>
</g>
<!-- Node5&#45;&gt;Node19 -->
<g id="edge18" class="edge">
<title>Node5&#45;&gt;Node19</title>
<path fill="none" stroke="midnightblue" d="M534.4,-832.76C516.3,-840.79 493.13,-850.57 472,-858 462.08,-861.48 451.47,-864.84 441.06,-867.93"/>
<polygon fill="midnightblue" stroke="midnightblue" points="536.2,-835.79 543.9,-828.51 533.34,-829.41 536.2,-835.79"/>
</g>
<!-- Node8 -->
<g id="node8" class="node">
<title>Node8</title>
<g id="a_node8"><a xlink:href="../../df/d17/class_control_button.html#a400f6513880fa5a993c8a427d74913c2" target="_top" xlink:title=" ">
<polygon fill="white" stroke="black" points="94.5,-787.5 94.5,-808.5 223.5,-808.5 223.5,-787.5 94.5,-787.5"/>
<text text-anchor="middle" x="159" y="-794.9" font-family="Helvetica,sans-Serif" font-size="12.00">ControlButton::update</text>
</a>
</g>
</g>
<!-- Node7&#45;&gt;Node8 -->
<g id="edge7" class="edge">
<title>Node7&#45;&gt;Node8</title>
<path fill="none" stroke="midnightblue" d="M295.16,-798C271.65,-798 246.22,-798 223.83,-798"/>
<polygon fill="midnightblue" stroke="midnightblue" points="295.45,-801.5 305.45,-798 295.45,-794.5 295.45,-801.5"/>
</g>
<!-- Node10 -->
<g id="node10" class="node">
<title>Node10</title>
<g id="a_node10"><a xlink:href="../../da/d96/class_app_manager.html#ab4352bf5559866e77c333e74af7c2210" target="_top" xlink:title="AppManager update executes single update of the state machine.">
<polygon fill="white" stroke="black" points="95.5,-740.5 95.5,-761.5 222.5,-761.5 222.5,-740.5 95.5,-740.5"/>
<text text-anchor="middle" x="159" y="-747.9" font-family="Helvetica,sans-Serif" font-size="12.00">AppManager::update</text>
</a>
</g>
</g>
<!-- Node9&#45;&gt;Node10 -->
<g id="edge9" class="edge">
<title>Node9&#45;&gt;Node10</title>
<path fill="none" stroke="midnightblue" d="M268.52,-751C252.77,-751 236.98,-751 222.52,-751"/>
<polygon fill="midnightblue" stroke="midnightblue" points="268.86,-754.5 278.86,-751 268.86,-747.5 268.86,-754.5"/>
</g>
<!-- Node11 -->
<g id="node11" class="node">
<title>Node11</title>
<g id="a_node11"><a xlink:href="../../d6/dd8/_eris_core_8cpp.html#a0b33edabd7f1c4e4a0bf32c67269be2f" target="_top" xlink:title=" ">
<polygon fill="white" stroke="black" points="0,-740.5 0,-761.5 39,-761.5 39,-740.5 0,-740.5"/>
<text text-anchor="middle" x="19.5" y="-747.9" font-family="Helvetica,sans-Serif" font-size="12.00">loop</text>
</a>
</g>
</g>
<!-- Node10&#45;&gt;Node11 -->
<g id="edge10" class="edge">
<title>Node10&#45;&gt;Node11</title>
<path fill="none" stroke="midnightblue" d="M85.22,-751C68.14,-751 51.38,-751 39.2,-751"/>
<polygon fill="midnightblue" stroke="midnightblue" points="85.29,-754.5 95.29,-751 85.29,-747.5 85.29,-754.5"/>
</g>
<!-- Node16 -->
<g id="node16" class="node">
<title>Node16</title>
<g id="a_node16"><a xlink:href="../../d4/da1/class_fs_file.html#ab2f85961e3831d0d654da862becb7433" target="_top" xlink:title=" ">
<polygon fill="white" stroke="black" points="96.5,-640.5 96.5,-661.5 221.5,-661.5 221.5,-640.5 96.5,-640.5"/>
<text text-anchor="middle" x="159" y="-647.9" font-family="Helvetica,sans-Serif" font-size="12.00">FsFile::openNextFile</text>
</a>
</g>
</g>
<!-- Node15&#45;&gt;Node16 -->
<g id="edge15" class="edge">
<title>Node15&#45;&gt;Node16</title>
<path fill="none" stroke="midnightblue" d="M298.73,-651C273.55,-651 245.82,-651 221.82,-651"/>
<polygon fill="midnightblue" stroke="midnightblue" points="298.98,-654.5 308.98,-651 298.98,-647.5 298.98,-654.5"/>
</g>
<!-- Node20 -->
<g id="node20" class="node">
<title>Node20</title>
<g id="a_node20"><a xlink:href="../../d9/dad/class_app_serial_command_interface.html#a78cb6587862058ba6a6b4bfd9b9ecee1" target="_top" xlink:title=" ">
<polygon fill="white" stroke="black" points="75,-868 75,-902 243,-902 243,-868 75,-868"/>
<text text-anchor="start" x="83" y="-888.4" font-family="Helvetica,sans-Serif" font-size="12.00">AppSerialCommandInterface</text>
<text text-anchor="middle" x="159" y="-875.4" font-family="Helvetica,sans-Serif" font-size="12.00">::updateRT</text>
</a>
</g>
</g>
<!-- Node19&#45;&gt;Node20 -->
<g id="edge19" class="edge">
<title>Node19&#45;&gt;Node20</title>
<path fill="none" stroke="midnightblue" d="M281.19,-885C268.55,-885 255.64,-885 243.19,-885"/>
<polygon fill="midnightblue" stroke="midnightblue" points="281.26,-888.5 291.26,-885 281.26,-881.5 281.26,-888.5"/>
</g>
<!-- Node22 -->
<g id="node22" class="node">
<title>Node22</title>
<g id="a_node22"><a xlink:href="../../d5/d14/class_ex_fat_file.html#a09f8beb55f939874e93c1df6c8a046d4" target="_top" xlink:title=" ">
<polygon fill="white" stroke="black" points="335,-0.5 335,-21.5 416,-21.5 416,-0.5 335,-0.5"/>
<text text-anchor="middle" x="375.5" y="-7.9" font-family="Helvetica,sans-Serif" font-size="12.00">ExFatFile::ls</text>
</a>
</g>
</g>
<!-- Node21&#45;&gt;Node22 -->
<g id="edge21" class="edge">
<title>Node21&#45;&gt;Node22</title>
<path fill="none" stroke="midnightblue" d="M517.15,-40.54C502.61,-37.46 486.67,-34.09 472,-31 453.77,-27.16 433.57,-22.93 416.46,-19.35"/>
<polygon fill="midnightblue" stroke="midnightblue" points="516.45,-43.97 526.96,-42.61 517.9,-37.12 516.45,-43.97"/>
</g>
<!-- Node23 -->
<g id="node23" class="node">
<title>Node23</title>
<g id="a_node23"><a xlink:href="../../da/d35/class_ex_fat_volume.html#abe1e8cad0a5922984b28edfd987bc856" target="_top" xlink:title=" ">
<polygon fill="white" stroke="black" points="325,-40.5 325,-61.5 426,-61.5 426,-40.5 325,-40.5"/>
<text text-anchor="middle" x="375.5" y="-47.9" font-family="Helvetica,sans-Serif" font-size="12.00">ExFatVolume::ls</text>
</a>
</g>
</g>
<!-- Node21&#45;&gt;Node23 -->
<g id="edge22" class="edge">
<title>Node21&#45;&gt;Node23</title>
<path fill="none" stroke="midnightblue" d="M516.34,-51C488.45,-51 453.88,-51 426.09,-51"/>
<polygon fill="midnightblue" stroke="midnightblue" points="516.67,-54.5 526.67,-51 516.67,-47.5 516.67,-54.5"/>
</g>
<!-- Node24&#45;&gt;Node13 -->
<g id="edge25" class="edge">
<title>Node24&#45;&gt;Node13</title>
<path fill="none" stroke="midnightblue" d="M505.83,-1012C482.2,-1012 455.3,-1012 432.17,-1012"/>
<polygon fill="midnightblue" stroke="midnightblue" points="506.08,-1015.5 516.08,-1012 506.08,-1008.5 506.08,-1015.5"/>
</g>
<!-- Node25 -->
<g id="node25" class="node">
<title>Node25</title>
<g id="a_node25"><a xlink:href="../../da/d35/class_ex_fat_volume.html#abb00cfff7943fe637a99b292798865e0" target="_top" xlink:title=" ">
<polygon fill="white" stroke="black" points="314.5,-1041.5 314.5,-1062.5 436.5,-1062.5 436.5,-1041.5 314.5,-1041.5"/>
<text text-anchor="middle" x="375.5" y="-1048.9" font-family="Helvetica,sans-Serif" font-size="12.00">ExFatVolume::mkdir</text>
</a>
</g>
</g>
<!-- Node24&#45;&gt;Node25 -->
<g id="edge24" class="edge">
<title>Node24&#45;&gt;Node25</title>
<path fill="none" stroke="midnightblue" d="M506.94,-1024.63C495.35,-1027.08 483.3,-1029.62 472,-1032 457.41,-1035.07 441.57,-1038.39 427.06,-1041.43"/>
<polygon fill="midnightblue" stroke="midnightblue" points="507.91,-1028 516.97,-1022.5 506.46,-1021.15 507.91,-1028"/>
</g>
<!-- Node26&#45;&gt;Node14 -->
<g id="edge35" class="edge">
<title>Node26&#45;&gt;Node14</title>
<path fill="none" stroke="midnightblue" d="M563.98,-391.57C557.45,-435.52 535.78,-538.81 472,-591 460.33,-600.55 445.23,-605.87 430.5,-608.76"/>
<polygon fill="midnightblue" stroke="midnightblue" points="567.47,-391.9 565.36,-381.52 560.53,-390.95 567.47,-391.9"/>
</g>
<!-- Node27 -->
<g id="node27" class="node">
<title>Node27</title>
<g id="a_node27"><a xlink:href="../../d5/d14/class_ex_fat_file.html#ab1be7938b64f74a51581f4839fefed4b" target="_top" xlink:title=" ">
<polygon fill="white" stroke="black" points="314,-160.5 314,-181.5 437,-181.5 437,-160.5 314,-160.5"/>
<text text-anchor="middle" x="375.5" y="-167.9" font-family="Helvetica,sans-Serif" font-size="12.00">ExFatFile::ExFatFile</text>
</a>
</g>
</g>
<!-- Node26&#45;&gt;Node27 -->
<g id="edge27" class="edge">
<title>Node26&#45;&gt;Node27</title>
<path fill="none" stroke="midnightblue" d="M561.88,-350.56C552.21,-312.71 526.09,-231.85 472,-191 461.86,-183.34 449.47,-178.46 437.01,-175.37"/>
<polygon fill="midnightblue" stroke="midnightblue" points="558.52,-351.54 564.28,-360.43 565.32,-349.89 558.52,-351.54"/>
</g>
<!-- Node28 -->
<g id="node28" class="node">
<title>Node28</title>
<g id="a_node28"><a xlink:href="../../da/d35/class_ex_fat_volume.html#a0f9c04da8382686190df76ff957e9a19" target="_top" xlink:title=" ">
<polygon fill="white" stroke="black" points="316,-120.5 316,-141.5 435,-141.5 435,-120.5 316,-120.5"/>
<text text-anchor="middle" x="375.5" y="-127.9" font-family="Helvetica,sans-Serif" font-size="12.00">ExFatVolume::chdir</text>
</a>
</g>
</g>
<!-- Node26&#45;&gt;Node28 -->
<g id="edge28" class="edge">
<title>Node26&#45;&gt;Node28</title>
<path fill="none" stroke="midnightblue" d="M563.98,-350.43C557.45,-306.48 535.78,-203.19 472,-151 461.64,-142.53 448.58,-137.38 435.48,-134.31"/>
<polygon fill="midnightblue" stroke="midnightblue" points="560.53,-351.05 565.36,-360.48 567.47,-350.1 560.53,-351.05"/>
</g>
<!-- Node29 -->
<g id="node29" class="node">
<title>Node29</title>
<g id="a_node29"><a xlink:href="../../d5/d14/class_ex_fat_file.html#a32df2d7ac56a76a647cedf4192ac9abe" target="_top" xlink:title=" ">
<polygon fill="white" stroke="black" points="324,-80.5 324,-101.5 427,-101.5 427,-80.5 324,-80.5"/>
<text text-anchor="middle" x="375.5" y="-87.9" font-family="Helvetica,sans-Serif" font-size="12.00">ExFatFile::exists</text>
</a>
</g>
</g>
<!-- Node26&#45;&gt;Node29 -->
<g id="edge29" class="edge">
<title>Node26&#45;&gt;Node29</title>
<path fill="none" stroke="midnightblue" d="M565.48,-350.18C561.88,-300.57 545.56,-174.78 472,-111 459.71,-100.35 443.21,-94.87 427.38,-92.19"/>
<polygon fill="midnightblue" stroke="midnightblue" points="562,-350.56 566.11,-360.32 568.99,-350.12 562,-350.56"/>
</g>
<!-- Node31 -->
<g id="node31" class="node">
<title>Node31</title>
<g id="a_node31"><a xlink:href="../../da/d35/class_ex_fat_volume.html#a5e2e029b02d3c98bc0b8fcbdab566af6" target="_top" xlink:title=" ">
<polygon fill="white" stroke="black" points="314,-400.5 314,-421.5 437,-421.5 437,-400.5 314,-400.5"/>
<text text-anchor="middle" x="375.5" y="-407.9" font-family="Helvetica,sans-Serif" font-size="12.00">ExFatVolume::exists</text>
</a>
</g>
</g>
<!-- Node26&#45;&gt;Node31 -->
<g id="edge31" class="edge">
<title>Node26&#45;&gt;Node31</title>
<path fill="none" stroke="midnightblue" d="M508.08,-383.39C496.14,-385.91 483.67,-388.54 472,-391 457.41,-394.07 441.57,-397.39 427.06,-400.43"/>
<polygon fill="midnightblue" stroke="midnightblue" points="508.88,-386.79 517.94,-381.3 507.44,-379.94 508.88,-386.79"/>
</g>
<!-- Node32 -->
<g id="node32" class="node">
<title>Node32</title>
<g id="a_node32"><a xlink:href="../../da/d35/class_ex_fat_volume.html#a2e44d5d26a25d610c4b0d97fa5b1f505" target="_top" xlink:title=" ">
<polygon fill="white" stroke="black" points="325,-360.5 325,-381.5 426,-381.5 426,-360.5 325,-360.5"/>
<text text-anchor="middle" x="375.5" y="-367.9" font-family="Helvetica,sans-Serif" font-size="12.00">ExFatVolume::ls</text>
</a>
</g>
</g>
<!-- Node26&#45;&gt;Node32 -->
<g id="edge32" class="edge">
<title>Node26&#45;&gt;Node32</title>
<path fill="none" stroke="midnightblue" d="M507.44,-371C481.4,-371 451.13,-371 426.26,-371"/>
<polygon fill="midnightblue" stroke="midnightblue" points="507.57,-374.5 517.57,-371 507.57,-367.5 507.57,-374.5"/>
</g>
<!-- Node33 -->
<g id="node33" class="node">
<title>Node33</title>
<g id="a_node33"><a xlink:href="../../d5/d14/class_ex_fat_file.html#aaf738b1f00b8ae1664020f238c1a9a48" target="_top" xlink:title=" ">
<polygon fill="white" stroke="black" points="326,-320.5 326,-341.5 425,-341.5 425,-320.5 326,-320.5"/>
<text text-anchor="middle" x="375.5" y="-327.9" font-family="Helvetica,sans-Serif" font-size="12.00">ExFatFile::open</text>
</a>
</g>
</g>
<!-- Node26&#45;&gt;Node33 -->
<g id="edge33" class="edge">
<title>Node26&#45;&gt;Node33</title>
<path fill="none" stroke="midnightblue" d="M508.08,-358.61C496.14,-356.09 483.67,-353.46 472,-351 456.75,-347.79 440.13,-344.3 425.09,-341.15"/>
<polygon fill="midnightblue" stroke="midnightblue" points="507.44,-362.06 517.94,-360.7 508.88,-355.21 507.44,-362.06"/>
</g>
<!-- Node34 -->
<g id="node34" class="node">
<title>Node34</title>
<g id="a_node34"><a xlink:href="../../da/d35/class_ex_fat_volume.html#ae5d8f37ac6505471ef78fb4db518fb8b" target="_top" xlink:title=" ">
<polygon fill="white" stroke="black" points="316,-280.5 316,-301.5 435,-301.5 435,-280.5 316,-280.5"/>
<text text-anchor="middle" x="375.5" y="-287.9" font-family="Helvetica,sans-Serif" font-size="12.00">ExFatVolume::open</text>
</a>
</g>
</g>
<!-- Node26&#45;&gt;Node34 -->
<g id="edge34" class="edge">
<title>Node26&#45;&gt;Node34</title>
<path fill="none" stroke="midnightblue" d="M545.03,-354.18C526.63,-340.57 498.92,-321.94 472,-311 460.39,-306.28 447.51,-302.62 435.07,-299.8"/>
<polygon fill="midnightblue" stroke="midnightblue" points="543.18,-357.16 553.27,-360.39 547.39,-351.58 543.18,-357.16"/>
</g>
<!-- Node35 -->
<g id="node35" class="node">
<title>Node35</title>
<g id="a_node35"><a xlink:href="../../d5/d14/class_ex_fat_file.html#a145a2fa9269876bae17a44569b4625fb" target="_top" xlink:title=" ">
<polygon fill="white" stroke="black" points="319.5,-240.5 319.5,-261.5 431.5,-261.5 431.5,-240.5 319.5,-240.5"/>
<text text-anchor="middle" x="375.5" y="-247.9" font-family="Helvetica,sans-Serif" font-size="12.00">ExFatFile::remove</text>
</a>
</g>
</g>
<!-- Node26&#45;&gt;Node35 -->
<g id="edge36" class="edge">
<title>Node26&#45;&gt;Node35</title>
<path fill="none" stroke="midnightblue" d="M554.03,-351.95C537.93,-328.98 507.7,-290.97 472,-271 459.73,-264.14 445.38,-259.62 431.58,-256.65"/>
<polygon fill="midnightblue" stroke="midnightblue" points="551.15,-353.94 559.67,-360.23 556.93,-349.99 551.15,-353.94"/>
</g>
<!-- Node36 -->
<g id="node36" class="node">
<title>Node36</title>
<g id="a_node36"><a xlink:href="../../da/d35/class_ex_fat_volume.html#ac4d15484d30dd40ecdb4d331d29534d9" target="_top" xlink:title=" ">
<polygon fill="white" stroke="black" points="309.5,-200.5 309.5,-221.5 441.5,-221.5 441.5,-200.5 309.5,-200.5"/>
<text text-anchor="middle" x="375.5" y="-207.9" font-family="Helvetica,sans-Serif" font-size="12.00">ExFatVolume::remove</text>
</a>
</g>
</g>
<!-- Node26&#45;&gt;Node36 -->
<g id="edge37" class="edge">
<title>Node26&#45;&gt;Node36</title>
<path fill="none" stroke="midnightblue" d="M558.75,-350.79C545.78,-319.79 516.61,-260.98 472,-231 463,-224.95 452.53,-220.68 441.89,-217.67"/>
<polygon fill="midnightblue" stroke="midnightblue" points="555.54,-352.18 562.53,-360.15 562.04,-349.56 555.54,-352.18"/>
</g>
<!-- Node37 -->
<g id="node37" class="node">
<title>Node37</title>
<g id="a_node37"><a xlink:href="../../da/d35/class_ex_fat_volume.html#a6a31fd969e29608509e75adbf46fcd5d" target="_top" xlink:title=" ">
<polygon fill="white" stroke="black" points="309,-560.5 309,-581.5 442,-581.5 442,-560.5 309,-560.5"/>
<text text-anchor="middle" x="375.5" y="-567.9" font-family="Helvetica,sans-Serif" font-size="12.00">ExFatVolume::rename</text>
</a>
</g>
</g>
<!-- Node26&#45;&gt;Node37 -->
<g id="edge38" class="edge">
<title>Node26&#45;&gt;Node37</title>
<path fill="none" stroke="midnightblue" d="M561.88,-391.44C552.21,-429.29 526.09,-510.15 472,-551 463.35,-557.53 453.05,-562.05 442.48,-565.15"/>
<polygon fill="midnightblue" stroke="midnightblue" points="565.32,-392.11 564.28,-381.57 558.52,-390.46 565.32,-392.11"/>
</g>
<!-- Node38 -->
<g id="node38" class="node">
<title>Node38</title>
<g id="a_node38"><a xlink:href="../../d5/d14/class_ex_fat_file.html#a707e3a4139319fb5d4e31d591b3c5b77" target="_top" xlink:title=" ">
<polygon fill="white" stroke="black" points="319,-520.5 319,-541.5 432,-541.5 432,-520.5 319,-520.5"/>
<text text-anchor="middle" x="375.5" y="-527.9" font-family="Helvetica,sans-Serif" font-size="12.00">ExFatFile::rename</text>
</a>
</g>
</g>
<!-- Node26&#45;&gt;Node38 -->
<g id="edge39" class="edge">
<title>Node26&#45;&gt;Node38</title>
<path fill="none" stroke="midnightblue" d="M558.75,-391.21C545.78,-422.21 516.61,-481.02 472,-511 460.33,-518.84 446.19,-523.7 432.41,-526.69"/>
<polygon fill="midnightblue" stroke="midnightblue" points="562.04,-392.44 562.53,-381.85 555.54,-389.82 562.04,-392.44"/>
</g>
<!-- Node39 -->
<g id="node39" class="node">
<title>Node39</title>
<g id="a_node39"><a xlink:href="../../da/d35/class_ex_fat_volume.html#afaa44ad57398f8c293b9a35aa150ce75" target="_top" xlink:title=" ">
<polygon fill="white" stroke="black" points="315.5,-480.5 315.5,-501.5 435.5,-501.5 435.5,-480.5 315.5,-480.5"/>
<text text-anchor="middle" x="375.5" y="-487.9" font-family="Helvetica,sans-Serif" font-size="12.00">ExFatVolume::rmdir</text>
</a>
</g>
</g>
<!-- Node26&#45;&gt;Node39 -->
<g id="edge40" class="edge">
<title>Node26&#45;&gt;Node39</title>
<path fill="none" stroke="midnightblue" d="M554.03,-390.05C537.93,-413.02 507.7,-451.03 472,-471 460.91,-477.2 448.12,-481.49 435.58,-484.45"/>
<polygon fill="midnightblue" stroke="midnightblue" points="556.93,-392.01 559.67,-381.77 551.15,-388.06 556.93,-392.01"/>
</g>
<!-- Node40 -->
<g id="node40" class="node">
<title>Node40</title>
<g id="a_node40"><a xlink:href="../../da/d35/class_ex_fat_volume.html#a1af3c481f14ff2d390aabe6226658b01" target="_top" xlink:title=" ">
<polygon fill="white" stroke="black" points="308.5,-440.5 308.5,-461.5 442.5,-461.5 442.5,-440.5 308.5,-440.5"/>
<text text-anchor="middle" x="375.5" y="-447.9" font-family="Helvetica,sans-Serif" font-size="12.00">ExFatVolume::truncate</text>
</a>
</g>
</g>
<!-- Node26&#45;&gt;Node40 -->
<g id="edge41" class="edge">
<title>Node26&#45;&gt;Node40</title>
<path fill="none" stroke="midnightblue" d="M545.03,-387.82C526.63,-401.43 498.92,-420.06 472,-431 462.66,-434.8 452.51,-437.91 442.42,-440.45"/>
<polygon fill="midnightblue" stroke="midnightblue" points="547.39,-390.42 553.27,-381.61 543.18,-384.84 547.39,-390.42"/>
</g>
<!-- Node30 -->
<g id="node30" class="node">
<title>Node30</title>
<g id="a_node30"><a xlink:href="../../d7/d76/class_fs_base_file.html#a76aea9766ffeae5454381a0704e62505" target="_top" xlink:title=" ">
<polygon fill="white" stroke="black" points="102.5,-80.5 102.5,-101.5 215.5,-101.5 215.5,-80.5 102.5,-80.5"/>
<text text-anchor="middle" x="159" y="-87.9" font-family="Helvetica,sans-Serif" font-size="12.00">FsBaseFile::exists</text>
</a>
</g>
</g>
<!-- Node29&#45;&gt;Node30 -->
<g id="edge30" class="edge">
<title>Node29&#45;&gt;Node30</title>
<path fill="none" stroke="midnightblue" d="M313.77,-91C283.01,-91 245.92,-91 215.88,-91"/>
<polygon fill="midnightblue" stroke="midnightblue" points="313.94,-94.5 323.94,-91 313.94,-87.5 313.94,-94.5"/>
</g>
</g>
</svg>
        <g id="navigator" transform="translate(0 0)" fill="#404254">
                <rect fill="#f2f5e9" fill-opacity="0.5" stroke="#606060" stroke-width=".5" x="0" y="0" width="60" height="60"/>
                <use id="zoomplus" xlink:href="#zoomPlus" x="17" y="9" onmousedown="handleZoom(evt,'in')"/>
                <use id="zoomminus" xlink:href="#zoomMin" x="42" y="9" onmousedown="handleZoom(evt,'out')"/>
                <use id="reset" xlink:href="#resetDef" x="30" y="36" onmousedown="handleReset()"/>
                <g id="arrowUp" xlink:href="#dirArrow" transform="translate(30 24)" onmousedown="handlePan(0,-1)">
                  <use xlink:href="#rim" fill="#404040">
                        <set attributeName="fill" to="#808080" begin="arrowUp.mouseover" end="arrowUp.mouseout"/>
                  </use>
                  <path fill="none" stroke="white" stroke-width="1.5" d="M0,-3.0v7 M-2.5,-0.5L0,-3.0L2.5,-0.5"/>
                </g>
                <g id="arrowRight" xlink:href="#dirArrow" transform="rotate(90) translate(36 -43)" onmousedown="handlePan(1,0)">
                  <use xlink:href="#rim" fill="#404040">
                        <set attributeName="fill" to="#808080" begin="arrowRight.mouseover" end="arrowRight.mouseout"/>
                  </use>
                  <path fill="none" stroke="white" stroke-width="1.5" d="M0,-3.0v7 M-2.5,-0.5L0,-3.0L2.5,-0.5"/>
                </g>
                <g id="arrowDown" xlink:href="#dirArrow" transform="rotate(180) translate(-30 -48)" onmousedown="handlePan(0,1)">
                  <use xlink:href="#rim" fill="#404040">
                        <set attributeName="fill" to="#808080" begin="arrowDown.mouseover" end="arrowDown.mouseout"/>
                  </use>
                  <path fill="none" stroke="white" stroke-width="1.5" d="M0,-3.0v7 M-2.5,-0.5L0,-3.0L2.5,-0.5"/>
                </g>
                <g id="arrowLeft" xlink:href="#dirArrow" transform="rotate(270) translate(-36 17)" onmousedown="handlePan(-1,0)">
                  <use xlink:href="#rim" fill="#404040">
                        <set attributeName="fill" to="#808080" begin="arrowLeft.mouseover" end="arrowLeft.mouseout"/>
                  </use>
                  <path fill="none" stroke="white" stroke-width="1.5" d="M0,-3.0v7 M-2.5,-0.5L0,-3.0L2.5,-0.5"/>
                </g>
        </g>
        <svg viewBox="0 0 15 15" width="100%" height="30px" preserveAspectRatio="xMaxYMin meet">
         <g id="arrow_out" transform="scale(0.3 0.3)">
          <a xlink:href="class_ex_fat_file_a7ba9e04099bdf8fd34220ebfdde72867_icgraph_org.svg" target="_base">
           <rect id="button" ry="5" rx="5" y="6" x="6" height="38" width="38"
                fill="#f2f5e9" fill-opacity="0.5" stroke="#606060" stroke-width="1.0"/>
           <path id="arrow"
             d="M 11.500037,31.436501 C 11.940474,20.09759 22.043105,11.32322 32.158766,21.979434 L 37.068811,17.246167 C 37.068811,17.246167 37.088388,32 37.088388,32 L 22.160133,31.978069 C 22.160133,31.978069 26.997745,27.140456 26.997745,27.140456 C 18.528582,18.264221 13.291696,25.230495 11.500037,31.436501 z"
             style="fill:#404040;"/>
          </a>
         </g>
        </svg>
</svg>
