<?xml version="1.0" encoding="UTF-8" standalone="no"?>
<!DOCTYPE svg PUBLIC "-//W3C//DTD SVG 1.1//EN"
 "http://www.w3.org/Graphics/SVG/1.1/DTD/svg11.dtd">
<!-- Generated by graphviz version 2.47.3 (20210619.1520)
 -->
<!-- Title: ExFatFile::available64 Pages: 1 -->
<svg width="308pt" height="110pt"
 viewBox="0.00 0.00 308.00 110.00" xmlns="http://www.w3.org/2000/svg" xmlns:xlink="http://www.w3.org/1999/xlink">
<g id="graph0" class="graph" transform="scale(1 1) rotate(0) translate(4 106)">
<title>ExFatFile::available64</title>
<polygon fill="white" stroke="transparent" points="-4,4 -4,-106 304,-106 304,4 -4,4"/>
<!-- Node1 -->
<g id="node1" class="node">
<title>Node1</title>
<g id="a_node1"><a xlink:title=" ">
<polygon fill="#bfbfbf" stroke="black" points="0,-40.5 0,-61.5 133,-61.5 133,-40.5 0,-40.5"/>
<text text-anchor="middle" x="66.5" y="-47.9" font-family="Helvetica,sans-Serif" font-size="12.00">ExFatFile::available64</text>
</a>
</g>
</g>
<!-- Node2 -->
<g id="node2" class="node">
<title>Node2</title>
<g id="a_node2"><a xlink:href="../../d5/d14/class_ex_fat_file.html#ab49396aad3f6500aa19f75490dc26719" target="_top" xlink:title=" ">
<polygon fill="white" stroke="black" points="169,-80.5 169,-101.5 300,-101.5 300,-80.5 169,-80.5"/>
<text text-anchor="middle" x="234.5" y="-87.9" font-family="Helvetica,sans-Serif" font-size="12.00">ExFatFile::curPosition</text>
</a>
</g>
</g>
<!-- Node1&#45;&gt;Node2 -->
<g id="edge1" class="edge">
<title>Node1&#45;&gt;Node2</title>
<path fill="none" stroke="midnightblue" d="M111.11,-61.51C132.19,-66.59 157.68,-72.73 179.92,-78.09"/>
<polygon fill="midnightblue" stroke="midnightblue" points="179.35,-81.55 189.89,-80.49 180.99,-74.75 179.35,-81.55"/>
</g>
<!-- Node3 -->
<g id="node3" class="node">
<title>Node3</title>
<g id="a_node3"><a xlink:href="../../d5/d14/class_ex_fat_file.html#a969337d7b3f94d97ff632629e882e8f6" target="_top" xlink:title=" ">
<polygon fill="white" stroke="black" points="179,-40.5 179,-61.5 290,-61.5 290,-40.5 179,-40.5"/>
<text text-anchor="middle" x="234.5" y="-47.9" font-family="Helvetica,sans-Serif" font-size="12.00">ExFatFile::fileSize</text>
</a>
</g>
</g>
<!-- Node1&#45;&gt;Node3 -->
<g id="edge2" class="edge">
<title>Node1&#45;&gt;Node3</title>
<path fill="none" stroke="midnightblue" d="M133.11,-51C144.81,-51 157,-51 168.68,-51"/>
<polygon fill="midnightblue" stroke="midnightblue" points="168.8,-54.5 178.8,-51 168.8,-47.5 168.8,-54.5"/>
</g>
<!-- Node4 -->
<g id="node4" class="node">
<title>Node4</title>
<g id="a_node4"><a xlink:href="../../d5/d14/class_ex_fat_file.html#af601285f95db8398c140b3927cf9111c" target="_top" xlink:title=" ">
<polygon fill="white" stroke="black" points="184,-0.5 184,-21.5 285,-21.5 285,-0.5 184,-0.5"/>
<text text-anchor="middle" x="234.5" y="-7.9" font-family="Helvetica,sans-Serif" font-size="12.00">ExFatFile::isFile</text>
</a>
</g>
</g>
<!-- Node1&#45;&gt;Node4 -->
<g id="edge3" class="edge">
<title>Node1&#45;&gt;Node4</title>
<path fill="none" stroke="midnightblue" d="M111.11,-40.49C132.19,-35.41 157.68,-29.27 179.92,-23.91"/>
<polygon fill="midnightblue" stroke="midnightblue" points="180.99,-27.25 189.89,-21.51 179.35,-20.45 180.99,-27.25"/>
</g>
</g>
</svg>
