<?xml version="1.0" encoding="UTF-8" standalone="no"?>
<!DOCTYPE svg PUBLIC "-//W3C//DTD SVG 1.1//EN"
 "http://www.w3.org/Graphics/SVG/1.1/DTD/svg11.dtd">
<!-- Generated by graphviz version 2.47.3 (20210619.1520)
 -->
<!-- Title: ExFatFile::firstSector Pages: 1 -->
<svg width="544pt" height="70pt"
 viewBox="0.00 0.00 544.00 70.00" xmlns="http://www.w3.org/2000/svg" xmlns:xlink="http://www.w3.org/1999/xlink">
<g id="graph0" class="graph" transform="scale(1 1) rotate(0) translate(4 66)">
<title>ExFatFile::firstSector</title>
<polygon fill="white" stroke="transparent" points="-4,4 -4,-66 540,-66 540,4 -4,4"/>
<!-- Node1 -->
<g id="node1" class="node">
<title>Node1</title>
<g id="a_node1"><a xlink:title=" ">
<polygon fill="#bfbfbf" stroke="black" points="410,-20.5 410,-41.5 536,-41.5 536,-20.5 410,-20.5"/>
<text text-anchor="middle" x="473" y="-27.9" font-family="Helvetica,sans-Serif" font-size="12.00">ExFatFile::firstSector</text>
</a>
</g>
</g>
<!-- Node2 -->
<g id="node2" class="node">
<title>Node2</title>
<g id="a_node2"><a xlink:href="../../d5/d14/class_ex_fat_file.html#add39a8c7f7961321ba647e8da8f3d461" target="_top" xlink:title=" ">
<polygon fill="white" stroke="black" points="210,-40.5 210,-61.5 374,-61.5 374,-40.5 210,-40.5"/>
<text text-anchor="middle" x="292" y="-47.9" font-family="Helvetica,sans-Serif" font-size="12.00">ExFatFile::contiguousRange</text>
</a>
</g>
</g>
<!-- Node1&#45;&gt;Node2 -->
<g id="edge1" class="edge">
<title>Node1&#45;&gt;Node2</title>
<path fill="none" stroke="midnightblue" d="M399.77,-39.07C391.36,-40.01 382.74,-40.97 374.22,-41.92"/>
<polygon fill="midnightblue" stroke="midnightblue" points="400.35,-42.53 409.9,-37.94 399.57,-35.57 400.35,-42.53"/>
</g>
<!-- Node4 -->
<g id="node4" class="node">
<title>Node4</title>
<g id="a_node4"><a xlink:href="../../d7/d76/class_fs_base_file.html#aced830a90f28be8d8ebb44d35ac2a325" target="_top" xlink:title=" ">
<polygon fill="white" stroke="black" points="223.5,-0.5 223.5,-21.5 360.5,-21.5 360.5,-0.5 223.5,-0.5"/>
<text text-anchor="middle" x="292" y="-7.9" font-family="Helvetica,sans-Serif" font-size="12.00">FsBaseFile::firstSector</text>
</a>
</g>
</g>
<!-- Node1&#45;&gt;Node4 -->
<g id="edge3" class="edge">
<title>Node1&#45;&gt;Node4</title>
<path fill="none" stroke="midnightblue" d="M399.72,-22.92C386.86,-21.49 373.52,-20 360.8,-18.58"/>
<polygon fill="midnightblue" stroke="midnightblue" points="399.57,-26.43 409.9,-24.06 400.35,-19.47 399.57,-26.43"/>
</g>
<!-- Node3 -->
<g id="node3" class="node">
<title>Node3</title>
<g id="a_node3"><a xlink:href="../../d7/d76/class_fs_base_file.html#adff091db3361b34a3f63ffeb495c27c7" target="_top" xlink:title=" ">
<polygon fill="white" stroke="black" points="0,-40.5 0,-61.5 174,-61.5 174,-40.5 0,-40.5"/>
<text text-anchor="middle" x="87" y="-47.9" font-family="Helvetica,sans-Serif" font-size="12.00">FsBaseFile::contiguousRange</text>
</a>
</g>
</g>
<!-- Node2&#45;&gt;Node3 -->
<g id="edge2" class="edge">
<title>Node2&#45;&gt;Node3</title>
<path fill="none" stroke="midnightblue" d="M199.66,-51C191.23,-51 182.69,-51 174.3,-51"/>
<polygon fill="midnightblue" stroke="midnightblue" points="199.89,-54.5 209.89,-51 199.89,-47.5 199.89,-54.5"/>
</g>
</g>
</svg>
