<?xml version="1.0" encoding="UTF-8" standalone="no"?>
<!DOCTYPE svg PUBLIC "-//W3C//DTD SVG 1.1//EN"
 "http://www.w3.org/Graphics/SVG/1.1/DTD/svg11.dtd">
<!-- Generated by graphviz version 2.47.3 (20210619.1520)
 -->
<!-- Title: ExFatFile::isHidden Pages: 1 -->
<svg width="430pt" height="90pt"
 viewBox="0.00 0.00 430.00 90.00" xmlns="http://www.w3.org/2000/svg" xmlns:xlink="http://www.w3.org/1999/xlink">
<g id="graph0" class="graph" transform="scale(1 1) rotate(0) translate(4 86)">
<title>ExFatFile::isHidden</title>
<polygon fill="white" stroke="transparent" points="-4,4 -4,-86 426,-86 426,4 -4,4"/>
<!-- Node1 -->
<g id="node1" class="node">
<title>Node1</title>
<g id="a_node1"><a xlink:title=" ">
<polygon fill="#bfbfbf" stroke="black" points="303,-40.5 303,-61.5 422,-61.5 422,-40.5 303,-40.5"/>
<text text-anchor="middle" x="362.5" y="-47.9" font-family="Helvetica,sans-Serif" font-size="12.00">ExFatFile::isHidden</text>
</a>
</g>
</g>
<!-- Node2 -->
<g id="node2" class="node">
<title>Node2</title>
<g id="a_node2"><a xlink:href="../../d7/d76/class_fs_base_file.html#ad3e5312b8dbe4aaaac8cc58e8554f4d5" target="_top" xlink:title=" ">
<polygon fill="white" stroke="black" points="137,-60.5 137,-81.5 267,-81.5 267,-60.5 137,-60.5"/>
<text text-anchor="middle" x="202" y="-67.9" font-family="Helvetica,sans-Serif" font-size="12.00">FsBaseFile::isHidden</text>
</a>
</g>
</g>
<!-- Node1&#45;&gt;Node2 -->
<g id="edge1" class="edge">
<title>Node1&#45;&gt;Node2</title>
<path fill="none" stroke="midnightblue" d="M292.98,-59.65C284.42,-60.73 275.69,-61.83 267.19,-62.9"/>
<polygon fill="midnightblue" stroke="midnightblue" points="293.45,-63.11 302.93,-58.39 292.57,-56.17 293.45,-63.11"/>
</g>
<!-- Node3 -->
<g id="node3" class="node">
<title>Node3</title>
<g id="a_node3"><a xlink:href="../../d5/d14/class_ex_fat_file.html#aa0e074c891f3db5ea2ebd491667b03a6" target="_top" xlink:title=" ">
<polygon fill="white" stroke="black" points="161.5,-20.5 161.5,-41.5 242.5,-41.5 242.5,-20.5 161.5,-20.5"/>
<text text-anchor="middle" x="202" y="-27.9" font-family="Helvetica,sans-Serif" font-size="12.00">ExFatFile::ls</text>
</a>
</g>
</g>
<!-- Node1&#45;&gt;Node3 -->
<g id="edge2" class="edge">
<title>Node1&#45;&gt;Node3</title>
<path fill="none" stroke="midnightblue" d="M292.91,-42.34C275.7,-40.17 257.82,-37.92 242.57,-35.99"/>
<polygon fill="midnightblue" stroke="midnightblue" points="292.57,-45.83 302.93,-43.61 293.45,-38.89 292.57,-45.83"/>
</g>
<!-- Node4 -->
<g id="node4" class="node">
<title>Node4</title>
<g id="a_node4"><a xlink:href="../../d5/d14/class_ex_fat_file.html#a09f8beb55f939874e93c1df6c8a046d4" target="_top" xlink:title=" ">
<polygon fill="white" stroke="black" points="10,-40.5 10,-61.5 91,-61.5 91,-40.5 10,-40.5"/>
<text text-anchor="middle" x="50.5" y="-47.9" font-family="Helvetica,sans-Serif" font-size="12.00">ExFatFile::ls</text>
</a>
</g>
</g>
<!-- Node3&#45;&gt;Node4 -->
<g id="edge3" class="edge">
<title>Node3&#45;&gt;Node4</title>
<path fill="none" stroke="midnightblue" d="M151.36,-37.64C131.77,-40.26 109.58,-43.23 91.1,-45.7"/>
<polygon fill="midnightblue" stroke="midnightblue" points="151.88,-41.1 161.33,-36.31 150.95,-34.16 151.88,-41.1"/>
</g>
<!-- Node5 -->
<g id="node5" class="node">
<title>Node5</title>
<g id="a_node5"><a xlink:href="../../da/d35/class_ex_fat_volume.html#abe1e8cad0a5922984b28edfd987bc856" target="_top" xlink:title=" ">
<polygon fill="white" stroke="black" points="0,-0.5 0,-21.5 101,-21.5 101,-0.5 0,-0.5"/>
<text text-anchor="middle" x="50.5" y="-7.9" font-family="Helvetica,sans-Serif" font-size="12.00">ExFatVolume::ls</text>
</a>
</g>
</g>
<!-- Node3&#45;&gt;Node5 -->
<g id="edge4" class="edge">
<title>Node3&#45;&gt;Node5</title>
<path fill="none" stroke="midnightblue" d="M151.08,-24.32C135.04,-22.18 117.29,-19.8 101.27,-17.66"/>
<polygon fill="midnightblue" stroke="midnightblue" points="150.95,-27.84 161.33,-25.69 151.88,-20.9 150.95,-27.84"/>
</g>
</g>
</svg>
