<?xml version="1.0" encoding="UTF-8" standalone="no"?>
<!DOCTYPE svg PUBLIC "-//W3C//DTD SVG 1.1//EN"
 "http://www.w3.org/Graphics/SVG/1.1/DTD/svg11.dtd">
<!-- Generated by graphviz version 2.47.3 (20210619.1520)
 -->
<!-- Title: ExFatFile::getError Pages: 1 -->
<svg width="423pt" height="90pt"
 viewBox="0.00 0.00 423.00 90.00" xmlns="http://www.w3.org/2000/svg" xmlns:xlink="http://www.w3.org/1999/xlink">
<g id="graph0" class="graph" transform="scale(1 1) rotate(0) translate(4 86)">
<title>ExFatFile::getError</title>
<polygon fill="white" stroke="transparent" points="-4,4 -4,-86 419,-86 419,4 -4,4"/>
<!-- Node1 -->
<g id="node1" class="node">
<title>Node1</title>
<g id="a_node1"><a xlink:title=" ">
<polygon fill="#bfbfbf" stroke="black" points="299,-40.5 299,-61.5 415,-61.5 415,-40.5 299,-40.5"/>
<text text-anchor="middle" x="357" y="-47.9" font-family="Helvetica,sans-Serif" font-size="12.00">ExFatFile::getError</text>
</a>
</g>
</g>
<!-- Node2 -->
<g id="node2" class="node">
<title>Node2</title>
<g id="a_node2"><a xlink:href="../../d7/d76/class_fs_base_file.html#a6abf35bd3dbdffb5db8b00bca7315e77" target="_top" xlink:title=" ">
<polygon fill="white" stroke="black" points="137,-60.5 137,-81.5 263,-81.5 263,-60.5 137,-60.5"/>
<text text-anchor="middle" x="200" y="-67.9" font-family="Helvetica,sans-Serif" font-size="12.00">FsBaseFile::getError</text>
</a>
</g>
</g>
<!-- Node1&#45;&gt;Node2 -->
<g id="edge1" class="edge">
<title>Node1&#45;&gt;Node2</title>
<path fill="none" stroke="midnightblue" d="M288.57,-59.7C280.16,-60.79 271.58,-61.89 263.25,-62.97"/>
<polygon fill="midnightblue" stroke="midnightblue" points="289.25,-63.14 298.72,-58.39 288.36,-56.2 289.25,-63.14"/>
</g>
<!-- Node3 -->
<g id="node3" class="node">
<title>Node3</title>
<g id="a_node3"><a xlink:href="../../d5/d14/class_ex_fat_file.html#aa0e074c891f3db5ea2ebd491667b03a6" target="_top" xlink:title=" ">
<polygon fill="white" stroke="black" points="159.5,-20.5 159.5,-41.5 240.5,-41.5 240.5,-20.5 159.5,-20.5"/>
<text text-anchor="middle" x="200" y="-27.9" font-family="Helvetica,sans-Serif" font-size="12.00">ExFatFile::ls</text>
</a>
</g>
</g>
<!-- Node1&#45;&gt;Node3 -->
<g id="edge2" class="edge">
<title>Node1&#45;&gt;Node3</title>
<path fill="none" stroke="midnightblue" d="M288.63,-42.31C272.25,-40.19 255.25,-38 240.64,-36.11"/>
<polygon fill="midnightblue" stroke="midnightblue" points="288.36,-45.8 298.72,-43.61 289.25,-38.86 288.36,-45.8"/>
</g>
<!-- Node4 -->
<g id="node4" class="node">
<title>Node4</title>
<g id="a_node4"><a xlink:href="../../d5/d14/class_ex_fat_file.html#a09f8beb55f939874e93c1df6c8a046d4" target="_top" xlink:title=" ">
<polygon fill="white" stroke="black" points="10,-40.5 10,-61.5 91,-61.5 91,-40.5 10,-40.5"/>
<text text-anchor="middle" x="50.5" y="-47.9" font-family="Helvetica,sans-Serif" font-size="12.00">ExFatFile::ls</text>
</a>
</g>
</g>
<!-- Node3&#45;&gt;Node4 -->
<g id="edge3" class="edge">
<title>Node3&#45;&gt;Node4</title>
<path fill="none" stroke="midnightblue" d="M149.5,-37.71C130.5,-40.29 109.09,-43.19 91.14,-45.63"/>
<polygon fill="midnightblue" stroke="midnightblue" points="150.03,-41.17 159.47,-36.36 149.09,-34.24 150.03,-41.17"/>
</g>
<!-- Node5 -->
<g id="node5" class="node">
<title>Node5</title>
<g id="a_node5"><a xlink:href="../../da/d35/class_ex_fat_volume.html#abe1e8cad0a5922984b28edfd987bc856" target="_top" xlink:title=" ">
<polygon fill="white" stroke="black" points="0,-0.5 0,-21.5 101,-21.5 101,-0.5 0,-0.5"/>
<text text-anchor="middle" x="50.5" y="-7.9" font-family="Helvetica,sans-Serif" font-size="12.00">ExFatVolume::ls</text>
</a>
</g>
</g>
<!-- Node3&#45;&gt;Node5 -->
<g id="edge4" class="edge">
<title>Node3&#45;&gt;Node5</title>
<path fill="none" stroke="midnightblue" d="M149.51,-24.29C133.94,-22.18 116.76,-19.85 101.18,-17.74"/>
<polygon fill="midnightblue" stroke="midnightblue" points="149.09,-27.76 159.47,-25.64 150.03,-20.83 149.09,-27.76"/>
</g>
</g>
</svg>
