<?xml version="1.0" encoding="UTF-8" standalone="no"?>
<!DOCTYPE svg PUBLIC "-//W3C//DTD SVG 1.1//EN"
 "http://www.w3.org/Graphics/SVG/1.1/DTD/svg11.dtd">
<!-- Generated by graphviz version 2.47.3 (20210619.1520)
 -->
<!-- Title: ExFatFile::getName8 Pages: 1 -->
<!--zoomable 411 -->
<svg id="main" version="1.1" xmlns="http://www.w3.org/2000/svg" xmlns:xlink="http://www.w3.org/1999/xlink" xml:space="preserve" onload="init(evt)">
<style type="text/css"><![CDATA[
.edge:hover path { stroke: red; }
.edge:hover polygon { stroke: red; fill: red; }
]]></style>
<script type="text/javascript"><![CDATA[
var edges = document.getElementsByTagName('g');
if (edges && edges.length) {
  for (var i=0;i<edges.length;i++) {
    if (edges[i].id.substr(0,4)=='edge') {
      edges[i].setAttribute('class','edge');
    }
  }
}
]]></script>
        <defs>
                <circle id="rim" cx="0" cy="0" r="7"/>
                <circle id="rim2" cx="0" cy="0" r="3.5"/>
                <g id="zoomPlus">
                        <use xlink:href="#rim" fill="#404040">
                                <set attributeName="fill" to="#808080" begin="zoomplus.mouseover" end="zoomplus.mouseout"/>
                        </use>
                        <path d="M-4,0h8M0,-4v8" fill="none" stroke="white" stroke-width="1.5" pointer-events="none"/>
                </g>
                <g id="zoomMin">
                        <use xlink:href="#rim" fill="#404040">
                                <set attributeName="fill" to="#808080" begin="zoomminus.mouseover" end="zoomminus.mouseout"/>
                        </use>
                        <path d="M-4,0h8" fill="none" stroke="white" stroke-width="1.5" pointer-events="none"/>
                </g>
                <g id="dirArrow">
                        <path fill="none" stroke="white" stroke-width="1.5" d="M0,-3.0v7 M-2.5,-0.5L0,-3.0L2.5,-0.5"/>
                </g>
               <g id="resetDef">
                       <use xlink:href="#rim2" fill="#404040">
                               <set attributeName="fill" to="#808080" begin="reset.mouseover" end="reset.mouseout"/>
                       </use>
               </g>
        </defs>

<script type="text/javascript">
var viewWidth = 1567;
var viewHeight = 411;
var sectionId = 'dynsection-45';
</script>
<script xlink:href="../../svgpan.js"/>
<svg id="graph" class="graph">
<g id="viewport">
<title>ExFatFile::getName8</title>
<polygon fill="white" stroke="transparent" points="-4,4 -4,-407 1563,-407 1563,4 -4,4"/>
<!-- Node1 -->
<g id="node1" class="node">
<title>Node1</title>
<g id="a_node1"><a xlink:title=" ">
<polygon fill="#bfbfbf" stroke="black" points="0,-140.5 0,-161.5 128,-161.5 128,-140.5 0,-140.5"/>
<text text-anchor="middle" x="64" y="-147.9" font-family="Helvetica,sans-Serif" font-size="12.00">ExFatFile::getName8</text>
</a>
</g>
</g>
<!-- Node2 -->
<g id="node2" class="node">
<title>Node2</title>
<g id="a_node2"><a xlink:href="../../db/d68/namespace_fs_utf.html#ae3e939e5e8a23e88ae79df962658294d" target="_top" xlink:title=" ">
<polygon fill="white" stroke="black" points="185,-280.5 185,-301.5 278,-301.5 278,-280.5 185,-280.5"/>
<text text-anchor="middle" x="231.5" y="-287.9" font-family="Helvetica,sans-Serif" font-size="12.00">FsUtf::cpToMb</text>
</a>
</g>
</g>
<!-- Node1&#45;&gt;Node2 -->
<g id="edge1" class="edge">
<title>Node1&#45;&gt;Node2</title>
<path fill="none" stroke="midnightblue" d="M70.88,-161.77C84.24,-185.24 119.24,-241.25 164,-271 167.56,-273.36 171.41,-275.46 175.39,-277.31"/>
<polygon fill="midnightblue" stroke="midnightblue" points="174.31,-280.65 184.89,-281.21 176.96,-274.17 174.31,-280.65"/>
</g>
<!-- Node3 -->
<g id="node3" class="node">
<title>Node3</title>
<g id="a_node3"><a xlink:href="../../d5/d14/class_ex_fat_file.html#aacf9671d6788b7fff5ef2edd95b52008" target="_top" xlink:title=" ">
<polygon fill="white" stroke="black" points="171,-240.5 171,-261.5 292,-261.5 292,-240.5 171,-240.5"/>
<text text-anchor="middle" x="231.5" y="-247.9" font-family="Helvetica,sans-Serif" font-size="12.00">ExFatFile::dirCache</text>
</a>
</g>
</g>
<!-- Node1&#45;&gt;Node3 -->
<g id="edge2" class="edge">
<title>Node1&#45;&gt;Node3</title>
<path fill="none" stroke="midnightblue" d="M75.28,-161.64C92.25,-178.63 127.85,-211.91 164,-231 168.18,-233.21 172.63,-235.21 177.19,-237.01"/>
<polygon fill="midnightblue" stroke="midnightblue" points="176.01,-240.31 186.61,-240.44 178.41,-233.73 176.01,-240.31"/>
</g>
<!-- Node38 -->
<g id="node21" class="node">
<title>Node38</title>
<g id="a_node21"><a xlink:href="../../d1/db3/_fs_structs_8h.html#a89aef4aa8e8032eab2982d660e7b8a81" target="_top" xlink:title=" ">
<polygon fill="white" stroke="black" points="201.5,-200.5 201.5,-221.5 261.5,-221.5 261.5,-200.5 201.5,-200.5"/>
<text text-anchor="middle" x="231.5" y="-207.9" font-family="Helvetica,sans-Serif" font-size="12.00">getLe16</text>
</a>
</g>
</g>
<!-- Node1&#45;&gt;Node38 -->
<g id="edge26" class="edge">
<title>Node1&#45;&gt;Node38</title>
<path fill="none" stroke="midnightblue" d="M89.58,-161.66C109.47,-170.11 138.29,-181.96 164,-191 172.85,-194.11 182.47,-197.18 191.57,-199.95"/>
<polygon fill="midnightblue" stroke="midnightblue" points="190.6,-203.31 201.18,-202.81 192.6,-196.6 190.6,-203.31"/>
</g>
<!-- Node39 -->
<g id="node22" class="node">
<title>Node39</title>
<g id="a_node22"><a xlink:href="../../db/d68/namespace_fs_utf.html#a57c68964f6a1ca905bb103ad5dc65f0b" target="_top" xlink:title=" ">
<polygon fill="white" stroke="black" points="164,-160.5 164,-181.5 299,-181.5 299,-160.5 164,-160.5"/>
<text text-anchor="middle" x="231.5" y="-167.9" font-family="Helvetica,sans-Serif" font-size="12.00">FsUtf::isHighSurrogate</text>
</a>
</g>
</g>
<!-- Node1&#45;&gt;Node39 -->
<g id="edge27" class="edge">
<title>Node1&#45;&gt;Node39</title>
<path fill="none" stroke="midnightblue" d="M128.04,-158.62C136.44,-159.63 145.14,-160.68 153.74,-161.72"/>
<polygon fill="midnightblue" stroke="midnightblue" points="153.43,-165.21 163.78,-162.94 154.27,-158.26 153.43,-165.21"/>
</g>
<!-- Node40 -->
<g id="node23" class="node">
<title>Node40</title>
<g id="a_node23"><a xlink:href="../../db/d68/namespace_fs_utf.html#ac0bcc5e1a0b3abbcda4a61d06896b680" target="_top" xlink:title=" ">
<polygon fill="white" stroke="black" points="165,-120.5 165,-141.5 298,-141.5 298,-120.5 165,-120.5"/>
<text text-anchor="middle" x="231.5" y="-127.9" font-family="Helvetica,sans-Serif" font-size="12.00">FsUtf::isLowSurrogate</text>
</a>
</g>
</g>
<!-- Node1&#45;&gt;Node40 -->
<g id="edge28" class="edge">
<title>Node1&#45;&gt;Node40</title>
<path fill="none" stroke="midnightblue" d="M128.04,-143.38C136.8,-142.32 145.88,-141.23 154.84,-140.14"/>
<polygon fill="midnightblue" stroke="midnightblue" points="155.38,-143.6 164.89,-138.93 154.54,-136.65 155.38,-143.6"/>
</g>
<!-- Node41 -->
<g id="node24" class="node">
<title>Node41</title>
<g id="a_node24"><a xlink:href="../../d5/d14/class_ex_fat_file.html#a804c34bbe3ebefe2b6c1d77ff8d49a35" target="_top" xlink:title=" ">
<polygon fill="white" stroke="black" points="176.5,-80.5 176.5,-101.5 286.5,-101.5 286.5,-80.5 176.5,-80.5"/>
<text text-anchor="middle" x="231.5" y="-87.9" font-family="Helvetica,sans-Serif" font-size="12.00">ExFatFile::isOpen</text>
</a>
</g>
</g>
<!-- Node1&#45;&gt;Node41 -->
<g id="edge29" class="edge">
<title>Node1&#45;&gt;Node41</title>
<path fill="none" stroke="midnightblue" d="M89.58,-140.34C109.47,-131.89 138.29,-120.04 164,-111 170.34,-108.77 177.08,-106.56 183.73,-104.47"/>
<polygon fill="midnightblue" stroke="midnightblue" points="184.84,-107.79 193.37,-101.51 182.78,-101.1 184.84,-107.79"/>
</g>
<!-- Node42 -->
<g id="node25" class="node">
<title>Node42</title>
<g id="a_node25"><a xlink:href="../../db/d68/namespace_fs_utf.html#a9abb800aeefa768c3e20c250bf410a44" target="_top" xlink:title=" ">
<polygon fill="white" stroke="black" points="176,-40.5 176,-61.5 287,-61.5 287,-40.5 176,-40.5"/>
<text text-anchor="middle" x="231.5" y="-47.9" font-family="Helvetica,sans-Serif" font-size="12.00">FsUtf::isSurrogate</text>
</a>
</g>
</g>
<!-- Node1&#45;&gt;Node42 -->
<g id="edge30" class="edge">
<title>Node1&#45;&gt;Node42</title>
<path fill="none" stroke="midnightblue" d="M75.28,-140.36C92.25,-123.37 127.85,-90.09 164,-71 168.18,-68.79 172.63,-66.79 177.19,-64.99"/>
<polygon fill="midnightblue" stroke="midnightblue" points="178.41,-68.27 186.61,-61.56 176.01,-61.69 178.41,-68.27"/>
</g>
<!-- Node43 -->
<g id="node26" class="node">
<title>Node43</title>
<g id="a_node26"><a xlink:href="../../db/d68/namespace_fs_utf.html#adc4af21ab4808816c022cc8288ab7573" target="_top" xlink:title=" ">
<polygon fill="white" stroke="black" points="182,-0.5 182,-21.5 281,-21.5 281,-0.5 182,-0.5"/>
<text text-anchor="middle" x="231.5" y="-7.9" font-family="Helvetica,sans-Serif" font-size="12.00">FsUtf::u16ToCp</text>
</a>
</g>
</g>
<!-- Node1&#45;&gt;Node43 -->
<g id="edge31" class="edge">
<title>Node1&#45;&gt;Node43</title>
<path fill="none" stroke="midnightblue" d="M70.88,-140.23C84.24,-116.76 119.24,-60.75 164,-31 166.95,-29.04 170.1,-27.26 173.37,-25.66"/>
<polygon fill="midnightblue" stroke="midnightblue" points="175.01,-28.76 182.8,-21.57 172.23,-22.34 175.01,-28.76"/>
</g>
<!-- Node4 -->
<g id="node4" class="node">
<title>Node4</title>
<g id="a_node4"><a xlink:href="../../d4/de9/class_ex_fat_partition.html#a854529565ac49818bce4c3b2ceefedee" target="_top" xlink:title=" ">
<polygon fill="white" stroke="black" points="335,-260.5 335,-281.5 480,-281.5 480,-260.5 335,-260.5"/>
<text text-anchor="middle" x="407.5" y="-267.9" font-family="Helvetica,sans-Serif" font-size="12.00">ExFatPartition::dirCache</text>
</a>
</g>
</g>
<!-- Node3&#45;&gt;Node4 -->
<g id="edge3" class="edge">
<title>Node3&#45;&gt;Node4</title>
<path fill="none" stroke="midnightblue" d="M292.38,-257.88C302.84,-259.09 313.89,-260.35 324.82,-261.61"/>
<polygon fill="midnightblue" stroke="midnightblue" points="324.47,-265.09 334.8,-262.76 325.27,-258.14 324.47,-265.09"/>
</g>
<!-- Node34 -->
<g id="node17" class="node">
<title>Node34</title>
<g id="a_node17"><a xlink:href="../../d4/de9/class_ex_fat_partition.html#aeaceb6c3560f8d372b71b99e3b544610" target="_top" xlink:title=" ">
<polygon fill="white" stroke="black" points="338.5,-220.5 338.5,-241.5 476.5,-241.5 476.5,-220.5 338.5,-220.5"/>
<text text-anchor="middle" x="407.5" y="-227.9" font-family="Helvetica,sans-Serif" font-size="12.00">ExFatPartition::dirSeek</text>
</a>
</g>
</g>
<!-- Node3&#45;&gt;Node34 -->
<g id="edge21" class="edge">
<title>Node3&#45;&gt;Node34</title>
<path fill="none" stroke="midnightblue" d="M292.38,-244.12C303.98,-242.78 316.29,-241.37 328.37,-239.98"/>
<polygon fill="midnightblue" stroke="midnightblue" points="328.91,-243.44 338.44,-238.82 328.11,-236.49 328.91,-243.44"/>
</g>
<!-- Node5 -->
<g id="node5" class="node">
<title>Node5</title>
<g id="a_node5"><a xlink:href="../../d4/de9/class_ex_fat_partition.html#a80c3935eee856eaa3938e80a32139722" target="_top" xlink:title=" ">
<polygon fill="white" stroke="black" points="516,-300 516,-334 671,-334 671,-300 516,-300"/>
<text text-anchor="start" x="524" y="-320.4" font-family="Helvetica,sans-Serif" font-size="12.00">ExFatPartition::clusterStart</text>
<text text-anchor="middle" x="593.5" y="-307.4" font-family="Helvetica,sans-Serif" font-size="12.00">Sector</text>
</a>
</g>
</g>
<!-- Node4&#45;&gt;Node5 -->
<g id="edge4" class="edge">
<title>Node4&#45;&gt;Node5</title>
<path fill="none" stroke="midnightblue" d="M450.71,-281.55C469.58,-286.27 492.43,-291.98 514.24,-297.43"/>
<polygon fill="midnightblue" stroke="midnightblue" points="513.61,-300.89 524.16,-299.92 515.31,-294.09 513.61,-300.89"/>
</g>
<!-- Node6 -->
<g id="node6" class="node">
<title>Node6</title>
<g id="a_node6"><a xlink:href="../../d4/de9/class_ex_fat_partition.html#a119f5be5695880d2a16f1c0b3c3ff369" target="_top" xlink:title=" ">
<polygon fill="white" stroke="black" points="707,-254 707,-288 862,-288 862,-254 707,-254"/>
<text text-anchor="start" x="715" y="-274.4" font-family="Helvetica,sans-Serif" font-size="12.00">ExFatPartition::dataCache</text>
<text text-anchor="middle" x="784.5" y="-261.4" font-family="Helvetica,sans-Serif" font-size="12.00">Prepare</text>
</a>
</g>
</g>
<!-- Node4&#45;&gt;Node6 -->
<g id="edge5" class="edge">
<title>Node4&#45;&gt;Node6</title>
<path fill="none" stroke="midnightblue" d="M480.36,-271C541.93,-271 630.8,-271 696.4,-271"/>
<polygon fill="midnightblue" stroke="midnightblue" points="696.72,-274.5 706.72,-271 696.72,-267.5 696.72,-274.5"/>
</g>
<!-- Node7 -->
<g id="node7" class="node">
<title>Node7</title>
<g id="a_node7"><a xlink:href="../../d3/d77/class_fs_cache.html#a8c11f064a2ce0a380f522392f09d63cb" target="_top" xlink:title=" ">
<polygon fill="white" stroke="black" points="898,-260.5 898,-281.5 1010,-281.5 1010,-260.5 898,-260.5"/>
<text text-anchor="middle" x="954" y="-267.9" font-family="Helvetica,sans-Serif" font-size="12.00">FsCache::prepare</text>
</a>
</g>
</g>
<!-- Node6&#45;&gt;Node7 -->
<g id="edge6" class="edge">
<title>Node6&#45;&gt;Node7</title>
<path fill="none" stroke="midnightblue" d="M862.39,-271C870.73,-271 879.17,-271 887.36,-271"/>
<polygon fill="midnightblue" stroke="midnightblue" points="887.58,-274.5 897.58,-271 887.58,-267.5 887.58,-274.5"/>
</g>
<!-- Node8 -->
<g id="node8" class="node">
<title>Node8</title>
<g id="a_node8"><a xlink:href="../../d5/d4b/class_shared_spi_card.html#a61d86f4092f8ddbc7339d7cbcf6f70c0" target="_top" xlink:title=" ">
<polygon fill="white" stroke="black" points="1176,-301.5 1176,-322.5 1340,-322.5 1340,-301.5 1176,-301.5"/>
<text text-anchor="middle" x="1258" y="-308.9" font-family="Helvetica,sans-Serif" font-size="12.00">SharedSpiCard::readSector</text>
</a>
</g>
</g>
<!-- Node7&#45;&gt;Node8 -->
<g id="edge7" class="edge">
<title>Node7&#45;&gt;Node8</title>
<path fill="none" stroke="midnightblue" d="M997.85,-281.5C1012.99,-284.92 1030.18,-288.48 1046,-291 1084.96,-297.2 1128.28,-301.89 1165.49,-305.25"/>
<polygon fill="midnightblue" stroke="midnightblue" points="1165.54,-308.76 1175.81,-306.16 1166.15,-301.79 1165.54,-308.76"/>
</g>
<!-- Node30 -->
<g id="node14" class="node">
<title>Node30</title>
<g id="a_node14"><a xlink:href="../../d3/d77/class_fs_cache.html#a5b90e145400de8687d9f34536b134130" target="_top" xlink:title=" ">
<polygon fill="white" stroke="black" points="1206.5,-221.5 1206.5,-242.5 1309.5,-242.5 1309.5,-221.5 1206.5,-221.5"/>
<text text-anchor="middle" x="1258" y="-228.9" font-family="Helvetica,sans-Serif" font-size="12.00">FsCache::sector</text>
</a>
</g>
</g>
<!-- Node7&#45;&gt;Node30 -->
<g id="edge13" class="edge">
<title>Node7&#45;&gt;Node30</title>
<path fill="none" stroke="midnightblue" d="M997.84,-260.41C1012.98,-256.99 1030.17,-253.44 1046,-251 1096.37,-243.23 1154.04,-238.3 1196.34,-235.42"/>
<polygon fill="midnightblue" stroke="midnightblue" points="1196.73,-238.9 1206.48,-234.75 1196.27,-231.92 1196.73,-238.9"/>
</g>
<!-- Node31 -->
<g id="node15" class="node">
<title>Node31</title>
<g id="a_node15"><a xlink:href="../../d3/d77/class_fs_cache.html#a5a2c8fb432d7b7590ebb43200ca21893" target="_top" xlink:title=" ">
<polygon fill="white" stroke="black" points="1046,-260.5 1046,-281.5 1140,-281.5 1140,-260.5 1046,-260.5"/>
<text text-anchor="middle" x="1093" y="-267.9" font-family="Helvetica,sans-Serif" font-size="12.00">FsCache::sync</text>
</a>
</g>
</g>
<!-- Node7&#45;&gt;Node31 -->
<g id="edge14" class="edge">
<title>Node7&#45;&gt;Node31</title>
<path fill="none" stroke="midnightblue" d="M1010.33,-271C1018.67,-271 1027.28,-271 1035.65,-271"/>
<polygon fill="midnightblue" stroke="midnightblue" points="1035.69,-274.5 1045.69,-271 1035.69,-267.5 1035.69,-274.5"/>
</g>
<!-- Node9 -->
<g id="node9" class="node">
<title>Node9</title>
<g id="a_node9"><a xlink:href="../../d5/d4b/class_shared_spi_card.html#adda33199753fc2aec74fe317cbaabc06" target="_top" xlink:title=" ">
<polygon fill="white" stroke="red" points="1376,-341.5 1376,-362.5 1559,-362.5 1559,-341.5 1376,-341.5"/>
<text text-anchor="middle" x="1467.5" y="-348.9" font-family="Helvetica,sans-Serif" font-size="12.00">SharedSpiCard::cardCommand</text>
</a>
</g>
</g>
<!-- Node8&#45;&gt;Node9 -->
<g id="edge8" class="edge">
<title>Node8&#45;&gt;Node9</title>
<path fill="none" stroke="midnightblue" d="M1313.52,-322.51C1340.69,-327.75 1373.73,-334.12 1402.15,-339.59"/>
<polygon fill="midnightblue" stroke="midnightblue" points="1401.5,-343.04 1411.99,-341.49 1402.83,-336.16 1401.5,-343.04"/>
</g>
<!-- Node21 -->
<g id="node10" class="node">
<title>Node21</title>
<g id="a_node10"><a xlink:href="../../d5/d4b/class_shared_spi_card.html#a747c3f0b962098cf0c097f3c4c2b4fd4" target="_top" xlink:title=" ">
<polygon fill="white" stroke="black" points="1402.5,-301.5 1402.5,-322.5 1532.5,-322.5 1532.5,-301.5 1402.5,-301.5"/>
<text text-anchor="middle" x="1467.5" y="-308.9" font-family="Helvetica,sans-Serif" font-size="12.00">SharedSpiCard::error</text>
</a>
</g>
</g>
<!-- Node8&#45;&gt;Node21 -->
<g id="edge9" class="edge">
<title>Node8&#45;&gt;Node21</title>
<path fill="none" stroke="midnightblue" d="M1340.12,-312C1357.25,-312 1375.25,-312 1392.11,-312"/>
<polygon fill="midnightblue" stroke="midnightblue" points="1392.45,-315.5 1402.45,-312 1392.45,-308.5 1392.45,-315.5"/>
</g>
<!-- Node28 -->
<g id="node11" class="node">
<title>Node28</title>
<g id="a_node11"><a xlink:href="../../d5/d4b/class_shared_spi_card.html#abeae3cdc162f24c2d450abe4e1ed8340" target="_top" xlink:title=" ">
<polygon fill="white" stroke="black" points="1390,-381.5 1390,-402.5 1545,-402.5 1545,-381.5 1390,-381.5"/>
<text text-anchor="middle" x="1467.5" y="-388.9" font-family="Helvetica,sans-Serif" font-size="12.00">SharedSpiCard::readData</text>
</a>
</g>
</g>
<!-- Node8&#45;&gt;Node28 -->
<g id="edge10" class="edge">
<title>Node8&#45;&gt;Node28</title>
<path fill="none" stroke="midnightblue" d="M1276.2,-322.61C1298.48,-335.92 1338.84,-358.62 1376,-372 1383.24,-374.61 1390.93,-376.94 1398.65,-379"/>
<polygon fill="midnightblue" stroke="midnightblue" points="1397.87,-382.42 1408.42,-381.48 1399.59,-375.63 1397.87,-382.42"/>
</g>
<!-- Node22 -->
<g id="node12" class="node">
<title>Node22</title>
<g id="a_node12"><a xlink:href="../../d5/d4b/class_shared_spi_card.html#a0f511c39c50055a4fc97e720933aee3a" target="_top" xlink:title=" ">
<polygon fill="white" stroke="red" points="1394.5,-261.5 1394.5,-282.5 1540.5,-282.5 1540.5,-261.5 1394.5,-261.5"/>
<text text-anchor="middle" x="1467.5" y="-268.9" font-family="Helvetica,sans-Serif" font-size="12.00">SharedSpiCard::spiStop</text>
</a>
</g>
</g>
<!-- Node8&#45;&gt;Node22 -->
<g id="edge11" class="edge">
<title>Node8&#45;&gt;Node22</title>
<path fill="none" stroke="midnightblue" d="M1313.52,-301.49C1340.69,-296.25 1373.73,-289.88 1402.15,-284.41"/>
<polygon fill="midnightblue" stroke="midnightblue" points="1402.83,-287.84 1411.99,-282.51 1401.5,-280.96 1402.83,-287.84"/>
</g>
<!-- Node29 -->
<g id="node13" class="node">
<title>Node29</title>
<g id="a_node13"><a xlink:href="../../d5/d4b/class_shared_spi_card.html#a7dac2190763d7b4b72163ed7131e8a87" target="_top" xlink:title=" ">
<polygon fill="white" stroke="black" points="1404,-221.5 1404,-242.5 1531,-242.5 1531,-221.5 1404,-221.5"/>
<text text-anchor="middle" x="1467.5" y="-228.9" font-family="Helvetica,sans-Serif" font-size="12.00">SharedSpiCard::type</text>
</a>
</g>
</g>
<!-- Node8&#45;&gt;Node29 -->
<g id="edge12" class="edge">
<title>Node8&#45;&gt;Node29</title>
<path fill="none" stroke="midnightblue" d="M1319.45,-301.37C1326.64,-298.88 1333.66,-295.8 1340,-292 1360.51,-279.7 1355.34,-264.04 1376,-252 1381.57,-248.76 1387.6,-246.04 1393.83,-243.76"/>
<polygon fill="midnightblue" stroke="midnightblue" points="1395.31,-246.96 1403.73,-240.53 1393.13,-240.3 1395.31,-246.96"/>
</g>
<!-- Node31&#45;&gt;Node30 -->
<g id="edge15" class="edge">
<title>Node31&#45;&gt;Node30</title>
<path fill="none" stroke="midnightblue" d="M1138.11,-260.45C1158.13,-255.66 1182,-249.94 1203.08,-244.9"/>
<polygon fill="midnightblue" stroke="midnightblue" points="1203.94,-248.29 1212.85,-242.56 1202.31,-241.49 1203.94,-248.29"/>
</g>
<!-- Node32 -->
<g id="node16" class="node">
<title>Node32</title>
<g id="a_node16"><a xlink:href="../../d5/d4b/class_shared_spi_card.html#adf2ce56ca0a56fe841fbdf75f7f3faee" target="_top" xlink:title=" ">
<polygon fill="white" stroke="red" points="1176,-261.5 1176,-282.5 1340,-282.5 1340,-261.5 1176,-261.5"/>
<text text-anchor="middle" x="1258" y="-268.9" font-family="Helvetica,sans-Serif" font-size="12.00">SharedSpiCard::writeSector</text>
</a>
</g>
</g>
<!-- Node31&#45;&gt;Node32 -->
<g id="edge16" class="edge">
<title>Node31&#45;&gt;Node32</title>
<path fill="none" stroke="midnightblue" d="M1140.27,-271.28C1148.26,-271.33 1156.8,-271.39 1165.49,-271.44"/>
<polygon fill="midnightblue" stroke="midnightblue" points="1165.72,-274.94 1175.75,-271.5 1165.77,-267.94 1165.72,-274.94"/>
</g>
<!-- Node32&#45;&gt;Node9 -->
<g id="edge17" class="edge">
<title>Node32&#45;&gt;Node9</title>
<path fill="none" stroke="midnightblue" d="M1319.45,-282.63C1326.64,-285.12 1333.66,-288.2 1340,-292 1360.51,-304.3 1355.34,-319.96 1376,-332 1379.68,-334.14 1383.56,-336.06 1387.56,-337.76"/>
<polygon fill="midnightblue" stroke="midnightblue" points="1386.5,-341.11 1397.1,-341.39 1388.99,-334.56 1386.5,-341.11"/>
</g>
<!-- Node32&#45;&gt;Node21 -->
<g id="edge18" class="edge">
<title>Node32&#45;&gt;Node21</title>
<path fill="none" stroke="midnightblue" d="M1313.52,-282.51C1340.69,-287.75 1373.73,-294.12 1402.15,-299.59"/>
<polygon fill="midnightblue" stroke="midnightblue" points="1401.5,-303.04 1411.99,-301.49 1402.83,-296.16 1401.5,-303.04"/>
</g>
<!-- Node32&#45;&gt;Node22 -->
<g id="edge19" class="edge">
<title>Node32&#45;&gt;Node22</title>
<path fill="none" stroke="midnightblue" d="M1340.12,-272C1354.48,-272 1369.45,-272 1383.85,-272"/>
<polygon fill="midnightblue" stroke="midnightblue" points="1384.22,-275.5 1394.22,-272 1384.22,-268.5 1384.22,-275.5"/>
</g>
<!-- Node32&#45;&gt;Node29 -->
<g id="edge20" class="edge">
<title>Node32&#45;&gt;Node29</title>
<path fill="none" stroke="midnightblue" d="M1313.52,-261.49C1340.69,-256.25 1373.73,-249.88 1402.15,-244.41"/>
<polygon fill="midnightblue" stroke="midnightblue" points="1402.83,-247.84 1411.99,-242.51 1401.5,-240.96 1402.83,-247.84"/>
</g>
<!-- Node35 -->
<g id="node18" class="node">
<title>Node35</title>
<g id="a_node18"><a xlink:href="../../d4/de9/class_ex_fat_partition.html#aedaebff39e7cbae66f226e9c7593b5b6" target="_top" xlink:title=" ">
<polygon fill="white" stroke="black" points="522,-167 522,-201 665,-201 665,-167 522,-167"/>
<text text-anchor="start" x="530" y="-187.4" font-family="Helvetica,sans-Serif" font-size="12.00">ExFatPartition::bytesPer</text>
<text text-anchor="middle" x="593.5" y="-174.4" font-family="Helvetica,sans-Serif" font-size="12.00">ClusterShift</text>
</a>
</g>
</g>
<!-- Node34&#45;&gt;Node35 -->
<g id="edge22" class="edge">
<title>Node34&#45;&gt;Node35</title>
<path fill="none" stroke="midnightblue" d="M449.79,-220.45C469.27,-215.48 493.15,-209.38 515.77,-203.6"/>
<polygon fill="midnightblue" stroke="midnightblue" points="516.88,-206.93 525.71,-201.06 515.15,-200.15 516.88,-206.93"/>
</g>
<!-- Node36 -->
<g id="node19" class="node">
<title>Node36</title>
<g id="a_node19"><a xlink:href="../../d4/de9/class_ex_fat_partition.html#a0ab58594882246621e1601aafc6190fb" target="_top" xlink:title=" ">
<polygon fill="white" stroke="black" points="529.5,-220.5 529.5,-241.5 657.5,-241.5 657.5,-220.5 529.5,-220.5"/>
<text text-anchor="middle" x="593.5" y="-227.9" font-family="Helvetica,sans-Serif" font-size="12.00">ExFatPartition::fatGet</text>
</a>
</g>
</g>
<!-- Node34&#45;&gt;Node36 -->
<g id="edge23" class="edge">
<title>Node34&#45;&gt;Node36</title>
<path fill="none" stroke="midnightblue" d="M476.75,-231C490.58,-231 505.17,-231 519.17,-231"/>
<polygon fill="midnightblue" stroke="midnightblue" points="519.23,-234.5 529.23,-231 519.23,-227.5 519.23,-234.5"/>
</g>
<!-- Node36&#45;&gt;Node6 -->
<g id="edge24" class="edge">
<title>Node36&#45;&gt;Node6</title>
<path fill="none" stroke="midnightblue" d="M644.16,-241.51C660.31,-244.93 678.73,-248.83 696.77,-252.65"/>
<polygon fill="midnightblue" stroke="midnightblue" points="696.23,-256.11 706.74,-254.75 697.68,-249.26 696.23,-256.11"/>
</g>
<!-- Node37 -->
<g id="node20" class="node">
<title>Node37</title>
<g id="a_node20"><a xlink:href="../../d1/db3/_fs_structs_8h.html#a07fdcae728ab56cd53f71c6c17b1889c" target="_top" xlink:title=" ">
<polygon fill="white" stroke="black" points="754.5,-213.5 754.5,-234.5 814.5,-234.5 814.5,-213.5 754.5,-213.5"/>
<text text-anchor="middle" x="784.5" y="-220.9" font-family="Helvetica,sans-Serif" font-size="12.00">getLe32</text>
</a>
</g>
</g>
<!-- Node36&#45;&gt;Node37 -->
<g id="edge25" class="edge">
<title>Node36&#45;&gt;Node37</title>
<path fill="none" stroke="midnightblue" d="M657.7,-228.66C686.34,-227.6 719.3,-226.38 744.3,-225.45"/>
<polygon fill="midnightblue" stroke="midnightblue" points="744.62,-228.94 754.49,-225.07 744.36,-221.95 744.62,-228.94"/>
</g>
</g>
</svg>
        <g id="navigator" transform="translate(0 0)" fill="#404254">
                <rect fill="#f2f5e9" fill-opacity="0.5" stroke="#606060" stroke-width=".5" x="0" y="0" width="60" height="60"/>
                <use id="zoomplus" xlink:href="#zoomPlus" x="17" y="9" onmousedown="handleZoom(evt,'in')"/>
                <use id="zoomminus" xlink:href="#zoomMin" x="42" y="9" onmousedown="handleZoom(evt,'out')"/>
                <use id="reset" xlink:href="#resetDef" x="30" y="36" onmousedown="handleReset()"/>
                <g id="arrowUp" xlink:href="#dirArrow" transform="translate(30 24)" onmousedown="handlePan(0,-1)">
                  <use xlink:href="#rim" fill="#404040">
                        <set attributeName="fill" to="#808080" begin="arrowUp.mouseover" end="arrowUp.mouseout"/>
                  </use>
                  <path fill="none" stroke="white" stroke-width="1.5" d="M0,-3.0v7 M-2.5,-0.5L0,-3.0L2.5,-0.5"/>
                </g>
                <g id="arrowRight" xlink:href="#dirArrow" transform="rotate(90) translate(36 -43)" onmousedown="handlePan(1,0)">
                  <use xlink:href="#rim" fill="#404040">
                        <set attributeName="fill" to="#808080" begin="arrowRight.mouseover" end="arrowRight.mouseout"/>
                  </use>
                  <path fill="none" stroke="white" stroke-width="1.5" d="M0,-3.0v7 M-2.5,-0.5L0,-3.0L2.5,-0.5"/>
                </g>
                <g id="arrowDown" xlink:href="#dirArrow" transform="rotate(180) translate(-30 -48)" onmousedown="handlePan(0,1)">
                  <use xlink:href="#rim" fill="#404040">
                        <set attributeName="fill" to="#808080" begin="arrowDown.mouseover" end="arrowDown.mouseout"/>
                  </use>
                  <path fill="none" stroke="white" stroke-width="1.5" d="M0,-3.0v7 M-2.5,-0.5L0,-3.0L2.5,-0.5"/>
                </g>
                <g id="arrowLeft" xlink:href="#dirArrow" transform="rotate(270) translate(-36 17)" onmousedown="handlePan(-1,0)">
                  <use xlink:href="#rim" fill="#404040">
                        <set attributeName="fill" to="#808080" begin="arrowLeft.mouseover" end="arrowLeft.mouseout"/>
                  </use>
                  <path fill="none" stroke="white" stroke-width="1.5" d="M0,-3.0v7 M-2.5,-0.5L0,-3.0L2.5,-0.5"/>
                </g>
        </g>
        <svg viewBox="0 0 15 15" width="100%" height="30px" preserveAspectRatio="xMaxYMin meet">
         <g id="arrow_out" transform="scale(0.3 0.3)">
          <a xlink:href="class_ex_fat_file_ab25875a3e7752f597393825c6dfe0075_cgraph_org.svg" target="_base">
           <rect id="button" ry="5" rx="5" y="6" x="6" height="38" width="38"
                fill="#f2f5e9" fill-opacity="0.5" stroke="#606060" stroke-width="1.0"/>
           <path id="arrow"
             d="M 11.500037,31.436501 C 11.940474,20.09759 22.043105,11.32322 32.158766,21.979434 L 37.068811,17.246167 C 37.068811,17.246167 37.088388,32 37.088388,32 L 22.160133,31.978069 C 22.160133,31.978069 26.997745,27.140456 26.997745,27.140456 C 18.528582,18.264221 13.291696,25.230495 11.500037,31.436501 z"
             style="fill:#404040;"/>
          </a>
         </g>
        </svg>
</svg>
