<?xml version="1.0" encoding="UTF-8" standalone="no"?>
<!DOCTYPE svg PUBLIC "-//W3C//DTD SVG 1.1//EN"
 "http://www.w3.org/Graphics/SVG/1.1/DTD/svg11.dtd">
<!-- Generated by graphviz version 2.47.3 (20210619.1520)
 -->
<!-- Title: ExFatFile::rmdir Pages: 1 -->
<svg width="264pt" height="70pt"
 viewBox="0.00 0.00 264.00 70.00" xmlns="http://www.w3.org/2000/svg" xmlns:xlink="http://www.w3.org/1999/xlink">
<g id="graph0" class="graph" transform="scale(1 1) rotate(0) translate(4 66)">
<title>ExFatFile::rmdir</title>
<polygon fill="white" stroke="transparent" points="-4,4 -4,-66 260,-66 260,4 -4,4"/>
<!-- Node1 -->
<g id="node1" class="node">
<title>Node1</title>
<g id="a_node1"><a xlink:title=" ">
<polygon fill="#bfbfbf" stroke="black" points="156,-20.5 156,-41.5 256,-41.5 256,-20.5 156,-20.5"/>
<text text-anchor="middle" x="206" y="-27.9" font-family="Helvetica,sans-Serif" font-size="12.00">ExFatFile::rmdir</text>
</a>
</g>
</g>
<!-- Node2 -->
<g id="node2" class="node">
<title>Node2</title>
<g id="a_node2"><a xlink:href="../../d7/d76/class_fs_base_file.html#ac47870fd89b0849cda33f2780918a286" target="_top" xlink:title=" ">
<polygon fill="white" stroke="black" points="5,-40.5 5,-61.5 115,-61.5 115,-40.5 5,-40.5"/>
<text text-anchor="middle" x="60" y="-47.9" font-family="Helvetica,sans-Serif" font-size="12.00">FsBaseFile::rmdir</text>
</a>
</g>
</g>
<!-- Node1&#45;&gt;Node2 -->
<g id="edge1" class="edge">
<title>Node1&#45;&gt;Node2</title>
<path fill="none" stroke="midnightblue" d="M145.89,-39.21C135.79,-40.61 125.34,-42.06 115.36,-43.45"/>
<polygon fill="midnightblue" stroke="midnightblue" points="146.42,-42.67 155.85,-37.83 145.46,-35.74 146.42,-42.67"/>
</g>
<!-- Node3 -->
<g id="node3" class="node">
<title>Node3</title>
<g id="a_node3"><a xlink:href="../../da/d35/class_ex_fat_volume.html#afaa44ad57398f8c293b9a35aa150ce75" target="_top" xlink:title=" ">
<polygon fill="white" stroke="black" points="0,-0.5 0,-21.5 120,-21.5 120,-0.5 0,-0.5"/>
<text text-anchor="middle" x="60" y="-7.9" font-family="Helvetica,sans-Serif" font-size="12.00">ExFatVolume::rmdir</text>
</a>
</g>
</g>
<!-- Node1&#45;&gt;Node3 -->
<g id="edge2" class="edge">
<title>Node1&#45;&gt;Node3</title>
<path fill="none" stroke="midnightblue" d="M145.7,-22.76C137.26,-21.59 128.57,-20.39 120.13,-19.21"/>
<polygon fill="midnightblue" stroke="midnightblue" points="145.46,-26.26 155.85,-24.17 146.42,-19.33 145.46,-26.26"/>
</g>
</g>
</svg>
