<?xml version="1.0" encoding="UTF-8" standalone="no"?>
<!DOCTYPE svg PUBLIC "-//W3C//DTD SVG 1.1//EN"
 "http://www.w3.org/Graphics/SVG/1.1/DTD/svg11.dtd">
<!-- Generated by graphviz version 2.47.3 (20210619.1520)
 -->
<!-- Title: FatVolume::chdir Pages: 1 -->
<svg width="593pt" height="259pt"
 viewBox="0.00 0.00 593.00 259.00" xmlns="http://www.w3.org/2000/svg" xmlns:xlink="http://www.w3.org/1999/xlink">
<g id="graph0" class="graph" transform="scale(1 1) rotate(0) translate(4 255)">
<title>FatVolume::chdir</title>
<polygon fill="white" stroke="transparent" points="-4,4 -4,-255 589,-255 589,4 -4,4"/>
<!-- Node1 -->
<g id="node1" class="node">
<title>Node1</title>
<g id="a_node1"><a xlink:title=" ">
<polygon fill="#bfbfbf" stroke="black" points="0,-59.5 0,-80.5 105,-80.5 105,-59.5 0,-59.5"/>
<text text-anchor="middle" x="52.5" y="-66.9" font-family="Helvetica,sans-Serif" font-size="12.00">FatVolume::chdir</text>
</a>
</g>
</g>
<!-- Node2 -->
<g id="node2" class="node">
<title>Node2</title>
<g id="a_node2"><a xlink:href="../../d3/d51/class_fat_file.html#afd16af325e0642e4bff6430b7d8bb18b" target="_top" xlink:title=" ">
<polygon fill="white" stroke="black" points="152.5,-89.5 152.5,-110.5 239.5,-110.5 239.5,-89.5 152.5,-89.5"/>
<text text-anchor="middle" x="196" y="-96.9" font-family="Helvetica,sans-Serif" font-size="12.00">FatFile::close</text>
</a>
</g>
</g>
<!-- Node1&#45;&gt;Node2 -->
<g id="edge1" class="edge">
<title>Node1&#45;&gt;Node2</title>
<path fill="none" stroke="midnightblue" d="M103.39,-80.58C115.94,-83.24 129.46,-86.11 142.16,-88.8"/>
<polygon fill="midnightblue" stroke="midnightblue" points="141.62,-92.26 152.13,-90.91 143.07,-85.41 141.62,-92.26"/>
</g>
<!-- Node38 -->
<g id="node10" class="node">
<title>Node38</title>
<g id="a_node10"><a xlink:href="../../d3/d51/class_fat_file.html#a7e0c0548fed3a69e7284b91b694439d4" target="_top" xlink:title=" ">
<polygon fill="white" stroke="black" points="141,-39.5 141,-60.5 251,-60.5 251,-39.5 141,-39.5"/>
<text text-anchor="middle" x="196" y="-46.9" font-family="Helvetica,sans-Serif" font-size="12.00">FatFile::openRoot</text>
</a>
</g>
</g>
<!-- Node1&#45;&gt;Node38 -->
<g id="edge9" class="edge">
<title>Node1&#45;&gt;Node38</title>
<path fill="none" stroke="midnightblue" d="M105.39,-62.67C113.66,-61.5 122.31,-60.27 130.83,-59.07"/>
<polygon fill="midnightblue" stroke="midnightblue" points="131.33,-62.53 140.74,-57.67 130.35,-55.6 131.33,-62.53"/>
</g>
<!-- Node3 -->
<g id="node3" class="node">
<title>Node3</title>
<g id="a_node3"><a xlink:href="../../d3/d51/class_fat_file.html#a67f3dc4896c542d695e11aac927f585e" target="_top" xlink:title=" ">
<polygon fill="white" stroke="black" points="306.5,-109.5 306.5,-130.5 389.5,-130.5 389.5,-109.5 306.5,-109.5"/>
<text text-anchor="middle" x="348" y="-116.9" font-family="Helvetica,sans-Serif" font-size="12.00">FatFile::sync</text>
</a>
</g>
</g>
<!-- Node2&#45;&gt;Node3 -->
<g id="edge2" class="edge">
<title>Node2&#45;&gt;Node3</title>
<path fill="none" stroke="midnightblue" d="M239.58,-105.68C257.27,-108.04 277.93,-110.79 296.39,-113.25"/>
<polygon fill="midnightblue" stroke="midnightblue" points="296,-116.73 306.38,-114.58 296.93,-109.79 296,-116.73"/>
</g>
<!-- Node4 -->
<g id="node4" class="node">
<title>Node4</title>
<g id="a_node4"><a xlink:href="../../d3/d51/class_fat_file.html#a1de799df045e4f60e9ebbcd6d341f9a8" target="_top" xlink:title=" ">
<polygon fill="white" stroke="red" points="448.5,-229.5 448.5,-250.5 581.5,-250.5 581.5,-229.5 448.5,-229.5"/>
<text text-anchor="middle" x="515" y="-236.9" font-family="Helvetica,sans-Serif" font-size="12.00">FatFile::cacheDirEntry</text>
</a>
</g>
</g>
<!-- Node3&#45;&gt;Node4 -->
<g id="edge3" class="edge">
<title>Node3&#45;&gt;Node4</title>
<path fill="none" stroke="midnightblue" d="M356.14,-130.5C370.52,-150.87 405.05,-195.84 445,-220 448.44,-222.08 452.11,-223.96 455.9,-225.65"/>
<polygon fill="midnightblue" stroke="midnightblue" points="454.91,-229.02 465.49,-229.46 457.5,-222.51 454.91,-229.02"/>
</g>
<!-- Node33 -->
<g id="node5" class="node">
<title>Node33</title>
<g id="a_node5"><a xlink:href="../../d0/d12/class_fat_partition.html#a38b128efffc3ea109f514b84582d406f" target="_top" xlink:title=" ">
<polygon fill="white" stroke="red" points="445,-189.5 445,-210.5 585,-210.5 585,-189.5 445,-189.5"/>
<text text-anchor="middle" x="515" y="-196.9" font-family="Helvetica,sans-Serif" font-size="12.00">FatPartition::cacheSync</text>
</a>
</g>
</g>
<!-- Node3&#45;&gt;Node33 -->
<g id="edge4" class="edge">
<title>Node3&#45;&gt;Node33</title>
<path fill="none" stroke="midnightblue" d="M363.26,-130.68C381.41,-143.86 414.14,-166.2 445,-180 450.05,-182.26 455.43,-184.34 460.86,-186.22"/>
<polygon fill="midnightblue" stroke="midnightblue" points="460.05,-189.64 470.64,-189.42 462.23,-182.99 460.05,-189.64"/>
</g>
<!-- Node34 -->
<g id="node6" class="node">
<title>Node34</title>
<g id="a_node6"><a xlink:href="../../d3/d51/class_fat_file.html#acc5a87da1a5c8cb9758bfeaa7ae47b57" target="_top" xlink:title=" ">
<polygon fill="white" stroke="black" points="471,-149.5 471,-170.5 559,-170.5 559,-149.5 471,-149.5"/>
<text text-anchor="middle" x="515" y="-156.9" font-family="Helvetica,sans-Serif" font-size="12.00">FatFile::isFile</text>
</a>
</g>
</g>
<!-- Node3&#45;&gt;Node34 -->
<g id="edge5" class="edge">
<title>Node3&#45;&gt;Node34</title>
<path fill="none" stroke="midnightblue" d="M389.79,-129.89C411.23,-135.09 437.79,-141.52 460.83,-147.11"/>
<polygon fill="midnightblue" stroke="midnightblue" points="460.26,-150.57 470.8,-149.53 461.91,-143.77 460.26,-150.57"/>
</g>
<!-- Node35 -->
<g id="node7" class="node">
<title>Node35</title>
<g id="a_node7"><a xlink:href="../../d3/d51/class_fat_file.html#a8b8a2850c086d3ce79bee64a23fbf7a6" target="_top" xlink:title=" ">
<polygon fill="white" stroke="black" points="466.5,-29.5 466.5,-50.5 563.5,-50.5 563.5,-29.5 466.5,-29.5"/>
<text text-anchor="middle" x="515" y="-36.9" font-family="Helvetica,sans-Serif" font-size="12.00">FatFile::isOpen</text>
</a>
</g>
</g>
<!-- Node3&#45;&gt;Node35 -->
<g id="edge6" class="edge">
<title>Node3&#45;&gt;Node35</title>
<path fill="none" stroke="midnightblue" d="M363.26,-109.32C381.41,-96.14 414.14,-73.8 445,-60 450.05,-57.74 455.43,-55.66 460.86,-53.78"/>
<polygon fill="midnightblue" stroke="midnightblue" points="462.23,-57.01 470.64,-50.58 460.05,-50.36 462.23,-57.01"/>
</g>
<!-- Node36 -->
<g id="node8" class="node">
<title>Node36</title>
<g id="a_node8"><a xlink:href="../../d1/db3/_fs_structs_8h.html#a2a47595a3bb5c1f0f67d4f3dddac0a0e" target="_top" xlink:title=" ">
<polygon fill="white" stroke="black" points="485.5,-109.5 485.5,-130.5 544.5,-130.5 544.5,-109.5 485.5,-109.5"/>
<text text-anchor="middle" x="515" y="-116.9" font-family="Helvetica,sans-Serif" font-size="12.00">setLe16</text>
</a>
</g>
</g>
<!-- Node3&#45;&gt;Node36 -->
<g id="edge7" class="edge">
<title>Node3&#45;&gt;Node36</title>
<path fill="none" stroke="midnightblue" d="M389.79,-120C415.87,-120 449.51,-120 475.2,-120"/>
<polygon fill="midnightblue" stroke="midnightblue" points="475.32,-123.5 485.32,-120 475.32,-116.5 475.32,-123.5"/>
</g>
<!-- Node37 -->
<g id="node9" class="node">
<title>Node37</title>
<g id="a_node9"><a xlink:href="../../d1/db3/_fs_structs_8h.html#a294114e9924b0436c1d110e692bef464" target="_top" xlink:title=" ">
<polygon fill="white" stroke="black" points="485.5,-69.5 485.5,-90.5 544.5,-90.5 544.5,-69.5 485.5,-69.5"/>
<text text-anchor="middle" x="515" y="-76.9" font-family="Helvetica,sans-Serif" font-size="12.00">setLe32</text>
</a>
</g>
</g>
<!-- Node3&#45;&gt;Node37 -->
<g id="edge8" class="edge">
<title>Node3&#45;&gt;Node37</title>
<path fill="none" stroke="midnightblue" d="M389.79,-110.11C415.99,-103.76 449.81,-95.56 475.54,-89.32"/>
<polygon fill="midnightblue" stroke="midnightblue" points="476.43,-92.71 485.32,-86.95 474.78,-85.91 476.43,-92.71"/>
</g>
<!-- Node38&#45;&gt;Node35 -->
<g id="edge11" class="edge">
<title>Node38&#45;&gt;Node35</title>
<path fill="none" stroke="midnightblue" d="M251.13,-48.29C308.19,-46.49 397.71,-43.67 456.13,-41.83"/>
<polygon fill="midnightblue" stroke="midnightblue" points="456.42,-45.32 466.31,-41.5 456.2,-38.32 456.42,-45.32"/>
</g>
<!-- Node39 -->
<g id="node11" class="node">
<title>Node39</title>
<g id="a_node11"><a xlink:href="../../d0/d12/class_fat_partition.html#ad45c276232d7093b82f1075e8c488bac" target="_top" xlink:title=" ">
<polygon fill="white" stroke="black" points="287,-0.5 287,-21.5 409,-21.5 409,-0.5 287,-0.5"/>
<text text-anchor="middle" x="348" y="-7.9" font-family="Helvetica,sans-Serif" font-size="12.00">FatPartition::fatType</text>
</a>
</g>
</g>
<!-- Node38&#45;&gt;Node39 -->
<g id="edge10" class="edge">
<title>Node38&#45;&gt;Node39</title>
<path fill="none" stroke="midnightblue" d="M237.59,-39.45C255.77,-34.72 277.39,-29.1 296.59,-24.11"/>
<polygon fill="midnightblue" stroke="midnightblue" points="297.58,-27.47 306.38,-21.56 295.82,-20.69 297.58,-27.47"/>
</g>
</g>
</svg>
