<?xml version="1.0" encoding="UTF-8" standalone="no"?>
<!DOCTYPE svg PUBLIC "-//W3C//DTD SVG 1.1//EN"
 "http://www.w3.org/Graphics/SVG/1.1/DTD/svg11.dtd">
<!-- Generated by graphviz version 2.47.3 (20210619.1520)
 -->
<!-- Title: FatVolume::begin Pages: 1 -->
<svg width="769pt" height="364pt"
 viewBox="0.00 0.00 769.00 364.00" xmlns="http://www.w3.org/2000/svg" xmlns:xlink="http://www.w3.org/1999/xlink">
<g id="graph0" class="graph" transform="scale(1 1) rotate(0) translate(4 360)">
<title>FatVolume::begin</title>
<polygon fill="white" stroke="transparent" points="-4,4 -4,-360 765,-360 765,4 -4,4"/>
<!-- Node1 -->
<g id="node1" class="node">
<title>Node1</title>
<g id="a_node1"><a xlink:title=" ">
<polygon fill="#bfbfbf" stroke="black" points="0,-214.5 0,-235.5 109,-235.5 109,-214.5 0,-214.5"/>
<text text-anchor="middle" x="54.5" y="-221.9" font-family="Helvetica,sans-Serif" font-size="12.00">FatVolume::begin</text>
</a>
</g>
</g>
<!-- Node2 -->
<g id="node2" class="node">
<title>Node2</title>
<g id="a_node2"><a xlink:href="../../d9/d27/class_fat_volume.html#a659d921b3efd52d310a33cba69eff18b" target="_top" xlink:title=" ">
<polygon fill="white" stroke="black" points="145,-294.5 145,-315.5 250,-315.5 250,-294.5 145,-294.5"/>
<text text-anchor="middle" x="197.5" y="-301.9" font-family="Helvetica,sans-Serif" font-size="12.00">FatVolume::chdir</text>
</a>
</g>
</g>
<!-- Node1&#45;&gt;Node2 -->
<g id="edge1" class="edge">
<title>Node1&#45;&gt;Node2</title>
<path fill="none" stroke="midnightblue" d="M74.22,-235.62C98.45,-249.37 140.87,-273.43 168.82,-289.3"/>
<polygon fill="midnightblue" stroke="midnightblue" points="167.27,-292.44 177.7,-294.33 170.73,-286.35 167.27,-292.44"/>
</g>
<!-- Node41 -->
<g id="node8" class="node">
<title>Node41</title>
<g id="a_node8"><a xlink:href="../../d0/d12/class_fat_partition.html#ab827224f30eec57255d21cae589911ef" target="_top" xlink:title=" ">
<polygon fill="white" stroke="black" points="148.5,-154.5 148.5,-175.5 246.5,-175.5 246.5,-154.5 148.5,-154.5"/>
<text text-anchor="middle" x="197.5" y="-161.9" font-family="Helvetica,sans-Serif" font-size="12.00">FatPartition::init</text>
</a>
</g>
</g>
<!-- Node1&#45;&gt;Node41 -->
<g id="edge8" class="edge">
<title>Node1&#45;&gt;Node41</title>
<path fill="none" stroke="midnightblue" d="M80.38,-214.41C103.1,-204.75 136.88,-190.37 162.16,-179.61"/>
<polygon fill="midnightblue" stroke="midnightblue" points="163.56,-182.82 171.39,-175.68 160.82,-176.38 163.56,-182.82"/>
</g>
<!-- Node3 -->
<g id="node3" class="node">
<title>Node3</title>
<g id="a_node3"><a xlink:href="../../d3/d51/class_fat_file.html#afd16af325e0642e4bff6430b7d8bb18b" target="_top" xlink:title=" ">
<polygon fill="white" stroke="black" points="334.5,-334.5 334.5,-355.5 421.5,-355.5 421.5,-334.5 334.5,-334.5"/>
<text text-anchor="middle" x="378" y="-341.9" font-family="Helvetica,sans-Serif" font-size="12.00">FatFile::close</text>
</a>
</g>
</g>
<!-- Node2&#45;&gt;Node3 -->
<g id="edge2" class="edge">
<title>Node2&#45;&gt;Node3</title>
<path fill="none" stroke="midnightblue" d="M244.35,-315.56C257.77,-318.62 272.47,-321.97 286,-325 298.45,-327.79 311.88,-330.76 324.49,-333.54"/>
<polygon fill="midnightblue" stroke="midnightblue" points="323.87,-336.99 334.39,-335.71 325.38,-330.15 323.87,-336.99"/>
</g>
<!-- Node39 -->
<g id="node6" class="node">
<title>Node39</title>
<g id="a_node6"><a xlink:href="../../d3/d51/class_fat_file.html#a7e0c0548fed3a69e7284b91b694439d4" target="_top" xlink:title=" ">
<polygon fill="white" stroke="black" points="323,-294.5 323,-315.5 433,-315.5 433,-294.5 323,-294.5"/>
<text text-anchor="middle" x="378" y="-301.9" font-family="Helvetica,sans-Serif" font-size="12.00">FatFile::openRoot</text>
</a>
</g>
</g>
<!-- Node2&#45;&gt;Node39 -->
<g id="edge5" class="edge">
<title>Node2&#45;&gt;Node39</title>
<path fill="none" stroke="midnightblue" d="M250.13,-305C269.6,-305 291.98,-305 312.48,-305"/>
<polygon fill="midnightblue" stroke="midnightblue" points="312.69,-308.5 322.69,-305 312.69,-301.5 312.69,-308.5"/>
</g>
<!-- Node4 -->
<g id="node4" class="node">
<title>Node4</title>
<g id="a_node4"><a xlink:href="../../d3/d51/class_fat_file.html#a67f3dc4896c542d695e11aac927f585e" target="_top" xlink:title=" ">
<polygon fill="white" stroke="red" points="525.5,-334.5 525.5,-355.5 608.5,-355.5 608.5,-334.5 525.5,-334.5"/>
<text text-anchor="middle" x="567" y="-341.9" font-family="Helvetica,sans-Serif" font-size="12.00">FatFile::sync</text>
</a>
</g>
</g>
<!-- Node3&#45;&gt;Node4 -->
<g id="edge3" class="edge">
<title>Node3&#45;&gt;Node4</title>
<path fill="none" stroke="midnightblue" d="M421.9,-345C449.68,-345 485.99,-345 515.21,-345"/>
<polygon fill="midnightblue" stroke="midnightblue" points="515.22,-348.5 525.22,-345 515.22,-341.5 515.22,-348.5"/>
</g>
<!-- Node36 -->
<g id="node5" class="node">
<title>Node36</title>
<g id="a_node5"><a xlink:href="../../d3/d51/class_fat_file.html#a8b8a2850c086d3ce79bee64a23fbf7a6" target="_top" xlink:title=" ">
<polygon fill="white" stroke="black" points="664,-314.5 664,-335.5 761,-335.5 761,-314.5 664,-314.5"/>
<text text-anchor="middle" x="712.5" y="-321.9" font-family="Helvetica,sans-Serif" font-size="12.00">FatFile::isOpen</text>
</a>
</g>
</g>
<!-- Node4&#45;&gt;Node36 -->
<g id="edge4" class="edge">
<title>Node4&#45;&gt;Node36</title>
<path fill="none" stroke="midnightblue" d="M608.74,-339.32C622.67,-337.38 638.54,-335.17 653.57,-333.07"/>
<polygon fill="midnightblue" stroke="midnightblue" points="654.39,-336.49 663.81,-331.65 653.42,-329.56 654.39,-336.49"/>
</g>
<!-- Node39&#45;&gt;Node36 -->
<g id="edge7" class="edge">
<title>Node39&#45;&gt;Node36</title>
<path fill="none" stroke="midnightblue" d="M433.16,-308.26C493.82,-311.91 591.75,-317.8 653.81,-321.53"/>
<polygon fill="midnightblue" stroke="midnightblue" points="653.64,-325.03 663.83,-322.13 654.06,-318.04 653.64,-325.03"/>
</g>
<!-- Node40 -->
<g id="node7" class="node">
<title>Node40</title>
<g id="a_node7"><a xlink:href="../../d0/d12/class_fat_partition.html#ad45c276232d7093b82f1075e8c488bac" target="_top" xlink:title=" ">
<polygon fill="white" stroke="black" points="506,-256.5 506,-277.5 628,-277.5 628,-256.5 506,-256.5"/>
<text text-anchor="middle" x="567" y="-263.9" font-family="Helvetica,sans-Serif" font-size="12.00">FatPartition::fatType</text>
</a>
</g>
</g>
<!-- Node39&#45;&gt;Node40 -->
<g id="edge6" class="edge">
<title>Node39&#45;&gt;Node40</title>
<path fill="none" stroke="midnightblue" d="M431.09,-294.41C453.78,-289.8 480.56,-284.36 504.25,-279.55"/>
<polygon fill="midnightblue" stroke="midnightblue" points="505.09,-282.95 514.19,-277.53 503.69,-276.09 505.09,-282.95"/>
</g>
<!-- Node42 -->
<g id="node9" class="node">
<title>Node42</title>
<g id="a_node9"><a xlink:href="../../d0/d12/class_fat_partition.html#aba35645c23735c4833c07bc2b3adcd1f" target="_top" xlink:title=" ">
<polygon fill="white" stroke="black" points="304,-254.5 304,-275.5 452,-275.5 452,-254.5 304,-254.5"/>
<text text-anchor="middle" x="378" y="-261.9" font-family="Helvetica,sans-Serif" font-size="12.00">FatPartition::clusterCount</text>
</a>
</g>
</g>
<!-- Node41&#45;&gt;Node42 -->
<g id="edge9" class="edge">
<title>Node41&#45;&gt;Node42</title>
<path fill="none" stroke="midnightblue" d="M206.93,-175.72C221.22,-193.13 252.02,-227.37 286,-245 290.35,-247.26 294.94,-249.26 299.66,-251.03"/>
<polygon fill="midnightblue" stroke="midnightblue" points="298.89,-254.47 309.48,-254.37 301.14,-247.84 298.89,-254.47"/>
</g>
<!-- Node6 -->
<g id="node10" class="node">
<title>Node6</title>
<g id="a_node10"><a xlink:href="../../d0/d12/class_fat_partition.html#a4ecb12682599d63c7e765d31ca8e1de6" target="_top" xlink:title=" ">
<polygon fill="white" stroke="red" points="286,-214.5 286,-235.5 470,-235.5 470,-214.5 286,-214.5"/>
<text text-anchor="middle" x="378" y="-221.9" font-family="Helvetica,sans-Serif" font-size="12.00">FatPartition::dataCachePrepare</text>
</a>
</g>
</g>
<!-- Node41&#45;&gt;Node6 -->
<g id="edge10" class="edge">
<title>Node41&#45;&gt;Node6</title>
<path fill="none" stroke="midnightblue" d="M218.51,-175.63C235.93,-184.52 262.08,-197 286,-205 293.83,-207.62 302.15,-209.98 310.46,-212.1"/>
<polygon fill="midnightblue" stroke="midnightblue" points="309.64,-215.5 320.18,-214.47 311.29,-208.7 309.64,-215.5"/>
</g>
<!-- Node43 -->
<g id="node11" class="node">
<title>Node43</title>
<g id="a_node11"><a xlink:href="../../d1/db3/_fs_structs_8h.html#a89aef4aa8e8032eab2982d660e7b8a81" target="_top" xlink:title=" ">
<polygon fill="white" stroke="black" points="348,-174.5 348,-195.5 408,-195.5 408,-174.5 348,-174.5"/>
<text text-anchor="middle" x="378" y="-181.9" font-family="Helvetica,sans-Serif" font-size="12.00">getLe16</text>
</a>
</g>
</g>
<!-- Node41&#45;&gt;Node43 -->
<g id="edge11" class="edge">
<title>Node41&#45;&gt;Node43</title>
<path fill="none" stroke="midnightblue" d="M246.8,-170.41C275.33,-173.61 310.99,-177.6 337.77,-180.6"/>
<polygon fill="midnightblue" stroke="midnightblue" points="337.6,-184.11 347.93,-181.74 338.38,-177.15 337.6,-184.11"/>
</g>
<!-- Node44 -->
<g id="node12" class="node">
<title>Node44</title>
<g id="a_node12"><a xlink:href="../../d1/db3/_fs_structs_8h.html#a07fdcae728ab56cd53f71c6c17b1889c" target="_top" xlink:title=" ">
<polygon fill="white" stroke="black" points="348,-134.5 348,-155.5 408,-155.5 408,-134.5 348,-134.5"/>
<text text-anchor="middle" x="378" y="-141.9" font-family="Helvetica,sans-Serif" font-size="12.00">getLe32</text>
</a>
</g>
</g>
<!-- Node41&#45;&gt;Node44 -->
<g id="edge12" class="edge">
<title>Node41&#45;&gt;Node44</title>
<path fill="none" stroke="midnightblue" d="M246.8,-159.59C275.33,-156.39 310.99,-152.4 337.77,-149.4"/>
<polygon fill="midnightblue" stroke="midnightblue" points="338.38,-152.85 347.93,-148.26 337.6,-145.89 338.38,-152.85"/>
</g>
<!-- Node45 -->
<g id="node13" class="node">
<title>Node45</title>
<g id="a_node13"><a xlink:href="../../d3/d77/class_fs_cache.html#a2e56c9443880e3db0b68cc50217e8abe" target="_top" xlink:title=" ">
<polygon fill="white" stroke="black" points="335,-94.5 335,-115.5 421,-115.5 421,-94.5 335,-94.5"/>
<text text-anchor="middle" x="378" y="-101.9" font-family="Helvetica,sans-Serif" font-size="12.00">FsCache::init</text>
</a>
</g>
</g>
<!-- Node41&#45;&gt;Node45 -->
<g id="edge13" class="edge">
<title>Node41&#45;&gt;Node45</title>
<path fill="none" stroke="midnightblue" d="M218.51,-154.37C235.93,-145.48 262.08,-133 286,-125 298.35,-120.87 311.93,-117.36 324.74,-114.49"/>
<polygon fill="midnightblue" stroke="midnightblue" points="325.77,-117.85 334.82,-112.33 324.3,-111.01 325.77,-117.85"/>
</g>
<!-- Node47 -->
<g id="node15" class="node">
<title>Node47</title>
<g id="a_node15"><a xlink:href="../../d0/d12/class_fat_partition.html#a9e7c410debf8b9a231c12ea8abfd1c0c" target="_top" xlink:title=" ">
<polygon fill="white" stroke="black" points="297.5,-41 297.5,-75 458.5,-75 458.5,-41 297.5,-41"/>
<text text-anchor="start" x="305.5" y="-61.4" font-family="Helvetica,sans-Serif" font-size="12.00">FatPartition::setFreeCluster</text>
<text text-anchor="middle" x="378" y="-48.4" font-family="Helvetica,sans-Serif" font-size="12.00">Count</text>
</a>
</g>
</g>
<!-- Node41&#45;&gt;Node47 -->
<g id="edge15" class="edge">
<title>Node41&#45;&gt;Node47</title>
<path fill="none" stroke="midnightblue" d="M207.31,-154.28C221.92,-137.17 252.85,-103.74 286,-85 289.71,-82.9 293.6,-80.95 297.6,-79.14"/>
<polygon fill="midnightblue" stroke="midnightblue" points="299.21,-82.26 307.08,-75.17 296.5,-75.81 299.21,-82.26"/>
</g>
<!-- Node48 -->
<g id="node16" class="node">
<title>Node48</title>
<g id="a_node16"><a xlink:href="../../d3/d77/class_fs_cache.html#a84e91f8d006b8ba521805bb3bc6e83e6" target="_top" xlink:title=" ">
<polygon fill="white" stroke="black" points="304,-0.5 304,-21.5 452,-21.5 452,-0.5 304,-0.5"/>
<text text-anchor="middle" x="378" y="-7.9" font-family="Helvetica,sans-Serif" font-size="12.00">FsCache::setMirrorOffset</text>
</a>
</g>
</g>
<!-- Node41&#45;&gt;Node48 -->
<g id="edge16" class="edge">
<title>Node41&#45;&gt;Node48</title>
<path fill="none" stroke="midnightblue" d="M202.28,-154.38C211.91,-128.9 239.94,-64.04 286,-32 289.35,-29.67 292.92,-27.6 296.63,-25.75"/>
<polygon fill="midnightblue" stroke="midnightblue" points="298.35,-28.82 306.12,-21.61 295.55,-22.4 298.35,-28.82"/>
</g>
<!-- Node46 -->
<g id="node14" class="node">
<title>Node46</title>
<g id="a_node14"><a xlink:href="../../d3/d77/class_fs_cache.html#a963ea866ca2a9c4f63afd57cf287733d" target="_top" xlink:title=" ">
<polygon fill="white" stroke="black" points="507,-94.5 507,-115.5 627,-115.5 627,-94.5 507,-94.5"/>
<text text-anchor="middle" x="567" y="-101.9" font-family="Helvetica,sans-Serif" font-size="12.00">FsCache::invalidate</text>
</a>
</g>
</g>
<!-- Node45&#45;&gt;Node46 -->
<g id="edge14" class="edge">
<title>Node45&#45;&gt;Node46</title>
<path fill="none" stroke="midnightblue" d="M421.43,-105C443.6,-105 471.28,-105 496.47,-105"/>
<polygon fill="midnightblue" stroke="midnightblue" points="496.72,-108.5 506.72,-105 496.72,-101.5 496.72,-108.5"/>
</g>
</g>
</svg>
