<?xml version="1.0" encoding="UTF-8" standalone="no"?>
<!DOCTYPE svg PUBLIC "-//W3C//DTD SVG 1.1//EN"
 "http://www.w3.org/Graphics/SVG/1.1/DTD/svg11.dtd">
<!-- Generated by graphviz version 2.47.3 (20210619.1520)
 -->
<!-- Title: SharedSpiCard::readStop Pages: 1 -->
<!--zoomable 322 -->
<svg id="main" version="1.1" xmlns="http://www.w3.org/2000/svg" xmlns:xlink="http://www.w3.org/1999/xlink" xml:space="preserve" onload="init(evt)">
<style type="text/css"><![CDATA[
.edge:hover path { stroke: red; }
.edge:hover polygon { stroke: red; fill: red; }
]]></style>
<script type="text/javascript"><![CDATA[
var edges = document.getElementsByTagName('g');
if (edges && edges.length) {
  for (var i=0;i<edges.length;i++) {
    if (edges[i].id.substr(0,4)=='edge') {
      edges[i].setAttribute('class','edge');
    }
  }
}
]]></script>
        <defs>
                <circle id="rim" cx="0" cy="0" r="7"/>
                <circle id="rim2" cx="0" cy="0" r="3.5"/>
                <g id="zoomPlus">
                        <use xlink:href="#rim" fill="#404040">
                                <set attributeName="fill" to="#808080" begin="zoomplus.mouseover" end="zoomplus.mouseout"/>
                        </use>
                        <path d="M-4,0h8M0,-4v8" fill="none" stroke="white" stroke-width="1.5" pointer-events="none"/>
                </g>
                <g id="zoomMin">
                        <use xlink:href="#rim" fill="#404040">
                                <set attributeName="fill" to="#808080" begin="zoomminus.mouseover" end="zoomminus.mouseout"/>
                        </use>
                        <path d="M-4,0h8" fill="none" stroke="white" stroke-width="1.5" pointer-events="none"/>
                </g>
                <g id="dirArrow">
                        <path fill="none" stroke="white" stroke-width="1.5" d="M0,-3.0v7 M-2.5,-0.5L0,-3.0L2.5,-0.5"/>
                </g>
               <g id="resetDef">
                       <use xlink:href="#rim2" fill="#404040">
                               <set attributeName="fill" to="#808080" begin="reset.mouseover" end="reset.mouseout"/>
                       </use>
               </g>
        </defs>

<script type="text/javascript">
var viewWidth = 1335;
var viewHeight = 322;
var sectionId = 'dynsection-28';
</script>
<script xlink:href="../../svgpan.js"/>
<svg id="graph" class="graph">
<g id="viewport">
<title>SharedSpiCard::readStop</title>
<polygon fill="white" stroke="transparent" points="-4,4 -4,-318.21 1331,-318.21 1331,4 -4,4"/>
<!-- Node1 -->
<g id="node1" class="node">
<title>Node1</title>
<g id="a_node1"><a xlink:title=" ">
<polygon fill="#bfbfbf" stroke="black" points="0,-58.5 0,-79.5 154,-79.5 154,-58.5 0,-58.5"/>
<text text-anchor="middle" x="77" y="-65.9" font-family="Helvetica,sans-Serif" font-size="12.00">SharedSpiCard::readStop</text>
</a>
</g>
</g>
<!-- Node2 -->
<g id="node2" class="node">
<title>Node2</title>
<g id="a_node2"><a xlink:href="../../d5/d4b/class_shared_spi_card.html#adda33199753fc2aec74fe317cbaabc06" target="_top" xlink:title=" ">
<polygon fill="white" stroke="black" points="190,-136.5 190,-157.5 373,-157.5 373,-136.5 190,-136.5"/>
<text text-anchor="middle" x="281.5" y="-143.9" font-family="Helvetica,sans-Serif" font-size="12.00">SharedSpiCard::cardCommand</text>
</a>
</g>
</g>
<!-- Node1&#45;&gt;Node2 -->
<g id="edge1" class="edge">
<title>Node1&#45;&gt;Node2</title>
<path fill="none" stroke="midnightblue" d="M105.31,-79.52C141.01,-93.27 203.69,-117.41 243.6,-132.79"/>
<polygon fill="midnightblue" stroke="midnightblue" points="242.39,-136.07 252.98,-136.4 244.9,-129.54 242.39,-136.07"/>
</g>
<!-- Node14 -->
<g id="node12" class="node">
<title>Node14</title>
<g id="a_node12"><a xlink:href="../../d5/d4b/class_shared_spi_card.html#a747c3f0b962098cf0c097f3c4c2b4fd4" target="_top" xlink:title=" ">
<polygon fill="white" stroke="black" points="824,-0.5 824,-21.5 954,-21.5 954,-0.5 824,-0.5"/>
<text text-anchor="middle" x="889" y="-7.9" font-family="Helvetica,sans-Serif" font-size="12.00">SharedSpiCard::error</text>
</a>
</g>
</g>
<!-- Node1&#45;&gt;Node14 -->
<g id="edge20" class="edge">
<title>Node1&#45;&gt;Node14</title>
<path fill="none" stroke="midnightblue" d="M138.93,-58.48C155.47,-55.83 173.4,-53.13 190,-51 415.94,-22.04 685.72,-14.04 813.65,-11.84"/>
<polygon fill="midnightblue" stroke="midnightblue" points="813.79,-15.34 823.73,-11.67 813.67,-8.34 813.79,-15.34"/>
</g>
<!-- Node15 -->
<g id="node13" class="node">
<title>Node15</title>
<g id="a_node13"><a xlink:href="../../d5/d4b/class_shared_spi_card.html#a0f511c39c50055a4fc97e720933aee3a" target="_top" xlink:title=" ">
<polygon fill="white" stroke="red" points="816,-78.5 816,-99.5 962,-99.5 962,-78.5 816,-78.5"/>
<text text-anchor="middle" x="889" y="-85.9" font-family="Helvetica,sans-Serif" font-size="12.00">SharedSpiCard::spiStop</text>
</a>
</g>
</g>
<!-- Node1&#45;&gt;Node15 -->
<g id="edge21" class="edge">
<title>Node1&#45;&gt;Node15</title>
<path fill="none" stroke="midnightblue" d="M154.21,-71.85C166.19,-72.26 178.43,-72.66 190,-73 412.51,-79.52 674.99,-84.92 805.58,-87.45"/>
<polygon fill="midnightblue" stroke="midnightblue" points="805.83,-90.96 815.9,-87.65 805.97,-83.96 805.83,-90.96"/>
</g>
<!-- Node3 -->
<g id="node3" class="node">
<title>Node3</title>
<g id="a_node3"><a xlink:href="../../d5/d4b/class_shared_spi_card.html#a08363209d938db87521cca6a84146041" target="_top" xlink:title=" ">
<polygon fill="white" stroke="black" points="1005,-169.5 1005,-190.5 1169,-190.5 1169,-169.5 1005,-169.5"/>
<text text-anchor="middle" x="1087" y="-176.9" font-family="Helvetica,sans-Serif" font-size="12.00">SharedSpiCard::spiReceive</text>
</a>
</g>
</g>
<!-- Node2&#45;&gt;Node3 -->
<g id="edge2" class="edge">
<title>Node2&#45;&gt;Node3</title>
<path fill="none" stroke="midnightblue" d="M293.02,-157.57C313.54,-177.62 361.13,-221.39 409,-246 491.8,-288.56 517.84,-291.75 610,-305 681.71,-315.31 701.86,-318.68 773,-305 883.58,-283.74 1004.79,-223.8 1058.15,-195.36"/>
<polygon fill="midnightblue" stroke="midnightblue" points="1059.87,-198.41 1067.01,-190.59 1056.55,-192.24 1059.87,-198.41"/>
</g>
<!-- Node5 -->
<g id="node5" class="node">
<title>Node5</title>
<g id="a_node5"><a xlink:href="../../d5/d4b/class_shared_spi_card.html#ab311b9ad8a250f06afbe091f7abb118b" target="_top" xlink:title=" ">
<polygon fill="white" stroke="black" points="1012.5,-104.5 1012.5,-125.5 1161.5,-125.5 1161.5,-104.5 1012.5,-104.5"/>
<text text-anchor="middle" x="1087" y="-111.9" font-family="Helvetica,sans-Serif" font-size="12.00">SharedSpiCard::spiSend</text>
</a>
</g>
</g>
<!-- Node2&#45;&gt;Node5 -->
<g id="edge4" class="edge">
<title>Node2&#45;&gt;Node5</title>
<path fill="none" stroke="midnightblue" d="M373.11,-143.39C529.98,-137.14 849.92,-124.4 1002.04,-118.34"/>
<polygon fill="midnightblue" stroke="midnightblue" points="1002.41,-121.83 1012.26,-117.94 1002.13,-114.84 1002.41,-121.83"/>
</g>
<!-- Node7 -->
<g id="node7" class="node">
<title>Node7</title>
<g id="a_node7"><a xlink:href="../../d5/d4b/class_shared_spi_card.html#aef2dfa72e8d5643c90720f9f8c6a4254" target="_top" xlink:title=" ">
<polygon fill="white" stroke="black" points="418.5,-215.5 418.5,-236.5 564.5,-236.5 564.5,-215.5 418.5,-215.5"/>
<text text-anchor="middle" x="491.5" y="-222.9" font-family="Helvetica,sans-Serif" font-size="12.00">SharedSpiCard::spiStart</text>
</a>
</g>
</g>
<!-- Node2&#45;&gt;Node7 -->
<g id="edge6" class="edge">
<title>Node2&#45;&gt;Node7</title>
<path fill="none" stroke="midnightblue" d="M310.55,-157.65C347.41,-171.65 412.24,-196.28 453.2,-211.83"/>
<polygon fill="midnightblue" stroke="midnightblue" points="451.97,-215.11 462.56,-215.39 454.46,-208.57 451.97,-215.11"/>
</g>
<!-- Node12 -->
<g id="node10" class="node">
<title>Node12</title>
<g id="a_node10"><a xlink:href="../../d5/d4b/class_shared_spi_card.html#a2f181b3d6f27413a0f5ee883dfd94d87" target="_top" xlink:title=" ">
<polygon fill="white" stroke="black" points="409,-39.5 409,-60.5 574,-60.5 574,-39.5 409,-39.5"/>
<text text-anchor="middle" x="491.5" y="-46.9" font-family="Helvetica,sans-Serif" font-size="12.00">SharedSpiCard::syncDevice</text>
</a>
</g>
</g>
<!-- Node2&#45;&gt;Node12 -->
<g id="edge10" class="edge">
<title>Node2&#45;&gt;Node12</title>
<path fill="none" stroke="midnightblue" d="M305.16,-136.43C342.27,-119.12 416.15,-84.67 458.57,-64.89"/>
<polygon fill="midnightblue" stroke="midnightblue" points="460.29,-67.95 467.87,-60.55 457.33,-61.61 460.29,-67.95"/>
</g>
<!-- Node19 -->
<g id="node14" class="node">
<title>Node19</title>
<g id="a_node14"><a xlink:href="../../d5/d4b/class_shared_spi_card.html#ab3468397bb3b12d29dd2f31e45b3dcaf" target="_top" xlink:title=" ">
<polygon fill="white" stroke="black" points="809,-156.5 809,-177.5 969,-177.5 969,-156.5 809,-156.5"/>
<text text-anchor="middle" x="889" y="-163.9" font-family="Helvetica,sans-Serif" font-size="12.00">SharedSpiCard::waitReady</text>
</a>
</g>
</g>
<!-- Node2&#45;&gt;Node19 -->
<g id="edge19" class="edge">
<title>Node2&#45;&gt;Node19</title>
<path fill="none" stroke="midnightblue" d="M373.15,-149.99C487.96,-153.79 684.54,-160.28 798.7,-164.05"/>
<polygon fill="midnightblue" stroke="midnightblue" points="798.7,-167.55 808.81,-164.38 798.93,-160.56 798.7,-167.55"/>
</g>
<!-- Node4 -->
<g id="node4" class="node">
<title>Node4</title>
<g id="a_node4"><a xlink:href="../../dc/da1/class_sd_spi_arduino_driver.html#a8d6bc852a52e9d69c4b1e48ee062e8d1" target="_top" xlink:title=" ">
<polygon fill="white" stroke="black" points="1205,-163 1205,-197 1327,-197 1327,-163 1205,-163"/>
<text text-anchor="start" x="1213" y="-183.4" font-family="Helvetica,sans-Serif" font-size="12.00">SdSpiArduinoDriver</text>
<text text-anchor="middle" x="1266" y="-170.4" font-family="Helvetica,sans-Serif" font-size="12.00">::receive</text>
</a>
</g>
</g>
<!-- Node3&#45;&gt;Node4 -->
<g id="edge3" class="edge">
<title>Node3&#45;&gt;Node4</title>
<path fill="none" stroke="midnightblue" d="M1169.25,-180C1177.78,-180 1186.39,-180 1194.78,-180"/>
<polygon fill="midnightblue" stroke="midnightblue" points="1194.88,-183.5 1204.88,-180 1194.88,-176.5 1194.88,-183.5"/>
</g>
<!-- Node6 -->
<g id="node6" class="node">
<title>Node6</title>
<g id="a_node6"><a xlink:href="../../dc/da1/class_sd_spi_arduino_driver.html#a3c4842e47f98fe5d3799cd6028778ab5" target="_top" xlink:title=" ">
<polygon fill="white" stroke="black" points="1205,-98 1205,-132 1327,-132 1327,-98 1205,-98"/>
<text text-anchor="start" x="1213" y="-118.4" font-family="Helvetica,sans-Serif" font-size="12.00">SdSpiArduinoDriver</text>
<text text-anchor="middle" x="1266" y="-105.4" font-family="Helvetica,sans-Serif" font-size="12.00">::send</text>
</a>
</g>
</g>
<!-- Node5&#45;&gt;Node6 -->
<g id="edge5" class="edge">
<title>Node5&#45;&gt;Node6</title>
<path fill="none" stroke="midnightblue" d="M1161.53,-115C1172.47,-115 1183.72,-115 1194.6,-115"/>
<polygon fill="midnightblue" stroke="midnightblue" points="1194.88,-118.5 1204.88,-115 1194.88,-111.5 1194.88,-118.5"/>
</g>
<!-- Node7&#45;&gt;Node5 -->
<g id="edge9" class="edge">
<title>Node7&#45;&gt;Node5</title>
<path fill="none" stroke="midnightblue" d="M564.63,-224.97C679.16,-222.52 897.02,-214.31 969,-187 987.7,-179.91 988.22,-170.88 1005,-160 1021.43,-149.34 1040.55,-138.65 1056.09,-130.36"/>
<polygon fill="midnightblue" stroke="midnightblue" points="1058.03,-133.29 1065.24,-125.53 1054.76,-127.1 1058.03,-133.29"/>
</g>
<!-- Node8 -->
<g id="node8" class="node">
<title>Node8</title>
<g id="a_node8"><a xlink:href="../../d5/d4b/class_shared_spi_card.html#a69ee2fe49dfaeea2347d8a265806d2b6" target="_top" xlink:title=" ">
<polygon fill="white" stroke="red" points="610,-274.5 610,-295.5 773,-295.5 773,-274.5 610,-274.5"/>
<text text-anchor="middle" x="691.5" y="-281.9" font-family="Helvetica,sans-Serif" font-size="12.00">SharedSpiCard::spiActivate</text>
</a>
</g>
</g>
<!-- Node7&#45;&gt;Node8 -->
<g id="edge7" class="edge">
<title>Node7&#45;&gt;Node8</title>
<path fill="none" stroke="midnightblue" d="M522.24,-236.58C545.88,-244.81 579.86,-256.27 610,-265 618.15,-267.36 626.82,-269.7 635.33,-271.89"/>
<polygon fill="midnightblue" stroke="midnightblue" points="634.65,-275.33 645.21,-274.4 636.37,-268.54 634.65,-275.33"/>
</g>
<!-- Node10 -->
<g id="node9" class="node">
<title>Node10</title>
<g id="a_node9"><a xlink:href="../../d5/d4b/class_shared_spi_card.html#a8c3088599862ff6e84ae79bfdf32aea8" target="_top" xlink:title=" ">
<polygon fill="white" stroke="red" points="614.5,-234.5 614.5,-255.5 768.5,-255.5 768.5,-234.5 614.5,-234.5"/>
<text text-anchor="middle" x="691.5" y="-241.9" font-family="Helvetica,sans-Serif" font-size="12.00">SharedSpiCard::spiSelect</text>
</a>
</g>
</g>
<!-- Node7&#45;&gt;Node10 -->
<g id="edge8" class="edge">
<title>Node7&#45;&gt;Node10</title>
<path fill="none" stroke="midnightblue" d="M564.54,-232.91C577.41,-234.15 590.93,-235.45 604.15,-236.71"/>
<polygon fill="midnightblue" stroke="midnightblue" points="603.89,-240.2 614.18,-237.68 604.56,-233.24 603.89,-240.2"/>
</g>
<!-- Node12&#45;&gt;Node1 -->
<g id="edge11" class="edge">
<title>Node12&#45;&gt;Node1</title>
<path fill="none" stroke="midnightblue" d="M408.8,-53.76C338.21,-57.01 236.5,-61.7 164.53,-65.01"/>
<polygon fill="midnightblue" stroke="midnightblue" points="163.97,-61.54 154.14,-65.49 164.29,-68.53 163.97,-61.54"/>
</g>
<!-- Node13 -->
<g id="node11" class="node">
<title>Node13</title>
<g id="a_node11"><a xlink:href="../../d5/d4b/class_shared_spi_card.html#ae9a34a573077e43e7c6028a16ae77fb3" target="_top" xlink:title=" ">
<polygon fill="white" stroke="black" points="614,-39.5 614,-60.5 769,-60.5 769,-39.5 614,-39.5"/>
<text text-anchor="middle" x="691.5" y="-46.9" font-family="Helvetica,sans-Serif" font-size="12.00">SharedSpiCard::writeStop</text>
</a>
</g>
</g>
<!-- Node12&#45;&gt;Node13 -->
<g id="edge12" class="edge">
<title>Node12&#45;&gt;Node13</title>
<path fill="none" stroke="midnightblue" d="M574.18,-50C583.9,-50 593.86,-50 603.65,-50"/>
<polygon fill="midnightblue" stroke="midnightblue" points="603.78,-53.5 613.78,-50 603.78,-46.5 603.78,-53.5"/>
</g>
<!-- Node13&#45;&gt;Node5 -->
<g id="edge14" class="edge">
<title>Node13&#45;&gt;Node5</title>
<path fill="none" stroke="midnightblue" d="M769.1,-49.02C825.11,-49.81 902.58,-54.04 969,-69 999.55,-75.88 1032.62,-89.5 1055.78,-100.15"/>
<polygon fill="midnightblue" stroke="midnightblue" points="1054.52,-103.42 1065.06,-104.5 1057.49,-97.08 1054.52,-103.42"/>
</g>
<!-- Node13&#45;&gt;Node14 -->
<g id="edge13" class="edge">
<title>Node13&#45;&gt;Node14</title>
<path fill="none" stroke="midnightblue" d="M745.15,-39.5C769.81,-34.58 799.37,-28.68 825.19,-23.53"/>
<polygon fill="midnightblue" stroke="midnightblue" points="826.14,-26.91 835.26,-21.52 824.77,-20.05 826.14,-26.91"/>
</g>
<!-- Node13&#45;&gt;Node15 -->
<g id="edge15" class="edge">
<title>Node13&#45;&gt;Node15</title>
<path fill="none" stroke="midnightblue" d="M745.15,-60.5C769.81,-65.42 799.37,-71.32 825.19,-76.47"/>
<polygon fill="midnightblue" stroke="midnightblue" points="824.77,-79.95 835.26,-78.48 826.14,-73.09 824.77,-79.95"/>
</g>
<!-- Node13&#45;&gt;Node19 -->
<g id="edge17" class="edge">
<title>Node13&#45;&gt;Node19</title>
<path fill="none" stroke="midnightblue" d="M710.19,-60.59C744.64,-81.2 820.86,-126.82 861.41,-151.09"/>
<polygon fill="midnightblue" stroke="midnightblue" points="859.83,-154.22 870.2,-156.35 863.42,-148.21 859.83,-154.22"/>
</g>
<!-- Node15&#45;&gt;Node5 -->
<g id="edge16" class="edge">
<title>Node15&#45;&gt;Node5</title>
<path fill="none" stroke="midnightblue" d="M962.15,-98.57C975.2,-100.3 988.9,-102.12 1002.25,-103.89"/>
<polygon fill="midnightblue" stroke="midnightblue" points="1001.99,-107.39 1012.36,-105.23 1002.91,-100.45 1001.99,-107.39"/>
</g>
<!-- Node19&#45;&gt;Node3 -->
<g id="edge18" class="edge">
<title>Node19&#45;&gt;Node3</title>
<path fill="none" stroke="midnightblue" d="M969.16,-172.25C977.63,-172.81 986.3,-173.39 994.9,-173.96"/>
<polygon fill="midnightblue" stroke="midnightblue" points="994.74,-177.45 1004.95,-174.62 995.21,-170.47 994.74,-177.45"/>
</g>
</g>
</svg>
        <g id="navigator" transform="translate(0 0)" fill="#404254">
                <rect fill="#f2f5e9" fill-opacity="0.5" stroke="#606060" stroke-width=".5" x="0" y="0" width="60" height="60"/>
                <use id="zoomplus" xlink:href="#zoomPlus" x="17" y="9" onmousedown="handleZoom(evt,'in')"/>
                <use id="zoomminus" xlink:href="#zoomMin" x="42" y="9" onmousedown="handleZoom(evt,'out')"/>
                <use id="reset" xlink:href="#resetDef" x="30" y="36" onmousedown="handleReset()"/>
                <g id="arrowUp" xlink:href="#dirArrow" transform="translate(30 24)" onmousedown="handlePan(0,-1)">
                  <use xlink:href="#rim" fill="#404040">
                        <set attributeName="fill" to="#808080" begin="arrowUp.mouseover" end="arrowUp.mouseout"/>
                  </use>
                  <path fill="none" stroke="white" stroke-width="1.5" d="M0,-3.0v7 M-2.5,-0.5L0,-3.0L2.5,-0.5"/>
                </g>
                <g id="arrowRight" xlink:href="#dirArrow" transform="rotate(90) translate(36 -43)" onmousedown="handlePan(1,0)">
                  <use xlink:href="#rim" fill="#404040">
                        <set attributeName="fill" to="#808080" begin="arrowRight.mouseover" end="arrowRight.mouseout"/>
                  </use>
                  <path fill="none" stroke="white" stroke-width="1.5" d="M0,-3.0v7 M-2.5,-0.5L0,-3.0L2.5,-0.5"/>
                </g>
                <g id="arrowDown" xlink:href="#dirArrow" transform="rotate(180) translate(-30 -48)" onmousedown="handlePan(0,1)">
                  <use xlink:href="#rim" fill="#404040">
                        <set attributeName="fill" to="#808080" begin="arrowDown.mouseover" end="arrowDown.mouseout"/>
                  </use>
                  <path fill="none" stroke="white" stroke-width="1.5" d="M0,-3.0v7 M-2.5,-0.5L0,-3.0L2.5,-0.5"/>
                </g>
                <g id="arrowLeft" xlink:href="#dirArrow" transform="rotate(270) translate(-36 17)" onmousedown="handlePan(-1,0)">
                  <use xlink:href="#rim" fill="#404040">
                        <set attributeName="fill" to="#808080" begin="arrowLeft.mouseover" end="arrowLeft.mouseout"/>
                  </use>
                  <path fill="none" stroke="white" stroke-width="1.5" d="M0,-3.0v7 M-2.5,-0.5L0,-3.0L2.5,-0.5"/>
                </g>
        </g>
        <svg viewBox="0 0 15 15" width="100%" height="30px" preserveAspectRatio="xMaxYMin meet">
         <g id="arrow_out" transform="scale(0.3 0.3)">
          <a xlink:href="class_shared_spi_card_ab33ad2aefbb9cff905cad0879dffc78b_cgraph_org.svg" target="_base">
           <rect id="button" ry="5" rx="5" y="6" x="6" height="38" width="38"
                fill="#f2f5e9" fill-opacity="0.5" stroke="#606060" stroke-width="1.0"/>
           <path id="arrow"
             d="M 11.500037,31.436501 C 11.940474,20.09759 22.043105,11.32322 32.158766,21.979434 L 37.068811,17.246167 C 37.068811,17.246167 37.088388,32 37.088388,32 L 22.160133,31.978069 C 22.160133,31.978069 26.997745,27.140456 26.997745,27.140456 C 18.528582,18.264221 13.291696,25.230495 11.500037,31.436501 z"
             style="fill:#404040;"/>
          </a>
         </g>
        </svg>
</svg>
