<?xml version="1.0" encoding="UTF-8" standalone="no"?>
<!DOCTYPE svg PUBLIC "-//W3C//DTD SVG 1.1//EN"
 "http://www.w3.org/Graphics/SVG/1.1/DTD/svg11.dtd">
<!-- Generated by graphviz version 2.47.3 (20210619.1520)
 -->
<!-- Title: SharedSpiCard::cardAcmd Pages: 1 -->
<!--zoomable 273 -->
<svg id="main" version="1.1" xmlns="http://www.w3.org/2000/svg" xmlns:xlink="http://www.w3.org/1999/xlink" xml:space="preserve" onload="init(evt)">
<style type="text/css"><![CDATA[
.edge:hover path { stroke: red; }
.edge:hover polygon { stroke: red; fill: red; }
]]></style>
<script type="text/javascript"><![CDATA[
var edges = document.getElementsByTagName('g');
if (edges && edges.length) {
  for (var i=0;i<edges.length;i++) {
    if (edges[i].id.substr(0,4)=='edge') {
      edges[i].setAttribute('class','edge');
    }
  }
}
]]></script>
        <defs>
                <circle id="rim" cx="0" cy="0" r="7"/>
                <circle id="rim2" cx="0" cy="0" r="3.5"/>
                <g id="zoomPlus">
                        <use xlink:href="#rim" fill="#404040">
                                <set attributeName="fill" to="#808080" begin="zoomplus.mouseover" end="zoomplus.mouseout"/>
                        </use>
                        <path d="M-4,0h8M0,-4v8" fill="none" stroke="white" stroke-width="1.5" pointer-events="none"/>
                </g>
                <g id="zoomMin">
                        <use xlink:href="#rim" fill="#404040">
                                <set attributeName="fill" to="#808080" begin="zoomminus.mouseover" end="zoomminus.mouseout"/>
                        </use>
                        <path d="M-4,0h8" fill="none" stroke="white" stroke-width="1.5" pointer-events="none"/>
                </g>
                <g id="dirArrow">
                        <path fill="none" stroke="white" stroke-width="1.5" d="M0,-3.0v7 M-2.5,-0.5L0,-3.0L2.5,-0.5"/>
                </g>
               <g id="resetDef">
                       <use xlink:href="#rim2" fill="#404040">
                               <set attributeName="fill" to="#808080" begin="reset.mouseover" end="reset.mouseout"/>
                       </use>
               </g>
        </defs>

<script type="text/javascript">
var viewWidth = 1340;
var viewHeight = 273;
var sectionId = 'dynsection-3';
</script>
<script xlink:href="../../svgpan.js"/>
<svg id="graph" class="graph">
<g id="viewport">
<title>SharedSpiCard::cardAcmd</title>
<polygon fill="white" stroke="transparent" points="-4,4 -4,-269.36 1336,-269.36 1336,4 -4,4"/>
<!-- Node1 -->
<g id="node1" class="node">
<title>Node1</title>
<g id="a_node1"><a xlink:title=" ">
<polygon fill="#bfbfbf" stroke="black" points="0,-83 0,-104 159,-104 159,-83 0,-83"/>
<text text-anchor="middle" x="79.5" y="-90.4" font-family="Helvetica,sans-Serif" font-size="12.00">SharedSpiCard::cardAcmd</text>
</a>
</g>
</g>
<!-- Node2 -->
<g id="node2" class="node">
<title>Node2</title>
<g id="a_node2"><a xlink:href="../../d5/d4b/class_shared_spi_card.html#adda33199753fc2aec74fe317cbaabc06" target="_top" xlink:title=" ">
<polygon fill="white" stroke="black" points="195,-83 195,-104 378,-104 378,-83 195,-83"/>
<text text-anchor="middle" x="286.5" y="-90.4" font-family="Helvetica,sans-Serif" font-size="12.00">SharedSpiCard::cardCommand</text>
</a>
</g>
</g>
<!-- Node1&#45;&gt;Node2 -->
<g id="edge1" class="edge">
<title>Node1&#45;&gt;Node2</title>
<path fill="none" stroke="midnightblue" d="M159.17,-93.5C167.53,-93.5 176.11,-93.5 184.68,-93.5"/>
<polygon fill="midnightblue" stroke="midnightblue" points="184.72,-97 194.72,-93.5 184.72,-90 184.72,-97"/>
</g>
<!-- Node3 -->
<g id="node3" class="node">
<title>Node3</title>
<g id="a_node3"><a xlink:href="../../d5/d4b/class_shared_spi_card.html#a08363209d938db87521cca6a84146041" target="_top" xlink:title=" ">
<polygon fill="white" stroke="black" points="1010,-7 1010,-28 1174,-28 1174,-7 1010,-7"/>
<text text-anchor="middle" x="1092" y="-14.4" font-family="Helvetica,sans-Serif" font-size="12.00">SharedSpiCard::spiReceive</text>
</a>
</g>
</g>
<!-- Node2&#45;&gt;Node3 -->
<g id="edge2" class="edge">
<title>Node2&#45;&gt;Node3</title>
<path fill="none" stroke="midnightblue" d="M315.71,-82.98C341.07,-73.97 379.52,-61.38 414,-54.5 620.24,-13.36 868.35,-11.62 999.44,-14.33"/>
<polygon fill="midnightblue" stroke="midnightblue" points="999.75,-17.83 1009.83,-14.56 999.91,-10.84 999.75,-17.83"/>
</g>
<!-- Node5 -->
<g id="node5" class="node">
<title>Node5</title>
<g id="a_node5"><a xlink:href="../../d5/d4b/class_shared_spi_card.html#ab311b9ad8a250f06afbe091f7abb118b" target="_top" xlink:title=" ">
<polygon fill="white" stroke="black" points="819.5,-143 819.5,-164 968.5,-164 968.5,-143 819.5,-143"/>
<text text-anchor="middle" x="894" y="-150.4" font-family="Helvetica,sans-Serif" font-size="12.00">SharedSpiCard::spiSend</text>
</a>
</g>
</g>
<!-- Node2&#45;&gt;Node5 -->
<g id="edge4" class="edge">
<title>Node2&#45;&gt;Node5</title>
<path fill="none" stroke="midnightblue" d="M313.64,-104.01C338.87,-113.61 378.38,-127.24 414,-133.5 550.83,-157.55 712.87,-158.74 809.07,-156.66"/>
<polygon fill="midnightblue" stroke="midnightblue" points="809.4,-160.15 819.32,-156.42 809.24,-153.15 809.4,-160.15"/>
</g>
<!-- Node7 -->
<g id="node7" class="node">
<title>Node7</title>
<g id="a_node7"><a xlink:href="../../d5/d4b/class_shared_spi_card.html#aef2dfa72e8d5643c90720f9f8c6a4254" target="_top" xlink:title=" ">
<polygon fill="white" stroke="black" points="423.5,-202 423.5,-223 569.5,-223 569.5,-202 423.5,-202"/>
<text text-anchor="middle" x="496.5" y="-209.4" font-family="Helvetica,sans-Serif" font-size="12.00">SharedSpiCard::spiStart</text>
</a>
</g>
</g>
<!-- Node2&#45;&gt;Node7 -->
<g id="edge6" class="edge">
<title>Node2&#45;&gt;Node7</title>
<path fill="none" stroke="midnightblue" d="M305.43,-104.18C329.88,-118.69 375.07,-145.37 414,-167.5 431.45,-177.42 451.16,-188.31 466.82,-196.89"/>
<polygon fill="midnightblue" stroke="midnightblue" points="465.54,-200.18 475.99,-201.91 468.9,-194.04 465.54,-200.18"/>
</g>
<!-- Node12 -->
<g id="node10" class="node">
<title>Node12</title>
<g id="a_node10"><a xlink:href="../../d5/d4b/class_shared_spi_card.html#a2f181b3d6f27413a0f5ee883dfd94d87" target="_top" xlink:title=" ">
<polygon fill="white" stroke="black" points="414,-103 414,-124 579,-124 579,-103 414,-103"/>
<text text-anchor="middle" x="496.5" y="-110.4" font-family="Helvetica,sans-Serif" font-size="12.00">SharedSpiCard::syncDevice</text>
</a>
</g>
</g>
<!-- Node2&#45;&gt;Node12 -->
<g id="edge10" class="edge">
<title>Node2&#45;&gt;Node12</title>
<path fill="none" stroke="midnightblue" d="M378.13,-102.21C386.7,-103.04 395.4,-103.88 403.99,-104.7"/>
<polygon fill="midnightblue" stroke="midnightblue" points="403.71,-108.19 414,-105.66 404.38,-101.22 403.71,-108.19"/>
</g>
<!-- Node20 -->
<g id="node13" class="node">
<title>Node20</title>
<g id="a_node13"><a xlink:href="../../d5/d4b/class_shared_spi_card.html#ab3468397bb3b12d29dd2f31e45b3dcaf" target="_top" xlink:title=" ">
<polygon fill="white" stroke="black" points="814,-26 814,-47 974,-47 974,-26 814,-26"/>
<text text-anchor="middle" x="894" y="-33.4" font-family="Helvetica,sans-Serif" font-size="12.00">SharedSpiCard::waitReady</text>
</a>
</g>
</g>
<!-- Node2&#45;&gt;Node20 -->
<g id="edge17" class="edge">
<title>Node2&#45;&gt;Node20</title>
<path fill="none" stroke="midnightblue" d="M363.38,-82.99C380.05,-80.77 397.61,-78.5 414,-76.5 503.21,-65.63 525.47,-62.29 615,-54.5 678.05,-49.01 749.28,-44.43 803.85,-41.26"/>
<polygon fill="midnightblue" stroke="midnightblue" points="804.06,-44.76 813.84,-40.69 803.66,-37.77 804.06,-44.76"/>
</g>
<!-- Node4 -->
<g id="node4" class="node">
<title>Node4</title>
<g id="a_node4"><a xlink:href="../../dc/da1/class_sd_spi_arduino_driver.html#a8d6bc852a52e9d69c4b1e48ee062e8d1" target="_top" xlink:title=" ">
<polygon fill="white" stroke="black" points="1210,-0.5 1210,-34.5 1332,-34.5 1332,-0.5 1210,-0.5"/>
<text text-anchor="start" x="1218" y="-20.9" font-family="Helvetica,sans-Serif" font-size="12.00">SdSpiArduinoDriver</text>
<text text-anchor="middle" x="1271" y="-7.9" font-family="Helvetica,sans-Serif" font-size="12.00">::receive</text>
</a>
</g>
</g>
<!-- Node3&#45;&gt;Node4 -->
<g id="edge3" class="edge">
<title>Node3&#45;&gt;Node4</title>
<path fill="none" stroke="midnightblue" d="M1174.25,-17.5C1182.78,-17.5 1191.39,-17.5 1199.78,-17.5"/>
<polygon fill="midnightblue" stroke="midnightblue" points="1199.88,-21 1209.88,-17.5 1199.88,-14 1199.88,-21"/>
</g>
<!-- Node6 -->
<g id="node6" class="node">
<title>Node6</title>
<g id="a_node6"><a xlink:href="../../dc/da1/class_sd_spi_arduino_driver.html#a3c4842e47f98fe5d3799cd6028778ab5" target="_top" xlink:title=" ">
<polygon fill="white" stroke="black" points="1031,-136.5 1031,-170.5 1153,-170.5 1153,-136.5 1031,-136.5"/>
<text text-anchor="start" x="1039" y="-156.9" font-family="Helvetica,sans-Serif" font-size="12.00">SdSpiArduinoDriver</text>
<text text-anchor="middle" x="1092" y="-143.9" font-family="Helvetica,sans-Serif" font-size="12.00">::send</text>
</a>
</g>
</g>
<!-- Node5&#45;&gt;Node6 -->
<g id="edge5" class="edge">
<title>Node5&#45;&gt;Node6</title>
<path fill="none" stroke="midnightblue" d="M968.54,-153.5C985.54,-153.5 1003.59,-153.5 1020.46,-153.5"/>
<polygon fill="midnightblue" stroke="midnightblue" points="1020.79,-157 1030.79,-153.5 1020.79,-150 1020.79,-157"/>
</g>
<!-- Node7&#45;&gt;Node5 -->
<g id="edge9" class="edge">
<title>Node7&#45;&gt;Node5</title>
<path fill="none" stroke="midnightblue" d="M520.48,-223.11C569.42,-244.14 686.92,-286.3 778,-252.5 821.11,-236.5 858.9,-196.29 878.58,-172.32"/>
<polygon fill="midnightblue" stroke="midnightblue" points="881.48,-174.3 884.99,-164.3 876.01,-169.93 881.48,-174.3"/>
</g>
<!-- Node8 -->
<g id="node8" class="node">
<title>Node8</title>
<g id="a_node8"><a xlink:href="../../d5/d4b/class_shared_spi_card.html#a69ee2fe49dfaeea2347d8a265806d2b6" target="_top" xlink:title=" ">
<polygon fill="white" stroke="red" points="615,-222 615,-243 778,-243 778,-222 615,-222"/>
<text text-anchor="middle" x="696.5" y="-229.4" font-family="Helvetica,sans-Serif" font-size="12.00">SharedSpiCard::spiActivate</text>
</a>
</g>
</g>
<!-- Node7&#45;&gt;Node8 -->
<g id="edge7" class="edge">
<title>Node7&#45;&gt;Node8</title>
<path fill="none" stroke="midnightblue" d="M569.54,-219.78C580.92,-220.93 592.81,-222.13 604.54,-223.31"/>
<polygon fill="midnightblue" stroke="midnightblue" points="604.5,-226.83 614.8,-224.35 605.2,-219.86 604.5,-226.83"/>
</g>
<!-- Node10 -->
<g id="node9" class="node">
<title>Node10</title>
<g id="a_node9"><a xlink:href="../../d5/d4b/class_shared_spi_card.html#a8c3088599862ff6e84ae79bfdf32aea8" target="_top" xlink:title=" ">
<polygon fill="white" stroke="red" points="619.5,-182 619.5,-203 773.5,-203 773.5,-182 619.5,-182"/>
<text text-anchor="middle" x="696.5" y="-189.4" font-family="Helvetica,sans-Serif" font-size="12.00">SharedSpiCard::spiSelect</text>
</a>
</g>
</g>
<!-- Node7&#45;&gt;Node10 -->
<g id="edge8" class="edge">
<title>Node7&#45;&gt;Node10</title>
<path fill="none" stroke="midnightblue" d="M569.54,-205.22C582.41,-203.92 595.93,-202.56 609.15,-201.22"/>
<polygon fill="midnightblue" stroke="midnightblue" points="609.58,-204.7 619.18,-200.21 608.87,-197.73 609.58,-204.7"/>
</g>
<!-- Node13 -->
<g id="node11" class="node">
<title>Node13</title>
<g id="a_node11"><a xlink:href="../../d5/d4b/class_shared_spi_card.html#ab33ad2aefbb9cff905cad0879dffc78b" target="_top" xlink:title=" ">
<polygon fill="white" stroke="red" points="619.5,-64 619.5,-85 773.5,-85 773.5,-64 619.5,-64"/>
<text text-anchor="middle" x="696.5" y="-71.4" font-family="Helvetica,sans-Serif" font-size="12.00">SharedSpiCard::readStop</text>
</a>
</g>
</g>
<!-- Node12&#45;&gt;Node13 -->
<g id="edge11" class="edge">
<title>Node12&#45;&gt;Node13</title>
<path fill="none" stroke="midnightblue" d="M550.82,-103C575.91,-98.06 606.01,-92.13 632.24,-86.96"/>
<polygon fill="midnightblue" stroke="midnightblue" points="632.95,-90.39 642.08,-85.02 631.6,-83.52 632.95,-90.39"/>
</g>
<!-- Node19 -->
<g id="node12" class="node">
<title>Node19</title>
<g id="a_node12"><a xlink:href="../../d5/d4b/class_shared_spi_card.html#ae9a34a573077e43e7c6028a16ae77fb3" target="_top" xlink:title=" ">
<polygon fill="white" stroke="red" points="619,-104 619,-125 774,-125 774,-104 619,-104"/>
<text text-anchor="middle" x="696.5" y="-111.4" font-family="Helvetica,sans-Serif" font-size="12.00">SharedSpiCard::writeStop</text>
</a>
</g>
</g>
<!-- Node12&#45;&gt;Node19 -->
<g id="edge13" class="edge">
<title>Node12&#45;&gt;Node19</title>
<path fill="none" stroke="midnightblue" d="M579.18,-113.91C588.9,-113.96 598.86,-114.01 608.65,-114.06"/>
<polygon fill="midnightblue" stroke="midnightblue" points="608.76,-117.56 618.78,-114.11 608.8,-110.56 608.76,-117.56"/>
</g>
<!-- Node13&#45;&gt;Node2 -->
<g id="edge12" class="edge">
<title>Node13&#45;&gt;Node2</title>
<path fill="none" stroke="midnightblue" d="M619.24,-78.05C554.08,-81.09 459.82,-85.48 388.41,-88.8"/>
<polygon fill="midnightblue" stroke="midnightblue" points="387.87,-85.32 378.05,-89.28 388.2,-92.31 387.87,-85.32"/>
</g>
<!-- Node19&#45;&gt;Node5 -->
<g id="edge14" class="edge">
<title>Node19&#45;&gt;Node5</title>
<path fill="none" stroke="midnightblue" d="M750.15,-125C774.81,-129.92 804.37,-135.82 830.19,-140.97"/>
<polygon fill="midnightblue" stroke="midnightblue" points="829.77,-144.45 840.26,-142.98 831.14,-137.59 829.77,-144.45"/>
</g>
<!-- Node19&#45;&gt;Node20 -->
<g id="edge15" class="edge">
<title>Node19&#45;&gt;Node20</title>
<path fill="none" stroke="midnightblue" d="M747.41,-103.95C757.66,-101.27 768.28,-98.11 778,-94.5 809.51,-82.81 843.66,-64.85 866.49,-52.02"/>
<polygon fill="midnightblue" stroke="midnightblue" points="868.28,-55.03 875.24,-47.04 864.82,-48.94 868.28,-55.03"/>
</g>
<!-- Node20&#45;&gt;Node3 -->
<g id="edge16" class="edge">
<title>Node20&#45;&gt;Node3</title>
<path fill="none" stroke="midnightblue" d="M974.16,-28.83C982.63,-28.01 991.3,-27.16 999.9,-26.33"/>
<polygon fill="midnightblue" stroke="midnightblue" points="1000.34,-29.81 1009.95,-25.36 999.66,-22.84 1000.34,-29.81"/>
</g>
</g>
</svg>
        <g id="navigator" transform="translate(0 0)" fill="#404254">
                <rect fill="#f2f5e9" fill-opacity="0.5" stroke="#606060" stroke-width=".5" x="0" y="0" width="60" height="60"/>
                <use id="zoomplus" xlink:href="#zoomPlus" x="17" y="9" onmousedown="handleZoom(evt,'in')"/>
                <use id="zoomminus" xlink:href="#zoomMin" x="42" y="9" onmousedown="handleZoom(evt,'out')"/>
                <use id="reset" xlink:href="#resetDef" x="30" y="36" onmousedown="handleReset()"/>
                <g id="arrowUp" xlink:href="#dirArrow" transform="translate(30 24)" onmousedown="handlePan(0,-1)">
                  <use xlink:href="#rim" fill="#404040">
                        <set attributeName="fill" to="#808080" begin="arrowUp.mouseover" end="arrowUp.mouseout"/>
                  </use>
                  <path fill="none" stroke="white" stroke-width="1.5" d="M0,-3.0v7 M-2.5,-0.5L0,-3.0L2.5,-0.5"/>
                </g>
                <g id="arrowRight" xlink:href="#dirArrow" transform="rotate(90) translate(36 -43)" onmousedown="handlePan(1,0)">
                  <use xlink:href="#rim" fill="#404040">
                        <set attributeName="fill" to="#808080" begin="arrowRight.mouseover" end="arrowRight.mouseout"/>
                  </use>
                  <path fill="none" stroke="white" stroke-width="1.5" d="M0,-3.0v7 M-2.5,-0.5L0,-3.0L2.5,-0.5"/>
                </g>
                <g id="arrowDown" xlink:href="#dirArrow" transform="rotate(180) translate(-30 -48)" onmousedown="handlePan(0,1)">
                  <use xlink:href="#rim" fill="#404040">
                        <set attributeName="fill" to="#808080" begin="arrowDown.mouseover" end="arrowDown.mouseout"/>
                  </use>
                  <path fill="none" stroke="white" stroke-width="1.5" d="M0,-3.0v7 M-2.5,-0.5L0,-3.0L2.5,-0.5"/>
                </g>
                <g id="arrowLeft" xlink:href="#dirArrow" transform="rotate(270) translate(-36 17)" onmousedown="handlePan(-1,0)">
                  <use xlink:href="#rim" fill="#404040">
                        <set attributeName="fill" to="#808080" begin="arrowLeft.mouseover" end="arrowLeft.mouseout"/>
                  </use>
                  <path fill="none" stroke="white" stroke-width="1.5" d="M0,-3.0v7 M-2.5,-0.5L0,-3.0L2.5,-0.5"/>
                </g>
        </g>
        <svg viewBox="0 0 15 15" width="100%" height="30px" preserveAspectRatio="xMaxYMin meet">
         <g id="arrow_out" transform="scale(0.3 0.3)">
          <a xlink:href="class_shared_spi_card_a943e9bdc39d4410d443fbdf22fd10f31_cgraph_org.svg" target="_base">
           <rect id="button" ry="5" rx="5" y="6" x="6" height="38" width="38"
                fill="#f2f5e9" fill-opacity="0.5" stroke="#606060" stroke-width="1.0"/>
           <path id="arrow"
             d="M 11.500037,31.436501 C 11.940474,20.09759 22.043105,11.32322 32.158766,21.979434 L 37.068811,17.246167 C 37.068811,17.246167 37.088388,32 37.088388,32 L 22.160133,31.978069 C 22.160133,31.978069 26.997745,27.140456 26.997745,27.140456 C 18.528582,18.264221 13.291696,25.230495 11.500037,31.436501 z"
             style="fill:#404040;"/>
          </a>
         </g>
        </svg>
</svg>
