<?xml version="1.0" encoding="UTF-8" standalone="no"?>
<!DOCTYPE svg PUBLIC "-//W3C//DTD SVG 1.1//EN"
 "http://www.w3.org/Graphics/SVG/1.1/DTD/svg11.dtd">
<!-- Generated by graphviz version 2.47.3 (20210619.1520)
 -->
<!-- Title: SharedSpiCard::readSector Pages: 1 -->
<!--zoomable 951 -->
<svg id="main" version="1.1" xmlns="http://www.w3.org/2000/svg" xmlns:xlink="http://www.w3.org/1999/xlink" xml:space="preserve" onload="init(evt)">
<style type="text/css"><![CDATA[
.edge:hover path { stroke: red; }
.edge:hover polygon { stroke: red; fill: red; }
]]></style>
<script type="text/javascript"><![CDATA[
var edges = document.getElementsByTagName('g');
if (edges && edges.length) {
  for (var i=0;i<edges.length;i++) {
    if (edges[i].id.substr(0,4)=='edge') {
      edges[i].setAttribute('class','edge');
    }
  }
}
]]></script>
        <defs>
                <circle id="rim" cx="0" cy="0" r="7"/>
                <circle id="rim2" cx="0" cy="0" r="3.5"/>
                <g id="zoomPlus">
                        <use xlink:href="#rim" fill="#404040">
                                <set attributeName="fill" to="#808080" begin="zoomplus.mouseover" end="zoomplus.mouseout"/>
                        </use>
                        <path d="M-4,0h8M0,-4v8" fill="none" stroke="white" stroke-width="1.5" pointer-events="none"/>
                </g>
                <g id="zoomMin">
                        <use xlink:href="#rim" fill="#404040">
                                <set attributeName="fill" to="#808080" begin="zoomminus.mouseover" end="zoomminus.mouseout"/>
                        </use>
                        <path d="M-4,0h8" fill="none" stroke="white" stroke-width="1.5" pointer-events="none"/>
                </g>
                <g id="dirArrow">
                        <path fill="none" stroke="white" stroke-width="1.5" d="M0,-3.0v7 M-2.5,-0.5L0,-3.0L2.5,-0.5"/>
                </g>
               <g id="resetDef">
                       <use xlink:href="#rim2" fill="#404040">
                               <set attributeName="fill" to="#808080" begin="reset.mouseover" end="reset.mouseout"/>
                       </use>
               </g>
        </defs>

<script type="text/javascript">
var viewWidth = 935;
var viewHeight = 951;
var sectionId = 'dynsection-24';
</script>
<script xlink:href="../../svgpan.js"/>
<svg id="graph" class="graph">
<g id="viewport">
<title>SharedSpiCard::readSector</title>
<polygon fill="white" stroke="transparent" points="-4,4 -4,-947.07 931,-947.07 931,4 -4,4"/>
<!-- Node1 -->
<g id="node1" class="node">
<title>Node1</title>
<g id="a_node1"><a xlink:title=" ">
<polygon fill="#bfbfbf" stroke="black" points="763,-283.57 763,-304.57 927,-304.57 927,-283.57 763,-283.57"/>
<text text-anchor="middle" x="845" y="-290.97" font-family="Helvetica,sans-Serif" font-size="12.00">SharedSpiCard::readSector</text>
</a>
</g>
</g>
<!-- Node2 -->
<g id="node2" class="node">
<title>Node2</title>
<g id="a_node2"><a xlink:href="../../d3/d77/class_fs_cache.html#abdfa349477d43542829c4d58b355efa6" target="_top" xlink:title=" ">
<polygon fill="white" stroke="black" points="572,-283.57 572,-304.57 727,-304.57 727,-283.57 572,-283.57"/>
<text text-anchor="middle" x="649.5" y="-290.97" font-family="Helvetica,sans-Serif" font-size="12.00">FsCache::cacheSafeRead</text>
</a>
</g>
</g>
<!-- Node1&#45;&gt;Node2 -->
<g id="edge1" class="edge">
<title>Node1&#45;&gt;Node2</title>
<path fill="none" stroke="midnightblue" d="M752.77,-294.07C744.21,-294.07 735.59,-294.07 727.19,-294.07"/>
<polygon fill="midnightblue" stroke="midnightblue" points="752.78,-297.57 762.78,-294.07 752.78,-290.57 752.78,-297.57"/>
</g>
<!-- Node5 -->
<g id="node5" class="node">
<title>Node5</title>
<g id="a_node5"><a xlink:href="../../d3/d77/class_fs_cache.html#a8c11f064a2ce0a380f522392f09d63cb" target="_top" xlink:title=" ">
<polygon fill="white" stroke="black" points="593.5,-467.57 593.5,-488.57 705.5,-488.57 705.5,-467.57 593.5,-467.57"/>
<text text-anchor="middle" x="649.5" y="-474.97" font-family="Helvetica,sans-Serif" font-size="12.00">FsCache::prepare</text>
</a>
</g>
</g>
<!-- Node1&#45;&gt;Node5 -->
<g id="edge4" class="edge">
<title>Node1&#45;&gt;Node5</title>
<path fill="none" stroke="midnightblue" d="M825.33,-311.82C785.63,-349.58 693.8,-436.89 661.77,-467.35"/>
<polygon fill="midnightblue" stroke="midnightblue" points="827.93,-314.18 832.76,-304.76 823.1,-309.11 827.93,-314.18"/>
</g>
<!-- Node156 -->
<g id="node32" class="node">
<title>Node156</title>
<g id="a_node32"><a xlink:href="../../d4/de9/class_ex_fat_partition.html#a930ad18f6dcb30b9491abb00d0db8a2b" target="_top" xlink:title=" ">
<polygon fill="white" stroke="black" points="572,-243.57 572,-264.57 727,-264.57 727,-243.57 572,-243.57"/>
<text text-anchor="middle" x="649.5" y="-250.97" font-family="Helvetica,sans-Serif" font-size="12.00">ExFatPartition::readSector</text>
</a>
</g>
</g>
<!-- Node1&#45;&gt;Node156 -->
<g id="edge38" class="edge">
<title>Node1&#45;&gt;Node156</title>
<path fill="none" stroke="midnightblue" d="M783.29,-281.52C756.95,-276.07 726.46,-269.77 701.34,-264.58"/>
<polygon fill="midnightblue" stroke="midnightblue" points="782.66,-284.96 793.16,-283.56 784.08,-278.11 782.66,-284.96"/>
</g>
<!-- Node3 -->
<g id="node3" class="node">
<title>Node3</title>
<g id="a_node3"><a xlink:href="../../d4/de9/class_ex_fat_partition.html#a3a482983dedbbb054941d678f7be69d2" target="_top" xlink:title=" ">
<polygon fill="white" stroke="black" points="353,-140.57 353,-161.57 535,-161.57 535,-140.57 353,-140.57"/>
<text text-anchor="middle" x="444" y="-147.97" font-family="Helvetica,sans-Serif" font-size="12.00">ExFatPartition::cacheSafeRead</text>
</a>
</g>
</g>
<!-- Node2&#45;&gt;Node3 -->
<g id="edge2" class="edge">
<title>Node2&#45;&gt;Node3</title>
<path fill="none" stroke="midnightblue" d="M584.45,-280.03C580.14,-278.26 575.94,-276.29 572,-274.07 518.5,-243.96 471.08,-185.82 452.89,-161.83"/>
<polygon fill="midnightblue" stroke="midnightblue" points="583.46,-283.39 594.05,-283.56 585.87,-276.82 583.46,-283.39"/>
</g>
<!-- Node4 -->
<g id="node4" class="node">
<title>Node4</title>
<g id="a_node4"><a xlink:href="../../d5/d14/class_ex_fat_file.html#a5ae5477efe55179cf07e173c62654313" target="_top" xlink:title=" ">
<polygon fill="white" stroke="black" points="7.5,-170.57 7.5,-191.57 104.5,-191.57 104.5,-170.57 7.5,-170.57"/>
<text text-anchor="middle" x="56" y="-177.97" font-family="Helvetica,sans-Serif" font-size="12.00">ExFatFile::read</text>
</a>
</g>
</g>
<!-- Node3&#45;&gt;Node4 -->
<g id="edge3" class="edge">
<title>Node3&#45;&gt;Node4</title>
<path fill="none" stroke="midnightblue" d="M430.67,-131.99C410.67,-103.05 368.12,-49.17 316,-28.07 246.79,-0.05 207.29,17.31 148,-28.07 99.37,-65.29 153.44,-115.98 112,-161.07 108.49,-164.88 104.2,-167.97 99.58,-170.47"/>
<polygon fill="midnightblue" stroke="midnightblue" points="427.86,-134.1 436.35,-140.44 433.67,-130.19 427.86,-134.1"/>
</g>
<!-- Node6 -->
<g id="node6" class="node">
<title>Node6</title>
<g id="a_node6"><a xlink:href="../../d4/de9/class_ex_fat_partition.html#af6a074aca1ec6fca48ce17216832f829" target="_top" xlink:title=" ">
<polygon fill="white" stroke="black" points="360.5,-599.07 360.5,-633.07 527.5,-633.07 527.5,-599.07 360.5,-599.07"/>
<text text-anchor="start" x="368.5" y="-619.47" font-family="Helvetica,sans-Serif" font-size="12.00">ExFatPartition::bitmapCache</text>
<text text-anchor="middle" x="444" y="-606.47" font-family="Helvetica,sans-Serif" font-size="12.00">Prepare</text>
</a>
</g>
</g>
<!-- Node5&#45;&gt;Node6 -->
<g id="edge5" class="edge">
<title>Node5&#45;&gt;Node6</title>
<path fill="none" stroke="midnightblue" d="M624.29,-494.48C585.5,-520.79 509.79,-572.13 470.32,-598.9"/>
<polygon fill="midnightblue" stroke="midnightblue" points="626.56,-497.18 632.87,-488.67 622.63,-491.38 626.56,-497.18"/>
</g>
<!-- Node52 -->
<g id="node10" class="node">
<title>Node52</title>
<g id="a_node10"><a xlink:href="../../d0/d12/class_fat_partition.html#ac3e2105d0671d0acb8f249ce558ca7f1" target="_top" xlink:title=" ">
<polygon fill="white" stroke="black" points="365,-467.57 365,-488.57 523,-488.57 523,-467.57 365,-467.57"/>
<text text-anchor="middle" x="444" y="-474.97" font-family="Helvetica,sans-Serif" font-size="12.00">FatPartition::cachePrepare</text>
</a>
</g>
</g>
<!-- Node5&#45;&gt;Node52 -->
<g id="edge9" class="edge">
<title>Node5&#45;&gt;Node52</title>
<path fill="none" stroke="midnightblue" d="M583.3,-478.07C564.12,-478.07 542.93,-478.07 523.03,-478.07"/>
<polygon fill="midnightblue" stroke="midnightblue" points="583.43,-481.57 593.43,-478.07 583.43,-474.57 583.43,-481.57"/>
</g>
<!-- Node53 -->
<g id="node11" class="node">
<title>Node53</title>
<g id="a_node11"><a xlink:href="../../d4/de9/class_ex_fat_partition.html#a119f5be5695880d2a16f1c0b3c3ff369" target="_top" xlink:title=" ">
<polygon fill="white" stroke="black" points="366.5,-323.07 366.5,-357.07 521.5,-357.07 521.5,-323.07 366.5,-323.07"/>
<text text-anchor="start" x="374.5" y="-343.47" font-family="Helvetica,sans-Serif" font-size="12.00">ExFatPartition::dataCache</text>
<text text-anchor="middle" x="444" y="-330.47" font-family="Helvetica,sans-Serif" font-size="12.00">Prepare</text>
</a>
</g>
</g>
<!-- Node5&#45;&gt;Node53 -->
<g id="edge10" class="edge">
<title>Node5&#45;&gt;Node53</title>
<path fill="none" stroke="midnightblue" d="M624.29,-461.65C585.5,-435.35 509.79,-384.01 470.32,-357.24"/>
<polygon fill="midnightblue" stroke="midnightblue" points="622.63,-464.75 632.87,-467.47 626.56,-458.96 622.63,-464.75"/>
</g>
<!-- Node108 -->
<g id="node24" class="node">
<title>Node108</title>
<g id="a_node24"><a xlink:href="../../d0/d12/class_fat_partition.html#a4ecb12682599d63c7e765d31ca8e1de6" target="_top" xlink:title=" ">
<polygon fill="white" stroke="black" points="352,-781.57 352,-802.57 536,-802.57 536,-781.57 352,-781.57"/>
<text text-anchor="middle" x="444" y="-788.97" font-family="Helvetica,sans-Serif" font-size="12.00">FatPartition::dataCachePrepare</text>
</a>
</g>
</g>
<!-- Node5&#45;&gt;Node108 -->
<g id="edge27" class="edge">
<title>Node5&#45;&gt;Node108</title>
<path fill="none" stroke="midnightblue" d="M636.01,-497.34C597.54,-556.7 481.64,-735.53 451.98,-781.3"/>
<polygon fill="midnightblue" stroke="midnightblue" points="638.99,-499.17 641.5,-488.88 633.12,-495.36 638.99,-499.17"/>
</g>
<!-- Node7 -->
<g id="node7" class="node">
<title>Node7</title>
<g id="a_node7"><a xlink:href="../../d4/de9/class_ex_fat_partition.html#aa06d3cfed1e079d32ba4516a7e1f1181" target="_top" xlink:title=" ">
<polygon fill="white" stroke="red" points="154,-645.57 154,-666.57 310,-666.57 310,-645.57 154,-645.57"/>
<text text-anchor="middle" x="232" y="-652.97" font-family="Helvetica,sans-Serif" font-size="12.00">ExFatPartition::bitmapFind</text>
</a>
</g>
</g>
<!-- Node6&#45;&gt;Node7 -->
<g id="edge6" class="edge">
<title>Node6&#45;&gt;Node7</title>
<path fill="none" stroke="midnightblue" d="M350.29,-633.73C329.08,-637.77 307.19,-641.94 288.15,-645.56"/>
<polygon fill="midnightblue" stroke="midnightblue" points="351.14,-637.13 360.3,-631.82 349.83,-630.25 351.14,-637.13"/>
</g>
<!-- Node44 -->
<g id="node9" class="node">
<title>Node44</title>
<g id="a_node9"><a xlink:href="../../d4/de9/class_ex_fat_partition.html#a19a01c982116361a61079865e28ccabc" target="_top" xlink:title=" ">
<polygon fill="white" stroke="red" points="148.5,-605.57 148.5,-626.57 315.5,-626.57 315.5,-605.57 148.5,-605.57"/>
<text text-anchor="middle" x="232" y="-612.97" font-family="Helvetica,sans-Serif" font-size="12.00">ExFatPartition::bitmapModify</text>
</a>
</g>
</g>
<!-- Node6&#45;&gt;Node44 -->
<g id="edge8" class="edge">
<title>Node6&#45;&gt;Node44</title>
<path fill="none" stroke="midnightblue" d="M350.24,-616.07C338.71,-616.07 326.98,-616.07 315.62,-616.07"/>
<polygon fill="midnightblue" stroke="midnightblue" points="350.3,-619.57 360.3,-616.07 350.3,-612.57 350.3,-619.57"/>
</g>
<!-- Node40 -->
<g id="node8" class="node">
<title>Node40</title>
<g id="a_node8"><a xlink:href="../../d4/de9/class_ex_fat_partition.html#adb1d277492dccba09031e2064f4fa66f" target="_top" xlink:title=" ">
<polygon fill="white" stroke="red" points="0,-605.57 0,-626.57 112,-626.57 112,-605.57 0,-605.57"/>
<text text-anchor="middle" x="56" y="-612.97" font-family="Helvetica,sans-Serif" font-size="12.00">ExFatPartition::init</text>
</a>
</g>
</g>
<!-- Node7&#45;&gt;Node40 -->
<g id="edge7" class="edge">
<title>Node7&#45;&gt;Node40</title>
<path fill="none" stroke="midnightblue" d="M175.47,-643.3C152,-637.91 125,-631.7 102.71,-626.58"/>
<polygon fill="midnightblue" stroke="midnightblue" points="174.75,-646.73 185.28,-645.56 176.32,-639.91 174.75,-646.73"/>
</g>
<!-- Node53&#45;&gt;Node4 -->
<g id="edge25" class="edge">
<title>Node53&#45;&gt;Node4</title>
<path fill="none" stroke="midnightblue" d="M407.97,-362.62C349.22,-397.3 229.29,-454.32 148,-400.07 74.03,-350.7 60.1,-228.73 57.55,-191.82"/>
<polygon fill="midnightblue" stroke="midnightblue" points="410.1,-365.42 416.86,-357.27 406.49,-359.43 410.1,-365.42"/>
</g>
<!-- Node53&#45;&gt;Node40 -->
<g id="edge21" class="edge">
<title>Node53&#45;&gt;Node40</title>
<path fill="none" stroke="midnightblue" d="M420.23,-364.76C400.13,-387.59 371.13,-423.16 352,-458.07 329.3,-499.49 351.43,-526.82 316,-558.07 315,-558.95 179.09,-589.09 104.58,-605.56"/>
<polygon fill="midnightblue" stroke="midnightblue" points="422.9,-367.03 426.94,-357.24 417.67,-362.37 422.9,-367.03"/>
</g>
<!-- Node9 -->
<g id="node12" class="node">
<title>Node9</title>
<g id="a_node12"><a xlink:href="../../d5/d14/class_ex_fat_file.html#abfbf7534ac962c1572da8615dc0c518f" target="_top" xlink:title=" ">
<polygon fill="white" stroke="red" points="159,-369.57 159,-390.57 305,-390.57 305,-369.57 159,-369.57"/>
<text text-anchor="middle" x="232" y="-376.97" font-family="Helvetica,sans-Serif" font-size="12.00">ExFatFile::addDirCluster</text>
</a>
</g>
</g>
<!-- Node53&#45;&gt;Node9 -->
<g id="edge11" class="edge">
<title>Node53&#45;&gt;Node9</title>
<path fill="none" stroke="midnightblue" d="M356.17,-356.61C333.16,-360.99 308.95,-365.6 288.14,-369.57"/>
<polygon fill="midnightblue" stroke="midnightblue" points="357.13,-359.99 366.29,-354.68 355.82,-353.11 357.13,-359.99"/>
</g>
<!-- Node54 -->
<g id="node13" class="node">
<title>Node54</title>
<g id="a_node13"><a xlink:href="../../d4/de9/class_ex_fat_partition.html#aa7342dc9ed751744d123b6e536e0ddfc" target="_top" xlink:title=" ">
<polygon fill="white" stroke="black" points="148,-329.57 148,-350.57 316,-350.57 316,-329.57 148,-329.57"/>
<text text-anchor="middle" x="232" y="-336.97" font-family="Helvetica,sans-Serif" font-size="12.00">ExFatPartition::checkUpcase</text>
</a>
</g>
</g>
<!-- Node53&#45;&gt;Node54 -->
<g id="edge12" class="edge">
<title>Node53&#45;&gt;Node54</title>
<path fill="none" stroke="midnightblue" d="M356.26,-340.07C343.02,-340.07 329.39,-340.07 316.22,-340.07"/>
<polygon fill="midnightblue" stroke="midnightblue" points="356.29,-343.57 366.29,-340.07 356.29,-336.57 356.29,-343.57"/>
</g>
<!-- Node55 -->
<g id="node14" class="node">
<title>Node55</title>
<g id="a_node14"><a xlink:href="../../d4/de9/class_ex_fat_partition.html#a854529565ac49818bce4c3b2ceefedee" target="_top" xlink:title=" ">
<polygon fill="white" stroke="red" points="159.5,-289.57 159.5,-310.57 304.5,-310.57 304.5,-289.57 159.5,-289.57"/>
<text text-anchor="middle" x="232" y="-296.97" font-family="Helvetica,sans-Serif" font-size="12.00">ExFatPartition::dirCache</text>
</a>
</g>
</g>
<!-- Node53&#45;&gt;Node55 -->
<g id="edge13" class="edge">
<title>Node53&#45;&gt;Node55</title>
<path fill="none" stroke="midnightblue" d="M356.17,-323.53C333.16,-319.15 308.95,-314.53 288.14,-310.57"/>
<polygon fill="midnightblue" stroke="midnightblue" points="355.82,-327.02 366.29,-325.46 357.13,-320.15 355.82,-327.02"/>
</g>
<!-- Node90 -->
<g id="node15" class="node">
<title>Node90</title>
<g id="a_node15"><a xlink:href="../../d4/de9/class_ex_fat_partition.html#a55e609f31ec0a649c0cebcd53674d249" target="_top" xlink:title=" ">
<polygon fill="white" stroke="black" points="163.5,-249.57 163.5,-270.57 300.5,-270.57 300.5,-249.57 163.5,-249.57"/>
<text text-anchor="middle" x="232" y="-256.97" font-family="Helvetica,sans-Serif" font-size="12.00">ExFatPartition::dmpFat</text>
</a>
</g>
</g>
<!-- Node53&#45;&gt;Node90 -->
<g id="edge14" class="edge">
<title>Node53&#45;&gt;Node90</title>
<path fill="none" stroke="midnightblue" d="M402.66,-318.4C378.13,-305.89 345.88,-290.6 316,-280.07 305.8,-276.47 294.66,-273.3 283.96,-270.6"/>
<polygon fill="midnightblue" stroke="midnightblue" points="401.17,-321.57 411.66,-323.04 404.38,-315.35 401.17,-321.57"/>
</g>
<!-- Node91 -->
<g id="node16" class="node">
<title>Node91</title>
<g id="a_node16"><a xlink:href="../../d4/de9/class_ex_fat_partition.html#a1092830e46501f07f54afa9f654ede0c" target="_top" xlink:title=" ">
<polygon fill="white" stroke="red" points="154.5,-209.57 154.5,-230.57 309.5,-230.57 309.5,-209.57 154.5,-209.57"/>
<text text-anchor="middle" x="232" y="-216.97" font-family="Helvetica,sans-Serif" font-size="12.00">ExFatPartition::dmpSector</text>
</a>
</g>
</g>
<!-- Node53&#45;&gt;Node91 -->
<g id="edge15" class="edge">
<title>Node53&#45;&gt;Node91</title>
<path fill="none" stroke="midnightblue" d="M418.91,-315.79C394.88,-292.94 355.87,-259.41 316,-240.07 308.13,-236.25 299.48,-233.13 290.83,-230.59"/>
<polygon fill="midnightblue" stroke="midnightblue" points="416.55,-318.38 426.17,-322.81 421.41,-313.34 416.55,-318.38"/>
</g>
<!-- Node94 -->
<g id="node17" class="node">
<title>Node94</title>
<g id="a_node17"><a xlink:href="../../d4/de9/class_ex_fat_partition.html#a0ab58594882246621e1601aafc6190fb" target="_top" xlink:title=" ">
<polygon fill="white" stroke="red" points="168,-169.57 168,-190.57 296,-190.57 296,-169.57 168,-169.57"/>
<text text-anchor="middle" x="232" y="-176.97" font-family="Helvetica,sans-Serif" font-size="12.00">ExFatPartition::fatGet</text>
</a>
</g>
</g>
<!-- Node53&#45;&gt;Node94 -->
<g id="edge16" class="edge">
<title>Node53&#45;&gt;Node94</title>
<path fill="none" stroke="midnightblue" d="M426.92,-314.46C405.55,-282.63 364.76,-228.98 316,-200.07 309.5,-196.21 302.29,-193.1 294.92,-190.58"/>
<polygon fill="midnightblue" stroke="midnightblue" points="424,-316.39 432.42,-322.82 429.84,-312.54 424,-316.39"/>
</g>
<!-- Node39 -->
<g id="node18" class="node">
<title>Node39</title>
<g id="a_node18"><a xlink:href="../../d5/d14/class_ex_fat_file.html#abc1423c7b550614d1067e7173f8b46a8" target="_top" xlink:title=" ">
<polygon fill="white" stroke="black" points="7,-130.57 7,-151.57 105,-151.57 105,-130.57 7,-130.57"/>
<text text-anchor="middle" x="56" y="-137.97" font-family="Helvetica,sans-Serif" font-size="12.00">ExFatFile::write</text>
</a>
</g>
</g>
<!-- Node53&#45;&gt;Node39 -->
<g id="edge26" class="edge">
<title>Node53&#45;&gt;Node39</title>
<path fill="none" stroke="midnightblue" d="M433,-313.48C416,-272.41 377.2,-194.69 316,-160.07 250.46,-123 160.21,-126.21 105.38,-132.92"/>
<polygon fill="midnightblue" stroke="midnightblue" points="429.79,-314.87 436.77,-322.84 436.29,-312.26 429.79,-314.87"/>
</g>
<!-- Node103 -->
<g id="node19" class="node">
<title>Node103</title>
<g id="a_node19"><a xlink:href="../../d4/de9/class_ex_fat_partition.html#ad342fd89d83c53623723b77b4bf0c2c4" target="_top" xlink:title=" ">
<polygon fill="white" stroke="red" points="168.5,-91.57 168.5,-112.57 295.5,-112.57 295.5,-91.57 168.5,-91.57"/>
<text text-anchor="middle" x="232" y="-98.97" font-family="Helvetica,sans-Serif" font-size="12.00">ExFatPartition::fatPut</text>
</a>
</g>
</g>
<!-- Node53&#45;&gt;Node103 -->
<g id="edge19" class="edge">
<title>Node53&#45;&gt;Node103</title>
<path fill="none" stroke="midnightblue" d="M430.42,-313.9C405.42,-262.89 349.08,-152.89 316,-127.07 308.05,-120.86 298.58,-116.19 288.92,-112.68"/>
<polygon fill="midnightblue" stroke="midnightblue" points="427.32,-315.53 434.84,-322.99 433.61,-312.47 427.32,-315.53"/>
</g>
<!-- Node104 -->
<g id="node20" class="node">
<title>Node104</title>
<g id="a_node20"><a xlink:href="../../d4/de9/class_ex_fat_partition.html#ae6d4414d6440b79b6314cd1edbaa35b0" target="_top" xlink:title=" ">
<polygon fill="white" stroke="black" points="155,-38.07 155,-72.07 309,-72.07 309,-38.07 155,-38.07"/>
<text text-anchor="start" x="163" y="-58.47" font-family="Helvetica,sans-Serif" font-size="12.00">ExFatPartition::freeCluster</text>
<text text-anchor="middle" x="232" y="-45.47" font-family="Helvetica,sans-Serif" font-size="12.00">Count</text>
</a>
</g>
</g>
<!-- Node53&#45;&gt;Node104 -->
<g id="edge20" class="edge">
<title>Node53&#45;&gt;Node104</title>
<path fill="none" stroke="midnightblue" d="M427.61,-313.67C408.73,-280.8 376.24,-222.68 352,-171.07 333.86,-132.45 347.21,-111.17 316,-82.07 311.9,-78.24 307.25,-74.96 302.3,-72.14"/>
<polygon fill="midnightblue" stroke="midnightblue" points="424.76,-315.72 432.79,-322.63 430.82,-312.22 424.76,-315.72"/>
</g>
<!-- Node105 -->
<g id="node21" class="node">
<title>Node105</title>
<g id="a_node21"><a xlink:href="../../d4/de9/class_ex_fat_partition.html#ac37fa630d5288803f46d3bb9ed3690b5" target="_top" xlink:title=" ">
<polygon fill="white" stroke="black" points="164.5,-527.57 164.5,-548.57 299.5,-548.57 299.5,-527.57 164.5,-527.57"/>
<text text-anchor="middle" x="232" y="-534.97" font-family="Helvetica,sans-Serif" font-size="12.00">ExFatPartition::printDir</text>
</a>
</g>
</g>
<!-- Node53&#45;&gt;Node105 -->
<g id="edge22" class="edge">
<title>Node53&#45;&gt;Node105</title>
<path fill="none" stroke="midnightblue" d="M422.22,-365.22C403.18,-388.69 374.59,-424.95 352,-458.07 334.47,-483.76 341.07,-499.66 316,-518.07 310.86,-521.84 305.11,-524.91 299.09,-527.41"/>
<polygon fill="midnightblue" stroke="midnightblue" points="425.17,-367.15 428.78,-357.19 419.75,-362.72 425.17,-367.15"/>
</g>
<!-- Node106 -->
<g id="node22" class="node">
<title>Node106</title>
<g id="a_node22"><a xlink:href="../../d4/de9/class_ex_fat_partition.html#a6ce37ab1b8c785ac46b2fe54721c6889" target="_top" xlink:title=" ">
<polygon fill="white" stroke="black" points="152,-487.57 152,-508.57 312,-508.57 312,-487.57 152,-487.57"/>
<text text-anchor="middle" x="232" y="-494.97" font-family="Helvetica,sans-Serif" font-size="12.00">ExFatPartition::printUpcase</text>
</a>
</g>
</g>
<!-- Node53&#45;&gt;Node106 -->
<g id="edge23" class="edge">
<title>Node53&#45;&gt;Node106</title>
<path fill="none" stroke="midnightblue" d="M426.21,-366.21C404.59,-397.68 364.02,-449.82 316,-478.07 309.48,-481.9 302.27,-485 294.9,-487.5"/>
<polygon fill="midnightblue" stroke="midnightblue" points="429.37,-367.79 432.05,-357.54 423.56,-363.88 429.37,-367.79"/>
</g>
<!-- Node107 -->
<g id="node23" class="node">
<title>Node107</title>
<g id="a_node23"><a xlink:href="../../d4/de9/class_ex_fat_partition.html#a71bfb47a8534acf4d4da156a239c79ad" target="_top" xlink:title=" ">
<polygon fill="white" stroke="black" points="154.5,-447.57 154.5,-468.57 309.5,-468.57 309.5,-447.57 154.5,-447.57"/>
<text text-anchor="middle" x="232" y="-454.97" font-family="Helvetica,sans-Serif" font-size="12.00">ExFatPartition::printVolInfo</text>
</a>
</g>
</g>
<!-- Node53&#45;&gt;Node107 -->
<g id="edge24" class="edge">
<title>Node53&#45;&gt;Node107</title>
<path fill="none" stroke="midnightblue" d="M416.35,-363.8C391.79,-384.6 353.58,-414.34 316,-433.07 304.15,-438.97 290.64,-443.77 278.01,-447.53"/>
<polygon fill="midnightblue" stroke="midnightblue" points="418.82,-366.29 424.13,-357.12 414.26,-360.98 418.82,-366.29"/>
</g>
<!-- Node94&#45;&gt;Node4 -->
<g id="edge17" class="edge">
<title>Node94&#45;&gt;Node4</title>
<path fill="none" stroke="midnightblue" d="M157.32,-180.49C139.52,-180.59 120.96,-180.7 104.71,-180.79"/>
<polygon fill="midnightblue" stroke="midnightblue" points="157.71,-183.99 167.69,-180.43 157.67,-176.99 157.71,-183.99"/>
</g>
<!-- Node94&#45;&gt;Node39 -->
<g id="edge18" class="edge">
<title>Node94&#45;&gt;Node39</title>
<path fill="none" stroke="midnightblue" d="M174.09,-167.31C151.44,-162.24 125.7,-156.46 104.12,-151.63"/>
<polygon fill="midnightblue" stroke="midnightblue" points="173.39,-170.74 183.91,-169.51 174.92,-163.91 173.39,-170.74"/>
</g>
<!-- Node109 -->
<g id="node25" class="node">
<title>Node109</title>
<g id="a_node25"><a xlink:href="../../d3/d51/class_fat_file.html#aa65510f81a364343bb7b21f86b5a35b5" target="_top" xlink:title=" ">
<polygon fill="white" stroke="red" points="166,-921.57 166,-942.57 298,-942.57 298,-921.57 166,-921.57"/>
<text text-anchor="middle" x="232" y="-928.97" font-family="Helvetica,sans-Serif" font-size="12.00">FatFile::addDirCluster</text>
</a>
</g>
</g>
<!-- Node108&#45;&gt;Node109 -->
<g id="edge28" class="edge">
<title>Node108&#45;&gt;Node109</title>
<path fill="none" stroke="midnightblue" d="M428.65,-810.77C407.14,-837.46 363.92,-886.09 316,-912.07 308.96,-915.88 301.2,-918.98 293.34,-921.49"/>
<polygon fill="midnightblue" stroke="midnightblue" points="431.63,-812.65 435.08,-802.63 426.14,-808.31 431.63,-812.65"/>
</g>
<!-- Node110 -->
<g id="node26" class="node">
<title>Node110</title>
<g id="a_node26"><a xlink:href="../../d3/d51/class_fat_file.html#acb4108f33aa7e10fff747b4939787c5a" target="_top" xlink:title=" ">
<polygon fill="white" stroke="black" points="11.5,-762.57 11.5,-783.57 100.5,-783.57 100.5,-762.57 11.5,-762.57"/>
<text text-anchor="middle" x="56" y="-769.97" font-family="Helvetica,sans-Serif" font-size="12.00">FatFile::mkdir</text>
</a>
</g>
</g>
<!-- Node108&#45;&gt;Node110 -->
<g id="edge34" class="edge">
<title>Node108&#45;&gt;Node110</title>
<path fill="none" stroke="midnightblue" d="M341.14,-787.05C262.81,-783.2 158.48,-778.06 100.52,-775.21"/>
<polygon fill="midnightblue" stroke="midnightblue" points="341.36,-790.57 351.52,-787.56 341.71,-783.58 341.36,-790.57"/>
</g>
<!-- Node112 -->
<g id="node27" class="node">
<title>Node112</title>
<g id="a_node27"><a xlink:href="../../d3/d51/class_fat_file.html#a1de799df045e4f60e9ebbcd6d341f9a8" target="_top" xlink:title=" ">
<polygon fill="white" stroke="red" points="165.5,-723.57 165.5,-744.57 298.5,-744.57 298.5,-723.57 165.5,-723.57"/>
<text text-anchor="middle" x="232" y="-730.97" font-family="Helvetica,sans-Serif" font-size="12.00">FatFile::cacheDirEntry</text>
</a>
</g>
</g>
<!-- Node108&#45;&gt;Node112 -->
<g id="edge30" class="edge">
<title>Node108&#45;&gt;Node112</title>
<path fill="none" stroke="midnightblue" d="M395.25,-778.88C357.65,-768.5 305.95,-754.22 271.1,-744.59"/>
<polygon fill="midnightblue" stroke="midnightblue" points="394.4,-782.28 404.97,-781.56 396.26,-775.53 394.4,-782.28"/>
</g>
<!-- Node135 -->
<g id="node28" class="node">
<title>Node135</title>
<g id="a_node28"><a xlink:href="../../d3/d51/class_fat_file.html#a4b42f2454ff462555c07ea094a92a1e0" target="_top" xlink:title=" ">
<polygon fill="white" stroke="black" points="6.5,-703.57 6.5,-724.57 105.5,-724.57 105.5,-703.57 6.5,-703.57"/>
<text text-anchor="middle" x="56" y="-710.97" font-family="Helvetica,sans-Serif" font-size="12.00">FatFile::rename</text>
</a>
</g>
</g>
<!-- Node108&#45;&gt;Node135 -->
<g id="edge36" class="edge">
<title>Node108&#45;&gt;Node135</title>
<path fill="none" stroke="midnightblue" d="M422.89,-774.75C399.18,-755.59 357.69,-725.85 316,-714.07 245.04,-694.02 158.7,-699.65 105.81,-706.3"/>
<polygon fill="midnightblue" stroke="midnightblue" points="420.85,-777.61 430.79,-781.28 425.31,-772.21 420.85,-777.61"/>
</g>
<!-- Node153 -->
<g id="node29" class="node">
<title>Node153</title>
<g id="a_node29"><a xlink:href="../../d0/d12/class_fat_partition.html#ab827224f30eec57255d21cae589911ef" target="_top" xlink:title=" ">
<polygon fill="white" stroke="red" points="183,-881.57 183,-902.57 281,-902.57 281,-881.57 183,-881.57"/>
<text text-anchor="middle" x="232" y="-888.97" font-family="Helvetica,sans-Serif" font-size="12.00">FatPartition::init</text>
</a>
</g>
</g>
<!-- Node108&#45;&gt;Node153 -->
<g id="edge33" class="edge">
<title>Node108&#45;&gt;Node153</title>
<path fill="none" stroke="midnightblue" d="M421.18,-808.95C396.8,-827.03 355.56,-855.38 316,-872.07 305.08,-876.68 292.87,-880.36 281.26,-883.24"/>
<polygon fill="midnightblue" stroke="midnightblue" points="423.48,-811.6 429.36,-802.79 419.27,-806.01 423.48,-811.6"/>
</g>
<!-- Node154 -->
<g id="node30" class="node">
<title>Node154</title>
<g id="a_node30"><a xlink:href="../../d3/d51/class_fat_file.html#aba893af8107a18017482d2311b066187" target="_top" xlink:title=" ">
<polygon fill="white" stroke="black" points="190.5,-841.57 190.5,-862.57 273.5,-862.57 273.5,-841.57 190.5,-841.57"/>
<text text-anchor="middle" x="232" y="-848.97" font-family="Helvetica,sans-Serif" font-size="12.00">FatFile::read</text>
</a>
</g>
</g>
<!-- Node108&#45;&gt;Node154 -->
<g id="edge35" class="edge">
<title>Node108&#45;&gt;Node154</title>
<path fill="none" stroke="midnightblue" d="M401.83,-805.82C377.07,-813.9 344.88,-824.05 316,-832.07 302.29,-835.87 287.19,-839.64 273.67,-842.86"/>
<polygon fill="midnightblue" stroke="midnightblue" points="403.19,-809.06 411.6,-802.62 401.01,-802.41 403.19,-809.06"/>
</g>
<!-- Node155 -->
<g id="node31" class="node">
<title>Node155</title>
<g id="a_node31"><a xlink:href="../../d3/d51/class_fat_file.html#a5d84d871ac904a22aa48308713d14682" target="_top" xlink:title=" ">
<polygon fill="white" stroke="black" points="190,-801.57 190,-822.57 274,-822.57 274,-801.57 190,-801.57"/>
<text text-anchor="middle" x="232" y="-808.97" font-family="Helvetica,sans-Serif" font-size="12.00">FatFile::write</text>
</a>
</g>
</g>
<!-- Node108&#45;&gt;Node155 -->
<g id="edge37" class="edge">
<title>Node108&#45;&gt;Node155</title>
<path fill="none" stroke="midnightblue" d="M341.59,-801.73C317.69,-804 293.54,-806.3 274.11,-808.15"/>
<polygon fill="midnightblue" stroke="midnightblue" points="342.18,-805.18 351.81,-800.75 341.52,-798.22 342.18,-805.18"/>
</g>
<!-- Node109&#45;&gt;Node110 -->
<g id="edge29" class="edge">
<title>Node109&#45;&gt;Node110</title>
<path fill="none" stroke="midnightblue" d="M156.61,-917.3C153.61,-915.73 150.73,-913.99 148,-912.07 99.9,-878.18 70.67,-810.03 60.78,-783.75"/>
<polygon fill="midnightblue" stroke="midnightblue" points="155.35,-920.57 165.9,-921.53 158.26,-914.2 155.35,-920.57"/>
</g>
<!-- Node112&#45;&gt;Node110 -->
<g id="edge31" class="edge">
<title>Node112&#45;&gt;Node110</title>
<path fill="none" stroke="midnightblue" d="M173.92,-746.86C150.04,-752.21 122.75,-758.33 100.54,-763.31"/>
<polygon fill="midnightblue" stroke="midnightblue" points="174.92,-750.22 183.91,-744.62 173.39,-743.39 174.92,-750.22"/>
</g>
<!-- Node112&#45;&gt;Node135 -->
<g id="edge32" class="edge">
<title>Node112&#45;&gt;Node135</title>
<path fill="none" stroke="midnightblue" d="M154.88,-725.32C138.13,-723.39 120.83,-721.4 105.52,-719.64"/>
<polygon fill="midnightblue" stroke="midnightblue" points="154.88,-728.84 165.22,-726.51 155.68,-721.89 154.88,-728.84"/>
</g>
</g>
</svg>
        <g id="navigator" transform="translate(0 0)" fill="#404254">
                <rect fill="#f2f5e9" fill-opacity="0.5" stroke="#606060" stroke-width=".5" x="0" y="0" width="60" height="60"/>
                <use id="zoomplus" xlink:href="#zoomPlus" x="17" y="9" onmousedown="handleZoom(evt,'in')"/>
                <use id="zoomminus" xlink:href="#zoomMin" x="42" y="9" onmousedown="handleZoom(evt,'out')"/>
                <use id="reset" xlink:href="#resetDef" x="30" y="36" onmousedown="handleReset()"/>
                <g id="arrowUp" xlink:href="#dirArrow" transform="translate(30 24)" onmousedown="handlePan(0,-1)">
                  <use xlink:href="#rim" fill="#404040">
                        <set attributeName="fill" to="#808080" begin="arrowUp.mouseover" end="arrowUp.mouseout"/>
                  </use>
                  <path fill="none" stroke="white" stroke-width="1.5" d="M0,-3.0v7 M-2.5,-0.5L0,-3.0L2.5,-0.5"/>
                </g>
                <g id="arrowRight" xlink:href="#dirArrow" transform="rotate(90) translate(36 -43)" onmousedown="handlePan(1,0)">
                  <use xlink:href="#rim" fill="#404040">
                        <set attributeName="fill" to="#808080" begin="arrowRight.mouseover" end="arrowRight.mouseout"/>
                  </use>
                  <path fill="none" stroke="white" stroke-width="1.5" d="M0,-3.0v7 M-2.5,-0.5L0,-3.0L2.5,-0.5"/>
                </g>
                <g id="arrowDown" xlink:href="#dirArrow" transform="rotate(180) translate(-30 -48)" onmousedown="handlePan(0,1)">
                  <use xlink:href="#rim" fill="#404040">
                        <set attributeName="fill" to="#808080" begin="arrowDown.mouseover" end="arrowDown.mouseout"/>
                  </use>
                  <path fill="none" stroke="white" stroke-width="1.5" d="M0,-3.0v7 M-2.5,-0.5L0,-3.0L2.5,-0.5"/>
                </g>
                <g id="arrowLeft" xlink:href="#dirArrow" transform="rotate(270) translate(-36 17)" onmousedown="handlePan(-1,0)">
                  <use xlink:href="#rim" fill="#404040">
                        <set attributeName="fill" to="#808080" begin="arrowLeft.mouseover" end="arrowLeft.mouseout"/>
                  </use>
                  <path fill="none" stroke="white" stroke-width="1.5" d="M0,-3.0v7 M-2.5,-0.5L0,-3.0L2.5,-0.5"/>
                </g>
        </g>
        <svg viewBox="0 0 15 15" width="100%" height="30px" preserveAspectRatio="xMaxYMin meet">
         <g id="arrow_out" transform="scale(0.3 0.3)">
          <a xlink:href="class_shared_spi_card_a61d86f4092f8ddbc7339d7cbcf6f70c0_icgraph_org.svg" target="_base">
           <rect id="button" ry="5" rx="5" y="6" x="6" height="38" width="38"
                fill="#f2f5e9" fill-opacity="0.5" stroke="#606060" stroke-width="1.0"/>
           <path id="arrow"
             d="M 11.500037,31.436501 C 11.940474,20.09759 22.043105,11.32322 32.158766,21.979434 L 37.068811,17.246167 C 37.068811,17.246167 37.088388,32 37.088388,32 L 22.160133,31.978069 C 22.160133,31.978069 26.997745,27.140456 26.997745,27.140456 C 18.528582,18.264221 13.291696,25.230495 11.500037,31.436501 z"
             style="fill:#404040;"/>
          </a>
         </g>
        </svg>
</svg>
