<?xml version="1.0" encoding="UTF-8" standalone="no"?>
<!DOCTYPE svg PUBLIC "-//W3C//DTD SVG 1.1//EN"
 "http://www.w3.org/Graphics/SVG/1.1/DTD/svg11.dtd">
<!-- Generated by graphviz version 2.47.3 (20210619.1520)
 -->
<!-- Title: SharedSpiCard::readStart Pages: 1 -->
<svg width="1335pt" height="437pt"
 viewBox="0.00 0.00 1335.00 436.77" xmlns="http://www.w3.org/2000/svg" xmlns:xlink="http://www.w3.org/1999/xlink">
<g id="graph0" class="graph" transform="scale(1 1) rotate(0) translate(4 432.77)">
<title>SharedSpiCard::readStart</title>
<polygon fill="white" stroke="transparent" points="-4,4 -4,-432.77 1331,-432.77 1331,4 -4,4"/>
<!-- Node1 -->
<g id="node1" class="node">
<title>Node1</title>
<g id="a_node1"><a xlink:title=" ">
<polygon fill="#bfbfbf" stroke="black" points="0,-58.5 0,-79.5 154,-79.5 154,-58.5 0,-58.5"/>
<text text-anchor="middle" x="77" y="-65.9" font-family="Helvetica,sans-Serif" font-size="12.00">SharedSpiCard::readStart</text>
</a>
</g>
</g>
<!-- Node2 -->
<g id="node2" class="node">
<title>Node2</title>
<g id="a_node2"><a xlink:href="../../d5/d4b/class_shared_spi_card.html#adda33199753fc2aec74fe317cbaabc06" target="_top" xlink:title=" ">
<polygon fill="white" stroke="black" points="190,-236.5 190,-257.5 373,-257.5 373,-236.5 190,-236.5"/>
<text text-anchor="middle" x="281.5" y="-243.9" font-family="Helvetica,sans-Serif" font-size="12.00">SharedSpiCard::cardCommand</text>
</a>
</g>
</g>
<!-- Node1&#45;&gt;Node2 -->
<g id="edge1" class="edge">
<title>Node1&#45;&gt;Node2</title>
<path fill="none" stroke="midnightblue" d="M90.06,-79.6C123.83,-109.28 219.53,-193.41 260.97,-229.83"/>
<polygon fill="midnightblue" stroke="midnightblue" points="258.68,-232.48 268.5,-236.45 263.3,-227.22 258.68,-232.48"/>
</g>
<!-- Node14 -->
<g id="node12" class="node">
<title>Node14</title>
<g id="a_node12"><a xlink:href="../../d5/d4b/class_shared_spi_card.html#a747c3f0b962098cf0c097f3c4c2b4fd4" target="_top" xlink:title=" ">
<polygon fill="white" stroke="black" points="824,-156.5 824,-177.5 954,-177.5 954,-156.5 824,-156.5"/>
<text text-anchor="middle" x="889" y="-163.9" font-family="Helvetica,sans-Serif" font-size="12.00">SharedSpiCard::error</text>
</a>
</g>
</g>
<!-- Node1&#45;&gt;Node14 -->
<g id="edge23" class="edge">
<title>Node1&#45;&gt;Node14</title>
<path fill="none" stroke="midnightblue" d="M154.13,-69.9C322.99,-72.35 718.36,-80.86 773,-107 794.57,-117.32 788.52,-134.64 809,-147 812.44,-149.08 816.1,-150.94 819.87,-152.61"/>
<polygon fill="midnightblue" stroke="midnightblue" points="818.87,-155.98 829.45,-156.38 821.43,-149.46 818.87,-155.98"/>
</g>
<!-- Node15 -->
<g id="node13" class="node">
<title>Node15</title>
<g id="a_node13"><a xlink:href="../../d5/d4b/class_shared_spi_card.html#a0f511c39c50055a4fc97e720933aee3a" target="_top" xlink:title=" ">
<polygon fill="white" stroke="red" points="816,-116.5 816,-137.5 962,-137.5 962,-116.5 816,-116.5"/>
<text text-anchor="middle" x="889" y="-123.9" font-family="Helvetica,sans-Serif" font-size="12.00">SharedSpiCard::spiStop</text>
</a>
</g>
</g>
<!-- Node1&#45;&gt;Node15 -->
<g id="edge24" class="edge">
<title>Node1&#45;&gt;Node15</title>
<path fill="none" stroke="midnightblue" d="M154.26,-59.18C283.44,-44.84 552.78,-24.86 773,-74 805.29,-81.2 839.36,-98.26 861.96,-111.09"/>
<polygon fill="midnightblue" stroke="midnightblue" points="860.5,-114.29 870.9,-116.29 864.01,-108.23 860.5,-114.29"/>
</g>
<!-- Node21 -->
<g id="node16" class="node">
<title>Node21</title>
<g id="a_node16"><a xlink:href="../../d5/d4b/class_shared_spi_card.html#a7dac2190763d7b4b72163ed7131e8a87" target="_top" xlink:title=" ">
<polygon fill="white" stroke="black" points="218,-0.5 218,-21.5 345,-21.5 345,-0.5 218,-0.5"/>
<text text-anchor="middle" x="281.5" y="-7.9" font-family="Helvetica,sans-Serif" font-size="12.00">SharedSpiCard::type</text>
</a>
</g>
</g>
<!-- Node1&#45;&gt;Node21 -->
<g id="edge25" class="edge">
<title>Node1&#45;&gt;Node21</title>
<path fill="none" stroke="midnightblue" d="M113.27,-58.44C135.3,-51.89 164.27,-43.34 190,-36 203.62,-32.11 218.42,-27.98 232.04,-24.22"/>
<polygon fill="midnightblue" stroke="midnightblue" points="232.99,-27.59 241.7,-21.56 231.13,-20.84 232.99,-27.59"/>
</g>
<!-- Node3 -->
<g id="node3" class="node">
<title>Node3</title>
<g id="a_node3"><a xlink:href="../../d5/d4b/class_shared_spi_card.html#a08363209d938db87521cca6a84146041" target="_top" xlink:title=" ">
<polygon fill="white" stroke="black" points="1005,-371.5 1005,-392.5 1169,-392.5 1169,-371.5 1005,-371.5"/>
<text text-anchor="middle" x="1087" y="-378.9" font-family="Helvetica,sans-Serif" font-size="12.00">SharedSpiCard::spiReceive</text>
</a>
</g>
</g>
<!-- Node2&#45;&gt;Node3 -->
<g id="edge2" class="edge">
<title>Node2&#45;&gt;Node3</title>
<path fill="none" stroke="midnightblue" d="M289.54,-257.56C306.61,-282.18 353,-343.26 409,-369 622.03,-466.9 914.02,-420.15 1032.65,-394.71"/>
<polygon fill="midnightblue" stroke="midnightblue" points="1033.56,-398.1 1042.58,-392.55 1032.06,-391.26 1033.56,-398.1"/>
</g>
<!-- Node5 -->
<g id="node5" class="node">
<title>Node5</title>
<g id="a_node5"><a xlink:href="../../d5/d4b/class_shared_spi_card.html#ab311b9ad8a250f06afbe091f7abb118b" target="_top" xlink:title=" ">
<polygon fill="white" stroke="black" points="1012.5,-235.5 1012.5,-256.5 1161.5,-256.5 1161.5,-235.5 1012.5,-235.5"/>
<text text-anchor="middle" x="1087" y="-242.9" font-family="Helvetica,sans-Serif" font-size="12.00">SharedSpiCard::spiSend</text>
</a>
</g>
</g>
<!-- Node2&#45;&gt;Node5 -->
<g id="edge4" class="edge">
<title>Node2&#45;&gt;Node5</title>
<path fill="none" stroke="midnightblue" d="M343.5,-257.51C463.84,-276.53 740.02,-311.73 969,-278 994.84,-274.19 1023.1,-266.57 1045.37,-259.71"/>
<polygon fill="midnightblue" stroke="midnightblue" points="1046.66,-262.98 1055.15,-256.64 1044.56,-256.3 1046.66,-262.98"/>
</g>
<!-- Node7 -->
<g id="node7" class="node">
<title>Node7</title>
<g id="a_node7"><a xlink:href="../../d5/d4b/class_shared_spi_card.html#aef2dfa72e8d5643c90720f9f8c6a4254" target="_top" xlink:title=" ">
<polygon fill="white" stroke="black" points="418.5,-236.5 418.5,-257.5 564.5,-257.5 564.5,-236.5 418.5,-236.5"/>
<text text-anchor="middle" x="491.5" y="-243.9" font-family="Helvetica,sans-Serif" font-size="12.00">SharedSpiCard::spiStart</text>
</a>
</g>
</g>
<!-- Node2&#45;&gt;Node7 -->
<g id="edge6" class="edge">
<title>Node2&#45;&gt;Node7</title>
<path fill="none" stroke="midnightblue" d="M373.13,-247C384.81,-247 396.73,-247 408.27,-247"/>
<polygon fill="midnightblue" stroke="midnightblue" points="408.29,-250.5 418.29,-247 408.29,-243.5 408.29,-250.5"/>
</g>
<!-- Node12 -->
<g id="node10" class="node">
<title>Node12</title>
<g id="a_node10"><a xlink:href="../../d5/d4b/class_shared_spi_card.html#a2f181b3d6f27413a0f5ee883dfd94d87" target="_top" xlink:title=" ">
<polygon fill="white" stroke="black" points="409,-156.5 409,-177.5 574,-177.5 574,-156.5 409,-156.5"/>
<text text-anchor="middle" x="491.5" y="-163.9" font-family="Helvetica,sans-Serif" font-size="12.00">SharedSpiCard::syncDevice</text>
</a>
</g>
</g>
<!-- Node2&#45;&gt;Node12 -->
<g id="edge10" class="edge">
<title>Node2&#45;&gt;Node12</title>
<path fill="none" stroke="midnightblue" d="M310.12,-236.38C347.05,-222.17 412.63,-196.95 453.71,-181.15"/>
<polygon fill="midnightblue" stroke="midnightblue" points="455.02,-184.4 463.1,-177.54 452.51,-177.86 455.02,-184.4"/>
</g>
<!-- Node20 -->
<g id="node15" class="node">
<title>Node20</title>
<g id="a_node15"><a xlink:href="../../d5/d4b/class_shared_spi_card.html#ab3468397bb3b12d29dd2f31e45b3dcaf" target="_top" xlink:title=" ">
<polygon fill="white" stroke="black" points="809,-352.5 809,-373.5 969,-373.5 969,-352.5 809,-352.5"/>
<text text-anchor="middle" x="889" y="-359.9" font-family="Helvetica,sans-Serif" font-size="12.00">SharedSpiCard::waitReady</text>
</a>
</g>
</g>
<!-- Node2&#45;&gt;Node20 -->
<g id="edge22" class="edge">
<title>Node2&#45;&gt;Node20</title>
<path fill="none" stroke="midnightblue" d="M292.76,-257.68C312.85,-277.76 359.74,-320.69 409,-338 538.56,-383.52 699.98,-380.77 798.44,-373.05"/>
<polygon fill="midnightblue" stroke="midnightblue" points="798.97,-376.51 808.65,-372.21 798.4,-369.54 798.97,-376.51"/>
</g>
<!-- Node4 -->
<g id="node4" class="node">
<title>Node4</title>
<g id="a_node4"><a xlink:href="../../dc/da1/class_sd_spi_arduino_driver.html#a8d6bc852a52e9d69c4b1e48ee062e8d1" target="_top" xlink:title=" ">
<polygon fill="white" stroke="black" points="1205,-365 1205,-399 1327,-399 1327,-365 1205,-365"/>
<text text-anchor="start" x="1213" y="-385.4" font-family="Helvetica,sans-Serif" font-size="12.00">SdSpiArduinoDriver</text>
<text text-anchor="middle" x="1266" y="-372.4" font-family="Helvetica,sans-Serif" font-size="12.00">::receive</text>
</a>
</g>
</g>
<!-- Node3&#45;&gt;Node4 -->
<g id="edge3" class="edge">
<title>Node3&#45;&gt;Node4</title>
<path fill="none" stroke="midnightblue" d="M1169.25,-382C1177.78,-382 1186.39,-382 1194.78,-382"/>
<polygon fill="midnightblue" stroke="midnightblue" points="1194.88,-385.5 1204.88,-382 1194.88,-378.5 1194.88,-385.5"/>
</g>
<!-- Node6 -->
<g id="node6" class="node">
<title>Node6</title>
<g id="a_node6"><a xlink:href="../../dc/da1/class_sd_spi_arduino_driver.html#a3c4842e47f98fe5d3799cd6028778ab5" target="_top" xlink:title=" ">
<polygon fill="white" stroke="black" points="1205,-229 1205,-263 1327,-263 1327,-229 1205,-229"/>
<text text-anchor="start" x="1213" y="-249.4" font-family="Helvetica,sans-Serif" font-size="12.00">SdSpiArduinoDriver</text>
<text text-anchor="middle" x="1266" y="-236.4" font-family="Helvetica,sans-Serif" font-size="12.00">::send</text>
</a>
</g>
</g>
<!-- Node5&#45;&gt;Node6 -->
<g id="edge5" class="edge">
<title>Node5&#45;&gt;Node6</title>
<path fill="none" stroke="midnightblue" d="M1161.53,-246C1172.47,-246 1183.72,-246 1194.6,-246"/>
<polygon fill="midnightblue" stroke="midnightblue" points="1194.88,-249.5 1204.88,-246 1194.88,-242.5 1194.88,-249.5"/>
</g>
<!-- Node7&#45;&gt;Node5 -->
<g id="edge9" class="edge">
<title>Node7&#45;&gt;Node5</title>
<path fill="none" stroke="midnightblue" d="M543.16,-257.54C563.79,-261.34 587.94,-265.14 610,-267 747.19,-278.59 907.19,-266.23 1002.35,-256.17"/>
<polygon fill="midnightblue" stroke="midnightblue" points="1002.92,-259.63 1012.49,-255.08 1002.18,-252.67 1002.92,-259.63"/>
</g>
<!-- Node8 -->
<g id="node8" class="node">
<title>Node8</title>
<g id="a_node8"><a xlink:href="../../d5/d4b/class_shared_spi_card.html#a69ee2fe49dfaeea2347d8a265806d2b6" target="_top" xlink:title=" ">
<polygon fill="white" stroke="red" points="610,-236.5 610,-257.5 773,-257.5 773,-236.5 610,-236.5"/>
<text text-anchor="middle" x="691.5" y="-243.9" font-family="Helvetica,sans-Serif" font-size="12.00">SharedSpiCard::spiActivate</text>
</a>
</g>
</g>
<!-- Node7&#45;&gt;Node8 -->
<g id="edge7" class="edge">
<title>Node7&#45;&gt;Node8</title>
<path fill="none" stroke="midnightblue" d="M564.54,-247C575.92,-247 587.81,-247 599.54,-247"/>
<polygon fill="midnightblue" stroke="midnightblue" points="599.8,-250.5 609.8,-247 599.8,-243.5 599.8,-250.5"/>
</g>
<!-- Node10 -->
<g id="node9" class="node">
<title>Node10</title>
<g id="a_node9"><a xlink:href="../../d5/d4b/class_shared_spi_card.html#a8c3088599862ff6e84ae79bfdf32aea8" target="_top" xlink:title=" ">
<polygon fill="white" stroke="red" points="614.5,-196.5 614.5,-217.5 768.5,-217.5 768.5,-196.5 614.5,-196.5"/>
<text text-anchor="middle" x="691.5" y="-203.9" font-family="Helvetica,sans-Serif" font-size="12.00">SharedSpiCard::spiSelect</text>
</a>
</g>
</g>
<!-- Node7&#45;&gt;Node10 -->
<g id="edge8" class="edge">
<title>Node7&#45;&gt;Node10</title>
<path fill="none" stroke="midnightblue" d="M544.52,-236.49C570.23,-231.3 601.43,-224.99 628.38,-219.55"/>
<polygon fill="midnightblue" stroke="midnightblue" points="629.37,-222.92 638.48,-217.51 627.99,-216.06 629.37,-222.92"/>
</g>
<!-- Node13 -->
<g id="node11" class="node">
<title>Node13</title>
<g id="a_node11"><a xlink:href="../../d5/d4b/class_shared_spi_card.html#ab33ad2aefbb9cff905cad0879dffc78b" target="_top" xlink:title=" ">
<polygon fill="white" stroke="black" points="614.5,-116.5 614.5,-137.5 768.5,-137.5 768.5,-116.5 614.5,-116.5"/>
<text text-anchor="middle" x="691.5" y="-123.9" font-family="Helvetica,sans-Serif" font-size="12.00">SharedSpiCard::readStop</text>
</a>
</g>
</g>
<!-- Node12&#45;&gt;Node13 -->
<g id="edge11" class="edge">
<title>Node12&#45;&gt;Node13</title>
<path fill="none" stroke="midnightblue" d="M544.52,-156.49C570.23,-151.3 601.43,-144.99 628.38,-139.55"/>
<polygon fill="midnightblue" stroke="midnightblue" points="629.37,-142.92 638.48,-137.51 627.99,-136.06 629.37,-142.92"/>
</g>
<!-- Node19 -->
<g id="node14" class="node">
<title>Node19</title>
<g id="a_node14"><a xlink:href="../../d5/d4b/class_shared_spi_card.html#ae9a34a573077e43e7c6028a16ae77fb3" target="_top" xlink:title=" ">
<polygon fill="white" stroke="black" points="614,-156.5 614,-177.5 769,-177.5 769,-156.5 614,-156.5"/>
<text text-anchor="middle" x="691.5" y="-163.9" font-family="Helvetica,sans-Serif" font-size="12.00">SharedSpiCard::writeStop</text>
</a>
</g>
</g>
<!-- Node12&#45;&gt;Node19 -->
<g id="edge16" class="edge">
<title>Node12&#45;&gt;Node19</title>
<path fill="none" stroke="midnightblue" d="M574.18,-167C583.9,-167 593.86,-167 603.65,-167"/>
<polygon fill="midnightblue" stroke="midnightblue" points="603.78,-170.5 613.78,-167 603.78,-163.5 603.78,-170.5"/>
</g>
<!-- Node13&#45;&gt;Node2 -->
<g id="edge12" class="edge">
<title>Node13&#45;&gt;Node2</title>
<path fill="none" stroke="midnightblue" d="M614.38,-120.51C556.19,-118.33 475.01,-121.4 409,-147 363.24,-164.75 320.82,-205.09 298.64,-228.75"/>
<polygon fill="midnightblue" stroke="midnightblue" points="295.84,-226.63 291.66,-236.36 301,-231.36 295.84,-226.63"/>
</g>
<!-- Node13&#45;&gt;Node14 -->
<g id="edge13" class="edge">
<title>Node13&#45;&gt;Node14</title>
<path fill="none" stroke="midnightblue" d="M743.87,-137.51C769.25,-142.7 800.06,-149.01 826.67,-154.45"/>
<polygon fill="midnightblue" stroke="midnightblue" points="826.14,-157.92 836.64,-156.49 827.54,-151.06 826.14,-157.92"/>
</g>
<!-- Node13&#45;&gt;Node15 -->
<g id="edge14" class="edge">
<title>Node13&#45;&gt;Node15</title>
<path fill="none" stroke="midnightblue" d="M768.65,-127C780.79,-127 793.4,-127 805.68,-127"/>
<polygon fill="midnightblue" stroke="midnightblue" points="805.9,-130.5 815.9,-127 805.9,-123.5 805.9,-130.5"/>
</g>
<!-- Node15&#45;&gt;Node5 -->
<g id="edge15" class="edge">
<title>Node15&#45;&gt;Node5</title>
<path fill="none" stroke="midnightblue" d="M945.16,-137.52C953.38,-140.06 961.58,-143.18 969,-147 1009.67,-167.92 1048.47,-205.38 1069.58,-227.74"/>
<polygon fill="midnightblue" stroke="midnightblue" points="1067.16,-230.28 1076.53,-235.23 1072.3,-225.52 1067.16,-230.28"/>
</g>
<!-- Node19&#45;&gt;Node5 -->
<g id="edge18" class="edge">
<title>Node19&#45;&gt;Node5</title>
<path fill="none" stroke="midnightblue" d="M745.16,-177.57C817.31,-192.06 946.7,-218.03 1023.62,-233.48"/>
<polygon fill="midnightblue" stroke="midnightblue" points="1023.16,-236.95 1033.65,-235.49 1024.54,-230.09 1023.16,-236.95"/>
</g>
<!-- Node19&#45;&gt;Node14 -->
<g id="edge17" class="edge">
<title>Node19&#45;&gt;Node14</title>
<path fill="none" stroke="midnightblue" d="M769.21,-167C783.75,-167 798.95,-167 813.43,-167"/>
<polygon fill="midnightblue" stroke="midnightblue" points="813.83,-170.5 823.83,-167 813.83,-163.5 813.83,-170.5"/>
</g>
<!-- Node19&#45;&gt;Node15 -->
<g id="edge19" class="edge">
<title>Node19&#45;&gt;Node15</title>
<path fill="none" stroke="midnightblue" d="M743.87,-156.49C769.25,-151.3 800.06,-144.99 826.67,-139.55"/>
<polygon fill="midnightblue" stroke="midnightblue" points="827.54,-142.94 836.64,-137.51 826.14,-136.08 827.54,-142.94"/>
</g>
<!-- Node19&#45;&gt;Node20 -->
<g id="edge20" class="edge">
<title>Node19&#45;&gt;Node20</title>
<path fill="none" stroke="midnightblue" d="M755.24,-177.55C761.54,-180.06 767.6,-183.16 773,-187 776.78,-189.68 846.91,-298.84 875.76,-343.88"/>
<polygon fill="midnightblue" stroke="midnightblue" points="872.91,-345.92 881.25,-352.45 878.81,-342.14 872.91,-345.92"/>
</g>
<!-- Node20&#45;&gt;Node3 -->
<g id="edge21" class="edge">
<title>Node20&#45;&gt;Node3</title>
<path fill="none" stroke="midnightblue" d="M969.16,-370.67C977.63,-371.49 986.3,-372.34 994.9,-373.17"/>
<polygon fill="midnightblue" stroke="midnightblue" points="994.66,-376.66 1004.95,-374.14 995.34,-369.69 994.66,-376.66"/>
</g>
</g>
</svg>
