<?xml version="1.0" encoding="UTF-8" standalone="no"?>
<!DOCTYPE svg PUBLIC "-//W3C//DTD SVG 1.1//EN"
 "http://www.w3.org/Graphics/SVG/1.1/DTD/svg11.dtd">
<!-- Generated by graphviz version 2.47.3 (20210619.1520)
 -->
<!-- Title: SharedSpiCard::writeStop Pages: 1 -->
<svg width="730pt" height="207pt"
 viewBox="0.00 0.00 730.00 206.50" xmlns="http://www.w3.org/2000/svg" xmlns:xlink="http://www.w3.org/1999/xlink">
<g id="graph0" class="graph" transform="scale(1 1) rotate(0) translate(4 202.5)">
<title>SharedSpiCard::writeStop</title>
<polygon fill="white" stroke="transparent" points="-4,4 -4,-202.5 726,-202.5 726,4 -4,4"/>
<!-- Node1 -->
<g id="node1" class="node">
<title>Node1</title>
<g id="a_node1"><a xlink:title=" ">
<polygon fill="#bfbfbf" stroke="black" points="0,-118 0,-139 155,-139 155,-118 0,-118"/>
<text text-anchor="middle" x="77.5" y="-125.4" font-family="Helvetica,sans-Serif" font-size="12.00">SharedSpiCard::writeStop</text>
</a>
</g>
</g>
<!-- Node2 -->
<g id="node2" class="node">
<title>Node2</title>
<g id="a_node2"><a xlink:href="../../d5/d4b/class_shared_spi_card.html#a747c3f0b962098cf0c097f3c4c2b4fd4" target="_top" xlink:title=" ">
<polygon fill="white" stroke="black" points="206,-177 206,-198 336,-198 336,-177 206,-177"/>
<text text-anchor="middle" x="271" y="-184.4" font-family="Helvetica,sans-Serif" font-size="12.00">SharedSpiCard::error</text>
</a>
</g>
</g>
<!-- Node1&#45;&gt;Node2 -->
<g id="edge1" class="edge">
<title>Node1&#45;&gt;Node2</title>
<path fill="none" stroke="midnightblue" d="M112.74,-139.05C144.36,-148.79 191.52,-163.32 225.94,-173.93"/>
<polygon fill="midnightblue" stroke="midnightblue" points="225.15,-177.34 235.74,-176.94 227.21,-170.65 225.15,-177.34"/>
</g>
<!-- Node3 -->
<g id="node3" class="node">
<title>Node3</title>
<g id="a_node3"><a xlink:href="../../d5/d4b/class_shared_spi_card.html#ab311b9ad8a250f06afbe091f7abb118b" target="_top" xlink:title=" ">
<polygon fill="white" stroke="black" points="401,-139 401,-160 550,-160 550,-139 401,-139"/>
<text text-anchor="middle" x="475.5" y="-146.4" font-family="Helvetica,sans-Serif" font-size="12.00">SharedSpiCard::spiSend</text>
</a>
</g>
</g>
<!-- Node1&#45;&gt;Node3 -->
<g id="edge2" class="edge">
<title>Node1&#45;&gt;Node3</title>
<path fill="none" stroke="midnightblue" d="M155.32,-132.57C222.96,-136.16 321.25,-141.37 390.85,-145.06"/>
<polygon fill="midnightblue" stroke="midnightblue" points="390.73,-148.56 400.9,-145.6 391.1,-141.57 390.73,-148.56"/>
</g>
<!-- Node5 -->
<g id="node5" class="node">
<title>Node5</title>
<g id="a_node5"><a xlink:href="../../d5/d4b/class_shared_spi_card.html#a0f511c39c50055a4fc97e720933aee3a" target="_top" xlink:title=" ">
<polygon fill="white" stroke="black" points="198,-99 198,-120 344,-120 344,-99 198,-99"/>
<text text-anchor="middle" x="271" y="-106.4" font-family="Helvetica,sans-Serif" font-size="12.00">SharedSpiCard::spiStop</text>
</a>
</g>
</g>
<!-- Node1&#45;&gt;Node5 -->
<g id="edge4" class="edge">
<title>Node1&#45;&gt;Node5</title>
<path fill="none" stroke="midnightblue" d="M155.01,-120.91C165.86,-119.83 177.05,-118.72 188,-117.64"/>
<polygon fill="midnightblue" stroke="midnightblue" points="188.36,-121.12 197.96,-116.65 187.67,-114.15 188.36,-121.12"/>
</g>
<!-- Node10 -->
<g id="node10" class="node">
<title>Node10</title>
<g id="a_node10"><a xlink:href="../../d5/d4b/class_shared_spi_card.html#ab3468397bb3b12d29dd2f31e45b3dcaf" target="_top" xlink:title=" ">
<polygon fill="white" stroke="black" points="191,-39 191,-60 351,-60 351,-39 191,-39"/>
<text text-anchor="middle" x="271" y="-46.4" font-family="Helvetica,sans-Serif" font-size="12.00">SharedSpiCard::waitReady</text>
</a>
</g>
</g>
<!-- Node1&#45;&gt;Node10 -->
<g id="edge10" class="edge">
<title>Node1&#45;&gt;Node10</title>
<path fill="none" stroke="midnightblue" d="M104.33,-117.85C137.97,-103.97 196.94,-79.64 234.7,-64.06"/>
<polygon fill="midnightblue" stroke="midnightblue" points="236.37,-67.16 244.28,-60.11 233.7,-60.69 236.37,-67.16"/>
</g>
<!-- Node4 -->
<g id="node4" class="node">
<title>Node4</title>
<g id="a_node4"><a xlink:href="../../dc/da1/class_sd_spi_arduino_driver.html#a3c4842e47f98fe5d3799cd6028778ab5" target="_top" xlink:title=" ">
<polygon fill="white" stroke="black" points="600,-147.5 600,-181.5 722,-181.5 722,-147.5 600,-147.5"/>
<text text-anchor="start" x="608" y="-167.9" font-family="Helvetica,sans-Serif" font-size="12.00">SdSpiArduinoDriver</text>
<text text-anchor="middle" x="661" y="-154.9" font-family="Helvetica,sans-Serif" font-size="12.00">::send</text>
</a>
</g>
</g>
<!-- Node3&#45;&gt;Node4 -->
<g id="edge3" class="edge">
<title>Node3&#45;&gt;Node4</title>
<path fill="none" stroke="midnightblue" d="M550.08,-155.51C563.14,-156.58 576.71,-157.69 589.68,-158.75"/>
<polygon fill="midnightblue" stroke="midnightblue" points="589.68,-162.26 599.93,-159.59 590.25,-155.29 589.68,-162.26"/>
</g>
<!-- Node5&#45;&gt;Node3 -->
<g id="edge7" class="edge">
<title>Node5&#45;&gt;Node3</title>
<path fill="none" stroke="midnightblue" d="M325.2,-120.01C351.61,-125.23 383.69,-131.56 411.33,-137.02"/>
<polygon fill="midnightblue" stroke="midnightblue" points="410.81,-140.49 421.3,-138.99 412.17,-133.62 410.81,-140.49"/>
</g>
<!-- Node6 -->
<g id="node6" class="node">
<title>Node6</title>
<g id="a_node6"><a xlink:href="../../d5/d4b/class_shared_spi_card.html#ac6acfca5a23337977d2e4436ab8ab39a" target="_top" xlink:title=" ">
<polygon fill="white" stroke="black" points="387,-99 387,-120 564,-120 564,-99 387,-99"/>
<text text-anchor="middle" x="475.5" y="-106.4" font-family="Helvetica,sans-Serif" font-size="12.00">SharedSpiCard::spiDeactivate</text>
</a>
</g>
</g>
<!-- Node5&#45;&gt;Node6 -->
<g id="edge5" class="edge">
<title>Node5&#45;&gt;Node6</title>
<path fill="none" stroke="midnightblue" d="M344.25,-109.5C354.77,-109.5 365.75,-109.5 376.68,-109.5"/>
<polygon fill="midnightblue" stroke="midnightblue" points="376.68,-113 386.68,-109.5 376.68,-106 376.68,-113"/>
</g>
<!-- Node8 -->
<g id="node8" class="node">
<title>Node8</title>
<g id="a_node8"><a xlink:href="../../d5/d4b/class_shared_spi_card.html#ad06a3278372300987b97876cf598c114" target="_top" xlink:title=" ">
<polygon fill="white" stroke="black" points="392.5,-56 392.5,-77 558.5,-77 558.5,-56 392.5,-56"/>
<text text-anchor="middle" x="475.5" y="-63.4" font-family="Helvetica,sans-Serif" font-size="12.00">SharedSpiCard::spiUnselect</text>
</a>
</g>
</g>
<!-- Node5&#45;&gt;Node8 -->
<g id="edge8" class="edge">
<title>Node5&#45;&gt;Node8</title>
<path fill="none" stroke="midnightblue" d="M321.54,-98.98C349.73,-92.99 385.24,-85.45 414.94,-79.15"/>
<polygon fill="midnightblue" stroke="midnightblue" points="415.72,-82.56 424.77,-77.06 414.26,-75.71 415.72,-82.56"/>
</g>
<!-- Node7 -->
<g id="node7" class="node">
<title>Node7</title>
<g id="a_node7"><a xlink:href="../../dc/da1/class_sd_spi_arduino_driver.html#ae88a255f533e3acb41d1221025a69b55" target="_top" xlink:title=" ">
<polygon fill="white" stroke="black" points="600,-94.5 600,-128.5 722,-128.5 722,-94.5 600,-94.5"/>
<text text-anchor="start" x="608" y="-114.9" font-family="Helvetica,sans-Serif" font-size="12.00">SdSpiArduinoDriver</text>
<text text-anchor="middle" x="661" y="-101.9" font-family="Helvetica,sans-Serif" font-size="12.00">::deactivate</text>
</a>
</g>
</g>
<!-- Node6&#45;&gt;Node7 -->
<g id="edge6" class="edge">
<title>Node6&#45;&gt;Node7</title>
<path fill="none" stroke="midnightblue" d="M564.22,-110.46C572.8,-110.55 581.43,-110.64 589.8,-110.73"/>
<polygon fill="midnightblue" stroke="midnightblue" points="589.84,-114.24 599.87,-110.84 589.91,-107.24 589.84,-114.24"/>
</g>
<!-- Node9 -->
<g id="node9" class="node">
<title>Node9</title>
<g id="a_node9"><a xlink:href="../../d1/d6a/_sd_spi_driver_8h.html#ac469bbe2d31ffde9b00ffc68258d7428" target="_top" xlink:title=" ">
<polygon fill="white" stroke="black" points="625,-54 625,-75 697,-75 697,-54 625,-54"/>
<text text-anchor="middle" x="661" y="-61.4" font-family="Helvetica,sans-Serif" font-size="12.00">sdCsWrite</text>
</a>
</g>
</g>
<!-- Node8&#45;&gt;Node9 -->
<g id="edge9" class="edge">
<title>Node8&#45;&gt;Node9</title>
<path fill="none" stroke="midnightblue" d="M558.59,-65.61C577.87,-65.4 597.73,-65.18 614.7,-64.99"/>
<polygon fill="midnightblue" stroke="midnightblue" points="614.91,-68.49 624.87,-64.88 614.83,-61.49 614.91,-68.49"/>
</g>
<!-- Node11 -->
<g id="node11" class="node">
<title>Node11</title>
<g id="a_node11"><a xlink:href="../../d5/d4b/class_shared_spi_card.html#a08363209d938db87521cca6a84146041" target="_top" xlink:title=" ">
<polygon fill="white" stroke="black" points="393.5,-13 393.5,-34 557.5,-34 557.5,-13 393.5,-13"/>
<text text-anchor="middle" x="475.5" y="-20.4" font-family="Helvetica,sans-Serif" font-size="12.00">SharedSpiCard::spiReceive</text>
</a>
</g>
</g>
<!-- Node10&#45;&gt;Node11 -->
<g id="edge11" class="edge">
<title>Node10&#45;&gt;Node11</title>
<path fill="none" stroke="midnightblue" d="M351.16,-39.34C361.67,-37.99 372.51,-36.59 383.2,-35.22"/>
<polygon fill="midnightblue" stroke="midnightblue" points="383.92,-38.66 393.39,-33.91 383.03,-31.72 383.92,-38.66"/>
</g>
<!-- Node12 -->
<g id="node12" class="node">
<title>Node12</title>
<g id="a_node12"><a xlink:href="../../dc/da1/class_sd_spi_arduino_driver.html#a8d6bc852a52e9d69c4b1e48ee062e8d1" target="_top" xlink:title=" ">
<polygon fill="white" stroke="black" points="600,-0.5 600,-34.5 722,-34.5 722,-0.5 600,-0.5"/>
<text text-anchor="start" x="608" y="-20.9" font-family="Helvetica,sans-Serif" font-size="12.00">SdSpiArduinoDriver</text>
<text text-anchor="middle" x="661" y="-7.9" font-family="Helvetica,sans-Serif" font-size="12.00">::receive</text>
</a>
</g>
</g>
<!-- Node11&#45;&gt;Node12 -->
<g id="edge12" class="edge">
<title>Node11&#45;&gt;Node12</title>
<path fill="none" stroke="midnightblue" d="M557.52,-20.85C568.18,-20.5 579.03,-20.15 589.49,-19.81"/>
<polygon fill="midnightblue" stroke="midnightblue" points="589.92,-23.29 599.8,-19.47 589.7,-16.3 589.92,-23.29"/>
</g>
</g>
</svg>
