<?xml version="1.0" encoding="UTF-8" standalone="no"?>
<!DOCTYPE svg PUBLIC "-//W3C//DTD SVG 1.1//EN"
 "http://www.w3.org/Graphics/SVG/1.1/DTD/svg11.dtd">
<!-- Generated by graphviz version 2.47.3 (20210619.1520)
 -->
<!-- Title: D:/brian/Dev/Eris/ERISCore/lib/SdFat&#45;master/src/common/DebugMacros.h Pages: 1 -->
<!--zoomable 140 -->
<svg id="main" version="1.1" xmlns="http://www.w3.org/2000/svg" xmlns:xlink="http://www.w3.org/1999/xlink" xml:space="preserve" onload="init(evt)">
<style type="text/css"><![CDATA[
.edge:hover path { stroke: red; }
.edge:hover polygon { stroke: red; fill: red; }
]]></style>
<script type="text/javascript"><![CDATA[
var edges = document.getElementsByTagName('g');
if (edges && edges.length) {
  for (var i=0;i<edges.length;i++) {
    if (edges[i].id.substr(0,4)=='edge') {
      edges[i].setAttribute('class','edge');
    }
  }
}
]]></script>
        <defs>
                <circle id="rim" cx="0" cy="0" r="7"/>
                <circle id="rim2" cx="0" cy="0" r="3.5"/>
                <g id="zoomPlus">
                        <use xlink:href="#rim" fill="#404040">
                                <set attributeName="fill" to="#808080" begin="zoomplus.mouseover" end="zoomplus.mouseout"/>
                        </use>
                        <path d="M-4,0h8M0,-4v8" fill="none" stroke="white" stroke-width="1.5" pointer-events="none"/>
                </g>
                <g id="zoomMin">
                        <use xlink:href="#rim" fill="#404040">
                                <set attributeName="fill" to="#808080" begin="zoomminus.mouseover" end="zoomminus.mouseout"/>
                        </use>
                        <path d="M-4,0h8" fill="none" stroke="white" stroke-width="1.5" pointer-events="none"/>
                </g>
                <g id="dirArrow">
                        <path fill="none" stroke="white" stroke-width="1.5" d="M0,-3.0v7 M-2.5,-0.5L0,-3.0L2.5,-0.5"/>
                </g>
               <g id="resetDef">
                       <use xlink:href="#rim2" fill="#404040">
                               <set attributeName="fill" to="#808080" begin="reset.mouseover" end="reset.mouseout"/>
                       </use>
               </g>
        </defs>

<script type="text/javascript">
var viewWidth = 2800;
var viewHeight = 140;
var sectionId = 'dynsection-1';
</script>
<script xlink:href="../../svgpan.js"/>
<svg id="graph" class="graph">
<g id="viewport">
<title>D:/brian/Dev/Eris/ERISCore/lib/SdFat&#45;master/src/common/DebugMacros.h</title>
<polygon fill="white" stroke="transparent" points="-4,4 -4,-136 2795.5,-136 2795.5,4 -4,4"/>
<!-- Node1 -->
<g id="node1" class="node">
<title>Node1</title>
<g id="a_node1"><a xlink:title=" ">
<polygon fill="#bfbfbf" stroke="black" points="1357,-84.5 1357,-131.5 1530,-131.5 1530,-84.5 1357,-84.5"/>
<text text-anchor="start" x="1365" y="-117.9" font-family="Helvetica,sans-Serif" font-size="12.00">D:/brian/Dev/Eris/ERISCore</text>
<text text-anchor="start" x="1365" y="-104.9" font-family="Helvetica,sans-Serif" font-size="12.00">/lib/SdFat&#45;master/src/common</text>
<text text-anchor="middle" x="1443.5" y="-91.9" font-family="Helvetica,sans-Serif" font-size="12.00">/DebugMacros.h</text>
</a>
</g>
</g>
<!-- Node2 -->
<g id="node2" class="node">
<title>Node2</title>
<g id="a_node2"><a xlink:href="../../d0/d75/_fs_cache_8cpp.html" target="_top" xlink:title=" ">
<polygon fill="white" stroke="black" points="0,-0.5 0,-47.5 173,-47.5 173,-0.5 0,-0.5"/>
<text text-anchor="start" x="8" y="-33.9" font-family="Helvetica,sans-Serif" font-size="12.00">D:/brian/Dev/Eris/ERISCore</text>
<text text-anchor="start" x="8" y="-20.9" font-family="Helvetica,sans-Serif" font-size="12.00">/lib/SdFat&#45;master/src/common</text>
<text text-anchor="middle" x="86.5" y="-7.9" font-family="Helvetica,sans-Serif" font-size="12.00">/FsCache.cpp</text>
</a>
</g>
</g>
<!-- Node1&#45;&gt;Node2 -->
<g id="edge1" class="edge">
<title>Node1&#45;&gt;Node2</title>
<path fill="none" stroke="midnightblue" d="M1346.38,-104.82C1091.35,-98.73 406.82,-79.83 182.5,-48 179.45,-47.57 176.35,-47.08 173.22,-46.55"/>
<polygon fill="midnightblue" stroke="midnightblue" points="1346.66,-108.33 1356.74,-105.07 1346.83,-101.33 1346.66,-108.33"/>
</g>
<!-- Node3 -->
<g id="node3" class="node">
<title>Node3</title>
<g id="a_node3"><a xlink:href="../../d4/d74/_ex_fat_file_8cpp.html" target="_top" xlink:title=" ">
<polygon fill="white" stroke="black" points="191.5,-0.5 191.5,-47.5 367.5,-47.5 367.5,-0.5 191.5,-0.5"/>
<text text-anchor="start" x="199.5" y="-33.9" font-family="Helvetica,sans-Serif" font-size="12.00">D:/brian/Dev/Eris/ERISCore</text>
<text text-anchor="start" x="199.5" y="-20.9" font-family="Helvetica,sans-Serif" font-size="12.00">/lib/SdFat&#45;master/src/ExFatLib</text>
<text text-anchor="middle" x="279.5" y="-7.9" font-family="Helvetica,sans-Serif" font-size="12.00">/ExFatFile.cpp</text>
</a>
</g>
</g>
<!-- Node1&#45;&gt;Node3 -->
<g id="edge2" class="edge">
<title>Node1&#45;&gt;Node3</title>
<path fill="none" stroke="midnightblue" d="M1346.76,-107.38C1158.77,-106.85 731.44,-99.48 376.5,-48 373.59,-47.58 370.64,-47.11 367.66,-46.6"/>
<polygon fill="midnightblue" stroke="midnightblue" points="1346.88,-110.88 1356.89,-107.4 1346.9,-103.88 1346.88,-110.88"/>
</g>
<!-- Node4 -->
<g id="node4" class="node">
<title>Node4</title>
<g id="a_node4"><a xlink:href="../../d3/d2b/_ex_fat_file_print_8cpp.html" target="_top" xlink:title=" ">
<polygon fill="white" stroke="black" points="385.5,-0.5 385.5,-47.5 561.5,-47.5 561.5,-0.5 385.5,-0.5"/>
<text text-anchor="start" x="393.5" y="-33.9" font-family="Helvetica,sans-Serif" font-size="12.00">D:/brian/Dev/Eris/ERISCore</text>
<text text-anchor="start" x="393.5" y="-20.9" font-family="Helvetica,sans-Serif" font-size="12.00">/lib/SdFat&#45;master/src/ExFatLib</text>
<text text-anchor="middle" x="473.5" y="-7.9" font-family="Helvetica,sans-Serif" font-size="12.00">/ExFatFilePrint.cpp</text>
</a>
</g>
</g>
<!-- Node1&#45;&gt;Node4 -->
<g id="edge3" class="edge">
<title>Node1&#45;&gt;Node4</title>
<path fill="none" stroke="midnightblue" d="M1346.47,-105.67C1184.72,-102.28 850.11,-90.3 570.5,-48 567.59,-47.56 564.64,-47.08 561.67,-46.56"/>
<polygon fill="midnightblue" stroke="midnightblue" points="1346.8,-109.17 1356.87,-105.88 1346.94,-102.18 1346.8,-109.17"/>
</g>
<!-- Node5 -->
<g id="node5" class="node">
<title>Node5</title>
<g id="a_node5"><a xlink:href="../../db/d4e/_ex_fat_file_write_8cpp.html" target="_top" xlink:title=" ">
<polygon fill="white" stroke="black" points="579.5,-0.5 579.5,-47.5 755.5,-47.5 755.5,-0.5 579.5,-0.5"/>
<text text-anchor="start" x="587.5" y="-33.9" font-family="Helvetica,sans-Serif" font-size="12.00">D:/brian/Dev/Eris/ERISCore</text>
<text text-anchor="start" x="587.5" y="-20.9" font-family="Helvetica,sans-Serif" font-size="12.00">/lib/SdFat&#45;master/src/ExFatLib</text>
<text text-anchor="middle" x="667.5" y="-7.9" font-family="Helvetica,sans-Serif" font-size="12.00">/ExFatFileWrite.cpp</text>
</a>
</g>
</g>
<!-- Node1&#45;&gt;Node5 -->
<g id="edge4" class="edge">
<title>Node1&#45;&gt;Node5</title>
<path fill="none" stroke="midnightblue" d="M1346.89,-103.05C1214.72,-96.64 970.43,-81.18 764.5,-48 761.6,-47.53 758.65,-47.02 755.68,-46.49"/>
<polygon fill="midnightblue" stroke="midnightblue" points="1346.83,-106.55 1356.99,-103.53 1347.17,-99.56 1346.83,-106.55"/>
</g>
<!-- Node6 -->
<g id="node6" class="node">
<title>Node6</title>
<g id="a_node6"><a xlink:href="../../d6/dac/_ex_fat_formatter_8cpp.html" target="_top" xlink:title=" ">
<polygon fill="white" stroke="black" points="773.5,-0.5 773.5,-47.5 949.5,-47.5 949.5,-0.5 773.5,-0.5"/>
<text text-anchor="start" x="781.5" y="-33.9" font-family="Helvetica,sans-Serif" font-size="12.00">D:/brian/Dev/Eris/ERISCore</text>
<text text-anchor="start" x="781.5" y="-20.9" font-family="Helvetica,sans-Serif" font-size="12.00">/lib/SdFat&#45;master/src/ExFatLib</text>
<text text-anchor="middle" x="861.5" y="-7.9" font-family="Helvetica,sans-Serif" font-size="12.00">/ExFatFormatter.cpp</text>
</a>
</g>
</g>
<!-- Node1&#45;&gt;Node6 -->
<g id="edge5" class="edge">
<title>Node1&#45;&gt;Node6</title>
<path fill="none" stroke="midnightblue" d="M1346.56,-98.42C1248.32,-88.98 1092.17,-71.9 958.5,-48 955.6,-47.48 952.66,-46.93 949.7,-46.36"/>
<polygon fill="midnightblue" stroke="midnightblue" points="1346.48,-101.93 1356.77,-99.4 1347.15,-94.96 1346.48,-101.93"/>
</g>
<!-- Node7 -->
<g id="node7" class="node">
<title>Node7</title>
<g id="a_node7"><a xlink:href="../../d8/d04/_ex_fat_name_8cpp.html" target="_top" xlink:title=" ">
<polygon fill="white" stroke="black" points="967.5,-0.5 967.5,-47.5 1143.5,-47.5 1143.5,-0.5 967.5,-0.5"/>
<text text-anchor="start" x="975.5" y="-33.9" font-family="Helvetica,sans-Serif" font-size="12.00">D:/brian/Dev/Eris/ERISCore</text>
<text text-anchor="start" x="975.5" y="-20.9" font-family="Helvetica,sans-Serif" font-size="12.00">/lib/SdFat&#45;master/src/ExFatLib</text>
<text text-anchor="middle" x="1055.5" y="-7.9" font-family="Helvetica,sans-Serif" font-size="12.00">/ExFatName.cpp</text>
</a>
</g>
</g>
<!-- Node1&#45;&gt;Node7 -->
<g id="edge6" class="edge">
<title>Node1&#45;&gt;Node7</title>
<path fill="none" stroke="midnightblue" d="M1346.73,-88.2C1290.03,-76.99 1217.09,-62.2 1152.5,-48 1149.63,-47.37 1146.71,-46.72 1143.76,-46.06"/>
<polygon fill="midnightblue" stroke="midnightblue" points="1346.27,-91.68 1356.76,-90.19 1347.63,-84.81 1346.27,-91.68"/>
</g>
<!-- Node8 -->
<g id="node8" class="node">
<title>Node8</title>
<g id="a_node8"><a xlink:href="../../d2/df9/_ex_fat_partition_8cpp.html" target="_top" xlink:title=" ">
<polygon fill="white" stroke="black" points="1161.5,-0.5 1161.5,-47.5 1337.5,-47.5 1337.5,-0.5 1161.5,-0.5"/>
<text text-anchor="start" x="1169.5" y="-33.9" font-family="Helvetica,sans-Serif" font-size="12.00">D:/brian/Dev/Eris/ERISCore</text>
<text text-anchor="start" x="1169.5" y="-20.9" font-family="Helvetica,sans-Serif" font-size="12.00">/lib/SdFat&#45;master/src/ExFatLib</text>
<text text-anchor="middle" x="1249.5" y="-7.9" font-family="Helvetica,sans-Serif" font-size="12.00">/ExFatPartition.cpp</text>
</a>
</g>
</g>
<!-- Node1&#45;&gt;Node8 -->
<g id="edge7" class="edge">
<title>Node1&#45;&gt;Node8</title>
<path fill="none" stroke="midnightblue" d="M1380.8,-80.5C1355.7,-69.89 1327.08,-57.79 1302.99,-47.61"/>
<polygon fill="midnightblue" stroke="midnightblue" points="1379.66,-83.82 1390.23,-84.48 1382.38,-77.37 1379.66,-83.82"/>
</g>
<!-- Node9 -->
<g id="node9" class="node">
<title>Node9</title>
<g id="a_node9"><a xlink:href="../../dc/d94/_ex_fat_volume_8cpp.html" target="_top" xlink:title=" ">
<polygon fill="white" stroke="black" points="1355.5,-0.5 1355.5,-47.5 1531.5,-47.5 1531.5,-0.5 1355.5,-0.5"/>
<text text-anchor="start" x="1363.5" y="-33.9" font-family="Helvetica,sans-Serif" font-size="12.00">D:/brian/Dev/Eris/ERISCore</text>
<text text-anchor="start" x="1363.5" y="-20.9" font-family="Helvetica,sans-Serif" font-size="12.00">/lib/SdFat&#45;master/src/ExFatLib</text>
<text text-anchor="middle" x="1443.5" y="-7.9" font-family="Helvetica,sans-Serif" font-size="12.00">/ExFatVolume.cpp</text>
</a>
</g>
</g>
<!-- Node1&#45;&gt;Node9 -->
<g id="edge8" class="edge">
<title>Node1&#45;&gt;Node9</title>
<path fill="none" stroke="midnightblue" d="M1443.5,-74.11C1443.5,-65.26 1443.5,-55.88 1443.5,-47.72"/>
<polygon fill="midnightblue" stroke="midnightblue" points="1440,-74.16 1443.5,-84.16 1447,-74.16 1440,-74.16"/>
</g>
<!-- Node10 -->
<g id="node10" class="node">
<title>Node10</title>
<g id="a_node10"><a xlink:href="../../d2/dcc/_fat_file_8cpp.html" target="_top" xlink:title=" ">
<polygon fill="white" stroke="black" points="1549.5,-0.5 1549.5,-47.5 1711.5,-47.5 1711.5,-0.5 1549.5,-0.5"/>
<text text-anchor="start" x="1557.5" y="-33.9" font-family="Helvetica,sans-Serif" font-size="12.00">D:/brian/Dev/Eris/ERISCore</text>
<text text-anchor="start" x="1557.5" y="-20.9" font-family="Helvetica,sans-Serif" font-size="12.00">/lib/SdFat&#45;master/src/FatLib</text>
<text text-anchor="middle" x="1630.5" y="-7.9" font-family="Helvetica,sans-Serif" font-size="12.00">/FatFile.cpp</text>
</a>
</g>
</g>
<!-- Node1&#45;&gt;Node10 -->
<g id="edge9" class="edge">
<title>Node1&#45;&gt;Node10</title>
<path fill="none" stroke="midnightblue" d="M1504.5,-80.25C1528.6,-69.68 1556,-57.67 1579.07,-47.55"/>
<polygon fill="midnightblue" stroke="midnightblue" points="1502.85,-77.15 1495.09,-84.38 1505.66,-83.57 1502.85,-77.15"/>
</g>
<!-- Node11 -->
<g id="node11" class="node">
<title>Node11</title>
<g id="a_node11"><a xlink:href="../../d6/d63/_fat_file_l_f_n_8cpp.html" target="_top" xlink:title=" ">
<polygon fill="white" stroke="black" points="1729.5,-0.5 1729.5,-47.5 1891.5,-47.5 1891.5,-0.5 1729.5,-0.5"/>
<text text-anchor="start" x="1737.5" y="-33.9" font-family="Helvetica,sans-Serif" font-size="12.00">D:/brian/Dev/Eris/ERISCore</text>
<text text-anchor="start" x="1737.5" y="-20.9" font-family="Helvetica,sans-Serif" font-size="12.00">/lib/SdFat&#45;master/src/FatLib</text>
<text text-anchor="middle" x="1810.5" y="-7.9" font-family="Helvetica,sans-Serif" font-size="12.00">/FatFileLFN.cpp</text>
</a>
</g>
</g>
<!-- Node1&#45;&gt;Node11 -->
<g id="edge10" class="edge">
<title>Node1&#45;&gt;Node11</title>
<path fill="none" stroke="midnightblue" d="M1539.89,-87.46C1593.24,-76.4 1660.67,-62.01 1720.5,-48 1723.33,-47.34 1726.2,-46.66 1729.1,-45.96"/>
<polygon fill="midnightblue" stroke="midnightblue" points="1539.19,-84.04 1530.1,-89.49 1540.6,-90.89 1539.19,-84.04"/>
</g>
<!-- Node12 -->
<g id="node12" class="node">
<title>Node12</title>
<g id="a_node12"><a xlink:href="../../db/d91/_fat_file_print_8cpp.html" target="_top" xlink:title=" ">
<polygon fill="white" stroke="black" points="1909.5,-0.5 1909.5,-47.5 2071.5,-47.5 2071.5,-0.5 1909.5,-0.5"/>
<text text-anchor="start" x="1917.5" y="-33.9" font-family="Helvetica,sans-Serif" font-size="12.00">D:/brian/Dev/Eris/ERISCore</text>
<text text-anchor="start" x="1917.5" y="-20.9" font-family="Helvetica,sans-Serif" font-size="12.00">/lib/SdFat&#45;master/src/FatLib</text>
<text text-anchor="middle" x="1990.5" y="-7.9" font-family="Helvetica,sans-Serif" font-size="12.00">/FatFilePrint.cpp</text>
</a>
</g>
</g>
<!-- Node1&#45;&gt;Node12 -->
<g id="edge11" class="edge">
<title>Node1&#45;&gt;Node12</title>
<path fill="none" stroke="midnightblue" d="M1540.56,-97.93C1633.45,-88.44 1777.25,-71.61 1900.5,-48 1903.35,-47.45 1906.25,-46.87 1909.16,-46.26"/>
<polygon fill="midnightblue" stroke="midnightblue" points="1539.93,-94.48 1530.34,-98.97 1540.64,-101.44 1539.93,-94.48"/>
</g>
<!-- Node13 -->
<g id="node13" class="node">
<title>Node13</title>
<g id="a_node13"><a xlink:href="../../dc/dd7/_fat_file_s_f_n_8cpp.html" target="_top" xlink:title=" ">
<polygon fill="white" stroke="black" points="2089.5,-0.5 2089.5,-47.5 2251.5,-47.5 2251.5,-0.5 2089.5,-0.5"/>
<text text-anchor="start" x="2097.5" y="-33.9" font-family="Helvetica,sans-Serif" font-size="12.00">D:/brian/Dev/Eris/ERISCore</text>
<text text-anchor="start" x="2097.5" y="-20.9" font-family="Helvetica,sans-Serif" font-size="12.00">/lib/SdFat&#45;master/src/FatLib</text>
<text text-anchor="middle" x="2170.5" y="-7.9" font-family="Helvetica,sans-Serif" font-size="12.00">/FatFileSFN.cpp</text>
</a>
</g>
</g>
<!-- Node1&#45;&gt;Node13 -->
<g id="edge12" class="edge">
<title>Node1&#45;&gt;Node13</title>
<path fill="none" stroke="midnightblue" d="M1540.44,-102.79C1665.85,-96.25 1890.76,-80.82 2080.5,-48 2083.36,-47.51 2086.26,-46.97 2089.19,-46.39"/>
<polygon fill="midnightblue" stroke="midnightblue" points="1539.91,-99.31 1530.1,-103.32 1540.27,-106.3 1539.91,-99.31"/>
</g>
<!-- Node14 -->
<g id="node14" class="node">
<title>Node14</title>
<g id="a_node14"><a xlink:href="../../dc/d9e/_fat_name_8cpp.html" target="_top" xlink:title=" ">
<polygon fill="white" stroke="black" points="2269.5,-0.5 2269.5,-47.5 2431.5,-47.5 2431.5,-0.5 2269.5,-0.5"/>
<text text-anchor="start" x="2277.5" y="-33.9" font-family="Helvetica,sans-Serif" font-size="12.00">D:/brian/Dev/Eris/ERISCore</text>
<text text-anchor="start" x="2277.5" y="-20.9" font-family="Helvetica,sans-Serif" font-size="12.00">/lib/SdFat&#45;master/src/FatLib</text>
<text text-anchor="middle" x="2350.5" y="-7.9" font-family="Helvetica,sans-Serif" font-size="12.00">/FatName.cpp</text>
</a>
</g>
</g>
<!-- Node1&#45;&gt;Node14 -->
<g id="edge13" class="edge">
<title>Node1&#45;&gt;Node14</title>
<path fill="none" stroke="midnightblue" d="M1540.6,-105.57C1694.31,-102.05 2002.71,-89.91 2260.5,-48 2263.37,-47.53 2266.27,-47.02 2269.2,-46.47"/>
<polygon fill="midnightblue" stroke="midnightblue" points="1540.17,-102.08 1530.25,-105.8 1540.33,-109.07 1540.17,-102.08"/>
</g>
<!-- Node15 -->
<g id="node15" class="node">
<title>Node15</title>
<g id="a_node15"><a xlink:href="../../d5/d8b/_fat_partition_8cpp.html" target="_top" xlink:title=" ">
<polygon fill="white" stroke="black" points="2449.5,-0.5 2449.5,-47.5 2611.5,-47.5 2611.5,-0.5 2449.5,-0.5"/>
<text text-anchor="start" x="2457.5" y="-33.9" font-family="Helvetica,sans-Serif" font-size="12.00">D:/brian/Dev/Eris/ERISCore</text>
<text text-anchor="start" x="2457.5" y="-20.9" font-family="Helvetica,sans-Serif" font-size="12.00">/lib/SdFat&#45;master/src/FatLib</text>
<text text-anchor="middle" x="2530.5" y="-7.9" font-family="Helvetica,sans-Serif" font-size="12.00">/FatPartition.cpp</text>
</a>
</g>
</g>
<!-- Node1&#45;&gt;Node15 -->
<g id="edge14" class="edge">
<title>Node1&#45;&gt;Node15</title>
<path fill="none" stroke="midnightblue" d="M1540.28,-107.39C1719.17,-106.75 2113.2,-99.03 2440.5,-48 2443.37,-47.55 2446.28,-47.05 2449.21,-46.52"/>
<polygon fill="midnightblue" stroke="midnightblue" points="1540.1,-103.89 1530.11,-107.42 1540.12,-110.89 1540.1,-103.89"/>
</g>
<!-- Node16 -->
<g id="node16" class="node">
<title>Node16</title>
<g id="a_node16"><a xlink:href="../../dd/df4/_fat_volume_8cpp.html" target="_top" xlink:title=" ">
<polygon fill="white" stroke="black" points="2629.5,-0.5 2629.5,-47.5 2791.5,-47.5 2791.5,-0.5 2629.5,-0.5"/>
<text text-anchor="start" x="2637.5" y="-33.9" font-family="Helvetica,sans-Serif" font-size="12.00">D:/brian/Dev/Eris/ERISCore</text>
<text text-anchor="start" x="2637.5" y="-20.9" font-family="Helvetica,sans-Serif" font-size="12.00">/lib/SdFat&#45;master/src/FatLib</text>
<text text-anchor="middle" x="2710.5" y="-7.9" font-family="Helvetica,sans-Serif" font-size="12.00">/FatVolume.cpp</text>
</a>
</g>
</g>
<!-- Node1&#45;&gt;Node16 -->
<g id="edge15" class="edge">
<title>Node1&#45;&gt;Node16</title>
<path fill="none" stroke="midnightblue" d="M1540.58,-104.64C1783.55,-98.32 2413.22,-79.36 2620.5,-48 2623.37,-47.57 2626.28,-47.08 2629.21,-46.55"/>
<polygon fill="midnightblue" stroke="midnightblue" points="1540.26,-101.14 1530.35,-104.9 1540.44,-108.14 1540.26,-101.14"/>
</g>
</g>
</svg>
        <g id="navigator" transform="translate(0 0)" fill="#404254">
                <rect fill="#f2f5e9" fill-opacity="0.5" stroke="#606060" stroke-width=".5" x="0" y="0" width="60" height="60"/>
                <use id="zoomplus" xlink:href="#zoomPlus" x="17" y="9" onmousedown="handleZoom(evt,'in')"/>
                <use id="zoomminus" xlink:href="#zoomMin" x="42" y="9" onmousedown="handleZoom(evt,'out')"/>
                <use id="reset" xlink:href="#resetDef" x="30" y="36" onmousedown="handleReset()"/>
                <g id="arrowUp" xlink:href="#dirArrow" transform="translate(30 24)" onmousedown="handlePan(0,-1)">
                  <use xlink:href="#rim" fill="#404040">
                        <set attributeName="fill" to="#808080" begin="arrowUp.mouseover" end="arrowUp.mouseout"/>
                  </use>
                  <path fill="none" stroke="white" stroke-width="1.5" d="M0,-3.0v7 M-2.5,-0.5L0,-3.0L2.5,-0.5"/>
                </g>
                <g id="arrowRight" xlink:href="#dirArrow" transform="rotate(90) translate(36 -43)" onmousedown="handlePan(1,0)">
                  <use xlink:href="#rim" fill="#404040">
                        <set attributeName="fill" to="#808080" begin="arrowRight.mouseover" end="arrowRight.mouseout"/>
                  </use>
                  <path fill="none" stroke="white" stroke-width="1.5" d="M0,-3.0v7 M-2.5,-0.5L0,-3.0L2.5,-0.5"/>
                </g>
                <g id="arrowDown" xlink:href="#dirArrow" transform="rotate(180) translate(-30 -48)" onmousedown="handlePan(0,1)">
                  <use xlink:href="#rim" fill="#404040">
                        <set attributeName="fill" to="#808080" begin="arrowDown.mouseover" end="arrowDown.mouseout"/>
                  </use>
                  <path fill="none" stroke="white" stroke-width="1.5" d="M0,-3.0v7 M-2.5,-0.5L0,-3.0L2.5,-0.5"/>
                </g>
                <g id="arrowLeft" xlink:href="#dirArrow" transform="rotate(270) translate(-36 17)" onmousedown="handlePan(-1,0)">
                  <use xlink:href="#rim" fill="#404040">
                        <set attributeName="fill" to="#808080" begin="arrowLeft.mouseover" end="arrowLeft.mouseout"/>
                  </use>
                  <path fill="none" stroke="white" stroke-width="1.5" d="M0,-3.0v7 M-2.5,-0.5L0,-3.0L2.5,-0.5"/>
                </g>
        </g>
        <svg viewBox="0 0 15 15" width="100%" height="30px" preserveAspectRatio="xMaxYMin meet">
         <g id="arrow_out" transform="scale(0.3 0.3)">
          <a xlink:href="_debug_macros_8h__dep__incl_org.svg" target="_base">
           <rect id="button" ry="5" rx="5" y="6" x="6" height="38" width="38"
                fill="#f2f5e9" fill-opacity="0.5" stroke="#606060" stroke-width="1.0"/>
           <path id="arrow"
             d="M 11.500037,31.436501 C 11.940474,20.09759 22.043105,11.32322 32.158766,21.979434 L 37.068811,17.246167 C 37.068811,17.246167 37.088388,32 37.088388,32 L 22.160133,31.978069 C 22.160133,31.978069 26.997745,27.140456 26.997745,27.140456 C 18.528582,18.264221 13.291696,25.230495 11.500037,31.436501 z"
             style="fill:#404040;"/>
          </a>
         </g>
        </svg>
</svg>
