<?xml version="1.0" encoding="UTF-8" standalone="no"?>
<!DOCTYPE svg PUBLIC "-//W3C//DTD SVG 1.1//EN"
 "http://www.w3.org/Graphics/SVG/1.1/DTD/svg11.dtd">
<!-- Generated by graphviz version 2.47.3 (20210619.1520)
 -->
<!-- Title: erisAudioEffectBitcrusher Pages: 1 -->
<svg width="390pt" height="254pt"
 viewBox="0.00 0.00 389.50 254.00" xmlns="http://www.w3.org/2000/svg" xmlns:xlink="http://www.w3.org/1999/xlink">
<g id="graph0" class="graph" transform="scale(1 1) rotate(0) translate(4 250)">
<title>erisAudioEffectBitcrusher</title>
<!-- Node1 -->
<g id="node1" class="node">
<title>Node1</title>
<g id="a_node1"><a xlink:title=" ">
<polygon fill="#bfbfbf" stroke="black" points="42,-0.5 42,-104.5 289,-104.5 289,-0.5 42,-0.5"/>
<text text-anchor="middle" x="165.5" y="-86.1" font-family="Helvetica,sans-Serif" font-size="18.00">erisAudioEffectBitcrusher</text>
<polyline fill="none" stroke="black" points="42,-76.5 289,-76.5 "/>
<text text-anchor="middle" x="165.5" y="-58.1" font-family="Helvetica,sans-Serif" font-size="18.00"> </text>
<polyline fill="none" stroke="black" points="42,-48.5 289,-48.5 "/>
<text text-anchor="start" x="50" y="-30.1" font-family="Helvetica,sans-Serif" font-size="18.00">+ erisAudioEffectBitcrusher()</text>
<text text-anchor="start" x="50" y="-10.1" font-family="Helvetica,sans-Serif" font-size="18.00">+ void update()</text>
</a>
</g>
</g>
<!-- Node2 -->
<g id="node2" class="node">
<title>Node2</title>
<g id="a_node2"><a xlink:href="../../d5/d35/class_audio_effect_bitcrusher.html" target="_top" xlink:title=" ">
<polygon fill="none" stroke="black" points="0,-161.5 0,-245.5 191,-245.5 191,-161.5 0,-161.5"/>
<text text-anchor="middle" x="95.5" y="-227.1" font-family="Helvetica,sans-Serif" font-size="18.00">AudioEffectBitcrusher</text>
<polyline fill="none" stroke="black" points="0,-217.5 191,-217.5 "/>
<text text-anchor="middle" x="95.5" y="-199.1" font-family="Helvetica,sans-Serif" font-size="18.00"> </text>
<polyline fill="none" stroke="black" points="0,-189.5 191,-189.5 "/>
<text text-anchor="middle" x="95.5" y="-171.1" font-family="Helvetica,sans-Serif" font-size="18.00"> </text>
</a>
</g>
</g>
<!-- Node2&#45;&gt;Node1 -->
<g id="edge1" class="edge">
<title>Node2&#45;&gt;Node1</title>
<path fill="none" stroke="midnightblue" d="M119.19,-152.08C126.38,-136.77 134.29,-119.93 141.5,-104.58"/>
<polygon fill="none" stroke="midnightblue" points="115.9,-150.85 114.81,-161.39 122.23,-153.83 115.9,-150.85"/>
</g>
<!-- Node3 -->
<g id="node3" class="node">
<title>Node3</title>
<g id="a_node3"><a xlink:title=" ">
<polygon fill="none" stroke="#bfbfbf" points="209.5,-161.5 209.5,-245.5 261.5,-245.5 261.5,-161.5 209.5,-161.5"/>
<text text-anchor="middle" x="235.5" y="-227.1" font-family="Helvetica,sans-Serif" font-size="18.00">char</text>
<polyline fill="none" stroke="#bfbfbf" points="209.5,-217.5 261.5,-217.5 "/>
<text text-anchor="middle" x="235.5" y="-199.1" font-family="Helvetica,sans-Serif" font-size="18.00"> </text>
<polyline fill="none" stroke="#bfbfbf" points="209.5,-189.5 261.5,-189.5 "/>
<text text-anchor="middle" x="235.5" y="-171.1" font-family="Helvetica,sans-Serif" font-size="18.00"> </text>
</a>
</g>
</g>
<!-- Node3&#45;&gt;Node1 -->
<g id="edge2" class="edge">
<title>Node3&#45;&gt;Node1</title>
<path fill="none" stroke="#404040" d="M216.19,-161.39C209.54,-147.25 201.95,-131.09 194.7,-115.65"/>
<polygon fill="none" stroke="#404040" points="194.6,-115.44 188.43,-111.71 189.5,-104.58 195.67,-108.31 194.6,-115.44"/>
<text text-anchor="middle" x="294" y="-128.6" font-family="Helvetica,sans-Serif" font-size="18.00"> +short_name_lookup</text>
</g>
</g>
</svg>
