<?xml version="1.0" encoding="UTF-8" standalone="no"?>
<!DOCTYPE svg PUBLIC "-//W3C//DTD SVG 1.1//EN"
 "http://www.w3.org/Graphics/SVG/1.1/DTD/svg11.dtd">
<!-- Generated by graphviz version 2.47.3 (20210619.1520)
 -->
<!-- Title: fsPrintDateTime Pages: 1 -->
<svg width="213pt" height="104pt"
 viewBox="0.00 0.00 213.00 104.00" xmlns="http://www.w3.org/2000/svg" xmlns:xlink="http://www.w3.org/1999/xlink">
<g id="graph0" class="graph" transform="scale(1 1) rotate(0) translate(4 100)">
<title>fsPrintDateTime</title>
<polygon fill="white" stroke="transparent" points="-4,4 -4,-100 209,-100 209,4 -4,4"/>
<!-- Node1 -->
<g id="node1" class="node">
<title>Node1</title>
<g id="a_node1"><a xlink:title=" ">
<polygon fill="#bfbfbf" stroke="black" points="0,-38.5 0,-57.5 86,-57.5 86,-38.5 0,-38.5"/>
<text text-anchor="middle" x="43" y="-45.5" font-family="Helvetica,sans-Serif" font-size="10.00">fsPrintDateTime</text>
</a>
</g>
</g>
<!-- Node2 -->
<g id="node2" class="node">
<title>Node2</title>
<g id="a_node2"><a xlink:href="../../d5/dce/_fs_date_time_8cpp.html#a95582e36f7568be5d5d1c39a27f63e8f" target="_top" xlink:title=" ">
<polygon fill="white" stroke="black" points="132.5,-76.5 132.5,-95.5 194.5,-95.5 194.5,-76.5 132.5,-76.5"/>
<text text-anchor="middle" x="163.5" y="-83.5" font-family="Helvetica,sans-Serif" font-size="10.00">fsFmtDate</text>
</a>
</g>
</g>
<!-- Node1&#45;&gt;Node2 -->
<g id="edge1" class="edge">
<title>Node1&#45;&gt;Node2</title>
<path fill="none" stroke="midnightblue" d="M73.9,-57.59C88.78,-62.36 106.96,-68.19 122.97,-73.32"/>
<polygon fill="midnightblue" stroke="midnightblue" points="122.02,-76.69 132.61,-76.41 124.15,-70.03 122.02,-76.69"/>
</g>
<!-- Node3 -->
<g id="node3" class="node">
<title>Node3</title>
<g id="a_node3"><a xlink:href="../../d5/dce/_fs_date_time_8cpp.html#a88c788d558abbf5171901005b8df8ef0" target="_top" xlink:title=" ">
<polygon fill="white" stroke="black" points="132.5,-38.5 132.5,-57.5 194.5,-57.5 194.5,-38.5 132.5,-38.5"/>
<text text-anchor="middle" x="163.5" y="-45.5" font-family="Helvetica,sans-Serif" font-size="10.00">fsFmtTime</text>
</a>
</g>
</g>
<!-- Node1&#45;&gt;Node3 -->
<g id="edge2" class="edge">
<title>Node1&#45;&gt;Node3</title>
<path fill="none" stroke="midnightblue" d="M86.11,-48C97.83,-48 110.52,-48 122.13,-48"/>
<polygon fill="midnightblue" stroke="midnightblue" points="122.43,-51.5 132.43,-48 122.43,-44.5 122.43,-51.5"/>
</g>
<!-- Node4 -->
<g id="node4" class="node">
<title>Node4</title>
<g id="a_node4"><a xlink:href="../../d5/dce/_fs_date_time_8cpp.html#a43ea8da07460cf695967c90097d9e598" target="_top" xlink:title=" ">
<polygon fill="white" stroke="black" points="122,-0.5 122,-19.5 205,-19.5 205,-0.5 122,-0.5"/>
<text text-anchor="middle" x="163.5" y="-7.5" font-family="Helvetica,sans-Serif" font-size="10.00">fsFmtTimeZone</text>
</a>
</g>
</g>
<!-- Node1&#45;&gt;Node4 -->
<g id="edge3" class="edge">
<title>Node1&#45;&gt;Node4</title>
<path fill="none" stroke="midnightblue" d="M73.9,-38.41C88.78,-33.64 106.96,-27.81 122.97,-22.68"/>
<polygon fill="midnightblue" stroke="midnightblue" points="124.15,-25.97 132.61,-19.59 122.02,-19.31 124.15,-25.97"/>
</g>
</g>
</svg>
