<?xml version="1.0" encoding="UTF-8" standalone="no"?>
<!DOCTYPE svg PUBLIC "-//W3C//DTD SVG 1.1//EN"
 "http://www.w3.org/Graphics/SVG/1.1/DTD/svg11.dtd">
<!-- Generated by graphviz version 2.47.3 (20210619.1520)
 -->
<!-- Title: fsFmtDate Pages: 1 -->
<svg width="720pt" height="269pt"
 viewBox="0.00 0.00 720.00 269.00" xmlns="http://www.w3.org/2000/svg" xmlns:xlink="http://www.w3.org/1999/xlink">
<g id="graph0" class="graph" transform="scale(1 1) rotate(0) translate(4 265)">
<title>fsFmtDate</title>
<polygon fill="white" stroke="transparent" points="-4,4 -4,-265 716,-265 716,4 -4,4"/>
<!-- Node1 -->
<g id="node1" class="node">
<title>Node1</title>
<g id="a_node1"><a xlink:title=" ">
<polygon fill="#bfbfbf" stroke="black" points="650,-146.5 650,-165.5 712,-165.5 712,-146.5 650,-146.5"/>
<text text-anchor="middle" x="681" y="-153.5" font-family="Helvetica,sans-Serif" font-size="10.00">fsFmtDate</text>
</a>
</g>
</g>
<!-- Node2 -->
<g id="node2" class="node">
<title>Node2</title>
<g id="a_node2"><a xlink:href="../../d5/dce/_fs_date_time_8cpp.html#a24d0b955f316cd7a160cb44f02588a32" target="_top" xlink:title=" ">
<polygon fill="white" stroke="black" points="538.5,-203.5 538.5,-222.5 603.5,-222.5 603.5,-203.5 538.5,-203.5"/>
<text text-anchor="middle" x="571" y="-210.5" font-family="Helvetica,sans-Serif" font-size="10.00">fsPrintDate</text>
</a>
</g>
</g>
<!-- Node1&#45;&gt;Node2 -->
<g id="edge1" class="edge">
<title>Node1&#45;&gt;Node2</title>
<path fill="none" stroke="midnightblue" d="M652.62,-170.45C633,-180.81 607.13,-194.46 590.05,-203.47"/>
<polygon fill="midnightblue" stroke="midnightblue" points="654.47,-173.43 661.68,-165.67 651.2,-167.24 654.47,-173.43"/>
</g>
<!-- Node4 -->
<g id="node4" class="node">
<title>Node4</title>
<g id="a_node4"><a xlink:href="../../d5/dce/_fs_date_time_8cpp.html#a8eed4f2175da7c12f53ed62fccda5b12" target="_top" xlink:title=" ">
<polygon fill="white" stroke="black" points="528,-127.5 528,-146.5 614,-146.5 614,-127.5 528,-127.5"/>
<text text-anchor="middle" x="571" y="-134.5" font-family="Helvetica,sans-Serif" font-size="10.00">fsPrintDateTime</text>
</a>
</g>
</g>
<!-- Node1&#45;&gt;Node4 -->
<g id="edge3" class="edge">
<title>Node1&#45;&gt;Node4</title>
<path fill="none" stroke="midnightblue" d="M639.92,-148.95C631.47,-147.46 622.54,-145.89 614.03,-144.39"/>
<polygon fill="midnightblue" stroke="midnightblue" points="639.46,-152.42 649.92,-150.71 640.67,-145.53 639.46,-152.42"/>
</g>
<!-- Node3 -->
<g id="node3" class="node">
<title>Node3</title>
<g id="a_node3"><a xlink:href="../../d3/d51/class_fat_file.html#a22be4c339d0bfa331f75415b74dd4f37" target="_top" xlink:title=" ">
<polygon fill="white" stroke="black" points="350.5,-241.5 350.5,-260.5 475.5,-260.5 475.5,-241.5 350.5,-241.5"/>
<text text-anchor="middle" x="413" y="-248.5" font-family="Helvetica,sans-Serif" font-size="10.00">FatFile::printAccessDate</text>
</a>
</g>
</g>
<!-- Node2&#45;&gt;Node3 -->
<g id="edge2" class="edge">
<title>Node2&#45;&gt;Node3</title>
<path fill="none" stroke="midnightblue" d="M528.48,-223.11C505.16,-228.79 476.22,-235.84 453.28,-241.43"/>
<polygon fill="midnightblue" stroke="midnightblue" points="529.54,-226.46 538.43,-220.69 527.89,-219.66 529.54,-226.46"/>
</g>
<!-- Node5 -->
<g id="node5" class="node">
<title>Node5</title>
<g id="a_node5"><a xlink:href="../../d5/dce/_fs_date_time_8cpp.html#af2e88fd7293f989075db3f2808692202" target="_top" xlink:title=" ">
<polygon fill="white" stroke="black" points="370,-203.5 370,-222.5 456,-222.5 456,-203.5 370,-203.5"/>
<text text-anchor="middle" x="413" y="-210.5" font-family="Helvetica,sans-Serif" font-size="10.00">fsPrintDateTime</text>
</a>
</g>
</g>
<!-- Node4&#45;&gt;Node5 -->
<g id="edge4" class="edge">
<title>Node4&#45;&gt;Node5</title>
<path fill="none" stroke="midnightblue" d="M551.82,-153.52C536.8,-166.33 514.38,-183.6 492,-194 480.88,-199.17 468.18,-203.03 456.32,-205.87"/>
<polygon fill="midnightblue" stroke="midnightblue" points="554.53,-155.79 559.75,-146.58 549.92,-150.53 554.53,-155.79"/>
</g>
<!-- Node6 -->
<g id="node6" class="node">
<title>Node6</title>
<g id="a_node6"><a xlink:href="../../d5/d14/class_ex_fat_file.html#ad9ba8aa00b9db683d40fc2989dbe1922" target="_top" xlink:title=" ">
<polygon fill="white" stroke="black" points="334,-165.5 334,-184.5 492,-184.5 492,-165.5 334,-165.5"/>
<text text-anchor="middle" x="413" y="-172.5" font-family="Helvetica,sans-Serif" font-size="10.00">ExFatFile::printAccessDateTime</text>
</a>
</g>
</g>
<!-- Node4&#45;&gt;Node6 -->
<g id="edge5" class="edge">
<title>Node4&#45;&gt;Node6</title>
<path fill="none" stroke="midnightblue" d="M520.87,-148.97C499.01,-154.29 473.62,-160.48 453.08,-165.48"/>
<polygon fill="midnightblue" stroke="midnightblue" points="521.75,-152.36 530.63,-146.59 520.09,-145.56 521.75,-152.36"/>
</g>
<!-- Node7 -->
<g id="node7" class="node">
<title>Node7</title>
<g id="a_node7"><a xlink:href="../../d5/d14/class_ex_fat_file.html#a7318b2d7594d6ba52421c413f5fc35cd" target="_top" xlink:title=" ">
<polygon fill="white" stroke="black" points="336.5,-127.5 336.5,-146.5 489.5,-146.5 489.5,-127.5 336.5,-127.5"/>
<text text-anchor="middle" x="413" y="-134.5" font-family="Helvetica,sans-Serif" font-size="10.00">ExFatFile::printCreateDateTime</text>
</a>
</g>
</g>
<!-- Node4&#45;&gt;Node7 -->
<g id="edge6" class="edge">
<title>Node4&#45;&gt;Node7</title>
<path fill="none" stroke="midnightblue" d="M517.51,-137C508.53,-137 499.05,-137 489.61,-137"/>
<polygon fill="midnightblue" stroke="midnightblue" points="517.78,-140.5 527.78,-137 517.78,-133.5 517.78,-140.5"/>
</g>
<!-- Node8 -->
<g id="node8" class="node">
<title>Node8</title>
<g id="a_node8"><a xlink:href="../../d3/d51/class_fat_file.html#ab22396a285e27b53501a0047ddd97f59" target="_top" xlink:title=" ">
<polygon fill="white" stroke="black" points="342.5,-89.5 342.5,-108.5 483.5,-108.5 483.5,-89.5 342.5,-89.5"/>
<text text-anchor="middle" x="413" y="-96.5" font-family="Helvetica,sans-Serif" font-size="10.00">FatFile::printCreateDateTime</text>
</a>
</g>
</g>
<!-- Node4&#45;&gt;Node8 -->
<g id="edge7" class="edge">
<title>Node4&#45;&gt;Node8</title>
<path fill="none" stroke="midnightblue" d="M520.87,-125.03C499.01,-119.71 473.62,-113.52 453.08,-108.52"/>
<polygon fill="midnightblue" stroke="midnightblue" points="520.09,-128.44 530.63,-127.41 521.75,-121.64 520.09,-128.44"/>
</g>
<!-- Node9 -->
<g id="node9" class="node">
<title>Node9</title>
<g id="a_node9"><a xlink:href="../../d5/d14/class_ex_fat_file.html#a16488d3e0d946f108240b7d6c536c6f4" target="_top" xlink:title=" ">
<polygon fill="white" stroke="black" points="336.5,-51.5 336.5,-70.5 489.5,-70.5 489.5,-51.5 336.5,-51.5"/>
<text text-anchor="middle" x="413" y="-58.5" font-family="Helvetica,sans-Serif" font-size="10.00">ExFatFile::printModifyDateTime</text>
</a>
</g>
</g>
<!-- Node4&#45;&gt;Node9 -->
<g id="edge8" class="edge">
<title>Node4&#45;&gt;Node9</title>
<path fill="none" stroke="midnightblue" d="M551.82,-120.48C536.8,-107.67 514.38,-90.4 492,-80 483.78,-76.18 474.71,-73.08 465.75,-70.57"/>
<polygon fill="midnightblue" stroke="midnightblue" points="549.92,-123.47 559.75,-127.42 554.53,-118.21 549.92,-123.47"/>
</g>
<!-- Node11 -->
<g id="node11" class="node">
<title>Node11</title>
<g id="a_node11"><a xlink:href="../../d3/d51/class_fat_file.html#a43c8a1cabcae673e43c590f5db44c65a" target="_top" xlink:title=" ">
<polygon fill="white" stroke="black" points="342.5,-9.5 342.5,-28.5 483.5,-28.5 483.5,-9.5 342.5,-9.5"/>
<text text-anchor="middle" x="413" y="-16.5" font-family="Helvetica,sans-Serif" font-size="10.00">FatFile::printModifyDateTime</text>
</a>
</g>
</g>
<!-- Node4&#45;&gt;Node11 -->
<g id="edge10" class="edge">
<title>Node4&#45;&gt;Node11</title>
<path fill="none" stroke="midnightblue" d="M559.54,-118.48C546.46,-96.98 522.08,-61.93 492,-42 483.29,-36.23 473.1,-31.87 463.01,-28.6"/>
<polygon fill="midnightblue" stroke="midnightblue" points="556.64,-120.46 564.73,-127.3 562.68,-116.91 556.64,-120.46"/>
</g>
<!-- Node10 -->
<g id="node10" class="node">
<title>Node10</title>
<g id="a_node10"><a xlink:href="../../d5/d14/class_ex_fat_file.html#a09f8beb55f939874e93c1df6c8a046d4" target="_top" xlink:title=" ">
<polygon fill="white" stroke="black" points="226,-56.5 226,-75.5 298,-75.5 298,-56.5 226,-56.5"/>
<text text-anchor="middle" x="262" y="-63.5" font-family="Helvetica,sans-Serif" font-size="10.00">ExFatFile::ls</text>
</a>
</g>
</g>
<!-- Node9&#45;&gt;Node10 -->
<g id="edge9" class="edge">
<title>Node9&#45;&gt;Node10</title>
<path fill="none" stroke="midnightblue" d="M326,-63.89C316.28,-64.21 306.84,-64.53 298.34,-64.81"/>
<polygon fill="midnightblue" stroke="midnightblue" points="326.31,-67.38 336.19,-63.54 326.08,-60.38 326.31,-67.38"/>
</g>
<!-- Node12 -->
<g id="node12" class="node">
<title>Node12</title>
<g id="a_node12"><a xlink:href="../../d3/d51/class_fat_file.html#a60ab9d16bcc778150a364c26de467de1" target="_top" xlink:title=" ">
<polygon fill="white" stroke="black" points="232,-0.5 232,-19.5 292,-19.5 292,-0.5 232,-0.5"/>
<text text-anchor="middle" x="262" y="-7.5" font-family="Helvetica,sans-Serif" font-size="10.00">FatFile::ls</text>
</a>
</g>
</g>
<!-- Node11&#45;&gt;Node12 -->
<g id="edge11" class="edge">
<title>Node11&#45;&gt;Node12</title>
<path fill="none" stroke="midnightblue" d="M331.9,-14.16C317.65,-13.3 303.67,-12.46 292.07,-11.76"/>
<polygon fill="midnightblue" stroke="midnightblue" points="332.11,-17.68 342.3,-14.79 332.53,-10.69 332.11,-17.68"/>
</g>
<!-- Node12&#45;&gt;Node12 -->
<g id="edge14" class="edge">
<title>Node12&#45;&gt;Node12</title>
<path fill="none" stroke="midnightblue" d="M282.37,-29.4C281.01,-34.31 274.22,-38 262,-38 242.45,-38 236.8,-28.57 245.05,-19.76"/>
<polygon fill="midnightblue" stroke="midnightblue" points="285.59,-28.01 278.95,-19.76 278.99,-30.35 285.59,-28.01"/>
</g>
<!-- Node13 -->
<g id="node13" class="node">
<title>Node13</title>
<g id="a_node13"><a xlink:href="../../d9/d27/class_fat_volume.html#ae40964f357cfff4208812344a0e6f26f" target="_top" xlink:title=" ">
<polygon fill="white" stroke="black" points="113,-0.5 113,-19.5 190,-19.5 190,-0.5 113,-0.5"/>
<text text-anchor="middle" x="151.5" y="-7.5" font-family="Helvetica,sans-Serif" font-size="10.00">FatVolume::ls</text>
</a>
</g>
</g>
<!-- Node12&#45;&gt;Node13 -->
<g id="edge12" class="edge">
<title>Node12&#45;&gt;Node13</title>
<path fill="none" stroke="midnightblue" d="M221.61,-10C211.38,-10 200.39,-10 190.24,-10"/>
<polygon fill="midnightblue" stroke="midnightblue" points="221.92,-13.5 231.92,-10 221.92,-6.5 221.92,-13.5"/>
</g>
<!-- Node14 -->
<g id="node14" class="node">
<title>Node14</title>
<g id="a_node14"><a xlink:href="../../d9/d27/class_fat_volume.html#ad455ad05551329865c659cc4676f2d18" target="_top" xlink:title=" ">
<polygon fill="white" stroke="black" points="0,-0.5 0,-19.5 77,-19.5 77,-0.5 0,-0.5"/>
<text text-anchor="middle" x="38.5" y="-7.5" font-family="Helvetica,sans-Serif" font-size="10.00">FatVolume::ls</text>
</a>
</g>
</g>
<!-- Node13&#45;&gt;Node14 -->
<g id="edge13" class="edge">
<title>Node13&#45;&gt;Node14</title>
<path fill="none" stroke="midnightblue" d="M102.65,-10C94.08,-10 85.27,-10 77.04,-10"/>
<polygon fill="midnightblue" stroke="midnightblue" points="102.92,-13.5 112.92,-10 102.92,-6.5 102.92,-13.5"/>
</g>
</g>
</svg>
