<?xml version="1.0" encoding="UTF-8" standalone="no"?>
<!DOCTYPE svg PUBLIC "-//W3C//DTD SVG 1.1//EN"
 "http://www.w3.org/Graphics/SVG/1.1/DTD/svg11.dtd">
<!-- Generated by graphviz version 2.47.3 (20210619.1520)
 -->
<!-- Title: SdSpiCard::spiStop Pages: 1 -->
<svg width="1268pt" height="409pt"
 viewBox="0.00 0.00 1268.00 408.98" xmlns="http://www.w3.org/2000/svg" xmlns:xlink="http://www.w3.org/1999/xlink">
<g id="graph0" class="graph" transform="scale(1 1) rotate(0) translate(4 404.98)">
<title>SdSpiCard::spiStop</title>
<polygon fill="white" stroke="transparent" points="-4,4 -4,-404.98 1264,-404.98 1264,4 -4,4"/>
<!-- Node1 -->
<g id="node1" class="node">
<title>Node1</title>
<g id="a_node1"><a xlink:title=" ">
<polygon fill="#bfbfbf" stroke="black" points="1158,-191.48 1158,-210.48 1260,-210.48 1260,-191.48 1158,-191.48"/>
<text text-anchor="middle" x="1209" y="-198.48" font-family="Helvetica,sans-Serif" font-size="10.00">SdSpiCard::spiStop</text>
</a>
</g>
</g>
<!-- Node2 -->
<g id="node2" class="node">
<title>Node2</title>
<g id="a_node2"><a xlink:href="../../db/d9b/class_sd_spi_card.html#a6c256f8dcfa7f9d1fac165eed942ab73" target="_top" xlink:title=" ">
<polygon fill="white" stroke="black" points="1018,-381.48 1018,-400.48 1110,-400.48 1110,-381.48 1018,-381.48"/>
<text text-anchor="middle" x="1064" y="-388.48" font-family="Helvetica,sans-Serif" font-size="10.00">SdSpiCard::begin</text>
</a>
</g>
</g>
<!-- Node1&#45;&gt;Node2 -->
<g id="edge1" class="edge">
<title>Node1&#45;&gt;Node2</title>
<path fill="none" stroke="midnightblue" d="M1203.38,-220.76C1194.09,-256.17 1169.85,-330.58 1122,-371.98 1117.5,-375.87 1112.18,-378.97 1106.63,-381.44"/>
<polygon fill="midnightblue" stroke="midnightblue" points="1206.86,-221.27 1205.88,-210.72 1200.06,-219.58 1206.86,-221.27"/>
</g>
<!-- Node6 -->
<g id="node6" class="node">
<title>Node6</title>
<g id="a_node6"><a xlink:href="../../db/d9b/class_sd_spi_card.html#aa3cb9139dbc1e6596c6717da2b486328" target="_top" xlink:title=" ">
<polygon fill="white" stroke="black" points="1014.5,-343.48 1014.5,-362.48 1113.5,-362.48 1113.5,-343.48 1014.5,-343.48"/>
<text text-anchor="middle" x="1064" y="-350.48" font-family="Helvetica,sans-Serif" font-size="10.00">SdSpiCard::isBusy</text>
</a>
</g>
</g>
<!-- Node1&#45;&gt;Node6 -->
<g id="edge5" class="edge">
<title>Node1&#45;&gt;Node6</title>
<path fill="none" stroke="midnightblue" d="M1199.6,-220.02C1186.61,-247.51 1159.2,-298.34 1122,-328.98 1114.62,-335.05 1105.49,-339.8 1096.7,-343.42"/>
<polygon fill="midnightblue" stroke="midnightblue" points="1202.88,-221.27 1203.86,-210.72 1196.51,-218.35 1202.88,-221.27"/>
</g>
<!-- Node7 -->
<g id="node7" class="node">
<title>Node7</title>
<g id="a_node7"><a xlink:href="../../db/d9b/class_sd_spi_card.html#a6eb6241369637ca07c0d1c3fe303750d" target="_top" xlink:title=" ">
<polygon fill="white" stroke="black" points="690,-286.48 690,-305.48 805,-305.48 805,-286.48 690,-286.48"/>
<text text-anchor="middle" x="747.5" y="-293.48" font-family="Helvetica,sans-Serif" font-size="10.00">SdSpiCard::readSingle</text>
</a>
</g>
</g>
<!-- Node1&#45;&gt;Node7 -->
<g id="edge6" class="edge">
<title>Node1&#45;&gt;Node7</title>
<path fill="none" stroke="midnightblue" d="M1195.23,-218.61C1180.15,-237.9 1153.13,-267.94 1122,-281.98 1014.93,-330.26 872.56,-317.27 798.32,-305.51"/>
<polygon fill="midnightblue" stroke="midnightblue" points="1198.05,-220.68 1201.29,-210.6 1192.47,-216.46 1198.05,-220.68"/>
</g>
<!-- Node10 -->
<g id="node10" class="node">
<title>Node10</title>
<g id="a_node10"><a xlink:href="../../db/d9b/class_sd_spi_card.html#a6f10180a070fa01834cef47e70649a8e" target="_top" xlink:title=" ">
<polygon fill="white" stroke="black" points="853,-267.48 853,-286.48 962,-286.48 962,-267.48 853,-267.48"/>
<text text-anchor="middle" x="907.5" y="-274.48" font-family="Helvetica,sans-Serif" font-size="10.00">SdSpiCard::readStart</text>
</a>
</g>
</g>
<!-- Node1&#45;&gt;Node10 -->
<g id="edge9" class="edge">
<title>Node1&#45;&gt;Node10</title>
<path fill="none" stroke="midnightblue" d="M1189.54,-217.21C1173.05,-230.67 1147.62,-249 1122,-257.98 1069.85,-276.25 1006.36,-279.72 962.24,-279.41"/>
<polygon fill="midnightblue" stroke="midnightblue" points="1191.89,-219.8 1197.29,-210.69 1187.39,-214.44 1191.89,-219.8"/>
</g>
<!-- Node12 -->
<g id="node12" class="node">
<title>Node12</title>
<g id="a_node12"><a xlink:href="../../db/d9b/class_sd_spi_card.html#a91d0413599efe0d63c8c2dfe4a12d9ae" target="_top" xlink:title=" ">
<polygon fill="white" stroke="black" points="1006,-229.48 1006,-248.48 1122,-248.48 1122,-229.48 1006,-229.48"/>
<text text-anchor="middle" x="1064" y="-236.48" font-family="Helvetica,sans-Serif" font-size="10.00">SdSpiCard::readStatus</text>
</a>
</g>
</g>
<!-- Node1&#45;&gt;Node12 -->
<g id="edge12" class="edge">
<title>Node1&#45;&gt;Node12</title>
<path fill="none" stroke="midnightblue" d="M1162.19,-213.15C1142.41,-218.41 1119.62,-224.46 1101.07,-229.39"/>
<polygon fill="midnightblue" stroke="midnightblue" points="1163.15,-216.52 1171.92,-210.57 1161.35,-209.75 1163.15,-216.52"/>
</g>
<!-- Node13 -->
<g id="node13" class="node">
<title>Node13</title>
<g id="a_node13"><a xlink:href="../../db/d9b/class_sd_spi_card.html#afdac7c399fa1ba3f904cf503526e007e" target="_top" xlink:title=" ">
<polygon fill="white" stroke="black" points="1010,-191.48 1010,-210.48 1118,-210.48 1118,-191.48 1010,-191.48"/>
<text text-anchor="middle" x="1064" y="-198.48" font-family="Helvetica,sans-Serif" font-size="10.00">SdSpiCard::readStop</text>
</a>
</g>
</g>
<!-- Node1&#45;&gt;Node13 -->
<g id="edge13" class="edge">
<title>Node1&#45;&gt;Node13</title>
<path fill="none" stroke="midnightblue" d="M1147.85,-200.98C1137.98,-200.98 1127.82,-200.98 1118.15,-200.98"/>
<polygon fill="midnightblue" stroke="midnightblue" points="1147.99,-204.48 1157.99,-200.98 1147.99,-197.48 1147.99,-204.48"/>
</g>
<!-- Node15 -->
<g id="node15" class="node">
<title>Node15</title>
<g id="a_node15"><a xlink:href="../../db/d9b/class_sd_spi_card.html#a4165166d5d038c8f1c00c5a04e9f8a63" target="_top" xlink:title=" ">
<polygon fill="white" stroke="black" points="686,-115.48 686,-134.48 809,-134.48 809,-115.48 686,-115.48"/>
<text text-anchor="middle" x="747.5" y="-122.48" font-family="Helvetica,sans-Serif" font-size="10.00">SdSpiCard::writeSectors</text>
</a>
</g>
</g>
<!-- Node1&#45;&gt;Node15 -->
<g id="edge28" class="edge">
<title>Node1&#45;&gt;Node15</title>
<path fill="none" stroke="midnightblue" d="M1195.3,-183.09C1180.27,-163.53 1153.31,-133.09 1122,-118.98 1006.26,-66.81 849.14,-97.93 781.59,-115.47"/>
<polygon fill="midnightblue" stroke="midnightblue" points="1192.56,-185.28 1201.33,-191.22 1198.18,-181.1 1192.56,-185.28"/>
</g>
<!-- Node21 -->
<g id="node21" class="node">
<title>Node21</title>
<g id="a_node21"><a xlink:href="../../db/d9b/class_sd_spi_card.html#a9495c0b148eb380358bb4a9721c0dffa" target="_top" xlink:title=" ">
<polygon fill="white" stroke="black" points="1009,-39.48 1009,-58.48 1119,-58.48 1119,-39.48 1009,-39.48"/>
<text text-anchor="middle" x="1064" y="-46.48" font-family="Helvetica,sans-Serif" font-size="10.00">SdSpiCard::writeData</text>
</a>
</g>
</g>
<!-- Node1&#45;&gt;Node21 -->
<g id="edge24" class="edge">
<title>Node1&#45;&gt;Node21</title>
<path fill="none" stroke="midnightblue" d="M1199.6,-181.93C1186.61,-154.45 1159.2,-103.61 1122,-72.98 1114.62,-66.9 1105.49,-62.15 1096.7,-58.54"/>
<polygon fill="midnightblue" stroke="midnightblue" points="1196.51,-183.6 1203.86,-191.23 1202.88,-180.68 1196.51,-183.6"/>
</g>
<!-- Node22 -->
<g id="node22" class="node">
<title>Node22</title>
<g id="a_node22"><a xlink:href="../../db/d9b/class_sd_spi_card.html#a3172d671447410f19447b78b856a9689" target="_top" xlink:title=" ">
<polygon fill="white" stroke="black" points="849.5,-1.48 849.5,-20.48 965.5,-20.48 965.5,-1.48 849.5,-1.48"/>
<text text-anchor="middle" x="907.5" y="-8.48" font-family="Helvetica,sans-Serif" font-size="10.00">SdSpiCard::writeSingle</text>
</a>
</g>
</g>
<!-- Node1&#45;&gt;Node22 -->
<g id="edge29" class="edge">
<title>Node1&#45;&gt;Node22</title>
<path fill="none" stroke="midnightblue" d="M1204.47,-181.05C1196.79,-144.19 1174.81,-65.86 1122,-29.98 1076.29,1.08 1011.77,2.5 965.64,-1.79"/>
<polygon fill="midnightblue" stroke="midnightblue" points="1201.07,-181.92 1206.42,-191.07 1207.95,-180.58 1201.07,-181.92"/>
</g>
<!-- Node23 -->
<g id="node23" class="node">
<title>Node23</title>
<g id="a_node23"><a xlink:href="../../db/d9b/class_sd_spi_card.html#ae46068850a0cb9f142d5b0b0147716fa" target="_top" xlink:title=" ">
<polygon fill="white" stroke="black" points="852.5,-115.48 852.5,-134.48 962.5,-134.48 962.5,-115.48 852.5,-115.48"/>
<text text-anchor="middle" x="907.5" y="-122.48" font-family="Helvetica,sans-Serif" font-size="10.00">SdSpiCard::writeStart</text>
</a>
</g>
</g>
<!-- Node1&#45;&gt;Node23 -->
<g id="edge30" class="edge">
<title>Node1&#45;&gt;Node23</title>
<path fill="none" stroke="midnightblue" d="M1189.54,-184.74C1173.05,-171.28 1147.62,-152.96 1122,-143.98 1070.02,-125.76 1006.79,-122.26 962.68,-122.54"/>
<polygon fill="midnightblue" stroke="midnightblue" points="1187.39,-187.51 1197.29,-191.26 1191.89,-182.15 1187.39,-187.51"/>
</g>
<!-- Node24 -->
<g id="node24" class="node">
<title>Node24</title>
<g id="a_node24"><a xlink:href="../../db/d9b/class_sd_spi_card.html#aef9154785a4de5560fb807e4f9316fb0" target="_top" xlink:title=" ">
<polygon fill="white" stroke="black" points="1009,-153.48 1009,-172.48 1119,-172.48 1119,-153.48 1009,-153.48"/>
<text text-anchor="middle" x="1064" y="-160.48" font-family="Helvetica,sans-Serif" font-size="10.00">SdSpiCard::writeStop</text>
</a>
</g>
</g>
<!-- Node1&#45;&gt;Node24 -->
<g id="edge32" class="edge">
<title>Node1&#45;&gt;Node24</title>
<path fill="none" stroke="midnightblue" d="M1162.19,-188.8C1142.41,-183.55 1119.62,-177.49 1101.07,-172.56"/>
<polygon fill="midnightblue" stroke="midnightblue" points="1161.35,-192.2 1171.92,-191.39 1163.15,-185.44 1161.35,-192.2"/>
</g>
<!-- Node3 -->
<g id="node3" class="node">
<title>Node3</title>
<g id="a_node3"><a xlink:href="../../d9/d30/class_sd_card_factory.html#a8337ec1a741c25ed9fb9fd730d68b792" target="_top" xlink:title=" ">
<polygon fill="white" stroke="black" points="845,-381.48 845,-400.48 970,-400.48 970,-381.48 845,-381.48"/>
<text text-anchor="middle" x="907.5" y="-388.48" font-family="Helvetica,sans-Serif" font-size="10.00">SdCardFactory::newCard</text>
</a>
</g>
</g>
<!-- Node2&#45;&gt;Node3 -->
<g id="edge2" class="edge">
<title>Node2&#45;&gt;Node3</title>
<path fill="none" stroke="midnightblue" d="M1007.83,-390.98C995.57,-390.98 982.51,-390.98 970.03,-390.98"/>
<polygon fill="midnightblue" stroke="midnightblue" points="1007.9,-394.48 1017.9,-390.98 1007.9,-387.48 1007.9,-394.48"/>
</g>
<!-- Node4 -->
<g id="node4" class="node">
<title>Node4</title>
<g id="a_node4"><a xlink:href="../../de/d8b/class_sd_base.html#a7a5e3b08f6cdd94cfaa19a1b43df6ed9" target="_top" xlink:title=" ">
<polygon fill="white" stroke="black" points="697,-381.48 697,-400.48 798,-400.48 798,-381.48 697,-381.48"/>
<text text-anchor="middle" x="747.5" y="-388.48" font-family="Helvetica,sans-Serif" font-size="10.00">SdBase::cardBegin</text>
</a>
</g>
</g>
<!-- Node3&#45;&gt;Node4 -->
<g id="edge3" class="edge">
<title>Node3&#45;&gt;Node4</title>
<path fill="none" stroke="midnightblue" d="M834.73,-390.98C822.46,-390.98 809.95,-390.98 798.4,-390.98"/>
<polygon fill="midnightblue" stroke="midnightblue" points="834.96,-394.48 844.96,-390.98 834.96,-387.48 834.96,-394.48"/>
</g>
<!-- Node5 -->
<g id="node5" class="node">
<title>Node5</title>
<g id="a_node5"><a xlink:href="../../de/d8b/class_sd_base.html#a5748f43d73a4272ec8dc302fb0213556" target="_top" xlink:title=" ">
<polygon fill="white" stroke="black" points="551,-381.48 551,-400.48 631,-400.48 631,-381.48 551,-381.48"/>
<text text-anchor="middle" x="591" y="-388.48" font-family="Helvetica,sans-Serif" font-size="10.00">SdBase::begin</text>
</a>
</g>
</g>
<!-- Node4&#45;&gt;Node5 -->
<g id="edge4" class="edge">
<title>Node4&#45;&gt;Node5</title>
<path fill="none" stroke="midnightblue" d="M686.64,-390.98C668.1,-390.98 648.14,-390.98 631.36,-390.98"/>
<polygon fill="midnightblue" stroke="midnightblue" points="686.76,-394.48 696.76,-390.98 686.76,-387.48 686.76,-394.48"/>
</g>
<!-- Node8 -->
<g id="node8" class="node">
<title>Node8</title>
<g id="a_node8"><a xlink:href="../../db/d9b/class_sd_spi_card.html#adbdb4df6d74ffa21df7f19a46c781f17" target="_top" xlink:title=" ">
<polygon fill="white" stroke="black" points="533,-229.48 533,-248.48 649,-248.48 649,-229.48 533,-229.48"/>
<text text-anchor="middle" x="591" y="-236.48" font-family="Helvetica,sans-Serif" font-size="10.00">SdSpiCard::readSector</text>
</a>
</g>
</g>
<!-- Node7&#45;&gt;Node8 -->
<g id="edge7" class="edge">
<title>Node7&#45;&gt;Node8</title>
<path fill="none" stroke="midnightblue" d="M711.09,-282.91C682.69,-272.43 643.49,-257.97 617.94,-248.55"/>
<polygon fill="midnightblue" stroke="midnightblue" points="710.05,-286.26 720.64,-286.44 712.47,-279.69 710.05,-286.26"/>
</g>
<!-- Node9 -->
<g id="node9" class="node">
<title>Node9</title>
<g id="a_node9"><a xlink:href="../../d3/d77/class_fs_cache.html#a2483025514ecc0f69cabffcbeb052678" target="_top" xlink:title=" ">
<polygon fill="white" stroke="black" points="298,-201.48 298,-220.48 373,-220.48 373,-201.48 298,-201.48"/>
<text text-anchor="middle" x="335.5" y="-208.48" font-family="Helvetica,sans-Serif" font-size="10.00">FsCache::get</text>
</a>
</g>
</g>
<!-- Node8&#45;&gt;Node9 -->
<g id="edge8" class="edge">
<title>Node8&#45;&gt;Node9</title>
<path fill="none" stroke="midnightblue" d="M522.8,-231.55C474.84,-226.26 412.16,-219.33 373.12,-215.02"/>
<polygon fill="midnightblue" stroke="midnightblue" points="522.47,-235.04 532.79,-232.66 523.24,-228.08 522.47,-235.04"/>
</g>
<!-- Node11 -->
<g id="node11" class="node">
<title>Node11</title>
<g id="a_node11"><a xlink:href="../../db/d9b/class_sd_spi_card.html#a248a56a6b15182c4d558f497c99fbf15" target="_top" xlink:title=" ">
<polygon fill="white" stroke="black" points="686.5,-229.48 686.5,-248.48 808.5,-248.48 808.5,-229.48 686.5,-229.48"/>
<text text-anchor="middle" x="747.5" y="-236.48" font-family="Helvetica,sans-Serif" font-size="10.00">SdSpiCard::readSectors</text>
</a>
</g>
</g>
<!-- Node10&#45;&gt;Node11 -->
<g id="edge10" class="edge">
<title>Node10&#45;&gt;Node11</title>
<path fill="none" stroke="midnightblue" d="M856.74,-265.01C834.6,-259.68 808.89,-253.5 788.08,-248.5"/>
<polygon fill="midnightblue" stroke="midnightblue" points="856.09,-268.45 866.63,-267.39 857.73,-261.65 856.09,-268.45"/>
</g>
<!-- Node11&#45;&gt;Node8 -->
<g id="edge11" class="edge">
<title>Node11&#45;&gt;Node8</title>
<path fill="none" stroke="midnightblue" d="M676.21,-238.98C667.18,-238.98 658.02,-238.98 649.23,-238.98"/>
<polygon fill="midnightblue" stroke="midnightblue" points="676.32,-242.48 686.32,-238.98 676.32,-235.48 676.32,-242.48"/>
</g>
<!-- Node13&#45;&gt;Node11 -->
<g id="edge14" class="edge">
<title>Node13&#45;&gt;Node11</title>
<path fill="none" stroke="midnightblue" d="M1011.47,-212.61C998.03,-215.34 983.52,-218.02 970,-219.98 915.76,-227.82 853.54,-232.81 808.88,-235.69"/>
<polygon fill="midnightblue" stroke="midnightblue" points="1012.44,-215.99 1021.51,-210.52 1011.01,-209.13 1012.44,-215.99"/>
</g>
<!-- Node14 -->
<g id="node14" class="node">
<title>Node14</title>
<g id="a_node14"><a xlink:href="../../db/d9b/class_sd_spi_card.html#ac9f3bfbfc5029f93da1fa233cbe617c4" target="_top" xlink:title=" ">
<polygon fill="white" stroke="black" points="848,-191.48 848,-210.48 967,-210.48 967,-191.48 848,-191.48"/>
<text text-anchor="middle" x="907.5" y="-198.48" font-family="Helvetica,sans-Serif" font-size="10.00">SdSpiCard::syncDevice</text>
</a>
</g>
</g>
<!-- Node13&#45;&gt;Node14 -->
<g id="edge15" class="edge">
<title>Node13&#45;&gt;Node14</title>
<path fill="none" stroke="midnightblue" d="M999.64,-200.98C988.86,-200.98 977.71,-200.98 967.06,-200.98"/>
<polygon fill="midnightblue" stroke="midnightblue" points="999.83,-204.48 1009.83,-200.98 999.83,-197.48 999.83,-204.48"/>
</g>
<!-- Node14&#45;&gt;Node11 -->
<g id="edge16" class="edge">
<title>Node14&#45;&gt;Node11</title>
<path fill="none" stroke="midnightblue" d="M856.74,-212.94C834.6,-218.27 808.89,-224.45 788.08,-229.46"/>
<polygon fill="midnightblue" stroke="midnightblue" points="857.73,-216.31 866.63,-210.57 856.09,-209.5 857.73,-216.31"/>
</g>
<!-- Node14&#45;&gt;Node15 -->
<g id="edge17" class="edge">
<title>Node14&#45;&gt;Node15</title>
<path fill="none" stroke="midnightblue" d="M870.3,-187.7C861.91,-184.39 853.08,-180.71 845,-176.98 816.15,-163.64 783.88,-145.57 764.92,-134.62"/>
<polygon fill="midnightblue" stroke="midnightblue" points="869.28,-191.06 879.87,-191.4 871.8,-184.53 869.28,-191.06"/>
</g>
<!-- Node16 -->
<g id="node16" class="node">
<title>Node16</title>
<g id="a_node16"><a xlink:href="../../db/d9b/class_sd_spi_card.html#a9a230924d82c5df07df592c571bc3fa5" target="_top" xlink:title=" ">
<polygon fill="white" stroke="black" points="532,-115.48 532,-134.48 650,-134.48 650,-115.48 532,-115.48"/>
<text text-anchor="middle" x="591" y="-122.48" font-family="Helvetica,sans-Serif" font-size="10.00">SdSpiCard::writeSector</text>
</a>
</g>
</g>
<!-- Node15&#45;&gt;Node16 -->
<g id="edge18" class="edge">
<title>Node15&#45;&gt;Node16</title>
<path fill="none" stroke="midnightblue" d="M675.86,-124.98C667.27,-124.98 658.56,-124.98 650.17,-124.98"/>
<polygon fill="midnightblue" stroke="midnightblue" points="675.88,-128.48 685.88,-124.98 675.88,-121.48 675.88,-128.48"/>
</g>
<!-- Node17 -->
<g id="node17" class="node">
<title>Node17</title>
<g id="a_node17"><a xlink:href="../../d3/d77/class_fs_cache.html#a5a2c8fb432d7b7590ebb43200ca21893" target="_top" xlink:title=" ">
<polygon fill="white" stroke="black" points="413,-125.48 413,-144.48 496,-144.48 496,-125.48 413,-125.48"/>
<text text-anchor="middle" x="454.5" y="-132.48" font-family="Helvetica,sans-Serif" font-size="10.00">FsCache::sync</text>
</a>
</g>
</g>
<!-- Node16&#45;&gt;Node17 -->
<g id="edge19" class="edge">
<title>Node16&#45;&gt;Node17</title>
<path fill="none" stroke="midnightblue" d="M521.67,-130.06C513.03,-130.7 504.41,-131.34 496.39,-131.94"/>
<polygon fill="midnightblue" stroke="midnightblue" points="522.08,-133.54 531.79,-129.3 521.56,-126.56 522.08,-133.54"/>
</g>
<!-- Node17&#45;&gt;Node9 -->
<g id="edge23" class="edge">
<title>Node17&#45;&gt;Node9</title>
<path fill="none" stroke="midnightblue" d="M430.01,-150.24C406.48,-165.52 371,-188.56 351.2,-201.43"/>
<polygon fill="midnightblue" stroke="midnightblue" points="432.2,-152.98 438.68,-144.6 428.39,-147.11 432.2,-152.98"/>
</g>
<!-- Node18 -->
<g id="node18" class="node">
<title>Node18</title>
<g id="a_node18"><a xlink:href="../../d3/d77/class_fs_cache.html#a734ac2e9931f141c9ba9a3ef021a8691" target="_top" xlink:title=" ">
<polygon fill="white" stroke="black" points="294,-125.48 294,-144.48 377,-144.48 377,-125.48 294,-125.48"/>
<text text-anchor="middle" x="335.5" y="-132.48" font-family="Helvetica,sans-Serif" font-size="10.00">FsCache::clear</text>
</a>
</g>
</g>
<!-- Node17&#45;&gt;Node18 -->
<g id="edge20" class="edge">
<title>Node17&#45;&gt;Node18</title>
<path fill="none" stroke="midnightblue" d="M402.91,-134.98C394.25,-134.98 385.37,-134.98 377.02,-134.98"/>
<polygon fill="midnightblue" stroke="midnightblue" points="402.91,-138.48 412.91,-134.98 402.91,-131.48 402.91,-138.48"/>
</g>
<!-- Node19 -->
<g id="node19" class="node">
<title>Node19</title>
<g id="a_node19"><a xlink:href="../../d4/de9/class_ex_fat_partition.html#a63fac808e421ed5c8e72a37616ac56ac" target="_top" xlink:title=" ">
<polygon fill="white" stroke="black" points="124,-125.48 124,-144.48 258,-144.48 258,-125.48 124,-125.48"/>
<text text-anchor="middle" x="191" y="-132.48" font-family="Helvetica,sans-Serif" font-size="10.00">ExFatPartition::cacheClear</text>
</a>
</g>
</g>
<!-- Node18&#45;&gt;Node19 -->
<g id="edge21" class="edge">
<title>Node18&#45;&gt;Node19</title>
<path fill="none" stroke="midnightblue" d="M283.49,-134.98C275.27,-134.98 266.65,-134.98 258.13,-134.98"/>
<polygon fill="midnightblue" stroke="midnightblue" points="283.67,-138.48 293.67,-134.98 283.67,-131.48 283.67,-138.48"/>
</g>
<!-- Node20 -->
<g id="node20" class="node">
<title>Node20</title>
<g id="a_node20"><a xlink:href="../../dd/d23/class_sd_ex_fat.html#ad97b4029db8352c9e98d498988f89296" target="_top" xlink:title=" ">
<polygon fill="white" stroke="black" points="0,-125.48 0,-144.48 88,-144.48 88,-125.48 0,-125.48"/>
<text text-anchor="middle" x="44" y="-132.48" font-family="Helvetica,sans-Serif" font-size="10.00">SdExFat::format</text>
</a>
</g>
</g>
<!-- Node19&#45;&gt;Node20 -->
<g id="edge22" class="edge">
<title>Node19&#45;&gt;Node20</title>
<path fill="none" stroke="midnightblue" d="M113.63,-134.98C104.91,-134.98 96.27,-134.98 88.21,-134.98"/>
<polygon fill="midnightblue" stroke="midnightblue" points="113.86,-138.48 123.86,-134.98 113.86,-131.48 113.86,-138.48"/>
</g>
<!-- Node21&#45;&gt;Node15 -->
<g id="edge25" class="edge">
<title>Node21&#45;&gt;Node15</title>
<path fill="none" stroke="midnightblue" d="M998.95,-49.6C954.8,-51.58 895.25,-57.32 845,-72.98 813.38,-82.82 780.17,-103.31 762.13,-115.42"/>
<polygon fill="midnightblue" stroke="midnightblue" points="999.12,-53.1 1008.97,-49.21 998.84,-46.11 999.12,-53.1"/>
</g>
<!-- Node21&#45;&gt;Node22 -->
<g id="edge26" class="edge">
<title>Node21&#45;&gt;Node22</title>
<path fill="none" stroke="midnightblue" d="M1014.05,-36.94C992.46,-31.63 967.46,-25.48 947.21,-20.5"/>
<polygon fill="midnightblue" stroke="midnightblue" points="1013.47,-40.4 1024.01,-39.39 1015.14,-33.6 1013.47,-40.4"/>
</g>
<!-- Node22&#45;&gt;Node16 -->
<g id="edge27" class="edge">
<title>Node22&#45;&gt;Node16</title>
<path fill="none" stroke="midnightblue" d="M870.58,-24C806.69,-47.15 674.74,-94.98 618.42,-115.4"/>
<polygon fill="midnightblue" stroke="midnightblue" points="872.02,-27.2 880.23,-20.5 869.63,-20.62 872.02,-27.2"/>
</g>
<!-- Node23&#45;&gt;Node15 -->
<g id="edge31" class="edge">
<title>Node23&#45;&gt;Node15</title>
<path fill="none" stroke="midnightblue" d="M841.9,-124.98C831.09,-124.98 819.91,-124.98 809.2,-124.98"/>
<polygon fill="midnightblue" stroke="midnightblue" points="842.13,-128.48 852.13,-124.98 842.13,-121.48 842.13,-128.48"/>
</g>
<!-- Node24&#45;&gt;Node14 -->
<g id="edge33" class="edge">
<title>Node24&#45;&gt;Node14</title>
<path fill="none" stroke="midnightblue" d="M1014.05,-175.02C992.46,-180.33 967.46,-186.48 947.21,-191.46"/>
<polygon fill="midnightblue" stroke="midnightblue" points="1015.14,-178.35 1024.01,-172.57 1013.47,-171.56 1015.14,-178.35"/>
</g>
<!-- Node24&#45;&gt;Node15 -->
<g id="edge34" class="edge">
<title>Node24&#45;&gt;Node15</title>
<path fill="none" stroke="midnightblue" d="M998.46,-159.18C954.96,-156.17 896.36,-151.25 845,-143.98 827.42,-141.49 808.19,-137.88 791.57,-134.48"/>
<polygon fill="midnightblue" stroke="midnightblue" points="998.4,-162.68 1008.61,-159.86 998.87,-155.7 998.4,-162.68"/>
</g>
</g>
</svg>
