<?xml version="1.0" encoding="UTF-8" standalone="no"?>
<!DOCTYPE svg PUBLIC "-//W3C//DTD SVG 1.1//EN"
 "http://www.w3.org/Graphics/SVG/1.1/DTD/svg11.dtd">
<!-- Generated by graphviz version 2.47.3 (20210619.1520)
 -->
<!-- Title: drawLineCallback Pages: 1 -->
<!--zoomable 507 -->
<svg id="main" version="1.1" xmlns="http://www.w3.org/2000/svg" xmlns:xlink="http://www.w3.org/1999/xlink" xml:space="preserve" onload="init(evt)">
<style type="text/css"><![CDATA[
.edge:hover path { stroke: red; }
.edge:hover polygon { stroke: red; fill: red; }
]]></style>
<script type="text/javascript"><![CDATA[
var edges = document.getElementsByTagName('g');
if (edges && edges.length) {
  for (var i=0;i<edges.length;i++) {
    if (edges[i].id.substr(0,4)=='edge') {
      edges[i].setAttribute('class','edge');
    }
  }
}
]]></script>
        <defs>
                <circle id="rim" cx="0" cy="0" r="7"/>
                <circle id="rim2" cx="0" cy="0" r="3.5"/>
                <g id="zoomPlus">
                        <use xlink:href="#rim" fill="#404040">
                                <set attributeName="fill" to="#808080" begin="zoomplus.mouseover" end="zoomplus.mouseout"/>
                        </use>
                        <path d="M-4,0h8M0,-4v8" fill="none" stroke="white" stroke-width="1.5" pointer-events="none"/>
                </g>
                <g id="zoomMin">
                        <use xlink:href="#rim" fill="#404040">
                                <set attributeName="fill" to="#808080" begin="zoomminus.mouseover" end="zoomminus.mouseout"/>
                        </use>
                        <path d="M-4,0h8" fill="none" stroke="white" stroke-width="1.5" pointer-events="none"/>
                </g>
                <g id="dirArrow">
                        <path fill="none" stroke="white" stroke-width="1.5" d="M0,-3.0v7 M-2.5,-0.5L0,-3.0L2.5,-0.5"/>
                </g>
               <g id="resetDef">
                       <use xlink:href="#rim2" fill="#404040">
                               <set attributeName="fill" to="#808080" begin="reset.mouseover" end="reset.mouseout"/>
                       </use>
               </g>
        </defs>

<script type="text/javascript">
var viewWidth = 1359;
var viewHeight = 507;
var sectionId = 'dynsection-0';
</script>
<script xlink:href="../../svgpan.js"/>
<svg id="graph" class="graph">
<g id="viewport">
<title>drawLineCallback</title>
<!-- Node1 -->
<g id="node1" class="node">
<title>Node1</title>
<g id="a_node1"><a xlink:title="VM callback for extention method.">
<polygon fill="#bfbfbf" stroke="black" points="0,-262.5 0,-290.5 159,-290.5 159,-262.5 0,-262.5"/>
<text text-anchor="middle" x="79.5" y="-272.1" font-family="Helvetica,sans-Serif" font-size="18.00">drawLineCallback</text>
</a>
</g>
</g>
<!-- Node2 -->
<g id="node2" class="node">
<title>Node2</title>
<g id="a_node2"><a xlink:href="../../d0/da0/class_app_wren_ad339a4b95cdb501d58fed6442216391d.html#ad339a4b95cdb501d58fed6442216391d" target="_top" xlink:title="draws a line on the render target">
<polygon fill="none" stroke="black" points="235,-377.5 235,-405.5 411,-405.5 411,-377.5 235,-377.5"/>
<text text-anchor="middle" x="323" y="-387.1" font-family="Helvetica,sans-Serif" font-size="18.00">AppWren::drawLine</text>
</a>
</g>
</g>
<!-- Node1&#45;&gt;Node2 -->
<g id="edge1" class="edge">
<title>Node1&#45;&gt;Node2</title>
<path fill="none" stroke="midnightblue" d="M110.11,-290.6C153.68,-311.35 235.11,-350.12 283.34,-373.09"/>
<polygon fill="midnightblue" stroke="midnightblue" points="281.99,-376.32 292.52,-377.46 285,-370 281.99,-376.32"/>
</g>
<!-- Node8 -->
<g id="node8" class="node">
<title>Node8</title>
<g id="a_node8"><a xlink:href="../../da/d96/class_app_manager_a08daaf40a3ddaa938603039eb1e67d09.html#a08daaf40a3ddaa938603039eb1e67d09" target="_top" xlink:title="Get the App pointer By Name. Returns NULL if not found.">
<polygon fill="none" stroke="black" points="195,-262.5 195,-290.5 451,-290.5 451,-262.5 195,-262.5"/>
<text text-anchor="middle" x="323" y="-272.1" font-family="Helvetica,sans-Serif" font-size="18.00">AppManager::getAppByName</text>
</a>
</g>
</g>
<!-- Node1&#45;&gt;Node8 -->
<g id="edge11" class="edge">
<title>Node1&#45;&gt;Node8</title>
<path fill="none" stroke="midnightblue" d="M159.24,-276.5C167.45,-276.5 175.96,-276.5 184.58,-276.5"/>
<polygon fill="midnightblue" stroke="midnightblue" points="184.75,-280 194.75,-276.5 184.75,-273 184.75,-280"/>
</g>
<!-- Node10 -->
<g id="node10" class="node">
<title>Node10</title>
<g id="a_node10"><a xlink:href="../../da/d96/class_app_manager_aa76d9691e8d029656413590fbe4dee86.html#aa76d9691e8d029656413590fbe4dee86" target="_top" xlink:title=" ">
<polygon fill="none" stroke="black" points="211,-215.5 211,-243.5 435,-243.5 435,-215.5 211,-215.5"/>
<text text-anchor="middle" x="323" y="-225.1" font-family="Helvetica,sans-Serif" font-size="18.00">AppManager::getInstance</text>
</a>
</g>
</g>
<!-- Node1&#45;&gt;Node10 -->
<g id="edge13" class="edge">
<title>Node1&#45;&gt;Node10</title>
<path fill="none" stroke="midnightblue" d="M149.8,-262.45C164.71,-259.46 180.37,-256.35 195,-253.5 208.56,-250.86 222.94,-248.1 236.96,-245.43"/>
<polygon fill="midnightblue" stroke="midnightblue" points="237.92,-248.81 247.1,-243.51 236.62,-241.93 237.92,-248.81"/>
</g>
<!-- Node3 -->
<g id="node3" class="node">
<title>Node3</title>
<g id="a_node3"><a xlink:href="../../d8/d5a/class_i_l_i9341__t3___e_r_i_s_ad2d66940f2902f773909765544a50faa.html#ad2d66940f2902f773909765544a50faa" target="_top" xlink:title=" ">
<polygon fill="none" stroke="black" points="516,-377.5 516,-405.5 754,-405.5 754,-377.5 516,-377.5"/>
<text text-anchor="middle" x="635" y="-387.1" font-family="Helvetica,sans-Serif" font-size="18.00">ILI9341_t3_ERIS::drawPixel</text>
</a>
</g>
</g>
<!-- Node2&#45;&gt;Node3 -->
<g id="edge2" class="edge">
<title>Node2&#45;&gt;Node3</title>
<path fill="none" stroke="midnightblue" d="M411.18,-391.5C440.51,-391.5 473.87,-391.5 505.69,-391.5"/>
<polygon fill="midnightblue" stroke="midnightblue" points="505.96,-395 515.96,-391.5 505.96,-388 505.96,-395"/>
</g>
<!-- Node5 -->
<g id="node5" class="node">
<title>Node5</title>
<g id="a_node5"><a xlink:href="../../d1/d1a/class_surface_a5c2bec03132b83f9a030a64c643ca256.html#a5c2bec03132b83f9a030a64c643ca256" target="_top" xlink:title=" ">
<polygon fill="none" stroke="black" points="865,-376.5 865,-404.5 1027,-404.5 1027,-376.5 865,-376.5"/>
<text text-anchor="middle" x="946" y="-386.1" font-family="Helvetica,sans-Serif" font-size="18.00">Surface::getWidth</text>
</a>
</g>
</g>
<!-- Node2&#45;&gt;Node5 -->
<g id="edge10" class="edge">
<title>Node2&#45;&gt;Node5</title>
<path fill="none" stroke="midnightblue" d="M407.1,-377.48C432.65,-373.79 460.91,-370.33 487,-368.5 618.23,-359.29 651.74,-359.63 783,-368.5 806.31,-370.08 831.38,-372.91 854.67,-376.04"/>
<polygon fill="midnightblue" stroke="midnightblue" points="854.5,-379.55 864.88,-377.44 855.45,-372.61 854.5,-379.55"/>
</g>
<!-- Node6 -->
<g id="node6" class="node">
<title>Node6</title>
<g id="a_node6"><a xlink:href="../../d8/d5a/class_i_l_i9341__t3___e_r_i_s_a18c1a960c8471a497d1a97654cf46865.html#a18c1a960c8471a497d1a97654cf46865" target="_top" xlink:title=" ">
<polygon fill="none" stroke="black" points="487,-424.5 487,-452.5 783,-452.5 783,-424.5 487,-424.5"/>
<text text-anchor="middle" x="635" y="-434.1" font-family="Helvetica,sans-Serif" font-size="18.00">ILI9341_t3_ERIS::drawSurfaceLine</text>
</a>
</g>
</g>
<!-- Node2&#45;&gt;Node6 -->
<g id="edge5" class="edge">
<title>Node2&#45;&gt;Node6</title>
<path fill="none" stroke="midnightblue" d="M411.18,-404.72C448.49,-410.37 492.34,-417.02 531.23,-422.92"/>
<polygon fill="midnightblue" stroke="midnightblue" points="531.11,-426.44 541.53,-424.48 532.16,-419.52 531.11,-426.44"/>
</g>
<!-- Node7 -->
<g id="node7" class="node">
<title>Node7</title>
<g id="a_node7"><a xlink:href="../../d1/d1a/class_surface_a552bec1e25c262bbd74eafdea43dc438.html#a552bec1e25c262bbd74eafdea43dc438" target="_top" xlink:title=" ">
<polygon fill="none" stroke="black" points="862.5,-470.5 862.5,-498.5 1029.5,-498.5 1029.5,-470.5 862.5,-470.5"/>
<text text-anchor="middle" x="946" y="-480.1" font-family="Helvetica,sans-Serif" font-size="18.00">Surface::getHeight</text>
</a>
</g>
</g>
<!-- Node2&#45;&gt;Node7 -->
<g id="edge9" class="edge">
<title>Node2&#45;&gt;Node7</title>
<path fill="none" stroke="midnightblue" d="M348.43,-405.52C379.49,-422.53 435.3,-450.43 487,-462.5 610.97,-491.45 758.79,-492.81 852.28,-489.76"/>
<polygon fill="midnightblue" stroke="midnightblue" points="852.4,-493.26 862.28,-489.41 852.16,-486.26 852.4,-493.26"/>
</g>
<!-- Node4 -->
<g id="node4" class="node">
<title>Node4</title>
<g id="a_node4"><a xlink:href="../../d1/d1a/class_surface_a5d3958cf977d83b61cf670385d2b21e9.html#a5d3958cf977d83b61cf670385d2b21e9" target="_top" xlink:title=" ">
<polygon fill="none" stroke="black" points="827,-423.5 827,-451.5 1065,-451.5 1065,-423.5 827,-423.5"/>
<text text-anchor="middle" x="946" y="-433.1" font-family="Helvetica,sans-Serif" font-size="18.00">Surface::getSurfaceBufferP</text>
</a>
</g>
</g>
<!-- Node3&#45;&gt;Node4 -->
<g id="edge3" class="edge">
<title>Node3&#45;&gt;Node4</title>
<path fill="none" stroke="midnightblue" d="M730.39,-405.55C765.35,-410.76 805.18,-416.68 840.95,-422.01"/>
<polygon fill="midnightblue" stroke="midnightblue" points="840.52,-425.48 850.92,-423.49 841.55,-418.56 840.52,-425.48"/>
</g>
<!-- Node3&#45;&gt;Node5 -->
<g id="edge4" class="edge">
<title>Node3&#45;&gt;Node5</title>
<path fill="none" stroke="midnightblue" d="M754.14,-391.12C787.5,-391.01 823.26,-390.89 854.7,-390.79"/>
<polygon fill="midnightblue" stroke="midnightblue" points="854.76,-394.29 864.75,-390.76 854.74,-387.29 854.76,-394.29"/>
</g>
<!-- Node6&#45;&gt;Node4 -->
<g id="edge7" class="edge">
<title>Node6&#45;&gt;Node4</title>
<path fill="none" stroke="midnightblue" d="M783.26,-438.02C794.45,-437.99 805.68,-437.95 816.74,-437.92"/>
<polygon fill="midnightblue" stroke="midnightblue" points="816.84,-441.41 826.83,-437.88 816.82,-434.41 816.84,-441.41"/>
</g>
<!-- Node6&#45;&gt;Node5 -->
<g id="edge8" class="edge">
<title>Node6&#45;&gt;Node5</title>
<path fill="none" stroke="midnightblue" d="M726.21,-424.49C766.69,-418.2 814.33,-410.8 854.81,-404.51"/>
<polygon fill="midnightblue" stroke="midnightblue" points="855.59,-407.93 864.94,-402.94 854.52,-401.01 855.59,-407.93"/>
</g>
<!-- Node6&#45;&gt;Node7 -->
<g id="edge6" class="edge">
<title>Node6&#45;&gt;Node7</title>
<path fill="none" stroke="midnightblue" d="M730.39,-452.55C769.08,-458.31 813.74,-464.96 852.26,-470.69"/>
<polygon fill="midnightblue" stroke="midnightblue" points="852.03,-474.2 862.43,-472.21 853.06,-467.27 852.03,-474.2"/>
</g>
<!-- Node9 -->
<g id="node9" class="node">
<title>Node9</title>
<g id="a_node9"><a xlink:href="../../db/d69/class_app_base_class_aa989ddf4bdc4cbd9a61791ca45082177.html#aa989ddf4bdc4cbd9a61791ca45082177" target="_top" xlink:title="Compares the name_string to the app class instance name (string)">
<polygon fill="none" stroke="black" points="532.5,-262.5 532.5,-290.5 737.5,-290.5 737.5,-262.5 532.5,-262.5"/>
<text text-anchor="middle" x="635" y="-272.1" font-family="Helvetica,sans-Serif" font-size="18.00">AppBaseClass::isName</text>
</a>
</g>
</g>
<!-- Node8&#45;&gt;Node9 -->
<g id="edge12" class="edge">
<title>Node8&#45;&gt;Node9</title>
<path fill="none" stroke="midnightblue" d="M451.43,-276.5C474.85,-276.5 499.14,-276.5 522.06,-276.5"/>
<polygon fill="midnightblue" stroke="midnightblue" points="522.14,-280 532.14,-276.5 522.14,-273 522.14,-280"/>
</g>
<!-- Node11 -->
<g id="node11" class="node">
<title>Node11</title>
<g id="a_node11"><a xlink:href="../../da/d96/class_app_manager_a9439da981933119c49a83a507d64eb23.html#a9439da981933119c49a83a507d64eb23" target="_top" xlink:title="Construct a new App Manager:: App Manager object using a private constructor (lazy singleton pattern)">
<polygon fill="none" stroke="black" points="518.5,-188.5 518.5,-216.5 751.5,-216.5 751.5,-188.5 518.5,-188.5"/>
<text text-anchor="middle" x="635" y="-198.1" font-family="Helvetica,sans-Serif" font-size="18.00">AppManager::AppManager</text>
</a>
</g>
</g>
<!-- Node10&#45;&gt;Node11 -->
<g id="edge14" class="edge">
<title>Node10&#45;&gt;Node11</title>
<path fill="none" stroke="midnightblue" d="M435.04,-219.83C458.68,-217.77 483.81,-215.58 507.96,-213.48"/>
<polygon fill="midnightblue" stroke="midnightblue" points="508.58,-216.94 518.24,-212.58 507.98,-209.96 508.58,-216.94"/>
</g>
<!-- Node12 -->
<g id="node12" class="node">
<title>Node12</title>
<g id="a_node12"><a xlink:href="../../d8/d5a/class_i_l_i9341__t3___e_r_i_s_ad48711d2b7b847c3dbb5782d251ae3c0.html#ad48711d2b7b847c3dbb5782d251ae3c0" target="_top" xlink:title=" ">
<polygon fill="none" stroke="black" points="843,-282.5 843,-310.5 1049,-310.5 1049,-282.5 843,-282.5"/>
<text text-anchor="middle" x="946" y="-292.1" font-family="Helvetica,sans-Serif" font-size="18.00">ILI9341_t3_ERIS::begin</text>
</a>
</g>
</g>
<!-- Node11&#45;&gt;Node12 -->
<g id="edge15" class="edge">
<title>Node11&#45;&gt;Node12</title>
<path fill="none" stroke="midnightblue" d="M683.14,-216.56C712.38,-225.84 750.45,-238.94 783,-253.5 799.71,-260.97 801.77,-267.33 819,-273.5 825.47,-275.82 832.21,-277.91 839.07,-279.8"/>
<polygon fill="midnightblue" stroke="midnightblue" points="838.62,-283.3 849.18,-282.42 840.38,-276.52 838.62,-283.3"/>
</g>
<!-- Node13 -->
<g id="node13" class="node">
<title>Node13</title>
<g id="a_node13"><a xlink:href="../../d1/dff/class_touch_a057f1914b96362769a5384dbbfdb4195.html#a057f1914b96362769a5384dbbfdb4195" target="_top" xlink:title=" ">
<polygon fill="none" stroke="black" points="885,-235.5 885,-263.5 1007,-263.5 1007,-235.5 885,-235.5"/>
<text text-anchor="middle" x="946" y="-245.1" font-family="Helvetica,sans-Serif" font-size="18.00">Touch::begin</text>
</a>
</g>
</g>
<!-- Node11&#45;&gt;Node13 -->
<g id="edge16" class="edge">
<title>Node11&#45;&gt;Node13</title>
<path fill="none" stroke="midnightblue" d="M728.29,-216.54C775.31,-223.69 831.56,-232.25 874.97,-238.85"/>
<polygon fill="midnightblue" stroke="midnightblue" points="874.45,-242.31 884.87,-240.35 875.51,-235.39 874.45,-242.31"/>
</g>
<!-- Node14 -->
<g id="node14" class="node">
<title>Node14</title>
<g id="a_node14"><a xlink:href="../../dc/d43/class_svc_data_dictionary_a3b09dc582adbb4d5c6f99f6e983a81f1.html#a3b09dc582adbb4d5c6f99f6e983a81f1" target="_top" xlink:title="create a record with ownership">
<polygon fill="none" stroke="black" points="834.5,-188.5 834.5,-216.5 1057.5,-216.5 1057.5,-188.5 834.5,-188.5"/>
<text text-anchor="middle" x="946" y="-198.1" font-family="Helvetica,sans-Serif" font-size="18.00">SvcDataDictionary::create</text>
</a>
</g>
</g>
<!-- Node11&#45;&gt;Node14 -->
<g id="edge17" class="edge">
<title>Node11&#45;&gt;Node14</title>
<path fill="none" stroke="midnightblue" d="M751.94,-202.5C775.54,-202.5 800.42,-202.5 824.19,-202.5"/>
<polygon fill="midnightblue" stroke="midnightblue" points="824.3,-206 834.3,-202.5 824.3,-199 824.3,-206"/>
</g>
<!-- Node17 -->
<g id="node17" class="node">
<title>Node17</title>
<g id="a_node17"><a xlink:href="../../d1/dff/class_touch_a61a5d056f07ab08cb5924fa573dc3497.html#a61a5d056f07ab08cb5924fa573dc3497" target="_top" xlink:title=" ">
<polygon fill="none" stroke="black" points="827,-141.5 827,-169.5 1065,-169.5 1065,-141.5 827,-141.5"/>
<text text-anchor="middle" x="946" y="-151.1" font-family="Helvetica,sans-Serif" font-size="18.00">Touch::setCalibrationInputs</text>
</a>
</g>
</g>
<!-- Node11&#45;&gt;Node17 -->
<g id="edge20" class="edge">
<title>Node11&#45;&gt;Node17</title>
<path fill="none" stroke="midnightblue" d="M728.29,-188.46C764.3,-182.99 805.71,-176.69 842.63,-171.07"/>
<polygon fill="midnightblue" stroke="midnightblue" points="843.56,-174.47 852.92,-169.51 842.5,-167.55 843.56,-174.47"/>
</g>
<!-- Node18 -->
<g id="node18" class="node">
<title>Node18</title>
<g id="a_node18"><a xlink:href="../../d4/d7c/class_animation_a997d1203ae9418f121f355a5bd0700f0.html#a997d1203ae9418f121f355a5bd0700f0" target="_top" xlink:title=" ">
<polygon fill="none" stroke="black" points="862,-94.5 862,-122.5 1030,-122.5 1030,-94.5 862,-94.5"/>
<text text-anchor="middle" x="946" y="-104.1" font-family="Helvetica,sans-Serif" font-size="18.00">Animation::setPath</text>
</a>
</g>
</g>
<!-- Node11&#45;&gt;Node18 -->
<g id="edge21" class="edge">
<title>Node11&#45;&gt;Node18</title>
<path fill="none" stroke="midnightblue" d="M666.8,-188.47C702.68,-172.62 764.07,-147.02 819,-131.5 829.59,-128.51 840.8,-125.81 851.99,-123.41"/>
<polygon fill="midnightblue" stroke="midnightblue" points="852.72,-126.83 861.8,-121.38 851.3,-119.98 852.72,-126.83"/>
</g>
<!-- Node19 -->
<g id="node19" class="node">
<title>Node19</title>
<g id="a_node19"><a xlink:href="../../d8/d5a/class_i_l_i9341__t3___e_r_i_s_a449053e8db3672d4902d76f093e52b14.html#a449053e8db3672d4902d76f093e52b14" target="_top" xlink:title=" ">
<polygon fill="none" stroke="black" points="819,-47.5 819,-75.5 1073,-75.5 1073,-47.5 819,-47.5"/>
<text text-anchor="middle" x="946" y="-57.1" font-family="Helvetica,sans-Serif" font-size="18.00">ILI9341_t3_ERIS::setPWMPin</text>
</a>
</g>
</g>
<!-- Node11&#45;&gt;Node19 -->
<g id="edge22" class="edge">
<title>Node11&#45;&gt;Node19</title>
<path fill="none" stroke="midnightblue" d="M652.9,-188.28C683.76,-163.12 752.21,-110.92 819,-84.5 824.77,-82.22 830.77,-80.16 836.9,-78.31"/>
<polygon fill="midnightblue" stroke="midnightblue" points="837.94,-81.65 846.6,-75.56 836.03,-74.92 837.94,-81.65"/>
</g>
<!-- Node20 -->
<g id="node20" class="node">
<title>Node20</title>
<g id="a_node20"><a xlink:href="../../d4/d7c/class_animation_a8475c70c384b7e488cff185e7bcb5dd7.html#a8475c70c384b7e488cff185e7bcb5dd7" target="_top" xlink:title=" ">
<polygon fill="none" stroke="black" points="868.5,-0.5 868.5,-28.5 1023.5,-28.5 1023.5,-0.5 868.5,-0.5"/>
<text text-anchor="middle" x="946" y="-10.1" font-family="Helvetica,sans-Serif" font-size="18.00">Animation::setSD</text>
</a>
</g>
</g>
<!-- Node11&#45;&gt;Node20 -->
<g id="edge23" class="edge">
<title>Node11&#45;&gt;Node20</title>
<path fill="none" stroke="midnightblue" d="M647.03,-188.18C673.03,-155.52 741.84,-75.45 819,-37.5 831.2,-31.5 844.77,-27.05 858.34,-23.76"/>
<polygon fill="midnightblue" stroke="midnightblue" points="859.21,-27.15 868.21,-21.56 857.69,-20.32 859.21,-27.15"/>
</g>
<!-- Node21 -->
<g id="node21" class="node">
<title>Node21</title>
<g id="a_node21"><a xlink:href="../../d8/d5a/class_i_l_i9341__t3___e_r_i_s_a8e35cc006a1235c71cb344af9df65e1e.html#a8e35cc006a1235c71cb344af9df65e1e" target="_top" xlink:title=" ">
<polygon fill="none" stroke="black" points="841.5,-329.5 841.5,-357.5 1050.5,-357.5 1050.5,-329.5 841.5,-329.5"/>
<text text-anchor="middle" x="946" y="-339.1" font-family="Helvetica,sans-Serif" font-size="18.00">ILI9341_t3_ERIS::setSD</text>
</a>
</g>
</g>
<!-- Node11&#45;&gt;Node21 -->
<g id="edge24" class="edge">
<title>Node11&#45;&gt;Node21</title>
<path fill="none" stroke="midnightblue" d="M709.95,-216.6C735.24,-224.25 762.34,-235.89 783,-253.5 808.73,-275.43 791.67,-300.61 819,-320.5 823.16,-323.53 827.6,-326.2 832.24,-328.55"/>
<polygon fill="midnightblue" stroke="midnightblue" points="830.81,-331.75 841.37,-332.69 833.7,-325.37 830.81,-331.75"/>
</g>
<!-- Node15 -->
<g id="node15" class="node">
<title>Node15</title>
<g id="a_node15"><a xlink:href="../../dc/d43/class_svc_data_dictionary_a7c7bd48b97fbcf18ef64337e12022619.html#a7c7bd48b97fbcf18ef64337e12022619" target="_top" xlink:title=" ">
<polygon fill="none" stroke="black" points="1109,-211.5 1109,-239.5 1351,-239.5 1351,-211.5 1109,-211.5"/>
<text text-anchor="middle" x="1230" y="-221.1" font-family="Helvetica,sans-Serif" font-size="18.00">SvcDataDictionary::copyKey</text>
</a>
</g>
</g>
<!-- Node14&#45;&gt;Node15 -->
<g id="edge18" class="edge">
<title>Node14&#45;&gt;Node15</title>
<path fill="none" stroke="midnightblue" d="M1057.64,-211.52C1071.18,-212.63 1085.1,-213.76 1098.89,-214.89"/>
<polygon fill="midnightblue" stroke="midnightblue" points="1098.65,-218.38 1108.9,-215.7 1099.21,-211.4 1098.65,-218.38"/>
</g>
<!-- Node16 -->
<g id="node16" class="node">
<title>Node16</title>
<g id="a_node16"><a xlink:href="../../dc/d43/class_svc_data_dictionary_ac4b80e87e8e9cf82926af2105b4e424a.html#ac4b80e87e8e9cf82926af2105b4e424a" target="_top" xlink:title="hashing function used to accelerate searches">
<polygon fill="none" stroke="black" points="1123.5,-164.5 1123.5,-192.5 1336.5,-192.5 1336.5,-164.5 1123.5,-164.5"/>
<text text-anchor="middle" x="1230" y="-174.1" font-family="Helvetica,sans-Serif" font-size="18.00">SvcDataDictionary::hash</text>
</a>
</g>
</g>
<!-- Node14&#45;&gt;Node16 -->
<g id="edge19" class="edge">
<title>Node14&#45;&gt;Node16</title>
<path fill="none" stroke="midnightblue" d="M1057.64,-193.08C1075.87,-191.53 1094.81,-189.92 1113.16,-188.36"/>
<polygon fill="midnightblue" stroke="midnightblue" points="1113.62,-191.83 1123.29,-187.5 1113.02,-184.86 1113.62,-191.83"/>
</g>
</g>
</svg>
        <g id="navigator" transform="translate(0 0)" fill="#404254">
                <rect fill="#f2f5e9" fill-opacity="0.5" stroke="#606060" stroke-width=".5" x="0" y="0" width="60" height="60"/>
                <use id="zoomplus" xlink:href="#zoomPlus" x="17" y="9" onmousedown="handleZoom(evt,'in')"/>
                <use id="zoomminus" xlink:href="#zoomMin" x="42" y="9" onmousedown="handleZoom(evt,'out')"/>
                <use id="reset" xlink:href="#resetDef" x="30" y="36" onmousedown="handleReset()"/>
                <g id="arrowUp" xlink:href="#dirArrow" transform="translate(30 24)" onmousedown="handlePan(0,-1)">
                  <use xlink:href="#rim" fill="#404040">
                        <set attributeName="fill" to="#808080" begin="arrowUp.mouseover" end="arrowUp.mouseout"/>
                  </use>
                  <path fill="none" stroke="white" stroke-width="1.5" d="M0,-3.0v7 M-2.5,-0.5L0,-3.0L2.5,-0.5"/>
                </g>
                <g id="arrowRight" xlink:href="#dirArrow" transform="rotate(90) translate(36 -43)" onmousedown="handlePan(1,0)">
                  <use xlink:href="#rim" fill="#404040">
                        <set attributeName="fill" to="#808080" begin="arrowRight.mouseover" end="arrowRight.mouseout"/>
                  </use>
                  <path fill="none" stroke="white" stroke-width="1.5" d="M0,-3.0v7 M-2.5,-0.5L0,-3.0L2.5,-0.5"/>
                </g>
                <g id="arrowDown" xlink:href="#dirArrow" transform="rotate(180) translate(-30 -48)" onmousedown="handlePan(0,1)">
                  <use xlink:href="#rim" fill="#404040">
                        <set attributeName="fill" to="#808080" begin="arrowDown.mouseover" end="arrowDown.mouseout"/>
                  </use>
                  <path fill="none" stroke="white" stroke-width="1.5" d="M0,-3.0v7 M-2.5,-0.5L0,-3.0L2.5,-0.5"/>
                </g>
                <g id="arrowLeft" xlink:href="#dirArrow" transform="rotate(270) translate(-36 17)" onmousedown="handlePan(-1,0)">
                  <use xlink:href="#rim" fill="#404040">
                        <set attributeName="fill" to="#808080" begin="arrowLeft.mouseover" end="arrowLeft.mouseout"/>
                  </use>
                  <path fill="none" stroke="white" stroke-width="1.5" d="M0,-3.0v7 M-2.5,-0.5L0,-3.0L2.5,-0.5"/>
                </g>
        </g>
        <svg viewBox="0 0 15 15" width="100%" height="30px" preserveAspectRatio="xMaxYMin meet">
         <g id="arrow_out" transform="scale(0.3 0.3)">
          <a xlink:href="_app_wren_8cpp_a1f62a053a4e57d9fb4db0f1eb831fe27_a1f62a053a4e57d9fb4db0f1eb831fe27_cgraph_org.svg" target="_base">
           <rect id="button" ry="5" rx="5" y="6" x="6" height="38" width="38"
                fill="#f2f5e9" fill-opacity="0.5" stroke="#606060" stroke-width="1.0"/>
           <path id="arrow"
             d="M 11.500037,31.436501 C 11.940474,20.09759 22.043105,11.32322 32.158766,21.979434 L 37.068811,17.246167 C 37.068811,17.246167 37.088388,32 37.088388,32 L 22.160133,31.978069 C 22.160133,31.978069 26.997745,27.140456 26.997745,27.140456 C 18.528582,18.264221 13.291696,25.230495 11.500037,31.436501 z"
             style="fill:#404040;"/>
          </a>
         </g>
        </svg>
</svg>
