<?xml version="1.0" encoding="UTF-8" standalone="no"?>
<!DOCTYPE svg PUBLIC "-//W3C//DTD SVG 1.1//EN"
 "http://www.w3.org/Graphics/SVG/1.1/DTD/svg11.dtd">
<!-- Generated by graphviz version 2.47.3 (20210619.1520)
 -->
<!-- Title: loadModule Pages: 1 -->
<!--zoomable 366 -->
<svg id="main" version="1.1" xmlns="http://www.w3.org/2000/svg" xmlns:xlink="http://www.w3.org/1999/xlink" xml:space="preserve" onload="init(evt)">
<style type="text/css"><![CDATA[
.edge:hover path { stroke: red; }
.edge:hover polygon { stroke: red; fill: red; }
]]></style>
<script type="text/javascript"><![CDATA[
var edges = document.getElementsByTagName('g');
if (edges && edges.length) {
  for (var i=0;i<edges.length;i++) {
    if (edges[i].id.substr(0,4)=='edge') {
      edges[i].setAttribute('class','edge');
    }
  }
}
]]></script>
        <defs>
                <circle id="rim" cx="0" cy="0" r="7"/>
                <circle id="rim2" cx="0" cy="0" r="3.5"/>
                <g id="zoomPlus">
                        <use xlink:href="#rim" fill="#404040">
                                <set attributeName="fill" to="#808080" begin="zoomplus.mouseover" end="zoomplus.mouseout"/>
                        </use>
                        <path d="M-4,0h8M0,-4v8" fill="none" stroke="white" stroke-width="1.5" pointer-events="none"/>
                </g>
                <g id="zoomMin">
                        <use xlink:href="#rim" fill="#404040">
                                <set attributeName="fill" to="#808080" begin="zoomminus.mouseover" end="zoomminus.mouseout"/>
                        </use>
                        <path d="M-4,0h8" fill="none" stroke="white" stroke-width="1.5" pointer-events="none"/>
                </g>
                <g id="dirArrow">
                        <path fill="none" stroke="white" stroke-width="1.5" d="M0,-3.0v7 M-2.5,-0.5L0,-3.0L2.5,-0.5"/>
                </g>
               <g id="resetDef">
                       <use xlink:href="#rim2" fill="#404040">
                               <set attributeName="fill" to="#808080" begin="reset.mouseover" end="reset.mouseout"/>
                       </use>
               </g>
        </defs>

<script type="text/javascript">
var viewWidth = 1471;
var viewHeight = 366;
var sectionId = 'dynsection-0';
</script>
<script xlink:href="../../svgpan.js"/>
<svg id="graph" class="graph">
<g id="viewport">
<title>loadModule</title>
<!-- Node1 -->
<g id="node1" class="node">
<title>Node1</title>
<g id="a_node1"><a xlink:title="callback for the VM to request a module be loaded from the filesystem">
<polygon fill="#bfbfbf" stroke="black" points="0,-187.5 0,-215.5 110,-215.5 110,-187.5 0,-187.5"/>
<text text-anchor="middle" x="55" y="-197.1" font-family="Helvetica,sans-Serif" font-size="18.00">loadModule</text>
</a>
</g>
</g>
<!-- Node2 -->
<g id="node2" class="node">
<title>Node2</title>
<g id="a_node2"><a xlink:href="../../d7/d7e/_app_wren_8cpp_a2469bc30d12bb4b85e4a318a873ec7be.html#a2469bc30d12bb4b85e4a318a873ec7be" target="_top" xlink:title="Get the Source For Module object requested by the Wren VM.">
<polygon fill="none" stroke="black" points="147.5,-164.5 147.5,-192.5 332.5,-192.5 332.5,-164.5 147.5,-164.5"/>
<text text-anchor="middle" x="240" y="-174.1" font-family="Helvetica,sans-Serif" font-size="18.00">getSourceForModule</text>
</a>
</g>
</g>
<!-- Node1&#45;&gt;Node2 -->
<g id="edge1" class="edge">
<title>Node1&#45;&gt;Node2</title>
<path fill="none" stroke="midnightblue" d="M110.41,-194.66C119,-193.58 128.11,-192.44 137.37,-191.27"/>
<polygon fill="midnightblue" stroke="midnightblue" points="137.96,-194.73 147.44,-190.01 137.08,-187.78 137.96,-194.73"/>
</g>
<!-- Node19 -->
<g id="node19" class="node">
<title>Node19</title>
<g id="a_node19"><a xlink:href="../../d7/d7e/_app_wren_8cpp_a085afb683548c1082208ee513452dd24.html#a085afb683548c1082208ee513452dd24" target="_top" xlink:title="callback function for the VM to indicate to the system that it&#39;s ok to release any memory allocated d...">
<polygon fill="none" stroke="black" points="146,-211.5 146,-239.5 334,-239.5 334,-211.5 146,-211.5"/>
<text text-anchor="middle" x="240" y="-221.1" font-family="Helvetica,sans-Serif" font-size="18.00">loadModuleComplete</text>
</a>
</g>
</g>
<!-- Node1&#45;&gt;Node19 -->
<g id="edge18" class="edge">
<title>Node1&#45;&gt;Node19</title>
<path fill="none" stroke="midnightblue" d="M110.41,-208.64C118.44,-209.69 126.92,-210.8 135.55,-211.93"/>
<polygon fill="midnightblue" stroke="midnightblue" points="135.36,-215.44 145.73,-213.27 136.27,-208.5 135.36,-215.44"/>
</g>
<!-- Node3 -->
<g id="node3" class="node">
<title>Node3</title>
<g id="a_node3"><a xlink:href="../../da/d96/class_app_manager_a08daaf40a3ddaa938603039eb1e67d09.html#a08daaf40a3ddaa938603039eb1e67d09" target="_top" xlink:title="Get the App pointer By Name. Returns NULL if not found.">
<polygon fill="none" stroke="black" points="370,-211.5 370,-239.5 626,-239.5 626,-211.5 370,-211.5"/>
<text text-anchor="middle" x="498" y="-221.1" font-family="Helvetica,sans-Serif" font-size="18.00">AppManager::getAppByName</text>
</a>
</g>
</g>
<!-- Node2&#45;&gt;Node3 -->
<g id="edge2" class="edge">
<title>Node2&#45;&gt;Node3</title>
<path fill="none" stroke="midnightblue" d="M317.46,-192.54C346.72,-197.91 380.28,-204.07 410.41,-209.6"/>
<polygon fill="midnightblue" stroke="midnightblue" points="410.02,-213.09 420.49,-211.45 411.29,-206.2 410.02,-213.09"/>
</g>
<!-- Node5 -->
<g id="node5" class="node">
<title>Node5</title>
<g id="a_node5"><a xlink:href="../../da/d96/class_app_manager_aa76d9691e8d029656413590fbe4dee86.html#aa76d9691e8d029656413590fbe4dee86" target="_top" xlink:title=" ">
<polygon fill="none" stroke="black" points="386,-164.5 386,-192.5 610,-192.5 610,-164.5 386,-164.5"/>
<text text-anchor="middle" x="498" y="-174.1" font-family="Helvetica,sans-Serif" font-size="18.00">AppManager::getInstance</text>
</a>
</g>
</g>
<!-- Node2&#45;&gt;Node5 -->
<g id="edge4" class="edge">
<title>Node2&#45;&gt;Node5</title>
<path fill="none" stroke="midnightblue" d="M332.7,-178.5C346.69,-178.5 361.31,-178.5 375.81,-178.5"/>
<polygon fill="midnightblue" stroke="midnightblue" points="375.82,-182 385.82,-178.5 375.82,-175 375.82,-182"/>
</g>
<!-- Node17 -->
<g id="node17" class="node">
<title>Node17</title>
<g id="a_node17"><a xlink:href="../../d0/da0/class_app_wren_a4004b3e5ab5e04b4dd8ab3e6bcde2baf.html#a4004b3e5ab5e04b4dd8ab3e6bcde2baf" target="_top" xlink:title="receiver for the wren c callback function getSourceForModule">
<polygon fill="none" stroke="black" points="371,-117.5 371,-145.5 625,-145.5 625,-117.5 371,-117.5"/>
<text text-anchor="middle" x="498" y="-127.1" font-family="Helvetica,sans-Serif" font-size="18.00">AppWren::loadModuleSource</text>
</a>
</g>
</g>
<!-- Node2&#45;&gt;Node17 -->
<g id="edge16" class="edge">
<title>Node2&#45;&gt;Node17</title>
<path fill="none" stroke="midnightblue" d="M316.02,-164.48C333.72,-161.19 352.52,-157.71 370,-154.5 382.64,-152.18 396,-149.74 409.11,-147.36"/>
<polygon fill="midnightblue" stroke="midnightblue" points="409.87,-150.78 419.08,-145.55 408.61,-143.89 409.87,-150.78"/>
</g>
<!-- Node4 -->
<g id="node4" class="node">
<title>Node4</title>
<g id="a_node4"><a xlink:href="../../db/d69/class_app_base_class_aa989ddf4bdc4cbd9a61791ca45082177.html#aa989ddf4bdc4cbd9a61791ca45082177" target="_top" xlink:title="Compares the name_string to the app class instance name (string)">
<polygon fill="none" stroke="black" points="676,-211.5 676,-239.5 881,-239.5 881,-211.5 676,-211.5"/>
<text text-anchor="middle" x="778.5" y="-221.1" font-family="Helvetica,sans-Serif" font-size="18.00">AppBaseClass::isName</text>
</a>
</g>
</g>
<!-- Node3&#45;&gt;Node4 -->
<g id="edge3" class="edge">
<title>Node3&#45;&gt;Node4</title>
<path fill="none" stroke="midnightblue" d="M626.03,-225.5C639.16,-225.5 652.43,-225.5 665.38,-225.5"/>
<polygon fill="midnightblue" stroke="midnightblue" points="665.69,-229 675.69,-225.5 665.69,-222 665.69,-229"/>
</g>
<!-- Node6 -->
<g id="node6" class="node">
<title>Node6</title>
<g id="a_node6"><a xlink:href="../../da/d96/class_app_manager_a9439da981933119c49a83a507d64eb23.html#a9439da981933119c49a83a507d64eb23" target="_top" xlink:title="Construct a new App Manager:: App Manager object using a private constructor (lazy singleton pattern)">
<polygon fill="none" stroke="black" points="662,-164.5 662,-192.5 895,-192.5 895,-164.5 662,-164.5"/>
<text text-anchor="middle" x="778.5" y="-174.1" font-family="Helvetica,sans-Serif" font-size="18.00">AppManager::AppManager</text>
</a>
</g>
</g>
<!-- Node5&#45;&gt;Node6 -->
<g id="edge5" class="edge">
<title>Node5&#45;&gt;Node6</title>
<path fill="none" stroke="midnightblue" d="M610.27,-178.5C623.93,-178.5 637.96,-178.5 651.8,-178.5"/>
<polygon fill="midnightblue" stroke="midnightblue" points="651.85,-182 661.85,-178.5 651.85,-175 651.85,-182"/>
</g>
<!-- Node7 -->
<g id="node7" class="node">
<title>Node7</title>
<g id="a_node7"><a xlink:href="../../d8/d5a/class_i_l_i9341__t3___e_r_i_s_ad48711d2b7b847c3dbb5782d251ae3c0.html#ad48711d2b7b847c3dbb5782d251ae3c0" target="_top" xlink:title=" ">
<polygon fill="none" stroke="black" points="955,-329.5 955,-357.5 1161,-357.5 1161,-329.5 955,-329.5"/>
<text text-anchor="middle" x="1058" y="-339.1" font-family="Helvetica,sans-Serif" font-size="18.00">ILI9341_t3_ERIS::begin</text>
</a>
</g>
</g>
<!-- Node6&#45;&gt;Node7 -->
<g id="edge6" class="edge">
<title>Node6&#45;&gt;Node7</title>
<path fill="none" stroke="midnightblue" d="M882.93,-192.65C887.23,-195.2 891.29,-198.13 895,-201.5 935.92,-238.63 889.78,-283.7 931,-320.5 935.52,-324.53 940.5,-327.97 945.79,-330.88"/>
<polygon fill="midnightblue" stroke="midnightblue" points="944.45,-334.12 954.98,-335.32 947.5,-327.82 944.45,-334.12"/>
</g>
<!-- Node8 -->
<g id="node8" class="node">
<title>Node8</title>
<g id="a_node8"><a xlink:href="../../d1/dff/class_touch_a057f1914b96362769a5384dbbfdb4195.html#a057f1914b96362769a5384dbbfdb4195" target="_top" xlink:title=" ">
<polygon fill="none" stroke="black" points="997,-282.5 997,-310.5 1119,-310.5 1119,-282.5 997,-282.5"/>
<text text-anchor="middle" x="1058" y="-292.1" font-family="Helvetica,sans-Serif" font-size="18.00">Touch::begin</text>
</a>
</g>
</g>
<!-- Node6&#45;&gt;Node8 -->
<g id="edge7" class="edge">
<title>Node6&#45;&gt;Node8</title>
<path fill="none" stroke="midnightblue" d="M880.3,-192.5C885.49,-195.06 890.44,-198.04 895,-201.5 923.19,-222.88 902.73,-251.23 931,-272.5 946.91,-284.47 967.08,-291 986.59,-294.44"/>
<polygon fill="midnightblue" stroke="midnightblue" points="986.3,-297.94 996.71,-295.97 987.34,-291.02 986.3,-297.94"/>
</g>
<!-- Node9 -->
<g id="node9" class="node">
<title>Node9</title>
<g id="a_node9"><a xlink:href="../../dc/d43/class_svc_data_dictionary_a3b09dc582adbb4d5c6f99f6e983a81f1.html#a3b09dc582adbb4d5c6f99f6e983a81f1" target="_top" xlink:title="create a record with ownership">
<polygon fill="none" stroke="black" points="946.5,-235.5 946.5,-263.5 1169.5,-263.5 1169.5,-235.5 946.5,-235.5"/>
<text text-anchor="middle" x="1058" y="-245.1" font-family="Helvetica,sans-Serif" font-size="18.00">SvcDataDictionary::create</text>
</a>
</g>
</g>
<!-- Node6&#45;&gt;Node9 -->
<g id="edge8" class="edge">
<title>Node6&#45;&gt;Node9</title>
<path fill="none" stroke="midnightblue" d="M868.53,-192.53C877.62,-195.06 886.59,-198.02 895,-201.5 912.77,-208.85 913.2,-218.22 931,-225.5 937.59,-228.19 944.5,-230.59 951.54,-232.72"/>
<polygon fill="midnightblue" stroke="midnightblue" points="950.64,-236.1 961.22,-235.46 952.55,-229.37 950.64,-236.1"/>
</g>
<!-- Node12 -->
<g id="node12" class="node">
<title>Node12</title>
<g id="a_node12"><a xlink:href="../../d1/dff/class_touch_a61a5d056f07ab08cb5924fa573dc3497.html#a61a5d056f07ab08cb5924fa573dc3497" target="_top" xlink:title=" ">
<polygon fill="none" stroke="black" points="939,-188.5 939,-216.5 1177,-216.5 1177,-188.5 939,-188.5"/>
<text text-anchor="middle" x="1058" y="-198.1" font-family="Helvetica,sans-Serif" font-size="18.00">Touch::setCalibrationInputs</text>
</a>
</g>
</g>
<!-- Node6&#45;&gt;Node12 -->
<g id="edge11" class="edge">
<title>Node6&#45;&gt;Node12</title>
<path fill="none" stroke="midnightblue" d="M895.18,-188.5C906.22,-189.46 917.47,-190.43 928.62,-191.4"/>
<polygon fill="midnightblue" stroke="midnightblue" points="928.57,-194.91 938.83,-192.28 929.17,-187.93 928.57,-194.91"/>
</g>
<!-- Node13 -->
<g id="node13" class="node">
<title>Node13</title>
<g id="a_node13"><a xlink:href="../../d4/d7c/class_animation_a997d1203ae9418f121f355a5bd0700f0.html#a997d1203ae9418f121f355a5bd0700f0" target="_top" xlink:title=" ">
<polygon fill="none" stroke="black" points="974,-141.5 974,-169.5 1142,-169.5 1142,-141.5 974,-141.5"/>
<text text-anchor="middle" x="1058" y="-151.1" font-family="Helvetica,sans-Serif" font-size="18.00">Animation::setPath</text>
</a>
</g>
</g>
<!-- Node6&#45;&gt;Node13 -->
<g id="edge12" class="edge">
<title>Node6&#45;&gt;Node13</title>
<path fill="none" stroke="midnightblue" d="M895.18,-168.91C918,-167.02 941.69,-165.06 963.66,-163.24"/>
<polygon fill="midnightblue" stroke="midnightblue" points="963.95,-166.72 973.63,-162.41 963.37,-159.75 963.95,-166.72"/>
</g>
<!-- Node14 -->
<g id="node14" class="node">
<title>Node14</title>
<g id="a_node14"><a xlink:href="../../d8/d5a/class_i_l_i9341__t3___e_r_i_s_a449053e8db3672d4902d76f093e52b14.html#a449053e8db3672d4902d76f093e52b14" target="_top" xlink:title=" ">
<polygon fill="none" stroke="black" points="931,-94.5 931,-122.5 1185,-122.5 1185,-94.5 931,-94.5"/>
<text text-anchor="middle" x="1058" y="-104.1" font-family="Helvetica,sans-Serif" font-size="18.00">ILI9341_t3_ERIS::setPWMPin</text>
</a>
</g>
</g>
<!-- Node6&#45;&gt;Node14 -->
<g id="edge13" class="edge">
<title>Node6&#45;&gt;Node14</title>
<path fill="none" stroke="midnightblue" d="M864.77,-164.47C875.13,-161.7 885.42,-158.4 895,-154.5 912.58,-147.34 913.33,-138.45 931,-131.5 936.84,-129.2 942.92,-127.14 949.13,-125.27"/>
<polygon fill="midnightblue" stroke="midnightblue" points="950.27,-128.58 958.95,-122.51 948.38,-121.85 950.27,-128.58"/>
</g>
<!-- Node15 -->
<g id="node15" class="node">
<title>Node15</title>
<g id="a_node15"><a xlink:href="../../d4/d7c/class_animation_a8475c70c384b7e488cff185e7bcb5dd7.html#a8475c70c384b7e488cff185e7bcb5dd7" target="_top" xlink:title=" ">
<polygon fill="none" stroke="black" points="980.5,-47.5 980.5,-75.5 1135.5,-75.5 1135.5,-47.5 980.5,-47.5"/>
<text text-anchor="middle" x="1058" y="-57.1" font-family="Helvetica,sans-Serif" font-size="18.00">Animation::setSD</text>
</a>
</g>
</g>
<!-- Node6&#45;&gt;Node15 -->
<g id="edge14" class="edge">
<title>Node6&#45;&gt;Node15</title>
<path fill="none" stroke="midnightblue" d="M878.62,-164.38C884.42,-161.61 889.95,-158.34 895,-154.5 922.84,-133.32 902.9,-105.34 931,-84.5 942.61,-75.89 956.45,-70.17 970.63,-66.43"/>
<polygon fill="midnightblue" stroke="midnightblue" points="971.53,-69.81 980.48,-64.14 969.95,-62.99 971.53,-69.81"/>
</g>
<!-- Node16 -->
<g id="node16" class="node">
<title>Node16</title>
<g id="a_node16"><a xlink:href="../../d8/d5a/class_i_l_i9341__t3___e_r_i_s_a8e35cc006a1235c71cb344af9df65e1e.html#a8e35cc006a1235c71cb344af9df65e1e" target="_top" xlink:title=" ">
<polygon fill="none" stroke="black" points="953.5,-0.5 953.5,-28.5 1162.5,-28.5 1162.5,-0.5 953.5,-0.5"/>
<text text-anchor="middle" x="1058" y="-10.1" font-family="Helvetica,sans-Serif" font-size="18.00">ILI9341_t3_ERIS::setSD</text>
</a>
</g>
</g>
<!-- Node6&#45;&gt;Node16 -->
<g id="edge15" class="edge">
<title>Node6&#45;&gt;Node16</title>
<path fill="none" stroke="midnightblue" d="M881.07,-164.49C886.07,-161.66 890.76,-158.36 895,-154.5 935.23,-117.87 890.33,-73.64 931,-37.5 935.16,-33.81 939.7,-30.62 944.52,-27.87"/>
<polygon fill="midnightblue" stroke="midnightblue" points="946.1,-30.99 953.47,-23.37 942.96,-24.73 946.1,-30.99"/>
</g>
<!-- Node10 -->
<g id="node10" class="node">
<title>Node10</title>
<g id="a_node10"><a xlink:href="../../dc/d43/class_svc_data_dictionary_a7c7bd48b97fbcf18ef64337e12022619.html#a7c7bd48b97fbcf18ef64337e12022619" target="_top" xlink:title=" ">
<polygon fill="none" stroke="black" points="1221,-258.5 1221,-286.5 1463,-286.5 1463,-258.5 1221,-258.5"/>
<text text-anchor="middle" x="1342" y="-268.1" font-family="Helvetica,sans-Serif" font-size="18.00">SvcDataDictionary::copyKey</text>
</a>
</g>
</g>
<!-- Node9&#45;&gt;Node10 -->
<g id="edge9" class="edge">
<title>Node9&#45;&gt;Node10</title>
<path fill="none" stroke="midnightblue" d="M1169.64,-258.52C1183.18,-259.63 1197.1,-260.76 1210.89,-261.89"/>
<polygon fill="midnightblue" stroke="midnightblue" points="1210.65,-265.38 1220.9,-262.7 1211.21,-258.4 1210.65,-265.38"/>
</g>
<!-- Node11 -->
<g id="node11" class="node">
<title>Node11</title>
<g id="a_node11"><a xlink:href="../../dc/d43/class_svc_data_dictionary_ac4b80e87e8e9cf82926af2105b4e424a.html#ac4b80e87e8e9cf82926af2105b4e424a" target="_top" xlink:title="hashing function used to accelerate searches">
<polygon fill="none" stroke="black" points="1235.5,-211.5 1235.5,-239.5 1448.5,-239.5 1448.5,-211.5 1235.5,-211.5"/>
<text text-anchor="middle" x="1342" y="-221.1" font-family="Helvetica,sans-Serif" font-size="18.00">SvcDataDictionary::hash</text>
</a>
</g>
</g>
<!-- Node9&#45;&gt;Node11 -->
<g id="edge10" class="edge">
<title>Node9&#45;&gt;Node11</title>
<path fill="none" stroke="midnightblue" d="M1169.64,-240.08C1187.87,-238.53 1206.81,-236.92 1225.16,-235.36"/>
<polygon fill="midnightblue" stroke="midnightblue" points="1225.62,-238.83 1235.29,-234.5 1225.02,-231.86 1225.62,-238.83"/>
</g>
<!-- Node18 -->
<g id="node18" class="node">
<title>Node18</title>
<g id="a_node18"><a xlink:href="../../df/d51/_eris_utils_8h_acf90b2b3b47174f2ad15f9397a36dca1.html#acf90b2b3b47174f2ad15f9397a36dca1" target="_top" xlink:title="a safer strncpy">
<polygon fill="none" stroke="black" points="716,-117.5 716,-145.5 841,-145.5 841,-117.5 716,-117.5"/>
<text text-anchor="middle" x="778.5" y="-127.1" font-family="Helvetica,sans-Serif" font-size="18.00">safer_strncpy</text>
</a>
</g>
</g>
<!-- Node17&#45;&gt;Node18 -->
<g id="edge17" class="edge">
<title>Node17&#45;&gt;Node18</title>
<path fill="none" stroke="midnightblue" d="M625.21,-131.5C652.79,-131.5 681.06,-131.5 705.64,-131.5"/>
<polygon fill="midnightblue" stroke="midnightblue" points="705.93,-135 715.93,-131.5 705.93,-128 705.93,-135"/>
</g>
<!-- Node19&#45;&gt;Node3 -->
<g id="edge20" class="edge">
<title>Node19&#45;&gt;Node3</title>
<path fill="none" stroke="midnightblue" d="M334.15,-225.5C342.47,-225.5 351.01,-225.5 359.6,-225.5"/>
<polygon fill="midnightblue" stroke="midnightblue" points="359.7,-229 369.7,-225.5 359.7,-222 359.7,-229"/>
</g>
<!-- Node19&#45;&gt;Node5 -->
<g id="edge21" class="edge">
<title>Node19&#45;&gt;Node5</title>
<path fill="none" stroke="midnightblue" d="M316.02,-211.48C333.72,-208.19 352.52,-204.71 370,-201.5 382.64,-199.18 396,-196.74 409.11,-194.36"/>
<polygon fill="midnightblue" stroke="midnightblue" points="409.87,-197.78 419.08,-192.55 408.61,-190.89 409.87,-197.78"/>
</g>
<!-- Node20 -->
<g id="node20" class="node">
<title>Node20</title>
<g id="a_node20"><a xlink:href="../../d0/da0/class_app_wren_ae04f239760ccc2afba7e901fd95cc645.html#ae04f239760ccc2afba7e901fd95cc645" target="_top" xlink:title="receiver for the wren c callback function loadModuleComplete indicating it&#39;s now ok to release the mo...">
<polygon fill="none" stroke="black" points="373,-258.5 373,-286.5 623,-286.5 623,-258.5 373,-258.5"/>
<text text-anchor="middle" x="498" y="-268.1" font-family="Helvetica,sans-Serif" font-size="18.00">AppWren::freeModuleSource</text>
</a>
</g>
</g>
<!-- Node19&#45;&gt;Node20 -->
<g id="edge19" class="edge">
<title>Node19&#45;&gt;Node20</title>
<path fill="none" stroke="midnightblue" d="M317.46,-239.54C346.72,-244.91 380.28,-251.07 410.41,-256.6"/>
<polygon fill="midnightblue" stroke="midnightblue" points="410.02,-260.09 420.49,-258.45 411.29,-253.2 410.02,-260.09"/>
</g>
</g>
</svg>
        <g id="navigator" transform="translate(0 0)" fill="#404254">
                <rect fill="#f2f5e9" fill-opacity="0.5" stroke="#606060" stroke-width=".5" x="0" y="0" width="60" height="60"/>
                <use id="zoomplus" xlink:href="#zoomPlus" x="17" y="9" onmousedown="handleZoom(evt,'in')"/>
                <use id="zoomminus" xlink:href="#zoomMin" x="42" y="9" onmousedown="handleZoom(evt,'out')"/>
                <use id="reset" xlink:href="#resetDef" x="30" y="36" onmousedown="handleReset()"/>
                <g id="arrowUp" xlink:href="#dirArrow" transform="translate(30 24)" onmousedown="handlePan(0,-1)">
                  <use xlink:href="#rim" fill="#404040">
                        <set attributeName="fill" to="#808080" begin="arrowUp.mouseover" end="arrowUp.mouseout"/>
                  </use>
                  <path fill="none" stroke="white" stroke-width="1.5" d="M0,-3.0v7 M-2.5,-0.5L0,-3.0L2.5,-0.5"/>
                </g>
                <g id="arrowRight" xlink:href="#dirArrow" transform="rotate(90) translate(36 -43)" onmousedown="handlePan(1,0)">
                  <use xlink:href="#rim" fill="#404040">
                        <set attributeName="fill" to="#808080" begin="arrowRight.mouseover" end="arrowRight.mouseout"/>
                  </use>
                  <path fill="none" stroke="white" stroke-width="1.5" d="M0,-3.0v7 M-2.5,-0.5L0,-3.0L2.5,-0.5"/>
                </g>
                <g id="arrowDown" xlink:href="#dirArrow" transform="rotate(180) translate(-30 -48)" onmousedown="handlePan(0,1)">
                  <use xlink:href="#rim" fill="#404040">
                        <set attributeName="fill" to="#808080" begin="arrowDown.mouseover" end="arrowDown.mouseout"/>
                  </use>
                  <path fill="none" stroke="white" stroke-width="1.5" d="M0,-3.0v7 M-2.5,-0.5L0,-3.0L2.5,-0.5"/>
                </g>
                <g id="arrowLeft" xlink:href="#dirArrow" transform="rotate(270) translate(-36 17)" onmousedown="handlePan(-1,0)">
                  <use xlink:href="#rim" fill="#404040">
                        <set attributeName="fill" to="#808080" begin="arrowLeft.mouseover" end="arrowLeft.mouseout"/>
                  </use>
                  <path fill="none" stroke="white" stroke-width="1.5" d="M0,-3.0v7 M-2.5,-0.5L0,-3.0L2.5,-0.5"/>
                </g>
        </g>
        <svg viewBox="0 0 15 15" width="100%" height="30px" preserveAspectRatio="xMaxYMin meet">
         <g id="arrow_out" transform="scale(0.3 0.3)">
          <a xlink:href="_app_wren_8cpp_a8862be3048f99b67cf6ccc12d2c2ae74_a8862be3048f99b67cf6ccc12d2c2ae74_cgraph_org.svg" target="_base">
           <rect id="button" ry="5" rx="5" y="6" x="6" height="38" width="38"
                fill="#f2f5e9" fill-opacity="0.5" stroke="#606060" stroke-width="1.0"/>
           <path id="arrow"
             d="M 11.500037,31.436501 C 11.940474,20.09759 22.043105,11.32322 32.158766,21.979434 L 37.068811,17.246167 C 37.068811,17.246167 37.088388,32 37.088388,32 L 22.160133,31.978069 C 22.160133,31.978069 26.997745,27.140456 26.997745,27.140456 C 18.528582,18.264221 13.291696,25.230495 11.500037,31.436501 z"
             style="fill:#404040;"/>
          </a>
         </g>
        </svg>
</svg>
