<?xml version="1.0" encoding="UTF-8" standalone="no"?>
<!DOCTYPE svg PUBLIC "-//W3C//DTD SVG 1.1//EN"
 "http://www.w3.org/Graphics/SVG/1.1/DTD/svg11.dtd">
<!-- Generated by graphviz version 2.47.3 (20210619.1520)
 -->
<!-- Title: setPositionCallback Pages: 1 -->
<svg width="889pt" height="35pt"
 viewBox="0.00 0.00 889.00 35.00" xmlns="http://www.w3.org/2000/svg" xmlns:xlink="http://www.w3.org/1999/xlink">
<g id="graph0" class="graph" transform="scale(1 1) rotate(0) translate(4 31)">
<title>setPositionCallback</title>
<!-- Node1 -->
<g id="node1" class="node">
<title>Node1</title>
<g id="a_node1"><a xlink:title="AppWren exported method which can be called from within a Wren VM instance.">
<polygon fill="#bfbfbf" stroke="black" points="0,-0.5 0,-26.5 155,-26.5 155,-0.5 0,-0.5"/>
<text text-anchor="middle" x="77.5" y="-9.7" font-family="Helvetica,sans-Serif" font-size="16.00">setPositionCallback</text>
</a>
</g>
</g>
<!-- Node2 -->
<g id="node2" class="node">
<title>Node2</title>
<g id="a_node2"><a xlink:href="../../d0/da0/class_app_wren_ac60892eccc79d5e682f6c287d0743fe4.html#ac60892eccc79d5e682f6c287d0743fe4" target="_top" xlink:title="Set the Position object/n receiver for the wren c callback function setPositionCallback.">
<polygon fill="none" stroke="black" points="191,-0.5 191,-26.5 360,-26.5 360,-0.5 191,-0.5"/>
<text text-anchor="middle" x="275.5" y="-9.7" font-family="Helvetica,sans-Serif" font-size="16.00">AppWren::setPosition</text>
</a>
</g>
</g>
<!-- Node1&#45;&gt;Node2 -->
<g id="edge1" class="edge">
<title>Node1&#45;&gt;Node2</title>
<path fill="none" stroke="midnightblue" d="M155.12,-13.5C163.53,-13.5 172.16,-13.5 180.75,-13.5"/>
<polygon fill="midnightblue" stroke="midnightblue" points="180.8,-17 190.8,-13.5 180.8,-10 180.8,-17"/>
</g>
<!-- Node3 -->
<g id="node3" class="node">
<title>Node3</title>
<g id="a_node3"><a xlink:href="../../db/d69/class_app_base_class_aa9f84b5a03adc7115a476219022e12b5.html#aa9f84b5a03adc7115a476219022e12b5" target="_top" xlink:title=" ">
<polygon fill="none" stroke="black" points="396,-0.5 396,-26.5 603,-26.5 603,-0.5 396,-0.5"/>
<text text-anchor="middle" x="499.5" y="-9.7" font-family="Helvetica,sans-Serif" font-size="16.00">AppBaseClass::setPosition</text>
</a>
</g>
</g>
<!-- Node2&#45;&gt;Node3 -->
<g id="edge2" class="edge">
<title>Node2&#45;&gt;Node3</title>
<path fill="none" stroke="midnightblue" d="M360.11,-13.5C368.5,-13.5 377.12,-13.5 385.75,-13.5"/>
<polygon fill="midnightblue" stroke="midnightblue" points="385.87,-17 395.87,-13.5 385.87,-10 385.87,-17"/>
</g>
<!-- Node4 -->
<g id="node4" class="node">
<title>Node4</title>
<g id="a_node4"><a xlink:href="../../db/d69/class_app_base_class_a32e44666dd58b3cd733c8ac64957dce3.html#a32e44666dd58b3cd733c8ac64957dce3" target="_top" xlink:title=" ">
<polygon fill="none" stroke="black" points="639,-0.5 639,-26.5 881,-26.5 881,-0.5 639,-0.5"/>
<text text-anchor="middle" x="760" y="-9.7" font-family="Helvetica,sans-Serif" font-size="16.00">AppBaseClass::_updatePosition</text>
</a>
</g>
</g>
<!-- Node3&#45;&gt;Node4 -->
<g id="edge3" class="edge">
<title>Node3&#45;&gt;Node4</title>
<path fill="none" stroke="midnightblue" d="M603.04,-13.5C611.45,-13.5 620.01,-13.5 628.59,-13.5"/>
<polygon fill="midnightblue" stroke="midnightblue" points="628.65,-17 638.65,-13.5 628.65,-10 628.65,-17"/>
</g>
</g>
</svg>
