<?xml version="1.0" encoding="UTF-8" standalone="no"?>
<!DOCTYPE svg PUBLIC "-//W3C//DTD SVG 1.1//EN"
 "http://www.w3.org/Graphics/SVG/1.1/DTD/svg11.dtd">
<!-- Generated by graphviz version 2.47.3 (20210619.1520)
 -->
<!-- Title: getSourceForModule Pages: 1 -->
<!--zoomable 388 -->
<svg id="main" version="1.1" xmlns="http://www.w3.org/2000/svg" xmlns:xlink="http://www.w3.org/1999/xlink" xml:space="preserve" onload="init(evt)">
<style type="text/css"><![CDATA[
.edge:hover path { stroke: red; }
.edge:hover polygon { stroke: red; fill: red; }
]]></style>
<script type="text/javascript"><![CDATA[
var edges = document.getElementsByTagName('g');
if (edges && edges.length) {
  for (var i=0;i<edges.length;i++) {
    if (edges[i].id.substr(0,4)=='edge') {
      edges[i].setAttribute('class','edge');
    }
  }
}
]]></script>
        <defs>
                <circle id="rim" cx="0" cy="0" r="7"/>
                <circle id="rim2" cx="0" cy="0" r="3.5"/>
                <g id="zoomPlus">
                        <use xlink:href="#rim" fill="#404040">
                                <set attributeName="fill" to="#808080" begin="zoomplus.mouseover" end="zoomplus.mouseout"/>
                        </use>
                        <path d="M-4,0h8M0,-4v8" fill="none" stroke="white" stroke-width="1.5" pointer-events="none"/>
                </g>
                <g id="zoomMin">
                        <use xlink:href="#rim" fill="#404040">
                                <set attributeName="fill" to="#808080" begin="zoomminus.mouseover" end="zoomminus.mouseout"/>
                        </use>
                        <path d="M-4,0h8" fill="none" stroke="white" stroke-width="1.5" pointer-events="none"/>
                </g>
                <g id="dirArrow">
                        <path fill="none" stroke="white" stroke-width="1.5" d="M0,-3.0v7 M-2.5,-0.5L0,-3.0L2.5,-0.5"/>
                </g>
               <g id="resetDef">
                       <use xlink:href="#rim2" fill="#404040">
                               <set attributeName="fill" to="#808080" begin="reset.mouseover" end="reset.mouseout"/>
                       </use>
               </g>
        </defs>

<script type="text/javascript">
var viewWidth = 1504;
var viewHeight = 388;
var sectionId = 'dynsection-0';
</script>
<script xlink:href="../../svgpan.js"/>
<svg id="graph" class="graph">
<g id="viewport">
<title>getSourceForModule</title>
<!-- Node1 -->
<g id="node1" class="node">
<title>Node1</title>
<g id="a_node1"><a xlink:title="Get the Source For Module object requested by the Wren VM.">
<polygon fill="#bfbfbf" stroke="black" points="0,-163.87 0,-191.87 185,-191.87 185,-163.87 0,-163.87"/>
<text text-anchor="middle" x="92.5" y="-173.47" font-family="Helvetica,sans-Serif" font-size="18.00">getSourceForModule</text>
</a>
</g>
</g>
<!-- Node2 -->
<g id="node2" class="node">
<title>Node2</title>
<g id="a_node2"><a xlink:href="../../da/d96/class_app_manager_a08daaf40a3ddaa938603039eb1e67d09.html#a08daaf40a3ddaa938603039eb1e67d09" target="_top" xlink:title="Get the App pointer By Name. Returns NULL if not found.">
<polygon fill="none" stroke="black" points="221,-210.87 221,-238.87 477,-238.87 477,-210.87 221,-210.87"/>
<text text-anchor="middle" x="349" y="-220.47" font-family="Helvetica,sans-Serif" font-size="18.00">AppManager::getAppByName</text>
</a>
</g>
</g>
<!-- Node1&#45;&gt;Node2 -->
<g id="edge1" class="edge">
<title>Node1&#45;&gt;Node2</title>
<path fill="none" stroke="midnightblue" d="M167.65,-191.92C185.14,-195.2 203.72,-198.68 221,-201.87 233.64,-204.2 247,-206.65 260.11,-209.03"/>
<polygon fill="midnightblue" stroke="midnightblue" points="259.61,-212.5 270.07,-210.84 260.86,-205.61 259.61,-212.5"/>
</g>
<!-- Node4 -->
<g id="node4" class="node">
<title>Node4</title>
<g id="a_node4"><a xlink:href="../../da/d96/class_app_manager_aa76d9691e8d029656413590fbe4dee86.html#aa76d9691e8d029656413590fbe4dee86" target="_top" xlink:title=" ">
<polygon fill="none" stroke="black" points="237,-163.87 237,-191.87 461,-191.87 461,-163.87 237,-163.87"/>
<text text-anchor="middle" x="349" y="-173.47" font-family="Helvetica,sans-Serif" font-size="18.00">AppManager::getInstance</text>
</a>
</g>
</g>
<!-- Node1&#45;&gt;Node4 -->
<g id="edge3" class="edge">
<title>Node1&#45;&gt;Node4</title>
<path fill="none" stroke="midnightblue" d="M185.02,-177.87C198.55,-177.87 212.67,-177.87 226.69,-177.87"/>
<polygon fill="midnightblue" stroke="midnightblue" points="226.87,-181.37 236.87,-177.87 226.87,-174.37 226.87,-181.37"/>
</g>
<!-- Node17 -->
<g id="node17" class="node">
<title>Node17</title>
<g id="a_node17"><a xlink:href="../../d0/da0/class_app_wren_a094bbb51835f642cb5f89a3b016c2b4c.html#a094bbb51835f642cb5f89a3b016c2b4c" target="_top" xlink:title="receiver for the wren c callback function getSourceForModule">
<polygon fill="none" stroke="black" points="513,-48.87 513,-76.87 767,-76.87 767,-48.87 513,-48.87"/>
<text text-anchor="middle" x="640" y="-58.47" font-family="Helvetica,sans-Serif" font-size="18.00">AppWren::loadModuleSource</text>
</a>
</g>
</g>
<!-- Node1&#45;&gt;Node17 -->
<g id="edge16" class="edge">
<title>Node1&#45;&gt;Node17</title>
<path fill="none" stroke="midnightblue" d="M160.12,-163.83C261.82,-142.38 455.27,-101.6 562.55,-78.99"/>
<polygon fill="midnightblue" stroke="midnightblue" points="563.28,-82.41 572.34,-76.92 561.83,-75.56 563.28,-82.41"/>
</g>
<!-- Node3 -->
<g id="node3" class="node">
<title>Node3</title>
<g id="a_node3"><a xlink:href="../../db/d69/class_app_base_class_aa989ddf4bdc4cbd9a61791ca45082177.html#aa989ddf4bdc4cbd9a61791ca45082177" target="_top" xlink:title="Compares the name_string to the app class instance name (string)">
<polygon fill="none" stroke="black" points="537.5,-210.87 537.5,-238.87 742.5,-238.87 742.5,-210.87 537.5,-210.87"/>
<text text-anchor="middle" x="640" y="-220.47" font-family="Helvetica,sans-Serif" font-size="18.00">AppBaseClass::isName</text>
</a>
</g>
</g>
<!-- Node2&#45;&gt;Node3 -->
<g id="edge2" class="edge">
<title>Node2&#45;&gt;Node3</title>
<path fill="none" stroke="midnightblue" d="M477.18,-224.87C493.86,-224.87 510.85,-224.87 527.25,-224.87"/>
<polygon fill="midnightblue" stroke="midnightblue" points="527.37,-228.37 537.37,-224.87 527.37,-221.37 527.37,-228.37"/>
</g>
<!-- Node5 -->
<g id="node5" class="node">
<title>Node5</title>
<g id="a_node5"><a xlink:href="../../da/d96/class_app_manager_a9439da981933119c49a83a507d64eb23.html#a9439da981933119c49a83a507d64eb23" target="_top" xlink:title="Construct a new App Manager:: App Manager object using a private constructor (lazy singleton pattern)">
<polygon fill="none" stroke="black" points="523.5,-163.87 523.5,-191.87 756.5,-191.87 756.5,-163.87 523.5,-163.87"/>
<text text-anchor="middle" x="640" y="-173.47" font-family="Helvetica,sans-Serif" font-size="18.00">AppManager::AppManager</text>
</a>
</g>
</g>
<!-- Node4&#45;&gt;Node5 -->
<g id="edge4" class="edge">
<title>Node4&#45;&gt;Node5</title>
<path fill="none" stroke="midnightblue" d="M461.32,-177.87C478.34,-177.87 496,-177.87 513.3,-177.87"/>
<polygon fill="midnightblue" stroke="midnightblue" points="513.43,-181.37 523.43,-177.87 513.43,-174.37 513.43,-181.37"/>
</g>
<!-- Node6 -->
<g id="node6" class="node">
<title>Node6</title>
<g id="a_node6"><a xlink:href="../../d8/d5a/class_i_l_i9341__t3___e_r_i_s_a8c8c09d5ca51d5b4c611875df643bef6.html#a8c8c09d5ca51d5b4c611875df643bef6" target="_top" xlink:title=" ">
<polygon fill="none" stroke="black" points="827,-351.87 827,-379.87 1033,-379.87 1033,-351.87 827,-351.87"/>
<text text-anchor="middle" x="930" y="-361.47" font-family="Helvetica,sans-Serif" font-size="18.00">ILI9341_t3_ERIS::begin</text>
</a>
</g>
</g>
<!-- Node5&#45;&gt;Node6 -->
<g id="edge5" class="edge">
<title>Node5&#45;&gt;Node6</title>
<path fill="none" stroke="midnightblue" d="M753.72,-191.91C758.48,-194.76 762.94,-198.06 767,-201.87 814.12,-246.17 755.71,-298.75 803,-342.87 807.48,-347.05 812.45,-350.59 817.76,-353.59"/>
<polygon fill="midnightblue" stroke="midnightblue" points="816.47,-356.86 826.99,-358.14 819.57,-350.58 816.47,-356.86"/>
</g>
<!-- Node7 -->
<g id="node7" class="node">
<title>Node7</title>
<g id="a_node7"><a xlink:href="../../d1/dff/class_touch_a057f1914b96362769a5384dbbfdb4195.html#a057f1914b96362769a5384dbbfdb4195" target="_top" xlink:title=" ">
<polygon fill="none" stroke="black" points="869,-304.87 869,-332.87 991,-332.87 991,-304.87 869,-304.87"/>
<text text-anchor="middle" x="930" y="-314.47" font-family="Helvetica,sans-Serif" font-size="18.00">Touch::begin</text>
</a>
</g>
</g>
<!-- Node5&#45;&gt;Node7 -->
<g id="edge6" class="edge">
<title>Node5&#45;&gt;Node7</title>
<path fill="none" stroke="midnightblue" d="M752.32,-192.02C757.53,-194.82 762.47,-198.08 767,-201.87 801.31,-230.57 768.58,-267.3 803,-295.87 818.59,-308.81 839.04,-315.45 858.92,-318.64"/>
<polygon fill="midnightblue" stroke="midnightblue" points="858.54,-322.12 868.92,-319.97 859.47,-315.18 858.54,-322.12"/>
</g>
<!-- Node8 -->
<g id="node8" class="node">
<title>Node8</title>
<g id="a_node8"><a xlink:href="../../dc/d43/class_svc_data_dictionary_a3b09dc582adbb4d5c6f99f6e983a81f1.html#a3b09dc582adbb4d5c6f99f6e983a81f1" target="_top" xlink:title="create a record with ownership">
<polygon fill="none" stroke="black" points="818.5,-257.87 818.5,-285.87 1041.5,-285.87 1041.5,-257.87 818.5,-257.87"/>
<text text-anchor="middle" x="930" y="-267.47" font-family="Helvetica,sans-Serif" font-size="18.00">SvcDataDictionary::create</text>
</a>
</g>
</g>
<!-- Node5&#45;&gt;Node8 -->
<g id="edge7" class="edge">
<title>Node5&#45;&gt;Node8</title>
<path fill="none" stroke="midnightblue" d="M747.02,-191.99C754.01,-194.75 760.75,-198.01 767,-201.87 789.39,-215.68 780.55,-235.14 803,-248.87 805.71,-250.53 808.51,-252.07 811.38,-253.51"/>
<polygon fill="midnightblue" stroke="midnightblue" points="810.22,-256.82 820.78,-257.75 813.1,-250.45 810.22,-256.82"/>
</g>
<!-- Node12 -->
<g id="node12" class="node">
<title>Node12</title>
<g id="a_node12"><a xlink:href="../../d1/dff/class_touch_a61a5d056f07ab08cb5924fa573dc3497.html#a61a5d056f07ab08cb5924fa573dc3497" target="_top" xlink:title=" ">
<polygon fill="none" stroke="black" points="811,-210.87 811,-238.87 1049,-238.87 1049,-210.87 811,-210.87"/>
<text text-anchor="middle" x="930" y="-220.47" font-family="Helvetica,sans-Serif" font-size="18.00">Touch::setCalibrationInputs</text>
</a>
</g>
</g>
<!-- Node5&#45;&gt;Node12 -->
<g id="edge11" class="edge">
<title>Node5&#45;&gt;Node12</title>
<path fill="none" stroke="midnightblue" d="M727.02,-191.91C760.36,-197.35 798.68,-203.6 832.92,-209.19"/>
<polygon fill="midnightblue" stroke="midnightblue" points="832.49,-212.67 842.93,-210.82 833.62,-205.76 832.49,-212.67"/>
</g>
<!-- Node13 -->
<g id="node13" class="node">
<title>Node13</title>
<g id="a_node13"><a xlink:href="../../d4/d7c/class_animation_a997d1203ae9418f121f355a5bd0700f0.html#a997d1203ae9418f121f355a5bd0700f0" target="_top" xlink:title=" ">
<polygon fill="none" stroke="black" points="846,-163.87 846,-191.87 1014,-191.87 1014,-163.87 846,-163.87"/>
<text text-anchor="middle" x="930" y="-173.47" font-family="Helvetica,sans-Serif" font-size="18.00">Animation::setPath</text>
</a>
</g>
</g>
<!-- Node5&#45;&gt;Node13 -->
<g id="edge12" class="edge">
<title>Node5&#45;&gt;Node13</title>
<path fill="none" stroke="midnightblue" d="M756.9,-177.87C783,-177.87 810.38,-177.87 835.43,-177.87"/>
<polygon fill="midnightblue" stroke="midnightblue" points="835.65,-181.37 845.65,-177.87 835.65,-174.37 835.65,-181.37"/>
</g>
<!-- Node14 -->
<g id="node14" class="node">
<title>Node14</title>
<g id="a_node14"><a xlink:href="../../d8/d5a/class_i_l_i9341__t3___e_r_i_s_a449053e8db3672d4902d76f093e52b14.html#a449053e8db3672d4902d76f093e52b14" target="_top" xlink:title=" ">
<polygon fill="none" stroke="black" points="803,-116.87 803,-144.87 1057,-144.87 1057,-116.87 803,-116.87"/>
<text text-anchor="middle" x="930" y="-126.47" font-family="Helvetica,sans-Serif" font-size="18.00">ILI9341_t3_ERIS::setPWMPin</text>
</a>
</g>
</g>
<!-- Node5&#45;&gt;Node14 -->
<g id="edge13" class="edge">
<title>Node5&#45;&gt;Node14</title>
<path fill="none" stroke="midnightblue" d="M727.02,-163.83C760.36,-158.39 798.68,-152.14 832.92,-146.55"/>
<polygon fill="midnightblue" stroke="midnightblue" points="833.62,-149.98 842.93,-144.92 832.49,-143.07 833.62,-149.98"/>
</g>
<!-- Node15 -->
<g id="node15" class="node">
<title>Node15</title>
<g id="a_node15"><a xlink:href="../../d4/d7c/class_animation_ab5af4d2f56dce439c18ba9c4655f98f0.html#ab5af4d2f56dce439c18ba9c4655f98f0" target="_top" xlink:title=" ">
<polygon fill="none" stroke="black" points="852.5,-69.87 852.5,-97.87 1007.5,-97.87 1007.5,-69.87 852.5,-69.87"/>
<text text-anchor="middle" x="930" y="-79.47" font-family="Helvetica,sans-Serif" font-size="18.00">Animation::setSD</text>
</a>
</g>
</g>
<!-- Node5&#45;&gt;Node15 -->
<g id="edge14" class="edge">
<title>Node5&#45;&gt;Node15</title>
<path fill="none" stroke="midnightblue" d="M668.39,-163.82C700.05,-148.1 754.09,-122.89 803,-107.87 815.55,-104.01 829.01,-100.66 842.28,-97.78"/>
<polygon fill="midnightblue" stroke="midnightblue" points="843.31,-101.14 852.38,-95.67 841.88,-94.29 843.31,-101.14"/>
</g>
<!-- Node16 -->
<g id="node16" class="node">
<title>Node16</title>
<g id="a_node16"><a xlink:href="../../d8/d5a/class_i_l_i9341__t3___e_r_i_s_a2bfdbf675a570c74b787fd222185f25f.html#a2bfdbf675a570c74b787fd222185f25f" target="_top" xlink:title=" ">
<polygon fill="none" stroke="black" points="825.5,-22.87 825.5,-50.87 1034.5,-50.87 1034.5,-22.87 825.5,-22.87"/>
<text text-anchor="middle" x="930" y="-32.47" font-family="Helvetica,sans-Serif" font-size="18.00">ILI9341_t3_ERIS::setSD</text>
</a>
</g>
</g>
<!-- Node5&#45;&gt;Node16 -->
<g id="edge15" class="edge">
<title>Node5&#45;&gt;Node16</title>
<path fill="none" stroke="midnightblue" d="M660.4,-163.7C703.19,-132.44 802,-60.3 803,-59.87 808.11,-57.68 813.42,-55.7 818.85,-53.9"/>
<polygon fill="midnightblue" stroke="midnightblue" points="820.19,-57.15 828.73,-50.87 818.14,-50.46 820.19,-57.15"/>
</g>
<!-- Node9 -->
<g id="node9" class="node">
<title>Node9</title>
<g id="a_node9"><a xlink:href="../../dc/d43/class_svc_data_dictionary_a7c7bd48b97fbcf18ef64337e12022619.html#a7c7bd48b97fbcf18ef64337e12022619" target="_top" xlink:title=" ">
<polygon fill="none" stroke="black" points="1093,-257.87 1093,-285.87 1335,-285.87 1335,-257.87 1093,-257.87"/>
<text text-anchor="middle" x="1214" y="-267.47" font-family="Helvetica,sans-Serif" font-size="18.00">SvcDataDictionary::copyKey</text>
</a>
</g>
</g>
<!-- Node8&#45;&gt;Node9 -->
<g id="edge8" class="edge">
<title>Node8&#45;&gt;Node9</title>
<path fill="none" stroke="midnightblue" d="M1041.64,-271.87C1055.18,-271.87 1069.1,-271.87 1082.89,-271.87"/>
<polygon fill="midnightblue" stroke="midnightblue" points="1082.9,-275.37 1092.9,-271.87 1082.9,-268.37 1082.9,-275.37"/>
</g>
<!-- Node11 -->
<g id="node11" class="node">
<title>Node11</title>
<g id="a_node11"><a xlink:href="../../dc/d43/class_svc_data_dictionary_ac4b80e87e8e9cf82926af2105b4e424a.html#ac4b80e87e8e9cf82926af2105b4e424a" target="_top" xlink:title="hashing function used to accelerate searches">
<polygon fill="none" stroke="black" points="1107.5,-210.87 1107.5,-238.87 1320.5,-238.87 1320.5,-210.87 1107.5,-210.87"/>
<text text-anchor="middle" x="1214" y="-220.47" font-family="Helvetica,sans-Serif" font-size="18.00">SvcDataDictionary::hash</text>
</a>
</g>
</g>
<!-- Node8&#45;&gt;Node11 -->
<g id="edge10" class="edge">
<title>Node8&#45;&gt;Node11</title>
<path fill="none" stroke="midnightblue" d="M1015.23,-257.83C1047.73,-252.41 1085.07,-246.19 1118.49,-240.62"/>
<polygon fill="midnightblue" stroke="midnightblue" points="1119.43,-244.01 1128.72,-238.92 1118.28,-237.11 1119.43,-244.01"/>
</g>
<!-- Node10 -->
<g id="node10" class="node">
<title>Node10</title>
<g id="a_node10"><a xlink:href="../../df/d51/_eris_utils_8h_acf90b2b3b47174f2ad15f9397a36dca1.html#acf90b2b3b47174f2ad15f9397a36dca1" target="_top" xlink:title="a safer strncpy">
<polygon fill="none" stroke="black" points="1371,-118.87 1371,-146.87 1496,-146.87 1496,-118.87 1371,-118.87"/>
<text text-anchor="middle" x="1433.5" y="-128.47" font-family="Helvetica,sans-Serif" font-size="18.00">safer_strncpy</text>
</a>
</g>
</g>
<!-- Node9&#45;&gt;Node10 -->
<g id="edge9" class="edge">
<title>Node9&#45;&gt;Node10</title>
<path fill="none" stroke="midnightblue" d="M1316.09,-257.86C1322.68,-255.33 1329.05,-252.36 1335,-248.87 1373.57,-226.24 1403.9,-182.53 1419.93,-155.7"/>
<polygon fill="midnightblue" stroke="midnightblue" points="1423,-157.39 1425,-146.98 1416.95,-153.87 1423,-157.39"/>
</g>
<!-- Node17&#45;&gt;Node10 -->
<g id="edge17" class="edge">
<title>Node17&#45;&gt;Node10</title>
<path fill="none" stroke="midnightblue" d="M675.69,-48.84C708.02,-36.57 757.89,-19.67 803,-12.87 914.63,3.97 945.46,4.52 1057,-12.87 1182.04,-32.36 1322.35,-86.3 1390.64,-114.76"/>
<polygon fill="midnightblue" stroke="midnightblue" points="1389.6,-118.12 1400.18,-118.76 1392.31,-111.66 1389.6,-118.12"/>
</g>
</g>
</svg>
        <g id="navigator" transform="translate(0 0)" fill="#404254">
                <rect fill="#f2f5e9" fill-opacity="0.5" stroke="#606060" stroke-width=".5" x="0" y="0" width="60" height="60"/>
                <use id="zoomplus" xlink:href="#zoomPlus" x="17" y="9" onmousedown="handleZoom(evt,'in')"/>
                <use id="zoomminus" xlink:href="#zoomMin" x="42" y="9" onmousedown="handleZoom(evt,'out')"/>
                <use id="reset" xlink:href="#resetDef" x="30" y="36" onmousedown="handleReset()"/>
                <g id="arrowUp" xlink:href="#dirArrow" transform="translate(30 24)" onmousedown="handlePan(0,-1)">
                  <use xlink:href="#rim" fill="#404040">
                        <set attributeName="fill" to="#808080" begin="arrowUp.mouseover" end="arrowUp.mouseout"/>
                  </use>
                  <path fill="none" stroke="white" stroke-width="1.5" d="M0,-3.0v7 M-2.5,-0.5L0,-3.0L2.5,-0.5"/>
                </g>
                <g id="arrowRight" xlink:href="#dirArrow" transform="rotate(90) translate(36 -43)" onmousedown="handlePan(1,0)">
                  <use xlink:href="#rim" fill="#404040">
                        <set attributeName="fill" to="#808080" begin="arrowRight.mouseover" end="arrowRight.mouseout"/>
                  </use>
                  <path fill="none" stroke="white" stroke-width="1.5" d="M0,-3.0v7 M-2.5,-0.5L0,-3.0L2.5,-0.5"/>
                </g>
                <g id="arrowDown" xlink:href="#dirArrow" transform="rotate(180) translate(-30 -48)" onmousedown="handlePan(0,1)">
                  <use xlink:href="#rim" fill="#404040">
                        <set attributeName="fill" to="#808080" begin="arrowDown.mouseover" end="arrowDown.mouseout"/>
                  </use>
                  <path fill="none" stroke="white" stroke-width="1.5" d="M0,-3.0v7 M-2.5,-0.5L0,-3.0L2.5,-0.5"/>
                </g>
                <g id="arrowLeft" xlink:href="#dirArrow" transform="rotate(270) translate(-36 17)" onmousedown="handlePan(-1,0)">
                  <use xlink:href="#rim" fill="#404040">
                        <set attributeName="fill" to="#808080" begin="arrowLeft.mouseover" end="arrowLeft.mouseout"/>
                  </use>
                  <path fill="none" stroke="white" stroke-width="1.5" d="M0,-3.0v7 M-2.5,-0.5L0,-3.0L2.5,-0.5"/>
                </g>
        </g>
        <svg viewBox="0 0 15 15" width="100%" height="30px" preserveAspectRatio="xMaxYMin meet">
         <g id="arrow_out" transform="scale(0.3 0.3)">
          <a xlink:href="_app_wren_8cpp_a1d01156e216e4905f8782080da177149_a1d01156e216e4905f8782080da177149_cgraph_org.svg" target="_base">
           <rect id="button" ry="5" rx="5" y="6" x="6" height="38" width="38"
                fill="#f2f5e9" fill-opacity="0.5" stroke="#606060" stroke-width="1.0"/>
           <path id="arrow"
             d="M 11.500037,31.436501 C 11.940474,20.09759 22.043105,11.32322 32.158766,21.979434 L 37.068811,17.246167 C 37.068811,17.246167 37.088388,32 37.088388,32 L 22.160133,31.978069 C 22.160133,31.978069 26.997745,27.140456 26.997745,27.140456 C 18.528582,18.264221 13.291696,25.230495 11.500037,31.436501 z"
             style="fill:#404040;"/>
          </a>
         </g>
        </svg>
</svg>
