<?xml version="1.0" encoding="UTF-8" standalone="no"?>
<!DOCTYPE svg PUBLIC "-//W3C//DTD SVG 1.1//EN"
 "http://www.w3.org/Graphics/SVG/1.1/DTD/svg11.dtd">
<!-- Generated by graphviz version 2.47.3 (20210619.1520)
 -->
<!-- Title: setPositionCallback Pages: 1 -->
<svg width="717pt" height="30pt"
 viewBox="0.00 0.00 717.00 30.00" xmlns="http://www.w3.org/2000/svg" xmlns:xlink="http://www.w3.org/1999/xlink">
<g id="graph0" class="graph" transform="scale(1 1) rotate(0) translate(4 26)">
<title>setPositionCallback</title>
<!-- Node1 -->
<g id="node1" class="node">
<title>Node1</title>
<g id="a_node1"><a xlink:title="AppWren exported method which can be called from within a Wren VM instance.">
<polygon fill="#bfbfbf" stroke="black" points="0,-0.5 0,-21.5 121,-21.5 121,-0.5 0,-0.5"/>
<text text-anchor="middle" x="60.5" y="-7.9" font-family="Helvetica,sans-Serif" font-size="12.00">setPositionCallback</text>
</a>
</g>
</g>
<!-- Node2 -->
<g id="node2" class="node">
<title>Node2</title>
<g id="a_node2"><a xlink:href="../../d0/da0/class_app_wren_ac60892eccc79d5e682f6c287d0743fe4.html#ac60892eccc79d5e682f6c287d0743fe4" target="_top" xlink:title="Set the Position object/n receiver for the wren c callback function setPositionCallback.">
<polygon fill="none" stroke="black" points="157,-0.5 157,-21.5 288,-21.5 288,-0.5 157,-0.5"/>
<text text-anchor="middle" x="222.5" y="-7.9" font-family="Helvetica,sans-Serif" font-size="12.00">AppWren::setPosition</text>
</a>
</g>
</g>
<!-- Node1&#45;&gt;Node2 -->
<g id="edge1" class="edge">
<title>Node1&#45;&gt;Node2</title>
<path fill="none" stroke="midnightblue" d="M121.08,-11C129.44,-11 138.13,-11 146.73,-11"/>
<polygon fill="midnightblue" stroke="midnightblue" points="146.77,-14.5 156.77,-11 146.77,-7.5 146.77,-14.5"/>
</g>
<!-- Node3 -->
<g id="node3" class="node">
<title>Node3</title>
<g id="a_node3"><a xlink:href="../../db/d69/class_app_base_class_aa9f84b5a03adc7115a476219022e12b5.html#aa9f84b5a03adc7115a476219022e12b5" target="_top" xlink:title=" ">
<polygon fill="none" stroke="black" points="324,-0.5 324,-21.5 485,-21.5 485,-0.5 324,-0.5"/>
<text text-anchor="middle" x="404.5" y="-7.9" font-family="Helvetica,sans-Serif" font-size="12.00">AppBaseClass::setPosition</text>
</a>
</g>
</g>
<!-- Node2&#45;&gt;Node3 -->
<g id="edge2" class="edge">
<title>Node2&#45;&gt;Node3</title>
<path fill="none" stroke="midnightblue" d="M288.23,-11C296.56,-11 305.21,-11 313.85,-11"/>
<polygon fill="midnightblue" stroke="midnightblue" points="313.97,-14.5 323.97,-11 313.97,-7.5 313.97,-14.5"/>
</g>
<!-- Node4 -->
<g id="node4" class="node">
<title>Node4</title>
<g id="a_node4"><a xlink:href="../../db/d69/class_app_base_class_a32e44666dd58b3cd733c8ac64957dce3.html#a32e44666dd58b3cd733c8ac64957dce3" target="_top" xlink:title=" ">
<polygon fill="none" stroke="black" points="521,-0.5 521,-21.5 709,-21.5 709,-0.5 521,-0.5"/>
<text text-anchor="middle" x="615" y="-7.9" font-family="Helvetica,sans-Serif" font-size="12.00">AppBaseClass::_updatePosition</text>
</a>
</g>
</g>
<!-- Node3&#45;&gt;Node4 -->
<g id="edge3" class="edge">
<title>Node3&#45;&gt;Node4</title>
<path fill="none" stroke="midnightblue" d="M485.22,-11C493.56,-11 502.13,-11 510.69,-11"/>
<polygon fill="midnightblue" stroke="midnightblue" points="510.72,-14.5 520.72,-11 510.72,-7.5 510.72,-14.5"/>
</g>
</g>
</svg>
