<?xml version="1.0" encoding="UTF-8" standalone="no"?>
<!DOCTYPE svg PUBLIC "-//W3C//DTD SVG 1.1//EN"
 "http://www.w3.org/Graphics/SVG/1.1/DTD/svg11.dtd">
<!-- Generated by graphviz version 2.47.3 (20210619.1520)
 -->
<!-- Title: dataDictUpdateFloatCallback Pages: 1 -->
<svg width="1517pt" height="409pt"
 viewBox="0.00 0.00 1517.00 409.00" xmlns="http://www.w3.org/2000/svg" xmlns:xlink="http://www.w3.org/1999/xlink">
<g id="graph0" class="graph" transform="scale(1 1) rotate(0) translate(4 405)">
<title>dataDictUpdateFloatCallback</title>
<!-- Node1 -->
<g id="node1" class="node">
<title>Node1</title>
<g id="a_node1"><a xlink:title="SvcDataDictionary exported method which can be called from within a Wren VM instance.">
<polygon fill="#bfbfbf" stroke="black" points="0,-113.5 0,-141.5 251,-141.5 251,-113.5 0,-113.5"/>
<text text-anchor="middle" x="125.5" y="-123.1" font-family="Helvetica,sans-Serif" font-size="18.00">dataDictUpdateFloatCallback</text>
</a>
</g>
</g>
<!-- Node2 -->
<g id="node2" class="node">
<title>Node2</title>
<g id="a_node2"><a xlink:href="../../da/d96/class_app_manager_aa76d9691e8d029656413590fbe4dee86.html#aa76d9691e8d029656413590fbe4dee86" target="_top" xlink:title=" ">
<polygon fill="none" stroke="black" points="287,-159.5 287,-187.5 511,-187.5 511,-159.5 287,-159.5"/>
<text text-anchor="middle" x="399" y="-169.1" font-family="Helvetica,sans-Serif" font-size="18.00">AppManager::getInstance</text>
</a>
</g>
</g>
<!-- Node1&#45;&gt;Node2 -->
<g id="edge1" class="edge">
<title>Node1&#45;&gt;Node2</title>
<path fill="none" stroke="midnightblue" d="M209.43,-141.55C239.69,-146.68 274.09,-152.51 305.15,-157.77"/>
<polygon fill="midnightblue" stroke="midnightblue" points="304.66,-161.24 315.11,-159.46 305.83,-154.33 304.66,-161.24"/>
</g>
<!-- Node15 -->
<g id="node15" class="node">
<title>Node15</title>
<g id="a_node15"><a xlink:href="../../dc/d43/class_svc_data_dictionary_abcac7202c3bd21801ab64e48eee44056.html#abcac7202c3bd21801ab64e48eee44056" target="_top" xlink:title="update the value of an owned record &#160;creates a new record if one does not exist and &#160;initializes its ...">
<polygon fill="none" stroke="black" points="548.5,-43.5 548.5,-71.5 778.5,-71.5 778.5,-43.5 548.5,-43.5"/>
<text text-anchor="middle" x="663.5" y="-53.1" font-family="Helvetica,sans-Serif" font-size="18.00">SvcDataDictionary::update</text>
</a>
</g>
</g>
<!-- Node1&#45;&gt;Node15 -->
<g id="edge14" class="edge">
<title>Node1&#45;&gt;Node15</title>
<path fill="none" stroke="midnightblue" d="M234,-113.46C324.08,-101.7 452.46,-84.93 545.19,-72.82"/>
<polygon fill="midnightblue" stroke="midnightblue" points="545.72,-76.28 555.18,-71.52 544.81,-69.34 545.72,-76.28"/>
</g>
<!-- Node3 -->
<g id="node3" class="node">
<title>Node3</title>
<g id="a_node3"><a xlink:href="../../da/d96/class_app_manager_a9439da981933119c49a83a507d64eb23.html#a9439da981933119c49a83a507d64eb23" target="_top" xlink:title="Construct a new App Manager:: App Manager object using a private constructor (lazy singleton pattern)">
<polygon fill="none" stroke="black" points="547,-184.5 547,-212.5 780,-212.5 780,-184.5 547,-184.5"/>
<text text-anchor="middle" x="663.5" y="-194.1" font-family="Helvetica,sans-Serif" font-size="18.00">AppManager::AppManager</text>
</a>
</g>
</g>
<!-- Node2&#45;&gt;Node3 -->
<g id="edge2" class="edge">
<title>Node2&#45;&gt;Node3</title>
<path fill="none" stroke="midnightblue" d="M511.32,-184.1C519.76,-184.91 528.31,-185.72 536.83,-186.53"/>
<polygon fill="midnightblue" stroke="midnightblue" points="536.52,-190.02 546.8,-187.48 537.18,-183.05 536.52,-190.02"/>
</g>
<!-- Node4 -->
<g id="node4" class="node">
<title>Node4</title>
<g id="a_node4"><a xlink:href="../../d8/d5a/class_i_l_i9341__t3___e_r_i_s_a8c8c09d5ca51d5b4c611875df643bef6.html#a8c8c09d5ca51d5b4c611875df643bef6" target="_top" xlink:title=" ">
<polygon fill="none" stroke="black" points="840,-372.5 840,-400.5 1046,-400.5 1046,-372.5 840,-372.5"/>
<text text-anchor="middle" x="943" y="-382.1" font-family="Helvetica,sans-Serif" font-size="18.00">ILI9341_t3_ERIS::begin</text>
</a>
</g>
</g>
<!-- Node3&#45;&gt;Node4 -->
<g id="edge3" class="edge">
<title>Node3&#45;&gt;Node4</title>
<path fill="none" stroke="midnightblue" d="M673,-212.85C693.2,-245.55 747.56,-325.73 816,-363.5 820.57,-366.02 825.36,-368.27 830.29,-370.28"/>
<polygon fill="midnightblue" stroke="midnightblue" points="829.33,-373.66 839.92,-373.86 831.77,-367.1 829.33,-373.66"/>
</g>
<!-- Node5 -->
<g id="node5" class="node">
<title>Node5</title>
<g id="a_node5"><a xlink:href="../../d1/dff/class_touch_a057f1914b96362769a5384dbbfdb4195.html#a057f1914b96362769a5384dbbfdb4195" target="_top" xlink:title=" ">
<polygon fill="none" stroke="black" points="882,-325.5 882,-353.5 1004,-353.5 1004,-325.5 882,-325.5"/>
<text text-anchor="middle" x="943" y="-335.1" font-family="Helvetica,sans-Serif" font-size="18.00">Touch::begin</text>
</a>
</g>
</g>
<!-- Node3&#45;&gt;Node5 -->
<g id="edge4" class="edge">
<title>Node3&#45;&gt;Node5</title>
<path fill="none" stroke="midnightblue" d="M677.99,-212.82C702.74,-238.15 758.19,-290.6 816,-316.5 833.37,-324.28 853.22,-329.43 871.94,-332.84"/>
<polygon fill="midnightblue" stroke="midnightblue" points="871.46,-336.31 881.9,-334.51 872.62,-329.4 871.46,-336.31"/>
</g>
<!-- Node6 -->
<g id="node6" class="node">
<title>Node6</title>
<g id="a_node6"><a xlink:href="../../dc/d43/class_svc_data_dictionary_a3b09dc582adbb4d5c6f99f6e983a81f1.html#a3b09dc582adbb4d5c6f99f6e983a81f1" target="_top" xlink:title="create a record with ownership">
<polygon fill="none" stroke="black" points="831.5,-43.5 831.5,-71.5 1054.5,-71.5 1054.5,-43.5 831.5,-43.5"/>
<text text-anchor="middle" x="943" y="-53.1" font-family="Helvetica,sans-Serif" font-size="18.00">SvcDataDictionary::create</text>
</a>
</g>
</g>
<!-- Node3&#45;&gt;Node6 -->
<g id="edge5" class="edge">
<title>Node3&#45;&gt;Node6</title>
<path fill="none" stroke="midnightblue" d="M677.99,-184.18C702.74,-158.85 758.19,-106.4 816,-80.5 820.76,-78.37 825.71,-76.43 830.77,-74.68"/>
<polygon fill="midnightblue" stroke="midnightblue" points="832.16,-77.91 840.61,-71.52 830.02,-71.24 832.16,-77.91"/>
</g>
<!-- Node10 -->
<g id="node10" class="node">
<title>Node10</title>
<g id="a_node10"><a xlink:href="../../d1/dff/class_touch_a61a5d056f07ab08cb5924fa573dc3497.html#a61a5d056f07ab08cb5924fa573dc3497" target="_top" xlink:title=" ">
<polygon fill="none" stroke="black" points="824,-278.5 824,-306.5 1062,-306.5 1062,-278.5 824,-278.5"/>
<text text-anchor="middle" x="943" y="-288.1" font-family="Helvetica,sans-Serif" font-size="18.00">Touch::setCalibrationInputs</text>
</a>
</g>
</g>
<!-- Node3&#45;&gt;Node10 -->
<g id="edge9" class="edge">
<title>Node3&#45;&gt;Node10</title>
<path fill="none" stroke="midnightblue" d="M689.42,-212.63C718.8,-228.71 769.52,-254.64 816,-269.5 823.6,-271.93 831.55,-274.13 839.6,-276.12"/>
<polygon fill="midnightblue" stroke="midnightblue" points="838.92,-279.55 849.45,-278.44 840.52,-272.74 838.92,-279.55"/>
</g>
<!-- Node11 -->
<g id="node11" class="node">
<title>Node11</title>
<g id="a_node11"><a xlink:href="../../d4/d7c/class_animation_a997d1203ae9418f121f355a5bd0700f0.html#a997d1203ae9418f121f355a5bd0700f0" target="_top" xlink:title=" ">
<polygon fill="none" stroke="black" points="859,-231.5 859,-259.5 1027,-259.5 1027,-231.5 859,-231.5"/>
<text text-anchor="middle" x="943" y="-241.1" font-family="Helvetica,sans-Serif" font-size="18.00">Animation::setPath</text>
</a>
</g>
</g>
<!-- Node3&#45;&gt;Node11 -->
<g id="edge10" class="edge">
<title>Node3&#45;&gt;Node11</title>
<path fill="none" stroke="midnightblue" d="M747.38,-212.54C779.37,-217.96 816.11,-224.18 848.99,-229.75"/>
<polygon fill="midnightblue" stroke="midnightblue" points="848.62,-233.23 859.06,-231.45 849.79,-226.33 848.62,-233.23"/>
</g>
<!-- Node12 -->
<g id="node12" class="node">
<title>Node12</title>
<g id="a_node12"><a xlink:href="../../d8/d5a/class_i_l_i9341__t3___e_r_i_s_a449053e8db3672d4902d76f093e52b14.html#a449053e8db3672d4902d76f093e52b14" target="_top" xlink:title=" ">
<polygon fill="none" stroke="black" points="816,-184.5 816,-212.5 1070,-212.5 1070,-184.5 816,-184.5"/>
<text text-anchor="middle" x="943" y="-194.1" font-family="Helvetica,sans-Serif" font-size="18.00">ILI9341_t3_ERIS::setPWMPin</text>
</a>
</g>
</g>
<!-- Node3&#45;&gt;Node12 -->
<g id="edge11" class="edge">
<title>Node3&#45;&gt;Node12</title>
<path fill="none" stroke="midnightblue" d="M780.18,-198.5C788.62,-198.5 797.18,-198.5 805.73,-198.5"/>
<polygon fill="midnightblue" stroke="midnightblue" points="805.75,-202 815.75,-198.5 805.75,-195 805.75,-202"/>
</g>
<!-- Node13 -->
<g id="node13" class="node">
<title>Node13</title>
<g id="a_node13"><a xlink:href="../../d4/d7c/class_animation_ab5af4d2f56dce439c18ba9c4655f98f0.html#ab5af4d2f56dce439c18ba9c4655f98f0" target="_top" xlink:title=" ">
<polygon fill="none" stroke="black" points="865.5,-137.5 865.5,-165.5 1020.5,-165.5 1020.5,-137.5 865.5,-137.5"/>
<text text-anchor="middle" x="943" y="-147.1" font-family="Helvetica,sans-Serif" font-size="18.00">Animation::setSD</text>
</a>
</g>
</g>
<!-- Node3&#45;&gt;Node13 -->
<g id="edge12" class="edge">
<title>Node3&#45;&gt;Node13</title>
<path fill="none" stroke="midnightblue" d="M747.38,-184.46C781.4,-178.7 820.79,-172.03 855.2,-166.2"/>
<polygon fill="midnightblue" stroke="midnightblue" points="855.96,-169.62 865.23,-164.5 854.79,-162.72 855.96,-169.62"/>
</g>
<!-- Node14 -->
<g id="node14" class="node">
<title>Node14</title>
<g id="a_node14"><a xlink:href="../../d8/d5a/class_i_l_i9341__t3___e_r_i_s_a2bfdbf675a570c74b787fd222185f25f.html#a2bfdbf675a570c74b787fd222185f25f" target="_top" xlink:title=" ">
<polygon fill="none" stroke="black" points="838.5,-90.5 838.5,-118.5 1047.5,-118.5 1047.5,-90.5 838.5,-90.5"/>
<text text-anchor="middle" x="943" y="-100.1" font-family="Helvetica,sans-Serif" font-size="18.00">ILI9341_t3_ERIS::setSD</text>
</a>
</g>
</g>
<!-- Node3&#45;&gt;Node14 -->
<g id="edge13" class="edge">
<title>Node3&#45;&gt;Node14</title>
<path fill="none" stroke="midnightblue" d="M690,-184.36C719.49,-168.57 769.93,-143.28 816,-128.5 824.89,-125.65 834.25,-123.08 843.69,-120.79"/>
<polygon fill="midnightblue" stroke="midnightblue" points="844.58,-124.18 853.53,-118.5 843,-117.36 844.58,-124.18"/>
</g>
<!-- Node7 -->
<g id="node7" class="node">
<title>Node7</title>
<g id="a_node7"><a xlink:href="../../dc/d43/class_svc_data_dictionary_a7c7bd48b97fbcf18ef64337e12022619.html#a7c7bd48b97fbcf18ef64337e12022619" target="_top" xlink:title=" ">
<polygon fill="none" stroke="black" points="1106,-47.5 1106,-75.5 1348,-75.5 1348,-47.5 1106,-47.5"/>
<text text-anchor="middle" x="1227" y="-57.1" font-family="Helvetica,sans-Serif" font-size="18.00">SvcDataDictionary::copyKey</text>
</a>
</g>
</g>
<!-- Node6&#45;&gt;Node7 -->
<g id="edge6" class="edge">
<title>Node6&#45;&gt;Node7</title>
<path fill="none" stroke="midnightblue" d="M1054.64,-59.07C1068.18,-59.26 1082.1,-59.46 1095.89,-59.65"/>
<polygon fill="midnightblue" stroke="midnightblue" points="1095.85,-63.15 1105.9,-59.8 1095.95,-56.15 1095.85,-63.15"/>
</g>
<!-- Node9 -->
<g id="node9" class="node">
<title>Node9</title>
<g id="a_node9"><a xlink:href="../../dc/d43/class_svc_data_dictionary_ac4b80e87e8e9cf82926af2105b4e424a.html#ac4b80e87e8e9cf82926af2105b4e424a" target="_top" xlink:title="hashing function used to accelerate searches">
<polygon fill="none" stroke="black" points="1120.5,-0.5 1120.5,-28.5 1333.5,-28.5 1333.5,-0.5 1120.5,-0.5"/>
<text text-anchor="middle" x="1227" y="-10.1" font-family="Helvetica,sans-Serif" font-size="18.00">SvcDataDictionary::hash</text>
</a>
</g>
</g>
<!-- Node6&#45;&gt;Node9 -->
<g id="edge8" class="edge">
<title>Node6&#45;&gt;Node9</title>
<path fill="none" stroke="midnightblue" d="M1035.95,-43.48C1064.13,-39.18 1095.29,-34.43 1124.1,-30.04"/>
<polygon fill="midnightblue" stroke="midnightblue" points="1124.82,-33.47 1134.18,-28.5 1123.76,-26.55 1124.82,-33.47"/>
</g>
<!-- Node8 -->
<g id="node8" class="node">
<title>Node8</title>
<g id="a_node8"><a xlink:href="../../df/d51/_eris_utils_8h_acf90b2b3b47174f2ad15f9397a36dca1.html#acf90b2b3b47174f2ad15f9397a36dca1" target="_top" xlink:title="a safer strncpy">
<polygon fill="none" stroke="black" points="1384,-47.5 1384,-75.5 1509,-75.5 1509,-47.5 1384,-47.5"/>
<text text-anchor="middle" x="1446.5" y="-57.1" font-family="Helvetica,sans-Serif" font-size="18.00">safer_strncpy</text>
</a>
</g>
</g>
<!-- Node7&#45;&gt;Node8 -->
<g id="edge7" class="edge">
<title>Node7&#45;&gt;Node8</title>
<path fill="none" stroke="midnightblue" d="M1348.2,-61.5C1356.84,-61.5 1365.37,-61.5 1373.59,-61.5"/>
<polygon fill="midnightblue" stroke="midnightblue" points="1373.82,-65 1383.82,-61.5 1373.82,-58 1373.82,-65"/>
</g>
<!-- Node15&#45;&gt;Node6 -->
<g id="edge15" class="edge">
<title>Node15&#45;&gt;Node6</title>
<path fill="none" stroke="midnightblue" d="M778.57,-57.5C792.53,-57.5 806.82,-57.5 820.88,-57.5"/>
<polygon fill="midnightblue" stroke="midnightblue" points="821.06,-61 831.06,-57.5 821.06,-54 821.06,-61"/>
</g>
<!-- Node15&#45;&gt;Node9 -->
<g id="edge16" class="edge">
<title>Node15&#45;&gt;Node9</title>
<path fill="none" stroke="midnightblue" d="M742.52,-43.45C766.07,-39.66 792.02,-35.95 816,-33.5 915.01,-23.39 1028.03,-18.66 1110.3,-16.44"/>
<polygon fill="midnightblue" stroke="midnightblue" points="1110.52,-19.94 1120.43,-16.18 1110.34,-12.94 1110.52,-19.94"/>
</g>
</g>
</svg>
