<?xml version="1.0" encoding="UTF-8" standalone="no"?>
<!DOCTYPE svg PUBLIC "-//W3C//DTD SVG 1.1//EN"
 "http://www.w3.org/Graphics/SVG/1.1/DTD/svg11.dtd">
<!-- Generated by graphviz version 2.47.3 (20210619.1520)
 -->
<!-- Title: setTextColorCallback Pages: 1 -->
<svg width="1046pt" height="366pt"
 viewBox="0.00 0.00 1046.00 366.00" xmlns="http://www.w3.org/2000/svg" xmlns:xlink="http://www.w3.org/1999/xlink">
<g id="graph0" class="graph" transform="scale(1 1) rotate(0) translate(4 362)">
<title>setTextColorCallback</title>
<!-- Node1 -->
<g id="node1" class="node">
<title>Node1</title>
<g id="a_node1"><a xlink:title="VM callback for extention method.">
<polygon fill="#bfbfbf" stroke="black" points="0,-211.5 0,-239.5 187,-239.5 187,-211.5 0,-211.5"/>
<text text-anchor="middle" x="93.5" y="-221.1" font-family="Helvetica,sans-Serif" font-size="18.00">setTextColorCallback</text>
</a>
</g>
</g>
<!-- Node2 -->
<g id="node2" class="node">
<title>Node2</title>
<g id="a_node2"><a xlink:href="../../da/d96/class_app_manager_a08daaf40a3ddaa938603039eb1e67d09.html#a08daaf40a3ddaa938603039eb1e67d09" target="_top" xlink:title="Get the App pointer By Name. Returns NULL if not found.">
<polygon fill="none" stroke="black" points="223,-258.5 223,-286.5 479,-286.5 479,-258.5 223,-258.5"/>
<text text-anchor="middle" x="351" y="-268.1" font-family="Helvetica,sans-Serif" font-size="18.00">AppManager::getAppByName</text>
</a>
</g>
</g>
<!-- Node1&#45;&gt;Node2 -->
<g id="edge1" class="edge">
<title>Node1&#45;&gt;Node2</title>
<path fill="none" stroke="midnightblue" d="M169.23,-239.53C186.86,-242.82 205.59,-246.3 223,-249.5 235.64,-251.83 249,-254.26 262.11,-256.65"/>
<polygon fill="midnightblue" stroke="midnightblue" points="261.61,-260.11 272.08,-258.46 262.86,-253.23 261.61,-260.11"/>
</g>
<!-- Node4 -->
<g id="node4" class="node">
<title>Node4</title>
<g id="a_node4"><a xlink:href="../../d0/da0/class_app_wren_ad7d27edc5e5b53b98175c5882e822854.html#ad7d27edc5e5b53b98175c5882e822854" target="_top" xlink:title="provides an interface for wren c call backfunctions to get the ILI9341_t3_ERIS draw object.">
<polygon fill="none" stroke="black" points="266,-211.5 266,-239.5 436,-239.5 436,-211.5 266,-211.5"/>
<text text-anchor="middle" x="351" y="-221.1" font-family="Helvetica,sans-Serif" font-size="18.00">AppWren::getDraw</text>
</a>
</g>
</g>
<!-- Node1&#45;&gt;Node4 -->
<g id="edge3" class="edge">
<title>Node1&#45;&gt;Node4</title>
<path fill="none" stroke="midnightblue" d="M187.1,-225.5C209.39,-225.5 233.24,-225.5 255.61,-225.5"/>
<polygon fill="midnightblue" stroke="midnightblue" points="255.77,-229 265.77,-225.5 255.77,-222 255.77,-229"/>
</g>
<!-- Node5 -->
<g id="node5" class="node">
<title>Node5</title>
<g id="a_node5"><a xlink:href="../../da/d96/class_app_manager_aa76d9691e8d029656413590fbe4dee86.html#aa76d9691e8d029656413590fbe4dee86" target="_top" xlink:title=" ">
<polygon fill="none" stroke="black" points="239,-164.5 239,-192.5 463,-192.5 463,-164.5 239,-164.5"/>
<text text-anchor="middle" x="351" y="-174.1" font-family="Helvetica,sans-Serif" font-size="18.00">AppManager::getInstance</text>
</a>
</g>
</g>
<!-- Node1&#45;&gt;Node5 -->
<g id="edge4" class="edge">
<title>Node1&#45;&gt;Node5</title>
<path fill="none" stroke="midnightblue" d="M170.81,-211.46C200.01,-206.09 233.51,-199.93 263.58,-194.4"/>
<polygon fill="midnightblue" stroke="midnightblue" points="264.44,-197.8 273.64,-192.55 263.17,-190.91 264.44,-197.8"/>
</g>
<!-- Node3 -->
<g id="node3" class="node">
<title>Node3</title>
<g id="a_node3"><a xlink:href="../../db/d69/class_app_base_class_aa989ddf4bdc4cbd9a61791ca45082177.html#aa989ddf4bdc4cbd9a61791ca45082177" target="_top" xlink:title=" ">
<polygon fill="none" stroke="black" points="529,-258.5 529,-286.5 734,-286.5 734,-258.5 529,-258.5"/>
<text text-anchor="middle" x="631.5" y="-268.1" font-family="Helvetica,sans-Serif" font-size="18.00">AppBaseClass::isName</text>
</a>
</g>
</g>
<!-- Node2&#45;&gt;Node3 -->
<g id="edge2" class="edge">
<title>Node2&#45;&gt;Node3</title>
<path fill="none" stroke="midnightblue" d="M479.03,-272.5C492.16,-272.5 505.43,-272.5 518.38,-272.5"/>
<polygon fill="midnightblue" stroke="midnightblue" points="518.69,-276 528.69,-272.5 518.69,-269 518.69,-276"/>
</g>
<!-- Node6 -->
<g id="node6" class="node">
<title>Node6</title>
<g id="a_node6"><a xlink:href="../../da/d96/class_app_manager_a9439da981933119c49a83a507d64eb23.html#a9439da981933119c49a83a507d64eb23" target="_top" xlink:title="Construct a new App Manager:: App Manager object using a private constuctor (lazy singleton pattern)">
<polygon fill="none" stroke="black" points="515,-164.5 515,-192.5 748,-192.5 748,-164.5 515,-164.5"/>
<text text-anchor="middle" x="631.5" y="-174.1" font-family="Helvetica,sans-Serif" font-size="18.00">AppManager::AppManager</text>
</a>
</g>
</g>
<!-- Node5&#45;&gt;Node6 -->
<g id="edge5" class="edge">
<title>Node5&#45;&gt;Node6</title>
<path fill="none" stroke="midnightblue" d="M463.27,-178.5C476.93,-178.5 490.96,-178.5 504.8,-178.5"/>
<polygon fill="midnightblue" stroke="midnightblue" points="504.85,-182 514.85,-178.5 504.85,-175 504.85,-182"/>
</g>
<!-- Node7 -->
<g id="node7" class="node">
<title>Node7</title>
<g id="a_node7"><a xlink:href="../../d8/d5a/class_i_l_i9341__t3___e_r_i_s_a8c8c09d5ca51d5b4c611875df643bef6.html#a8c8c09d5ca51d5b4c611875df643bef6" target="_top" xlink:title=" ">
<polygon fill="none" stroke="black" points="808,-329.5 808,-357.5 1014,-357.5 1014,-329.5 808,-329.5"/>
<text text-anchor="middle" x="911" y="-339.1" font-family="Helvetica,sans-Serif" font-size="18.00">ILI9341_t3_ERIS::begin</text>
</a>
</g>
</g>
<!-- Node6&#45;&gt;Node7 -->
<g id="edge6" class="edge">
<title>Node6&#45;&gt;Node7</title>
<path fill="none" stroke="midnightblue" d="M665.25,-192.56C690.42,-204.69 724.72,-224.23 748,-249.5 771.97,-275.52 755.64,-299.34 784,-320.5 788.51,-323.87 793.36,-326.79 798.44,-329.33"/>
<polygon fill="midnightblue" stroke="midnightblue" points="797.25,-332.63 807.81,-333.49 800.09,-326.23 797.25,-332.63"/>
</g>
<!-- Node8 -->
<g id="node8" class="node">
<title>Node8</title>
<g id="a_node8"><a xlink:href="../../d1/dff/class_touch_a057f1914b96362769a5384dbbfdb4195.html#a057f1914b96362769a5384dbbfdb4195" target="_top" xlink:title=" ">
<polygon fill="none" stroke="black" points="850,-282.5 850,-310.5 972,-310.5 972,-282.5 850,-282.5"/>
<text text-anchor="middle" x="911" y="-292.1" font-family="Helvetica,sans-Serif" font-size="18.00">Touch::begin</text>
</a>
</g>
</g>
<!-- Node6&#45;&gt;Node8 -->
<g id="edge7" class="edge">
<title>Node6&#45;&gt;Node8</title>
<path fill="none" stroke="midnightblue" d="M656.11,-192.66C679.56,-206.82 716.48,-229.32 748,-249.5 764.19,-259.87 766.17,-266.29 784,-273.5 801.56,-280.6 821.39,-285.52 840.03,-288.93"/>
<polygon fill="midnightblue" stroke="midnightblue" points="839.5,-292.39 849.94,-290.62 840.67,-285.49 839.5,-292.39"/>
</g>
<!-- Node9 -->
<g id="node9" class="node">
<title>Node9</title>
<g id="a_node9"><a xlink:href="../../dc/d40/_app_manager_8cpp_a5db3dd95011fd6a678ae291290091314.html#a5db3dd95011fd6a678ae291290091314" target="_top" xlink:title=" ">
<polygon fill="none" stroke="black" points="883,-235.5 883,-263.5 939,-263.5 939,-235.5 883,-235.5"/>
<text text-anchor="middle" x="911" y="-245.1" font-family="Helvetica,sans-Serif" font-size="18.00">draw</text>
</a>
</g>
</g>
<!-- Node6&#45;&gt;Node9 -->
<g id="edge8" class="edge">
<title>Node6&#45;&gt;Node9</title>
<path fill="none" stroke="midnightblue" d="M671.98,-192.52C702.33,-202.92 745.44,-216.91 784,-226.5 813.59,-233.86 847.62,-239.93 872.86,-243.99"/>
<polygon fill="midnightblue" stroke="midnightblue" points="872.33,-247.45 882.75,-245.54 873.42,-240.53 872.33,-247.45"/>
</g>
<!-- Node10 -->
<g id="node10" class="node">
<title>Node10</title>
<g id="a_node10"><a xlink:href="../../d1/dff/class_touch_a61a5d056f07ab08cb5924fa573dc3497.html#a61a5d056f07ab08cb5924fa573dc3497" target="_top" xlink:title=" ">
<polygon fill="none" stroke="black" points="792,-188.5 792,-216.5 1030,-216.5 1030,-188.5 792,-188.5"/>
<text text-anchor="middle" x="911" y="-198.1" font-family="Helvetica,sans-Serif" font-size="18.00">Touch::setCalibrationInputs</text>
</a>
</g>
</g>
<!-- Node6&#45;&gt;Node10 -->
<g id="edge9" class="edge">
<title>Node6&#45;&gt;Node10</title>
<path fill="none" stroke="midnightblue" d="M748.18,-188.5C759.22,-189.46 770.47,-190.43 781.62,-191.4"/>
<polygon fill="midnightblue" stroke="midnightblue" points="781.57,-194.91 791.83,-192.28 782.17,-187.93 781.57,-194.91"/>
</g>
<!-- Node11 -->
<g id="node11" class="node">
<title>Node11</title>
<g id="a_node11"><a xlink:href="../../d4/d7c/class_animation_a997d1203ae9418f121f355a5bd0700f0.html#a997d1203ae9418f121f355a5bd0700f0" target="_top" xlink:title=" ">
<polygon fill="none" stroke="black" points="827,-141.5 827,-169.5 995,-169.5 995,-141.5 827,-141.5"/>
<text text-anchor="middle" x="911" y="-151.1" font-family="Helvetica,sans-Serif" font-size="18.00">Animation::setPath</text>
</a>
</g>
</g>
<!-- Node6&#45;&gt;Node11 -->
<g id="edge10" class="edge">
<title>Node6&#45;&gt;Node11</title>
<path fill="none" stroke="midnightblue" d="M748.18,-168.91C771,-167.02 794.69,-165.06 816.66,-163.24"/>
<polygon fill="midnightblue" stroke="midnightblue" points="816.95,-166.72 826.63,-162.41 816.37,-159.75 816.95,-166.72"/>
</g>
<!-- Node12 -->
<g id="node12" class="node">
<title>Node12</title>
<g id="a_node12"><a xlink:href="../../d8/d5a/class_i_l_i9341__t3___e_r_i_s_a33f0105b1eecc4c37195900fcf0d5fd8.html#a33f0105b1eecc4c37195900fcf0d5fd8" target="_top" xlink:title=" ">
<polygon fill="none" stroke="black" points="784,-94.5 784,-122.5 1038,-122.5 1038,-94.5 784,-94.5"/>
<text text-anchor="middle" x="911" y="-104.1" font-family="Helvetica,sans-Serif" font-size="18.00">ILI9341_t3_ERIS::setPWMPin</text>
</a>
</g>
</g>
<!-- Node6&#45;&gt;Node12 -->
<g id="edge11" class="edge">
<title>Node6&#45;&gt;Node12</title>
<path fill="none" stroke="midnightblue" d="M674.29,-164.5C704.53,-154.69 746.5,-141.74 784,-132.5 795.4,-129.69 807.45,-127.02 819.4,-124.55"/>
<polygon fill="midnightblue" stroke="midnightblue" points="820.29,-127.94 829.4,-122.53 818.9,-121.08 820.29,-127.94"/>
</g>
<!-- Node13 -->
<g id="node13" class="node">
<title>Node13</title>
<g id="a_node13"><a xlink:href="../../d4/d7c/class_animation_ab5af4d2f56dce439c18ba9c4655f98f0.html#ab5af4d2f56dce439c18ba9c4655f98f0" target="_top" xlink:title=" ">
<polygon fill="none" stroke="black" points="833.5,-47.5 833.5,-75.5 988.5,-75.5 988.5,-47.5 833.5,-47.5"/>
<text text-anchor="middle" x="911" y="-57.1" font-family="Helvetica,sans-Serif" font-size="18.00">Animation::setSD</text>
</a>
</g>
</g>
<!-- Node6&#45;&gt;Node13 -->
<g id="edge12" class="edge">
<title>Node6&#45;&gt;Node13</title>
<path fill="none" stroke="midnightblue" d="M650.48,-164.42C677.74,-143.81 731.91,-105.67 784,-85.5 796.53,-80.65 810.16,-76.75 823.67,-73.63"/>
<polygon fill="midnightblue" stroke="midnightblue" points="824.44,-77.04 833.46,-71.48 822.95,-70.2 824.44,-77.04"/>
</g>
<!-- Node14 -->
<g id="node14" class="node">
<title>Node14</title>
<g id="a_node14"><a xlink:href="../../d8/d5a/class_i_l_i9341__t3___e_r_i_s_a2bfdbf675a570c74b787fd222185f25f.html#a2bfdbf675a570c74b787fd222185f25f" target="_top" xlink:title=" ">
<polygon fill="none" stroke="black" points="806.5,-0.5 806.5,-28.5 1015.5,-28.5 1015.5,-0.5 806.5,-0.5"/>
<text text-anchor="middle" x="911" y="-10.1" font-family="Helvetica,sans-Serif" font-size="18.00">ILI9341_t3_ERIS::setSD</text>
</a>
</g>
</g>
<!-- Node6&#45;&gt;Node14 -->
<g id="edge13" class="edge">
<title>Node6&#45;&gt;Node14</title>
<path fill="none" stroke="midnightblue" d="M643.24,-164.24C665.81,-135.38 721.33,-70.11 784,-38.5 788.85,-36.06 793.91,-33.86 799.11,-31.89"/>
<polygon fill="midnightblue" stroke="midnightblue" points="800.31,-35.17 808.6,-28.57 798,-28.57 800.31,-35.17"/>
</g>
</g>
</svg>
