<?xml version="1.0" encoding="UTF-8" standalone="no"?>
<!DOCTYPE svg PUBLIC "-//W3C//DTD SVG 1.1//EN"
 "http://www.w3.org/Graphics/SVG/1.1/DTD/svg11.dtd">
<!-- Generated by graphviz version 2.47.3 (20210619.1520)
 -->
<!-- Title: dataDictReadFloatCallback Pages: 1 -->
<!--zoomable 395 -->
<svg id="main" version="1.1" xmlns="http://www.w3.org/2000/svg" xmlns:xlink="http://www.w3.org/1999/xlink" xml:space="preserve" onload="init(evt)">
<style type="text/css"><![CDATA[
.edge:hover path { stroke: red; }
.edge:hover polygon { stroke: red; fill: red; }
]]></style>
<script type="text/javascript"><![CDATA[
var edges = document.getElementsByTagName('g');
if (edges && edges.length) {
  for (var i=0;i<edges.length;i++) {
    if (edges[i].id.substr(0,4)=='edge') {
      edges[i].setAttribute('class','edge');
    }
  }
}
]]></script>
        <defs>
                <circle id="rim" cx="0" cy="0" r="7"/>
                <circle id="rim2" cx="0" cy="0" r="3.5"/>
                <g id="zoomPlus">
                        <use xlink:href="#rim" fill="#404040">
                                <set attributeName="fill" to="#808080" begin="zoomplus.mouseover" end="zoomplus.mouseout"/>
                        </use>
                        <path d="M-4,0h8M0,-4v8" fill="none" stroke="white" stroke-width="1.5" pointer-events="none"/>
                </g>
                <g id="zoomMin">
                        <use xlink:href="#rim" fill="#404040">
                                <set attributeName="fill" to="#808080" begin="zoomminus.mouseover" end="zoomminus.mouseout"/>
                        </use>
                        <path d="M-4,0h8" fill="none" stroke="white" stroke-width="1.5" pointer-events="none"/>
                </g>
                <g id="dirArrow">
                        <path fill="none" stroke="white" stroke-width="1.5" d="M0,-3.0v7 M-2.5,-0.5L0,-3.0L2.5,-0.5"/>
                </g>
               <g id="resetDef">
                       <use xlink:href="#rim2" fill="#404040">
                               <set attributeName="fill" to="#808080" begin="reset.mouseover" end="reset.mouseout"/>
                       </use>
               </g>
        </defs>

<script type="text/javascript">
var viewWidth = 1502;
var viewHeight = 395;
var sectionId = 'dynsection-0';
</script>
<script xlink:href="../../svgpan.js"/>
<svg id="graph" class="graph">
<g id="viewport">
<title>dataDictReadFloatCallback</title>
<!-- Node1 -->
<g id="node1" class="node">
<title>Node1</title>
<g id="a_node1"><a xlink:title="SvcDataDictionary exported method which can be called from within a Wren VM instance.">
<polygon fill="#bfbfbf" stroke="black" points="0,-78.16 0,-106.16 236,-106.16 236,-78.16 0,-78.16"/>
<text text-anchor="middle" x="118" y="-87.76" font-family="Helvetica,sans-Serif" font-size="18.00">dataDictReadFloatCallback</text>
</a>
</g>
</g>
<!-- Node2 -->
<g id="node2" class="node">
<title>Node2</title>
<g id="a_node2"><a xlink:href="../../da/d96/class_app_manager_aa76d9691e8d029656413590fbe4dee86.html#aa76d9691e8d029656413590fbe4dee86" target="_top" xlink:title=" ">
<polygon fill="none" stroke="black" points="272,-101.16 272,-129.16 496,-129.16 496,-101.16 272,-101.16"/>
<text text-anchor="middle" x="384" y="-110.76" font-family="Helvetica,sans-Serif" font-size="18.00">AppManager::getInstance</text>
</a>
</g>
</g>
<!-- Node1&#45;&gt;Node2 -->
<g id="edge1" class="edge">
<title>Node1&#45;&gt;Node2</title>
<path fill="none" stroke="midnightblue" d="M236.33,-102.38C244.84,-103.12 253.44,-103.87 261.97,-104.62"/>
<polygon fill="midnightblue" stroke="midnightblue" points="261.69,-108.1 271.95,-105.49 262.29,-101.13 261.69,-108.1"/>
</g>
<!-- Node15 -->
<g id="node15" class="node">
<title>Node15</title>
<g id="a_node15"><a xlink:href="../../dc/d43/class_svc_data_dictionary_aa337729123597ee38e447b46bb835797.html#aa337729123597ee38e447b46bb835797" target="_top" xlink:title="returns the float32_t value of the record">
<polygon fill="none" stroke="black" points="541,-55.16 541,-83.16 756,-83.16 756,-55.16 541,-55.16"/>
<text text-anchor="middle" x="648.5" y="-64.76" font-family="Helvetica,sans-Serif" font-size="18.00">SvcDataDictionary::readf</text>
</a>
</g>
</g>
<!-- Node1&#45;&gt;Node15 -->
<g id="edge14" class="edge">
<title>Node1&#45;&gt;Node15</title>
<path fill="none" stroke="midnightblue" d="M236.29,-87.06C323.9,-83.24 443.11,-78.05 530.62,-74.25"/>
<polygon fill="midnightblue" stroke="midnightblue" points="531.02,-77.73 540.86,-73.8 530.72,-70.74 531.02,-77.73"/>
</g>
<!-- Node3 -->
<g id="node3" class="node">
<title>Node3</title>
<g id="a_node3"><a xlink:href="../../da/d96/class_app_manager_a9439da981933119c49a83a507d64eb23.html#a9439da981933119c49a83a507d64eb23" target="_top" xlink:title="Construct a new App Manager:: App Manager object using a private constructor (lazy singleton pattern)">
<polygon fill="none" stroke="black" points="532,-170.16 532,-198.16 765,-198.16 765,-170.16 532,-170.16"/>
<text text-anchor="middle" x="648.5" y="-179.76" font-family="Helvetica,sans-Serif" font-size="18.00">AppManager::AppManager</text>
</a>
</g>
</g>
<!-- Node2&#45;&gt;Node3 -->
<g id="edge2" class="edge">
<title>Node2&#45;&gt;Node3</title>
<path fill="none" stroke="midnightblue" d="M438.44,-129.21C480.66,-140.31 539.71,-155.83 584.29,-167.54"/>
<polygon fill="midnightblue" stroke="midnightblue" points="583.58,-170.98 594.14,-170.13 585.36,-164.21 583.58,-170.98"/>
</g>
<!-- Node4 -->
<g id="node4" class="node">
<title>Node4</title>
<g id="a_node4"><a xlink:href="../../d8/d5a/class_i_l_i9341__t3___e_r_i_s_a8c8c09d5ca51d5b4c611875df643bef6.html#a8c8c09d5ca51d5b4c611875df643bef6" target="_top" xlink:title=" ">
<polygon fill="none" stroke="black" points="825,-358.16 825,-386.16 1031,-386.16 1031,-358.16 825,-358.16"/>
<text text-anchor="middle" x="928" y="-367.76" font-family="Helvetica,sans-Serif" font-size="18.00">ILI9341_t3_ERIS::begin</text>
</a>
</g>
</g>
<!-- Node3&#45;&gt;Node4 -->
<g id="edge3" class="edge">
<title>Node3&#45;&gt;Node4</title>
<path fill="none" stroke="midnightblue" d="M658,-198.51C678.2,-231.21 732.56,-311.39 801,-349.16 805.57,-351.68 810.36,-353.93 815.29,-355.94"/>
<polygon fill="midnightblue" stroke="midnightblue" points="814.33,-359.32 824.92,-359.52 816.77,-352.76 814.33,-359.32"/>
</g>
<!-- Node5 -->
<g id="node5" class="node">
<title>Node5</title>
<g id="a_node5"><a xlink:href="../../d1/dff/class_touch_a057f1914b96362769a5384dbbfdb4195.html#a057f1914b96362769a5384dbbfdb4195" target="_top" xlink:title=" ">
<polygon fill="none" stroke="black" points="867,-311.16 867,-339.16 989,-339.16 989,-311.16 867,-311.16"/>
<text text-anchor="middle" x="928" y="-320.76" font-family="Helvetica,sans-Serif" font-size="18.00">Touch::begin</text>
</a>
</g>
</g>
<!-- Node3&#45;&gt;Node5 -->
<g id="edge4" class="edge">
<title>Node3&#45;&gt;Node5</title>
<path fill="none" stroke="midnightblue" d="M662.99,-198.48C687.74,-223.81 743.19,-276.26 801,-302.16 818.37,-309.94 838.22,-315.09 856.94,-318.5"/>
<polygon fill="midnightblue" stroke="midnightblue" points="856.46,-321.97 866.9,-320.17 857.62,-315.06 856.46,-321.97"/>
</g>
<!-- Node6 -->
<g id="node6" class="node">
<title>Node6</title>
<g id="a_node6"><a xlink:href="../../dc/d43/class_svc_data_dictionary_a3b09dc582adbb4d5c6f99f6e983a81f1.html#a3b09dc582adbb4d5c6f99f6e983a81f1" target="_top" xlink:title="create a record with ownership">
<polygon fill="none" stroke="black" points="816.5,-264.16 816.5,-292.16 1039.5,-292.16 1039.5,-264.16 816.5,-264.16"/>
<text text-anchor="middle" x="928" y="-273.76" font-family="Helvetica,sans-Serif" font-size="18.00">SvcDataDictionary::create</text>
</a>
</g>
</g>
<!-- Node3&#45;&gt;Node6 -->
<g id="edge5" class="edge">
<title>Node3&#45;&gt;Node6</title>
<path fill="none" stroke="midnightblue" d="M674.42,-198.29C703.8,-214.37 754.52,-240.3 801,-255.16 808.6,-257.59 816.55,-259.79 824.6,-261.78"/>
<polygon fill="midnightblue" stroke="midnightblue" points="823.92,-265.21 834.45,-264.1 825.52,-258.4 823.92,-265.21"/>
</g>
<!-- Node10 -->
<g id="node10" class="node">
<title>Node10</title>
<g id="a_node10"><a xlink:href="../../d1/dff/class_touch_a61a5d056f07ab08cb5924fa573dc3497.html#a61a5d056f07ab08cb5924fa573dc3497" target="_top" xlink:title=" ">
<polygon fill="none" stroke="black" points="809,-217.16 809,-245.16 1047,-245.16 1047,-217.16 809,-217.16"/>
<text text-anchor="middle" x="928" y="-226.76" font-family="Helvetica,sans-Serif" font-size="18.00">Touch::setCalibrationInputs</text>
</a>
</g>
</g>
<!-- Node3&#45;&gt;Node10 -->
<g id="edge9" class="edge">
<title>Node3&#45;&gt;Node10</title>
<path fill="none" stroke="midnightblue" d="M732.38,-198.2C764.37,-203.62 801.11,-209.84 833.99,-215.41"/>
<polygon fill="midnightblue" stroke="midnightblue" points="833.62,-218.89 844.06,-217.11 834.79,-211.99 833.62,-218.89"/>
</g>
<!-- Node11 -->
<g id="node11" class="node">
<title>Node11</title>
<g id="a_node11"><a xlink:href="../../d4/d7c/class_animation_a997d1203ae9418f121f355a5bd0700f0.html#a997d1203ae9418f121f355a5bd0700f0" target="_top" xlink:title=" ">
<polygon fill="none" stroke="black" points="844,-170.16 844,-198.16 1012,-198.16 1012,-170.16 844,-170.16"/>
<text text-anchor="middle" x="928" y="-179.76" font-family="Helvetica,sans-Serif" font-size="18.00">Animation::setPath</text>
</a>
</g>
</g>
<!-- Node3&#45;&gt;Node11 -->
<g id="edge10" class="edge">
<title>Node3&#45;&gt;Node11</title>
<path fill="none" stroke="midnightblue" d="M765.18,-184.16C787.9,-184.16 811.47,-184.16 833.37,-184.16"/>
<polygon fill="midnightblue" stroke="midnightblue" points="833.63,-187.66 843.63,-184.16 833.63,-180.66 833.63,-187.66"/>
</g>
<!-- Node12 -->
<g id="node12" class="node">
<title>Node12</title>
<g id="a_node12"><a xlink:href="../../d8/d5a/class_i_l_i9341__t3___e_r_i_s_a449053e8db3672d4902d76f093e52b14.html#a449053e8db3672d4902d76f093e52b14" target="_top" xlink:title=" ">
<polygon fill="none" stroke="black" points="801,-123.16 801,-151.16 1055,-151.16 1055,-123.16 801,-123.16"/>
<text text-anchor="middle" x="928" y="-132.76" font-family="Helvetica,sans-Serif" font-size="18.00">ILI9341_t3_ERIS::setPWMPin</text>
</a>
</g>
</g>
<!-- Node3&#45;&gt;Node12 -->
<g id="edge11" class="edge">
<title>Node3&#45;&gt;Node12</title>
<path fill="none" stroke="midnightblue" d="M732.38,-170.12C764.37,-164.7 801.11,-158.48 833.99,-152.91"/>
<polygon fill="midnightblue" stroke="midnightblue" points="834.79,-156.33 844.06,-151.21 833.62,-149.43 834.79,-156.33"/>
</g>
<!-- Node13 -->
<g id="node13" class="node">
<title>Node13</title>
<g id="a_node13"><a xlink:href="../../d4/d7c/class_animation_ab5af4d2f56dce439c18ba9c4655f98f0.html#ab5af4d2f56dce439c18ba9c4655f98f0" target="_top" xlink:title=" ">
<polygon fill="none" stroke="black" points="850.5,-76.16 850.5,-104.16 1005.5,-104.16 1005.5,-76.16 850.5,-76.16"/>
<text text-anchor="middle" x="928" y="-85.76" font-family="Helvetica,sans-Serif" font-size="18.00">Animation::setSD</text>
</a>
</g>
</g>
<!-- Node3&#45;&gt;Node13 -->
<g id="edge12" class="edge">
<title>Node3&#45;&gt;Node13</title>
<path fill="none" stroke="midnightblue" d="M674.42,-170.03C703.8,-153.95 754.52,-128.02 801,-113.16 813.49,-109.17 826.91,-105.79 840.17,-102.97"/>
<polygon fill="midnightblue" stroke="midnightblue" points="841.16,-106.34 850.26,-100.91 839.77,-99.48 841.16,-106.34"/>
</g>
<!-- Node14 -->
<g id="node14" class="node">
<title>Node14</title>
<g id="a_node14"><a xlink:href="../../d8/d5a/class_i_l_i9341__t3___e_r_i_s_a2bfdbf675a570c74b787fd222185f25f.html#a2bfdbf675a570c74b787fd222185f25f" target="_top" xlink:title=" ">
<polygon fill="none" stroke="black" points="823.5,-29.16 823.5,-57.16 1032.5,-57.16 1032.5,-29.16 823.5,-29.16"/>
<text text-anchor="middle" x="928" y="-38.76" font-family="Helvetica,sans-Serif" font-size="18.00">ILI9341_t3_ERIS::setSD</text>
</a>
</g>
</g>
<!-- Node3&#45;&gt;Node14 -->
<g id="edge13" class="edge">
<title>Node3&#45;&gt;Node14</title>
<path fill="none" stroke="midnightblue" d="M667.27,-169.95C705.64,-139.32 793.41,-69.56 801,-66.16 805.76,-64.03 810.71,-62.09 815.77,-60.34"/>
<polygon fill="midnightblue" stroke="midnightblue" points="817.16,-63.57 825.61,-57.18 815.02,-56.9 817.16,-63.57"/>
</g>
<!-- Node7 -->
<g id="node7" class="node">
<title>Node7</title>
<g id="a_node7"><a xlink:href="../../dc/d43/class_svc_data_dictionary_a7c7bd48b97fbcf18ef64337e12022619.html#a7c7bd48b97fbcf18ef64337e12022619" target="_top" xlink:title=" ">
<polygon fill="none" stroke="black" points="1091,-264.16 1091,-292.16 1333,-292.16 1333,-264.16 1091,-264.16"/>
<text text-anchor="middle" x="1212" y="-273.76" font-family="Helvetica,sans-Serif" font-size="18.00">SvcDataDictionary::copyKey</text>
</a>
</g>
</g>
<!-- Node6&#45;&gt;Node7 -->
<g id="edge6" class="edge">
<title>Node6&#45;&gt;Node7</title>
<path fill="none" stroke="midnightblue" d="M1039.64,-278.16C1053.18,-278.16 1067.1,-278.16 1080.89,-278.16"/>
<polygon fill="midnightblue" stroke="midnightblue" points="1080.9,-281.66 1090.9,-278.16 1080.9,-274.66 1080.9,-281.66"/>
</g>
<!-- Node9 -->
<g id="node9" class="node">
<title>Node9</title>
<g id="a_node9"><a xlink:href="../../dc/d43/class_svc_data_dictionary_ac4b80e87e8e9cf82926af2105b4e424a.html#ac4b80e87e8e9cf82926af2105b4e424a" target="_top" xlink:title="hashing function used to accelerate searches">
<polygon fill="none" stroke="black" points="1105.5,-102.16 1105.5,-130.16 1318.5,-130.16 1318.5,-102.16 1105.5,-102.16"/>
<text text-anchor="middle" x="1212" y="-111.76" font-family="Helvetica,sans-Serif" font-size="18.00">SvcDataDictionary::hash</text>
</a>
</g>
</g>
<!-- Node6&#45;&gt;Node9 -->
<g id="edge8" class="edge">
<title>Node6&#45;&gt;Node9</title>
<path fill="none" stroke="midnightblue" d="M1032.62,-264.07C1040.36,-261.57 1047.91,-258.62 1055,-255.16 1113.65,-226.53 1166.92,-169.48 1193.4,-138.1"/>
<polygon fill="midnightblue" stroke="midnightblue" points="1196.14,-140.28 1199.84,-130.35 1190.76,-135.8 1196.14,-140.28"/>
</g>
<!-- Node8 -->
<g id="node8" class="node">
<title>Node8</title>
<g id="a_node8"><a xlink:href="../../df/d51/_eris_utils_8h_acf90b2b3b47174f2ad15f9397a36dca1.html#acf90b2b3b47174f2ad15f9397a36dca1" target="_top" xlink:title="a safer strncpy">
<polygon fill="none" stroke="black" points="1369,-264.16 1369,-292.16 1494,-292.16 1494,-264.16 1369,-264.16"/>
<text text-anchor="middle" x="1431.5" y="-273.76" font-family="Helvetica,sans-Serif" font-size="18.00">safer_strncpy</text>
</a>
</g>
</g>
<!-- Node7&#45;&gt;Node8 -->
<g id="edge7" class="edge">
<title>Node7&#45;&gt;Node8</title>
<path fill="none" stroke="midnightblue" d="M1333.2,-278.16C1341.84,-278.16 1350.37,-278.16 1358.59,-278.16"/>
<polygon fill="midnightblue" stroke="midnightblue" points="1358.82,-281.66 1368.82,-278.16 1358.82,-274.66 1358.82,-281.66"/>
</g>
<!-- Node15&#45;&gt;Node9 -->
<g id="edge15" class="edge">
<title>Node15&#45;&gt;Node9</title>
<path fill="none" stroke="midnightblue" d="M681.84,-55.13C712.02,-42.87 758.61,-25.97 801,-19.16 912.46,-1.24 946.45,11.84 1055,-19.16 1106.91,-33.98 1158.39,-71.62 1187.3,-95.42"/>
<polygon fill="midnightblue" stroke="midnightblue" points="1185.27,-98.28 1195.18,-102.02 1189.77,-92.92 1185.27,-98.28"/>
</g>
</g>
</svg>
        <g id="navigator" transform="translate(0 0)" fill="#404254">
                <rect fill="#f2f5e9" fill-opacity="0.5" stroke="#606060" stroke-width=".5" x="0" y="0" width="60" height="60"/>
                <use id="zoomplus" xlink:href="#zoomPlus" x="17" y="9" onmousedown="handleZoom(evt,'in')"/>
                <use id="zoomminus" xlink:href="#zoomMin" x="42" y="9" onmousedown="handleZoom(evt,'out')"/>
                <use id="reset" xlink:href="#resetDef" x="30" y="36" onmousedown="handleReset()"/>
                <g id="arrowUp" xlink:href="#dirArrow" transform="translate(30 24)" onmousedown="handlePan(0,-1)">
                  <use xlink:href="#rim" fill="#404040">
                        <set attributeName="fill" to="#808080" begin="arrowUp.mouseover" end="arrowUp.mouseout"/>
                  </use>
                  <path fill="none" stroke="white" stroke-width="1.5" d="M0,-3.0v7 M-2.5,-0.5L0,-3.0L2.5,-0.5"/>
                </g>
                <g id="arrowRight" xlink:href="#dirArrow" transform="rotate(90) translate(36 -43)" onmousedown="handlePan(1,0)">
                  <use xlink:href="#rim" fill="#404040">
                        <set attributeName="fill" to="#808080" begin="arrowRight.mouseover" end="arrowRight.mouseout"/>
                  </use>
                  <path fill="none" stroke="white" stroke-width="1.5" d="M0,-3.0v7 M-2.5,-0.5L0,-3.0L2.5,-0.5"/>
                </g>
                <g id="arrowDown" xlink:href="#dirArrow" transform="rotate(180) translate(-30 -48)" onmousedown="handlePan(0,1)">
                  <use xlink:href="#rim" fill="#404040">
                        <set attributeName="fill" to="#808080" begin="arrowDown.mouseover" end="arrowDown.mouseout"/>
                  </use>
                  <path fill="none" stroke="white" stroke-width="1.5" d="M0,-3.0v7 M-2.5,-0.5L0,-3.0L2.5,-0.5"/>
                </g>
                <g id="arrowLeft" xlink:href="#dirArrow" transform="rotate(270) translate(-36 17)" onmousedown="handlePan(-1,0)">
                  <use xlink:href="#rim" fill="#404040">
                        <set attributeName="fill" to="#808080" begin="arrowLeft.mouseover" end="arrowLeft.mouseout"/>
                  </use>
                  <path fill="none" stroke="white" stroke-width="1.5" d="M0,-3.0v7 M-2.5,-0.5L0,-3.0L2.5,-0.5"/>
                </g>
        </g>
        <svg viewBox="0 0 15 15" width="100%" height="30px" preserveAspectRatio="xMaxYMin meet">
         <g id="arrow_out" transform="scale(0.3 0.3)">
          <a xlink:href="_app_wren_8cpp_a8a1f2538f4efc1d16a962797648c4e3d_a8a1f2538f4efc1d16a962797648c4e3d_cgraph_org.svg" target="_base">
           <rect id="button" ry="5" rx="5" y="6" x="6" height="38" width="38"
                fill="#f2f5e9" fill-opacity="0.5" stroke="#606060" stroke-width="1.0"/>
           <path id="arrow"
             d="M 11.500037,31.436501 C 11.940474,20.09759 22.043105,11.32322 32.158766,21.979434 L 37.068811,17.246167 C 37.068811,17.246167 37.088388,32 37.088388,32 L 22.160133,31.978069 C 22.160133,31.978069 26.997745,27.140456 26.997745,27.140456 C 18.528582,18.264221 13.291696,25.230495 11.500037,31.436501 z"
             style="fill:#404040;"/>
          </a>
         </g>
        </svg>
</svg>
