<?xml version="1.0" encoding="UTF-8" standalone="no"?>
<!DOCTYPE svg PUBLIC "-//W3C//DTD SVG 1.1//EN"
 "http://www.w3.org/Graphics/SVG/1.1/DTD/svg11.dtd">
<!-- Generated by graphviz version 2.47.3 (20210619.1520)
 -->
<!-- Title: AppAudioToPolyphonic::messageHandler Pages: 1 -->
<!--zoomable 311 -->
<svg id="main" version="1.1" xmlns="http://www.w3.org/2000/svg" xmlns:xlink="http://www.w3.org/1999/xlink" xml:space="preserve" onload="init(evt)">
<style type="text/css"><![CDATA[
.edge:hover path { stroke: red; }
.edge:hover polygon { stroke: red; fill: red; }
]]></style>
<script type="text/javascript"><![CDATA[
var edges = document.getElementsByTagName('g');
if (edges && edges.length) {
  for (var i=0;i<edges.length;i++) {
    if (edges[i].id.substr(0,4)=='edge') {
      edges[i].setAttribute('class','edge');
    }
  }
}
]]></script>
        <defs>
                <circle id="rim" cx="0" cy="0" r="7"/>
                <circle id="rim2" cx="0" cy="0" r="3.5"/>
                <g id="zoomPlus">
                        <use xlink:href="#rim" fill="#404040">
                                <set attributeName="fill" to="#808080" begin="zoomplus.mouseover" end="zoomplus.mouseout"/>
                        </use>
                        <path d="M-4,0h8M0,-4v8" fill="none" stroke="white" stroke-width="1.5" pointer-events="none"/>
                </g>
                <g id="zoomMin">
                        <use xlink:href="#rim" fill="#404040">
                                <set attributeName="fill" to="#808080" begin="zoomminus.mouseover" end="zoomminus.mouseout"/>
                        </use>
                        <path d="M-4,0h8" fill="none" stroke="white" stroke-width="1.5" pointer-events="none"/>
                </g>
                <g id="dirArrow">
                        <path fill="none" stroke="white" stroke-width="1.5" d="M0,-3.0v7 M-2.5,-0.5L0,-3.0L2.5,-0.5"/>
                </g>
               <g id="resetDef">
                       <use xlink:href="#rim2" fill="#404040">
                               <set attributeName="fill" to="#808080" begin="reset.mouseover" end="reset.mouseout"/>
                       </use>
               </g>
        </defs>

<script type="text/javascript">
var viewWidth = 1391;
var viewHeight = 311;
var sectionId = 'dynsection-0';
</script>
<script xlink:href="../../svgpan.js"/>
<svg id="graph" class="graph">
<g id="viewport">
<title>AppAudioToPolyphonic::messageHandler</title>
<!-- Node1 -->
<g id="node1" class="node">
<title>Node1</title>
<g id="a_node1"><a xlink:title="receiver method for inter&#45;app string based communication">
<polygon fill="#bfbfbf" stroke="black" points="0,-141.5 0,-169.5 351,-169.5 351,-141.5 0,-141.5"/>
<text text-anchor="middle" x="175.5" y="-151.1" font-family="Helvetica,sans-Serif" font-size="18.00">AppAudioToPolyphonic::messageHandler</text>
</a>
</g>
</g>
<!-- Node2 -->
<g id="node2" class="node">
<title>Node2</title>
<g id="a_node2"><a xlink:href="../../d4/dd5/class_audio_synth_waveform_ab5d0141790b5564716115191b82c5f48.html#ab5d0141790b5564716115191b82c5f48" target="_top" xlink:title=" ">
<polygon fill="none" stroke="black" points="405.5,-274.5 405.5,-302.5 686.5,-302.5 686.5,-274.5 405.5,-274.5"/>
<text text-anchor="middle" x="546" y="-284.1" font-family="Helvetica,sans-Serif" font-size="18.00">AudioSynthWaveform::amplitude</text>
</a>
</g>
</g>
<!-- Node1&#45;&gt;Node2 -->
<g id="edge1" class="edge">
<title>Node1&#45;&gt;Node2</title>
<path fill="none" stroke="midnightblue" d="M197.56,-169.61C234.29,-193.49 313.25,-241.63 387,-265.5 394.69,-267.99 402.67,-270.21 410.79,-272.19"/>
<polygon fill="midnightblue" stroke="midnightblue" points="410.21,-275.65 420.74,-274.49 411.78,-268.83 410.21,-275.65"/>
</g>
<!-- Node3 -->
<g id="node3" class="node">
<title>Node3</title>
<g id="a_node3"><a xlink:href="../../dc/d27/class_app_audio_to_polyphonic_a3d364aed0498754d8e63c082205be0a2.html#a3d364aed0498754d8e63c082205be0a2" target="_top" xlink:title=" ">
<polygon fill="none" stroke="black" points="387,-227.5 387,-255.5 705,-255.5 705,-227.5 387,-227.5"/>
<text text-anchor="middle" x="546" y="-237.1" font-family="Helvetica,sans-Serif" font-size="18.00">AppAudioToPolyphonic::changeVoice</text>
</a>
</g>
</g>
<!-- Node1&#45;&gt;Node3 -->
<g id="edge2" class="edge">
<title>Node1&#45;&gt;Node3</title>
<path fill="none" stroke="midnightblue" d="M223.87,-169.54C266.35,-181.83 330.51,-199.69 387,-212.5 407.66,-217.19 429.98,-221.64 451.14,-225.6"/>
<polygon fill="midnightblue" stroke="midnightblue" points="450.63,-229.06 461.1,-227.44 451.9,-222.18 450.63,-229.06"/>
</g>
<!-- Node4 -->
<g id="node4" class="node">
<title>Node4</title>
<g id="a_node4"><a xlink:href="../../d8/d1c/class_audio_director_a578f1deac0695f2db3ba245aaedc62df.html#a578f1deac0695f2db3ba245aaedc62df" target="_top" xlink:title=" ">
<polygon fill="none" stroke="black" points="741,-207.5 741,-235.5 1103,-235.5 1103,-207.5 741,-207.5"/>
<text text-anchor="middle" x="922" y="-217.1" font-family="Helvetica,sans-Serif" font-size="18.00">AudioDirector::getAudioStreamObjByName</text>
</a>
</g>
</g>
<!-- Node1&#45;&gt;Node4 -->
<g id="edge9" class="edge">
<title>Node1&#45;&gt;Node4</title>
<path fill="none" stroke="midnightblue" d="M299.44,-169.53C328.15,-172.64 358.64,-175.81 387,-178.5 500.92,-189.31 628.67,-199.66 730.65,-207.5"/>
<polygon fill="midnightblue" stroke="midnightblue" points="730.52,-211 740.75,-208.27 731.05,-204.02 730.52,-211"/>
</g>
<!-- Node5 -->
<g id="node5" class="node">
<title>Node5</title>
<g id="a_node5"><a xlink:href="../../d8/d1c/class_audio_director_ab4957e373e5d9078454d07da471f1d94.html#ab4957e373e5d9078454d07da471f1d94" target="_top" xlink:title=" ">
<polygon fill="none" stroke="black" points="446.5,-141.5 446.5,-169.5 645.5,-169.5 645.5,-141.5 446.5,-141.5"/>
<text text-anchor="middle" x="546" y="-151.1" font-family="Helvetica,sans-Serif" font-size="18.00">AudioDirector::connect</text>
</a>
</g>
</g>
<!-- Node1&#45;&gt;Node5 -->
<g id="edge4" class="edge">
<title>Node1&#45;&gt;Node5</title>
<path fill="none" stroke="midnightblue" d="M351.04,-155.5C380.07,-155.5 409.42,-155.5 436.21,-155.5"/>
<polygon fill="midnightblue" stroke="midnightblue" points="436.34,-159 446.34,-155.5 436.34,-152 436.34,-159"/>
</g>
<!-- Node8 -->
<g id="node8" class="node">
<title>Node8</title>
<g id="a_node8"><a xlink:href="../../d8/d1c/class_audio_director_aae48fff50fc2763f06611db46ae7c94e.html#aae48fff50fc2763f06611db46ae7c94e" target="_top" xlink:title=" ">
<polygon fill="none" stroke="black" points="435,-94.5 435,-122.5 657,-122.5 657,-94.5 435,-94.5"/>
<text text-anchor="middle" x="546" y="-104.1" font-family="Helvetica,sans-Serif" font-size="18.00">AudioDirector::disconnect</text>
</a>
</g>
</g>
<!-- Node1&#45;&gt;Node8 -->
<g id="edge7" class="edge">
<title>Node1&#45;&gt;Node8</title>
<path fill="none" stroke="midnightblue" d="M286.56,-141.46C330.24,-135.89 380.58,-129.47 425.17,-123.78"/>
<polygon fill="midnightblue" stroke="midnightblue" points="425.71,-127.24 435.19,-122.51 424.82,-120.3 425.71,-127.24"/>
</g>
<!-- Node9 -->
<g id="node9" class="node">
<title>Node9</title>
<g id="a_node9"><a xlink:href="../../d4/dd5/class_audio_synth_waveform_a395cff98439e97ba08854b343eed4317.html#a395cff98439e97ba08854b343eed4317" target="_top" xlink:title=" ">
<polygon fill="none" stroke="black" points="405.5,-47.5 405.5,-75.5 686.5,-75.5 686.5,-47.5 405.5,-47.5"/>
<text text-anchor="middle" x="546" y="-57.1" font-family="Helvetica,sans-Serif" font-size="18.00">AudioSynthWaveform::frequency</text>
</a>
</g>
</g>
<!-- Node1&#45;&gt;Node9 -->
<g id="edge8" class="edge">
<title>Node1&#45;&gt;Node9</title>
<path fill="none" stroke="midnightblue" d="M211.68,-141.45C253.02,-125.45 323.99,-99.58 387,-84.5 397.95,-81.88 409.4,-79.51 420.91,-77.38"/>
<polygon fill="midnightblue" stroke="midnightblue" points="421.81,-80.78 431.04,-75.57 420.58,-73.89 421.81,-80.78"/>
</g>
<!-- Node10 -->
<g id="node10" class="node">
<title>Node10</title>
<g id="a_node10"><a xlink:href="../../db/d69/class_app_base_class_aa989ddf4bdc4cbd9a61791ca45082177.html#aa989ddf4bdc4cbd9a61791ca45082177" target="_top" xlink:title="Compares the name_string to the app class instance name (string)">
<polygon fill="none" stroke="black" points="443.5,-0.5 443.5,-28.5 648.5,-28.5 648.5,-0.5 443.5,-0.5"/>
<text text-anchor="middle" x="546" y="-10.1" font-family="Helvetica,sans-Serif" font-size="18.00">AppBaseClass::isName</text>
</a>
</g>
</g>
<!-- Node1&#45;&gt;Node10 -->
<g id="edge10" class="edge">
<title>Node1&#45;&gt;Node10</title>
<path fill="none" stroke="midnightblue" d="M195.95,-141.32C231.77,-115.99 311.44,-63.19 387,-37.5 401.78,-32.48 417.7,-28.55 433.55,-25.48"/>
<polygon fill="midnightblue" stroke="midnightblue" points="434.19,-28.92 443.4,-23.68 432.93,-22.03 434.19,-28.92"/>
</g>
<!-- Node3&#45;&gt;Node4 -->
<g id="edge3" class="edge">
<title>Node3&#45;&gt;Node4</title>
<path fill="none" stroke="midnightblue" d="M705.07,-233.05C713.59,-232.59 722.2,-232.13 730.82,-231.67"/>
<polygon fill="midnightblue" stroke="midnightblue" points="731.14,-235.16 740.93,-231.13 730.76,-228.17 731.14,-235.16"/>
</g>
<!-- Node6 -->
<g id="node6" class="node">
<title>Node6</title>
<g id="a_node6"><a xlink:href="../../d2/d7c/class_audio_connection_a4208c4c7f60da78ae1daede7a6bfeb3f.html#a4208c4c7f60da78ae1daede7a6bfeb3f" target="_top" xlink:title=" ">
<polygon fill="none" stroke="black" points="816,-141.5 816,-169.5 1028,-169.5 1028,-141.5 816,-141.5"/>
<text text-anchor="middle" x="922" y="-151.1" font-family="Helvetica,sans-Serif" font-size="18.00">AudioConnection::rewire</text>
</a>
</g>
</g>
<!-- Node5&#45;&gt;Node6 -->
<g id="edge5" class="edge">
<title>Node5&#45;&gt;Node6</title>
<path fill="none" stroke="midnightblue" d="M645.75,-155.5C694.85,-155.5 754.48,-155.5 805.67,-155.5"/>
<polygon fill="midnightblue" stroke="midnightblue" points="805.79,-159 815.79,-155.5 805.79,-152 805.79,-159"/>
</g>
<!-- Node7 -->
<g id="node7" class="node">
<title>Node7</title>
<g id="a_node7"><a xlink:href="../../d2/d7c/class_audio_connection_ab86753a735bd46a3924035617b0c3623.html#ab86753a735bd46a3924035617b0c3623" target="_top" xlink:title=" ">
<polygon fill="none" stroke="black" points="1139,-141.5 1139,-169.5 1383,-169.5 1383,-141.5 1139,-141.5"/>
<text text-anchor="middle" x="1261" y="-151.1" font-family="Helvetica,sans-Serif" font-size="18.00">AudioConnection::reconnect</text>
</a>
</g>
</g>
<!-- Node6&#45;&gt;Node7 -->
<g id="edge6" class="edge">
<title>Node6&#45;&gt;Node7</title>
<path fill="none" stroke="midnightblue" d="M1028.24,-155.5C1060.01,-155.5 1095.28,-155.5 1128.53,-155.5"/>
<polygon fill="midnightblue" stroke="midnightblue" points="1128.78,-159 1138.78,-155.5 1128.78,-152 1128.78,-159"/>
</g>
</g>
</svg>
        <g id="navigator" transform="translate(0 0)" fill="#404254">
                <rect fill="#f2f5e9" fill-opacity="0.5" stroke="#606060" stroke-width=".5" x="0" y="0" width="60" height="60"/>
                <use id="zoomplus" xlink:href="#zoomPlus" x="17" y="9" onmousedown="handleZoom(evt,'in')"/>
                <use id="zoomminus" xlink:href="#zoomMin" x="42" y="9" onmousedown="handleZoom(evt,'out')"/>
                <use id="reset" xlink:href="#resetDef" x="30" y="36" onmousedown="handleReset()"/>
                <g id="arrowUp" xlink:href="#dirArrow" transform="translate(30 24)" onmousedown="handlePan(0,-1)">
                  <use xlink:href="#rim" fill="#404040">
                        <set attributeName="fill" to="#808080" begin="arrowUp.mouseover" end="arrowUp.mouseout"/>
                  </use>
                  <path fill="none" stroke="white" stroke-width="1.5" d="M0,-3.0v7 M-2.5,-0.5L0,-3.0L2.5,-0.5"/>
                </g>
                <g id="arrowRight" xlink:href="#dirArrow" transform="rotate(90) translate(36 -43)" onmousedown="handlePan(1,0)">
                  <use xlink:href="#rim" fill="#404040">
                        <set attributeName="fill" to="#808080" begin="arrowRight.mouseover" end="arrowRight.mouseout"/>
                  </use>
                  <path fill="none" stroke="white" stroke-width="1.5" d="M0,-3.0v7 M-2.5,-0.5L0,-3.0L2.5,-0.5"/>
                </g>
                <g id="arrowDown" xlink:href="#dirArrow" transform="rotate(180) translate(-30 -48)" onmousedown="handlePan(0,1)">
                  <use xlink:href="#rim" fill="#404040">
                        <set attributeName="fill" to="#808080" begin="arrowDown.mouseover" end="arrowDown.mouseout"/>
                  </use>
                  <path fill="none" stroke="white" stroke-width="1.5" d="M0,-3.0v7 M-2.5,-0.5L0,-3.0L2.5,-0.5"/>
                </g>
                <g id="arrowLeft" xlink:href="#dirArrow" transform="rotate(270) translate(-36 17)" onmousedown="handlePan(-1,0)">
                  <use xlink:href="#rim" fill="#404040">
                        <set attributeName="fill" to="#808080" begin="arrowLeft.mouseover" end="arrowLeft.mouseout"/>
                  </use>
                  <path fill="none" stroke="white" stroke-width="1.5" d="M0,-3.0v7 M-2.5,-0.5L0,-3.0L2.5,-0.5"/>
                </g>
        </g>
        <svg viewBox="0 0 15 15" width="100%" height="30px" preserveAspectRatio="xMaxYMin meet">
         <g id="arrow_out" transform="scale(0.3 0.3)">
          <a xlink:href="class_app_audio_to_polyphonic_a07757c615d81725236318fa3825d4e23_a07757c615d81725236318fa3825d4e23_cgraph_org.svg" target="_base">
           <rect id="button" ry="5" rx="5" y="6" x="6" height="38" width="38"
                fill="#f2f5e9" fill-opacity="0.5" stroke="#606060" stroke-width="1.0"/>
           <path id="arrow"
             d="M 11.500037,31.436501 C 11.940474,20.09759 22.043105,11.32322 32.158766,21.979434 L 37.068811,17.246167 C 37.068811,17.246167 37.088388,32 37.088388,32 L 22.160133,31.978069 C 22.160133,31.978069 26.997745,27.140456 26.997745,27.140456 C 18.528582,18.264221 13.291696,25.230495 11.500037,31.436501 z"
             style="fill:#404040;"/>
          </a>
         </g>
        </svg>
</svg>
