<?xml version="1.0" encoding="UTF-8" standalone="no"?>
<!DOCTYPE svg PUBLIC "-//W3C//DTD SVG 1.1//EN"
 "http://www.w3.org/Graphics/SVG/1.1/DTD/svg11.dtd">
<!-- Generated by graphviz version 2.47.3 (20210619.1520)
 -->
<!-- Title: AppAudioToPolyphonic::onAnalog3 Pages: 1 -->
<svg width="365pt" height="43pt"
 viewBox="0.00 0.00 365.00 43.00" xmlns="http://www.w3.org/2000/svg" xmlns:xlink="http://www.w3.org/1999/xlink">
<g id="graph0" class="graph" transform="scale(1 1) rotate(0) translate(4 39)">
<title>AppAudioToPolyphonic::onAnalog3</title>
<polygon fill="white" stroke="transparent" points="-4,4 -4,-39 361,-39 361,4 -4,4"/>
<!-- Node1 -->
<g id="node1" class="node">
<title>Node1</title>
<g id="a_node1"><a xlink:title=" ">
<polygon fill="#bfbfbf" stroke="black" points="0,-0.5 0,-34.5 140,-34.5 140,-0.5 0,-0.5"/>
<text text-anchor="start" x="8" y="-20.9" font-family="Helvetica,sans-Serif" font-size="12.00">AppAudioToPolyphonic</text>
<text text-anchor="middle" x="70" y="-7.9" font-family="Helvetica,sans-Serif" font-size="12.00">::onAnalog3</text>
</a>
</g>
</g>
<!-- Node2 -->
<g id="node2" class="node">
<title>Node2</title>
<g id="a_node2"><a xlink:href="../../d8/d1c/class_audio_director.html#a578f1deac0695f2db3ba245aaedc62df" target="_top" xlink:title=" ">
<polygon fill="white" stroke="black" points="176,-0.5 176,-34.5 357,-34.5 357,-0.5 176,-0.5"/>
<text text-anchor="start" x="184" y="-20.9" font-family="Helvetica,sans-Serif" font-size="12.00">AudioDirector::getAudioStream</text>
<text text-anchor="middle" x="266.5" y="-7.9" font-family="Helvetica,sans-Serif" font-size="12.00">ObjByName</text>
</a>
</g>
</g>
<!-- Node1&#45;&gt;Node2 -->
<g id="edge1" class="edge">
<title>Node1&#45;&gt;Node2</title>
<path fill="none" stroke="midnightblue" d="M140.12,-17.5C148.44,-17.5 157.06,-17.5 165.71,-17.5"/>
<polygon fill="midnightblue" stroke="midnightblue" points="165.85,-21 175.85,-17.5 165.85,-14 165.85,-21"/>
</g>
</g>
</svg>
