<?xml version="1.0" encoding="UTF-8" standalone="no"?>
<!DOCTYPE svg PUBLIC "-//W3C//DTD SVG 1.1//EN"
 "http://www.w3.org/Graphics/SVG/1.1/DTD/svg11.dtd">
<!-- Generated by graphviz version 2.47.3 (20210619.1520)
 -->
<!-- Title: AppAudioToPolyphonic::makeAudioConnections Pages: 1 -->
<svg width="332pt" height="43pt"
 viewBox="0.00 0.00 332.00 43.00" xmlns="http://www.w3.org/2000/svg" xmlns:xlink="http://www.w3.org/1999/xlink">
<g id="graph0" class="graph" transform="scale(1 1) rotate(0) translate(4 39)">
<title>AppAudioToPolyphonic::makeAudioConnections</title>
<polygon fill="white" stroke="transparent" points="-4,4 -4,-39 328,-39 328,4 -4,4"/>
<!-- Node1 -->
<g id="node1" class="node">
<title>Node1</title>
<g id="a_node1"><a xlink:title=" ">
<polygon fill="#bfbfbf" stroke="black" points="176,-0.5 176,-34.5 324,-34.5 324,-0.5 176,-0.5"/>
<text text-anchor="start" x="184" y="-20.9" font-family="Helvetica,sans-Serif" font-size="12.00">AppAudioToPolyphonic</text>
<text text-anchor="middle" x="250" y="-7.9" font-family="Helvetica,sans-Serif" font-size="12.00">::makeAudioConnections</text>
</a>
</g>
</g>
<!-- Node2 -->
<g id="node2" class="node">
<title>Node2</title>
<g id="a_node2"><a xlink:href="../../dc/d27/class_app_audio_to_polyphonic.html#a64eaca26636ef392e0d849bc7cfd4a01" target="_top" xlink:title=" ">
<polygon fill="white" stroke="black" points="0,-0.5 0,-34.5 140,-34.5 140,-0.5 0,-0.5"/>
<text text-anchor="start" x="8" y="-20.9" font-family="Helvetica,sans-Serif" font-size="12.00">AppAudioToPolyphonic</text>
<text text-anchor="middle" x="70" y="-7.9" font-family="Helvetica,sans-Serif" font-size="12.00">::onFocus</text>
</a>
</g>
</g>
<!-- Node1&#45;&gt;Node2 -->
<g id="edge1" class="edge">
<title>Node1&#45;&gt;Node2</title>
<path fill="none" stroke="midnightblue" d="M165.81,-17.5C157.22,-17.5 148.57,-17.5 140.16,-17.5"/>
<polygon fill="midnightblue" stroke="midnightblue" points="165.83,-21 175.83,-17.5 165.83,-14 165.83,-21"/>
</g>
</g>
</svg>
