<?xml version="1.0" encoding="UTF-8" standalone="no"?>
<!DOCTYPE svg PUBLIC "-//W3C//DTD SVG 1.1//EN"
 "http://www.w3.org/Graphics/SVG/1.1/DTD/svg11.dtd">
<!-- Generated by graphviz version 2.47.3 (20210619.1520)
 -->
<!-- Title: LZ4_decompress_safe_usingDict Pages: 1 -->
<svg width="815pt" height="150pt"
 viewBox="0.00 0.00 815.00 150.00" xmlns="http://www.w3.org/2000/svg" xmlns:xlink="http://www.w3.org/1999/xlink">
<g id="graph0" class="graph" transform="scale(1 1) rotate(0) translate(4 146)">
<title>LZ4_decompress_safe_usingDict</title>
<!-- Node1 -->
<g id="node1" class="node">
<title>Node1</title>
<g id="a_node1"><a xlink:title=" ">
<polygon fill="#bfbfbf" stroke="black" points="0,-60.5 0,-81.5 194,-81.5 194,-60.5 0,-60.5"/>
<text text-anchor="middle" x="97" y="-67.9" font-family="Helvetica,sans-Serif" font-size="12.00">LZ4_decompress_safe_usingDict</text>
</a>
</g>
</g>
<!-- Node2 -->
<g id="node2" class="node">
<title>Node2</title>
<g id="a_node2"><a xlink:href="../../d4/d05/lz4_8c_ae753d1e5bc9c6a1529b1fe73d39a4972.html#ae753d1e5bc9c6a1529b1fe73d39a4972" target="_top" xlink:title=" ">
<polygon fill="none" stroke="black" points="273,-120.5 273,-141.5 411,-141.5 411,-120.5 273,-120.5"/>
<text text-anchor="middle" x="342" y="-127.9" font-family="Helvetica,sans-Serif" font-size="12.00">LZ4_decompress_safe</text>
</a>
</g>
</g>
<!-- Node1&#45;&gt;Node2 -->
<g id="edge1" class="edge">
<title>Node1&#45;&gt;Node2</title>
<path fill="none" stroke="midnightblue" d="M129.19,-81.57C155.76,-90.3 195.08,-102.59 230,-111 241.38,-113.74 253.49,-116.29 265.38,-118.59"/>
<polygon fill="midnightblue" stroke="midnightblue" points="264.82,-122.04 275.29,-120.46 266.12,-115.17 264.82,-122.04"/>
</g>
<!-- Node10 -->
<g id="node8" class="node">
<title>Node10</title>
<g id="a_node8"><a xlink:href="../../d4/d05/lz4_8c_a8bb3038074030f03d5b70229b9841a51.html#a8bb3038074030f03d5b70229b9841a51" target="_top" xlink:title=" ">
<polygon fill="none" stroke="black" points="237.5,-80.5 237.5,-101.5 446.5,-101.5 446.5,-80.5 237.5,-80.5"/>
<text text-anchor="middle" x="342" y="-87.9" font-family="Helvetica,sans-Serif" font-size="12.00">LZ4_decompress_safe_forceExtDict</text>
</a>
</g>
</g>
<!-- Node1&#45;&gt;Node10 -->
<g id="edge7" class="edge">
<title>Node1&#45;&gt;Node10</title>
<path fill="none" stroke="midnightblue" d="M194.04,-78.9C204.91,-79.8 216.06,-80.72 227.13,-81.63"/>
<polygon fill="midnightblue" stroke="midnightblue" points="227,-85.13 237.26,-82.46 227.58,-78.15 227,-85.13"/>
</g>
<!-- Node11 -->
<g id="node9" class="node">
<title>Node11</title>
<g id="a_node9"><a xlink:href="../../d4/d05/lz4_8c_a2ceb6bc3c28b8e95a220343c6c40bed6.html#a2ceb6bc3c28b8e95a220343c6c40bed6" target="_top" xlink:title=" ">
<polygon fill="none" stroke="black" points="234.5,-40.5 234.5,-61.5 449.5,-61.5 449.5,-40.5 234.5,-40.5"/>
<text text-anchor="middle" x="342" y="-47.9" font-family="Helvetica,sans-Serif" font-size="12.00">LZ4_decompress_safe_withPrefix64k</text>
</a>
</g>
</g>
<!-- Node1&#45;&gt;Node11 -->
<g id="edge9" class="edge">
<title>Node1&#45;&gt;Node11</title>
<path fill="none" stroke="midnightblue" d="M194.04,-63.1C203.99,-62.28 214.18,-61.44 224.32,-60.6"/>
<polygon fill="midnightblue" stroke="midnightblue" points="224.76,-64.08 234.44,-59.77 224.19,-57.1 224.76,-64.08"/>
</g>
<!-- Node12 -->
<g id="node10" class="node">
<title>Node12</title>
<g id="a_node10"><a xlink:href="../../d4/d05/lz4_8c_a7686ce8b0d531b982551ab501b65c067.html#a7686ce8b0d531b982551ab501b65c067" target="_top" xlink:title=" ">
<polygon fill="none" stroke="black" points="230,-0.5 230,-21.5 454,-21.5 454,-0.5 230,-0.5"/>
<text text-anchor="middle" x="342" y="-7.9" font-family="Helvetica,sans-Serif" font-size="12.00">LZ4_decompress_safe_withSmallPrefix</text>
</a>
</g>
</g>
<!-- Node1&#45;&gt;Node12 -->
<g id="edge11" class="edge">
<title>Node1&#45;&gt;Node12</title>
<path fill="none" stroke="midnightblue" d="M129.19,-60.43C155.76,-51.7 195.08,-39.41 230,-31 241.38,-28.26 253.49,-25.71 265.38,-23.41"/>
<polygon fill="midnightblue" stroke="midnightblue" points="266.12,-26.83 275.29,-21.54 264.82,-19.96 266.12,-26.83"/>
</g>
<!-- Node3 -->
<g id="node3" class="node">
<title>Node3</title>
<g id="a_node3"><a xlink:href="../../d4/d05/lz4_8c_ac53b33bff098af0f44931aaae87ef585.html#ac53b33bff098af0f44931aaae87ef585" target="_top" xlink:title=" ">
<polygon fill="none" stroke="black" points="490,-60.5 490,-81.5 645,-81.5 645,-60.5 490,-60.5"/>
<text text-anchor="middle" x="567.5" y="-67.9" font-family="Helvetica,sans-Serif" font-size="12.00">LZ4_decompress_generic</text>
</a>
</g>
</g>
<!-- Node2&#45;&gt;Node3 -->
<g id="edge2" class="edge">
<title>Node2&#45;&gt;Node3</title>
<path fill="none" stroke="midnightblue" d="M411.19,-120.53C425.43,-117.83 440.28,-114.65 454,-111 480.23,-104.02 509.06,-93.72 530.97,-85.32"/>
<polygon fill="midnightblue" stroke="midnightblue" points="532.46,-88.49 540.51,-81.61 529.93,-81.97 532.46,-88.49"/>
</g>
<!-- Node4 -->
<g id="node4" class="node">
<title>Node4</title>
<g id="a_node4"><a xlink:href="../../d4/d05/lz4_8c_a69a8c81f7731ff4ae0d292541bbb2d69.html#a69a8c81f7731ff4ae0d292541bbb2d69" target="_top" xlink:title=" ">
<polygon fill="none" stroke="red" points="696,-120.5 696,-141.5 792,-141.5 792,-120.5 696,-120.5"/>
<text text-anchor="middle" x="744" y="-127.9" font-family="Helvetica,sans-Serif" font-size="12.00">LZ4_readLE16</text>
</a>
</g>
</g>
<!-- Node3&#45;&gt;Node4 -->
<g id="edge3" class="edge">
<title>Node3&#45;&gt;Node4</title>
<path fill="none" stroke="midnightblue" d="M597.55,-81.6C620.22,-89.8 652.53,-101.35 681,-111 687.12,-113.07 693.59,-115.22 699.95,-117.3"/>
<polygon fill="midnightblue" stroke="midnightblue" points="699.21,-120.73 709.8,-120.49 701.37,-114.07 699.21,-120.73"/>
</g>
<!-- Node7 -->
<g id="node5" class="node">
<title>Node7</title>
<g id="a_node5"><a xlink:href="../../d4/d05/lz4_8c_a07728e73c2d01917fa46e28357fb6fd1.html#a07728e73c2d01917fa46e28357fb6fd1" target="_top" xlink:title=" ">
<polygon fill="none" stroke="black" points="695,-80.5 695,-101.5 793,-101.5 793,-80.5 695,-80.5"/>
<text text-anchor="middle" x="744" y="-87.9" font-family="Helvetica,sans-Serif" font-size="12.00">LZ4_wildCopy8</text>
</a>
</g>
</g>
<!-- Node3&#45;&gt;Node7 -->
<g id="edge4" class="edge">
<title>Node3&#45;&gt;Node7</title>
<path fill="none" stroke="midnightblue" d="M645.04,-79.77C658.33,-81.3 671.97,-82.86 684.68,-84.32"/>
<polygon fill="midnightblue" stroke="midnightblue" points="684.31,-87.8 694.65,-85.46 685.11,-80.84 684.31,-87.8"/>
</g>
<!-- Node8 -->
<g id="node6" class="node">
<title>Node8</title>
<g id="a_node6"><a xlink:href="../../d4/d05/lz4_8c_a2e50fa2df2ee7536797308f96806df83.html#a2e50fa2df2ee7536797308f96806df83" target="_top" xlink:title=" ">
<polygon fill="none" stroke="black" points="703,-40.5 703,-61.5 785,-61.5 785,-40.5 703,-40.5"/>
<text text-anchor="middle" x="744" y="-47.9" font-family="Helvetica,sans-Serif" font-size="12.00">LZ4_write32</text>
</a>
</g>
</g>
<!-- Node3&#45;&gt;Node8 -->
<g id="edge5" class="edge">
<title>Node3&#45;&gt;Node8</title>
<path fill="none" stroke="midnightblue" d="M645.04,-62.23C661.26,-60.37 677.98,-58.45 692.91,-56.74"/>
<polygon fill="midnightblue" stroke="midnightblue" points="693.4,-60.21 702.94,-55.59 692.61,-53.25 693.4,-60.21"/>
</g>
<!-- Node9 -->
<g id="node7" class="node">
<title>Node9</title>
<g id="a_node7"><a xlink:href="../../d4/d05/lz4_8c_a54ff5f47024f14f6cbc486fa483811f4.html#a54ff5f47024f14f6cbc486fa483811f4" target="_top" xlink:title=" ">
<polygon fill="none" stroke="black" points="681,-0.5 681,-21.5 807,-21.5 807,-0.5 681,-0.5"/>
<text text-anchor="middle" x="744" y="-7.9" font-family="Helvetica,sans-Serif" font-size="12.00">read_variable_length</text>
</a>
</g>
</g>
<!-- Node3&#45;&gt;Node9 -->
<g id="edge6" class="edge">
<title>Node3&#45;&gt;Node9</title>
<path fill="none" stroke="midnightblue" d="M597.55,-60.4C620.22,-52.2 652.53,-40.65 681,-31 687.12,-28.93 693.59,-26.78 699.95,-24.7"/>
<polygon fill="midnightblue" stroke="midnightblue" points="701.37,-27.93 709.8,-21.51 699.21,-21.27 701.37,-27.93"/>
</g>
<!-- Node10&#45;&gt;Node3 -->
<g id="edge8" class="edge">
<title>Node10&#45;&gt;Node3</title>
<path fill="none" stroke="midnightblue" d="M446.57,-81.73C457.65,-80.74 468.83,-79.74 479.68,-78.77"/>
<polygon fill="midnightblue" stroke="midnightblue" points="480.33,-82.23 489.97,-77.85 479.7,-75.25 480.33,-82.23"/>
</g>
<!-- Node11&#45;&gt;Node3 -->
<g id="edge10" class="edge">
<title>Node11&#45;&gt;Node3</title>
<path fill="none" stroke="midnightblue" d="M449.51,-60.53C459.61,-61.43 469.76,-62.34 479.64,-63.23"/>
<polygon fill="midnightblue" stroke="midnightblue" points="479.56,-66.73 489.83,-64.14 480.18,-59.76 479.56,-66.73"/>
</g>
<!-- Node12&#45;&gt;Node3 -->
<g id="edge12" class="edge">
<title>Node12&#45;&gt;Node3</title>
<path fill="none" stroke="midnightblue" d="M411.48,-21.53C425.63,-24.21 440.38,-27.38 454,-31 480.23,-37.98 509.06,-48.28 530.97,-56.68"/>
<polygon fill="midnightblue" stroke="midnightblue" points="529.93,-60.03 540.51,-60.39 532.46,-53.51 529.93,-60.03"/>
</g>
</g>
</svg>
