<?xml version="1.0" encoding="UTF-8" standalone="no"?>
<!DOCTYPE svg PUBLIC "-//W3C//DTD SVG 1.1//EN"
 "http://www.w3.org/Graphics/SVG/1.1/DTD/svg11.dtd">
<!-- Generated by graphviz version 2.47.3 (20210619.1520)
 -->
<!-- Title: erisAudioOutputI2SQuad Pages: 1 -->
<svg width="338pt" height="238pt"
 viewBox="0.00 0.00 337.50 238.00" xmlns="http://www.w3.org/2000/svg" xmlns:xlink="http://www.w3.org/1999/xlink">
<g id="graph0" class="graph" transform="scale(1 1) rotate(0) translate(4 234)">
<title>erisAudioOutputI2SQuad</title>
<!-- Node1 -->
<g id="node1" class="node">
<title>Node1</title>
<g id="a_node1"><a xlink:title=" ">
<polygon fill="#bfbfbf" stroke="black" points="36,-0.5 36,-96.5 249,-96.5 249,-0.5 36,-0.5"/>
<text text-anchor="middle" x="142.5" y="-79.7" font-family="Helvetica,sans-Serif" font-size="16.00">erisAudioOutputI2SQuad</text>
<polyline fill="none" stroke="black" points="36,-70.5 249,-70.5 "/>
<text text-anchor="middle" x="142.5" y="-53.7" font-family="Helvetica,sans-Serif" font-size="16.00"> </text>
<polyline fill="none" stroke="black" points="36,-44.5 249,-44.5 "/>
<text text-anchor="start" x="44" y="-27.7" font-family="Helvetica,sans-Serif" font-size="16.00">+ erisAudioOutputI2SQuad()</text>
<text text-anchor="start" x="44" y="-9.7" font-family="Helvetica,sans-Serif" font-size="16.00">+ void update()</text>
</a>
</g>
</g>
<!-- Node2 -->
<g id="node2" class="node">
<title>Node2</title>
<g id="a_node2"><a xlink:href="../../d6/d00/class_audio_output_i2_s_quad.html" target="_top" xlink:title=" ">
<polygon fill="none" stroke="black" points="0,-151.5 0,-229.5 163,-229.5 163,-151.5 0,-151.5"/>
<text text-anchor="middle" x="81.5" y="-212.7" font-family="Helvetica,sans-Serif" font-size="16.00">AudioOutputI2SQuad</text>
<polyline fill="none" stroke="black" points="0,-203.5 163,-203.5 "/>
<text text-anchor="middle" x="81.5" y="-186.7" font-family="Helvetica,sans-Serif" font-size="16.00"> </text>
<polyline fill="none" stroke="black" points="0,-177.5 163,-177.5 "/>
<text text-anchor="middle" x="81.5" y="-160.7" font-family="Helvetica,sans-Serif" font-size="16.00"> </text>
</a>
</g>
</g>
<!-- Node2&#45;&gt;Node1 -->
<g id="edge1" class="edge">
<title>Node2&#45;&gt;Node1</title>
<path fill="none" stroke="midnightblue" d="M102.24,-141.9C108.6,-127.31 115.59,-111.27 121.93,-96.7"/>
<polygon fill="none" stroke="midnightblue" points="98.95,-140.68 98.17,-151.24 105.37,-143.47 98.95,-140.68"/>
</g>
<!-- Node3 -->
<g id="node3" class="node">
<title>Node3</title>
<g id="a_node3"><a xlink:title=" ">
<polygon fill="none" stroke="#bfbfbf" points="181,-151.5 181,-229.5 228,-229.5 228,-151.5 181,-151.5"/>
<text text-anchor="middle" x="204.5" y="-212.7" font-family="Helvetica,sans-Serif" font-size="16.00">char</text>
<polyline fill="none" stroke="#bfbfbf" points="181,-203.5 228,-203.5 "/>
<text text-anchor="middle" x="204.5" y="-186.7" font-family="Helvetica,sans-Serif" font-size="16.00"> </text>
<polyline fill="none" stroke="#bfbfbf" points="181,-177.5 228,-177.5 "/>
<text text-anchor="middle" x="204.5" y="-160.7" font-family="Helvetica,sans-Serif" font-size="16.00"> </text>
</a>
</g>
</g>
<!-- Node3&#45;&gt;Node1 -->
<g id="edge2" class="edge">
<title>Node3&#45;&gt;Node1</title>
<path fill="none" stroke="#404040" d="M187.56,-151.24C181.62,-137.83 174.8,-122.43 168.3,-107.75"/>
<polygon fill="none" stroke="#404040" points="168.26,-107.67 162.18,-103.81 163.4,-96.7 169.49,-100.57 168.26,-107.67"/>
<text text-anchor="middle" x="254" y="-120.2" font-family="Helvetica,sans-Serif" font-size="16.00"> +short_name_lookup</text>
</g>
</g>
</svg>
