<?xml version="1.0" encoding="UTF-8" standalone="no"?>
<!DOCTYPE svg PUBLIC "-//W3C//DTD SVG 1.1//EN"
 "http://www.w3.org/Graphics/SVG/1.1/DTD/svg11.dtd">
<!-- Generated by graphviz version 2.47.3 (20210619.1520)
 -->
<!-- Title: ILI9341_t3_ERIS::bltSD Pages: 1 -->
<svg width="1252pt" height="148pt"
 viewBox="0.00 0.00 1252.00 148.00" xmlns="http://www.w3.org/2000/svg" xmlns:xlink="http://www.w3.org/1999/xlink">
<g id="graph0" class="graph" transform="scale(1 1) rotate(0) translate(4 144)">
<title>ILI9341_t3_ERIS::bltSD</title>
<!-- Node1 -->
<g id="node1" class="node">
<title>Node1</title>
<g id="a_node1"><a xlink:title=" ">
<polygon fill="#bfbfbf" stroke="black" points="1059,-45.5 1059,-71.5 1244,-71.5 1244,-45.5 1059,-45.5"/>
<text text-anchor="middle" x="1151.5" y="-54.7" font-family="Helvetica,sans-Serif" font-size="16.00">ILI9341_t3_ERIS::bltSD</text>
</a>
</g>
</g>
<!-- Node2 -->
<g id="node2" class="node">
<title>Node2</title>
<g id="a_node2"><a xlink:href="../../d8/d5a/class_i_l_i9341__t3___e_r_i_s_a8416f56438e4920e01699ee24d2a8ebc.html#a8416f56438e4920e01699ee24d2a8ebc" target="_top" xlink:title=" ">
<polygon fill="none" stroke="black" points="838,-90.5 838,-116.5 1023,-116.5 1023,-90.5 838,-90.5"/>
<text text-anchor="middle" x="930.5" y="-99.7" font-family="Helvetica,sans-Serif" font-size="16.00">ILI9341_t3_ERIS::bltSD</text>
</a>
</g>
</g>
<!-- Node1&#45;&gt;Node2 -->
<g id="edge1" class="edge">
<title>Node1&#45;&gt;Node2</title>
<path fill="none" stroke="midnightblue" d="M1077.14,-73.57C1050.55,-79.04 1020.76,-85.16 995.08,-90.44"/>
<polygon fill="midnightblue" stroke="midnightblue" points="1078.07,-76.96 1087.16,-71.52 1076.66,-70.1 1078.07,-76.96"/>
</g>
<!-- Node3 -->
<g id="node3" class="node">
<title>Node3</title>
<g id="a_node3"><a xlink:href="../../d7/d7e/_app_wren_8cpp_ac2d17abd6b82fc40c0f2425cef003f08.html#ac2d17abd6b82fc40c0f2425cef003f08" target="_top" xlink:title="VM callback for extention method.">
<polygon fill="none" stroke="black" points="856.5,-45.5 856.5,-71.5 1004.5,-71.5 1004.5,-45.5 856.5,-45.5"/>
<text text-anchor="middle" x="930.5" y="-54.7" font-family="Helvetica,sans-Serif" font-size="16.00">loadImageCallback</text>
</a>
</g>
</g>
<!-- Node1&#45;&gt;Node3 -->
<g id="edge2" class="edge">
<title>Node1&#45;&gt;Node3</title>
<path fill="none" stroke="midnightblue" d="M1048.68,-58.5C1033.87,-58.5 1018.87,-58.5 1004.78,-58.5"/>
<polygon fill="midnightblue" stroke="midnightblue" points="1048.89,-62 1058.89,-58.5 1048.89,-55 1048.89,-62"/>
</g>
<!-- Node11 -->
<g id="node11" class="node">
<title>Node11</title>
<g id="a_node11"><a xlink:href="../../df/d17/class_control_button_a2e7fe7a681fb8dc79080fc5e7a22bb83.html#a2e7fe7a681fb8dc79080fc5e7a22bb83" target="_top" xlink:title=" ">
<polygon fill="none" stroke="black" points="846.5,-0.5 846.5,-26.5 1014.5,-26.5 1014.5,-0.5 846.5,-0.5"/>
<text text-anchor="middle" x="930.5" y="-9.7" font-family="Helvetica,sans-Serif" font-size="16.00">ControlButton::update</text>
</a>
</g>
</g>
<!-- Node1&#45;&gt;Node11 -->
<g id="edge10" class="edge">
<title>Node1&#45;&gt;Node11</title>
<path fill="none" stroke="midnightblue" d="M1077.14,-43.43C1050.55,-37.96 1020.76,-31.84 995.08,-26.56"/>
<polygon fill="midnightblue" stroke="midnightblue" points="1076.66,-46.9 1087.16,-45.48 1078.07,-40.04 1076.66,-46.9"/>
</g>
<!-- Node4 -->
<g id="node4" class="node">
<title>Node4</title>
<g id="a_node4"><a xlink:href="../../d7/d7e/_app_wren_8cpp_afe955d602a19a51c186913d9dc8ff707.html#afe955d602a19a51c186913d9dc8ff707" target="_top" xlink:title="callback function for Wren to request an exported function bindings">
<polygon fill="none" stroke="black" points="652,-45.5 652,-71.5 802,-71.5 802,-45.5 652,-45.5"/>
<text text-anchor="middle" x="727" y="-54.7" font-family="Helvetica,sans-Serif" font-size="16.00">bindForeignMethod</text>
</a>
</g>
</g>
<!-- Node3&#45;&gt;Node4 -->
<g id="edge3" class="edge">
<title>Node3&#45;&gt;Node4</title>
<path fill="none" stroke="midnightblue" d="M846.41,-58.5C831.73,-58.5 816.54,-58.5 802.14,-58.5"/>
<polygon fill="midnightblue" stroke="midnightblue" points="846.47,-62 856.47,-58.5 846.47,-55 846.47,-62"/>
</g>
<!-- Node5 -->
<g id="node5" class="node">
<title>Node5</title>
<g id="a_node5"><a xlink:href="../../d0/da0/class_app_wren_a0b139e8eac17bd02ffaff68532c3e4fc.html#a0b139e8eac17bd02ffaff68532c3e4fc" target="_top" xlink:title="start the VM">
<polygon fill="none" stroke="black" points="472,-45.5 472,-71.5 616,-71.5 616,-45.5 472,-45.5"/>
<text text-anchor="middle" x="544" y="-54.7" font-family="Helvetica,sans-Serif" font-size="16.00">AppWren::startVM</text>
</a>
</g>
</g>
<!-- Node4&#45;&gt;Node5 -->
<g id="edge4" class="edge">
<title>Node4&#45;&gt;Node5</title>
<path fill="none" stroke="midnightblue" d="M641.82,-58.5C633.22,-58.5 624.55,-58.5 616.11,-58.5"/>
<polygon fill="midnightblue" stroke="midnightblue" points="641.86,-62 651.86,-58.5 641.86,-55 641.86,-62"/>
</g>
<!-- Node6 -->
<g id="node6" class="node">
<title>Node6</title>
<g id="a_node6"><a xlink:href="../../d0/da0/class_app_wren_aedf9a5e77ba482fde47e52125e9ca292.html#aedf9a5e77ba482fde47e52125e9ca292" target="_top" xlink:title="shutsdown then starts the VM">
<polygon fill="none" stroke="black" points="261,-68.5 261,-94.5 419,-94.5 419,-68.5 261,-68.5"/>
<text text-anchor="middle" x="340" y="-77.7" font-family="Helvetica,sans-Serif" font-size="16.00">AppWren::restartVM</text>
</a>
</g>
</g>
<!-- Node5&#45;&gt;Node6 -->
<g id="edge5" class="edge">
<title>Node5&#45;&gt;Node6</title>
<path fill="none" stroke="midnightblue" d="M461.67,-67.76C447.64,-69.36 433.08,-71.02 419.13,-72.6"/>
<polygon fill="midnightblue" stroke="midnightblue" points="462.24,-71.22 471.78,-66.61 461.45,-64.26 462.24,-71.22"/>
</g>
<!-- Node9 -->
<g id="node9" class="node">
<title>Node9</title>
<g id="a_node9"><a xlink:href="../../d0/da0/class_app_wren_af9fc192669efcd782a665bc5918aaaa3.html#af9fc192669efcd782a665bc5918aaaa3" target="_top" xlink:title="start, load and configure the handles of the VM">
<polygon fill="none" stroke="black" points="244,-23.5 244,-49.5 436,-49.5 436,-23.5 244,-23.5"/>
<text text-anchor="middle" x="340" y="-32.7" font-family="Helvetica,sans-Serif" font-size="16.00">AppWren::vmConstructor</text>
</a>
</g>
</g>
<!-- Node5&#45;&gt;Node9 -->
<g id="edge8" class="edge">
<title>Node5&#45;&gt;Node9</title>
<path fill="none" stroke="midnightblue" d="M461.71,-49.65C453.36,-48.74 444.83,-47.81 436.34,-46.88"/>
<polygon fill="midnightblue" stroke="midnightblue" points="461.46,-53.14 471.78,-50.74 462.22,-46.18 461.46,-53.14"/>
</g>
<!-- Node7 -->
<g id="node7" class="node">
<title>Node7</title>
<g id="a_node7"><a xlink:href="../../d0/da0/class_app_wren_a9545f907e7bca8484595d63ade9abe96.html#a9545f907e7bca8484595d63ade9abe96" target="_top" xlink:title="handles messages from other sw components">
<polygon fill="none" stroke="black" points="0,-113.5 0,-139.5 208,-139.5 208,-113.5 0,-113.5"/>
<text text-anchor="middle" x="104" y="-122.7" font-family="Helvetica,sans-Serif" font-size="16.00">AppWren::MessageHandler</text>
</a>
</g>
</g>
<!-- Node6&#45;&gt;Node7 -->
<g id="edge6" class="edge">
<title>Node6&#45;&gt;Node7</title>
<path fill="none" stroke="midnightblue" d="M261.36,-96.43C232.76,-101.93 200.61,-108.11 172.94,-113.44"/>
<polygon fill="midnightblue" stroke="midnightblue" points="262.16,-99.84 271.32,-94.52 260.84,-92.97 262.16,-99.84"/>
</g>
<!-- Node8 -->
<g id="node8" class="node">
<title>Node8</title>
<g id="a_node8"><a xlink:href="../../d0/da0/class_app_wren_a46ef63c583efb89334bc8fbf20cf7a83.html#a46ef63c583efb89334bc8fbf20cf7a83" target="_top" xlink:title="class specific update implementation">
<polygon fill="none" stroke="black" points="35.5,-68.5 35.5,-94.5 172.5,-94.5 172.5,-68.5 35.5,-68.5"/>
<text text-anchor="middle" x="104" y="-77.7" font-family="Helvetica,sans-Serif" font-size="16.00">AppWren::update</text>
</a>
</g>
</g>
<!-- Node6&#45;&gt;Node8 -->
<g id="edge7" class="edge">
<title>Node6&#45;&gt;Node8</title>
<path fill="none" stroke="midnightblue" d="M250.58,-81.5C224.74,-81.5 196.92,-81.5 172.59,-81.5"/>
<polygon fill="midnightblue" stroke="midnightblue" points="250.76,-85 260.76,-81.5 250.76,-78 250.76,-85"/>
</g>
<!-- Node10 -->
<g id="node10" class="node">
<title>Node10</title>
<g id="a_node10"><a xlink:href="../../d0/da0/class_app_wren_aa63148d0906a6b5eabbba7058f568eae.html#aa63148d0906a6b5eabbba7058f568eae" target="_top" xlink:title=" ">
<polygon fill="none" stroke="black" points="26.5,-23.5 26.5,-49.5 181.5,-49.5 181.5,-23.5 26.5,-23.5"/>
<text text-anchor="middle" x="104" y="-32.7" font-family="Helvetica,sans-Serif" font-size="16.00">AppWren::AppWren</text>
</a>
</g>
</g>
<!-- Node9&#45;&gt;Node10 -->
<g id="edge9" class="edge">
<title>Node9&#45;&gt;Node10</title>
<path fill="none" stroke="midnightblue" d="M233.61,-36.5C216.17,-36.5 198.39,-36.5 181.82,-36.5"/>
<polygon fill="midnightblue" stroke="midnightblue" points="233.82,-40 243.82,-36.5 233.82,-33 233.82,-40"/>
</g>
</g>
</svg>
