<?xml version="1.0" encoding="UTF-8" standalone="no"?>
<!DOCTYPE svg PUBLIC "-//W3C//DTD SVG 1.1//EN"
 "http://www.w3.org/Graphics/SVG/1.1/DTD/svg11.dtd">
<!-- Generated by graphviz version 2.47.3 (20210619.1520)
 -->
<!-- Title: ILI9341_t3_ERIS::getFrameAddress Pages: 1 -->
<svg width="2189pt" height="314pt"
 viewBox="0.00 0.00 2189.00 313.51" xmlns="http://www.w3.org/2000/svg" xmlns:xlink="http://www.w3.org/1999/xlink">
<g id="graph0" class="graph" transform="scale(1 1) rotate(0) translate(4 309.51)">
<title>ILI9341_t3_ERIS::getFrameAddress</title>
<!-- Node1 -->
<g id="node1" class="node">
<title>Node1</title>
<g id="a_node1"><a xlink:title="Get the Frame Address object.">
<polygon fill="#bfbfbf" stroke="black" points="1877,-141.5 1877,-169.5 2181,-169.5 2181,-141.5 1877,-141.5"/>
<text text-anchor="middle" x="2029" y="-151.1" font-family="Helvetica,sans-Serif" font-size="18.00">ILI9341_t3_ERIS::getFrameAddress</text>
</a>
</g>
</g>
<!-- Node2 -->
<g id="node2" class="node">
<title>Node2</title>
<g id="a_node2"><a xlink:href="../../d0/da0/class_app_wren_a3a4360e6f94d41087dda79ad8df4fc0b.html#a3a4360e6f94d41087dda79ad8df4fc0b" target="_top" xlink:title="responsible for managing the surface buffer memory allocation">
<polygon fill="none" stroke="black" points="1538,-141.5 1538,-169.5 1841,-169.5 1841,-141.5 1538,-141.5"/>
<text text-anchor="middle" x="1689.5" y="-151.1" font-family="Helvetica,sans-Serif" font-size="18.00">AppWren::dynamicSurfaceManager</text>
</a>
</g>
</g>
<!-- Node1&#45;&gt;Node2 -->
<g id="edge1" class="edge">
<title>Node1&#45;&gt;Node2</title>
<path fill="none" stroke="midnightblue" d="M1866.32,-155.5C1857.94,-155.5 1849.54,-155.5 1841.2,-155.5"/>
<polygon fill="midnightblue" stroke="midnightblue" points="1866.53,-159 1876.53,-155.5 1866.53,-152 1866.53,-159"/>
</g>
<!-- Node3 -->
<g id="node3" class="node">
<title>Node3</title>
<g id="a_node3"><a xlink:href="../../d0/da0/class_app_wren_a9e03437282322346f121289e743b42ad.html#a9e03437282322346f121289e743b42ad" target="_top" xlink:title="block tramsfer from ram drive file to surface">
<polygon fill="none" stroke="black" points="1228,-235.5 1228,-263.5 1502,-263.5 1502,-235.5 1228,-235.5"/>
<text text-anchor="middle" x="1365" y="-245.1" font-family="Helvetica,sans-Serif" font-size="18.00">AppWren::bltRAMDrive2Surface</text>
</a>
</g>
</g>
<!-- Node2&#45;&gt;Node3 -->
<g id="edge2" class="edge">
<title>Node2&#45;&gt;Node3</title>
<path fill="none" stroke="midnightblue" d="M1647.62,-173.74C1610.34,-189.72 1553.4,-212.51 1502,-226.5 1489.52,-229.89 1476.26,-232.88 1463.09,-235.48"/>
<polygon fill="midnightblue" stroke="midnightblue" points="1649.33,-176.81 1657.12,-169.63 1646.55,-170.38 1649.33,-176.81"/>
</g>
<!-- Node9 -->
<g id="node9" class="node">
<title>Node9</title>
<g id="a_node9"><a xlink:href="../../d0/da0/class_app_wren_ae2320840487b326c37c2e66ad700bbbf.html#ae2320840487b326c37c2e66ad700bbbf" target="_top" xlink:title="class specific update implementation">
<polygon fill="none" stroke="black" points="42,-273.5 42,-301.5 197,-301.5 197,-273.5 42,-273.5"/>
<text text-anchor="middle" x="119.5" y="-283.1" font-family="Helvetica,sans-Serif" font-size="18.00">AppWren::render</text>
</a>
</g>
</g>
<!-- Node2&#45;&gt;Node9 -->
<g id="edge17" class="edge">
<title>Node2&#45;&gt;Node9</title>
<path fill="none" stroke="midnightblue" d="M1664.67,-176.48C1631.09,-204.57 1566.71,-253.21 1502,-273.5 1317.35,-331.41 1260.52,-292.5 1067,-292.5 1067,-292.5 1067,-292.5 612,-292.5 465.23,-292.5 293.81,-290.24 197.12,-288.76"/>
<polygon fill="midnightblue" stroke="midnightblue" points="1667.16,-178.95 1672.52,-169.81 1662.63,-173.61 1667.16,-178.95"/>
</g>
<!-- Node12 -->
<g id="node12" class="node">
<title>Node12</title>
<g id="a_node12"><a xlink:href="../../d0/da0/class_app_wren_aa761e4678db21f1920899fa4fc781654.html#aa761e4678db21f1920899fa4fc781654" target="_top" xlink:title="fills the render target (either a surface or the framebuffer depending on )">
<polygon fill="none" stroke="black" points="1282,-141.5 1282,-169.5 1448,-169.5 1448,-141.5 1282,-141.5"/>
<text text-anchor="middle" x="1365" y="-151.1" font-family="Helvetica,sans-Serif" font-size="18.00">AppWren::drawFill</text>
</a>
</g>
</g>
<!-- Node2&#45;&gt;Node12 -->
<g id="edge11" class="edge">
<title>Node2&#45;&gt;Node12</title>
<path fill="none" stroke="midnightblue" d="M1527.51,-155.5C1500.01,-155.5 1472.5,-155.5 1448.18,-155.5"/>
<polygon fill="midnightblue" stroke="midnightblue" points="1527.64,-159 1537.64,-155.5 1527.64,-152 1527.64,-159"/>
</g>
<!-- Node14 -->
<g id="node14" class="node">
<title>Node14</title>
<g id="a_node14"><a xlink:href="../../d0/da0/class_app_wren_ab7a97ed3ad7b7b7ccd2a629448679e20.html#ab7a97ed3ad7b7b7ccd2a629448679e20" target="_top" xlink:title=" ">
<polygon fill="none" stroke="black" points="1256.5,-94.5 1256.5,-122.5 1473.5,-122.5 1473.5,-94.5 1256.5,-94.5"/>
<text text-anchor="middle" x="1365" y="-104.1" font-family="Helvetica,sans-Serif" font-size="18.00">AppWren::releasePopUp</text>
</a>
</g>
</g>
<!-- Node2&#45;&gt;Node14 -->
<g id="edge14" class="edge">
<title>Node2&#45;&gt;Node14</title>
<path fill="none" stroke="midnightblue" d="M1581.93,-139.97C1543.26,-134.33 1499.82,-128 1462.11,-122.51"/>
<polygon fill="midnightblue" stroke="midnightblue" points="1581.78,-143.48 1592.18,-141.46 1582.79,-136.56 1581.78,-143.48"/>
</g>
<!-- Node16 -->
<g id="node16" class="node">
<title>Node16</title>
<g id="a_node16"><a xlink:href="../../d0/da0/class_app_wren_a8a02cff13a6da29a75d2070218902c26.html#a8a02cff13a6da29a75d2070218902c26" target="_top" xlink:title=" ">
<polygon fill="none" stroke="black" points="1255.5,-47.5 1255.5,-75.5 1474.5,-75.5 1474.5,-47.5 1255.5,-47.5"/>
<text text-anchor="middle" x="1365" y="-57.1" font-family="Helvetica,sans-Serif" font-size="18.00">AppWren::requestPopUp</text>
</a>
</g>
</g>
<!-- Node2&#45;&gt;Node16 -->
<g id="edge18" class="edge">
<title>Node2&#45;&gt;Node16</title>
<path fill="none" stroke="midnightblue" d="M1646.89,-137.35C1609.57,-121.69 1552.99,-99.44 1502,-85.5 1488.24,-81.74 1473.53,-78.43 1459.05,-75.56"/>
<polygon fill="midnightblue" stroke="midnightblue" points="1645.85,-140.71 1656.42,-141.38 1648.57,-134.26 1645.85,-140.71"/>
</g>
<!-- Node18 -->
<g id="node18" class="node">
<title>Node18</title>
<g id="a_node18"><a xlink:href="../../d0/da0/class_app_wren_aadebc6ad4b48ffc375c78f4a2309cd95.html#aadebc6ad4b48ffc375c78f4a2309cd95" target="_top" xlink:title="Set the Dimension object receiver for the wren c callback function setDimensionCallback.">
<polygon fill="none" stroke="black" points="1259,-0.5 1259,-28.5 1471,-28.5 1471,-0.5 1259,-0.5"/>
<text text-anchor="middle" x="1365" y="-10.1" font-family="Helvetica,sans-Serif" font-size="18.00">AppWren::setDimension</text>
</a>
</g>
</g>
<!-- Node2&#45;&gt;Node18 -->
<g id="edge21" class="edge">
<title>Node2&#45;&gt;Node18</title>
<path fill="none" stroke="midnightblue" d="M1663.14,-135.06C1628.77,-108.46 1564.48,-62.55 1502,-38.5 1491.82,-34.58 1480.96,-31.3 1469.99,-28.55"/>
<polygon fill="midnightblue" stroke="midnightblue" points="1661.19,-137.97 1671.22,-141.38 1665.5,-132.46 1661.19,-137.97"/>
</g>
<!-- Node20 -->
<g id="node20" class="node">
<title>Node20</title>
<g id="a_node20"><a xlink:href="../../d0/da0/class_app_wren_a514b3b6b2c8059bde367709b11bc55a8.html#a514b3b6b2c8059bde367709b11bc55a8" target="_top" xlink:title="Set the Widget Dimension object receiver for the wren c callback function setWidgetDimensionCallback.">
<polygon fill="none" stroke="black" points="1230.5,-188.5 1230.5,-216.5 1499.5,-216.5 1499.5,-188.5 1230.5,-188.5"/>
<text text-anchor="middle" x="1365" y="-198.1" font-family="Helvetica,sans-Serif" font-size="18.00">AppWren::setWidgetDimension</text>
</a>
</g>
</g>
<!-- Node2&#45;&gt;Node20 -->
<g id="edge24" class="edge">
<title>Node2&#45;&gt;Node20</title>
<path fill="none" stroke="midnightblue" d="M1581.93,-171.03C1543.26,-176.67 1499.82,-183 1462.11,-188.49"/>
<polygon fill="midnightblue" stroke="midnightblue" points="1582.79,-174.44 1592.18,-169.54 1581.78,-167.52 1582.79,-174.44"/>
</g>
<!-- Node4 -->
<g id="node4" class="node">
<title>Node4</title>
<g id="a_node4"><a xlink:href="../../d7/d7e/_app_wren_8cpp_af6333a4f51f95873539f5053e80c1104.html#af6333a4f51f95873539f5053e80c1104" target="_top" xlink:title="VM callback for extention method.">
<polygon fill="none" stroke="black" points="949.5,-235.5 949.5,-263.5 1182.5,-263.5 1182.5,-235.5 949.5,-235.5"/>
<text text-anchor="middle" x="1066" y="-245.1" font-family="Helvetica,sans-Serif" font-size="18.00">loadImageSurfaceCallback</text>
</a>
</g>
</g>
<!-- Node3&#45;&gt;Node4 -->
<g id="edge3" class="edge">
<title>Node3&#45;&gt;Node4</title>
<path fill="none" stroke="midnightblue" d="M1217.39,-249.5C1205.68,-249.5 1193.95,-249.5 1182.5,-249.5"/>
<polygon fill="midnightblue" stroke="midnightblue" points="1217.67,-253 1227.67,-249.5 1217.67,-246 1217.67,-253"/>
</g>
<!-- Node5 -->
<g id="node5" class="node">
<title>Node5</title>
<g id="a_node5"><a xlink:href="../../d7/d7e/_app_wren_8cpp_afe955d602a19a51c186913d9dc8ff707.html#afe955d602a19a51c186913d9dc8ff707" target="_top" xlink:title="callback function for Wren to request an exported function bindings">
<polygon fill="none" stroke="black" points="731,-141.5 731,-169.5 904,-169.5 904,-141.5 731,-141.5"/>
<text text-anchor="middle" x="817.5" y="-151.1" font-family="Helvetica,sans-Serif" font-size="18.00">bindForeignMethod</text>
</a>
</g>
</g>
<!-- Node4&#45;&gt;Node5 -->
<g id="edge4" class="edge">
<title>Node4&#45;&gt;Node5</title>
<path fill="none" stroke="midnightblue" d="M959.41,-232.8C952.78,-230.92 946.25,-228.82 940,-226.5 901.29,-212.13 860.74,-185.79 837.65,-169.55"/>
<polygon fill="midnightblue" stroke="midnightblue" points="958.64,-236.22 969.2,-235.42 960.45,-229.46 958.64,-236.22"/>
</g>
<!-- Node6 -->
<g id="node6" class="node">
<title>Node6</title>
<g id="a_node6"><a xlink:href="../../d0/da0/class_app_wren_a0b139e8eac17bd02ffaff68532c3e4fc.html#a0b139e8eac17bd02ffaff68532c3e4fc" target="_top" xlink:title="start the VM">
<polygon fill="none" stroke="black" points="531,-147.5 531,-175.5 695,-175.5 695,-147.5 531,-147.5"/>
<text text-anchor="middle" x="613" y="-157.1" font-family="Helvetica,sans-Serif" font-size="18.00">AppWren::startVM</text>
</a>
</g>
</g>
<!-- Node5&#45;&gt;Node6 -->
<g id="edge5" class="edge">
<title>Node5&#45;&gt;Node6</title>
<path fill="none" stroke="midnightblue" d="M720.84,-158.33C712.23,-158.59 703.56,-158.85 695.09,-159.1"/>
<polygon fill="midnightblue" stroke="midnightblue" points="721.02,-161.83 730.92,-158.04 720.82,-154.83 721.02,-161.83"/>
</g>
<!-- Node7 -->
<g id="node7" class="node">
<title>Node7</title>
<g id="a_node7"><a xlink:href="../../d0/da0/class_app_wren_ae60f9f125ea2700ade51aa51e15da888.html#ae60f9f125ea2700ade51aa51e15da888" target="_top" xlink:title="shutsdown then starts the VM">
<polygon fill="none" stroke="black" points="295.5,-215.5 295.5,-243.5 474.5,-243.5 474.5,-215.5 295.5,-215.5"/>
<text text-anchor="middle" x="385" y="-225.1" font-family="Helvetica,sans-Serif" font-size="18.00">AppWren::restartVM</text>
</a>
</g>
</g>
<!-- Node6&#45;&gt;Node7 -->
<g id="edge6" class="edge">
<title>Node6&#45;&gt;Node7</title>
<path fill="none" stroke="midnightblue" d="M555.6,-178.47C517.78,-189.85 468.55,-204.66 432.88,-215.39"/>
<polygon fill="midnightblue" stroke="midnightblue" points="556.88,-181.74 565.45,-175.51 554.86,-175.04 556.88,-181.74"/>
</g>
<!-- Node10 -->
<g id="node10" class="node">
<title>Node10</title>
<g id="a_node10"><a xlink:href="../../d0/da0/class_app_wren_aeb6716ec79e8c30f26c0b9009e750e4c.html#aeb6716ec79e8c30f26c0b9009e750e4c" target="_top" xlink:title="start, load and configure the handles of the VM">
<polygon fill="none" stroke="black" points="275,-147.5 275,-175.5 495,-175.5 495,-147.5 275,-147.5"/>
<text text-anchor="middle" x="385" y="-157.1" font-family="Helvetica,sans-Serif" font-size="18.00">AppWren::vmConstructor</text>
</a>
</g>
</g>
<!-- Node6&#45;&gt;Node10 -->
<g id="edge9" class="edge">
<title>Node6&#45;&gt;Node10</title>
<path fill="none" stroke="midnightblue" d="M520.63,-161.5C512.28,-161.5 503.77,-161.5 495.28,-161.5"/>
<polygon fill="midnightblue" stroke="midnightblue" points="520.73,-165 530.73,-161.5 520.73,-158 520.73,-165"/>
</g>
<!-- Node8 -->
<g id="node8" class="node">
<title>Node8</title>
<g id="a_node8"><a xlink:href="../../d0/da0/class_app_wren_aaa5357f4f5b7d4ffdd9f804e95d4a8e9.html#aaa5357f4f5b7d4ffdd9f804e95d4a8e9" target="_top" xlink:title="handles messages from other sw components">
<polygon fill="none" stroke="black" points="0,-215.5 0,-243.5 239,-243.5 239,-215.5 0,-215.5"/>
<text text-anchor="middle" x="119.5" y="-225.1" font-family="Helvetica,sans-Serif" font-size="18.00">AppWren::messageHandler</text>
</a>
</g>
</g>
<!-- Node7&#45;&gt;Node8 -->
<g id="edge7" class="edge">
<title>Node7&#45;&gt;Node8</title>
<path fill="none" stroke="midnightblue" d="M284.96,-229.5C270.07,-229.5 254.59,-229.5 239.34,-229.5"/>
<polygon fill="midnightblue" stroke="midnightblue" points="285.16,-233 295.16,-229.5 285.16,-226 285.16,-233"/>
</g>
<!-- Node7&#45;&gt;Node9 -->
<g id="edge8" class="edge">
<title>Node7&#45;&gt;Node9</title>
<path fill="none" stroke="midnightblue" d="M310.33,-245.72C270.65,-254.45 222.18,-265.12 184.15,-273.49"/>
<polygon fill="midnightblue" stroke="midnightblue" points="311.2,-249.11 320.21,-243.54 309.7,-242.27 311.2,-249.11"/>
</g>
<!-- Node11 -->
<g id="node11" class="node">
<title>Node11</title>
<g id="a_node11"><a xlink:href="../../d0/da0/class_app_wren_aa63148d0906a6b5eabbba7058f568eae.html#aa63148d0906a6b5eabbba7058f568eae" target="_top" xlink:title=" ">
<polygon fill="none" stroke="black" points="30,-147.5 30,-175.5 209,-175.5 209,-147.5 30,-147.5"/>
<text text-anchor="middle" x="119.5" y="-157.1" font-family="Helvetica,sans-Serif" font-size="18.00">AppWren::AppWren</text>
</a>
</g>
</g>
<!-- Node10&#45;&gt;Node11 -->
<g id="edge10" class="edge">
<title>Node10&#45;&gt;Node11</title>
<path fill="none" stroke="midnightblue" d="M264.84,-161.5C246.07,-161.5 226.95,-161.5 209.03,-161.5"/>
<polygon fill="midnightblue" stroke="midnightblue" points="264.92,-165 274.92,-161.5 264.92,-158 264.92,-165"/>
</g>
<!-- Node13 -->
<g id="node13" class="node">
<title>Node13</title>
<g id="a_node13"><a xlink:href="../../d7/d7e/_app_wren_8cpp_a16b4da7165c003f4b9a70869b7828084.html#a16b4da7165c003f4b9a70869b7828084" target="_top" xlink:title="VM callback for extention method.">
<polygon fill="none" stroke="black" points="991.5,-141.5 991.5,-169.5 1140.5,-169.5 1140.5,-141.5 991.5,-141.5"/>
<text text-anchor="middle" x="1066" y="-151.1" font-family="Helvetica,sans-Serif" font-size="18.00">drawFillCallback</text>
</a>
</g>
</g>
<!-- Node12&#45;&gt;Node13 -->
<g id="edge12" class="edge">
<title>Node12&#45;&gt;Node13</title>
<path fill="none" stroke="midnightblue" d="M1271.42,-155.5C1229.4,-155.5 1180.37,-155.5 1140.87,-155.5"/>
<polygon fill="midnightblue" stroke="midnightblue" points="1271.66,-159 1281.66,-155.5 1271.66,-152 1271.66,-159"/>
</g>
<!-- Node13&#45;&gt;Node5 -->
<g id="edge13" class="edge">
<title>Node13&#45;&gt;Node5</title>
<path fill="none" stroke="midnightblue" d="M981.27,-155.5C956.46,-155.5 929.26,-155.5 904.32,-155.5"/>
<polygon fill="midnightblue" stroke="midnightblue" points="981.38,-159 991.38,-155.5 981.38,-152 981.38,-159"/>
</g>
<!-- Node15 -->
<g id="node15" class="node">
<title>Node15</title>
<g id="a_node15"><a xlink:href="../../d7/d7e/_app_wren_8cpp_afac7cb7557acddba874c236215228279.html#afac7cb7557acddba874c236215228279" target="_top" xlink:title="AppWren exported method which can be called from within a Wren VM instance.">
<polygon fill="none" stroke="black" points="966,-94.5 966,-122.5 1166,-122.5 1166,-94.5 966,-94.5"/>
<text text-anchor="middle" x="1066" y="-104.1" font-family="Helvetica,sans-Serif" font-size="18.00">releasePopUpCallback</text>
</a>
</g>
</g>
<!-- Node14&#45;&gt;Node15 -->
<g id="edge15" class="edge">
<title>Node14&#45;&gt;Node15</title>
<path fill="none" stroke="midnightblue" d="M1246.29,-108.5C1219.83,-108.5 1192,-108.5 1166.37,-108.5"/>
<polygon fill="midnightblue" stroke="midnightblue" points="1246.36,-112 1256.36,-108.5 1246.36,-105 1246.36,-112"/>
</g>
<!-- Node15&#45;&gt;Node5 -->
<g id="edge16" class="edge">
<title>Node15&#45;&gt;Node5</title>
<path fill="none" stroke="midnightblue" d="M981.3,-124.46C952.38,-129.97 920.22,-136.1 892.17,-141.45"/>
<polygon fill="midnightblue" stroke="midnightblue" points="982.21,-127.85 991.38,-122.54 980.9,-120.97 982.21,-127.85"/>
</g>
<!-- Node17 -->
<g id="node17" class="node">
<title>Node17</title>
<g id="a_node17"><a xlink:href="../../d7/d7e/_app_wren_8cpp_ad4622520b2bfcb397128225e5ffc75ee.html#ad4622520b2bfcb397128225e5ffc75ee" target="_top" xlink:title="AppWren exported method which can be called from within a Wren VM instance.">
<polygon fill="none" stroke="black" points="964.5,-47.5 964.5,-75.5 1167.5,-75.5 1167.5,-47.5 964.5,-47.5"/>
<text text-anchor="middle" x="1066" y="-57.1" font-family="Helvetica,sans-Serif" font-size="18.00">requestPopUpCallback</text>
</a>
</g>
</g>
<!-- Node16&#45;&gt;Node17 -->
<g id="edge19" class="edge">
<title>Node16&#45;&gt;Node17</title>
<path fill="none" stroke="midnightblue" d="M1244.95,-61.5C1219.28,-61.5 1192.39,-61.5 1167.52,-61.5"/>
<polygon fill="midnightblue" stroke="midnightblue" points="1245.09,-65 1255.09,-61.5 1245.09,-58 1245.09,-65"/>
</g>
<!-- Node17&#45;&gt;Node5 -->
<g id="edge20" class="edge">
<title>Node17&#45;&gt;Node5</title>
<path fill="none" stroke="midnightblue" d="M963.17,-78.08C955.24,-80.27 947.44,-82.73 940,-85.5 901.67,-99.76 861.32,-125.45 838.11,-141.43"/>
<polygon fill="midnightblue" stroke="midnightblue" points="964.1,-81.46 972.89,-75.54 962.33,-74.68 964.1,-81.46"/>
</g>
<!-- Node19 -->
<g id="node19" class="node">
<title>Node19</title>
<g id="a_node19"><a xlink:href="../../d7/d7e/_app_wren_8cpp_af2faa5d41cd98a6d9228335033020cfd.html#af2faa5d41cd98a6d9228335033020cfd" target="_top" xlink:title="Set the Dimension Callback object. AppWren exported method which can be called from within a Wren VM ...">
<polygon fill="none" stroke="black" points="968.5,-0.5 968.5,-28.5 1163.5,-28.5 1163.5,-0.5 968.5,-0.5"/>
<text text-anchor="middle" x="1066" y="-10.1" font-family="Helvetica,sans-Serif" font-size="18.00">setDimensionCallback</text>
</a>
</g>
</g>
<!-- Node18&#45;&gt;Node19 -->
<g id="edge22" class="edge">
<title>Node18&#45;&gt;Node19</title>
<path fill="none" stroke="midnightblue" d="M1248.6,-14.5C1220.48,-14.5 1190.69,-14.5 1163.55,-14.5"/>
<polygon fill="midnightblue" stroke="midnightblue" points="1248.87,-18 1258.87,-14.5 1248.87,-11 1248.87,-18"/>
</g>
<!-- Node19&#45;&gt;Node5 -->
<g id="edge23" class="edge">
<title>Node19&#45;&gt;Node5</title>
<path fill="none" stroke="midnightblue" d="M958.66,-30.4C952.21,-32.74 945.93,-35.43 940,-38.5 890.6,-64.1 847.6,-116.15 828.71,-141.28"/>
<polygon fill="midnightblue" stroke="midnightblue" points="959.84,-33.7 968.22,-27.21 957.63,-27.06 959.84,-33.7"/>
</g>
<!-- Node21 -->
<g id="node21" class="node">
<title>Node21</title>
<g id="a_node21"><a xlink:href="../../d7/d7e/_app_wren_8cpp_a1dd8536509a7e2a89cb9d7ff3ba89c97.html#a1dd8536509a7e2a89cb9d7ff3ba89c97" target="_top" xlink:title="Set the Widget Dimension Callback object. AppWren exported method which can be called from within a W...">
<polygon fill="none" stroke="black" points="940,-188.5 940,-216.5 1192,-216.5 1192,-188.5 940,-188.5"/>
<text text-anchor="middle" x="1066" y="-198.1" font-family="Helvetica,sans-Serif" font-size="18.00">setWidgetDimensionCallback</text>
</a>
</g>
</g>
<!-- Node20&#45;&gt;Node21 -->
<g id="edge25" class="edge">
<title>Node20&#45;&gt;Node21</title>
<path fill="none" stroke="midnightblue" d="M1220.19,-202.5C1210.88,-202.5 1201.54,-202.5 1192.33,-202.5"/>
<polygon fill="midnightblue" stroke="midnightblue" points="1220.27,-206 1230.27,-202.5 1220.27,-199 1220.27,-206"/>
</g>
<!-- Node21&#45;&gt;Node5 -->
<g id="edge26" class="edge">
<title>Node21&#45;&gt;Node5</title>
<path fill="none" stroke="midnightblue" d="M977.83,-186.61C965.14,-184.25 952.23,-181.83 940,-179.5 923.42,-176.34 905.58,-172.86 888.82,-169.55"/>
<polygon fill="midnightblue" stroke="midnightblue" points="977.48,-190.11 987.95,-188.49 978.76,-183.22 977.48,-190.11"/>
</g>
</g>
</svg>
