<?xml version="1.0" encoding="UTF-8" standalone="no"?>
<!DOCTYPE svg PUBLIC "-//W3C//DTD SVG 1.1//EN"
 "http://www.w3.org/Graphics/SVG/1.1/DTD/svg11.dtd">
<!-- Generated by graphviz version 2.47.3 (20210619.1520)
 -->
<!-- Title: eris_analyze_scope.h Pages: 1 -->
<!--zoomable 436 -->
<svg id="main" version="1.1" xmlns="http://www.w3.org/2000/svg" xmlns:xlink="http://www.w3.org/1999/xlink" xml:space="preserve" onload="init(evt)">
<style type="text/css"><![CDATA[
.edge:hover path { stroke: red; }
.edge:hover polygon { stroke: red; fill: red; }
]]></style>
<script type="text/javascript"><![CDATA[
var edges = document.getElementsByTagName('g');
if (edges && edges.length) {
  for (var i=0;i<edges.length;i++) {
    if (edges[i].id.substr(0,4)=='edge') {
      edges[i].setAttribute('class','edge');
    }
  }
}
]]></script>
        <defs>
                <circle id="rim" cx="0" cy="0" r="7"/>
                <circle id="rim2" cx="0" cy="0" r="3.5"/>
                <g id="zoomPlus">
                        <use xlink:href="#rim" fill="#404040">
                                <set attributeName="fill" to="#808080" begin="zoomplus.mouseover" end="zoomplus.mouseout"/>
                        </use>
                        <path d="M-4,0h8M0,-4v8" fill="none" stroke="white" stroke-width="1.5" pointer-events="none"/>
                </g>
                <g id="zoomMin">
                        <use xlink:href="#rim" fill="#404040">
                                <set attributeName="fill" to="#808080" begin="zoomminus.mouseover" end="zoomminus.mouseout"/>
                        </use>
                        <path d="M-4,0h8" fill="none" stroke="white" stroke-width="1.5" pointer-events="none"/>
                </g>
                <g id="dirArrow">
                        <path fill="none" stroke="white" stroke-width="1.5" d="M0,-3.0v7 M-2.5,-0.5L0,-3.0L2.5,-0.5"/>
                </g>
               <g id="resetDef">
                       <use xlink:href="#rim2" fill="#404040">
                               <set attributeName="fill" to="#808080" begin="reset.mouseover" end="reset.mouseout"/>
                       </use>
               </g>
        </defs>

<script type="text/javascript">
var viewWidth = 1392;
var viewHeight = 436;
var sectionId = 'dynsection-1';
</script>
<script xlink:href="../../svgpan.js"/>
<svg id="graph" class="graph">
<g id="viewport">
<title>eris_analyze_scope.h</title>
<polygon fill="white" stroke="transparent" points="-4,4 -4,-432 1387.67,-432 1387.67,4 -4,4"/>
<!-- Node1 -->
<g id="node1" class="node">
<title>Node1</title>
<g id="a_node1"><a xlink:title=" ">
<polygon fill="#bfbfbf" stroke="black" points="1183.17,-406.5 1183.17,-427.5 1313.17,-427.5 1313.17,-406.5 1183.17,-406.5"/>
<text text-anchor="middle" x="1248.17" y="-413.9" font-family="Helvetica,sans-Serif" font-size="12.00">eris_analyze_scope.h</text>
</a>
</g>
</g>
<!-- Node2 -->
<g id="node2" class="node">
<title>Node2</title>
<g id="a_node2"><a xlink:href="../../d2/ded/eris_audio_8h.html" target="_top" xlink:title="audio block class extentions (note: autogenerated code)">
<polygon fill="white" stroke="black" points="1146.17,-348.5 1146.17,-369.5 1222.17,-369.5 1222.17,-348.5 1146.17,-348.5"/>
<text text-anchor="middle" x="1184.17" y="-355.9" font-family="Helvetica,sans-Serif" font-size="12.00">erisAudio.h</text>
</a>
</g>
</g>
<!-- Node1&#45;&gt;Node2 -->
<g id="edge1" class="edge">
<title>Node1&#45;&gt;Node2</title>
<path fill="none" stroke="midnightblue" d="M1229.47,-399.65C1218.34,-389.91 1204.6,-377.88 1195.19,-369.64"/>
<polygon fill="midnightblue" stroke="midnightblue" points="1227.19,-402.29 1237.02,-406.25 1231.8,-397.03 1227.19,-402.29"/>
</g>
<!-- Node24 -->
<g id="node24" class="node">
<title>Node24</title>
<g id="a_node24"><a xlink:href="../../d4/d9a/eris__analyze__scope_8cpp.html" target="_top" xlink:title=" ">
<polygon fill="white" stroke="black" points="1240.67,-348.5 1240.67,-369.5 1383.67,-369.5 1383.67,-348.5 1240.67,-348.5"/>
<text text-anchor="middle" x="1312.17" y="-355.9" font-family="Helvetica,sans-Serif" font-size="12.00">eris_analyze_scope.cpp</text>
</a>
</g>
</g>
<!-- Node1&#45;&gt;Node24 -->
<g id="edge40" class="edge">
<title>Node1&#45;&gt;Node24</title>
<path fill="none" stroke="midnightblue" d="M1266.86,-399.65C1277.99,-389.91 1291.73,-377.88 1301.15,-369.64"/>
<polygon fill="midnightblue" stroke="midnightblue" points="1264.53,-397.03 1259.31,-406.25 1269.14,-402.29 1264.53,-397.03"/>
</g>
<!-- Node3 -->
<g id="node3" class="node">
<title>Node3</title>
<g id="a_node3"><a xlink:href="../../d3/ddb/_analog_inputs_8h.html" target="_top" xlink:title=" ">
<polygon fill="white" stroke="black" points="1101.17,-290.5 1101.17,-311.5 1193.17,-311.5 1193.17,-290.5 1101.17,-290.5"/>
<text text-anchor="middle" x="1147.17" y="-297.9" font-family="Helvetica,sans-Serif" font-size="12.00">AnalogInputs.h</text>
</a>
</g>
</g>
<!-- Node2&#45;&gt;Node3 -->
<g id="edge2" class="edge">
<title>Node2&#45;&gt;Node3</title>
<path fill="none" stroke="midnightblue" d="M1172.03,-339.63C1165.86,-330.29 1158.61,-319.32 1153.54,-311.64"/>
<polygon fill="midnightblue" stroke="midnightblue" points="1169.29,-341.83 1177.72,-348.25 1175.13,-337.97 1169.29,-341.83"/>
</g>
<!-- Node19 -->
<g id="node19" class="node">
<title>Node19</title>
<g id="a_node19"><a xlink:href="../../db/dc8/_audio_director_8h.html" target="_top" xlink:title=" ">
<polygon fill="white" stroke="black" points="1154.17,-116.5 1154.17,-137.5 1252.17,-137.5 1252.17,-116.5 1154.17,-116.5"/>
<text text-anchor="middle" x="1203.17" y="-123.9" font-family="Helvetica,sans-Serif" font-size="12.00">AudioDirector.h</text>
</a>
</g>
</g>
<!-- Node2&#45;&gt;Node19 -->
<g id="edge39" class="edge">
<title>Node2&#45;&gt;Node19</title>
<path fill="none" stroke="midnightblue" d="M1193.35,-339.15C1196.84,-331.01 1200.4,-321.24 1202.17,-312 1214.72,-246.43 1207.44,-165.28 1204.35,-137.7"/>
<polygon fill="midnightblue" stroke="midnightblue" points="1190.08,-337.89 1189.11,-348.44 1196.45,-340.8 1190.08,-337.89"/>
</g>
<!-- Node4 -->
<g id="node4" class="node">
<title>Node4</title>
<g id="a_node4"><a xlink:href="../../dc/d40/_app_manager_8cpp.html" target="_top" xlink:title=" ">
<polygon fill="white" stroke="black" points="990.67,-116.5 990.67,-137.5 1097.67,-137.5 1097.67,-116.5 990.67,-116.5"/>
<text text-anchor="middle" x="1044.17" y="-123.9" font-family="Helvetica,sans-Serif" font-size="12.00">AppManager.cpp</text>
</a>
</g>
</g>
<!-- Node3&#45;&gt;Node4 -->
<g id="edge3" class="edge">
<title>Node3&#45;&gt;Node4</title>
<path fill="none" stroke="midnightblue" d="M1136.16,-281.63C1114.39,-245.27 1066.5,-165.29 1049.93,-137.63"/>
<polygon fill="midnightblue" stroke="midnightblue" points="1133.19,-283.48 1141.33,-290.26 1139.2,-279.88 1133.19,-283.48"/>
</g>
<!-- Node5 -->
<g id="node5" class="node">
<title>Node5</title>
<g id="a_node5"><a xlink:href="../../df/d72/_app_manager_8h.html" target="_top" xlink:title=" ">
<polygon fill="white" stroke="black" points="564.17,-232.5 564.17,-253.5 658.17,-253.5 658.17,-232.5 564.17,-232.5"/>
<text text-anchor="middle" x="611.17" y="-239.9" font-family="Helvetica,sans-Serif" font-size="12.00">AppManager.h</text>
</a>
</g>
</g>
<!-- Node3&#45;&gt;Node5 -->
<g id="edge4" class="edge">
<title>Node3&#45;&gt;Node5</title>
<path fill="none" stroke="midnightblue" d="M1090.81,-294.11C984.62,-283.02 756.72,-259.21 658.17,-248.91"/>
<polygon fill="midnightblue" stroke="midnightblue" points="1090.69,-297.62 1101,-295.18 1091.42,-290.66 1090.69,-297.62"/>
</g>
<!-- Node5&#45;&gt;Node4 -->
<g id="edge6" class="edge">
<title>Node5&#45;&gt;Node4</title>
<path fill="none" stroke="midnightblue" d="M668.45,-242.83C767.93,-243.11 967.09,-238.2 1020.17,-196 1038.2,-181.66 1042.71,-152.81 1043.82,-137.71"/>
<polygon fill="midnightblue" stroke="midnightblue" points="668.29,-239.33 658.27,-242.78 668.26,-246.33 668.29,-239.33"/>
</g>
<!-- Node6 -->
<g id="node6" class="node">
<title>Node6</title>
<g id="a_node6"><a xlink:href="../../d4/db1/_app_base_class_8cpp.html" target="_top" xlink:title=" ">
<polygon fill="white" stroke="black" points="481.67,-0.5 481.67,-21.5 600.67,-21.5 600.67,-0.5 481.67,-0.5"/>
<text text-anchor="middle" x="541.17" y="-7.9" font-family="Helvetica,sans-Serif" font-size="12.00">AppBaseClass.cpp</text>
</a>
</g>
</g>
<!-- Node5&#45;&gt;Node6 -->
<g id="edge5" class="edge">
<title>Node5&#45;&gt;Node6</title>
<path fill="none" stroke="midnightblue" d="M553.72,-241.81C413.3,-240.73 61.5,-234.22 26.17,-196 -108.46,-50.38 319.45,-19.89 481.55,-13.61"/>
<polygon fill="midnightblue" stroke="midnightblue" points="553.84,-245.31 563.86,-241.88 553.88,-238.31 553.84,-245.31"/>
</g>
<!-- Node7 -->
<g id="node7" class="node">
<title>Node7</title>
<g id="a_node7"><a xlink:href="../../dd/dbe/svc_serial_command_interface_8cpp.html" target="_top" xlink:title=" ">
<polygon fill="white" stroke="black" points="570.17,-116.5 570.17,-137.5 756.17,-137.5 756.17,-116.5 570.17,-116.5"/>
<text text-anchor="middle" x="663.17" y="-123.9" font-family="Helvetica,sans-Serif" font-size="12.00">svcSerialCommandInterface.cpp</text>
</a>
</g>
</g>
<!-- Node5&#45;&gt;Node7 -->
<g id="edge7" class="edge">
<title>Node5&#45;&gt;Node7</title>
<path fill="none" stroke="midnightblue" d="M668.14,-233.45C690.39,-227.02 713.75,-215.75 727.17,-196 742.83,-172.93 708.56,-150.17 684.38,-137.71"/>
<polygon fill="midnightblue" stroke="midnightblue" points="667.16,-230.09 658.36,-236 668.92,-236.86 667.16,-230.09"/>
</g>
<!-- Node8 -->
<g id="node8" class="node">
<title>Node8</title>
<g id="a_node8"><a xlink:href="../../d3/d0e/app_template_8h.html" target="_top" xlink:title=" ">
<polygon fill="white" stroke="black" points="272.67,-116.5 272.67,-137.5 367.67,-137.5 367.67,-116.5 272.67,-116.5"/>
<text text-anchor="middle" x="320.17" y="-123.9" font-family="Helvetica,sans-Serif" font-size="12.00">appTemplate.h</text>
</a>
</g>
</g>
<!-- Node5&#45;&gt;Node8 -->
<g id="edge8" class="edge">
<title>Node5&#45;&gt;Node8</title>
<path fill="none" stroke="midnightblue" d="M580.44,-228.18C560.59,-219.17 534.26,-207.08 511.17,-196 491.45,-186.54 487.44,-182.18 467.17,-174 430.22,-159.09 386.48,-145.96 356.37,-137.58"/>
<polygon fill="midnightblue" stroke="midnightblue" points="579.06,-231.4 589.61,-232.33 581.95,-225.02 579.06,-231.4"/>
</g>
<!-- Node10 -->
<g id="node10" class="node">
<title>Node10</title>
<g id="a_node10"><a xlink:href="../../dd/d93/app_reprogram_8h.html" target="_top" xlink:title=" ">
<polygon fill="white" stroke="black" points="612.67,-174.5 612.67,-195.5 717.67,-195.5 717.67,-174.5 612.67,-174.5"/>
<text text-anchor="middle" x="665.17" y="-181.9" font-family="Helvetica,sans-Serif" font-size="12.00">appReprogram.h</text>
</a>
</g>
</g>
<!-- Node5&#45;&gt;Node10 -->
<g id="edge10" class="edge">
<title>Node5&#45;&gt;Node10</title>
<path fill="none" stroke="midnightblue" d="M627.76,-224.79C637,-215.21 648.16,-203.64 655.87,-195.64"/>
<polygon fill="midnightblue" stroke="midnightblue" points="624.99,-222.62 620.57,-232.25 630.03,-227.48 624.99,-222.62"/>
</g>
<!-- Node11 -->
<g id="node11" class="node">
<title>Node11</title>
<g id="a_node11"><a xlink:href="../../d4/d50/control_slider_8h.html" target="_top" xlink:title=" ">
<polygon fill="white" stroke="black" points="333.67,-174.5 333.67,-195.5 424.67,-195.5 424.67,-174.5 333.67,-174.5"/>
<text text-anchor="middle" x="379.17" y="-181.9" font-family="Helvetica,sans-Serif" font-size="12.00">controlSlider.h</text>
</a>
</g>
</g>
<!-- Node5&#45;&gt;Node11 -->
<g id="edge12" class="edge">
<title>Node5&#45;&gt;Node11</title>
<path fill="none" stroke="midnightblue" d="M561.65,-230.05C518.95,-219.74 458.1,-205.05 418.62,-195.52"/>
<polygon fill="midnightblue" stroke="midnightblue" points="561.01,-233.49 571.55,-232.44 562.65,-226.69 561.01,-233.49"/>
</g>
<!-- Node12 -->
<g id="node12" class="node">
<title>Node12</title>
<g id="a_node12"><a xlink:href="../../d9/db6/_app_audio_to_polyphonic_8h.html" target="_top" xlink:title="Application Example.">
<polygon fill="white" stroke="black" points="105.67,-116.5 105.67,-137.5 254.67,-137.5 254.67,-116.5 105.67,-116.5"/>
<text text-anchor="middle" x="180.17" y="-123.9" font-family="Helvetica,sans-Serif" font-size="12.00">AppAudioToPolyphonic.h</text>
</a>
</g>
</g>
<!-- Node5&#45;&gt;Node12 -->
<g id="edge38" class="edge">
<title>Node5&#45;&gt;Node12</title>
<path fill="none" stroke="midnightblue" d="M561.51,-229.83C533.14,-221.97 497.31,-210.51 467.17,-196 451.28,-188.36 450.51,-180.6 434.17,-174 401.7,-160.9 314.24,-146.65 251.02,-137.54"/>
<polygon fill="midnightblue" stroke="midnightblue" points="560.65,-233.22 571.22,-232.46 562.48,-226.47 560.65,-233.22"/>
</g>
<!-- Node13 -->
<g id="node13" class="node">
<title>Node13</title>
<g id="a_node13"><a xlink:href="../../d8/d1f/app_scope_8h.html" target="_top" xlink:title=" ">
<polygon fill="white" stroke="black" points="35.17,-174.5 35.17,-195.5 115.17,-195.5 115.17,-174.5 35.17,-174.5"/>
<text text-anchor="middle" x="75.17" y="-181.9" font-family="Helvetica,sans-Serif" font-size="12.00">appScope.h</text>
</a>
</g>
</g>
<!-- Node5&#45;&gt;Node13 -->
<g id="edge15" class="edge">
<title>Node5&#45;&gt;Node13</title>
<path fill="none" stroke="midnightblue" d="M553.81,-238.58C462.51,-232.69 278.65,-218.99 124.17,-196 121.25,-195.57 118.24,-195.07 115.22,-194.54"/>
<polygon fill="midnightblue" stroke="midnightblue" points="553.75,-242.08 563.95,-239.23 554.19,-235.1 553.75,-242.08"/>
</g>
<!-- Node14 -->
<g id="node14" class="node">
<title>Node14</title>
<g id="a_node14"><a xlink:href="../../dc/ddf/control_button_8h.html" target="_top" xlink:title=" ">
<polygon fill="white" stroke="black" points="133.67,-174.5 133.67,-195.5 226.67,-195.5 226.67,-174.5 133.67,-174.5"/>
<text text-anchor="middle" x="180.17" y="-181.9" font-family="Helvetica,sans-Serif" font-size="12.00">controlButton.h</text>
</a>
</g>
</g>
<!-- Node5&#45;&gt;Node14 -->
<g id="edge17" class="edge">
<title>Node5&#45;&gt;Node14</title>
<path fill="none" stroke="midnightblue" d="M554.14,-236.07C480.34,-228.15 347.87,-213.13 235.17,-196 232.48,-195.59 229.72,-195.15 226.94,-194.7"/>
<polygon fill="midnightblue" stroke="midnightblue" points="553.84,-239.55 564.15,-237.14 554.58,-232.59 553.84,-239.55"/>
</g>
<!-- Node15 -->
<g id="node15" class="node">
<title>Node15</title>
<g id="a_node15"><a xlink:href="../../d4/d75/app_c_q_t_8h.html" target="_top" xlink:title=" ">
<polygon fill="white" stroke="black" points="244.67,-174.5 244.67,-195.5 315.67,-195.5 315.67,-174.5 244.67,-174.5"/>
<text text-anchor="middle" x="280.17" y="-181.9" font-family="Helvetica,sans-Serif" font-size="12.00">appCQT.h</text>
</a>
</g>
</g>
<!-- Node5&#45;&gt;Node15 -->
<g id="edge19" class="edge">
<title>Node5&#45;&gt;Node15</title>
<path fill="none" stroke="midnightblue" d="M553.95,-233.94C495.88,-225.5 403.5,-211.36 324.17,-196 321.4,-195.46 318.54,-194.88 315.67,-194.27"/>
<polygon fill="midnightblue" stroke="midnightblue" points="553.63,-237.43 564.02,-235.4 554.63,-230.5 553.63,-237.43"/>
</g>
<!-- Node16 -->
<g id="node16" class="node">
<title>Node16</title>
<g id="a_node16"><a xlink:href="../../db/db5/svc_serial_command_interface_8h.html" target="_top" xlink:title=" ">
<polygon fill="white" stroke="black" points="837.67,-174.5 837.67,-195.5 1010.67,-195.5 1010.67,-174.5 837.67,-174.5"/>
<text text-anchor="middle" x="924.17" y="-181.9" font-family="Helvetica,sans-Serif" font-size="12.00">svcSerialCommandInterface.h</text>
</a>
</g>
</g>
<!-- Node5&#45;&gt;Node16 -->
<g id="edge21" class="edge">
<title>Node5&#45;&gt;Node16</title>
<path fill="none" stroke="midnightblue" d="M668.42,-231.76C726.13,-221.43 814.52,-205.62 870.81,-195.55"/>
<polygon fill="midnightblue" stroke="midnightblue" points="667.59,-228.35 658.36,-233.56 668.82,-235.24 667.59,-228.35"/>
</g>
<!-- Node22 -->
<g id="node22" class="node">
<title>Node22</title>
<g id="a_node22"><a xlink:href="../../d5/d58/_app_wren_8h.html" target="_top" xlink:title=" ">
<polygon fill="white" stroke="black" points="519.67,-174.5 519.67,-195.5 594.67,-195.5 594.67,-174.5 519.67,-174.5"/>
<text text-anchor="middle" x="557.17" y="-181.9" font-family="Helvetica,sans-Serif" font-size="12.00">AppWren.h</text>
</a>
</g>
</g>
<!-- Node5&#45;&gt;Node22 -->
<g id="edge35" class="edge">
<title>Node5&#45;&gt;Node22</title>
<path fill="none" stroke="midnightblue" d="M594.57,-224.79C585.33,-215.21 574.18,-203.64 566.46,-195.64"/>
<polygon fill="midnightblue" stroke="midnightblue" points="592.3,-227.48 601.76,-232.25 597.34,-222.62 592.3,-227.48"/>
</g>
<!-- Node9 -->
<g id="node9" class="node">
<title>Node9</title>
<g id="a_node9"><a xlink:href="../../d6/dd8/_eris_core_8cpp.html" target="_top" xlink:title=" ">
<polygon fill="white" stroke="black" points="353.17,-58.5 353.17,-79.5 439.17,-79.5 439.17,-58.5 353.17,-58.5"/>
<text text-anchor="middle" x="396.17" y="-65.9" font-family="Helvetica,sans-Serif" font-size="12.00">ErisCore.cpp</text>
</a>
</g>
</g>
<!-- Node8&#45;&gt;Node9 -->
<g id="edge9" class="edge">
<title>Node8&#45;&gt;Node9</title>
<path fill="none" stroke="midnightblue" d="M341.6,-110.21C354.94,-100.37 371.68,-88.04 383.08,-79.64"/>
<polygon fill="midnightblue" stroke="midnightblue" points="339.38,-107.5 333.4,-116.25 343.53,-113.13 339.38,-107.5"/>
</g>
<!-- Node10&#45;&gt;Node9 -->
<g id="edge11" class="edge">
<title>Node10&#45;&gt;Node9</title>
<path fill="none" stroke="midnightblue" d="M632.39,-170.58C611.7,-161.85 584.56,-149.9 561.17,-138 543.77,-129.15 540.85,-124.24 523.17,-116 491.39,-101.19 453.42,-87.99 427.32,-79.57"/>
<polygon fill="midnightblue" stroke="midnightblue" points="631.12,-173.84 641.7,-174.48 633.83,-167.39 631.12,-173.84"/>
</g>
<!-- Node11&#45;&gt;Node12 -->
<g id="edge13" class="edge">
<title>Node11&#45;&gt;Node12</title>
<path fill="none" stroke="midnightblue" d="M335.06,-171.59C298.5,-161.3 247.29,-146.89 213.93,-137.5"/>
<polygon fill="midnightblue" stroke="midnightblue" points="334.38,-175.03 344.96,-174.37 336.28,-168.3 334.38,-175.03"/>
</g>
<!-- Node12&#45;&gt;Node9 -->
<g id="edge14" class="edge">
<title>Node12&#45;&gt;Node9</title>
<path fill="none" stroke="midnightblue" d="M227.03,-113.85C266.77,-103.55 323,-88.97 359.52,-79.5"/>
<polygon fill="midnightblue" stroke="midnightblue" points="226.1,-110.48 217.3,-116.37 227.86,-117.25 226.1,-110.48"/>
</g>
<!-- Node13&#45;&gt;Node12 -->
<g id="edge16" class="edge">
<title>Node13&#45;&gt;Node12</title>
<path fill="none" stroke="midnightblue" d="M102.43,-169.46C121.22,-159.44 145.67,-146.4 162.09,-137.64"/>
<polygon fill="midnightblue" stroke="midnightblue" points="100.63,-166.45 93.46,-174.25 103.93,-172.63 100.63,-166.45"/>
</g>
<!-- Node14&#45;&gt;Node12 -->
<g id="edge18" class="edge">
<title>Node14&#45;&gt;Node12</title>
<path fill="none" stroke="midnightblue" d="M180.17,-164.16C180.17,-155.16 180.17,-144.92 180.17,-137.64"/>
<polygon fill="midnightblue" stroke="midnightblue" points="176.67,-164.25 180.17,-174.25 183.67,-164.25 176.67,-164.25"/>
</g>
<!-- Node15&#45;&gt;Node12 -->
<g id="edge20" class="edge">
<title>Node15&#45;&gt;Node12</title>
<path fill="none" stroke="midnightblue" d="M253.96,-169.32C236.09,-159.32 212.95,-146.36 197.39,-137.64"/>
<polygon fill="midnightblue" stroke="midnightblue" points="252.31,-172.41 262.75,-174.25 255.73,-166.31 252.31,-172.41"/>
</g>
<!-- Node16&#45;&gt;Node4 -->
<g id="edge22" class="edge">
<title>Node16&#45;&gt;Node4</title>
<path fill="none" stroke="midnightblue" d="M953.93,-170.11C975.69,-159.96 1004.63,-146.45 1023.81,-137.5"/>
<polygon fill="midnightblue" stroke="midnightblue" points="952.38,-166.97 944.79,-174.37 955.34,-173.32 952.38,-166.97"/>
</g>
<!-- Node16&#45;&gt;Node7 -->
<g id="edge23" class="edge">
<title>Node16&#45;&gt;Node7</title>
<path fill="none" stroke="midnightblue" d="M869.67,-172.31C821.58,-161.99 752.34,-147.13 707.55,-137.52"/>
<polygon fill="midnightblue" stroke="midnightblue" points="869.08,-175.76 879.6,-174.44 870.55,-168.92 869.08,-175.76"/>
</g>
<!-- Node16&#45;&gt;Node9 -->
<g id="edge24" class="edge">
<title>Node16&#45;&gt;Node9</title>
<path fill="none" stroke="midnightblue" d="M924.32,-164.12C923.28,-148.54 919.11,-127.61 905.17,-116 869.71,-86.48 555.85,-74.56 439.4,-71.13"/>
<polygon fill="midnightblue" stroke="midnightblue" points="920.83,-164.42 924.62,-174.31 927.82,-164.22 920.83,-164.42"/>
</g>
<!-- Node17 -->
<g id="node17" class="node">
<title>Node17</title>
<g id="a_node17"><a xlink:href="../../dd/df4/svc_data_dictionary_8h.html" target="_top" xlink:title="Data Dictionary service provides an interface to a data dictionary service the service shall provide ...">
<polygon fill="white" stroke="black" points="774.67,-116.5 774.67,-137.5 895.67,-137.5 895.67,-116.5 774.67,-116.5"/>
<text text-anchor="middle" x="835.17" y="-123.9" font-family="Helvetica,sans-Serif" font-size="12.00">svcDataDictionary.h</text>
</a>
</g>
</g>
<!-- Node16&#45;&gt;Node17 -->
<g id="edge25" class="edge">
<title>Node16&#45;&gt;Node17</title>
<path fill="none" stroke="midnightblue" d="M899.96,-168.77C884.19,-158.85 864.09,-146.2 850.49,-137.64"/>
<polygon fill="midnightblue" stroke="midnightblue" points="898.34,-171.88 908.66,-174.25 902.06,-165.96 898.34,-171.88"/>
</g>
<!-- Node16&#45;&gt;Node19 -->
<g id="edge28" class="edge">
<title>Node16&#45;&gt;Node19</title>
<path fill="none" stroke="midnightblue" d="M981.78,-172.44C1033.21,-162.11 1107.64,-147.17 1155.72,-137.52"/>
<polygon fill="midnightblue" stroke="midnightblue" points="980.93,-169.04 971.81,-174.44 982.3,-175.9 980.93,-169.04"/>
</g>
<!-- Node17&#45;&gt;Node5 -->
<g id="edge27" class="edge">
<title>Node17&#45;&gt;Node5</title>
<path fill="none" stroke="midnightblue" d="M816.46,-144.25C798.42,-159.28 769.85,-181.43 742.17,-196 711.56,-212.11 674.1,-224.61 647.09,-232.49"/>
<polygon fill="midnightblue" stroke="midnightblue" points="819.05,-146.64 824.42,-137.51 814.53,-141.3 819.05,-146.64"/>
</g>
<!-- Node18 -->
<g id="node18" class="node">
<title>Node18</title>
<g id="a_node18"><a xlink:href="../../d4/d7f/svc_data_dictionary_8cpp.html" target="_top" xlink:title="Data Dictionary service provides an interface to a data dictionary service the service shall provide ...">
<polygon fill="white" stroke="black" points="768.17,-58.5 768.17,-79.5 902.17,-79.5 902.17,-58.5 768.17,-58.5"/>
<text text-anchor="middle" x="835.17" y="-65.9" font-family="Helvetica,sans-Serif" font-size="12.00">svcDataDictionary.cpp</text>
</a>
</g>
</g>
<!-- Node17&#45;&gt;Node18 -->
<g id="edge26" class="edge">
<title>Node17&#45;&gt;Node18</title>
<path fill="none" stroke="midnightblue" d="M835.17,-106.16C835.17,-97.16 835.17,-86.92 835.17,-79.64"/>
<polygon fill="midnightblue" stroke="midnightblue" points="831.67,-106.25 835.17,-116.25 838.67,-106.25 831.67,-106.25"/>
</g>
<!-- Node19&#45;&gt;Node5 -->
<g id="edge30" class="edge">
<title>Node19&#45;&gt;Node5</title>
<path fill="none" stroke="midnightblue" d="M1188.3,-145.25C1173.21,-161.45 1148.25,-184.83 1121.17,-196 1038.05,-230.27 767.94,-239.1 658.18,-241.3"/>
<polygon fill="midnightblue" stroke="midnightblue" points="1191.16,-147.3 1195.26,-137.53 1185.96,-142.62 1191.16,-147.3"/>
</g>
<!-- Node20 -->
<g id="node20" class="node">
<title>Node20</title>
<g id="a_node20"><a xlink:href="../../d1/d2c/_audio_director_8cpp.html" target="_top" xlink:title=" ">
<polygon fill="white" stroke="black" points="1147.17,-58.5 1147.17,-79.5 1259.17,-79.5 1259.17,-58.5 1147.17,-58.5"/>
<text text-anchor="middle" x="1203.17" y="-65.9" font-family="Helvetica,sans-Serif" font-size="12.00">AudioDirector.cpp</text>
</a>
</g>
</g>
<!-- Node19&#45;&gt;Node20 -->
<g id="edge29" class="edge">
<title>Node19&#45;&gt;Node20</title>
<path fill="none" stroke="midnightblue" d="M1203.17,-106.16C1203.17,-97.16 1203.17,-86.92 1203.17,-79.64"/>
<polygon fill="midnightblue" stroke="midnightblue" points="1199.67,-106.25 1203.17,-116.25 1206.67,-106.25 1199.67,-106.25"/>
</g>
<!-- Node21 -->
<g id="node21" class="node">
<title>Node21</title>
<g id="a_node21"><a xlink:href="../../d9/d3e/_app_base_class_8h.html" target="_top" xlink:title=" ">
<polygon fill="white" stroke="black" points="972.67,-58.5 972.67,-79.5 1077.67,-79.5 1077.67,-58.5 972.67,-58.5"/>
<text text-anchor="middle" x="1025.17" y="-65.9" font-family="Helvetica,sans-Serif" font-size="12.00">AppBaseClass.h</text>
</a>
</g>
</g>
<!-- Node19&#45;&gt;Node21 -->
<g id="edge31" class="edge">
<title>Node19&#45;&gt;Node21</title>
<path fill="none" stroke="midnightblue" d="M1162.87,-113.32C1130.23,-103.05 1084.95,-88.81 1055.37,-79.5"/>
<polygon fill="midnightblue" stroke="midnightblue" points="1161.98,-116.71 1172.57,-116.37 1164.08,-110.03 1161.98,-116.71"/>
</g>
<!-- Node21&#45;&gt;Node5 -->
<g id="edge33" class="edge">
<title>Node21&#45;&gt;Node5</title>
<path fill="none" stroke="midnightblue" d="M1067.98,-83.66C1083.1,-90.78 1098.49,-101.19 1107.17,-116 1130.46,-155.78 1083.37,-177.47 1041.17,-196 973.45,-225.73 755.32,-236.95 658.37,-240.53"/>
<polygon fill="midnightblue" stroke="midnightblue" points="1069.23,-80.39 1058.67,-79.64 1066.46,-86.82 1069.23,-80.39"/>
</g>
<!-- Node21&#45;&gt;Node6 -->
<g id="edge32" class="edge">
<title>Node21&#45;&gt;Node6</title>
<path fill="none" stroke="midnightblue" d="M962.25,-60.72C868.4,-49.86 692.99,-29.57 600.98,-18.92"/>
<polygon fill="midnightblue" stroke="midnightblue" points="962.11,-64.23 972.45,-61.9 962.92,-57.27 962.11,-64.23"/>
</g>
<!-- Node21&#45;&gt;Node16 -->
<g id="edge34" class="edge">
<title>Node21&#45;&gt;Node16</title>
<path fill="none" stroke="midnightblue" d="M1008.69,-87.25C1000.6,-95.81 990.77,-106.36 982.17,-116 963.98,-136.37 943.38,-160.87 932.29,-174.2"/>
<polygon fill="midnightblue" stroke="midnightblue" points="1011.46,-89.41 1015.81,-79.75 1006.39,-84.6 1011.46,-89.41"/>
</g>
<!-- Node22&#45;&gt;Node9 -->
<g id="edge37" class="edge">
<title>Node22&#45;&gt;Node9</title>
<path fill="none" stroke="midnightblue" d="M509.87,-173.58C474.26,-164.84 429.41,-151.63 416.17,-138 400.56,-121.93 397.04,-94.34 396.3,-79.73"/>
<polygon fill="midnightblue" stroke="midnightblue" points="509.09,-176.99 519.63,-175.92 510.72,-170.18 509.09,-176.99"/>
</g>
<!-- Node23 -->
<g id="node23" class="node">
<title>Node23</title>
<g id="a_node23"><a xlink:href="../../d7/d7e/_app_wren_8cpp.html" target="_top" xlink:title=" ">
<polygon fill="white" stroke="black" points="424.67,-116.5 424.67,-137.5 513.67,-137.5 513.67,-116.5 424.67,-116.5"/>
<text text-anchor="middle" x="469.17" y="-123.9" font-family="Helvetica,sans-Serif" font-size="12.00">AppWren.cpp</text>
</a>
</g>
</g>
<!-- Node22&#45;&gt;Node23 -->
<g id="edge36" class="edge">
<title>Node22&#45;&gt;Node23</title>
<path fill="none" stroke="midnightblue" d="M533.23,-168.77C517.64,-158.85 497.77,-146.2 484.32,-137.64"/>
<polygon fill="midnightblue" stroke="midnightblue" points="531.52,-171.83 541.84,-174.25 535.28,-165.92 531.52,-171.83"/>
</g>
</g>
</svg>
        <g id="navigator" transform="translate(0 0)" fill="#404254">
                <rect fill="#f2f5e9" fill-opacity="0.5" stroke="#606060" stroke-width=".5" x="0" y="0" width="60" height="60"/>
                <use id="zoomplus" xlink:href="#zoomPlus" x="17" y="9" onmousedown="handleZoom(evt,'in')"/>
                <use id="zoomminus" xlink:href="#zoomMin" x="42" y="9" onmousedown="handleZoom(evt,'out')"/>
                <use id="reset" xlink:href="#resetDef" x="30" y="36" onmousedown="handleReset()"/>
                <g id="arrowUp" xlink:href="#dirArrow" transform="translate(30 24)" onmousedown="handlePan(0,-1)">
                  <use xlink:href="#rim" fill="#404040">
                        <set attributeName="fill" to="#808080" begin="arrowUp.mouseover" end="arrowUp.mouseout"/>
                  </use>
                  <path fill="none" stroke="white" stroke-width="1.5" d="M0,-3.0v7 M-2.5,-0.5L0,-3.0L2.5,-0.5"/>
                </g>
                <g id="arrowRight" xlink:href="#dirArrow" transform="rotate(90) translate(36 -43)" onmousedown="handlePan(1,0)">
                  <use xlink:href="#rim" fill="#404040">
                        <set attributeName="fill" to="#808080" begin="arrowRight.mouseover" end="arrowRight.mouseout"/>
                  </use>
                  <path fill="none" stroke="white" stroke-width="1.5" d="M0,-3.0v7 M-2.5,-0.5L0,-3.0L2.5,-0.5"/>
                </g>
                <g id="arrowDown" xlink:href="#dirArrow" transform="rotate(180) translate(-30 -48)" onmousedown="handlePan(0,1)">
                  <use xlink:href="#rim" fill="#404040">
                        <set attributeName="fill" to="#808080" begin="arrowDown.mouseover" end="arrowDown.mouseout"/>
                  </use>
                  <path fill="none" stroke="white" stroke-width="1.5" d="M0,-3.0v7 M-2.5,-0.5L0,-3.0L2.5,-0.5"/>
                </g>
                <g id="arrowLeft" xlink:href="#dirArrow" transform="rotate(270) translate(-36 17)" onmousedown="handlePan(-1,0)">
                  <use xlink:href="#rim" fill="#404040">
                        <set attributeName="fill" to="#808080" begin="arrowLeft.mouseover" end="arrowLeft.mouseout"/>
                  </use>
                  <path fill="none" stroke="white" stroke-width="1.5" d="M0,-3.0v7 M-2.5,-0.5L0,-3.0L2.5,-0.5"/>
                </g>
        </g>
        <svg viewBox="0 0 15 15" width="100%" height="30px" preserveAspectRatio="xMaxYMin meet">
         <g id="arrow_out" transform="scale(0.3 0.3)">
          <a xlink:href="eris__analyze__scope_8h__dep__incl_org.svg" target="_base">
           <rect id="button" ry="5" rx="5" y="6" x="6" height="38" width="38"
                fill="#f2f5e9" fill-opacity="0.5" stroke="#606060" stroke-width="1.0"/>
           <path id="arrow"
             d="M 11.500037,31.436501 C 11.940474,20.09759 22.043105,11.32322 32.158766,21.979434 L 37.068811,17.246167 C 37.068811,17.246167 37.088388,32 37.088388,32 L 22.160133,31.978069 C 22.160133,31.978069 26.997745,27.140456 26.997745,27.140456 C 18.528582,18.264221 13.291696,25.230495 11.500037,31.436501 z"
             style="fill:#404040;"/>
          </a>
         </g>
        </svg>
</svg>
