<?xml version="1.0" encoding="UTF-8" standalone="no"?>
<!DOCTYPE svg PUBLIC "-//W3C//DTD SVG 1.1//EN"
 "http://www.w3.org/Graphics/SVG/1.1/DTD/svg11.dtd">
<!-- Generated by graphviz version 2.47.3 (20210619.1520)
 -->
<!-- Title: AppCQT Pages: 1 -->
<!--zoomable 355 -->
<svg id="main" version="1.1" xmlns="http://www.w3.org/2000/svg" xmlns:xlink="http://www.w3.org/1999/xlink" xml:space="preserve" onload="init(evt)">
<style type="text/css"><![CDATA[
.edge:hover path { stroke: red; }
.edge:hover polygon { stroke: red; fill: red; }
]]></style>
<script type="text/javascript"><![CDATA[
var edges = document.getElementsByTagName('g');
if (edges && edges.length) {
  for (var i=0;i<edges.length;i++) {
    if (edges[i].id.substr(0,4)=='edge') {
      edges[i].setAttribute('class','edge');
    }
  }
}
]]></script>
        <defs>
                <circle id="rim" cx="0" cy="0" r="7"/>
                <circle id="rim2" cx="0" cy="0" r="3.5"/>
                <g id="zoomPlus">
                        <use xlink:href="#rim" fill="#404040">
                                <set attributeName="fill" to="#808080" begin="zoomplus.mouseover" end="zoomplus.mouseout"/>
                        </use>
                        <path d="M-4,0h8M0,-4v8" fill="none" stroke="white" stroke-width="1.5" pointer-events="none"/>
                </g>
                <g id="zoomMin">
                        <use xlink:href="#rim" fill="#404040">
                                <set attributeName="fill" to="#808080" begin="zoomminus.mouseover" end="zoomminus.mouseout"/>
                        </use>
                        <path d="M-4,0h8" fill="none" stroke="white" stroke-width="1.5" pointer-events="none"/>
                </g>
                <g id="dirArrow">
                        <path fill="none" stroke="white" stroke-width="1.5" d="M0,-3.0v7 M-2.5,-0.5L0,-3.0L2.5,-0.5"/>
                </g>
               <g id="resetDef">
                       <use xlink:href="#rim2" fill="#404040">
                               <set attributeName="fill" to="#808080" begin="reset.mouseover" end="reset.mouseout"/>
                       </use>
               </g>
        </defs>

<script type="text/javascript">
var viewWidth = 1318;
var viewHeight = 355;
var sectionId = 'dynsection-1';
</script>
<script xlink:href="../../svgpan.js"/>
<svg id="graph" class="graph">
<g id="viewport">
<title>AppCQT</title>
<polygon fill="white" stroke="transparent" points="-4,4 -4,-351 1314,-351 1314,4 -4,4"/>
<!-- Node1 -->
<g id="node1" class="node">
<title>Node1</title>
<g id="a_node1"><a xlink:title="Implements the AppCQT class.">
<polygon fill="#bfbfbf" stroke="black" points="1247,-75.5 1247,-96.5 1310,-96.5 1310,-75.5 1247,-75.5"/>
<text text-anchor="middle" x="1278.5" y="-82.9" font-family="Helvetica,sans-Serif" font-size="12.00">AppCQT</text>
</a>
</g>
</g>
<!-- Node2 -->
<g id="node2" class="node">
<title>Node2</title>
<g id="a_node2"><a xlink:href="../../db/d69/class_app_base_class.html" target="_top" xlink:title=" ">
<polygon fill="white" stroke="black" points="293.5,-268.5 293.5,-289.5 389.5,-289.5 389.5,-268.5 293.5,-268.5"/>
<text text-anchor="middle" x="341.5" y="-275.9" font-family="Helvetica,sans-Serif" font-size="12.00">AppBaseClass</text>
</a>
</g>
</g>
<!-- Node2&#45;&gt;Node1 -->
<g id="edge1" class="edge">
<title>Node2&#45;&gt;Node1</title>
<path fill="none" stroke="midnightblue" d="M382.23,-292.72C432.18,-308.72 520.88,-333 599,-333 599,-333 599,-333 1115.5,-333 1230.37,-333 1268.25,-143.89 1275.92,-96.61"/>
<polygon fill="midnightblue" stroke="midnightblue" points="383.06,-289.31 372.47,-289.54 380.9,-295.96 383.06,-289.31"/>
</g>
<!-- Node2&#45;&gt;Node2 -->
<g id="edge2" class="edge">
<title>Node2&#45;&gt;Node2</title>
<path fill="none" stroke="#9a32cd" stroke-dasharray="5,2" d="M325.02,-299.79C326.47,-304.53 331.97,-308 341.5,-308 357.14,-308 361.91,-298.65 355.8,-289.71"/>
<polygon fill="#9a32cd" stroke="#9a32cd" points="328.51,-300.22 327.2,-289.71 321.66,-298.74 328.51,-300.22"/>
<text text-anchor="middle" x="341.5" y="-337.4" font-family="Helvetica,sans-Serif" font-size="12.00"> nextAppicationNode</text>
<text text-anchor="middle" x="341.5" y="-324.4" font-family="Helvetica,sans-Serif" font-size="12.00">parentNode</text>
<text text-anchor="middle" x="341.5" y="-311.4" font-family="Helvetica,sans-Serif" font-size="12.00">previousAppicationNode</text>
</g>
<!-- Node5 -->
<g id="node5" class="node">
<title>Node5</title>
<g id="a_node5"><a xlink:href="../../d2/da8/class_svc_serial_command_interface.html" target="_top" xlink:title=" ">
<polygon fill="white" stroke="black" points="517,-228.5 517,-249.5 683,-249.5 683,-228.5 517,-228.5"/>
<text text-anchor="middle" x="600" y="-235.9" font-family="Helvetica,sans-Serif" font-size="12.00">SvcSerialCommandInterface</text>
</a>
</g>
</g>
<!-- Node2&#45;&gt;Node5 -->
<g id="edge6" class="edge">
<title>Node2&#45;&gt;Node5</title>
<path fill="none" stroke="midnightblue" d="M399.67,-270.08C438.66,-264 490.46,-255.93 531.48,-249.53"/>
<polygon fill="midnightblue" stroke="midnightblue" points="398.89,-266.66 389.55,-271.66 399.97,-273.58 398.89,-266.66"/>
</g>
<!-- Node3 -->
<g id="node3" class="node">
<title>Node3</title>
<g id="a_node3"><a xlink:href="../../d8/d5a/class_i_l_i9341__t3___e_r_i_s.html" target="_top" xlink:title=" ">
<polygon fill="white" stroke="black" points="114,-268.5 114,-289.5 219,-289.5 219,-268.5 114,-268.5"/>
<text text-anchor="middle" x="166.5" y="-275.9" font-family="Helvetica,sans-Serif" font-size="12.00">ILI9341_t3_ERIS</text>
</a>
</g>
</g>
<!-- Node3&#45;&gt;Node2 -->
<g id="edge3" class="edge">
<title>Node3&#45;&gt;Node2</title>
<path fill="none" stroke="#9a32cd" stroke-dasharray="5,2" d="M229.53,-279C250.55,-279 273.68,-279 293.35,-279"/>
<polygon fill="#9a32cd" stroke="#9a32cd" points="229.41,-275.5 219.41,-279 229.41,-282.5 229.41,-275.5"/>
<text text-anchor="middle" x="251.5" y="-282.4" font-family="Helvetica,sans-Serif" font-size="12.00"> draw</text>
</g>
<!-- Node4 -->
<g id="node4" class="node">
<title>Node4</title>
<g id="a_node4"><a xlink:title=" ">
<polygon fill="white" stroke="#bfbfbf" points="0,-268.5 0,-289.5 77,-289.5 77,-268.5 0,-268.5"/>
<text text-anchor="middle" x="38.5" y="-275.9" font-family="Helvetica,sans-Serif" font-size="12.00">ILI9341_t3n</text>
</a>
</g>
</g>
<!-- Node4&#45;&gt;Node3 -->
<g id="edge4" class="edge">
<title>Node4&#45;&gt;Node3</title>
<path fill="none" stroke="midnightblue" d="M87.52,-279C96.1,-279 105.07,-279 113.74,-279"/>
<polygon fill="midnightblue" stroke="midnightblue" points="87.3,-275.5 77.3,-279 87.3,-282.5 87.3,-275.5"/>
</g>
<!-- Node5&#45;&gt;Node2 -->
<g id="edge5" class="edge">
<title>Node5&#45;&gt;Node2</title>
<path fill="none" stroke="#9a32cd" stroke-dasharray="5,2" d="M506.74,-231.07C477.66,-230.81 445.66,-232.87 417,-240 394.76,-245.53 371.78,-258.95 357.33,-268.5"/>
<polygon fill="#9a32cd" stroke="#9a32cd" points="506.82,-234.58 516.89,-231.26 506.95,-227.58 506.82,-234.58"/>
<text text-anchor="middle" x="458" y="-243.4" font-family="Helvetica,sans-Serif" font-size="12.00"> sci</text>
</g>
<!-- Node7 -->
<g id="node7" class="node">
<title>Node7</title>
<g id="a_node7"><a xlink:href="../../d8/d1c/class_audio_director.html" target="_top" xlink:title=" ">
<polygon fill="white" stroke="black" points="880.5,-187.5 880.5,-208.5 969.5,-208.5 969.5,-187.5 880.5,-187.5"/>
<text text-anchor="middle" x="925" y="-194.9" font-family="Helvetica,sans-Serif" font-size="12.00">AudioDirector</text>
</a>
</g>
</g>
<!-- Node5&#45;&gt;Node7 -->
<g id="edge18" class="edge">
<title>Node5&#45;&gt;Node7</title>
<path fill="none" stroke="#9a32cd" stroke-dasharray="5,2" d="M693.33,-230.81C734.88,-226.73 784.49,-221.32 829,-215 845.75,-212.62 864.08,-209.47 880.12,-206.53"/>
<polygon fill="#9a32cd" stroke="#9a32cd" points="692.84,-227.34 683.23,-231.79 693.52,-234.31 692.84,-227.34"/>
<text text-anchor="middle" x="765" y="-232.4" font-family="Helvetica,sans-Serif" font-size="12.00"> sci</text>
</g>
<!-- Node6 -->
<g id="node6" class="node">
<title>Node6</title>
<g id="a_node6"><a xlink:title=" ">
<polygon fill="white" stroke="#bfbfbf" points="321,-210.5 321,-231.5 362,-231.5 362,-210.5 321,-210.5"/>
<text text-anchor="middle" x="341.5" y="-217.9" font-family="Helvetica,sans-Serif" font-size="12.00">Print</text>
</a>
</g>
</g>
<!-- Node6&#45;&gt;Node5 -->
<g id="edge7" class="edge">
<title>Node6&#45;&gt;Node5</title>
<path fill="none" stroke="midnightblue" d="M372.36,-220.51C385.98,-220.31 402.3,-220.1 417,-220 453.44,-219.76 462.72,-216.58 499,-220 516.95,-221.69 536.47,-225.05 553.46,-228.48"/>
<polygon fill="midnightblue" stroke="midnightblue" points="372.05,-217.01 362.11,-220.67 372.16,-224.01 372.05,-217.01"/>
</g>
<!-- Node7&#45;&gt;Node2 -->
<g id="edge8" class="edge">
<title>Node7&#45;&gt;Node2</title>
<path fill="none" stroke="#9a32cd" stroke-dasharray="5,2" d="M899.27,-213.79C880.7,-224.81 854.23,-238.79 829,-246 672.92,-290.6 477.71,-286.9 389.56,-282.24"/>
<polygon fill="#9a32cd" stroke="#9a32cd" points="901.24,-216.69 907.97,-208.5 897.6,-210.71 901.24,-216.69"/>
<text text-anchor="middle" x="600" y="-287.4" font-family="Helvetica,sans-Serif" font-size="12.00"> ad</text>
</g>
<!-- Node8 -->
<g id="node8" class="node">
<title>Node8</title>
<g id="a_node8"><a xlink:href="../../dc/d96/classeris_audio_output_i2_s.html" target="_top" xlink:title=" ">
<polygon fill="white" stroke="black" points="541,-187.5 541,-208.5 659,-208.5 659,-187.5 541,-187.5"/>
<text text-anchor="middle" x="600" y="-194.9" font-family="Helvetica,sans-Serif" font-size="12.00">erisAudioOutputI2S</text>
</a>
</g>
</g>
<!-- Node8&#45;&gt;Node7 -->
<g id="edge9" class="edge">
<title>Node8&#45;&gt;Node7</title>
<path fill="none" stroke="#9a32cd" stroke-dasharray="5,2" d="M669.47,-198C733.16,-198 826.14,-198 880.32,-198"/>
<polygon fill="#9a32cd" stroke="#9a32cd" points="669.12,-194.5 659.12,-198 669.12,-201.5 669.12,-194.5"/>
<text text-anchor="middle" x="765" y="-201.4" font-family="Helvetica,sans-Serif" font-size="12.00"> AudioStreamOutputPort</text>
</g>
<!-- Node9 -->
<g id="node9" class="node">
<title>Node9</title>
<g id="a_node9"><a xlink:title=" ">
<polygon fill="white" stroke="#bfbfbf" points="292.5,-170.5 292.5,-191.5 390.5,-191.5 390.5,-170.5 292.5,-170.5"/>
<text text-anchor="middle" x="341.5" y="-177.9" font-family="Helvetica,sans-Serif" font-size="12.00">AudioOutputI2S</text>
</a>
</g>
</g>
<!-- Node9&#45;&gt;Node8 -->
<g id="edge10" class="edge">
<title>Node9&#45;&gt;Node8</title>
<path fill="none" stroke="midnightblue" d="M400.79,-184.86C442.62,-187.64 498.77,-191.36 540.63,-194.13"/>
<polygon fill="midnightblue" stroke="midnightblue" points="400.96,-181.37 390.75,-184.2 400.49,-188.35 400.96,-181.37"/>
</g>
<!-- Node10 -->
<g id="node10" class="node">
<title>Node10</title>
<g id="a_node10"><a xlink:href="../../d2/d7c/class_audio_connection.html" target="_top" xlink:title=" ">
<polygon fill="white" stroke="black" points="288,-99.5 288,-120.5 395,-120.5 395,-99.5 288,-99.5"/>
<text text-anchor="middle" x="341.5" y="-106.9" font-family="Helvetica,sans-Serif" font-size="12.00">AudioConnection</text>
</a>
</g>
</g>
<!-- Node10&#45;&gt;Node7 -->
<g id="edge11" class="edge">
<title>Node10&#45;&gt;Node7</title>
<path fill="none" stroke="#9a32cd" stroke-dasharray="5,2" d="M383.69,-123.47C394.45,-126.63 406.08,-129.73 417,-132 533.63,-156.28 564.87,-149.59 683,-165 752.09,-174.02 832.24,-185.12 880.48,-191.87"/>
<polygon fill="#9a32cd" stroke="#9a32cd" points="384.7,-120.12 374.11,-120.58 382.67,-126.82 384.7,-120.12"/>
<text text-anchor="middle" x="600" y="-168.4" font-family="Helvetica,sans-Serif" font-size="12.00"> pCord</text>
</g>
<!-- Node10&#45;&gt;Node10 -->
<g id="edge12" class="edge">
<title>Node10&#45;&gt;Node10</title>
<path fill="none" stroke="#9a32cd" stroke-dasharray="5,2" d="M325.02,-130.79C326.47,-135.53 331.97,-139 341.5,-139 357.14,-139 361.91,-129.65 355.8,-120.71"/>
<polygon fill="#9a32cd" stroke="#9a32cd" points="328.51,-131.22 327.2,-120.71 321.66,-129.74 328.51,-131.22"/>
<text text-anchor="middle" x="341.5" y="-142.4" font-family="Helvetica,sans-Serif" font-size="12.00"> next_dest</text>
</g>
<!-- Node11 -->
<g id="node11" class="node">
<title>Node11</title>
<g id="a_node11"><a xlink:href="../../d5/d96/class_audio_stream.html" target="_top" xlink:title=" ">
<polygon fill="white" stroke="black" points="557,-54.5 557,-75.5 643,-75.5 643,-54.5 557,-54.5"/>
<text text-anchor="middle" x="600" y="-61.9" font-family="Helvetica,sans-Serif" font-size="12.00">AudioStream</text>
</a>
</g>
</g>
<!-- Node10&#45;&gt;Node11 -->
<g id="edge14" class="edge">
<title>Node10&#45;&gt;Node11</title>
<path fill="none" stroke="#9a32cd" stroke-dasharray="5,2" d="M368.45,-94.27C382.34,-86.69 400.04,-78.33 417,-74 463.75,-62.07 519.38,-61.16 556.73,-62.38"/>
<polygon fill="#9a32cd" stroke="#9a32cd" points="366.48,-91.36 359.5,-99.33 369.93,-97.46 366.48,-91.36"/>
<text text-anchor="middle" x="458" y="-77.4" font-family="Helvetica,sans-Serif" font-size="12.00"> destination_list</text>
</g>
<!-- Node11&#45;&gt;Node7 -->
<g id="edge17" class="edge">
<title>Node11&#45;&gt;Node7</title>
<path fill="none" stroke="#9a32cd" stroke-dasharray="5,2" d="M653.06,-75.25C715.4,-87.74 813.38,-108.14 829,-116 865.4,-134.31 899.31,-169.62 914.95,-187.33"/>
<polygon fill="#9a32cd" stroke="#9a32cd" points="653.5,-71.77 643.01,-73.24 652.13,-78.63 653.5,-71.77"/>
<text text-anchor="middle" x="765" y="-132.4" font-family="Helvetica,sans-Serif" font-size="12.00"> pAudioStreamInputPort</text>
<text text-anchor="middle" x="765" y="-119.4" font-family="Helvetica,sans-Serif" font-size="12.00">pAudioStreamObjPool</text>
</g>
<!-- Node11&#45;&gt;Node10 -->
<g id="edge13" class="edge">
<title>Node11&#45;&gt;Node10</title>
<path fill="none" stroke="#9a32cd" stroke-dasharray="5,2" d="M553.48,-78.2C536.5,-82.77 516.97,-87.59 499,-91 464.72,-97.51 425.76,-102.25 395.29,-105.36"/>
<polygon fill="#9a32cd" stroke="#9a32cd" points="554.44,-81.57 563.16,-75.56 552.59,-74.82 554.44,-81.57"/>
<text text-anchor="middle" x="458" y="-118.4" font-family="Helvetica,sans-Serif" font-size="12.00"> pDst</text>
<text text-anchor="middle" x="458" y="-105.4" font-family="Helvetica,sans-Serif" font-size="12.00">pSrc</text>
</g>
<!-- Node11&#45;&gt;Node11 -->
<g id="edge15" class="edge">
<title>Node11&#45;&gt;Node11</title>
<path fill="none" stroke="#9a32cd" stroke-dasharray="5,2" d="M573.69,-85.06C575.42,-90.16 584.19,-94 600,-94 624.68,-94 632.2,-84.65 622.56,-75.71"/>
<polygon fill="#9a32cd" stroke="#9a32cd" points="576.97,-86.29 577.44,-75.71 570.47,-83.69 576.97,-86.29"/>
<text text-anchor="middle" x="600" y="-110.4" font-family="Helvetica,sans-Serif" font-size="12.00"> first_update</text>
<text text-anchor="middle" x="600" y="-97.4" font-family="Helvetica,sans-Serif" font-size="12.00">next_update</text>
</g>
<!-- Node13 -->
<g id="node13" class="node">
<title>Node13</title>
<g id="a_node13"><a xlink:href="../../d0/d55/classeris_audio_analyze_f_f_t1024.html" target="_top" xlink:title=" ">
<polygon fill="white" stroke="black" points="847,-20.5 847,-41.5 1003,-41.5 1003,-20.5 847,-20.5"/>
<text text-anchor="middle" x="925" y="-27.9" font-family="Helvetica,sans-Serif" font-size="12.00">erisAudioAnalyzeFFT1024</text>
</a>
</g>
</g>
<!-- Node11&#45;&gt;Node13 -->
<g id="edge20" class="edge">
<title>Node11&#45;&gt;Node13</title>
<path fill="none" stroke="midnightblue" d="M653.31,-59.49C705.71,-53.98 786.97,-45.42 846.79,-39.13"/>
<polygon fill="midnightblue" stroke="midnightblue" points="652.81,-56.03 643.23,-60.56 653.54,-62.99 652.81,-56.03"/>
</g>
<!-- Node15 -->
<g id="node15" class="node">
<title>Node15</title>
<g id="a_node15"><a xlink:href="../../d4/dd5/class_audio_synth_waveform.html" target="_top" xlink:title=" ">
<polygon fill="white" stroke="black" points="860.5,-64.5 860.5,-85.5 989.5,-85.5 989.5,-64.5 860.5,-64.5"/>
<text text-anchor="middle" x="925" y="-71.9" font-family="Helvetica,sans-Serif" font-size="12.00">AudioSynthWaveform</text>
</a>
</g>
</g>
<!-- Node11&#45;&gt;Node15 -->
<g id="edge24" class="edge">
<title>Node11&#45;&gt;Node15</title>
<path fill="none" stroke="midnightblue" d="M653.37,-66.62C709.86,-68.37 799.82,-71.16 860.35,-73.03"/>
<polygon fill="midnightblue" stroke="midnightblue" points="653.33,-63.12 643.23,-66.31 653.11,-70.12 653.33,-63.12"/>
</g>
<!-- Node12 -->
<g id="node12" class="node">
<title>Node12</title>
<g id="a_node12"><a xlink:href="../../de/dd6/structaudio__block__struct.html" target="_top" xlink:title=" ">
<polygon fill="white" stroke="black" points="284,-0.5 284,-21.5 399,-21.5 399,-0.5 284,-0.5"/>
<text text-anchor="middle" x="341.5" y="-7.9" font-family="Helvetica,sans-Serif" font-size="12.00">audio_block_struct</text>
</a>
</g>
</g>
<!-- Node12&#45;&gt;Node11 -->
<g id="edge16" class="edge">
<title>Node12&#45;&gt;Node11</title>
<path fill="none" stroke="#9a32cd" stroke-dasharray="5,2" d="M409.13,-17.83C437.08,-21.35 469.82,-26.33 499,-33 523.52,-38.6 550.67,-47.47 570.48,-54.44"/>
<polygon fill="#9a32cd" stroke="#9a32cd" points="409.41,-14.34 399.06,-16.6 408.56,-21.29 409.41,-14.34"/>
<text text-anchor="middle" x="458" y="-49.4" font-family="Helvetica,sans-Serif" font-size="12.00"> inputQueue</text>
<text text-anchor="middle" x="458" y="-36.4" font-family="Helvetica,sans-Serif" font-size="12.00">memory_pool</text>
</g>
<!-- Node12&#45;&gt;Node13 -->
<g id="edge21" class="edge">
<title>Node12&#45;&gt;Node13</title>
<path fill="none" stroke="#9a32cd" stroke-dasharray="5,2" d="M409.02,-13.08C436.83,-13.96 469.48,-15.01 499,-16 620.57,-20.09 761.68,-25.13 846.84,-28.2"/>
<polygon fill="#9a32cd" stroke="#9a32cd" points="409.11,-9.58 399,-12.76 408.89,-16.57 409.11,-9.58"/>
<text text-anchor="middle" x="600" y="-26.4" font-family="Helvetica,sans-Serif" font-size="12.00"> inputQueueArray</text>
</g>
<!-- Node13&#45;&gt;Node1 -->
<g id="edge19" class="edge">
<title>Node13&#45;&gt;Node1</title>
<path fill="none" stroke="#9a32cd" stroke-dasharray="5,2" d="M1013.42,-24.41C1065.27,-22.85 1131.83,-24.99 1189,-40 1216.63,-47.26 1245.41,-64.27 1262.38,-75.45"/>
<polygon fill="#9a32cd" stroke="#9a32cd" points="1013.12,-20.92 1003.25,-24.77 1013.37,-27.91 1013.12,-20.92"/>
<text text-anchor="middle" x="1114.5" y="-56.4" font-family="Helvetica,sans-Serif" font-size="12.00"> fft</text>
<text text-anchor="middle" x="1114.5" y="-43.4" font-family="Helvetica,sans-Serif" font-size="12.00">fft2</text>
</g>
<!-- Node14 -->
<g id="node14" class="node">
<title>Node14</title>
<g id="a_node14"><a xlink:href="../../df/dc5/classeris_audio_synth_waveform.html" target="_top" xlink:title=" ">
<polygon fill="white" stroke="black" points="1040,-75.5 1040,-96.5 1189,-96.5 1189,-75.5 1040,-75.5"/>
<text text-anchor="middle" x="1114.5" y="-82.9" font-family="Helvetica,sans-Serif" font-size="12.00">erisAudioSynthWaveform</text>
</a>
</g>
</g>
<!-- Node14&#45;&gt;Node1 -->
<g id="edge22" class="edge">
<title>Node14&#45;&gt;Node1</title>
<path fill="none" stroke="#9a32cd" stroke-dasharray="5,2" d="M1199.83,-86C1216.6,-86 1233.18,-86 1246.68,-86"/>
<polygon fill="#9a32cd" stroke="#9a32cd" points="1199.39,-82.5 1189.39,-86 1199.39,-89.5 1199.39,-82.5"/>
<text text-anchor="middle" x="1218" y="-89.4" font-family="Helvetica,sans-Serif" font-size="12.00"> osc</text>
</g>
<!-- Node15&#45;&gt;Node14 -->
<g id="edge23" class="edge">
<title>Node15&#45;&gt;Node14</title>
<path fill="none" stroke="midnightblue" d="M1000.11,-79.35C1013.21,-80.12 1026.84,-80.92 1039.92,-81.68"/>
<polygon fill="midnightblue" stroke="midnightblue" points="999.93,-75.83 989.74,-78.74 999.52,-82.82 999.93,-75.83"/>
</g>
</g>
</svg>
        <g id="navigator" transform="translate(0 0)" fill="#404254">
                <rect fill="#f2f5e9" fill-opacity="0.5" stroke="#606060" stroke-width=".5" x="0" y="0" width="60" height="60"/>
                <use id="zoomplus" xlink:href="#zoomPlus" x="17" y="9" onmousedown="handleZoom(evt,'in')"/>
                <use id="zoomminus" xlink:href="#zoomMin" x="42" y="9" onmousedown="handleZoom(evt,'out')"/>
                <use id="reset" xlink:href="#resetDef" x="30" y="36" onmousedown="handleReset()"/>
                <g id="arrowUp" xlink:href="#dirArrow" transform="translate(30 24)" onmousedown="handlePan(0,-1)">
                  <use xlink:href="#rim" fill="#404040">
                        <set attributeName="fill" to="#808080" begin="arrowUp.mouseover" end="arrowUp.mouseout"/>
                  </use>
                  <path fill="none" stroke="white" stroke-width="1.5" d="M0,-3.0v7 M-2.5,-0.5L0,-3.0L2.5,-0.5"/>
                </g>
                <g id="arrowRight" xlink:href="#dirArrow" transform="rotate(90) translate(36 -43)" onmousedown="handlePan(1,0)">
                  <use xlink:href="#rim" fill="#404040">
                        <set attributeName="fill" to="#808080" begin="arrowRight.mouseover" end="arrowRight.mouseout"/>
                  </use>
                  <path fill="none" stroke="white" stroke-width="1.5" d="M0,-3.0v7 M-2.5,-0.5L0,-3.0L2.5,-0.5"/>
                </g>
                <g id="arrowDown" xlink:href="#dirArrow" transform="rotate(180) translate(-30 -48)" onmousedown="handlePan(0,1)">
                  <use xlink:href="#rim" fill="#404040">
                        <set attributeName="fill" to="#808080" begin="arrowDown.mouseover" end="arrowDown.mouseout"/>
                  </use>
                  <path fill="none" stroke="white" stroke-width="1.5" d="M0,-3.0v7 M-2.5,-0.5L0,-3.0L2.5,-0.5"/>
                </g>
                <g id="arrowLeft" xlink:href="#dirArrow" transform="rotate(270) translate(-36 17)" onmousedown="handlePan(-1,0)">
                  <use xlink:href="#rim" fill="#404040">
                        <set attributeName="fill" to="#808080" begin="arrowLeft.mouseover" end="arrowLeft.mouseout"/>
                  </use>
                  <path fill="none" stroke="white" stroke-width="1.5" d="M0,-3.0v7 M-2.5,-0.5L0,-3.0L2.5,-0.5"/>
                </g>
        </g>
        <svg viewBox="0 0 15 15" width="100%" height="30px" preserveAspectRatio="xMaxYMin meet">
         <g id="arrow_out" transform="scale(0.3 0.3)">
          <a xlink:href="class_app_c_q_t__coll__graph_org.svg" target="_base">
           <rect id="button" ry="5" rx="5" y="6" x="6" height="38" width="38"
                fill="#f2f5e9" fill-opacity="0.5" stroke="#606060" stroke-width="1.0"/>
           <path id="arrow"
             d="M 11.500037,31.436501 C 11.940474,20.09759 22.043105,11.32322 32.158766,21.979434 L 37.068811,17.246167 C 37.068811,17.246167 37.088388,32 37.088388,32 L 22.160133,31.978069 C 22.160133,31.978069 26.997745,27.140456 26.997745,27.140456 C 18.528582,18.264221 13.291696,25.230495 11.500037,31.436501 z"
             style="fill:#404040;"/>
          </a>
         </g>
        </svg>
</svg>
