<?xml version="1.0" encoding="UTF-8" standalone="no"?>
<!DOCTYPE svg PUBLIC "-//W3C//DTD SVG 1.1//EN"
 "http://www.w3.org/Graphics/SVG/1.1/DTD/svg11.dtd">
<!-- Generated by graphviz version 2.47.3 (20210619.1520)
 -->
<!-- Title: a Pages: 1 -->
<!--zoomable 177 -->
<svg id="main" version="1.1" xmlns="http://www.w3.org/2000/svg" xmlns:xlink="http://www.w3.org/1999/xlink" xml:space="preserve" onload="init(evt)">
<style type="text/css"><![CDATA[
.edge:hover path { stroke: red; }
.edge:hover polygon { stroke: red; fill: red; }
]]></style>
<script type="text/javascript"><![CDATA[
var edges = document.getElementsByTagName('g');
if (edges && edges.length) {
  for (var i=0;i<edges.length;i++) {
    if (edges[i].id.substr(0,4)=='edge') {
      edges[i].setAttribute('class','edge');
    }
  }
}
]]></script>
        <defs>
                <circle id="rim" cx="0" cy="0" r="7"/>
                <circle id="rim2" cx="0" cy="0" r="3.5"/>
                <g id="zoomPlus">
                        <use xlink:href="#rim" fill="#404040">
                                <set attributeName="fill" to="#808080" begin="zoomplus.mouseover" end="zoomplus.mouseout"/>
                        </use>
                        <path d="M-4,0h8M0,-4v8" fill="none" stroke="white" stroke-width="1.5" pointer-events="none"/>
                </g>
                <g id="zoomMin">
                        <use xlink:href="#rim" fill="#404040">
                                <set attributeName="fill" to="#808080" begin="zoomminus.mouseover" end="zoomminus.mouseout"/>
                        </use>
                        <path d="M-4,0h8" fill="none" stroke="white" stroke-width="1.5" pointer-events="none"/>
                </g>
                <g id="dirArrow">
                        <path fill="none" stroke="white" stroke-width="1.5" d="M0,-3.0v7 M-2.5,-0.5L0,-3.0L2.5,-0.5"/>
                </g>
               <g id="resetDef">
                       <use xlink:href="#rim2" fill="#404040">
                               <set attributeName="fill" to="#808080" begin="reset.mouseover" end="reset.mouseout"/>
                       </use>
               </g>
        </defs>

<script type="text/javascript">
var viewWidth = 954;
var viewHeight = 177;
var sectionId = 'dynsection-0';
</script>
<script xlink:href="../../svgpan.js"/>
<svg id="graph" class="graph">
<g id="viewport">
<title>a</title>
<!-- Node1 -->
<g id="node1" class="node">
<title>Node1</title>
<g id="a_node1"><a xlink:title=" ">
<polygon fill="#bfbfbf" stroke="black" points="917,-43.5 917,-71.5 946,-71.5 946,-43.5 917,-43.5"/>
<text text-anchor="middle" x="931.5" y="-53.1" font-family="Helvetica,sans-Serif" font-size="18.00">a</text>
</a>
</g>
</g>
<!-- Node2 -->
<g id="node2" class="node">
<title>Node2</title>
<g id="a_node2"><a xlink:href="../../d0/d55/classeris_audio_analyze_f_f_t1024_a8e1d12d061b83e2f737aec1a763b7286.html#a8e1d12d061b83e2f737aec1a763b7286" target="_top" xlink:title=" ">
<polygon fill="none" stroke="black" points="535.5,-86.5 535.5,-134.5 840.5,-134.5 840.5,-86.5 535.5,-86.5"/>
<text text-anchor="start" x="543.5" y="-116.1" font-family="Helvetica,sans-Serif" font-size="18.00">erisAudioAnalyzeFFT1024::sort_fftrr</text>
<text text-anchor="middle" x="688" y="-96.1" font-family="Helvetica,sans-Serif" font-size="18.00">_by_cqt_bin</text>
</a>
</g>
</g>
<!-- Node1&#45;&gt;Node2 -->
<g id="edge1" class="edge">
<title>Node1&#45;&gt;Node2</title>
<path fill="none" stroke="midnightblue" d="M907.04,-64.53C898.84,-66.88 889.54,-69.43 881,-71.5 859.51,-76.71 836.56,-81.79 814.27,-86.47"/>
<polygon fill="midnightblue" stroke="midnightblue" points="908.09,-67.87 916.7,-61.7 906.12,-61.15 908.09,-67.87"/>
</g>
<!-- Node5 -->
<g id="node5" class="node">
<title>Node5</title>
<g id="a_node5"><a xlink:href="../../d4/dde/class_app_c_q_t_ac235f12cccb16c44d4275be5c571b409.html#ac235f12cccb16c44d4275be5c571b409" target="_top" xlink:title=" ">
<polygon fill="none" stroke="black" points="189,-43.5 189,-71.5 459,-71.5 459,-43.5 189,-43.5"/>
<text text-anchor="middle" x="324" y="-53.1" font-family="Helvetica,sans-Serif" font-size="18.00">AppCQT::updateOscillatorBank</text>
</a>
</g>
</g>
<!-- Node1&#45;&gt;Node5 -->
<g id="edge8" class="edge">
<title>Node1&#45;&gt;Node5</title>
<path fill="none" stroke="midnightblue" d="M906.66,-57.5C833.28,-57.5 606.92,-57.5 459.18,-57.5"/>
<polygon fill="midnightblue" stroke="midnightblue" points="906.72,-61 916.72,-57.5 906.72,-54 906.72,-61"/>
</g>
<!-- Node7 -->
<g id="node7" class="node">
<title>Node7</title>
<g id="a_node7"><a xlink:href="../../d0/d55/classeris_audio_analyze_f_f_t1024_a98144c6da12b21f11c34396c285f2f16.html#a98144c6da12b21f11c34396c285f2f16" target="_top" xlink:title=" ">
<polygon fill="none" stroke="black" points="495,-0.5 495,-28.5 881,-28.5 881,-0.5 495,-0.5"/>
<text text-anchor="middle" x="688" y="-10.1" font-family="Helvetica,sans-Serif" font-size="18.00">erisAudioAnalyzeFFT1024::sort_fftrr_by_value</text>
</a>
</g>
</g>
<!-- Node1&#45;&gt;Node7 -->
<g id="edge6" class="edge">
<title>Node1&#45;&gt;Node7</title>
<path fill="none" stroke="midnightblue" d="M907.09,-50.23C898.9,-47.86 889.59,-45.36 881,-43.5 854.23,-37.72 825.11,-32.68 797.83,-28.51"/>
<polygon fill="midnightblue" stroke="midnightblue" points="906.16,-53.6 916.75,-53.11 908.17,-46.9 906.16,-53.6"/>
</g>
<!-- Node3 -->
<g id="node3" class="node">
<title>Node3</title>
<g id="a_node3"><a xlink:href="../../d4/dde/class_app_c_q_t_a5c33a48120697387e5435ae9d80aeb7c.html#a5c33a48120697387e5435ae9d80aeb7c" target="_top" xlink:title=" ">
<polygon fill="none" stroke="black" points="207.5,-140.5 207.5,-168.5 440.5,-168.5 440.5,-140.5 207.5,-140.5"/>
<text text-anchor="middle" x="324" y="-150.1" font-family="Helvetica,sans-Serif" font-size="18.00">AppCQT::messageHandler</text>
</a>
</g>
</g>
<!-- Node2&#45;&gt;Node3 -->
<g id="edge2" class="edge">
<title>Node2&#45;&gt;Node3</title>
<path fill="none" stroke="midnightblue" d="M525.23,-130.16C496.63,-133.64 467.39,-137.19 440.4,-140.47"/>
<polygon fill="midnightblue" stroke="midnightblue" points="525.81,-133.62 535.31,-128.94 524.97,-126.67 525.81,-133.62"/>
</g>
<!-- Node4 -->
<g id="node4" class="node">
<title>Node4</title>
<g id="a_node4"><a xlink:href="../../d4/dde/class_app_c_q_t_aed18661c211e72751dec7dbfe1199f76.html#aed18661c211e72751dec7dbfe1199f76" target="_top" xlink:title=" ">
<polygon fill="none" stroke="black" points="249.5,-93.5 249.5,-121.5 398.5,-121.5 398.5,-93.5 249.5,-93.5"/>
<text text-anchor="middle" x="324" y="-103.1" font-family="Helvetica,sans-Serif" font-size="18.00">AppCQT::render</text>
</a>
</g>
</g>
<!-- Node2&#45;&gt;Node4 -->
<g id="edge3" class="edge">
<title>Node2&#45;&gt;Node4</title>
<path fill="none" stroke="midnightblue" d="M525.31,-109.16C481.1,-108.79 435.32,-108.41 398.71,-108.11"/>
<polygon fill="midnightblue" stroke="midnightblue" points="525.29,-112.66 535.31,-109.24 525.34,-105.66 525.29,-112.66"/>
</g>
<!-- Node2&#45;&gt;Node5 -->
<g id="edge4" class="edge">
<title>Node2&#45;&gt;Node5</title>
<path fill="none" stroke="midnightblue" d="M525.27,-86.82C489.55,-81.59 452.81,-76.21 420.71,-71.51"/>
<polygon fill="midnightblue" stroke="midnightblue" points="524.91,-90.31 535.31,-88.29 525.93,-83.38 524.91,-90.31"/>
</g>
<!-- Node6 -->
<g id="node6" class="node">
<title>Node6</title>
<g id="a_node6"><a xlink:href="../../d4/dde/class_app_c_q_t_a372adb1ab7d2060842c3cc6d424c8fc7.html#a372adb1ab7d2060842c3cc6d424c8fc7" target="_top" xlink:title=" ">
<polygon fill="none" stroke="black" points="0,-43.5 0,-71.5 153,-71.5 153,-43.5 0,-43.5"/>
<text text-anchor="middle" x="76.5" y="-53.1" font-family="Helvetica,sans-Serif" font-size="18.00">AppCQT::update</text>
</a>
</g>
</g>
<!-- Node5&#45;&gt;Node6 -->
<g id="edge5" class="edge">
<title>Node5&#45;&gt;Node6</title>
<path fill="none" stroke="midnightblue" d="M178.51,-57.5C169.83,-57.5 161.3,-57.5 153.1,-57.5"/>
<polygon fill="midnightblue" stroke="midnightblue" points="178.76,-61 188.76,-57.5 178.76,-54 178.76,-61"/>
</g>
<!-- Node7&#45;&gt;Node5 -->
<g id="edge7" class="edge">
<title>Node7&#45;&gt;Node5</title>
<path fill="none" stroke="midnightblue" d="M558.93,-29.71C521.14,-34.2 479.98,-39.09 442.87,-43.5"/>
<polygon fill="midnightblue" stroke="midnightblue" points="559.45,-33.18 568.97,-28.52 558.63,-26.22 559.45,-33.18"/>
</g>
</g>
</svg>
        <g id="navigator" transform="translate(0 0)" fill="#404254">
                <rect fill="#f2f5e9" fill-opacity="0.5" stroke="#606060" stroke-width=".5" x="0" y="0" width="60" height="60"/>
                <use id="zoomplus" xlink:href="#zoomPlus" x="17" y="9" onmousedown="handleZoom(evt,'in')"/>
                <use id="zoomminus" xlink:href="#zoomMin" x="42" y="9" onmousedown="handleZoom(evt,'out')"/>
                <use id="reset" xlink:href="#resetDef" x="30" y="36" onmousedown="handleReset()"/>
                <g id="arrowUp" xlink:href="#dirArrow" transform="translate(30 24)" onmousedown="handlePan(0,-1)">
                  <use xlink:href="#rim" fill="#404040">
                        <set attributeName="fill" to="#808080" begin="arrowUp.mouseover" end="arrowUp.mouseout"/>
                  </use>
                  <path fill="none" stroke="white" stroke-width="1.5" d="M0,-3.0v7 M-2.5,-0.5L0,-3.0L2.5,-0.5"/>
                </g>
                <g id="arrowRight" xlink:href="#dirArrow" transform="rotate(90) translate(36 -43)" onmousedown="handlePan(1,0)">
                  <use xlink:href="#rim" fill="#404040">
                        <set attributeName="fill" to="#808080" begin="arrowRight.mouseover" end="arrowRight.mouseout"/>
                  </use>
                  <path fill="none" stroke="white" stroke-width="1.5" d="M0,-3.0v7 M-2.5,-0.5L0,-3.0L2.5,-0.5"/>
                </g>
                <g id="arrowDown" xlink:href="#dirArrow" transform="rotate(180) translate(-30 -48)" onmousedown="handlePan(0,1)">
                  <use xlink:href="#rim" fill="#404040">
                        <set attributeName="fill" to="#808080" begin="arrowDown.mouseover" end="arrowDown.mouseout"/>
                  </use>
                  <path fill="none" stroke="white" stroke-width="1.5" d="M0,-3.0v7 M-2.5,-0.5L0,-3.0L2.5,-0.5"/>
                </g>
                <g id="arrowLeft" xlink:href="#dirArrow" transform="rotate(270) translate(-36 17)" onmousedown="handlePan(-1,0)">
                  <use xlink:href="#rim" fill="#404040">
                        <set attributeName="fill" to="#808080" begin="arrowLeft.mouseover" end="arrowLeft.mouseout"/>
                  </use>
                  <path fill="none" stroke="white" stroke-width="1.5" d="M0,-3.0v7 M-2.5,-0.5L0,-3.0L2.5,-0.5"/>
                </g>
        </g>
        <svg viewBox="0 0 15 15" width="100%" height="30px" preserveAspectRatio="xMaxYMin meet">
         <g id="arrow_out" transform="scale(0.3 0.3)">
          <a xlink:href="_creative_01_commons_01_attribution_014_80_01_international_01_public_01_license_8txt_aa60269841c95f7d0011064cccbffc252_aa60269841c95f7d0011064cccbffc252_icgraph_org.svg" target="_base">
           <rect id="button" ry="5" rx="5" y="6" x="6" height="38" width="38"
                fill="#f2f5e9" fill-opacity="0.5" stroke="#606060" stroke-width="1.0"/>
           <path id="arrow"
             d="M 11.500037,31.436501 C 11.940474,20.09759 22.043105,11.32322 32.158766,21.979434 L 37.068811,17.246167 C 37.068811,17.246167 37.088388,32 37.088388,32 L 22.160133,31.978069 C 22.160133,31.978069 26.997745,27.140456 26.997745,27.140456 C 18.528582,18.264221 13.291696,25.230495 11.500037,31.436501 z"
             style="fill:#404040;"/>
          </a>
         </g>
        </svg>
</svg>
