<?xml version="1.0" encoding="UTF-8" standalone="no"?>
<!DOCTYPE svg PUBLIC "-//W3C//DTD SVG 1.1//EN"
 "http://www.w3.org/Graphics/SVG/1.1/DTD/svg11.dtd">
<!-- Generated by graphviz version 2.47.3 (20210619.1520)
 -->
<!-- Title: AppScope::update Pages: 1 -->
<svg width="638pt" height="202pt"
 viewBox="0.00 0.00 638.00 202.00" xmlns="http://www.w3.org/2000/svg" xmlns:xlink="http://www.w3.org/1999/xlink">
<g id="graph0" class="graph" transform="scale(1 1) rotate(0) translate(4 198)">
<title>AppScope::update</title>
<polygon fill="white" stroke="transparent" points="-4,4 -4,-198 634,-198 634,4 -4,4"/>
<!-- Node1 -->
<g id="node1" class="node">
<title>Node1</title>
<g id="a_node1"><a xlink:title=" ">
<polygon fill="#bfbfbf" stroke="black" points="0,-86 0,-107 115,-107 115,-86 0,-86"/>
<text text-anchor="middle" x="57.5" y="-93.4" font-family="Helvetica,sans-Serif" font-size="12.00">AppScope::update</text>
</a>
</g>
</g>
<!-- Node2 -->
<g id="node2" class="node">
<title>Node2</title>
<g id="a_node2"><a xlink:href="../../d4/d81/classeris_audio_analyze_scope.html#a9a0e5d6a6eeff913a4e417efea934dde" target="_top" xlink:title=" ">
<polygon fill="white" stroke="black" points="151,-159.5 151,-193.5 293,-193.5 293,-159.5 151,-159.5"/>
<text text-anchor="start" x="159" y="-179.9" font-family="Helvetica,sans-Serif" font-size="12.00">erisAudioAnalyzeScope</text>
<text text-anchor="middle" x="222" y="-166.9" font-family="Helvetica,sans-Serif" font-size="12.00">::getHDiv</text>
</a>
</g>
</g>
<!-- Node1&#45;&gt;Node2 -->
<g id="edge1" class="edge">
<title>Node1&#45;&gt;Node2</title>
<path fill="none" stroke="midnightblue" d="M74.74,-107.14C92.86,-118.74 123.27,-137.38 151,-150.5 154.59,-152.2 158.32,-153.86 162.11,-155.48"/>
<polygon fill="midnightblue" stroke="midnightblue" points="161.02,-158.81 171.6,-159.37 163.68,-152.34 161.02,-158.81"/>
</g>
<!-- Node3 -->
<g id="node3" class="node">
<title>Node3</title>
<g id="a_node3"><a xlink:href="../../d4/d81/classeris_audio_analyze_scope.html#a9d865bd201a84115950c1810ba18971c" target="_top" xlink:title=" ">
<polygon fill="white" stroke="black" points="151,-106.5 151,-140.5 293,-140.5 293,-106.5 151,-106.5"/>
<text text-anchor="start" x="159" y="-126.9" font-family="Helvetica,sans-Serif" font-size="12.00">erisAudioAnalyzeScope</text>
<text text-anchor="middle" x="222" y="-113.9" font-family="Helvetica,sans-Serif" font-size="12.00">::getPeakValue</text>
</a>
</g>
</g>
<!-- Node1&#45;&gt;Node3 -->
<g id="edge2" class="edge">
<title>Node1&#45;&gt;Node3</title>
<path fill="none" stroke="midnightblue" d="M115.33,-105.94C123.56,-107.31 132.15,-108.74 140.72,-110.16"/>
<polygon fill="midnightblue" stroke="midnightblue" points="140.32,-113.64 150.76,-111.83 141.47,-106.74 140.32,-113.64"/>
</g>
<!-- Node4 -->
<g id="node4" class="node">
<title>Node4</title>
<g id="a_node4"><a xlink:href="../../d4/d81/classeris_audio_analyze_scope.html#a9b55a833ab606b7081bf2ecaac6626fa" target="_top" xlink:title=" ">
<polygon fill="white" stroke="black" points="151,-53.5 151,-87.5 293,-87.5 293,-53.5 151,-53.5"/>
<text text-anchor="start" x="159" y="-73.9" font-family="Helvetica,sans-Serif" font-size="12.00">erisAudioAnalyzeScope</text>
<text text-anchor="middle" x="222" y="-60.9" font-family="Helvetica,sans-Serif" font-size="12.00">::read</text>
</a>
</g>
</g>
<!-- Node1&#45;&gt;Node4 -->
<g id="edge3" class="edge">
<title>Node1&#45;&gt;Node4</title>
<path fill="none" stroke="midnightblue" d="M115.33,-87.41C123.56,-86.09 132.15,-84.72 140.72,-83.34"/>
<polygon fill="midnightblue" stroke="midnightblue" points="141.44,-86.77 150.76,-81.74 140.34,-79.86 141.44,-86.77"/>
</g>
<!-- Node5 -->
<g id="node5" class="node">
<title>Node5</title>
<g id="a_node5"><a xlink:href="../../dc/d43/class_svc_data_dictionary.html#abcac7202c3bd21801ab64e48eee44056" target="_top" xlink:title=" ">
<polygon fill="white" stroke="black" points="162,-0.5 162,-34.5 282,-34.5 282,-0.5 162,-0.5"/>
<text text-anchor="start" x="170" y="-20.9" font-family="Helvetica,sans-Serif" font-size="12.00">SvcDataDictionary::</text>
<text text-anchor="middle" x="222" y="-7.9" font-family="Helvetica,sans-Serif" font-size="12.00">update</text>
</a>
</g>
</g>
<!-- Node1&#45;&gt;Node5 -->
<g id="edge4" class="edge">
<title>Node1&#45;&gt;Node5</title>
<path fill="none" stroke="midnightblue" d="M75.5,-85.96C93.76,-74.88 123.83,-57.29 151,-44.5 155.34,-42.46 159.88,-40.44 164.47,-38.49"/>
<polygon fill="midnightblue" stroke="midnightblue" points="166.01,-41.64 173.92,-34.59 163.34,-35.17 166.01,-41.64"/>
</g>
<!-- Node6 -->
<g id="node6" class="node">
<title>Node6</title>
<g id="a_node6"><a xlink:href="../../dc/d43/class_svc_data_dictionary.html#a3b09dc582adbb4d5c6f99f6e983a81f1" target="_top" xlink:title=" ">
<polygon fill="white" stroke="black" points="329,-23.5 329,-57.5 449,-57.5 449,-23.5 329,-23.5"/>
<text text-anchor="start" x="337" y="-43.9" font-family="Helvetica,sans-Serif" font-size="12.00">SvcDataDictionary::</text>
<text text-anchor="middle" x="389" y="-30.9" font-family="Helvetica,sans-Serif" font-size="12.00">create</text>
</a>
</g>
</g>
<!-- Node5&#45;&gt;Node6 -->
<g id="edge5" class="edge">
<title>Node5&#45;&gt;Node6</title>
<path fill="none" stroke="midnightblue" d="M282.1,-25.74C293.95,-27.39 306.5,-29.14 318.66,-30.83"/>
<polygon fill="midnightblue" stroke="midnightblue" points="318.37,-34.33 328.76,-32.24 319.33,-27.39 318.37,-34.33"/>
</g>
<!-- Node7 -->
<g id="node7" class="node">
<title>Node7</title>
<g id="a_node7"><a xlink:href="../../dc/d43/class_svc_data_dictionary.html#ae2f81369b9db1eb6558036740fb1986c" target="_top" xlink:title=" ">
<polygon fill="white" stroke="black" points="485,-7 485,-28 630,-28 630,-7 485,-7"/>
<text text-anchor="middle" x="557.5" y="-14.4" font-family="Helvetica,sans-Serif" font-size="12.00">SvcDataDictionary::hash</text>
</a>
</g>
</g>
<!-- Node5&#45;&gt;Node7 -->
<g id="edge7" class="edge">
<title>Node5&#45;&gt;Node7</title>
<path fill="none" stroke="midnightblue" d="M282.14,-15.53C297.41,-15.1 313.81,-14.71 329,-14.5 382.33,-13.75 395.67,-13.76 449,-14.5 457.32,-14.62 466,-14.78 474.66,-14.98"/>
<polygon fill="midnightblue" stroke="midnightblue" points="474.72,-18.48 484.8,-15.22 474.89,-11.48 474.72,-18.48"/>
</g>
<!-- Node6&#45;&gt;Node7 -->
<g id="edge6" class="edge">
<title>Node6&#45;&gt;Node7</title>
<path fill="none" stroke="midnightblue" d="M449.17,-32.33C457.5,-31.18 466.18,-29.98 474.84,-28.78"/>
<polygon fill="midnightblue" stroke="midnightblue" points="475.55,-32.22 484.98,-27.38 474.59,-25.28 475.55,-32.22"/>
</g>
</g>
</svg>
