<?xml version="1.0" encoding="UTF-8" standalone="no"?>
<!DOCTYPE svg PUBLIC "-//W3C//DTD SVG 1.1//EN"
 "http://www.w3.org/Graphics/SVG/1.1/DTD/svg11.dtd">
<!-- Generated by graphviz version 2.47.3 (20210619.1520)
 -->
<!-- Title: AppScope::AppScope Pages: 1 -->
<!--zoomable 107 -->
<svg id="main" version="1.1" xmlns="http://www.w3.org/2000/svg" xmlns:xlink="http://www.w3.org/1999/xlink" xml:space="preserve" onload="init(evt)">
<style type="text/css"><![CDATA[
.edge:hover path { stroke: red; }
.edge:hover polygon { stroke: red; fill: red; }
]]></style>
<script type="text/javascript"><![CDATA[
var edges = document.getElementsByTagName('g');
if (edges && edges.length) {
  for (var i=0;i<edges.length;i++) {
    if (edges[i].id.substr(0,4)=='edge') {
      edges[i].setAttribute('class','edge');
    }
  }
}
]]></script>
        <defs>
                <circle id="rim" cx="0" cy="0" r="7"/>
                <circle id="rim2" cx="0" cy="0" r="3.5"/>
                <g id="zoomPlus">
                        <use xlink:href="#rim" fill="#404040">
                                <set attributeName="fill" to="#808080" begin="zoomplus.mouseover" end="zoomplus.mouseout"/>
                        </use>
                        <path d="M-4,0h8M0,-4v8" fill="none" stroke="white" stroke-width="1.5" pointer-events="none"/>
                </g>
                <g id="zoomMin">
                        <use xlink:href="#rim" fill="#404040">
                                <set attributeName="fill" to="#808080" begin="zoomminus.mouseover" end="zoomminus.mouseout"/>
                        </use>
                        <path d="M-4,0h8" fill="none" stroke="white" stroke-width="1.5" pointer-events="none"/>
                </g>
                <g id="dirArrow">
                        <path fill="none" stroke="white" stroke-width="1.5" d="M0,-3.0v7 M-2.5,-0.5L0,-3.0L2.5,-0.5"/>
                </g>
               <g id="resetDef">
                       <use xlink:href="#rim2" fill="#404040">
                               <set attributeName="fill" to="#808080" begin="reset.mouseover" end="reset.mouseout"/>
                       </use>
               </g>
        </defs>

<script type="text/javascript">
var viewWidth = 1868;
var viewHeight = 107;
var sectionId = 'dynsection-0';
</script>
<script xlink:href="../../svgpan.js"/>
<svg id="graph" class="graph">
<g id="viewport">
<title>AppScope::AppScope</title>
<!-- Node1 -->
<g id="node1" class="node">
<title>Node1</title>
<g id="a_node1"><a xlink:title=" ">
<polygon fill="#bfbfbf" stroke="black" points="0,-23.5 0,-51.5 194,-51.5 194,-23.5 0,-23.5"/>
<text text-anchor="middle" x="97" y="-33.1" font-family="Helvetica,sans-Serif" font-size="18.00">AppScope::AppScope</text>
</a>
</g>
</g>
<!-- Node2 -->
<g id="node2" class="node">
<title>Node2</title>
<g id="a_node2"><a xlink:href="../../d8/d1c/class_audio_director_a578f1deac0695f2db3ba245aaedc62df.html#a578f1deac0695f2db3ba245aaedc62df" target="_top" xlink:title=" ">
<polygon fill="none" stroke="black" points="230,-47.5 230,-75.5 592,-75.5 592,-47.5 230,-47.5"/>
<text text-anchor="middle" x="411" y="-57.1" font-family="Helvetica,sans-Serif" font-size="18.00">AudioDirector::getAudioStreamObjByName</text>
</a>
</g>
</g>
<!-- Node1&#45;&gt;Node2 -->
<g id="edge1" class="edge">
<title>Node1&#45;&gt;Node2</title>
<path fill="none" stroke="midnightblue" d="M194.16,-44.9C202.39,-45.53 210.89,-46.18 219.54,-46.85"/>
<polygon fill="midnightblue" stroke="midnightblue" points="219.51,-50.36 229.75,-47.63 220.05,-43.38 219.51,-50.36"/>
</g>
<!-- Node7 -->
<g id="node7" class="node">
<title>Node7</title>
<g id="a_node7"><a xlink:href="../../d4/d81/classeris_audio_analyze_scope_a5908af4a47b73f1850f106303ae071bd.html#a5908af4a47b73f1850f106303ae071bd" target="_top" xlink:title=" ">
<polygon fill="none" stroke="black" points="277,-0.5 277,-28.5 545,-28.5 545,-0.5 277,-0.5"/>
<text text-anchor="middle" x="411" y="-10.1" font-family="Helvetica,sans-Serif" font-size="18.00">erisAudioAnalyzeScope::trigger</text>
</a>
</g>
</g>
<!-- Node1&#45;&gt;Node7 -->
<g id="edge7" class="edge">
<title>Node1&#45;&gt;Node7</title>
<path fill="none" stroke="midnightblue" d="M194.16,-30.41C217.13,-28.72 242.15,-26.87 266.74,-25.06"/>
<polygon fill="midnightblue" stroke="midnightblue" points="267.16,-28.54 276.87,-24.31 266.64,-21.56 267.16,-28.54"/>
</g>
<!-- Node3 -->
<g id="node3" class="node">
<title>Node3</title>
<g id="a_node3"><a xlink:href="../../d2/da8/class_svc_serial_command_interface_a0793f597a16bd5e1b99084354ac0415e.html#a0793f597a16bd5e1b99084354ac0415e" target="_top" xlink:title="request to start a lz4 compressed message &#160;starts the message and returns true if available returns f...">
<polygon fill="none" stroke="black" points="628,-69.5 628,-97.5 1085,-97.5 1085,-69.5 628,-69.5"/>
<text text-anchor="middle" x="856.5" y="-79.1" font-family="Helvetica,sans-Serif" font-size="18.00">SvcSerialCommandInterface::requestStartLZ4Message</text>
</a>
</g>
</g>
<!-- Node2&#45;&gt;Node3 -->
<g id="edge2" class="edge">
<title>Node2&#45;&gt;Node3</title>
<path fill="none" stroke="midnightblue" d="M592.07,-70.43C600.52,-70.85 609.05,-71.27 617.62,-71.7"/>
<polygon fill="midnightblue" stroke="midnightblue" points="617.53,-75.2 627.69,-72.2 617.88,-68.21 617.53,-75.2"/>
</g>
<!-- Node6 -->
<g id="node6" class="node">
<title>Node6</title>
<g id="a_node6"><a xlink:href="../../d2/da8/class_svc_serial_command_interface_ac5de4f7e73f6375361f79492955c101e.html#ac5de4f7e73f6375361f79492955c101e" target="_top" xlink:title="Calling this function signals the end of a compressed message. &#160;The txBuffer contents are lz4 compres...">
<polygon fill="none" stroke="black" points="1121,-23.5 1121,-51.5 1519,-51.5 1519,-23.5 1121,-23.5"/>
<text text-anchor="middle" x="1320" y="-33.1" font-family="Helvetica,sans-Serif" font-size="18.00">SvcSerialCommandInterface::sendLZ4Message</text>
</a>
</g>
</g>
<!-- Node2&#45;&gt;Node6 -->
<g id="edge5" class="edge">
<title>Node2&#45;&gt;Node6</title>
<path fill="none" stroke="midnightblue" d="M592.01,-56.74C741.36,-52.78 953.89,-47.16 1110.6,-43.01"/>
<polygon fill="midnightblue" stroke="midnightblue" points="1110.94,-46.51 1120.84,-42.74 1110.75,-39.51 1110.94,-46.51"/>
</g>
<!-- Node4 -->
<g id="node4" class="node">
<title>Node4</title>
<g id="a_node4"><a xlink:href="../../d2/da8/class_svc_serial_command_interface_a42055ffe62395b2d4ee7ca7ef44f1a50.html#a42055ffe62395b2d4ee7ca7ef44f1a50" target="_top" xlink:title=" ">
<polygon fill="none" stroke="black" points="1123.5,-70.5 1123.5,-98.5 1516.5,-98.5 1516.5,-70.5 1123.5,-70.5"/>
<text text-anchor="middle" x="1320" y="-80.1" font-family="Helvetica,sans-Serif" font-size="18.00">SvcSerialCommandInterface::startLZ4Message</text>
</a>
</g>
</g>
<!-- Node3&#45;&gt;Node4 -->
<g id="edge3" class="edge">
<title>Node3&#45;&gt;Node4</title>
<path fill="none" stroke="midnightblue" d="M1085.21,-83.99C1094.56,-84.01 1103.91,-84.03 1113.21,-84.05"/>
<polygon fill="midnightblue" stroke="midnightblue" points="1113.27,-87.55 1123.28,-84.08 1113.28,-80.55 1113.27,-87.55"/>
</g>
<!-- Node5 -->
<g id="node5" class="node">
<title>Node5</title>
<g id="a_node5"><a xlink:href="../../d2/da8/class_svc_serial_command_interface_a809cc3d22320bdd8c54044e278e188f0.html#a809cc3d22320bdd8c54044e278e188f0" target="_top" xlink:title="zero out the transmit buffer and reset the write index">
<polygon fill="none" stroke="black" points="1555,-46.5 1555,-74.5 1860,-74.5 1860,-46.5 1555,-46.5"/>
<text text-anchor="middle" x="1707.5" y="-56.1" font-family="Helvetica,sans-Serif" font-size="18.00">SvcSerialCommandInterface::empty</text>
</a>
</g>
</g>
<!-- Node4&#45;&gt;Node5 -->
<g id="edge4" class="edge">
<title>Node4&#45;&gt;Node5</title>
<path fill="none" stroke="midnightblue" d="M1516.57,-72.32C1526.02,-71.74 1535.45,-71.15 1544.79,-70.57"/>
<polygon fill="midnightblue" stroke="midnightblue" points="1545.11,-74.05 1554.87,-69.94 1544.68,-67.07 1545.11,-74.05"/>
</g>
<!-- Node6&#45;&gt;Node5 -->
<g id="edge6" class="edge">
<title>Node6&#45;&gt;Node5</title>
<path fill="none" stroke="midnightblue" d="M1519.11,-49.32C1527.65,-49.83 1536.17,-50.34 1544.61,-50.84"/>
<polygon fill="midnightblue" stroke="midnightblue" points="1544.67,-54.35 1554.86,-51.45 1545.08,-47.36 1544.67,-54.35"/>
</g>
</g>
</svg>
        <g id="navigator" transform="translate(0 0)" fill="#404254">
                <rect fill="#f2f5e9" fill-opacity="0.5" stroke="#606060" stroke-width=".5" x="0" y="0" width="60" height="60"/>
                <use id="zoomplus" xlink:href="#zoomPlus" x="17" y="9" onmousedown="handleZoom(evt,'in')"/>
                <use id="zoomminus" xlink:href="#zoomMin" x="42" y="9" onmousedown="handleZoom(evt,'out')"/>
                <use id="reset" xlink:href="#resetDef" x="30" y="36" onmousedown="handleReset()"/>
                <g id="arrowUp" xlink:href="#dirArrow" transform="translate(30 24)" onmousedown="handlePan(0,-1)">
                  <use xlink:href="#rim" fill="#404040">
                        <set attributeName="fill" to="#808080" begin="arrowUp.mouseover" end="arrowUp.mouseout"/>
                  </use>
                  <path fill="none" stroke="white" stroke-width="1.5" d="M0,-3.0v7 M-2.5,-0.5L0,-3.0L2.5,-0.5"/>
                </g>
                <g id="arrowRight" xlink:href="#dirArrow" transform="rotate(90) translate(36 -43)" onmousedown="handlePan(1,0)">
                  <use xlink:href="#rim" fill="#404040">
                        <set attributeName="fill" to="#808080" begin="arrowRight.mouseover" end="arrowRight.mouseout"/>
                  </use>
                  <path fill="none" stroke="white" stroke-width="1.5" d="M0,-3.0v7 M-2.5,-0.5L0,-3.0L2.5,-0.5"/>
                </g>
                <g id="arrowDown" xlink:href="#dirArrow" transform="rotate(180) translate(-30 -48)" onmousedown="handlePan(0,1)">
                  <use xlink:href="#rim" fill="#404040">
                        <set attributeName="fill" to="#808080" begin="arrowDown.mouseover" end="arrowDown.mouseout"/>
                  </use>
                  <path fill="none" stroke="white" stroke-width="1.5" d="M0,-3.0v7 M-2.5,-0.5L0,-3.0L2.5,-0.5"/>
                </g>
                <g id="arrowLeft" xlink:href="#dirArrow" transform="rotate(270) translate(-36 17)" onmousedown="handlePan(-1,0)">
                  <use xlink:href="#rim" fill="#404040">
                        <set attributeName="fill" to="#808080" begin="arrowLeft.mouseover" end="arrowLeft.mouseout"/>
                  </use>
                  <path fill="none" stroke="white" stroke-width="1.5" d="M0,-3.0v7 M-2.5,-0.5L0,-3.0L2.5,-0.5"/>
                </g>
        </g>
        <svg viewBox="0 0 15 15" width="100%" height="30px" preserveAspectRatio="xMaxYMin meet">
         <g id="arrow_out" transform="scale(0.3 0.3)">
          <a xlink:href="class_app_scope_a963ae83979bbfdfd46c0b1d063406361_a963ae83979bbfdfd46c0b1d063406361_cgraph_org.svg" target="_base">
           <rect id="button" ry="5" rx="5" y="6" x="6" height="38" width="38"
                fill="#f2f5e9" fill-opacity="0.5" stroke="#606060" stroke-width="1.0"/>
           <path id="arrow"
             d="M 11.500037,31.436501 C 11.940474,20.09759 22.043105,11.32322 32.158766,21.979434 L 37.068811,17.246167 C 37.068811,17.246167 37.088388,32 37.088388,32 L 22.160133,31.978069 C 22.160133,31.978069 26.997745,27.140456 26.997745,27.140456 C 18.528582,18.264221 13.291696,25.230495 11.500037,31.436501 z"
             style="fill:#404040;"/>
          </a>
         </g>
        </svg>
</svg>
