<?xml version="1.0" encoding="UTF-8" standalone="no"?>
<!DOCTYPE svg PUBLIC "-//W3C//DTD SVG 1.1//EN"
 "http://www.w3.org/Graphics/SVG/1.1/DTD/svg11.dtd">
<!-- Generated by graphviz version 2.47.3 (20210619.1520)
 -->
<!-- Title: AppScope::onTouch Pages: 1 -->
<!--zoomable 413 -->
<svg id="main" version="1.1" xmlns="http://www.w3.org/2000/svg" xmlns:xlink="http://www.w3.org/1999/xlink" xml:space="preserve" onload="init(evt)">
<style type="text/css"><![CDATA[
.edge:hover path { stroke: red; }
.edge:hover polygon { stroke: red; fill: red; }
]]></style>
<script type="text/javascript"><![CDATA[
var edges = document.getElementsByTagName('g');
if (edges && edges.length) {
  for (var i=0;i<edges.length;i++) {
    if (edges[i].id.substr(0,4)=='edge') {
      edges[i].setAttribute('class','edge');
    }
  }
}
]]></script>
        <defs>
                <circle id="rim" cx="0" cy="0" r="7"/>
                <circle id="rim2" cx="0" cy="0" r="3.5"/>
                <g id="zoomPlus">
                        <use xlink:href="#rim" fill="#404040">
                                <set attributeName="fill" to="#808080" begin="zoomplus.mouseover" end="zoomplus.mouseout"/>
                        </use>
                        <path d="M-4,0h8M0,-4v8" fill="none" stroke="white" stroke-width="1.5" pointer-events="none"/>
                </g>
                <g id="zoomMin">
                        <use xlink:href="#rim" fill="#404040">
                                <set attributeName="fill" to="#808080" begin="zoomminus.mouseover" end="zoomminus.mouseout"/>
                        </use>
                        <path d="M-4,0h8" fill="none" stroke="white" stroke-width="1.5" pointer-events="none"/>
                </g>
                <g id="dirArrow">
                        <path fill="none" stroke="white" stroke-width="1.5" d="M0,-3.0v7 M-2.5,-0.5L0,-3.0L2.5,-0.5"/>
                </g>
               <g id="resetDef">
                       <use xlink:href="#rim2" fill="#404040">
                               <set attributeName="fill" to="#808080" begin="reset.mouseover" end="reset.mouseout"/>
                       </use>
               </g>
        </defs>

<script type="text/javascript">
var viewWidth = 1634;
var viewHeight = 413;
var sectionId = 'dynsection-0';
</script>
<script xlink:href="../../svgpan.js"/>
<svg id="graph" class="graph">
<g id="viewport">
<title>AppScope::onTouch</title>
<!-- Node1 -->
<g id="node1" class="node">
<title>Node1</title>
<g id="a_node1"><a xlink:title="Event handler called on touch.">
<polygon fill="#bfbfbf" stroke="black" points="0,-211.5 0,-239.5 181,-239.5 181,-211.5 0,-211.5"/>
<text text-anchor="middle" x="90.5" y="-221.1" font-family="Helvetica,sans-Serif" font-size="18.00">AppScope::onTouch</text>
</a>
</g>
</g>
<!-- Node2 -->
<g id="node2" class="node">
<title>Node2</title>
<g id="a_node2"><a xlink:href="../../db/d69/class_app_base_class_a84d1a45250dacc61c7f3fd1c06547a3a.html#a84d1a45250dacc61c7f3fd1c06547a3a" target="_top" xlink:title="gives up popup">
<polygon fill="none" stroke="black" points="218,-188.5 218,-216.5 477,-216.5 477,-188.5 218,-188.5"/>
<text text-anchor="middle" x="347.5" y="-198.1" font-family="Helvetica,sans-Serif" font-size="18.00">AppBaseClass::releasePopUp</text>
</a>
</g>
</g>
<!-- Node1&#45;&gt;Node2 -->
<g id="edge1" class="edge">
<title>Node1&#45;&gt;Node2</title>
<path fill="none" stroke="midnightblue" d="M181.04,-217.42C189.7,-216.64 198.61,-215.84 207.6,-215.03"/>
<polygon fill="midnightblue" stroke="midnightblue" points="208.12,-218.5 217.77,-214.11 207.49,-211.52 208.12,-218.5"/>
</g>
<!-- Node18 -->
<g id="node18" class="node">
<title>Node18</title>
<g id="a_node18"><a xlink:href="../../db/d69/class_app_base_class_a5c284e20788663354eb4d8a862d3a91d.html#a5c284e20788663354eb4d8a862d3a91d" target="_top" xlink:title="request popup from the AppManager will be activated by the next render loop &#160;&#160;applications in popup m...">
<polygon fill="none" stroke="black" points="217,-235.5 217,-263.5 478,-263.5 478,-235.5 217,-235.5"/>
<text text-anchor="middle" x="347.5" y="-245.1" font-family="Helvetica,sans-Serif" font-size="18.00">AppBaseClass::requestPopUp</text>
</a>
</g>
</g>
<!-- Node1&#45;&gt;Node18 -->
<g id="edge17" class="edge">
<title>Node1&#45;&gt;Node18</title>
<path fill="none" stroke="midnightblue" d="M181.04,-233.93C189.4,-234.71 197.99,-235.52 206.66,-236.34"/>
<polygon fill="midnightblue" stroke="midnightblue" points="206.59,-239.85 216.87,-237.3 207.24,-232.88 206.59,-239.85"/>
</g>
<!-- Node3 -->
<g id="node3" class="node">
<title>Node3</title>
<g id="a_node3"><a xlink:href="../../db/d69/class_app_base_class_a32e44666dd58b3cd733c8ac64957dce3.html#a32e44666dd58b3cd733c8ac64957dce3" target="_top" xlink:title=" ">
<polygon fill="none" stroke="black" points="514,-235.5 514,-263.5 789,-263.5 789,-235.5 514,-235.5"/>
<text text-anchor="middle" x="651.5" y="-245.1" font-family="Helvetica,sans-Serif" font-size="18.00">AppBaseClass::_updatePosition</text>
</a>
</g>
</g>
<!-- Node2&#45;&gt;Node3 -->
<g id="edge2" class="edge">
<title>Node2&#45;&gt;Node3</title>
<path fill="none" stroke="midnightblue" d="M438.7,-216.54C473.89,-222.01 514.37,-228.31 550.45,-233.93"/>
<polygon fill="midnightblue" stroke="midnightblue" points="550.08,-237.41 560.5,-235.49 551.16,-230.5 550.08,-237.41"/>
</g>
<!-- Node4 -->
<g id="node4" class="node">
<title>Node4</title>
<g id="a_node4"><a xlink:href="../../da/d96/class_app_manager_aa76d9691e8d029656413590fbe4dee86.html#aa76d9691e8d029656413590fbe4dee86" target="_top" xlink:title=" ">
<polygon fill="none" stroke="black" points="539.5,-188.5 539.5,-216.5 763.5,-216.5 763.5,-188.5 539.5,-188.5"/>
<text text-anchor="middle" x="651.5" y="-198.1" font-family="Helvetica,sans-Serif" font-size="18.00">AppManager::getInstance</text>
</a>
</g>
</g>
<!-- Node2&#45;&gt;Node4 -->
<g id="edge3" class="edge">
<title>Node2&#45;&gt;Node4</title>
<path fill="none" stroke="midnightblue" d="M477.01,-202.5C494.33,-202.5 512.04,-202.5 529.22,-202.5"/>
<polygon fill="midnightblue" stroke="midnightblue" points="529.27,-206 539.27,-202.5 529.27,-199 529.27,-206"/>
</g>
<!-- Node17 -->
<g id="node17" class="node">
<title>Node17</title>
<g id="a_node17"><a xlink:href="../../da/d96/class_app_manager_a06b2e46b0f44765b857e9dad91dfe822.html#a06b2e46b0f44765b857e9dad91dfe822" target="_top" xlink:title="provides an interface for apps to release pop up focus">
<polygon fill="none" stroke="black" points="529.5,-141.5 529.5,-169.5 773.5,-169.5 773.5,-141.5 529.5,-141.5"/>
<text text-anchor="middle" x="651.5" y="-151.1" font-family="Helvetica,sans-Serif" font-size="18.00">AppManager::releasePopUp</text>
</a>
</g>
</g>
<!-- Node2&#45;&gt;Node17 -->
<g id="edge16" class="edge">
<title>Node2&#45;&gt;Node17</title>
<path fill="none" stroke="midnightblue" d="M438.7,-188.46C473.89,-182.99 514.37,-176.69 550.45,-171.07"/>
<polygon fill="midnightblue" stroke="midnightblue" points="551.16,-174.5 560.5,-169.51 550.08,-167.59 551.16,-174.5"/>
</g>
<!-- Node5 -->
<g id="node5" class="node">
<title>Node5</title>
<g id="a_node5"><a xlink:href="../../da/d96/class_app_manager_a9439da981933119c49a83a507d64eb23.html#a9439da981933119c49a83a507d64eb23" target="_top" xlink:title="Construct a new App Manager:: App Manager object using a private constuctor (lazy singleton pattern)">
<polygon fill="none" stroke="black" points="825,-188.5 825,-216.5 1058,-216.5 1058,-188.5 825,-188.5"/>
<text text-anchor="middle" x="941.5" y="-198.1" font-family="Helvetica,sans-Serif" font-size="18.00">AppManager::AppManager</text>
</a>
</g>
</g>
<!-- Node4&#45;&gt;Node5 -->
<g id="edge4" class="edge">
<title>Node4&#45;&gt;Node5</title>
<path fill="none" stroke="midnightblue" d="M763.85,-202.5C780.36,-202.5 797.49,-202.5 814.28,-202.5"/>
<polygon fill="midnightblue" stroke="midnightblue" points="814.69,-206 824.69,-202.5 814.69,-199 814.69,-206"/>
</g>
<!-- Node6 -->
<g id="node6" class="node">
<title>Node6</title>
<g id="a_node6"><a xlink:href="../../d8/d5a/class_i_l_i9341__t3___e_r_i_s_a8c8c09d5ca51d5b4c611875df643bef6.html#a8c8c09d5ca51d5b4c611875df643bef6" target="_top" xlink:title=" ">
<polygon fill="none" stroke="black" points="1118,-376.5 1118,-404.5 1324,-404.5 1324,-376.5 1118,-376.5"/>
<text text-anchor="middle" x="1221" y="-386.1" font-family="Helvetica,sans-Serif" font-size="18.00">ILI9341_t3_ERIS::begin</text>
</a>
</g>
</g>
<!-- Node5&#45;&gt;Node6 -->
<g id="edge5" class="edge">
<title>Node5&#45;&gt;Node6</title>
<path fill="none" stroke="midnightblue" d="M951,-216.85C971.2,-249.55 1025.56,-329.73 1094,-367.5 1098.57,-370.02 1103.36,-372.27 1108.29,-374.28"/>
<polygon fill="midnightblue" stroke="midnightblue" points="1107.33,-377.66 1117.92,-377.86 1109.77,-371.1 1107.33,-377.66"/>
</g>
<!-- Node7 -->
<g id="node7" class="node">
<title>Node7</title>
<g id="a_node7"><a xlink:href="../../d1/dff/class_touch_a057f1914b96362769a5384dbbfdb4195.html#a057f1914b96362769a5384dbbfdb4195" target="_top" xlink:title=" ">
<polygon fill="none" stroke="black" points="1160,-329.5 1160,-357.5 1282,-357.5 1282,-329.5 1160,-329.5"/>
<text text-anchor="middle" x="1221" y="-339.1" font-family="Helvetica,sans-Serif" font-size="18.00">Touch::begin</text>
</a>
</g>
</g>
<!-- Node5&#45;&gt;Node7 -->
<g id="edge6" class="edge">
<title>Node5&#45;&gt;Node7</title>
<path fill="none" stroke="midnightblue" d="M955.99,-216.82C980.74,-242.15 1036.19,-294.6 1094,-320.5 1111.37,-328.28 1131.22,-333.43 1149.94,-336.84"/>
<polygon fill="midnightblue" stroke="midnightblue" points="1149.46,-340.31 1159.9,-338.51 1150.62,-333.4 1149.46,-340.31"/>
</g>
<!-- Node8 -->
<g id="node8" class="node">
<title>Node8</title>
<g id="a_node8"><a xlink:href="../../dc/d43/class_svc_data_dictionary_a3b09dc582adbb4d5c6f99f6e983a81f1.html#a3b09dc582adbb4d5c6f99f6e983a81f1" target="_top" xlink:title="create a record with ownership">
<polygon fill="none" stroke="black" points="1109.5,-282.5 1109.5,-310.5 1332.5,-310.5 1332.5,-282.5 1109.5,-282.5"/>
<text text-anchor="middle" x="1221" y="-292.1" font-family="Helvetica,sans-Serif" font-size="18.00">SvcDataDictionary::create</text>
</a>
</g>
</g>
<!-- Node5&#45;&gt;Node8 -->
<g id="edge7" class="edge">
<title>Node5&#45;&gt;Node8</title>
<path fill="none" stroke="midnightblue" d="M967.42,-216.63C996.8,-232.71 1047.52,-258.64 1094,-273.5 1101.6,-275.93 1109.55,-278.13 1117.6,-280.12"/>
<polygon fill="midnightblue" stroke="midnightblue" points="1116.92,-283.55 1127.45,-282.44 1118.52,-276.74 1116.92,-283.55"/>
</g>
<!-- Node11 -->
<g id="node11" class="node">
<title>Node11</title>
<g id="a_node11"><a xlink:href="../../dc/d40/_app_manager_8cpp_a5db3dd95011fd6a678ae291290091314.html#a5db3dd95011fd6a678ae291290091314" target="_top" xlink:title=" ">
<polygon fill="none" stroke="black" points="1193,-235.5 1193,-263.5 1249,-263.5 1249,-235.5 1193,-235.5"/>
<text text-anchor="middle" x="1221" y="-245.1" font-family="Helvetica,sans-Serif" font-size="18.00">draw</text>
</a>
</g>
</g>
<!-- Node5&#45;&gt;Node11 -->
<g id="edge10" class="edge">
<title>Node5&#45;&gt;Node11</title>
<path fill="none" stroke="midnightblue" d="M1025.38,-216.54C1077.72,-225.4 1142.79,-236.42 1182.85,-243.21"/>
<polygon fill="midnightblue" stroke="midnightblue" points="1182.52,-246.7 1192.97,-244.92 1183.69,-239.8 1182.52,-246.7"/>
</g>
<!-- Node12 -->
<g id="node12" class="node">
<title>Node12</title>
<g id="a_node12"><a xlink:href="../../d1/dff/class_touch_a61a5d056f07ab08cb5924fa573dc3497.html#a61a5d056f07ab08cb5924fa573dc3497" target="_top" xlink:title=" ">
<polygon fill="none" stroke="black" points="1102,-188.5 1102,-216.5 1340,-216.5 1340,-188.5 1102,-188.5"/>
<text text-anchor="middle" x="1221" y="-198.1" font-family="Helvetica,sans-Serif" font-size="18.00">Touch::setCalibrationInputs</text>
</a>
</g>
</g>
<!-- Node5&#45;&gt;Node12 -->
<g id="edge11" class="edge">
<title>Node5&#45;&gt;Node12</title>
<path fill="none" stroke="midnightblue" d="M1058.18,-202.5C1069.22,-202.5 1080.47,-202.5 1091.62,-202.5"/>
<polygon fill="midnightblue" stroke="midnightblue" points="1091.83,-206 1101.83,-202.5 1091.83,-199 1091.83,-206"/>
</g>
<!-- Node13 -->
<g id="node13" class="node">
<title>Node13</title>
<g id="a_node13"><a xlink:href="../../d4/d7c/class_animation_a997d1203ae9418f121f355a5bd0700f0.html#a997d1203ae9418f121f355a5bd0700f0" target="_top" xlink:title=" ">
<polygon fill="none" stroke="black" points="1137,-141.5 1137,-169.5 1305,-169.5 1305,-141.5 1137,-141.5"/>
<text text-anchor="middle" x="1221" y="-151.1" font-family="Helvetica,sans-Serif" font-size="18.00">Animation::setPath</text>
</a>
</g>
</g>
<!-- Node5&#45;&gt;Node13 -->
<g id="edge12" class="edge">
<title>Node5&#45;&gt;Node13</title>
<path fill="none" stroke="midnightblue" d="M1025.38,-188.46C1057.37,-183.04 1094.11,-176.82 1126.99,-171.25"/>
<polygon fill="midnightblue" stroke="midnightblue" points="1127.79,-174.67 1137.06,-169.55 1126.62,-167.77 1127.79,-174.67"/>
</g>
<!-- Node14 -->
<g id="node14" class="node">
<title>Node14</title>
<g id="a_node14"><a xlink:href="../../d8/d5a/class_i_l_i9341__t3___e_r_i_s_a33f0105b1eecc4c37195900fcf0d5fd8.html#a33f0105b1eecc4c37195900fcf0d5fd8" target="_top" xlink:title=" ">
<polygon fill="none" stroke="black" points="1094,-94.5 1094,-122.5 1348,-122.5 1348,-94.5 1094,-94.5"/>
<text text-anchor="middle" x="1221" y="-104.1" font-family="Helvetica,sans-Serif" font-size="18.00">ILI9341_t3_ERIS::setPWMPin</text>
</a>
</g>
</g>
<!-- Node5&#45;&gt;Node14 -->
<g id="edge13" class="edge">
<title>Node5&#45;&gt;Node14</title>
<path fill="none" stroke="midnightblue" d="M968,-188.36C997.49,-172.57 1047.93,-147.28 1094,-132.5 1102.89,-129.65 1112.25,-127.08 1121.69,-124.79"/>
<polygon fill="midnightblue" stroke="midnightblue" points="1122.58,-128.18 1131.53,-122.5 1121,-121.36 1122.58,-128.18"/>
</g>
<!-- Node15 -->
<g id="node15" class="node">
<title>Node15</title>
<g id="a_node15"><a xlink:href="../../d4/d7c/class_animation_ab5af4d2f56dce439c18ba9c4655f98f0.html#ab5af4d2f56dce439c18ba9c4655f98f0" target="_top" xlink:title=" ">
<polygon fill="none" stroke="black" points="1143.5,-47.5 1143.5,-75.5 1298.5,-75.5 1298.5,-47.5 1143.5,-47.5"/>
<text text-anchor="middle" x="1221" y="-57.1" font-family="Helvetica,sans-Serif" font-size="18.00">Animation::setSD</text>
</a>
</g>
</g>
<!-- Node5&#45;&gt;Node15 -->
<g id="edge14" class="edge">
<title>Node5&#45;&gt;Node15</title>
<path fill="none" stroke="midnightblue" d="M956.04,-188.35C980.86,-163.31 1036.42,-111.41 1094,-85.5 1106.34,-79.95 1119.91,-75.68 1133.45,-72.4"/>
<polygon fill="midnightblue" stroke="midnightblue" points="1134.3,-75.79 1143.28,-70.18 1132.75,-68.97 1134.3,-75.79"/>
</g>
<!-- Node16 -->
<g id="node16" class="node">
<title>Node16</title>
<g id="a_node16"><a xlink:href="../../d8/d5a/class_i_l_i9341__t3___e_r_i_s_a2bfdbf675a570c74b787fd222185f25f.html#a2bfdbf675a570c74b787fd222185f25f" target="_top" xlink:title=" ">
<polygon fill="none" stroke="black" points="1116.5,-0.5 1116.5,-28.5 1325.5,-28.5 1325.5,-0.5 1116.5,-0.5"/>
<text text-anchor="middle" x="1221" y="-10.1" font-family="Helvetica,sans-Serif" font-size="18.00">ILI9341_t3_ERIS::setSD</text>
</a>
</g>
</g>
<!-- Node5&#45;&gt;Node16 -->
<g id="edge15" class="edge">
<title>Node5&#45;&gt;Node16</title>
<path fill="none" stroke="midnightblue" d="M951.04,-188.28C971.33,-155.84 1025.88,-76.3 1094,-38.5 1098.16,-36.19 1102.51,-34.1 1106.98,-32.21"/>
<polygon fill="midnightblue" stroke="midnightblue" points="1108.24,-35.47 1116.3,-28.59 1105.72,-28.94 1108.24,-35.47"/>
</g>
<!-- Node9 -->
<g id="node9" class="node">
<title>Node9</title>
<g id="a_node9"><a xlink:href="../../dc/d43/class_svc_data_dictionary_a7c7bd48b97fbcf18ef64337e12022619.html#a7c7bd48b97fbcf18ef64337e12022619" target="_top" xlink:title=" ">
<polygon fill="none" stroke="black" points="1384,-305.5 1384,-333.5 1626,-333.5 1626,-305.5 1384,-305.5"/>
<text text-anchor="middle" x="1505" y="-315.1" font-family="Helvetica,sans-Serif" font-size="18.00">SvcDataDictionary::copyKey</text>
</a>
</g>
</g>
<!-- Node8&#45;&gt;Node9 -->
<g id="edge8" class="edge">
<title>Node8&#45;&gt;Node9</title>
<path fill="none" stroke="midnightblue" d="M1332.64,-305.52C1346.18,-306.63 1360.1,-307.76 1373.89,-308.89"/>
<polygon fill="midnightblue" stroke="midnightblue" points="1373.65,-312.38 1383.9,-309.7 1374.21,-305.4 1373.65,-312.38"/>
</g>
<!-- Node10 -->
<g id="node10" class="node">
<title>Node10</title>
<g id="a_node10"><a xlink:href="../../dc/d43/class_svc_data_dictionary_ae2f81369b9db1eb6558036740fb1986c.html#ae2f81369b9db1eb6558036740fb1986c" target="_top" xlink:title="hashing function used to accelerate searches">
<polygon fill="none" stroke="black" points="1398.5,-258.5 1398.5,-286.5 1611.5,-286.5 1611.5,-258.5 1398.5,-258.5"/>
<text text-anchor="middle" x="1505" y="-268.1" font-family="Helvetica,sans-Serif" font-size="18.00">SvcDataDictionary::hash</text>
</a>
</g>
</g>
<!-- Node8&#45;&gt;Node10 -->
<g id="edge9" class="edge">
<title>Node8&#45;&gt;Node10</title>
<path fill="none" stroke="midnightblue" d="M1332.64,-287.08C1350.87,-285.53 1369.81,-283.92 1388.16,-282.36"/>
<polygon fill="midnightblue" stroke="midnightblue" points="1388.62,-285.83 1398.29,-281.5 1388.02,-278.86 1388.62,-285.83"/>
</g>
<!-- Node18&#45;&gt;Node3 -->
<g id="edge18" class="edge">
<title>Node18&#45;&gt;Node3</title>
<path fill="none" stroke="midnightblue" d="M478.33,-249.5C486.62,-249.5 495.01,-249.5 503.38,-249.5"/>
<polygon fill="midnightblue" stroke="midnightblue" points="503.57,-253 513.57,-249.5 503.57,-246 503.57,-253"/>
</g>
<!-- Node18&#45;&gt;Node4 -->
<g id="edge19" class="edge">
<title>Node18&#45;&gt;Node4</title>
<path fill="none" stroke="midnightblue" d="M438.7,-235.46C473.89,-229.99 514.37,-223.69 550.45,-218.07"/>
<polygon fill="midnightblue" stroke="midnightblue" points="551.16,-221.5 560.5,-216.51 550.08,-214.59 551.16,-221.5"/>
</g>
<!-- Node19 -->
<g id="node19" class="node">
<title>Node19</title>
<g id="a_node19"><a xlink:href="../../da/d96/class_app_manager_a82ecc96146ee297d433f34a57ed14130.html#a82ecc96146ee297d433f34a57ed14130" target="_top" xlink:title="provides an interface for apps to request pop up focus with or without exclusive screen access">
<polygon fill="none" stroke="black" points="528.5,-282.5 528.5,-310.5 774.5,-310.5 774.5,-282.5 528.5,-282.5"/>
<text text-anchor="middle" x="651.5" y="-292.1" font-family="Helvetica,sans-Serif" font-size="18.00">AppManager::requestPopUp</text>
</a>
</g>
</g>
<!-- Node18&#45;&gt;Node19 -->
<g id="edge20" class="edge">
<title>Node18&#45;&gt;Node19</title>
<path fill="none" stroke="midnightblue" d="M438.7,-263.54C473.89,-269.01 514.37,-275.31 550.45,-280.93"/>
<polygon fill="midnightblue" stroke="midnightblue" points="550.08,-284.41 560.5,-282.49 551.16,-277.5 550.08,-284.41"/>
</g>
</g>
</svg>
        <g id="navigator" transform="translate(0 0)" fill="#404254">
                <rect fill="#f2f5e9" fill-opacity="0.5" stroke="#606060" stroke-width=".5" x="0" y="0" width="60" height="60"/>
                <use id="zoomplus" xlink:href="#zoomPlus" x="17" y="9" onmousedown="handleZoom(evt,'in')"/>
                <use id="zoomminus" xlink:href="#zoomMin" x="42" y="9" onmousedown="handleZoom(evt,'out')"/>
                <use id="reset" xlink:href="#resetDef" x="30" y="36" onmousedown="handleReset()"/>
                <g id="arrowUp" xlink:href="#dirArrow" transform="translate(30 24)" onmousedown="handlePan(0,-1)">
                  <use xlink:href="#rim" fill="#404040">
                        <set attributeName="fill" to="#808080" begin="arrowUp.mouseover" end="arrowUp.mouseout"/>
                  </use>
                  <path fill="none" stroke="white" stroke-width="1.5" d="M0,-3.0v7 M-2.5,-0.5L0,-3.0L2.5,-0.5"/>
                </g>
                <g id="arrowRight" xlink:href="#dirArrow" transform="rotate(90) translate(36 -43)" onmousedown="handlePan(1,0)">
                  <use xlink:href="#rim" fill="#404040">
                        <set attributeName="fill" to="#808080" begin="arrowRight.mouseover" end="arrowRight.mouseout"/>
                  </use>
                  <path fill="none" stroke="white" stroke-width="1.5" d="M0,-3.0v7 M-2.5,-0.5L0,-3.0L2.5,-0.5"/>
                </g>
                <g id="arrowDown" xlink:href="#dirArrow" transform="rotate(180) translate(-30 -48)" onmousedown="handlePan(0,1)">
                  <use xlink:href="#rim" fill="#404040">
                        <set attributeName="fill" to="#808080" begin="arrowDown.mouseover" end="arrowDown.mouseout"/>
                  </use>
                  <path fill="none" stroke="white" stroke-width="1.5" d="M0,-3.0v7 M-2.5,-0.5L0,-3.0L2.5,-0.5"/>
                </g>
                <g id="arrowLeft" xlink:href="#dirArrow" transform="rotate(270) translate(-36 17)" onmousedown="handlePan(-1,0)">
                  <use xlink:href="#rim" fill="#404040">
                        <set attributeName="fill" to="#808080" begin="arrowLeft.mouseover" end="arrowLeft.mouseout"/>
                  </use>
                  <path fill="none" stroke="white" stroke-width="1.5" d="M0,-3.0v7 M-2.5,-0.5L0,-3.0L2.5,-0.5"/>
                </g>
        </g>
        <svg viewBox="0 0 15 15" width="100%" height="30px" preserveAspectRatio="xMaxYMin meet">
         <g id="arrow_out" transform="scale(0.3 0.3)">
          <a xlink:href="class_app_scope_a1a6df5195027c5a65e0f23219eea64ab_a1a6df5195027c5a65e0f23219eea64ab_cgraph_org.svg" target="_base">
           <rect id="button" ry="5" rx="5" y="6" x="6" height="38" width="38"
                fill="#f2f5e9" fill-opacity="0.5" stroke="#606060" stroke-width="1.0"/>
           <path id="arrow"
             d="M 11.500037,31.436501 C 11.940474,20.09759 22.043105,11.32322 32.158766,21.979434 L 37.068811,17.246167 C 37.068811,17.246167 37.088388,32 37.088388,32 L 22.160133,31.978069 C 22.160133,31.978069 26.997745,27.140456 26.997745,27.140456 C 18.528582,18.264221 13.291696,25.230495 11.500037,31.436501 z"
             style="fill:#404040;"/>
          </a>
         </g>
        </svg>
</svg>
