<?xml version="1.0" encoding="UTF-8" standalone="no"?>
<!DOCTYPE svg PUBLIC "-//W3C//DTD SVG 1.1//EN"
 "http://www.w3.org/Graphics/SVG/1.1/DTD/svg11.dtd">
<!-- Generated by graphviz version 2.47.3 (20210619.1520)
 -->
<!-- Title: FatLib.h Pages: 1 -->
<!--zoomable 494 -->
<svg id="main" version="1.1" xmlns="http://www.w3.org/2000/svg" xmlns:xlink="http://www.w3.org/1999/xlink" xml:space="preserve" onload="init(evt)">
<style type="text/css"><![CDATA[
.edge:hover path { stroke: red; }
.edge:hover polygon { stroke: red; fill: red; }
]]></style>
<script type="text/javascript"><![CDATA[
var edges = document.getElementsByTagName('g');
if (edges && edges.length) {
  for (var i=0;i<edges.length;i++) {
    if (edges[i].id.substr(0,4)=='edge') {
      edges[i].setAttribute('class','edge');
    }
  }
}
]]></script>
        <defs>
                <circle id="rim" cx="0" cy="0" r="7"/>
                <circle id="rim2" cx="0" cy="0" r="3.5"/>
                <g id="zoomPlus">
                        <use xlink:href="#rim" fill="#404040">
                                <set attributeName="fill" to="#808080" begin="zoomplus.mouseover" end="zoomplus.mouseout"/>
                        </use>
                        <path d="M-4,0h8M0,-4v8" fill="none" stroke="white" stroke-width="1.5" pointer-events="none"/>
                </g>
                <g id="zoomMin">
                        <use xlink:href="#rim" fill="#404040">
                                <set attributeName="fill" to="#808080" begin="zoomminus.mouseover" end="zoomminus.mouseout"/>
                        </use>
                        <path d="M-4,0h8" fill="none" stroke="white" stroke-width="1.5" pointer-events="none"/>
                </g>
                <g id="dirArrow">
                        <path fill="none" stroke="white" stroke-width="1.5" d="M0,-3.0v7 M-2.5,-0.5L0,-3.0L2.5,-0.5"/>
                </g>
               <g id="resetDef">
                       <use xlink:href="#rim2" fill="#404040">
                               <set attributeName="fill" to="#808080" begin="reset.mouseover" end="reset.mouseout"/>
                       </use>
               </g>
        </defs>

<script type="text/javascript">
var viewWidth = 1570;
var viewHeight = 494;
var sectionId = 'dynsection-1';
</script>
<script xlink:href="../../svgpan.js"/>
<svg id="graph" class="graph">
<g id="viewport">
<title>FatLib.h</title>
<polygon fill="white" stroke="transparent" points="-4,4 -4,-490 1566,-490 1566,4 -4,4"/>
<!-- Node1 -->
<g id="node1" class="node">
<title>Node1</title>
<g id="a_node1"><a xlink:title=" ">
<polygon fill="#bfbfbf" stroke="black" points="642.5,-464.5 642.5,-485.5 701.5,-485.5 701.5,-464.5 642.5,-464.5"/>
<text text-anchor="middle" x="672" y="-471.9" font-family="Helvetica,sans-Serif" font-size="12.00">FatLib.h</text>
</a>
</g>
</g>
<!-- Node2 -->
<g id="node2" class="node">
<title>Node2</title>
<g id="a_node2"><a xlink:href="../../dc/d9e/_fat_name_8cpp.html" target="_top" xlink:title=" ">
<polygon fill="white" stroke="black" points="0,-406.5 0,-427.5 88,-427.5 88,-406.5 0,-406.5"/>
<text text-anchor="middle" x="44" y="-413.9" font-family="Helvetica,sans-Serif" font-size="12.00">FatName.cpp</text>
</a>
</g>
</g>
<!-- Node1&#45;&gt;Node2 -->
<g id="edge1" class="edge">
<title>Node1&#45;&gt;Node2</title>
<path fill="none" stroke="midnightblue" d="M632.09,-472.27C538.36,-467.9 296.99,-454.79 97,-428 94.12,-427.61 91.17,-427.18 88.19,-426.7"/>
<polygon fill="midnightblue" stroke="midnightblue" points="632.11,-475.78 642.26,-472.74 632.43,-468.79 632.11,-475.78"/>
</g>
<!-- Node3 -->
<g id="node3" class="node">
<title>Node3</title>
<g id="a_node3"><a xlink:href="../../d5/d96/_fat_dbg_8cpp.html" target="_top" xlink:title=" ">
<polygon fill="white" stroke="black" points="106.5,-406.5 106.5,-427.5 185.5,-427.5 185.5,-406.5 106.5,-406.5"/>
<text text-anchor="middle" x="146" y="-413.9" font-family="Helvetica,sans-Serif" font-size="12.00">FatDbg.cpp</text>
</a>
</g>
</g>
<!-- Node1&#45;&gt;Node3 -->
<g id="edge2" class="edge">
<title>Node1&#45;&gt;Node3</title>
<path fill="none" stroke="midnightblue" d="M632.14,-471.58C550.03,-466.28 356.19,-452.15 195,-428 191.91,-427.54 188.72,-427.01 185.52,-426.44"/>
<polygon fill="midnightblue" stroke="midnightblue" points="632.08,-475.08 642.28,-472.23 632.53,-468.1 632.08,-475.08"/>
</g>
<!-- Node4 -->
<g id="node4" class="node">
<title>Node4</title>
<g id="a_node4"><a xlink:href="../../dc/dd7/_fat_file_s_f_n_8cpp.html" target="_top" xlink:title=" ">
<polygon fill="white" stroke="black" points="204,-406.5 204,-427.5 304,-427.5 304,-406.5 204,-406.5"/>
<text text-anchor="middle" x="254" y="-413.9" font-family="Helvetica,sans-Serif" font-size="12.00">FatFileSFN.cpp</text>
</a>
</g>
</g>
<!-- Node1&#45;&gt;Node4 -->
<g id="edge3" class="edge">
<title>Node1&#45;&gt;Node4</title>
<path fill="none" stroke="midnightblue" d="M632.13,-469.43C565.8,-461.7 428.63,-445.2 313,-428 310.12,-427.57 307.17,-427.12 304.19,-426.65"/>
<polygon fill="midnightblue" stroke="midnightblue" points="631.82,-472.91 642.16,-470.59 632.63,-465.96 631.82,-472.91"/>
</g>
<!-- Node5 -->
<g id="node5" class="node">
<title>Node5</title>
<g id="a_node5"><a xlink:href="../../db/d91/_fat_file_print_8cpp.html" target="_top" xlink:title=" ">
<polygon fill="white" stroke="black" points="322,-406.5 322,-427.5 422,-427.5 422,-406.5 322,-406.5"/>
<text text-anchor="middle" x="372" y="-413.9" font-family="Helvetica,sans-Serif" font-size="12.00">FatFilePrint.cpp</text>
</a>
</g>
</g>
<!-- Node1&#45;&gt;Node5 -->
<g id="edge4" class="edge">
<title>Node1&#45;&gt;Node5</title>
<path fill="none" stroke="midnightblue" d="M632.52,-466.63C578.44,-456.54 481.33,-438.41 422.17,-427.36"/>
<polygon fill="midnightblue" stroke="midnightblue" points="631.94,-470.08 642.41,-468.48 633.23,-463.2 631.94,-470.08"/>
</g>
<!-- Node6 -->
<g id="node6" class="node">
<title>Node6</title>
<g id="a_node6"><a xlink:href="../../d5/d8b/_fat_partition_8cpp.html" target="_top" xlink:title=" ">
<polygon fill="white" stroke="black" points="440,-406.5 440,-427.5 540,-427.5 540,-406.5 440,-406.5"/>
<text text-anchor="middle" x="490" y="-413.9" font-family="Helvetica,sans-Serif" font-size="12.00">FatPartition.cpp</text>
</a>
</g>
</g>
<!-- Node1&#45;&gt;Node6 -->
<g id="edge5" class="edge">
<title>Node1&#45;&gt;Node6</title>
<path fill="none" stroke="midnightblue" d="M632.47,-461.84C599.08,-451.56 551.92,-437.05 521.16,-427.59"/>
<polygon fill="midnightblue" stroke="midnightblue" points="631.77,-465.28 642.35,-464.88 633.83,-458.59 631.77,-465.28"/>
</g>
<!-- Node7 -->
<g id="node7" class="node">
<title>Node7</title>
<g id="a_node7"><a xlink:href="../../db/dc9/_fat_formatter_8cpp.html" target="_top" xlink:title=" ">
<polygon fill="white" stroke="black" points="558.5,-406.5 558.5,-427.5 665.5,-427.5 665.5,-406.5 558.5,-406.5"/>
<text text-anchor="middle" x="612" y="-413.9" font-family="Helvetica,sans-Serif" font-size="12.00">FatFormatter.cpp</text>
</a>
</g>
</g>
<!-- Node1&#45;&gt;Node7 -->
<g id="edge6" class="edge">
<title>Node1&#45;&gt;Node7</title>
<path fill="none" stroke="midnightblue" d="M654.17,-457.36C643.79,-447.67 631.07,-435.8 622.33,-427.64"/>
<polygon fill="midnightblue" stroke="midnightblue" points="651.85,-459.98 661.55,-464.25 656.63,-454.86 651.85,-459.98"/>
</g>
<!-- Node8 -->
<g id="node8" class="node">
<title>Node8</title>
<g id="a_node8"><a xlink:href="../../d6/d63/_fat_file_l_f_n_8cpp.html" target="_top" xlink:title=" ">
<polygon fill="white" stroke="black" points="684,-406.5 684,-427.5 782,-427.5 782,-406.5 684,-406.5"/>
<text text-anchor="middle" x="733" y="-413.9" font-family="Helvetica,sans-Serif" font-size="12.00">FatFileLFN.cpp</text>
</a>
</g>
</g>
<!-- Node1&#45;&gt;Node8 -->
<g id="edge7" class="edge">
<title>Node1&#45;&gt;Node8</title>
<path fill="none" stroke="midnightblue" d="M690.12,-457.36C700.68,-447.67 713.61,-435.8 722.5,-427.64"/>
<polygon fill="midnightblue" stroke="midnightblue" points="687.62,-454.9 682.63,-464.25 692.36,-460.06 687.62,-454.9"/>
</g>
<!-- Node9 -->
<g id="node9" class="node">
<title>Node9</title>
<g id="a_node9"><a xlink:href="../../d2/dcc/_fat_file_8cpp.html" target="_top" xlink:title=" ">
<polygon fill="white" stroke="black" points="800,-406.5 800,-427.5 876,-427.5 876,-406.5 800,-406.5"/>
<text text-anchor="middle" x="838" y="-413.9" font-family="Helvetica,sans-Serif" font-size="12.00">FatFile.cpp</text>
</a>
</g>
</g>
<!-- Node1&#45;&gt;Node9 -->
<g id="edge8" class="edge">
<title>Node1&#45;&gt;Node9</title>
<path fill="none" stroke="midnightblue" d="M710.37,-461.06C740.75,-450.81 782.48,-436.73 809.84,-427.5"/>
<polygon fill="midnightblue" stroke="midnightblue" points="708.89,-457.86 700.54,-464.37 711.13,-464.49 708.89,-457.86"/>
</g>
<!-- Node10 -->
<g id="node10" class="node">
<title>Node10</title>
<g id="a_node10"><a xlink:href="../../dd/df4/_fat_volume_8cpp.html" target="_top" xlink:title=" ">
<polygon fill="white" stroke="black" points="894,-406.5 894,-427.5 990,-427.5 990,-406.5 894,-406.5"/>
<text text-anchor="middle" x="942" y="-413.9" font-family="Helvetica,sans-Serif" font-size="12.00">FatVolume.cpp</text>
</a>
</g>
</g>
<!-- Node1&#45;&gt;Node10 -->
<g id="edge9" class="edge">
<title>Node1&#45;&gt;Node10</title>
<path fill="none" stroke="midnightblue" d="M711.6,-465.79C760.7,-455.6 844.23,-438.28 896.09,-427.52"/>
<polygon fill="midnightblue" stroke="midnightblue" points="710.75,-462.39 701.67,-467.85 712.17,-469.24 710.75,-462.39"/>
</g>
<!-- Node11 -->
<g id="node11" class="node">
<title>Node11</title>
<g id="a_node11"><a xlink:href="../../d3/ddb/_fs_file_8h.html" target="_top" xlink:title="FsBaseFile include file.">
<polygon fill="white" stroke="black" points="1008.5,-406.5 1008.5,-427.5 1067.5,-427.5 1067.5,-406.5 1008.5,-406.5"/>
<text text-anchor="middle" x="1038" y="-413.9" font-family="Helvetica,sans-Serif" font-size="12.00">FsFile.h</text>
</a>
</g>
</g>
<!-- Node1&#45;&gt;Node11 -->
<g id="edge10" class="edge">
<title>Node1&#45;&gt;Node11</title>
<path fill="none" stroke="midnightblue" d="M712.06,-469.82C773.95,-463.03 896.39,-448.31 999,-428 1002.02,-427.4 1005.15,-426.72 1008.27,-425.99"/>
<polygon fill="midnightblue" stroke="midnightblue" points="711.51,-466.36 701.94,-470.92 712.26,-473.32 711.51,-466.36"/>
</g>
<!-- Node28 -->
<g id="node26" class="node">
<title>Node28</title>
<g id="a_node26"><a xlink:href="../../d5/ddc/_sd_fat_8h.html" target="_top" xlink:title="main SdFs include file.">
<polygon fill="white" stroke="black" points="1206,-290.5 1206,-311.5 1264,-311.5 1264,-290.5 1206,-290.5"/>
<text text-anchor="middle" x="1235" y="-297.9" font-family="Helvetica,sans-Serif" font-size="12.00">SdFat.h</text>
</a>
</g>
</g>
<!-- Node1&#45;&gt;Node28 -->
<g id="edge45" class="edge">
<title>Node1&#45;&gt;Node28</title>
<path fill="none" stroke="midnightblue" d="M711.95,-472.58C824.14,-468.29 1136.32,-454.09 1174,-428 1214.96,-399.64 1229.44,-335.9 1233.58,-311.63"/>
<polygon fill="midnightblue" stroke="midnightblue" points="711.6,-469.09 701.74,-472.97 711.86,-476.09 711.6,-469.09"/>
</g>
<!-- Node51 -->
<g id="node35" class="node">
<title>Node51</title>
<g id="a_node35"><a xlink:href="../../db/d47/_fs_volume_8h.html" target="_top" xlink:title="FsVolume include file.">
<polygon fill="white" stroke="black" points="1085.5,-406.5 1085.5,-427.5 1164.5,-427.5 1164.5,-406.5 1085.5,-406.5"/>
<text text-anchor="middle" x="1125" y="-413.9" font-family="Helvetica,sans-Serif" font-size="12.00">FsVolume.h</text>
</a>
</g>
</g>
<!-- Node1&#45;&gt;Node51 -->
<g id="edge43" class="edge">
<title>Node1&#45;&gt;Node51</title>
<path fill="none" stroke="midnightblue" d="M711.58,-470.66C784.11,-464.28 943.1,-449.09 1076,-428 1079.09,-427.51 1082.27,-426.96 1085.47,-426.38"/>
<polygon fill="midnightblue" stroke="midnightblue" points="711.18,-467.18 701.52,-471.54 711.79,-474.15 711.18,-467.18"/>
</g>
<!-- Node12 -->
<g id="node12" class="node">
<title>Node12</title>
<g id="a_node12"><a xlink:href="../../d3/d27/_fs_lib_8h.html" target="_top" xlink:title="FsLib include file.">
<polygon fill="white" stroke="black" points="1010,-348.5 1010,-369.5 1066,-369.5 1066,-348.5 1010,-348.5"/>
<text text-anchor="middle" x="1038" y="-355.9" font-family="Helvetica,sans-Serif" font-size="12.00">FsLib.h</text>
</a>
</g>
</g>
<!-- Node11&#45;&gt;Node12 -->
<g id="edge11" class="edge">
<title>Node11&#45;&gt;Node12</title>
<path fill="none" stroke="midnightblue" d="M1038,-396.16C1038,-387.16 1038,-376.92 1038,-369.64"/>
<polygon fill="midnightblue" stroke="midnightblue" points="1034.5,-396.25 1038,-406.25 1041.5,-396.25 1034.5,-396.25"/>
</g>
<!-- Node13 -->
<g id="node13" class="node">
<title>Node13</title>
<g id="a_node13"><a xlink:href="../../d5/d63/_fs_file_8cpp.html" target="_top" xlink:title=" ">
<polygon fill="white" stroke="black" points="817,-290.5 817,-311.5 889,-311.5 889,-290.5 817,-290.5"/>
<text text-anchor="middle" x="853" y="-297.9" font-family="Helvetica,sans-Serif" font-size="12.00">FsFile.cpp</text>
</a>
</g>
</g>
<!-- Node12&#45;&gt;Node13 -->
<g id="edge12" class="edge">
<title>Node12&#45;&gt;Node13</title>
<path fill="none" stroke="midnightblue" d="M1000.28,-346.58C966.16,-336.26 916.5,-321.22 884.46,-311.52"/>
<polygon fill="midnightblue" stroke="midnightblue" points="999.32,-349.95 1009.9,-349.49 1001.35,-343.25 999.32,-349.95"/>
</g>
<!-- Node14 -->
<g id="node14" class="node">
<title>Node14</title>
<g id="a_node14"><a xlink:href="../../d8/dea/_fs_volume_8cpp.html" target="_top" xlink:title=" ">
<polygon fill="white" stroke="black" points="907,-290.5 907,-311.5 999,-311.5 999,-290.5 907,-290.5"/>
<text text-anchor="middle" x="953" y="-297.9" font-family="Helvetica,sans-Serif" font-size="12.00">FsVolume.cpp</text>
</a>
</g>
</g>
<!-- Node12&#45;&gt;Node14 -->
<g id="edge13" class="edge">
<title>Node12&#45;&gt;Node14</title>
<path fill="none" stroke="midnightblue" d="M1014.46,-342.49C999.46,-332.61 980.5,-320.12 967.64,-311.64"/>
<polygon fill="midnightblue" stroke="midnightblue" points="1012.92,-345.67 1023.19,-348.25 1016.77,-339.82 1012.92,-345.67"/>
</g>
<!-- Node15 -->
<g id="node15" class="node">
<title>Node15</title>
<g id="a_node15"><a xlink:href="../../df/dd5/ios_8h.html" target="_top" xlink:title="ios_base and ios classes">
<polygon fill="white" stroke="black" points="1017.5,-290.5 1017.5,-311.5 1058.5,-311.5 1058.5,-290.5 1017.5,-290.5"/>
<text text-anchor="middle" x="1038" y="-297.9" font-family="Helvetica,sans-Serif" font-size="12.00">ios.h</text>
</a>
</g>
</g>
<!-- Node12&#45;&gt;Node15 -->
<g id="edge14" class="edge">
<title>Node12&#45;&gt;Node15</title>
<path fill="none" stroke="midnightblue" d="M1038,-338.16C1038,-329.16 1038,-318.92 1038,-311.64"/>
<polygon fill="midnightblue" stroke="midnightblue" points="1034.5,-338.25 1038,-348.25 1041.5,-338.25 1034.5,-338.25"/>
</g>
<!-- Node12&#45;&gt;Node28 -->
<g id="edge27" class="edge">
<title>Node12&#45;&gt;Node28</title>
<path fill="none" stroke="midnightblue" d="M1075.89,-347.23C1113.82,-336.45 1171.37,-320.09 1205.86,-310.28"/>
<polygon fill="midnightblue" stroke="midnightblue" points="1074.89,-343.88 1066.23,-349.98 1076.8,-350.61 1074.89,-343.88"/>
</g>
<!-- Node16 -->
<g id="node16" class="node">
<title>Node16</title>
<g id="a_node16"><a xlink:href="../../db/dc9/istream_8h.html" target="_top" xlink:title="istream class">
<polygon fill="white" stroke="black" points="798.5,-232.5 798.5,-253.5 863.5,-253.5 863.5,-232.5 798.5,-232.5"/>
<text text-anchor="middle" x="831" y="-239.9" font-family="Helvetica,sans-Serif" font-size="12.00">istream.h</text>
</a>
</g>
</g>
<!-- Node15&#45;&gt;Node16 -->
<g id="edge15" class="edge">
<title>Node15&#45;&gt;Node16</title>
<path fill="none" stroke="midnightblue" d="M1007.68,-290.05C951.73,-273.62 897.52,-260.02 863.8,-251.82"/>
<polygon fill="midnightblue" stroke="midnightblue" points="1006.82,-293.45 1017.4,-292.93 1008.81,-286.73 1006.82,-293.45"/>
</g>
<!-- Node24 -->
<g id="node22" class="node">
<title>Node24</title>
<g id="a_node22"><a xlink:href="../../da/d2d/_stdio_stream_8h.html" target="_top" xlink:title="StdioStream class.">
<polygon fill="white" stroke="black" points="992,-232.5 992,-253.5 1084,-253.5 1084,-232.5 992,-232.5"/>
<text text-anchor="middle" x="1038" y="-239.9" font-family="Helvetica,sans-Serif" font-size="12.00">StdioStream.h</text>
</a>
</g>
</g>
<!-- Node15&#45;&gt;Node24 -->
<g id="edge21" class="edge">
<title>Node15&#45;&gt;Node24</title>
<path fill="none" stroke="midnightblue" d="M1038,-280.16C1038,-271.16 1038,-260.92 1038,-253.64"/>
<polygon fill="midnightblue" stroke="midnightblue" points="1034.5,-280.25 1038,-290.25 1041.5,-280.25 1034.5,-280.25"/>
</g>
<!-- Node26 -->
<g id="node24" class="node">
<title>Node26</title>
<g id="a_node24"><a xlink:href="../../dc/d64/ostream_8h.html" target="_top" xlink:title="ostream class">
<polygon fill="white" stroke="black" points="892,-232.5 892,-253.5 960,-253.5 960,-232.5 892,-232.5"/>
<text text-anchor="middle" x="926" y="-239.9" font-family="Helvetica,sans-Serif" font-size="12.00">ostream.h</text>
</a>
</g>
</g>
<!-- Node15&#45;&gt;Node26 -->
<g id="edge24" class="edge">
<title>Node15&#45;&gt;Node26</title>
<path fill="none" stroke="midnightblue" d="M1009.67,-285.84C989.43,-275.71 962.74,-262.37 945,-253.5"/>
<polygon fill="midnightblue" stroke="midnightblue" points="1008.24,-289.03 1018.75,-290.37 1011.37,-282.77 1008.24,-289.03"/>
</g>
<!-- Node17 -->
<g id="node17" class="node">
<title>Node17</title>
<g id="a_node17"><a xlink:href="../../d7/d52/istream_8cpp.html" target="_top" xlink:title=" ">
<polygon fill="white" stroke="black" points="699,-174.5 699,-195.5 777,-195.5 777,-174.5 699,-174.5"/>
<text text-anchor="middle" x="738" y="-181.9" font-family="Helvetica,sans-Serif" font-size="12.00">istream.cpp</text>
</a>
</g>
</g>
<!-- Node16&#45;&gt;Node17 -->
<g id="edge16" class="edge">
<title>Node16&#45;&gt;Node17</title>
<path fill="none" stroke="midnightblue" d="M806.17,-227.05C789.62,-217.08 768.36,-204.28 754.01,-195.64"/>
<polygon fill="midnightblue" stroke="midnightblue" points="804.43,-230.09 814.8,-232.25 808.04,-224.09 804.43,-230.09"/>
</g>
<!-- Node18 -->
<g id="node18" class="node">
<title>Node18</title>
<g id="a_node18"><a xlink:href="../../dd/d27/iostream_8h.html" target="_top" xlink:title="iostream class">
<polygon fill="white" stroke="black" points="795.5,-174.5 795.5,-195.5 866.5,-195.5 866.5,-174.5 795.5,-174.5"/>
<text text-anchor="middle" x="831" y="-181.9" font-family="Helvetica,sans-Serif" font-size="12.00">iostream.h</text>
</a>
</g>
</g>
<!-- Node16&#45;&gt;Node18 -->
<g id="edge17" class="edge">
<title>Node16&#45;&gt;Node18</title>
<path fill="none" stroke="midnightblue" d="M831,-222.16C831,-213.16 831,-202.92 831,-195.64"/>
<polygon fill="midnightblue" stroke="midnightblue" points="827.5,-222.25 831,-232.25 834.5,-222.25 827.5,-222.25"/>
</g>
<!-- Node19 -->
<g id="node19" class="node">
<title>Node19</title>
<g id="a_node19"><a xlink:href="../../d0/df5/bufstream_8h.html" target="_top" xlink:title="ibufstream and obufstream classes">
<polygon fill="white" stroke="red" points="881.5,-116.5 881.5,-137.5 958.5,-137.5 958.5,-116.5 881.5,-116.5"/>
<text text-anchor="middle" x="920" y="-123.9" font-family="Helvetica,sans-Serif" font-size="12.00">bufstream.h</text>
</a>
</g>
</g>
<!-- Node18&#45;&gt;Node19 -->
<g id="edge18" class="edge">
<title>Node18&#45;&gt;Node19</title>
<path fill="none" stroke="midnightblue" d="M855.21,-168.77C870.98,-158.85 891.08,-146.2 904.68,-137.64"/>
<polygon fill="midnightblue" stroke="midnightblue" points="853.1,-165.96 846.5,-174.25 856.83,-171.88 853.1,-165.96"/>
</g>
<!-- Node22 -->
<g id="node20" class="node">
<title>Node22</title>
<g id="a_node20"><a xlink:href="../../de/d25/fstream_8h.html" target="_top" xlink:title="iostreams for files.">
<polygon fill="white" stroke="red" points="798.5,-116.5 798.5,-137.5 863.5,-137.5 863.5,-116.5 798.5,-116.5"/>
<text text-anchor="middle" x="831" y="-123.9" font-family="Helvetica,sans-Serif" font-size="12.00">fstream.h</text>
</a>
</g>
</g>
<!-- Node18&#45;&gt;Node22 -->
<g id="edge19" class="edge">
<title>Node18&#45;&gt;Node22</title>
<path fill="none" stroke="midnightblue" d="M831,-164.16C831,-155.16 831,-144.92 831,-137.64"/>
<polygon fill="midnightblue" stroke="midnightblue" points="827.5,-164.25 831,-174.25 834.5,-164.25 827.5,-164.25"/>
</g>
<!-- Node21 -->
<g id="node21" class="node">
<title>Node21</title>
<g id="a_node21"><a xlink:href="../../d8/d12/sdios_8h.html" target="_top" xlink:title="C++ IO Streams features.">
<polygon fill="white" stroke="black" points="940,-58.5 940,-79.5 994,-79.5 994,-58.5 940,-58.5"/>
<text text-anchor="middle" x="967" y="-65.9" font-family="Helvetica,sans-Serif" font-size="12.00">sdios.h</text>
</a>
</g>
</g>
<!-- Node22&#45;&gt;Node21 -->
<g id="edge20" class="edge">
<title>Node22&#45;&gt;Node21</title>
<path fill="none" stroke="midnightblue" d="M863.74,-112.52C888.51,-102.32 921.91,-88.57 943.93,-79.5"/>
<polygon fill="midnightblue" stroke="midnightblue" points="862.29,-109.33 854.38,-116.37 864.96,-115.8 862.29,-109.33"/>
</g>
<!-- Node24&#45;&gt;Node21 -->
<g id="edge23" class="edge">
<title>Node24&#45;&gt;Node21</title>
<path fill="none" stroke="midnightblue" d="M1067.01,-227.44C1087.79,-214.86 1110.41,-195.36 1100,-174 1076.88,-126.57 1020.52,-94.42 989.09,-79.52"/>
<polygon fill="midnightblue" stroke="midnightblue" points="1065.27,-224.41 1058.32,-232.4 1068.74,-230.49 1065.27,-224.41"/>
</g>
<!-- Node25 -->
<g id="node23" class="node">
<title>Node25</title>
<g id="a_node23"><a xlink:href="../../d5/d98/_stdio_stream_8cpp.html" target="_top" xlink:title=" ">
<polygon fill="white" stroke="black" points="985.5,-174.5 985.5,-195.5 1090.5,-195.5 1090.5,-174.5 985.5,-174.5"/>
<text text-anchor="middle" x="1038" y="-181.9" font-family="Helvetica,sans-Serif" font-size="12.00">StdioStream.cpp</text>
</a>
</g>
</g>
<!-- Node24&#45;&gt;Node25 -->
<g id="edge22" class="edge">
<title>Node24&#45;&gt;Node25</title>
<path fill="none" stroke="midnightblue" d="M1038,-222.16C1038,-213.16 1038,-202.92 1038,-195.64"/>
<polygon fill="midnightblue" stroke="midnightblue" points="1034.5,-222.25 1038,-232.25 1041.5,-222.25 1034.5,-222.25"/>
</g>
<!-- Node26&#45;&gt;Node18 -->
<g id="edge26" class="edge">
<title>Node26&#45;&gt;Node18</title>
<path fill="none" stroke="midnightblue" d="M900.63,-227.05C883.73,-217.08 862.01,-204.28 847.36,-195.64"/>
<polygon fill="midnightblue" stroke="midnightblue" points="899.06,-230.18 909.45,-232.25 902.61,-224.15 899.06,-230.18"/>
</g>
<!-- Node27 -->
<g id="node25" class="node">
<title>Node27</title>
<g id="a_node25"><a xlink:href="../../dd/d66/ostream_8cpp.html" target="_top" xlink:title=" ">
<polygon fill="white" stroke="black" points="885,-174.5 885,-195.5 967,-195.5 967,-174.5 885,-174.5"/>
<text text-anchor="middle" x="926" y="-181.9" font-family="Helvetica,sans-Serif" font-size="12.00">ostream.cpp</text>
</a>
</g>
</g>
<!-- Node26&#45;&gt;Node27 -->
<g id="edge25" class="edge">
<title>Node26&#45;&gt;Node27</title>
<path fill="none" stroke="midnightblue" d="M926,-222.16C926,-213.16 926,-202.92 926,-195.64"/>
<polygon fill="midnightblue" stroke="midnightblue" points="922.5,-222.25 926,-232.25 929.5,-222.25 922.5,-222.25"/>
</g>
<!-- Node29 -->
<g id="node27" class="node">
<title>Node29</title>
<g id="a_node27"><a xlink:href="../../d2/dda/_i_l_i9341__t3___e_r_i_s_8h.html" target="_top" xlink:title=" ">
<polygon fill="white" stroke="black" points="1178,-232.5 1178,-253.5 1292,-253.5 1292,-232.5 1178,-232.5"/>
<text text-anchor="middle" x="1235" y="-239.9" font-family="Helvetica,sans-Serif" font-size="12.00">ILI9341_t3_ERIS.h</text>
</a>
</g>
</g>
<!-- Node28&#45;&gt;Node29 -->
<g id="edge28" class="edge">
<title>Node28&#45;&gt;Node29</title>
<path fill="none" stroke="midnightblue" d="M1235,-280.16C1235,-271.16 1235,-260.92 1235,-253.64"/>
<polygon fill="midnightblue" stroke="midnightblue" points="1231.5,-280.25 1235,-290.25 1238.5,-280.25 1231.5,-280.25"/>
</g>
<!-- Node34 -->
<g id="node32" class="node">
<title>Node34</title>
<g id="a_node32"><a xlink:href="../../db/db5/svc_serial_command_interface_8h.html" target="_top" xlink:title=" ">
<polygon fill="white" stroke="red" points="1360.5,-58.5 1360.5,-79.5 1533.5,-79.5 1533.5,-58.5 1360.5,-58.5"/>
<text text-anchor="middle" x="1447" y="-65.9" font-family="Helvetica,sans-Serif" font-size="12.00">svcSerialCommandInterface.h</text>
</a>
</g>
</g>
<!-- Node28&#45;&gt;Node34 -->
<g id="edge42" class="edge">
<title>Node28&#45;&gt;Node34</title>
<path fill="none" stroke="midnightblue" d="M1274.28,-296.65C1331.73,-289.4 1436.94,-266.66 1484,-196 1509.4,-157.86 1472.11,-101.94 1454.91,-79.67"/>
<polygon fill="midnightblue" stroke="midnightblue" points="1273.66,-293.2 1264.13,-297.83 1274.47,-300.15 1273.66,-293.2"/>
</g>
<!-- Node35 -->
<g id="node33" class="node">
<title>Node35</title>
<g id="a_node33"><a xlink:href="../../d6/dd8/_eris_core_8cpp.html" target="_top" xlink:title=" ">
<polygon fill="white" stroke="black" points="1461,-0.5 1461,-21.5 1547,-21.5 1547,-0.5 1461,-0.5"/>
<text text-anchor="middle" x="1504" y="-7.9" font-family="Helvetica,sans-Serif" font-size="12.00">ErisCore.cpp</text>
</a>
</g>
</g>
<!-- Node28&#45;&gt;Node35 -->
<g id="edge41" class="edge">
<title>Node28&#45;&gt;Node35</title>
<path fill="none" stroke="midnightblue" d="M1274.01,-294.81C1360.74,-282.18 1562,-246.37 1562,-186 1562,-186 1562,-186 1562,-126 1562,-94.62 1557.71,-85.72 1543,-58 1535.54,-43.94 1523.19,-30.36 1514.39,-21.65"/>
<polygon fill="midnightblue" stroke="midnightblue" points="1273.42,-291.36 1264.02,-296.24 1274.41,-298.29 1273.42,-291.36"/>
</g>
<!-- Node30 -->
<g id="node28" class="node">
<title>Node30</title>
<g id="a_node28"><a xlink:href="../../dc/d40/_app_manager_8cpp.html" target="_top" xlink:title=" ">
<polygon fill="white" stroke="black" points="1141.5,-0.5 1141.5,-21.5 1248.5,-21.5 1248.5,-0.5 1141.5,-0.5"/>
<text text-anchor="middle" x="1195" y="-7.9" font-family="Helvetica,sans-Serif" font-size="12.00">AppManager.cpp</text>
</a>
</g>
</g>
<!-- Node29&#45;&gt;Node30 -->
<g id="edge29" class="edge">
<title>Node29&#45;&gt;Node30</title>
<path fill="none" stroke="midnightblue" d="M1221.19,-224.39C1206.66,-204.65 1184.73,-171.07 1176,-138 1164.77,-95.43 1182.48,-42.91 1190.92,-21.63"/>
<polygon fill="midnightblue" stroke="midnightblue" points="1218.44,-226.56 1227.26,-232.43 1224.03,-222.34 1218.44,-226.56"/>
</g>
<!-- Node31 -->
<g id="node29" class="node">
<title>Node31</title>
<g id="a_node29"><a xlink:href="../../d4/df8/_i_l_i9341__t3___e_r_i_s_8cpp.html" target="_top" xlink:title=" ">
<polygon fill="white" stroke="black" points="1347,-174.5 1347,-195.5 1475,-195.5 1475,-174.5 1347,-174.5"/>
<text text-anchor="middle" x="1411" y="-181.9" font-family="Helvetica,sans-Serif" font-size="12.00">ILI9341_t3_ERIS.cpp</text>
</a>
</g>
</g>
<!-- Node29&#45;&gt;Node31 -->
<g id="edge30" class="edge">
<title>Node29&#45;&gt;Node31</title>
<path fill="none" stroke="midnightblue" d="M1274.84,-229.32C1307.12,-219.05 1351.89,-204.81 1381.14,-195.5"/>
<polygon fill="midnightblue" stroke="midnightblue" points="1273.72,-226.01 1265.26,-232.37 1275.85,-232.68 1273.72,-226.01"/>
</g>
<!-- Node32 -->
<g id="node30" class="node">
<title>Node32</title>
<g id="a_node30"><a xlink:href="../../d9/d3e/_app_base_class_8h.html" target="_top" xlink:title=" ">
<polygon fill="white" stroke="black" points="1223.5,-174.5 1223.5,-195.5 1328.5,-195.5 1328.5,-174.5 1223.5,-174.5"/>
<text text-anchor="middle" x="1276" y="-181.9" font-family="Helvetica,sans-Serif" font-size="12.00">AppBaseClass.h</text>
</a>
</g>
</g>
<!-- Node29&#45;&gt;Node32 -->
<g id="edge31" class="edge">
<title>Node29&#45;&gt;Node32</title>
<path fill="none" stroke="midnightblue" d="M1248.24,-223.92C1255.12,-214.52 1263.26,-203.4 1268.94,-195.64"/>
<polygon fill="midnightblue" stroke="midnightblue" points="1245.23,-222.11 1242.14,-232.25 1250.87,-226.24 1245.23,-222.11"/>
</g>
<!-- Node39 -->
<g id="node34" class="node">
<title>Node39</title>
<g id="a_node34"><a xlink:href="../../df/d72/_app_manager_8h.html" target="_top" xlink:title=" ">
<polygon fill="white" stroke="red" points="1185,-116.5 1185,-137.5 1279,-137.5 1279,-116.5 1185,-116.5"/>
<text text-anchor="middle" x="1232" y="-123.9" font-family="Helvetica,sans-Serif" font-size="12.00">AppManager.h</text>
</a>
</g>
</g>
<!-- Node29&#45;&gt;Node39 -->
<g id="edge40" class="edge">
<title>Node29&#45;&gt;Node39</title>
<path fill="none" stroke="midnightblue" d="M1224.75,-223.22C1220.88,-215.1 1216.94,-205.33 1215,-196 1210.64,-175.03 1220.31,-150.75 1226.78,-137.63"/>
<polygon fill="midnightblue" stroke="midnightblue" points="1221.65,-224.84 1229.31,-232.16 1227.89,-221.66 1221.65,-224.84"/>
</g>
<!-- Node33 -->
<g id="node31" class="node">
<title>Node33</title>
<g id="a_node31"><a xlink:href="../../d4/db1/_app_base_class_8cpp.html" target="_top" xlink:title=" ">
<polygon fill="white" stroke="black" points="1223.5,-58.5 1223.5,-79.5 1342.5,-79.5 1342.5,-58.5 1223.5,-58.5"/>
<text text-anchor="middle" x="1283" y="-65.9" font-family="Helvetica,sans-Serif" font-size="12.00">AppBaseClass.cpp</text>
</a>
</g>
</g>
<!-- Node32&#45;&gt;Node33 -->
<g id="edge32" class="edge">
<title>Node32&#45;&gt;Node33</title>
<path fill="none" stroke="midnightblue" d="M1282.23,-164.62C1284.53,-156.49 1286.86,-146.88 1288,-138 1290.65,-117.34 1287.29,-92.94 1284.94,-79.72"/>
<polygon fill="midnightblue" stroke="midnightblue" points="1278.85,-163.69 1279.31,-174.27 1285.56,-165.71 1278.85,-163.69"/>
</g>
<!-- Node32&#45;&gt;Node34 -->
<g id="edge33" class="edge">
<title>Node32&#45;&gt;Node34</title>
<path fill="none" stroke="midnightblue" d="M1299.05,-168.63C1334.82,-144.79 1402.64,-99.57 1432.39,-79.74"/>
<polygon fill="midnightblue" stroke="midnightblue" points="1296.66,-166.02 1290.29,-174.48 1300.55,-171.84 1296.66,-166.02"/>
</g>
<!-- Node32&#45;&gt;Node39 -->
<g id="edge36" class="edge">
<title>Node32&#45;&gt;Node39</title>
<path fill="none" stroke="midnightblue" d="M1262.02,-166.21C1254.59,-156.75 1245.73,-145.48 1239.58,-137.64"/>
<polygon fill="midnightblue" stroke="midnightblue" points="1259.41,-168.54 1268.34,-174.25 1264.91,-164.22 1259.41,-168.54"/>
</g>
<!-- Node34&#45;&gt;Node30 -->
<g id="edge34" class="edge">
<title>Node34&#45;&gt;Node30</title>
<path fill="none" stroke="midnightblue" d="M1394.09,-56.24C1347.67,-45.93 1281.01,-31.11 1237.86,-21.52"/>
<polygon fill="midnightblue" stroke="midnightblue" points="1393.44,-59.68 1403.97,-58.44 1394.96,-52.85 1393.44,-59.68"/>
</g>
<!-- Node34&#45;&gt;Node35 -->
<g id="edge35" class="edge">
<title>Node34&#45;&gt;Node35</title>
<path fill="none" stroke="midnightblue" d="M1464.23,-51.08C1474.03,-41.44 1485.96,-29.72 1494.19,-21.64"/>
<polygon fill="midnightblue" stroke="midnightblue" points="1461.61,-48.74 1456.93,-58.25 1466.51,-53.73 1461.61,-48.74"/>
</g>
<!-- Node39&#45;&gt;Node30 -->
<g id="edge37" class="edge">
<title>Node39&#45;&gt;Node30</title>
<path fill="none" stroke="midnightblue" d="M1224.57,-106.78C1221.48,-98.58 1217.94,-88.86 1215,-80 1208.19,-59.44 1201.29,-35.01 1197.64,-21.75"/>
<polygon fill="midnightblue" stroke="midnightblue" points="1221.32,-108.1 1228.16,-116.2 1227.86,-105.61 1221.32,-108.1"/>
</g>
<!-- Node39&#45;&gt;Node33 -->
<g id="edge38" class="edge">
<title>Node39&#45;&gt;Node33</title>
<path fill="none" stroke="midnightblue" d="M1247.67,-108.79C1256.4,-99.21 1266.94,-87.64 1274.22,-79.64"/>
<polygon fill="midnightblue" stroke="midnightblue" points="1245.03,-106.5 1240.88,-116.25 1250.2,-111.21 1245.03,-106.5"/>
</g>
<!-- Node39&#45;&gt;Node34 -->
<g id="edge39" class="edge">
<title>Node39&#45;&gt;Node34</title>
<path fill="none" stroke="midnightblue" d="M1278.64,-113.85C1318.21,-103.55 1374.17,-88.97 1410.52,-79.5"/>
<polygon fill="midnightblue" stroke="midnightblue" points="1277.75,-110.47 1268.96,-116.37 1279.52,-117.24 1277.75,-110.47"/>
</g>
<!-- Node51&#45;&gt;Node12 -->
<g id="edge44" class="edge">
<title>Node51&#45;&gt;Node12</title>
<path fill="none" stroke="midnightblue" d="M1101.34,-400.77C1085.92,-390.85 1066.27,-378.2 1052.98,-369.64"/>
<polygon fill="midnightblue" stroke="midnightblue" points="1099.54,-403.78 1109.85,-406.25 1103.33,-397.89 1099.54,-403.78"/>
</g>
</g>
</svg>
        <g id="navigator" transform="translate(0 0)" fill="#404254">
                <rect fill="#f2f5e9" fill-opacity="0.5" stroke="#606060" stroke-width=".5" x="0" y="0" width="60" height="60"/>
                <use id="zoomplus" xlink:href="#zoomPlus" x="17" y="9" onmousedown="handleZoom(evt,'in')"/>
                <use id="zoomminus" xlink:href="#zoomMin" x="42" y="9" onmousedown="handleZoom(evt,'out')"/>
                <use id="reset" xlink:href="#resetDef" x="30" y="36" onmousedown="handleReset()"/>
                <g id="arrowUp" xlink:href="#dirArrow" transform="translate(30 24)" onmousedown="handlePan(0,-1)">
                  <use xlink:href="#rim" fill="#404040">
                        <set attributeName="fill" to="#808080" begin="arrowUp.mouseover" end="arrowUp.mouseout"/>
                  </use>
                  <path fill="none" stroke="white" stroke-width="1.5" d="M0,-3.0v7 M-2.5,-0.5L0,-3.0L2.5,-0.5"/>
                </g>
                <g id="arrowRight" xlink:href="#dirArrow" transform="rotate(90) translate(36 -43)" onmousedown="handlePan(1,0)">
                  <use xlink:href="#rim" fill="#404040">
                        <set attributeName="fill" to="#808080" begin="arrowRight.mouseover" end="arrowRight.mouseout"/>
                  </use>
                  <path fill="none" stroke="white" stroke-width="1.5" d="M0,-3.0v7 M-2.5,-0.5L0,-3.0L2.5,-0.5"/>
                </g>
                <g id="arrowDown" xlink:href="#dirArrow" transform="rotate(180) translate(-30 -48)" onmousedown="handlePan(0,1)">
                  <use xlink:href="#rim" fill="#404040">
                        <set attributeName="fill" to="#808080" begin="arrowDown.mouseover" end="arrowDown.mouseout"/>
                  </use>
                  <path fill="none" stroke="white" stroke-width="1.5" d="M0,-3.0v7 M-2.5,-0.5L0,-3.0L2.5,-0.5"/>
                </g>
                <g id="arrowLeft" xlink:href="#dirArrow" transform="rotate(270) translate(-36 17)" onmousedown="handlePan(-1,0)">
                  <use xlink:href="#rim" fill="#404040">
                        <set attributeName="fill" to="#808080" begin="arrowLeft.mouseover" end="arrowLeft.mouseout"/>
                  </use>
                  <path fill="none" stroke="white" stroke-width="1.5" d="M0,-3.0v7 M-2.5,-0.5L0,-3.0L2.5,-0.5"/>
                </g>
        </g>
        <svg viewBox="0 0 15 15" width="100%" height="30px" preserveAspectRatio="xMaxYMin meet">
         <g id="arrow_out" transform="scale(0.3 0.3)">
          <a xlink:href="_fat_lib_8h__dep__incl_org.svg" target="_base">
           <rect id="button" ry="5" rx="5" y="6" x="6" height="38" width="38"
                fill="#f2f5e9" fill-opacity="0.5" stroke="#606060" stroke-width="1.0"/>
           <path id="arrow"
             d="M 11.500037,31.436501 C 11.940474,20.09759 22.043105,11.32322 32.158766,21.979434 L 37.068811,17.246167 C 37.068811,17.246167 37.088388,32 37.088388,32 L 22.160133,31.978069 C 22.160133,31.978069 26.997745,27.140456 26.997745,27.140456 C 18.528582,18.264221 13.291696,25.230495 11.500037,31.436501 z"
             style="fill:#404040;"/>
          </a>
         </g>
        </svg>
</svg>
