<?xml version="1.0" encoding="UTF-8" standalone="no"?>
<!DOCTYPE svg PUBLIC "-//W3C//DTD SVG 1.1//EN"
 "http://www.w3.org/Graphics/SVG/1.1/DTD/svg11.dtd">
<!-- Generated by graphviz version 2.47.3 (20210619.1520)
 -->
<!-- Title: ERISCore/include/svcDataDictionary.h Pages: 1 -->
<svg width="163pt" height="101pt"
 viewBox="0.00 0.00 163.00 101.00" xmlns="http://www.w3.org/2000/svg" xmlns:xlink="http://www.w3.org/1999/xlink">
<g id="graph0" class="graph" transform="scale(1 1) rotate(0) translate(4 97)">
<title>ERISCore/include/svcDataDictionary.h</title>
<polygon fill="white" stroke="transparent" points="-4,4 -4,-97 159,-97 159,4 -4,4"/>
<!-- Node1 -->
<g id="node1" class="node">
<title>Node1</title>
<g id="a_node1"><a xlink:title="Data Dictionary service provides an interface to a data dictionary service the service shall provide ...">
<polygon fill="#bfbfbf" stroke="black" points="0,-58.5 0,-92.5 155,-92.5 155,-58.5 0,-58.5"/>
<text text-anchor="start" x="8" y="-78.9" font-family="Helvetica,sans-Serif" font-size="12.00">ERISCore/include/svcData</text>
<text text-anchor="middle" x="77.5" y="-65.9" font-family="Helvetica,sans-Serif" font-size="12.00">Dictionary.h</text>
</a>
</g>
</g>
<!-- Node2 -->
<g id="node2" class="node">
<title>Node2</title>
<g id="a_node2"><a xlink:title=" ">
<polygon fill="white" stroke="#bfbfbf" points="5.5,-0.5 5.5,-21.5 71.5,-21.5 71.5,-0.5 5.5,-0.5"/>
<text text-anchor="middle" x="38.5" y="-7.9" font-family="Helvetica,sans-Serif" font-size="12.00">Arduino.h</text>
</a>
</g>
</g>
<!-- Node1&#45;&gt;Node2 -->
<g id="edge1" class="edge">
<title>Node1&#45;&gt;Node2</title>
<path fill="none" stroke="midnightblue" d="M67.46,-58.4C62.1,-49.81 55.48,-39.21 49.92,-30.31"/>
<polygon fill="midnightblue" stroke="midnightblue" points="52.88,-28.43 44.62,-21.8 46.94,-32.14 52.88,-28.43"/>
</g>
<!-- Node3 -->
<g id="node3" class="node">
<title>Node3</title>
<g id="a_node3"><a xlink:title=" ">
<polygon fill="white" stroke="#bfbfbf" points="89.5,-0.5 89.5,-21.5 143.5,-21.5 143.5,-0.5 89.5,-0.5"/>
<text text-anchor="middle" x="116.5" y="-7.9" font-family="Helvetica,sans-Serif" font-size="12.00">string.h</text>
</a>
</g>
</g>
<!-- Node1&#45;&gt;Node3 -->
<g id="edge2" class="edge">
<title>Node1&#45;&gt;Node3</title>
<path fill="none" stroke="midnightblue" d="M87.54,-58.4C92.9,-49.81 99.52,-39.21 105.08,-30.31"/>
<polygon fill="midnightblue" stroke="midnightblue" points="108.06,-32.14 110.38,-21.8 102.12,-28.43 108.06,-32.14"/>
</g>
</g>
</svg>
