<?xml version="1.0" encoding="UTF-8" standalone="no"?>
<!DOCTYPE svg PUBLIC "-//W3C//DTD SVG 1.1//EN"
 "http://www.w3.org/Graphics/SVG/1.1/DTD/svg11.dtd">
<!-- Generated by graphviz version 2.47.3 (20210619.1520)
 -->
<!-- Title: istream.h Pages: 1 -->
<svg width="304pt" height="262pt"
 viewBox="0.00 0.00 303.50 262.00" xmlns="http://www.w3.org/2000/svg" xmlns:xlink="http://www.w3.org/1999/xlink">
<g id="graph0" class="graph" transform="scale(1 1) rotate(0) translate(4 258)">
<title>istream.h</title>
<polygon fill="white" stroke="transparent" points="-4,4 -4,-258 299.5,-258 299.5,4 -4,4"/>
<!-- Node1 -->
<g id="node1" class="node">
<title>Node1</title>
<g id="a_node1"><a xlink:title="istream class">
<polygon fill="#bfbfbf" stroke="black" points="109.5,-232.5 109.5,-253.5 174.5,-253.5 174.5,-232.5 109.5,-232.5"/>
<text text-anchor="middle" x="142" y="-239.9" font-family="Helvetica,sans-Serif" font-size="12.00">istream.h</text>
</a>
</g>
</g>
<!-- Node2 -->
<g id="node2" class="node">
<title>Node2</title>
<g id="a_node2"><a xlink:href="../../dd/d27/iostream_8h.html" target="_top" xlink:title="iostream class">
<polygon fill="white" stroke="black" points="60.5,-174.5 60.5,-195.5 131.5,-195.5 131.5,-174.5 60.5,-174.5"/>
<text text-anchor="middle" x="96" y="-181.9" font-family="Helvetica,sans-Serif" font-size="12.00">iostream.h</text>
</a>
</g>
</g>
<!-- Node1&#45;&gt;Node2 -->
<g id="edge1" class="edge">
<title>Node1&#45;&gt;Node2</title>
<path fill="none" stroke="midnightblue" d="M127.63,-224.5C119.8,-214.98 110.42,-203.56 103.92,-195.64"/>
<polygon fill="midnightblue" stroke="midnightblue" points="124.94,-226.74 133.99,-232.25 130.34,-222.3 124.94,-226.74"/>
</g>
<!-- Node8 -->
<g id="node8" class="node">
<title>Node8</title>
<g id="a_node8"><a xlink:href="../../d7/d52/istream_8cpp.html" target="_top" xlink:title=" ">
<polygon fill="white" stroke="black" points="150,-174.5 150,-195.5 228,-195.5 228,-174.5 150,-174.5"/>
<text text-anchor="middle" x="189" y="-181.9" font-family="Helvetica,sans-Serif" font-size="12.00">istream.cpp</text>
</a>
</g>
</g>
<!-- Node1&#45;&gt;Node8 -->
<g id="edge8" class="edge">
<title>Node1&#45;&gt;Node8</title>
<path fill="none" stroke="midnightblue" d="M156.69,-224.5C164.68,-214.98 174.26,-203.56 180.91,-195.64"/>
<polygon fill="midnightblue" stroke="midnightblue" points="153.93,-222.34 150.19,-232.25 159.3,-226.84 153.93,-222.34"/>
</g>
<!-- Node3 -->
<g id="node3" class="node">
<title>Node3</title>
<g id="a_node3"><a xlink:href="../../d0/df5/bufstream_8h.html" target="_top" xlink:title="ibufstream and obufstream classes">
<polygon fill="white" stroke="black" points="13.5,-116.5 13.5,-137.5 90.5,-137.5 90.5,-116.5 13.5,-116.5"/>
<text text-anchor="middle" x="52" y="-123.9" font-family="Helvetica,sans-Serif" font-size="12.00">bufstream.h</text>
</a>
</g>
</g>
<!-- Node2&#45;&gt;Node3 -->
<g id="edge2" class="edge">
<title>Node2&#45;&gt;Node3</title>
<path fill="none" stroke="midnightblue" d="M82.02,-166.21C74.59,-156.75 65.73,-145.48 59.58,-137.64"/>
<polygon fill="midnightblue" stroke="midnightblue" points="79.41,-168.54 88.34,-174.25 84.91,-164.22 79.41,-168.54"/>
</g>
<!-- Node6 -->
<g id="node6" class="node">
<title>Node6</title>
<g id="a_node6"><a xlink:href="../../de/d25/fstream_8h.html" target="_top" xlink:title="iostreams for files.">
<polygon fill="white" stroke="black" points="108.5,-116.5 108.5,-137.5 173.5,-137.5 173.5,-116.5 108.5,-116.5"/>
<text text-anchor="middle" x="141" y="-123.9" font-family="Helvetica,sans-Serif" font-size="12.00">fstream.h</text>
</a>
</g>
</g>
<!-- Node2&#45;&gt;Node6 -->
<g id="edge5" class="edge">
<title>Node2&#45;&gt;Node6</title>
<path fill="none" stroke="midnightblue" d="M110.29,-166.21C117.9,-156.75 126.95,-145.48 133.25,-137.64"/>
<polygon fill="midnightblue" stroke="midnightblue" points="107.37,-164.26 103.84,-174.25 112.83,-168.64 107.37,-164.26"/>
</g>
<!-- Node4 -->
<g id="node4" class="node">
<title>Node4</title>
<g id="a_node4"><a xlink:href="../../d7/d76/_arduino_stream_8h.html" target="_top" xlink:title="ArduinoInStream and ArduinoOutStream classes.">
<polygon fill="white" stroke="black" points="0,-58.5 0,-79.5 104,-79.5 104,-58.5 0,-58.5"/>
<text text-anchor="middle" x="52" y="-65.9" font-family="Helvetica,sans-Serif" font-size="12.00">ArduinoStream.h</text>
</a>
</g>
</g>
<!-- Node3&#45;&gt;Node4 -->
<g id="edge3" class="edge">
<title>Node3&#45;&gt;Node4</title>
<path fill="none" stroke="midnightblue" d="M52,-106.16C52,-97.16 52,-86.92 52,-79.64"/>
<polygon fill="midnightblue" stroke="midnightblue" points="48.5,-106.25 52,-116.25 55.5,-106.25 48.5,-106.25"/>
</g>
<!-- Node5 -->
<g id="node5" class="node">
<title>Node5</title>
<g id="a_node5"><a xlink:href="../../d8/d12/sdios_8h.html" target="_top" xlink:title="C++ IO Streams features.">
<polygon fill="white" stroke="black" points="65,-0.5 65,-21.5 119,-21.5 119,-0.5 65,-0.5"/>
<text text-anchor="middle" x="92" y="-7.9" font-family="Helvetica,sans-Serif" font-size="12.00">sdios.h</text>
</a>
</g>
</g>
<!-- Node4&#45;&gt;Node5 -->
<g id="edge4" class="edge">
<title>Node4&#45;&gt;Node5</title>
<path fill="none" stroke="midnightblue" d="M64.91,-49.92C71.63,-40.52 79.57,-29.4 85.11,-21.64"/>
<polygon fill="midnightblue" stroke="midnightblue" points="61.93,-48.07 58.97,-58.25 67.63,-52.14 61.93,-48.07"/>
</g>
<!-- Node6&#45;&gt;Node5 -->
<g id="edge7" class="edge">
<title>Node6&#45;&gt;Node5</title>
<path fill="none" stroke="midnightblue" d="M133.38,-106.94C127.85,-93.26 120.13,-74.43 113,-58 107.55,-45.44 100.94,-31.1 96.61,-21.82"/>
<polygon fill="midnightblue" stroke="midnightblue" points="130.15,-108.3 137.13,-116.27 136.64,-105.68 130.15,-108.3"/>
</g>
<!-- Node7 -->
<g id="node7" class="node">
<title>Node7</title>
<g id="a_node7"><a xlink:href="../../dc/de5/_stream_base_class_8cpp.html" target="_top" xlink:title=" ">
<polygon fill="white" stroke="black" points="160.5,-58.5 160.5,-79.5 295.5,-79.5 295.5,-58.5 160.5,-58.5"/>
<text text-anchor="middle" x="228" y="-65.9" font-family="Helvetica,sans-Serif" font-size="12.00">StreamBaseClass.cpp</text>
</a>
</g>
</g>
<!-- Node6&#45;&gt;Node7 -->
<g id="edge6" class="edge">
<title>Node6&#45;&gt;Node7</title>
<path fill="none" stroke="midnightblue" d="M164.66,-110.77C180.08,-100.85 199.73,-88.2 213.02,-79.64"/>
<polygon fill="midnightblue" stroke="midnightblue" points="162.67,-107.89 156.15,-116.25 166.46,-113.78 162.67,-107.89"/>
</g>
</g>
</svg>
