<?xml version="1.0" encoding="UTF-8" standalone="no"?>
<!DOCTYPE svg PUBLIC "-//W3C//DTD SVG 1.1//EN"
 "http://www.w3.org/Graphics/SVG/1.1/DTD/svg11.dtd">
<!-- Generated by graphviz version 2.47.3 (20210619.1520)
 -->
<!-- Title: printHexLn Pages: 1 -->
<!--zoomable 89 -->
<svg id="main" version="1.1" xmlns="http://www.w3.org/2000/svg" xmlns:xlink="http://www.w3.org/1999/xlink" xml:space="preserve" onload="init(evt)">
<style type="text/css"><![CDATA[
.edge:hover path { stroke: red; }
.edge:hover polygon { stroke: red; fill: red; }
]]></style>
<script type="text/javascript"><![CDATA[
var edges = document.getElementsByTagName('g');
if (edges && edges.length) {
  for (var i=0;i<edges.length;i++) {
    if (edges[i].id.substr(0,4)=='edge') {
      edges[i].setAttribute('class','edge');
    }
  }
}
]]></script>
        <defs>
                <circle id="rim" cx="0" cy="0" r="7"/>
                <circle id="rim2" cx="0" cy="0" r="3.5"/>
                <g id="zoomPlus">
                        <use xlink:href="#rim" fill="#404040">
                                <set attributeName="fill" to="#808080" begin="zoomplus.mouseover" end="zoomplus.mouseout"/>
                        </use>
                        <path d="M-4,0h8M0,-4v8" fill="none" stroke="white" stroke-width="1.5" pointer-events="none"/>
                </g>
                <g id="zoomMin">
                        <use xlink:href="#rim" fill="#404040">
                                <set attributeName="fill" to="#808080" begin="zoomminus.mouseover" end="zoomminus.mouseout"/>
                        </use>
                        <path d="M-4,0h8" fill="none" stroke="white" stroke-width="1.5" pointer-events="none"/>
                </g>
                <g id="dirArrow">
                        <path fill="none" stroke="white" stroke-width="1.5" d="M0,-3.0v7 M-2.5,-0.5L0,-3.0L2.5,-0.5"/>
                </g>
               <g id="resetDef">
                       <use xlink:href="#rim2" fill="#404040">
                               <set attributeName="fill" to="#808080" begin="reset.mouseover" end="reset.mouseout"/>
                       </use>
               </g>
        </defs>

<script type="text/javascript">
var viewWidth = 503;
var viewHeight = 89;
var sectionId = 'dynsection-10';
</script>
<script xlink:href="../../svgpan.js"/>
<svg id="graph" class="graph">
<g id="viewport">
<title>printHexLn</title>
<polygon fill="white" stroke="transparent" points="-4,4 -4,-85 499,-85 499,4 -4,4"/>
<!-- Node1 -->
<g id="node1" class="node">
<title>Node1</title>
<g id="a_node1"><a xlink:title=" ">
<polygon fill="#bfbfbf" stroke="black" points="0,-39.5 0,-60.5 72,-60.5 72,-39.5 0,-39.5"/>
<text text-anchor="middle" x="36" y="-46.9" font-family="Helvetica,sans-Serif" font-size="12.00">printHexLn</text>
</a>
</g>
</g>
<!-- Node2 -->
<g id="node2" class="node">
<title>Node2</title>
<g id="a_node2"><a xlink:href="../../d5/d96/_fat_dbg_8cpp.html#a55d1092a0a775f867ae2addf15861c3a" target="_top" xlink:title=" ">
<polygon fill="white" stroke="black" points="132,-59.5 132,-80.5 191,-80.5 191,-59.5 132,-59.5"/>
<text text-anchor="middle" x="161.5" y="-66.9" font-family="Helvetica,sans-Serif" font-size="12.00">printHex</text>
</a>
</g>
</g>
<!-- Node1&#45;&gt;Node2 -->
<g id="edge1" class="edge">
<title>Node1&#45;&gt;Node2</title>
<path fill="none" stroke="midnightblue" d="M72.06,-55.68C87.5,-58.18 105.71,-61.13 121.57,-63.7"/>
<polygon fill="midnightblue" stroke="midnightblue" points="121.17,-67.18 131.6,-65.32 122.29,-60.27 121.17,-67.18"/>
</g>
<!-- Node5 -->
<g id="node5" class="node">
<title>Node5</title>
<g id="a_node5"><a xlink:href="../../da/db3/class_print_basic.html#af89079da3793cc7778b6b8adb46e1fde" target="_top" xlink:title=" ">
<polygon fill="white" stroke="black" points="108,-19.5 108,-40.5 215,-40.5 215,-19.5 108,-19.5"/>
<text text-anchor="middle" x="161.5" y="-26.9" font-family="Helvetica,sans-Serif" font-size="12.00">PrintBasic::println</text>
</a>
</g>
</g>
<!-- Node1&#45;&gt;Node5 -->
<g id="edge5" class="edge">
<title>Node1&#45;&gt;Node5</title>
<path fill="none" stroke="midnightblue" d="M72.06,-44.32C80.14,-43.01 88.98,-41.58 97.84,-40.15"/>
<polygon fill="midnightblue" stroke="midnightblue" points="98.51,-43.58 107.82,-38.53 97.39,-36.67 98.51,-43.58"/>
</g>
<!-- Node3 -->
<g id="node3" class="node">
<title>Node3</title>
<g id="a_node3"><a xlink:href="../../da/db3/class_print_basic.html#a65247e790e6f8e209eb68a797bf96add" target="_top" xlink:title=" ">
<polygon fill="white" stroke="black" points="255,-40.5 255,-61.5 354,-61.5 354,-40.5 255,-40.5"/>
<text text-anchor="middle" x="304.5" y="-47.9" font-family="Helvetica,sans-Serif" font-size="12.00">PrintBasic::print</text>
</a>
</g>
</g>
<!-- Node2&#45;&gt;Node3 -->
<g id="edge2" class="edge">
<title>Node2&#45;&gt;Node3</title>
<path fill="none" stroke="midnightblue" d="M191.03,-66.16C206.45,-64.08 226.07,-61.43 244.59,-58.94"/>
<polygon fill="midnightblue" stroke="midnightblue" points="245.29,-62.38 254.73,-57.57 244.35,-55.44 245.29,-62.38"/>
</g>
<!-- Node4 -->
<g id="node4" class="node">
<title>Node4</title>
<g id="a_node4"><a xlink:href="../../da/db3/class_print_basic.html#afdd5b2ee779058e5b7741c6e46f63f06" target="_top" xlink:title=" ">
<polygon fill="white" stroke="black" points="394,-40.5 394,-61.5 495,-61.5 495,-40.5 394,-40.5"/>
<text text-anchor="middle" x="444.5" y="-47.9" font-family="Helvetica,sans-Serif" font-size="12.00">PrintBasic::write</text>
</a>
</g>
</g>
<!-- Node2&#45;&gt;Node4 -->
<g id="edge4" class="edge">
<title>Node2&#45;&gt;Node4</title>
<path fill="none" stroke="midnightblue" d="M191.11,-72.28C229.3,-74.84 298.99,-77.81 358,-71 370.79,-69.52 384.44,-66.85 396.99,-63.92"/>
<polygon fill="midnightblue" stroke="midnightblue" points="397.9,-67.3 406.79,-61.54 396.25,-60.5 397.9,-67.3"/>
</g>
<!-- Node3&#45;&gt;Node4 -->
<g id="edge3" class="edge">
<title>Node3&#45;&gt;Node4</title>
<path fill="none" stroke="midnightblue" d="M354.15,-51C363.71,-51 373.85,-51 383.72,-51"/>
<polygon fill="midnightblue" stroke="midnightblue" points="383.89,-54.5 393.89,-51 383.89,-47.5 383.89,-54.5"/>
</g>
<!-- Node5&#45;&gt;Node3 -->
<g id="edge6" class="edge">
<title>Node5&#45;&gt;Node3</title>
<path fill="none" stroke="midnightblue" d="M215,-37.82C224.65,-39.26 234.78,-40.76 244.6,-42.23"/>
<polygon fill="midnightblue" stroke="midnightblue" points="244.28,-45.72 254.69,-43.73 245.31,-38.79 244.28,-45.72"/>
</g>
<!-- Node6 -->
<g id="node6" class="node">
<title>Node6</title>
<g id="a_node6"><a xlink:href="../../da/db3/class_print_basic.html#a9ac86fd20911ebda9877289484b2a924" target="_top" xlink:title=" ">
<polygon fill="white" stroke="black" points="251,-0.5 251,-21.5 358,-21.5 358,-0.5 251,-0.5"/>
<text text-anchor="middle" x="304.5" y="-7.9" font-family="Helvetica,sans-Serif" font-size="12.00">PrintBasic::println</text>
</a>
</g>
</g>
<!-- Node5&#45;&gt;Node6 -->
<g id="edge7" class="edge">
<title>Node5&#45;&gt;Node6</title>
<path fill="none" stroke="midnightblue" d="M215,-22.93C223.44,-21.79 232.26,-20.6 240.9,-19.43"/>
<polygon fill="midnightblue" stroke="midnightblue" points="241.51,-22.88 250.95,-18.08 240.58,-15.95 241.51,-22.88"/>
</g>
<!-- Node6&#45;&gt;Node4 -->
<g id="edge8" class="edge">
<title>Node6&#45;&gt;Node4</title>
<path fill="none" stroke="midnightblue" d="M341.76,-21.51C358.74,-26.43 379.16,-32.35 397.24,-37.59"/>
<polygon fill="midnightblue" stroke="midnightblue" points="396.43,-41 407.01,-40.42 398.37,-34.28 396.43,-41"/>
</g>
</g>
</svg>
        <g id="navigator" transform="translate(0 0)" fill="#404254">
                <rect fill="#f2f5e9" fill-opacity="0.5" stroke="#606060" stroke-width=".5" x="0" y="0" width="60" height="60"/>
                <use id="zoomplus" xlink:href="#zoomPlus" x="17" y="9" onmousedown="handleZoom(evt,'in')"/>
                <use id="zoomminus" xlink:href="#zoomMin" x="42" y="9" onmousedown="handleZoom(evt,'out')"/>
                <use id="reset" xlink:href="#resetDef" x="30" y="36" onmousedown="handleReset()"/>
                <g id="arrowUp" xlink:href="#dirArrow" transform="translate(30 24)" onmousedown="handlePan(0,-1)">
                  <use xlink:href="#rim" fill="#404040">
                        <set attributeName="fill" to="#808080" begin="arrowUp.mouseover" end="arrowUp.mouseout"/>
                  </use>
                  <path fill="none" stroke="white" stroke-width="1.5" d="M0,-3.0v7 M-2.5,-0.5L0,-3.0L2.5,-0.5"/>
                </g>
                <g id="arrowRight" xlink:href="#dirArrow" transform="rotate(90) translate(36 -43)" onmousedown="handlePan(1,0)">
                  <use xlink:href="#rim" fill="#404040">
                        <set attributeName="fill" to="#808080" begin="arrowRight.mouseover" end="arrowRight.mouseout"/>
                  </use>
                  <path fill="none" stroke="white" stroke-width="1.5" d="M0,-3.0v7 M-2.5,-0.5L0,-3.0L2.5,-0.5"/>
                </g>
                <g id="arrowDown" xlink:href="#dirArrow" transform="rotate(180) translate(-30 -48)" onmousedown="handlePan(0,1)">
                  <use xlink:href="#rim" fill="#404040">
                        <set attributeName="fill" to="#808080" begin="arrowDown.mouseover" end="arrowDown.mouseout"/>
                  </use>
                  <path fill="none" stroke="white" stroke-width="1.5" d="M0,-3.0v7 M-2.5,-0.5L0,-3.0L2.5,-0.5"/>
                </g>
                <g id="arrowLeft" xlink:href="#dirArrow" transform="rotate(270) translate(-36 17)" onmousedown="handlePan(-1,0)">
                  <use xlink:href="#rim" fill="#404040">
                        <set attributeName="fill" to="#808080" begin="arrowLeft.mouseover" end="arrowLeft.mouseout"/>
                  </use>
                  <path fill="none" stroke="white" stroke-width="1.5" d="M0,-3.0v7 M-2.5,-0.5L0,-3.0L2.5,-0.5"/>
                </g>
        </g>
        <svg viewBox="0 0 15 15" width="100%" height="30px" preserveAspectRatio="xMaxYMin meet">
         <g id="arrow_out" transform="scale(0.3 0.3)">
          <a xlink:href="_fat_dbg_8cpp_a9064f68619cf8150e1393b334ca86316_cgraph_org.svg" target="_base">
           <rect id="button" ry="5" rx="5" y="6" x="6" height="38" width="38"
                fill="#f2f5e9" fill-opacity="0.5" stroke="#606060" stroke-width="1.0"/>
           <path id="arrow"
             d="M 11.500037,31.436501 C 11.940474,20.09759 22.043105,11.32322 32.158766,21.979434 L 37.068811,17.246167 C 37.068811,17.246167 37.088388,32 37.088388,32 L 22.160133,31.978069 C 22.160133,31.978069 26.997745,27.140456 26.997745,27.140456 C 18.528582,18.264221 13.291696,25.230495 11.500037,31.436501 z"
             style="fill:#404040;"/>
          </a>
         </g>
        </svg>
</svg>
