<?xml version="1.0" encoding="UTF-8" standalone="no"?>
<!DOCTYPE svg PUBLIC "-//W3C//DTD SVG 1.1//EN"
 "http://www.w3.org/Graphics/SVG/1.1/DTD/svg11.dtd">
<!-- Generated by graphviz version 2.47.3 (20210619.1520)
 -->
<!-- Title: svcSerialCommandInterface.h Pages: 1 -->
<svg width="1140pt" height="378pt"
 viewBox="0.00 0.00 1140.00 378.00" xmlns="http://www.w3.org/2000/svg" xmlns:xlink="http://www.w3.org/1999/xlink">
<g id="graph0" class="graph" transform="scale(1 1) rotate(0) translate(4 374)">
<title>svcSerialCommandInterface.h</title>
<!-- Node1 -->
<g id="node1" class="node">
<title>Node1</title>
<g id="a_node1"><a xlink:title=" ">
<polygon fill="#bfbfbf" stroke="black" points="292.5,-348.5 292.5,-369.5 465.5,-369.5 465.5,-348.5 292.5,-348.5"/>
<text text-anchor="middle" x="379" y="-355.9" font-family="Helvetica,sans-Serif" font-size="12.00">svcSerialCommandInterface.h</text>
</a>
</g>
</g>
<!-- Node2 -->
<g id="node2" class="node">
<title>Node2</title>
<g id="a_node2"><a xlink:href="../../dc/d40/_app_manager_8cpp.html" target="_top" xlink:title=" ">
<polygon fill="none" stroke="black" points="28.5,-116.5 28.5,-137.5 135.5,-137.5 135.5,-116.5 28.5,-116.5"/>
<text text-anchor="middle" x="82" y="-123.9" font-family="Helvetica,sans-Serif" font-size="12.00">AppManager.cpp</text>
</a>
</g>
</g>
<!-- Node1&#45;&gt;Node2 -->
<g id="edge1" class="edge">
<title>Node1&#45;&gt;Node2</title>
<path fill="none" stroke="midnightblue" d="M305.97,-346.16C277.57,-339.25 245.75,-328.52 220,-312 148.08,-265.85 99.97,-168.28 86.12,-137.51"/>
<polygon fill="midnightblue" stroke="midnightblue" points="305.33,-349.6 315.86,-348.44 306.9,-342.78 305.33,-349.6"/>
</g>
<!-- Node3 -->
<g id="node3" class="node">
<title>Node3</title>
<g id="a_node3"><a xlink:href="../../d6/dd8/_eris_core_8cpp.html" target="_top" xlink:title=" ">
<polygon fill="none" stroke="black" points="180,-0.5 180,-21.5 266,-21.5 266,-0.5 180,-0.5"/>
<text text-anchor="middle" x="223" y="-7.9" font-family="Helvetica,sans-Serif" font-size="12.00">ErisCore.cpp</text>
</a>
</g>
</g>
<!-- Node1&#45;&gt;Node3 -->
<g id="edge2" class="edge">
<title>Node1&#45;&gt;Node3</title>
<path fill="none" stroke="midnightblue" d="M282.05,-348.15C169.75,-334 0,-302.86 0,-244 0,-244 0,-244 0,-126 0,-46.1 114.89,-22.17 179.74,-15.02"/>
<polygon fill="midnightblue" stroke="midnightblue" points="281.7,-351.64 292.05,-349.39 282.55,-344.69 281.7,-351.64"/>
</g>
<!-- Node4 -->
<g id="node4" class="node">
<title>Node4</title>
<g id="a_node4"><a xlink:href="../../dd/dbe/svc_serial_command_interface_8cpp.html" target="_top" xlink:title=" ">
<polygon fill="none" stroke="black" points="946,-116.5 946,-137.5 1132,-137.5 1132,-116.5 946,-116.5"/>
<text text-anchor="middle" x="1039" y="-123.9" font-family="Helvetica,sans-Serif" font-size="12.00">svcSerialCommandInterface.cpp</text>
</a>
</g>
</g>
<!-- Node1&#45;&gt;Node4 -->
<g id="edge3" class="edge">
<title>Node1&#45;&gt;Node4</title>
<path fill="none" stroke="midnightblue" d="M437.83,-346.35C476.6,-338.1 528.29,-326.05 573,-312 748.92,-256.73 953.05,-166.81 1018.02,-137.54"/>
<polygon fill="midnightblue" stroke="midnightblue" points="436.82,-342.98 427.76,-348.46 438.26,-349.83 436.82,-342.98"/>
</g>
<!-- Node5 -->
<g id="node5" class="node">
<title>Node5</title>
<g id="a_node5"><a xlink:href="../../dd/df4/svc_data_dictionary_8h.html" target="_top" xlink:title="Data Dictionary service provides an interface to a data dictionary service the service shall provide ...">
<polygon fill="none" stroke="black" points="229.5,-290.5 229.5,-311.5 350.5,-311.5 350.5,-290.5 229.5,-290.5"/>
<text text-anchor="middle" x="290" y="-297.9" font-family="Helvetica,sans-Serif" font-size="12.00">svcDataDictionary.h</text>
</a>
</g>
</g>
<!-- Node1&#45;&gt;Node5 -->
<g id="edge4" class="edge">
<title>Node1&#45;&gt;Node5</title>
<path fill="none" stroke="midnightblue" d="M354.79,-342.77C339.02,-332.85 318.92,-320.2 305.32,-311.64"/>
<polygon fill="midnightblue" stroke="midnightblue" points="353.17,-345.88 363.5,-348.25 356.9,-339.96 353.17,-345.88"/>
</g>
<!-- Node18 -->
<g id="node18" class="node">
<title>Node18</title>
<g id="a_node18"><a xlink:href="../../db/dc8/_audio_director_8h.html" target="_top" xlink:title=" ">
<polygon fill="none" stroke="black" points="436,-290.5 436,-311.5 534,-311.5 534,-290.5 436,-290.5"/>
<text text-anchor="middle" x="485" y="-297.9" font-family="Helvetica,sans-Serif" font-size="12.00">AudioDirector.h</text>
</a>
</g>
</g>
<!-- Node1&#45;&gt;Node18 -->
<g id="edge29" class="edge">
<title>Node1&#45;&gt;Node18</title>
<path fill="none" stroke="midnightblue" d="M406.52,-343.46C425.49,-333.44 450.17,-320.4 466.75,-311.64"/>
<polygon fill="midnightblue" stroke="midnightblue" points="404.67,-340.48 397.46,-348.25 407.94,-346.67 404.67,-340.48"/>
</g>
<!-- Node6 -->
<g id="node6" class="node">
<title>Node6</title>
<g id="a_node6"><a xlink:href="../../d4/d7f/svc_data_dictionary_8cpp.html" target="_top" xlink:title="Data Dictionary service provides an interface to a data dictionary service the service shall provide ...">
<polygon fill="none" stroke="black" points="179,-232.5 179,-253.5 313,-253.5 313,-232.5 179,-232.5"/>
<text text-anchor="middle" x="246" y="-239.9" font-family="Helvetica,sans-Serif" font-size="12.00">svcDataDictionary.cpp</text>
</a>
</g>
</g>
<!-- Node5&#45;&gt;Node6 -->
<g id="edge5" class="edge">
<title>Node5&#45;&gt;Node6</title>
<path fill="none" stroke="midnightblue" d="M276.02,-282.21C268.59,-272.75 259.73,-261.48 253.58,-253.64"/>
<polygon fill="midnightblue" stroke="midnightblue" points="273.41,-284.54 282.34,-290.25 278.91,-280.22 273.41,-284.54"/>
</g>
<!-- Node7 -->
<g id="node7" class="node">
<title>Node7</title>
<g id="a_node7"><a xlink:href="../../df/d72/_app_manager_8h.html" target="_top" xlink:title=" ">
<polygon fill="none" stroke="black" points="407,-174.5 407,-195.5 501,-195.5 501,-174.5 407,-174.5"/>
<text text-anchor="middle" x="454" y="-181.9" font-family="Helvetica,sans-Serif" font-size="12.00">AppManager.h</text>
</a>
</g>
</g>
<!-- Node5&#45;&gt;Node7 -->
<g id="edge6" class="edge">
<title>Node5&#45;&gt;Node7</title>
<path fill="none" stroke="midnightblue" d="M306.25,-282.96C320.76,-268.32 343.07,-247.22 365,-232 386.29,-217.22 412.95,-204.06 431.51,-195.65"/>
<polygon fill="midnightblue" stroke="midnightblue" points="303.51,-280.75 299.03,-290.35 308.52,-285.64 303.51,-280.75"/>
</g>
<!-- Node7&#45;&gt;Node1 -->
<g id="edge16" class="edge">
<title>Node7&#45;&gt;Node1</title>
<path fill="none" stroke="midnightblue" d="M427.85,-201.32C416.88,-209.11 405.06,-219.57 398,-232 376.05,-270.67 376.85,-326.29 378.21,-348.41"/>
<polygon fill="midnightblue" stroke="midnightblue" points="429.97,-204.12 436.36,-195.66 426.09,-198.29 429.97,-204.12"/>
</g>
<!-- Node7&#45;&gt;Node2 -->
<g id="edge9" class="edge">
<title>Node7&#45;&gt;Node2</title>
<path fill="none" stroke="midnightblue" d="M396.76,-175.38C325.6,-164.67 205.08,-146.53 135.64,-136.07"/>
<polygon fill="midnightblue" stroke="midnightblue" points="396.48,-178.88 406.89,-176.91 397.52,-171.96 396.48,-178.88"/>
</g>
<!-- Node7&#45;&gt;Node4 -->
<g id="edge10" class="edge">
<title>Node7&#45;&gt;Node4</title>
<path fill="none" stroke="midnightblue" d="M511.36,-178.59C601.83,-170.04 783.21,-152.86 937,-138 939.92,-137.72 942.89,-137.43 945.89,-137.14"/>
<polygon fill="midnightblue" stroke="midnightblue" points="510.94,-175.11 501.31,-179.54 511.59,-182.08 510.94,-175.11"/>
</g>
<!-- Node8 -->
<g id="node8" class="node">
<title>Node8</title>
<g id="a_node8"><a xlink:href="../../d4/db1/_app_base_class_8cpp.html" target="_top" xlink:title=" ">
<polygon fill="none" stroke="black" points="808.5,-116.5 808.5,-137.5 927.5,-137.5 927.5,-116.5 808.5,-116.5"/>
<text text-anchor="middle" x="868" y="-123.9" font-family="Helvetica,sans-Serif" font-size="12.00">AppBaseClass.cpp</text>
</a>
</g>
</g>
<!-- Node7&#45;&gt;Node8 -->
<g id="edge7" class="edge">
<title>Node7&#45;&gt;Node8</title>
<path fill="none" stroke="midnightblue" d="M511.23,-176.26C589.39,-165.69 728.85,-146.82 808.28,-136.08"/>
<polygon fill="midnightblue" stroke="midnightblue" points="510.53,-172.82 501.09,-177.63 511.47,-179.76 510.53,-172.82"/>
</g>
<!-- Node9 -->
<g id="node9" class="node">
<title>Node9</title>
<g id="a_node9"><a xlink:href="../../d7/d7e/_app_wren_8cpp.html" target="_top" xlink:title=" ">
<polygon fill="none" stroke="black" points="251.5,-58.5 251.5,-79.5 340.5,-79.5 340.5,-58.5 251.5,-58.5"/>
<text text-anchor="middle" x="296" y="-65.9" font-family="Helvetica,sans-Serif" font-size="12.00">AppWren.cpp</text>
</a>
</g>
</g>
<!-- Node7&#45;&gt;Node9 -->
<g id="edge8" class="edge">
<title>Node7&#45;&gt;Node9</title>
<path fill="none" stroke="midnightblue" d="M408.87,-171.2C387.99,-163.79 363.72,-152.92 345,-138 324.29,-121.49 308.26,-94.09 300.72,-79.62"/>
<polygon fill="midnightblue" stroke="midnightblue" points="407.91,-174.57 418.5,-174.47 410.15,-167.94 407.91,-174.57"/>
</g>
<!-- Node10 -->
<g id="node10" class="node">
<title>Node10</title>
<g id="a_node10"><a xlink:href="../../d3/d0e/app_template_8h.html" target="_top" xlink:title=" ">
<polygon fill="none" stroke="black" points="358.5,-58.5 358.5,-79.5 453.5,-79.5 453.5,-58.5 358.5,-58.5"/>
<text text-anchor="middle" x="406" y="-65.9" font-family="Helvetica,sans-Serif" font-size="12.00">appTemplate.h</text>
</a>
</g>
</g>
<!-- Node7&#45;&gt;Node10 -->
<g id="edge11" class="edge">
<title>Node7&#45;&gt;Node10</title>
<path fill="none" stroke="midnightblue" d="M397.23,-171C380.07,-164.14 363.12,-153.72 353,-138 338.91,-116.1 368.46,-92.55 388.83,-79.72"/>
<polygon fill="midnightblue" stroke="midnightblue" points="396.15,-174.33 406.74,-174.47 398.54,-167.76 396.15,-174.33"/>
</g>
<!-- Node11 -->
<g id="node11" class="node">
<title>Node11</title>
<g id="a_node11"><a xlink:href="../../d8/d1f/app_scope_8h.html" target="_top" xlink:title=" ">
<polygon fill="none" stroke="black" points="362,-116.5 362,-137.5 442,-137.5 442,-116.5 362,-116.5"/>
<text text-anchor="middle" x="402" y="-123.9" font-family="Helvetica,sans-Serif" font-size="12.00">appScope.h</text>
</a>
</g>
</g>
<!-- Node7&#45;&gt;Node11 -->
<g id="edge13" class="edge">
<title>Node7&#45;&gt;Node11</title>
<path fill="none" stroke="midnightblue" d="M438.02,-166.79C429.12,-157.21 418.38,-145.64 410.95,-137.64"/>
<polygon fill="midnightblue" stroke="midnightblue" points="435.57,-169.3 444.94,-174.25 440.7,-164.54 435.57,-169.3"/>
</g>
<!-- Node12 -->
<g id="node12" class="node">
<title>Node12</title>
<g id="a_node12"><a xlink:href="../../d9/db6/_app_audio_to_polyphonic_8h.html" target="_top" xlink:title="Application Example.">
<polygon fill="none" stroke="black" points="506.5,-58.5 506.5,-79.5 655.5,-79.5 655.5,-58.5 506.5,-58.5"/>
<text text-anchor="middle" x="581" y="-65.9" font-family="Helvetica,sans-Serif" font-size="12.00">AppAudioToPolyphonic.h</text>
</a>
</g>
</g>
<!-- Node7&#45;&gt;Node12 -->
<g id="edge28" class="edge">
<title>Node7&#45;&gt;Node12</title>
<path fill="none" stroke="midnightblue" d="M511.48,-183.95C591.29,-182.51 729.44,-174.64 761,-138 795.34,-98.14 719.29,-81.58 655.69,-74.75"/>
<polygon fill="midnightblue" stroke="midnightblue" points="511.04,-180.45 501.1,-184.1 511.15,-187.45 511.04,-180.45"/>
</g>
<!-- Node13 -->
<g id="node13" class="node">
<title>Node13</title>
<g id="a_node13"><a xlink:href="../../dd/d93/app_reprogram_8h.html" target="_top" xlink:title=" ">
<polygon fill="none" stroke="black" points="89.5,-58.5 89.5,-79.5 194.5,-79.5 194.5,-58.5 89.5,-58.5"/>
<text text-anchor="middle" x="142" y="-65.9" font-family="Helvetica,sans-Serif" font-size="12.00">appReprogram.h</text>
</a>
</g>
</g>
<!-- Node7&#45;&gt;Node13 -->
<g id="edge17" class="edge">
<title>Node7&#45;&gt;Node13</title>
<path fill="none" stroke="midnightblue" d="M396.48,-179.85C327.49,-173.92 216.9,-161.1 183,-138 162.04,-123.72 150.03,-94.84 144.93,-79.72"/>
<polygon fill="midnightblue" stroke="midnightblue" points="396.5,-183.36 406.76,-180.71 397.08,-176.39 396.5,-183.36"/>
</g>
<!-- Node14 -->
<g id="node14" class="node">
<title>Node14</title>
<g id="a_node14"><a xlink:href="../../d4/d50/control_slider_8h.html" target="_top" xlink:title=" ">
<polygon fill="none" stroke="black" points="460.5,-116.5 460.5,-137.5 551.5,-137.5 551.5,-116.5 460.5,-116.5"/>
<text text-anchor="middle" x="506" y="-123.9" font-family="Helvetica,sans-Serif" font-size="12.00">controlSlider.h</text>
</a>
</g>
</g>
<!-- Node7&#45;&gt;Node14 -->
<g id="edge19" class="edge">
<title>Node7&#45;&gt;Node14</title>
<path fill="none" stroke="midnightblue" d="M469.98,-166.79C478.88,-157.21 489.62,-145.64 497.05,-137.64"/>
<polygon fill="midnightblue" stroke="midnightblue" points="467.3,-164.54 463.06,-174.25 472.43,-169.3 467.3,-164.54"/>
</g>
<!-- Node15 -->
<g id="node15" class="node">
<title>Node15</title>
<g id="a_node15"><a xlink:href="../../dc/ddf/control_button_8h.html" target="_top" xlink:title=" ">
<polygon fill="none" stroke="black" points="569.5,-116.5 569.5,-137.5 662.5,-137.5 662.5,-116.5 569.5,-116.5"/>
<text text-anchor="middle" x="616" y="-123.9" font-family="Helvetica,sans-Serif" font-size="12.00">controlButton.h</text>
</a>
</g>
</g>
<!-- Node7&#45;&gt;Node15 -->
<g id="edge21" class="edge">
<title>Node7&#45;&gt;Node15</title>
<path fill="none" stroke="midnightblue" d="M491.44,-171.06C521.09,-160.81 561.82,-146.73 588.51,-137.5"/>
<polygon fill="midnightblue" stroke="midnightblue" points="490.16,-167.8 481.85,-174.37 492.44,-174.41 490.16,-167.8"/>
</g>
<!-- Node16 -->
<g id="node16" class="node">
<title>Node16</title>
<g id="a_node16"><a xlink:href="../../d4/d75/app_c_q_t_8h.html" target="_top" xlink:title=" ">
<polygon fill="none" stroke="black" points="680.5,-116.5 680.5,-137.5 751.5,-137.5 751.5,-116.5 680.5,-116.5"/>
<text text-anchor="middle" x="716" y="-123.9" font-family="Helvetica,sans-Serif" font-size="12.00">appCQT.h</text>
</a>
</g>
</g>
<!-- Node7&#45;&gt;Node16 -->
<g id="edge23" class="edge">
<title>Node7&#45;&gt;Node16</title>
<path fill="none" stroke="midnightblue" d="M510.34,-172.36C554.39,-163.2 617.14,-150.02 672,-138 674.75,-137.4 677.6,-136.76 680.47,-136.12"/>
<polygon fill="midnightblue" stroke="midnightblue" points="509.48,-168.97 500.4,-174.43 510.9,-175.82 509.48,-168.97"/>
</g>
<!-- Node17 -->
<g id="node17" class="node">
<title>Node17</title>
<g id="a_node17"><a xlink:href="../../d5/d58/_app_wren_8h.html" target="_top" xlink:title=" ">
<polygon fill="none" stroke="black" points="192.5,-116.5 192.5,-137.5 267.5,-137.5 267.5,-116.5 192.5,-116.5"/>
<text text-anchor="middle" x="230" y="-123.9" font-family="Helvetica,sans-Serif" font-size="12.00">AppWren.h</text>
</a>
</g>
</g>
<!-- Node7&#45;&gt;Node17 -->
<g id="edge25" class="edge">
<title>Node7&#45;&gt;Node17</title>
<path fill="none" stroke="midnightblue" d="M405.9,-171.97C364.55,-161.64 305.74,-146.93 267.72,-137.43"/>
<polygon fill="midnightblue" stroke="midnightblue" points="405.2,-175.41 415.75,-174.44 406.9,-168.62 405.2,-175.41"/>
</g>
<!-- Node10&#45;&gt;Node3 -->
<g id="edge12" class="edge">
<title>Node10&#45;&gt;Node3</title>
<path fill="none" stroke="midnightblue" d="M364.58,-55.32C331.01,-45.05 284.47,-30.81 254.05,-21.5"/>
<polygon fill="midnightblue" stroke="midnightblue" points="363.95,-58.79 374.54,-58.37 366,-52.1 363.95,-58.79"/>
</g>
<!-- Node11&#45;&gt;Node12 -->
<g id="edge14" class="edge">
<title>Node11&#45;&gt;Node12</title>
<path fill="none" stroke="midnightblue" d="M442.52,-113.32C475.35,-103.05 520.88,-88.81 550.63,-79.5"/>
<polygon fill="midnightblue" stroke="midnightblue" points="441.27,-110.05 432.77,-116.37 443.36,-116.73 441.27,-110.05"/>
</g>
<!-- Node12&#45;&gt;Node3 -->
<g id="edge15" class="edge">
<title>Node12&#45;&gt;Node3</title>
<path fill="none" stroke="midnightblue" d="M509.87,-56.87C437.16,-45.5 326.59,-28.2 266.16,-18.75"/>
<polygon fill="midnightblue" stroke="midnightblue" points="509.44,-60.35 519.86,-58.44 510.53,-53.43 509.44,-60.35"/>
</g>
<!-- Node13&#45;&gt;Node3 -->
<g id="edge18" class="edge">
<title>Node13&#45;&gt;Node3</title>
<path fill="none" stroke="midnightblue" d="M164.43,-52.49C178.73,-42.61 196.79,-30.12 209.05,-21.64"/>
<polygon fill="midnightblue" stroke="midnightblue" points="162.34,-49.68 156.11,-58.25 166.33,-55.44 162.34,-49.68"/>
</g>
<!-- Node14&#45;&gt;Node12 -->
<g id="edge20" class="edge">
<title>Node14&#45;&gt;Node12</title>
<path fill="none" stroke="midnightblue" d="M527.15,-110.21C540.32,-100.37 556.84,-88.04 568.09,-79.64"/>
<polygon fill="midnightblue" stroke="midnightblue" points="524.98,-107.46 519.06,-116.25 529.17,-113.07 524.98,-107.46"/>
</g>
<!-- Node15&#45;&gt;Node12 -->
<g id="edge22" class="edge">
<title>Node15&#45;&gt;Node12</title>
<path fill="none" stroke="midnightblue" d="M604.52,-107.63C598.68,-98.29 591.82,-87.32 587.03,-79.64"/>
<polygon fill="midnightblue" stroke="midnightblue" points="601.64,-109.62 609.9,-116.25 607.57,-105.91 601.64,-109.62"/>
</g>
<!-- Node16&#45;&gt;Node12 -->
<g id="edge24" class="edge">
<title>Node16&#45;&gt;Node12</title>
<path fill="none" stroke="midnightblue" d="M683.5,-112.52C658.91,-102.32 625.76,-88.57 603.9,-79.5"/>
<polygon fill="midnightblue" stroke="midnightblue" points="682.21,-115.77 692.79,-116.37 684.9,-109.31 682.21,-115.77"/>
</g>
<!-- Node17&#45;&gt;Node3 -->
<g id="edge27" class="edge">
<title>Node17&#45;&gt;Node3</title>
<path fill="none" stroke="midnightblue" d="M228.79,-106.25C227.27,-81.58 224.74,-40.35 223.6,-21.69"/>
<polygon fill="midnightblue" stroke="midnightblue" points="225.3,-106.51 229.4,-116.28 232.28,-106.08 225.3,-106.51"/>
</g>
<!-- Node17&#45;&gt;Node9 -->
<g id="edge26" class="edge">
<title>Node17&#45;&gt;Node9</title>
<path fill="none" stroke="midnightblue" d="M249.28,-109.65C260.75,-99.91 274.93,-87.88 284.64,-79.64"/>
<polygon fill="midnightblue" stroke="midnightblue" points="246.86,-107.11 241.5,-116.25 251.39,-112.44 246.86,-107.11"/>
</g>
<!-- Node18&#45;&gt;Node7 -->
<g id="edge31" class="edge">
<title>Node18&#45;&gt;Node7</title>
<path fill="none" stroke="midnightblue" d="M506.55,-283.83C521.88,-270.25 538.11,-250.19 528,-232 518.3,-214.55 498.93,-202.86 482.44,-195.64"/>
<polygon fill="midnightblue" stroke="midnightblue" points="504.21,-281.22 498.76,-290.3 508.69,-286.61 504.21,-281.22"/>
</g>
<!-- Node19 -->
<g id="node19" class="node">
<title>Node19</title>
<g id="a_node19"><a xlink:href="../../d1/d2c/_audio_director_8cpp.html" target="_top" xlink:title=" ">
<polygon fill="none" stroke="black" points="407,-232.5 407,-253.5 519,-253.5 519,-232.5 407,-232.5"/>
<text text-anchor="middle" x="463" y="-239.9" font-family="Helvetica,sans-Serif" font-size="12.00">AudioDirector.cpp</text>
</a>
</g>
</g>
<!-- Node18&#45;&gt;Node19 -->
<g id="edge30" class="edge">
<title>Node18&#45;&gt;Node19</title>
<path fill="none" stroke="midnightblue" d="M477.44,-280.75C473.85,-271.61 469.71,-261.08 466.79,-253.64"/>
<polygon fill="midnightblue" stroke="midnightblue" points="474.25,-282.22 481.17,-290.25 480.77,-279.66 474.25,-282.22"/>
</g>
<!-- Node20 -->
<g id="node20" class="node">
<title>Node20</title>
<g id="a_node20"><a xlink:href="../../d9/d3e/_app_base_class_8h.html" target="_top" xlink:title=" ">
<polygon fill="none" stroke="black" points="575.5,-232.5 575.5,-253.5 680.5,-253.5 680.5,-232.5 575.5,-232.5"/>
<text text-anchor="middle" x="628" y="-239.9" font-family="Helvetica,sans-Serif" font-size="12.00">AppBaseClass.h</text>
</a>
</g>
</g>
<!-- Node18&#45;&gt;Node20 -->
<g id="edge32" class="edge">
<title>Node18&#45;&gt;Node20</title>
<path fill="none" stroke="midnightblue" d="M519.08,-286.65C545.16,-276.44 580.48,-262.61 603.74,-253.5"/>
<polygon fill="midnightblue" stroke="midnightblue" points="517.62,-283.47 509.58,-290.37 520.17,-289.99 517.62,-283.47"/>
</g>
<!-- Node20&#45;&gt;Node1 -->
<g id="edge35" class="edge">
<title>Node20&#45;&gt;Node1</title>
<path fill="none" stroke="midnightblue" d="M610.91,-261.16C594.72,-276.52 569.06,-298.63 543,-312 508.53,-329.69 466.4,-341.32 433.47,-348.46"/>
<polygon fill="midnightblue" stroke="midnightblue" points="613.73,-263.3 618.47,-253.82 608.86,-258.28 613.73,-263.3"/>
</g>
<!-- Node20&#45;&gt;Node7 -->
<g id="edge34" class="edge">
<title>Node20&#45;&gt;Node7</title>
<path fill="none" stroke="midnightblue" d="M588.2,-229.19C556.32,-218.93 512.32,-204.77 483.52,-195.5"/>
<polygon fill="midnightblue" stroke="midnightblue" points="587.5,-232.64 598.09,-232.37 589.64,-225.98 587.5,-232.64"/>
</g>
<!-- Node20&#45;&gt;Node8 -->
<g id="edge33" class="edge">
<title>Node20&#45;&gt;Node8</title>
<path fill="none" stroke="midnightblue" d="M657.24,-228.11C706.64,-204.65 805.39,-157.74 847.84,-137.58"/>
<polygon fill="midnightblue" stroke="midnightblue" points="655.58,-225.02 648.05,-232.48 658.58,-231.35 655.58,-225.02"/>
</g>
</g>
</svg>
