<?xml version="1.0" encoding="UTF-8" standalone="no"?>
<!DOCTYPE svg PUBLIC "-//W3C//DTD SVG 1.1//EN"
 "http://www.w3.org/Graphics/SVG/1.1/DTD/svg11.dtd">
<!-- Generated by graphviz version 2.47.3 (20210619.1520)
 -->
<!-- Title: svcDataDictionaryRecord Pages: 1 -->
<!--zoomable 556 -->
<svg id="main" version="1.1" xmlns="http://www.w3.org/2000/svg" xmlns:xlink="http://www.w3.org/1999/xlink" xml:space="preserve" onload="init(evt)">
<style type="text/css"><![CDATA[
.edge:hover path { stroke: red; }
.edge:hover polygon { stroke: red; fill: red; }
]]></style>
<script type="text/javascript"><![CDATA[
var edges = document.getElementsByTagName('g');
if (edges && edges.length) {
  for (var i=0;i<edges.length;i++) {
    if (edges[i].id.substr(0,4)=='edge') {
      edges[i].setAttribute('class','edge');
    }
  }
}
]]></script>
        <defs>
                <circle id="rim" cx="0" cy="0" r="7"/>
                <circle id="rim2" cx="0" cy="0" r="3.5"/>
                <g id="zoomPlus">
                        <use xlink:href="#rim" fill="#404040">
                                <set attributeName="fill" to="#808080" begin="zoomplus.mouseover" end="zoomplus.mouseout"/>
                        </use>
                        <path d="M-4,0h8M0,-4v8" fill="none" stroke="white" stroke-width="1.5" pointer-events="none"/>
                </g>
                <g id="zoomMin">
                        <use xlink:href="#rim" fill="#404040">
                                <set attributeName="fill" to="#808080" begin="zoomminus.mouseover" end="zoomminus.mouseout"/>
                        </use>
                        <path d="M-4,0h8" fill="none" stroke="white" stroke-width="1.5" pointer-events="none"/>
                </g>
                <g id="dirArrow">
                        <path fill="none" stroke="white" stroke-width="1.5" d="M0,-3.0v7 M-2.5,-0.5L0,-3.0L2.5,-0.5"/>
                </g>
               <g id="resetDef">
                       <use xlink:href="#rim2" fill="#404040">
                               <set attributeName="fill" to="#808080" begin="reset.mouseover" end="reset.mouseout"/>
                       </use>
               </g>
        </defs>

<script type="text/javascript">
var viewWidth = 920;
var viewHeight = 556;
var sectionId = 'dynsection-0';
</script>
<script xlink:href="../../svgpan.js"/>
<svg id="graph" class="graph">
<g id="viewport">
<title>svcDataDictionaryRecord</title>
<!-- Node1 -->
<g id="node1" class="node">
<title>Node1</title>
<g id="a_node1"><a xlink:title=" ">
<polygon fill="#bfbfbf" stroke="black" points="576.5,-0.5 576.5,-84.5 794.5,-84.5 794.5,-0.5 576.5,-0.5"/>
<text text-anchor="middle" x="685.5" y="-66.1" font-family="Helvetica,sans-Serif" font-size="18.00">svcDataDictionaryRecord</text>
<polyline fill="none" stroke="black" points="576.5,-56.5 794.5,-56.5 "/>
<text text-anchor="middle" x="685.5" y="-38.1" font-family="Helvetica,sans-Serif" font-size="18.00"> </text>
<polyline fill="none" stroke="black" points="576.5,-28.5 794.5,-28.5 "/>
<text text-anchor="middle" x="685.5" y="-10.1" font-family="Helvetica,sans-Serif" font-size="18.00"> </text>
</a>
</g>
</g>
<!-- Node2 -->
<g id="node2" class="node">
<title>Node2</title>
<g id="a_node2"><a xlink:title=" ">
<polygon fill="none" stroke="#bfbfbf" points="84,-141.5 84,-225.5 321,-225.5 321,-141.5 84,-141.5"/>
<text text-anchor="middle" x="202.5" y="-207.1" font-family="Helvetica,sans-Serif" font-size="18.00">svcDataDictionaryDataType</text>
<polyline fill="none" stroke="#bfbfbf" points="84,-197.5 321,-197.5 "/>
<text text-anchor="middle" x="202.5" y="-179.1" font-family="Helvetica,sans-Serif" font-size="18.00"> </text>
<polyline fill="none" stroke="#bfbfbf" points="84,-169.5 321,-169.5 "/>
<text text-anchor="middle" x="202.5" y="-151.1" font-family="Helvetica,sans-Serif" font-size="18.00"> </text>
</a>
</g>
</g>
<!-- Node2&#45;&gt;Node1 -->
<g id="edge1" class="edge">
<title>Node2&#45;&gt;Node1</title>
<path fill="none" stroke="#404040" d="M320.02,-141.49C358.81,-128.52 402.32,-114.55 442.5,-103 482.02,-91.64 525.55,-80.54 564.71,-71.07"/>
<polygon fill="none" stroke="#404040" points="564.78,-71.05 569.68,-65.76 576.44,-68.24 571.55,-73.54 564.78,-71.05"/>
<text text-anchor="middle" x="490.5" y="-108.6" font-family="Helvetica,sans-Serif" font-size="18.00"> +data_type</text>
</g>
<!-- Node3 -->
<g id="node3" class="node">
<title>Node3</title>
<g id="a_node3"><a xlink:title=" ">
<polygon fill="none" stroke="#bfbfbf" points="339,-141.5 339,-225.5 596,-225.5 596,-141.5 339,-141.5"/>
<text text-anchor="middle" x="467.5" y="-207.1" font-family="Helvetica,sans-Serif" font-size="18.00">svcDataDictionaryRecordType</text>
<polyline fill="none" stroke="#bfbfbf" points="339,-197.5 596,-197.5 "/>
<text text-anchor="middle" x="467.5" y="-179.1" font-family="Helvetica,sans-Serif" font-size="18.00"> </text>
<polyline fill="none" stroke="#bfbfbf" points="339,-169.5 596,-169.5 "/>
<text text-anchor="middle" x="467.5" y="-151.1" font-family="Helvetica,sans-Serif" font-size="18.00"> </text>
</a>
</g>
</g>
<!-- Node3&#45;&gt;Node1 -->
<g id="edge2" class="edge">
<title>Node3&#45;&gt;Node1</title>
<path fill="none" stroke="#404040" d="M516.45,-141.33C532.84,-128.38 551.52,-114.47 569.5,-103 576.17,-98.75 583.17,-94.55 590.3,-90.46"/>
<polygon fill="none" stroke="#404040" points="590.35,-90.44 593.62,-84.02 600.81,-84.57 597.54,-90.99 590.35,-90.44"/>
<text text-anchor="middle" x="625.5" y="-108.6" font-family="Helvetica,sans-Serif" font-size="18.00"> +record_type</text>
</g>
<!-- Node4 -->
<g id="node4" class="node">
<title>Node4</title>
<g id="a_node4"><a xlink:href="../../da/d2d/unionvalue__container.html" target="_top" xlink:title=" ">
<polygon fill="none" stroke="black" points="614,-141.5 614,-225.5 757,-225.5 757,-141.5 614,-141.5"/>
<text text-anchor="middle" x="685.5" y="-207.1" font-family="Helvetica,sans-Serif" font-size="18.00">value_container</text>
<polyline fill="none" stroke="black" points="614,-197.5 757,-197.5 "/>
<text text-anchor="middle" x="685.5" y="-179.1" font-family="Helvetica,sans-Serif" font-size="18.00"> </text>
<polyline fill="none" stroke="black" points="614,-169.5 757,-169.5 "/>
<text text-anchor="middle" x="685.5" y="-151.1" font-family="Helvetica,sans-Serif" font-size="18.00"> </text>
</a>
</g>
</g>
<!-- Node4&#45;&gt;Node1 -->
<g id="edge3" class="edge">
<title>Node4&#45;&gt;Node1</title>
<path fill="none" stroke="#404040" d="M685.5,-141.17C685.5,-127.29 685.5,-111.61 685.5,-96.94"/>
<polygon fill="none" stroke="#404040" points="685.5,-96.91 681.5,-90.91 685.5,-84.91 689.5,-90.91 685.5,-96.91"/>
<text text-anchor="middle" x="705" y="-108.6" font-family="Helvetica,sans-Serif" font-size="18.00"> +val</text>
</g>
<!-- Node5 -->
<g id="node5" class="node">
<title>Node5</title>
<g id="a_node5"><a xlink:title=" ">
<polygon fill="none" stroke="#bfbfbf" points="0,-463.5 0,-547.5 71,-547.5 71,-463.5 0,-463.5"/>
<text text-anchor="middle" x="35.5" y="-529.1" font-family="Helvetica,sans-Serif" font-size="18.00">int32_t</text>
<polyline fill="none" stroke="#bfbfbf" points="0,-519.5 71,-519.5 "/>
<text text-anchor="middle" x="35.5" y="-501.1" font-family="Helvetica,sans-Serif" font-size="18.00"> </text>
<polyline fill="none" stroke="#bfbfbf" points="0,-491.5 71,-491.5 "/>
<text text-anchor="middle" x="35.5" y="-473.1" font-family="Helvetica,sans-Serif" font-size="18.00"> </text>
</a>
</g>
</g>
<!-- Node5&#45;&gt;Node4 -->
<g id="edge4" class="edge">
<title>Node5&#45;&gt;Node4</title>
<path fill="none" stroke="#404040" d="M31.29,-463.34C31.11,-444.62 33.45,-422.74 42.5,-405 74.92,-341.49 101.78,-333.99 165.5,-302 265.12,-251.99 299.5,-262.03 409.5,-244 492.03,-230.47 519.17,-248.84 601.87,-226.68"/>
<polygon fill="none" stroke="#404040" points="602.09,-226.62 606.78,-221.14 613.64,-223.36 608.95,-228.84 602.09,-226.62"/>
<text text-anchor="middle" x="209.5" y="-340.1" font-family="Helvetica,sans-Serif" font-size="18.00"> +int32_val</text>
</g>
<!-- Node6 -->
<g id="node6" class="node">
<title>Node6</title>
<g id="a_node6"><a xlink:href="../../de/d5d/unionpointer__container.html" target="_top" xlink:title=" ">
<polygon fill="none" stroke="black" points="262.5,-302.5 262.5,-386.5 418.5,-386.5 418.5,-302.5 262.5,-302.5"/>
<text text-anchor="middle" x="340.5" y="-368.1" font-family="Helvetica,sans-Serif" font-size="18.00">pointer_container</text>
<polyline fill="none" stroke="black" points="262.5,-358.5 418.5,-358.5 "/>
<text text-anchor="middle" x="340.5" y="-340.1" font-family="Helvetica,sans-Serif" font-size="18.00"> </text>
<polyline fill="none" stroke="black" points="262.5,-330.5 418.5,-330.5 "/>
<text text-anchor="middle" x="340.5" y="-312.1" font-family="Helvetica,sans-Serif" font-size="18.00"> </text>
</a>
</g>
</g>
<!-- Node5&#45;&gt;Node6 -->
<g id="edge7" class="edge">
<title>Node5&#45;&gt;Node6</title>
<path fill="none" stroke="#404040" d="M40.04,-463.45C44.39,-443.13 52.89,-419.83 69.5,-405 83.2,-392.77 176.76,-373.99 250.16,-360.81"/>
<polygon fill="none" stroke="#404040" points="250.4,-360.77 255.61,-355.78 262.21,-358.67 257.01,-363.66 250.4,-360.77"/>
<text text-anchor="middle" x="118.5" y="-420.6" font-family="Helvetica,sans-Serif" font-size="18.00"> +pint32_val</text>
</g>
<!-- Node6&#45;&gt;Node4 -->
<g id="edge5" class="edge">
<title>Node6&#45;&gt;Node4</title>
<path fill="none" stroke="#404040" d="M387.54,-302.44C413.99,-281.59 448.63,-257.81 483.5,-244 530.97,-225.19 550.61,-240.43 601.78,-226.69"/>
<polygon fill="none" stroke="#404040" points="602.08,-226.6 606.69,-221.05 613.58,-223.17 608.97,-228.72 602.08,-226.6"/>
<text text-anchor="middle" x="577.5" y="-259.6" font-family="Helvetica,sans-Serif" font-size="18.00"> +pointer_container_val</text>
</g>
<!-- Node7 -->
<g id="node7" class="node">
<title>Node7</title>
<g id="a_node7"><a xlink:title=" ">
<polygon fill="none" stroke="#bfbfbf" points="253,-463.5 253,-547.5 334,-547.5 334,-463.5 253,-463.5"/>
<text text-anchor="middle" x="293.5" y="-529.1" font-family="Helvetica,sans-Serif" font-size="18.00">uint16_t</text>
<polyline fill="none" stroke="#bfbfbf" points="253,-519.5 334,-519.5 "/>
<text text-anchor="middle" x="293.5" y="-501.1" font-family="Helvetica,sans-Serif" font-size="18.00"> </text>
<polyline fill="none" stroke="#bfbfbf" points="253,-491.5 334,-491.5 "/>
<text text-anchor="middle" x="293.5" y="-473.1" font-family="Helvetica,sans-Serif" font-size="18.00"> </text>
</a>
</g>
</g>
<!-- Node7&#45;&gt;Node6 -->
<g id="edge6" class="edge">
<title>Node7&#45;&gt;Node6</title>
<path fill="none" stroke="#404040" d="M288.1,-463.31C287.15,-444.99 288.1,-423.44 294.5,-405 295.39,-402.44 296.43,-399.91 297.6,-397.42"/>
<polygon fill="none" stroke="#404040" points="297.68,-397.28 297.06,-390.09 303.45,-386.75 304.07,-393.94 297.68,-397.28"/>
<text text-anchor="middle" x="349" y="-420.6" font-family="Helvetica,sans-Serif" font-size="18.00"> +puint16_val</text>
</g>
<!-- Node8 -->
<g id="node8" class="node">
<title>Node8</title>
<g id="a_node8"><a xlink:title=" ">
<polygon fill="none" stroke="#bfbfbf" points="648,-463.5 648,-547.5 729,-547.5 729,-463.5 648,-463.5"/>
<text text-anchor="middle" x="688.5" y="-529.1" font-family="Helvetica,sans-Serif" font-size="18.00">uint32_t</text>
<polyline fill="none" stroke="#bfbfbf" points="648,-519.5 729,-519.5 "/>
<text text-anchor="middle" x="688.5" y="-501.1" font-family="Helvetica,sans-Serif" font-size="18.00"> </text>
<polyline fill="none" stroke="#bfbfbf" points="648,-491.5 729,-491.5 "/>
<text text-anchor="middle" x="688.5" y="-473.1" font-family="Helvetica,sans-Serif" font-size="18.00"> </text>
</a>
</g>
</g>
<!-- Node8&#45;&gt;Node1 -->
<g id="edge13" class="edge">
<title>Node8&#45;&gt;Node1</title>
<path fill="none" stroke="#404040" d="M729.15,-474.55C754.37,-453.3 784.54,-422.35 798.5,-387 839.01,-284.46 813.93,-240.53 766.5,-141 758.65,-124.54 747.4,-108.51 735.76,-94.37"/>
<polygon fill="none" stroke="#404040" points="735.47,-94.03 728.54,-92.06 727.69,-84.9 734.62,-86.87 735.47,-94.03"/>
<text text-anchor="middle" x="864.5" y="-269.6" font-family="Helvetica,sans-Serif" font-size="18.00"> +key_hash</text>
<text text-anchor="middle" x="864.5" y="-249.6" font-family="Helvetica,sans-Serif" font-size="18.00">+owner</text>
</g>
<!-- Node8&#45;&gt;Node6 -->
<g id="edge8" class="edge">
<title>Node8&#45;&gt;Node6</title>
<path fill="none" stroke="#404040" d="M647.78,-472.45C618.9,-450.96 578.48,-423.34 539.5,-405 505.05,-388.8 465.18,-375.84 430.21,-366.21"/>
<polygon fill="none" stroke="#404040" points="430.14,-366.19 423.3,-368.49 418.55,-363.07 425.38,-360.76 430.14,-366.19"/>
<text text-anchor="middle" x="661" y="-420.6" font-family="Helvetica,sans-Serif" font-size="18.00"> +puint32_val</text>
</g>
<!-- Node9 -->
<g id="node9" class="node">
<title>Node9</title>
<g id="a_node9"><a xlink:title=" ">
<polygon fill="none" stroke="#bfbfbf" points="137,-463.5 137,-547.5 208,-547.5 208,-463.5 137,-463.5"/>
<text text-anchor="middle" x="172.5" y="-529.1" font-family="Helvetica,sans-Serif" font-size="18.00">int16_t</text>
<polyline fill="none" stroke="#bfbfbf" points="137,-519.5 208,-519.5 "/>
<text text-anchor="middle" x="172.5" y="-501.1" font-family="Helvetica,sans-Serif" font-size="18.00"> </text>
<polyline fill="none" stroke="#bfbfbf" points="137,-491.5 208,-491.5 "/>
<text text-anchor="middle" x="172.5" y="-473.1" font-family="Helvetica,sans-Serif" font-size="18.00"> </text>
</a>
</g>
</g>
<!-- Node9&#45;&gt;Node6 -->
<g id="edge9" class="edge">
<title>Node9&#45;&gt;Node6</title>
<path fill="none" stroke="#404040" d="M169.15,-463.48C169.66,-443.9 173.59,-421.26 186.5,-405 202.65,-384.65 226.67,-371.25 250.97,-362.43"/>
<polygon fill="none" stroke="#404040" points="251.12,-362.38 255.54,-356.69 262.5,-358.58 258.08,-364.28 251.12,-362.38"/>
<text text-anchor="middle" x="235.5" y="-420.6" font-family="Helvetica,sans-Serif" font-size="18.00"> +pint16_val</text>
</g>
<!-- Node10 -->
<g id="node10" class="node">
<title>Node10</title>
<g id="a_node10"><a xlink:title=" ">
<polygon fill="none" stroke="#bfbfbf" points="462.5,-463.5 462.5,-547.5 548.5,-547.5 548.5,-463.5 462.5,-463.5"/>
<text text-anchor="middle" x="505.5" y="-529.1" font-family="Helvetica,sans-Serif" font-size="18.00">float32_t</text>
<polyline fill="none" stroke="#bfbfbf" points="462.5,-519.5 548.5,-519.5 "/>
<text text-anchor="middle" x="505.5" y="-501.1" font-family="Helvetica,sans-Serif" font-size="18.00"> </text>
<polyline fill="none" stroke="#bfbfbf" points="462.5,-491.5 548.5,-491.5 "/>
<text text-anchor="middle" x="505.5" y="-473.1" font-family="Helvetica,sans-Serif" font-size="18.00"> </text>
</a>
</g>
</g>
<!-- Node10&#45;&gt;Node4 -->
<g id="edge11" class="edge">
<title>Node10&#45;&gt;Node4</title>
<path fill="none" stroke="#404040" d="M548.55,-491.77C595.14,-477.58 663.84,-455.28 671.5,-445 695.01,-413.44 693.05,-304.66 689.37,-238.06"/>
<polygon fill="none" stroke="#404040" points="689.35,-237.72 685,-231.97 688.64,-225.74 692.99,-231.5 689.35,-237.72"/>
<text text-anchor="middle" x="743" y="-340.1" font-family="Helvetica,sans-Serif" font-size="18.00"> +float32_val</text>
</g>
<!-- Node10&#45;&gt;Node6 -->
<g id="edge10" class="edge">
<title>Node10&#45;&gt;Node6</title>
<path fill="none" stroke="#404040" d="M462.24,-476.8C449.82,-467.61 436.84,-456.71 426.5,-445 412.92,-429.63 416.2,-421.1 403.5,-405 400.95,-401.77 398.23,-398.56 395.4,-395.38"/>
<polygon fill="none" stroke="#404040" points="395.39,-395.37 388.37,-393.71 387.2,-386.6 394.22,-388.25 395.39,-395.37"/>
<text text-anchor="middle" x="483" y="-430.6" font-family="Helvetica,sans-Serif" font-size="18.00"> +pfloat16_val</text>
<text text-anchor="middle" x="483" y="-410.6" font-family="Helvetica,sans-Serif" font-size="18.00">+pfloat32_val</text>
</g>
<!-- Node11 -->
<g id="node11" class="node">
<title>Node11</title>
<g id="a_node11"><a xlink:title=" ">
<polygon fill="none" stroke="#bfbfbf" points="844.5,-141.5 844.5,-225.5 896.5,-225.5 896.5,-141.5 844.5,-141.5"/>
<text text-anchor="middle" x="870.5" y="-207.1" font-family="Helvetica,sans-Serif" font-size="18.00">char</text>
<polyline fill="none" stroke="#bfbfbf" points="844.5,-197.5 896.5,-197.5 "/>
<text text-anchor="middle" x="870.5" y="-179.1" font-family="Helvetica,sans-Serif" font-size="18.00"> </text>
<polyline fill="none" stroke="#bfbfbf" points="844.5,-169.5 896.5,-169.5 "/>
<text text-anchor="middle" x="870.5" y="-151.1" font-family="Helvetica,sans-Serif" font-size="18.00"> </text>
</a>
</g>
</g>
<!-- Node11&#45;&gt;Node1 -->
<g id="edge12" class="edge">
<title>Node11&#45;&gt;Node1</title>
<path fill="none" stroke="#404040" d="M856.48,-141.2C850.25,-127.64 841.72,-113.39 830.5,-103 822.88,-95.95 814.32,-89.68 805.26,-84.11"/>
<polygon fill="none" stroke="#404040" points="805.24,-84.1 798.04,-84.58 794.84,-78.12 802.03,-77.64 805.24,-84.1"/>
<text text-anchor="middle" x="867.5" y="-108.6" font-family="Helvetica,sans-Serif" font-size="18.00"> +key</text>
</g>
</g>
</svg>
        <g id="navigator" transform="translate(0 0)" fill="#404254">
                <rect fill="#f2f5e9" fill-opacity="0.5" stroke="#606060" stroke-width=".5" x="0" y="0" width="60" height="60"/>
                <use id="zoomplus" xlink:href="#zoomPlus" x="17" y="9" onmousedown="handleZoom(evt,'in')"/>
                <use id="zoomminus" xlink:href="#zoomMin" x="42" y="9" onmousedown="handleZoom(evt,'out')"/>
                <use id="reset" xlink:href="#resetDef" x="30" y="36" onmousedown="handleReset()"/>
                <g id="arrowUp" xlink:href="#dirArrow" transform="translate(30 24)" onmousedown="handlePan(0,-1)">
                  <use xlink:href="#rim" fill="#404040">
                        <set attributeName="fill" to="#808080" begin="arrowUp.mouseover" end="arrowUp.mouseout"/>
                  </use>
                  <path fill="none" stroke="white" stroke-width="1.5" d="M0,-3.0v7 M-2.5,-0.5L0,-3.0L2.5,-0.5"/>
                </g>
                <g id="arrowRight" xlink:href="#dirArrow" transform="rotate(90) translate(36 -43)" onmousedown="handlePan(1,0)">
                  <use xlink:href="#rim" fill="#404040">
                        <set attributeName="fill" to="#808080" begin="arrowRight.mouseover" end="arrowRight.mouseout"/>
                  </use>
                  <path fill="none" stroke="white" stroke-width="1.5" d="M0,-3.0v7 M-2.5,-0.5L0,-3.0L2.5,-0.5"/>
                </g>
                <g id="arrowDown" xlink:href="#dirArrow" transform="rotate(180) translate(-30 -48)" onmousedown="handlePan(0,1)">
                  <use xlink:href="#rim" fill="#404040">
                        <set attributeName="fill" to="#808080" begin="arrowDown.mouseover" end="arrowDown.mouseout"/>
                  </use>
                  <path fill="none" stroke="white" stroke-width="1.5" d="M0,-3.0v7 M-2.5,-0.5L0,-3.0L2.5,-0.5"/>
                </g>
                <g id="arrowLeft" xlink:href="#dirArrow" transform="rotate(270) translate(-36 17)" onmousedown="handlePan(-1,0)">
                  <use xlink:href="#rim" fill="#404040">
                        <set attributeName="fill" to="#808080" begin="arrowLeft.mouseover" end="arrowLeft.mouseout"/>
                  </use>
                  <path fill="none" stroke="white" stroke-width="1.5" d="M0,-3.0v7 M-2.5,-0.5L0,-3.0L2.5,-0.5"/>
                </g>
        </g>
        <svg viewBox="0 0 15 15" width="100%" height="30px" preserveAspectRatio="xMaxYMin meet">
         <g id="arrow_out" transform="scale(0.3 0.3)">
          <a xlink:href="structsvc_data_dictionary_record__coll__graph_org.svg" target="_base">
           <rect id="button" ry="5" rx="5" y="6" x="6" height="38" width="38"
                fill="#f2f5e9" fill-opacity="0.5" stroke="#606060" stroke-width="1.0"/>
           <path id="arrow"
             d="M 11.500037,31.436501 C 11.940474,20.09759 22.043105,11.32322 32.158766,21.979434 L 37.068811,17.246167 C 37.068811,17.246167 37.088388,32 37.088388,32 L 22.160133,31.978069 C 22.160133,31.978069 26.997745,27.140456 26.997745,27.140456 C 18.528582,18.264221 13.291696,25.230495 11.500037,31.436501 z"
             style="fill:#404040;"/>
          </a>
         </g>
        </svg>
</svg>
