<?xml version="1.0" encoding="UTF-8" standalone="no"?>
<!DOCTYPE svg PUBLIC "-//W3C//DTD SVG 1.1//EN"
 "http://www.w3.org/Graphics/SVG/1.1/DTD/svg11.dtd">
<!-- Generated by graphviz version 2.47.3 (20210619.1520)
 -->
<!-- Title: D:/brian/Dev/Eris/ERISCore/lib/SdFat&#45;master/src/ExFatLib/ExFatDbg.cpp Pages: 1 -->
<svg width="1117pt" height="346pt"
 viewBox="0.00 0.00 1116.60 346.00" xmlns="http://www.w3.org/2000/svg" xmlns:xlink="http://www.w3.org/1999/xlink">
<g id="graph0" class="graph" transform="scale(1 1) rotate(0) translate(4 342)">
<title>D:/brian/Dev/Eris/ERISCore/lib/SdFat&#45;master/src/ExFatLib/ExFatDbg.cpp</title>
<polygon fill="white" stroke="transparent" points="-4,4 -4,-342 1112.6,-342 1112.6,4 -4,4"/>
<!-- Node1 -->
<g id="node1" class="node">
<title>Node1</title>
<g id="a_node1"><a xlink:title=" ">
<polygon fill="#bfbfbf" stroke="black" points="533.2,-290.5 533.2,-337.5 709.2,-337.5 709.2,-290.5 533.2,-290.5"/>
<text text-anchor="start" x="541.2" y="-323.9" font-family="Helvetica,sans-Serif" font-size="12.00">D:/brian/Dev/Eris/ERISCore</text>
<text text-anchor="start" x="541.2" y="-310.9" font-family="Helvetica,sans-Serif" font-size="12.00">/lib/SdFat&#45;master/src/ExFatLib</text>
<text text-anchor="middle" x="621.2" y="-297.9" font-family="Helvetica,sans-Serif" font-size="12.00">/ExFatDbg.cpp</text>
</a>
</g>
</g>
<!-- Node2 -->
<g id="node2" class="node">
<title>Node2</title>
<g id="a_node2"><a xlink:href="../../d6/d68/_ex_fat_volume_8h.html" target="_top" xlink:title=" ">
<polygon fill="white" stroke="black" points="615.2,-174.5 615.2,-195.5 711.2,-195.5 711.2,-174.5 615.2,-174.5"/>
<text text-anchor="middle" x="663.2" y="-181.9" font-family="Helvetica,sans-Serif" font-size="12.00">ExFatVolume.h</text>
</a>
</g>
</g>
<!-- Node1&#45;&gt;Node2 -->
<g id="edge1" class="edge">
<title>Node1&#45;&gt;Node2</title>
<path fill="none" stroke="midnightblue" d="M625.06,-290.24C628.21,-273.78 633.27,-251.15 640.2,-232 643.57,-222.69 648.33,-212.81 652.65,-204.61"/>
<polygon fill="midnightblue" stroke="midnightblue" points="655.86,-206.03 657.58,-195.58 649.72,-202.68 655.86,-206.03"/>
</g>
<!-- Node34 -->
<g id="node14" class="node">
<title>Node34</title>
<g id="a_node14"><a xlink:href="../../d4/d2c/upcase_8h.html" target="_top" xlink:title=" ">
<polygon fill="white" stroke="black" points="174.7,-116.5 174.7,-137.5 295.7,-137.5 295.7,-116.5 174.7,-116.5"/>
<text text-anchor="middle" x="235.2" y="-123.9" font-family="Helvetica,sans-Serif" font-size="12.00">../common/upcase.h</text>
</a>
</g>
</g>
<!-- Node1&#45;&gt;Node34 -->
<g id="edge15" class="edge">
<title>Node1&#45;&gt;Node34</title>
<path fill="none" stroke="midnightblue" d="M573.87,-290.32C492.89,-251.51 330.14,-173.5 264.06,-141.83"/>
<polygon fill="midnightblue" stroke="midnightblue" points="265.57,-138.67 255.04,-137.51 262.54,-144.99 265.57,-138.67"/>
</g>
<!-- Node35 -->
<g id="node15" class="node">
<title>Node35</title>
<g id="a_node15"><a xlink:href="../../d8/d23/_ex_fat_lib_8h.html" target="_top" xlink:title=" ">
<polygon fill="white" stroke="black" points="649.7,-232.5 649.7,-253.5 722.7,-253.5 722.7,-232.5 649.7,-232.5"/>
<text text-anchor="middle" x="686.2" y="-239.9" font-family="Helvetica,sans-Serif" font-size="12.00">ExFatLib.h</text>
</a>
</g>
</g>
<!-- Node1&#45;&gt;Node35 -->
<g id="edge17" class="edge">
<title>Node1&#45;&gt;Node35</title>
<path fill="none" stroke="midnightblue" d="M642.48,-290.41C651.44,-280.9 661.69,-270.01 670.02,-261.18"/>
<polygon fill="midnightblue" stroke="midnightblue" points="672.72,-263.41 677.03,-253.74 667.62,-258.61 672.72,-263.41"/>
</g>
<!-- Node3 -->
<g id="node3" class="node">
<title>Node3</title>
<g id="a_node3"><a xlink:href="../../dd/ddc/_ex_fat_file_8h.html" target="_top" xlink:title="ExFatFile class.">
<polygon fill="white" stroke="black" points="625.2,-116.5 625.2,-137.5 701.2,-137.5 701.2,-116.5 625.2,-116.5"/>
<text text-anchor="middle" x="663.2" y="-123.9" font-family="Helvetica,sans-Serif" font-size="12.00">ExFatFile.h</text>
</a>
</g>
</g>
<!-- Node2&#45;&gt;Node3 -->
<g id="edge2" class="edge">
<title>Node2&#45;&gt;Node3</title>
<path fill="none" stroke="midnightblue" d="M663.2,-174.25C663.2,-166.94 663.2,-156.69 663.2,-147.7"/>
<polygon fill="midnightblue" stroke="midnightblue" points="666.7,-147.64 663.2,-137.64 659.7,-147.64 666.7,-147.64"/>
</g>
<!-- Node4 -->
<g id="node4" class="node">
<title>Node4</title>
<g id="a_node4"><a xlink:title=" ">
<polygon fill="white" stroke="#bfbfbf" points="964.7,-58.5 964.7,-79.5 1017.7,-79.5 1017.7,-58.5 964.7,-58.5"/>
<text text-anchor="middle" x="991.2" y="-65.9" font-family="Helvetica,sans-Serif" font-size="12.00">limits.h</text>
</a>
</g>
</g>
<!-- Node3&#45;&gt;Node4 -->
<g id="edge3" class="edge">
<title>Node3&#45;&gt;Node4</title>
<path fill="none" stroke="midnightblue" d="M701.4,-121.52C755.74,-114.82 858.57,-100.92 954.66,-80.15"/>
<polygon fill="midnightblue" stroke="midnightblue" points="955.51,-83.54 964.53,-77.98 954.01,-76.71 955.51,-83.54"/>
</g>
<!-- Node5 -->
<g id="node5" class="node">
<title>Node5</title>
<g id="a_node5"><a xlink:title=" ">
<polygon fill="white" stroke="#bfbfbf" points="1036.2,-58.5 1036.2,-79.5 1090.2,-79.5 1090.2,-58.5 1036.2,-58.5"/>
<text text-anchor="middle" x="1063.2" y="-65.9" font-family="Helvetica,sans-Serif" font-size="12.00">string.h</text>
</a>
</g>
</g>
<!-- Node3&#45;&gt;Node5 -->
<g id="edge4" class="edge">
<title>Node3&#45;&gt;Node5</title>
<path fill="none" stroke="midnightblue" d="M701.22,-123.03C766.01,-117.56 902.06,-104.38 1026.12,-79.97"/>
<polygon fill="midnightblue" stroke="midnightblue" points="1027.05,-83.35 1036.17,-77.96 1025.68,-76.49 1027.05,-83.35"/>
</g>
<!-- Node6 -->
<g id="node6" class="node">
<title>Node6</title>
<g id="a_node6"><a xlink:href="../../df/d9b/_fs_date_time_8h.html" target="_top" xlink:title=" ">
<polygon fill="white" stroke="red" points="19.2,-58.5 19.2,-79.5 167.2,-79.5 167.2,-58.5 19.2,-58.5"/>
<text text-anchor="middle" x="93.2" y="-65.9" font-family="Helvetica,sans-Serif" font-size="12.00">../common/FsDateTime.h</text>
</a>
</g>
</g>
<!-- Node3&#45;&gt;Node6 -->
<g id="edge5" class="edge">
<title>Node3&#45;&gt;Node6</title>
<path fill="none" stroke="midnightblue" d="M624.97,-122.73C544.34,-115.75 350.74,-98.61 177.47,-80.11"/>
<polygon fill="midnightblue" stroke="midnightblue" points="177.72,-76.62 167.4,-79.04 176.97,-83.58 177.72,-76.62"/>
</g>
<!-- Node14 -->
<g id="node8" class="node">
<title>Node14</title>
<g id="a_node8"><a xlink:href="../../dc/dbc/_fs_api_constants_8h.html" target="_top" xlink:title=" ">
<polygon fill="white" stroke="red" points="185.7,-58.5 185.7,-79.5 352.7,-79.5 352.7,-58.5 185.7,-58.5"/>
<text text-anchor="middle" x="269.2" y="-65.9" font-family="Helvetica,sans-Serif" font-size="12.00">../common/FsApiConstants.h</text>
</a>
</g>
</g>
<!-- Node3&#45;&gt;Node14 -->
<g id="edge7" class="edge">
<title>Node3&#45;&gt;Node14</title>
<path fill="none" stroke="midnightblue" d="M625.06,-120.58C560.85,-111.45 429.97,-92.85 346.08,-80.93"/>
<polygon fill="midnightblue" stroke="midnightblue" points="346.49,-77.45 336.09,-79.51 345.5,-84.38 346.49,-77.45"/>
</g>
<!-- Node15 -->
<g id="node9" class="node">
<title>Node15</title>
<g id="a_node9"><a xlink:href="../../d8/d63/_fmt_number_8h.html" target="_top" xlink:title=" ">
<polygon fill="white" stroke="red" points="371.2,-58.5 371.2,-79.5 515.2,-79.5 515.2,-58.5 371.2,-58.5"/>
<text text-anchor="middle" x="443.2" y="-65.9" font-family="Helvetica,sans-Serif" font-size="12.00">../common/FmtNumber.h</text>
</a>
</g>
</g>
<!-- Node3&#45;&gt;Node15 -->
<g id="edge8" class="edge">
<title>Node3&#45;&gt;Node15</title>
<path fill="none" stroke="midnightblue" d="M625.38,-116.37C588,-106.86 530.73,-92.28 490.39,-82.01"/>
<polygon fill="midnightblue" stroke="midnightblue" points="491.08,-78.58 480.52,-79.5 489.35,-85.36 491.08,-78.58"/>
</g>
<!-- Node17 -->
<g id="node10" class="node">
<title>Node17</title>
<g id="a_node10"><a xlink:href="../../d6/d3f/_fs_name_8h.html" target="_top" xlink:title="FsName class.">
<polygon fill="white" stroke="red" points="533.2,-58.5 533.2,-79.5 661.2,-79.5 661.2,-58.5 533.2,-58.5"/>
<text text-anchor="middle" x="597.2" y="-65.9" font-family="Helvetica,sans-Serif" font-size="12.00">../common/FsName.h</text>
</a>
</g>
</g>
<!-- Node3&#45;&gt;Node17 -->
<g id="edge10" class="edge">
<title>Node3&#45;&gt;Node17</title>
<path fill="none" stroke="midnightblue" d="M651.7,-116.25C641.95,-107.97 627.77,-95.94 616.32,-86.22"/>
<polygon fill="midnightblue" stroke="midnightblue" points="618.45,-83.44 608.56,-79.64 613.92,-88.78 618.45,-83.44"/>
</g>
<!-- Node18 -->
<g id="node11" class="node">
<title>Node18</title>
<g id="a_node11"><a xlink:href="../../d7/dc8/_ex_fat_partition_8h.html" target="_top" xlink:title="ExFatPartition include file.">
<polygon fill="white" stroke="red" points="679.2,-58.5 679.2,-79.5 779.2,-79.5 779.2,-58.5 679.2,-58.5"/>
<text text-anchor="middle" x="729.2" y="-65.9" font-family="Helvetica,sans-Serif" font-size="12.00">ExFatPartition.h</text>
</a>
</g>
</g>
<!-- Node3&#45;&gt;Node18 -->
<g id="edge12" class="edge">
<title>Node3&#45;&gt;Node18</title>
<path fill="none" stroke="midnightblue" d="M674.69,-116.25C684.44,-107.97 698.62,-95.94 710.08,-86.22"/>
<polygon fill="midnightblue" stroke="midnightblue" points="712.47,-88.78 717.83,-79.64 707.94,-83.44 712.47,-88.78"/>
</g>
<!-- Node33 -->
<g id="node13" class="node">
<title>Node33</title>
<g id="a_node13"><a xlink:href="../../dd/dc9/_arduino_files_8h.html" target="_top" xlink:title=" ">
<polygon fill="white" stroke="red" points="797.7,-58.5 797.7,-79.5 946.7,-79.5 946.7,-58.5 797.7,-58.5"/>
<text text-anchor="middle" x="872.2" y="-65.9" font-family="Helvetica,sans-Serif" font-size="12.00">../common/ArduinoFiles.h</text>
</a>
</g>
</g>
<!-- Node3&#45;&gt;Node33 -->
<g id="edge14" class="edge">
<title>Node3&#45;&gt;Node33</title>
<path fill="none" stroke="midnightblue" d="M699.13,-116.37C734.48,-106.9 788.59,-92.4 826.88,-82.14"/>
<polygon fill="midnightblue" stroke="midnightblue" points="827.99,-85.47 836.74,-79.5 826.17,-78.71 827.99,-85.47"/>
</g>
<!-- Node7 -->
<g id="node7" class="node">
<title>Node7</title>
<g id="a_node7"><a xlink:title=" ">
<polygon fill="white" stroke="#bfbfbf" points="241.7,-0.5 241.7,-21.5 294.7,-21.5 294.7,-0.5 241.7,-0.5"/>
<text text-anchor="middle" x="268.2" y="-7.9" font-family="Helvetica,sans-Serif" font-size="12.00">stdint.h</text>
</a>
</g>
</g>
<!-- Node6&#45;&gt;Node7 -->
<g id="edge6" class="edge">
<title>Node6&#45;&gt;Node7</title>
<path fill="none" stroke="midnightblue" d="M123.28,-58.37C153.35,-48.75 199.62,-33.95 231.75,-23.66"/>
<polygon fill="midnightblue" stroke="midnightblue" points="233.2,-26.88 241.65,-20.49 231.06,-20.21 233.2,-26.88"/>
</g>
<!-- Node15&#45;&gt;Node7 -->
<g id="edge9" class="edge">
<title>Node15&#45;&gt;Node7</title>
<path fill="none" stroke="midnightblue" d="M413.11,-58.37C383.04,-48.75 336.78,-33.95 304.64,-23.66"/>
<polygon fill="midnightblue" stroke="midnightblue" points="305.33,-20.21 294.74,-20.49 303.2,-26.88 305.33,-20.21"/>
</g>
<!-- Node17&#45;&gt;Node7 -->
<g id="edge11" class="edge">
<title>Node17&#45;&gt;Node7</title>
<path fill="none" stroke="midnightblue" d="M541.02,-58.44C473.63,-46.97 362.6,-28.07 305.17,-18.29"/>
<polygon fill="midnightblue" stroke="midnightblue" points="305.54,-14.81 295.09,-16.58 304.37,-21.71 305.54,-14.81"/>
</g>
<!-- Node19 -->
<g id="node12" class="node">
<title>Node19</title>
<g id="a_node12"><a xlink:href="../../d7/df6/_block_device_8h.html" target="_top" xlink:title=" ">
<polygon fill="white" stroke="red" points="848.7,-0.5 848.7,-21.5 997.7,-21.5 997.7,-0.5 848.7,-0.5"/>
<text text-anchor="middle" x="923.2" y="-7.9" font-family="Helvetica,sans-Serif" font-size="12.00">../common/BlockDevice.h</text>
</a>
</g>
</g>
<!-- Node18&#45;&gt;Node19 -->
<g id="edge13" class="edge">
<title>Node18&#45;&gt;Node19</title>
<path fill="none" stroke="midnightblue" d="M762.55,-58.37C795.23,-48.94 845.16,-34.53 880.68,-24.27"/>
<polygon fill="midnightblue" stroke="midnightblue" points="881.65,-27.64 890.28,-21.5 879.71,-20.91 881.65,-27.64"/>
</g>
<!-- Node34&#45;&gt;Node7 -->
<g id="edge16" class="edge">
<title>Node34&#45;&gt;Node7</title>
<path fill="none" stroke="midnightblue" d="M174.67,-126.46C93.07,-125.02 -36.9,-114.24 10.2,-58 38.01,-24.79 167.17,-15.54 231.54,-12.97"/>
<polygon fill="midnightblue" stroke="midnightblue" points="231.79,-16.47 241.65,-12.6 231.53,-9.47 231.79,-16.47"/>
</g>
<!-- Node35&#45;&gt;Node2 -->
<g id="edge18" class="edge">
<title>Node35&#45;&gt;Node2</title>
<path fill="none" stroke="midnightblue" d="M682.19,-232.25C679.12,-224.78 674.8,-214.24 671.05,-205.11"/>
<polygon fill="midnightblue" stroke="midnightblue" points="674.2,-203.56 667.16,-195.64 667.72,-206.22 674.2,-203.56"/>
</g>
<!-- Node36 -->
<g id="node16" class="node">
<title>Node36</title>
<g id="a_node16"><a xlink:href="../../d8/d58/_ex_fat_formatter_8h.html" target="_top" xlink:title=" ">
<polygon fill="white" stroke="black" points="897.7,-174.5 897.7,-195.5 1004.7,-195.5 1004.7,-174.5 897.7,-174.5"/>
<text text-anchor="middle" x="951.2" y="-181.9" font-family="Helvetica,sans-Serif" font-size="12.00">ExFatFormatter.h</text>
</a>
</g>
</g>
<!-- Node35&#45;&gt;Node36 -->
<g id="edge19" class="edge">
<title>Node35&#45;&gt;Node36</title>
<path fill="none" stroke="midnightblue" d="M722.77,-234.27C767.63,-224.79 844.1,-208.63 896.1,-197.64"/>
<polygon fill="midnightblue" stroke="midnightblue" points="897.09,-201.01 906.15,-195.52 895.64,-194.16 897.09,-201.01"/>
</g>
<!-- Node36&#45;&gt;Node19 -->
<g id="edge20" class="edge">
<title>Node36&#45;&gt;Node19</title>
<path fill="none" stroke="midnightblue" d="M980.49,-174.38C1034.13,-155.22 1139.11,-109.68 1099.2,-58 1087.03,-42.24 1044.14,-30.84 1003.75,-23.34"/>
<polygon fill="midnightblue" stroke="midnightblue" points="1004.29,-19.88 993.83,-21.56 1003.06,-26.77 1004.29,-19.88"/>
</g>
</g>
</svg>
