<?xml version="1.0" encoding="UTF-8" standalone="no"?>
<!DOCTYPE svg PUBLIC "-//W3C//DTD SVG 1.1//EN"
 "http://www.w3.org/Graphics/SVG/1.1/DTD/svg11.dtd">
<!-- Generated by graphviz version 2.47.3 (20210619.1520)
 -->
<!-- Title: handleClockCallback Pages: 1 -->
<!--zoomable 409 -->
<svg id="main" version="1.1" xmlns="http://www.w3.org/2000/svg" xmlns:xlink="http://www.w3.org/1999/xlink" xml:space="preserve" onload="init(evt)">
<style type="text/css"><![CDATA[
.edge:hover path { stroke: red; }
.edge:hover polygon { stroke: red; fill: red; }
]]></style>
<script type="text/javascript"><![CDATA[
var edges = document.getElementsByTagName('g');
if (edges && edges.length) {
  for (var i=0;i<edges.length;i++) {
    if (edges[i].id.substr(0,4)=='edge') {
      edges[i].setAttribute('class','edge');
    }
  }
}
]]></script>
        <defs>
                <circle id="rim" cx="0" cy="0" r="7"/>
                <circle id="rim2" cx="0" cy="0" r="3.5"/>
                <g id="zoomPlus">
                        <use xlink:href="#rim" fill="#404040">
                                <set attributeName="fill" to="#808080" begin="zoomplus.mouseover" end="zoomplus.mouseout"/>
                        </use>
                        <path d="M-4,0h8M0,-4v8" fill="none" stroke="white" stroke-width="1.5" pointer-events="none"/>
                </g>
                <g id="zoomMin">
                        <use xlink:href="#rim" fill="#404040">
                                <set attributeName="fill" to="#808080" begin="zoomminus.mouseover" end="zoomminus.mouseout"/>
                        </use>
                        <path d="M-4,0h8" fill="none" stroke="white" stroke-width="1.5" pointer-events="none"/>
                </g>
                <g id="dirArrow">
                        <path fill="none" stroke="white" stroke-width="1.5" d="M0,-3.0v7 M-2.5,-0.5L0,-3.0L2.5,-0.5"/>
                </g>
               <g id="resetDef">
                       <use xlink:href="#rim2" fill="#404040">
                               <set attributeName="fill" to="#808080" begin="reset.mouseover" end="reset.mouseout"/>
                       </use>
               </g>
        </defs>

<script type="text/javascript">
var viewWidth = 1453;
var viewHeight = 409;
var sectionId = 'dynsection-0';
</script>
<script xlink:href="../../svgpan.js"/>
<svg id="graph" class="graph">
<g id="viewport">
<title>handleClockCallback</title>
<!-- Node1 -->
<g id="node1" class="node">
<title>Node1</title>
<g id="a_node1"><a xlink:title=" ">
<polygon fill="#bfbfbf" stroke="black" points="0,-113.5 0,-141.5 187,-141.5 187,-113.5 0,-113.5"/>
<text text-anchor="middle" x="93.5" y="-123.1" font-family="Helvetica,sans-Serif" font-size="18.00">handleClockCallback</text>
</a>
</g>
</g>
<!-- Node2 -->
<g id="node2" class="node">
<title>Node2</title>
<g id="a_node2"><a xlink:href="../../da/d96/class_app_manager_aa76d9691e8d029656413590fbe4dee86.html#aa76d9691e8d029656413590fbe4dee86" target="_top" xlink:title=" ">
<polygon fill="none" stroke="black" points="223,-159.5 223,-187.5 447,-187.5 447,-159.5 223,-159.5"/>
<text text-anchor="middle" x="335" y="-169.1" font-family="Helvetica,sans-Serif" font-size="18.00">AppManager::getInstance</text>
</a>
</g>
</g>
<!-- Node1&#45;&gt;Node2 -->
<g id="edge1" class="edge">
<title>Node1&#45;&gt;Node2</title>
<path fill="none" stroke="midnightblue" d="M167.66,-141.55C194,-146.61 223.91,-152.35 251.02,-157.56"/>
<polygon fill="midnightblue" stroke="midnightblue" points="250.4,-161.01 260.88,-159.46 251.72,-154.13 250.4,-161.01"/>
</g>
<!-- Node15 -->
<g id="node15" class="node">
<title>Node15</title>
<g id="a_node15"><a xlink:href="../../dc/d43/class_svc_data_dictionary_abcac7202c3bd21801ab64e48eee44056.html#abcac7202c3bd21801ab64e48eee44056" target="_top" xlink:title="update the value of an owned record &#160;creates a new record if one does not exist and &#160;initializes its ...">
<polygon fill="none" stroke="black" points="484.5,-43.5 484.5,-71.5 714.5,-71.5 714.5,-43.5 484.5,-43.5"/>
<text text-anchor="middle" x="599.5" y="-53.1" font-family="Helvetica,sans-Serif" font-size="18.00">SvcDataDictionary::update</text>
</a>
</g>
</g>
<!-- Node1&#45;&gt;Node15 -->
<g id="edge14" class="edge">
<title>Node1&#45;&gt;Node15</title>
<path fill="none" stroke="midnightblue" d="M187.23,-114.62C272.05,-102.84 397.65,-85.4 487.71,-72.89"/>
<polygon fill="midnightblue" stroke="midnightblue" points="488.26,-76.34 497.68,-71.5 487.3,-69.41 488.26,-76.34"/>
</g>
<!-- Node3 -->
<g id="node3" class="node">
<title>Node3</title>
<g id="a_node3"><a xlink:href="../../da/d96/class_app_manager_a9439da981933119c49a83a507d64eb23.html#a9439da981933119c49a83a507d64eb23" target="_top" xlink:title="Construct a new App Manager:: App Manager object using a private constructor (lazy singleton pattern)">
<polygon fill="none" stroke="black" points="483,-184.5 483,-212.5 716,-212.5 716,-184.5 483,-184.5"/>
<text text-anchor="middle" x="599.5" y="-194.1" font-family="Helvetica,sans-Serif" font-size="18.00">AppManager::AppManager</text>
</a>
</g>
</g>
<!-- Node2&#45;&gt;Node3 -->
<g id="edge2" class="edge">
<title>Node2&#45;&gt;Node3</title>
<path fill="none" stroke="midnightblue" d="M447.32,-184.1C455.76,-184.91 464.31,-185.72 472.83,-186.53"/>
<polygon fill="midnightblue" stroke="midnightblue" points="472.52,-190.02 482.8,-187.48 473.18,-183.05 472.52,-190.02"/>
</g>
<!-- Node4 -->
<g id="node4" class="node">
<title>Node4</title>
<g id="a_node4"><a xlink:href="../../d8/d5a/class_i_l_i9341__t3___e_r_i_s_a8c8c09d5ca51d5b4c611875df643bef6.html#a8c8c09d5ca51d5b4c611875df643bef6" target="_top" xlink:title=" ">
<polygon fill="none" stroke="black" points="776,-372.5 776,-400.5 982,-400.5 982,-372.5 776,-372.5"/>
<text text-anchor="middle" x="879" y="-382.1" font-family="Helvetica,sans-Serif" font-size="18.00">ILI9341_t3_ERIS::begin</text>
</a>
</g>
</g>
<!-- Node3&#45;&gt;Node4 -->
<g id="edge3" class="edge">
<title>Node3&#45;&gt;Node4</title>
<path fill="none" stroke="midnightblue" d="M609,-212.85C629.2,-245.55 683.56,-325.73 752,-363.5 756.57,-366.02 761.36,-368.27 766.29,-370.28"/>
<polygon fill="midnightblue" stroke="midnightblue" points="765.33,-373.66 775.92,-373.86 767.77,-367.1 765.33,-373.66"/>
</g>
<!-- Node5 -->
<g id="node5" class="node">
<title>Node5</title>
<g id="a_node5"><a xlink:href="../../d1/dff/class_touch_a057f1914b96362769a5384dbbfdb4195.html#a057f1914b96362769a5384dbbfdb4195" target="_top" xlink:title=" ">
<polygon fill="none" stroke="black" points="818,-325.5 818,-353.5 940,-353.5 940,-325.5 818,-325.5"/>
<text text-anchor="middle" x="879" y="-335.1" font-family="Helvetica,sans-Serif" font-size="18.00">Touch::begin</text>
</a>
</g>
</g>
<!-- Node3&#45;&gt;Node5 -->
<g id="edge4" class="edge">
<title>Node3&#45;&gt;Node5</title>
<path fill="none" stroke="midnightblue" d="M613.99,-212.82C638.74,-238.15 694.19,-290.6 752,-316.5 769.37,-324.28 789.22,-329.43 807.94,-332.84"/>
<polygon fill="midnightblue" stroke="midnightblue" points="807.46,-336.31 817.9,-334.51 808.62,-329.4 807.46,-336.31"/>
</g>
<!-- Node6 -->
<g id="node6" class="node">
<title>Node6</title>
<g id="a_node6"><a xlink:href="../../dc/d43/class_svc_data_dictionary_a3b09dc582adbb4d5c6f99f6e983a81f1.html#a3b09dc582adbb4d5c6f99f6e983a81f1" target="_top" xlink:title="create a record with ownership">
<polygon fill="none" stroke="black" points="767.5,-43.5 767.5,-71.5 990.5,-71.5 990.5,-43.5 767.5,-43.5"/>
<text text-anchor="middle" x="879" y="-53.1" font-family="Helvetica,sans-Serif" font-size="18.00">SvcDataDictionary::create</text>
</a>
</g>
</g>
<!-- Node3&#45;&gt;Node6 -->
<g id="edge5" class="edge">
<title>Node3&#45;&gt;Node6</title>
<path fill="none" stroke="midnightblue" d="M613.99,-184.18C638.74,-158.85 694.19,-106.4 752,-80.5 756.76,-78.37 761.71,-76.43 766.77,-74.68"/>
<polygon fill="midnightblue" stroke="midnightblue" points="768.16,-77.91 776.61,-71.52 766.02,-71.24 768.16,-77.91"/>
</g>
<!-- Node10 -->
<g id="node10" class="node">
<title>Node10</title>
<g id="a_node10"><a xlink:href="../../d1/dff/class_touch_a61a5d056f07ab08cb5924fa573dc3497.html#a61a5d056f07ab08cb5924fa573dc3497" target="_top" xlink:title=" ">
<polygon fill="none" stroke="black" points="760,-278.5 760,-306.5 998,-306.5 998,-278.5 760,-278.5"/>
<text text-anchor="middle" x="879" y="-288.1" font-family="Helvetica,sans-Serif" font-size="18.00">Touch::setCalibrationInputs</text>
</a>
</g>
</g>
<!-- Node3&#45;&gt;Node10 -->
<g id="edge9" class="edge">
<title>Node3&#45;&gt;Node10</title>
<path fill="none" stroke="midnightblue" d="M625.42,-212.63C654.8,-228.71 705.52,-254.64 752,-269.5 759.6,-271.93 767.55,-274.13 775.6,-276.12"/>
<polygon fill="midnightblue" stroke="midnightblue" points="774.92,-279.55 785.45,-278.44 776.52,-272.74 774.92,-279.55"/>
</g>
<!-- Node11 -->
<g id="node11" class="node">
<title>Node11</title>
<g id="a_node11"><a xlink:href="../../d4/d7c/class_animation_a997d1203ae9418f121f355a5bd0700f0.html#a997d1203ae9418f121f355a5bd0700f0" target="_top" xlink:title=" ">
<polygon fill="none" stroke="black" points="795,-231.5 795,-259.5 963,-259.5 963,-231.5 795,-231.5"/>
<text text-anchor="middle" x="879" y="-241.1" font-family="Helvetica,sans-Serif" font-size="18.00">Animation::setPath</text>
</a>
</g>
</g>
<!-- Node3&#45;&gt;Node11 -->
<g id="edge10" class="edge">
<title>Node3&#45;&gt;Node11</title>
<path fill="none" stroke="midnightblue" d="M683.38,-212.54C715.37,-217.96 752.11,-224.18 784.99,-229.75"/>
<polygon fill="midnightblue" stroke="midnightblue" points="784.62,-233.23 795.06,-231.45 785.79,-226.33 784.62,-233.23"/>
</g>
<!-- Node12 -->
<g id="node12" class="node">
<title>Node12</title>
<g id="a_node12"><a xlink:href="../../d8/d5a/class_i_l_i9341__t3___e_r_i_s_a449053e8db3672d4902d76f093e52b14.html#a449053e8db3672d4902d76f093e52b14" target="_top" xlink:title=" ">
<polygon fill="none" stroke="black" points="752,-184.5 752,-212.5 1006,-212.5 1006,-184.5 752,-184.5"/>
<text text-anchor="middle" x="879" y="-194.1" font-family="Helvetica,sans-Serif" font-size="18.00">ILI9341_t3_ERIS::setPWMPin</text>
</a>
</g>
</g>
<!-- Node3&#45;&gt;Node12 -->
<g id="edge11" class="edge">
<title>Node3&#45;&gt;Node12</title>
<path fill="none" stroke="midnightblue" d="M716.18,-198.5C724.62,-198.5 733.18,-198.5 741.73,-198.5"/>
<polygon fill="midnightblue" stroke="midnightblue" points="741.75,-202 751.75,-198.5 741.75,-195 741.75,-202"/>
</g>
<!-- Node13 -->
<g id="node13" class="node">
<title>Node13</title>
<g id="a_node13"><a xlink:href="../../d4/d7c/class_animation_ab5af4d2f56dce439c18ba9c4655f98f0.html#ab5af4d2f56dce439c18ba9c4655f98f0" target="_top" xlink:title=" ">
<polygon fill="none" stroke="black" points="801.5,-137.5 801.5,-165.5 956.5,-165.5 956.5,-137.5 801.5,-137.5"/>
<text text-anchor="middle" x="879" y="-147.1" font-family="Helvetica,sans-Serif" font-size="18.00">Animation::setSD</text>
</a>
</g>
</g>
<!-- Node3&#45;&gt;Node13 -->
<g id="edge12" class="edge">
<title>Node3&#45;&gt;Node13</title>
<path fill="none" stroke="midnightblue" d="M683.38,-184.46C717.4,-178.7 756.79,-172.03 791.2,-166.2"/>
<polygon fill="midnightblue" stroke="midnightblue" points="791.96,-169.62 801.23,-164.5 790.79,-162.72 791.96,-169.62"/>
</g>
<!-- Node14 -->
<g id="node14" class="node">
<title>Node14</title>
<g id="a_node14"><a xlink:href="../../d8/d5a/class_i_l_i9341__t3___e_r_i_s_a2bfdbf675a570c74b787fd222185f25f.html#a2bfdbf675a570c74b787fd222185f25f" target="_top" xlink:title=" ">
<polygon fill="none" stroke="black" points="774.5,-90.5 774.5,-118.5 983.5,-118.5 983.5,-90.5 774.5,-90.5"/>
<text text-anchor="middle" x="879" y="-100.1" font-family="Helvetica,sans-Serif" font-size="18.00">ILI9341_t3_ERIS::setSD</text>
</a>
</g>
</g>
<!-- Node3&#45;&gt;Node14 -->
<g id="edge13" class="edge">
<title>Node3&#45;&gt;Node14</title>
<path fill="none" stroke="midnightblue" d="M626,-184.36C655.49,-168.57 705.93,-143.28 752,-128.5 760.89,-125.65 770.25,-123.08 779.69,-120.79"/>
<polygon fill="midnightblue" stroke="midnightblue" points="780.58,-124.18 789.53,-118.5 779,-117.36 780.58,-124.18"/>
</g>
<!-- Node7 -->
<g id="node7" class="node">
<title>Node7</title>
<g id="a_node7"><a xlink:href="../../dc/d43/class_svc_data_dictionary_a7c7bd48b97fbcf18ef64337e12022619.html#a7c7bd48b97fbcf18ef64337e12022619" target="_top" xlink:title=" ">
<polygon fill="none" stroke="black" points="1042,-47.5 1042,-75.5 1284,-75.5 1284,-47.5 1042,-47.5"/>
<text text-anchor="middle" x="1163" y="-57.1" font-family="Helvetica,sans-Serif" font-size="18.00">SvcDataDictionary::copyKey</text>
</a>
</g>
</g>
<!-- Node6&#45;&gt;Node7 -->
<g id="edge6" class="edge">
<title>Node6&#45;&gt;Node7</title>
<path fill="none" stroke="midnightblue" d="M990.64,-59.07C1004.18,-59.26 1018.1,-59.46 1031.89,-59.65"/>
<polygon fill="midnightblue" stroke="midnightblue" points="1031.85,-63.15 1041.9,-59.8 1031.95,-56.15 1031.85,-63.15"/>
</g>
<!-- Node9 -->
<g id="node9" class="node">
<title>Node9</title>
<g id="a_node9"><a xlink:href="../../dc/d43/class_svc_data_dictionary_ac4b80e87e8e9cf82926af2105b4e424a.html#ac4b80e87e8e9cf82926af2105b4e424a" target="_top" xlink:title="hashing function used to accelerate searches">
<polygon fill="none" stroke="black" points="1056.5,-0.5 1056.5,-28.5 1269.5,-28.5 1269.5,-0.5 1056.5,-0.5"/>
<text text-anchor="middle" x="1163" y="-10.1" font-family="Helvetica,sans-Serif" font-size="18.00">SvcDataDictionary::hash</text>
</a>
</g>
</g>
<!-- Node6&#45;&gt;Node9 -->
<g id="edge8" class="edge">
<title>Node6&#45;&gt;Node9</title>
<path fill="none" stroke="midnightblue" d="M971.95,-43.48C1000.13,-39.18 1031.29,-34.43 1060.1,-30.04"/>
<polygon fill="midnightblue" stroke="midnightblue" points="1060.82,-33.47 1070.18,-28.5 1059.76,-26.55 1060.82,-33.47"/>
</g>
<!-- Node8 -->
<g id="node8" class="node">
<title>Node8</title>
<g id="a_node8"><a xlink:href="../../df/d51/_eris_utils_8h_acf90b2b3b47174f2ad15f9397a36dca1.html#acf90b2b3b47174f2ad15f9397a36dca1" target="_top" xlink:title="a safer strncpy">
<polygon fill="none" stroke="black" points="1320,-47.5 1320,-75.5 1445,-75.5 1445,-47.5 1320,-47.5"/>
<text text-anchor="middle" x="1382.5" y="-57.1" font-family="Helvetica,sans-Serif" font-size="18.00">safer_strncpy</text>
</a>
</g>
</g>
<!-- Node7&#45;&gt;Node8 -->
<g id="edge7" class="edge">
<title>Node7&#45;&gt;Node8</title>
<path fill="none" stroke="midnightblue" d="M1284.2,-61.5C1292.84,-61.5 1301.37,-61.5 1309.59,-61.5"/>
<polygon fill="midnightblue" stroke="midnightblue" points="1309.82,-65 1319.82,-61.5 1309.82,-58 1309.82,-65"/>
</g>
<!-- Node15&#45;&gt;Node6 -->
<g id="edge15" class="edge">
<title>Node15&#45;&gt;Node6</title>
<path fill="none" stroke="midnightblue" d="M714.57,-57.5C728.53,-57.5 742.82,-57.5 756.88,-57.5"/>
<polygon fill="midnightblue" stroke="midnightblue" points="757.06,-61 767.06,-57.5 757.06,-54 757.06,-61"/>
</g>
<!-- Node15&#45;&gt;Node9 -->
<g id="edge16" class="edge">
<title>Node15&#45;&gt;Node9</title>
<path fill="none" stroke="midnightblue" d="M678.52,-43.45C702.07,-39.66 728.02,-35.95 752,-33.5 851.01,-23.39 964.03,-18.66 1046.3,-16.44"/>
<polygon fill="midnightblue" stroke="midnightblue" points="1046.52,-19.94 1056.43,-16.18 1046.34,-12.94 1046.52,-19.94"/>
</g>
</g>
</svg>
        <g id="navigator" transform="translate(0 0)" fill="#404254">
                <rect fill="#f2f5e9" fill-opacity="0.5" stroke="#606060" stroke-width=".5" x="0" y="0" width="60" height="60"/>
                <use id="zoomplus" xlink:href="#zoomPlus" x="17" y="9" onmousedown="handleZoom(evt,'in')"/>
                <use id="zoomminus" xlink:href="#zoomMin" x="42" y="9" onmousedown="handleZoom(evt,'out')"/>
                <use id="reset" xlink:href="#resetDef" x="30" y="36" onmousedown="handleReset()"/>
                <g id="arrowUp" xlink:href="#dirArrow" transform="translate(30 24)" onmousedown="handlePan(0,-1)">
                  <use xlink:href="#rim" fill="#404040">
                        <set attributeName="fill" to="#808080" begin="arrowUp.mouseover" end="arrowUp.mouseout"/>
                  </use>
                  <path fill="none" stroke="white" stroke-width="1.5" d="M0,-3.0v7 M-2.5,-0.5L0,-3.0L2.5,-0.5"/>
                </g>
                <g id="arrowRight" xlink:href="#dirArrow" transform="rotate(90) translate(36 -43)" onmousedown="handlePan(1,0)">
                  <use xlink:href="#rim" fill="#404040">
                        <set attributeName="fill" to="#808080" begin="arrowRight.mouseover" end="arrowRight.mouseout"/>
                  </use>
                  <path fill="none" stroke="white" stroke-width="1.5" d="M0,-3.0v7 M-2.5,-0.5L0,-3.0L2.5,-0.5"/>
                </g>
                <g id="arrowDown" xlink:href="#dirArrow" transform="rotate(180) translate(-30 -48)" onmousedown="handlePan(0,1)">
                  <use xlink:href="#rim" fill="#404040">
                        <set attributeName="fill" to="#808080" begin="arrowDown.mouseover" end="arrowDown.mouseout"/>
                  </use>
                  <path fill="none" stroke="white" stroke-width="1.5" d="M0,-3.0v7 M-2.5,-0.5L0,-3.0L2.5,-0.5"/>
                </g>
                <g id="arrowLeft" xlink:href="#dirArrow" transform="rotate(270) translate(-36 17)" onmousedown="handlePan(-1,0)">
                  <use xlink:href="#rim" fill="#404040">
                        <set attributeName="fill" to="#808080" begin="arrowLeft.mouseover" end="arrowLeft.mouseout"/>
                  </use>
                  <path fill="none" stroke="white" stroke-width="1.5" d="M0,-3.0v7 M-2.5,-0.5L0,-3.0L2.5,-0.5"/>
                </g>
        </g>
        <svg viewBox="0 0 15 15" width="100%" height="30px" preserveAspectRatio="xMaxYMin meet">
         <g id="arrow_out" transform="scale(0.3 0.3)">
          <a xlink:href="_svc_m_i_d_i_8cpp_a6d857242d61d888fdbc008553e13cfa4_a6d857242d61d888fdbc008553e13cfa4_cgraph_org.svg" target="_base">
           <rect id="button" ry="5" rx="5" y="6" x="6" height="38" width="38"
                fill="#f2f5e9" fill-opacity="0.5" stroke="#606060" stroke-width="1.0"/>
           <path id="arrow"
             d="M 11.500037,31.436501 C 11.940474,20.09759 22.043105,11.32322 32.158766,21.979434 L 37.068811,17.246167 C 37.068811,17.246167 37.088388,32 37.088388,32 L 22.160133,31.978069 C 22.160133,31.978069 26.997745,27.140456 26.997745,27.140456 C 18.528582,18.264221 13.291696,25.230495 11.500037,31.436501 z"
             style="fill:#404040;"/>
          </a>
         </g>
        </svg>
</svg>
