<?xml version="1.0" encoding="UTF-8" standalone="no"?>
<!DOCTYPE svg PUBLIC "-//W3C//DTD SVG 1.1//EN"
 "http://www.w3.org/Graphics/SVG/1.1/DTD/svg11.dtd">
<!-- Generated by graphviz version 2.47.3 (20210619.1520)
 -->
<!-- Title: ios.h Pages: 1 -->
<svg width="420pt" height="320pt"
 viewBox="0.00 0.00 419.74 320.00" xmlns="http://www.w3.org/2000/svg" xmlns:xlink="http://www.w3.org/1999/xlink">
<g id="graph0" class="graph" transform="scale(1 1) rotate(0) translate(4 316)">
<title>ios.h</title>
<polygon fill="white" stroke="transparent" points="-4,4 -4,-316 415.74,-316 415.74,4 -4,4"/>
<!-- Node1 -->
<g id="node1" class="node">
<title>Node1</title>
<g id="a_node1"><a xlink:title="ios_base and ios classes">
<polygon fill="#bfbfbf" stroke="black" points="201.5,-290.5 201.5,-311.5 242.5,-311.5 242.5,-290.5 201.5,-290.5"/>
<text text-anchor="middle" x="222" y="-297.9" font-family="Helvetica,sans-Serif" font-size="12.00">ios.h</text>
</a>
</g>
</g>
<!-- Node2 -->
<g id="node2" class="node">
<title>Node2</title>
<g id="a_node2"><a xlink:href="../../db/dc9/istream_8h.html" target="_top" xlink:title="istream class">
<polygon fill="white" stroke="black" points="99.5,-232.5 99.5,-253.5 164.5,-253.5 164.5,-232.5 99.5,-232.5"/>
<text text-anchor="middle" x="132" y="-239.9" font-family="Helvetica,sans-Serif" font-size="12.00">istream.h</text>
</a>
</g>
</g>
<!-- Node1&#45;&gt;Node2 -->
<g id="edge1" class="edge">
<title>Node1&#45;&gt;Node2</title>
<path fill="none" stroke="midnightblue" d="M197.52,-284.77C181.57,-274.85 161.25,-262.2 147.5,-253.64"/>
<polygon fill="midnightblue" stroke="midnightblue" points="195.98,-287.93 206.32,-290.25 199.68,-281.99 195.98,-287.93"/>
</g>
<!-- Node10 -->
<g id="node10" class="node">
<title>Node10</title>
<g id="a_node10"><a xlink:href="../../da/d2d/_stdio_stream_8h.html" target="_top" xlink:title="StdioStream class.">
<polygon fill="white" stroke="black" points="293,-232.5 293,-253.5 385,-253.5 385,-232.5 293,-232.5"/>
<text text-anchor="middle" x="339" y="-239.9" font-family="Helvetica,sans-Serif" font-size="12.00">StdioStream.h</text>
</a>
</g>
</g>
<!-- Node1&#45;&gt;Node10 -->
<g id="edge10" class="edge">
<title>Node1&#45;&gt;Node10</title>
<path fill="none" stroke="midnightblue" d="M251.3,-285.97C272.49,-275.83 300.54,-262.41 319.15,-253.5"/>
<polygon fill="midnightblue" stroke="midnightblue" points="249.62,-282.9 242.11,-290.37 252.64,-289.21 249.62,-282.9"/>
</g>
<!-- Node12 -->
<g id="node12" class="node">
<title>Node12</title>
<g id="a_node12"><a xlink:href="../../dc/d64/ostream_8h.html" target="_top" xlink:title="ostream class">
<polygon fill="white" stroke="black" points="188,-232.5 188,-253.5 256,-253.5 256,-232.5 188,-232.5"/>
<text text-anchor="middle" x="222" y="-239.9" font-family="Helvetica,sans-Serif" font-size="12.00">ostream.h</text>
</a>
</g>
</g>
<!-- Node1&#45;&gt;Node12 -->
<g id="edge13" class="edge">
<title>Node1&#45;&gt;Node12</title>
<path fill="none" stroke="midnightblue" d="M222,-280.16C222,-271.16 222,-260.92 222,-253.64"/>
<polygon fill="midnightblue" stroke="midnightblue" points="218.5,-280.25 222,-290.25 225.5,-280.25 218.5,-280.25"/>
</g>
<!-- Node3 -->
<g id="node3" class="node">
<title>Node3</title>
<g id="a_node3"><a xlink:href="../../d7/d52/istream_8cpp.html" target="_top" xlink:title=" ">
<polygon fill="white" stroke="black" points="0,-174.5 0,-195.5 78,-195.5 78,-174.5 0,-174.5"/>
<text text-anchor="middle" x="39" y="-181.9" font-family="Helvetica,sans-Serif" font-size="12.00">istream.cpp</text>
</a>
</g>
</g>
<!-- Node2&#45;&gt;Node3 -->
<g id="edge2" class="edge">
<title>Node2&#45;&gt;Node3</title>
<path fill="none" stroke="midnightblue" d="M107.17,-227.05C90.62,-217.08 69.36,-204.28 55.01,-195.64"/>
<polygon fill="midnightblue" stroke="midnightblue" points="105.43,-230.09 115.8,-232.25 109.04,-224.09 105.43,-230.09"/>
</g>
<!-- Node4 -->
<g id="node4" class="node">
<title>Node4</title>
<g id="a_node4"><a xlink:href="../../dd/d27/iostream_8h.html" target="_top" xlink:title="iostream class">
<polygon fill="white" stroke="black" points="96.5,-174.5 96.5,-195.5 167.5,-195.5 167.5,-174.5 96.5,-174.5"/>
<text text-anchor="middle" x="132" y="-181.9" font-family="Helvetica,sans-Serif" font-size="12.00">iostream.h</text>
</a>
</g>
</g>
<!-- Node2&#45;&gt;Node4 -->
<g id="edge3" class="edge">
<title>Node2&#45;&gt;Node4</title>
<path fill="none" stroke="midnightblue" d="M132,-222.16C132,-213.16 132,-202.92 132,-195.64"/>
<polygon fill="midnightblue" stroke="midnightblue" points="128.5,-222.25 132,-232.25 135.5,-222.25 128.5,-222.25"/>
</g>
<!-- Node5 -->
<g id="node5" class="node">
<title>Node5</title>
<g id="a_node5"><a xlink:href="../../d0/df5/bufstream_8h.html" target="_top" xlink:title="ibufstream and obufstream classes">
<polygon fill="white" stroke="black" points="93.5,-116.5 93.5,-137.5 170.5,-137.5 170.5,-116.5 93.5,-116.5"/>
<text text-anchor="middle" x="132" y="-123.9" font-family="Helvetica,sans-Serif" font-size="12.00">bufstream.h</text>
</a>
</g>
</g>
<!-- Node4&#45;&gt;Node5 -->
<g id="edge4" class="edge">
<title>Node4&#45;&gt;Node5</title>
<path fill="none" stroke="midnightblue" d="M132,-164.16C132,-155.16 132,-144.92 132,-137.64"/>
<polygon fill="midnightblue" stroke="midnightblue" points="128.5,-164.25 132,-174.25 135.5,-164.25 128.5,-164.25"/>
</g>
<!-- Node8 -->
<g id="node8" class="node">
<title>Node8</title>
<g id="a_node8"><a xlink:href="../../de/d25/fstream_8h.html" target="_top" xlink:title="iostreams for files.">
<polygon fill="white" stroke="black" points="237.5,-116.5 237.5,-137.5 302.5,-137.5 302.5,-116.5 237.5,-116.5"/>
<text text-anchor="middle" x="270" y="-123.9" font-family="Helvetica,sans-Serif" font-size="12.00">fstream.h</text>
</a>
</g>
</g>
<!-- Node4&#45;&gt;Node8 -->
<g id="edge7" class="edge">
<title>Node4&#45;&gt;Node8</title>
<path fill="none" stroke="midnightblue" d="M165.22,-170.52C190.35,-160.32 224.24,-146.57 246.59,-137.5"/>
<polygon fill="midnightblue" stroke="midnightblue" points="163.67,-167.37 155.72,-174.37 166.31,-173.86 163.67,-167.37"/>
</g>
<!-- Node6 -->
<g id="node6" class="node">
<title>Node6</title>
<g id="a_node6"><a xlink:href="../../d7/d76/_arduino_stream_8h.html" target="_top" xlink:title="ArduinoInStream and ArduinoOutStream classes.">
<polygon fill="white" stroke="black" points="80,-58.5 80,-79.5 184,-79.5 184,-58.5 80,-58.5"/>
<text text-anchor="middle" x="132" y="-65.9" font-family="Helvetica,sans-Serif" font-size="12.00">ArduinoStream.h</text>
</a>
</g>
</g>
<!-- Node5&#45;&gt;Node6 -->
<g id="edge5" class="edge">
<title>Node5&#45;&gt;Node6</title>
<path fill="none" stroke="midnightblue" d="M132,-106.16C132,-97.16 132,-86.92 132,-79.64"/>
<polygon fill="midnightblue" stroke="midnightblue" points="128.5,-106.25 132,-116.25 135.5,-106.25 128.5,-106.25"/>
</g>
<!-- Node7 -->
<g id="node7" class="node">
<title>Node7</title>
<g id="a_node7"><a xlink:href="../../d8/d12/sdios_8h.html" target="_top" xlink:title="C++ IO Streams features.">
<polygon fill="white" stroke="black" points="339,-0.5 339,-21.5 393,-21.5 393,-0.5 339,-0.5"/>
<text text-anchor="middle" x="366" y="-7.9" font-family="Helvetica,sans-Serif" font-size="12.00">sdios.h</text>
</a>
</g>
</g>
<!-- Node6&#45;&gt;Node7 -->
<g id="edge6" class="edge">
<title>Node6&#45;&gt;Node7</title>
<path fill="none" stroke="midnightblue" d="M181.84,-56.07C229.84,-44.58 300.66,-27.64 338.98,-18.47"/>
<polygon fill="midnightblue" stroke="midnightblue" points="180.87,-52.71 171.96,-58.44 182.5,-59.51 180.87,-52.71"/>
</g>
<!-- Node8&#45;&gt;Node7 -->
<g id="edge9" class="edge">
<title>Node8&#45;&gt;Node7</title>
<path fill="none" stroke="midnightblue" d="M305.48,-111.94C320.24,-104.47 336.38,-93.91 347,-80 360.39,-62.47 364.35,-35.97 365.51,-21.79"/>
<polygon fill="midnightblue" stroke="midnightblue" points="303.59,-108.97 296.05,-116.41 306.59,-115.29 303.59,-108.97"/>
</g>
<!-- Node9 -->
<g id="node9" class="node">
<title>Node9</title>
<g id="a_node9"><a xlink:href="../../dc/de5/_stream_base_class_8cpp.html" target="_top" xlink:title=" ">
<polygon fill="white" stroke="black" points="202.5,-58.5 202.5,-79.5 337.5,-79.5 337.5,-58.5 202.5,-58.5"/>
<text text-anchor="middle" x="270" y="-65.9" font-family="Helvetica,sans-Serif" font-size="12.00">StreamBaseClass.cpp</text>
</a>
</g>
</g>
<!-- Node8&#45;&gt;Node9 -->
<g id="edge8" class="edge">
<title>Node8&#45;&gt;Node9</title>
<path fill="none" stroke="midnightblue" d="M270,-106.16C270,-97.16 270,-86.92 270,-79.64"/>
<polygon fill="midnightblue" stroke="midnightblue" points="266.5,-106.25 270,-116.25 273.5,-106.25 266.5,-106.25"/>
</g>
<!-- Node10&#45;&gt;Node7 -->
<g id="edge12" class="edge">
<title>Node10&#45;&gt;Node7</title>
<path fill="none" stroke="midnightblue" d="M369.78,-227.19C381.82,-219.66 394.33,-209.26 401,-196 431.7,-135 388.48,-50.26 371.96,-21.78"/>
<polygon fill="midnightblue" stroke="midnightblue" points="367.68,-224.36 360.77,-232.39 371.18,-230.42 367.68,-224.36"/>
</g>
<!-- Node11 -->
<g id="node11" class="node">
<title>Node11</title>
<g id="a_node11"><a xlink:href="../../d5/d98/_stdio_stream_8cpp.html" target="_top" xlink:title=" ">
<polygon fill="white" stroke="black" points="286.5,-174.5 286.5,-195.5 391.5,-195.5 391.5,-174.5 286.5,-174.5"/>
<text text-anchor="middle" x="339" y="-181.9" font-family="Helvetica,sans-Serif" font-size="12.00">StdioStream.cpp</text>
</a>
</g>
</g>
<!-- Node10&#45;&gt;Node11 -->
<g id="edge11" class="edge">
<title>Node10&#45;&gt;Node11</title>
<path fill="none" stroke="midnightblue" d="M339,-222.16C339,-213.16 339,-202.92 339,-195.64"/>
<polygon fill="midnightblue" stroke="midnightblue" points="335.5,-222.25 339,-232.25 342.5,-222.25 335.5,-222.25"/>
</g>
<!-- Node12&#45;&gt;Node4 -->
<g id="edge15" class="edge">
<title>Node12&#45;&gt;Node4</title>
<path fill="none" stroke="midnightblue" d="M197.52,-226.77C181.57,-216.85 161.25,-204.2 147.5,-195.64"/>
<polygon fill="midnightblue" stroke="midnightblue" points="195.98,-229.93 206.32,-232.25 199.68,-223.99 195.98,-229.93"/>
</g>
<!-- Node13 -->
<g id="node13" class="node">
<title>Node13</title>
<g id="a_node13"><a xlink:href="../../dd/d66/ostream_8cpp.html" target="_top" xlink:title=" ">
<polygon fill="white" stroke="black" points="186,-174.5 186,-195.5 268,-195.5 268,-174.5 186,-174.5"/>
<text text-anchor="middle" x="227" y="-181.9" font-family="Helvetica,sans-Serif" font-size="12.00">ostream.cpp</text>
</a>
</g>
</g>
<!-- Node12&#45;&gt;Node13 -->
<g id="edge14" class="edge">
<title>Node12&#45;&gt;Node13</title>
<path fill="none" stroke="midnightblue" d="M223.77,-222.16C224.58,-213.16 225.49,-202.92 226.14,-195.64"/>
<polygon fill="midnightblue" stroke="midnightblue" points="220.27,-221.97 222.87,-232.25 227.25,-222.6 220.27,-221.97"/>
</g>
</g>
</svg>
