<?xml version="1.0" encoding="UTF-8" standalone="no"?>
<!DOCTYPE svg PUBLIC "-//W3C//DTD SVG 1.1//EN"
 "http://www.w3.org/Graphics/SVG/1.1/DTD/svg11.dtd">
<!-- Generated by graphviz version 2.47.3 (20210619.1520)
 -->
<!-- Title: ERISCore/lib/SdFat&#45;master/src/SpiDriver/SdSpiLibDriver.h Pages: 1 -->
<!--zoomable 618 -->
<svg id="main" version="1.1" xmlns="http://www.w3.org/2000/svg" xmlns:xlink="http://www.w3.org/1999/xlink" xml:space="preserve" onload="init(evt)">
<style type="text/css"><![CDATA[
.edge:hover path { stroke: red; }
.edge:hover polygon { stroke: red; fill: red; }
]]></style>
<script type="text/javascript"><![CDATA[
var edges = document.getElementsByTagName('g');
if (edges && edges.length) {
  for (var i=0;i<edges.length;i++) {
    if (edges[i].id.substr(0,4)=='edge') {
      edges[i].setAttribute('class','edge');
    }
  }
}
]]></script>
        <defs>
                <circle id="rim" cx="0" cy="0" r="7"/>
                <circle id="rim2" cx="0" cy="0" r="3.5"/>
                <g id="zoomPlus">
                        <use xlink:href="#rim" fill="#404040">
                                <set attributeName="fill" to="#808080" begin="zoomplus.mouseover" end="zoomplus.mouseout"/>
                        </use>
                        <path d="M-4,0h8M0,-4v8" fill="none" stroke="white" stroke-width="1.5" pointer-events="none"/>
                </g>
                <g id="zoomMin">
                        <use xlink:href="#rim" fill="#404040">
                                <set attributeName="fill" to="#808080" begin="zoomminus.mouseover" end="zoomminus.mouseout"/>
                        </use>
                        <path d="M-4,0h8" fill="none" stroke="white" stroke-width="1.5" pointer-events="none"/>
                </g>
                <g id="dirArrow">
                        <path fill="none" stroke="white" stroke-width="1.5" d="M0,-3.0v7 M-2.5,-0.5L0,-3.0L2.5,-0.5"/>
                </g>
               <g id="resetDef">
                       <use xlink:href="#rim2" fill="#404040">
                               <set attributeName="fill" to="#808080" begin="reset.mouseover" end="reset.mouseout"/>
                       </use>
               </g>
        </defs>

<script type="text/javascript">
var viewWidth = 1752;
var viewHeight = 618;
var sectionId = 'dynsection-0';
</script>
<script xlink:href="../../svgpan.js"/>
<svg id="graph" class="graph">
<g id="viewport">
<title>ERISCore/lib/SdFat&#45;master/src/SpiDriver/SdSpiLibDriver.h</title>
<polygon fill="white" stroke="transparent" points="-4,4 -4,-614 1747.5,-614 1747.5,4 -4,4"/>
<!-- Node1 -->
<g id="node1" class="node">
<title>Node1</title>
<g id="a_node1"><a xlink:title="Class using only simple SPI library functions.">
<polygon fill="#bfbfbf" stroke="black" points="1019.5,-562.5 1019.5,-609.5 1147.5,-609.5 1147.5,-562.5 1019.5,-562.5"/>
<text text-anchor="start" x="1027.5" y="-595.9" font-family="Helvetica,sans-Serif" font-size="12.00">ERISCore/lib/SdFat</text>
<text text-anchor="start" x="1027.5" y="-582.9" font-family="Helvetica,sans-Serif" font-size="12.00">&#45;master/src/SpiDriver</text>
<text text-anchor="middle" x="1083.5" y="-569.9" font-family="Helvetica,sans-Serif" font-size="12.00">/SdSpiLibDriver.h</text>
</a>
</g>
</g>
<!-- Node2 -->
<g id="node2" class="node">
<title>Node2</title>
<g id="a_node2"><a xlink:href="../../df/d66/_sd_spi_arduino_driver_8h.html" target="_top" xlink:title="SpiDriver classes for Arduino compatible systems.">
<polygon fill="white" stroke="black" points="1016.5,-478.5 1016.5,-525.5 1150.5,-525.5 1150.5,-478.5 1016.5,-478.5"/>
<text text-anchor="start" x="1024.5" y="-511.9" font-family="Helvetica,sans-Serif" font-size="12.00">ERISCore/lib/SdFat</text>
<text text-anchor="start" x="1024.5" y="-498.9" font-family="Helvetica,sans-Serif" font-size="12.00">&#45;master/src/SpiDriver</text>
<text text-anchor="middle" x="1083.5" y="-485.9" font-family="Helvetica,sans-Serif" font-size="12.00">/SdSpiArduinoDriver.h</text>
</a>
</g>
</g>
<!-- Node1&#45;&gt;Node2 -->
<g id="edge1" class="edge">
<title>Node1&#45;&gt;Node2</title>
<path fill="none" stroke="midnightblue" d="M1083.5,-552.11C1083.5,-543.26 1083.5,-533.88 1083.5,-525.72"/>
<polygon fill="midnightblue" stroke="midnightblue" points="1080,-552.16 1083.5,-562.16 1087,-552.16 1080,-552.16"/>
</g>
<!-- Node3 -->
<g id="node3" class="node">
<title>Node3</title>
<g id="a_node3"><a xlink:href="../../d1/d6a/_sd_spi_driver_8h.html" target="_top" xlink:title="SpiDriver classes.">
<polygon fill="white" stroke="black" points="1019.5,-394.5 1019.5,-441.5 1147.5,-441.5 1147.5,-394.5 1019.5,-394.5"/>
<text text-anchor="start" x="1027.5" y="-427.9" font-family="Helvetica,sans-Serif" font-size="12.00">ERISCore/lib/SdFat</text>
<text text-anchor="start" x="1027.5" y="-414.9" font-family="Helvetica,sans-Serif" font-size="12.00">&#45;master/src/SpiDriver</text>
<text text-anchor="middle" x="1083.5" y="-401.9" font-family="Helvetica,sans-Serif" font-size="12.00">/SdSpiDriver.h</text>
</a>
</g>
</g>
<!-- Node2&#45;&gt;Node3 -->
<g id="edge2" class="edge">
<title>Node2&#45;&gt;Node3</title>
<path fill="none" stroke="midnightblue" d="M1083.5,-468.11C1083.5,-459.26 1083.5,-449.88 1083.5,-441.72"/>
<polygon fill="midnightblue" stroke="midnightblue" points="1080,-468.16 1083.5,-478.16 1087,-468.16 1080,-468.16"/>
</g>
<!-- Node4 -->
<g id="node4" class="node">
<title>Node4</title>
<g id="a_node4"><a xlink:href="../../d8/daa/_sd_spi_card_8h.html" target="_top" xlink:title="SdSpiCard class for V2 SD/SDHC cards.">
<polygon fill="white" stroke="black" points="366,-317 366,-351 557,-351 557,-317 366,-317"/>
<text text-anchor="start" x="374" y="-337.4" font-family="Helvetica,sans-Serif" font-size="12.00">ERISCore/lib/SdFat</text>
<text text-anchor="middle" x="461.5" y="-324.4" font-family="Helvetica,sans-Serif" font-size="12.00">&#45;master/src/SdCard/SdSpiCard.h</text>
</a>
</g>
</g>
<!-- Node3&#45;&gt;Node4 -->
<g id="edge3" class="edge">
<title>Node3&#45;&gt;Node4</title>
<path fill="none" stroke="midnightblue" d="M1009.05,-410.91C908.29,-402.11 723.09,-384.02 566.5,-358 554.63,-356.03 542.07,-353.59 529.93,-351.04"/>
<polygon fill="midnightblue" stroke="midnightblue" points="1008.87,-414.4 1019.13,-411.78 1009.47,-407.43 1008.87,-414.4"/>
</g>
<!-- Node72 -->
<g id="node14" class="node">
<title>Node72</title>
<g id="a_node14"><a xlink:href="../../d6/df3/_sd_spi_artemis_8cpp.html" target="_top" xlink:title=" ">
<polygon fill="white" stroke="black" points="575.5,-310.5 575.5,-357.5 703.5,-357.5 703.5,-310.5 575.5,-310.5"/>
<text text-anchor="start" x="583.5" y="-343.9" font-family="Helvetica,sans-Serif" font-size="12.00">ERISCore/lib/SdFat</text>
<text text-anchor="start" x="583.5" y="-330.9" font-family="Helvetica,sans-Serif" font-size="12.00">&#45;master/src/SpiDriver</text>
<text text-anchor="middle" x="639.5" y="-317.9" font-family="Helvetica,sans-Serif" font-size="12.00">/SdSpiArtemis.cpp</text>
</a>
</g>
</g>
<!-- Node3&#45;&gt;Node72 -->
<g id="edge15" class="edge">
<title>Node3&#45;&gt;Node72</title>
<path fill="none" stroke="midnightblue" d="M1009.15,-408.33C934,-398.82 814.83,-381.7 713.5,-358 710.23,-357.23 706.88,-356.4 703.52,-355.51"/>
<polygon fill="midnightblue" stroke="midnightblue" points="1009.1,-411.85 1019.45,-409.62 1009.97,-404.9 1009.1,-411.85"/>
</g>
<!-- Node73 -->
<g id="node15" class="node">
<title>Node73</title>
<g id="a_node15"><a xlink:href="../../d8/d8f/_sd_spi_chip_select_8cpp.html" target="_top" xlink:title=" ">
<polygon fill="white" stroke="black" points="722,-310.5 722,-357.5 855,-357.5 855,-310.5 722,-310.5"/>
<text text-anchor="start" x="730" y="-343.9" font-family="Helvetica,sans-Serif" font-size="12.00">ERISCore/lib/SdFat</text>
<text text-anchor="start" x="730" y="-330.9" font-family="Helvetica,sans-Serif" font-size="12.00">&#45;master/src/SpiDriver</text>
<text text-anchor="middle" x="788.5" y="-317.9" font-family="Helvetica,sans-Serif" font-size="12.00">/SdSpiChipSelect.cpp</text>
</a>
</g>
</g>
<!-- Node3&#45;&gt;Node73 -->
<g id="edge16" class="edge">
<title>Node3&#45;&gt;Node73</title>
<path fill="none" stroke="midnightblue" d="M1009.44,-397.65C966.94,-386.4 912.62,-371.76 864.5,-358 861.45,-357.13 858.34,-356.23 855.19,-355.31"/>
<polygon fill="midnightblue" stroke="midnightblue" points="1008.59,-401.05 1019.15,-400.22 1010.38,-394.28 1008.59,-401.05"/>
</g>
<!-- Node74 -->
<g id="node16" class="node">
<title>Node74</title>
<g id="a_node16"><a xlink:href="../../de/daa/_sd_spi_due_8cpp.html" target="_top" xlink:title=" ">
<polygon fill="white" stroke="black" points="873.5,-310.5 873.5,-357.5 1001.5,-357.5 1001.5,-310.5 873.5,-310.5"/>
<text text-anchor="start" x="881.5" y="-343.9" font-family="Helvetica,sans-Serif" font-size="12.00">ERISCore/lib/SdFat</text>
<text text-anchor="start" x="881.5" y="-330.9" font-family="Helvetica,sans-Serif" font-size="12.00">&#45;master/src/SpiDriver</text>
<text text-anchor="middle" x="937.5" y="-317.9" font-family="Helvetica,sans-Serif" font-size="12.00">/SdSpiDue.cpp</text>
</a>
</g>
</g>
<!-- Node3&#45;&gt;Node74 -->
<g id="edge17" class="edge">
<title>Node3&#45;&gt;Node74</title>
<path fill="none" stroke="midnightblue" d="M1034.37,-389.41C1015.92,-379.04 995.19,-367.4 977.65,-357.55"/>
<polygon fill="midnightblue" stroke="midnightblue" points="1032.79,-392.53 1043.22,-394.38 1036.21,-386.43 1032.79,-392.53"/>
</g>
<!-- Node75 -->
<g id="node17" class="node">
<title>Node75</title>
<g id="a_node17"><a xlink:href="../../db/d4e/_sd_spi_e_s_p_8cpp.html" target="_top" xlink:title=" ">
<polygon fill="white" stroke="black" points="1019.5,-310.5 1019.5,-357.5 1147.5,-357.5 1147.5,-310.5 1019.5,-310.5"/>
<text text-anchor="start" x="1027.5" y="-343.9" font-family="Helvetica,sans-Serif" font-size="12.00">ERISCore/lib/SdFat</text>
<text text-anchor="start" x="1027.5" y="-330.9" font-family="Helvetica,sans-Serif" font-size="12.00">&#45;master/src/SpiDriver</text>
<text text-anchor="middle" x="1083.5" y="-317.9" font-family="Helvetica,sans-Serif" font-size="12.00">/SdSpiESP.cpp</text>
</a>
</g>
</g>
<!-- Node3&#45;&gt;Node75 -->
<g id="edge18" class="edge">
<title>Node3&#45;&gt;Node75</title>
<path fill="none" stroke="midnightblue" d="M1083.5,-384.11C1083.5,-375.26 1083.5,-365.88 1083.5,-357.72"/>
<polygon fill="midnightblue" stroke="midnightblue" points="1080,-384.16 1083.5,-394.16 1087,-384.16 1080,-384.16"/>
</g>
<!-- Node76 -->
<g id="node18" class="node">
<title>Node76</title>
<g id="a_node18"><a xlink:href="../../d3/de0/_sd_spi_particle_8cpp.html" target="_top" xlink:title=" ">
<polygon fill="white" stroke="black" points="1165.5,-310.5 1165.5,-357.5 1293.5,-357.5 1293.5,-310.5 1165.5,-310.5"/>
<text text-anchor="start" x="1173.5" y="-343.9" font-family="Helvetica,sans-Serif" font-size="12.00">ERISCore/lib/SdFat</text>
<text text-anchor="start" x="1173.5" y="-330.9" font-family="Helvetica,sans-Serif" font-size="12.00">&#45;master/src/SpiDriver</text>
<text text-anchor="middle" x="1229.5" y="-317.9" font-family="Helvetica,sans-Serif" font-size="12.00">/SdSpiParticle.cpp</text>
</a>
</g>
</g>
<!-- Node3&#45;&gt;Node76 -->
<g id="edge19" class="edge">
<title>Node3&#45;&gt;Node76</title>
<path fill="none" stroke="midnightblue" d="M1132.63,-389.41C1151.08,-379.04 1171.81,-367.4 1189.35,-357.55"/>
<polygon fill="midnightblue" stroke="midnightblue" points="1130.79,-386.43 1123.78,-394.38 1134.21,-392.53 1130.79,-386.43"/>
</g>
<!-- Node77 -->
<g id="node19" class="node">
<title>Node77</title>
<g id="a_node19"><a xlink:href="../../d8/d87/_sd_spi_s_t_m32_8cpp.html" target="_top" xlink:title=" ">
<polygon fill="white" stroke="black" points="1311.5,-310.5 1311.5,-357.5 1439.5,-357.5 1439.5,-310.5 1311.5,-310.5"/>
<text text-anchor="start" x="1319.5" y="-343.9" font-family="Helvetica,sans-Serif" font-size="12.00">ERISCore/lib/SdFat</text>
<text text-anchor="start" x="1319.5" y="-330.9" font-family="Helvetica,sans-Serif" font-size="12.00">&#45;master/src/SpiDriver</text>
<text text-anchor="middle" x="1375.5" y="-317.9" font-family="Helvetica,sans-Serif" font-size="12.00">/SdSpiSTM32.cpp</text>
</a>
</g>
</g>
<!-- Node3&#45;&gt;Node77 -->
<g id="edge20" class="edge">
<title>Node3&#45;&gt;Node77</title>
<path fill="none" stroke="midnightblue" d="M1157.62,-397.86C1200.14,-386.67 1254.46,-372.03 1302.5,-358 1305.43,-357.14 1308.43,-356.25 1311.45,-355.35"/>
<polygon fill="midnightblue" stroke="midnightblue" points="1156.69,-394.49 1147.9,-400.41 1158.46,-401.26 1156.69,-394.49"/>
</g>
<!-- Node78 -->
<g id="node20" class="node">
<title>Node78</title>
<g id="a_node20"><a xlink:href="../../d8/d65/_sd_spi_teensy3_8cpp.html" target="_top" xlink:title=" ">
<polygon fill="white" stroke="black" points="1457.5,-310.5 1457.5,-357.5 1585.5,-357.5 1585.5,-310.5 1457.5,-310.5"/>
<text text-anchor="start" x="1465.5" y="-343.9" font-family="Helvetica,sans-Serif" font-size="12.00">ERISCore/lib/SdFat</text>
<text text-anchor="start" x="1465.5" y="-330.9" font-family="Helvetica,sans-Serif" font-size="12.00">&#45;master/src/SpiDriver</text>
<text text-anchor="middle" x="1521.5" y="-317.9" font-family="Helvetica,sans-Serif" font-size="12.00">/SdSpiTeensy3.cpp</text>
</a>
</g>
</g>
<!-- Node3&#45;&gt;Node78 -->
<g id="edge21" class="edge">
<title>Node3&#45;&gt;Node78</title>
<path fill="none" stroke="midnightblue" d="M1157.86,-408.19C1232.06,-398.65 1349.03,-381.58 1448.5,-358 1451.34,-357.33 1454.24,-356.6 1457.15,-355.83"/>
<polygon fill="midnightblue" stroke="midnightblue" points="1157.16,-404.75 1147.68,-409.49 1158.04,-411.7 1157.16,-404.75"/>
</g>
<!-- Node79 -->
<g id="node21" class="node">
<title>Node79</title>
<g id="a_node21"><a xlink:href="../../dd/db4/_sd_spi_s_t_m32_core_8cpp.html" target="_top" xlink:title=" ">
<polygon fill="white" stroke="black" points="1603.5,-310.5 1603.5,-357.5 1743.5,-357.5 1743.5,-310.5 1603.5,-310.5"/>
<text text-anchor="start" x="1611.5" y="-343.9" font-family="Helvetica,sans-Serif" font-size="12.00">ERISCore/lib/SdFat</text>
<text text-anchor="start" x="1611.5" y="-330.9" font-family="Helvetica,sans-Serif" font-size="12.00">&#45;master/src/SpiDriver</text>
<text text-anchor="middle" x="1673.5" y="-317.9" font-family="Helvetica,sans-Serif" font-size="12.00">/SdSpiSTM32Core.cpp</text>
</a>
</g>
</g>
<!-- Node3&#45;&gt;Node79 -->
<g id="edge22" class="edge">
<title>Node3&#45;&gt;Node79</title>
<path fill="none" stroke="midnightblue" d="M1157.78,-412.36C1257.78,-405.22 1440.89,-389 1594.5,-358 1597.44,-357.41 1600.43,-356.76 1603.44,-356.06"/>
<polygon fill="midnightblue" stroke="midnightblue" points="1157.5,-408.87 1147.77,-413.06 1157.99,-415.85 1157.5,-408.87"/>
</g>
<!-- Node5 -->
<g id="node5" class="node">
<title>Node5</title>
<g id="a_node5"><a xlink:href="../../db/d31/_sd_card_8h.html" target="_top" xlink:title=" ">
<polygon fill="white" stroke="black" points="272,-239.5 272,-273.5 445,-273.5 445,-239.5 272,-239.5"/>
<text text-anchor="start" x="280" y="-259.9" font-family="Helvetica,sans-Serif" font-size="12.00">ERISCore/lib/SdFat</text>
<text text-anchor="middle" x="358.5" y="-246.9" font-family="Helvetica,sans-Serif" font-size="12.00">&#45;master/src/SdCard/SdCard.h</text>
</a>
</g>
</g>
<!-- Node4&#45;&gt;Node5 -->
<g id="edge4" class="edge">
<title>Node4&#45;&gt;Node5</title>
<path fill="none" stroke="midnightblue" d="M431.52,-311.02C415.26,-299.11 395.52,-284.64 380.67,-273.75"/>
<polygon fill="midnightblue" stroke="midnightblue" points="429.52,-313.9 439.66,-316.99 433.66,-308.25 429.52,-313.9"/>
</g>
<!-- Node71 -->
<g id="node13" class="node">
<title>Node71</title>
<g id="a_node13"><a xlink:href="../../d0/d78/_sd_spi_card_8cpp.html" target="_top" xlink:title=" ">
<polygon fill="white" stroke="black" points="463.5,-239.5 463.5,-273.5 667.5,-273.5 667.5,-239.5 463.5,-239.5"/>
<text text-anchor="start" x="471.5" y="-259.9" font-family="Helvetica,sans-Serif" font-size="12.00">ERISCore/lib/SdFat</text>
<text text-anchor="middle" x="565.5" y="-246.9" font-family="Helvetica,sans-Serif" font-size="12.00">&#45;master/src/SdCard/SdSpiCard.cpp</text>
</a>
</g>
</g>
<!-- Node4&#45;&gt;Node71 -->
<g id="edge14" class="edge">
<title>Node4&#45;&gt;Node71</title>
<path fill="none" stroke="midnightblue" d="M491.77,-311.02C508.18,-299.11 528.12,-284.64 543.12,-273.75"/>
<polygon fill="midnightblue" stroke="midnightblue" points="489.59,-308.28 483.56,-316.99 493.7,-313.95 489.59,-308.28"/>
</g>
<!-- Node6 -->
<g id="node6" class="node">
<title>Node6</title>
<g id="a_node6"><a xlink:href="../../d7/df6/_block_device_8h.html" target="_top" xlink:title=" ">
<polygon fill="white" stroke="black" points="169,-168.5 169,-202.5 370,-202.5 370,-168.5 169,-168.5"/>
<text text-anchor="start" x="177" y="-188.9" font-family="Helvetica,sans-Serif" font-size="12.00">ERISCore/lib/SdFat</text>
<text text-anchor="middle" x="269.5" y="-175.9" font-family="Helvetica,sans-Serif" font-size="12.00">&#45;master/src/common/BlockDevice.h</text>
</a>
</g>
</g>
<!-- Node5&#45;&gt;Node6 -->
<g id="edge5" class="edge">
<title>Node5&#45;&gt;Node6</title>
<path fill="none" stroke="midnightblue" d="M329.77,-233.22C316.93,-223.27 302.08,-211.76 290.34,-202.66"/>
<polygon fill="midnightblue" stroke="midnightblue" points="327.81,-236.14 337.86,-239.5 332.1,-230.6 327.81,-236.14"/>
</g>
<!-- Node38 -->
<g id="node12" class="node">
<title>Node38</title>
<g id="a_node12"><a xlink:href="../../d5/ddc/_sd_fat_8h.html" target="_top" xlink:title="main SdFs include file.">
<polygon fill="white" stroke="red" points="388.5,-168.5 388.5,-202.5 508.5,-202.5 508.5,-168.5 388.5,-168.5"/>
<text text-anchor="start" x="396.5" y="-188.9" font-family="Helvetica,sans-Serif" font-size="12.00">ERISCore/lib/SdFat</text>
<text text-anchor="middle" x="448.5" y="-175.9" font-family="Helvetica,sans-Serif" font-size="12.00">&#45;master/src/SdFat.h</text>
</a>
</g>
</g>
<!-- Node5&#45;&gt;Node38 -->
<g id="edge13" class="edge">
<title>Node5&#45;&gt;Node38</title>
<path fill="none" stroke="midnightblue" d="M387.56,-233.22C400.54,-223.27 415.55,-211.76 427.43,-202.66"/>
<polygon fill="midnightblue" stroke="midnightblue" points="385.18,-230.63 379.37,-239.5 389.44,-236.19 385.18,-230.63"/>
</g>
<!-- Node7 -->
<g id="node7" class="node">
<title>Node7</title>
<g id="a_node7"><a xlink:href="../../d1/d0d/_fs_cache_8h.html" target="_top" xlink:title="Common cache code for exFAT and FAT.">
<polygon fill="white" stroke="red" points="58,-91 58,-125 241,-125 241,-91 58,-91"/>
<text text-anchor="start" x="66" y="-111.4" font-family="Helvetica,sans-Serif" font-size="12.00">ERISCore/lib/SdFat</text>
<text text-anchor="middle" x="149.5" y="-98.4" font-family="Helvetica,sans-Serif" font-size="12.00">&#45;master/src/common/FsCache.h</text>
</a>
</g>
</g>
<!-- Node6&#45;&gt;Node7 -->
<g id="edge6" class="edge">
<title>Node6&#45;&gt;Node7</title>
<path fill="none" stroke="midnightblue" d="M235.35,-163.01C216.27,-151.01 192.87,-136.29 175.33,-125.25"/>
<polygon fill="midnightblue" stroke="midnightblue" points="233.72,-166.13 244.05,-168.49 237.45,-160.2 233.72,-166.13"/>
</g>
<!-- Node9 -->
<g id="node8" class="node">
<title>Node9</title>
<g id="a_node8"><a xlink:href="../../d7/dc8/_ex_fat_partition_8h.html" target="_top" xlink:title="ExFatPartition include file.">
<polygon fill="white" stroke="red" points="0,-0.5 0,-47.5 125,-47.5 125,-0.5 0,-0.5"/>
<text text-anchor="start" x="8" y="-33.9" font-family="Helvetica,sans-Serif" font-size="12.00">ERISCore/lib/SdFat</text>
<text text-anchor="start" x="8" y="-20.9" font-family="Helvetica,sans-Serif" font-size="12.00">&#45;master/src/ExFatLib</text>
<text text-anchor="middle" x="62.5" y="-7.9" font-family="Helvetica,sans-Serif" font-size="12.00">/ExFatPartition.h</text>
</a>
</g>
</g>
<!-- Node6&#45;&gt;Node9 -->
<g id="edge10" class="edge">
<title>Node6&#45;&gt;Node9</title>
<path fill="none" stroke="midnightblue" d="M158.77,-171.11C111.09,-162.86 62.94,-150.27 48.5,-132 29.57,-108.04 40.42,-71.21 50.8,-47.62"/>
<polygon fill="midnightblue" stroke="midnightblue" points="158.49,-174.62 168.93,-172.81 159.64,-167.71 158.49,-174.62"/>
</g>
<!-- Node56 -->
<g id="node9" class="node">
<title>Node56</title>
<g id="a_node9"><a xlink:href="../../db/dd3/_fat_partition_8h.html" target="_top" xlink:title="FatPartition class.">
<polygon fill="white" stroke="red" points="160,-7 160,-41 345,-41 345,-7 160,-7"/>
<text text-anchor="start" x="168" y="-27.4" font-family="Helvetica,sans-Serif" font-size="12.00">ERISCore/lib/SdFat</text>
<text text-anchor="middle" x="252.5" y="-14.4" font-family="Helvetica,sans-Serif" font-size="12.00">&#45;master/src/FatLib/FatPartition.h</text>
</a>
</g>
</g>
<!-- Node6&#45;&gt;Node56 -->
<g id="edge12" class="edge">
<title>Node6&#45;&gt;Node56</title>
<path fill="none" stroke="midnightblue" d="M266.67,-157.99C263.13,-124.73 257.16,-68.71 254.23,-41.21"/>
<polygon fill="midnightblue" stroke="midnightblue" points="263.24,-158.76 267.78,-168.33 270.2,-158.01 263.24,-158.76"/>
</g>
<!-- Node69 -->
<g id="node10" class="node">
<title>Node69</title>
<g id="a_node10"><a xlink:href="../../d8/d58/_ex_fat_formatter_8h.html" target="_top" xlink:title=" ">
<polygon fill="white" stroke="red" points="298,-84.5 298,-131.5 423,-131.5 423,-84.5 298,-84.5"/>
<text text-anchor="start" x="306" y="-117.9" font-family="Helvetica,sans-Serif" font-size="12.00">ERISCore/lib/SdFat</text>
<text text-anchor="start" x="306" y="-104.9" font-family="Helvetica,sans-Serif" font-size="12.00">&#45;master/src/ExFatLib</text>
<text text-anchor="middle" x="360.5" y="-91.9" font-family="Helvetica,sans-Serif" font-size="12.00">/ExFatFormatter.h</text>
</a>
</g>
</g>
<!-- Node6&#45;&gt;Node69 -->
<g id="edge9" class="edge">
<title>Node6&#45;&gt;Node69</title>
<path fill="none" stroke="midnightblue" d="M296.82,-161.84C308.36,-152.26 321.76,-141.14 333.29,-131.58"/>
<polygon fill="midnightblue" stroke="midnightblue" points="294.26,-159.41 288.8,-168.49 298.73,-164.8 294.26,-159.41"/>
</g>
<!-- Node70 -->
<g id="node11" class="node">
<title>Node70</title>
<g id="a_node11"><a xlink:href="../../d8/d20/_fat_formatter_8h.html" target="_top" xlink:title=" ">
<polygon fill="white" stroke="red" points="441.5,-91 441.5,-125 633.5,-125 633.5,-91 441.5,-91"/>
<text text-anchor="start" x="449.5" y="-111.4" font-family="Helvetica,sans-Serif" font-size="12.00">ERISCore/lib/SdFat</text>
<text text-anchor="middle" x="537.5" y="-98.4" font-family="Helvetica,sans-Serif" font-size="12.00">&#45;master/src/FatLib/FatFormatter.h</text>
</a>
</g>
</g>
<!-- Node6&#45;&gt;Node70 -->
<g id="edge11" class="edge">
<title>Node6&#45;&gt;Node70</title>
<path fill="none" stroke="midnightblue" d="M336.15,-165.72C380.46,-153.24 438.05,-137.02 480.28,-125.12"/>
<polygon fill="midnightblue" stroke="midnightblue" points="335.01,-162.41 326.34,-168.49 336.91,-169.15 335.01,-162.41"/>
</g>
<!-- Node7&#45;&gt;Node9 -->
<g id="edge7" class="edge">
<title>Node7&#45;&gt;Node9</title>
<path fill="none" stroke="midnightblue" d="M124.82,-83.74C112.83,-72.44 98.48,-58.91 86.57,-47.69"/>
<polygon fill="midnightblue" stroke="midnightblue" points="122.63,-86.49 132.31,-90.8 127.44,-81.39 122.63,-86.49"/>
</g>
<!-- Node7&#45;&gt;Node56 -->
<g id="edge8" class="edge">
<title>Node7&#45;&gt;Node56</title>
<path fill="none" stroke="midnightblue" d="M177.91,-84.38C195.13,-70.68 216.69,-53.51 232.19,-41.17"/>
<polygon fill="midnightblue" stroke="midnightblue" points="175.49,-81.83 169.85,-90.8 179.85,-87.31 175.49,-81.83"/>
</g>
</g>
</svg>
        <g id="navigator" transform="translate(0 0)" fill="#404254">
                <rect fill="#f2f5e9" fill-opacity="0.5" stroke="#606060" stroke-width=".5" x="0" y="0" width="60" height="60"/>
                <use id="zoomplus" xlink:href="#zoomPlus" x="17" y="9" onmousedown="handleZoom(evt,'in')"/>
                <use id="zoomminus" xlink:href="#zoomMin" x="42" y="9" onmousedown="handleZoom(evt,'out')"/>
                <use id="reset" xlink:href="#resetDef" x="30" y="36" onmousedown="handleReset()"/>
                <g id="arrowUp" xlink:href="#dirArrow" transform="translate(30 24)" onmousedown="handlePan(0,-1)">
                  <use xlink:href="#rim" fill="#404040">
                        <set attributeName="fill" to="#808080" begin="arrowUp.mouseover" end="arrowUp.mouseout"/>
                  </use>
                  <path fill="none" stroke="white" stroke-width="1.5" d="M0,-3.0v7 M-2.5,-0.5L0,-3.0L2.5,-0.5"/>
                </g>
                <g id="arrowRight" xlink:href="#dirArrow" transform="rotate(90) translate(36 -43)" onmousedown="handlePan(1,0)">
                  <use xlink:href="#rim" fill="#404040">
                        <set attributeName="fill" to="#808080" begin="arrowRight.mouseover" end="arrowRight.mouseout"/>
                  </use>
                  <path fill="none" stroke="white" stroke-width="1.5" d="M0,-3.0v7 M-2.5,-0.5L0,-3.0L2.5,-0.5"/>
                </g>
                <g id="arrowDown" xlink:href="#dirArrow" transform="rotate(180) translate(-30 -48)" onmousedown="handlePan(0,1)">
                  <use xlink:href="#rim" fill="#404040">
                        <set attributeName="fill" to="#808080" begin="arrowDown.mouseover" end="arrowDown.mouseout"/>
                  </use>
                  <path fill="none" stroke="white" stroke-width="1.5" d="M0,-3.0v7 M-2.5,-0.5L0,-3.0L2.5,-0.5"/>
                </g>
                <g id="arrowLeft" xlink:href="#dirArrow" transform="rotate(270) translate(-36 17)" onmousedown="handlePan(-1,0)">
                  <use xlink:href="#rim" fill="#404040">
                        <set attributeName="fill" to="#808080" begin="arrowLeft.mouseover" end="arrowLeft.mouseout"/>
                  </use>
                  <path fill="none" stroke="white" stroke-width="1.5" d="M0,-3.0v7 M-2.5,-0.5L0,-3.0L2.5,-0.5"/>
                </g>
        </g>
        <svg viewBox="0 0 15 15" width="100%" height="30px" preserveAspectRatio="xMaxYMin meet">
         <g id="arrow_out" transform="scale(0.3 0.3)">
          <a xlink:href="_sd_spi_lib_driver_8h__dep__incl_org.svg" target="_base">
           <rect id="button" ry="5" rx="5" y="6" x="6" height="38" width="38"
                fill="#f2f5e9" fill-opacity="0.5" stroke="#606060" stroke-width="1.0"/>
           <path id="arrow"
             d="M 11.500037,31.436501 C 11.940474,20.09759 22.043105,11.32322 32.158766,21.979434 L 37.068811,17.246167 C 37.068811,17.246167 37.088388,32 37.088388,32 L 22.160133,31.978069 C 22.160133,31.978069 26.997745,27.140456 26.997745,27.140456 C 18.528582,18.264221 13.291696,25.230495 11.500037,31.436501 z"
             style="fill:#404040;"/>
          </a>
         </g>
        </svg>
</svg>
